<?xml version="1.0" encoding="utf-8"?>
<!-- Generator: Adobe Illustrator 16.0.0, SVG Export Plug-In . SVG Version: 6.00 Build 0)  -->
<!DOCTYPE svg PUBLIC "-//W3C//DTD SVG 1.1//EN" "http://www.w3.org/Graphics/SVG/1.1/DTD/svg11.dtd">
<svg version="1.1" id="Layer_1" xmlns="http://www.w3.org/2000/svg" xmlns:xlink="http://www.w3.org/1999/xlink" x="0px" y="0px"
	 width="300px" height="300px" viewBox="0 0 300 300" enable-background="new 0 0 300 300" xml:space="preserve">
<g>
	<rect x="116.984" y="102.004" fill="#F7E0CF" width="6" height="6"/>
	<rect x="122.984" y="102.004" fill="#BAA993" width="6" height="6"/>
	<rect x="128.984" y="102.004" fill="#EFD1B8" width="6" height="6"/>
	<rect x="134.984" y="102.004" fill="#EFD1B8" width="6" height="6"/>
	<rect x="140.984" y="102.004" fill="#F7E0CF" width="6" height="6"/>
	<rect x="146.984" y="102.004" fill="#F7E0CF" width="6" height="6"/>
	<rect x="116.984" y="114.004" fill="#EAC4B2" width="6" height="6"/>
	<rect x="122.984" y="114.004" fill="#EAC4B2" width="6" height="6"/>
	<rect x="128.984" y="114.004" fill="#EFD1B8" width="6" height="6"/>
	<rect x="134.984" y="114.004" fill="#EFD1B8" width="6" height="6"/>
	<rect x="140.984" y="114.004" fill="#EFD1B8" width="6" height="6"/>
	<rect x="146.984" y="114.004" fill="#5A5B5E" width="6" height="6"/>
	<rect x="116.984" y="120.004" fill="#231F20" width="6" height="6"/>
	<rect x="122.984" y="120.004" fill="#231F20" width="6" height="6"/>
	<rect x="116.984" y="125.98" fill="#5A5B5E" width="6" height="6"/>
	<rect x="122.984" y="125.98" fill="#464749" width="6" height="6"/>
	<rect x="116.984" y="131.973" fill="#808285" width="6" height="6"/>
	<rect x="122.984" y="131.973" fill="#3E2D02" width="6" height="6"/>
	<rect x="116.984" y="137.98" fill="#EFD1B8" width="6" height="6"/>
	<rect x="122.984" y="137.98" fill="#ADAFB2" width="6" height="6"/>
	<rect x="116.984" y="143.973" fill="#A49C80" width="6" height="6"/>
	<rect x="110.984" y="137.98" fill="#EFD1B8" width="6" height="6"/>
	<rect x="122.984" y="143.973" fill="#BAA993" width="6" height="6"/>
	<rect x="134.984" y="143.973" fill="#D7BFAA" width="6" height="6"/>
	<rect x="128.984" y="143.973" fill="#D7BFAA" width="6" height="6"/>
	<rect x="140.984" y="143.973" fill="#EEE3E0" width="6" height="6"/>
	<rect x="152.984" y="143.973" fill="#D7BFAA" width="6" height="6"/>
	<rect x="146.984" y="143.973" fill="#EAC4B2" width="6" height="6"/>
	<rect x="134.984" y="149.957" fill="#FFFFFF" width="6" height="6"/>
	<rect x="128.984" y="149.957" fill="#FFFFFF" width="6" height="6"/>
	<rect x="140.984" y="149.957" fill="#FFFFFF" width="6" height="6"/>
	<rect x="146.984" y="149.957" fill="#EFD1B8" width="6" height="6"/>
	<rect x="134.984" y="155.949" fill="#C97D7A" width="6" height="6"/>
	<rect x="128.984" y="155.949" fill="#C97D7A" width="6" height="6"/>
	<rect x="140.984" y="155.949" fill="#AD6D67" width="6" height="6"/>
	<rect x="146.984" y="155.949" fill="#D7BFAA" width="6" height="6"/>
	<rect x="134.984" y="161.949" fill="#BAA993" width="6" height="6"/>
	<rect x="128.984" y="161.949" fill="#A49C80" width="6" height="6"/>
	<rect x="140.984" y="161.949" fill="#D7BFAA" width="6" height="6"/>
	<rect x="146.984" y="161.949" fill="#EFD1B8" width="6" height="6"/>
	<rect x="152.984" y="161.949" fill="#EAC4B2" width="6" height="6"/>
	<rect x="158.984" y="143.973" fill="#EFD1B8" width="6" height="6"/>
	<rect x="152.984" y="137.98" fill="#BAA993" width="6" height="6"/>
	<rect x="158.984" y="137.98" fill="#EFD1B8" width="6" height="6"/>
	<rect x="152.984" y="155.949" fill="#EFD1B8" width="6" height="6"/>
	<rect x="158.984" y="155.949" fill="#EFD1B8" width="6" height="6"/>
	<rect x="158.984" y="161.949" fill="#EFD1B8" width="6" height="6"/>
	<rect x="152.984" y="149.957" fill="#D7BFAA" width="6" height="6"/>
	<rect x="158.984" y="149.957" fill="#EAC4B2" width="6" height="6"/>
	<rect x="152.984" y="131.973" fill="#5A5B5E" width="6" height="6"/>
	<rect x="158.984" y="131.973" fill="#EFD1B8" width="6" height="6"/>
	<rect x="152.984" y="125.98" fill="#E8CD8D" width="6" height="6"/>
	<rect x="158.984" y="125.98" fill="#EFD1B8" width="6" height="6"/>
	<rect x="164.984" y="125.996" fill="#F7E0CF" width="6" height="6"/>
	<rect x="164.984" y="132.004" fill="#EFD1B8" width="6" height="6"/>
	<rect x="164.984" y="120.004" fill="#F7E0CF" width="6" height="6"/>
	<rect x="128.984" y="120.004" fill="#464749" width="6" height="6"/>
	<rect x="134.984" y="120.004" fill="#EFD1B8" width="6" height="6"/>
	<rect x="140.984" y="120.004" fill="#EFD1B8" width="6" height="6"/>
	<rect x="146.984" y="120.004" fill="#5A5B5E" width="6" height="6"/>
	<rect x="128.984" y="125.98" fill="#5A5B5E" width="6" height="6"/>
	<rect x="134.984" y="125.98" fill="#231F20" width="6" height="6"/>
	<rect x="140.984" y="125.98" fill="#3E2D02" width="6" height="6"/>
	<rect x="146.984" y="125.98" fill="#231F20" width="6" height="6"/>
	<rect x="128.984" y="131.973" fill="#FFFFFF" width="6" height="6"/>
	<rect x="134.984" y="131.973" fill="#808285" width="6" height="6"/>
	<rect x="140.984" y="131.973" fill="#EFD1B8" width="6" height="6"/>
	<rect x="146.984" y="131.973" fill="#D7BFAA" width="6" height="6"/>
	<rect x="128.984" y="137.973" fill="#ADAFB2" width="6" height="6"/>
	<rect x="134.984" y="137.973" fill="#EEE3E0" width="6" height="6"/>
	<rect x="140.984" y="137.973" fill="#EAC4B2" width="6" height="6"/>
	<rect x="146.984" y="137.973" fill="#EFD1B8" width="6" height="6"/>
	<rect x="152.984" y="102.004" fill="#231F20" width="6" height="6"/>
	<rect x="158.984" y="102.004" fill="#5A5B5E" width="6" height="6"/>
	<rect x="122.984" y="96.012" fill="#231F20" width="6" height="6"/>
	<rect x="128.984" y="96.012" fill="#231F20" width="6" height="6"/>
	<rect x="134.984" y="96.012" fill="#5A5B5E" width="6" height="6"/>
	<rect x="140.984" y="96.012" fill="#5A5B5E" width="6" height="6"/>
	<rect x="146.984" y="96.012" fill="#5A5B5E" width="6" height="6"/>
	<rect x="152.984" y="96.012" fill="#231F20" width="6" height="6"/>
	<rect x="152.984" y="114.004" fill="#323133" width="6" height="6"/>
	<rect x="152.984" y="125.98" fill="#231F20" width="6" height="6"/>
	<rect x="158.984" y="114.004" fill="#231F20" width="6" height="6"/>
	<rect x="164.984" y="108.027" fill="#5A5B5E" width="6" height="6"/>
	<rect x="116.984" y="108.004" fill="#F7E0CF" width="6" height="6"/>
	<rect x="122.984" y="108.004" fill="#EFD1B8" width="6" height="6"/>
	<rect x="128.984" y="108.004" fill="#EFD1B8" width="6" height="6"/>
	<rect x="134.984" y="108.004" fill="#EFD1B8" width="6" height="6"/>
	<rect x="140.984" y="108.004" fill="#EFD1B8" width="6" height="6"/>
	<rect x="146.984" y="108.004" fill="#F7E0CF" width="6" height="6"/>
	<rect x="152.984" y="108.004" fill="#231F20" width="6" height="6"/>
	<rect x="158.984" y="108.004" fill="#231F20" width="6" height="6"/>
	<rect x="164.984" y="114.027" fill="#5A5B5E" width="6" height="6"/>
	<rect x="152.984" y="120.004" fill="#323133" width="6" height="6"/>
	<rect x="158.984" y="120.004" fill="#F7E0CF" width="6" height="6"/>
	<rect x="134.984" y="167.949" fill="#D7BFAA" width="6" height="6"/>
	<rect x="140.984" y="167.949" fill="#D7BFAA" width="6" height="6"/>
	<rect x="146.984" y="167.949" fill="#EAC4B2" width="6" height="6"/>
	<rect x="152.984" y="167.949" fill="#EFD1B8" width="6" height="6"/>
	<rect x="141.016" y="173.988" fill="#EFD1B8" width="6" height="6"/>
	<rect x="147.016" y="173.988" fill="#EFD1B8" width="6" height="6"/>
	<rect x="159.016" y="167.996" fill="#EFD1B8" width="6" height="6"/>
	<rect x="159.016" y="173.988" fill="#911C24" width="6" height="6"/>
	<rect x="153.016" y="173.988" fill="#EFD1B8" width="6" height="6"/>
	<rect x="135.016" y="173.988" fill="#911C24" width="6" height="6"/>
	<rect x="123.016" y="173.988" fill="#ED1C24" width="6" height="6"/>
	<rect x="165.016" y="173.988" fill="#ED1C24" width="6" height="6"/>
	<rect x="171.016" y="173.988" fill="#ED1C24" width="6" height="6"/>
	<rect x="177.016" y="173.988" fill="#ED1C24" width="6" height="6"/>
	<rect x="141.016" y="185.988" fill="#ED1C24" width="6" height="6"/>
	<rect x="147.016" y="185.988" fill="#ED1C24" width="6" height="6"/>
	<rect x="159.016" y="185.988" fill="#ED1C24" width="6" height="6"/>
	<rect x="153.016" y="185.988" fill="#ED1C24" width="6" height="6"/>
	<rect x="135.016" y="185.988" fill="#ED1C24" width="6" height="6"/>
	<rect x="123.016" y="185.988" fill="#ED1C24" width="6" height="6"/>
	<rect x="117.016" y="185.988" fill="#ED1C24" width="6" height="6"/>
	<rect x="165.016" y="185.988" fill="#ED1C24" width="6" height="6"/>
	<rect x="171.016" y="185.988" fill="#ED1C24" width="6" height="6"/>
	<rect x="177.016" y="185.988" fill="#ED1C24" width="6" height="6"/>
	<rect x="183.016" y="185.988" fill="#ED1C24" width="6" height="6"/>
	<rect x="141.016" y="197.988" fill="#231F20" width="6" height="6"/>
	<rect x="147.016" y="197.988" fill="#ED1C24" width="6" height="6"/>
	<rect x="159.016" y="197.988" fill="#231F20" width="6" height="6"/>
	<rect x="153.016" y="197.988" fill="#231F20" width="6" height="6"/>
	<rect x="135.016" y="197.988" fill="#ED1C24" width="6" height="6"/>
	<rect x="123.016" y="197.988" fill="#911C24" width="6" height="6"/>
	<rect x="117.016" y="197.988" fill="#EFD1B8" width="6" height="6"/>
	<rect x="165.016" y="197.988" fill="#ED1C24" width="6" height="6"/>
	<rect x="171.016" y="197.988" fill="#911C24" width="6" height="6"/>
	<rect x="177.016" y="197.988" fill="#EFD1B8" width="6" height="6"/>
	<rect x="183.016" y="197.988" fill="#EFD1B8" width="6" height="6"/>
	<rect x="141.016" y="179.988" fill="#911C24" width="6" height="6"/>
	<rect x="147.016" y="179.988" fill="#911C24" width="6" height="6"/>
	<rect x="159.016" y="179.988" fill="#911C24" width="6" height="6"/>
	<rect x="153.016" y="179.988" fill="#911C24" width="6" height="6"/>
	<rect x="135.016" y="179.988" fill="#911C24" width="6" height="6"/>
	<rect x="123.016" y="179.988" fill="#ED1C24" width="6" height="6"/>
	<rect x="117.016" y="179.988" fill="#ED1C24" width="6" height="6"/>
	<rect x="165.016" y="179.988" fill="#ED1C24" width="6" height="6"/>
	<rect x="171.016" y="179.988" fill="#ED1C24" width="6" height="6"/>
	<rect x="177.016" y="179.988" fill="#ED1C24" width="6" height="6"/>
	<rect x="183.016" y="179.988" fill="#ED1C24" width="6" height="6"/>
	<rect x="141.016" y="191.988" fill="#ED1C24" width="6" height="6"/>
	<rect x="147.016" y="191.988" fill="#231F20" width="6" height="6"/>
	<rect x="159.016" y="191.988" fill="#ED1C24" width="6" height="6"/>
	<rect x="153.016" y="191.988" fill="#ED1C24" width="6" height="6"/>
	<rect x="135.016" y="191.988" fill="#231F20" width="6" height="6"/>
	<rect x="123.016" y="191.988" fill="#ED1C24" width="6" height="6"/>
	<rect x="117.016" y="191.988" fill="#ED1C24" width="6" height="6"/>
	<rect x="111.016" y="185.988" fill="#ED1C24" width="6" height="6"/>
	<rect x="111.016" y="197.988" fill="#EFD1B8" width="6" height="6"/>
	<rect x="111.016" y="191.988" fill="#ED1C24" width="6" height="6"/>
	<rect x="165.016" y="191.988" fill="#ED1C24" width="6" height="6"/>
	<rect x="171.016" y="191.988" fill="#ED1C24" width="6" height="6"/>
	<rect x="128.984" y="173.988" fill="#ED1C24" width="6" height="6"/>
	<rect x="128.984" y="185.988" fill="#ED1C24" width="6" height="6"/>
	<rect x="128.984" y="197.988" fill="#ED1C24" width="6" height="6"/>
	<rect x="128.984" y="179.988" fill="#ED1C24" width="6" height="6"/>
	<rect x="128.984" y="191.988" fill="#ED1C24" width="6" height="6"/>
	<rect x="177.016" y="191.988" fill="#ED1C24" width="6" height="6"/>
	<rect x="183.016" y="191.988" fill="#ED1C24" width="6" height="6"/>
</g>
</svg>
