<?xml version="1.0" encoding="utf-8"?>
<!-- Generator: Adobe Illustrator 16.0.0, SVG Export Plug-In . SVG Version: 6.00 Build 0)  -->
<!DOCTYPE svg PUBLIC "-//W3C//DTD SVG 1.1//EN" "http://www.w3.org/Graphics/SVG/1.1/DTD/svg11.dtd">
<svg version="1.1" id="Layer_1" xmlns="http://www.w3.org/2000/svg" xmlns:xlink="http://www.w3.org/1999/xlink" x="0px" y="0px"
	 width="300px" height="300px" viewBox="0 0 300 300" enable-background="new 0 0 300 300" xml:space="preserve">
<g>
	<rect x="120" y="93.035" fill="#2F292B" width="6" height="6"/>
	<rect x="120" y="99.035" fill="#525255" width="6" height="6"/>
	<rect x="126" y="99.035" fill="#2F292B" width="6" height="6"/>
	<rect x="132" y="99.035" fill="#2F292B" width="6" height="6"/>
	<rect x="138" y="99.035" fill="#2F292B" width="6" height="6"/>
	<rect x="144" y="99.035" fill="#2F292B" width="6" height="6"/>
	<rect x="150" y="99.035" fill="#2F292B" width="6" height="6"/>
	<rect x="120" y="111.023" fill="#2F292B" width="6" height="6"/>
	<rect x="126" y="111.023" fill="#525255" width="6" height="6"/>
	<rect x="132" y="111.023" fill="#2F292B" width="6" height="6"/>
	<rect x="138" y="111.023" fill="#2F292B" width="6" height="6"/>
	<rect x="144" y="111.023" fill="#734A1D" width="6" height="6"/>
	<rect x="150" y="111.023" fill="#2F292B" width="6" height="6"/>
	<rect x="120" y="117.023" fill="#EDD69F" width="6" height="6"/>
	<rect x="126" y="117.023" fill="#EDD69F" width="6" height="6"/>
	<rect x="132" y="117.023" fill="#EDD69F" width="6" height="6"/>
	<rect x="138" y="117.023" fill="#EDD69F" width="6" height="6"/>
	<rect x="144" y="117.023" fill="#EDD69F" width="6" height="6"/>
	<rect x="150" y="117.023" fill="#EDD69F" width="6" height="6"/>
	<rect x="120" y="123.023" fill="#2F292B" width="6" height="6"/>
	<rect x="126" y="123.023" fill="#2F292B" width="6" height="6"/>
	<rect x="120" y="129" fill="#EDD69F" width="6" height="6"/>
	<rect x="126" y="129" fill="#2F292B" width="6" height="6"/>
	<rect x="120" y="134.988" fill="#EDD69F" width="6" height="6"/>
	<rect x="126" y="134.988" fill="#2F292B" width="6" height="6"/>
	<rect x="120" y="141" fill="#EDD69F" width="6" height="6"/>
	<rect x="126" y="141" fill="#EDD69F" width="6" height="6"/>
	<rect x="120" y="146.988" fill="#EDD69F" width="6" height="6"/>
	<rect x="114" y="141" fill="#EDD69F" width="6" height="6"/>
	<rect x="126" y="146.988" fill="#EDD69F" width="6" height="6"/>
	<rect x="138" y="146.988" fill="#EDD69F" width="6" height="6"/>
	<rect x="132" y="146.988" fill="#EDD69F" width="6" height="6"/>
	<rect x="144" y="146.988" fill="#EDD69F" width="6" height="6"/>
	<rect x="156" y="146.988" fill="#EDD69F" width="6" height="6"/>
	<rect x="150" y="146.988" fill="#EDD69F" width="6" height="6"/>
	<rect x="138" y="152.977" fill="#FFFFFF" width="6" height="6"/>
	<rect x="132" y="152.977" fill="#FFFFFF" width="6" height="6"/>
	<rect x="144" y="152.977" fill="#FFFFFF" width="6" height="6"/>
	<rect x="150" y="152.977" fill="#C7293B" width="6" height="6"/>
	<rect x="138" y="158.965" fill="#C7293B" width="6" height="6"/>
	<rect x="132" y="158.965" fill="#C7293B" width="6" height="6"/>
	<rect x="144" y="158.965" fill="#C7293B" width="6" height="6"/>
	<rect x="150" y="158.965" fill="#EDD69F" width="6" height="6"/>
	<rect x="138" y="164.965" fill="#EDD69F" width="6" height="6"/>
	<rect x="132" y="164.965" fill="#EDD69F" width="6" height="6"/>
	<rect x="144" y="164.965" fill="#EDD69F" width="6" height="6"/>
	<rect x="138" y="170.965" fill="#EDD69F" width="6" height="6"/>
	<rect x="144" y="170.965" fill="#EDD69F" width="6" height="6"/>
	<rect x="138" y="176.965" fill="#EDD69F" width="6" height="6"/>
	<rect x="144" y="176.965" fill="#EDD69F" width="6" height="6"/>
	<rect x="150" y="170.965" fill="#EDD69F" width="6" height="6"/>
	<rect x="150" y="164.965" fill="#EDD69F" width="6" height="6"/>
	<rect x="156" y="164.965" fill="#EDD69F" width="6" height="6"/>
	<rect x="156" y="170.965" fill="#0778A5" width="6" height="6"/>
	<rect x="162" y="170.965" fill="#0778A5" width="6" height="6"/>
	<rect x="162" y="164.965" fill="#0778A5" width="6" height="6"/>
	<rect x="168" y="170.965" fill="#0778A5" width="6" height="6"/>
	<rect x="156" y="176.965" fill="#0778A5" width="6" height="6"/>
	<rect x="150" y="176.965" fill="#0778A5" width="6" height="6"/>
	<rect x="132" y="176.965" fill="#0778A5" width="6" height="6"/>
	<rect x="132" y="170.965" fill="#EDD69F" width="6" height="6"/>
	<rect x="126" y="176.965" fill="#0778A5" width="6" height="6"/>
	<rect x="162" y="176.965" fill="#0778A5" width="6" height="6"/>
	<rect x="168" y="176.965" fill="#0394C4" width="6" height="6"/>
	<rect x="174" y="170.965" fill="#0394C4" width="6" height="6"/>
	<rect x="174" y="176.965" fill="#0394C4" width="6" height="6"/>
	<rect x="180" y="176.965" fill="#0394C4" width="6" height="6"/>
	<rect x="138" y="182.965" fill="#0778A5" width="6" height="6"/>
	<rect x="144" y="182.965" fill="#0778A5" width="6" height="6"/>
	<rect x="156" y="182.965" fill="#0778A5" width="6" height="6"/>
	<rect x="150" y="182.965" fill="#0778A5" width="6" height="6"/>
	<rect x="132" y="182.965" fill="#0778A5" width="6" height="6"/>
	<rect x="126" y="182.965" fill="#FFFFFF" width="6" height="6"/>
	<rect x="120" y="182.965" fill="#0394C4" width="6" height="6"/>
	<rect x="162" y="182.965" fill="#0778A5" width="6" height="6"/>
	<rect x="168" y="182.965" fill="#0394C4" width="6" height="6"/>
	<rect x="174" y="182.965" fill="#0394C4" width="6" height="6"/>
	<rect x="180" y="182.965" fill="#0394C4" width="6" height="6"/>
	<rect x="138" y="188.965" fill="#FFFFFF" width="6" height="6"/>
	<rect x="144" y="188.965" fill="#FFFFFF" width="6" height="6"/>
	<rect x="156" y="188.965" fill="#0778A5" width="6" height="6"/>
	<rect x="150" y="188.965" fill="#0778A5" width="6" height="6"/>
	<rect x="132" y="188.965" fill="#FFFFFF" width="6" height="6"/>
	<rect x="126" y="188.965" fill="#0778A5" width="6" height="6"/>
	<rect x="120" y="188.965" fill="#0394C4" width="6" height="6"/>
	<rect x="162" y="188.965" fill="#0778A5" width="6" height="6"/>
	<rect x="168" y="188.965" fill="#0394C4" width="6" height="6"/>
	<rect x="174" y="188.965" fill="#0394C4" width="6" height="6"/>
	<rect x="180" y="188.965" fill="#0394C4" width="6" height="6"/>
	<rect x="138" y="194.965" fill="#0778A5" width="6" height="6"/>
	<rect x="144" y="194.965" fill="#0778A5" width="6" height="6"/>
	<rect x="156" y="194.965" fill="#0778A5" width="6" height="6"/>
	<rect x="150" y="194.965" fill="#FFFFFF" width="6" height="6"/>
	<rect x="132" y="194.965" fill="#FFFFFF" width="6" height="6"/>
	<rect x="126" y="194.965" fill="#0778A5" width="6" height="6"/>
	<rect x="120" y="194.965" fill="#0394C4" width="6" height="6"/>
	<rect x="162" y="194.965" fill="#0778A5" width="6" height="6"/>
	<rect x="168" y="194.965" fill="#0394C4" width="6" height="6"/>
	<rect x="174" y="194.965" fill="#0394C4" width="6" height="6"/>
	<rect x="180" y="194.965" fill="#0394C4" width="6" height="6"/>
	<rect x="138" y="200.965" fill="#0778A5" width="6" height="6"/>
	<rect x="144" y="200.965" fill="#0778A5" width="6" height="6"/>
	<rect x="156" y="200.965" fill="#0778A5" width="6" height="6"/>
	<rect x="150" y="200.965" fill="#FFFFFF" width="6" height="6"/>
	<rect x="132" y="200.965" fill="#FFFFFF" width="6" height="6"/>
	<rect x="126" y="200.965" fill="#0778A5" width="6" height="6"/>
	<rect x="120" y="200.965" fill="#EDD69F" width="6" height="6"/>
	<rect x="162" y="200.965" fill="#0778A5" width="6" height="6"/>
	<rect x="168" y="200.965" fill="#EDD69F" width="6" height="6"/>
	<rect x="174" y="200.965" fill="#EDD69F" width="6" height="6"/>
	<rect x="180" y="200.965" fill="#EDD69F" width="6" height="6"/>
	<rect x="162" y="146.988" fill="#EDD69F" width="6" height="6"/>
	<rect x="156" y="141" fill="#EDD69F" width="6" height="6"/>
	<rect x="162" y="141" fill="#EDD69F" width="6" height="6"/>
	<rect x="156" y="158.965" fill="#EDD69F" width="6" height="6"/>
	<rect x="162" y="158.965" fill="#EDD69F" width="6" height="6"/>
	<rect x="156" y="152.977" fill="#EDD69F" width="6" height="6"/>
	<rect x="162" y="152.977" fill="#EDD69F" width="6" height="6"/>
	<rect x="156" y="134.988" fill="#EDD69F" width="6" height="6"/>
	<rect x="162" y="134.988" fill="#EDD69F" width="6" height="6"/>
	<rect x="156" y="129" fill="#EDD69F" width="6" height="6"/>
	<rect x="162" y="129" fill="#EDD69F" width="6" height="6"/>
	<rect x="168" y="134.988" fill="#EDD69F" width="6" height="6"/>
	<rect x="168" y="129" fill="#EDD69F" width="6" height="6"/>
	<rect x="132" y="123.023" fill="#2F292B" width="6" height="6"/>
	<rect x="138" y="123.023" fill="#FFFFFF" width="6" height="6"/>
	<rect x="144" y="123.023" fill="#2F292B" width="6" height="6"/>
	<rect x="150" y="123.023" fill="#2F292B" width="6" height="6"/>
	<rect x="132" y="129" fill="#2F292B" width="6" height="6"/>
	<rect x="138" y="129" fill="#2F292B" width="6" height="6"/>
	<rect x="144" y="129" fill="#EDD69F" width="6" height="6"/>
	<rect x="150" y="129" fill="#EDD69F" width="6" height="6"/>
	<rect x="132" y="134.988" fill="#2F292B" width="6" height="6"/>
	<rect x="138" y="134.988" fill="#2F292B" width="6" height="6"/>
	<rect x="144" y="134.988" fill="#EDD69F" width="6" height="6"/>
	<rect x="150" y="134.988" fill="#EDD69F" width="6" height="6"/>
	<rect x="132" y="140.988" fill="#EDD69F" width="6" height="6"/>
	<rect x="138" y="140.988" fill="#EDD69F" width="6" height="6"/>
	<rect x="144" y="140.988" fill="#EDD69F" width="6" height="6"/>
	<rect x="150" y="140.988" fill="#EDD69F" width="6" height="6"/>
	<rect x="156" y="111.023" fill="#734A1D" width="6" height="6"/>
	<rect x="162" y="111.023" fill="#2F292B" width="6" height="6"/>
	<rect x="120" y="105.035" fill="#2F292B" width="6" height="6"/>
	<rect x="114" y="99.035" fill="#2F292B" width="6" height="6"/>
	<rect x="114" y="111.023" fill="#2F292B" width="6" height="6"/>
	<rect x="114" y="105.035" fill="#525255" width="6" height="6"/>
	<rect x="126" y="105.035" fill="#2F292B" width="6" height="6"/>
	<rect x="132" y="105.035" fill="#2F292B" width="6" height="6"/>
	<rect x="138" y="105.035" fill="#525255" width="6" height="6"/>
	<rect x="144" y="105.035" fill="#2F292B" width="6" height="6"/>
	<rect x="150" y="105.035" fill="#734A1D" width="6" height="6"/>
	<rect x="156" y="105.035" fill="#2F292B" width="6" height="6"/>
	<rect x="156" y="117.023" fill="#734A1D" width="6" height="6"/>
	<rect x="156" y="129" fill="#734A1D" width="6" height="6"/>
	<rect x="162" y="117.023" fill="#734A1D" width="6" height="6"/>
	<rect x="156" y="123.023" fill="#2F292B" width="6" height="6"/>
	<rect x="162" y="123.023" fill="#2F292B" width="6" height="6"/>
</g>
</svg>
