<?xml version="1.0" encoding="utf-8"?>
<!-- Generator: Adobe Illustrator 16.0.0, SVG Export Plug-In . SVG Version: 6.00 Build 0)  -->
<!DOCTYPE svg PUBLIC "-//W3C//DTD SVG 1.1//EN" "http://www.w3.org/Graphics/SVG/1.1/DTD/svg11.dtd">
<svg version="1.1" id="Layer_1" xmlns="http://www.w3.org/2000/svg" xmlns:xlink="http://www.w3.org/1999/xlink" x="0px" y="0px"
	 width="300px" height="300px" viewBox="0 0 300 300" enable-background="new 0 0 300 300" xml:space="preserve">
<g>
	<rect x="126" y="114.027" fill="#EEE1BF" width="6" height="6"/>
	<rect x="132" y="114.027" fill="#EEE1BF" width="6" height="6"/>
	<rect x="138" y="114.027" fill="#EEE1BF" width="6" height="6"/>
	<rect x="144" y="114.027" fill="#EEE1BF" width="6" height="6"/>
	<rect x="150" y="114.023" fill="#EDD69F" width="6" height="6"/>
	<rect x="120" y="120.027" fill="#9F7E2D" width="6" height="6"/>
	<rect x="126" y="120.027" fill="#9F7E2D" width="6" height="6"/>
	<rect x="132" y="120.023" fill="#C2B99F" width="6" height="6"/>
	<rect x="138" y="120.023" fill="#EDD69F" width="6" height="6"/>
	<rect x="144" y="120.023" fill="#EDD69F" width="6" height="6"/>
	<rect x="150" y="120.027" fill="#EDD69F" width="6" height="6"/>
	<rect x="120" y="126.027" fill="#EDD69F" width="6" height="6"/>
	<rect x="126" y="126.027" fill="#EDD69F" width="6" height="6"/>
	<rect x="120" y="132.004" fill="#EDD69F" width="6" height="6"/>
	<rect x="126" y="132.004" fill="#EDD69F" width="6" height="6"/>
	<rect x="120" y="137.996" fill="#EDD69F" width="6" height="6"/>
	<rect x="126" y="137.996" fill="#EDD69F" width="6" height="6"/>
	<rect x="120" y="144.004" fill="#CBC0A9" width="6" height="6"/>
	<rect x="126" y="144.004" fill="#CBC0A9" width="6" height="6"/>
	<rect x="120" y="149.988" fill="#775D26" width="6" height="6"/>
	<rect x="114" y="137.988" fill="#EDD69F" width="6" height="6"/>
	<rect x="114" y="131.988" fill="#EDD69F" width="6" height="6"/>
	<rect x="108" y="137.988" fill="#EDD69F" width="6" height="6"/>
	<rect x="108" y="131.988" fill="#EDD69F" width="6" height="6"/>
	<rect x="126" y="149.988" fill="#775D26" width="6" height="6"/>
	<rect x="138" y="149.988" fill="#9F7E2D" width="6" height="6"/>
	<rect x="132" y="149.988" fill="#9F7E2D" width="6" height="6"/>
	<rect x="144" y="149.988" fill="#C2B99F" width="6" height="6"/>
	<rect x="156" y="149.988" fill="#775D26" width="6" height="6"/>
	<rect x="150" y="149.988" fill="#C2B99F" width="6" height="6"/>
	<rect x="138" y="155.977" fill="#FFFFFF" width="6" height="6"/>
	<rect x="132" y="155.977" fill="#FFFFFF" width="6" height="6"/>
	<rect x="126" y="155.977" fill="#FFFFFF" width="6" height="6"/>
	<rect x="144" y="155.977" fill="#BB807B" width="6" height="6"/>
	<rect x="150" y="155.977" fill="#9F7E2D" width="6" height="6"/>
	<rect x="138" y="161.965" fill="#775D26" width="6" height="6"/>
	<rect x="132" y="161.965" fill="#775D26" width="6" height="6"/>
	<rect x="144" y="161.965" fill="#A37C2D" width="6" height="6"/>
	<rect x="150" y="161.965" fill="#775D26" width="6" height="6"/>
	<rect x="138" y="167.965" fill="#775D26" width="6" height="6"/>
	<rect x="132" y="167.965" fill="#775D26" width="6" height="6"/>
	<rect x="126" y="161.965" fill="#775D26" width="6" height="6"/>
	<rect x="126" y="167.965" fill="#775D26" width="6" height="6"/>
	<rect x="144" y="167.965" fill="#775D26" width="6" height="6"/>
	<rect x="138" y="173.965" fill="#EDD69F" width="6" height="6"/>
	<rect x="144" y="173.965" fill="#EDD69F" width="6" height="6"/>
	<rect x="138" y="179.965" fill="#EDD69F" width="6" height="6"/>
	<rect x="144" y="179.965" fill="#EDD69F" width="6" height="6"/>
	<rect x="150" y="173.965" fill="#EDD69F" width="6" height="6"/>
	<rect x="150" y="167.965" fill="#775D26" width="6" height="6"/>
	<rect x="156" y="167.965" fill="#EBC297" width="6" height="6"/>
	<rect x="156" y="173.965" fill="#EDD69F" width="6" height="6"/>
	<rect x="162" y="173.965" fill="#E9E9EB" width="6" height="6"/>
	<rect x="162" y="167.965" fill="#E9E9EB" width="6" height="6"/>
	<rect x="168" y="173.965" fill="#B5B7B9" width="6" height="6"/>
	<rect x="168" y="167.965" fill="#E9E9EB" width="6" height="6"/>
	<rect x="174" y="167.965" fill="#E9E9EB" width="6" height="6"/>
	<rect x="156" y="179.965" fill="#EDD69F" width="6" height="6"/>
	<rect x="150" y="179.965" fill="#EDD69F" width="6" height="6"/>
	<rect x="132" y="179.965" fill="#6C6D70" width="6" height="6"/>
	<rect x="126" y="179.965" fill="#B5B7B9" width="6" height="6"/>
	<rect x="126" y="173.965" fill="#E9E9EB" width="6" height="6"/>
	<rect x="132" y="173.965" fill="#E9E9EB" width="6" height="6"/>
	<rect x="120" y="173.965" fill="#E9E9EB" width="6" height="6"/>
	<rect x="162" y="179.965" fill="#E9E9EB" width="6" height="6"/>
	<rect x="168" y="179.965" fill="#B5B7B9" width="6" height="6"/>
	<rect x="174" y="179.965" fill="#E9E9EB" width="6" height="6"/>
	<rect x="138" y="191.965" fill="#E9E9EB" width="6" height="6"/>
	<rect x="144" y="191.965" fill="#808083" width="6" height="6"/>
	<rect x="156" y="191.965" fill="#E9E9EB" width="6" height="6"/>
	<rect x="150" y="191.965" fill="#E9E9EB" width="6" height="6"/>
	<rect x="132" y="191.965" fill="#E9E9EB" width="6" height="6"/>
	<rect x="132" y="197.965" fill="#E9E9EB" width="6" height="6"/>
	<rect x="126" y="191.965" fill="#E9E9EB" width="6" height="6"/>
	<rect x="120" y="191.965" fill="#E9E9EB" width="6" height="6"/>
	<rect x="162" y="191.965" fill="#E9E9EB" width="6" height="6"/>
	<rect x="168" y="191.965" fill="#E9E9EB" width="6" height="6"/>
	<rect x="174" y="191.965" fill="#E9E9EB" width="6" height="6"/>
	<rect x="180" y="191.965" fill="#E9E9EB" width="6" height="6"/>
	<rect x="138" y="203.965" fill="#E9E9EB" width="6" height="6"/>
	<rect x="144" y="203.965" fill="#808083" width="6" height="6"/>
	<rect x="156" y="203.965" fill="#C3D2E0" width="6" height="6"/>
	<rect x="150" y="203.965" fill="#E9E9EB" width="6" height="6"/>
	<rect x="132" y="203.965" fill="#C3D2E0" width="6" height="6"/>
	<rect x="126" y="203.965" fill="#FFFFFF" width="6" height="6"/>
	<rect x="120" y="203.965" fill="#C3D2E0" width="6" height="6"/>
	<rect x="162" y="203.965" fill="#FFFFFF" width="6" height="6"/>
	<rect x="168" y="203.965" fill="#C3D2E0" width="6" height="6"/>
	<rect x="174" y="203.965" fill="#C3D2E0" width="6" height="6"/>
	<rect x="180" y="203.965" fill="#E9E9EB" width="6" height="6"/>
	<rect x="138" y="185.965" fill="#6C6D70" width="6" height="6"/>
	<rect x="144" y="185.965" fill="#6C6D70" width="6" height="6"/>
	<rect x="156" y="185.965" fill="#E9E9EB" width="6" height="6"/>
	<rect x="150" y="185.965" fill="#6C6D70" width="6" height="6"/>
	<rect x="132" y="185.965" fill="#B5B7B9" width="6" height="6"/>
	<rect x="126" y="185.965" fill="#E9E9EB" width="6" height="6"/>
	<rect x="120" y="185.965" fill="#E9E9EB" width="6" height="6"/>
	<rect x="162" y="185.965" fill="#B5B7B9" width="6" height="6"/>
	<rect x="168" y="185.965" fill="#E9E9EB" width="6" height="6"/>
	<rect x="174" y="185.965" fill="#E9E9EB" width="6" height="6"/>
	<rect x="180" y="185.965" fill="#E9E9EB" width="6" height="6"/>
	<rect x="138" y="197.965" fill="#E9E9EB" width="6" height="6"/>
	<rect x="144" y="197.965" fill="#6C6D70" width="6" height="6"/>
	<rect x="156" y="197.965" fill="#FFFFFF" width="6" height="6"/>
	<rect x="150" y="197.965" fill="#E9E9EB" width="6" height="6"/>
	<rect x="132" y="197.965" fill="#FFFFFF" width="6" height="6"/>
	<rect x="126" y="197.965" fill="#FFFFFF" width="6" height="6"/>
	<rect x="120" y="197.965" fill="#FFFFFF" width="6" height="6"/>
	<rect x="114" y="191.965" fill="#E9E9EB" width="6" height="6"/>
	<rect x="114" y="185.965" fill="#E9E9EB" width="6" height="6"/>
	<rect x="114" y="203.965" fill="#E9E9EB" width="6" height="6"/>
	<rect x="114" y="197.965" fill="#E9E9EB" width="6" height="6"/>
	<rect x="108" y="191.965" fill="#E9E9EB" width="6" height="6"/>
	<rect x="108" y="203.965" fill="#E9E9EB" width="6" height="6"/>
	<rect x="108" y="197.965" fill="#E9E9EB" width="6" height="6"/>
	<rect x="162" y="197.965" fill="#FFFFFF" width="6" height="6"/>
	<rect x="168" y="197.965" fill="#FFFFFF" width="6" height="6"/>
	<rect x="174" y="197.965" fill="#FFFFFF" width="6" height="6"/>
	<rect x="180" y="197.965" fill="#E9E9EB" width="6" height="6"/>
	<rect x="186" y="191.965" fill="#E9E9EB" width="6" height="6"/>
	<rect x="186" y="203.965" fill="#E9E9EB" width="6" height="6"/>
	<rect x="186" y="197.965" fill="#E9E9EB" width="6" height="6"/>
	<rect x="162" y="149.988" fill="#EBC297" width="6" height="6"/>
	<rect x="156" y="144" fill="#C2B99F" width="6" height="6"/>
	<rect x="162" y="144" fill="#EDD69F" width="6" height="6"/>
	<rect x="156" y="161.965" fill="#775D26" width="6" height="6"/>
	<rect x="162" y="161.965" fill="#EBC297" width="6" height="6"/>
	<rect x="156" y="155.977" fill="#775D26" width="6" height="6"/>
	<rect x="162" y="155.977" fill="#EBC297" width="6" height="6"/>
	<rect x="156" y="137.988" fill="#C2B99F" width="6" height="6"/>
	<rect x="162" y="137.988" fill="#EDD69F" width="6" height="6"/>
	<rect x="156" y="132" fill="#C2B99F" width="6" height="6"/>
	<rect x="162" y="132" fill="#EDD69F" width="6" height="6"/>
	<rect x="168" y="137.988" fill="#EDD69F" width="6" height="6"/>
	<rect x="168" y="132" fill="#EDD69F" width="6" height="6"/>
	<rect x="132" y="126.027" fill="#EDD69F" width="6" height="6"/>
	<rect x="138" y="126.027" fill="#EDD69F" width="6" height="6"/>
	<rect x="144" y="126.027" fill="#EDD69F" width="6" height="6"/>
	<rect x="150" y="126.027" fill="#EDD69F" width="6" height="6"/>
	<rect x="132" y="132" fill="#B7803B" width="6" height="6"/>
	<rect x="138" y="132" fill="#FFFFFF" width="6" height="6"/>
	<rect x="132" y="132" fill="#2F292B" width="6" height="6"/>
	<rect x="144" y="132.004" fill="#EDD69F" width="6" height="6"/>
	<rect x="150" y="132.004" fill="#EDD69F" width="6" height="6"/>
	<rect x="132" y="137.996" fill="#EDD69F" width="6" height="6"/>
	<rect x="138" y="137.996" fill="#EDD69F" width="6" height="6"/>
	<rect x="144" y="137.996" fill="#EDD69F" width="6" height="6"/>
	<rect x="150" y="137.988" fill="#EDD69F" width="6" height="6"/>
	<rect x="132" y="143.988" fill="#EDD69F" width="6" height="6"/>
	<rect x="138" y="143.988" fill="#EDD69F" width="6" height="6"/>
	<rect x="144" y="143.988" fill="#EDD69F" width="6" height="6"/>
	<rect x="150" y="143.988" fill="#CBC0A9" width="6" height="6"/>
	<rect x="156" y="114.023" fill="#EDD69F" width="6" height="6"/>
	<rect x="162" y="114.023" fill="#EDD69F" width="6" height="6"/>
	<rect x="120" y="114.027" fill="#EEE1BF" width="6" height="6"/>
	<rect x="120" y="108.039" fill="#EDD69F" width="6" height="6.004"/>
	<rect x="120" y="102.035" fill="#EEE1BF" width="6" height="6"/>
	<rect x="126" y="108.035" fill="#EDD69F" width="6" height="6"/>
	<rect x="132" y="108.039" fill="#EDD69F" width="6" height="6.004"/>
	<rect x="138" y="108.039" fill="#EDD69F" width="6" height="6.004"/>
	<rect x="144" y="108.039" fill="#EDD69F" width="6" height="6.004"/>
	<rect x="150" y="108.035" fill="#EDD69F" width="6" height="6"/>
	<rect x="156" y="108.035" fill="#EDD69F" width="6" height="6"/>
	<rect x="126" y="102.035" fill="#EEE1BF" width="6" height="6"/>
	<rect x="126" y="96.035" fill="#EEE1BF" width="6" height="6"/>
	<rect x="132" y="90.035" fill="#EEE1BF" width="6" height="6"/>
	<rect x="132" y="96.035" fill="#EDD69F" width="6" height="6"/>
	<rect x="138" y="96.035" fill="#EDD69F" width="6" height="6"/>
	<rect x="144" y="96.035" fill="#EDD69F" width="6" height="6"/>
	<rect x="150" y="96.035" fill="#EDD69F" width="6" height="6"/>
	<rect x="156" y="102.035" fill="#EDD69F" width="6" height="6"/>
	<rect x="156" y="96.035" fill="#EEE1BF" width="6" height="6"/>
	<rect x="138" y="90.035" fill="#EEE1BF" width="6" height="6"/>
	<rect x="144" y="90.035" fill="#EEE1BF" width="6" height="6"/>
	<rect x="150" y="90.035" fill="#EEE1BF" width="6" height="6"/>
	<rect x="162" y="102.035" fill="#EDD69F" width="6" height="6"/>
	<rect x="132" y="102.035" fill="#EDD69F" width="6" height="6"/>
	<rect x="138" y="102.035" fill="#EDD69F" width="6" height="6"/>
	<rect x="144" y="102.035" fill="#EDD69F" width="6" height="6"/>
	<rect x="150" y="102.035" fill="#EDD69F" width="6" height="6"/>
	<rect x="162" y="108.035" fill="#EDD69F" width="6" height="6"/>
	<rect x="156" y="120.023" fill="#EDD69F" width="6" height="6"/>
	<rect x="162" y="120.023" fill="#EBC297" width="6" height="6"/>
	<rect x="156" y="126.023" fill="#C2B99F" width="6" height="6"/>
	<rect x="162" y="126.023" fill="#EDD69F" width="6" height="6"/>
	<rect x="168" y="114.023" fill="#EDD69F" width="6" height="6"/>
	<rect x="168" y="108.035" fill="#EBC297" width="6" height="6"/>
	<rect x="168" y="102.035" fill="#EBC297" width="6" height="6"/>
	<rect x="162" y="96.035" fill="#EEE1BF" width="6" height="6"/>
	<rect x="168" y="120.023" fill="#EBC297" width="6" height="6"/>
	<rect x="168" y="126.023" fill="#EEE1BF" width="6" height="6"/>
	<rect x="174" y="137.988" fill="#EDD69F" width="6" height="6"/>
	<rect x="174" y="132" fill="#EDD69F" width="6" height="6"/>
	<rect x="174" y="126.023" fill="#EEE1BF" width="6" height="6"/>
</g>
</svg>
