<?xml version="1.0" encoding="utf-8"?>
<!-- Generator: Adobe Illustrator 16.0.0, SVG Export Plug-In . SVG Version: 6.00 Build 0)  -->
<!DOCTYPE svg PUBLIC "-//W3C//DTD SVG 1.1//EN" "http://www.w3.org/Graphics/SVG/1.1/DTD/svg11.dtd">
<svg version="1.1" id="Layer_1" xmlns="http://www.w3.org/2000/svg" xmlns:xlink="http://www.w3.org/1999/xlink" x="0px" y="0px"
	 width="300px" height="300px" viewBox="0 0 300 300" enable-background="new 0 0 300 300" xml:space="preserve">
<g>
	<rect x="120" y="102.035" fill="#6D6F72" width="6" height="6"/>
	<rect x="126" y="102.035" fill="#231F20" width="6" height="6"/>
	<rect x="132" y="102.035" fill="#414042" width="6" height="6"/>
	<rect x="138" y="102.035" fill="#231F20" width="6" height="6"/>
	<rect x="144" y="102.035" fill="#EFD1B8" width="6" height="6"/>
	<rect x="150" y="102.035" fill="#231F20" width="6" height="6"/>
	<rect x="126" y="96.035" fill="#808285" width="6" height="6"/>
	<rect x="132" y="96.035" fill="#231F20" width="6" height="6"/>
	<rect x="138" y="96.035" fill="#231F20" width="6" height="6"/>
	<rect x="144" y="96.035" fill="#231F20" width="6" height="6"/>
	<rect x="150" y="96.035" fill="#231F20" width="6" height="6"/>
	<rect x="120" y="114.023" fill="#E3C9B6" width="6" height="6"/>
	<rect x="126" y="114.023" fill="#E3C9B6" width="6" height="6"/>
	<rect x="132" y="114.023" fill="#EFD1B8" width="6" height="6"/>
	<rect x="138" y="114.023" fill="#D7BFAA" width="6" height="6"/>
	<rect x="144" y="114.023" fill="#F3D9D0" width="6" height="6"/>
	<rect x="150" y="114.023" fill="#9B8579" width="6" height="6"/>
	<rect x="120" y="120.023" fill="#EFD1B8" width="6" height="6"/>
	<rect x="126" y="120.023" fill="#EFD1B8" width="6" height="6"/>
	<rect x="132" y="120.023" fill="#EFD1B8" width="6" height="6"/>
	<rect x="138" y="120.023" fill="#EFD1B8" width="6" height="6"/>
	<rect x="144" y="120.023" fill="#D7BFAA" width="6" height="6"/>
	<rect x="150" y="120.023" fill="#9B8579" width="6" height="6"/>
	<rect x="120" y="126.023" fill="#231F20" width="6" height="6"/>
	<rect x="126" y="126.023" fill="#231F20" width="6" height="6"/>
	<rect x="120" y="132" fill="#231F20" width="6" height="6"/>
	<rect x="126" y="132" fill="#98937E" width="6" height="6"/>
	<rect x="120" y="137.988" fill="#231F20" width="6" height="6"/>
	<rect x="126" y="137.988" fill="#231F20" width="6" height="6"/>
	<rect x="120" y="144" fill="#EFD1B8" width="6" height="6"/>
	<rect x="126" y="144" fill="#EFD1B8" width="6" height="6"/>
	<rect x="120" y="149.988" fill="#D7BFAA" width="6" height="6"/>
	<rect x="114" y="144" fill="#EFD1B8" width="6" height="6"/>
	<rect x="114" y="137.988" fill="#F3D9D0" width="6" height="6"/>
	<rect x="126" y="149.988" fill="#D7BFAA" width="6" height="6"/>
	<rect x="138" y="149.988" fill="#D7BFAA" width="6" height="6"/>
	<rect x="132" y="149.988" fill="#D7BFAA" width="6" height="6"/>
	<rect x="144" y="149.988" fill="#D7BFAA" width="6" height="6"/>
	<rect x="156" y="149.988" fill="#EFD1B8" width="6" height="6"/>
	<rect x="150" y="149.988" fill="#D7BFAA" width="6" height="6"/>
	<rect x="138" y="155.977" fill="#FFFFFF" width="6" height="6"/>
	<rect x="132" y="155.977" fill="#FFFFFF" width="6" height="6"/>
	<rect x="144" y="155.977" fill="#BB807B" width="6" height="6"/>
	<rect x="150" y="155.977" fill="#D7BFAA" width="6" height="6"/>
	<rect x="138" y="161.965" fill="#D28F8C" width="6" height="6"/>
	<rect x="132" y="161.965" fill="#D28F8C" width="6" height="6"/>
	<rect x="144" y="161.965" fill="#D7BFAA" width="6" height="6"/>
	<rect x="150" y="161.965" fill="#EFD1B8" width="6" height="6"/>
	<rect x="138" y="167.965" fill="#D7BFAA" width="6" height="6"/>
	<rect x="132" y="167.965" fill="#D7BFAA" width="6" height="6"/>
	<rect x="144" y="167.965" fill="#D7BFAA" width="6" height="6"/>
	<rect x="138" y="173.965" fill="#EFD1B8" width="6" height="6"/>
	<rect x="144" y="173.965" fill="#EFD1B8" width="6" height="6"/>
	<rect x="150" y="167.965" fill="#EFD1B8" width="6" height="6"/>
	<rect x="156" y="167.965" fill="#E3C9B6" width="6" height="6"/>
	<rect x="156" y="173.965" fill="#EFD1B8" width="6" height="6"/>
	<rect x="150" y="173.965" fill="#EFD1B8" width="6" height="6"/>
	<rect x="132" y="173.965" fill="#323133" width="6" height="6"/>
	<rect x="162" y="173.965" fill="#323133" width="6" height="6"/>
	<rect x="168" y="173.965" fill="#231F20" width="6" height="6"/>
	<rect x="138" y="179.965" fill="#FFFFFF" width="6" height="6"/>
	<rect x="144" y="179.965" fill="#EFD1B8" width="6" height="6"/>
	<rect x="156" y="179.965" fill="#FFFFFF" width="6" height="6"/>
	<rect x="150" y="179.965" fill="#EFD1B8" width="6" height="6"/>
	<rect x="132" y="179.965" fill="#323133" width="6" height="6"/>
	<rect x="126" y="179.965" fill="#231F20" width="6" height="6"/>
	<rect x="162" y="179.965" fill="#323133" width="6" height="6"/>
	<rect x="168" y="179.965" fill="#231F20" width="6" height="6"/>
	<rect x="174" y="179.965" fill="#323133" width="6" height="6"/>
	<rect x="138" y="185.965" fill="#323133" width="6" height="6"/>
	<rect x="144" y="185.965" fill="#FFFFFF" width="6" height="6"/>
	<rect x="156" y="185.965" fill="#323133" width="6" height="6"/>
	<rect x="150" y="185.965" fill="#FFFFFF" width="6" height="6"/>
	<rect x="132" y="185.965" fill="#231F20" width="6" height="6"/>
	<rect x="126" y="185.965" fill="#323133" width="6" height="6"/>
	<rect x="120" y="185.965" fill="#323133" width="6" height="6"/>
	<rect x="162" y="185.965" fill="#323133" width="6" height="6"/>
	<rect x="168" y="185.965" fill="#231F20" width="6" height="6"/>
	<rect x="174" y="185.965" fill="#323133" width="6" height="6"/>
	<rect x="180" y="185.965" fill="#323133" width="6" height="6"/>
	<rect x="138" y="191.965" fill="#323133" width="6" height="6"/>
	<rect x="144" y="191.965" fill="#FFFFFF" width="6" height="6"/>
	<rect x="156" y="191.965" fill="#323133" width="6" height="6"/>
	<rect x="150" y="191.965" fill="#323133" width="6" height="6"/>
	<rect x="132" y="191.965" fill="#231F20" width="6" height="6"/>
	<rect x="126" y="191.965" fill="#323133" width="6" height="6"/>
	<rect x="120" y="191.965" fill="#323133" width="6" height="6"/>
	<rect x="162" y="191.965" fill="#231F20" width="6" height="6"/>
	<rect x="168" y="191.965" fill="#323133" width="6" height="6"/>
	<rect x="174" y="191.965" fill="#323133" width="6" height="6"/>
	<rect x="180" y="191.965" fill="#323133" width="6" height="6"/>
	<rect x="138" y="197.965" fill="#231F20" width="6" height="6"/>
	<rect x="144" y="197.965" fill="#323133" width="6" height="6"/>
	<rect x="156" y="197.965" fill="#231F20" width="6" height="6"/>
	<rect x="150" y="197.965" fill="#323133" width="6" height="6"/>
	<rect x="132" y="197.965" fill="#323133" width="6" height="6"/>
	<rect x="126" y="197.965" fill="#323133" width="6" height="6"/>
	<rect x="120" y="197.965" fill="#323133" width="6" height="6"/>
	<rect x="162" y="197.965" fill="#323133" width="6" height="6"/>
	<rect x="168" y="197.965" fill="#323133" width="6" height="6"/>
	<rect x="174" y="197.965" fill="#323133" width="6" height="6"/>
	<rect x="180" y="197.965" fill="#323133" width="6" height="6"/>
	<rect x="162" y="149.988" fill="#EFD1B8" width="6" height="6"/>
	<rect x="156" y="144" fill="#EFD1B8" width="6" height="6"/>
	<rect x="162" y="144" fill="#9B8579" width="6" height="6"/>
	<rect x="156" y="161.965" fill="#EFD1B8" width="6" height="6"/>
	<rect x="162" y="161.965" fill="#EFD1B8" width="6" height="6"/>
	<rect x="162" y="167.965" fill="#EFD1B8" width="6" height="6"/>
	<rect x="156" y="155.977" fill="#EFD1B8" width="6" height="6"/>
	<rect x="162" y="155.977" fill="#EFD1B8" width="6" height="6"/>
	<rect x="156" y="137.988" fill="#EFD1B8" width="6" height="6"/>
	<rect x="162" y="137.988" fill="#EFD1B8" width="6" height="6"/>
	<rect x="156" y="132" fill="#EFD1B8" width="6" height="6"/>
	<rect x="162" y="132" fill="#E3C9B6" width="6" height="6"/>
	<rect x="168" y="137.988" fill="#EFD1B8" width="6" height="6"/>
	<rect x="168" y="132" fill="#EFD1B8" width="6" height="6"/>
	<rect x="132" y="126.023" fill="#231F20" width="6" height="6"/>
	<rect x="138" y="126.023" fill="#231F20" width="6" height="6"/>
	<rect x="144" y="126.023" fill="#231F20" width="6" height="6"/>
	<rect x="150" y="126.023" fill="#231F20" width="6" height="6"/>
	<rect x="132" y="132" fill="#FFFFFF" width="6" height="6"/>
	<rect x="138" y="132" fill="#3C2415" width="6" height="6"/>
	<rect x="144" y="132" fill="#EFD1B8" width="6" height="6"/>
	<rect x="150" y="132" fill="#EFD1B8" width="6" height="6"/>
	<rect x="132" y="137.988" fill="#3C2415" width="6" height="6"/>
	<rect x="138" y="137.988" fill="#E3C9B6" width="6" height="6"/>
	<rect x="144" y="137.988" fill="#EFD1B8" width="6" height="6"/>
	<rect x="150" y="137.988" fill="#EFD1B8" width="6" height="6"/>
	<rect x="132" y="143.988" fill="#EFD1B8" width="6" height="6"/>
	<rect x="138" y="143.988" fill="#EFD1B8" width="6" height="6"/>
	<rect x="144" y="143.988" fill="#E3C9B6" width="6" height="6"/>
	<rect x="150" y="143.988" fill="#EFD1B8" width="6" height="6"/>
	<rect x="156" y="114.023" fill="#231F20" width="6" height="6"/>
	<rect x="162" y="114.023" fill="#231F20" width="6" height="6"/>
	<rect x="120" y="108.035" fill="#EFD1B8" width="6" height="6"/>
	<rect x="114" y="96.035" fill="#AFAFA2" width="6" height="6"/>
	<rect x="126" y="108.035" fill="#EFD1B8" width="6" height="6"/>
	<rect x="132" y="108.035" fill="#EFD1B8" width="6" height="6"/>
	<rect x="138" y="108.035" fill="#EFD1B8" width="6" height="6"/>
	<rect x="144" y="108.035" fill="#EFD1B8" width="6" height="6"/>
	<rect x="150" y="108.035" fill="#EFD1B8" width="6" height="6"/>
	<rect x="156" y="108.035" fill="#231F20" width="6" height="6"/>
	<rect x="156" y="102.035" fill="#231F20" width="6" height="6"/>
	<rect x="155.914" y="96.035" fill="#414042" width="6" height="6"/>
	<rect x="162" y="108.035" fill="#231F20" width="6" height="6"/>
	<rect x="156" y="120.023" fill="#414042" width="6" height="6"/>
	<rect x="156" y="132" fill="#9B8579" width="6" height="6"/>
	<rect x="162" y="120.023" fill="#414042" width="6" height="6"/>
	<rect x="156" y="126.023" fill="#231F20" width="6" height="6"/>
	<rect x="162" y="126.023" fill="#F3D9D0" width="6" height="6"/>
	<rect x="168" y="126.023" fill="#F3D9D0" width="6" height="6"/>
</g>
</svg>
