<?xml version="1.0" encoding="utf-8"?>
<!-- Generator: Adobe Illustrator 16.0.0, SVG Export Plug-In . SVG Version: 6.00 Build 0)  -->
<!DOCTYPE svg PUBLIC "-//W3C//DTD SVG 1.1//EN" "http://www.w3.org/Graphics/SVG/1.1/DTD/svg11.dtd">
<svg version="1.1" id="Layer_1" xmlns="http://www.w3.org/2000/svg" xmlns:xlink="http://www.w3.org/1999/xlink" x="0px" y="0px"
	 width="300px" height="300px" viewBox="0 0 300 300" enable-background="new 0 0 300 300" xml:space="preserve">
<g>
	<rect x="112.5" y="112.534" fill="#5A4742" width="7.5" height="7.5"/>
	<rect x="120" y="112.534" fill="#694F3C" width="7.5" height="7.5"/>
	<rect x="127.5" y="112.534" fill="#694F3C" width="7.5" height="7.5"/>
	<rect x="135" y="112.534" fill="#373737" width="7.5" height="7.5"/>
	<rect x="142.5" y="112.529" fill="#373737" width="7.5" height="7.5"/>
	<rect x="105" y="120.034" fill="#5A4742" width="7.5" height="7.5"/>
	<rect x="112.5" y="120.034" fill="#7D5642" width="7.5" height="7.5"/>
	<rect x="120" y="120.029" fill="#7D5642" width="7.5" height="7.5"/>
	<rect x="127.5" y="120.029" fill="#694F3C" width="7.5" height="7.5"/>
	<rect x="135" y="120.029" fill="#694F3C" width="7.5" height="7.5"/>
	<rect x="142.5" y="120.034" fill="#694F3C" width="7.5" height="7.5"/>
	<rect x="105" y="127.534" fill="#2F292B" width="7.5" height="7.5"/>
	<rect x="112.5" y="127.534" fill="#2F292B" width="7.5" height="7.5"/>
	<rect x="105" y="135.005" fill="#2F292B" width="7.5" height="7.5"/>
	<rect x="112.5" y="135.005" fill="#543B2C" width="7.5" height="7.5"/>
	<rect x="105" y="142.495" fill="#2F292B" width="7.5" height="7.5"/>
	<rect x="112.5" y="142.495" fill="#2F292B" width="7.5" height="7.5"/>
	<rect x="105" y="150.005" fill="#694F3C" width="7.5" height="7.5"/>
	<rect x="112.5" y="150.005" fill="#694F3C" width="7.5" height="7.5"/>
	<rect x="105" y="157.485" fill="#4D3F41" width="7.5" height="7.5"/>
	<rect x="97.5" y="142.485" fill="#7D5642" width="7.5" height="7.5"/>
	<rect x="97.5" y="134.985" fill="#7D5642" width="7.5" height="7.5"/>
	<rect x="112.5" y="157.485" fill="#4D3F41" width="7.5" height="7.5"/>
	<rect x="127.5" y="157.485" fill="#4D3F41" width="7.5" height="7.5"/>
	<rect x="120" y="157.485" fill="#4D3F41" width="7.5" height="7.5"/>
	<rect x="135" y="157.485" fill="#5A4742" width="7.5" height="7.5"/>
	<rect x="150" y="157.485" fill="#373737" width="7.5" height="7.5"/>
	<rect x="142.5" y="157.485" fill="#373737" width="7.5" height="7.5"/>
	<rect x="127.5" y="164.971" fill="#FFFFFF" width="7.5" height="7.5"/>
	<rect x="120" y="164.971" fill="#FFFFFF" width="7.5" height="7.5"/>
	<rect x="112.5" y="164.971" fill="#FFFFFF" width="7.5" height="7.5"/>
	<rect x="135" y="164.971" fill="#AD6A6D" width="7.5" height="7.5"/>
	<rect x="142.5" y="164.971" fill="#373737" width="7.5" height="7.5"/>
	<rect x="127.5" y="172.456" fill="#AD6A6D" width="7.5" height="7.5"/>
	<rect x="120" y="172.456" fill="#BB807B" width="7.5" height="7.5"/>
	<rect x="135" y="172.456" fill="#373737" width="7.5" height="7.5"/>
	<rect x="142.5" y="172.456" fill="#2F292B" width="7.5" height="7.5"/>
	<rect x="127.5" y="179.956" fill="#2F292B" width="7.5" height="7.5"/>
	<rect x="120" y="179.956" fill="#2F292B" width="7.5" height="7.5"/>
	<rect x="112.5" y="172.456" fill="#BB807B" width="7.5" height="7.5"/>
	<rect x="112.5" y="179.956" fill="#2F292B" width="7.5" height="7.5"/>
	<rect x="120" y="187.456" fill="#2F292B" width="7.5" height="7.5"/>
	<rect x="135" y="179.956" fill="#2F292B" width="7.5" height="7.5"/>
	<rect x="127.5" y="187.456" fill="#2F292B" width="7.5" height="7.5"/>
	<rect x="135" y="187.456" fill="#2F292B" width="7.5" height="7.5"/>
	<rect x="142.5" y="187.456" fill="#694F3C" width="7.5" height="7.5"/>
	<rect x="142.5" y="179.956" fill="#2F292B" width="7.5" height="7.5"/>
	<rect x="150" y="179.956" fill="#373737" width="7.5" height="7.5"/>
	<rect x="150" y="187.456" fill="#694F3C" width="7.5" height="7.5"/>
	<rect x="127.5" y="202.456" fill="#0D1025" width="7.5" height="7.5"/>
	<rect x="135" y="202.456" fill="#694F3C" width="7.5" height="7.5"/>
	<rect x="150" y="202.456" fill="#01243E" width="7.5" height="7.5"/>
	<rect x="142.5" y="202.456" fill="#0D1025" width="7.5" height="7.5"/>
	<rect x="120" y="202.456" fill="#01243E" width="7.5" height="7.5"/>
	<rect x="120" y="209.956" fill="#01243E" width="7.5" height="7.5"/>
	<rect x="112.5" y="202.456" fill="#0D1025" width="7.5" height="7.5"/>
	<rect x="105" y="202.456" fill="#1C6A9C" width="7.5" height="7.5"/>
	<rect x="157.5" y="202.456" fill="#01243E" width="7.5" height="7.5"/>
	<rect x="172.5" y="202.456" fill="#2887C5" width="7.5" height="7.5"/>
	<rect x="180" y="202.456" fill="#2887C5" width="7.5" height="7.5"/>
	<rect x="187.5" y="202.456" fill="#2887C5" width="7.5" height="7.5"/>
	<rect x="127.5" y="217.456" fill="#0D1025" width="7.5" height="7.5"/>
	<rect x="135" y="217.456" fill="#01243E" width="7.5" height="7.5"/>
	<rect x="150" y="217.456" fill="#0D1025" width="7.5" height="7.5"/>
	<rect x="142.5" y="217.456" fill="#01243E" width="7.5" height="7.5"/>
	<rect x="120" y="217.456" fill="#01243E" width="7.5" height="7.5"/>
	<rect x="112.5" y="217.456" fill="#C3D2E0" width="7.5" height="7.5"/>
	<rect x="105" y="217.456" fill="#1C6A9C" width="7.5" height="7.5"/>
	<rect x="157.5" y="217.456" fill="#01243E" width="7.5" height="7.5"/>
	<rect x="172.5" y="217.456" fill="#C3D2E0" width="7.5" height="7.5"/>
	<rect x="180" y="217.456" fill="#1C6A9C" width="7.5" height="7.5"/>
	<rect x="187.5" y="217.456" fill="#1C6A9C" width="7.5" height="7.5"/>
	<rect x="127.5" y="194.956" fill="#694F3C" width="7.5" height="7.5"/>
	<rect x="135" y="194.956" fill="#694F3C" width="7.5" height="7.5"/>
	<rect x="150" y="194.956" fill="#01243E" width="7.5" height="7.5"/>
	<rect x="142.5" y="194.956" fill="#694F3C" width="7.5" height="7.5"/>
	<rect x="120" y="194.956" fill="#01243E" width="7.5" height="7.5"/>
	<rect x="112.5" y="194.956" fill="#01243E" width="7.5" height="7.5"/>
	<rect x="112.5" y="187.456" fill="#01243E" width="7.5" height="7.5"/>
	<rect x="105" y="187.456" fill="#01243E" width="7.5" height="7.5"/>
	<rect x="105" y="194.956" fill="#0D1025" width="7.5" height="7.5"/>
	<rect x="157.5" y="194.956" fill="#01243E" width="7.5" height="7.5"/>
	<rect x="172.5" y="194.956" fill="#0D1025" width="7.5" height="7.5"/>
	<rect x="180" y="194.956" fill="#2887C5" width="7.5" height="7.5"/>
	<rect x="180" y="187.456" fill="#01243E" width="7.5" height="7.5"/>
	<rect x="187.5" y="194.956" fill="#C3D2E0" width="7.5" height="7.5"/>
	<rect x="127.5" y="209.956" fill="#01243E" width="7.5" height="7.5"/>
	<rect x="135" y="209.956" fill="#01243E" width="7.5" height="7.5"/>
	<rect x="150" y="209.956" fill="#01243E" width="7.5" height="7.5"/>
	<rect x="142.5" y="209.956" fill="#01243E" width="7.5" height="7.5"/>
	<rect x="120" y="209.956" fill="#0D1025" width="7.5" height="7.5"/>
	<rect x="112.5" y="209.956" fill="#1C6A9C" width="7.5" height="7.5"/>
	<rect x="105" y="209.956" fill="#1C6A9C" width="7.5" height="7.5"/>
	<rect x="97.5" y="202.456" fill="#C3D2E0" width="7.5" height="7.5"/>
	<rect x="97.5" y="194.956" fill="#01243E" width="7.5" height="7.5"/>
	<rect x="97.5" y="217.456" fill="#39B8E4" width="7.5" height="7.5"/>
	<rect x="97.5" y="209.956" fill="#1C6A9C" width="7.5" height="7.5"/>
	<rect x="90" y="202.456" fill="#01243E" width="7.5" height="7.5"/>
	<rect x="90" y="217.456" fill="#01243E" width="7.5" height="7.5"/>
	<rect x="90" y="209.956" fill="#01243E" width="7.5" height="7.5"/>
	<rect x="157.5" y="209.956" fill="#0D1025" width="7.5" height="7.5"/>
	<rect x="165" y="202.456" fill="#01243E" width="7.5" height="7.5"/>
	<rect x="165" y="217.456" fill="#01243E" width="7.5" height="7.5"/>
	<rect x="165" y="194.956" fill="#01243E" width="7.5" height="7.5"/>
	<rect x="165" y="187.456" fill="#01243E" width="7.5" height="7.5"/>
	<rect x="165" y="209.956" fill="#0D1025" width="7.5" height="7.5"/>
	<rect x="172.5" y="209.956" fill="#C3D2E0" width="7.5" height="7.5"/>
	<rect x="180" y="209.956" fill="#2887C5" width="7.5" height="7.5"/>
	<rect x="187.5" y="209.956" fill="#1C6A9C" width="7.5" height="7.5"/>
	<rect x="195" y="202.456" fill="#01243E" width="7.5" height="7.5"/>
	<rect x="195" y="194.956" fill="#01243E" width="7.5" height="7.5"/>
	<rect x="195" y="217.456" fill="#1C6A9C" width="7.5" height="7.5"/>
	<rect x="195" y="209.956" fill="#01243E" width="7.5" height="7.5"/>
	<rect x="202.5" y="209.956" fill="#01243E" width="7.5" height="7.5"/>
	<rect x="202.5" y="202.456" fill="#01243E" width="7.5" height="7.5"/>
	<rect x="202.5" y="217.456" fill="#01243E" width="7.5" height="7.5"/>
	<rect x="157.5" y="157.485" fill="#373737" width="7.5" height="7.5"/>
	<rect x="150" y="150" fill="#373737" width="7.5" height="7.5"/>
	<rect x="157.5" y="150" fill="#2F292B" width="7.5" height="7.5"/>
	<rect x="150" y="172.456" fill="#2F292B" width="7.5" height="7.5"/>
	<rect x="157.5" y="172.456" fill="#373737" width="7.5" height="7.5"/>
	<rect x="150" y="164.971" fill="#2F292B" width="7.5" height="7.5"/>
	<rect x="157.5" y="164.971" fill="#373737" width="7.5" height="7.5"/>
	<rect x="165" y="157.485" fill="#694F3C" width="7.5" height="7.5"/>
	<rect x="165" y="150" fill="#694F3C" width="7.5" height="7.5"/>
	<rect x="165" y="172.456" fill="#694F3C" width="7.5" height="7.5"/>
	<rect x="172.5" y="172.456" fill="#694F3C" width="7.5" height="7.5"/>
	<rect x="157.5" y="179.956" fill="#694F3C" width="7.5" height="7.5"/>
	<rect x="157.5" y="187.456" fill="#694F3C" width="7.5" height="7.5"/>
	<rect x="165" y="179.956" fill="#694F3C" width="7.5" height="7.5"/>
	<rect x="172.5" y="187.456" fill="#01243E" width="7.5" height="7.5"/>
	<rect x="180" y="179.956" fill="#01243E" width="7.5" height="7.5"/>
	<rect x="187.5" y="179.956" fill="#01243E" width="7.5" height="7.5"/>
	<rect x="172.5" y="179.956" fill="#01243E" width="7.5" height="7.5"/>
	<rect x="165" y="164.971" fill="#694F3C" width="7.5" height="7.5"/>
	<rect x="150" y="142.485" fill="#373737" width="7.5" height="7.5"/>
	<rect x="157.5" y="142.485" fill="#373737" width="7.5" height="7.5"/>
	<rect x="150" y="135" fill="#694F3C" width="7.5" height="7.5"/>
	<rect x="157.5" y="135" fill="#2F292B" width="7.5" height="7.5"/>
	<rect x="165" y="142.485" fill="#694F3C" width="7.5" height="7.5"/>
	<rect x="165" y="135" fill="#5A4742" width="7.5" height="7.5"/>
	<rect x="120" y="127.534" fill="#2F292B" width="7.5" height="7.5"/>
	<rect x="127.5" y="127.534" fill="#2F292B" width="7.5" height="7.5"/>
	<rect x="135" y="127.534" fill="#2F292B" width="7.5" height="7.5"/>
	<rect x="142.5" y="127.534" fill="#2F292B" width="7.5" height="7.5"/>
	<rect x="120" y="135" fill="#B7803B" width="7.5" height="7.5"/>
	<rect x="127.5" y="135" fill="#2F292B" width="7.5" height="7.5"/>
	<rect x="120" y="135" fill="#FFFFFF" width="7.5" height="7.5"/>
	<rect x="135" y="135.005" fill="#694F3C" width="7.5" height="7.5"/>
	<rect x="142.5" y="135.005" fill="#694F3C" width="7.5" height="7.5"/>
	<rect x="120" y="142.495" fill="#2F292B" width="7.5" height="7.5"/>
	<rect x="127.5" y="142.495" fill="#2F292B" width="7.5" height="7.5"/>
	<rect x="135" y="142.495" fill="#7D5642" width="7.5" height="7.5"/>
	<rect x="142.5" y="142.485" fill="#694F3C" width="7.5" height="7.5"/>
	<rect x="120" y="149.985" fill="#694F3C" width="7.5" height="7.5"/>
	<rect x="127.5" y="149.985" fill="#7D5642" width="7.5" height="7.5"/>
	<rect x="135" y="149.985" fill="#694F3C" width="7.5" height="7.5"/>
	<rect x="142.5" y="149.985" fill="#694F3C" width="7.5" height="7.5"/>
	<rect x="150" y="112.529" fill="#2F292B" width="7.5" height="7.5"/>
	<rect x="157.5" y="112.529" fill="#2F292B" width="7.5" height="7.5"/>
	<rect x="105" y="112.534" fill="#5A4742" width="7.5" height="7.5"/>
	<rect x="105" y="105.049" fill="#5A4742" width="7.5" height="7.505"/>
	<rect x="105" y="97.544" fill="#2F292B" width="7.5" height="7.5"/>
	<rect x="112.5" y="105.044" fill="#694F3C" width="7.5" height="7.5"/>
	<rect x="120" y="105.049" fill="#694F3C" width="7.5" height="7.505"/>
	<rect x="127.5" y="105.049" fill="#694F3C" width="7.5" height="7.505"/>
	<rect x="135" y="105.049" fill="#2F292B" width="7.5" height="7.505"/>
	<rect x="142.5" y="105.044" fill="#2F292B" width="7.5" height="7.5"/>
	<rect x="150" y="105.044" fill="#2F292B" width="7.5" height="7.5"/>
	<rect x="112.5" y="97.544" fill="#2F292B" width="7.5" height="7.5"/>
	<rect x="112.5" y="90.044" fill="#2F292B" width="7.5" height="7.5"/>
	<rect x="105" y="90.044" fill="#2F292B" width="7.5" height="7.5"/>
	<rect x="120" y="82.544" fill="#2F292B" width="7.5" height="7.5"/>
	<rect x="120" y="90.044" fill="#2F292B" width="7.5" height="7.5"/>
	<rect x="127.5" y="90.044" fill="#2F292B" width="7.5" height="7.5"/>
	<rect x="135" y="90.044" fill="#373737" width="7.5" height="7.5"/>
	<rect x="142.5" y="90.044" fill="#2F292B" width="7.5" height="7.5"/>
	<rect x="150" y="97.544" fill="#2F292B" width="7.5" height="7.5"/>
	<rect x="150" y="90.044" fill="#2F292B" width="7.5" height="7.5"/>
	<rect x="127.5" y="82.544" fill="#2F292B" width="7.5" height="7.5"/>
	<rect x="112.5" y="82.544" fill="#2F292B" width="7.5" height="7.5"/>
	<rect x="135" y="82.544" fill="#2F292B" width="7.5" height="7.5"/>
	<rect x="142.5" y="82.544" fill="#373737" width="7.5" height="7.5"/>
	<rect x="150" y="82.544" fill="#2F292B" width="7.5" height="7.5"/>
	<rect x="120" y="75.044" fill="#2F292B" width="7.5" height="7.5"/>
	<rect x="127.5" y="75.044" fill="#2F292B" width="7.5" height="7.5"/>
	<rect x="135" y="75.044" fill="#2F292B" width="7.5" height="7.5"/>
	<rect x="142.5" y="75.044" fill="#373737" width="7.5" height="7.5"/>
	<rect x="150" y="75.044" fill="#2F292B" width="7.5" height="7.5"/>
	<rect x="172.5" y="90.044" fill="#2F292B" width="7.5" height="7.5"/>
	<rect x="165" y="90.044" fill="#2F292B" width="7.5" height="7.5"/>
	<rect x="157.5" y="97.544" fill="#2F292B" width="7.5" height="7.5"/>
	<rect x="120" y="97.544" fill="#2F292B" width="7.5" height="7.5"/>
	<rect x="127.5" y="97.544" fill="#373737" width="7.5" height="7.5"/>
	<rect x="135" y="97.544" fill="#2F292B" width="7.5" height="7.5"/>
	<rect x="142.5" y="97.544" fill="#2F292B" width="7.5" height="7.5"/>
	<rect x="157.5" y="105.044" fill="#373737" width="7.5" height="7.5"/>
	<rect x="150" y="120.029" fill="#373737" width="7.5" height="7.5"/>
	<rect x="157.5" y="120.029" fill="#2F292B" width="7.5" height="7.5"/>
	<rect x="150" y="127.529" fill="#2F292B" width="7.5" height="7.5"/>
	<rect x="157.5" y="127.529" fill="#2F292B" width="7.5" height="7.5"/>
	<rect x="165" y="112.529" fill="#2F292B" width="7.5" height="7.5"/>
	<rect x="165" y="105.044" fill="#2F292B" width="7.5" height="7.5"/>
	<rect x="165" y="97.544" fill="#2F292B" width="7.5" height="7.5"/>
	<rect x="157.5" y="90.044" fill="#373737" width="7.5" height="7.5"/>
	<rect x="165" y="82.544" fill="#2F292B" width="7.5" height="7.5"/>
	<rect x="157.5" y="82.544" fill="#373737" width="7.5" height="7.5"/>
	<rect x="165" y="120.029" fill="#2F292B" width="7.5" height="7.5"/>
	<rect x="172.5" y="112.529" fill="#2F292B" width="7.5" height="7.5"/>
	<rect x="172.5" y="105.044" fill="#2F292B" width="7.5" height="7.5"/>
	<rect x="172.5" y="97.544" fill="#2F292B" width="7.5" height="7.5"/>
	<rect x="172.5" y="120.029" fill="#2F292B" width="7.5" height="7.5"/>
	<rect x="180" y="112.529" fill="#2F292B" width="7.5" height="7.5"/>
	<rect x="180" y="135" fill="#2F292B" width="7.5" height="7.5"/>
	<rect x="180" y="127.515" fill="#2F292B" width="7.5" height="7.5"/>
	<rect x="180" y="120.034" fill="#2F292B" width="7.5" height="7.5"/>
	<rect x="180" y="105.044" fill="#2F292B" width="7.5" height="7.5"/>
	<rect x="180" y="97.534" fill="#2F292B" width="7.5" height="7.5"/>
	<rect x="180" y="142.5" fill="#2F292B" width="7.5" height="7.5"/>
	<rect x="172.5" y="157.476" fill="#2F292B" width="7.5" height="7.5"/>
	<rect x="172.5" y="149.99" fill="#2F292B" width="7.5" height="7.5"/>
	<rect x="180" y="150" fill="#2F292B" width="7.5" height="7.5"/>
	<rect x="172.5" y="164.976" fill="#373737" width="7.5" height="7.5"/>
	<rect x="165" y="127.529" fill="#2F292B" width="7.5" height="7.5"/>
	<rect x="172.5" y="142.485" fill="#694F3C" width="7.5" height="7.5"/>
	<rect x="172.5" y="135" fill="#694F3C" width="7.5" height="7.5"/>
	<rect x="172.5" y="127.529" fill="#694F3C" width="7.5" height="7.5"/>
</g>
</svg>
