<?xml version="1.0" encoding="utf-8"?>
<!-- Generator: Adobe Illustrator 16.0.0, SVG Export Plug-In . SVG Version: 6.00 Build 0)  -->
<!DOCTYPE svg PUBLIC "-//W3C//DTD SVG 1.1//EN" "http://www.w3.org/Graphics/SVG/1.1/DTD/svg11.dtd">
<svg version="1.1" id="Layer_1" xmlns="http://www.w3.org/2000/svg" xmlns:xlink="http://www.w3.org/1999/xlink" x="0px" y="0px"
	 width="300px" height="300px" viewBox="0 0 300 300" enable-background="new 0 0 300 300" xml:space="preserve">
<g>
	<rect x="159" y="197.221" fill="#F8D666" width="4.5" height="4.5"/>
	<rect x="154.5" y="197.221" fill="#AA4421" width="4.5" height="4.5"/>
	<rect x="150" y="197.221" fill="#AA4421" width="4.5" height="4.5"/>
	<rect x="145.5" y="197.221" fill="#F8D666" width="4.5" height="4.5"/>
	<rect x="150" y="192.721" fill="#AA4421" width="4.5" height="4.5"/>
	<rect x="145.5" y="192.721" fill="#EEA738" width="4.5" height="4.5"/>
	<rect x="150" y="188.221" fill="#F8D666" width="4.5" height="4.5"/>
	<rect x="145.5" y="188.221" fill="#F8D666" width="4.5" height="4.5"/>
	<rect x="145.5" y="183.721" fill="#F8D666" width="4.5" height="4.5"/>
	<rect x="150" y="183.721" fill="#F8D666" width="4.5" height="4.5"/>
	<rect x="150" y="179.221" fill="#AA4421" width="4.5" height="4.5"/>
	<rect x="163.5" y="197.221" fill="#F8D666" width="4.5" height="4.5"/>
	<rect x="159" y="206.197" fill="#F8D666" width="4.5" height="4.5"/>
	<rect x="163.5" y="206.197" fill="#F8D666" width="4.5" height="4.5"/>
	<rect x="168" y="197.221" fill="#AA4421" width="4.5" height="4.5"/>
	<rect x="172.5" y="197.221" fill="#AA4421" width="4.5" height="4.5"/>
	<rect x="177" y="197.221" fill="#F8D666" width="4.5" height="4.5"/>
	<rect x="181.5" y="197.221" fill="#F8D666" width="4.5" height="4.5"/>
	<rect x="186" y="197.221" fill="#F8D666" width="4.5" height="4.5"/>
	<rect x="159" y="192.721" fill="#F8D666" width="4.5" height="4.5"/>
	<rect x="154.5" y="192.721" fill="#F8D666" width="4.5" height="4.5"/>
	<rect x="163.5" y="192.721" fill="#F8D666" width="4.5" height="4.5"/>
	<rect x="168" y="192.721" fill="#F8D666" width="4.5" height="4.5"/>
	<rect x="172.5" y="192.721" fill="#F8D666" width="4.5" height="4.5"/>
	<rect x="177" y="192.721" fill="#F8D666" width="4.5" height="4.5"/>
	<rect x="181.5" y="192.721" fill="#72060F" width="4.5" height="4.5"/>
	<rect x="159" y="188.221" fill="#F8D666" width="4.5" height="4.5"/>
	<rect x="154.5" y="188.221" fill="#F8D666" width="4.5" height="4.5"/>
	<rect x="163.5" y="188.221" fill="#F8D666" width="4.5" height="4.5"/>
	<rect x="168" y="188.221" fill="#AA4421" width="4.5" height="4.5"/>
	<rect x="172.5" y="188.221" fill="#AA4421" width="4.5" height="4.5"/>
	<rect x="177" y="188.221" fill="#F8D666" width="4.5" height="4.5"/>
	<rect x="159" y="183.721" fill="#F8D666" width="4.5" height="4.5"/>
	<rect x="154.5" y="183.721" fill="#AA4421" width="4.5" height="4.5"/>
	<rect x="163.5" y="183.721" fill="#72060F" width="4.5" height="4.5"/>
	<rect x="168" y="183.721" fill="#AA4421" width="4.5" height="4.5"/>
	<rect x="172.5" y="183.721" fill="#F8D666" width="4.5" height="4.5"/>
	<rect x="177" y="183.721" fill="#72060F" width="4.5" height="4.5"/>
	<rect x="159" y="179.221" fill="#F8D666" width="4.5" height="4.5"/>
	<rect x="154.5" y="179.221" fill="#72060F" width="4.5" height="4.5"/>
	<rect x="163.5" y="179.221" fill="#AA4421" width="4.5" height="4.5"/>
	<rect x="168" y="179.221" fill="#F8D666" width="4.5" height="4.5"/>
	<rect x="172.5" y="179.221" fill="#72060F" width="4.5" height="4.5"/>
	<rect x="159" y="174.721" fill="#F8D666" width="4.5" height="4.5"/>
	<rect x="154.5" y="174.721" fill="#AA4421" width="4.5" height="4.5"/>
	<rect x="163.5" y="174.721" fill="#F8D666" width="4.5" height="4.5"/>
	<rect x="168" y="174.721" fill="#F8D666" width="4.5" height="4.5"/>
	<rect x="159" y="170.221" fill="#AA4421" width="4.5" height="4.5"/>
	<rect x="154.5" y="170.221" fill="#F8D666" width="4.5" height="4.5"/>
	<rect x="163.5" y="170.221" fill="#F8D666" width="4.5" height="4.5"/>
	<rect x="168" y="170.221" fill="#72060F" width="4.5" height="4.5"/>
	<rect x="159" y="165.721" fill="#F8D666" width="4.5" height="4.5"/>
	<rect x="154.5" y="165.721" fill="#F8D666" width="4.5" height="4.5"/>
	<rect x="163.5" y="165.721" fill="#F8D666" width="4.5" height="4.5"/>
	<rect x="168" y="165.721" fill="#AA4421" width="4.5" height="4.5"/>
	<rect x="159" y="161.221" fill="#F8D666" width="4.5" height="4.5"/>
	<rect x="154.5" y="161.221" fill="#AA4421" width="4.5" height="4.5"/>
	<rect x="163.5" y="161.221" fill="#F8D666" width="4.5" height="4.5"/>
	<rect x="159" y="156.721" fill="#F8D666" width="4.5" height="4.5"/>
	<rect x="154.5" y="156.721" fill="#AA4421" width="4.5" height="4.5"/>
	<rect x="163.5" y="156.721" fill="#AA4421" width="4.5" height="4.5"/>
	<rect x="159" y="152.221" fill="#72060F" width="4.5" height="4.5"/>
	<rect x="163.5" y="152.221" fill="#72060F" width="4.5" height="4.5"/>
	<rect x="154.5" y="152.221" fill="#AA4421" width="4.5" height="4.5"/>
	<rect x="159" y="147.721" fill="#F8D666" width="4.5" height="4.5"/>
	<rect x="154.5" y="147.721" fill="#F8D666" width="4.5" height="4.5"/>
	<rect x="159" y="143.221" fill="#AA4421" width="4.5" height="4.5"/>
	<rect x="154.5" y="143.221" fill="#F8D666" width="4.5" height="4.5"/>
	<rect x="159" y="201.697" fill="#AA4421" width="4.5" height="4.5"/>
	<rect x="154.5" y="201.697" fill="#72060F" width="4.5" height="4.5"/>
	<rect x="150" y="201.697" fill="#AA4421" width="4.5" height="4.5"/>
	<rect x="145.5" y="201.697" fill="#EEA738" width="4.5" height="4.5"/>
	<rect x="163.5" y="201.697" fill="#F8D666" width="4.5" height="4.5"/>
	<rect x="168" y="201.697" fill="#72060F" width="4.5" height="4.5"/>
	<rect x="172.5" y="201.697" fill="#AA4421" width="4.5" height="4.5"/>
	<rect x="177" y="201.697" fill="#F8D666" width="4.5" height="4.5"/>
	<rect x="172.5" y="206.197" fill="#AA4421" width="4.5" height="4.5"/>
	<rect x="168" y="206.197" fill="#F8D666" width="4.5" height="4.5"/>
	<rect x="154.5" y="206.197" fill="#AA4421" width="4.5" height="4.5"/>
	<rect x="150" y="206.197" fill="#EEA738" width="4.5" height="4.5"/>
	<rect x="145.5" y="206.197" fill="#EEA738" width="4.5" height="4.5"/>
	<rect x="177" y="206.197" fill="#AA4421" width="4.5" height="4.5"/>
	<rect x="181.5" y="206.197" fill="#F8D666" width="4.5" height="4.5"/>
	<rect x="181.5" y="201.697" fill="#F8D666" width="4.5" height="4.5"/>
	<rect x="186" y="201.697" fill="#F8D666" width="4.5" height="4.5"/>
	<rect x="190.5" y="201.697" fill="#F8D666" width="4.5" height="4.5"/>
	<rect x="186" y="206.197" fill="#F8D666" width="4.5" height="4.5"/>
	<rect x="190.5" y="206.197" fill="#AA4421" width="4.5" height="4.5"/>
	<rect x="195" y="206.197" fill="#F8D666" width="4.5" height="4.5"/>
	<rect x="159" y="215.197" fill="#EEA738" width="4.5" height="4.5"/>
	<rect x="163.5" y="215.197" fill="#AA4421" width="4.5" height="4.5"/>
	<rect x="172.5" y="215.197" fill="#F8D666" width="4.5" height="4.5"/>
	<rect x="168" y="215.197" fill="#F8D666" width="4.5" height="4.5"/>
	<rect x="154.5" y="215.197" fill="#EEA738" width="4.5" height="4.5"/>
	<rect x="150" y="215.197" fill="#AA4421" width="4.5" height="4.5"/>
	<rect x="145.5" y="215.197" fill="#72060F" width="4.5" height="4.5"/>
	<rect x="177" y="215.197" fill="#F8D666" width="4.5" height="4.5"/>
	<rect x="181.5" y="215.197" fill="#F8D666" width="4.5" height="4.5"/>
	<rect x="186" y="215.197" fill="#F8D666" width="4.5" height="4.5"/>
	<rect x="190.5" y="215.197" fill="#AA4421" width="4.5" height="4.5"/>
	<rect x="195" y="215.197" fill="#AA4421" width="4.5" height="4.5"/>
	<rect x="199.5" y="215.197" fill="#F8D666" width="4.5" height="4.5"/>
	<rect x="204" y="215.197" fill="#72060F" width="4.5" height="4.5"/>
	<rect x="208.5" y="215.197" fill="#F8D666" width="4.5" height="4.5"/>
	<rect x="159" y="224.197" fill="#AA4421" width="4.5" height="4.5"/>
	<rect x="163.5" y="224.197" fill="#72060F" width="4.5" height="4.5"/>
	<rect x="172.5" y="224.197" fill="#AA4421" width="4.5" height="4.5"/>
	<rect x="168" y="224.197" fill="#EEA738" width="4.5" height="4.5"/>
	<rect x="154.5" y="224.197" fill="#AA4421" width="4.5" height="4.5"/>
	<rect x="150" y="224.197" fill="#EEA738" width="4.5" height="4.5"/>
	<rect x="177" y="224.197" fill="#72060F" width="4.5" height="4.5"/>
	<rect x="181.5" y="224.197" fill="#AA4421" width="4.5" height="4.5"/>
	<rect x="186" y="224.197" fill="#F8D666" width="4.5" height="4.5"/>
	<rect x="190.5" y="224.197" fill="#F8D666" width="4.5" height="4.5"/>
	<rect x="195" y="224.197" fill="#AA4421" width="4.5" height="4.5"/>
	<rect x="199.5" y="224.197" fill="#72060F" width="4.5" height="4.5"/>
	<rect x="204" y="224.197" fill="#F8D666" width="4.5" height="4.5"/>
	<rect x="208.5" y="224.197" fill="#72060F" width="4.5" height="4.5"/>
	<rect x="213" y="224.197" fill="#AA4421" width="4.5" height="4.5"/>
	<rect x="217.5" y="224.197" fill="#72060F" width="4.5" height="4.5"/>
	<rect x="159" y="210.697" fill="#F8D666" width="4.5" height="4.5"/>
	<rect x="163.5" y="210.697" fill="#F8D666" width="4.5" height="4.5"/>
	<rect x="172.5" y="210.697" fill="#AA4421" width="4.5" height="4.5"/>
	<rect x="168" y="210.697" fill="#F8D666" width="4.5" height="4.5"/>
	<rect x="154.5" y="210.697" fill="#EEA738" width="4.5" height="4.5"/>
	<rect x="150" y="210.697" fill="#F8D666" width="4.5" height="4.5"/>
	<rect x="145.5" y="210.697" fill="#AA4421" width="4.5" height="4.5"/>
	<rect x="141" y="210.697" fill="#AA4421" width="4.5" height="4.5"/>
	<rect x="141" y="206.197" fill="#72060F" width="4.5" height="4.5"/>
	<rect x="141" y="201.697" fill="#EEA738" width="4.5" height="4.5"/>
	<rect x="141" y="197.221" fill="#F8D666" width="4.5" height="4.5"/>
	<rect x="136.5" y="197.221" fill="#AA4421" width="4.5" height="4.5"/>
	<rect x="141" y="192.721" fill="#EEA738" width="4.5" height="4.5"/>
	<rect x="136.5" y="192.721" fill="#EEA738" width="4.5" height="4.5"/>
	<rect x="141" y="188.221" fill="#AA4421" width="4.5" height="4.5"/>
	<rect x="136.5" y="188.221" fill="#EEA738" width="4.5" height="4.5"/>
	<rect x="141" y="183.721" fill="#72060F" width="4.5" height="4.5"/>
	<rect x="136.5" y="183.721" fill="#F8D666" width="4.5" height="4.5"/>
	<rect x="145.5" y="179.221" fill="#F8D666" width="4.5" height="4.5"/>
	<rect x="141" y="179.221" fill="#72060F" width="4.5" height="4.5"/>
	<rect x="136.5" y="179.221" fill="#AA4421" width="4.5" height="4.5"/>
	<rect x="150" y="174.721" fill="#AA4421" width="4.5" height="4.5"/>
	<rect x="145.5" y="174.721" fill="#F8D666" width="4.5" height="4.5"/>
	<rect x="141" y="174.721" fill="#AA4421" width="4.5" height="4.5"/>
	<rect x="136.5" y="174.721" fill="#F8D666" width="4.5" height="4.5"/>
	<rect x="132" y="174.721" fill="#AA4421" width="4.5" height="4.5"/>
	<rect x="150" y="170.221" fill="#F8D666" width="4.5" height="4.5"/>
	<rect x="145.5" y="170.221" fill="#F8D666" width="4.5" height="4.5"/>
	<rect x="141" y="170.221" fill="#F8D666" width="4.5" height="4.5"/>
	<rect x="136.5" y="170.221" fill="#EEA738" width="4.5" height="4.5"/>
	<rect x="132" y="170.221" fill="#72060F" width="4.5" height="4.5"/>
	<rect x="150" y="165.721" fill="#F8D666" width="4.5" height="4.5"/>
	<rect x="145.5" y="165.721" fill="#F8D666" width="4.5" height="4.5"/>
	<rect x="141" y="165.721" fill="#AA4421" width="4.5" height="4.5"/>
	<rect x="136.5" y="165.721" fill="#F8D666" width="4.5" height="4.5"/>
	<rect x="132" y="165.721" fill="#EEA738" width="4.5" height="4.5"/>
	<rect x="150" y="161.221" fill="#F8D666" width="4.5" height="4.5"/>
	<rect x="145.5" y="161.221" fill="#F8D666" width="4.5" height="4.5"/>
	<rect x="141" y="161.221" fill="#72060F" width="4.5" height="4.5"/>
	<rect x="136.5" y="161.221" fill="#AA4421" width="4.5" height="4.5"/>
	<rect x="132" y="161.221" fill="#F8D666" width="4.5" height="4.5"/>
	<rect x="150" y="156.721" fill="#AA4421" width="4.5" height="4.5"/>
	<rect x="145.5" y="156.721" fill="#F8D666" width="4.5" height="4.5"/>
	<rect x="141" y="156.721" fill="#AA4421" width="4.5" height="4.5"/>
	<rect x="136.5" y="156.721" fill="#EEA738" width="4.5" height="4.5"/>
	<rect x="132" y="156.721" fill="#EEA738" width="4.5" height="4.5"/>
	<rect x="150" y="152.221" fill="#AA4421" width="4.5" height="4.5"/>
	<rect x="145.5" y="152.221" fill="#F8D666" width="4.5" height="4.5"/>
	<rect x="141" y="147.721" fill="#F8D666" width="4.5" height="4.5"/>
	<rect x="141" y="152.221" fill="#F8D666" width="4.5" height="4.5"/>
	<rect x="136.5" y="152.221" fill="#F8D666" width="4.5" height="4.5"/>
	<rect x="132" y="152.221" fill="#AA4421" width="4.5" height="4.5"/>
	<rect x="150" y="147.721" fill="#AA4421" width="4.5" height="4.5"/>
	<rect x="145.5" y="147.721" fill="#F8D666" width="4.5" height="4.5"/>
	<rect x="136.5" y="147.721" fill="#AA4421" width="4.5" height="4.5"/>
	<rect x="132" y="147.721" fill="#AA4421" width="4.5" height="4.5"/>
	<rect x="141" y="143.221" fill="#F8D666" width="4.5" height="4.5"/>
	<rect x="150" y="143.221" fill="#F8D666" width="4.5" height="4.5"/>
	<rect x="145.5" y="143.221" fill="#F8D666" width="4.5" height="4.5"/>
	<rect x="136.5" y="143.221" fill="#F8D666" width="4.5" height="4.5"/>
	<rect x="132" y="143.221" fill="#EEA738" width="4.5" height="4.5"/>
	<rect x="127.5" y="143.221" fill="#F8D666" width="4.5" height="4.5"/>
	<rect x="141" y="138.721" fill="#AA4421" width="4.5" height="4.5"/>
	<rect x="150" y="138.721" fill="#F8D666" width="4.5" height="4.5"/>
	<rect x="145.5" y="138.721" fill="#AA4421" width="4.5" height="4.5"/>
	<rect x="136.5" y="138.721" fill="#F8D666" width="4.5" height="4.5"/>
	<rect x="132" y="138.721" fill="#AA4421" width="4.5" height="4.5"/>
	<rect x="127.5" y="138.721" fill="#EEA738" width="4.5" height="4.5"/>
	<rect x="141" y="134.221" fill="#F8D666" width="4.5" height="4.5"/>
	<rect x="150" y="134.221" fill="#F8D666" width="4.5" height="4.5"/>
	<rect x="145.5" y="134.221" fill="#72060F" width="4.5" height="4.5"/>
	<rect x="136.5" y="134.221" fill="#F8D666" width="4.5" height="4.5"/>
	<rect x="132" y="134.221" fill="#72060F" width="4.5" height="4.5"/>
	<rect x="127.5" y="134.221" fill="#AA4421" width="4.5" height="4.5"/>
	<rect x="127.5" y="129.727" fill="#F8D666" width="4.5" height="4.5"/>
	<rect x="141" y="129.727" fill="#F8D666" width="4.5" height="4.5"/>
	<rect x="141" y="125.238" fill="#F8D666" width="4.5" height="4.5"/>
	<rect x="150" y="129.727" fill="#F8D666" width="4.5" height="4.5"/>
	<rect x="145.5" y="129.727" fill="#AA4421" width="4.5" height="4.5"/>
	<rect x="136.5" y="129.727" fill="#F8D666" width="4.5" height="4.5"/>
	<rect x="132" y="129.727" fill="#72060F" width="4.5" height="4.5"/>
	<rect x="127.5" y="125.238" fill="#AA4421" width="4.5" height="4.5"/>
	<rect x="136.5" y="125.238" fill="#AA4421" width="4.5" height="4.5"/>
	<rect x="132" y="125.238" fill="#AA4421" width="4.5" height="4.5"/>
	<rect x="141" y="120.738" fill="#F8D666" width="4.5" height="4.5"/>
	<rect x="127.5" y="120.738" fill="#72060F" width="4.5" height="4.5"/>
	<rect x="136.5" y="120.738" fill="#F8D666" width="4.5" height="4.5"/>
	<rect x="132" y="120.738" fill="#EEA738" width="4.5" height="4.5"/>
	<rect x="127.5" y="116.227" fill="#222020" width="4.5" height="4.5"/>
	<rect x="132" y="116.227" fill="#72060F" width="4.5" height="4.5"/>
	<rect x="127.5" y="111.727" fill="#F8D666" width="4.5" height="4.5"/>
	<rect x="123" y="111.727" fill="#72060F" width="4.5" height="4.5"/>
	<rect x="123" y="116.227" fill="#222020" width="4.5" height="4.5"/>
	<rect x="118.5" y="111.727" fill="#AA4421" width="4.5" height="4.5"/>
	<rect x="114" y="111.727" fill="#F8D666" width="4.5" height="4.5"/>
	<rect x="109.5" y="111.727" fill="#F8D666" width="4.5" height="4.5"/>
	<rect x="132" y="111.727" fill="#222020" width="4.5" height="4.5"/>
	<rect x="177" y="210.697" fill="#F8D666" width="4.5" height="4.5"/>
	<rect x="181.5" y="210.697" fill="#F8D666" width="4.5" height="4.5"/>
	<rect x="186" y="210.697" fill="#AA4421" width="4.5" height="4.5"/>
	<rect x="190.5" y="210.697" fill="#72060F" width="4.5" height="4.5"/>
	<rect x="195" y="210.697" fill="#F8D666" width="4.5" height="4.5"/>
	<rect x="199.5" y="210.697" fill="#F8D666" width="4.5" height="4.5"/>
	<rect x="159" y="219.697" fill="#72060F" width="4.5" height="4.5"/>
	<rect x="163.5" y="219.697" fill="#EEA738" width="4.5" height="4.5"/>
	<rect x="172.5" y="219.697" fill="#F8D666" width="4.5" height="4.5"/>
	<rect x="168" y="219.697" fill="#F8D666" width="4.5" height="4.5"/>
	<rect x="154.5" y="219.697" fill="#F8D666" width="4.5" height="4.5"/>
	<rect x="150" y="219.697" fill="#EEA738" width="4.5" height="4.5"/>
	<rect x="145.5" y="219.697" fill="#AA4421" width="4.5" height="4.5"/>
	<rect x="177" y="219.697" fill="#AA4421" width="4.5" height="4.5"/>
	<rect x="181.5" y="219.697" fill="#AA4421" width="4.5" height="4.5"/>
	<rect x="186" y="219.697" fill="#F8D666" width="4.5" height="4.5"/>
	<rect x="190.5" y="219.697" fill="#F8D666" width="4.5" height="4.5"/>
	<rect x="195" y="219.697" fill="#F8D666" width="4.5" height="4.5"/>
	<rect x="199.5" y="219.697" fill="#F8D666" width="4.5" height="4.5"/>
	<rect x="204" y="219.697" fill="#F8D666" width="4.5" height="4.5"/>
	<rect x="208.5" y="219.697" fill="#F8D666" width="4.5" height="4.5"/>
	<rect x="213" y="219.697" fill="#72060F" width="4.5" height="4.5"/>
	<rect x="145.5" y="84.773" fill="#FCF3C5" width="4.5" height="4.5"/>
	<rect x="150" y="84.773" fill="#F8D666" width="4.5" height="4.5"/>
	<rect x="145.5" y="89.273" fill="#F8D666" width="4.5" height="4.5"/>
	<rect x="145.5" y="98.268" fill="#FCF3C5" width="4.5" height="4.5"/>
	<rect x="141" y="98.268" fill="#AA4421" width="4.5" height="4.5"/>
	<rect x="136.5" y="98.268" fill="#F8D666" width="4.5" height="4.5"/>
	<rect x="132" y="98.268" fill="#FCF3C5" width="4.5" height="4.5"/>
	<rect x="127.5" y="98.268" fill="#FCF3C5" width="4.5" height="4.5"/>
	<rect x="150" y="98.268" fill="#AA4421" width="4.5" height="4.5"/>
	<rect x="145.5" y="102.75" fill="#F8D666" width="4.5" height="4.5"/>
	<rect x="150" y="102.75" fill="#72060F" width="4.5" height="4.5"/>
	<rect x="145.5" y="111.721" fill="#F8D666" width="4.5" height="4.5"/>
	<rect x="150" y="111.721" fill="#AA4421" width="4.5" height="4.5"/>
	<rect x="145.5" y="116.227" fill="#AA4421" width="4.5" height="4.5"/>
	<rect x="150" y="116.227" fill="#FCF3C5" width="4.5" height="4.5"/>
	<rect x="145.5" y="125.238" fill="#F8D666" width="4.5" height="4.5"/>
	<rect x="141" y="111.727" fill="#FCF3C5" width="4.5" height="4.5"/>
	<rect x="141" y="116.227" fill="#F8D666" width="4.5" height="4.5"/>
	<rect x="136.5" y="116.227" fill="#AA4421" width="4.5" height="4.5"/>
	<rect x="136.5" y="111.727" fill="#AA4421" width="4.5" height="4.5"/>
	<rect x="127.5" y="107.227" fill="#FCF3C5" width="4.5" height="4.5"/>
	<rect x="132" y="107.227" fill="#FCF3C5" width="4.5" height="4.5"/>
	<rect x="136.5" y="107.227" fill="#F8D666" width="4.5" height="4.5"/>
	<rect x="141" y="107.227" fill="#FCF3C5" width="4.5" height="4.5"/>
	<rect x="141" y="102.756" fill="#AA4421" width="4.5" height="4.5"/>
	<rect x="136.5" y="102.756" fill="#AA4421" width="4.5" height="4.5"/>
	<rect x="132" y="102.756" fill="#FCF3C5" width="4.5" height="4.5"/>
	<rect x="127.5" y="102.756" fill="#EEA738" width="4.5" height="4.5"/>
	<rect x="123" y="102.756" fill="#FCF3C5" width="4.5" height="4.5"/>
	<rect x="150" y="125.238" fill="#F8D666" width="4.5" height="4.5"/>
	<rect x="154.5" y="125.238" fill="#AA4421" width="4.5" height="4.5"/>
	<rect x="154.5" y="129.727" fill="#F8D666" width="4.5" height="4.5"/>
	<rect x="159" y="134.221" fill="#AA4421" width="4.5" height="4.5"/>
	<rect x="154.5" y="134.221" fill="#F8D666" width="4.5" height="4.5"/>
	<rect x="159" y="138.721" fill="#72060F" width="4.5" height="4.5"/>
	<rect x="154.5" y="138.721" fill="#F8D666" width="4.5" height="4.5"/>
	<rect x="145.5" y="107.227" fill="#FCF3C5" width="4.5" height="4.5"/>
	<rect x="150" y="107.227" fill="#72060F" width="4.5" height="4.5"/>
	<rect x="100.5" y="107.227" fill="#F8D666" width="4.5" height="4.5"/>
	<rect x="100.5" y="111.727" fill="#F8D666" width="4.5" height="4.5"/>
	<rect x="105" y="111.727" fill="#AA4421" width="4.5" height="4.5"/>
	<rect x="96" y="107.227" fill="#222020" width="4.5" height="4.5"/>
	<rect x="91.5" y="107.227" fill="#F8D666" width="4.5" height="4.5"/>
	<rect x="87" y="107.227" fill="#F8D666" width="4.5" height="4.5"/>
	<rect x="82.5" y="102.756" fill="#222020" width="4.5" height="4.5"/>
	<rect x="82.5" y="98.268" fill="#EEA738" width="4.5" height="4.5"/>
	<rect x="78" y="98.268" fill="#EEA738" width="4.5" height="4.5"/>
	<rect x="87" y="102.756" fill="#222020" width="4.5" height="4.5"/>
	<rect x="87" y="98.268" fill="#FCF3C5" width="4.5" height="4.5"/>
	<rect x="105" y="107.227" fill="#F8D666" width="4.5" height="4.5"/>
	<rect x="109.5" y="107.227" fill="#FCF3C5" width="4.5" height="4.5"/>
	<rect x="114" y="107.227" fill="#EEA738" width="4.5" height="4.5"/>
	<rect x="118.5" y="107.227" fill="#F8D666" width="4.5" height="4.5"/>
	<rect x="100.5" y="102.756" fill="#F8D666" width="4.5" height="4.5"/>
	<rect x="96" y="102.756" fill="#FCF3C5" width="4.5" height="4.5"/>
	<rect x="91.5" y="102.756" fill="#222020" width="4.5" height="4.5"/>
	<rect x="105" y="102.756" fill="#FCF3C5" width="4.5" height="4.5"/>
	<rect x="109.5" y="102.756" fill="#F8D666" width="4.5" height="4.5"/>
	<rect x="114" y="102.756" fill="#FCF3C5" width="4.5" height="4.5"/>
	<rect x="118.5" y="102.756" fill="#F8D666" width="4.5" height="4.5"/>
	<rect x="123" y="98.268" fill="#FCF3C5" width="4.5" height="4.5"/>
	<rect x="100.5" y="98.268" fill="#FCF3C5" width="4.5" height="4.5"/>
	<rect x="96" y="98.268" fill="#FCF3C5" width="4.5" height="4.5"/>
	<rect x="91.5" y="98.268" fill="#FCF3C5" width="4.5" height="4.5"/>
	<rect x="105" y="98.268" fill="#FCF3C5" width="4.5" height="4.5"/>
	<rect x="109.5" y="98.268" fill="#F8D666" width="4.5" height="4.5"/>
	<rect x="114" y="98.268" fill="#FCF3C5" width="4.5" height="4.5"/>
	<rect x="118.5" y="98.268" fill="#FCF3C5" width="4.5" height="4.5"/>
	<rect x="127.5" y="93.773" fill="#FCF3C5" width="4.5" height="4.5"/>
	<rect x="123" y="93.773" fill="#FCF3C5" width="4.5" height="4.5"/>
	<rect x="100.5" y="93.773" fill="#FCF3C5" width="4.5" height="4.5"/>
	<rect x="96" y="93.773" fill="#EEA738" width="4.5" height="4.5"/>
	<rect x="91.5" y="93.773" fill="#F8D666" width="4.5" height="4.5"/>
	<rect x="87" y="93.773" fill="#EEA738" width="4.5" height="4.5"/>
	<rect x="105" y="93.773" fill="#F8D666" width="4.5" height="4.5"/>
	<rect x="109.5" y="93.773" fill="#222020" width="4.5" height="4.5"/>
	<rect x="114" y="93.773" fill="#FFFFFF" width="4.5" height="4.5"/>
	<rect x="118.5" y="93.773" fill="#F8D666" width="4.5" height="4.5"/>
	<rect x="127.5" y="89.273" fill="#F8D666" width="4.5" height="4.5"/>
	<rect x="123" y="89.273" fill="#FCF3C5" width="4.5" height="4.5"/>
	<rect x="100.5" y="89.273" fill="#EEA738" width="4.5" height="4.5"/>
	<rect x="105" y="89.273" fill="#F8D666" width="4.5" height="4.5"/>
	<rect x="109.5" y="89.273" fill="#FCF3C5" width="4.5" height="4.5"/>
	<rect x="114" y="89.273" fill="#F8D666" width="4.5" height="4.5"/>
	<rect x="109.5" y="84.773" fill="#EEA738" width="4.5" height="4.5"/>
	<rect x="114" y="84.773" fill="#EEA738" width="4.5" height="4.5"/>
	<rect x="118.5" y="89.273" fill="#FCF3C5" width="4.5" height="4.5"/>
	<rect x="123" y="107.227" fill="#FCF3C5" width="4.5" height="4.5"/>
	<rect x="154.5" y="116.221" fill="#72060F" width="4.5" height="4.5"/>
	<rect x="145.5" y="120.738" fill="#AA4421" width="4.5" height="4.5"/>
	<rect x="150" y="120.738" fill="#AA4421" width="4.5" height="4.5"/>
	<rect x="154.5" y="120.727" fill="#F8D666" width="4.5" height="4.5"/>
	<rect x="145.5" y="80.279" fill="#222020" width="4.5" height="4.5"/>
	<rect x="141" y="80.279" fill="#F8D666" width="4.5" height="4.5"/>
	<rect x="136.5" y="80.279" fill="#F8D666" width="4.5" height="4.5"/>
	<rect x="141" y="84.773" fill="#222020" width="4.5" height="4.5"/>
	<rect x="136.5" y="84.773" fill="#F8D666" width="4.5" height="4.5"/>
	<rect x="136.5" y="89.273" fill="#FCF3C5" width="4.5" height="4.5"/>
	<rect x="132" y="84.773" fill="#EEA738" width="4.5" height="4.5"/>
	<rect x="127.5" y="84.773" fill="#F8D666" width="4.5" height="4.5"/>
	<rect x="123" y="84.773" fill="#FCF3C5" width="4.5" height="4.5"/>
	<rect x="123" y="80.259" fill="#F8D666" width="4.5" height="4.5"/>
	<rect x="118.5" y="80.259" fill="#EEA738" width="4.5" height="4.5"/>
	<rect x="118.5" y="84.773" fill="#F8D666" width="4.5" height="4.5"/>
	<rect x="118.5" y="75.797" fill="#AA4421" width="4.5" height="4.5"/>
	<rect x="127.5" y="80.259" fill="#EEA738" width="4.5" height="4.5"/>
	<rect x="127.5" y="75.797" fill="#AA4421" width="4.5" height="4.5"/>
	<rect x="132" y="71.303" fill="#72060F" width="4.5" height="4.5"/>
	<rect x="132" y="89.273" fill="#FCF3C5" width="4.5" height="4.5"/>
	<rect x="141" y="89.273" fill="#FCF3C5" width="4.5" height="4.5"/>
	<rect x="150" y="80.279" fill="#222020" width="4.5" height="4.5"/>
	<rect x="145.5" y="93.773" fill="#EEA738" width="4.5" height="4.5"/>
	<rect x="141" y="93.773" fill="#EEA738" width="4.5" height="4.5"/>
	<rect x="136.5" y="93.773" fill="#EEA738" width="4.5" height="4.5"/>
	<rect x="132" y="93.773" fill="#FCF3C5" width="4.5" height="4.5"/>
</g>
</svg>
