<?xml version="1.0" encoding="utf-8"?>
<!-- Generator: Adobe Illustrator 16.0.0, SVG Export Plug-In . SVG Version: 6.00 Build 0)  -->
<!DOCTYPE svg PUBLIC "-//W3C//DTD SVG 1.1//EN" "http://www.w3.org/Graphics/SVG/1.1/DTD/svg11.dtd">
<svg version="1.1" id="Layer_1" xmlns="http://www.w3.org/2000/svg" xmlns:xlink="http://www.w3.org/1999/xlink" x="0px" y="0px"
	 width="300px" height="300px" viewBox="0 0 300 300" enable-background="new 0 0 300 300" xml:space="preserve">
<g>
	<rect x="123.75" y="108.784" fill="#EDD69F" width="7.5" height="7.5"/>
	<rect x="131.25" y="108.784" fill="#EDD69F" width="7.5" height="7.5"/>
	<rect x="138.75" y="108.784" fill="#EDD69F" width="7.5" height="7.5"/>
	<rect x="146.25" y="108.784" fill="#EDD69F" width="7.5" height="7.5"/>
	<rect x="153.75" y="108.779" fill="#4D301C" width="7.5" height="7.5"/>
	<rect x="116.25" y="116.284" fill="#EDD69F" width="7.5" height="7.5"/>
	<rect x="123.75" y="116.284" fill="#9B724E" width="7.5" height="7.5"/>
	<rect x="131.25" y="116.279" fill="#B68D63" width="7.5" height="7.5"/>
	<rect x="138.75" y="116.279" fill="#B68D63" width="7.5" height="7.5"/>
	<rect x="146.25" y="116.279" fill="#EDD69F" width="7.5" height="7.5"/>
	<rect x="153.75" y="116.284" fill="#EDD69F" width="7.5" height="7.5"/>
	<rect x="116.25" y="123.784" fill="#EDD69F" width="7.5" height="7.5"/>
	<rect x="123.75" y="123.784" fill="#EDD69F" width="7.5" height="7.5"/>
	<rect x="116.25" y="131.255" fill="#EDD69F" width="7.5" height="7.5"/>
	<rect x="123.75" y="131.255" fill="#EDD69F" width="7.5" height="7.5"/>
	<rect x="116.25" y="138.745" fill="#EDD69F" width="7.5" height="7.5"/>
	<rect x="123.75" y="138.745" fill="#EDD69F" width="7.5" height="7.5"/>
	<rect x="116.25" y="146.255" fill="#EDD69F" width="7.5" height="7.5"/>
	<rect x="123.75" y="146.255" fill="#EDD69F" width="7.5" height="7.5"/>
	<rect x="116.25" y="153.735" fill="#EDD69F" width="7.5" height="7.5"/>
	<rect x="108.75" y="146.255" fill="#EEE1BF" width="7.5" height="7.5"/>
	<rect x="108.75" y="138.755" fill="#EDD69F" width="7.5" height="7.5"/>
	<rect x="101.25" y="146.255" fill="#EDD69F" width="7.5" height="7.5"/>
	<rect x="101.25" y="138.755" fill="#EDD69F" width="7.5" height="7.5"/>
	<rect x="101.25" y="131.25" fill="#EDD69F" width="7.5" height="7.5"/>
	<rect x="108.75" y="131.255" fill="#EDD69F" width="7.5" height="7.5"/>
	<rect x="123.75" y="153.735" fill="#EDD69F" width="7.5" height="7.5"/>
	<rect x="138.75" y="153.735" fill="#EDD69F" width="7.5" height="7.5"/>
	<rect x="131.25" y="153.735" fill="#EDD69F" width="7.5" height="7.5"/>
	<rect x="146.25" y="153.735" fill="#EDD69F" width="7.5" height="7.5"/>
	<rect x="161.25" y="153.735" fill="#EDD69F" width="7.5" height="7.5"/>
	<rect x="153.75" y="153.735" fill="#EDD69F" width="7.5" height="7.5"/>
	<rect x="138.75" y="161.221" fill="#FFFFFF" width="7.5" height="7.5"/>
	<rect x="131.25" y="161.221" fill="#FFFFFF" width="7.5" height="7.5"/>
	<rect x="146.25" y="161.221" fill="#C7293B" width="7.5" height="7.5"/>
	<rect x="153.75" y="161.221" fill="#EDD69F" width="7.5" height="7.5"/>
	<rect x="138.75" y="168.706" fill="#C7293B" width="7.5" height="7.5"/>
	<rect x="131.25" y="168.706" fill="#C7293B" width="7.5" height="7.5"/>
	<rect x="146.25" y="168.706" fill="#EDD69F" width="7.5" height="7.5"/>
	<rect x="153.75" y="168.706" fill="#EDD69F" width="7.5" height="7.5"/>
	<rect x="138.75" y="176.206" fill="#EDD69F" width="7.5" height="7.5"/>
	<rect x="131.25" y="176.206" fill="#EDD69F" width="7.5" height="7.5"/>
	<rect x="123.75" y="168.706" fill="#C7293B" width="7.5" height="7.5"/>
	<rect x="123.75" y="176.206" fill="#EDD69F" width="7.5" height="7.5"/>
	<rect x="146.25" y="176.206" fill="#EDD69F" width="7.5" height="7.5"/>
	<rect x="138.75" y="183.706" fill="#D5CBAD" width="7.5" height="7.5"/>
	<rect x="131.25" y="183.706" fill="#D5CBAD" width="7.5" height="7.5"/>
	<rect x="146.25" y="183.706" fill="#D5CBAD" width="7.5" height="7.5"/>
	<rect x="138.75" y="191.206" fill="#EDD69F" width="7.5" height="7.5"/>
	<rect x="146.25" y="191.206" fill="#EDD69F" width="7.5" height="7.5"/>
	<rect x="153.75" y="183.706" fill="#EDD69F" width="7.5" height="7.5"/>
	<rect x="153.75" y="176.206" fill="#D5CBAD" width="7.5" height="7.5"/>
	<rect x="161.25" y="176.206" fill="#EDD69F" width="7.5" height="7.5"/>
	<rect x="161.25" y="183.706" fill="#EDD69F" width="7.5" height="7.5"/>
	<rect x="168.75" y="183.706" fill="#74A8C4" width="7.5" height="7.5"/>
	<rect x="168.75" y="176.206" fill="#74A8C4" width="7.5" height="7.5"/>
	<rect x="176.25" y="183.706" fill="#74A8C4" width="7.5" height="7.5"/>
	<rect x="176.25" y="176.206" fill="#74A8C4" width="7.5" height="7.5"/>
	<rect x="183.75" y="176.206" fill="#74A8C4" width="7.5" height="7.5"/>
	<rect x="161.25" y="191.206" fill="#EDD69F" width="7.5" height="7.5"/>
	<rect x="153.75" y="191.206" fill="#EDD69F" width="7.5" height="7.5"/>
	<rect x="131.25" y="191.206" fill="#74A8C4" width="7.5" height="7.5"/>
	<rect x="123.75" y="191.206" fill="#74A8C4" width="7.5" height="7.5"/>
	<rect x="123.75" y="183.706" fill="#74A8C4" width="7.5" height="7.5"/>
	<rect x="116.25" y="183.706" fill="#74A8C4" width="7.5" height="7.5"/>
	<rect x="168.75" y="191.206" fill="#74A8C4" width="7.5" height="7.5"/>
	<rect x="176.25" y="191.206" fill="#74A8C4" width="7.5" height="7.5"/>
	<rect x="183.75" y="191.206" fill="#74A8C4" width="7.5" height="7.5"/>
	<rect x="138.75" y="206.206" fill="#2F292B" width="7.5" height="7.5"/>
	<rect x="146.25" y="206.206" fill="#2F292B" width="7.5" height="7.5"/>
	<rect x="161.25" y="206.206" fill="#74A8C4" width="7.5" height="7.5"/>
	<rect x="153.75" y="206.206" fill="#2F292B" width="7.5" height="7.5"/>
	<rect x="131.25" y="206.206" fill="#74A8C4" width="7.5" height="7.5"/>
	<rect x="131.25" y="213.706" fill="#74A8C4" width="7.5" height="7.5"/>
	<rect x="123.75" y="206.206" fill="#74A8C4" width="7.5" height="7.5"/>
	<rect x="116.25" y="206.206" fill="#74A8C4" width="7.5" height="7.5"/>
	<rect x="168.75" y="206.206" fill="#74A8C4" width="7.5" height="7.5"/>
	<rect x="176.25" y="206.206" fill="#42607E" width="7.5" height="7.5"/>
	<rect x="183.75" y="206.206" fill="#74A8C4" width="7.5" height="7.5"/>
	<rect x="191.25" y="206.206" fill="#74A8C4" width="7.5" height="7.5"/>
	<rect x="138.75" y="221.206" fill="#74A8C4" width="7.5" height="7.5"/>
	<rect x="146.25" y="221.206" fill="#74A8C4" width="7.5" height="7.5"/>
	<rect x="161.25" y="221.206" fill="#74A8C4" width="7.5" height="7.5"/>
	<rect x="153.75" y="221.206" fill="#74A8C4" width="7.5" height="7.5"/>
	<rect x="131.25" y="221.206" fill="#74A8C4" width="7.5" height="7.5"/>
	<rect x="123.75" y="221.206" fill="#74A8C4" width="7.5" height="7.5"/>
	<rect x="116.25" y="221.206" fill="#EEE1BF" width="7.5" height="7.5"/>
	<rect x="168.75" y="221.206" fill="#74A8C4" width="7.5" height="7.5"/>
	<rect x="176.25" y="221.206" fill="#EDD69F" width="7.5" height="7.5"/>
	<rect x="183.75" y="221.206" fill="#EDD69F" width="7.5" height="7.5"/>
	<rect x="191.25" y="221.206" fill="#EDD69F" width="7.5" height="7.5"/>
	<rect x="138.75" y="198.706" fill="#2F292B" width="7.5" height="7.5"/>
	<rect x="146.25" y="198.706" fill="#2F292B" width="7.5" height="7.5"/>
	<rect x="161.25" y="198.706" fill="#74A8C4" width="7.5" height="7.5"/>
	<rect x="153.75" y="198.706" fill="#2F292B" width="7.5" height="7.5"/>
	<rect x="131.25" y="198.706" fill="#74A8C4" width="7.5" height="7.5"/>
	<rect x="123.75" y="198.706" fill="#74A8C4" width="7.5" height="7.5"/>
	<rect x="116.25" y="198.706" fill="#74A8C4" width="7.5" height="7.5"/>
	<rect x="168.75" y="198.706" fill="#74A8C4" width="7.5" height="7.5"/>
	<rect x="176.25" y="198.706" fill="#74A8C4" width="7.5" height="7.5"/>
	<rect x="183.75" y="198.706" fill="#74A8C4" width="7.5" height="7.5"/>
	<rect x="191.25" y="198.706" fill="#74A8C4" width="7.5" height="7.5"/>
	<rect x="138.75" y="213.706" fill="#74A8C4" width="7.5" height="7.5"/>
	<rect x="146.25" y="213.706" fill="#2F292B" width="7.5" height="7.5"/>
	<rect x="161.25" y="213.706" fill="#74A8C4" width="7.5" height="7.5"/>
	<rect x="153.75" y="213.706" fill="#74A8C4" width="7.5" height="7.5"/>
	<rect x="131.25" y="213.706" fill="#74A8C4" width="7.5" height="7.5"/>
	<rect x="123.75" y="213.706" fill="#74A8C4" width="7.5" height="7.5"/>
	<rect x="116.25" y="213.706" fill="#42607E" width="7.5" height="7.5"/>
	<rect x="108.75" y="206.206" fill="#74A8C4" width="7.5" height="7.5"/>
	<rect x="108.75" y="221.206" fill="#EEE1BF" width="7.5" height="7.5"/>
	<rect x="108.75" y="213.706" fill="#74A8C4" width="7.5" height="7.5"/>
	<rect x="168.75" y="213.706" fill="#74A8C4" width="7.5" height="7.5"/>
	<rect x="176.25" y="213.706" fill="#42607E" width="7.5" height="7.5"/>
	<rect x="183.75" y="213.706" fill="#74A8C4" width="7.5" height="7.5"/>
	<rect x="191.25" y="213.706" fill="#74A8C4" width="7.5" height="7.5"/>
	<rect x="168.75" y="153.735" fill="#EDD69F" width="7.5" height="7.5"/>
	<rect x="161.25" y="146.25" fill="#EDD69F" width="7.5" height="7.5"/>
	<rect x="168.75" y="146.25" fill="#EDD69F" width="7.5" height="7.5"/>
	<rect x="161.25" y="168.706" fill="#EDD69F" width="7.5" height="7.5"/>
	<rect x="168.75" y="168.706" fill="#EDD69F" width="7.5" height="7.5"/>
	<rect x="161.25" y="161.221" fill="#EDD69F" width="7.5" height="7.5"/>
	<rect x="168.75" y="161.221" fill="#EDD69F" width="7.5" height="7.5"/>
	<rect x="161.25" y="138.735" fill="#EDD69F" width="7.5" height="7.5"/>
	<rect x="168.75" y="138.735" fill="#EDD69F" width="7.5" height="7.5"/>
	<rect x="161.25" y="131.25" fill="#734A1D" width="7.5" height="7.5"/>
	<rect x="168.75" y="131.25" fill="#EEE1BF" width="7.5" height="7.5"/>
	<rect x="176.25" y="138.735" fill="#EDD69F" width="7.5" height="7.5"/>
	<rect x="176.25" y="131.25" fill="#EDD69F" width="7.5" height="7.5"/>
	<rect x="131.25" y="123.784" fill="#EDD69F" width="7.5" height="7.5"/>
	<rect x="138.75" y="123.784" fill="#EDD69F" width="7.5" height="7.5"/>
	<rect x="146.25" y="123.784" fill="#EDD69F" width="7.5" height="7.5"/>
	<rect x="153.75" y="123.784" fill="#EDD69F" width="7.5" height="7.5"/>
	<rect x="131.25" y="131.25" fill="#B7803B" width="7.5" height="7.5"/>
	<rect x="138.75" y="131.25" fill="#FFFFFF" width="7.5" height="7.5"/>
	<rect x="131.25" y="131.25" fill="#2F292B" width="7.5" height="7.5"/>
	<rect x="146.25" y="131.255" fill="#EDD69F" width="7.5" height="7.5"/>
	<rect x="153.75" y="131.255" fill="#EDD69F" width="7.5" height="7.5"/>
	<rect x="131.25" y="138.745" fill="#EDD69F" width="7.5" height="7.5"/>
	<rect x="138.75" y="138.745" fill="#EDD69F" width="7.5" height="7.5"/>
	<rect x="146.25" y="138.745" fill="#EDD69F" width="7.5" height="7.5"/>
	<rect x="153.75" y="138.735" fill="#EDD69F" width="7.5" height="7.5"/>
	<rect x="131.25" y="146.235" fill="#EDD69F" width="7.5" height="7.5"/>
	<rect x="138.75" y="146.235" fill="#EDD69F" width="7.5" height="7.5"/>
	<rect x="146.25" y="146.235" fill="#EDD69F" width="7.5" height="7.5"/>
	<rect x="153.75" y="146.235" fill="#EDD69F" width="7.5" height="7.5"/>
	<rect x="161.25" y="108.779" fill="#6E5D55" width="7.5" height="7.5"/>
	<rect x="168.75" y="108.779" fill="#865F36" width="7.5" height="7.5"/>
	<rect x="123.75" y="101.304" fill="#EDD69F" width="7.5" height="7.5"/>
	<rect x="116.25" y="108.784" fill="#EDD69F" width="7.5" height="7.5"/>
	<rect x="116.25" y="101.304" fill="#EDD69F" width="7.5" height="7.5"/>
	<rect x="116.25" y="93.804" fill="#4D301C" width="7.5" height="7.5"/>
	<rect x="116.25" y="86.294" fill="#C2B99F" width="7.5" height="7.5"/>
	<rect x="131.25" y="101.304" fill="#EDD69F" width="7.5" height="7.5"/>
	<rect x="138.75" y="101.304" fill="#EDD69F" width="7.5" height="7.5"/>
	<rect x="146.25" y="101.304" fill="#EDD69F" width="7.5" height="7.5"/>
	<rect x="153.75" y="101.304" fill="#84796C" width="7.5" height="7.5"/>
	<rect x="123.75" y="93.794" fill="#EDD69F" width="7.5" height="7.5"/>
	<rect x="131.25" y="93.804" fill="#EDD69F" width="7.5" height="7.5"/>
	<rect x="138.75" y="93.804" fill="#EDD69F" width="7.5" height="7.5"/>
	<rect x="146.25" y="93.804" fill="#EDD69F" width="7.5" height="7.5"/>
	<rect x="153.75" y="93.794" fill="#EDD69F" width="7.5" height="7.5"/>
	<rect x="161.25" y="101.304" fill="#84796C" width="7.5" height="7.5"/>
	<rect x="161.25" y="93.794" fill="#84796C" width="7.5" height="7.5"/>
	<rect x="123.75" y="86.294" fill="#9B724E" width="7.5" height="7.5"/>
	<rect x="123.75" y="78.794" fill="#C2B99F" width="7.5" height="7.5"/>
	<rect x="116.25" y="78.794" fill="#84796C" width="7.5" height="7.5"/>
	<rect x="123.75" y="71.294" fill="#865F36" width="7.5" height="7.5"/>
	<rect x="131.25" y="71.294" fill="#C2B99F" width="7.5" height="7.5"/>
	<rect x="131.25" y="78.794" fill="#6E5D55" width="7.5" height="7.5"/>
	<rect x="108.75" y="78.794" fill="#4D301C" width="7.5" height="7.5"/>
	<rect x="138.75" y="78.794" fill="#6E5D55" width="7.5" height="7.5"/>
	<rect x="146.25" y="78.794" fill="#6E5D55" width="7.5" height="7.5"/>
	<rect x="153.75" y="78.794" fill="#4D301C" width="7.5" height="7.5"/>
	<rect x="161.25" y="86.294" fill="#4D301C" width="7.5" height="7.5"/>
	<rect x="161.25" y="78.794" fill="#4D301C" width="7.5" height="7.5"/>
	<rect x="138.75" y="71.294" fill="#6E5D55" width="7.5" height="7.5"/>
	<rect x="146.25" y="71.294" fill="#6E5D55" width="7.5" height="7.5"/>
	<rect x="153.75" y="71.294" fill="#CEA980" width="7.5" height="7.5"/>
	<rect x="161.25" y="71.294" fill="#4D301C" width="7.5" height="7.5"/>
	<rect x="168.75" y="86.294" fill="#84796C" width="7.5" height="7.5"/>
	<rect x="131.25" y="86.294" fill="#6E5D55" width="7.5" height="7.5"/>
	<rect x="108.75" y="86.294" fill="#84796C" width="7.5" height="7.5"/>
	<rect x="138.75" y="86.294" fill="#4D301C" width="7.5" height="7.5"/>
	<rect x="146.25" y="86.294" fill="#865F36" width="7.5" height="7.5"/>
	<rect x="153.75" y="86.294" fill="#CEA980" width="7.5" height="7.5"/>
	<rect x="168.75" y="101.294" fill="#6E5D55" width="7.5" height="7.5"/>
	<rect x="168.75" y="93.794" fill="#4D301C" width="7.5" height="7.5"/>
	<rect x="161.25" y="116.279" fill="#4D301C" width="7.5" height="7.5"/>
	<rect x="168.75" y="116.279" fill="#4D301C" width="7.5" height="7.5"/>
	<rect x="161.25" y="123.779" fill="#4D301C" width="7.5" height="7.5"/>
	<rect x="168.75" y="123.779" fill="#EDD69F" width="7.5" height="7.5"/>
	<rect x="176.25" y="108.779" fill="#4D301C" width="7.5" height="7.5"/>
	<rect x="176.25" y="101.294" fill="#6E5D55" width="7.5" height="7.5"/>
	<rect x="176.25" y="93.794" fill="#CEA980" width="7.5" height="7.5"/>
	<rect x="176.25" y="86.294" fill="#CEA980" width="7.5" height="7.5"/>
	<rect x="168.75" y="78.794" fill="#4D301C" width="7.5" height="7.5"/>
	<rect x="183.75" y="86.294" fill="#84796C" width="7.5" height="7.5"/>
	<rect x="183.75" y="78.794" fill="#4D301C" width="7.5" height="7.5"/>
	<rect x="168.75" y="71.294" fill="#4D301C" width="7.5" height="7.5"/>
	<rect x="176.25" y="78.794" fill="#4D301C" width="7.5" height="7.5"/>
	<rect x="176.25" y="71.294" fill="#4D301C" width="7.5" height="7.5"/>
	<rect x="183.75" y="108.779" fill="#4D301C" width="7.5" height="7.5"/>
	<rect x="183.75" y="101.294" fill="#4D301C" width="7.5" height="7.5"/>
	<rect x="183.75" y="93.794" fill="#4D301C" width="7.5" height="7.5"/>
	<rect x="176.25" y="116.279" fill="#4D301C" width="7.5" height="7.5"/>
	<rect x="176.25" y="123.779" fill="#EDD69F" width="7.5" height="7.5"/>
</g>
</svg>
