<?xml version="1.0" encoding="utf-8"?>
<!-- Generator: Adobe Illustrator 16.0.0, SVG Export Plug-In . SVG Version: 6.00 Build 0)  -->
<!DOCTYPE svg PUBLIC "-//W3C//DTD SVG 1.1//EN" "http://www.w3.org/Graphics/SVG/1.1/DTD/svg11.dtd">
<svg version="1.1" id="Layer_1" xmlns="http://www.w3.org/2000/svg" xmlns:xlink="http://www.w3.org/1999/xlink" x="0px" y="0px"
	 width="300px" height="300px" viewBox="0 0 300 300" enable-background="new 0 0 300 300" xml:space="preserve">
<g>
	<rect x="120" y="86.289" fill="#754C29" width="7.5" height="7.5"/>
	<rect x="112.5" y="86.289" fill="#754C29" width="7.5" height="7.5"/>
	<rect x="105" y="86.289" fill="#C49A6C" width="7.5" height="7.5"/>
	<rect x="127.5" y="86.289" fill="#3C2415" width="7.5" height="7.5"/>
	<rect x="135" y="86.289" fill="#C2B59B" width="7.5" height="7.5"/>
	<rect x="142.5" y="86.289" fill="#603913" width="7.5" height="7.5"/>
	<rect x="112.5" y="101.279" fill="#3C2415" width="7.5" height="7.5"/>
	<rect x="105" y="101.279" fill="#3E2D02" width="7.5" height="7.5"/>
	<rect x="105" y="93.779" fill="#754C29" width="7.5" height="7.51"/>
	<rect x="105" y="108.779" fill="#754C29" width="7.5" height="7.5"/>
	<rect x="97.5" y="101.279" fill="#C49A6C" width="7.5" height="7.5"/>
	<rect x="97.5" y="108.779" fill="#3E2D02" width="7.5" height="7.5"/>
	<rect x="120" y="101.279" fill="#C49A6C" width="7.5" height="7.5"/>
	<rect x="127.5" y="101.279" fill="#603913" width="7.5" height="7.5"/>
	<rect x="135" y="101.279" fill="#603913" width="7.5" height="7.5"/>
	<rect x="142.5" y="101.279" fill="#754C29" width="7.5" height="7.5"/>
	<rect x="150" y="101.279" fill="#EFC8A6" width="7.5" height="7.5"/>
	<rect x="112.5" y="108.779" fill="#EDD69F" width="7.5" height="7.5"/>
	<rect x="120" y="108.779" fill="#3C2415" width="7.5" height="7.5"/>
	<rect x="127.5" y="108.779" fill="#603913" width="7.5" height="7.5"/>
	<rect x="135" y="108.779" fill="#EDD69F" width="7.5" height="7.5"/>
	<rect x="142.5" y="108.779" fill="#EFC8A6" width="7.5" height="7.5"/>
	<rect x="150" y="108.779" fill="#EFC8A6" width="7.5" height="7.5"/>
	<rect x="112.5" y="116.279" fill="#754C29" width="7.5" height="7.5"/>
	<rect x="120" y="116.279" fill="#EDD69F" width="7.5" height="7.5"/>
	<rect x="112.5" y="123.75" fill="#EDD69F" width="7.5" height="7.5"/>
	<rect x="120" y="123.75" fill="#3C2415" width="7.5" height="7.5"/>
	<rect x="112.5" y="138.701" fill="#EDD69F" width="7.5" height="7.5"/>
	<rect x="120" y="138.701" fill="#879260" width="7.5" height="7.5"/>
	<rect x="112.5" y="146.211" fill="#EDD69F" width="7.5" height="7.5"/>
	<rect x="120" y="146.211" fill="#EEE1BF" width="7.5" height="7.5"/>
	<rect x="112.5" y="153.701" fill="#D5CBAD" width="7.5" height="7.5"/>
	<rect x="105" y="146.211" fill="#EDD69F" width="7.5" height="7.5"/>
	<rect x="105" y="138.711" fill="#EEE1BF" width="7.5" height="7.5"/>
	<rect x="120" y="153.701" fill="#D5CBAD" width="7.5" height="7.5"/>
	<rect x="135" y="153.701" fill="#EDD69F" width="7.5" height="7.5"/>
	<rect x="127.5" y="153.701" fill="#D5CBAD" width="7.5" height="7.5"/>
	<rect x="142.5" y="153.701" fill="#EEE1BF" width="7.5" height="7.5"/>
	<rect x="157.5" y="153.701" fill="#EDD69F" width="7.5" height="7.5"/>
	<rect x="150" y="153.701" fill="#EFC8A6" width="7.5" height="7.5"/>
	<rect x="135" y="161.182" fill="#FFFFFF" width="7.5" height="7.5"/>
	<rect x="127.5" y="161.182" fill="#FFFFFF" width="7.5" height="7.5"/>
	<rect x="142.5" y="161.182" fill="#FFFFFF" width="7.5" height="7.5"/>
	<rect x="150" y="161.182" fill="#D28F8C" width="7.5" height="7.5"/>
	<rect x="135" y="168.672" fill="#D28F8C" width="7.5" height="7.5"/>
	<rect x="127.5" y="168.672" fill="#D28F8C" width="7.5" height="7.5"/>
	<rect x="142.5" y="168.672" fill="#BB807B" width="7.5" height="7.5"/>
	<rect x="150" y="168.672" fill="#EDD69F" width="7.5" height="7.5"/>
	<rect x="135" y="176.172" fill="#EDD69F" width="7.5" height="7.5"/>
	<rect x="127.5" y="176.172" fill="#EDD69F" width="7.5" height="7.5"/>
	<rect x="142.5" y="176.172" fill="#EDD69F" width="7.5" height="7.5"/>
	<rect x="135" y="183.701" fill="#D5CBAD" width="7.5" height="7.5"/>
	<rect x="142.5" y="183.701" fill="#D5CBAD" width="7.5" height="7.5"/>
	<rect x="150" y="183.701" fill="#EDD69F" width="7.5" height="7.5"/>
	<rect x="157.5" y="183.701" fill="#EDD69F" width="7.5" height="7.5"/>
	<rect x="135" y="191.201" fill="#D5CBAD" width="7.5" height="7.5"/>
	<rect x="142.5" y="191.201" fill="#EDD69F" width="7.5" height="7.5"/>
	<rect x="150" y="191.201" fill="#EDD69F" width="7.5" height="7.5"/>
	<rect x="150" y="176.172" fill="#EEE1BF" width="7.5" height="7.5"/>
	<rect x="157.5" y="176.172" fill="#EFC8A6" width="7.5" height="7.5"/>
	<rect x="157.5" y="191.211" fill="#EDD69F" width="7.5" height="7.5"/>
	<rect x="127.5" y="191.211" fill="#1C75BC" width="7.5" height="7.5"/>
	<rect x="120" y="191.211" fill="#1C75BC" width="7.5" height="7.5"/>
	<rect x="112.495" y="183.711" fill="#1C75BC" width="7.5" height="7.5"/>
	<rect x="120" y="183.711" fill="#1C75BC" width="7.5" height="7.5"/>
	<rect x="165" y="191.211" fill="#1C75BC" width="7.5" height="7.5"/>
	<rect x="172.5" y="191.211" fill="#1C75BC" width="7.5" height="7.5"/>
	<rect x="172.5" y="183.691" fill="#1C75BC" width="7.5" height="7.5"/>
	<rect x="179.775" y="183.691" fill="#1C75BC" width="7.5" height="7.5"/>
	<rect x="135" y="206.211" fill="#1C75BC" width="7.5" height="7.5"/>
	<rect x="142.5" y="206.211" fill="#757345" width="7.5" height="7.5"/>
	<rect x="157.5" y="206.211" fill="#1C75BC" width="7.5" height="7.5"/>
	<rect x="150" y="206.211" fill="#757345" width="7.5" height="7.5"/>
	<rect x="127.5" y="206.211" fill="#12558B" width="7.5" height="7.5"/>
	<rect x="120" y="206.211" fill="#1C75BC" width="7.5" height="7.5"/>
	<rect x="112.5" y="206.211" fill="#1C75BC" width="7.5" height="7.5"/>
	<rect x="165" y="206.211" fill="#12558B" width="7.5" height="7.5"/>
	<rect x="172.5" y="206.211" fill="#1C75BC" width="7.5" height="7.5"/>
	<rect x="180" y="206.211" fill="#1C75BC" width="7.5" height="7.5"/>
	<rect x="187.5" y="206.211" fill="#1C75BC" width="7.5" height="7.5"/>
	<rect x="135" y="221.211" fill="#1C75BC" width="7.5" height="7.5"/>
	<rect x="142.5" y="221.211" fill="#12558B" width="7.5" height="7.5"/>
	<rect x="157.5" y="221.211" fill="#1C75BC" width="7.5" height="7.5"/>
	<rect x="150" y="221.211" fill="#12558B" width="7.5" height="7.5"/>
	<rect x="127.5" y="221.211" fill="#1C75BC" width="7.5" height="7.5"/>
	<rect x="120" y="221.211" fill="#12558B" width="7.5" height="7.5"/>
	<rect x="112.5" y="221.211" fill="#1C75BC" width="7.5" height="7.5"/>
	<rect x="165" y="221.211" fill="#1C75BC" width="7.5" height="7.5"/>
	<rect x="172.5" y="221.211" fill="#12558B" width="7.5" height="7.5"/>
	<rect x="180" y="221.211" fill="#1C75BC" width="7.5" height="7.5"/>
	<rect x="187.5" y="221.211" fill="#1C75BC" width="7.5" height="7.5"/>
	<rect x="135" y="198.711" fill="#757345" width="7.5" height="7.5"/>
	<rect x="142.5" y="198.711" fill="#EDD69F" width="7.5" height="7.5"/>
	<rect x="157.5" y="198.711" fill="#757345" width="7.5" height="7.5"/>
	<rect x="150" y="198.711" fill="#EDD69F" width="7.5" height="7.5"/>
	<rect x="127.5" y="198.711" fill="#1C75BC" width="7.5" height="7.5"/>
	<rect x="120" y="198.711" fill="#12558B" width="7.5" height="7.5"/>
	<rect x="112.5" y="198.711" fill="#1C75BC" width="7.5" height="7.5"/>
	<rect x="165" y="198.711" fill="#1C75BC" width="7.5" height="7.5"/>
	<rect x="172.5" y="198.711" fill="#12558B" width="7.5" height="7.5"/>
	<rect x="180" y="198.711" fill="#1C75BC" width="7.5" height="7.5"/>
	<rect x="135" y="213.711" fill="#12558B" width="7.5" height="7.5"/>
	<rect x="142.5" y="213.711" fill="#757345" width="7.5" height="7.5"/>
	<rect x="157.5" y="213.711" fill="#12558B" width="7.5" height="7.5"/>
	<rect x="150" y="213.711" fill="#757345" width="7.5" height="7.5"/>
	<rect x="127.5" y="213.711" fill="#1C75BC" width="7.5" height="7.5"/>
	<rect x="120" y="213.711" fill="#1C75BC" width="7.5" height="7.5"/>
	<rect x="112.5" y="213.711" fill="#1C75BC" width="7.5" height="7.5"/>
	<rect x="105" y="206.211" fill="#1C75BC" width="7.5" height="7.5"/>
	<rect x="105" y="221.211" fill="#1C75BC" width="7.5" height="7.5"/>
	<rect x="105" y="213.711" fill="#1C75BC" width="7.5" height="7.5"/>
	<rect x="165" y="213.711" fill="#1C75BC" width="7.5" height="7.5"/>
	<rect x="172.5" y="213.711" fill="#1C75BC" width="7.5" height="7.5"/>
	<rect x="180" y="213.711" fill="#1C75BC" width="7.5" height="7.5"/>
	<rect x="187.5" y="213.711" fill="#1C75BC" width="7.5" height="7.5"/>
	<rect x="165" y="153.701" fill="#EDD69F" width="7.5" height="7.5"/>
	<rect x="157.5" y="146.211" fill="#EDD69F" width="7.5" height="7.5"/>
	<rect x="165" y="146.211" fill="#D5CBAD" width="7.5" height="7.5"/>
	<rect x="157.5" y="168.672" fill="#EEE1BF" width="7.5" height="7.5"/>
	<rect x="165" y="168.672" fill="#EDD69F" width="7.5" height="7.5"/>
	<rect x="157.5" y="161.182" fill="#EDD69F" width="7.5" height="7.5"/>
	<rect x="165" y="161.182" fill="#EDD69F" width="7.5" height="7.5"/>
	<rect x="157.5" y="138.701" fill="#3C2415" width="7.5" height="7.5"/>
	<rect x="165" y="138.701" fill="#3C2415" width="7.5" height="7.5"/>
	<rect x="157.5" y="123.75" fill="#603913" width="7.5" height="7.5"/>
	<rect x="165" y="123.75" fill="#3C2415" width="7.5" height="7.5"/>
	<rect x="172.5" y="138.701" fill="#EDD69F" width="7.5" height="7.5"/>
	<rect x="172.5" y="131.211" fill="#3C2415" width="7.5" height="7.5"/>
	<rect x="127.5" y="116.279" fill="#EDD69F" width="7.5" height="7.5"/>
	<rect x="135" y="116.279" fill="#EDD69F" width="7.5" height="7.5"/>
	<rect x="142.5" y="116.279" fill="#3C2415" width="7.5" height="7.5"/>
	<rect x="150" y="116.279" fill="#754C29" width="7.5" height="7.5"/>
	<rect x="127.5" y="123.75" fill="#754C29" width="7.5" height="7.5"/>
	<rect x="135" y="123.75" fill="#EDD69F" width="7.5" height="7.5"/>
	<rect x="142.5" y="123.75" fill="#EDD69F" width="7.5" height="7.5"/>
	<rect x="150" y="123.75" fill="#3C2415" width="7.5" height="7.5"/>
	<rect x="112.5" y="131.211" fill="#EEE1BF" width="7.5" height="7.5"/>
	<rect x="120" y="131.211" fill="#EDD69F" width="7.5" height="7.5"/>
	<rect x="157.5" y="131.211" fill="#3C2415" width="7.5" height="7.5"/>
	<rect x="165" y="131.211" fill="#603913" width="7.5" height="7.5"/>
	<rect x="127.5" y="131.211" fill="#EDD69F" width="7.5" height="7.5"/>
	<rect x="135" y="131.211" fill="#EDD69F" width="7.5" height="7.5"/>
	<rect x="142.5" y="131.211" fill="#EDD69F" width="7.5" height="7.5"/>
	<rect x="150" y="131.211" fill="#3C2415" width="7.5" height="7.5"/>
	<rect x="127.5" y="138.701" fill="#FFFFFF" width="7.5" height="7.5"/>
	<rect x="135" y="138.701" fill="#EDD69F" width="7.5" height="7.5"/>
	<rect x="142.5" y="138.701" fill="#EDD69F" width="7.5" height="7.5"/>
	<rect x="150" y="138.701" fill="#EDD69F" width="7.5" height="7.5"/>
	<rect x="127.5" y="146.201" fill="#EDD69F" width="7.5" height="7.5"/>
	<rect x="135" y="146.201" fill="#EEE1BF" width="7.5" height="7.5"/>
	<rect x="142.5" y="146.201" fill="#EFC8A6" width="7.5" height="7.5"/>
	<rect x="150" y="146.201" fill="#EFC8A6" width="7.5" height="7.5"/>
	<rect x="157.5" y="101.279" fill="#3E2D02" width="7.5" height="7.5"/>
	<rect x="165" y="101.279" fill="#3E2D02" width="7.5" height="7.5"/>
	<rect x="112.5" y="93.789" fill="#3E2D02" width="7.5" height="7.5"/>
	<rect x="120" y="93.789" fill="#3C2415" width="7.5" height="7.5"/>
	<rect x="127.5" y="93.789" fill="#C2B59B" width="7.5" height="7.5"/>
	<rect x="135" y="93.789" fill="#3C2415" width="7.5" height="7.5"/>
	<rect x="142.5" y="93.789" fill="#3E2D02" width="7.5" height="7.5"/>
	<rect x="150" y="93.789" fill="#603913" width="7.5" height="7.5"/>
	<rect x="157.5" y="93.789" fill="#C2B59B" width="7.5" height="7.5"/>
	<rect x="150" y="86.289" fill="#603913" width="7.5" height="7.5"/>
	<rect x="157.5" y="86.289" fill="#3E2D02" width="7.5" height="7.5"/>
	<rect x="127.5" y="78.789" fill="#754C29" width="7.5" height="7.5"/>
	<rect x="112.5" y="78.789" fill="#754C29" width="7.5" height="7.5"/>
	<rect x="135" y="78.789" fill="#754C29" width="7.5" height="7.5"/>
	<rect x="142.5" y="78.789" fill="#3E2D02" width="7.5" height="7.5"/>
	<rect x="142.5" y="71.289" fill="#754C29" width="7.5" height="7.5"/>
	<rect x="135" y="71.289" fill="#C49A6C" width="7.5" height="7.5"/>
	<rect x="150" y="78.789" fill="#754C29" width="7.5" height="7.5"/>
	<rect x="165" y="93.789" fill="#754C29" width="7.5" height="7.5"/>
	<rect x="165" y="86.289" fill="#754C29" width="7.5" height="7.5"/>
	<rect x="165" y="78.789" fill="#C49A6C" width="7.5" height="7.5"/>
	<rect x="172.5" y="101.279" fill="#3E2D02" width="7.5" height="7.5"/>
	<rect x="172.5" y="93.789" fill="#603913" width="7.5" height="7.5"/>
	<rect x="172.5" y="86.289" fill="#C49A6C" width="7.5" height="7.5"/>
	<rect x="157.5" y="108.779" fill="#C49A6C" width="7.5" height="7.5"/>
	<rect x="165" y="108.779" fill="#754C29" width="7.5" height="7.5"/>
	<rect x="157.5" y="116.279" fill="#3C2415" width="7.5" height="7.5"/>
	<rect x="165" y="116.279" fill="#C49A6C" width="7.5" height="7.5"/>
	<rect x="172.5" y="123.75" fill="#754C29" width="7.5" height="7.5"/>
	<rect x="172.5" y="108.779" fill="#3E2D02" width="7.5" height="7.5"/>
	<rect x="180" y="101.279" fill="#603913" width="7.5" height="7.5"/>
	<rect x="180" y="108.779" fill="#3E2D02" width="7.5" height="7.5"/>
	<rect x="180" y="93.789" fill="#754C29" width="7.5" height="7.5"/>
	<rect x="180" y="86.279" fill="#3E2D02" width="7.5" height="7.5"/>
	<rect x="187.5" y="86.279" fill="#754C29" width="7.5" height="7.5"/>
	<rect x="187.5" y="101.279" fill="#C49A6C" width="7.5" height="7.5"/>
	<rect x="187.5" y="108.779" fill="#754C29" width="7.5" height="7.5"/>
	<rect x="172.5" y="116.279" fill="#3C2415" width="7.5" height="7.5"/>
	<rect x="180" y="138.73" fill="#EDD69F" width="7.5" height="7.5"/>
	<rect x="180" y="131.26" fill="#EFC8A6" width="7.5" height="7.5"/>
	<rect x="180" y="123.77" fill="#603913" width="7.5" height="7.5"/>
	<rect x="180" y="116.27" fill="#754C29" width="7.5" height="7.5"/>
	<rect x="187.5" y="116.27" fill="#754C29" width="7.5" height="7.5"/>
	<rect x="187.5" y="123.75" fill="#754C29" width="7.5" height="7.5"/>
	<rect x="195" y="116.27" fill="#754C29" width="7.5" height="7.5"/>
	<rect x="195" y="123.75" fill="#C49A6C" width="7.5" height="7.5"/>
	<rect x="187.5" y="131.27" fill="#754C29" width="7.5" height="7.5"/>
	<rect x="187.5" y="138.75" fill="#754C29" width="7.5" height="7.5"/>
	<rect x="172.5" y="153.682" fill="#3C2415" width="7.5" height="7.5"/>
	<rect x="172.5" y="161.182" fill="#754C29" width="7.5" height="7.5"/>
	<rect x="180" y="153.682" fill="#754C29" width="7.5" height="7.5"/>
	<rect x="187.5" y="153.682" fill="#754C29" width="7.5" height="7.5"/>
	<rect x="180" y="146.221" fill="#603913" width="7.5" height="7.5"/>
	<rect x="172.5" y="146.211" fill="#EDD69F" width="7.5" height="7.5"/>
</g>
</svg>
