<?xml version="1.0" encoding="utf-8"?>
<!-- Generator: Adobe Illustrator 16.0.0, SVG Export Plug-In . SVG Version: 6.00 Build 0)  -->
<!DOCTYPE svg PUBLIC "-//W3C//DTD SVG 1.1//EN" "http://www.w3.org/Graphics/SVG/1.1/DTD/svg11.dtd">
<svg version="1.1" id="Layer_1" xmlns="http://www.w3.org/2000/svg" xmlns:xlink="http://www.w3.org/1999/xlink" x="0px" y="0px"
	 width="300px" height="300px" viewBox="0 0 300 300" enable-background="new 0 0 300 300" xml:space="preserve">
<g>
	<rect x="172.5" y="142.539" fill="#EDD69F" width="7.5" height="7.5"/>
	<rect x="172.5" y="135.054" fill="#EDD69F" width="7.5" height="7.5"/>
	<rect x="112.5" y="82.632" fill="#4D301C" width="7.5" height="7.5"/>
	<rect x="112.5" y="75.059" fill="#734A1D" width="7.5" height="7.5"/>
	<rect x="120" y="82.632" fill="#734A1D" width="7.5" height="7.5"/>
	<rect x="127.5" y="82.632" fill="#4D301C" width="7.5" height="7.5"/>
	<rect x="112.5" y="97.617" fill="#4D301C" width="7.5" height="7.5"/>
	<rect x="120" y="97.617" fill="#734A1D" width="7.5" height="7.5"/>
	<rect x="127.5" y="97.617" fill="#4D301C" width="7.5" height="7.5"/>
	<rect x="135" y="97.617" fill="#734A1D" width="7.5" height="7.5"/>
	<rect x="142.5" y="97.617" fill="#CEA980" width="7.5" height="7.5"/>
	<rect x="150" y="97.617" fill="#CEA980" width="7.5" height="7.5"/>
	<rect x="112.5" y="105.117" fill="#EDD69F" width="7.5" height="7.5"/>
	<rect x="120" y="105.117" fill="#EDD69F" width="7.5" height="7.5"/>
	<rect x="127.5" y="105.117" fill="#EDD69F" width="7.5" height="7.5"/>
	<rect x="135" y="105.117" fill="#EDD69F" width="7.5" height="7.5"/>
	<rect x="142.5" y="105.117" fill="#734A1D" width="7.5" height="7.5"/>
	<rect x="150" y="105.117" fill="#4D301C" width="7.5" height="7.5"/>
	<rect x="112.5" y="112.617" fill="#EEE1BF" width="7.5" height="7.5"/>
	<rect x="120" y="112.617" fill="#EEE1BF" width="7.5" height="7.5"/>
	<rect x="112.5" y="120.088" fill="#D5CBAD" width="7.5" height="7.5"/>
	<rect x="120" y="120.088" fill="#D5CBAD" width="7.5" height="7.5"/>
	<rect x="112.5" y="135.039" fill="#EDD69F" width="7.5" height="7.5"/>
	<rect x="120" y="135.039" fill="#4C2F1C" width="7.5" height="7.5"/>
	<rect x="112.5" y="142.554" fill="#EDD69F" width="7.5" height="7.5"/>
	<rect x="120" y="142.554" fill="#EEE1BF" width="7.5" height="7.5"/>
	<rect x="112.5" y="150.039" fill="#2F292B" width="7.5" height="7.5"/>
	<rect x="105" y="142.554" fill="#EDD69F" width="7.5" height="7.5"/>
	<rect x="120" y="150.039" fill="#4D301C" width="7.5" height="7.5"/>
	<rect x="135" y="150.039" fill="#6E5D55" width="7.5" height="7.5"/>
	<rect x="127.5" y="150.039" fill="#6E5D55" width="7.5" height="7.5"/>
	<rect x="142.5" y="150.039" fill="#EBC297" width="7.5" height="7.5"/>
	<rect x="157.5" y="150.039" fill="#B4AC93" width="7.5" height="7.5"/>
	<rect x="150" y="150.039" fill="#EEE1BF" width="7.5" height="7.5"/>
	<rect x="135" y="157.524" fill="#FFFFFF" width="7.5" height="7.5"/>
	<rect x="127.5" y="157.524" fill="#FFFFFF" width="7.5" height="7.5"/>
	<rect x="142.5" y="157.524" fill="#BB807B" width="7.5" height="7.5"/>
	<rect x="150" y="157.524" fill="#EDD69F" width="7.5" height="7.5"/>
	<rect x="135" y="165.01" fill="#D28F8C" width="7.5" height="7.5"/>
	<rect x="127.5" y="165.01" fill="#D28F8C" width="7.5" height="7.5"/>
	<rect x="142.5" y="165.01" fill="#EEE1BF" width="7.5" height="7.5"/>
	<rect x="150" y="165.01" fill="#B4AC93" width="7.5" height="7.5"/>
	<rect x="135" y="172.51" fill="#84796C" width="7.5" height="7.5"/>
	<rect x="127.5" y="172.51" fill="#2F292B" width="7.5" height="7.5"/>
	<rect x="142.5" y="172.51" fill="#84796C" width="7.5" height="7.5"/>
	<rect x="135" y="180.01" fill="#B4AC93" width="7.5" height="7.5"/>
	<rect x="142.5" y="180.01" fill="#EDD69F" width="7.5" height="7.5"/>
	<rect x="150" y="180.01" fill="#EDD69F" width="7.5" height="7.5"/>
	<rect x="135" y="187.471" fill="#EEE1BF" width="7.5" height="7.5"/>
	<rect x="142.5" y="187.471" fill="#EDD69F" width="7.5" height="7.5"/>
	<rect x="150" y="187.471" fill="#EDD69F" width="7.5" height="7.5"/>
	<rect x="150" y="172.51" fill="#84796C" width="7.5" height="7.5"/>
	<rect x="165" y="150.039" fill="#EDD69F" width="7.5" height="7.5"/>
	<rect x="157.5" y="142.554" fill="#4D301C" width="7.5" height="7.5"/>
	<rect x="165" y="142.554" fill="#EDD69F" width="7.5" height="7.5"/>
	<rect x="157.5" y="165.01" fill="#84796C" width="7.5" height="7.5"/>
	<rect x="157.5" y="157.524" fill="#B4AC93" width="7.5" height="7.5"/>
	<rect x="157.5" y="135.039" fill="#4D301C" width="7.5" height="7.5"/>
	<rect x="165" y="135.039" fill="#EEE1BF" width="7.5" height="7.5"/>
	<rect x="157.5" y="120.088" fill="#734A1D" width="7.5" height="7.5"/>
	<rect x="165" y="120.088" fill="#B68D63" width="7.5" height="7.5"/>
	<rect x="127.5" y="112.617" fill="#EEE1BF" width="7.5" height="7.5"/>
	<rect x="135" y="112.617" fill="#EDD69F" width="7.5" height="7.5"/>
	<rect x="142.5" y="112.617" fill="#EDD69F" width="7.5" height="7.5"/>
	<rect x="150" y="112.617" fill="#734A1D" width="7.5" height="7.5"/>
	<rect x="127.5" y="120.088" fill="#EDD69F" width="7.5" height="7.5"/>
	<rect x="135" y="120.088" fill="#EDD69F" width="7.5" height="7.5"/>
	<rect x="142.5" y="120.088" fill="#EDD69F" width="7.5" height="7.5"/>
	<rect x="150" y="120.088" fill="#4D301C" width="7.5" height="7.5"/>
	<rect x="112.5" y="127.554" fill="#EDD69F" width="7.5" height="7.5"/>
	<rect x="120" y="127.554" fill="#84796C" width="7.5" height="7.5"/>
	<rect x="157.5" y="127.554" fill="#4D301C" width="7.5" height="7.5"/>
	<rect x="165" y="127.554" fill="#4D301C" width="7.5" height="7.5"/>
	<rect x="172.5" y="127.554" fill="#734A1D" width="7.5" height="7.5"/>
	<rect x="127.5" y="127.554" fill="#84796C" width="7.5" height="7.5"/>
	<rect x="135" y="127.554" fill="#84796C" width="7.5" height="7.5"/>
	<rect x="142.5" y="127.554" fill="#EDD69F" width="7.5" height="7.5"/>
	<rect x="150" y="127.554" fill="#734A1D" width="7.5" height="7.5"/>
	<rect x="127.5" y="135.039" fill="#FFFFFF" width="7.5" height="7.5"/>
	<rect x="135" y="135.039" fill="#EDD69F" width="7.5" height="7.5"/>
	<rect x="142.5" y="135.039" fill="#EDD69F" width="7.5" height="7.5"/>
	<rect x="150" y="135.039" fill="#EDD69F" width="7.5" height="7.5"/>
	<rect x="127.5" y="142.539" fill="#EDD69F" width="7.5" height="7.5"/>
	<rect x="135" y="142.539" fill="#F0D0B4" width="7.5" height="7.5"/>
	<rect x="142.5" y="142.539" fill="#EEE1BF" width="7.5" height="7.5"/>
	<rect x="150" y="142.539" fill="#EDD69F" width="7.5" height="7.5"/>
	<rect x="157.5" y="97.617" fill="#CEA980" width="7.5" height="7.5"/>
	<rect x="165" y="97.617" fill="#CEA980" width="7.5" height="7.5"/>
	<rect x="112.5" y="90.132" fill="#734A1D" width="7.5" height="7.5"/>
	<rect x="120" y="90.132" fill="#4D301C" width="7.5" height="7.5"/>
	<rect x="127.5" y="90.132" fill="#734A1D" width="7.5" height="7.5"/>
	<rect x="135" y="90.132" fill="#4D301C" width="7.5" height="7.5"/>
	<rect x="142.5" y="90.132" fill="#CEA980" width="7.5" height="7.5"/>
	<rect x="150" y="90.132" fill="#CEA980" width="7.5" height="7.5"/>
	<rect x="157.5" y="90.132" fill="#CEA980" width="7.5" height="7.5"/>
	<rect x="165" y="90.132" fill="#CEA980" width="7.5" height="7.5"/>
	<rect x="172.5" y="97.559" fill="#CEA980" width="7.5" height="7.5"/>
	<rect x="157.5" y="105.117" fill="#4D301C" width="7.5" height="7.5"/>
	<rect x="165" y="105.117" fill="#CEA980" width="7.5" height="7.5"/>
	<rect x="157.5" y="112.617" fill="#4D301C" width="7.5" height="7.5"/>
	<rect x="165" y="112.617" fill="#CEA980" width="7.5" height="7.5"/>
	<rect x="172.5" y="105.117" fill="#CEA980" width="7.5" height="7.5"/>
	<rect x="172.5" y="112.617" fill="#CEA980" width="7.5" height="7.5"/>
	<rect x="172.5" y="120.088" fill="#CEA980" width="7.5" height="7.5"/>
	<rect x="180" y="120.088" fill="#B68D63" width="7.5" height="7.5"/>
	<rect x="180" y="127.554" fill="#CEA980" width="7.5" height="7.5"/>
	<rect x="135" y="194.937" fill="#EDD69F" width="7.5" height="7.5"/>
	<rect x="142.5" y="194.937" fill="#EDD69F" width="7.5" height="7.5"/>
	<rect x="157.5" y="187.437" fill="#42607E" width="7.5" height="7.5"/>
	<rect x="157.5" y="179.937" fill="#42607E" width="7.5" height="7.5"/>
	<rect x="165" y="187.437" fill="#6D808E" width="7.5" height="7.5"/>
	<rect x="165" y="179.937" fill="#42607E" width="7.5" height="7.5"/>
	<rect x="172.5" y="187.437" fill="#6D808E" width="7.5" height="7.5"/>
	<rect x="172.5" y="179.937" fill="#7F95A5" width="7.5" height="7.5"/>
	<rect x="180" y="187.437" fill="#7F95A5" width="7.5" height="7.5"/>
	<rect x="157.5" y="194.937" fill="#42607E" width="7.5" height="7.5"/>
	<rect x="150" y="194.937" fill="#EDD69F" width="7.5" height="7.5"/>
	<rect x="127.5" y="194.937" fill="#42607E" width="7.5" height="7.5"/>
	<rect x="120" y="194.937" fill="#6D808E" width="7.5" height="7.5"/>
	<rect x="127.5" y="187.437" fill="#42607E" width="7.5" height="7.5"/>
	<rect x="120" y="187.437" fill="#6D808E" width="7.5" height="7.5"/>
	<rect x="120" y="179.937" fill="#42607E" width="7.5" height="7.5"/>
	<rect x="127.5" y="179.937" fill="#42607E" width="7.5" height="7.5"/>
	<rect x="112.5" y="187.471" fill="#6D808E" width="7.5" height="7.5"/>
	<rect x="105" y="187.471" fill="#7F95A5" width="7.5" height="7.5"/>
	<rect x="112.48" y="179.99" fill="#7F95A5" width="7.5" height="7.5"/>
	<rect x="165" y="194.937" fill="#6D808E" width="7.5" height="7.5"/>
	<rect x="135" y="209.937" fill="#865F36" width="7.5" height="7.5"/>
	<rect x="142.5" y="209.937" fill="#865F36" width="7.5" height="7.5"/>
	<rect x="157.5" y="209.937" fill="#7F95A5" width="7.5" height="7.5"/>
	<rect x="150" y="209.937" fill="#865F36" width="7.5" height="7.5"/>
	<rect x="127.5" y="209.937" fill="#7F95A5" width="7.5" height="7.5"/>
	<rect x="127.5" y="217.437" fill="#6D808E" width="7.5" height="7.5"/>
	<rect x="120" y="209.937" fill="#6D808E" width="7.5" height="7.5"/>
	<rect x="112.5" y="209.937" fill="#6D808E" width="7.5" height="7.5"/>
	<rect x="165" y="209.937" fill="#6D808E" width="7.5" height="7.5"/>
	<rect x="172.5" y="209.937" fill="#6D808E" width="7.5" height="7.5"/>
	<rect x="180" y="209.937" fill="#6D808E" width="7.5" height="7.5"/>
	<rect x="187.5" y="209.937" fill="#6D808E" width="7.5" height="7.5"/>
	<rect x="135" y="224.937" fill="#865F36" width="7.5" height="7.5"/>
	<rect x="142.5" y="224.937" fill="#D8CBB7" width="7.5" height="7.5"/>
	<rect x="157.5" y="224.937" fill="#7F95A5" width="7.5" height="7.5"/>
	<rect x="150" y="224.937" fill="#2F292B" width="7.5" height="7.5"/>
	<rect x="127.5" y="224.937" fill="#7F95A5" width="7.5" height="7.5"/>
	<rect x="120" y="224.937" fill="#6D808E" width="7.5" height="7.5"/>
	<rect x="112.5" y="224.937" fill="#42607E" width="7.5" height="7.5"/>
	<rect x="165" y="224.937" fill="#6D808E" width="7.5" height="7.5"/>
	<rect x="172.5" y="224.937" fill="#42607E" width="7.5" height="7.5"/>
	<rect x="180" y="224.937" fill="#6D808E" width="7.5" height="7.5"/>
	<rect x="187.5" y="224.937" fill="#9CB6C8" width="7.5" height="7.5"/>
	<rect x="135" y="202.437" fill="#865F36" width="7.5" height="7.5"/>
	<rect x="142.5" y="202.437" fill="#EDD69F" width="7.5" height="7.5"/>
	<rect x="157.5" y="202.437" fill="#7F95A5" width="7.5" height="7.5"/>
	<rect x="150" y="202.437" fill="#865F36" width="7.5" height="7.5"/>
	<rect x="127.5" y="202.437" fill="#7F95A5" width="7.5" height="7.5"/>
	<rect x="120" y="202.437" fill="#6D808E" width="7.5" height="7.5"/>
	<rect x="112.5" y="202.437" fill="#6D808E" width="7.5" height="7.5"/>
	<rect x="165" y="202.437" fill="#6D808E" width="7.5" height="7.5"/>
	<rect x="172.5" y="202.437" fill="#6D808E" width="7.5" height="7.5"/>
	<rect x="180" y="202.437" fill="#6D808E" width="7.5" height="7.5"/>
	<rect x="135" y="217.437" fill="#D8CBB7" width="7.5" height="7.5"/>
	<rect x="142.5" y="217.437" fill="#865F36" width="7.5" height="7.5"/>
	<rect x="157.5" y="217.437" fill="#7F95A5" width="7.5" height="7.5"/>
	<rect x="150" y="217.437" fill="#865F36" width="7.5" height="7.5"/>
	<rect x="127.5" y="217.437" fill="#7F95A5" width="7.5" height="7.5"/>
	<rect x="120" y="217.437" fill="#6D808E" width="7.5" height="7.5"/>
	<rect x="112.5" y="217.437" fill="#42607E" width="7.5" height="7.5"/>
	<rect x="105" y="209.937" fill="#6D808E" width="7.5" height="7.5"/>
	<rect x="105" y="224.937" fill="#6D808E" width="7.5" height="7.5"/>
	<rect x="105" y="217.437" fill="#6D808E" width="7.5" height="7.5"/>
	<rect x="165" y="217.437" fill="#6D808E" width="7.5" height="7.5"/>
	<rect x="172.5" y="217.437" fill="#42607E" width="7.5" height="7.5"/>
	<rect x="180" y="217.437" fill="#6D808E" width="7.5" height="7.5"/>
	<rect x="187.5" y="217.437" fill="#9CB6C8" width="7.5" height="7.5"/>
	<rect x="127.5" y="82.563" fill="#B68D63" width="7.5" height="7.5"/>
	<rect x="127.5" y="75.063" fill="#CEA980" width="7.5" height="7.5"/>
	<rect x="135" y="82.563" fill="#CEA980" width="7.5" height="7.5"/>
	<rect x="142.5" y="82.563" fill="#B68D63" width="7.5" height="7.5"/>
	<rect x="150" y="82.563" fill="#9B724E" width="7.5" height="7.5"/>
	<rect x="142.5" y="97.549" fill="#B68D63" width="7.5" height="7.5"/>
	<rect x="150" y="97.549" fill="#CEA980" width="7.5" height="7.5"/>
	<rect x="157.5" y="97.549" fill="#B68D63" width="7.5" height="7.5"/>
	<rect x="157.5" y="105.049" fill="#CEA980" width="7.5" height="7.5"/>
	<rect x="165" y="97.549" fill="#9B724E" width="7.5" height="7.5"/>
	<rect x="172.5" y="97.549" fill="#CEA980" width="7.5" height="7.5"/>
	<rect x="135" y="90.063" fill="#B68D63" width="7.5" height="7.5"/>
	<rect x="142.5" y="90.063" fill="#CEA980" width="7.5" height="7.5"/>
	<rect x="150" y="90.063" fill="#B68D63" width="7.5" height="7.5"/>
	<rect x="157.5" y="90.063" fill="#9B724E" width="7.5" height="7.5"/>
	<rect x="165" y="90.063" fill="#CEA980" width="7.5" height="7.5"/>
	<rect x="157.5" y="82.563" fill="#CEA980" width="7.5" height="7.5"/>
	<rect x="142.5" y="75.063" fill="#9B724E" width="7.5" height="7.5"/>
	<rect x="135" y="75.063" fill="#B68D63" width="7.5" height="7.5"/>
	<rect x="165" y="82.563" fill="#CEA980" width="7.5" height="7.5"/>
	<rect x="150" y="75.063" fill="#CEA980" width="7.5" height="7.5"/>
	<rect x="157.5" y="75.063" fill="#CEA980" width="7.5" height="7.5"/>
	<rect x="165" y="75.063" fill="#CEA980" width="7.5" height="7.5"/>
	<rect x="150" y="67.563" fill="#CEA980" width="7.5" height="7.5"/>
	<rect x="157.5" y="67.563" fill="#CEA980" width="7.5" height="7.5"/>
	<rect x="165" y="67.563" fill="#CEA980" width="7.5" height="7.5"/>
	<rect x="172.5" y="90.063" fill="#CEA980" width="7.5" height="7.5"/>
	<rect x="180" y="97.549" fill="#CEA980" width="7.5" height="7.5"/>
	<rect x="180" y="90.063" fill="#CEA980" width="7.5" height="7.5"/>
	<rect x="172.5" y="82.563" fill="#CEA980" width="7.5" height="7.5"/>
	<rect x="180" y="82.563" fill="#CEA980" width="7.5" height="7.5"/>
	<rect x="172.5" y="75.063" fill="#CEA980" width="7.5" height="7.5"/>
	<rect x="165" y="105.049" fill="#B68D63" width="7.5" height="7.5"/>
	<rect x="172.5" y="105.049" fill="#9B724E" width="7.5" height="7.5"/>
	<rect x="165" y="112.549" fill="#CEA980" width="7.5" height="7.5"/>
	<rect x="172.5" y="112.549" fill="#B68D63" width="7.5" height="7.5"/>
	<rect x="180" y="105.049" fill="#CEA980" width="7.5" height="7.5"/>
	<rect x="180" y="112.549" fill="#9B724E" width="7.5" height="7.5"/>
</g>
</svg>
