<?xml version="1.0" encoding="utf-8"?>
<!-- Generator: Adobe Illustrator 16.0.0, SVG Export Plug-In . SVG Version: 6.00 Build 0)  -->
<!DOCTYPE svg PUBLIC "-//W3C//DTD SVG 1.1//EN" "http://www.w3.org/Graphics/SVG/1.1/DTD/svg11.dtd">
<svg version="1.1" id="Layer_1" xmlns="http://www.w3.org/2000/svg" xmlns:xlink="http://www.w3.org/1999/xlink" x="0px" y="0px"
	 width="300px" height="300px" viewBox="0 0 300 300" enable-background="new 0 0 300 300" xml:space="preserve">
<g>
	<rect x="141" y="170.965" fill="#FADEE7" width="6" height="6"/>
	<rect x="147" y="170.965" fill="#FADEE7" width="6" height="6"/>
	<rect x="153" y="170.965" fill="#FADEE7" width="6" height="6"/>
	<rect x="153" y="164.965" fill="#FADEE7" width="6" height="6"/>
	<rect x="159" y="170.965" fill="#FADEE7" width="6" height="6"/>
	<rect x="159" y="164.965" fill="#FADEE7" width="6" height="6"/>
	<rect x="159" y="158.973" fill="#F1F1F0" width="6" height="6"/>
	<rect x="165" y="152.988" fill="#F1F1F0" width="6" height="6"/>
	<rect x="165" y="158.973" fill="#FFFFFF" width="6" height="6"/>
	<rect x="141" y="176.934" fill="#FADEE7" width="6" height="6"/>
	<rect x="147" y="176.934" fill="#FADEE7" width="6" height="6"/>
	<rect x="153" y="176.934" fill="#FADEE7" width="6" height="6"/>
	<rect x="159" y="176.941" fill="#FADEE7" width="6" height="6"/>
	<rect x="135" y="176.941" fill="#E75A8D" width="6" height="6"/>
	<rect x="129" y="176.941" fill="#E75A8D" width="6" height="6"/>
	<rect x="165" y="176.941" fill="#E75A8D" width="6" height="6"/>
	<rect x="171" y="176.941" fill="#DE90B5" width="6" height="6"/>
	<rect x="141" y="188.941" fill="#FFFFFF" width="6" height="6"/>
	<rect x="147" y="188.941" fill="#FFFFFF" width="6" height="6"/>
	<rect x="159" y="188.941" fill="#E75A8D" width="6" height="6"/>
	<rect x="153" y="188.941" fill="#FFFFFF" width="6" height="6"/>
	<rect x="135" y="188.941" fill="#DE90B5" width="6" height="6"/>
	<rect x="129" y="188.941" fill="#FFFFFF" width="6" height="6"/>
	<rect x="123" y="188.941" fill="#E75A8D" width="6" height="6"/>
	<rect x="165" y="188.941" fill="#E75A8D" width="6" height="6"/>
	<rect x="171" y="188.941" fill="#FFFFFF" width="6" height="6"/>
	<rect x="177" y="188.941" fill="#DE90B5" width="6" height="6"/>
	<rect x="183" y="188.941" fill="#E75A8D" width="6" height="6"/>
	<rect x="141" y="200.941" fill="#FFFFFF" width="6" height="6"/>
	<rect x="147" y="200.941" fill="#FFFFFF" width="6" height="6"/>
	<rect x="159" y="200.941" fill="#E75A8D" width="6" height="6"/>
	<rect x="153" y="200.941" fill="#FFFFFF" width="6" height="6"/>
	<rect x="135" y="200.941" fill="#E75A8D" width="6" height="6"/>
	<rect x="129" y="200.941" fill="#FFFFFF" width="6" height="6"/>
	<rect x="123" y="200.941" fill="#E75A8D" width="6" height="6"/>
	<rect x="165" y="200.941" fill="#E75A8D" width="6" height="6"/>
	<rect x="171" y="200.941" fill="#FFFFFF" width="6" height="6"/>
	<rect x="177" y="200.941" fill="#DE90B5" width="6" height="6"/>
	<rect x="183" y="200.941" fill="#E75A8D" width="6" height="6"/>
	<rect x="141" y="182.941" fill="#E75A8D" width="6" height="6"/>
	<rect x="147" y="182.941" fill="#FFFFFF" width="6" height="6"/>
	<rect x="159" y="182.941" fill="#E75A8D" width="6" height="6"/>
	<rect x="153" y="182.941" fill="#E75A8D" width="6" height="6"/>
	<rect x="135" y="182.941" fill="#E75A8D" width="6" height="6"/>
	<rect x="129" y="182.941" fill="#E75A8D" width="6" height="6"/>
	<rect x="123" y="182.941" fill="#FFFFFF" width="6" height="6"/>
	<rect x="165" y="182.941" fill="#E75A8D" width="6" height="6"/>
	<rect x="171" y="182.941" fill="#E75A8D" width="6" height="6"/>
	<rect x="177" y="182.941" fill="#FFFFFF" width="6" height="6"/>
	<rect x="183" y="182.941" fill="#E75A8D" width="6" height="6"/>
	<rect x="141" y="194.941" fill="#FFFFFF" width="6" height="6"/>
	<rect x="147" y="194.941" fill="#FFFFFF" width="6" height="6"/>
	<rect x="159" y="194.941" fill="#FFFFFF" width="6" height="6"/>
	<rect x="153" y="194.941" fill="#FFFFFF" width="6" height="6"/>
	<rect x="135" y="194.941" fill="#FFFFFF" width="6" height="6"/>
	<rect x="129" y="194.941" fill="#E75A8D" width="6" height="6"/>
	<rect x="123" y="194.941" fill="#DE90B5" width="6" height="6"/>
	<rect x="117" y="188.941" fill="#E75A8D" width="6" height="6"/>
	<rect x="117" y="200.941" fill="#E75A8D" width="6" height="6"/>
	<rect x="117" y="194.941" fill="#E75A8D" width="6" height="6"/>
	<rect x="165" y="194.941" fill="#FFFFFF" width="6" height="6"/>
	<rect x="171" y="194.941" fill="#DE90B5" width="6" height="6"/>
	<rect x="177" y="194.941" fill="#E75A8D" width="6" height="6"/>
	<rect x="183" y="194.941" fill="#E75A8D" width="6" height="6"/>
	<rect x="129" y="99.059" fill="#E75A8D" width="6" height="6"/>
	<rect x="135" y="99.059" fill="#FFFFFF" width="6" height="6"/>
	<rect x="141" y="99.059" fill="#FFFFFF" width="6" height="6"/>
	<rect x="147" y="99.059" fill="#FFFFFF" width="6" height="6"/>
	<rect x="123" y="111.051" fill="#E75A8D" width="6" height="6"/>
	<rect x="129" y="111.051" fill="#E75A8D" width="6" height="6"/>
	<rect x="135" y="111.051" fill="#DE90B5" width="6" height="6"/>
	<rect x="141" y="111.051" fill="#E75A8D" width="6" height="6"/>
	<rect x="147" y="111.051" fill="#E75A8D" width="6" height="6"/>
	<rect x="153" y="111.051" fill="#E75A8D" width="6" height="6"/>
	<rect x="123" y="117.051" fill="#2F292B" width="6" height="6"/>
	<rect x="129" y="117.051" fill="#2F292B" width="6" height="6"/>
	<rect x="135" y="117.051" fill="#FFFFFF" width="6" height="6"/>
	<rect x="141" y="117.051" fill="#DE90B5" width="6" height="6"/>
	<rect x="147" y="117.051" fill="#E75A8D" width="6" height="6"/>
	<rect x="153" y="117.051" fill="#E75A8D" width="6" height="6"/>
	<rect x="123" y="123.051" fill="#2F292B" width="6" height="6"/>
	<rect x="129" y="123.051" fill="#2F292B" width="6" height="6"/>
	<rect x="123" y="129.027" fill="#2F292B" width="6" height="6"/>
	<rect x="129" y="129.027" fill="#2F292B" width="6" height="6"/>
	<rect x="123" y="140.988" fill="#E75A8D" width="6" height="6"/>
	<rect x="117" y="140.988" fill="#2F292B" width="6" height="6"/>
	<rect x="129" y="140.988" fill="#E75A8D" width="6" height="6"/>
	<rect x="123" y="146.996" fill="#E75A8D" width="6" height="6"/>
	<rect x="129" y="146.996" fill="#E75A8D" width="6" height="6"/>
	<rect x="129" y="152.988" fill="#DADCDC" width="6" height="6"/>
	<rect x="141" y="152.988" fill="#FFFFFF" width="6" height="6"/>
	<rect x="135" y="152.988" fill="#DADCDC" width="6" height="6"/>
	<rect x="147" y="152.988" fill="#FFFFFF" width="6" height="6"/>
	<rect x="159" y="152.988" fill="#FFFFFF" width="6" height="6"/>
	<rect x="153" y="152.988" fill="#FFFFFF" width="6" height="6"/>
	<rect x="141" y="158.973" fill="#FFFFFF" width="6" height="6"/>
	<rect x="135" y="158.973" fill="#DADCDC" width="6" height="6"/>
	<rect x="147" y="158.973" fill="#FFFFFF" width="6" height="6"/>
	<rect x="153" y="158.973" fill="#FFFFFF" width="6" height="6"/>
	<rect x="141" y="164.965" fill="#FFFFFF" width="6" height="6"/>
	<rect x="135" y="164.965" fill="#DADCDC" width="6" height="6"/>
	<rect x="147" y="164.965" fill="#FFFFFF" width="6" height="6"/>
	<rect x="159" y="146.996" fill="#FFFFFF" width="6" height="6"/>
	<rect x="165" y="146.996" fill="#FFFFFF" width="6" height="6"/>
	<rect x="159" y="140.988" fill="#FFFFFF" width="6" height="6"/>
	<rect x="165" y="140.988" fill="#FFFFFF" width="6" height="6"/>
	<rect x="159" y="129.027" fill="#E75A8D" width="6" height="6"/>
	<rect x="165" y="129.027" fill="#FFFFFF" width="6" height="6"/>
	<rect x="171" y="140.988" fill="#FFFFFF" width="6" height="6"/>
	<rect x="171" y="134.996" fill="#FFFFFF" width="6" height="6"/>
	<rect x="135" y="123.051" fill="#2F292B" width="6" height="6"/>
	<rect x="141" y="123.051" fill="#E75A8D" width="6" height="6"/>
	<rect x="147" y="123.051" fill="#E75A8D" width="6" height="6"/>
	<rect x="153" y="123.051" fill="#E75A8D" width="6" height="6"/>
	<rect x="135" y="129.027" fill="#2F292B" width="6" height="6"/>
	<rect x="141" y="129.027" fill="#DE90B5" width="6" height="6"/>
	<rect x="147" y="129.027" fill="#E75A8D" width="6" height="6"/>
	<rect x="153" y="129.027" fill="#E75A8D" width="6" height="6"/>
	<rect x="123" y="134.996" fill="#2F292B" width="6" height="6"/>
	<rect x="117" y="134.996" fill="#2F292B" width="6" height="6"/>
	<rect x="117" y="117.051" fill="#E75A8D" width="6" height="6"/>
	<rect x="117" y="111.051" fill="#E75A8D" width="6" height="6"/>
	<rect x="117" y="105.059" fill="#E75A8D" width="6" height="6"/>
	<rect x="117" y="123.051" fill="#2F292B" width="6" height="6"/>
	<rect x="117" y="129.027" fill="#2F292B" width="6" height="6"/>
	<rect x="111" y="117.051" fill="#E75A8D" width="6" height="6"/>
	<rect x="111" y="111.051" fill="#E75A8D" width="6" height="6"/>
	<rect x="111" y="123.051" fill="#E75A8D" width="6" height="6"/>
	<rect x="111" y="129.027" fill="#E75A8D" width="6" height="6"/>
	<rect x="129" y="134.996" fill="#2F292B" width="6" height="6"/>
	<rect x="159" y="134.996" fill="#FFFFFF" width="6" height="6"/>
	<rect x="165" y="134.996" fill="#FFFFFF" width="6" height="6"/>
	<rect x="135" y="134.996" fill="#E75A8D" width="6" height="6"/>
	<rect x="141" y="134.996" fill="#E75A8D" width="6" height="6"/>
	<rect x="147" y="134.996" fill="#E75A8D" width="6" height="6"/>
	<rect x="153" y="134.996" fill="#FFFFFF" width="6" height="6"/>
	<rect x="135" y="140.988" fill="#E75A8D" width="6" height="6"/>
	<rect x="141" y="140.988" fill="#E75A8D" width="6" height="6"/>
	<rect x="147" y="140.988" fill="#FFFFFF" width="6" height="6"/>
	<rect x="153" y="140.988" fill="#FFFFFF" width="6" height="6"/>
	<rect x="135" y="146.988" fill="#E75A8D" width="6" height="6"/>
	<rect x="141" y="146.988" fill="#FFFFFF" width="6" height="6"/>
	<rect x="147" y="146.988" fill="#FFFFFF" width="6" height="6"/>
	<rect x="153" y="146.988" fill="#FFFFFF" width="6" height="6"/>
	<rect x="159" y="111.051" fill="#E75A8D" width="6" height="6"/>
	<rect x="165" y="111.051" fill="#E75A8D" width="6" height="6"/>
	<rect x="123" y="105.059" fill="#E75A8D" width="6" height="6"/>
	<rect x="123" y="99.059" fill="#E75A8D" width="6" height="6"/>
	<rect x="129" y="105.059" fill="#E75A8D" width="6" height="6"/>
	<rect x="135" y="105.059" fill="#E75A8D" width="6" height="6"/>
	<rect x="141" y="105.059" fill="#E75A8D" width="6" height="6"/>
	<rect x="147" y="105.059" fill="#E75A8D" width="6" height="6"/>
	<rect x="153" y="105.059" fill="#E75A8D" width="6" height="6"/>
	<rect x="159" y="105.059" fill="#E75A8D" width="6" height="6"/>
	<rect x="153" y="99.059" fill="#FFFFFF" width="6" height="6"/>
	<rect x="159" y="99.059" fill="#FFFFFF" width="6" height="6"/>
	<rect x="135" y="93.059" fill="#E75A8D" width="6" height="6"/>
	<rect x="141" y="93.059" fill="#F1F1F0" width="6" height="6"/>
	<rect x="147" y="93.059" fill="#F1F1F0" width="6" height="6"/>
	<rect x="153" y="93.059" fill="#FFFFFF" width="6" height="6"/>
	<rect x="159" y="93.059" fill="#FFFFFF" width="6" height="6"/>
	<rect x="165" y="105.059" fill="#E75A8D" width="6" height="6"/>
	<rect x="165" y="99.059" fill="#FFFFFF" width="6" height="6"/>
	<rect x="165" y="93.059" fill="#FFFFFF" width="6" height="6"/>
	<rect x="171" y="111.051" fill="#E75A8D" width="6" height="6"/>
	<rect x="171" y="105.059" fill="#FFFFFF" width="6" height="6"/>
	<rect x="171" y="99.059" fill="#F1F1F0" width="6" height="6"/>
	<rect x="159" y="117.051" fill="#E75A8D" width="6" height="6"/>
	<rect x="165" y="117.051" fill="#DE90B5" width="6" height="6"/>
	<rect x="159" y="123.051" fill="#E75A8D" width="6" height="6"/>
	<rect x="165" y="123.051" fill="#E75A8D" width="6" height="6"/>
	<rect x="171" y="129.027" fill="#FFFFFF" width="6" height="6"/>
	<rect x="171" y="117.051" fill="#E75A8D" width="6" height="6"/>
	<rect x="177" y="111.051" fill="#E75A8D" width="6" height="6"/>
	<rect x="177" y="117.051" fill="#E75A8D" width="6" height="6"/>
	<rect x="177" y="99.059" fill="#FFFFFF" width="6" height="6"/>
	<rect x="177" y="105.059" fill="#DADBDD" width="6" height="6"/>
	<rect x="183" y="111.051" fill="#E75A8D" width="6" height="6"/>
	<rect x="183" y="117.051" fill="#E75A8D" width="6" height="6"/>
	<rect x="171" y="123.051" fill="#DE90B5" width="6" height="6"/>
	<rect x="177" y="141.012" fill="#FFFFFF" width="6" height="6"/>
	<rect x="177" y="135.035" fill="#F1F1F0" width="6" height="6"/>
	<rect x="177" y="129.043" fill="#FFFFFF" width="6" height="6"/>
	<rect x="177" y="123.043" fill="#FFFFFF" width="6" height="6"/>
	<rect x="183" y="123.043" fill="#DADBDD" width="6" height="6"/>
	<rect x="183" y="129.027" fill="#DADBDD" width="6" height="6"/>
	<rect x="183" y="135.035" fill="#FFFFFF" width="6" height="6"/>
	<rect x="171" y="146.996" fill="#FFFFFF" width="6" height="6"/>
	<rect x="177" y="146.996" fill="#FFFFFF" width="6" height="6"/>
</g>
</svg>
