<?xml version="1.0" encoding="utf-8"?>
<!-- Generator: Adobe Illustrator 16.0.0, SVG Export Plug-In . SVG Version: 6.00 Build 0)  -->
<!DOCTYPE svg PUBLIC "-//W3C//DTD SVG 1.1//EN" "http://www.w3.org/Graphics/SVG/1.1/DTD/svg11.dtd">
<svg version="1.1" id="Layer_1" xmlns="http://www.w3.org/2000/svg" xmlns:xlink="http://www.w3.org/1999/xlink" x="0px" y="0px"
	 width="300px" height="300px" viewBox="0 0 300 300" enable-background="new 0 0 300 300" xml:space="preserve">
<g>
	<rect x="111" y="135.047" fill="#EFC8A6" width="6" height="6"/>
	<rect x="105" y="135.047" fill="#F7E0CF" width="6" height="6"/>
	<rect x="111" y="129.047" fill="#EFC8A6" width="6" height="6"/>
	<rect x="135" y="194.969" fill="#EFC8A6" width="6" height="6"/>
	<rect x="141" y="194.969" fill="#EFC8A6" width="6" height="6"/>
	<rect x="153" y="194.969" fill="#603913" width="6" height="6"/>
	<rect x="147" y="194.969" fill="#EFC8A6" width="6" height="6"/>
	<rect x="129" y="194.969" fill="#231F20" width="6" height="6"/>
	<rect x="123" y="194.969" fill="#3C2415" width="6" height="6"/>
	<rect x="117" y="194.969" fill="#231F20" width="6" height="6"/>
	<rect x="159" y="194.969" fill="#231F20" width="6" height="6"/>
	<rect x="165" y="194.969" fill="#231F20" width="6" height="6"/>
	<rect x="177" y="194.969" fill="#323133" width="6" height="6"/>
	<rect x="183" y="194.969" fill="#323133" width="6" height="6"/>
	<rect x="135" y="206.969" fill="#323133" width="6" height="6"/>
	<rect x="141" y="206.969" fill="#323133" width="6" height="6"/>
	<rect x="153" y="206.969" fill="#323133" width="6" height="6"/>
	<rect x="147" y="206.969" fill="#323133" width="6" height="6"/>
	<rect x="129" y="206.969" fill="#323133" width="6" height="6"/>
	<rect x="123" y="206.969" fill="#323133" width="6" height="6"/>
	<rect x="117" y="206.969" fill="#231F20" width="6" height="6"/>
	<rect x="159" y="206.969" fill="#323133" width="6" height="6"/>
	<rect x="165" y="206.969" fill="#323133" width="6" height="6"/>
	<rect x="177" y="206.969" fill="#323133" width="6" height="6"/>
	<rect x="183" y="206.969" fill="#323133" width="6" height="6"/>
	<rect x="135" y="188.969" fill="#EFC8A6" width="6" height="6"/>
	<rect x="141" y="188.969" fill="#E5AC81" width="6" height="6"/>
	<rect x="153" y="188.969" fill="#3C2415" width="6" height="6"/>
	<rect x="147" y="188.977" fill="#EFC8A6" width="6" height="6"/>
	<rect x="141" y="182.969" fill="#EFC8A6" width="6" height="6"/>
	<rect x="147" y="182.773" fill="#231F20" width="6" height="6"/>
	<rect x="129" y="188.969" fill="#EFC8A6" width="6" height="6"/>
	<rect x="117" y="188.969" fill="#6E3E31" width="6" height="6"/>
	<rect x="159" y="188.969" fill="#42607E" width="6" height="6"/>
	<rect x="165" y="188.969" fill="#3C2415" width="6" height="6"/>
	<rect x="177" y="188.969" fill="#323133" width="6" height="6"/>
	<rect x="183" y="188.969" fill="#323133" width="6" height="6"/>
	<rect x="117" y="183.023" fill="#231F20" width="6" height="6"/>
	<rect x="135" y="200.969" fill="#231F20" width="6" height="6"/>
	<rect x="141" y="200.969" fill="#EFC8A6" width="6" height="6"/>
	<rect x="153" y="200.969" fill="#231F20" width="6" height="6"/>
	<rect x="147" y="200.969" fill="#231F20" width="6" height="6"/>
	<rect x="129" y="200.969" fill="#323133" width="6" height="6"/>
	<rect x="123" y="200.969" fill="#323133" width="6" height="6"/>
	<rect x="117" y="200.969" fill="#323133" width="6" height="6"/>
	<rect x="111" y="194.969" fill="#323133" width="6" height="6"/>
	<rect x="111" y="206.969" fill="#323133" width="6" height="6"/>
	<rect x="111" y="188.969" fill="#323133" width="6" height="6"/>
	<rect x="111" y="200.969" fill="#323133" width="6" height="6"/>
	<rect x="105" y="194.969" fill="#323133" width="6" height="6"/>
	<rect x="105" y="206.969" fill="#323133" width="6" height="6"/>
	<rect x="105" y="200.969" fill="#323133" width="6" height="6"/>
	<rect x="159" y="200.969" fill="#8B5E3C" width="6" height="6"/>
	<rect x="165" y="200.969" fill="#323133" width="6" height="6"/>
	<rect x="177" y="200.969" fill="#323133" width="6" height="6"/>
	<rect x="183" y="200.969" fill="#323133" width="6" height="6"/>
	<rect x="189" y="194.969" fill="#323133" width="6" height="6"/>
	<rect x="189" y="206.969" fill="#323133" width="6" height="6"/>
	<rect x="189" y="200.969" fill="#323133" width="6" height="6"/>
	<rect x="117" y="105.031" fill="#EFC8A6" width="6" height="6"/>
	<rect x="123" y="105.031" fill="#EFC8A6" width="6" height="6"/>
	<rect x="129" y="105.031" fill="#EFC8A6" width="6" height="6"/>
	<rect x="135" y="105.031" fill="#EFC8A6" width="6" height="6"/>
	<rect x="141" y="105.031" fill="#8B5E3C" width="6" height="6"/>
	<rect x="117" y="111.031" fill="#EFC8A6" width="6" height="6"/>
	<rect x="123" y="111.031" fill="#F7E0CF" width="6" height="6"/>
	<rect x="129" y="111.031" fill="#EFCFC0" width="6" height="6"/>
	<rect x="135" y="111.031" fill="#EFC8A6" width="6" height="6"/>
	<rect x="141" y="111.031" fill="#3C2415" width="6" height="6"/>
	<rect x="117" y="117.031" fill="#EFC8A6" width="6" height="6"/>
	<rect x="117" y="123.008" fill="#F7E0CF" width="6" height="6"/>
	<rect x="117" y="129" fill="#F7E0CF" width="6" height="6"/>
	<rect x="117" y="135.008" fill="#EFC8A6" width="6" height="6"/>
	<rect x="117" y="141" fill="#EFCFC0" width="6" height="6"/>
	<rect x="129" y="141" fill="#EFC8A6" width="6" height="6"/>
	<rect x="123" y="141" fill="#EFCFC0" width="6" height="6"/>
	<rect x="135" y="141" fill="#E3A193" width="6" height="6"/>
	<rect x="147" y="141" fill="#EFC8A6" width="6" height="6"/>
	<rect x="141" y="141" fill="#E5B29B" width="6" height="6"/>
	<rect x="129" y="146.984" fill="#FFFFFF" width="6" height="6"/>
	<rect x="123" y="146.984" fill="#FFFFFF" width="6" height="6"/>
	<rect x="135" y="146.984" fill="#AD6A6D" width="6" height="6"/>
	<rect x="141" y="146.984" fill="#E5AC81" width="6" height="6"/>
	<rect x="129" y="152.977" fill="#AD6A6D" width="6" height="5.992"/>
	<rect x="123" y="152.977" fill="#AD6A6D" width="6" height="5.992"/>
	<rect x="135" y="152.977" fill="#EFC8A6" width="6" height="5.992"/>
	<rect x="141" y="152.977" fill="#EFC8A6" width="6" height="5.992"/>
	<rect x="129" y="158.969" fill="#E5B29B" width="6" height="6"/>
	<rect x="123" y="158.969" fill="#E5B29B" width="6" height="6"/>
	<rect x="135" y="158.969" fill="#EFC8A6" width="6" height="6"/>
	<rect x="129" y="164.969" fill="#EFC8A6" width="6" height="6"/>
	<rect x="135" y="164.969" fill="#EFC8A6" width="6" height="6"/>
	<rect x="135" y="170.969" fill="#E5AC81" width="6" height="6"/>
	<rect x="141" y="164.969" fill="#E5AC81" width="6" height="6"/>
	<rect x="141" y="158.969" fill="#EFC8A6" width="6" height="6"/>
	<rect x="147" y="158.969" fill="#EFC8A6" width="6" height="6"/>
	<rect x="141" y="170.969" fill="#FFFFFF" width="6" height="6"/>
	<rect x="153" y="170.969" fill="#231F20" width="6" height="6"/>
	<rect x="147" y="170.969" fill="#3C2415" width="6" height="6"/>
	<rect x="141" y="170.969" fill="#EFC8A6" width="6" height="6"/>
	<rect x="141" y="176.969" fill="#EFC8A6" width="6" height="6"/>
	<rect x="147" y="176.969" fill="#3C2415" width="6" height="6"/>
	<rect x="159" y="170.969" fill="#231F20" width="6" height="6"/>
	<rect x="135" y="176.969" fill="#EFC8A6" width="6" height="6"/>
	<rect x="153" y="176.969" fill="#231F20" width="6" height="6"/>
	<rect x="153" y="182.969" fill="#3C2415" width="6" height="6"/>
	<rect x="135" y="182.969" fill="#E5AC81" width="6" height="6"/>
	<rect x="153" y="141" fill="#3C2415" width="6" height="6"/>
	<rect x="147" y="135.008" fill="#EFC8A6" width="6" height="6"/>
	<rect x="153" y="135.008" fill="#5F3529" width="6" height="6"/>
	<rect x="147" y="152.977" fill="#603913" width="6" height="5.992"/>
	<rect x="153" y="152.977" fill="#3C2415" width="6" height="5.992"/>
	<rect x="147" y="146.984" fill="#603913" width="6" height="6"/>
	<rect x="153" y="146.984" fill="#3C2415" width="6" height="6"/>
	<rect x="147" y="129" fill="#EFC8A6" width="6" height="6"/>
	<rect x="153" y="129" fill="#3C2415" width="6" height="6"/>
	<rect x="147" y="123.008" fill="#3C2415" width="6" height="6"/>
	<rect x="153" y="123.008" fill="#8B5E3C" width="6" height="6"/>
	<rect x="159" y="129" fill="#8B5E3C" width="6" height="6"/>
	<rect x="159" y="123.008" fill="#6E3E31" width="6" height="6"/>
	<rect x="123" y="117.023" fill="#726658" width="6" height="6"/>
	<rect x="129" y="117.023" fill="#726658" width="6" height="6"/>
	<rect x="135" y="117.008" fill="#EFCFC0" width="6" height="6"/>
	<rect x="141" y="117.031" fill="#EFC8A6" width="6" height="6"/>
	<rect x="123" y="123.008" fill="#EFCFC0" width="6" height="6"/>
	<rect x="129" y="123.008" fill="#EFCFC0" width="6" height="6"/>
	<rect x="135" y="123" fill="#726658" width="6" height="6"/>
	<rect x="141" y="122.984" fill="#EFC8A6" width="6" height="6"/>
	<rect x="123" y="129" fill="#7F95A5" width="6" height="6"/>
	<rect x="129" y="129" fill="#FFFFFF" width="6" height="6"/>
	<rect x="123" y="135" fill="#C8B19B" width="6" height="6"/>
	<rect x="129" y="135" fill="#E3A193" width="6" height="6"/>
	<rect x="135" y="129" fill="#EFC8A6" width="6" height="6"/>
	<rect x="141" y="129" fill="#EFC8A6" width="6" height="6"/>
	<rect x="135" y="135" fill="#E5B29B" width="6" height="6"/>
	<rect x="141" y="135" fill="#EFC8A6" width="6" height="6"/>
	<rect x="147" y="105.031" fill="#6E3E31" width="6" height="6"/>
	<rect x="153" y="105.031" fill="#8B5E3C" width="6" height="6"/>
	<rect x="147" y="93.047" fill="#603913" width="6" height="6"/>
	<rect x="153" y="93.047" fill="#3C2415" width="6" height="6"/>
	<rect x="153" y="99.047" fill="#603913" width="6" height="6"/>
	<rect x="159" y="99.047" fill="#3C2415" width="6" height="6"/>
	<rect x="159" y="93.047" fill="#3C2415" width="6" height="6"/>
	<rect x="117" y="99.047" fill="#8B5E3C" width="6" height="6"/>
	<rect x="117" y="93.047" fill="#3C2415" width="6" height="6"/>
	<rect x="123" y="87.031" fill="#3C2415" width="6" height="6"/>
	<rect x="123" y="99.047" fill="#3C2415" width="6" height="6"/>
	<rect x="129" y="99.047" fill="#3C2415" width="6" height="6"/>
	<rect x="135" y="99.047" fill="#3C2415" width="6" height="6"/>
	<rect x="141" y="99.047" fill="#8B5E3C" width="6" height="6"/>
	<rect x="123" y="93.047" fill="#8B5E3C" width="6" height="6"/>
	<rect x="129" y="93.047" fill="#8B5E3C" width="6" height="6"/>
	<rect x="135" y="93.047" fill="#8B5E3C" width="6" height="6"/>
	<rect x="141" y="93.047" fill="#3C2415" width="6" height="6"/>
	<rect x="129" y="87.031" fill="#5F3529" width="6" height="6"/>
	<rect x="135" y="87.031" fill="#8B5E3C" width="6" height="6"/>
	<rect x="141" y="87.031" fill="#603913" width="6" height="6"/>
	<rect x="147" y="87.031" fill="#3C2415" width="6" height="6"/>
	<rect x="147" y="99.047" fill="#8B5E3C" width="6" height="6"/>
	<rect x="147" y="111.031" fill="#8B5E3C" width="6" height="6"/>
	<rect x="147" y="123.008" fill="#3C2415" width="6" height="6"/>
	<rect x="147" y="129" fill="#EFC8A6" width="6" height="6"/>
	<rect x="153" y="111.031" fill="#3C2415" width="6" height="6"/>
	<rect x="159" y="111.031" fill="#8B5E3C" width="6" height="6"/>
	<rect x="159" y="105.031" fill="#603913" width="6" height="6"/>
	<rect x="165" y="105.031" fill="#3C2415" width="6" height="6"/>
	<rect x="165" y="98.992" fill="#3C2415" width="6" height="6"/>
	<rect x="159" y="117.031" fill="#8B5E3C" width="6" height="6"/>
	<rect x="165" y="117.031" fill="#3C2415" width="6" height="6"/>
	<rect x="165" y="111.031" fill="#6E3E31" width="6" height="6"/>
	<rect x="165" y="123.031" fill="#3C2415" width="6" height="6"/>
	<rect x="165" y="129" fill="#6E3E31" width="6" height="6"/>
	<rect x="165" y="141.008" fill="#3C2415" width="6" height="6"/>
	<rect x="165" y="135.008" fill="#3C2415" width="6" height="6"/>
	<rect x="165" y="147.008" fill="#8B5E3C" width="6" height="6"/>
	<rect x="171" y="123.031" fill="#6E3E31" width="6" height="6"/>
	<rect x="171" y="129" fill="#3C2415" width="6" height="6"/>
	<rect x="171" y="135.008" fill="#3C2415" width="6" height="6"/>
	<rect x="171" y="141.008" fill="#6E3E31" width="6" height="6"/>
	<rect x="171" y="147.008" fill="#3C2415" width="6" height="6"/>
	<rect x="159" y="141.008" fill="#8B5E3C" width="6" height="6"/>
	<rect x="159" y="135.008" fill="#8B5E3C" width="6" height="6"/>
	<rect x="159" y="147.008" fill="#3C2415" width="6" height="6"/>
	<rect x="165" y="152.977" fill="#3C2415" width="6" height="5.992"/>
	<rect x="171" y="152.977" fill="#8B5E3C" width="6" height="5.992"/>
	<rect x="159" y="152.977" fill="#5F3529" width="6" height="5.992"/>
	<rect x="165" y="158.969" fill="#5F3529" width="6" height="6"/>
	<rect x="171" y="158.969" fill="#8B5E3C" width="6" height="6"/>
	<rect x="159" y="176.969" fill="#3C2415" width="6" height="6"/>
	<rect x="159" y="182.969" fill="#6E3E31" width="6" height="6"/>
	<rect x="159" y="188.969" fill="#EFC8A6" width="6" height="6"/>
	<rect x="165" y="170.969" fill="#8B5E3C" width="6" height="6"/>
	<rect x="171" y="164.969" fill="#3C2415" width="6" height="6"/>
	<rect x="165" y="176.969" fill="#3C2415" width="6" height="6"/>
	<rect x="171" y="170.969" fill="#5F3529" width="6" height="6"/>
	<rect x="171" y="176.969" fill="#8B5E3C" width="6" height="6"/>
	<rect x="177" y="147.008" fill="#3C2415" width="6" height="6"/>
	<rect x="177" y="152.977" fill="#6E3E31" width="6" height="5.992"/>
	<rect x="177" y="158.969" fill="#3C2415" width="6" height="6"/>
	<rect x="177" y="164.93" fill="#3C2415" width="6" height="6"/>
	<rect x="177" y="182.969" fill="#6E3E31" width="6" height="6"/>
	<rect x="171" y="194.969" fill="#323133" width="6" height="6"/>
	<rect x="171" y="206.969" fill="#231F20" width="6" height="6"/>
	<rect x="171" y="188.969" fill="#231F20" width="6" height="6"/>
	<rect x="171" y="200.969" fill="#323133" width="6" height="6"/>
	<rect x="171" y="182.969" fill="#231F20" width="6" height="6"/>
	<rect x="165" y="182.969" fill="#EFC8A6" width="6" height="6"/>
	<rect x="129" y="170.969" fill="#3C2415" width="6" height="6"/>
	<rect x="129" y="176.969" fill="#3C2415" width="6" height="6"/>
	<rect x="123" y="182.969" fill="#3C2415" width="6" height="6"/>
	<rect x="123" y="176.969" fill="#603913" width="6" height="6"/>
	<rect x="129" y="182.969" fill="#603913" width="6" height="6"/>
	<rect x="123" y="188.969" fill="#3C2415" width="6" height="6"/>
	<rect x="159" y="158.969" fill="#231F20" width="6" height="6"/>
	<rect x="165" y="164.969" fill="#231F20" width="6" height="6"/>
	<rect x="159" y="164.969" fill="#231F20" width="6" height="6"/>
	<rect x="153" y="158.969" fill="#231F20" width="6" height="6"/>
	<rect x="153" y="164.969" fill="#603913" width="6" height="6"/>
	<rect x="147" y="164.969" fill="#3C2415" width="6" height="6"/>
	<rect x="159" y="170.969" fill="#231F20" width="6" height="6"/>
	<rect x="147" y="117.031" fill="#8B5E3C" width="6" height="6"/>
	<rect x="153" y="117.031" fill="#6E3E31" width="6" height="6"/>
</g>
</svg>
