<?xml version="1.0" encoding="utf-8"?>
<!-- Generator: Adobe Illustrator 15.0.2, SVG Export Plug-In . SVG Version: 6.00 Build 0)  -->
<!DOCTYPE svg PUBLIC "-//W3C//DTD SVG 1.1//EN" "http://www.w3.org/Graphics/SVG/1.1/DTD/svg11.dtd">
<svg version="1.1" id="Layer_1" xmlns="http://www.w3.org/2000/svg" xmlns:xlink="http://www.w3.org/1999/xlink" x="0px" y="0px"
	 width="22.5px" height="28.484px" viewBox="0 0 22.5 28.484" enable-background="new 0 0 22.5 28.484" xml:space="preserve">
<g>
	<rect x="6" fill="#A97C50" width="1.5" height="1.5"/>
	<rect x="7.5" fill="#3C2415" width="1.5" height="1.5"/>
	<rect x="9" fill="#754C29" width="1.5" height="1.5"/>
	<rect x="10.5" fill="#A97C50" width="1.5" height="1.5"/>
	<rect x="4.5" y="2.997" fill="#A97C50" width="1.5" height="1.5"/>
	<rect x="6" y="2.997" fill="#754C29" width="1.5" height="1.5"/>
	<rect x="7.5" y="2.997" fill="#A97C50" width="1.5" height="1.5"/>
	<rect x="9" y="2.997" fill="#A97C50" width="1.5" height="1.5"/>
	<rect x="10.5" y="2.997" fill="#A97C50" width="1.5" height="1.5"/>
	<rect x="12" y="2.997" fill="#E8CD8D" width="1.5" height="1.5"/>
	<rect x="4.5" y="4.497" fill="#754C29" width="1.5" height="1.5"/>
	<rect x="3" y="4.497" fill="#754C29" width="1.5" height="1.5"/>
	<rect x="3" y="5.997" fill="#A97C50" width="1.5" height="1.5"/>
	<rect x="3" y="7.497" fill="#603913" width="1.5" height="1.5"/>
	<rect x="1.5" y="4.497" fill="#A97C50" width="1.5" height="1.5"/>
	<rect x="1.5" y="5.997" fill="#754C29" width="1.5" height="1.5"/>
	<rect y="5.997" fill="#A97C50" width="1.5" height="1.5"/>
	<rect x="3" y="2.997" fill="#C49A6C" width="1.5" height="1.5"/>
	<rect x="6" y="4.497" fill="#8B5E3C" width="1.5" height="1.5"/>
	<rect x="7.5" y="4.497" fill="#3C2415" width="1.5" height="1.5"/>
	<rect x="9" y="4.497" fill="#8B5E3C" width="1.5" height="1.5"/>
	<rect x="10.5" y="4.497" fill="#E8CD8D" width="1.5" height="1.5"/>
	<rect x="12" y="4.497" fill="#E8CD8D" width="1.5" height="1.5"/>
	<rect x="4.5" y="5.997" fill="#8B5E3C" width="1.5" height="1.5"/>
	<rect x="6" y="5.997" fill="#3C2415" width="1.5" height="1.5"/>
	<rect x="4.5" y="8.99" fill="#E8CD8D" width="1.5" height="1.5"/>
	<rect x="6" y="8.99" fill="#E8CD8D" width="1.5" height="1.5"/>
	<rect x="4.5" y="10.487" fill="#E8CD8D" width="1.5" height="1.5"/>
	<rect x="6" y="10.487" fill="#1C75BC" width="1.5" height="1.5"/>
	<rect x="4.5" y="11.99" fill="#E8CD8D" width="1.5" height="1.5"/>
	<rect x="6" y="11.99" fill="#E8CD8D" width="1.5" height="1.5"/>
	<rect x="4.5" y="13.487" fill="#E8CD8D" width="1.5" height="1.5"/>
	<rect x="3" y="11.987" fill="#E8CD8D" width="1.5" height="1.5"/>
	<rect x="1.5" y="11.987" fill="#E8CD8D" width="1.5" height="1.5"/>
	<rect x="3" y="10.487" fill="#E8CD8D" width="1.5" height="1.5"/>
	<rect x="6" y="13.487" fill="#E8CD8D" width="1.5" height="1.5"/>
	<rect x="6" y="14.984" fill="#C2B59B" width="1.5" height="1.5"/>
	<rect x="4.5" y="14.984" fill="#C2B59B" width="1.5" height="1.5"/>
	<rect x="9" y="13.487" fill="#E8CD8D" width="1.5" height="1.5"/>
	<rect x="7.5" y="13.487" fill="#E8CD8D" width="1.5" height="1.5"/>
	<rect x="10.5" y="13.487" fill="#E8CD8D" width="1.5" height="1.5"/>
	<rect x="13.5" y="13.487" fill="#E8CD8D" width="1.5" height="1.5"/>
	<rect x="12" y="13.487" fill="#E8CD8D" width="1.5" height="1.5"/>
	<rect x="9" y="14.984" fill="#C2B59B" width="1.5" height="1.5"/>
	<rect x="7.5" y="14.984" fill="#C2B59B" width="1.5" height="1.5"/>
	<rect x="10.5" y="14.984" fill="#C2B59B" width="1.5" height="1.5"/>
	<rect x="12" y="14.984" fill="#C2B59B" width="1.5" height="1.5"/>
	<rect x="9" y="16.481" fill="#BE1E2D" width="1.5" height="1.5"/>
	<rect x="7.5" y="16.481" fill="#BE1E2D" width="1.5" height="1.5"/>
	<rect x="10.5" y="16.481" fill="#BE1E2D" width="1.5" height="1.5"/>
	<rect x="12" y="16.481" fill="#C2B59B" width="1.5" height="1.5"/>
	<rect x="9" y="17.981" fill="#E8CD8D" width="1.5" height="1.5"/>
	<rect x="7.5" y="17.981" fill="#E8CD8D" width="1.5" height="1.5"/>
	<rect x="7.5" y="19.481" fill="#E8CD8D" width="1.5" height="1.5"/>
	<rect x="10.5" y="17.981" fill="#E8CD8D" width="1.5" height="1.5"/>
	<rect x="9" y="19.481" fill="#E8CD8D" width="1.5" height="1.5"/>
	<rect x="10.5" y="19.481" fill="#C2B59B" width="1.5" height="1.5"/>
	<rect x="12" y="19.481" fill="#E8CD8D" width="1.5" height="1.5"/>
	<rect x="12" y="17.981" fill="#E8CD8D" width="1.5" height="1.5"/>
	<rect x="13.5" y="17.981" fill="#E8CD8D" width="1.5" height="1.5"/>
	<rect x="15" y="13.487" fill="#3C2415" width="1.5" height="1.5"/>
	<rect x="13.5" y="11.99" fill="#C49A6C" width="1.5" height="1.5"/>
	<rect x="13.5" y="13.49" fill="#8B5E3C" width="1.5" height="1.5"/>
	<rect x="15" y="11.99" fill="#3C2415" width="1.5" height="1.5"/>
	<rect x="13.5" y="16.481" fill="#E8CD8D" width="1.5" height="1.5"/>
	<rect x="15" y="16.481" fill="#E8CD8D" width="1.5" height="1.5"/>
	<rect x="13.5" y="14.984" fill="#E8CD8D" width="1.5" height="1.5"/>
	<rect x="15" y="14.984" fill="#E8CD8D" width="1.5" height="1.5"/>
	<rect x="13.5" y="10.487" fill="#603913" width="1.5" height="1.5"/>
	<rect x="15" y="10.487" fill="#8B5E3C" width="1.5" height="1.5"/>
	<rect x="13.5" y="8.99" fill="#603913" width="1.5" height="1.5"/>
	<rect x="15" y="8.99" fill="#603913" width="1.5" height="1.5"/>
	<rect x="16.5" y="10.487" fill="#8B5E3C" width="1.5" height="1.5"/>
	<rect x="16.5" y="8.99" fill="#8B5E3C" width="1.5" height="1.5"/>
	<rect x="7.5" y="5.997" fill="#8B5E3C" width="1.5" height="1.5"/>
	<rect x="9" y="5.997" fill="#E8CD8D" width="1.5" height="1.5"/>
	<rect x="10.5" y="5.997" fill="#E8CD8D" width="1.5" height="1.5"/>
	<rect x="9" y="7.497" fill="#E8CD8D" width="1.5" height="1.5"/>
	<rect x="10.5" y="7.497" fill="#E8CD8D" width="1.5" height="1.5"/>
	<rect x="6" y="7.497" fill="#C49A6C" width="1.5" height="1.5"/>
	<rect x="4.5" y="7.497" fill="#E8CD8D" width="1.5" height="1.5"/>
	<rect x="7.5" y="7.497" fill="#C49A6C" width="1.5" height="1.5"/>
	<rect x="12" y="5.997" fill="#9B8579" width="1.5" height="1.5"/>
	<rect x="7.5" y="8.99" fill="#E8CD8D" width="1.5" height="1.5"/>
	<rect x="9" y="8.99" fill="#C49A6C" width="1.5" height="1.5"/>
	<rect x="10.5" y="8.99" fill="#E8CD8D" width="1.5" height="1.5"/>
	<rect x="12" y="8.99" fill="#8B5E3C" width="1.5" height="1.5"/>
	<rect x="12" y="7.497" fill="#8B5E3C" width="1.5" height="1.5"/>
	<rect x="7.5" y="10.487" fill="#FFFFFF" width="1.5" height="1.5"/>
	<rect x="9" y="10.487" fill="#E8CD8D" width="1.5" height="1.5"/>
	<rect x="10.5" y="10.487" fill="#E8CD8D" width="1.5" height="1.5"/>
	<rect x="12" y="10.487" fill="#E8CD8D" width="1.5" height="1.5"/>
	<rect x="7.5" y="11.987" fill="#E8CD8D" width="1.5" height="1.5"/>
	<rect x="9" y="11.987" fill="#E8CD8D" width="1.5" height="1.5"/>
	<rect x="10.5" y="11.987" fill="#E8CD8D" width="1.5" height="1.5"/>
	<rect x="12" y="11.987" fill="#E8CD8D" width="1.5" height="1.5"/>
	<rect x="13.5" y="2.997" fill="#603913" width="1.5" height="1.5"/>
	<rect x="15" y="2.997" fill="#603913" width="1.5" height="1.5"/>
	<rect x="4.5" y="1.5" fill="#C49A6C" width="1.5" height="1.5"/>
	<rect x="6" y="1.5" fill="#A97C50" width="1.5" height="1.5"/>
	<rect x="7.5" y="1.5" fill="#754C29" width="1.5" height="1.5"/>
	<rect x="9" y="1.5" fill="#A97C50" width="1.5" height="1.5"/>
	<rect x="10.5" y="1.5" fill="#A97C50" width="1.5" height="1.5"/>
	<rect x="12" y="1.5" fill="#3C2415" width="1.5" height="1.5"/>
	<rect x="13.5" y="1.5" fill="#A97C50" width="1.5" height="1.5"/>
	<rect x="12" fill="#603913" width="1.5" height="1.5"/>
	<rect x="15" y="1.5" fill="#603913" width="1.5" height="1.5"/>
	<rect x="13.5" y="4.497" fill="#603913" width="1.5" height="1.5"/>
	<rect x="15" y="4.497" fill="#3C2415" width="1.5" height="1.5"/>
	<rect x="13.5" y="5.997" fill="#3C2415" width="1.5" height="1.5"/>
	<rect x="15" y="5.997" fill="#A97C50" width="1.5" height="1.5"/>
	<rect x="16.5" y="2.997" fill="#603913" width="1.5" height="1.5"/>
	<rect x="16.5" y="1.5" fill="#603913" width="1.5" height="1.5"/>
	<rect x="16.5" y="4.497" fill="#3C2415" width="1.5" height="1.5"/>
	<rect x="16.5" y="5.997" fill="#603913" width="1.5" height="1.5"/>
	<rect x="18" y="2.997" fill="#603913" width="1.5" height="1.5"/>
	<rect x="18" y="4.497" fill="#3C2415" width="1.5" height="1.5"/>
	<rect x="18" y="5.997" fill="#603913" width="1.5" height="1.5"/>
	<rect x="13.5" y="7.497" fill="#3C2415" width="1.5" height="1.5"/>
	<rect x="15" y="7.497" fill="#603913" width="1.5" height="1.5"/>
	<rect x="16.5" y="7.497" fill="#603913" width="1.5" height="1.5"/>
	<rect x="18" y="7.497" fill="#A97C50" width="1.5" height="1.5"/>
	<rect x="18" y="8.99" fill="#603913" width="1.5" height="1.5"/>
	<rect x="18" y="10.49" fill="#3C2415" width="1.5" height="1.5"/>
	<rect x="18" y="11.99" fill="#A97C50" width="1.5" height="1.5"/>
	<rect x="16.5" y="11.99" fill="#603913" width="1.5" height="1.5"/>
	<rect x="16.5" y="13.49" fill="#3C2415" width="1.5" height="1.5"/>
	<rect x="16.5" y="14.99" fill="#603913" width="1.5" height="1.5"/>
	<rect x="18" y="13.49" fill="#3C2415" width="1.5" height="1.5"/>
	<rect x="19.5" y="14.99" fill="#3C2415" width="1.5" height="1.5"/>
	<rect x="19.5" y="16.484" fill="#3C2415" width="1.5" height="1.5"/>
	<rect x="21" y="16.484" fill="#3C2415" width="1.5" height="1.5"/>
	<rect x="19.5" y="11.993" fill="#3C2415" width="1.5" height="1.5"/>
	<rect x="19.5" y="5.805" fill="#3C2415" width="1.5" height="1.5"/>
	<rect x="19.5" y="7.305" fill="#3C2415" width="1.5" height="1.5"/>
	<rect x="19.5" y="8.821" fill="#3C2415" width="1.5" height="1.5"/>
	<rect x="18" y="14.99" fill="#A97C50" width="1.5" height="1.5"/>
	<rect x="16.5" y="16.481" fill="#603913" width="1.5" height="1.5"/>
	<rect x="18" y="16.481" fill="#603913" width="1.5" height="1.5"/>
	<rect x="9" y="20.984" fill="#C2B59B" width="1.5" height="1.5"/>
	<rect x="10.5" y="20.984" fill="#E8CD8D" width="1.5" height="1.5"/>
	<rect x="15" y="19.484" fill="#14354C" width="1.5" height="1.5"/>
	<rect x="15" y="17.984" fill="#14354C" width="1.5" height="1.5"/>
	<rect x="16.5" y="19.484" fill="#14354C" width="1.5" height="1.5"/>
	<rect x="16.5" y="17.984" fill="#14354C" width="1.5" height="1.5"/>
	<rect x="18" y="17.984" fill="#14354C" width="1.5" height="1.5"/>
	<rect x="13.5" y="20.984" fill="#14354C" width="1.5" height="1.5"/>
	<rect x="13.5" y="19.484" fill="#E8CD8D" width="1.5" height="1.5"/>
	<rect x="12" y="20.984" fill="#E8CD8D" width="1.5" height="1.5"/>
	<rect x="7.5" y="20.984" fill="#14354C" width="1.5" height="1.5"/>
	<rect x="6" y="20.984" fill="#14354C" width="1.5" height="1.5"/>
	<rect x="6" y="19.484" fill="#14354C" width="1.5" height="1.5"/>
	<rect x="4.5" y="19.484" fill="#14354C" width="1.5" height="1.5"/>
	<rect x="15" y="20.984" fill="#14354C" width="1.5" height="1.5"/>
	<rect x="16.5" y="20.984" fill="#14354C" width="1.5" height="1.5"/>
	<rect x="18" y="20.984" fill="#14354C" width="1.5" height="1.5"/>
	<rect x="9" y="23.984" fill="#14354C" width="1.5" height="1.5"/>
	<rect x="10.5" y="23.984" fill="#14354C" width="1.5" height="1.5"/>
	<rect x="13.5" y="23.984" fill="#14354C" width="1.5" height="1.5"/>
	<rect x="12" y="23.984" fill="#14354C" width="1.5" height="1.5"/>
	<rect x="7.5" y="23.984" fill="#14354C" width="1.5" height="1.5"/>
	<rect x="7.5" y="25.484" fill="#808285" width="1.5" height="1.5"/>
	<rect x="6" y="23.984" fill="#14354C" width="1.5" height="1.5"/>
	<rect x="4.5" y="23.984" fill="#14354C" width="1.5" height="1.5"/>
	<rect x="15" y="23.984" fill="#14354C" width="1.5" height="1.5"/>
	<rect x="16.5" y="23.984" fill="#14354C" width="1.5" height="1.5"/>
	<rect x="18" y="23.984" fill="#14354C" width="1.5" height="1.5"/>
	<rect x="19.5" y="23.984" fill="#14354C" width="1.5" height="1.5"/>
	<rect x="9" y="26.984" fill="#14354C" width="1.5" height="1.5"/>
	<rect x="10.5" y="26.984" fill="#14354C" width="1.5" height="1.5"/>
	<rect x="13.5" y="26.984" fill="#14354C" width="1.5" height="1.5"/>
	<rect x="12" y="26.984" fill="#14354C" width="1.5" height="1.5"/>
	<rect x="7.5" y="26.984" fill="#14354C" width="1.5" height="1.5"/>
	<rect x="6" y="26.984" fill="#14354C" width="1.5" height="1.5"/>
	<rect x="4.5" y="26.984" fill="#E8CD8D" width="1.5" height="1.5"/>
	<rect x="15" y="26.984" fill="#14354C" width="1.5" height="1.5"/>
	<rect x="16.5" y="26.984" fill="#E8CD8D" width="1.5" height="1.5"/>
	<rect x="18" y="26.984" fill="#E8CD8D" width="1.5" height="1.5"/>
	<rect x="19.5" y="26.984" fill="#E8CD8D" width="1.5" height="1.5"/>
	<rect x="9" y="22.484" fill="#14354C" width="1.5" height="1.5"/>
	<rect x="10.5" y="22.484" fill="#C2B59B" width="1.5" height="1.5"/>
	<rect x="13.5" y="22.484" fill="#808285" width="1.5" height="1.5"/>
	<rect x="12" y="22.484" fill="#14354C" width="1.5" height="1.5"/>
	<rect x="7.5" y="22.484" fill="#808285" width="1.5" height="1.5"/>
	<rect x="6" y="22.484" fill="#808285" width="1.5" height="1.5"/>
	<rect x="4.5" y="22.484" fill="#808285" width="1.5" height="1.5"/>
	<rect x="15" y="22.484" fill="#808285" width="1.5" height="1.5"/>
	<rect x="16.5" y="22.484" fill="#808285" width="1.5" height="1.5"/>
	<rect x="18" y="22.484" fill="#808285" width="1.5" height="1.5"/>
	<rect x="19.5" y="22.484" fill="#808285" width="1.5" height="1.5"/>
	<rect x="9" y="25.484" fill="#808285" width="1.5" height="1.5"/>
	<rect x="10.5" y="25.484" fill="#14354C" width="1.5" height="1.5"/>
	<rect x="13.5" y="25.484" fill="#808285" width="1.5" height="1.5"/>
	<rect x="12" y="25.484" fill="#808285" width="1.5" height="1.5"/>
	<rect x="7.5" y="25.484" fill="#808285" width="1.5" height="1.5"/>
	<rect x="6" y="25.484" fill="#808285" width="1.5" height="1.5"/>
	<rect x="4.5" y="25.484" fill="#808285" width="1.5" height="1.5"/>
	<rect x="3" y="23.984" fill="#14354C" width="1.5" height="1.5"/>
	<rect x="3" y="26.984" fill="#E8CD8D" width="1.5" height="1.5"/>
	<rect x="3" y="25.484" fill="#808285" width="1.5" height="1.5"/>
	<rect x="15" y="25.484" fill="#808285" width="1.5" height="1.5"/>
	<rect x="16.5" y="25.484" fill="#808285" width="1.5" height="1.5"/>
	<rect x="18" y="25.484" fill="#808285" width="1.5" height="1.5"/>
	<rect x="19.5" y="25.484" fill="#808285" width="1.5" height="1.5"/>
</g>
</svg>
