<?xml version="1.0" encoding="utf-8"?>
<!-- Generator: Adobe Illustrator 16.0.0, SVG Export Plug-In . SVG Version: 6.00 Build 0)  -->
<!DOCTYPE svg PUBLIC "-//W3C//DTD SVG 1.1//EN" "http://www.w3.org/Graphics/SVG/1.1/DTD/svg11.dtd">
<svg version="1.1" id="Layer_1" xmlns="http://www.w3.org/2000/svg" xmlns:xlink="http://www.w3.org/1999/xlink" x="0px" y="0px"
	 width="300px" height="300px" viewBox="0 0 300 300" enable-background="new 0 0 300 300" xml:space="preserve">
<g>
	<rect x="123.75" y="78.789" fill="#B68D63" width="7.5" height="7.5"/>
	<rect x="131.25" y="78.789" fill="#4D301C" width="7.5" height="7.5"/>
	<rect x="138.75" y="78.789" fill="#865F36" width="7.5" height="7.5"/>
	<rect x="146.25" y="78.789" fill="#B68D63" width="7.5" height="7.5"/>
	<rect x="116.25" y="93.774" fill="#B68D63" width="7.5" height="7.5"/>
	<rect x="123.75" y="93.774" fill="#865F36" width="7.5" height="7.5"/>
	<rect x="131.25" y="93.774" fill="#B68D63" width="7.5" height="7.5"/>
	<rect x="138.75" y="93.774" fill="#B68D63" width="7.5" height="7.5"/>
	<rect x="146.25" y="93.774" fill="#B68D63" width="7.5" height="7.5"/>
	<rect x="153.75" y="93.774" fill="#EDD69F" width="7.5" height="7.5"/>
	<rect x="116.25" y="101.274" fill="#865F36" width="7.5" height="7.5"/>
	<rect x="108.75" y="101.274" fill="#865F36" width="7.5" height="7.5"/>
	<rect x="108.75" y="108.774" fill="#B68D63" width="7.5" height="7.5"/>
	<rect x="108.75" y="116.274" fill="#734A1D" width="7.5" height="7.5"/>
	<rect x="101.25" y="101.274" fill="#B68D63" width="7.5" height="7.5"/>
	<rect x="101.25" y="108.774" fill="#865F36" width="7.5" height="7.5"/>
	<rect x="93.75" y="108.774" fill="#B68D63" width="7.5" height="7.5"/>
	<rect x="108.75" y="93.774" fill="#CEA980" width="7.5" height="7.5"/>
	<rect x="123.75" y="101.274" fill="#9B724E" width="7.5" height="7.5"/>
	<rect x="131.25" y="101.274" fill="#4D301C" width="7.5" height="7.5"/>
	<rect x="138.75" y="101.274" fill="#9B724E" width="7.5" height="7.5"/>
	<rect x="146.25" y="101.274" fill="#EDD69F" width="7.5" height="7.5"/>
	<rect x="153.75" y="101.274" fill="#EDD69F" width="7.5" height="7.5"/>
	<rect x="116.25" y="108.774" fill="#9B724E" width="7.5" height="7.5"/>
	<rect x="123.75" y="108.774" fill="#4D301C" width="7.5" height="7.5"/>
	<rect x="116.25" y="123.74" fill="#EDD69F" width="7.5" height="7.5"/>
	<rect x="123.75" y="123.74" fill="#EDD69F" width="7.5" height="7.5"/>
	<rect x="116.25" y="131.226" fill="#EDD69F" width="7.5" height="7.5"/>
	<rect x="123.75" y="131.226" fill="#2887C5" width="7.5" height="7.5"/>
	<rect x="116.25" y="138.74" fill="#EDD69F" width="7.5" height="7.5"/>
	<rect x="123.75" y="138.74" fill="#EDD69F" width="7.5" height="7.5"/>
	<rect x="116.25" y="146.226" fill="#EDD69F" width="7.5" height="7.5"/>
	<rect x="108.75" y="138.726" fill="#EDD69F" width="7.5" height="7.5"/>
	<rect x="101.25" y="138.726" fill="#EDD69F" width="7.5" height="7.5"/>
	<rect x="108.75" y="131.226" fill="#EDD69F" width="7.5" height="7.5"/>
	<rect x="123.75" y="146.226" fill="#EDD69F" width="7.5" height="7.5"/>
	<rect x="123.75" y="153.711" fill="#CBC0A9" width="7.5" height="7.5"/>
	<rect x="116.25" y="153.711" fill="#CBC0A9" width="7.5" height="7.5"/>
	<rect x="138.75" y="146.226" fill="#EDD69F" width="7.5" height="7.5"/>
	<rect x="131.25" y="146.226" fill="#EDD69F" width="7.5" height="7.5"/>
	<rect x="146.25" y="146.226" fill="#EDD69F" width="7.5" height="7.5"/>
	<rect x="161.25" y="146.226" fill="#EDD69F" width="7.5" height="7.5"/>
	<rect x="153.75" y="146.226" fill="#EDD69F" width="7.5" height="7.5"/>
	<rect x="138.75" y="153.711" fill="#CBC0A9" width="7.5" height="7.5"/>
	<rect x="131.25" y="153.711" fill="#CBC0A9" width="7.5" height="7.5"/>
	<rect x="146.25" y="153.711" fill="#CBC0A9" width="7.5" height="7.5"/>
	<rect x="153.75" y="153.711" fill="#CBC0A9" width="7.5" height="7.5"/>
	<rect x="138.75" y="161.196" fill="#C7293B" width="7.5" height="7.5"/>
	<rect x="131.25" y="161.196" fill="#C7293B" width="7.5" height="7.5"/>
	<rect x="146.25" y="161.196" fill="#C7293B" width="7.5" height="7.5"/>
	<rect x="153.75" y="161.196" fill="#CBC0A9" width="7.5" height="7.5"/>
	<rect x="138.75" y="168.696" fill="#EDD69F" width="7.5" height="7.5"/>
	<rect x="131.25" y="168.696" fill="#EDD69F" width="7.5" height="7.5"/>
	<rect x="131.25" y="176.196" fill="#EDD69F" width="7.5" height="7.5"/>
	<rect x="146.25" y="168.696" fill="#EDD69F" width="7.5" height="7.5"/>
	<rect x="138.75" y="176.196" fill="#EDD69F" width="7.5" height="7.5"/>
	<rect x="146.25" y="176.196" fill="#CBC0A9" width="7.5" height="7.5"/>
	<rect x="153.75" y="176.196" fill="#EDD69F" width="7.5" height="7.5"/>
	<rect x="153.75" y="168.696" fill="#EDD69F" width="7.5" height="7.5"/>
	<rect x="161.25" y="168.696" fill="#EDD69F" width="7.5" height="7.5"/>
	<rect x="168.75" y="146.226" fill="#4D301C" width="7.5" height="7.5"/>
	<rect x="161.25" y="138.74" fill="#CEA980" width="7.5" height="7.5"/>
	<rect x="161.25" y="146.24" fill="#9B724E" width="7.5" height="7.5"/>
	<rect x="168.75" y="138.74" fill="#4D301C" width="7.5" height="7.5"/>
	<rect x="161.25" y="161.196" fill="#EDD69F" width="7.5" height="7.5"/>
	<rect x="168.75" y="161.196" fill="#EDD69F" width="7.5" height="7.5"/>
	<rect x="161.25" y="153.711" fill="#EDD69F" width="7.5" height="7.5"/>
	<rect x="168.75" y="153.711" fill="#EDD69F" width="7.5" height="7.5"/>
	<rect x="161.25" y="131.226" fill="#734A1D" width="7.5" height="7.5"/>
	<rect x="168.75" y="131.226" fill="#9B724E" width="7.5" height="7.5"/>
	<rect x="161.25" y="123.74" fill="#734A1D" width="7.5" height="7.5"/>
	<rect x="168.75" y="123.74" fill="#734A1D" width="7.5" height="7.5"/>
	<rect x="176.25" y="131.226" fill="#9B724E" width="7.5" height="7.5"/>
	<rect x="176.25" y="123.74" fill="#9B724E" width="7.5" height="7.5"/>
	<rect x="131.25" y="108.774" fill="#9B724E" width="7.5" height="7.5"/>
	<rect x="138.75" y="108.774" fill="#EDD69F" width="7.5" height="7.5"/>
	<rect x="146.25" y="108.774" fill="#EDD69F" width="7.5" height="7.5"/>
	<rect x="138.75" y="116.274" fill="#EDD69F" width="7.5" height="7.5"/>
	<rect x="146.25" y="116.274" fill="#EDD69F" width="7.5" height="7.5"/>
	<rect x="123.75" y="116.274" fill="#CEA980" width="7.5" height="7.5"/>
	<rect x="116.25" y="116.274" fill="#EDD69F" width="7.5" height="7.5"/>
	<rect x="131.25" y="116.274" fill="#CEA980" width="7.5" height="7.5"/>
	<rect x="153.75" y="108.774" fill="#A9958A" width="7.5" height="7.5"/>
	<rect x="131.25" y="123.74" fill="#EDD69F" width="7.5" height="7.5"/>
	<rect x="138.75" y="123.74" fill="#CEA980" width="7.5" height="7.5"/>
	<rect x="146.25" y="123.74" fill="#EDD69F" width="7.5" height="7.5"/>
	<rect x="153.75" y="123.74" fill="#9B724E" width="7.5" height="7.5"/>
	<rect x="153.75" y="116.274" fill="#9B724E" width="7.5" height="7.5"/>
	<rect x="131.25" y="131.226" fill="#FFFFFF" width="7.5" height="7.5"/>
	<rect x="138.75" y="131.226" fill="#EDD69F" width="7.5" height="7.5"/>
	<rect x="146.25" y="131.226" fill="#EDD69F" width="7.5" height="7.5"/>
	<rect x="153.75" y="131.226" fill="#EDD69F" width="7.5" height="7.5"/>
	<rect x="131.25" y="138.726" fill="#EDD69F" width="7.5" height="7.5"/>
	<rect x="138.75" y="138.726" fill="#EDD69F" width="7.5" height="7.5"/>
	<rect x="146.25" y="138.726" fill="#EDD69F" width="7.5" height="7.5"/>
	<rect x="153.75" y="138.726" fill="#EDD69F" width="7.5" height="7.5"/>
	<rect x="161.25" y="93.774" fill="#734A1D" width="7.5" height="7.5"/>
	<rect x="168.75" y="93.774" fill="#734A1D" width="7.5" height="7.5"/>
	<rect x="116.25" y="86.289" fill="#CEA980" width="7.5" height="7.5"/>
	<rect x="123.75" y="86.289" fill="#B68D63" width="7.5" height="7.5"/>
	<rect x="131.25" y="86.289" fill="#865F36" width="7.5" height="7.5"/>
	<rect x="138.75" y="86.289" fill="#B68D63" width="7.5" height="7.5"/>
	<rect x="146.25" y="86.289" fill="#B68D63" width="7.5" height="7.5"/>
	<rect x="153.75" y="86.289" fill="#4D301C" width="7.5" height="7.5"/>
	<rect x="161.25" y="86.289" fill="#B68D63" width="7.5" height="7.5"/>
	<rect x="153.75" y="78.789" fill="#734A1D" width="7.5" height="7.5"/>
	<rect x="168.75" y="86.289" fill="#734A1D" width="7.5" height="7.5"/>
	<rect x="161.25" y="101.274" fill="#734A1D" width="7.5" height="7.5"/>
	<rect x="168.75" y="101.274" fill="#4D301C" width="7.5" height="7.5"/>
	<rect x="161.25" y="108.774" fill="#4D301C" width="7.5" height="7.5"/>
	<rect x="168.75" y="108.774" fill="#B68D63" width="7.5" height="7.5"/>
	<rect x="176.25" y="93.774" fill="#734A1D" width="7.5" height="7.5"/>
	<rect x="176.25" y="86.289" fill="#734A1D" width="7.5" height="7.5"/>
	<rect x="176.25" y="101.274" fill="#4D301C" width="7.5" height="7.5"/>
	<rect x="176.25" y="108.774" fill="#734A1D" width="7.5" height="7.5"/>
	<rect x="183.75" y="93.774" fill="#734A1D" width="7.5" height="7.5"/>
	<rect x="183.75" y="101.274" fill="#4D301C" width="7.5" height="7.5"/>
	<rect x="183.75" y="108.774" fill="#734A1D" width="7.5" height="7.5"/>
	<rect x="161.25" y="116.274" fill="#4D301C" width="7.5" height="7.5"/>
	<rect x="168.75" y="116.274" fill="#734A1D" width="7.5" height="7.5"/>
	<rect x="176.25" y="116.274" fill="#734A1D" width="7.5" height="7.5"/>
	<rect x="183.75" y="116.274" fill="#B68D63" width="7.5" height="7.5"/>
	<rect x="183.75" y="123.74" fill="#734A1D" width="7.5" height="7.5"/>
	<rect x="183.75" y="131.24" fill="#4D301C" width="7.5" height="7.5"/>
	<rect x="183.75" y="138.74" fill="#B68D63" width="7.5" height="7.5"/>
	<rect x="176.25" y="138.74" fill="#734A1D" width="7.5" height="7.5"/>
	<rect x="176.25" y="146.24" fill="#4D301C" width="7.5" height="7.5"/>
	<rect x="176.25" y="153.74" fill="#734A1D" width="7.5" height="7.5"/>
	<rect x="183.75" y="146.24" fill="#4D301C" width="7.5" height="7.5"/>
	<rect x="191.25" y="153.74" fill="#4D301C" width="7.5" height="7.5"/>
	<rect x="191.25" y="161.211" fill="#4D301C" width="7.5" height="7.5"/>
	<rect x="198.75" y="161.211" fill="#4D301C" width="7.5" height="7.5"/>
	<rect x="191.25" y="138.755" fill="#4D301C" width="7.5" height="7.5"/>
	<rect x="191.25" y="107.817" fill="#4D301C" width="7.5" height="7.5"/>
	<rect x="191.25" y="115.317" fill="#4D301C" width="7.5" height="7.5"/>
	<rect x="191.25" y="122.896" fill="#4D301C" width="7.5" height="7.5"/>
	<rect x="183.75" y="153.74" fill="#B68D63" width="7.5" height="7.5"/>
	<rect x="176.25" y="161.196" fill="#734A1D" width="7.5" height="7.5"/>
	<rect x="183.75" y="161.196" fill="#734A1D" width="7.5" height="7.5"/>
	<rect x="138.75" y="183.711" fill="#CBC0A9" width="7.5" height="7.5"/>
	<rect x="146.25" y="183.711" fill="#EDD69F" width="7.5" height="7.5"/>
	<rect x="168.75" y="176.211" fill="#1B455E" width="7.5" height="7.5"/>
	<rect x="168.75" y="168.711" fill="#1B455E" width="7.5" height="7.5"/>
	<rect x="176.25" y="176.211" fill="#1B455E" width="7.5" height="7.5"/>
	<rect x="176.25" y="168.711" fill="#1B455E" width="7.5" height="7.5"/>
	<rect x="183.75" y="168.711" fill="#1B455E" width="7.5" height="7.5"/>
	<rect x="161.25" y="183.711" fill="#1B455E" width="7.5" height="7.5"/>
	<rect x="161.25" y="176.211" fill="#EDD69F" width="7.5" height="7.5"/>
	<rect x="153.75" y="183.711" fill="#EDD69F" width="7.5" height="7.5"/>
	<rect x="131.25" y="183.711" fill="#1B455E" width="7.5" height="7.5"/>
	<rect x="123.75" y="183.711" fill="#1B455E" width="7.5" height="7.5"/>
	<rect x="123.75" y="176.211" fill="#1B455E" width="7.5" height="7.5"/>
	<rect x="116.25" y="176.211" fill="#1B455E" width="7.5" height="7.5"/>
	<rect x="168.75" y="183.711" fill="#1B455E" width="7.5" height="7.5"/>
	<rect x="176.25" y="183.711" fill="#1B455E" width="7.5" height="7.5"/>
	<rect x="183.75" y="183.711" fill="#1B455E" width="7.5" height="7.5"/>
	<rect x="138.75" y="198.711" fill="#1B455E" width="7.5" height="7.5"/>
	<rect x="146.25" y="198.711" fill="#1B455E" width="7.5" height="7.5"/>
	<rect x="161.25" y="198.711" fill="#1B455E" width="7.5" height="7.5"/>
	<rect x="153.75" y="198.711" fill="#1B455E" width="7.5" height="7.5"/>
	<rect x="131.25" y="198.711" fill="#1B455E" width="7.5" height="7.5"/>
	<rect x="131.25" y="206.211" fill="#919295" width="7.5" height="7.5"/>
	<rect x="123.75" y="198.711" fill="#1B455E" width="7.5" height="7.5"/>
	<rect x="116.25" y="198.711" fill="#1B455E" width="7.5" height="7.5"/>
	<rect x="168.75" y="198.711" fill="#1B455E" width="7.5" height="7.5"/>
	<rect x="176.25" y="198.711" fill="#1B455E" width="7.5" height="7.5"/>
	<rect x="183.75" y="198.711" fill="#1B455E" width="7.5" height="7.5"/>
	<rect x="191.25" y="198.711" fill="#1B455E" width="7.5" height="7.5"/>
	<rect x="138.75" y="213.711" fill="#1B455E" width="7.5" height="7.5"/>
	<rect x="146.25" y="213.711" fill="#1B455E" width="7.5" height="7.5"/>
	<rect x="161.25" y="213.711" fill="#1B455E" width="7.5" height="7.5"/>
	<rect x="153.75" y="213.711" fill="#1B455E" width="7.5" height="7.5"/>
	<rect x="131.25" y="213.711" fill="#1B455E" width="7.5" height="7.5"/>
	<rect x="123.75" y="213.711" fill="#1B455E" width="7.5" height="7.5"/>
	<rect x="116.25" y="213.711" fill="#EDD69F" width="7.5" height="7.5"/>
	<rect x="168.75" y="213.711" fill="#1B455E" width="7.5" height="7.5"/>
	<rect x="176.25" y="213.711" fill="#EDD69F" width="7.5" height="7.5"/>
	<rect x="183.75" y="213.711" fill="#EDD69F" width="7.5" height="7.5"/>
	<rect x="191.25" y="213.711" fill="#EDD69F" width="7.5" height="7.5"/>
	<rect x="138.75" y="191.211" fill="#1B455E" width="7.5" height="7.5"/>
	<rect x="146.25" y="191.211" fill="#CBC0A9" width="7.5" height="7.5"/>
	<rect x="161.25" y="191.211" fill="#919295" width="7.5" height="7.5"/>
	<rect x="153.75" y="191.211" fill="#1B455E" width="7.5" height="7.5"/>
	<rect x="131.25" y="191.211" fill="#919295" width="7.5" height="7.5"/>
	<rect x="123.75" y="191.211" fill="#919295" width="7.5" height="7.5"/>
	<rect x="116.25" y="191.211" fill="#919295" width="7.5" height="7.5"/>
	<rect x="168.75" y="191.211" fill="#919295" width="7.5" height="7.5"/>
	<rect x="176.25" y="191.211" fill="#919295" width="7.5" height="7.5"/>
	<rect x="183.75" y="191.211" fill="#919295" width="7.5" height="7.5"/>
	<rect x="191.25" y="191.211" fill="#919295" width="7.5" height="7.5"/>
	<rect x="138.75" y="206.211" fill="#919295" width="7.5" height="7.5"/>
	<rect x="146.25" y="206.211" fill="#1B455E" width="7.5" height="7.5"/>
	<rect x="161.25" y="206.211" fill="#919295" width="7.5" height="7.5"/>
	<rect x="153.75" y="206.211" fill="#919295" width="7.5" height="7.5"/>
	<rect x="131.25" y="206.211" fill="#919295" width="7.5" height="7.5"/>
	<rect x="123.75" y="206.211" fill="#919295" width="7.5" height="7.5"/>
	<rect x="116.25" y="206.211" fill="#919295" width="7.5" height="7.5"/>
	<rect x="108.75" y="198.711" fill="#1B455E" width="7.5" height="7.5"/>
	<rect x="108.75" y="213.711" fill="#EDD69F" width="7.5" height="7.5"/>
	<rect x="108.75" y="206.211" fill="#919295" width="7.5" height="7.5"/>
	<rect x="168.75" y="206.211" fill="#919295" width="7.5" height="7.5"/>
	<rect x="176.25" y="206.211" fill="#919295" width="7.5" height="7.5"/>
	<rect x="183.75" y="206.211" fill="#919295" width="7.5" height="7.5"/>
	<rect x="191.25" y="206.211" fill="#919295" width="7.5" height="7.5"/>
</g>
</svg>
