<?xml version="1.0" encoding="utf-8"?>
<!-- Generator: Adobe Illustrator 16.0.0, SVG Export Plug-In . SVG Version: 6.00 Build 0)  -->
<!DOCTYPE svg PUBLIC "-//W3C//DTD SVG 1.1//EN" "http://www.w3.org/Graphics/SVG/1.1/DTD/svg11.dtd">
<svg version="1.1" id="Layer_1" xmlns="http://www.w3.org/2000/svg" xmlns:xlink="http://www.w3.org/1999/xlink" x="0px" y="0px"
	 width="300px" height="300px" viewBox="0 0 300 300" enable-background="new 0 0 300 300" xml:space="preserve">
<g>
	<rect x="168" y="170.936" fill="#ECEEEE" width="6" height="6"/>
	<rect x="162" y="170.936" fill="#ECEEEE" width="6" height="6"/>
	<rect x="132" y="176.936" fill="#ECEEEE" width="6" height="6"/>
	<rect x="126" y="176.936" fill="#CDC09D" width="6" height="6"/>
	<rect x="132" y="170.967" fill="#ECEEEE" width="6" height="6"/>
	<rect x="126" y="170.967" fill="#ECEEEE" width="6" height="6"/>
	<rect x="162" y="176.936" fill="#ECEEEE" width="6" height="6"/>
	<rect x="168" y="176.936" fill="#C2B59B" width="6" height="6"/>
	<rect x="174" y="176.936" fill="#CDC09D" width="6" height="6"/>
	<rect x="138" y="188.936" fill="#FFFFFF" width="6" height="6"/>
	<rect x="144" y="188.936" fill="#FFFFFF" width="6" height="6"/>
	<rect x="150" y="188.936" fill="#FFFFFF" width="6" height="6"/>
	<rect x="156" y="188.936" fill="#FFFFFF" width="6" height="6"/>
	<rect x="132" y="188.936" fill="#C2B59B" width="6" height="6"/>
	<rect x="132" y="194.936" fill="#C2B59B" width="6" height="6"/>
	<rect x="126" y="188.936" fill="#C2B59B" width="6" height="6"/>
	<rect x="120" y="188.936" fill="#C2B59B" width="6" height="6"/>
	<rect x="162" y="188.936" fill="#C2B59B" width="6" height="6"/>
	<rect x="168" y="188.936" fill="#C2B59B" width="6" height="6"/>
	<rect x="174" y="188.936" fill="#C2B59B" width="6" height="6"/>
	<rect x="180" y="188.936" fill="#C2B59B" width="6" height="6"/>
	<rect x="138" y="200.936" fill="#C2B59B" width="6" height="6"/>
	<rect x="144" y="200.936" fill="#AE9D85" width="6" height="6"/>
	<rect x="156" y="200.936" fill="#C2B59B" width="6" height="6"/>
	<rect x="150" y="200.936" fill="#AE9D85" width="6" height="6"/>
	<rect x="132" y="200.936" fill="#C2B59B" width="6" height="6"/>
	<rect x="126" y="200.936" fill="#C2B59B" width="6" height="6"/>
	<rect x="120" y="200.936" fill="#9B8579" width="6" height="6"/>
	<rect x="162" y="200.936" fill="#C2B59B" width="6" height="6"/>
	<rect x="168" y="200.936" fill="#9B8579" width="6" height="6"/>
	<rect x="174" y="200.936" fill="#AE9D85" width="6" height="6"/>
	<rect x="180" y="200.936" fill="#C2B59B" width="6" height="6"/>
	<rect x="132" y="182.936" fill="#ECEEEE" width="6" height="6"/>
	<rect x="126" y="182.936" fill="#C2B59B" width="6" height="6"/>
	<rect x="120" y="182.936" fill="#CDC09D" width="6" height="6"/>
	<rect x="162" y="182.936" fill="#ECEEEE" width="6" height="6"/>
	<rect x="168" y="182.936" fill="#C2B59B" width="6" height="6"/>
	<rect x="174" y="182.936" fill="#C2B59B" width="6" height="6"/>
	<rect x="180" y="182.936" fill="#CDC09D" width="6" height="6"/>
	<rect x="138" y="194.936" fill="#C2B59B" width="6" height="6"/>
	<rect x="144" y="194.936" fill="#FFFFFF" width="6" height="6"/>
	<rect x="156" y="194.936" fill="#C2B59B" width="6" height="6"/>
	<rect x="150" y="194.936" fill="#FFFFFF" width="6" height="6"/>
	<rect x="132" y="194.936" fill="#C2B59B" width="6" height="6"/>
	<rect x="126" y="194.936" fill="#C2B59B" width="6" height="6"/>
	<rect x="120" y="194.936" fill="#C2B59B" width="6" height="6"/>
	<rect x="114" y="188.936" fill="#C2B59B" width="6" height="6"/>
	<rect x="114" y="182.936" fill="#CDC09D" width="6" height="6"/>
	<rect x="114" y="200.936" fill="#C2B59B" width="6" height="6"/>
	<rect x="114" y="194.936" fill="#C2B59B" width="6" height="6"/>
	<rect x="108" y="188.936" fill="#CDC09D" width="6" height="6"/>
	<rect x="108" y="200.936" fill="#AE9D85" width="6" height="6"/>
	<rect x="108" y="194.936" fill="#C2B59B" width="6" height="6"/>
	<rect x="162" y="194.936" fill="#C2B59B" width="6" height="6"/>
	<rect x="168" y="194.936" fill="#C2B59B" width="6" height="6"/>
	<rect x="174" y="194.936" fill="#C2B59B" width="6" height="6"/>
	<rect x="180" y="194.936" fill="#C2B59B" width="6" height="6"/>
	<rect x="186" y="188.936" fill="#CDC09D" width="6" height="6"/>
	<rect x="186" y="200.936" fill="#C2B59B" width="6" height="6"/>
	<rect x="186" y="194.936" fill="#C2B59B" width="6" height="6"/>
	<rect x="126" y="93.064" fill="#808285" width="6" height="6"/>
	<rect x="132" y="93.064" fill="#C6C8C9" width="6" height="6"/>
	<rect x="138" y="93.064" fill="#726658" width="6" height="6"/>
	<rect x="144" y="93.064" fill="#AFAFA2" width="6" height="6"/>
	<rect x="120" y="105.053" fill="#F7E0CF" width="6" height="6"/>
	<rect x="126" y="105.053" fill="#F7E0CF" width="6" height="6"/>
	<rect x="132" y="105.053" fill="#F7E0CF" width="6" height="6"/>
	<rect x="138" y="105.053" fill="#F7E0CF" width="6" height="6"/>
	<rect x="144" y="105.053" fill="#F7E0CF" width="6" height="6"/>
	<rect x="150" y="105.053" fill="#EFD1B8" width="6" height="6"/>
	<rect x="120" y="111.053" fill="#F7E0CF" width="6" height="6"/>
	<rect x="126" y="111.053" fill="#F3D9D0" width="6" height="6"/>
	<rect x="132" y="111.053" fill="#EFD1B8" width="6" height="6"/>
	<rect x="138" y="111.053" fill="#F3D9D0" width="6" height="6"/>
	<rect x="144" y="111.053" fill="#F3D9D0" width="6" height="6"/>
	<rect x="150" y="111.053" fill="#AFAFA2" width="6" height="6"/>
	<rect x="120" y="117.053" fill="#EAC4B2" width="6" height="6"/>
	<rect x="126" y="117.053" fill="#EAC4B2" width="6" height="6"/>
	<rect x="120" y="123.029" fill="#F3D9D0" width="6" height="6"/>
	<rect x="126" y="123.029" fill="#EFD1B8" width="6" height="6"/>
	<rect x="120" y="134.99" fill="#414042" width="6" height="6"/>
	<rect x="126" y="134.99" fill="#696654" width="6" height="6"/>
	<rect x="120" y="141.002" fill="#EFD1B8" width="6" height="6"/>
	<rect x="126" y="141.002" fill="#414042" width="6" height="6"/>
	<rect x="120" y="146.99" fill="#BAA993" width="6" height="6"/>
	<rect x="114" y="140.99" fill="#EFD1B8" width="6" height="6"/>
	<rect x="108" y="140.99" fill="#EFD1B8" width="6" height="6"/>
	<rect x="114" y="134.99" fill="#EAC4B2" width="6" height="6"/>
	<rect x="126" y="146.99" fill="#D7BFAA" width="6" height="6"/>
	<rect x="138" y="146.99" fill="#F3D9D0" width="6" height="6"/>
	<rect x="132" y="146.99" fill="#D7BFAA" width="6" height="6"/>
	<rect x="144" y="146.99" fill="#EAC4B2" width="6" height="6"/>
	<rect x="156" y="146.99" fill="#DFE0E1" width="6" height="6"/>
	<rect x="150" y="146.99" fill="#EFD1B8" width="6" height="6"/>
	<rect x="138" y="152.979" fill="#FFFFFF" width="6" height="6"/>
	<rect x="132" y="152.979" fill="#FFFFFF" width="6" height="6"/>
	<rect x="144" y="152.979" fill="#AD6D67" width="6" height="6"/>
	<rect x="150" y="152.979" fill="#EAC4B2" width="6" height="6"/>
	<rect x="138" y="158.967" fill="#C79C89" width="6" height="6"/>
	<rect x="132" y="158.967" fill="#C79C89" width="6" height="6"/>
	<rect x="144" y="158.967" fill="#D7BFAA" width="6" height="6"/>
	<rect x="150" y="158.967" fill="#D7BFAA" width="6" height="6"/>
	<rect x="138" y="164.967" fill="#BAA993" width="6" height="6"/>
	<rect x="132" y="164.967" fill="#A49C80" width="6" height="6"/>
	<rect x="144" y="164.967" fill="#D7BFAA" width="6" height="6"/>
	<rect x="138" y="170.967" fill="#EFD1B8" width="6" height="6"/>
	<rect x="144" y="170.967" fill="#EAC4B2" width="6" height="6"/>
	<rect x="138" y="182.936" fill="#ECEEEE" width="6" height="6"/>
	<rect x="144" y="182.936" fill="#EFD1B8" width="6" height="6"/>
	<rect x="150" y="170.967" fill="#EFD1B8" width="6" height="6"/>
	<rect x="138" y="176.936" fill="#D7BFAA" width="6" height="6"/>
	<rect x="144" y="176.936" fill="#EFD1B8" width="6" height="6"/>
	<rect x="150" y="176.936" fill="#EFD1B8" width="6" height="6"/>
	<rect x="150" y="164.967" fill="#EAC4B2" width="6" height="6"/>
	<rect x="156" y="164.967" fill="#D7BFAA" width="6" height="6"/>
	<rect x="156" y="170.967" fill="#EFD1B8" width="6" height="6"/>
	<rect x="156" y="176.936" fill="#EFD1B8" width="6" height="6"/>
	<rect x="156" y="182.936" fill="#ECEEEE" width="6" height="6"/>
	<rect x="150" y="182.936" fill="#EFD1B8" width="6" height="6"/>
	<rect x="162" y="146.99" fill="#EFD1B8" width="6" height="6"/>
	<rect x="156" y="141.002" fill="#D7BFAA" width="6" height="6"/>
	<rect x="162" y="141.002" fill="#EFD1B8" width="6" height="6"/>
	<rect x="156" y="158.967" fill="#EFD1B8" width="6" height="6"/>
	<rect x="162" y="158.967" fill="#EFD1B8" width="6" height="6"/>
	<rect x="162" y="164.967" fill="#EFD1B8" width="6" height="6"/>
	<rect x="156" y="152.979" fill="#D7BFAA" width="6" height="6"/>
	<rect x="162" y="152.979" fill="#EFD1B8" width="6" height="6"/>
	<rect x="156" y="134.99" fill="#939598" width="6" height="6"/>
	<rect x="162" y="134.99" fill="#EFD1B8" width="6" height="6"/>
	<rect x="156" y="123.029" fill="#3E2D02" width="6" height="6"/>
	<rect x="162" y="123.029" fill="#726658" width="6" height="6"/>
	<rect x="168" y="134.99" fill="#EFD1B8" width="6" height="6"/>
	<rect x="168" y="129.002" fill="#EFD1B8" width="6" height="6"/>
	<rect x="132" y="117.053" fill="#EAC4B2" width="6" height="6"/>
	<rect x="138" y="117.053" fill="#EFD1B8" width="6" height="6"/>
	<rect x="144" y="117.053" fill="#ADAFB2" width="6" height="6"/>
	<rect x="150" y="117.053" fill="#726658" width="6" height="6"/>
	<rect x="132" y="123.029" fill="#EFD1B8" width="6" height="6"/>
	<rect x="138" y="123.029" fill="#EFD1B8" width="6" height="6"/>
	<rect x="144" y="123.029" fill="#DFE0E1" width="6" height="6"/>
	<rect x="150" y="123.029" fill="#ADAFB2" width="6" height="6"/>
	<rect x="120" y="129.002" fill="#414042" width="6" height="6"/>
	<rect x="126" y="129.002" fill="#414042" width="6" height="6"/>
	<rect x="156" y="129.002" fill="#594A42" width="6" height="6"/>
	<rect x="162" y="129.002" fill="#EAC4B2" width="6" height="6"/>
	<rect x="132" y="129.002" fill="#414042" width="6" height="6"/>
	<rect x="138" y="129.002" fill="#414042" width="6" height="6"/>
	<rect x="144" y="129.002" fill="#414042" width="6" height="6"/>
	<rect x="150" y="129.002" fill="#414042" width="6" height="6"/>
	<rect x="132" y="134.99" fill="#FFFFFF" width="6" height="6"/>
	<rect x="138" y="134.99" fill="#414042" width="6" height="6"/>
	<rect x="144" y="134.99" fill="#EFD1B8" width="6" height="6"/>
	<rect x="150" y="134.99" fill="#F3D9D0" width="6" height="6"/>
	<rect x="132" y="140.99" fill="#414042" width="6" height="6"/>
	<rect x="138" y="140.99" fill="#EAC4B2" width="6" height="6"/>
	<rect x="144" y="140.99" fill="#EFD1B8" width="6" height="6"/>
	<rect x="150" y="140.99" fill="#EFD1B8" width="6" height="6"/>
	<rect x="156" y="105.053" fill="#726658" width="6" height="6"/>
	<rect x="162" y="105.053" fill="#DFE0E1" width="6" height="6"/>
	<rect x="120" y="99.064" fill="#DFE0E1" width="6" height="6"/>
	<rect x="126" y="99.064" fill="#C6C8C9" width="6" height="6"/>
	<rect x="132" y="99.064" fill="#726658" width="6" height="6"/>
	<rect x="138" y="99.064" fill="#AFAFA2" width="6" height="6"/>
	<rect x="144" y="99.064" fill="#726658" width="6" height="6"/>
	<rect x="150" y="99.064" fill="#808285" width="6" height="6"/>
	<rect x="156" y="99.064" fill="#DFE0E1" width="6" height="6"/>
	<rect x="150" y="93.064" fill="#726658" width="6" height="6"/>
	<rect x="156" y="93.064" fill="#AFAFA2" width="6" height="6"/>
	<rect x="162" y="99.064" fill="#808285" width="6" height="6"/>
	<rect x="168" y="105.053" fill="#808285" width="6" height="6"/>
	<rect x="168" y="99.064" fill="#AFAFA2" width="6" height="6"/>
	<rect x="156" y="111.053" fill="#3E2D02" width="6" height="6"/>
	<rect x="162" y="111.053" fill="#3E2D02" width="6" height="6"/>
	<rect x="156" y="117.053" fill="#414042" width="6" height="6"/>
	<rect x="162" y="117.053" fill="#414042" width="6" height="6"/>
	<rect x="168" y="123.029" fill="#726658" width="6" height="6"/>
	<rect x="168" y="111.053" fill="#DFE0E1" width="6" height="6"/>
	<rect x="174" y="111.053" fill="#AFAFA2" width="6" height="6"/>
	<rect x="168" y="117.053" fill="#3E2D02" width="6" height="6"/>
	<rect x="174" y="135.018" fill="#3E2D02" width="6" height="6"/>
	<rect x="174" y="129.041" fill="#726658" width="6" height="6"/>
	<rect x="174" y="123.049" fill="#3E2D02" width="6" height="6"/>
	<rect x="174" y="117.049" fill="#594A42" width="6" height="6"/>
	<rect x="168" y="146.979" fill="#414042" width="6" height="6"/>
	<rect x="168" y="152.986" fill="#594A42" width="6" height="6"/>
	<rect x="174" y="152.986" fill="#3E2D02" width="6" height="6"/>
	<rect x="174" y="146.99" fill="#594A42" width="6" height="6"/>
	<rect x="168.008" y="158.979" fill="#594A42" width="6" height="6"/>
	<rect x="174" y="141.006" fill="#3E2D02" width="6" height="6"/>
	<rect x="168" y="141.002" fill="#EFD1B8" width="6" height="6"/>
</g>
</svg>
