<?xml version="1.0" encoding="utf-8"?>
<!-- Generator: Adobe Illustrator 16.0.0, SVG Export Plug-In . SVG Version: 6.00 Build 0)  -->
<!DOCTYPE svg PUBLIC "-//W3C//DTD SVG 1.1//EN" "http://www.w3.org/Graphics/SVG/1.1/DTD/svg11.dtd">
<svg version="1.1" id="Layer_1" xmlns="http://www.w3.org/2000/svg" xmlns:xlink="http://www.w3.org/1999/xlink" x="0px" y="0px"
	 width="300px" height="300px" viewBox="0 0 300 300" enable-background="new 0 0 300 300" xml:space="preserve">
<g>
	<rect x="120.176" y="75.049" fill="#231F20" width="7.5" height="7.5"/>
	<rect x="127.676" y="75.049" fill="#231F20" width="7.5" height="7.5"/>
	<rect x="135.176" y="75.049" fill="#231F20" width="7.5" height="7.5"/>
	<rect x="142.676" y="75.049" fill="#231F20" width="7.5" height="7.5"/>
	<rect x="112.676" y="90.034" fill="#EFD1B8" width="7.5" height="7.5"/>
	<rect x="120.176" y="90.034" fill="#EFD1B8" width="7.5" height="7.5"/>
	<rect x="127.676" y="90.034" fill="#231F20" width="7.5" height="7.5"/>
	<rect x="135.176" y="90.034" fill="#EFD1B8" width="7.5" height="7.5"/>
	<rect x="142.676" y="90.034" fill="#EED0C6" width="7.5" height="7.5"/>
	<rect x="150.176" y="90.034" fill="#231F20" width="7.5" height="7.5"/>
	<rect x="112.676" y="97.534" fill="#F7E0CF" width="7.5" height="7.5"/>
	<rect x="120.176" y="97.534" fill="#231F20" width="7.5" height="7.5"/>
	<rect x="127.676" y="97.534" fill="#EFD1B8" width="7.5" height="7.5"/>
	<rect x="135.176" y="97.534" fill="#EFD1B8" width="7.5" height="7.5"/>
	<rect x="142.676" y="97.534" fill="#231F20" width="7.5" height="7.5"/>
	<rect x="150.176" y="97.534" fill="#EED0C6" width="7.5" height="7.5"/>
	<rect x="112.676" y="105.034" fill="#F7E0CF" width="7.5" height="7.5"/>
	<rect x="120.176" y="105.034" fill="#F7E0CF" width="7.5" height="7.5"/>
	<rect x="112.676" y="112.505" fill="#EFD1B8" width="7.5" height="7.5"/>
	<rect x="120.176" y="112.505" fill="#414042" width="7.5" height="7.5"/>
	<rect x="112.676" y="127.456" fill="#F7E0CF" width="7.5" height="7.5"/>
	<rect x="120.176" y="127.456" fill="#3B2314" width="7.5" height="7.5"/>
	<rect x="112.676" y="134.971" fill="#EFD1B8" width="7.5" height="7.5"/>
	<rect x="120.176" y="134.971" fill="#EFCFC0" width="7.5" height="7.5"/>
	<rect x="112.676" y="142.456" fill="#D7BFAA" width="7.5" height="7.5"/>
	<rect x="105.176" y="134.971" fill="#EFD1B8" width="7.5" height="7.5"/>
	<rect x="120.176" y="142.456" fill="#D7BFAA" width="7.5" height="7.5"/>
	<rect x="135.176" y="142.456" fill="#D7BFAA" width="7.5" height="7.5"/>
	<rect x="127.676" y="142.456" fill="#D7BFAA" width="7.5" height="7.5"/>
	<rect x="142.676" y="142.456" fill="#EFCFC0" width="7.5" height="7.5"/>
	<rect x="157.676" y="142.456" fill="#D7BFAA" width="7.5" height="7.5"/>
	<rect x="150.176" y="142.456" fill="#EFD1B8" width="7.5" height="7.5"/>
	<rect x="135.176" y="149.941" fill="#FFFFFF" width="7.5" height="7.5"/>
	<rect x="127.676" y="149.941" fill="#FFFFFF" width="7.5" height="7.5"/>
	<rect x="142.676" y="149.941" fill="#BB807B" width="7.5" height="7.5"/>
	<rect x="150.176" y="149.941" fill="#EFD1B8" width="7.5" height="7.5"/>
	<rect x="135.176" y="157.427" fill="#D28F8C" width="7.5" height="7.5"/>
	<rect x="127.676" y="157.427" fill="#D28F8C" width="7.5" height="7.5"/>
	<rect x="142.676" y="157.427" fill="#EFD1B8" width="7.5" height="7.5"/>
	<rect x="150.176" y="157.427" fill="#D7BFAA" width="7.5" height="7.5"/>
	<rect x="135.176" y="164.927" fill="#D7BFAA" width="7.5" height="7.5"/>
	<rect x="127.676" y="164.927" fill="#D7BFAA" width="7.5" height="7.5"/>
	<rect x="142.676" y="164.927" fill="#D7BFAA" width="7.5" height="7.5"/>
	<rect x="135.176" y="172.427" fill="#BAA993" width="7.5" height="7.5"/>
	<rect x="142.676" y="172.427" fill="#EFD1B8" width="7.5" height="7.5"/>
	<rect x="150.176" y="172.427" fill="#EFD1B8" width="7.5" height="7.5"/>
	<rect x="150.176" y="164.927" fill="#EFD1B8" width="7.5" height="7.5"/>
	<rect x="165.176" y="142.456" fill="#EFD1B8" width="7.5" height="7.5"/>
	<rect x="165.176" y="149.941" fill="#EFD1B8" width="7.5" height="7.5"/>
	<rect x="157.676" y="134.971" fill="#D7BFAA" width="7.5" height="7.5"/>
	<rect x="165.176" y="134.971" fill="#EFD1B8" width="7.5" height="7.5"/>
	<rect x="157.676" y="157.427" fill="#EFD1B8" width="7.5" height="7.5"/>
	<rect x="157.676" y="164.927" fill="#EFD1B8" width="7.5" height="7.5"/>
	<rect x="157.676" y="149.941" fill="#D7BFAA" width="7.5" height="7.5"/>
	<rect x="157.676" y="127.456" fill="#726658" width="7.5" height="7.5"/>
	<rect x="165.176" y="127.456" fill="#D7BFAA" width="7.5" height="7.5"/>
	<rect x="157.676" y="112.505" fill="#414042" width="7.5" height="7.5"/>
	<rect x="165.176" y="112.505" fill="#231F20" width="7.5" height="7.5"/>
	<rect x="172.676" y="134.922" fill="#EFD1B8" width="7.5" height="7.5"/>
	<rect x="172.676" y="127.437" fill="#EFCFC0" width="7.5" height="7.5"/>
	<rect x="127.676" y="105.034" fill="#EFD1B8" width="7.5" height="7.5"/>
	<rect x="135.176" y="105.034" fill="#EFD1B8" width="7.5" height="7.5"/>
	<rect x="142.676" y="105.034" fill="#EFD1B8" width="7.5" height="7.5"/>
	<rect x="150.176" y="105.034" fill="#414042" width="7.5" height="7.5"/>
	<rect x="127.676" y="112.505" fill="#594A42" width="7.5" height="7.5"/>
	<rect x="135.176" y="112.505" fill="#EFD1B8" width="7.5" height="7.5"/>
	<rect x="142.676" y="112.505" fill="#EFD1B8" width="7.5" height="7.5"/>
	<rect x="150.176" y="112.505" fill="#231F20" width="7.5" height="7.5"/>
	<rect x="112.676" y="119.971" fill="#F7E0CF" width="7.5" height="7.5"/>
	<rect x="120.176" y="119.971" fill="#EFD1B8" width="7.5" height="7.5"/>
	<rect x="157.676" y="119.971" fill="#231F20" width="7.5" height="7.5"/>
	<rect x="165.176" y="119.971" fill="#EFCFC0" width="7.5" height="7.5"/>
	<rect x="127.676" y="119.971" fill="#EFD1B8" width="7.5" height="7.5"/>
	<rect x="135.176" y="119.971" fill="#EFD1B8" width="7.5" height="7.5"/>
	<rect x="142.676" y="119.971" fill="#EFD1B8" width="7.5" height="7.5"/>
	<rect x="150.176" y="119.971" fill="#EFD1B8" width="7.5" height="7.5"/>
	<rect x="127.676" y="127.456" fill="#FFFFFF" width="7.5" height="7.5"/>
	<rect x="135.176" y="127.456" fill="#EFD1B8" width="7.5" height="7.5"/>
	<rect x="142.676" y="127.456" fill="#EFD1B8" width="7.5" height="7.5"/>
	<rect x="150.176" y="127.456" fill="#EFD1B8" width="7.5" height="7.5"/>
	<rect x="127.676" y="134.956" fill="#EED0C6" width="7.5" height="7.5"/>
	<rect x="135.176" y="134.956" fill="#EFCFC0" width="7.5" height="7.5"/>
	<rect x="142.676" y="134.956" fill="#EFD1B8" width="7.5" height="7.5"/>
	<rect x="150.176" y="134.956" fill="#EFD1B8" width="7.5" height="7.5"/>
	<rect x="157.676" y="90.034" fill="#726658" width="7.5" height="7.5"/>
	<rect x="165.176" y="90.034" fill="#231F20" width="7.5" height="7.5"/>
	<rect x="112.676" y="82.549" fill="#414042" width="7.5" height="7.5"/>
	<rect x="120.176" y="82.549" fill="#231F20" width="7.5" height="7.5"/>
	<rect x="127.676" y="82.549" fill="#231F20" width="7.5" height="7.5"/>
	<rect x="135.176" y="82.549" fill="#414042" width="7.5" height="7.5"/>
	<rect x="142.676" y="82.549" fill="#231F20" width="7.5" height="7.5"/>
	<rect x="150.176" y="82.549" fill="#231F20" width="7.5" height="7.5"/>
	<rect x="157.676" y="82.549" fill="#231F20" width="7.5" height="7.5"/>
	<rect x="150.176" y="75.049" fill="#231F20" width="7.5" height="7.5"/>
	<rect x="157.676" y="75.049" fill="#414042" width="7.5" height="7.5"/>
	<rect x="165.176" y="82.549" fill="#231F20" width="7.5" height="7.5"/>
	<rect x="172.676" y="90.034" fill="#231F20" width="7.5" height="7.5"/>
	<rect x="157.676" y="97.534" fill="#231F20" width="7.5" height="7.5"/>
	<rect x="165.176" y="97.534" fill="#414042" width="7.5" height="7.5"/>
	<rect x="157.676" y="105.034" fill="#231F20" width="7.5" height="7.5"/>
	<rect x="165.176" y="105.034" fill="#231F20" width="7.5" height="7.5"/>
	<rect x="172.676" y="119.971" fill="#EFCFC0" width="7.5" height="7.5"/>
	<rect x="172.676" y="97.534" fill="#231F20" width="7.5" height="7.5"/>
	<rect x="172.676" y="105.034" fill="#231F20" width="7.5" height="7.5"/>
	<rect x="172.676" y="112.505" fill="#231F20" width="7.5" height="7.5"/>
	<rect x="134.824" y="179.951" fill="#EFD1B8" width="7.5" height="7.5"/>
	<rect x="142.324" y="179.951" fill="#D7BFAA" width="7.5" height="7.5"/>
	<rect x="134.824" y="187.451" fill="#EFD1B8" width="7.5" height="7.5"/>
	<rect x="142.324" y="187.451" fill="#EFD1B8" width="7.5" height="7.5"/>
	<rect x="149.824" y="179.951" fill="#EFD1B8" width="7.5" height="7.5"/>
	<rect x="157.324" y="187.451" fill="#323133" width="7.5" height="7.5"/>
	<rect x="149.824" y="187.451" fill="#EFD1B8" width="7.5" height="7.5"/>
	<rect x="127.324" y="187.451" fill="#323133" width="7.5" height="7.5"/>
	<rect x="157.324" y="179.951" fill="#323133" width="7.5" height="7.5"/>
	<rect x="164.824" y="179.951" fill="#323133" width="7.5" height="7.5"/>
	<rect x="127.324" y="179.951" fill="#323133" width="7.5" height="7.5"/>
	<rect x="119.824" y="187.451" fill="#323133" width="7.5" height="7.5"/>
	<rect x="164.824" y="187.451" fill="#323133" width="7.5" height="7.5"/>
	<rect x="172.324" y="187.451" fill="#323133" width="7.5" height="7.5"/>
	<rect x="179.824" y="187.451" fill="#1A1818" width="7.5" height="7.5"/>
	<rect x="134.824" y="202.451" fill="#DFE0E1" width="7.5" height="7.5"/>
	<rect x="142.324" y="202.451" fill="#DFE0E1" width="7.5" height="7.5"/>
	<rect x="157.324" y="202.451" fill="#323133" width="7.5" height="7.5"/>
	<rect x="149.824" y="202.451" fill="#DFE0E1" width="7.5" height="7.5"/>
	<rect x="127.324" y="202.451" fill="#1A1818" width="7.5" height="7.5"/>
	<rect x="119.824" y="202.451" fill="#323133" width="7.5" height="7.5"/>
	<rect x="112.324" y="202.451" fill="#323133" width="7.5" height="7.5"/>
	<rect x="164.824" y="202.451" fill="#1A1818" width="7.5" height="7.5"/>
	<rect x="172.324" y="202.451" fill="#323133" width="7.5" height="7.5"/>
	<rect x="179.824" y="202.451" fill="#323133" width="7.5" height="7.5"/>
	<rect x="187.324" y="202.451" fill="#323133" width="7.5" height="7.5"/>
	<rect x="134.824" y="217.451" fill="#7BBCD4" width="7.5" height="7.5"/>
	<rect x="142.324" y="217.451" fill="#DFE0E1" width="7.5" height="7.5"/>
	<rect x="157.324" y="217.451" fill="#1A1818" width="7.5" height="7.5"/>
	<rect x="149.824" y="217.451" fill="#DFE0E1" width="7.5" height="7.5"/>
	<rect x="127.324" y="217.451" fill="#1A1818" width="7.5" height="7.5"/>
	<rect x="119.824" y="217.451" fill="#1A1818" width="7.5" height="7.5"/>
	<rect x="112.324" y="217.451" fill="#323133" width="7.5" height="7.5"/>
	<rect x="164.824" y="217.451" fill="#323133" width="7.5" height="7.5"/>
	<rect x="172.324" y="217.451" fill="#1A1818" width="7.5" height="7.5"/>
	<rect x="179.824" y="217.451" fill="#323133" width="7.5" height="7.5"/>
	<rect x="187.324" y="217.451" fill="#323133" width="7.5" height="7.5"/>
	<rect x="134.824" y="194.951" fill="#DFE0E1" width="7.5" height="7.5"/>
	<rect x="142.324" y="194.951" fill="#DFE0E1" width="7.5" height="7.5"/>
	<rect x="157.324" y="194.951" fill="#323133" width="7.5" height="7.5"/>
	<rect x="149.824" y="194.951" fill="#DFE0E1" width="7.5" height="7.5"/>
	<rect x="127.324" y="194.951" fill="#323133" width="7.5" height="7.5"/>
	<rect x="119.824" y="194.951" fill="#1A1818" width="7.5" height="7.5"/>
	<rect x="112.324" y="194.951" fill="#323133" width="7.5" height="7.5"/>
	<rect x="164.824" y="194.951" fill="#323133" width="7.5" height="7.5"/>
	<rect x="172.324" y="194.951" fill="#1A1818" width="7.5" height="7.5"/>
	<rect x="179.824" y="194.951" fill="#323133" width="7.5" height="7.5"/>
	<rect x="187.324" y="194.951" fill="#323133" width="7.5" height="7.5"/>
	<rect x="134.824" y="209.951" fill="#7BBCD4" width="7.5" height="7.5"/>
	<rect x="142.324" y="209.951" fill="#7BBCD4" width="7.5" height="7.5"/>
	<rect x="157.324" y="209.951" fill="#1A1818" width="7.5" height="7.5"/>
	<rect x="149.824" y="209.951" fill="#FFF200" width="7.5" height="7.5"/>
	<rect x="127.324" y="209.951" fill="#1A1818" width="7.5" height="7.5"/>
	<rect x="119.824" y="209.951" fill="#323133" width="7.5" height="7.5"/>
	<rect x="112.324" y="209.951" fill="#323133" width="7.5" height="7.5"/>
	<rect x="164.824" y="209.951" fill="#323133" width="7.5" height="7.5"/>
	<rect x="172.324" y="209.951" fill="#323133" width="7.5" height="7.5"/>
	<rect x="179.824" y="209.951" fill="#323133" width="7.5" height="7.5"/>
	<rect x="187.324" y="209.951" fill="#323133" width="7.5" height="7.5"/>
</g>
</svg>
