<?xml version="1.0" encoding="utf-8"?>
<!-- Generator: Adobe Illustrator 16.0.0, SVG Export Plug-In . SVG Version: 6.00 Build 0)  -->
<!DOCTYPE svg PUBLIC "-//W3C//DTD SVG 1.1//EN" "http://www.w3.org/Graphics/SVG/1.1/DTD/svg11.dtd">
<svg version="1.1" id="Layer_1" xmlns="http://www.w3.org/2000/svg" xmlns:xlink="http://www.w3.org/1999/xlink" x="0px" y="0px"
	 width="300px" height="300px" viewBox="0 0 300 300" enable-background="new 0 0 300 300" xml:space="preserve">
<g>
	<rect x="123.75" y="82.561" fill="#6C6D70" width="7.5" height="7.5"/>
	<rect x="116.25" y="75.061" fill="#6C6D70" width="7.5" height="7.5"/>
	<rect x="123.75" y="75.061" fill="#858F8C" width="7.5" height="7.5"/>
	<rect x="116.25" y="82.561" fill="#858F8C" width="7.5" height="7.5"/>
	<rect x="108.75" y="82.561" fill="#858F8C" width="7.5" height="7.5"/>
	<rect x="131.25" y="82.561" fill="#6C6D70" width="7.5" height="7.5"/>
	<rect x="138.75" y="82.561" fill="#858F8C" width="7.5" height="7.5"/>
	<rect x="146.25" y="82.561" fill="#858F8C" width="7.5" height="7.5"/>
	<rect x="116.25" y="97.546" fill="#2F292B" width="7.5" height="7.5"/>
	<rect x="123.75" y="97.546" fill="#2F292B" width="7.5" height="7.5"/>
	<rect x="131.25" y="97.546" fill="#2F292B" width="7.5" height="7.5"/>
	<rect x="138.75" y="97.546" fill="#858F8C" width="7.5" height="7.5"/>
	<rect x="146.25" y="97.546" fill="#6C6D70" width="7.5" height="7.5"/>
	<rect x="153.75" y="97.546" fill="#858F8C" width="7.5" height="7.5"/>
	<rect x="116.25" y="105.046" fill="#EDD69F" width="7.5" height="7.5"/>
	<rect x="108.75" y="105.046" fill="#2F292B" width="7.5" height="7.5"/>
	<rect x="108.75" y="97.546" fill="#2F292B" width="7.5" height="7.5"/>
	<rect x="123.75" y="105.046" fill="#2F292B" width="7.5" height="7.5"/>
	<rect x="131.25" y="105.046" fill="#2F292B" width="7.5" height="7.5"/>
	<rect x="138.75" y="105.046" fill="#2F292B" width="7.5" height="7.5"/>
	<rect x="146.25" y="105.046" fill="#2F292B" width="7.5" height="7.5"/>
	<rect x="153.75" y="105.046" fill="#858F8C" width="7.5" height="7.5"/>
	<rect x="116.25" y="112.546" fill="#EDD69F" width="7.5" height="7.5"/>
	<rect x="123.75" y="112.546" fill="#EDD69F" width="7.5" height="7.5"/>
	<rect x="116.25" y="120.017" fill="#2F292B" width="7.5" height="7.5"/>
	<rect x="123.75" y="120.017" fill="#2F292B" width="7.5" height="7.5"/>
	<rect x="116.25" y="134.968" fill="#EDD69F" width="7.5" height="7.5"/>
	<rect x="123.75" y="134.968" fill="#4C2F1C" width="7.5" height="7.5"/>
	<rect x="116.25" y="142.483" fill="#EDD69F" width="7.5" height="7.5"/>
	<rect x="123.75" y="142.483" fill="#EDD69F" width="7.5" height="7.5"/>
	<rect x="116.25" y="149.968" fill="#EDD69F" width="7.5" height="7.5"/>
	<rect x="108.75" y="144.343" fill="#EDD69F" width="7.5" height="7.5"/>
	<rect x="101.25" y="144.343" fill="#EDD69F" width="7.5" height="7.5"/>
	<rect x="108.75" y="136.843" fill="#EDD69F" width="7.5" height="7.5"/>
	<rect x="123.75" y="149.968" fill="#EDD69F" width="7.5" height="7.5"/>
	<rect x="138.75" y="149.968" fill="#EDD69F" width="7.5" height="7.5"/>
	<rect x="131.25" y="149.968" fill="#EDD69F" width="7.5" height="7.5"/>
	<rect x="146.25" y="149.968" fill="#EDD69F" width="7.5" height="7.5"/>
	<rect x="161.25" y="149.968" fill="#EDD69F" width="7.5" height="7.5"/>
	<rect x="153.75" y="149.968" fill="#EDD69F" width="7.5" height="7.5"/>
	<rect x="138.75" y="157.454" fill="#FFFFFF" width="7.5" height="7.5"/>
	<rect x="131.25" y="157.454" fill="#FFFFFF" width="7.5" height="7.5"/>
	<rect x="146.25" y="157.454" fill="#FFFFFF" width="7.5" height="7.5"/>
	<rect x="153.75" y="157.454" fill="#C62C3D" width="7.5" height="7.5"/>
	<rect x="138.75" y="164.939" fill="#C62C3D" width="7.5" height="7.5"/>
	<rect x="131.25" y="164.939" fill="#C62C3D" width="7.5" height="7.5"/>
	<rect x="146.25" y="164.939" fill="#C62C3D" width="7.5" height="7.5"/>
	<rect x="153.75" y="164.939" fill="#EDD69F" width="7.5" height="7.5"/>
	<rect x="138.75" y="172.439" fill="#EDD69F" width="7.5" height="7.5"/>
	<rect x="131.25" y="172.439" fill="#EDD69F" width="7.5" height="7.5"/>
	<rect x="146.25" y="172.439" fill="#EDD69F" width="7.5" height="7.5"/>
	<rect x="138.75" y="179.939" fill="#EDD69F" width="7.5" height="7.5"/>
	<rect x="146.25" y="179.939" fill="#EDD69F" width="7.5" height="7.5"/>
	<rect x="138.75" y="187.439" fill="#2F292B" width="7.5" height="7.5"/>
	<rect x="146.25" y="187.439" fill="#2F292B" width="7.5" height="7.5"/>
	<rect x="153.75" y="179.939" fill="#EDD69F" width="7.5" height="7.5"/>
	<rect x="153.75" y="172.439" fill="#EDD69F" width="7.5" height="7.5"/>
	<rect x="161.25" y="172.439" fill="#EDD69F" width="7.5" height="7.5"/>
	<rect x="161.25" y="179.939" fill="#42607E" width="7.5" height="7.5"/>
	<rect x="168.75" y="179.939" fill="#42607E" width="7.5" height="7.5"/>
	<rect x="168.75" y="172.439" fill="#42607E" width="7.5" height="7.5"/>
	<rect x="176.25" y="179.939" fill="#42607E" width="7.5" height="7.5"/>
	<rect x="161.25" y="187.439" fill="#42607E" width="7.5" height="7.5"/>
	<rect x="153.75" y="187.439" fill="#2F292B" width="7.5" height="7.5"/>
	<rect x="131.25" y="187.439" fill="#42607E" width="7.5" height="7.5"/>
	<rect x="131.25" y="179.939" fill="#42607E" width="7.5" height="7.5"/>
	<rect x="123.75" y="179.939" fill="#42607E" width="7.5" height="7.5"/>
	<rect x="116.25" y="179.939" fill="#42607E" width="7.5" height="7.5"/>
	<rect x="123.75" y="187.439" fill="#42607E" width="7.5" height="7.5"/>
	<rect x="168.75" y="187.439" fill="#42607E" width="7.5" height="7.5"/>
	<rect x="176.25" y="187.439" fill="#7F95A5" width="7.5" height="7.5"/>
	<rect x="183.75" y="187.439" fill="#42607E" width="7.5" height="7.5"/>
	<rect x="191.25" y="187.439" fill="#42607E" width="7.5" height="7.5"/>
	<rect x="138.75" y="202.439" fill="#2F292B" width="7.5" height="7.5"/>
	<rect x="146.25" y="202.439" fill="#2F292B" width="7.5" height="7.5"/>
	<rect x="161.25" y="202.439" fill="#42607E" width="7.5" height="7.5"/>
	<rect x="153.75" y="202.439" fill="#2F292B" width="7.5" height="7.5"/>
	<rect x="131.25" y="202.439" fill="#42607E" width="7.5" height="7.5"/>
	<rect x="123.75" y="202.439" fill="#7F95A5" width="7.5" height="7.5"/>
	<rect x="116.25" y="202.439" fill="#7F95A5" width="7.5" height="7.5"/>
	<rect x="168.75" y="202.439" fill="#42607E" width="7.5" height="7.5"/>
	<rect x="176.25" y="202.439" fill="#7F95A5" width="7.5" height="7.5"/>
	<rect x="183.75" y="202.439" fill="#7F95A5" width="7.5" height="7.5"/>
	<rect x="191.25" y="202.439" fill="#7F95A5" width="7.5" height="7.5"/>
	<rect x="138.75" y="217.439" fill="#42607E" width="7.5" height="7.5"/>
	<rect x="146.25" y="217.439" fill="#42607E" width="7.5" height="7.5"/>
	<rect x="161.25" y="217.439" fill="#1B455E" width="7.5" height="7.5"/>
	<rect x="153.75" y="217.439" fill="#42607E" width="7.5" height="7.5"/>
	<rect x="131.25" y="217.439" fill="#1B455E" width="7.5" height="7.5"/>
	<rect x="123.75" y="217.439" fill="#42607E" width="7.5" height="7.5"/>
	<rect x="116.25" y="217.439" fill="#7F95A5" width="7.5" height="7.5"/>
	<rect x="168.75" y="217.439" fill="#42607E" width="7.5" height="7.5"/>
	<rect x="176.25" y="217.439" fill="#7F95A5" width="7.5" height="7.5"/>
	<rect x="183.75" y="217.439" fill="#7F95A5" width="7.5" height="7.5"/>
	<rect x="191.25" y="217.439" fill="#7F95A5" width="7.5" height="7.5"/>
	<rect x="138.75" y="194.939" fill="#FFFFFF" width="7.5" height="7.5"/>
	<rect x="146.25" y="194.939" fill="#FFFFFF" width="7.5" height="7.5"/>
	<rect x="161.25" y="194.939" fill="#42607E" width="7.5" height="7.5"/>
	<rect x="153.75" y="194.939" fill="#FFFFFF" width="7.5" height="7.5"/>
	<rect x="131.25" y="194.939" fill="#42607E" width="7.5" height="7.5"/>
	<rect x="123.75" y="194.939" fill="#7F95A5" width="7.5" height="7.5"/>
	<rect x="116.25" y="194.939" fill="#42607E" width="7.5" height="7.5"/>
	<rect x="168.75" y="194.939" fill="#42607E" width="7.5" height="7.5"/>
	<rect x="176.25" y="194.939" fill="#7F95A5" width="7.5" height="7.5"/>
	<rect x="183.75" y="194.939" fill="#7F95A5" width="7.5" height="7.5"/>
	<rect x="191.25" y="194.939" fill="#7F95A5" width="7.5" height="7.5"/>
	<rect x="138.75" y="209.939" fill="#42607E" width="7.5" height="7.5"/>
	<rect x="146.25" y="209.939" fill="#FFFFFF" width="7.5" height="7.5"/>
	<rect x="161.25" y="209.939" fill="#1B455E" width="7.5" height="7.5"/>
	<rect x="153.75" y="209.939" fill="#42607E" width="7.5" height="7.5"/>
	<rect x="131.25" y="209.939" fill="#1B455E" width="7.5" height="7.5"/>
	<rect x="123.75" y="209.939" fill="#1B455E" width="7.5" height="7.5"/>
	<rect x="116.25" y="209.939" fill="#7F95A5" width="7.5" height="7.5"/>
	<rect x="168.75" y="209.939" fill="#1B455E" width="7.5" height="7.5"/>
	<rect x="176.25" y="209.939" fill="#7F95A5" width="7.5" height="7.5"/>
	<rect x="183.75" y="209.939" fill="#7F95A5" width="7.5" height="7.5"/>
	<rect x="191.25" y="209.939" fill="#7F95A5" width="7.5" height="7.5"/>
	<rect x="176.25" y="172.439" fill="#42607E" width="7.5" height="7.5"/>
	<rect x="183.75" y="172.439" fill="#42607E" width="7.5" height="7.5"/>
	<rect x="168.75" y="149.968" fill="#EDD69F" width="7.5" height="7.5"/>
	<rect x="161.25" y="142.483" fill="#EDD69F" width="7.5" height="7.5"/>
	<rect x="168.75" y="142.483" fill="#EDD69F" width="7.5" height="7.5"/>
	<rect x="161.25" y="164.939" fill="#EDD69F" width="7.5" height="7.5"/>
	<rect x="168.75" y="164.939" fill="#EDD69F" width="7.5" height="7.5"/>
	<rect x="161.25" y="157.454" fill="#EDD69F" width="7.5" height="7.5"/>
	<rect x="168.75" y="157.454" fill="#EDD69F" width="7.5" height="7.5"/>
	<rect x="161.25" y="134.968" fill="#2F292B" width="7.5" height="7.5"/>
	<rect x="168.75" y="134.968" fill="#EDD69F" width="7.5" height="7.5"/>
	<rect x="161.25" y="120.017" fill="#2F292B" width="7.5" height="7.5"/>
	<rect x="168.75" y="120.017" fill="#2F292B" width="7.5" height="7.5"/>
	<rect x="176.25" y="134.968" fill="#EDD69F" width="7.5" height="7.5"/>
	<rect x="176.25" y="127.483" fill="#EDD69F" width="7.5" height="7.5"/>
	<rect x="131.25" y="112.546" fill="#2F292B" width="7.5" height="7.5"/>
	<rect x="138.75" y="112.546" fill="#2F292B" width="7.5" height="7.5"/>
	<rect x="146.25" y="112.546" fill="#2F292B" width="7.5" height="7.5"/>
	<rect x="153.75" y="112.546" fill="#2F292B" width="7.5" height="7.5"/>
	<rect x="131.25" y="120.017" fill="#EDD69F" width="7.5" height="7.5"/>
	<rect x="138.75" y="120.017" fill="#EDD69F" width="7.5" height="7.5"/>
	<rect x="146.25" y="120.017" fill="#2F292B" width="7.5" height="7.5"/>
	<rect x="153.75" y="120.017" fill="#2F292B" width="7.5" height="7.5"/>
	<rect x="116.25" y="127.483" fill="#EDD69F" width="7.5" height="7.5"/>
	<rect x="123.75" y="127.483" fill="#EDD69F" width="7.5" height="7.5"/>
	<rect x="161.25" y="127.483" fill="#2F292B" width="7.5" height="7.5"/>
	<rect x="168.75" y="127.483" fill="#2F292B" width="7.5" height="7.5"/>
	<rect x="131.25" y="127.483" fill="#EDD69F" width="7.5" height="7.5"/>
	<rect x="138.75" y="127.483" fill="#EDD69F" width="7.5" height="7.5"/>
	<rect x="146.25" y="127.483" fill="#EDD69F" width="7.5" height="7.5"/>
	<rect x="153.75" y="127.483" fill="#EDD69F" width="7.5" height="7.5"/>
	<rect x="131.25" y="134.968" fill="#FFFFFF" width="7.5" height="7.5"/>
	<rect x="138.75" y="134.968" fill="#EDD69F" width="7.5" height="7.5"/>
	<rect x="146.25" y="134.968" fill="#EDD69F" width="7.5" height="7.5"/>
	<rect x="153.75" y="134.968" fill="#EDD69F" width="7.5" height="7.5"/>
	<rect x="131.25" y="142.468" fill="#EDD69F" width="7.5" height="7.5"/>
	<rect x="138.75" y="142.468" fill="#EDD69F" width="7.5" height="7.5"/>
	<rect x="146.25" y="142.468" fill="#EDD69F" width="7.5" height="7.5"/>
	<rect x="153.75" y="142.468" fill="#EDD69F" width="7.5" height="7.5"/>
	<rect x="161.25" y="97.546" fill="#858F8C" width="7.5" height="7.5"/>
	<rect x="168.75" y="97.546" fill="#A2A4A6" width="7.5" height="7.5"/>
	<rect x="116.25" y="90.061" fill="#2F292B" width="7.5" height="7.5"/>
	<rect x="123.75" y="90.061" fill="#2F292B" width="7.5" height="7.5"/>
	<rect x="131.25" y="90.061" fill="#858F8C" width="7.5" height="7.5"/>
	<rect x="138.75" y="90.061" fill="#6C6D70" width="7.5" height="7.5"/>
	<rect x="146.25" y="90.061" fill="#858F8C" width="7.5" height="7.5"/>
	<rect x="153.75" y="90.061" fill="#858F8C" width="7.5" height="7.5"/>
	<rect x="161.25" y="90.061" fill="#A2A4A6" width="7.5" height="7.5"/>
	<rect x="153.75" y="82.561" fill="#A2A4A6" width="7.5" height="7.5"/>
	<rect x="138.75" y="75.061" fill="#858F8C" width="7.5" height="7.5"/>
	<rect x="131.25" y="75.061" fill="#858F8C" width="7.5" height="7.5"/>
	<rect x="161.25" y="82.561" fill="#A2A4A6" width="7.5" height="7.5"/>
	<rect x="168.75" y="90.061" fill="#A2A4A6" width="7.5" height="7.5"/>
	<rect x="176.25" y="97.546" fill="#A2A4A6" width="7.5" height="7.5"/>
	<rect x="176.25" y="90.061" fill="#A2A4A6" width="7.5" height="7.5"/>
	<rect x="161.25" y="105.046" fill="#858F8C" width="7.5" height="7.5"/>
	<rect x="168.75" y="105.046" fill="#858F8C" width="7.5" height="7.5"/>
	<rect x="161.25" y="112.546" fill="#858F8C" width="7.5" height="7.5"/>
	<rect x="168.75" y="112.546" fill="#858F8C" width="7.5" height="7.5"/>
	<rect x="176.25" y="120.017" fill="#2F292B" width="7.5" height="7.5"/>
	<rect x="176.25" y="105.046" fill="#858F8C" width="7.5" height="7.5"/>
	<rect x="176.25" y="112.546" fill="#858F8C" width="7.5" height="7.5"/>
</g>
</svg>
