<?xml version="1.0" encoding="utf-8"?>
<!-- Generator: Adobe Illustrator 16.0.0, SVG Export Plug-In . SVG Version: 6.00 Build 0)  -->
<!DOCTYPE svg PUBLIC "-//W3C//DTD SVG 1.1//EN" "http://www.w3.org/Graphics/SVG/1.1/DTD/svg11.dtd">
<svg version="1.1" id="Layer_1" xmlns="http://www.w3.org/2000/svg" xmlns:xlink="http://www.w3.org/1999/xlink" x="0px" y="0px"
	 width="300px" height="300px" viewBox="0 0 300 300" enable-background="new 0 0 300 300" xml:space="preserve">
<g>
	<rect x="120.191" y="93.053" fill="#2F292B" width="6" height="6"/>
	<rect x="120.191" y="99.053" fill="#525255" width="6" height="6"/>
	<rect x="114.191" y="93.053" fill="#2F292B" width="6" height="6"/>
	<rect x="114.191" y="99.053" fill="#525255" width="6" height="6"/>
	<rect x="126.191" y="99.053" fill="#2F292B" width="6" height="6"/>
	<rect x="126.191" y="93.049" fill="#2F292B" width="6" height="6"/>
	<rect x="132.191" y="99.053" fill="#6C6D70" width="6" height="6"/>
	<rect x="138.191" y="99.053" fill="#2F292B" width="6" height="6"/>
	<rect x="144.191" y="99.053" fill="#2F292B" width="6" height="6"/>
	<rect x="150.191" y="99.053" fill="#2F292B" width="6" height="6"/>
	<rect x="120.191" y="111.037" fill="#EEE1BF" width="6" height="6"/>
	<rect x="126.191" y="111.037" fill="#EEE1BF" width="6" height="6"/>
	<rect x="132.191" y="111.037" fill="#EEE1BF" width="6" height="6"/>
	<rect x="138.191" y="111.037" fill="#EEE1BF" width="6" height="6"/>
	<rect x="144.191" y="111.037" fill="#EDD69F" width="6" height="6"/>
	<rect x="150.191" y="111.037" fill="#6C6D70" width="6" height="6"/>
	<rect x="120.191" y="117.037" fill="#6E5D55" width="6" height="6"/>
	<rect x="126.191" y="117.037" fill="#2F292B" width="6" height="6"/>
	<rect x="132.191" y="117.037" fill="#2F292B" width="6" height="6"/>
	<rect x="138.191" y="117.037" fill="#EDD69F" width="6" height="6"/>
	<rect x="144.191" y="117.037" fill="#EDD69F" width="6" height="6"/>
	<rect x="150.191" y="117.037" fill="#EDD69F" width="6" height="6"/>
	<rect x="120.191" y="123.037" fill="#EDD69F" width="6" height="6"/>
	<rect x="126.191" y="123.037" fill="#EDD69F" width="6" height="6"/>
	<rect x="120.191" y="129.014" fill="#D8CBB7" width="6" height="6"/>
	<rect x="126.191" y="129.014" fill="#734A1D" width="6" height="6"/>
	<rect x="120.191" y="135.006" fill="#D8CBB7" width="6" height="6"/>
	<rect x="126.191" y="135.006" fill="#EDD69F" width="6" height="6"/>
	<rect x="120.191" y="141.014" fill="#EEE1BF" width="6" height="6"/>
	<rect x="126.191" y="141.014" fill="#EDD69F" width="6" height="6"/>
	<rect x="120.191" y="147.006" fill="#D5CBAD" width="6" height="6"/>
	<rect x="126.191" y="147.006" fill="#D5CBAD" width="6" height="6"/>
	<rect x="138.191" y="147.006" fill="#D5CBAD" width="6" height="6"/>
	<rect x="132.191" y="147.006" fill="#D5CBAD" width="6" height="6"/>
	<rect x="144.191" y="147.006" fill="#D5CBAD" width="6" height="6"/>
	<rect x="156.191" y="147.006" fill="#EDD69F" width="6" height="6"/>
	<rect x="150.191" y="147.006" fill="#EEE1BF" width="6" height="6"/>
	<rect x="138.191" y="152.99" fill="#FFFFFF" width="6" height="6"/>
	<rect x="132.191" y="152.99" fill="#FFFFFF" width="6" height="6"/>
	<rect x="144.191" y="152.99" fill="#FFFFFF" width="6" height="6"/>
	<rect x="150.191" y="152.99" fill="#C7293B" width="6" height="6"/>
	<rect x="138.191" y="158.982" fill="#C7293B" width="6" height="6"/>
	<rect x="132.191" y="158.982" fill="#C7293B" width="6" height="6"/>
	<rect x="144.191" y="158.982" fill="#C7293B" width="6" height="6"/>
	<rect x="150.191" y="158.982" fill="#D5CBAD" width="6" height="6"/>
	<rect x="138.191" y="164.982" fill="#D5CBAD" width="6" height="6"/>
	<rect x="132.191" y="164.982" fill="#C2B99F" width="6" height="6"/>
	<rect x="144.191" y="164.982" fill="#D5CBAD" width="6" height="6"/>
	<rect x="150.191" y="164.982" fill="#D5CBAD" width="6" height="6"/>
	<rect x="156.191" y="164.982" fill="#EDD69F" width="6" height="6"/>
	<rect x="144.191" y="170.955" fill="#EEE1BF" width="6" height="6"/>
	<rect x="150.191" y="170.955" fill="#EDD69F" width="6" height="6"/>
	<rect x="156.191" y="170.955" fill="#EDD69F" width="6" height="6"/>
	<rect x="162.191" y="164.982" fill="#EEE1BF" width="6" height="6"/>
	<rect x="162.191" y="170.955" fill="#EEE1BF" width="6" height="6"/>
	<rect x="162.191" y="147.006" fill="#D5CBAD" width="6" height="6"/>
	<rect x="156.191" y="141.014" fill="#EDD69F" width="6" height="6"/>
	<rect x="162.191" y="141.014" fill="#EDD69F" width="6" height="6"/>
	<rect x="156.191" y="158.982" fill="#EDD69F" width="6" height="6"/>
	<rect x="162.191" y="158.982" fill="#D5CBAD" width="6" height="6"/>
	<rect x="156.191" y="152.99" fill="#EDD69F" width="6" height="6"/>
	<rect x="162.191" y="152.99" fill="#D5CBAD" width="6" height="6"/>
	<rect x="156.191" y="135.006" fill="#2F292B" width="6" height="6"/>
	<rect x="162.191" y="135.006" fill="#EDD69F" width="6" height="6"/>
	<rect x="156.191" y="129.014" fill="#EDD69F" width="6" height="6"/>
	<rect x="162.191" y="129.014" fill="#C2B99F" width="6" height="6"/>
	<rect x="168.191" y="135.006" fill="#EDD69F" width="6" height="6"/>
	<rect x="168.191" y="129.014" fill="#EDD69F" width="6" height="6"/>
	<rect x="132.191" y="123.037" fill="#EDD69F" width="6" height="6"/>
	<rect x="138.191" y="123.037" fill="#2F292B" width="6" height="6"/>
	<rect x="144.191" y="123.037" fill="#EDD69F" width="6" height="6"/>
	<rect x="150.191" y="123.037" fill="#2F292B" width="6" height="6"/>
	<rect x="132.191" y="129.014" fill="#FFFFFF" width="6" height="6"/>
	<rect x="138.191" y="129.014" fill="#EDD69F" width="6" height="6"/>
	<rect x="144.191" y="129.014" fill="#EDD69F" width="6" height="6"/>
	<rect x="150.191" y="129.014" fill="#EDD69F" width="6" height="6"/>
	<rect x="132.191" y="135.006" fill="#EDD69F" width="6" height="6"/>
	<rect x="138.191" y="135.006" fill="#EDD69F" width="6" height="6"/>
	<rect x="144.191" y="135.006" fill="#EDD69F" width="6" height="6"/>
	<rect x="150.191" y="135.006" fill="#EDD69F" width="6" height="6"/>
	<rect x="132.191" y="141.006" fill="#EDD69F" width="6" height="6"/>
	<rect x="138.191" y="141.006" fill="#EEE1BF" width="6" height="6"/>
	<rect x="144.191" y="141.006" fill="#EEE1BF" width="6" height="6"/>
	<rect x="150.191" y="141.006" fill="#EDD69F" width="6" height="6"/>
	<rect x="156.191" y="111.037" fill="#2F292B" width="6" height="6"/>
	<rect x="162.191" y="111.037" fill="#2F292B" width="6" height="6"/>
	<rect x="120.191" y="105.053" fill="#EEE1BF" width="6" height="6"/>
	<rect x="120.191" y="87.049" fill="#2F292B" width="6" height="6"/>
	<rect x="126.191" y="87.045" fill="#2F292B" width="6" height="6"/>
	<rect x="132.191" y="87.045" fill="#2F292B" width="6" height="6"/>
	<rect x="126.191" y="105.053" fill="#EEE1BF" width="6" height="6"/>
	<rect x="132.191" y="105.053" fill="#EEE1BF" width="6" height="6"/>
	<rect x="138.191" y="105.053" fill="#EEE1BF" width="6" height="6"/>
	<rect x="144.191" y="105.053" fill="#EEE1BF" width="6" height="6"/>
	<rect x="150.191" y="105.053" fill="#EDD69F" width="6" height="6"/>
	<rect x="156.191" y="105.053" fill="#2F292B" width="6" height="6"/>
	<rect x="156.191" y="99.053" fill="#2F292B" width="6" height="6"/>
	<rect x="162.191" y="105.053" fill="#2F292B" width="6" height="6"/>
	<rect x="162.191" y="99.053" fill="#2F292B" width="6" height="6"/>
	<rect x="162.191" y="93.049" fill="#2F292B" width="6" height="6"/>
	<rect x="167.809" y="105.053" fill="#2F292B" width="6" height="6"/>
	<rect x="167.809" y="99.053" fill="#2F292B" width="6" height="6"/>
	<rect x="132.191" y="93.053" fill="#2F292B" width="6" height="6"/>
	<rect x="138.191" y="93.053" fill="#2F292B" width="6" height="6"/>
	<rect x="144.191" y="93.053" fill="#2F292B" width="6" height="6"/>
	<rect x="150.191" y="93.053" fill="#2F292B" width="6" height="6"/>
	<rect x="156.191" y="93.053" fill="#6C6D70" width="6" height="6"/>
	<rect x="156.191" y="117.037" fill="#2F292B" width="6" height="6"/>
	<rect x="150.191" y="117.037" fill="#6C6D70" width="6" height="6"/>
	<rect x="156.191" y="129.014" fill="#2F292B" width="6" height="6"/>
	<rect x="162.191" y="117.037" fill="#2F292B" width="6" height="6"/>
	<rect x="156.191" y="123.037" fill="#2F292B" width="6" height="6"/>
	<rect x="162.191" y="123.037" fill="#EEE1BF" width="6" height="6"/>
	<rect x="168.191" y="111.037" fill="#6C6D70" width="6" height="6"/>
	<rect x="168.191" y="117.037" fill="#2F292B" width="6" height="6"/>
	<rect x="168.191" y="123.037" fill="#EEE1BF" width="6" height="6"/>
	<rect x="114.191" y="140.986" fill="#EDD69F" width="6" height="6"/>
	<rect x="108.191" y="140.986" fill="#EDD69F" width="6" height="6"/>
	<rect x="114.191" y="134.986" fill="#EDD69F" width="6" height="6"/>
	<rect x="114.191" y="129.014" fill="#EDD69F" width="6" height="6"/>
	<rect x="143.809" y="176.943" fill="#EDD69F" width="6" height="6"/>
	<rect x="149.809" y="176.943" fill="#EEE1BF" width="6" height="6"/>
	<rect x="155.809" y="176.943" fill="#EDD69F" width="6" height="6"/>
	<rect x="143.809" y="182.955" fill="#EDD69F" width="6" height="6"/>
	<rect x="149.809" y="182.955" fill="#EDD69F" width="6" height="6"/>
	<rect x="167.809" y="176.955" fill="#D7E4EB" width="6" height="6"/>
	<rect x="167.809" y="170.955" fill="#D7E4EB" width="6" height="6"/>
	<rect x="173.809" y="176.955" fill="#9CB6C8" width="6" height="6"/>
	<rect x="173.809" y="170.955" fill="#D7E4EB" width="6" height="6"/>
	<rect x="179.809" y="170.955" fill="#C3D2E0" width="6" height="6"/>
	<rect x="161.809" y="182.955" fill="#D7E4EB" width="6" height="6"/>
	<rect x="161.809" y="176.955" fill="#EDD69F" width="6" height="6"/>
	<rect x="155.809" y="182.955" fill="#EDD69F" width="6" height="6"/>
	<rect x="137.809" y="182.955" fill="#D7E4EB" width="6" height="6"/>
	<rect x="131.809" y="182.955" fill="#9CB6C8" width="6" height="6"/>
	<rect x="131.809" y="176.955" fill="#D7E4EB" width="6" height="6"/>
	<rect x="137.809" y="176.955" fill="#D7E4EB" width="6" height="6"/>
	<rect x="125.809" y="176.955" fill="#C3D2E0" width="6" height="6"/>
	<rect x="167.809" y="182.955" fill="#9CB6C8" width="6" height="6"/>
	<rect x="173.809" y="182.955" fill="#C3D2E0" width="6" height="6"/>
	<rect x="179.809" y="182.955" fill="#C3D2E0" width="6" height="6"/>
	<rect x="143.809" y="194.955" fill="#FFFFFF" width="6" height="6"/>
	<rect x="149.809" y="194.955" fill="#FFFFFF" width="6" height="6"/>
	<rect x="161.809" y="194.955" fill="#D7E4EB" width="6" height="6"/>
	<rect x="155.809" y="194.955" fill="#FFFFFF" width="6" height="6"/>
	<rect x="137.809" y="194.955" fill="#D7E4EB" width="6" height="6"/>
	<rect x="137.809" y="200.955" fill="#C3D2E0" width="6" height="6"/>
	<rect x="131.809" y="194.955" fill="#9CB6C8" width="6" height="6"/>
	<rect x="125.809" y="194.955" fill="#C3D2E0" width="6" height="6"/>
	<rect x="167.809" y="194.955" fill="#9CB6C8" width="6" height="6"/>
	<rect x="173.809" y="194.955" fill="#C3D2E0" width="6" height="6"/>
	<rect x="179.809" y="194.955" fill="#C3D2E0" width="6" height="6"/>
	<rect x="185.809" y="194.955" fill="#C3D2E0" width="6" height="6"/>
	<rect x="143.809" y="206.955" fill="#C3D2E0" width="6" height="6"/>
	<rect x="149.809" y="206.955" fill="#D7E4EB" width="6" height="6"/>
	<rect x="161.809" y="206.955" fill="#C3D2E0" width="6" height="6"/>
	<rect x="155.809" y="206.955" fill="#C3D2E0" width="6" height="6"/>
	<rect x="137.809" y="206.955" fill="#C3D2E0" width="6" height="6"/>
	<rect x="131.809" y="206.955" fill="#C3D2E0" width="6" height="6"/>
	<rect x="125.809" y="206.955" fill="#C3D2E0" width="6" height="6"/>
	<rect x="167.809" y="206.955" fill="#C3D2E0" width="6" height="6"/>
	<rect x="173.809" y="206.955" fill="#C3D2E0" width="6" height="6"/>
	<rect x="179.809" y="206.955" fill="#C3D2E0" width="6" height="6"/>
	<rect x="185.809" y="206.955" fill="#C3D2E0" width="6" height="6"/>
	<rect x="143.809" y="188.955" fill="#FFFFFF" width="6" height="6"/>
	<rect x="149.809" y="188.955" fill="#EDD69F" width="6" height="6"/>
	<rect x="161.809" y="188.955" fill="#D7E4EB" width="6" height="6"/>
	<rect x="155.809" y="188.955" fill="#FFFFFF" width="6" height="6"/>
	<rect x="137.809" y="188.955" fill="#D7E4EB" width="6" height="6"/>
	<rect x="131.809" y="188.955" fill="#9CB6C8" width="6" height="6"/>
	<rect x="125.809" y="188.955" fill="#C3D2E0" width="6" height="6"/>
	<rect x="167.809" y="188.955" fill="#9CB6C8" width="6" height="6"/>
	<rect x="173.809" y="188.955" fill="#C3D2E0" width="6" height="6"/>
	<rect x="179.809" y="188.955" fill="#C3D2E0" width="6" height="6"/>
	<rect x="185.809" y="188.955" fill="#C3D2E0" width="6" height="6"/>
	<rect x="143.809" y="200.955" fill="#D7E4EB" width="6" height="6"/>
	<rect x="149.809" y="200.955" fill="#D7E4EB" width="6" height="6"/>
	<rect x="161.809" y="200.955" fill="#9CB6C8" width="6" height="6"/>
	<rect x="155.809" y="200.955" fill="#D7E4EB" width="6" height="6"/>
	<rect x="137.809" y="200.955" fill="#9CB6C8" width="6" height="6"/>
	<rect x="131.809" y="200.955" fill="#C3D2E0" width="6" height="6"/>
	<rect x="125.809" y="200.955" fill="#C3D2E0" width="6" height="6"/>
	<rect x="119.809" y="194.955" fill="#C3D2E0" width="6" height="6"/>
	<rect x="119.809" y="206.955" fill="#C3D2E0" width="6" height="6"/>
	<rect x="119.809" y="200.955" fill="#C3D2E0" width="6" height="6"/>
	<rect x="167.809" y="200.955" fill="#C3D2E0" width="6" height="6"/>
	<rect x="173.809" y="200.955" fill="#C3D2E0" width="6" height="6"/>
	<rect x="179.809" y="200.955" fill="#C3D2E0" width="6" height="6"/>
	<rect x="185.809" y="200.955" fill="#C3D2E0" width="6" height="6"/>
</g>
</svg>
