<?xml version="1.0" encoding="utf-8"?>
<!-- Generator: Adobe Illustrator 16.0.0, SVG Export Plug-In . SVG Version: 6.00 Build 0)  -->
<!DOCTYPE svg PUBLIC "-//W3C//DTD SVG 1.1//EN" "http://www.w3.org/Graphics/SVG/1.1/DTD/svg11.dtd">
<svg version="1.1" id="Layer_1" xmlns="http://www.w3.org/2000/svg" xmlns:xlink="http://www.w3.org/1999/xlink" x="0px" y="0px"
	 width="300px" height="300px" viewBox="0 0 300 300" enable-background="new 0 0 300 300" xml:space="preserve">
<g>
	<rect x="126" y="114.027" fill="#F1D7C4" width="6" height="6"/>
	<rect x="132" y="114.027" fill="#F1D7C4" width="6" height="6"/>
	<rect x="138" y="114.027" fill="#F0D0B4" width="6" height="6"/>
	<rect x="144" y="114.027" fill="#EFC9B0" width="6" height="6"/>
	<rect x="150" y="114.023" fill="#D8DADA" width="6" height="6"/>
	<rect x="120" y="120.027" fill="#E7BEA9" width="6" height="6"/>
	<rect x="126" y="120.027" fill="#808083" width="6" height="6"/>
	<rect x="132" y="120.023" fill="#919295" width="6" height="6"/>
	<rect x="138" y="120.023" fill="#F0D0B4" width="6" height="6"/>
	<rect x="144" y="120.023" fill="#F0D0B4" width="6" height="6"/>
	<rect x="150" y="120.027" fill="#E9E9EB" width="6" height="6"/>
	<rect x="120" y="126.027" fill="#F0D0B4" width="6" height="6"/>
	<rect x="126" y="126.027" fill="#E7BEA9" width="6" height="6"/>
	<rect x="120" y="132.004" fill="#F0D0B4" width="6" height="6"/>
	<rect x="126" y="132.004" fill="#7F95A5" width="6" height="6"/>
	<rect x="120" y="137.996" fill="#F0D0B4" width="6" height="6"/>
	<rect x="126" y="137.996" fill="#E7BEA9" width="6" height="6"/>
	<rect x="120" y="144.004" fill="#F0D0B4" width="6" height="6"/>
	<rect x="126" y="144.004" fill="#F0D0B4" width="6" height="6"/>
	<rect x="120" y="149.988" fill="#F0D0B4" width="6" height="6"/>
	<rect x="114" y="144.004" fill="#F0D0B4" width="6" height="6"/>
	<rect x="114" y="138.004" fill="#F0D0B4" width="6" height="6"/>
	<rect x="126" y="149.988" fill="#F0D0B4" width="6" height="6"/>
	<rect x="138" y="149.988" fill="#CFAB9A" width="6" height="6"/>
	<rect x="132" y="149.988" fill="#F0D0B4" width="6" height="6"/>
	<rect x="144" y="149.988" fill="#E7BEA9" width="6" height="6"/>
	<rect x="156" y="149.988" fill="#F0D0B4" width="6" height="6"/>
	<rect x="150" y="149.988" fill="#F0D0B4" width="6" height="6"/>
	<rect x="138" y="155.977" fill="#FFFFFF" width="6" height="6"/>
	<rect x="132" y="155.977" fill="#FFFFFF" width="6" height="6"/>
	<rect x="126" y="155.977" fill="#FFFFFF" width="6" height="6"/>
	<rect x="144" y="155.977" fill="#CFAB9A" width="6" height="6"/>
	<rect x="150" y="155.977" fill="#F0D0B4" width="6" height="6"/>
	<rect x="138" y="161.965" fill="#BB807B" width="6" height="6"/>
	<rect x="132" y="161.965" fill="#BB807B" width="6" height="6"/>
	<rect x="144" y="161.965" fill="#E7BEA9" width="6" height="6"/>
	<rect x="150" y="161.965" fill="#F0D0B4" width="6" height="6"/>
	<rect x="138" y="167.965" fill="#F0D0B4" width="6" height="6"/>
	<rect x="132" y="167.965" fill="#F0D0B4" width="6" height="6"/>
	<rect x="126" y="161.965" fill="#BB807B" width="6" height="6"/>
	<rect x="126" y="167.965" fill="#F0D0B4" width="6" height="6"/>
	<rect x="144" y="167.965" fill="#F0D0B4" width="6" height="6"/>
	<rect x="138" y="173.965" fill="#CFAB9A" width="6" height="6"/>
	<rect x="144" y="173.965" fill="#F0D0B4" width="6" height="6"/>
	<rect x="138" y="179.965" fill="#F0D0B4" width="6" height="6"/>
	<rect x="144" y="179.965" fill="#CFAB9A" width="6" height="6"/>
	<rect x="150" y="173.965" fill="#F0D0B4" width="6" height="6"/>
	<rect x="150" y="167.965" fill="#F0D0B4" width="6" height="6"/>
	<rect x="156" y="167.965" fill="#E7BEA9" width="6" height="6"/>
	<rect x="156" y="173.965" fill="#F0D0B4" width="6" height="6"/>
	<rect x="162" y="173.965" fill="#2F292B" width="6" height="6"/>
	<rect x="168" y="173.965" fill="#2F292B" width="6" height="6"/>
	<rect x="156" y="179.965" fill="#F0D0B4" width="6" height="6"/>
	<rect x="150" y="179.965" fill="#F0D0B4" width="6" height="6"/>
	<rect x="132" y="179.965" fill="#FFFFFF" width="6" height="6"/>
	<rect x="126" y="179.965" fill="#2F292B" width="6" height="6"/>
	<rect x="162" y="179.965" fill="#FFFFFF" width="6" height="6"/>
	<rect x="168" y="179.965" fill="#2F292B" width="6" height="6"/>
	<rect x="174" y="179.965" fill="#2F292B" width="6" height="6"/>
	<rect x="138" y="191.965" fill="#FFFFFF" width="6" height="6"/>
	<rect x="144" y="191.965" fill="#8A281C" width="6" height="6"/>
	<rect x="156" y="191.965" fill="#FFFFFF" width="6" height="6"/>
	<rect x="150" y="191.965" fill="#FFFFFF" width="6" height="6"/>
	<rect x="132" y="191.965" fill="#FFFFFF" width="6" height="6"/>
	<rect x="132" y="197.965" fill="#2F292B" width="6" height="6"/>
	<rect x="126" y="191.965" fill="#2F292B" width="6" height="6"/>
	<rect x="120" y="191.965" fill="#525255" width="6" height="6"/>
	<rect x="162" y="191.965" fill="#FFFFFF" width="6" height="6"/>
	<rect x="168" y="191.965" fill="#525255" width="6" height="6"/>
	<rect x="174" y="191.965" fill="#2F292B" width="6" height="6"/>
	<rect x="180" y="191.965" fill="#2F292B" width="6" height="6"/>
	<rect x="138" y="203.965" fill="#FFFFFF" width="6" height="6"/>
	<rect x="144" y="203.965" fill="#8A281C" width="6" height="6"/>
	<rect x="156" y="203.965" fill="#525255" width="6" height="6"/>
	<rect x="150" y="203.965" fill="#FFFFFF" width="6" height="6"/>
	<rect x="132" y="203.965" fill="#525255" width="6" height="6"/>
	<rect x="126" y="203.965" fill="#2F292B" width="6" height="6"/>
	<rect x="120" y="203.965" fill="#2F292B" width="6" height="6"/>
	<rect x="162" y="203.965" fill="#2F292B" width="6" height="6"/>
	<rect x="168" y="203.965" fill="#2F292B" width="6" height="6"/>
	<rect x="174" y="203.965" fill="#2F292B" width="6" height="6"/>
	<rect x="180" y="203.965" fill="#525255" width="6" height="6"/>
	<rect x="138" y="185.965" fill="#8A281C" width="6" height="6"/>
	<rect x="144" y="185.965" fill="#C7293B" width="6" height="6"/>
	<rect x="156" y="185.965" fill="#FFFFFF" width="6" height="6"/>
	<rect x="150" y="185.965" fill="#8A281C" width="6" height="6"/>
	<rect x="132" y="185.965" fill="#FFFFFF" width="6" height="6"/>
	<rect x="126" y="185.965" fill="#2F292B" width="6" height="6"/>
	<rect x="120" y="185.965" fill="#2F292B" width="6" height="6"/>
	<rect x="162" y="185.965" fill="#FFFFFF" width="6" height="6"/>
	<rect x="168" y="185.965" fill="#2F292B" width="6" height="6"/>
	<rect x="174" y="185.965" fill="#525255" width="6" height="6"/>
	<rect x="180" y="185.965" fill="#2F292B" width="6" height="6"/>
	<rect x="138" y="197.965" fill="#E9E9EB" width="6" height="6"/>
	<rect x="144" y="197.965" fill="#C7293B" width="6" height="6"/>
	<rect x="156" y="197.965" fill="#2F292B" width="6" height="6"/>
	<rect x="150" y="197.965" fill="#E9E9EB" width="6" height="6"/>
	<rect x="132" y="197.965" fill="#FFFFFF" width="6" height="6"/>
	<rect x="126" y="197.965" fill="#525255" width="6" height="6"/>
	<rect x="120" y="197.965" fill="#2F292B" width="6" height="6"/>
	<rect x="114" y="191.965" fill="#2F292B" width="6" height="6"/>
	<rect x="114" y="185.965" fill="#525255" width="6" height="6"/>
	<rect x="114" y="203.965" fill="#525255" width="6" height="6"/>
	<rect x="114" y="197.965" fill="#2F292B" width="6" height="6"/>
	<rect x="108" y="191.965" fill="#2F292B" width="6" height="6"/>
	<rect x="108" y="203.965" fill="#2F292B" width="6" height="6"/>
	<rect x="108" y="197.965" fill="#2F292B" width="6" height="6"/>
	<rect x="162" y="197.965" fill="#FFFFFF" width="6" height="6"/>
	<rect x="168" y="197.965" fill="#2F292B" width="6" height="6"/>
	<rect x="174" y="197.965" fill="#2F292B" width="6" height="6"/>
	<rect x="180" y="197.965" fill="#2F292B" width="6" height="6"/>
	<rect x="186" y="191.965" fill="#2F292B" width="6" height="6"/>
	<rect x="186" y="203.965" fill="#2F292B" width="6" height="6"/>
	<rect x="186" y="197.965" fill="#2F292B" width="6" height="6"/>
	<rect x="162" y="149.988" fill="#CFAB9A" width="6" height="6"/>
	<rect x="156" y="144" fill="#CFAB9A" width="6" height="6"/>
	<rect x="162" y="144" fill="#F0D0B4" width="6" height="6"/>
	<rect x="156" y="161.965" fill="#F0D0B4" width="6" height="6"/>
	<rect x="162" y="161.965" fill="#E7BEA9" width="6" height="6"/>
	<rect x="156" y="155.977" fill="#F0D0B4" width="6" height="6"/>
	<rect x="162" y="155.977" fill="#E7BEA9" width="6" height="6"/>
	<rect x="156" y="137.988" fill="#F0D0B4" width="6" height="6"/>
	<rect x="162" y="137.988" fill="#F0D0B4" width="6" height="6"/>
	<rect x="156" y="132" fill="#B5B7B9" width="6" height="6"/>
	<rect x="162" y="132" fill="#F0D0B4" width="6" height="6"/>
	<rect x="168" y="137.988" fill="#F0D0B4" width="6" height="6"/>
	<rect x="168" y="132" fill="#F0D0B4" width="6" height="6"/>
	<rect x="132" y="126.027" fill="#E7BEA9" width="6" height="6"/>
	<rect x="138" y="126.027" fill="#C6C8CA" width="6" height="6"/>
	<rect x="144" y="126.027" fill="#F0D0B4" width="6" height="6"/>
	<rect x="150" y="126.027" fill="#B5B7B9" width="6" height="6"/>
	<rect x="132" y="132" fill="#B7803B" width="6" height="6"/>
	<rect x="138" y="132" fill="#F0D0B4" width="6" height="6"/>
	<rect x="132" y="132" fill="#FFFFFF" width="6" height="6"/>
	<rect x="144" y="132.004" fill="#F0D0B4" width="6" height="6"/>
	<rect x="150" y="132.004" fill="#F0D0B4" width="6" height="6"/>
	<rect x="132" y="137.996" fill="#F1D7C4" width="6" height="6"/>
	<rect x="138" y="137.996" fill="#F1D7C4" width="6" height="6"/>
	<rect x="144" y="137.996" fill="#F0D0B4" width="6" height="6"/>
	<rect x="150" y="137.988" fill="#F0D0B4" width="6" height="6"/>
	<rect x="132" y="143.988" fill="#F1D7C4" width="6" height="6"/>
	<rect x="138" y="143.988" fill="#E7BEA9" width="6" height="6"/>
	<rect x="144" y="143.988" fill="#F0D0B4" width="6" height="6"/>
	<rect x="150" y="143.988" fill="#F0D0B4" width="6" height="6"/>
	<rect x="156" y="114.023" fill="#F3F4F5" width="6" height="6"/>
	<rect x="162" y="114.023" fill="#919295" width="6" height="6"/>
	<rect x="120" y="114.027" fill="#F1D7C4" width="6" height="6"/>
	<rect x="120" y="108.039" fill="#CFAB9A" width="6" height="6.004"/>
	<rect x="120" y="102.035" fill="#F1D7C4" width="6" height="6"/>
	<rect x="126" y="108.035" fill="#E7BEA9" width="6" height="6"/>
	<rect x="132" y="108.039" fill="#CFAB9A" width="6" height="6.004"/>
	<rect x="138" y="108.039" fill="#F0D0B4" width="6" height="6.004"/>
	<rect x="144" y="108.039" fill="#F0D0B4" width="6" height="6.004"/>
	<rect x="150" y="108.035" fill="#EFC9B0" width="6" height="6"/>
	<rect x="156" y="108.035" fill="#E7BEA9" width="6" height="6"/>
	<rect x="126" y="102.035" fill="#F1D7C4" width="6" height="6"/>
	<rect x="126" y="96.035" fill="#EEE5E4" width="6" height="6"/>
	<rect x="132" y="90.035" fill="#EEE5E4" width="6" height="6"/>
	<rect x="132" y="96.035" fill="#F1D7C4" width="6" height="6"/>
	<rect x="138" y="96.035" fill="#F1D7C4" width="6" height="6"/>
	<rect x="144" y="96.035" fill="#F0D0B4" width="6" height="6"/>
	<rect x="150" y="96.035" fill="#F0D0B4" width="6" height="6"/>
	<rect x="156" y="102.035" fill="#EFC9B0" width="6" height="6"/>
	<rect x="156" y="96.035" fill="#F1D7C4" width="6" height="6"/>
	<rect x="138" y="90.035" fill="#EEE5E4" width="6" height="6"/>
	<rect x="144" y="90.035" fill="#F1D7C4" width="6" height="6"/>
	<rect x="150" y="90.035" fill="#F1D7C4" width="6" height="6"/>
	<rect x="162" y="102.035" fill="#E7BEA9" width="6" height="6"/>
	<rect x="132" y="102.035" fill="#F0D0B4" width="6" height="6"/>
	<rect x="138" y="102.035" fill="#F0D0B4" width="6" height="6"/>
	<rect x="144" y="102.035" fill="#F0D0B4" width="6" height="6"/>
	<rect x="150" y="102.035" fill="#F0D0B4" width="6" height="6"/>
	<rect x="162" y="108.035" fill="#A2A4A6" width="6" height="6"/>
	<rect x="156" y="120.023" fill="#B5B7B9" width="6" height="6"/>
	<rect x="162" y="120.023" fill="#C6C8CA" width="6" height="6"/>
	<rect x="156" y="126.023" fill="#C6C8CA" width="6" height="6"/>
	<rect x="162" y="126.023" fill="#EFC9B0" width="6" height="6"/>
	<rect x="168" y="114.023" fill="#B5B7B9" width="6" height="6"/>
	<rect x="168" y="108.035" fill="#B5B7B9" width="6" height="6"/>
	<rect x="174" y="108.035" fill="#C6C8CA" width="6" height="6"/>
	<rect x="168" y="102.035" fill="#B5B7B9" width="6" height="6"/>
	<rect x="162" y="96.035" fill="#EEE5E4" width="6" height="6"/>
	<rect x="168" y="120.023" fill="#919295" width="6" height="6"/>
	<rect x="174" y="114.023" fill="#919295" width="6" height="6"/>
	<rect x="174" y="120.023" fill="#919295" width="6" height="6"/>
	<rect x="168" y="144.004" fill="#919295" width="6" height="6"/>
	<rect x="168" y="150.004" fill="#808083" width="6" height="6"/>
	<rect x="168" y="126.023" fill="#F1D7C4" width="6" height="6"/>
	<rect x="174" y="137.988" fill="#919295" width="6" height="6"/>
	<rect x="174" y="132" fill="#A2A4A6" width="6" height="6"/>
	<rect x="174" y="126.023" fill="#A2A4A6" width="6" height="6"/>
</g>
</svg>
