<?xml version="1.0" encoding="utf-8"?>
<!-- Generator: Adobe Illustrator 16.0.0, SVG Export Plug-In . SVG Version: 6.00 Build 0)  -->
<!DOCTYPE svg PUBLIC "-//W3C//DTD SVG 1.1//EN" "http://www.w3.org/Graphics/SVG/1.1/DTD/svg11.dtd">
<svg version="1.1" id="Layer_1" xmlns="http://www.w3.org/2000/svg" xmlns:xlink="http://www.w3.org/1999/xlink" x="0px" y="0px"
	 width="300px" height="300px" viewBox="0 0 300 300" enable-background="new 0 0 300 300" xml:space="preserve">
<g>
	<rect x="108.75" y="90.054" fill="#1A1818" width="7.5" height="7.5"/>
	<rect x="116.25" y="90.049" fill="#EFD1B8" width="7.5" height="7.5"/>
	<rect x="123.75" y="90.049" fill="#1A1818" width="7.5" height="7.5"/>
	<rect x="131.25" y="90.049" fill="#EFD1B8" width="7.5" height="7.5"/>
	<rect x="138.75" y="90.049" fill="#EFD1B8" width="7.5" height="7.5"/>
	<rect x="146.25" y="90.049" fill="#F3D9D0" width="7.5" height="7.5"/>
	<rect x="116.25" y="82.549" fill="#1A1818" width="7.5" height="7.5"/>
	<rect x="108.75" y="82.549" fill="#231F20" width="7.5" height="7.5"/>
	<rect x="123.75" y="82.549" fill="#231F20" width="7.5" height="7.5"/>
	<rect x="131.25" y="82.549" fill="#EFD1B8" width="7.5" height="7.5"/>
	<rect x="138.75" y="82.549" fill="#F3D9D0" width="7.5" height="7.5"/>
	<rect x="146.25" y="82.549" fill="#F3D9D0" width="7.5" height="7.5"/>
	<polyline fill="#231F20" points="116.25,75.054 116.25,82.554 123.75,82.554 123.75,75.054 	"/>
	<rect x="123.75" y="75.054" fill="#231F20" width="7.5" height="7.5"/>
	<rect x="131.25" y="75.054" fill="#231F20" width="7.5" height="7.5"/>
	<rect x="138.75" y="75.054" fill="#231F20" width="7.5" height="7.5"/>
	<rect x="146.25" y="75.054" fill="#231F20" width="7.5" height="7.5"/>
	<rect x="108.75" y="105.034" fill="#EFD1B8" width="7.5" height="7.5"/>
	<rect x="116.25" y="105.034" fill="#EFCFC0" width="7.5" height="7.5"/>
	<rect x="123.75" y="105.034" fill="#F3D9D0" width="7.5" height="7.5"/>
	<rect x="131.25" y="105.034" fill="#EFD1B8" width="7.5" height="7.5"/>
	<rect x="138.75" y="105.034" fill="#F3D9D0" width="7.5" height="7.5"/>
	<rect x="146.25" y="105.034" fill="#231F20" width="7.5" height="7.5"/>
	<rect x="108.75" y="112.534" fill="#EFCFC0" width="7.5" height="7.5"/>
	<rect x="116.25" y="112.534" fill="#726658" width="7.5" height="7.5"/>
	<rect x="123.75" y="112.534" fill="#9B8579" width="7.5" height="7.5"/>
	<rect x="131.25" y="112.534" fill="#F3D9D0" width="7.5" height="7.5"/>
	<rect x="138.75" y="112.534" fill="#EFD1B8" width="7.5" height="7.5"/>
	<rect x="146.25" y="112.534" fill="#F3D9D0" width="7.5" height="7.5"/>
	<rect x="108.75" y="120.034" fill="#EFD1B8" width="7.5" height="7.5"/>
	<rect x="116.25" y="120.034" fill="#EFD1B8" width="7.5" height="7.5"/>
	<rect x="108.75" y="127.505" fill="#D7BFAA" width="7.5" height="7.5"/>
	<rect x="116.25" y="127.505" fill="#7F95A5" width="7.5" height="7.5"/>
	<rect x="108.75" y="134.99" fill="#EFD1B8" width="7.5" height="7.5"/>
	<rect x="116.25" y="134.99" fill="#D7BFAA" width="7.5" height="7.5"/>
	<rect x="108.75" y="142.505" fill="#EFD1B8" width="7.5" height="7.5"/>
	<rect x="116.25" y="142.505" fill="#EFD1B8" width="7.5" height="7.5"/>
	<rect x="108.75" y="149.99" fill="#EFCFC0" width="7.5" height="7.5"/>
	<rect x="101.25" y="142.505" fill="#EFD1B8" width="7.5" height="7.5"/>
	<rect x="101.25" y="134.99" fill="#F3D9D0" width="7.5" height="7.5"/>
	<rect x="116.25" y="149.99" fill="#EFCFC0" width="7.5" height="7.5"/>
	<rect x="131.25" y="149.99" fill="#EFD1B8" width="7.5" height="7.5"/>
	<rect x="123.75" y="149.99" fill="#EFD1B8" width="7.5" height="7.5"/>
	<rect x="138.75" y="149.99" fill="#E5B29B" width="7.5" height="7.5"/>
	<rect x="153.75" y="149.99" fill="#D7BFAA" width="7.5" height="7.5"/>
	<rect x="146.25" y="149.99" fill="#BAA993" width="7.5" height="7.5"/>
	<rect x="131.25" y="157.476" fill="#FFFFFF" width="7.5" height="7.5"/>
	<rect x="123.75" y="157.476" fill="#FFFFFF" width="7.5" height="7.5"/>
	<rect x="138.75" y="157.476" fill="#FFFFFF" width="7.5" height="7.5"/>
	<rect x="146.25" y="157.476" fill="#FFFFFF" width="7.5" height="7.5"/>
	<rect x="131.25" y="164.961" fill="#D28F8C" width="7.5" height="7.5"/>
	<rect x="123.75" y="164.961" fill="#D28F8C" width="7.5" height="7.5"/>
	<rect x="138.75" y="164.961" fill="#D28F8C" width="7.5" height="7.5"/>
	<rect x="146.25" y="164.961" fill="#D28F8C" width="7.5" height="7.5"/>
	<rect x="131.25" y="172.461" fill="#BAA993" width="7.5" height="7.5"/>
	<rect x="123.75" y="172.461" fill="#BAA993" width="7.5" height="7.5"/>
	<rect x="138.75" y="172.461" fill="#EFD1B8" width="7.5" height="7.5"/>
	<rect x="131.25" y="179.961" fill="#EFCFC0" width="7.5" height="7.5"/>
	<rect x="123.75" y="179.961" fill="#EFCFC0" width="7.5" height="7.5"/>
	<rect x="138.75" y="179.961" fill="#EFCFC0" width="7.5" height="7.5"/>
	<rect x="146.25" y="179.961" fill="#EFD1B8" width="7.5" height="7.5"/>
	<rect x="146.25" y="172.461" fill="#EFD1B8" width="7.5" height="7.5"/>
	<rect x="153.75" y="172.461" fill="#EFD1B8" width="7.5" height="7.5"/>
	<rect x="161.25" y="149.99" fill="#EFD1B8" width="7.5" height="7.5"/>
	<rect x="153.75" y="142.505" fill="#EFD1B8" width="7.5" height="7.5"/>
	<rect x="161.25" y="142.505" fill="#EFD1B8" width="7.5" height="7.5"/>
	<rect x="153.75" y="164.961" fill="#EFD1B8" width="7.5" height="7.5"/>
	<rect x="161.25" y="164.961" fill="#EFD1B8" width="7.5" height="7.5"/>
	<rect x="161.25" y="172.461" fill="#EFD1B8" width="7.5" height="7.5"/>
	<rect x="153.75" y="157.476" fill="#BAA993" width="7.5" height="7.5"/>
	<rect x="161.25" y="157.476" fill="#EFD1B8" width="7.5" height="7.5"/>
	<rect x="153.75" y="134.99" fill="#E3C7B1" width="7.5" height="7.5"/>
	<rect x="161.25" y="134.99" fill="#EFD1B8" width="7.5" height="7.5"/>
	<rect x="153.75" y="127.505" fill="#EDD69F" width="7.5" height="7.5"/>
	<rect x="161.25" y="127.505" fill="#EFCFC0" width="7.5" height="7.5"/>
	<rect x="176.25" y="134.99" fill="#EFD1B8" width="7.5" height="7.5"/>
	<rect x="168.75" y="142.505" fill="#EFD1B8" width="7.5" height="7.5"/>
	<rect x="168.75" y="134.99" fill="#EFD1B8" width="7.5" height="7.5"/>
	<rect x="168.75" y="127.505" fill="#E5B29B" width="7.5" height="7.5"/>
	<rect x="168.75" y="120.034" fill="#EFD1B8" width="7.5" height="7.5"/>
	<rect x="168.75" y="112.534" fill="#231F20" width="7.5" height="7.5"/>
	<rect x="176.25" y="127.505" fill="#EFD1B8" width="7.5" height="7.5"/>
	<rect x="123.75" y="120.034" fill="#EFD1B8" width="7.5" height="7.5"/>
	<rect x="131.25" y="120.034" fill="#EFD1B8" width="7.5" height="7.5"/>
	<rect x="138.75" y="120.034" fill="#EFD1B8" width="7.5" height="7.5"/>
	<rect x="146.25" y="120.034" fill="#EFD1B8" width="7.5" height="7.5"/>
	<rect x="123.75" y="127.505" fill="#FFFFFF" width="7.5" height="7.5"/>
	<rect x="131.25" y="127.505" fill="#EFD1B8" width="7.5" height="7.5"/>
	<rect x="138.75" y="127.505" fill="#EFD1B8" width="7.5" height="7.5"/>
	<rect x="146.25" y="127.505" fill="#EFD1B8" width="7.5" height="7.5"/>
	<rect x="123.75" y="134.99" fill="#E5B29B" width="7.5" height="7.5"/>
	<rect x="131.25" y="134.99" fill="#F3D9D0" width="7.5" height="7.5"/>
	<rect x="138.75" y="134.99" fill="#F3D9D0" width="7.5" height="7.5"/>
	<rect x="146.25" y="134.99" fill="#EFD1B8" width="7.5" height="7.5"/>
	<rect x="123.75" y="142.49" fill="#E5B29B" width="7.5" height="7.5"/>
	<rect x="131.25" y="142.49" fill="#E5B29B" width="7.5" height="7.5"/>
	<rect x="138.75" y="142.49" fill="#F3D9D0" width="7.5" height="7.5"/>
	<rect x="146.25" y="142.49" fill="#EFD1B8" width="7.5" height="7.5"/>
	<rect x="153.75" y="105.034" fill="#231F20" width="7.5" height="7.5"/>
	<rect x="161.25" y="105.034" fill="#231F20" width="7.5" height="7.5"/>
	<rect x="108.75" y="97.549" fill="#F3D9D0" width="7.5" height="7.5"/>
	<rect x="116.25" y="97.549" fill="#F3D9D0" width="7.5" height="7.5"/>
	<rect x="123.75" y="97.549" fill="#EFD1B8" width="7.5" height="7.5"/>
	<rect x="131.25" y="97.549" fill="#EFD1B8" width="7.5" height="7.5"/>
	<rect x="138.75" y="97.549" fill="#EFD1B8" width="7.5" height="7.5"/>
	<rect x="146.25" y="97.549" fill="#231F20" width="7.5" height="7.5"/>
	<rect x="153.75" y="97.549" fill="#231F20" width="7.5" height="7.5"/>
	<rect x="153.75" y="90.049" fill="#231F20" width="7.5" height="7.5"/>
	<rect x="161.25" y="97.549" fill="#231F20" width="7.5" height="7.5"/>
	<rect x="153.75" y="112.534" fill="#231F20" width="7.5" height="7.5"/>
	<rect x="153.75" y="127.505" fill="#E3C7B1" width="7.5" height="7.5"/>
	<rect x="161.25" y="112.534" fill="#1A1818" width="7.5" height="7.5"/>
	<rect x="168.75" y="105.034" fill="#231F20" width="7.5" height="7.5"/>
	<rect x="153.75" y="82.554" fill="#231F20" width="7.5" height="7.5"/>
	<rect x="161.25" y="90.054" fill="#231F20" width="7.5" height="7.5"/>
	<rect x="168.75" y="97.544" fill="#231F20" width="7.5" height="7.5"/>
	<rect x="153.75" y="75.063" fill="#231F20" width="7.5" height="7.5"/>
	<rect x="161.25" y="82.563" fill="#231F20" width="7.5" height="7.5"/>
	<rect x="168.75" y="90.049" fill="#231F20" width="7.5" height="7.5"/>
	<rect x="161.25" y="75.063" fill="#231F20" width="7.5" height="7.5"/>
	<rect x="168.75" y="82.563" fill="#231F20" width="7.5" height="7.5"/>
	<rect x="176.25" y="90.049" fill="#231F20" width="7.5" height="7.5"/>
	<rect x="176.25" y="112.534" fill="#EFCFC0" width="7.5" height="7.5"/>
	<rect x="176.25" y="105.034" fill="#231F20" width="7.5" height="7.5"/>
	<rect x="176.25" y="97.544" fill="#231F20" width="7.5" height="7.5"/>
	<rect x="183.75" y="112.534" fill="#F3D9D0" width="7.5" height="7.5"/>
	<rect x="176.25" y="120.034" fill="#E5B29B" width="7.5" height="7.5"/>
	<rect x="183.75" y="127.505" fill="#EFD1B8" width="7.5" height="7.5"/>
	<rect x="183.75" y="120.034" fill="#EFD1B8" width="7.5" height="7.5"/>
	<rect x="153.75" y="120.034" fill="#EFD1B8" width="7.5" height="7.5"/>
	<rect x="161.25" y="120.034" fill="#1A1818" width="7.5" height="7.5"/>
	<rect x="138.75" y="187.461" fill="#BAA993" width="7.5" height="7.5"/>
	<rect x="131.25" y="187.446" fill="#BAA993" width="7.5" height="7.5"/>
	<rect x="161.25" y="179.946" fill="#EFD1B8" width="7.5" height="7.5"/>
	<rect x="168.75" y="149.99" fill="#D7BFAA" width="7.5" height="7.5"/>
	<rect x="168.75" y="164.961" fill="#EFD1B8" width="7.5" height="7.5"/>
	<rect x="168.75" y="172.461" fill="#EFD1B8" width="7.5" height="7.5"/>
	<rect x="168.75" y="157.476" fill="#EFD1B8" width="7.5" height="7.5"/>
	<rect x="168.75" y="179.946" fill="#EFD1B8" width="7.5" height="7.5"/>
	<rect x="176.25" y="179.946" fill="#323133" width="7.5" height="7.5"/>
	<rect x="146.25" y="187.446" fill="#D7BFAA" width="7.5" height="7.5"/>
	<rect x="153.75" y="179.961" fill="#D7BFAA" width="7.5" height="7.5"/>
	<rect x="153.75" y="187.446" fill="#EFD1B8" width="7.5" height="7.5"/>
	<rect x="123.75" y="187.446" fill="#FFFFFF" width="7.5" height="7.5"/>
	<rect x="116.25" y="187.446" fill="#323133" width="7.5" height="7.5"/>
	<rect x="168.75" y="187.446" fill="#FFFFFF" width="7.5" height="7.5"/>
	<rect x="176.25" y="187.446" fill="#323133" width="7.5" height="7.5"/>
	<rect x="183.75" y="187.446" fill="#323133" width="7.5" height="7.5"/>
	<rect x="131.25" y="202.446" fill="#FFFFFF" width="7.5" height="7.5"/>
	<rect x="138.75" y="202.446" fill="#EFD1B8" width="7.5" height="7.5"/>
	<rect x="153.75" y="202.446" fill="#FFFFFF" width="7.5" height="7.5"/>
	<rect x="146.25" y="202.446" fill="#EFD1B8" width="7.5" height="7.5"/>
	<rect x="123.75" y="202.446" fill="#FFFFFF" width="7.5" height="7.5"/>
	<rect x="123.75" y="209.946" fill="#231F20" width="7.5" height="7.5"/>
	<rect x="116.25" y="202.446" fill="#323133" width="7.5" height="7.5"/>
	<rect x="108.75" y="202.446" fill="#464749" width="7.5" height="7.5"/>
	<rect x="168.75" y="202.446" fill="#FFFFFF" width="7.5" height="7.5"/>
	<rect x="176.25" y="202.446" fill="#464749" width="7.5" height="7.5"/>
	<rect x="183.75" y="202.446" fill="#323133" width="7.5" height="7.5"/>
	<rect x="191.25" y="202.446" fill="#323133" width="7.5" height="7.5"/>
	<rect x="131.25" y="217.446" fill="#ECEEEE" width="7.5" height="7.5"/>
	<rect x="138.75" y="217.446" fill="#FFFFFF" width="7.5" height="7.5"/>
	<rect x="153.75" y="217.446" fill="#ECEEEE" width="7.5" height="7.5"/>
	<rect x="146.25" y="217.446" fill="#FFFFFF" width="7.5" height="7.5"/>
	<rect x="123.75" y="217.446" fill="#464749" width="7.5" height="7.5"/>
	<rect x="116.25" y="217.446" fill="#323133" width="7.5" height="7.5"/>
	<rect x="108.75" y="217.446" fill="#323133" width="7.5" height="7.5"/>
	<rect x="168.75" y="217.446" fill="#464749" width="7.5" height="7.5"/>
	<rect x="176.25" y="217.446" fill="#323133" width="7.5" height="7.5"/>
	<rect x="183.75" y="217.446" fill="#323133" width="7.5" height="7.5"/>
	<rect x="191.25" y="217.446" fill="#231F20" width="7.5" height="7.5"/>
	<rect x="131.25" y="194.946" fill="#EFD1B8" width="7.5" height="7.5"/>
	<rect x="138.75" y="194.946" fill="#D7BFAA" width="7.5" height="7.5"/>
	<rect x="153.75" y="194.946" fill="#EFD1B8" width="7.5" height="7.5"/>
	<rect x="146.25" y="194.946" fill="#EFD1B8" width="7.5" height="7.5"/>
	<rect x="123.75" y="194.946" fill="#FFFFFF" width="7.5" height="7.5"/>
	<rect x="116.25" y="194.946" fill="#323133" width="7.5" height="7.5"/>
	<rect x="108.75" y="194.946" fill="#323133" width="7.5" height="7.5"/>
	<rect x="168.75" y="194.946" fill="#FFFFFF" width="7.5" height="7.5"/>
	<rect x="176.25" y="194.946" fill="#323133" width="7.5" height="7.5"/>
	<rect x="183.75" y="194.946" fill="#464749" width="7.5" height="7.5"/>
	<rect x="191.25" y="194.946" fill="#323133" width="7.5" height="7.5"/>
	<rect x="131.25" y="209.946" fill="#FFFFFF" width="7.5" height="7.5"/>
	<rect x="138.75" y="209.946" fill="#FFFFFF" width="7.5" height="7.5"/>
	<rect x="153.75" y="209.946" fill="#FFFFFF" width="7.5" height="7.5"/>
	<rect x="146.25" y="209.946" fill="#FFFFFF" width="7.5" height="7.5"/>
	<rect x="123.75" y="209.946" fill="#323133" width="7.5" height="7.5"/>
	<rect x="116.25" y="209.946" fill="#464749" width="7.5" height="7.5"/>
	<rect x="108.75" y="209.946" fill="#323133" width="7.5" height="7.5"/>
	<rect x="101.25" y="202.446" fill="#323133" width="7.5" height="7.5"/>
	<rect x="101.25" y="194.946" fill="#464749" width="7.5" height="7.5"/>
	<rect x="101.25" y="217.446" fill="#231F20" width="7.5" height="7.5"/>
	<rect x="101.25" y="209.946" fill="#323133" width="7.5" height="7.5"/>
	<rect x="93.75" y="202.446" fill="#323133" width="7.5" height="7.5"/>
	<rect x="93.75" y="217.446" fill="#323133" width="7.5" height="7.5"/>
	<rect x="93.75" y="209.946" fill="#323133" width="7.5" height="7.5"/>
	<rect x="168.75" y="209.946" fill="#464749" width="7.5" height="7.5"/>
	<rect x="161.25" y="187.446" fill="#FFFFFF" width="7.5" height="7.5"/>
	<rect x="161.25" y="202.446" fill="#FFFFFF" width="7.5" height="7.5"/>
	<rect x="161.25" y="217.446" fill="#464749" width="7.5" height="7.5"/>
	<rect x="161.25" y="194.946" fill="#FFFFFF" width="7.5" height="7.5"/>
	<rect x="161.25" y="209.946" fill="#464749" width="7.5" height="7.5"/>
	<rect x="176.25" y="209.946" fill="#323133" width="7.5" height="7.5"/>
	<rect x="183.75" y="209.946" fill="#323133" width="7.5" height="7.5"/>
	<rect x="191.25" y="209.946" fill="#323133" width="7.5" height="7.5"/>
	<rect x="198.75" y="202.446" fill="#323133" width="7.5" height="7.5"/>
	<rect x="198.75" y="217.446" fill="#323133" width="7.5" height="7.5"/>
	<rect x="198.75" y="209.946" fill="#323133" width="7.5" height="7.5"/>
</g>
</svg>
