<?xml version="1.0" encoding="utf-8"?>
<!-- Generator: Adobe Illustrator 16.0.0, SVG Export Plug-In . SVG Version: 6.00 Build 0)  -->
<!DOCTYPE svg PUBLIC "-//W3C//DTD SVG 1.1//EN" "http://www.w3.org/Graphics/SVG/1.1/DTD/svg11.dtd">
<svg version="1.1" id="Layer_1" xmlns="http://www.w3.org/2000/svg" xmlns:xlink="http://www.w3.org/1999/xlink" x="0px" y="0px"
	 width="300px" height="300px" viewBox="0 0 300 300" enable-background="new 0 0 300 300" xml:space="preserve">
<g>
	<rect x="123" y="111.027" fill="#EFD1B8" width="6" height="6"/>
	<rect x="129" y="111.027" fill="#EFD1B8" width="6" height="6"/>
	<rect x="135" y="111.027" fill="#EFC8A6" width="6" height="6"/>
	<rect x="141" y="111.027" fill="#EEBFA2" width="6" height="6"/>
	<rect x="147" y="111.023" fill="#AFAFA2" width="6" height="6"/>
	<rect x="117" y="117.027" fill="#E5B29B" width="6" height="6"/>
	<rect x="123" y="117.027" fill="#6D6E71" width="6" height="6"/>
	<rect x="129" y="117.023" fill="#AFAFA2" width="6" height="6"/>
	<rect x="135" y="117.023" fill="#EFC8A6" width="6" height="6"/>
	<rect x="141" y="117.023" fill="#BCBEC0" width="6" height="6"/>
	<rect x="147" y="117.027" fill="#E6E7E8" width="6" height="6"/>
	<rect x="117" y="123.027" fill="#EFC8A6" width="6" height="6"/>
	<rect x="123" y="123.027" fill="#E5B29B" width="6" height="6"/>
	<rect x="117" y="129.004" fill="#E5B29B" width="6" height="6"/>
	<rect x="123" y="129.004" fill="#6C8394" width="6" height="6"/>
	<rect x="117" y="134.996" fill="#EFC8A6" width="6" height="6"/>
	<rect x="123" y="134.996" fill="#E5B29B" width="6" height="6"/>
	<rect x="117" y="141.004" fill="#EFC8A6" width="6" height="6"/>
	<rect x="123" y="141.004" fill="#EFC8A6" width="6" height="6"/>
	<rect x="117" y="146.988" fill="#EFC8A6" width="6" height="6"/>
	<rect x="111" y="141.004" fill="#EFC8A6" width="6" height="6"/>
	<rect x="105" y="141.004" fill="#EFD1B8" width="6" height="6"/>
	<rect x="111" y="135.004" fill="#EFD1B8" width="6" height="6"/>
	<rect x="123" y="146.988" fill="#EFC8A6" width="6" height="6"/>
	<rect x="135" y="146.988" fill="#C79C89" width="6" height="6"/>
	<rect x="129" y="146.988" fill="#EFC8A6" width="6" height="6"/>
	<rect x="141" y="146.988" fill="#E5B29B" width="6" height="6"/>
	<rect x="153" y="146.988" fill="#EFC8A6" width="6" height="6"/>
	<rect x="147" y="146.988" fill="#EFC8A6" width="6" height="6"/>
	<rect x="135" y="152.977" fill="#AD6D67" width="6" height="6"/>
	<rect x="129" y="152.977" fill="#FFFFFF" width="6" height="6"/>
	<rect x="123" y="152.977" fill="#FFFFFF" width="6" height="6"/>
	<rect x="141" y="152.977" fill="#EFC8A6" width="6" height="6"/>
	<rect x="147" y="152.977" fill="#EFC8A6" width="6" height="6"/>
	<rect x="135" y="158.965" fill="#EFC8A6" width="6" height="6"/>
	<rect x="129" y="158.965" fill="#C79C89" width="6" height="6"/>
	<rect x="141" y="158.965" fill="#EFC8A6" width="6" height="6"/>
	<rect x="147" y="158.965" fill="#C2B59B" width="6" height="6"/>
	<rect x="135" y="164.965" fill="#D7BFAA" width="6" height="6"/>
	<rect x="129" y="164.965" fill="#D7BFAA" width="6" height="6"/>
	<rect x="123" y="158.965" fill="#C79C89" width="6" height="6"/>
	<rect x="123" y="164.965" fill="#D7BFAA" width="6" height="6"/>
	<rect x="141" y="164.965" fill="#EFC8A6" width="6" height="6"/>
	<rect x="135" y="170.965" fill="#EFC8A6" width="6" height="6"/>
	<rect x="141" y="170.965" fill="#EFC8A6" width="6" height="6"/>
	<rect x="135" y="176.965" fill="#EFC8A6" width="6" height="6"/>
	<rect x="141" y="176.965" fill="#C79C89" width="6" height="6"/>
	<rect x="147" y="170.965" fill="#EFC8A6" width="6" height="6"/>
	<rect x="147" y="164.965" fill="#EFC8A6" width="6" height="6"/>
	<rect x="153" y="164.965" fill="#D7BFAA" width="6" height="6"/>
	<rect x="153" y="170.965" fill="#EFC8A6" width="6" height="6"/>
	<rect x="165" y="170.965" fill="#C7E1F5" width="6" height="6"/>
	<rect x="171" y="170.965" fill="#ECEEEE" width="6" height="6"/>
	<rect x="153" y="176.965" fill="#EFC8A6" width="6" height="6"/>
	<rect x="147" y="176.965" fill="#EFC8A6" width="6" height="6"/>
	<rect x="129" y="176.965" fill="#C7E1F5" width="6" height="6"/>
	<rect x="129" y="170.965" fill="#EFC8A6" width="6" height="6"/>
	<rect x="123" y="176.965" fill="#ECEEEE" width="6" height="6"/>
	<rect x="165" y="176.965" fill="#C7E1F5" width="6" height="6"/>
	<rect x="171" y="176.965" fill="#ECEEEE" width="6" height="6"/>
	<rect x="177" y="176.965" fill="#ECEEEE" width="6" height="6"/>
	<rect x="135" y="188.965" fill="#C7E1F5" width="6" height="6"/>
	<rect x="141" y="188.965" fill="#8AA7BC" width="6" height="6"/>
	<rect x="153" y="188.965" fill="#8AA7BC" width="6" height="6"/>
	<rect x="147" y="188.965" fill="#EFC8A6" width="6" height="6"/>
	<rect x="129" y="188.965" fill="#C7E1F5" width="6" height="6"/>
	<rect x="129" y="194.965" fill="#C7E1F5" width="6" height="6"/>
	<rect x="123" y="188.965" fill="#ECEEEE" width="6" height="6"/>
	<rect x="117" y="188.965" fill="#FFFFFF" width="6" height="6"/>
	<rect x="165" y="188.965" fill="#C7E1F5" width="6" height="6"/>
	<rect x="171" y="188.965" fill="#ECEEEE" width="6" height="6"/>
	<rect x="177" y="188.965" fill="#FFFFFF" width="6" height="6"/>
	<rect x="183" y="188.965" fill="#ECEEEE" width="6" height="6"/>
	<rect x="135" y="200.965" fill="#C7E1F5" width="6" height="6"/>
	<rect x="141" y="200.965" fill="#C7E1F5" width="6" height="6"/>
	<rect x="153" y="200.965" fill="#C7E1F5" width="6" height="6"/>
	<rect x="147" y="200.965" fill="#C7E1F5" width="6" height="6"/>
	<rect x="129" y="200.965" fill="#FFFFFF" width="6" height="6"/>
	<rect x="123" y="200.965" fill="#ECEEEE" width="6" height="6"/>
	<rect x="117" y="200.965" fill="#C6C8C9" width="6" height="6"/>
	<rect x="165" y="200.965" fill="#FFFFFF" width="6" height="6"/>
	<rect x="171" y="200.965" fill="#ECEEEE" width="6" height="6"/>
	<rect x="177" y="200.965" fill="#C6C8C9" width="6" height="6"/>
	<rect x="183" y="200.965" fill="#ECEEEE" width="6" height="6"/>
	<rect x="135" y="182.965" fill="#C7E1F5" width="6" height="6"/>
	<rect x="141" y="182.965" fill="#EFC8A6" width="6" height="6"/>
	<rect x="153" y="182.965" fill="#EFC8A6" width="6" height="6"/>
	<rect x="147" y="182.965" fill="#EFC8A6" width="6" height="6"/>
	<rect x="129" y="182.965" fill="#C7E1F5" width="6" height="6"/>
	<rect x="123" y="182.965" fill="#ECEEEE" width="6" height="6"/>
	<rect x="117" y="182.965" fill="#ECEEEE" width="6" height="6"/>
	<rect x="165" y="182.965" fill="#C7E1F5" width="6" height="6"/>
	<rect x="171" y="182.965" fill="#ECEEEE" width="6" height="6"/>
	<rect x="177" y="182.965" fill="#FFFFFF" width="6" height="6"/>
	<rect x="183" y="182.965" fill="#ECEEEE" width="6" height="6"/>
	<rect x="135" y="194.965" fill="#8AA7BC" width="6" height="6"/>
	<rect x="141" y="194.965" fill="#C7E1F5" width="6" height="6"/>
	<rect x="153" y="194.965" fill="#C7E1F5" width="6" height="6"/>
	<rect x="159" y="188.965" fill="#C7E1F5" width="6" height="6"/>
	<rect x="159" y="200.965" fill="#C7E1F5" width="6" height="6"/>
	<rect x="159" y="182.965" fill="#C7E1F5" width="6" height="6"/>
	<rect x="159" y="176.953" fill="#EFC8A6" width="6" height="6"/>
	<rect x="159" y="170.953" fill="#EFC8A6" width="6" height="6"/>
	<rect x="159" y="194.965" fill="#8AA7BC" width="6" height="6"/>
	<rect x="147" y="194.965" fill="#C7E1F5" width="6" height="6"/>
	<rect x="123" y="194.965" fill="#FFFFFF" width="6" height="6"/>
	<rect x="117" y="194.965" fill="#ECEEEE" width="6" height="6"/>
	<rect x="111" y="188.965" fill="#ECEEEE" width="6" height="6"/>
	<rect x="111" y="182.965" fill="#FFFFFF" width="6" height="6"/>
	<rect x="111" y="200.965" fill="#ECEEEE" width="6" height="6"/>
	<rect x="111" y="194.965" fill="#ECEEEE" width="6" height="6"/>
	<rect x="105" y="188.965" fill="#ECEEEE" width="6" height="6"/>
	<rect x="117" y="176.953" fill="#ECEEEE" width="6" height="6"/>
	<rect x="105" y="200.965" fill="#ECEEEE" width="6" height="6"/>
	<rect x="105" y="194.965" fill="#ECEEEE" width="6" height="6"/>
	<rect x="165" y="194.965" fill="#C7E1F5" width="6" height="6"/>
	<rect x="171" y="194.965" fill="#FFFFFF" width="6" height="6"/>
	<rect x="177" y="194.965" fill="#231F20" width="6" height="6"/>
	<rect x="183" y="194.965" fill="#231F20" width="6" height="6"/>
	<rect x="189" y="188.965" fill="#ECEEEE" width="6" height="6"/>
	<rect x="189" y="200.965" fill="#ECEEEE" width="6" height="6"/>
	<rect x="189" y="194.965" fill="#ECEEEE" width="6" height="6"/>
	<rect x="159" y="146.988" fill="#C79C89" width="6" height="6"/>
	<rect x="153" y="141" fill="#C79C89" width="6" height="6"/>
	<rect x="159" y="141" fill="#EFC8A6" width="6" height="6"/>
	<rect x="153" y="158.965" fill="#EFC8A6" width="6" height="6"/>
	<rect x="159" y="158.965" fill="#D7BFAA" width="6" height="6"/>
	<rect x="159" y="164.965" fill="#EFC8A6" width="6" height="6"/>
	<rect x="153" y="152.977" fill="#EFC8A6" width="6" height="6"/>
	<rect x="159" y="152.977" fill="#E5B29B" width="6" height="6"/>
	<rect x="153" y="134.988" fill="#EFC8A6" width="6" height="6"/>
	<rect x="159" y="134.988" fill="#EFC8A6" width="6" height="6"/>
	<rect x="153" y="129" fill="#AFAFA2" width="6" height="6"/>
	<rect x="159" y="129" fill="#EFC8A6" width="6" height="6"/>
	<rect x="165" y="134.988" fill="#EFC8A6" width="6" height="6"/>
	<rect x="165" y="129" fill="#EFC8A6" width="6" height="6"/>
	<rect x="129" y="123.027" fill="#E5B29B" width="6" height="6"/>
	<rect x="135" y="123.027" fill="#EFC8A6" width="6" height="6"/>
	<rect x="141" y="123.027" fill="#E6E7E8" width="6" height="6"/>
	<rect x="147" y="123.027" fill="#A7A9AC" width="6" height="6"/>
	<rect x="129" y="129" fill="#AA6D2D" width="6" height="6"/>
	<rect x="135" y="129" fill="#EFC8A6" width="6" height="6"/>
	<rect x="129" y="129" fill="#FFFFFF" width="6" height="6"/>
	<rect x="141" y="129.004" fill="#EFC8A6" width="6" height="6"/>
	<rect x="147" y="129.004" fill="#E6E7E8" width="6" height="6"/>
	<rect x="129" y="134.996" fill="#EFD1B8" width="6" height="6"/>
	<rect x="135" y="134.996" fill="#EFC8A6" width="6" height="6"/>
	<rect x="141" y="134.996" fill="#EFC8A6" width="6" height="6"/>
	<rect x="147" y="134.988" fill="#EFC8A6" width="6" height="6"/>
	<rect x="129" y="140.988" fill="#E5B29B" width="6" height="6"/>
	<rect x="135" y="140.988" fill="#E5B29B" width="6" height="6"/>
	<rect x="141" y="140.988" fill="#EFC8A6" width="6" height="6"/>
	<rect x="147" y="140.988" fill="#EFC8A6" width="6" height="6"/>
	<rect x="153" y="111.023" fill="#F1F2F2" width="6" height="6"/>
	<rect x="159" y="111.023" fill="#A7A9AC" width="6" height="6"/>
	<rect x="117" y="111.027" fill="#EFD1B8" width="6" height="6"/>
	<rect x="117" y="105.035" fill="#F1F2F2" width="6" height="6"/>
	<rect x="111" y="105.035" fill="#F1F2F2" width="6" height="6"/>
	<rect x="123" y="105.035" fill="#F1F2F2" width="6" height="6"/>
	<rect x="123" y="99.035" fill="#BCBEC0" width="6" height="6"/>
	<rect x="123" y="93.035" fill="#DFE0E1" width="6" height="6"/>
	<rect x="117" y="99.035" fill="#939598" width="6" height="6"/>
	<rect x="129" y="93.035" fill="#BCBEC0" width="6" height="6"/>
	<rect x="129" y="99.035" fill="#939598" width="6" height="6"/>
	<rect x="135" y="99.035" fill="#BCBEC0" width="6" height="6"/>
	<rect x="141" y="99.035" fill="#AFAFA2" width="6" height="6"/>
	<rect x="147" y="99.035" fill="#BCBEC0" width="6" height="6"/>
	<rect x="153" y="105.035" fill="#BCBEC0" width="6" height="6"/>
	<rect x="153" y="99.035" fill="#F1F2F2" width="6" height="6"/>
	<rect x="135" y="93.035" fill="#F1F2F2" width="6" height="6"/>
	<rect x="141" y="93.035" fill="#BCBEC0" width="6" height="6"/>
	<rect x="147" y="93.035" fill="#F1F2F2" width="6" height="6"/>
	<rect x="153" y="93.035" fill="#E6E7E8" width="6" height="6"/>
	<rect x="159" y="105.035" fill="#AFAFA2" width="6" height="6"/>
	<rect x="129" y="105.035" fill="#DFE0E1" width="6" height="6"/>
	<rect x="135" y="105.035" fill="#EFC8A6" width="6" height="6"/>
	<rect x="141" y="105.035" fill="#EFD1B8" width="6" height="6"/>
	<rect x="147" y="105.035" fill="#F1F2F2" width="6" height="6"/>
	<rect x="153" y="117.023" fill="#A7A9AC" width="6" height="6"/>
	<rect x="159" y="117.023" fill="#E6E7E8" width="6" height="6"/>
	<rect x="153" y="123.023" fill="#E6E7E8" width="6" height="6"/>
	<rect x="159" y="123.023" fill="#EEBFA2" width="6" height="6"/>
	<rect x="165" y="111.023" fill="#F1F2F2" width="6" height="6"/>
	<rect x="165" y="105.035" fill="#A7A9AC" width="6" height="6"/>
	<rect x="159" y="99.035" fill="#E6E7E8" width="6" height="6"/>
	<rect x="165" y="117.023" fill="#939598" width="6" height="6"/>
	<rect x="171" y="111.023" fill="#BCBEC0" width="6" height="6"/>
	<rect x="165" y="99.043" fill="#A7A9AC" width="6" height="6"/>
	<rect x="159" y="93.043" fill="#E6E7E8" width="6" height="6"/>
	<rect x="171" y="105.031" fill="#BCBEC0" width="6" height="6"/>
	<rect x="171" y="117.023" fill="#808285" width="6" height="6"/>
	<rect x="165" y="141.004" fill="#808285" width="6" height="6"/>
	<rect x="171" y="141.004" fill="#5A5B5E" width="6" height="6"/>
	<rect x="165" y="147.004" fill="#5A5B5E" width="6" height="6"/>
	<rect x="165" y="123.023" fill="#EFD1B8" width="6" height="6"/>
	<rect x="171" y="134.988" fill="#808285" width="6" height="6"/>
	<rect x="171" y="129" fill="#E6E7E8" width="6" height="6"/>
	<rect x="171" y="123.023" fill="#D1D3D4" width="6" height="6"/>
</g>
</svg>
