<?xml version="1.0" encoding="utf-8"?>
<!-- Generator: Adobe Illustrator 16.0.0, SVG Export Plug-In . SVG Version: 6.00 Build 0)  -->
<!DOCTYPE svg PUBLIC "-//W3C//DTD SVG 1.1//EN" "http://www.w3.org/Graphics/SVG/1.1/DTD/svg11.dtd">
<svg version="1.1" id="Layer_1" xmlns="http://www.w3.org/2000/svg" xmlns:xlink="http://www.w3.org/1999/xlink" x="0px" y="0px"
	 width="300px" height="300px" viewBox="0 0 300 300" enable-background="new 0 0 300 300" xml:space="preserve">
<g>
	<rect x="135.002" y="173.977" fill="#EFD1B8" width="6" height="6"/>
	<rect x="141.002" y="173.977" fill="#D7BFAA" width="6" height="6"/>
	<rect x="147.002" y="173.977" fill="#D7BFAA" width="6" height="6"/>
	<rect x="135.002" y="179.945" fill="#FFFFFF" width="6" height="6"/>
	<rect x="141.002" y="179.945" fill="#EFD1B8" width="6" height="6"/>
	<rect x="147.002" y="179.945" fill="#EFD1B8" width="6" height="6"/>
	<rect x="152.998" y="173.977" fill="#D7BFAA" width="6" height="6"/>
	<rect x="152.998" y="179.945" fill="#EFD1B8" width="6" height="6"/>
	<rect x="147.002" y="191.957" fill="#FFFFFF" width="6" height="6"/>
	<rect x="141.002" y="185.957" fill="#FFFFFF" width="6" height="6"/>
	<rect x="153.002" y="185.957" fill="#FFFFFF" width="6" height="6"/>
	<rect x="147.002" y="185.957" fill="#FFFFFF" width="6" height="6"/>
	<rect x="158.998" y="179.957" fill="#FFFFFF" width="6" height="6"/>
	<rect x="158.998" y="185.957" fill="#7F95A5" width="6" height="6"/>
	<rect x="128.998" y="90.043" fill="#AE9D85" width="6" height="6"/>
	<rect x="134.998" y="90.043" fill="#726658" width="6" height="6"/>
	<rect x="140.998" y="90.043" fill="#9B8579" width="6" height="6"/>
	<rect x="116.998" y="102.031" fill="#F3D9D0" width="6" height="6"/>
	<rect x="122.998" y="102.031" fill="#EEE3E0" width="6" height="6"/>
	<rect x="128.998" y="102.031" fill="#EFD1B8" width="6" height="6"/>
	<rect x="134.998" y="102.031" fill="#EFD1B8" width="6" height="6"/>
	<rect x="140.998" y="102.031" fill="#EFD1B8" width="6" height="6"/>
	<rect x="146.998" y="102.031" fill="#D7BFAA" width="6" height="6"/>
	<rect x="116.998" y="108.031" fill="#EFD1B8" width="6" height="6"/>
	<rect x="122.998" y="108.031" fill="#EFD1B8" width="6" height="6"/>
	<rect x="128.998" y="108.031" fill="#EFD1B8" width="6" height="6"/>
	<rect x="134.998" y="108.031" fill="#EFD1B8" width="6" height="6"/>
	<rect x="140.998" y="108.031" fill="#EFD1B8" width="6" height="6"/>
	<rect x="146.998" y="108.031" fill="#EFD1B8" width="6" height="6"/>
	<rect x="116.998" y="114.031" fill="#F3D9D0" width="6" height="6"/>
	<rect x="122.998" y="114.031" fill="#F3D9D0" width="6" height="6"/>
	<rect x="116.998" y="120.008" fill="#634B1C" width="6" height="6"/>
	<rect x="122.998" y="120.008" fill="#9B8579" width="6" height="6"/>
	<rect x="116.998" y="131.957" fill="#1A1818" width="6" height="6"/>
	<rect x="122.998" y="131.969" fill="#7F95A5" width="6" height="6"/>
	<rect x="116.998" y="137.98" fill="#EFD1B8" width="6" height="6"/>
	<rect x="122.998" y="137.969" fill="#1A1818" width="6" height="6"/>
	<rect x="116.998" y="143.969" fill="#726658" width="6" height="6"/>
	<rect x="110.998" y="137.969" fill="#EFD1B8" width="6" height="6"/>
	<rect x="104.998" y="137.969" fill="#F3D9D0" width="6" height="6"/>
	<rect x="110.998" y="131.969" fill="#F3D9D0" width="6" height="6"/>
	<rect x="122.998" y="143.969" fill="#726658" width="6" height="6"/>
	<rect x="134.998" y="143.969" fill="#C2B59B" width="6" height="6"/>
	<rect x="128.998" y="143.969" fill="#9B8579" width="6" height="6"/>
	<rect x="140.998" y="143.969" fill="#C2B59B" width="6" height="6"/>
	<rect x="158.998" y="143.969" fill="#9B8579" width="6" height="6"/>
	<rect x="146.998" y="143.969" fill="#F3D9D0" width="6" height="6"/>
	<rect x="134.998" y="149.957" fill="#FFFFFF" width="6" height="6"/>
	<rect x="128.998" y="149.957" fill="#FFFFFF" width="6" height="6"/>
	<rect x="140.998" y="149.957" fill="#FFFFFF" width="6" height="6"/>
	<rect x="146.998" y="149.957" fill="#BB807B" width="6" height="6"/>
	<rect x="134.998" y="155.945" fill="#D28F8C" width="6" height="6"/>
	<rect x="128.998" y="155.945" fill="#D28F8C" width="6" height="6"/>
	<rect x="140.998" y="155.945" fill="#BB807B" width="6" height="6"/>
	<rect x="146.998" y="155.945" fill="#E3C9B6" width="6" height="6"/>
	<rect x="134.998" y="161.945" fill="#E3C9B6" width="6" height="6"/>
	<rect x="128.998" y="161.945" fill="#9B8579" width="6" height="6"/>
	<rect x="140.998" y="161.945" fill="#E3C9B6" width="6" height="6"/>
	<rect x="146.998" y="161.945" fill="#9B8579" width="6" height="6"/>
	<rect x="152.998" y="161.945" fill="#9B8579" width="6" height="6"/>
	<rect x="164.998" y="143.969" fill="#E3C9B6" width="6" height="6"/>
	<rect x="158.998" y="137.98" fill="#9B8579" width="6" height="6"/>
	<rect x="158.998" y="155.945" fill="#9B8579" width="6" height="6"/>
	<rect x="158.998" y="149.957" fill="#9B8579" width="6" height="6"/>
	<rect x="159.002" y="161.945" fill="#EFD1B8" width="6" height="6"/>
	<rect x="158.998" y="131.969" fill="#726658" width="6" height="6"/>
	<rect x="164.998" y="137.949" fill="#EFD1B8" width="6" height="6"/>
	<rect x="171.002" y="137.949" fill="#EFD1B8" width="6" height="6"/>
	<rect x="158.998" y="120.008" fill="#726658" width="6" height="6"/>
	<rect x="164.998" y="125.988" fill="#F3D9D0" width="6" height="6"/>
	<rect x="128.998" y="114.031" fill="#F3D9D0" width="6" height="6"/>
	<rect x="134.998" y="114.031" fill="#EFD1B8" width="6" height="6"/>
	<rect x="140.998" y="114.031" fill="#EFD1B8" width="6" height="6"/>
	<rect x="146.998" y="114.031" fill="#EFD1B8" width="6" height="6"/>
	<rect x="128.998" y="120.008" fill="#EFD1B8" width="6" height="6"/>
	<rect x="134.998" y="120.008" fill="#EFD1B8" width="6" height="6"/>
	<rect x="140.998" y="120.008" fill="#EFD1B8" width="6" height="6"/>
	<rect x="146.998" y="120.008" fill="#EFD1B8" width="6" height="6"/>
	<rect x="116.998" y="125.969" fill="#1A1818" width="6" height="6"/>
	<rect x="122.998" y="125.969" fill="#1A1818" width="6" height="6"/>
	<rect x="158.998" y="125.969" fill="#1A1818" width="6" height="6"/>
	<rect x="164.998" y="131.961" fill="#C2B59B" width="6" height="6"/>
	<rect x="171.002" y="125.988" fill="#EFD1B8" width="6" height="6"/>
	<rect x="171.002" y="131.961" fill="#EFD1B8" width="6" height="6"/>
	<rect x="128.998" y="125.969" fill="#1A1818" width="6" height="6"/>
	<rect x="134.998" y="125.969" fill="#464749" width="6" height="6"/>
	<rect x="140.998" y="125.969" fill="#1A1818" width="6" height="6"/>
	<rect x="146.998" y="125.969" fill="#1A1818" width="6" height="6"/>
	<rect x="128.998" y="131.969" fill="#FFFFFF" width="6" height="6"/>
	<rect x="134.998" y="131.969" fill="#1A1818" width="6" height="6"/>
	<rect x="140.998" y="131.969" fill="#EFD1B8" width="6" height="6"/>
	<rect x="146.998" y="131.969" fill="#E3C9B6" width="6" height="6"/>
	<rect x="128.998" y="137.969" fill="#1A1818" width="6" height="6"/>
	<rect x="134.998" y="137.969" fill="#F3D9D0" width="6" height="6"/>
	<rect x="140.998" y="137.969" fill="#F3D9D0" width="6" height="6"/>
	<rect x="146.998" y="137.969" fill="#EFD1B8" width="6" height="6"/>
	<rect x="158.998" y="102.031" fill="#9B8579" width="6" height="6"/>
	<rect x="164.998" y="102.031" fill="#726658" width="6" height="6"/>
	<rect x="122.998" y="96.043" fill="#AE9D85" width="6" height="6"/>
	<rect x="128.998" y="96.043" fill="#9B8579" width="6" height="6"/>
	<rect x="134.998" y="96.043" fill="#D7BFAA" width="6" height="6"/>
	<rect x="140.998" y="96.043" fill="#D7BFAA" width="6" height="6"/>
	<rect x="146.998" y="96.043" fill="#726658" width="6" height="6"/>
	<rect x="158.998" y="96.043" fill="#726658" width="6" height="6"/>
	<rect x="146.998" y="90.043" fill="#726658" width="6" height="6"/>
	<rect x="158.998" y="108.031" fill="#AE9D85" width="6" height="6"/>
	<rect x="164.998" y="108.031" fill="#9B8579" width="6" height="6"/>
	<rect x="158.998" y="114.031" fill="#9B8579" width="6" height="6"/>
	<rect x="153.002" y="143.969" fill="#EFD1B8" width="6" height="6"/>
	<rect x="153.002" y="137.98" fill="#EFD1B8" width="6" height="6"/>
	<rect x="153.002" y="155.945" fill="#9B8579" width="6" height="6"/>
	<rect x="153.002" y="149.957" fill="#9B8579" width="6" height="6"/>
	<rect x="153.002" y="131.969" fill="#EFD1B8" width="6" height="6"/>
	<rect x="153.002" y="120.008" fill="#D7BFAA" width="6" height="6"/>
	<rect x="153.002" y="125.969" fill="#1A1818" width="6" height="6"/>
	<rect x="153.002" y="102.031" fill="#D7BFAA" width="6" height="6"/>
	<rect x="153.002" y="96.043" fill="#9B8579" width="6" height="6"/>
	<rect x="153.002" y="90.043" fill="#726658" width="6" height="6"/>
	<rect x="165.002" y="96.043" fill="#594A42" width="6" height="6"/>
	<rect x="159.006" y="90.043" fill="#594A42" width="6" height="6"/>
	<rect x="153.002" y="108.031" fill="#D7BFAA" width="6" height="6"/>
	<rect x="153.002" y="114.031" fill="#D7BFAA" width="6" height="6"/>
	<rect x="164.998" y="114.031" fill="#726658" width="6" height="6"/>
	<rect x="171.002" y="102.031" fill="#594A42" width="6" height="6"/>
	<rect x="171.002" y="108.031" fill="#726658" width="6" height="6"/>
	<rect x="171.002" y="114.031" fill="#726658" width="6" height="6"/>
	<rect x="164.998" y="120.008" fill="#9B8579" width="6" height="6"/>
	<rect x="171.002" y="120.008" fill="#726658" width="6" height="6"/>
	<rect x="135.002" y="167.945" fill="#9B8579" width="6" height="6"/>
	<rect x="141.002" y="167.945" fill="#9B8579" width="6" height="6"/>
	<rect x="147.002" y="167.945" fill="#9B8579" width="6" height="6"/>
	<rect x="153.002" y="167.945" fill="#EFD1B8" width="6" height="6"/>
	<rect x="159.002" y="173.977" fill="#EFD1B8" width="6" height="6"/>
	<rect x="159.006" y="167.945" fill="#D7BFAA" width="6" height="6"/>
	<rect x="164.994" y="149.93" fill="#D7BFAA" width="6" height="6"/>
	<rect x="164.994" y="161.961" fill="#EFD1B8" width="6" height="6"/>
	<rect x="164.994" y="167.945" fill="#EFD1B8" width="6" height="6"/>
	<rect x="164.998" y="155.93" fill="#D7BFAA" width="6" height="6"/>
	<rect x="134.998" y="179.957" fill="#FFFFFF" width="6" height="6"/>
	<rect x="128.998" y="179.957" fill="#C7919B" width="6" height="6"/>
	<rect x="128.998" y="173.957" fill="#7F95A5" width="6" height="6"/>
	<rect x="123.123" y="173.957" fill="#C7919B" width="6" height="6"/>
	<rect x="134.998" y="185.957" fill="#AB7384" width="6" height="6"/>
	<rect x="128.998" y="185.957" fill="#7F95A5" width="6" height="6"/>
	<rect x="122.998" y="185.957" fill="#C7919B" width="6" height="6"/>
	<rect x="134.998" y="191.957" fill="#D8CBB7" width="6" height="6"/>
	<rect x="128.998" y="191.957" fill="#AB7384" width="6" height="6"/>
	<rect x="122.998" y="191.957" fill="#D8CBB7" width="6" height="6"/>
	<rect x="134.998" y="197.957" fill="#C7919B" width="6" height="6"/>
	<rect x="128.998" y="197.957" fill="#7F95A5" width="6" height="6"/>
	<rect x="122.998" y="197.957" fill="#C7919B" width="6" height="6"/>
	<rect x="134.998" y="203.957" fill="#D8CBB7" width="6" height="6"/>
	<rect x="140.998" y="191.957" fill="#C7919B" width="6" height="6"/>
	<rect x="140.998" y="197.957" fill="#D8CBB7" width="6" height="6"/>
	<rect x="140.998" y="203.957" fill="#AB7384" width="6" height="6"/>
	<rect x="146.998" y="197.957" fill="#C7919B" width="6" height="6"/>
	<rect x="146.998" y="203.957" fill="#7F95A5" width="6" height="6"/>
	<rect x="128.998" y="203.957" fill="#C7919B" width="6" height="6"/>
	<rect x="122.998" y="203.957" fill="#D8CBB7" width="6" height="6"/>
	<rect x="116.998" y="191.957" fill="#C7919B" width="6" height="6"/>
	<rect x="116.998" y="197.957" fill="#AB7384" width="6" height="6"/>
	<rect x="116.998" y="203.957" fill="#7F95A5" width="6" height="6"/>
	<rect x="165.002" y="173.957" fill="#C7919B" width="6" height="6"/>
	<rect x="171.002" y="173.957" fill="#AB7384" width="6" height="6"/>
	<rect x="171.002" y="167.957" fill="#AB7384" width="6" height="6"/>
	<rect x="177.002" y="167.957" fill="#7F95A5" width="6" height="6"/>
	<rect x="183.002" y="167.957" fill="#C7919B" width="6" height="6"/>
	<rect x="177.002" y="173.957" fill="#C7919B" width="6" height="6"/>
	<rect x="165.002" y="179.957" fill="#7F95A5" width="6" height="6"/>
	<rect x="171.002" y="179.957" fill="#C7919B" width="6" height="6"/>
	<rect x="177.002" y="179.957" fill="#7F95A5" width="6" height="6"/>
	<rect x="183.002" y="179.957" fill="#C7919B" width="6" height="6"/>
	<rect x="165.002" y="185.957" fill="#C7919B" width="6" height="6"/>
	<rect x="171.002" y="185.957" fill="#D8CBB7" width="6" height="6"/>
	<rect x="177.002" y="185.957" fill="#C7919B" width="6" height="6"/>
	<rect x="183.002" y="185.957" fill="#AB7384" width="6" height="6"/>
	<rect x="189.002" y="185.957" fill="#7F95A5" width="6" height="6"/>
	<rect x="165.002" y="191.957" fill="#D8CBB7" width="6" height="6"/>
	<rect x="171.002" y="191.957" fill="#AB7384" width="6" height="6"/>
	<rect x="177.002" y="191.957" fill="#D8CBB7" width="6" height="6"/>
	<rect x="183.002" y="191.957" fill="#C7919B" width="6" height="6"/>
	<rect x="189.002" y="191.957" fill="#D8CBB7" width="6" height="6"/>
	<rect x="165.002" y="197.957" fill="#C7919B" width="6" height="6"/>
	<rect x="171.002" y="197.957" fill="#7F95A5" width="6" height="6"/>
	<rect x="177.002" y="197.957" fill="#C7919B" width="6" height="6"/>
	<rect x="183.002" y="197.957" fill="#AB7384" width="6" height="6"/>
	<rect x="189.002" y="197.957" fill="#C7919B" width="6" height="6"/>
	<rect x="165.002" y="203.957" fill="#AB7384" width="6" height="6"/>
	<rect x="159.006" y="191.957" fill="#C7919B" width="6" height="6"/>
	<rect x="153.002" y="191.957" fill="#AB7384" width="6" height="6"/>
	<rect x="159.006" y="197.957" fill="#AB7384" width="6" height="6"/>
	<rect x="159.006" y="203.957" fill="#C7919B" width="6" height="6"/>
	<rect x="152.998" y="197.957" fill="#7F95A5" width="6" height="6"/>
	<rect x="152.998" y="203.957" fill="#D8CBB7" width="6" height="6"/>
	<rect x="171.002" y="203.957" fill="#C7919B" width="6" height="6"/>
	<rect x="177.002" y="203.957" fill="#D8CBB7" width="6" height="6"/>
	<rect x="183.002" y="203.957" fill="#C7919B" width="6" height="6"/>
	<rect x="189.002" y="203.957" fill="#7F95A5" width="6" height="6"/>
</g>
</svg>
