<?xml version="1.0" encoding="utf-8"?>
<!-- Generator: Adobe Illustrator 16.0.0, SVG Export Plug-In . SVG Version: 6.00 Build 0)  -->
<!DOCTYPE svg PUBLIC "-//W3C//DTD SVG 1.1//EN" "http://www.w3.org/Graphics/SVG/1.1/DTD/svg11.dtd">
<svg version="1.1" id="Layer_1" xmlns="http://www.w3.org/2000/svg" xmlns:xlink="http://www.w3.org/1999/xlink" x="0px" y="0px"
	 width="300px" height="300px" viewBox="0 0 300 300" enable-background="new 0 0 300 300" xml:space="preserve">
<g>
	<rect x="97.5" y="90.044" fill="#6A649D" width="7.5" height="7.5"/>
	<rect x="97.5" y="82.544" fill="#6A649D" width="7.5" height="7.5"/>
	<rect x="105" y="82.544" fill="#6A649D" width="7.5" height="7.5"/>
	<rect x="112.5" y="82.544" fill="#6A649D" width="7.5" height="7.5"/>
	<rect x="120" y="82.544" fill="#6A649D" width="7.5" height="7.5"/>
	<rect x="105" y="90.044" fill="#222020" width="7.5" height="7.5"/>
	<rect x="112.5" y="90.044" fill="#443975" width="7.5" height="7.5"/>
	<rect x="120" y="90.044" fill="#6A649D" width="7.5" height="7.5"/>
	<rect x="90" y="105.024" fill="#6A649D" width="7.5" height="7.5"/>
	<rect x="97.5" y="105.024" fill="#AAD887" width="7.5" height="7.5"/>
	<rect x="105" y="105.024" fill="#AAD887" width="7.5" height="7.5"/>
	<rect x="112.5" y="105.024" fill="#E2E56D" width="7.5" height="7.5"/>
	<rect x="120" y="105.024" fill="#E2E56D" width="7.5" height="7.5"/>
	<rect x="127.5" y="105.024" fill="#6A649D" width="7.5" height="7.5"/>
	<rect x="97.5" y="112.524" fill="#E2E56D" width="7.5" height="7.5"/>
	<rect x="105" y="112.524" fill="#E2E56D" width="7.5" height="7.5"/>
	<rect x="112.5" y="112.524" fill="#E2E56D" width="7.5" height="7.5"/>
	<rect x="120" y="112.524" fill="#AAD887" width="7.5" height="7.5"/>
	<rect x="127.5" y="112.524" fill="#443975" width="7.5" height="7.5"/>
	<rect x="97.5" y="120.024" fill="#222020" width="7.5" height="7.5"/>
	<rect x="90" y="127.495" fill="#E2E56D" width="7.5" height="7.5"/>
	<rect x="97.5" y="127.495" fill="#222020" width="7.5" height="7.5"/>
	<rect x="90" y="134.985" fill="#E2E56D" width="7.5" height="7.5"/>
	<rect x="97.5" y="134.985" fill="#E2E56D" width="7.5" height="7.5"/>
	<rect x="90" y="142.495" fill="#E2E56D" width="7.5" height="7.5"/>
	<rect x="97.5" y="142.495" fill="#222020" width="7.5" height="7.5"/>
	<rect x="90" y="149.985" fill="#222020" width="7.5" height="7.5"/>
	<rect x="97.5" y="149.985" fill="#222020" width="7.5" height="7.5"/>
	<rect x="112.5" y="149.985" fill="#222020" width="7.5" height="7.5"/>
	<rect x="105" y="149.985" fill="#222020" width="7.5" height="7.5"/>
	<rect x="120" y="149.985" fill="#222020" width="7.5" height="7.5"/>
	<rect x="135" y="149.985" fill="#E2E56D" width="7.5" height="7.5"/>
	<rect x="127.5" y="149.985" fill="#E2E56D" width="7.5" height="7.5"/>
	<rect x="112.5" y="157.466" fill="#222020" width="7.5" height="7.5"/>
	<rect x="105" y="157.466" fill="#222020" width="7.5" height="7.5"/>
	<rect x="97.5" y="157.466" fill="#222020" width="7.5" height="7.5"/>
	<rect x="90" y="157.466" fill="#222020" width="7.5" height="7.5"/>
	<rect x="120" y="157.466" fill="#E2E56D" width="7.5" height="7.5"/>
	<rect x="127.5" y="157.466" fill="#E2E56D" width="7.5" height="7.5"/>
	<rect x="112.5" y="164.956" fill="#E2E56D" width="7.5" height="7.5"/>
	<rect x="105" y="164.956" fill="#E2E56D" width="7.5" height="7.5"/>
	<rect x="97.5" y="164.956" fill="#E2E56D" width="7.5" height="7.5"/>
	<rect x="97.5" y="172.456" fill="#E2E56D" width="7.5" height="7.5"/>
	<rect x="90" y="164.956" fill="#E2E56D" width="7.5" height="7.5"/>
	<rect x="120" y="164.956" fill="#AAD887" width="7.5" height="7.5"/>
	<rect x="127.5" y="164.956" fill="#AAD887" width="7.5" height="7.5"/>
	<rect x="112.5" y="172.456" fill="#222020" width="7.5" height="7.5"/>
	<rect x="105" y="172.456" fill="#AAD887" width="7.5" height="7.5"/>
	<rect x="120" y="172.456" fill="#222020" width="7.5" height="7.5"/>
	<rect x="112.5" y="179.956" fill="#222020" width="7.5" height="7.5"/>
	<rect x="120" y="179.956" fill="#222020" width="7.5" height="7.5"/>
	<rect x="112.5" y="187.456" fill="#222020" width="7.5" height="7.5"/>
	<rect x="120" y="187.456" fill="#222020" width="7.5" height="7.5"/>
	<rect x="127.5" y="179.956" fill="#222020" width="7.5" height="7.5"/>
	<rect x="127.5" y="172.456" fill="#222020" width="7.5" height="7.5"/>
	<rect x="135" y="172.456" fill="#222020" width="7.5" height="7.5"/>
	<rect x="135" y="179.956" fill="#6A649D" width="7.5" height="7.5"/>
	<rect x="142.5" y="179.956" fill="#6A649D" width="7.5" height="7.5"/>
	<rect x="150" y="179.956" fill="#6A649D" width="7.5" height="7.5"/>
	<rect x="142.5" y="172.456" fill="#6A649D" width="7.5" height="7.5"/>
	<rect x="150" y="172.456" fill="#6A649D" width="7.5" height="7.5"/>
	<rect x="157.5" y="179.956" fill="#6A649D" width="7.5" height="7.5"/>
	<rect x="165" y="179.956" fill="#443975" width="7.5" height="7.5"/>
	<rect x="157.5" y="172.456" fill="#6A649D" width="7.5" height="7.5"/>
	<rect x="135" y="187.456" fill="#6A649D" width="7.5" height="7.5"/>
	<rect x="127.5" y="187.456" fill="#6A649D" width="7.5" height="7.5"/>
	<rect x="105" y="187.456" fill="#222020" width="7.5" height="7.5"/>
	<rect x="105" y="179.956" fill="#222020" width="7.5" height="7.5"/>
	<rect x="97.5" y="179.956" fill="#222020" width="7.5" height="7.5"/>
	<rect x="97.5" y="187.456" fill="#443975" width="7.5" height="7.5"/>
	<rect x="142.5" y="187.456" fill="#443975" width="7.5" height="7.5"/>
	<rect x="150" y="187.456" fill="#6A649D" width="7.5" height="7.5"/>
	<rect x="157.5" y="187.456" fill="#443975" width="7.5" height="7.5"/>
	<rect x="112.5" y="202.456" fill="#6A649D" width="7.5" height="7.5"/>
	<rect x="120" y="202.456" fill="#6A649D" width="7.5" height="7.5"/>
	<rect x="135" y="202.456" fill="#6A649D" width="7.5" height="7.5"/>
	<rect x="127.5" y="202.456" fill="#443975" width="7.5" height="7.5"/>
	<rect x="105" y="202.456" fill="#6A649D" width="7.5" height="7.5"/>
	<rect x="97.5" y="202.456" fill="#443975" width="7.5" height="7.5"/>
	<rect x="90" y="202.456" fill="#443975" width="7.5" height="7.5"/>
	<rect x="142.5" y="202.456" fill="#6A649D" width="7.5" height="7.5"/>
	<rect x="150" y="202.456" fill="#443975" width="7.5" height="7.5"/>
	<rect x="157.5" y="202.456" fill="#6A649D" width="7.5" height="7.5"/>
	<rect x="112.5" y="217.456" fill="#67AAD5" width="7.5" height="7.5"/>
	<rect x="120" y="217.456" fill="#443975" width="7.5" height="7.5"/>
	<rect x="135" y="217.456" fill="#443975" width="7.5" height="7.5"/>
	<rect x="127.5" y="217.456" fill="#6A649D" width="7.5" height="7.5"/>
	<rect x="105" y="217.456" fill="#67AAD5" width="7.5" height="7.5"/>
	<rect x="97.5" y="217.456" fill="#67AAD5" width="7.5" height="7.5"/>
	<rect x="142.5" y="217.456" fill="#443975" width="7.5" height="7.5"/>
	<rect x="150" y="217.456" fill="#6A649D" width="7.5" height="7.5"/>
	<rect x="157.5" y="217.456" fill="#443975" width="7.5" height="7.5"/>
	<rect x="112.5" y="194.956" fill="#222020" width="7.5" height="7.5"/>
	<rect x="120" y="194.956" fill="#6A649D" width="7.5" height="7.5"/>
	<rect x="135" y="194.956" fill="#443975" width="7.5" height="7.5"/>
	<rect x="127.5" y="194.956" fill="#6A649D" width="7.5" height="7.5"/>
	<rect x="105" y="194.956" fill="#6A649D" width="7.5" height="7.5"/>
	<rect x="97.5" y="194.956" fill="#6A649D" width="7.5" height="7.5"/>
	<rect x="90" y="194.956" fill="#6A649D" width="7.5" height="7.5"/>
	<rect x="90" y="187.456" fill="#6A649D" width="7.5" height="7.5"/>
	<rect x="142.5" y="194.956" fill="#6A649D" width="7.5" height="7.5"/>
	<rect x="150" y="194.956" fill="#6A649D" width="7.5" height="7.5"/>
	<rect x="157.5" y="194.956" fill="#6A649D" width="7.5" height="7.5"/>
	<rect x="112.5" y="209.956" fill="#443975" width="7.5" height="7.5"/>
	<rect x="120" y="209.956" fill="#6A649D" width="7.5" height="7.5"/>
	<rect x="135" y="209.956" fill="#6A649D" width="7.5" height="7.5"/>
	<rect x="127.5" y="209.956" fill="#6A649D" width="7.5" height="7.5"/>
	<rect x="105" y="209.956" fill="#443975" width="7.5" height="7.5"/>
	<rect x="97.5" y="209.956" fill="#67AAD5" width="7.5" height="7.5"/>
	<rect x="142.5" y="209.956" fill="#6A649D" width="7.5" height="7.5"/>
	<rect x="150" y="209.956" fill="#6A649D" width="7.5" height="7.5"/>
	<rect x="157.5" y="209.956" fill="#6A649D" width="7.5" height="7.5"/>
	<rect x="142.5" y="149.985" fill="#6A649D" width="7.5" height="7.5"/>
	<rect x="135" y="142.495" fill="#E2E56D" width="7.5" height="7.5"/>
	<rect x="142.5" y="142.495" fill="#443975" width="7.5" height="7.5"/>
	<rect x="135" y="164.956" fill="#222020" width="7.5" height="7.5"/>
	<rect x="142.5" y="164.956" fill="#443975" width="7.5" height="7.5"/>
	<rect x="135" y="157.466" fill="#AAD887" width="7.5" height="7.5"/>
	<rect x="142.5" y="157.466" fill="#443975" width="7.5" height="7.5"/>
	<rect x="150" y="149.985" fill="#6A649D" width="7.5" height="7.5"/>
	<rect x="150" y="142.495" fill="#6A649D" width="7.5" height="7.5"/>
	<rect x="150" y="164.956" fill="#6A649D" width="7.5" height="7.5"/>
	<rect x="150" y="157.466" fill="#6A649D" width="7.5" height="7.5"/>
	<rect x="135" y="134.985" fill="#222020" width="7.5" height="7.5"/>
	<rect x="142.5" y="134.985" fill="#6A649D" width="7.5" height="7.5"/>
	<rect x="135" y="127.495" fill="#443975" width="7.5" height="7.5"/>
	<rect x="142.5" y="127.495" fill="#6A649D" width="7.5" height="7.5"/>
	<rect x="150" y="134.985" fill="#6A649D" width="7.5" height="7.5"/>
	<rect x="157.5" y="149.985" fill="#6A649D" width="7.5" height="7.5"/>
	<rect x="157.5" y="142.495" fill="#6A649D" width="7.5" height="7.5"/>
	<rect x="157.5" y="164.956" fill="#6A649D" width="7.5" height="7.5"/>
	<rect x="157.5" y="157.466" fill="#6A649D" width="7.5" height="7.5"/>
	<rect x="157.5" y="134.985" fill="#6A649D" width="7.5" height="7.5"/>
	<rect x="157.5" y="134.985" fill="#6A649D" width="7.5" height="7.5"/>
	<rect x="157.5" y="127.495" fill="#6A649D" width="7.5" height="7.5"/>
	<rect x="157.5" y="120.024" fill="#6A649D" width="7.5" height="7.5"/>
	<rect x="165" y="172.456" fill="#6A649D" width="7.5" height="7.5"/>
	<rect x="165" y="149.985" fill="#6A649D" width="7.5" height="7.5"/>
	<rect x="165" y="142.495" fill="#6A649D" width="7.5" height="7.5"/>
	<rect x="165" y="164.956" fill="#6A649D" width="7.5" height="7.5"/>
	<rect x="165" y="157.466" fill="#6A649D" width="7.5" height="7.5"/>
	<rect x="172.5" y="149.985" fill="#6A649D" width="7.5" height="7.5"/>
	<rect x="172.5" y="164.956" fill="#443975" width="7.5" height="7.5"/>
	<rect x="172.5" y="172.456" fill="#6A649D" width="7.5" height="7.5"/>
	<rect x="180" y="164.956" fill="#6A649D" width="7.5" height="7.5"/>
	<rect x="180" y="172.456" fill="#6A649D" width="7.5" height="7.5"/>
	<rect x="165" y="187.456" fill="#6A649D" width="7.5" height="7.5"/>
	<rect x="165" y="202.456" fill="#6A649D" width="7.5" height="7.5"/>
	<rect x="165" y="217.456" fill="#67AAD5" width="7.5" height="7.5"/>
	<rect x="165" y="194.956" fill="#6A649D" width="7.5" height="7.5"/>
	<rect x="180" y="187.456" fill="#443975" width="7.5" height="7.5"/>
	<rect x="180" y="202.456" fill="#67AAD5" width="7.5" height="7.5"/>
	<rect x="180" y="194.956" fill="#67AAD5" width="7.5" height="7.5"/>
	<rect x="165" y="209.956" fill="#443975" width="7.5" height="7.5"/>
	<rect x="180" y="217.456" fill="#67AAD5" width="7.5" height="7.5"/>
	<rect x="180" y="209.956" fill="#80BEDE" width="7.5" height="7.5"/>
	<rect x="172.5" y="187.456" fill="#6A649D" width="7.5" height="7.5"/>
	<rect x="172.5" y="202.456" fill="#67AAD5" width="7.5" height="7.5"/>
	<rect x="172.5" y="194.956" fill="#6A649D" width="7.5" height="7.5"/>
	<rect x="172.5" y="217.456" fill="#67AAD5" width="7.5" height="7.5"/>
	<rect x="172.5" y="209.956" fill="#67AAD5" width="7.5" height="7.5"/>
	<rect x="187.5" y="187.456" fill="#6A649D" width="7.5" height="7.5"/>
	<rect x="187.5" y="194.956" fill="#67AAD5" width="7.5" height="7.5"/>
	<g>
		<rect x="187.5" y="202.456" fill="#67AAD5" width="7.5" height="7.5"/>
		<rect x="187.5" y="217.456" fill="#67AAD5" width="7.5" height="7.5"/>
		<rect x="187.5" y="209.956" fill="#67AAD5" width="7.5" height="7.5"/>
	</g>
	<rect x="195" y="202.456" fill="#80BEDE" width="7.5" height="7.5"/>
	<rect x="195" y="217.456" fill="#67AAD5" width="7.5" height="7.5"/>
	<rect x="195" y="209.956" fill="#67AAD5" width="7.5" height="7.5"/>
	<rect x="187.5" y="172.456" fill="#6A649D" width="7.5" height="7.5"/>
	<rect x="187.5" y="179.956" fill="#443975" width="7.5" height="7.5"/>
	<rect x="195" y="179.956" fill="#6A649D" width="7.5" height="7.5"/>
	<rect x="202.5" y="172.456" fill="#6A649D" width="7.5" height="7.5"/>
	<rect x="172.5" y="179.956" fill="#443975" width="7.5" height="7.5"/>
	<rect x="180" y="179.956" fill="#6A649D" width="7.5" height="7.5"/>
	<rect x="172.5" y="157.466" fill="#6A649D" width="7.5" height="7.5"/>
	<rect x="150" y="127.495" fill="#6A649D" width="7.5" height="7.5"/>
	<rect x="150" y="120.024" fill="#6A649D" width="7.5" height="7.5"/>
	<rect x="150" y="112.524" fill="#6A649D" width="7.5" height="7.5"/>
	<rect x="150" y="105.024" fill="#6A649D" width="7.5" height="7.5"/>
	<rect x="105" y="120.024" fill="#222020" width="7.5" height="7.5"/>
	<rect x="112.5" y="120.024" fill="#222020" width="7.5" height="7.5"/>
	<rect x="120" y="120.024" fill="#E2E56D" width="7.5" height="7.5"/>
	<rect x="127.5" y="120.024" fill="#AAD887" width="7.5" height="7.5"/>
	<rect x="105" y="127.495" fill="#222020" width="7.5" height="7.5"/>
	<rect x="112.5" y="127.495" fill="#E2E56D" width="7.5" height="7.5"/>
	<rect x="120" y="127.495" fill="#E2E56D" width="7.5" height="7.5"/>
	<rect x="127.5" y="127.495" fill="#E2E56D" width="7.5" height="7.5"/>
	<rect x="105" y="134.985" fill="#E2E56D" width="7.5" height="7.5"/>
	<rect x="112.5" y="134.985" fill="#E2E56D" width="7.5" height="7.5"/>
	<rect x="120" y="134.985" fill="#E2E56D" width="7.5" height="7.5"/>
	<rect x="127.5" y="134.985" fill="#AAD887" width="7.5" height="7.5"/>
	<rect x="105" y="142.485" fill="#E2E56D" width="7.5" height="7.5"/>
	<rect x="112.5" y="142.485" fill="#222020" width="7.5" height="7.5"/>
	<rect x="120" y="142.485" fill="#E2E56D" width="7.5" height="7.5"/>
	<rect x="127.5" y="142.485" fill="#222020" width="7.5" height="7.5"/>
	<rect x="135" y="105.024" fill="#6A649D" width="7.5" height="7.5"/>
	<rect x="142.5" y="105.024" fill="#6A649D" width="7.5" height="7.5"/>
	<rect x="90" y="97.544" fill="#6A649D" width="7.5" height="7.5"/>
	<rect x="90" y="90.044" fill="#6A649D" width="7.5" height="7.5"/>
	<rect x="97.5" y="97.544" fill="#222020" width="7.5" height="7.5"/>
	<rect x="105" y="97.544" fill="#AAD887" width="7.5" height="7.5"/>
	<rect x="112.5" y="97.544" fill="#AAD887" width="7.5" height="7.5"/>
	<rect x="120" y="97.544" fill="#443975" width="7.5" height="7.5"/>
	<rect x="127.5" y="97.544" fill="#6A649D" width="7.5" height="7.5"/>
	<rect x="135" y="97.544" fill="#6A649D" width="7.5" height="7.5"/>
	<rect x="127.5" y="90.044" fill="#6A649D" width="7.5" height="7.5"/>
	<rect x="135" y="90.044" fill="#6A649D" width="7.5" height="7.5"/>
	<rect x="135" y="82.544" fill="#6A649D" width="7.5" height="7.5"/>
	<rect x="127.5" y="82.544" fill="#6A649D" width="7.5" height="7.5"/>
	<rect x="142.5" y="82.544" fill="#6A649D" width="7.5" height="7.5"/>
	<rect x="142.5" y="90.044" fill="#6A649D" width="7.5" height="7.5"/>
	<rect x="142.5" y="97.544" fill="#6A649D" width="7.5" height="7.5"/>
	<rect x="150" y="82.544" fill="#6A649D" width="7.5" height="7.5"/>
	<rect x="150" y="90.044" fill="#6A649D" width="7.5" height="7.5"/>
	<rect x="150" y="97.544" fill="#6A649D" width="7.5" height="7.5"/>
	<rect x="157.5" y="112.524" fill="#6A649D" width="7.5" height="7.5"/>
	<rect x="157.5" y="105.024" fill="#6A649D" width="7.5" height="7.5"/>
	<rect x="165" y="127.495" fill="#6A649D" width="7.5" height="7.5"/>
	<rect x="165" y="120.024" fill="#6A649D" width="7.5" height="7.5"/>
	<rect x="165" y="112.524" fill="#6A649D" width="7.5" height="7.5"/>
	<rect x="165" y="105.024" fill="#443975" width="7.5" height="7.5"/>
	<rect x="157.5" y="97.544" fill="#443975" width="7.5" height="7.5"/>
	<rect x="157.5" y="82.544" fill="#6A649D" width="7.5" height="7.5"/>
	<rect x="150" y="75.044" fill="#6A649D" width="7.5" height="7.5"/>
	<rect x="142.5" y="75.044" fill="#6A649D" width="7.5" height="7.5"/>
	<rect x="135" y="75.044" fill="#6A649D" width="7.5" height="7.5"/>
	<rect x="157.5" y="75.044" fill="#6A649D" width="7.5" height="7.5"/>
	<rect x="165" y="82.544" fill="#6A649D" width="7.5" height="7.5"/>
	<rect x="157.5" y="90.044" fill="#6A649D" width="7.5" height="7.5"/>
	<rect x="165" y="90.044" fill="#6A649D" width="7.5" height="7.5"/>
	<rect x="165" y="97.544" fill="#6A649D" width="7.5" height="7.5"/>
	<rect x="172.5" y="90.044" fill="#6A649D" width="7.5" height="7.5"/>
	<rect x="172.5" y="97.544" fill="#6A649D" width="7.5" height="7.5"/>
	<rect x="180" y="97.544" fill="#6A649D" width="7.5" height="7.5"/>
	<rect x="180" y="105.024" fill="#6A649D" width="7.5" height="7.5"/>
	<rect x="172.5" y="105.024" fill="#6A649D" width="7.5" height="7.5"/>
	<rect x="135" y="112.524" fill="#6A649D" width="7.5" height="7.5"/>
	<rect x="142.5" y="112.524" fill="#6A649D" width="7.5" height="7.5"/>
	<rect x="135" y="120.024" fill="#6A649D" width="7.5" height="7.5"/>
	<rect x="142.5" y="120.024" fill="#6A649D" width="7.5" height="7.5"/>
</g>
</svg>
