<?xml version="1.0" encoding="utf-8"?>
<!-- Generator: Adobe Illustrator 16.0.0, SVG Export Plug-In . SVG Version: 6.00 Build 0)  -->
<!DOCTYPE svg PUBLIC "-//W3C//DTD SVG 1.1//EN" "http://www.w3.org/Graphics/SVG/1.1/DTD/svg11.dtd">
<svg version="1.1" id="Layer_1" xmlns="http://www.w3.org/2000/svg" xmlns:xlink="http://www.w3.org/1999/xlink" x="0px" y="0px"
	 width="300px" height="300px" viewBox="0 0 300 300" enable-background="new 0 0 300 300" xml:space="preserve">
<g>
	<rect x="120" y="120.195" fill="#F3D9D0" width="6" height="6"/>
	<rect x="126" y="120.195" fill="#F3D9D0" width="6" height="6"/>
	<rect x="132" y="120.195" fill="#EFD1B8" width="6" height="6"/>
	<rect x="138" y="120.195" fill="#F3D9D0" width="6" height="6"/>
	<rect x="144" y="120.188" fill="#5A5B5E" width="6" height="6"/>
	<rect x="114" y="126.195" fill="#F3D9D0" width="6" height="6"/>
	<rect x="120" y="126.195" fill="#231F20" width="6" height="6"/>
	<rect x="126" y="126.188" fill="#9B8579" width="6" height="6"/>
	<rect x="132" y="126.188" fill="#EFD1B8" width="6" height="6"/>
	<rect x="138" y="126.188" fill="#EFD1B8" width="6" height="6"/>
	<rect x="144" y="126.195" fill="#F3D9D0" width="6" height="6"/>
	<rect x="114" y="132.195" fill="#EFD1B8" width="6" height="6"/>
	<rect x="120" y="132.195" fill="#EAC4B2" width="6" height="6"/>
	<rect x="114" y="138.172" fill="#EFD1B8" width="6" height="6"/>
	<rect x="120" y="138.172" fill="#422D20" width="6" height="6"/>
	<rect x="114" y="144.164" fill="#EAC4B2" width="6" height="6"/>
	<rect x="120" y="144.164" fill="#EFD1B8" width="6" height="6"/>
	<rect x="114" y="150.172" fill="#464749" width="6" height="6"/>
	<rect x="120" y="150.172" fill="#464749" width="6" height="6"/>
	<rect x="108" y="144.156" fill="#EAC4B2" width="6" height="6"/>
	<rect x="108" y="138.156" fill="#EAC4B2" width="6" height="6"/>
	<rect x="132" y="156.125" fill="#FFFFFF" width="6" height="6"/>
	<rect x="126" y="156.125" fill="#FFFFFF" width="6" height="6"/>
	<rect x="120" y="156.125" fill="#FFFFFF" width="6" height="6"/>
	<rect x="138" y="156.125" fill="#9D575A" width="6" height="6"/>
	<rect x="144" y="156.125" fill="#F3D9D0" width="6" height="6"/>
	<rect x="132" y="162.117" fill="#C97D7A" width="6" height="6"/>
	<rect x="126" y="162.117" fill="#AD6D67" width="6" height="6"/>
	<rect x="138" y="162.117" fill="#726658" width="6" height="6"/>
	<rect x="144" y="162.117" fill="#AE9D85" width="6" height="6"/>
	<rect x="132" y="168.117" fill="#726658" width="6" height="6"/>
	<rect x="126" y="168.117" fill="#464749" width="6" height="6"/>
	<rect x="120" y="162.117" fill="#AD6D67" width="6" height="6"/>
	<rect x="120" y="168.117" fill="#D7BFAA" width="6" height="6"/>
	<rect x="126" y="174.117" fill="#464749" width="6" height="6"/>
	<rect x="138" y="168.117" fill="#AFAFA2" width="6" height="6"/>
	<rect x="132" y="174.117" fill="#AFAFA2" width="6" height="6"/>
	<rect x="138" y="174.117" fill="#AE9D85" width="6" height="6"/>
	<rect x="144" y="174.117" fill="#D7BFAA" width="6" height="6"/>
	<rect x="144" y="168.117" fill="#AFAFA2" width="6" height="6"/>
	<rect x="150" y="168.117" fill="#D7BFAA" width="6" height="6"/>
	<rect x="150" y="174.117" fill="#EFD1B8" width="6" height="6"/>
	<rect x="132" y="186.117" fill="#14354C" width="6" height="6"/>
	<rect x="138" y="186.117" fill="#EFD1B8" width="6" height="6"/>
	<rect x="150" y="186.117" fill="#334D6B" width="6" height="6"/>
	<rect x="144" y="186.117" fill="#14354C" width="6" height="6"/>
	<rect x="126" y="186.117" fill="#14354C" width="6" height="6"/>
	<rect x="126" y="192.117" fill="#334D6B" width="6" height="6"/>
	<rect x="120" y="186.117" fill="#334D6B" width="6" height="6"/>
	<rect x="114" y="186.117" fill="#334D6B" width="6" height="6"/>
	<rect x="156" y="186.117" fill="#334D6B" width="6" height="6"/>
	<rect x="168" y="186.117" fill="#334D6B" width="6" height="6"/>
	<rect x="174" y="186.117" fill="#334D6B" width="6" height="6"/>
	<rect x="180" y="186.117" fill="#334D6B" width="6" height="6"/>
	<rect x="132" y="203.797" fill="#ECEEEE" width="6" height="6"/>
	<rect x="138" y="203.797" fill="#334D6B" width="6" height="6"/>
	<rect x="150" y="203.797" fill="#F15A29" width="6" height="6"/>
	<rect x="144" y="203.797" fill="#F15A29" width="6" height="6"/>
	<rect x="126" y="203.797" fill="#ECEEEE" width="6" height="6"/>
	<rect x="120" y="203.797" fill="#334D6B" width="6" height="6"/>
	<rect x="114" y="203.797" fill="#14354C" width="6" height="6"/>
	<rect x="156" y="203.797" fill="#F15A29" width="6" height="6"/>
	<rect x="168" y="203.797" fill="#334D6B" width="6" height="6"/>
	<rect x="174" y="203.797" fill="#14354C" width="6" height="6"/>
	<rect x="180" y="203.797" fill="#14354C" width="6" height="6"/>
	<rect x="132" y="180.117" fill="#D7BFAA" width="6" height="6"/>
	<rect x="138" y="180.117" fill="#D7BFAA" width="6" height="6"/>
	<rect x="150" y="180.117" fill="#14354C" width="6" height="6"/>
	<rect x="144" y="180.117" fill="#EFD1B8" width="6" height="6"/>
	<rect x="126" y="180.117" fill="#D7BFAA" width="6" height="6"/>
	<rect x="120" y="180.117" fill="#14354C" width="6" height="6"/>
	<rect x="120" y="174.117" fill="#464749" width="6" height="6"/>
	<rect x="114" y="180.117" fill="#334D6B" width="6" height="6"/>
	<rect x="156" y="180.117" fill="#14354C" width="6" height="6"/>
	<rect x="168" y="180.117" fill="#334D6B" width="6" height="6"/>
	<rect x="174" y="180.117" fill="#334D6B" width="6" height="6"/>
	<rect x="180" y="180.117" fill="#334D6B" width="6" height="6"/>
	<rect x="132" y="192.117" fill="#334D6B" width="6" height="6"/>
	<rect x="138" y="192.117" fill="#14354C" width="6" height="6"/>
	<rect x="150" y="192.117" fill="#334D6B" width="6" height="6"/>
	<rect x="144" y="192.117" fill="#334D6B" width="6" height="6"/>
	<rect x="126" y="192.117" fill="#334D6B" width="6" height="6"/>
	<rect x="120" y="192.117" fill="#334D6B" width="6" height="6"/>
	<rect x="114" y="192.117" fill="#334D6B" width="6" height="6"/>
	<rect x="108" y="186.117" fill="#334D6B" width="6" height="6"/>
	<rect x="108" y="180.117" fill="#334D6B" width="6" height="6"/>
	<rect x="108" y="203.797" fill="#14354C" width="6" height="6"/>
	<rect x="108" y="192.117" fill="#334D6B" width="6" height="6"/>
	<rect x="102" y="186.117" fill="#334D6B" width="6" height="6"/>
	<rect x="102" y="203.797" fill="#14354C" width="6" height="6"/>
	<rect x="102" y="192.117" fill="#334D6B" width="6" height="6"/>
	<rect x="156" y="192.117" fill="#334D6B" width="6" height="6"/>
	<rect x="162" y="186.117" fill="#334D6B" width="6" height="6"/>
	<rect x="162" y="203.797" fill="#334D6B" width="6" height="6"/>
	<rect x="162" y="180.117" fill="#334D6B" width="6" height="6"/>
	<rect x="162" y="174.117" fill="#14354C" width="6" height="6"/>
	<rect x="162" y="192.117" fill="#334D6B" width="6" height="6"/>
	<rect x="168" y="192.117" fill="#334D6B" width="6" height="6"/>
	<rect x="174" y="192.117" fill="#334D6B" width="6" height="6"/>
	<rect x="180" y="192.117" fill="#334D6B" width="6" height="6"/>
	<rect x="186" y="186.117" fill="#334D6B" width="6" height="6"/>
	<rect x="186" y="203.797" fill="#14354C" width="6" height="6"/>
	<rect x="186" y="192.117" fill="#334D6B" width="6" height="6"/>
	<rect x="192" y="192.117" fill="#334D6B" width="6" height="6"/>
	<rect x="126" y="197.781" fill="#334D6B" width="6" height="6"/>
	<rect x="132" y="197.781" fill="#334D6B" width="6" height="6"/>
	<rect x="138" y="197.781" fill="#334D6B" width="6" height="6"/>
	<rect x="150" y="197.781" fill="#334D6B" width="6" height="6"/>
	<rect x="144" y="197.781" fill="#334D6B" width="6" height="6"/>
	<rect x="126" y="197.781" fill="#334D6B" width="6" height="6"/>
	<rect x="120" y="197.781" fill="#334D6B" width="6" height="6"/>
	<rect x="114" y="197.781" fill="#334D6B" width="6" height="6"/>
	<rect x="108" y="197.781" fill="#334D6B" width="6" height="6"/>
	<rect x="102" y="197.781" fill="#334D6B" width="6" height="6"/>
	<rect x="156" y="197.781" fill="#334D6B" width="6" height="6"/>
	<rect x="162" y="197.781" fill="#334D6B" width="6" height="6"/>
	<rect x="168" y="197.781" fill="#334D6B" width="6" height="6"/>
	<rect x="174" y="197.781" fill="#334D6B" width="6" height="6"/>
	<rect x="180" y="197.781" fill="#334D6B" width="6" height="6"/>
	<rect x="186" y="197.781" fill="#334D6B" width="6" height="6"/>
	<rect x="192" y="197.781" fill="#334D6B" width="6" height="6"/>
	<rect x="192" y="203.797" fill="#14354C" width="6" height="6"/>
	<rect x="150" y="150.164" fill="#EFD1B8" width="6" height="6"/>
	<rect x="156" y="150.164" fill="#AFAFA2" width="6" height="6"/>
	<rect x="150" y="162.117" fill="#D7BFAA" width="6" height="6"/>
	<rect x="156" y="162.117" fill="#D7BFAA" width="6" height="6"/>
	<rect x="150" y="156.125" fill="#AFAFA2" width="6" height="6"/>
	<rect x="156" y="156.125" fill="#AE9D85" width="6" height="6"/>
	<rect x="162" y="150.164" fill="#EFD1B8" width="6" height="6"/>
	<rect x="162" y="162.117" fill="#EFD1B8" width="6" height="6"/>
	<rect x="156" y="168.117" fill="#EFD1B8" width="6" height="6"/>
	<rect x="156" y="174.117" fill="#EFD1B8" width="6" height="6"/>
	<rect x="162" y="168.117" fill="#EFD1B8" width="6" height="6"/>
	<rect x="162" y="156.125" fill="#EFD1B8" width="6" height="6"/>
	<rect x="150" y="144.156" fill="#EFD1B8" width="6" height="6"/>
	<rect x="156" y="144.156" fill="#9B8579" width="6" height="6"/>
	<rect x="150" y="138.164" fill="#EFD1B8" width="6" height="6"/>
	<rect x="156" y="138.164" fill="#231F20" width="6" height="6"/>
	<rect x="162" y="144.156" fill="#EFD1B8" width="6" height="6"/>
	<rect x="162" y="138.164" fill="#EFD1B8" width="6" height="6"/>
	<rect x="126" y="132.195" fill="#EAC4B2" width="6" height="6"/>
	<rect x="132" y="132.195" fill="#9B8579" width="6" height="6"/>
	<rect x="138" y="132.195" fill="#EFD1B8" width="6" height="6"/>
	<rect x="144" y="132.195" fill="#EFD1B8" width="6" height="6"/>
	<rect x="126" y="138.164" fill="#AA6D2D" width="6" height="6"/>
	<rect x="132" y="138.164" fill="#EAC4B2" width="6" height="6"/>
	<rect x="126" y="138.164" fill="#FFFFFF" width="6" height="6"/>
	<rect x="138" y="138.172" fill="#F3D9D0" width="6" height="6"/>
	<rect x="144" y="138.172" fill="#EFD1B8" width="6" height="6"/>
	<rect x="126" y="144.164" fill="#EFD1B8" width="6" height="6"/>
	<rect x="132" y="144.164" fill="#EAC4B2" width="6" height="6"/>
	<rect x="138" y="144.164" fill="#EAC4B2" width="6" height="6"/>
	<rect x="144" y="144.156" fill="#EFD1B8" width="6" height="6"/>
	<rect x="126" y="150.156" fill="#464749" width="6" height="6"/>
	<rect x="132" y="150.156" fill="#726658" width="6" height="6"/>
	<rect x="138" y="150.156" fill="#F3D9D0" width="6" height="6"/>
	<rect x="144" y="150.156" fill="#EFD1B8" width="6" height="6"/>
	<rect x="150" y="120.188" fill="#323133" width="6" height="6"/>
	<rect x="156" y="120.188" fill="#231F20" width="6" height="6"/>
	<rect x="114" y="120.195" fill="#F3D9D0" width="6" height="6"/>
	<rect x="114" y="114.203" fill="#EFD1B8" width="6" height="6.008"/>
	<rect x="114" y="108.203" fill="#EFD1B8" width="6" height="6"/>
	<rect x="120" y="114.203" fill="#EFD1B8" width="6" height="6"/>
	<rect x="126" y="114.203" fill="#EFD1B8" width="6" height="6.008"/>
	<rect x="132" y="114.203" fill="#F3D9D0" width="6" height="6.008"/>
	<rect x="138" y="114.203" fill="#F3D9D0" width="6" height="6.008"/>
	<rect x="144" y="114.203" fill="#464749" width="6" height="6"/>
	<rect x="150" y="114.203" fill="#231F20" width="6" height="6"/>
	<rect x="120" y="108.203" fill="#EFD1B8" width="6" height="6"/>
	<rect x="120" y="102.203" fill="#464749" width="6" height="6"/>
	<rect x="114" y="102.203" fill="#231F20" width="6" height="6"/>
	<rect x="126" y="96.203" fill="#464749" width="6" height="6"/>
	<rect x="126" y="102.203" fill="#231F20" width="6" height="6"/>
	<rect x="132" y="102.203" fill="#464749" width="6" height="6"/>
	<rect x="138" y="102.203" fill="#29292A" width="6" height="6"/>
	<rect x="144" y="102.203" fill="#231F20" width="6" height="6"/>
	<rect x="150" y="108.203" fill="#231F20" width="6" height="6"/>
	<rect x="150" y="102.203" fill="#231F20" width="6" height="6"/>
	<rect x="132" y="96.203" fill="#231F20" width="6" height="6"/>
	<rect x="120" y="96.203" fill="#231F20" width="6" height="6"/>
	<rect x="138" y="96.203" fill="#231F20" width="6" height="6"/>
	<rect x="144" y="96.203" fill="#29292A" width="6" height="6"/>
	<rect x="150" y="96.203" fill="#231F20" width="6" height="6"/>
	<rect x="126" y="90.203" fill="#231F20" width="6" height="6"/>
	<rect x="132" y="90.203" fill="#231F20" width="6" height="6"/>
	<rect x="138" y="90.203" fill="#231F20" width="6" height="6"/>
	<rect x="144" y="90.203" fill="#29292A" width="6" height="6"/>
	<rect x="150" y="90.203" fill="#231F20" width="6" height="6"/>
	<rect x="168" y="102.203" fill="#231F20" width="6" height="6"/>
	<rect x="162" y="102.203" fill="#231F20" width="6" height="6"/>
	<rect x="156" y="108.203" fill="#231F20" width="6" height="6"/>
	<rect x="126" y="108.203" fill="#464749" width="6" height="6"/>
	<rect x="132" y="108.203" fill="#5A5B5E" width="6" height="6"/>
	<rect x="138" y="108.203" fill="#231F20" width="6" height="6"/>
	<rect x="144" y="108.203" fill="#323133" width="6" height="6"/>
	<rect x="156" y="114.203" fill="#464749" width="6" height="6"/>
	<rect x="150" y="126.188" fill="#323133" width="6" height="6"/>
	<rect x="156" y="126.188" fill="#231F20" width="6" height="6"/>
	<rect x="150" y="132.188" fill="#231F20" width="6" height="6"/>
	<rect x="156" y="132.188" fill="#231F20" width="6" height="6"/>
	<rect x="162" y="120.188" fill="#464749" width="6" height="6"/>
	<rect x="162" y="114.203" fill="#231F20" width="6" height="6"/>
	<rect x="162" y="108.203" fill="#231F20" width="6" height="6"/>
	<rect x="156" y="102.203" fill="#29292A" width="6" height="6"/>
	<rect x="162" y="96.203" fill="#231F20" width="6" height="6"/>
	<rect x="156" y="96.203" fill="#29292A" width="6" height="6"/>
	<rect x="162" y="126.188" fill="#323133" width="6" height="6"/>
	<rect x="168" y="120.188" fill="#231F20" width="6" height="6"/>
	<rect x="168" y="114.203" fill="#323133" width="6" height="6"/>
	<rect x="168" y="108.203" fill="#231F20" width="6" height="6"/>
	<rect x="168" y="126.188" fill="#323133" width="6" height="6"/>
	<rect x="174" y="120.188" fill="#464749" width="6" height="6"/>
	<rect x="174" y="138.164" fill="#231F20" width="6" height="6"/>
	<rect x="174" y="132.18" fill="#231F20" width="6" height="6"/>
	<rect x="174" y="126.195" fill="#464749" width="6" height="6"/>
	<rect x="174" y="114.203" fill="#231F20" width="6" height="6"/>
	<rect x="174" y="108.195" fill="#29292A" width="6" height="6"/>
	<rect x="174" y="144.164" fill="#231F20" width="6" height="6"/>
	<rect x="168" y="150.156" fill="#231F20" width="6" height="6"/>
	<rect x="168" y="156.133" fill="#5A5B5E" width="6" height="6"/>
	<rect x="162" y="132.188" fill="#F3D9D0" width="6" height="6"/>
	<rect x="168" y="144.156" fill="#EFD1B8" width="6" height="6"/>
	<rect x="168" y="138.164" fill="#F3D9D0" width="6" height="6"/>
	<rect x="168" y="132.188" fill="#F3D9D0" width="6" height="6"/>
</g>
</svg>
