<?xml version="1.0" encoding="utf-8"?>
<!-- Generator: Adobe Illustrator 16.0.0, SVG Export Plug-In . SVG Version: 6.00 Build 0)  -->
<!DOCTYPE svg PUBLIC "-//W3C//DTD SVG 1.1//EN" "http://www.w3.org/Graphics/SVG/1.1/DTD/svg11.dtd">
<svg version="1.1" id="Layer_1" xmlns="http://www.w3.org/2000/svg" xmlns:xlink="http://www.w3.org/1999/xlink" x="0px" y="0px"
	 width="300px" height="300px" viewBox="0 0 300 300" enable-background="new 0 0 300 300" xml:space="preserve">
<g>
	<rect x="112.5" y="97.607" fill="#EDD69F" width="7.5" height="7.5"/>
	<rect x="120" y="97.607" fill="#EDD69F" width="7.5" height="7.5"/>
	<rect x="127.5" y="97.607" fill="#EDD69F" width="7.5" height="7.5"/>
	<rect x="135" y="97.607" fill="#EBC297" width="7.5" height="7.5"/>
	<rect x="142.5" y="97.607" fill="#EBC297" width="7.5" height="7.5"/>
	<rect x="150" y="97.607" fill="#EBC297" width="7.5" height="7.5"/>
	<rect x="112.5" y="105.122" fill="#EEE1BF" width="7.5" height="7.5"/>
	<rect x="120" y="105.122" fill="#EEE1BF" width="7.5" height="7.5"/>
	<rect x="112.5" y="112.593" fill="#EEE1BF" width="7.5" height="7.5"/>
	<rect x="120" y="112.593" fill="#CE782A" width="7.5" height="7.5"/>
	<rect x="112.5" y="127.544" fill="#EDD69F" width="7.5" height="7.5"/>
	<rect x="120" y="127.544" fill="#868458" width="7.5" height="7.5"/>
	<rect x="112.5" y="135.059" fill="#EDD69F" width="7.5" height="7.5"/>
	<rect x="120" y="135.059" fill="#EDD69F" width="7.5" height="7.5"/>
	<rect x="112.5" y="142.544" fill="#D5CBAD" width="7.5" height="7.5"/>
	<rect x="105" y="134.771" fill="#EDD69F" width="7.5" height="7.5"/>
	<rect x="120" y="142.544" fill="#D5CBAD" width="7.5" height="7.5"/>
	<rect x="135" y="142.544" fill="#D5CBAD" width="7.5" height="7.5"/>
	<rect x="127.5" y="142.544" fill="#D5CBAD" width="7.5" height="7.5"/>
	<rect x="142.5" y="142.544" fill="#EEE1BF" width="7.5" height="7.5"/>
	<rect x="157.5" y="142.544" fill="#EDD69F" width="7.5" height="7.5"/>
	<rect x="150" y="142.544" fill="#EEE1BF" width="7.5" height="7.5"/>
	<rect x="135" y="150.029" fill="#FFFFFF" width="7.5" height="7.5"/>
	<rect x="127.5" y="150.029" fill="#FFFFFF" width="7.5" height="7.5"/>
	<rect x="142.5" y="150.029" fill="#FFFFFF" width="7.5" height="7.5"/>
	<rect x="150" y="150.029" fill="#D28F8C" width="7.5" height="7.5"/>
	<rect x="135" y="157.515" fill="#D28F8C" width="7.5" height="7.5"/>
	<rect x="127.5" y="157.515" fill="#D28F8C" width="7.5" height="7.5"/>
	<rect x="142.5" y="157.515" fill="#D28F8C" width="7.5" height="7.5"/>
	<rect x="150" y="157.515" fill="#EDD69F" width="7.5" height="7.5"/>
	<rect x="135" y="165.015" fill="#D5CBAD" width="7.5" height="7.5"/>
	<rect x="127.5" y="165.015" fill="#D5CBAD" width="7.5" height="7.5"/>
	<rect x="142.5" y="165.015" fill="#D5CBAD" width="7.5" height="7.5"/>
	<rect x="135" y="172.515" fill="#EDD69F" width="7.5" height="7.5"/>
	<rect x="142.5" y="172.515" fill="#EDD69F" width="7.5" height="7.5"/>
	<rect x="150" y="172.515" fill="#EDD69F" width="7.5" height="7.5"/>
	<rect x="150" y="165.015" fill="#EDD69F" width="7.5" height="7.5"/>
	<rect x="165" y="142.544" fill="#EDD69F" width="7.5" height="7.5"/>
	<rect x="157.5" y="135.059" fill="#EDD69F" width="7.5" height="7.5"/>
	<rect x="165" y="135.059" fill="#EDD69F" width="7.5" height="7.5"/>
	<rect x="157.5" y="157.515" fill="#EDD69F" width="7.5" height="7.5"/>
	<rect x="157.5" y="150.029" fill="#EDD69F" width="7.5" height="7.5"/>
	<rect x="165" y="150.029" fill="#EDD69F" width="7.5" height="7.5"/>
	<rect x="157.5" y="127.544" fill="#EDD69F" width="7.5" height="7.5"/>
	<rect x="165" y="127.544" fill="#EDD69F" width="7.5" height="7.5"/>
	<rect x="157.5" y="112.593" fill="#AD6F29" width="7.5" height="7.5"/>
	<rect x="165" y="112.593" fill="#EDD69F" width="7.5" height="7.5"/>
	<rect x="172.5" y="127.544" fill="#EDD69F" width="7.5" height="7.5"/>
	<rect x="172.5" y="120.059" fill="#EEE1BF" width="7.5" height="7.5"/>
	<rect x="127.5" y="105.122" fill="#EDD69F" width="7.5" height="7.5"/>
	<rect x="135" y="105.122" fill="#EDD69F" width="7.5" height="7.5"/>
	<rect x="142.5" y="105.122" fill="#EBC297" width="7.5" height="7.5"/>
	<rect x="150" y="105.122" fill="#AD6F29" width="7.5" height="7.5"/>
	<rect x="127.5" y="112.593" fill="#CE782A" width="7.5" height="7.5"/>
	<rect x="135" y="112.593" fill="#EDD69F" width="7.5" height="7.5"/>
	<rect x="142.5" y="112.593" fill="#EDD69F" width="7.5" height="7.5"/>
	<rect x="150" y="112.593" fill="#C7802A" width="7.5" height="7.5"/>
	<rect x="112.5" y="120.059" fill="#EDD69F" width="7.5" height="7.5"/>
	<rect x="120" y="120.059" fill="#EDD69F" width="7.5" height="7.5"/>
	<rect x="157.5" y="120.059" fill="#C7802A" width="7.5" height="7.5"/>
	<rect x="165" y="120.059" fill="#EDD69F" width="7.5" height="7.5"/>
	<rect x="127.5" y="120.059" fill="#EDD69F" width="7.5" height="7.5"/>
	<rect x="135" y="120.059" fill="#EDD69F" width="7.5" height="7.5"/>
	<rect x="142.5" y="120.059" fill="#EDD69F" width="7.5" height="7.5"/>
	<rect x="150" y="120.059" fill="#EDD69F" width="7.5" height="7.5"/>
	<rect x="127.5" y="127.544" fill="#FFFFFF" width="7.5" height="7.5"/>
	<rect x="135" y="127.544" fill="#EDD69F" width="7.5" height="7.5"/>
	<rect x="142.5" y="127.544" fill="#EDD69F" width="7.5" height="7.5"/>
	<rect x="150" y="127.544" fill="#EDD69F" width="7.5" height="7.5"/>
	<rect x="127.5" y="135.044" fill="#EDD69F" width="7.5" height="7.5"/>
	<rect x="135" y="135.044" fill="#EDD69F" width="7.5" height="7.5"/>
	<rect x="142.5" y="135.044" fill="#EEE1BF" width="7.5" height="7.5"/>
	<rect x="150" y="135.044" fill="#EBC297" width="7.5" height="7.5"/>
	<rect x="157.5" y="97.607" fill="#C7802A" width="7.5" height="7.5"/>
	<rect x="165" y="97.607" fill="#AD6F29" width="7.5" height="7.5"/>
	<rect x="172.5" y="97.607" fill="#C7802A" width="7.5" height="7.5"/>
	<rect x="165" y="90.073" fill="#C7802A" width="7.5" height="7.5"/>
	<rect x="165" y="82.622" fill="#C7802A" width="7.5" height="7.5"/>
	<rect x="172.5" y="90.122" fill="#AD6F29" width="7.5" height="7.5"/>
	<rect x="112.5" y="90.122" fill="#AD6F29" width="7.5" height="7.5"/>
	<rect x="120" y="90.122" fill="#C7802A" width="7.5" height="7.5"/>
	<rect x="120" y="82.573" fill="#C7802A" width="7.5" height="7.5"/>
	<rect x="127.5" y="90.122" fill="#AD6F29" width="7.5" height="7.5"/>
	<rect x="127.5" y="82.622" fill="#C7802A" width="7.5" height="7.5"/>
	<rect x="135" y="90.122" fill="#C7802A" width="7.5" height="7.5"/>
	<rect x="135" y="82.622" fill="#C7802A" width="7.5" height="7.5"/>
	<rect x="142.5" y="90.122" fill="#C7802A" width="7.5" height="7.5"/>
	<rect x="142.5" y="82.573" fill="#C7802A" width="7.5" height="7.5"/>
	<rect x="150" y="82.573" fill="#C7802A" width="7.5" height="7.5"/>
	<rect x="150" y="90.122" fill="#AD6F29" width="7.5" height="7.5"/>
	<rect x="157.5" y="90.122" fill="#C7802A" width="7.5" height="7.5"/>
	<rect x="157.5" y="82.622" fill="#C7802A" width="7.5" height="7.5"/>
	<rect x="127.5" y="75.073" fill="#C7802A" width="7.5" height="7.5"/>
	<rect x="135" y="75.073" fill="#AD6F29" width="7.5" height="7.5"/>
	<rect x="142.5" y="75.024" fill="#C7802A" width="7.5" height="7.5"/>
	<rect x="150" y="75.024" fill="#C7802A" width="7.5" height="7.5"/>
	<rect x="157.5" y="105.122" fill="#C7802A" width="7.5" height="7.5"/>
	<rect x="165" y="105.122" fill="#C7802A" width="7.5" height="7.5"/>
	<rect x="172.5" y="112.593" fill="#EDD69F" width="7.5" height="7.5"/>
	<rect x="172.5" y="105.122" fill="#C7802A" width="7.5" height="7.5"/>
	<rect x="135" y="179.976" fill="#EDD69F" width="7.5" height="7.5"/>
	<rect x="142.5" y="179.976" fill="#EDD69F" width="7.5" height="7.5"/>
	<rect x="165" y="172.476" fill="#D7E4EB" width="7.5" height="7.5"/>
	<rect x="157.5" y="179.976" fill="#9CB6C8" width="7.5" height="7.5"/>
	<rect x="157.5" y="172.476" fill="#D7E4EB" width="7.5" height="7.5"/>
	<rect x="150" y="179.976" fill="#EDD69F" width="7.5" height="7.5"/>
	<rect x="127.5" y="179.976" fill="#9CB6C8" width="7.5" height="7.5"/>
	<rect x="120" y="179.976" fill="#D7E4EB" width="7.5" height="7.5"/>
	<rect x="120" y="172.476" fill="#D7E4EB" width="7.5" height="7.5"/>
	<rect x="127.5" y="172.476" fill="#D7E4EB" width="7.5" height="7.5"/>
	<rect x="165" y="179.976" fill="#D7E4EB" width="7.5" height="7.5"/>
	<rect x="172.5" y="179.976" fill="#D7E4EB" width="7.5" height="7.5"/>
	<rect x="180" y="179.976" fill="#C3D2E0" width="7.5" height="7.5"/>
	<rect x="135" y="194.976" fill="#42607E" width="7.5" height="7.5"/>
	<rect x="142.5" y="194.976" fill="#42607E" width="7.5" height="7.5"/>
	<rect x="157.5" y="194.976" fill="#D7E4EB" width="7.5" height="7.5"/>
	<rect x="150" y="194.976" fill="#42607E" width="7.5" height="7.5"/>
	<rect x="127.5" y="194.976" fill="#D7E4EB" width="7.5" height="7.5"/>
	<rect x="127.5" y="202.476" fill="#C3D2E0" width="7.5" height="7.5"/>
	<rect x="120" y="194.976" fill="#9CB6C8" width="7.5" height="7.5"/>
	<rect x="112.5" y="194.976" fill="#C3D2E0" width="7.5" height="7.5"/>
	<rect x="165" y="194.976" fill="#9CB6C8" width="7.5" height="7.5"/>
	<rect x="172.5" y="194.976" fill="#C3D2E0" width="7.5" height="7.5"/>
	<rect x="180" y="194.976" fill="#C3D2E0" width="7.5" height="7.5"/>
	<rect x="187.5" y="194.976" fill="#C3D2E0" width="7.5" height="7.5"/>
	<rect x="135" y="209.976" fill="#C3D2E0" width="7.5" height="7.5"/>
	<rect x="142.5" y="209.976" fill="#D7E4EB" width="7.5" height="7.5"/>
	<rect x="157.5" y="209.976" fill="#C3D2E0" width="7.5" height="7.5"/>
	<rect x="150" y="209.976" fill="#C3D2E0" width="7.5" height="7.5"/>
	<rect x="127.5" y="209.976" fill="#C3D2E0" width="7.5" height="7.5"/>
	<rect x="120" y="209.976" fill="#C3D2E0" width="7.5" height="7.5"/>
	<rect x="112.5" y="209.976" fill="#C3D2E0" width="7.5" height="7.5"/>
	<rect x="165" y="209.976" fill="#C3D2E0" width="7.5" height="7.5"/>
	<rect x="172.5" y="209.976" fill="#C3D2E0" width="7.5" height="7.5"/>
	<rect x="180" y="209.976" fill="#9CB6C8" width="7.5" height="7.5"/>
	<rect x="187.5" y="209.976" fill="#9CB6C8" width="7.5" height="7.5"/>
	<rect x="135" y="187.476" fill="#42607E" width="7.5" height="7.5"/>
	<rect x="142.5" y="187.476" fill="#EDD69F" width="7.5" height="7.5"/>
	<rect x="157.5" y="187.476" fill="#D7E4EB" width="7.5" height="7.5"/>
	<rect x="150" y="187.476" fill="#42607E" width="7.5" height="7.5"/>
	<rect x="127.5" y="187.476" fill="#D7E4EB" width="7.5" height="7.5"/>
	<rect x="120" y="187.476" fill="#9CB6C8" width="7.5" height="7.5"/>
	<rect x="112.5" y="187.476" fill="#D7E4EB" width="7.5" height="7.5"/>
	<rect x="112.5" y="179.976" fill="#D7E4EB" width="7.5" height="7.5"/>
	<rect x="165" y="187.476" fill="#9CB6C8" width="7.5" height="7.5"/>
	<rect x="172.5" y="187.476" fill="#D7E4EB" width="7.5" height="7.5"/>
	<rect x="180" y="187.476" fill="#C3D2E0" width="7.5" height="7.5"/>
	<rect x="187.5" y="187.476" fill="#C3D2E0" width="7.5" height="7.5"/>
	<rect x="135" y="202.476" fill="#D7E4EB" width="7.5" height="7.5"/>
	<rect x="142.5" y="202.476" fill="#42607E" width="7.5" height="7.5"/>
	<rect x="157.5" y="202.476" fill="#C3D2E0" width="7.5" height="7.5"/>
	<rect x="150" y="202.476" fill="#D7E4EB" width="7.5" height="7.5"/>
	<rect x="127.5" y="202.476" fill="#C3D2E0" width="7.5" height="7.5"/>
	<rect x="120" y="202.476" fill="#C3D2E0" width="7.5" height="7.5"/>
	<rect x="112.5" y="202.476" fill="#C3D2E0" width="7.5" height="7.5"/>
	<rect x="105" y="194.976" fill="#C3D2E0" width="7.5" height="7.5"/>
	<rect x="105" y="209.976" fill="#9CB6C8" width="7.5" height="7.5"/>
	<rect x="135" y="217.476" fill="#C3D2E0" width="7.5" height="7.5"/>
	<rect x="142.5" y="217.476" fill="#D7E4EB" width="7.5" height="7.5"/>
	<rect x="157.5" y="217.476" fill="#D7E4EB" width="7.5" height="7.5"/>
	<rect x="150" y="217.476" fill="#C3D2E0" width="7.5" height="7.5"/>
	<rect x="127.5" y="217.476" fill="#D7E4EB" width="7.5" height="7.5"/>
	<rect x="120" y="217.476" fill="#FFFFFF" width="7.5" height="7.5"/>
	<rect x="112.5" y="217.476" fill="#D7E4EB" width="7.5" height="7.5"/>
	<rect x="165" y="217.476" fill="#FFFFFF" width="7.5" height="7.5"/>
	<rect x="172.5" y="217.476" fill="#D7E4EB" width="7.5" height="7.5"/>
	<rect x="180" y="217.476" fill="#EDD69F" width="7.5" height="7.5"/>
	<rect x="187.5" y="217.476" fill="#EDD69F" width="7.5" height="7.5"/>
	<rect x="105" y="217.476" fill="#EDD69F" width="7.5" height="7.5"/>
	<rect x="105" y="202.476" fill="#C3D2E0" width="7.5" height="7.5"/>
	<rect x="165" y="202.476" fill="#C3D2E0" width="7.5" height="7.5"/>
	<rect x="172.5" y="202.476" fill="#C3D2E0" width="7.5" height="7.5"/>
	<rect x="180" y="202.476" fill="#C3D2E0" width="7.5" height="7.5"/>
	<rect x="187.5" y="202.476" fill="#C3D2E0" width="7.5" height="7.5"/>
</g>
</svg>
