<?xml version="1.0" encoding="utf-8"?>
<!-- Generator: Adobe Illustrator 16.0.0, SVG Export Plug-In . SVG Version: 6.00 Build 0)  -->
<!DOCTYPE svg PUBLIC "-//W3C//DTD SVG 1.1//EN" "http://www.w3.org/Graphics/SVG/1.1/DTD/svg11.dtd">
<svg version="1.1" id="Layer_1" xmlns="http://www.w3.org/2000/svg" xmlns:xlink="http://www.w3.org/1999/xlink" x="0px" y="0px"
	 width="300px" height="300px" viewBox="0 0 300 300" enable-background="new 0 0 300 300" xml:space="preserve">
<g>
	<rect x="161.25" y="191.196" fill="#1C75BC" width="7.5" height="7.5"/>
	<rect x="131.25" y="191.196" fill="#1C75BC" width="7.5" height="7.5"/>
	<rect x="123.75" y="191.196" fill="#879260" width="7.5" height="7.5"/>
	<rect x="131.25" y="183.716" fill="#1C75BC" width="7.5" height="7.5"/>
	<rect x="123.75" y="183.677" fill="#1C75BC" width="7.5" height="7.5"/>
	<rect x="116.25" y="183.677" fill="#1C75BC" width="7.5" height="7.5"/>
	<rect x="168.75" y="191.196" fill="#879260" width="7.5" height="7.5"/>
	<rect x="161.25" y="183.677" fill="#1C75BC" width="7.5" height="7.5"/>
	<rect x="168.75" y="183.677" fill="#1C75BC" width="7.5" height="7.5"/>
	<rect x="176.25" y="183.677" fill="#1C75BC" width="7.5" height="7.5"/>
	<rect x="138.75" y="206.196" fill="#1C75BC" width="7.5" height="7.5"/>
	<rect x="146.25" y="206.196" fill="#1C75BC" width="7.5" height="7.5"/>
	<rect x="161.25" y="206.196" fill="#879260" width="7.5" height="7.5"/>
	<rect x="153.75" y="206.196" fill="#1C75BC" width="7.5" height="7.5"/>
	<rect x="131.25" y="206.196" fill="#879260" width="7.5" height="7.5"/>
	<rect x="123.75" y="206.196" fill="#879260" width="7.5" height="7.5"/>
	<rect x="116.25" y="206.196" fill="#879260" width="7.5" height="7.5"/>
	<rect x="168.75" y="206.196" fill="#879260" width="7.5" height="7.5"/>
	<rect x="176.25" y="206.196" fill="#879260" width="7.5" height="7.5"/>
	<rect x="183.75" y="206.196" fill="#879260" width="7.5" height="7.5"/>
	<rect x="191.25" y="206.196" fill="#879260" width="7.5" height="7.5"/>
	<rect x="138.75" y="221.196" fill="#879260" width="7.5" height="7.5"/>
	<rect x="146.25" y="221.196" fill="#879260" width="7.5" height="7.5"/>
	<rect x="161.25" y="221.196" fill="#879260" width="7.5" height="7.5"/>
	<rect x="153.75" y="221.196" fill="#879260" width="7.5" height="7.5"/>
	<rect x="131.25" y="221.196" fill="#879260" width="7.5" height="7.5"/>
	<rect x="123.75" y="221.196" fill="#596B42" width="7.5" height="7.5"/>
	<rect x="116.25" y="221.196" fill="#879260" width="7.5" height="7.5"/>
	<rect x="168.75" y="221.196" fill="#596B42" width="7.5" height="7.5"/>
	<rect x="176.25" y="221.196" fill="#879260" width="7.5" height="7.5"/>
	<rect x="183.75" y="221.196" fill="#879260" width="7.5" height="7.5"/>
	<rect x="191.25" y="221.196" fill="#879260" width="7.5" height="7.5"/>
	<rect x="138.75" y="198.696" fill="#1C75BC" width="7.5" height="7.5"/>
	<rect x="146.25" y="198.696" fill="#EFD1B8" width="7.5" height="7.5"/>
	<rect x="161.25" y="198.696" fill="#1C75BC" width="7.5" height="7.5"/>
	<rect x="153.75" y="198.696" fill="#1C75BC" width="7.5" height="7.5"/>
	<rect x="131.25" y="198.696" fill="#1C75BC" width="7.5" height="7.5"/>
	<rect x="123.75" y="198.696" fill="#879260" width="7.5" height="7.5"/>
	<rect x="116.25" y="198.696" fill="#879260" width="7.5" height="7.5"/>
	<rect x="168.75" y="198.696" fill="#879260" width="7.5" height="7.5"/>
	<rect x="176.25" y="198.687" fill="#879260" width="7.5" height="7.5"/>
	<rect x="183.75" y="198.696" fill="#879260" width="7.5" height="7.5"/>
	<rect x="138.75" y="213.696" fill="#879260" width="7.5" height="7.5"/>
	<rect x="146.25" y="213.696" fill="#1C75BC" width="7.5" height="7.5"/>
	<rect x="161.25" y="213.696" fill="#879260" width="7.5" height="7.5"/>
	<rect x="153.75" y="213.696" fill="#879260" width="7.5" height="7.5"/>
	<rect x="131.25" y="213.696" fill="#879260" width="7.5" height="7.5"/>
	<rect x="123.75" y="213.696" fill="#879260" width="7.5" height="7.5"/>
	<rect x="116.25" y="213.696" fill="#879260" width="7.5" height="7.5"/>
	<rect x="108.75" y="206.196" fill="#879260" width="7.5" height="7.5"/>
	<rect x="108.75" y="221.196" fill="#879260" width="7.5" height="7.5"/>
	<rect x="108.75" y="213.696" fill="#879260" width="7.5" height="7.5"/>
	<rect x="168.75" y="213.696" fill="#879260" width="7.5" height="7.5"/>
	<rect x="176.25" y="213.696" fill="#879260" width="7.5" height="7.5"/>
	<rect x="183.75" y="213.696" fill="#879260" width="7.5" height="7.5"/>
	<rect x="191.25" y="213.696" fill="#879260" width="7.5" height="7.5"/>
	<rect x="123.75" y="78.804" fill="#231F20" width="7.5" height="7.5"/>
	<rect x="108.75" y="78.804" fill="#231F20" width="7.5" height="7.5"/>
	<rect x="131.25" y="78.804" fill="#231F20" width="7.5" height="7.5"/>
	<rect x="123.75" y="71.304" fill="#231F20" width="7.5" height="7.5"/>
	<rect x="138.75" y="78.804" fill="#231F20" width="7.5" height="7.5"/>
	<rect x="146.25" y="78.804" fill="#231F20" width="7.5" height="7.5"/>
	<rect x="116.25" y="93.789" fill="#F7E0CF" width="7.5" height="7.5"/>
	<rect x="123.75" y="93.789" fill="#EFD1B8" width="7.5" height="7.5"/>
	<rect x="131.25" y="93.789" fill="#EFD1B8" width="7.5" height="7.5"/>
	<rect x="138.75" y="93.789" fill="#EFD1B8" width="7.5" height="7.5"/>
	<rect x="146.25" y="93.789" fill="#EED0C6" width="7.5" height="7.5"/>
	<rect x="153.75" y="93.789" fill="#EED0C6" width="7.5" height="7.5"/>
	<rect x="116.25" y="101.289" fill="#F7E0CF" width="7.5" height="7.5"/>
	<rect x="123.75" y="101.289" fill="#EFD1B8" width="7.5" height="7.5"/>
	<rect x="131.25" y="101.289" fill="#EFD1B8" width="7.5" height="7.5"/>
	<rect x="138.75" y="101.289" fill="#EFD1B8" width="7.5" height="7.5"/>
	<rect x="146.25" y="101.289" fill="#EFD1B8" width="7.5" height="7.5"/>
	<rect x="153.75" y="101.289" fill="#EED0C6" width="7.5" height="7.5"/>
	<rect x="116.25" y="108.789" fill="#F7E0CF" width="7.5" height="7.495"/>
	<rect x="123.75" y="108.789" fill="#F7E0CF" width="7.5" height="7.495"/>
	<rect x="116.25" y="116.255" fill="#EFD1B8" width="7.5" height="7.5"/>
	<rect x="123.75" y="116.255" fill="#414042" width="7.5" height="7.5"/>
	<rect x="116.25" y="131.206" fill="#EFD1B8" width="7.5" height="7.5"/>
	<rect x="123.75" y="131.206" fill="#3B2314" width="7.5" height="7.5"/>
	<rect x="116.25" y="138.726" fill="#EFD1B8" width="7.5" height="7.5"/>
	<rect x="123.75" y="138.726" fill="#EFCFC0" width="7.5" height="7.5"/>
	<rect x="116.25" y="146.206" fill="#D7BFAA" width="7.5" height="7.5"/>
	<rect x="108.75" y="138.726" fill="#EFD1B8" width="7.5" height="7.5"/>
	<rect x="101.25" y="138.726" fill="#EED0C6" width="7.5" height="7.5"/>
	<rect x="108.75" y="131.226" fill="#EED0C6" width="7.5" height="7.5"/>
	<rect x="123.75" y="146.206" fill="#D7BFAA" width="7.5" height="7.5"/>
	<rect x="138.75" y="146.206" fill="#D7BFAA" width="7.5" height="7.5"/>
	<rect x="131.25" y="146.206" fill="#D7BFAA" width="7.5" height="7.5"/>
	<rect x="146.25" y="146.206" fill="#EFCFC0" width="7.5" height="7.5"/>
	<rect x="161.25" y="146.206" fill="#EFD1B8" width="7.5" height="7.5"/>
	<rect x="153.75" y="146.206" fill="#EFD1B8" width="7.5" height="7.5"/>
	<rect x="138.75" y="153.696" fill="#FFFFFF" width="7.5" height="7.5"/>
	<rect x="131.25" y="153.696" fill="#FFFFFF" width="7.5" height="7.5"/>
	<rect x="146.25" y="153.696" fill="#FFFFFF" width="7.5" height="7.5"/>
	<rect x="153.75" y="153.696" fill="#BB807B" width="7.5" height="7.5"/>
	<rect x="138.75" y="161.177" fill="#D28F8C" width="7.5" height="7.5"/>
	<rect x="131.25" y="161.177" fill="#D28F8C" width="7.5" height="7.5"/>
	<rect x="146.25" y="161.177" fill="#BB807B" width="7.5" height="7.5"/>
	<rect x="153.75" y="161.177" fill="#EFD1B8" width="7.5" height="7.5"/>
	<rect x="138.75" y="168.677" fill="#EFD1B8" width="7.5" height="7.5"/>
	<rect x="131.25" y="168.677" fill="#EFD1B8" width="7.5" height="7.5"/>
	<rect x="146.25" y="168.677" fill="#EFD1B8" width="7.5" height="7.5"/>
	<rect x="138.75" y="176.177" fill="#D7BFAA" width="7.5" height="7.5"/>
	<rect x="146.25" y="176.177" fill="#EFD1B8" width="7.5" height="7.5"/>
	<rect x="153.75" y="176.177" fill="#EFD1B8" width="7.5" height="7.5"/>
	<rect x="138.75" y="183.638" fill="#EFD1B8" width="7.5" height="7.5"/>
	<rect x="146.25" y="183.638" fill="#D7BFAA" width="7.5" height="7.5"/>
	<rect x="153.75" y="183.638" fill="#EFD1B8" width="7.5" height="7.5"/>
	<rect x="138.75" y="191.196" fill="#EFD1B8" width="7.5" height="7.5"/>
	<rect x="146.25" y="191.196" fill="#EFD1B8" width="7.5" height="7.5"/>
	<rect x="153.75" y="191.196" fill="#EFD1B8" width="7.5" height="7.5"/>
	<rect x="153.75" y="168.677" fill="#EFD1B8" width="7.5" height="7.5"/>
	<rect x="168.75" y="146.206" fill="#EFD1B8" width="7.5" height="7.5"/>
	<rect x="168.75" y="153.696" fill="#EFD1B8" width="7.5" height="7.5"/>
	<rect x="161.25" y="138.726" fill="#EFD1B8" width="7.5" height="7.5"/>
	<rect x="168.75" y="138.726" fill="#EFD1B8" width="7.5" height="7.5"/>
	<rect x="161.25" y="161.177" fill="#EFD1B8" width="7.5" height="7.5"/>
	<rect x="161.25" y="153.696" fill="#EFD1B8" width="7.5" height="7.5"/>
	<rect x="161.25" y="131.206" fill="#414042" width="7.5" height="7.5"/>
	<rect x="168.75" y="131.206" fill="#EFC8A6" width="7.5" height="7.5"/>
	<rect x="161.25" y="116.255" fill="#414042" width="7.5" height="7.5"/>
	<rect x="168.75" y="116.255" fill="#231F20" width="7.5" height="7.5"/>
	<rect x="176.25" y="138.677" fill="#EFD1B8" width="7.5" height="7.5"/>
	<rect x="176.25" y="131.187" fill="#EFD1B8" width="7.5" height="7.5"/>
	<rect x="131.25" y="108.789" fill="#EFD1B8" width="7.5" height="7.495"/>
	<rect x="138.75" y="108.789" fill="#EFD1B8" width="7.5" height="7.495"/>
	<rect x="146.25" y="108.789" fill="#EFD1B8" width="7.5" height="7.495"/>
	<rect x="153.75" y="108.789" fill="#414042" width="7.5" height="7.495"/>
	<rect x="131.25" y="116.255" fill="#594A42" width="7.5" height="7.5"/>
	<rect x="138.75" y="116.255" fill="#EFD1B8" width="7.5" height="7.5"/>
	<rect x="146.25" y="116.255" fill="#EFD1B8" width="7.5" height="7.5"/>
	<rect x="153.75" y="116.255" fill="#231F20" width="7.5" height="7.5"/>
	<rect x="116.25" y="123.726" fill="#EFD1B8" width="7.5" height="7.5"/>
	<rect x="123.75" y="123.726" fill="#EFD1B8" width="7.5" height="7.5"/>
	<rect x="161.25" y="123.726" fill="#231F20" width="7.5" height="7.5"/>
	<rect x="168.75" y="123.726" fill="#414042" width="7.5" height="7.5"/>
	<rect x="131.25" y="123.726" fill="#EFD1B8" width="7.5" height="7.5"/>
	<rect x="138.75" y="123.726" fill="#EFD1B8" width="7.5" height="7.5"/>
	<rect x="146.25" y="123.726" fill="#EFD1B8" width="7.5" height="7.5"/>
	<rect x="153.75" y="123.726" fill="#EFD1B8" width="7.5" height="7.5"/>
	<rect x="131.25" y="131.206" fill="#FFFFFF" width="7.5" height="7.5"/>
	<rect x="138.75" y="131.206" fill="#EFD1B8" width="7.5" height="7.5"/>
	<rect x="146.25" y="131.206" fill="#EFD1B8" width="7.5" height="7.5"/>
	<rect x="153.75" y="131.206" fill="#EFD1B8" width="7.5" height="7.5"/>
	<rect x="131.25" y="138.706" fill="#EED0C6" width="7.5" height="7.5"/>
	<rect x="138.75" y="138.706" fill="#EFCFC0" width="7.5" height="7.5"/>
	<rect x="146.25" y="138.706" fill="#EFD1B8" width="7.5" height="7.5"/>
	<rect x="153.75" y="138.706" fill="#EFD1B8" width="7.5" height="7.5"/>
	<rect x="161.25" y="93.789" fill="#414042" width="7.5" height="7.5"/>
	<rect x="168.75" y="93.789" fill="#231F20" width="7.5" height="7.5"/>
	<rect x="116.25" y="86.304" fill="#414042" width="7.5" height="7.5"/>
	<rect x="123.75" y="86.304" fill="#231F20" width="7.5" height="7.5"/>
	<rect x="131.25" y="86.304" fill="#231F20" width="7.5" height="7.5"/>
	<rect x="138.75" y="86.304" fill="#414042" width="7.5" height="7.5"/>
	<rect x="146.25" y="86.304" fill="#231F20" width="7.5" height="7.5"/>
	<rect x="153.75" y="86.304" fill="#231F20" width="7.5" height="7.5"/>
	<rect x="161.25" y="86.304" fill="#231F20" width="7.5" height="7.5"/>
	<rect x="153.75" y="78.804" fill="#231F20" width="7.5" height="7.5"/>
	<rect x="161.25" y="78.804" fill="#414042" width="7.5" height="7.5"/>
	<rect x="168.75" y="86.304" fill="#231F20" width="7.5" height="7.5"/>
	<rect x="176.25" y="93.789" fill="#231F20" width="7.5" height="7.5"/>
	<rect x="161.25" y="101.289" fill="#231F20" width="7.5" height="7.5"/>
	<rect x="168.75" y="101.289" fill="#414042" width="7.5" height="7.5"/>
	<rect x="161.25" y="108.789" fill="#231F20" width="7.5" height="7.495"/>
	<rect x="168.75" y="108.789" fill="#231F20" width="7.5" height="7.495"/>
	<rect x="176.25" y="123.726" fill="#EFD1B8" width="7.5" height="7.5"/>
	<rect x="176.25" y="101.289" fill="#231F20" width="7.5" height="7.5"/>
	<rect x="176.25" y="108.789" fill="#231F20" width="7.5" height="7.495"/>
	<rect x="176.25" y="116.255" fill="#231F20" width="7.5" height="7.5"/>
	<rect x="183.75" y="131.235" fill="#EFD1B8" width="7.5" height="7.5"/>
	<rect x="183.75" y="123.745" fill="#EFD1B8" width="7.5" height="7.5"/>
</g>
</svg>
