<?xml version="1.0" encoding="utf-8"?>
<!-- Generator: Adobe Illustrator 16.0.0, SVG Export Plug-In . SVG Version: 6.00 Build 0)  -->
<!DOCTYPE svg PUBLIC "-//W3C//DTD SVG 1.1//EN" "http://www.w3.org/Graphics/SVG/1.1/DTD/svg11.dtd">
<svg version="1.1" id="Layer_1" xmlns="http://www.w3.org/2000/svg" xmlns:xlink="http://www.w3.org/1999/xlink" x="0px" y="0px"
	 width="300px" height="300px" viewBox="0 0 300 300" enable-background="new 0 0 300 300" xml:space="preserve">
<g>
	<rect x="123" y="105.057" fill="#A37C2D" width="6" height="6"/>
	<rect x="129" y="105.057" fill="#A37C2D" width="6" height="6"/>
	<rect x="135" y="105.057" fill="#A37C2D" width="6" height="6"/>
	<rect x="141" y="105.057" fill="#CA962B" width="6" height="6"/>
	<rect x="147" y="105.057" fill="#A37C2D" width="6" height="6"/>
	<rect x="153" y="105.057" fill="#CA962B" width="6" height="6"/>
	<rect x="123" y="111.057" fill="#EEE1BF" width="6" height="6"/>
	<rect x="117" y="105.057" fill="#CA962B" width="6" height="6"/>
	<rect x="129" y="111.057" fill="#EDD69F" width="6" height="6"/>
	<rect x="135" y="111.057" fill="#EDD69F" width="6" height="6"/>
	<rect x="141" y="111.057" fill="#EDD69F" width="6" height="6"/>
	<rect x="147" y="111.057" fill="#EDD69F" width="6" height="6"/>
	<rect x="153" y="111.057" fill="#CA962B" width="6" height="6"/>
	<rect x="123" y="117.057" fill="#EEE1BF" width="6" height="6"/>
	<rect x="129" y="117.057" fill="#EDD69F" width="6" height="6"/>
	<rect x="123" y="123.033" fill="#A37C2D" width="6" height="6"/>
	<rect x="129" y="123.033" fill="#A37C2D" width="6" height="6"/>
	<rect x="123" y="134.994" fill="#EDD69F" width="6" height="6"/>
	<rect x="129" y="134.994" fill="#4C2F1C" width="6" height="6"/>
	<rect x="123" y="141.006" fill="#EDD69F" width="6" height="6"/>
	<rect x="129" y="141.006" fill="#EDD69F" width="6" height="6"/>
	<rect x="123" y="146.994" fill="#A37C2D" width="6" height="6"/>
	<rect x="117" y="140.775" fill="#EDD69F" width="6" height="6"/>
	<rect x="111" y="140.775" fill="#EDD69F" width="6" height="6"/>
	<rect x="117" y="134.775" fill="#EDD69F" width="6" height="6"/>
	<rect x="129" y="146.994" fill="#A37C2D" width="6" height="6"/>
	<rect x="141" y="146.994" fill="#CA962B" width="6" height="6"/>
	<rect x="135" y="146.994" fill="#CA962B" width="6" height="6"/>
	<rect x="147" y="146.994" fill="#CA962B" width="6" height="6"/>
	<rect x="159" y="146.994" fill="#CA962B" width="6" height="6"/>
	<rect x="153" y="146.994" fill="#EDD69F" width="6" height="6"/>
	<rect x="141" y="152.982" fill="#FFFFFF" width="6" height="6"/>
	<rect x="135" y="152.982" fill="#FFFFFF" width="6" height="6"/>
	<rect x="147" y="152.982" fill="#FFFFFF" width="6" height="6"/>
	<rect x="153" y="152.982" fill="#C7293B" width="6" height="6"/>
	<rect x="141" y="158.971" fill="#C62C3D" width="6" height="6"/>
	<rect x="135" y="158.971" fill="#C62C3D" width="6" height="6"/>
	<rect x="147" y="158.971" fill="#C62C3D" width="6" height="6"/>
	<rect x="153" y="158.971" fill="#CA962B" width="6" height="6"/>
	<rect x="141" y="164.971" fill="#A37C2D" width="6" height="6"/>
	<rect x="135" y="164.971" fill="#A37C2D" width="6" height="6"/>
	<rect x="147" y="164.971" fill="#CA962B" width="6" height="6"/>
	<rect x="141" y="170.971" fill="#EDD69F" width="6" height="6"/>
	<rect x="147" y="170.971" fill="#EDD69F" width="6" height="6"/>
	<rect x="141" y="176.971" fill="#F26D36" width="6" height="6"/>
	<rect x="147" y="176.971" fill="#F26D36" width="6" height="6"/>
	<rect x="153" y="170.971" fill="#EDD69F" width="6" height="6"/>
	<rect x="153" y="164.971" fill="#EDD69F" width="6" height="6"/>
	<rect x="159" y="164.971" fill="#EDD69F" width="6" height="6"/>
	<rect x="159" y="170.971" fill="#F3F4F5" width="6" height="6"/>
	<rect x="165" y="170.971" fill="#9CB6C8" width="6" height="6"/>
	<rect x="171" y="170.971" fill="#E9E9EB" width="6" height="6"/>
	<rect x="159" y="176.971" fill="#9CB6C8" width="6" height="6"/>
	<rect x="153" y="176.971" fill="#F26D36" width="6" height="6"/>
	<rect x="135" y="176.971" fill="#9CB6C8" width="6" height="6"/>
	<rect x="135" y="170.971" fill="#F3F4F5" width="6" height="6"/>
	<rect x="129" y="170.971" fill="#9CB6C8" width="6" height="6"/>
	<rect x="123" y="170.971" fill="#F3F4F5" width="6" height="6"/>
	<rect x="129" y="176.971" fill="#F3F4F5" width="6" height="6"/>
	<rect x="165" y="176.971" fill="#C2A966" width="6" height="6"/>
	<rect x="171" y="176.971" fill="#955323" width="6" height="6"/>
	<rect x="177" y="176.971" fill="#955323" width="6" height="6"/>
	<rect x="183" y="176.971" fill="#955323" width="6" height="6"/>
	<rect x="141" y="188.971" fill="#9CB6C8" width="6" height="6"/>
	<rect x="147" y="188.971" fill="#F26D36" width="6" height="6"/>
	<rect x="159" y="188.971" fill="#9CB6C8" width="6" height="6"/>
	<rect x="153" y="188.971" fill="#9CB6C8" width="6" height="6"/>
	<rect x="135" y="188.971" fill="#9CB6C8" width="6" height="6"/>
	<rect x="129" y="188.971" fill="#955323" width="6" height="6"/>
	<rect x="123" y="188.971" fill="#C2A966" width="6" height="6"/>
	<rect x="165" y="188.971" fill="#C2A966" width="6" height="6"/>
	<rect x="171" y="188.971" fill="#C2A966" width="6" height="6"/>
	<rect x="177" y="188.971" fill="#C2A966" width="6" height="6"/>
	<rect x="183" y="188.971" fill="#C2A966" width="6" height="6"/>
	<rect x="141" y="200.971" fill="#C2A966" width="6" height="6"/>
	<rect x="147" y="200.971" fill="#C2A966" width="6" height="6"/>
	<rect x="159" y="200.971" fill="#C2A966" width="6" height="6"/>
	<rect x="153" y="200.971" fill="#C2A966" width="6" height="6"/>
	<rect x="135" y="200.971" fill="#C2A966" width="6" height="6"/>
	<rect x="129" y="200.971" fill="#84796C" width="6" height="6"/>
	<rect x="123" y="200.971" fill="#C2A966" width="6" height="6"/>
	<rect x="165" y="200.971" fill="#C2A966" width="6" height="6"/>
	<rect x="171" y="200.971" fill="#84796C" width="6" height="6"/>
	<rect x="177" y="200.971" fill="#C2A966" width="6" height="6"/>
	<rect x="183" y="200.971" fill="#C2A966" width="6" height="6"/>
	<rect x="141" y="182.971" fill="#F3F4F5" width="6" height="6"/>
	<rect x="147" y="182.971" fill="#F26D36" width="6" height="6"/>
	<rect x="159" y="182.971" fill="#F3F4F5" width="6" height="6"/>
	<rect x="153" y="182.971" fill="#F3F4F5" width="6" height="6"/>
	<rect x="135" y="182.971" fill="#F3F4F5" width="6" height="6"/>
	<rect x="129" y="182.971" fill="#955323" width="6" height="6"/>
	<rect x="123" y="182.971" fill="#955323" width="6" height="6"/>
	<rect x="165" y="182.971" fill="#C2A966" width="6" height="6"/>
	<rect x="171" y="182.971" fill="#C2A966" width="6" height="6"/>
	<rect x="177" y="182.971" fill="#955323" width="6" height="6"/>
	<rect x="183" y="182.971" fill="#C2A966" width="6" height="6"/>
	<rect x="141" y="194.971" fill="#F3F4F5" width="6" height="6"/>
	<rect x="147" y="194.971" fill="#F26D36" width="6" height="6"/>
	<rect x="159" y="194.971" fill="#C2A966" width="6" height="6"/>
	<rect x="153" y="194.971" fill="#F3F4F5" width="6" height="6"/>
	<rect x="135" y="194.971" fill="#C2A966" width="6" height="6"/>
	<rect x="129" y="194.971" fill="#C2A966" width="6" height="6"/>
	<rect x="123" y="194.971" fill="#C2A966" width="6" height="6"/>
	<rect x="165" y="194.971" fill="#C2A966" width="6" height="6"/>
	<rect x="171" y="194.971" fill="#84796C" width="6" height="6"/>
	<rect x="177" y="194.971" fill="#C2A966" width="6" height="6"/>
	<rect x="183" y="194.971" fill="#C2A966" width="6" height="6"/>
	<rect x="165" y="146.994" fill="#EDD69F" width="6" height="6"/>
	<rect x="159" y="141.006" fill="#CA962B" width="6" height="6"/>
	<rect x="165" y="141.006" fill="#EDD69F" width="6" height="6"/>
	<rect x="159" y="158.971" fill="#EDD69F" width="6" height="6"/>
	<rect x="159" y="152.982" fill="#CA962B" width="6" height="6"/>
	<rect x="165" y="152.982" fill="#EDD69F" width="6" height="6"/>
	<rect x="159" y="134.994" fill="#A37C2D" width="6" height="6"/>
	<rect x="165" y="134.994" fill="#EDD69F" width="6" height="6"/>
	<rect x="159" y="123.033" fill="#A37C2D" width="6" height="6"/>
	<rect x="165" y="123.033" fill="#CA962B" width="6" height="6"/>
	<rect x="171" y="134.994" fill="#EDD69F" width="6" height="6"/>
	<rect x="171" y="129.006" fill="#EEE1BF" width="6" height="6"/>
	<rect x="135" y="117.057" fill="#EDD69F" width="6" height="6"/>
	<rect x="141" y="117.057" fill="#EDD69F" width="6" height="6"/>
	<rect x="147" y="117.057" fill="#EDD69F" width="6" height="6"/>
	<rect x="153" y="117.057" fill="#A37C2D" width="6" height="6"/>
	<rect x="135" y="123.033" fill="#EDD69F" width="6" height="6"/>
	<rect x="141" y="123.033" fill="#EDD69F" width="6" height="6"/>
	<rect x="147" y="123.033" fill="#EDD69F" width="6" height="6"/>
	<rect x="153" y="123.033" fill="#A37C2D" width="6" height="6"/>
	<rect x="123" y="129.006" fill="#EDD69F" width="6" height="6"/>
	<rect x="129" y="129.006" fill="#EDD69F" width="6" height="6"/>
	<rect x="159" y="129.006" fill="#A37C2D" width="6" height="6"/>
	<rect x="165" y="129.006" fill="#EEE1BF" width="6" height="6"/>
	<rect x="135" y="129.006" fill="#EDD69F" width="6" height="6"/>
	<rect x="141" y="129.006" fill="#EDD69F" width="6" height="6"/>
	<rect x="147" y="129.006" fill="#EDD69F" width="6" height="6"/>
	<rect x="153" y="129.006" fill="#EDD69F" width="6" height="6"/>
	<rect x="135" y="134.994" fill="#FFFFFF" width="6" height="6"/>
	<rect x="141" y="134.994" fill="#EDD69F" width="6" height="6"/>
	<rect x="147" y="134.994" fill="#EEE1BF" width="6" height="6"/>
	<rect x="153" y="134.994" fill="#EBC297" width="6" height="6"/>
	<rect x="135" y="140.994" fill="#EDD69F" width="6" height="6"/>
	<rect x="141" y="140.994" fill="#EEE1BF" width="6" height="6"/>
	<rect x="147" y="140.994" fill="#EBC297" width="6" height="6"/>
	<rect x="153" y="140.994" fill="#EBC297" width="6" height="6"/>
	<rect x="159" y="105.057" fill="#A37C2D" width="6" height="6"/>
	<rect x="165" y="105.057" fill="#CA962B" width="6" height="6"/>
	<rect x="171" y="105.057" fill="#F8BB51" width="6" height="6"/>
	<rect x="165" y="99.029" fill="#CA962B" width="6" height="6"/>
	<rect x="123" y="99.068" fill="#CA962B" width="6" height="6"/>
	<rect x="129" y="99.068" fill="#CA962B" width="6" height="6"/>
	<rect x="135" y="99.068" fill="#CA962B" width="6" height="6"/>
	<rect x="135" y="93.068" fill="#F8BB51" width="6" height="6"/>
	<rect x="141" y="99.068" fill="#CA962B" width="6" height="6"/>
	<rect x="141" y="93.068" fill="#CA962B" width="6" height="6"/>
	<rect x="147" y="99.068" fill="#CA962B" width="6" height="6"/>
	<rect x="147" y="93.029" fill="#CA962B" width="6" height="6"/>
	<rect x="153" y="99.068" fill="#A37C2D" width="6" height="6"/>
	<rect x="159" y="99.068" fill="#CA962B" width="6" height="6"/>
	<rect x="159" y="93.068" fill="#F8BB51" width="6" height="6"/>
	<rect x="159" y="111.057" fill="#A37C2D" width="6" height="6"/>
	<rect x="165" y="111.057" fill="#CA962B" width="6" height="6"/>
	<rect x="159" y="117.057" fill="#CA962B" width="6" height="6"/>
	<rect x="165" y="117.057" fill="#CA962B" width="6" height="6"/>
	<rect x="171" y="123.033" fill="#A37C2D" width="6" height="6"/>
	<rect x="171" y="117.057" fill="#CA962B" width="6" height="6"/>
</g>
</svg>
