<?xml version="1.0" encoding="utf-8"?>
<!-- Generator: Adobe Illustrator 16.0.0, SVG Export Plug-In . SVG Version: 6.00 Build 0)  -->
<!DOCTYPE svg PUBLIC "-//W3C//DTD SVG 1.1//EN" "http://www.w3.org/Graphics/SVG/1.1/DTD/svg11.dtd">
<svg version="1.1" id="Layer_1" xmlns="http://www.w3.org/2000/svg" xmlns:xlink="http://www.w3.org/1999/xlink" x="0px" y="0px"
	 width="300px" height="300px" viewBox="0 0 300 300" enable-background="new 0 0 300 300" xml:space="preserve">
<g>
	<rect x="123.75" y="75.078" fill="#726658" width="7.5" height="7.5"/>
	<rect x="131.25" y="75.078" fill="#594A42" width="7.5" height="7.5"/>
	<rect x="138.75" y="75.078" fill="#726658" width="7.5" height="7.5"/>
	<rect x="146.25" y="75.078" fill="#594A42" width="7.5" height="7.5"/>
	<rect x="116.25" y="90.068" fill="#EFD1B8" width="7.5" height="7.5"/>
	<rect x="123.75" y="90.068" fill="#EFD1B8" width="7.5" height="7.5"/>
	<rect x="131.25" y="90.068" fill="#EFD1B8" width="7.5" height="7.5"/>
	<rect x="138.75" y="90.068" fill="#EFD1B8" width="7.5" height="7.5"/>
	<rect x="146.25" y="90.068" fill="#EFD1B8" width="7.5" height="7.5"/>
	<rect x="153.75" y="90.068" fill="#EFD1B8" width="7.5" height="7.5"/>
	<rect x="116.25" y="97.568" fill="#F7E0CF" width="7.5" height="7.5"/>
	<rect x="123.75" y="97.568" fill="#EFD1B8" width="7.5" height="7.5"/>
	<rect x="131.25" y="97.568" fill="#EFD1B8" width="7.5" height="7.5"/>
	<rect x="138.75" y="97.568" fill="#EFD1B8" width="7.5" height="7.5"/>
	<rect x="146.25" y="97.568" fill="#EFD1B8" width="7.5" height="7.5"/>
	<rect x="153.75" y="97.568" fill="#594A42" width="7.5" height="7.5"/>
	<rect x="116.25" y="105.068" fill="#F7E0CF" width="7.5" height="7.5"/>
	<rect x="123.75" y="105.068" fill="#F7E0CF" width="7.5" height="7.5"/>
	<rect x="116.25" y="112.539" fill="#EFD1B8" width="7.5" height="7.5"/>
	<rect x="123.75" y="112.539" fill="#9B8579" width="7.5" height="7.5"/>
	<rect x="116.25" y="127.49" fill="#D1D3D4" width="7.5" height="7.5"/>
	<rect x="123.75" y="127.49" fill="#3B2314" width="7.5" height="7.5"/>
	<rect x="116.25" y="135" fill="#EFD1B8" width="7.5" height="7.5"/>
	<rect x="123.75" y="135" fill="#D1D3D4" width="7.5" height="7.5"/>
	<rect x="116.25" y="142.49" fill="#D7BFAA" width="7.5" height="7.5"/>
	<rect x="108.75" y="135.02" fill="#EFD1B8" width="7.5" height="7.5"/>
	<rect x="101.25" y="135.02" fill="#EFD1B8" width="7.5" height="7.5"/>
	<rect x="108.75" y="127.52" fill="#F7E0CF" width="7.5" height="7.5"/>
	<rect x="123.75" y="142.49" fill="#D7BFAA" width="7.5" height="7.5"/>
	<rect x="138.75" y="142.49" fill="#D7BFAA" width="7.5" height="7.5"/>
	<rect x="131.25" y="142.49" fill="#D7BFAA" width="7.5" height="7.5"/>
	<rect x="146.25" y="142.49" fill="#EFCFC0" width="7.5" height="7.5"/>
	<rect x="161.25" y="142.49" fill="#EFD1B8" width="7.5" height="7.5"/>
	<rect x="153.75" y="142.49" fill="#F7E0CF" width="7.5" height="7.5"/>
	<rect x="138.75" y="149.971" fill="#FFFFFF" width="7.5" height="7.5"/>
	<rect x="131.25" y="149.971" fill="#FFFFFF" width="7.5" height="7.5"/>
	<rect x="146.25" y="149.971" fill="#FFFFFF" width="7.5" height="7.5"/>
	<rect x="153.75" y="149.971" fill="#BB807B" width="7.5" height="7.5"/>
	<rect x="138.75" y="157.461" fill="#D28F8C" width="7.5" height="7.5"/>
	<rect x="131.25" y="157.461" fill="#D28F8C" width="7.5" height="7.5"/>
	<rect x="146.25" y="157.461" fill="#BB807B" width="7.5" height="7.5"/>
	<rect x="153.75" y="157.461" fill="#D7BFAA" width="7.5" height="7.5"/>
	<rect x="138.75" y="164.961" fill="#D7BFAA" width="7.5" height="7.5"/>
	<rect x="131.25" y="164.961" fill="#D7BFAA" width="7.5" height="7.5"/>
	<rect x="146.25" y="164.961" fill="#D7BFAA" width="7.5" height="7.5"/>
	<rect x="138.75" y="172.461" fill="#BAA993" width="7.5" height="7.5"/>
	<rect x="146.25" y="172.461" fill="#BAA993" width="7.5" height="7.5"/>
	<rect x="138.75" y="187.422" fill="#EFD1B8" width="7.5" height="7.5"/>
	<rect x="146.25" y="187.422" fill="#EFD1B8" width="7.5" height="7.5"/>
	<rect x="153.75" y="172.461" fill="#EFD1B8" width="7.5" height="7.5"/>
	<rect x="138.75" y="179.922" fill="#EFD1B8" width="7.5" height="7.5"/>
	<rect x="146.25" y="179.922" fill="#EFD1B8" width="7.5" height="7.5"/>
	<rect x="153.75" y="179.922" fill="#EFD1B8" width="7.5" height="7.5"/>
	<rect x="153.75" y="164.961" fill="#EFD1B8" width="7.5" height="7.5"/>
	<rect x="161.25" y="164.961" fill="#EFD1B8" width="7.5" height="7.5"/>
	<rect x="161.25" y="179.922" fill="#757345" width="7.5" height="7.5"/>
	<rect x="168.75" y="179.922" fill="#757345" width="7.5" height="7.5"/>
	<rect x="161.25" y="187.422" fill="#757345" width="7.5" height="7.5"/>
	<rect x="153.75" y="187.422" fill="#EFD1B8" width="7.5" height="7.5"/>
	<rect x="131.25" y="187.422" fill="#757345" width="7.5" height="7.5"/>
	<rect x="123.75" y="187.422" fill="#757345" width="7.5" height="7.5"/>
	<rect x="131.25" y="179.922" fill="#757345" width="7.5" height="7.5"/>
	<rect x="123.75" y="179.922" fill="#757345" width="7.5" height="7.5"/>
	<rect x="168.75" y="187.422" fill="#757345" width="7.5" height="7.5"/>
	<rect x="176.25" y="187.422" fill="#C2B59B" width="7.5" height="7.5"/>
	<rect x="183.75" y="187.422" fill="#C2B59B" width="7.5" height="7.5"/>
	<rect x="138.75" y="202.422" fill="#757345" width="7.5" height="7.5"/>
	<rect x="146.25" y="202.422" fill="#FFFFFF" width="7.5" height="7.5"/>
	<rect x="161.25" y="202.422" fill="#C2B59B" width="7.5" height="7.5"/>
	<rect x="153.75" y="202.422" fill="#757345" width="7.5" height="7.5"/>
	<rect x="131.25" y="202.422" fill="#C2B59B" width="7.5" height="7.5"/>
	<rect x="123.75" y="202.422" fill="#C2B59B" width="7.5" height="7.5"/>
	<rect x="116.25" y="202.422" fill="#C2B59B" width="7.5" height="7.5"/>
	<rect x="168.75" y="202.422" fill="#C2B59B" width="7.5" height="7.5"/>
	<rect x="176.25" y="202.422" fill="#C2B59B" width="7.5" height="7.5"/>
	<rect x="183.75" y="202.422" fill="#C2B59B" width="7.5" height="7.5"/>
	<rect x="191.25" y="202.422" fill="#C2B59B" width="7.5" height="7.5"/>
	<rect x="138.75" y="217.422" fill="#C2B59B" width="7.5" height="7.5"/>
	<rect x="146.25" y="217.422" fill="#C2B59B" width="7.5" height="7.5"/>
	<rect x="161.25" y="217.422" fill="#C2B59B" width="7.5" height="7.5"/>
	<rect x="153.75" y="217.422" fill="#C2B59B" width="7.5" height="7.5"/>
	<rect x="131.25" y="217.422" fill="#C2B59B" width="7.5" height="7.5"/>
	<rect x="123.75" y="217.422" fill="#757345" width="7.5" height="7.5"/>
	<rect x="116.25" y="217.422" fill="#EFD1B8" width="7.5" height="7.5"/>
	<rect x="168.75" y="217.422" fill="#757345" width="7.5" height="7.5"/>
	<rect x="176.25" y="217.422" fill="#EFD1B8" width="7.5" height="7.5"/>
	<rect x="183.75" y="217.422" fill="#EFD1B8" width="7.5" height="7.5"/>
	<rect x="191.25" y="217.422" fill="#EFD1B8" width="7.5" height="7.5"/>
	<rect x="138.75" y="194.922" fill="#FFFFFF" width="7.5" height="7.5"/>
	<rect x="146.25" y="194.922" fill="#FFFFFF" width="7.5" height="7.5"/>
	<rect x="161.25" y="194.922" fill="#757345" width="7.5" height="7.5"/>
	<rect x="153.75" y="194.922" fill="#FFFFFF" width="7.5" height="7.5"/>
	<rect x="131.25" y="194.922" fill="#757345" width="7.5" height="7.5"/>
	<rect x="123.75" y="194.922" fill="#879260" width="7.5" height="7.5"/>
	<rect x="116.25" y="194.922" fill="#879260" width="7.5" height="7.5"/>
	<rect x="168.75" y="194.922" fill="#879260" width="7.5" height="7.5"/>
	<rect x="176.25" y="194.922" fill="#879260" width="7.5" height="7.5"/>
	<rect x="183.75" y="194.922" fill="#879260" width="7.5" height="7.5"/>
	<rect x="191.25" y="194.922" fill="#879260" width="7.5" height="7.5"/>
	<rect x="138.75" y="209.922" fill="#879260" width="7.5" height="7.5"/>
	<rect x="146.25" y="209.922" fill="#757345" width="7.5" height="7.5"/>
	<rect x="161.25" y="209.922" fill="#FAC805" width="7.5" height="7.5"/>
	<rect x="153.75" y="209.922" fill="#879260" width="7.5" height="7.5"/>
	<rect x="131.25" y="209.922" fill="#879260" width="7.5" height="7.5"/>
	<rect x="123.75" y="209.922" fill="#879260" width="7.5" height="7.5"/>
	<rect x="116.25" y="209.922" fill="#879260" width="7.5" height="7.5"/>
	<rect x="108.75" y="202.422" fill="#C2B59B" width="7.5" height="7.5"/>
	<rect x="108.75" y="217.422" fill="#EFD1B8" width="7.5" height="7.5"/>
	<rect x="108.75" y="209.922" fill="#879260" width="7.5" height="7.5"/>
	<rect x="168.75" y="209.922" fill="#879260" width="7.5" height="7.5"/>
	<rect x="176.25" y="209.922" fill="#879260" width="7.5" height="7.5"/>
	<rect x="183.75" y="209.922" fill="#879260" width="7.5" height="7.5"/>
	<rect x="191.25" y="209.922" fill="#879260" width="7.5" height="7.5"/>
	<rect x="168.75" y="142.49" fill="#EFD1B8" width="7.5" height="7.5"/>
	<rect x="161.25" y="135" fill="#EFD1B8" width="7.5" height="7.5"/>
	<rect x="168.75" y="135" fill="#EFD1B8" width="7.5" height="7.5"/>
	<rect x="161.25" y="157.461" fill="#EFD1B8" width="7.5" height="7.5"/>
	<rect x="168.75" y="157.461" fill="#EFD1B8" width="7.5" height="7.5"/>
	<rect x="161.25" y="149.971" fill="#F7E0CF" width="7.5" height="7.5"/>
	<rect x="168.75" y="149.971" fill="#EFD1B8" width="7.5" height="7.5"/>
	<rect x="161.25" y="127.49" fill="#EFD1B8" width="7.5" height="7.5"/>
	<rect x="168.75" y="127.49" fill="#EFD1B8" width="7.5" height="7.5"/>
	<rect x="161.25" y="112.539" fill="#594A42" width="7.5" height="7.5"/>
	<rect x="168.75" y="112.539" fill="#EFD1B8" width="7.5" height="7.5"/>
	<rect x="176.25" y="127.49" fill="#EFD1B8" width="7.5" height="7.5"/>
	<rect x="176.25" y="120" fill="#EFD1B8" width="7.5" height="7.5"/>
	<rect x="131.25" y="105.068" fill="#EFD1B8" width="7.5" height="7.5"/>
	<rect x="138.75" y="105.068" fill="#EFD1B8" width="7.5" height="7.5"/>
	<rect x="146.25" y="105.068" fill="#EFD1B8" width="7.5" height="7.5"/>
	<rect x="153.75" y="105.068" fill="#EFD1B8" width="7.5" height="7.5"/>
	<rect x="131.25" y="112.539" fill="#BAA993" width="7.5" height="7.5"/>
	<rect x="138.75" y="112.539" fill="#EFD1B8" width="7.5" height="7.5"/>
	<rect x="146.25" y="112.539" fill="#EFD1B8" width="7.5" height="7.5"/>
	<rect x="153.75" y="112.539" fill="#EFD1B8" width="7.5" height="7.5"/>
	<rect x="116.25" y="120" fill="#ADAFB2" width="7.5" height="7.5"/>
	<rect x="123.75" y="120" fill="#ADAFB2" width="7.5" height="7.5"/>
	<rect x="161.25" y="120" fill="#808285" width="7.5" height="7.5"/>
	<rect x="168.75" y="120" fill="#F7E0CF" width="7.5" height="7.5"/>
	<rect x="131.25" y="120" fill="#ADAFB2" width="7.5" height="7.5"/>
	<rect x="138.75" y="120" fill="#ADAFB2" width="7.5" height="7.5"/>
	<rect x="146.25" y="120" fill="#808285" width="7.5" height="7.5"/>
	<rect x="153.75" y="120" fill="#808285" width="7.5" height="7.5"/>
	<rect x="131.25" y="127.49" fill="#FFFFFF" width="7.5" height="7.5"/>
	<rect x="138.75" y="127.49" fill="#D1D3D4" width="7.5" height="7.5"/>
	<rect x="146.25" y="127.49" fill="#EFD1B8" width="7.5" height="7.5"/>
	<rect x="153.75" y="127.49" fill="#EFD1B8" width="7.5" height="7.5"/>
	<rect x="131.25" y="134.99" fill="#D1D3D4" width="7.5" height="7.5"/>
	<rect x="138.75" y="134.99" fill="#EFCFC0" width="7.5" height="7.5"/>
	<rect x="146.25" y="134.99" fill="#F7E0CF" width="7.5" height="7.5"/>
	<rect x="153.75" y="134.99" fill="#EFD1B8" width="7.5" height="7.5"/>
	<rect x="161.25" y="90.068" fill="#726658" width="7.5" height="7.5"/>
	<rect x="168.75" y="90.068" fill="#726658" width="7.5" height="7.5"/>
	<rect x="116.25" y="82.578" fill="#726658" width="7.5" height="7.5"/>
	<rect x="108.75" y="75.078" fill="#594A42" width="7.5" height="7.5"/>
	<rect x="123.75" y="82.578" fill="#594A42" width="7.5" height="7.5"/>
	<rect x="131.25" y="82.578" fill="#726658" width="7.5" height="7.5"/>
	<rect x="138.75" y="82.578" fill="#594A42" width="7.5" height="7.5"/>
	<rect x="146.25" y="82.578" fill="#726658" width="7.5" height="7.5"/>
	<rect x="153.75" y="82.578" fill="#726658" width="7.5" height="7.5"/>
	<rect x="161.25" y="82.578" fill="#594A42" width="7.5" height="7.5"/>
	<rect x="153.75" y="75.078" fill="#726658" width="7.5" height="7.5"/>
	<rect x="161.25" y="75.078" fill="#726658" width="7.5" height="7.5"/>
	<rect x="168.75" y="82.578" fill="#726658" width="7.5" height="7.5"/>
	<rect x="176.25" y="90.068" fill="#726658" width="7.5" height="7.5"/>
	<rect x="161.25" y="97.568" fill="#594A42" width="7.5" height="7.5"/>
	<rect x="168.75" y="97.568" fill="#594A42" width="7.5" height="7.5"/>
	<rect x="161.25" y="105.068" fill="#594A42" width="7.5" height="7.5"/>
	<rect x="168.75" y="105.068" fill="#594A42" width="7.5" height="7.5"/>
	<rect x="176.25" y="112.539" fill="#F7E0CF" width="7.5" height="7.5"/>
	<rect x="176.25" y="97.568" fill="#726658" width="7.5" height="7.5"/>
	<rect x="176.25" y="105.068" fill="#594A42" width="7.5" height="7.5"/>
	<rect x="176.25" y="135" fill="#726658" width="7.5" height="7.5"/>
</g>
</svg>
