<?xml version="1.0" encoding="utf-8"?>
<!-- Generator: Adobe Illustrator 16.0.0, SVG Export Plug-In . SVG Version: 6.00 Build 0)  -->
<!DOCTYPE svg PUBLIC "-//W3C//DTD SVG 1.1//EN" "http://www.w3.org/Graphics/SVG/1.1/DTD/svg11.dtd">
<svg version="1.1" id="Layer_1" xmlns="http://www.w3.org/2000/svg" xmlns:xlink="http://www.w3.org/1999/xlink" x="0px" y="0px"
	 width="300px" height="300px" viewBox="0 0 300 300" enable-background="new 0 0 300 300" xml:space="preserve">
<g>
	<rect x="117" y="102.043" fill="#1A1818" width="6" height="6"/>
	<rect x="123" y="102.039" fill="#EFD1B8" width="6" height="6"/>
	<rect x="129" y="102.039" fill="#1A1818" width="6" height="6"/>
	<rect x="135" y="102.039" fill="#EFD1B8" width="6" height="6"/>
	<rect x="141" y="102.039" fill="#EFD1B8" width="6" height="6"/>
	<rect x="147" y="102.039" fill="#F3D9D0" width="6" height="6"/>
	<rect x="123" y="96.039" fill="#1A1818" width="6" height="6"/>
	<rect x="117" y="96.039" fill="#231F20" width="6" height="6"/>
	<rect x="129" y="96.039" fill="#231F20" width="6" height="6"/>
	<rect x="135" y="96.039" fill="#EFD1B8" width="6" height="6"/>
	<rect x="141" y="96.039" fill="#F3D9D0" width="6" height="6"/>
	<rect x="147" y="96.039" fill="#F3D9D0" width="6" height="6"/>
	<polyline fill="#231F20" points="123,90.043 123,96.043 129,96.043 129,90.043 	"/>
	<rect x="129" y="90.043" fill="#231F20" width="6" height="6"/>
	<rect x="135" y="90.043" fill="#231F20" width="6" height="6"/>
	<rect x="141" y="90.043" fill="#231F20" width="6" height="6"/>
	<rect x="147" y="90.043" fill="#231F20" width="6" height="6"/>
	<rect x="117" y="114.027" fill="#EFD1B8" width="6" height="6"/>
	<rect x="123" y="114.027" fill="#EFCFC0" width="6" height="6"/>
	<rect x="129" y="114.027" fill="#F3D9D0" width="6" height="6"/>
	<rect x="135" y="114.027" fill="#EFD1B8" width="6" height="6"/>
	<rect x="141" y="114.027" fill="#F3D9D0" width="6" height="6"/>
	<rect x="147" y="114.027" fill="#231F20" width="6" height="6"/>
	<rect x="117" y="120.027" fill="#EFCFC0" width="6" height="6"/>
	<rect x="123" y="120.027" fill="#726658" width="6" height="6"/>
	<rect x="129" y="120.027" fill="#9B8579" width="6" height="6"/>
	<rect x="135" y="120.027" fill="#F3D9D0" width="6" height="6"/>
	<rect x="141" y="120.027" fill="#EFD1B8" width="6" height="6"/>
	<rect x="147" y="120.027" fill="#F3D9D0" width="6" height="6"/>
	<rect x="117" y="126.027" fill="#EFD1B8" width="6" height="6"/>
	<rect x="123" y="126.027" fill="#EFD1B8" width="6" height="6"/>
	<rect x="117" y="132.004" fill="#D7BFAA" width="6" height="6"/>
	<rect x="123" y="132.004" fill="#7F95A5" width="6" height="6"/>
	<rect x="117" y="137.992" fill="#EFD1B8" width="6" height="6"/>
	<rect x="123" y="137.992" fill="#D7BFAA" width="6" height="6"/>
	<rect x="117" y="144.004" fill="#EFD1B8" width="6" height="6"/>
	<rect x="123" y="144.004" fill="#EFD1B8" width="6" height="6"/>
	<rect x="117" y="149.992" fill="#EFCFC0" width="6" height="6"/>
	<rect x="111" y="144.004" fill="#EFD1B8" width="6" height="6"/>
	<rect x="111" y="137.992" fill="#F3D9D0" width="6" height="6"/>
	<rect x="123" y="149.992" fill="#EFCFC0" width="6" height="6"/>
	<rect x="135" y="149.992" fill="#EFD1B8" width="6" height="6"/>
	<rect x="129" y="149.992" fill="#EFD1B8" width="6" height="6"/>
	<rect x="141" y="149.992" fill="#E5B29B" width="6" height="6"/>
	<rect x="153" y="149.992" fill="#D7BFAA" width="6" height="6"/>
	<rect x="147" y="149.992" fill="#BAA993" width="6" height="6"/>
	<rect x="135" y="155.98" fill="#FFFFFF" width="6" height="6"/>
	<rect x="129" y="155.98" fill="#FFFFFF" width="6" height="6"/>
	<rect x="141" y="155.98" fill="#FFFFFF" width="6" height="6"/>
	<rect x="147" y="155.98" fill="#FFFFFF" width="6" height="6"/>
	<rect x="135" y="161.969" fill="#D28F8C" width="6" height="6"/>
	<rect x="129" y="161.969" fill="#D28F8C" width="6" height="6"/>
	<rect x="141" y="161.969" fill="#D28F8C" width="6" height="6"/>
	<rect x="147" y="161.969" fill="#D28F8C" width="6" height="6"/>
	<rect x="135" y="167.969" fill="#BAA993" width="6" height="6"/>
	<rect x="129" y="167.969" fill="#BAA993" width="6" height="6"/>
	<rect x="141" y="167.969" fill="#EFD1B8" width="6" height="6"/>
	<rect x="135" y="173.969" fill="#EFCFC0" width="6" height="6"/>
	<rect x="129" y="173.969" fill="#EFCFC0" width="6" height="6"/>
	<rect x="141" y="173.969" fill="#EFCFC0" width="6" height="6"/>
	<rect x="147" y="173.969" fill="#EFD1B8" width="6" height="6"/>
	<rect x="147" y="167.969" fill="#EFD1B8" width="6" height="6"/>
	<rect x="153" y="167.969" fill="#EFD1B8" width="6" height="6"/>
	<rect x="159" y="149.992" fill="#EFD1B8" width="6" height="6"/>
	<rect x="153" y="144.004" fill="#EFD1B8" width="6" height="6"/>
	<rect x="159" y="144.004" fill="#EFD1B8" width="6" height="6"/>
	<rect x="153" y="161.969" fill="#EFD1B8" width="6" height="6"/>
	<rect x="159" y="161.969" fill="#EFD1B8" width="6" height="6"/>
	<rect x="159" y="167.969" fill="#EFD1B8" width="6" height="6"/>
	<rect x="153" y="155.98" fill="#BAA993" width="6" height="6"/>
	<rect x="159" y="155.98" fill="#EFD1B8" width="6" height="6"/>
	<rect x="153" y="137.992" fill="#E3C7B1" width="6" height="6"/>
	<rect x="159" y="137.992" fill="#EFD1B8" width="6" height="6"/>
	<rect x="153" y="132.004" fill="#EDD69F" width="6" height="6"/>
	<rect x="159" y="132.004" fill="#EFCFC0" width="6" height="6"/>
	<rect x="171" y="137.992" fill="#EFD1B8" width="6" height="6"/>
	<rect x="165" y="144.004" fill="#EFD1B8" width="6" height="6"/>
	<rect x="165" y="137.992" fill="#EFD1B8" width="6" height="6"/>
	<rect x="165" y="132.004" fill="#E5B29B" width="6" height="6"/>
	<rect x="165" y="126.027" fill="#EFD1B8" width="6" height="6"/>
	<rect x="165" y="120.027" fill="#231F20" width="6" height="6"/>
	<rect x="171" y="132.004" fill="#EFD1B8" width="6" height="6"/>
	<rect x="129" y="126.027" fill="#EFD1B8" width="6" height="6"/>
	<rect x="135" y="126.027" fill="#EFD1B8" width="6" height="6"/>
	<rect x="141" y="126.027" fill="#EFD1B8" width="6" height="6"/>
	<rect x="147" y="126.027" fill="#EFD1B8" width="6" height="6"/>
	<rect x="129" y="132.004" fill="#FFFFFF" width="6" height="6"/>
	<rect x="135" y="132.004" fill="#EFD1B8" width="6" height="6"/>
	<rect x="141" y="132.004" fill="#EFD1B8" width="6" height="6"/>
	<rect x="147" y="132.004" fill="#EFD1B8" width="6" height="6"/>
	<rect x="129" y="137.992" fill="#E5B29B" width="6" height="6"/>
	<rect x="135" y="137.992" fill="#F3D9D0" width="6" height="6"/>
	<rect x="141" y="137.992" fill="#F3D9D0" width="6" height="6"/>
	<rect x="147" y="137.992" fill="#EFD1B8" width="6" height="6"/>
	<rect x="129" y="143.992" fill="#E5B29B" width="6" height="6"/>
	<rect x="135" y="143.992" fill="#E5B29B" width="6" height="6"/>
	<rect x="141" y="143.992" fill="#F3D9D0" width="6" height="6"/>
	<rect x="147" y="143.992" fill="#EFD1B8" width="6" height="6"/>
	<rect x="153" y="114.027" fill="#231F20" width="6" height="6"/>
	<rect x="159" y="114.027" fill="#231F20" width="6" height="6"/>
	<rect x="117" y="108.039" fill="#F3D9D0" width="6" height="6"/>
	<rect x="123" y="108.039" fill="#F3D9D0" width="6" height="6"/>
	<rect x="129" y="108.039" fill="#EFD1B8" width="6" height="6"/>
	<rect x="135" y="108.039" fill="#EFD1B8" width="6" height="6"/>
	<rect x="141" y="108.039" fill="#EFD1B8" width="6" height="6"/>
	<rect x="147" y="108.039" fill="#231F20" width="6" height="6"/>
	<rect x="153" y="108.039" fill="#231F20" width="6" height="6"/>
	<rect x="153" y="102.039" fill="#231F20" width="6" height="6"/>
	<rect x="159" y="108.039" fill="#231F20" width="6" height="6"/>
	<rect x="153" y="120.027" fill="#231F20" width="6" height="6"/>
	<rect x="153" y="132.004" fill="#E3C7B1" width="6" height="6"/>
	<rect x="159" y="120.027" fill="#1A1818" width="6" height="6"/>
	<rect x="165" y="114.027" fill="#231F20" width="6" height="6"/>
	<rect x="153" y="96.043" fill="#231F20" width="6" height="6"/>
	<rect x="159" y="102.043" fill="#231F20" width="6" height="6"/>
	<rect x="165" y="108.035" fill="#231F20" width="6" height="6"/>
	<rect x="153" y="90.051" fill="#231F20" width="6" height="6"/>
	<rect x="159" y="96.051" fill="#231F20" width="6" height="6"/>
	<rect x="165" y="102.039" fill="#231F20" width="6" height="6"/>
	<rect x="159" y="90.051" fill="#231F20" width="6" height="6"/>
	<rect x="165" y="96.051" fill="#231F20" width="6" height="6"/>
	<rect x="171" y="102.039" fill="#231F20" width="6" height="6"/>
	<rect x="171" y="120.027" fill="#EFCFC0" width="6" height="6"/>
	<rect x="171" y="114.027" fill="#231F20" width="6" height="6"/>
	<rect x="171" y="108.035" fill="#231F20" width="6" height="6"/>
	<rect x="177" y="120.027" fill="#F3D9D0" width="6" height="6"/>
	<rect x="171" y="126.027" fill="#E5B29B" width="6" height="6"/>
	<rect x="177" y="132.004" fill="#EFD1B8" width="6" height="6"/>
	<rect x="177" y="126.027" fill="#EFD1B8" width="6" height="6"/>
	<rect x="153" y="126.027" fill="#EFD1B8" width="6" height="6"/>
	<rect x="159" y="126.027" fill="#1A1818" width="6" height="6"/>
	<rect x="141" y="179.969" fill="#BAA993" width="6" height="6"/>
	<rect x="135" y="179.957" fill="#BAA993" width="6" height="6"/>
	<rect x="159" y="173.957" fill="#EFD1B8" width="6" height="6"/>
	<rect x="165" y="149.992" fill="#D7BFAA" width="6" height="6"/>
	<rect x="165" y="161.969" fill="#EFD1B8" width="6" height="6"/>
	<rect x="165" y="167.969" fill="#EFD1B8" width="6" height="6"/>
	<rect x="165" y="155.98" fill="#EFD1B8" width="6" height="6"/>
	<rect x="165" y="173.957" fill="#EFD1B8" width="6" height="6"/>
	<rect x="171" y="173.957" fill="#323133" width="6" height="6"/>
	<rect x="147" y="179.957" fill="#D7BFAA" width="6" height="6"/>
	<rect x="153" y="173.969" fill="#D7BFAA" width="6" height="6"/>
	<rect x="153" y="179.957" fill="#EFD1B8" width="6" height="6"/>
	<rect x="129" y="179.957" fill="#FFFFFF" width="6" height="6"/>
	<rect x="123" y="179.957" fill="#323133" width="6" height="6"/>
	<rect x="165" y="179.957" fill="#FFFFFF" width="6" height="6"/>
	<rect x="171" y="179.957" fill="#323133" width="6" height="6"/>
	<rect x="177" y="179.957" fill="#323133" width="6" height="6"/>
	<rect x="135" y="191.957" fill="#FFFFFF" width="6" height="6"/>
	<rect x="141" y="191.957" fill="#EFD1B8" width="6" height="6"/>
	<rect x="153" y="191.957" fill="#FFFFFF" width="6" height="6"/>
	<rect x="147" y="191.957" fill="#EFD1B8" width="6" height="6"/>
	<rect x="129" y="191.957" fill="#FFFFFF" width="6" height="6"/>
	<rect x="129" y="197.957" fill="#231F20" width="6" height="6"/>
	<rect x="123" y="191.957" fill="#323133" width="6" height="6"/>
	<rect x="117" y="191.957" fill="#464749" width="6" height="6"/>
	<rect x="165" y="191.957" fill="#FFFFFF" width="6" height="6"/>
	<rect x="171" y="191.957" fill="#464749" width="6" height="6"/>
	<rect x="177" y="191.957" fill="#323133" width="6" height="6"/>
	<rect x="183" y="191.957" fill="#323133" width="6" height="6"/>
	<rect x="135" y="203.957" fill="#ECEEEE" width="6" height="6"/>
	<rect x="141" y="203.957" fill="#FFFFFF" width="6" height="6"/>
	<rect x="153" y="203.957" fill="#ECEEEE" width="6" height="6"/>
	<rect x="147" y="203.957" fill="#FFFFFF" width="6" height="6"/>
	<rect x="129" y="203.957" fill="#464749" width="6" height="6"/>
	<rect x="123" y="203.957" fill="#323133" width="6" height="6"/>
	<rect x="117" y="203.957" fill="#323133" width="6" height="6"/>
	<rect x="165" y="203.957" fill="#464749" width="6" height="6"/>
	<rect x="171" y="203.957" fill="#323133" width="6" height="6"/>
	<rect x="177" y="203.957" fill="#323133" width="6" height="6"/>
	<rect x="183" y="203.957" fill="#231F20" width="6" height="6"/>
	<rect x="135" y="185.957" fill="#EFD1B8" width="6" height="6"/>
	<rect x="141" y="185.957" fill="#D7BFAA" width="6" height="6"/>
	<rect x="153" y="185.957" fill="#EFD1B8" width="6" height="6"/>
	<rect x="147" y="185.957" fill="#EFD1B8" width="6" height="6"/>
	<rect x="129" y="185.957" fill="#FFFFFF" width="6" height="6"/>
	<rect x="123" y="185.957" fill="#323133" width="6" height="6"/>
	<rect x="117" y="185.957" fill="#323133" width="6" height="6"/>
	<rect x="165" y="185.957" fill="#FFFFFF" width="6" height="6"/>
	<rect x="171" y="185.957" fill="#323133" width="6" height="6"/>
	<rect x="177" y="185.957" fill="#464749" width="6" height="6"/>
	<rect x="183" y="185.957" fill="#323133" width="6" height="6"/>
	<rect x="135" y="197.957" fill="#FFFFFF" width="6" height="6"/>
	<rect x="141" y="197.957" fill="#FFFFFF" width="6" height="6"/>
	<rect x="153" y="197.957" fill="#FFFFFF" width="6" height="6"/>
	<rect x="147" y="197.957" fill="#FFFFFF" width="6" height="6"/>
	<rect x="129" y="197.957" fill="#323133" width="6" height="6"/>
	<rect x="123" y="197.957" fill="#464749" width="6" height="6"/>
	<rect x="117" y="197.957" fill="#323133" width="6" height="6"/>
	<rect x="111" y="191.957" fill="#323133" width="6" height="6"/>
	<rect x="111" y="185.957" fill="#464749" width="6" height="6"/>
	<rect x="111" y="203.957" fill="#231F20" width="6" height="6"/>
	<rect x="111" y="197.957" fill="#323133" width="6" height="6"/>
	<rect x="105" y="191.957" fill="#323133" width="6" height="6"/>
	<rect x="105" y="203.957" fill="#323133" width="6" height="6"/>
	<rect x="105" y="197.957" fill="#323133" width="6" height="6"/>
	<rect x="165" y="197.957" fill="#464749" width="6" height="6"/>
	<rect x="159" y="179.957" fill="#FFFFFF" width="6" height="6"/>
	<rect x="159" y="191.957" fill="#FFFFFF" width="6" height="6"/>
	<rect x="159" y="203.957" fill="#464749" width="6" height="6"/>
	<rect x="159" y="185.957" fill="#FFFFFF" width="6" height="6"/>
	<rect x="159" y="197.957" fill="#464749" width="6" height="6"/>
	<rect x="171" y="197.957" fill="#323133" width="6" height="6"/>
	<rect x="177" y="197.957" fill="#323133" width="6" height="6"/>
	<rect x="183" y="197.957" fill="#323133" width="6" height="6"/>
	<rect x="189" y="191.957" fill="#323133" width="6" height="6"/>
	<rect x="189" y="203.957" fill="#323133" width="6" height="6"/>
	<rect x="189" y="197.957" fill="#323133" width="6" height="6"/>
</g>
</svg>
