<?xml version="1.0" encoding="utf-8"?>
<!-- Generator: Adobe Illustrator 16.0.0, SVG Export Plug-In . SVG Version: 6.00 Build 0)  -->
<!DOCTYPE svg PUBLIC "-//W3C//DTD SVG 1.1//EN" "http://www.w3.org/Graphics/SVG/1.1/DTD/svg11.dtd">
<svg version="1.1" id="Layer_1" xmlns="http://www.w3.org/2000/svg" xmlns:xlink="http://www.w3.org/1999/xlink" x="0px" y="0px"
	 width="300px" height="300px" viewBox="0 0 300 300" enable-background="new 0 0 300 300" xml:space="preserve">
<g>
	<rect x="134.998" y="176.965" fill="#E5B29B" width="6" height="6"/>
	<rect x="140.998" y="176.965" fill="#E5B29B" width="6" height="6"/>
	<rect x="146.998" y="176.965" fill="#E5B29B" width="6" height="6"/>
	<rect x="158.998" y="176.965" fill="#EFD1B8" width="6" height="6"/>
	<rect x="134.998" y="182.965" fill="#EFD1B8" width="6" height="6"/>
	<rect x="140.998" y="182.965" fill="#EFD1B8" width="6" height="6"/>
	<rect x="164.998" y="176.965" fill="#1B455E" width="6" height="6"/>
	<rect x="158.998" y="182.965" fill="#C3D2E0" width="6" height="6"/>
	<rect x="146.998" y="182.965" fill="#EFD1B8" width="6" height="6"/>
	<rect x="128.998" y="182.965" fill="#C3D2E0" width="6" height="6"/>
	<rect x="122.998" y="182.965" fill="#1B455E" width="6" height="6"/>
	<rect x="128.998" y="176.965" fill="#1B455E" width="6" height="6"/>
	<rect x="122.998" y="176.965" fill="#1B455E" width="6" height="6"/>
	<rect x="164.998" y="182.965" fill="#1B455E" width="6" height="6"/>
	<rect x="170.998" y="182.965" fill="#1B455E" width="6" height="6"/>
	<rect x="170.998" y="176.965" fill="#1B455E" width="6" height="6"/>
	<rect x="176.998" y="182.965" fill="#1B455E" width="6" height="6"/>
	<rect x="134.998" y="194.965" fill="#C7E1F5" width="6" height="6"/>
	<rect x="140.998" y="194.965" fill="#913844" width="6" height="6"/>
	<rect x="158.998" y="194.965" fill="#C3D2E0" width="6" height="6"/>
	<rect x="146.998" y="194.965" fill="#C7E1F5" width="6" height="6"/>
	<rect x="128.998" y="194.965" fill="#1B455E" width="6" height="6"/>
	<rect x="128.998" y="200.965" fill="#001B30" width="6" height="6"/>
	<rect x="122.998" y="194.965" fill="#001B30" width="6" height="6"/>
	<rect x="116.998" y="194.965" fill="#1B455E" width="6" height="6"/>
	<rect x="164.998" y="194.965" fill="#1B455E" width="6" height="6"/>
	<rect x="170.998" y="194.965" fill="#001B30" width="6" height="6"/>
	<rect x="176.998" y="194.965" fill="#1B455E" width="6" height="6"/>
	<rect x="182.998" y="194.965" fill="#1B455E" width="6" height="6"/>
	<rect x="134.998" y="206.965" fill="#C7E1F5" width="6" height="6"/>
	<rect x="140.998" y="206.965" fill="#913844" width="6" height="6"/>
	<rect x="158.998" y="206.965" fill="#1B455E" width="6" height="6"/>
	<rect x="146.998" y="206.965" fill="#C7E1F5" width="6" height="6"/>
	<rect x="128.998" y="206.965" fill="#1B455E" width="6" height="6"/>
	<rect x="122.998" y="206.965" fill="#1B455E" width="6" height="6"/>
	<rect x="116.998" y="206.965" fill="#001B30" width="6" height="6"/>
	<rect x="164.998" y="206.965" fill="#1B455E" width="6" height="6"/>
	<rect x="170.998" y="206.965" fill="#001B30" width="6" height="6"/>
	<rect x="176.998" y="206.965" fill="#1B455E" width="6" height="6"/>
	<rect x="182.998" y="206.965" fill="#1B455E" width="6" height="6"/>
	<rect x="134.998" y="188.965" fill="#913844" width="6" height="6"/>
	<rect x="140.998" y="188.965" fill="#913844" width="6" height="6"/>
	<rect x="158.998" y="188.965" fill="#C3D2E0" width="6" height="6"/>
	<rect x="146.998" y="188.965" fill="#913844" width="6" height="6"/>
	<rect x="128.998" y="188.965" fill="#C3D2E0" width="6" height="6"/>
	<rect x="122.998" y="188.965" fill="#1B455E" width="6" height="6"/>
	<rect x="116.998" y="188.965" fill="#001B30" width="6" height="6"/>
	<rect x="116.998" y="182.965" fill="#1B455E" width="6" height="6"/>
	<rect x="164.998" y="188.965" fill="#1B455E" width="6" height="6"/>
	<rect x="170.998" y="188.965" fill="#1B455E" width="6" height="6"/>
	<rect x="176.998" y="188.965" fill="#001B30" width="6" height="6"/>
	<rect x="182.998" y="188.965" fill="#1B455E" width="6" height="6"/>
	<rect x="134.998" y="200.965" fill="#C7E1F5" width="6" height="6"/>
	<rect x="140.998" y="200.965" fill="#913844" width="6" height="6"/>
	<rect x="158.998" y="200.965" fill="#1B455E" width="6" height="6"/>
	<rect x="152.998" y="176.965" fill="#E5B29B" width="6" height="6"/>
	<rect x="152.998" y="182.965" fill="#EFD1B8" width="6" height="6"/>
	<rect x="152.998" y="194.965" fill="#C7E1F5" width="6" height="6"/>
	<rect x="152.998" y="206.965" fill="#1B455E" width="6" height="6"/>
	<rect x="152.998" y="188.965" fill="#C3D2E0" width="6" height="6"/>
	<rect x="152.998" y="200.965" fill="#C7E1F5" width="6" height="6"/>
	<rect x="146.998" y="200.965" fill="#C7E1F5" width="6" height="6"/>
	<rect x="122.998" y="200.965" fill="#1B455E" width="6" height="6"/>
	<rect x="116.998" y="200.965" fill="#1B455E" width="6" height="6"/>
	<rect x="110.998" y="194.965" fill="#1B455E" width="6" height="6"/>
	<rect x="110.998" y="188.965" fill="#1B455E" width="6" height="6"/>
	<rect x="110.998" y="206.965" fill="#1B455E" width="6" height="6"/>
	<rect x="110.998" y="200.965" fill="#1B455E" width="6" height="6"/>
	<rect x="105.002" y="206.965" fill="#1B455E" width="6" height="6"/>
	<rect x="105.002" y="200.965" fill="#1B455E" width="6" height="6"/>
	<rect x="105.002" y="194.965" fill="#1B455E" width="6" height="6"/>
	<rect x="164.998" y="200.965" fill="#001B30" width="6" height="6"/>
	<rect x="170.998" y="200.965" fill="#1B455E" width="6" height="6"/>
	<rect x="176.998" y="200.965" fill="#1B455E" width="6" height="6"/>
	<rect x="182.998" y="200.965" fill="#1B455E" width="6" height="6"/>
	<rect x="188.998" y="194.965" fill="#1B455E" width="6" height="6"/>
	<rect x="188.998" y="206.965" fill="#1B455E" width="6" height="6"/>
	<rect x="188.998" y="200.965" fill="#1B455E" width="6" height="6"/>
	<rect x="116.998" y="93.043" fill="#3E2D02" width="6" height="6"/>
	<rect x="116.998" y="105.047" fill="#414042" width="6" height="6"/>
	<rect x="110.998" y="93.043" fill="#231F20" width="6" height="6"/>
	<rect x="110.998" y="105.047" fill="#3E2D02" width="6" height="6"/>
	<rect x="122.998" y="105.047" fill="#231F20" width="6" height="6"/>
	<rect x="122.998" y="93.039" fill="#231F20" width="6" height="6"/>
	<rect x="128.998" y="105.047" fill="#58595B" width="6" height="6"/>
	<rect x="134.998" y="105.047" fill="#F7E0CF" width="6" height="6"/>
	<rect x="140.998" y="105.047" fill="#F7E0CF" width="6" height="6"/>
	<rect x="146.998" y="105.047" fill="#F7E0CF" width="6" height="6"/>
	<rect x="116.998" y="117.031" fill="#F7E0CF" width="6" height="6"/>
	<rect x="122.998" y="117.031" fill="#E5B29B" width="6" height="6"/>
	<rect x="128.998" y="117.031" fill="#E5B29B" width="6" height="6"/>
	<rect x="134.998" y="117.031" fill="#F7E0CF" width="6" height="6"/>
	<rect x="140.998" y="117.031" fill="#E5B29B" width="6" height="6"/>
	<rect x="146.998" y="117.031" fill="#231F20" width="6" height="6"/>
	<rect x="116.998" y="123.031" fill="#EFD1B8" width="6" height="6"/>
	<rect x="122.998" y="123.031" fill="#231F20" width="6" height="6"/>
	<rect x="128.998" y="123.031" fill="#231F20" width="6" height="6"/>
	<rect x="134.998" y="123.031" fill="#EFD1B8" width="6" height="6"/>
	<rect x="140.998" y="123.031" fill="#EFD1B8" width="6" height="6"/>
	<rect x="146.998" y="123.031" fill="#EFD1B8" width="6" height="6"/>
	<rect x="116.998" y="129.031" fill="#EFD1B8" width="6" height="6"/>
	<rect x="122.998" y="129.031" fill="#EFD1B8" width="6" height="6"/>
	<rect x="116.998" y="135.008" fill="#D8CBB7" width="6" height="6"/>
	<rect x="122.998" y="135.008" fill="#603913" width="6" height="6"/>
	<rect x="116.998" y="141" fill="#D8CBB7" width="6" height="6"/>
	<rect x="122.998" y="141" fill="#D8CBB7" width="6" height="6"/>
	<rect x="116.998" y="147.008" fill="#F7E0CF" width="6" height="6"/>
	<rect x="122.998" y="147.008" fill="#EFD1B8" width="6" height="6"/>
	<rect x="116.998" y="153" fill="#726658" width="6" height="6"/>
	<rect x="122.998" y="153" fill="#726658" width="6" height="6"/>
	<rect x="134.998" y="153" fill="#BAA993" width="6" height="6"/>
	<rect x="128.998" y="153" fill="#726658" width="6" height="6"/>
	<rect x="140.998" y="153" fill="#F7E0CF" width="6" height="6"/>
	<rect x="152.998" y="153" fill="#D7BFAA" width="6" height="6"/>
	<rect x="146.998" y="153" fill="#D7BFAA" width="6" height="6"/>
	<rect x="134.998" y="158.984" fill="#FFFFFF" width="6" height="6"/>
	<rect x="128.998" y="158.984" fill="#FFFFFF" width="6" height="6"/>
	<rect x="140.998" y="158.984" fill="#BB807B" width="6" height="6"/>
	<rect x="146.998" y="158.984" fill="#D7BFAA" width="6" height="6"/>
	<rect x="134.998" y="164.977" fill="#BB807B" width="6" height="6"/>
	<rect x="128.998" y="164.977" fill="#BB807B" width="6" height="6"/>
	<rect x="140.998" y="164.977" fill="#D7BFAA" width="6" height="6"/>
	<rect x="146.998" y="164.977" fill="#BAA993" width="6" height="6"/>
	<rect x="134.998" y="170.977" fill="#726658" width="6" height="6"/>
	<rect x="128.998" y="170.977" fill="#726658" width="6" height="6"/>
	<rect x="140.998" y="170.977" fill="#BAA993" width="6" height="6"/>
	<rect x="146.998" y="170.977" fill="#BAA993" width="6" height="6"/>
	<rect x="152.998" y="170.977" fill="#EFD1B8" width="6" height="6"/>
	<rect x="158.998" y="170.977" fill="#F7E0CF" width="6" height="6"/>
	<rect x="158.998" y="153" fill="#D7BFAA" width="6" height="6"/>
	<rect x="152.998" y="147.008" fill="#D7BFAA" width="6" height="6"/>
	<rect x="158.998" y="147.008" fill="#EFD1B8" width="6" height="6"/>
	<rect x="152.998" y="164.977" fill="#BAA993" width="6" height="6"/>
	<rect x="158.998" y="164.977" fill="#EFD1B8" width="6" height="6"/>
	<rect x="152.998" y="158.984" fill="#BAA993" width="6" height="6"/>
	<rect x="158.998" y="158.984" fill="#EFD1B8" width="6" height="6"/>
	<rect x="152.998" y="141" fill="#726658" width="6" height="6"/>
	<rect x="158.998" y="141" fill="#EFD1B8" width="6" height="6"/>
	<rect x="152.998" y="135.008" fill="#EFD1B8" width="6" height="6"/>
	<rect x="158.998" y="135.008" fill="#E5B29B" width="6" height="6"/>
	<rect x="164.998" y="141" fill="#EFD1B8" width="6" height="6"/>
	<rect x="164.998" y="135.008" fill="#EFD1B8" width="6" height="6"/>
	<rect x="128.998" y="129.031" fill="#EFD1B8" width="6" height="6"/>
	<rect x="134.998" y="129.031" fill="#231F20" width="6" height="6"/>
	<rect x="140.998" y="129.031" fill="#EFD1B8" width="6" height="6"/>
	<rect x="146.998" y="129.031" fill="#3E2D02" width="6" height="6"/>
	<rect x="128.998" y="135.008" fill="#FFFFFF" width="6" height="6"/>
	<rect x="134.998" y="135.008" fill="#EFD1B8" width="6" height="6"/>
	<rect x="140.998" y="135.008" fill="#EFD1B8" width="6" height="6"/>
	<rect x="146.998" y="135.008" fill="#EFD1B8" width="6" height="6"/>
	<rect x="128.998" y="141" fill="#E5B29B" width="6" height="6"/>
	<rect x="134.998" y="141" fill="#F7E0CF" width="6" height="6"/>
	<rect x="140.998" y="141" fill="#EFD1B8" width="6" height="6"/>
	<rect x="146.998" y="141" fill="#EFD1B8" width="6" height="6"/>
	<rect x="128.998" y="147" fill="#EFD1B8" width="6" height="6"/>
	<rect x="134.998" y="147" fill="#E5B29B" width="6" height="6"/>
	<rect x="140.998" y="147" fill="#F7E0CF" width="6" height="6"/>
	<rect x="146.998" y="147" fill="#EFD1B8" width="6" height="6"/>
	<rect x="152.998" y="117.031" fill="#3E2D02" width="6" height="6"/>
	<rect x="158.998" y="117.031" fill="#231F20" width="6" height="6"/>
	<rect x="116.998" y="111.047" fill="#3E2D02" width="6" height="6"/>
	<rect x="122.998" y="87.035" fill="#3E2D02" width="6" height="6"/>
	<rect x="116.998" y="87.035" fill="#231F20" width="6" height="6"/>
	<rect x="128.998" y="87.035" fill="#231F20" width="6" height="6"/>
	<rect x="134.998" y="87.035" fill="#231F20" width="6" height="6"/>
	<rect x="140.998" y="87.035" fill="#231F20" width="6" height="6"/>
	<rect x="122.998" y="111.047" fill="#F7E0CF" width="6" height="6"/>
	<rect x="128.998" y="111.047" fill="#F7E0CF" width="6" height="6"/>
	<rect x="134.998" y="111.047" fill="#F7E0CF" width="6" height="6"/>
	<rect x="140.998" y="111.047" fill="#E5B29B" width="6" height="6"/>
	<rect x="146.998" y="111.047" fill="#E5B29B" width="6" height="6"/>
	<rect x="152.998" y="111.047" fill="#231F20" width="6" height="6"/>
	<rect x="152.998" y="105.047" fill="#231F20" width="6" height="6"/>
	<rect x="158.998" y="111.047" fill="#3E2D02" width="6" height="6"/>
	<rect x="158.998" y="105.047" fill="#231F20" width="6" height="6"/>
	<rect x="158.998" y="93.039" fill="#3E2D02" width="6" height="6"/>
	<rect x="164.998" y="111.047" fill="#231F20" width="6" height="6"/>
	<rect x="164.998" y="105.047" fill="#3E2D02" width="6" height="6"/>
	<rect x="128.998" y="93.043" fill="#3E2D02" width="6" height="6"/>
	<rect x="134.998" y="93.043" fill="#231F20" width="6" height="6"/>
	<rect x="140.998" y="93.043" fill="#231F20" width="6" height="6"/>
	<rect x="146.998" y="93.043" fill="#231F20" width="6" height="6"/>
	<rect x="152.998" y="93.043" fill="#58595B" width="6" height="6"/>
	<rect x="116.998" y="99.082" fill="#231F20" width="6" height="6"/>
	<rect x="110.998" y="99.082" fill="#231F20" width="6" height="6"/>
	<rect x="122.998" y="99.078" fill="#3E2D02" width="6" height="6"/>
	<rect x="158.998" y="99.078" fill="#231F20" width="6" height="6"/>
	<rect x="128.998" y="99.082" fill="#231F20" width="6" height="6"/>
	<rect x="134.998" y="99.082" fill="#3E2D02" width="6" height="6"/>
	<rect x="140.998" y="99.082" fill="#231F20" width="6" height="6"/>
	<rect x="146.998" y="99.082" fill="#231F20" width="6" height="6"/>
	<rect x="152.998" y="99.082" fill="#3E2D02" width="6" height="6"/>
	<rect x="152.998" y="123.031" fill="#231F20" width="6" height="6"/>
	<rect x="146.998" y="123.031" fill="#231F20" width="6" height="6"/>
	<rect x="152.998" y="135.008" fill="#726658" width="6" height="6"/>
	<rect x="158.998" y="123.031" fill="#3E2D02" width="6" height="6"/>
	<rect x="152.998" y="129.031" fill="#3E2D02" width="6" height="6"/>
	<rect x="158.998" y="129.031" fill="#F7E0CF" width="6" height="6"/>
	<rect x="164.998" y="117.031" fill="#3E2D02" width="6" height="6"/>
	<rect x="164.998" y="123.031" fill="#231F20" width="6" height="6"/>
	<rect x="164.998" y="147.031" fill="#3E2D02" width="6" height="6"/>
	<rect x="164.998" y="153.031" fill="#726658" width="6" height="6"/>
	<rect x="164.998" y="129.031" fill="#F7E0CF" width="6" height="6"/>
	<rect x="170.998" y="135.008" fill="#EFD1B8" width="6" height="6"/>
	<rect x="170.998" y="129.031" fill="#F7E0CF" width="6" height="6"/>
	<rect x="110.998" y="146.98" fill="#EFD1B8" width="6" height="6"/>
	<rect x="105.002" y="146.98" fill="#EFD1B8" width="5.996" height="6"/>
	<rect x="110.998" y="140.98" fill="#EFD1B8" width="6" height="6"/>
	<rect x="110.998" y="135.008" fill="#EFD1B8" width="6" height="6"/>
</g>
</svg>
