<?xml version="1.0" encoding="utf-8"?>
<!-- Generator: Adobe Illustrator 16.0.0, SVG Export Plug-In . SVG Version: 6.00 Build 0)  -->
<!DOCTYPE svg PUBLIC "-//W3C//DTD SVG 1.1//EN" "http://www.w3.org/Graphics/SVG/1.1/DTD/svg11.dtd">
<svg version="1.1" id="Layer_1" xmlns="http://www.w3.org/2000/svg" xmlns:xlink="http://www.w3.org/1999/xlink" x="0px" y="0px"
	 width="300px" height="300px" viewBox="0 0 300 300" enable-background="new 0 0 300 300" xml:space="preserve">
<g>
	<rect x="168" y="170.938" fill="#323133" width="6" height="6"/>
	<rect x="162" y="170.938" fill="#323133" width="6" height="6"/>
	<rect x="132" y="176.938" fill="#ECEEEE" width="6" height="6"/>
	<rect x="126" y="176.938" fill="#323133" width="6" height="6"/>
	<rect x="132" y="170.969" fill="#323133" width="6" height="6"/>
	<rect x="162" y="176.938" fill="#ECEEEE" width="6" height="6"/>
	<rect x="168" y="176.938" fill="#323133" width="6" height="6"/>
	<rect x="174" y="176.938" fill="#323133" width="6" height="6"/>
	<rect x="138" y="188.938" fill="#FFFFFF" width="6" height="6"/>
	<rect x="144" y="188.938" fill="#FFFFFF" width="6" height="6"/>
	<rect x="150" y="188.938" fill="#FFFFFF" width="6" height="6"/>
	<rect x="156" y="188.938" fill="#FFFFFF" width="6" height="6"/>
	<rect x="132" y="188.938" fill="#323133" width="6" height="6"/>
	<rect x="132" y="194.938" fill="#231F20" width="6" height="6"/>
	<rect x="126" y="188.938" fill="#323133" width="6" height="6"/>
	<rect x="120" y="188.938" fill="#464749" width="6" height="6"/>
	<rect x="162" y="188.938" fill="#323133" width="6" height="6"/>
	<rect x="168" y="188.938" fill="#464749" width="6" height="6"/>
	<rect x="174" y="188.938" fill="#323133" width="6" height="6"/>
	<rect x="180" y="188.938" fill="#323133" width="6" height="6"/>
	<rect x="138" y="200.938" fill="#323133" width="6" height="6"/>
	<rect x="144" y="200.938" fill="#ECEEEE" width="6" height="6"/>
	<rect x="156" y="200.938" fill="#323133" width="6" height="6"/>
	<rect x="150" y="200.938" fill="#ECEEEE" width="6" height="6"/>
	<rect x="132" y="200.938" fill="#464749" width="6" height="6"/>
	<rect x="126" y="200.938" fill="#323133" width="6" height="6"/>
	<rect x="120" y="200.938" fill="#323133" width="6" height="6"/>
	<rect x="162" y="200.938" fill="#464749" width="6" height="6"/>
	<rect x="168" y="200.938" fill="#323133" width="6" height="6"/>
	<rect x="174" y="200.938" fill="#323133" width="6" height="6"/>
	<rect x="180" y="200.938" fill="#231F20" width="6" height="6"/>
	<rect x="132" y="182.938" fill="#ECEEEE" width="6" height="6"/>
	<rect x="126" y="182.938" fill="#323133" width="6" height="6"/>
	<rect x="120" y="182.938" fill="#323133" width="6" height="6"/>
	<rect x="162" y="182.938" fill="#ECEEEE" width="6" height="6"/>
	<rect x="168" y="182.938" fill="#323133" width="6" height="6"/>
	<rect x="174" y="182.938" fill="#464749" width="6" height="6"/>
	<rect x="180" y="182.938" fill="#323133" width="6" height="6"/>
	<rect x="138" y="194.938" fill="#323133" width="6" height="6"/>
	<rect x="144" y="194.938" fill="#FFFFFF" width="6" height="6"/>
	<rect x="156" y="194.938" fill="#323133" width="6" height="6"/>
	<rect x="150" y="194.938" fill="#FFFFFF" width="6" height="6"/>
	<rect x="132" y="194.938" fill="#323133" width="6" height="6"/>
	<rect x="126" y="194.938" fill="#464749" width="6" height="6"/>
	<rect x="120" y="194.938" fill="#323133" width="6" height="6"/>
	<rect x="114" y="188.938" fill="#323133" width="6" height="6"/>
	<rect x="114" y="182.938" fill="#464749" width="6" height="6"/>
	<rect x="114" y="200.938" fill="#231F20" width="6" height="6"/>
	<rect x="114" y="194.938" fill="#323133" width="6" height="6"/>
	<rect x="108" y="188.938" fill="#323133" width="6" height="6"/>
	<rect x="108" y="200.938" fill="#323133" width="6" height="6"/>
	<rect x="108" y="194.938" fill="#323133" width="6" height="6"/>
	<rect x="162" y="194.938" fill="#464749" width="6" height="6"/>
	<rect x="168" y="194.938" fill="#323133" width="6" height="6"/>
	<rect x="174" y="194.938" fill="#323133" width="6" height="6"/>
	<rect x="180" y="194.938" fill="#323133" width="6" height="6"/>
	<rect x="186" y="188.938" fill="#323133" width="6" height="6"/>
	<rect x="186" y="200.938" fill="#323133" width="6" height="6"/>
	<rect x="186" y="194.938" fill="#323133" width="6" height="6"/>
	<rect x="126" y="93.062" fill="#808285" width="6" height="6"/>
	<rect x="132" y="93.062" fill="#AFAFA2" width="6" height="6"/>
	<rect x="138" y="93.062" fill="#726658" width="6" height="6"/>
	<rect x="144" y="93.062" fill="#808285" width="6" height="6"/>
	<rect x="120" y="105.055" fill="#594A42" width="6" height="6"/>
	<rect x="126" y="105.055" fill="#594A42" width="6" height="6"/>
	<rect x="132" y="105.055" fill="#D8CFB1" width="6" height="6"/>
	<rect x="138" y="105.055" fill="#AFAFA2" width="6" height="6"/>
	<rect x="144" y="105.055" fill="#DFE0E1" width="6" height="6"/>
	<rect x="150" y="105.055" fill="#DFE0E1" width="6" height="6"/>
	<rect x="120" y="111.055" fill="#F3D9D0" width="6" height="6"/>
	<rect x="114" y="111.055" fill="#AFAFA2" width="6" height="6"/>
	<rect x="114" y="105.055" fill="#DFE0E1" width="6" height="6"/>
	<rect x="126" y="111.055" fill="#D8CFB1" width="6" height="6"/>
	<rect x="132" y="111.055" fill="#EFD1B8" width="6" height="6"/>
	<rect x="138" y="111.055" fill="#726658" width="6" height="6"/>
	<rect x="144" y="111.055" fill="#AFAFA2" width="6" height="6"/>
	<rect x="150" y="111.055" fill="#AFAFA2" width="6" height="6"/>
	<rect x="120" y="117.055" fill="#EFCFC0" width="6" height="6"/>
	<rect x="126" y="117.055" fill="#EFCFC0" width="6" height="6"/>
	<rect x="120" y="123.031" fill="#F3D9D0" width="6" height="6"/>
	<rect x="126" y="123.031" fill="#98937E" width="6" height="6"/>
	<rect x="120" y="134.992" fill="#43251B" width="6" height="6"/>
	<rect x="126" y="134.992" fill="#7D7967" width="6" height="6"/>
	<rect x="120" y="141" fill="#EFD1B8" width="6" height="6"/>
	<rect x="126" y="141" fill="#43251B" width="6" height="6"/>
	<rect x="120" y="146.992" fill="#EFD1B8" width="6" height="6"/>
	<rect x="114" y="141.016" fill="#EFD1B8" width="6" height="6"/>
	<rect x="108" y="141.016" fill="#EFD1B8" width="6" height="6"/>
	<rect x="114" y="135.016" fill="#EFCFC0" width="6" height="6"/>
	<rect x="126" y="146.992" fill="#EFD1B8" width="6" height="6"/>
	<rect x="138" y="146.992" fill="#F3D9D0" width="6" height="6"/>
	<rect x="132" y="146.992" fill="#EFD1B8" width="6" height="6"/>
	<rect x="144" y="146.992" fill="#F3D9D0" width="6" height="6"/>
	<rect x="156" y="146.992" fill="#EFD1B8" width="6" height="6"/>
	<rect x="150" y="146.992" fill="#EFCFC0" width="6" height="6"/>
	<rect x="138" y="152.977" fill="#FFFFFF" width="6" height="6"/>
	<rect x="132" y="152.977" fill="#FFFFFF" width="6" height="6"/>
	<rect x="144" y="152.977" fill="#BB807B" width="6" height="6"/>
	<rect x="150" y="152.977" fill="#EFD1B8" width="6" height="6"/>
	<rect x="138" y="158.969" fill="#D28F8C" width="6" height="6"/>
	<rect x="132" y="158.969" fill="#D28F8C" width="6" height="6"/>
	<rect x="144" y="158.969" fill="#EFCFC0" width="6" height="6"/>
	<rect x="150" y="158.969" fill="#EFD1B8" width="6" height="6"/>
	<rect x="138" y="164.969" fill="#EFD1B8" width="6" height="6"/>
	<rect x="132" y="164.969" fill="#EFD1B8" width="6" height="6"/>
	<rect x="144" y="164.969" fill="#EFD1B8" width="6" height="6"/>
	<rect x="138" y="170.969" fill="#D7BFAA" width="6" height="6"/>
	<rect x="144" y="170.969" fill="#D7BFAA" width="6" height="6"/>
	<rect x="138" y="182.938" fill="#FFFFFF" width="6" height="6"/>
	<rect x="144" y="182.938" fill="#EFD1B8" width="6" height="6"/>
	<rect x="150" y="170.969" fill="#EFD1B8" width="6" height="6"/>
	<rect x="138" y="176.938" fill="#D7BFAA" width="6" height="6"/>
	<rect x="144" y="176.938" fill="#EFD1B8" width="6" height="6"/>
	<rect x="150" y="176.938" fill="#EFD1B8" width="6" height="6"/>
	<rect x="150" y="164.969" fill="#EFD1B8" width="6" height="6"/>
	<rect x="156" y="164.969" fill="#D7BFAA" width="6" height="6"/>
	<rect x="156" y="170.969" fill="#EFD1B8" width="6" height="6"/>
	<rect x="156" y="176.938" fill="#EFD1B8" width="6" height="6"/>
	<rect x="156" y="182.938" fill="#FFFFFF" width="6" height="6"/>
	<rect x="150" y="182.938" fill="#EFD1B8" width="6" height="6"/>
	<rect x="162" y="146.992" fill="#EFD1B8" width="6" height="6"/>
	<rect x="156" y="141" fill="#DFE0E1" width="6" height="6"/>
	<rect x="162" y="141" fill="#EFD1B8" width="6" height="6"/>
	<rect x="156" y="158.969" fill="#EFD1B8" width="6" height="6"/>
	<rect x="162" y="158.969" fill="#EFD1B8" width="6" height="6"/>
	<rect x="156" y="152.977" fill="#EFCFC0" width="6" height="6"/>
	<rect x="162" y="152.977" fill="#EFD1B8" width="6" height="6"/>
	<rect x="156" y="134.992" fill="#939598" width="6" height="6"/>
	<rect x="162" y="134.992" fill="#EFD1B8" width="6" height="6"/>
	<rect x="156" y="123.031" fill="#ECEEEE" width="6" height="6"/>
	<rect x="162" y="123.031" fill="#AFAFA2" width="6" height="6"/>
	<rect x="168" y="134.992" fill="#EFD1B8" width="6" height="6"/>
	<rect x="168" y="129" fill="#EFD1B8" width="6" height="6"/>
	<rect x="132" y="117.055" fill="#EFD1B8" width="6" height="6"/>
	<rect x="138" y="117.055" fill="#ECEEEE" width="6" height="6"/>
	<rect x="144" y="117.055" fill="#FFFFFF" width="6" height="6"/>
	<rect x="150" y="117.055" fill="#DFE0E1" width="6" height="6"/>
	<rect x="132" y="123.031" fill="#D8CFB1" width="6" height="6"/>
	<rect x="138" y="123.031" fill="#EFD1B8" width="6" height="6"/>
	<rect x="144" y="123.031" fill="#ECEEEE" width="6" height="6"/>
	<rect x="150" y="123.031" fill="#FFFFFF" width="6" height="6"/>
	<rect x="120" y="129" fill="#43251B" width="6" height="6"/>
	<rect x="126" y="129" fill="#43251B" width="6" height="6"/>
	<rect x="156" y="129" fill="#DFE0E1" width="6" height="6"/>
	<rect x="162" y="129" fill="#EFCFC0" width="6" height="6"/>
	<rect x="132" y="129" fill="#43251B" width="6" height="6"/>
	<rect x="138" y="129" fill="#43251B" width="6" height="6"/>
	<rect x="144" y="129" fill="#43251B" width="6" height="6"/>
	<rect x="150" y="129" fill="#43251B" width="6" height="6"/>
	<rect x="132" y="134.992" fill="#FFFFFF" width="6" height="6"/>
	<rect x="138" y="134.992" fill="#43251B" width="6" height="6"/>
	<rect x="144" y="134.992" fill="#EFD1B8" width="6" height="6"/>
	<rect x="150" y="134.992" fill="#F3D9D0" width="6" height="6"/>
	<rect x="132" y="140.992" fill="#43251B" width="6" height="6"/>
	<rect x="138" y="140.992" fill="#EFCFC0" width="6" height="6"/>
	<rect x="144" y="140.992" fill="#EFD1B8" width="6" height="6"/>
	<rect x="150" y="140.992" fill="#EFD1B8" width="6" height="6"/>
	<rect x="156" y="105.055" fill="#726658" width="6" height="6"/>
	<rect x="162" y="105.055" fill="#D8CFB1" width="6" height="6"/>
	<rect x="120" y="99.062" fill="#DFE0E1" width="6" height="6"/>
	<rect x="126" y="99.062" fill="#AFAFA2" width="6" height="6"/>
	<rect x="132" y="99.062" fill="#808285" width="6" height="6"/>
	<rect x="138" y="99.062" fill="#D8CFB1" width="6" height="6"/>
	<rect x="144" y="99.062" fill="#D8CFB1" width="6" height="6"/>
	<rect x="150" y="99.062" fill="#808285" width="6" height="6"/>
	<rect x="156" y="99.062" fill="#DFE0E1" width="6" height="6"/>
	<rect x="150" y="93.062" fill="#DFE0E1" width="6" height="6"/>
	<rect x="156" y="93.062" fill="#726658" width="6" height="6"/>
	<rect x="162" y="99.062" fill="#808285" width="6" height="6"/>
	<rect x="168" y="105.055" fill="#808285" width="6" height="6"/>
	<rect x="168" y="99.062" fill="#D8CFB1" width="6" height="6"/>
	<rect x="156" y="111.055" fill="#DFE0E1" width="6" height="6"/>
	<rect x="162" y="111.055" fill="#FFFFFF" width="6" height="6"/>
	<rect x="156" y="117.055" fill="#AFAFA2" width="6" height="6"/>
	<rect x="162" y="117.055" fill="#ECEEEE" width="6" height="6"/>
	<rect x="168" y="123.031" fill="#EFD1B8" width="6" height="6"/>
	<rect x="168" y="111.055" fill="#D8CFB1" width="6" height="6"/>
	<rect x="174" y="105.055" fill="#D8CFB1" width="6" height="6"/>
	<rect x="174" y="111.055" fill="#726658" width="6" height="6"/>
	<rect x="168" y="117.055" fill="#ECEEEE" width="6" height="6"/>
	<rect x="174" y="135.016" fill="#AFAFA2" width="6" height="6"/>
	<rect x="174" y="129.039" fill="#DFE0E1" width="6" height="6"/>
	<rect x="174" y="123.047" fill="#AFAFA2" width="6" height="6"/>
	<rect x="174" y="117.047" fill="#594A42" width="6" height="6"/>
	<rect x="168" y="146.977" fill="#C6C8C9" width="6" height="6"/>
	<rect x="168" y="152.984" fill="#594A42" width="6" height="6"/>
	<rect x="174" y="152.984" fill="#ECEEEE" width="6" height="6"/>
	<rect x="168.008" y="158.977" fill="#C6C8C9" width="6" height="6"/>
	<rect x="174" y="141.008" fill="#C6C8C9" width="6" height="6"/>
	<rect x="168" y="141" fill="#98937E" width="6" height="6"/>
</g>
</svg>
