<?xml version="1.0" encoding="utf-8"?>
<!-- Generator: Adobe Illustrator 16.0.0, SVG Export Plug-In . SVG Version: 6.00 Build 0)  -->
<!DOCTYPE svg PUBLIC "-//W3C//DTD SVG 1.1//EN" "http://www.w3.org/Graphics/SVG/1.1/DTD/svg11.dtd">
<svg version="1.1" id="Layer_1" xmlns="http://www.w3.org/2000/svg" xmlns:xlink="http://www.w3.org/1999/xlink" x="0px" y="0px"
	 width="300px" height="300px" viewBox="0 0 300 300" enable-background="new 0 0 300 300" xml:space="preserve">
<g>
	<rect x="138" y="185.949" fill="#DCB397" width="6" height="6"/>
	<rect x="143.969" y="185.918" fill="#DCB397" width="6" height="6"/>
	<rect x="150" y="185.949" fill="#DCB397" width="6" height="6"/>
	<rect x="156" y="185.934" fill="#939598" width="6" height="6"/>
	<rect x="132" y="185.934" fill="#939598" width="6" height="6"/>
	<rect x="156" y="179.934" fill="#8AA7BC" width="6" height="6"/>
	<rect x="162" y="179.934" fill="#334D6B" width="6" height="6"/>
	<rect x="168" y="179.934" fill="#939598" width="6" height="6"/>
	<rect x="132" y="179.934" fill="#8AA7BC" width="6" height="6"/>
	<rect x="126" y="179.934" fill="#334D6B" width="6" height="6"/>
	<rect x="120" y="179.934" fill="#8AA7BC" width="6" height="6"/>
	<rect x="126" y="185.934" fill="#8AA7BC" width="6" height="6"/>
	<rect x="162" y="185.934" fill="#DFE0E1" width="6" height="6"/>
	<rect x="138" y="197.934" fill="#939598" width="6" height="6"/>
	<rect x="144" y="197.934" fill="#DCB397" width="6" height="6"/>
	<rect x="156" y="197.934" fill="#334D6B" width="6" height="6"/>
	<rect x="150" y="197.934" fill="#939598" width="6" height="6"/>
	<rect x="132" y="197.934" fill="#334D6B" width="6" height="6"/>
	<rect x="126" y="197.934" fill="#8AA7BC" width="6" height="6"/>
	<rect x="120" y="197.934" fill="#939598" width="6" height="6"/>
	<rect x="162" y="197.934" fill="#DFE0E1" width="6" height="6"/>
	<rect x="168" y="197.934" fill="#8AA7BC" width="6" height="6"/>
	<rect x="174" y="197.934" fill="#8AA7BC" width="6" height="6"/>
	<rect x="180" y="197.934" fill="#334D6B" width="6" height="6"/>
	<rect x="138" y="209.934" fill="#8AA7BC" width="6" height="6"/>
	<rect x="144" y="209.934" fill="#939598" width="6" height="6"/>
	<rect x="156" y="209.934" fill="#8AA7BC" width="6" height="6"/>
	<rect x="150" y="209.934" fill="#334D6B" width="6" height="6"/>
	<rect x="132" y="209.934" fill="#334D6B" width="6" height="6"/>
	<rect x="126" y="209.934" fill="#8AA7BC" width="6" height="6"/>
	<rect x="120" y="209.934" fill="#939598" width="6" height="6"/>
	<rect x="162" y="209.934" fill="#334D6B" width="6" height="6"/>
	<rect x="168" y="209.934" fill="#8AA7BC" width="6" height="6"/>
	<rect x="174" y="209.934" fill="#8AA7BC" width="6" height="6"/>
	<rect x="180" y="209.934" fill="#334D6B" width="6" height="6"/>
	<rect x="138" y="191.934" fill="#334D6B" width="6" height="6"/>
	<rect x="144" y="191.934" fill="#DCB397" width="6" height="6"/>
	<rect x="156" y="191.934" fill="#8AA7BC" width="6" height="6"/>
	<rect x="150" y="191.934" fill="#334D6B" width="6" height="6"/>
	<rect x="132" y="191.934" fill="#8AA7BC" width="6" height="6"/>
	<rect x="126" y="191.934" fill="#DFE0E1" width="6" height="6"/>
	<rect x="120" y="191.934" fill="#8AA7BC" width="6" height="6"/>
	<rect x="162" y="191.934" fill="#334D6B" width="6" height="6"/>
	<rect x="168" y="191.934" fill="#939598" width="6" height="6"/>
	<rect x="174" y="191.934" fill="#DFE0E1" width="6" height="6"/>
	<rect x="138" y="203.934" fill="#334D6B" width="6" height="6"/>
	<rect x="144" y="203.934" fill="#DFE0E1" width="6" height="6"/>
	<rect x="156" y="203.934" fill="#DFE0E1" width="6" height="6"/>
	<rect x="150" y="203.934" fill="#8AA7BC" width="6" height="6"/>
	<rect x="132" y="203.934" fill="#DFE0E1" width="6" height="6"/>
	<rect x="126" y="203.934" fill="#334D6B" width="6" height="6"/>
	<rect x="120" y="203.934" fill="#DFE0E1" width="6" height="6"/>
	<rect x="114" y="197.934" fill="#334D6B" width="6" height="6"/>
	<rect x="114" y="209.934" fill="#334D6B" width="6" height="6"/>
	<rect x="114" y="203.934" fill="#8AA7BC" width="6" height="6"/>
	<rect x="162" y="203.934" fill="#8AA7BC" width="6" height="6"/>
	<rect x="168" y="203.934" fill="#334D6B" width="6" height="6"/>
	<rect x="174" y="203.934" fill="#DFE0E1" width="6" height="6"/>
	<rect x="180" y="203.934" fill="#939598" width="6" height="6"/>
	<rect x="120" y="102.066" fill="#231F20" width="6" height="6"/>
	<rect x="126" y="102.066" fill="#231F20" width="6" height="6"/>
	<rect x="132" y="102.066" fill="#3E2D02" width="6" height="6"/>
	<rect x="144" y="102.066" fill="#231F20" width="6" height="6"/>
	<rect x="120" y="114.051" fill="#ECD4BA" width="6" height="6"/>
	<rect x="126" y="114.051" fill="#E7C5A2" width="6" height="6"/>
	<rect x="132" y="114.051" fill="#E7C5A2" width="6" height="6"/>
	<rect x="138" y="114.051" fill="#E7C5A2" width="6" height="6"/>
	<rect x="144" y="114.051" fill="#E7C5A2" width="6" height="6"/>
	<rect x="150" y="114.051" fill="#E7C5A2" width="6" height="6"/>
	<rect x="120" y="120.051" fill="#ECD4BA" width="6" height="6"/>
	<rect x="126" y="120.051" fill="#ECD4BA" width="6" height="6"/>
	<rect x="120" y="126.027" fill="#ECD4BA" width="6" height="6"/>
	<rect x="126" y="126.027" fill="#414042" width="6" height="6"/>
	<rect x="120" y="137.988" fill="#E7C5A2" width="6" height="6"/>
	<rect x="126" y="137.988" fill="#3B2314" width="6" height="6"/>
	<rect x="120" y="144.004" fill="#E7C5A2" width="6" height="6"/>
	<rect x="126" y="144.004" fill="#ECD4BA" width="6" height="6"/>
	<rect x="120" y="149.988" fill="#726658" width="6" height="6"/>
	<rect x="114" y="144.004" fill="#E7C5A2" width="6" height="6"/>
	<rect x="126" y="149.988" fill="#AE9D85" width="6" height="6"/>
	<rect x="138" y="149.988" fill="#E7C5A2" width="6" height="6"/>
	<rect x="132" y="149.988" fill="#BAA993" width="6" height="6"/>
	<rect x="144" y="149.988" fill="#ECD4BA" width="6" height="6"/>
	<rect x="156" y="149.988" fill="#E7C5A2" width="6" height="6"/>
	<rect x="150" y="149.988" fill="#C79C89" width="6" height="6"/>
	<rect x="138" y="155.98" fill="#FFFFFF" width="6" height="6"/>
	<rect x="132" y="155.98" fill="#FFFFFF" width="6" height="6"/>
	<rect x="144" y="155.98" fill="#FFFFFF" width="6" height="6"/>
	<rect x="150" y="155.98" fill="#AD6D67" width="6" height="6"/>
	<rect x="138" y="161.965" fill="#C97D7A" width="6" height="6"/>
	<rect x="132" y="161.965" fill="#C97D7A" width="6" height="6"/>
	<rect x="144" y="161.965" fill="#AD6D67" width="6" height="6"/>
	<rect x="150" y="161.965" fill="#D7BFAA" width="6" height="6"/>
	<rect x="138" y="167.965" fill="#AE9D85" width="6" height="6"/>
	<rect x="132" y="167.965" fill="#726658" width="6" height="6"/>
	<rect x="144" y="167.965" fill="#D7BFAA" width="6" height="6"/>
	<rect x="138" y="173.965" fill="#EFC8A6" width="6" height="6"/>
	<rect x="144" y="173.965" fill="#EFC8A6" width="6" height="6"/>
	<rect x="150" y="173.965" fill="#EFC8A6" width="6" height="6"/>
	<rect x="138" y="179.934" fill="#C79C89" width="6" height="6"/>
	<rect x="144" y="179.934" fill="#E7C5A2" width="6" height="6"/>
	<rect x="150" y="179.934" fill="#E7C5A2" width="6" height="6"/>
	<rect x="150" y="167.965" fill="#BAA993" width="6" height="6"/>
	<rect x="162" y="149.988" fill="#BAA993" width="6" height="6"/>
	<rect x="156" y="144.004" fill="#E7C5A2" width="6" height="6"/>
	<rect x="162" y="144.004" fill="#BAA993" width="6" height="6"/>
	<rect x="156" y="161.965" fill="#BAA993" width="6" height="6"/>
	<rect x="156" y="155.98" fill="#D7BFAA" width="6" height="6"/>
	<rect x="162" y="155.98" fill="#BAA993" width="6" height="6"/>
	<rect x="156" y="167.965" fill="#AE9D85" width="6" height="6"/>
	<rect x="162" y="161.973" fill="#AE9D85" width="6" height="6"/>
	<rect x="156" y="137.988" fill="#E7C5A2" width="6" height="6"/>
	<rect x="162" y="137.988" fill="#231F20" width="6" height="6"/>
	<rect x="156" y="126.027" fill="#231F20" width="6" height="6"/>
	<rect x="162" y="126.027" fill="#3E2D02" width="6" height="6"/>
	<rect x="168" y="137.988" fill="#C79C89" width="6" height="6"/>
	<rect x="168" y="132.004" fill="#E7C5A2" width="6" height="6"/>
	<rect x="132" y="120.051" fill="#ECD4BA" width="6" height="6"/>
	<rect x="138" y="120.051" fill="#E7C5A2" width="6" height="6"/>
	<rect x="144" y="120.051" fill="#E7C5A2" width="6" height="6"/>
	<rect x="150" y="120.051" fill="#E7C5A2" width="6" height="6"/>
	<rect x="132" y="126.027" fill="#414042" width="6" height="6"/>
	<rect x="138" y="126.027" fill="#ECD4BA" width="6" height="6"/>
	<rect x="144" y="126.027" fill="#E7C5A2" width="6" height="6"/>
	<rect x="150" y="126.027" fill="#E7C5A2" width="6" height="6"/>
	<rect x="120" y="132.004" fill="#E7C5A2" width="6" height="6"/>
	<rect x="126" y="132.004" fill="#E7C5A2" width="6" height="6"/>
	<rect x="156" y="132.004" fill="#E7C5A2" width="6" height="6"/>
	<rect x="162" y="132.004" fill="#231F20" width="6" height="6"/>
	<rect x="132" y="132.004" fill="#E7C5A2" width="6" height="6"/>
	<rect x="138" y="132.004" fill="#414042" width="6" height="6"/>
	<rect x="144" y="132.004" fill="#E7C5A2" width="6" height="6"/>
	<rect x="150" y="132.004" fill="#E7C5A2" width="6" height="6"/>
	<rect x="132" y="137.988" fill="#FFFFFF" width="6" height="6"/>
	<rect x="138" y="137.988" fill="#E7C5A2" width="6" height="6"/>
	<rect x="144" y="137.988" fill="#E7C5A2" width="6" height="6"/>
	<rect x="150" y="137.988" fill="#E7C5A2" width="6" height="6"/>
	<rect x="132" y="143.988" fill="#E7C5A2" width="6" height="6"/>
	<rect x="138" y="143.988" fill="#ECD4BA" width="6" height="6"/>
	<rect x="144" y="143.988" fill="#C79C89" width="6" height="6"/>
	<rect x="150" y="143.988" fill="#E7C5A2" width="6" height="6"/>
	<rect x="120" y="108.066" fill="#E7C5A2" width="6" height="6"/>
	<rect x="126" y="108.066" fill="#E7C5A2" width="6" height="6"/>
	<rect x="132" y="108.066" fill="#E7C5A2" width="6" height="6"/>
	<rect x="138" y="108.066" fill="#E7C5A2" width="6" height="6"/>
	<rect x="144" y="108.066" fill="#E7C5A2" width="6" height="6"/>
	<rect x="150" y="108.066" fill="#231F20" width="6" height="6"/>
	<rect x="156" y="108.066" fill="#3E2D02" width="6" height="6"/>
	<rect x="150" y="102.066" fill="#231F20" width="6" height="6"/>
	<rect x="156" y="102.066" fill="#3E2D02" width="6" height="6"/>
	<rect x="126" y="90.066" fill="#231F20" width="6" height="6"/>
	<rect x="132" y="90.066" fill="#3E2D02" width="6" height="6"/>
	<rect x="132" y="84.066" fill="#754C29" width="6" height="6"/>
	<rect x="144" y="90.066" fill="#3E2D02" width="6" height="6"/>
	<rect x="138" y="102.066" fill="#231F20" width="6" height="6"/>
	<rect x="138" y="90.066" fill="#231F20" width="6" height="6"/>
	<rect x="150" y="90.066" fill="#231F20" width="6" height="6"/>
	<rect x="150" y="84.066" fill="#754C29" width="6" height="6"/>
	<rect x="156" y="90.066" fill="#231F20" width="6" height="6"/>
	<rect x="162" y="108.066" fill="#231F20" width="6" height="6"/>
	<rect x="162" y="102.066" fill="#231F20" width="6" height="6"/>
	<rect x="162" y="90.066" fill="#3E2D02" width="6" height="6"/>
	<rect x="168" y="108.066" fill="#231F20" width="6" height="6"/>
	<rect x="168" y="102.066" fill="#3E2D02" width="6" height="6"/>
	<rect x="156" y="114.051" fill="#3E2D02" width="6" height="6"/>
	<rect x="162" y="114.051" fill="#3E2D02" width="6" height="6"/>
	<rect x="156" y="120.051" fill="#3E2D02" width="6" height="6"/>
	<rect x="162" y="120.051" fill="#231F20" width="6" height="6"/>
	<rect x="168" y="126.027" fill="#231F20" width="6" height="6"/>
	<rect x="168" y="114.051" fill="#231F20" width="6" height="6"/>
	<rect x="174" y="114.051" fill="#231F20" width="6" height="6"/>
	<rect x="174" y="102.066" fill="#231F20" width="6" height="6"/>
	<rect x="120" y="96.066" fill="#754C29" width="6" height="6"/>
	<rect x="126" y="96.066" fill="#231F20" width="6" height="6"/>
	<rect x="132" y="96.066" fill="#754C29" width="6" height="6"/>
	<rect x="144" y="96.066" fill="#3E2D02" width="6" height="6"/>
	<rect x="150" y="96.066" fill="#231F20" width="6" height="6"/>
	<rect x="156" y="96.066" fill="#754C29" width="6" height="6"/>
	<rect x="138" y="96.066" fill="#231F20" width="6" height="6"/>
	<rect x="162" y="96.066" fill="#231F20" width="6" height="6"/>
	<rect x="168" y="96.066" fill="#231F20" width="6" height="6"/>
	<rect x="174" y="96.066" fill="#754C29" width="6" height="6"/>
	<rect x="174" y="108.066" fill="#754C29" width="6" height="6"/>
	<rect x="180" y="114.051" fill="#231F20" width="6" height="6"/>
	<rect x="180" y="108.066" fill="#231F20" width="6" height="6"/>
	<rect x="168" y="120.051" fill="#231F20" width="6" height="6"/>
	<rect x="174" y="138.02" fill="#E7C5A2" width="6" height="6"/>
	<rect x="174" y="132.043" fill="#ECD4BA" width="6" height="6"/>
	<rect x="174" y="126.051" fill="#231F20" width="6" height="6"/>
	<rect x="174" y="120.051" fill="#3E2D02" width="6" height="6"/>
	<rect x="180" y="120.051" fill="#231F20" width="6" height="6"/>
	<rect x="180" y="126.027" fill="#231F20" width="6" height="6"/>
	<rect x="180" y="132.051" fill="#3E2D02" width="6" height="6"/>
	<rect x="180" y="138.027" fill="#231F20" width="6" height="6"/>
	<rect x="168" y="149.98" fill="#95989B" width="6" height="6"/>
	<rect x="174" y="144.004" fill="#E7C5A2" width="6" height="6"/>
	<rect x="168" y="144.004" fill="#E7C5A2" width="6" height="6"/>
</g>
</svg>
