<?xml version="1.0" encoding="utf-8"?>
<!-- Generator: Adobe Illustrator 16.0.0, SVG Export Plug-In . SVG Version: 6.00 Build 0)  -->
<!DOCTYPE svg PUBLIC "-//W3C//DTD SVG 1.1//EN" "http://www.w3.org/Graphics/SVG/1.1/DTD/svg11.dtd">
<svg version="1.1" id="Layer_1" xmlns="http://www.w3.org/2000/svg" xmlns:xlink="http://www.w3.org/1999/xlink" x="0px" y="0px"
	 width="300px" height="300px" viewBox="0 0 300 300" enable-background="new 0 0 300 300" xml:space="preserve">
<g>
	<rect x="138.002" y="176.977" fill="#EFD1B8" width="6" height="6"/>
	<rect x="144.002" y="176.977" fill="#EFD1B8" width="6" height="6"/>
	<rect x="150.002" y="176.977" fill="#EFD1B8" width="6" height="6"/>
	<rect x="138.002" y="182.945" fill="#FFFFFF" width="6" height="6"/>
	<rect x="144.002" y="182.945" fill="#EFD1B8" width="6" height="6"/>
	<rect x="150.002" y="182.945" fill="#EFD1B8" width="6" height="6"/>
	<rect x="155.998" y="176.977" fill="#EFD1B8" width="6" height="6"/>
	<rect x="155.998" y="182.945" fill="#EFD1B8" width="6" height="6"/>
	<rect x="132.002" y="182.961" fill="#1A1818" width="6" height="6"/>
	<rect x="126.002" y="182.961" fill="#BE1E2D" width="6" height="6"/>
	<rect x="132.002" y="176.977" fill="#1A1818" width="6" height="6"/>
	<rect x="168.002" y="182.961" fill="#1A1818" width="6" height="6"/>
	<rect x="168.002" y="176.945" fill="#1A1818" width="6" height="6"/>
	<rect x="138.002" y="194.961" fill="#BE1E2D" width="6" height="6"/>
	<rect x="144.002" y="194.961" fill="#1A1818" width="6" height="6"/>
	<rect x="156.002" y="194.961" fill="#1A1818" width="6" height="6"/>
	<rect x="150.002" y="194.961" fill="#1A1818" width="6" height="6"/>
	<rect x="132.002" y="194.961" fill="#BE1E2D" width="6" height="6"/>
	<rect x="126.002" y="194.961" fill="#913844" width="6" height="6"/>
	<rect x="120.002" y="194.961" fill="#BE1E2D" width="6" height="6"/>
	<rect x="168.002" y="194.961" fill="#BE1E2D" width="6" height="6"/>
	<rect x="174.002" y="194.961" fill="#BE1E2D" width="6" height="6"/>
	<rect x="180.002" y="194.961" fill="#BE1E2D" width="6" height="6"/>
	<rect x="186.002" y="194.961" fill="#BE1E2D" width="6" height="6"/>
	<rect x="138.002" y="206.961" fill="#BE1E2D" width="6" height="6"/>
	<rect x="144.002" y="206.961" fill="#C7919B" width="6" height="6"/>
	<rect x="156.002" y="206.961" fill="#C7919B" width="6" height="6"/>
	<rect x="150.002" y="206.961" fill="#BE1E2D" width="6" height="6"/>
	<rect x="132.002" y="206.961" fill="#C7919B" width="6" height="6"/>
	<rect x="126.002" y="206.961" fill="#BE1E2D" width="6" height="6"/>
	<rect x="120.002" y="206.961" fill="#1A1818" width="6" height="6"/>
	<rect x="168.002" y="206.961" fill="#913844" width="6" height="6"/>
	<rect x="174.002" y="206.961" fill="#BE1E2D" width="6" height="6"/>
	<rect x="180.002" y="206.961" fill="#1A1818" width="6" height="6"/>
	<rect x="186.002" y="206.961" fill="#1A1818" width="6" height="6"/>
	<rect x="138.002" y="188.961" fill="#1A1818" width="6" height="6"/>
	<rect x="144.002" y="188.961" fill="#FFFFFF" width="6" height="6"/>
	<rect x="156.002" y="188.961" fill="#FFFFFF" width="6" height="6"/>
	<rect x="150.002" y="188.961" fill="#FFFFFF" width="6" height="6"/>
	<rect x="132.002" y="188.961" fill="#BE1E2D" width="6" height="6"/>
	<rect x="126.002" y="188.961" fill="#BE1E2D" width="6" height="6"/>
	<rect x="120.002" y="188.961" fill="#BE1E2D" width="6" height="6"/>
	<rect x="168.002" y="188.961" fill="#BE1E2D" width="6" height="6"/>
	<rect x="174.002" y="182.953" fill="#BE1E2D" width="6" height="6"/>
	<rect x="180.002" y="188.961" fill="#BE1E2D" width="6" height="6"/>
	<rect x="174.002" y="188.961" fill="#BE1E2D" width="6" height="6"/>
	<rect x="138.002" y="200.961" fill="#C7919B" width="6" height="6"/>
	<rect x="144.002" y="200.961" fill="#BE1E2D" width="6" height="6"/>
	<rect x="156.002" y="200.961" fill="#C7919B" width="6" height="6"/>
	<rect x="150.002" y="200.961" fill="#BE1E2D" width="6" height="6"/>
	<rect x="132.002" y="200.961" fill="#C7919B" width="6" height="6"/>
	<rect x="126.002" y="200.961" fill="#BE1E2D" width="6" height="6"/>
	<rect x="120.002" y="200.961" fill="#BE1E2D" width="6" height="6"/>
	<rect x="114.002" y="194.961" fill="#BE1E2D" width="6" height="6"/>
	<rect x="114.002" y="206.961" fill="#1A1818" width="6" height="6"/>
	<rect x="114.002" y="200.961" fill="#BE1E2D" width="6" height="6"/>
	<rect x="168.002" y="200.961" fill="#BE1E2D" width="6" height="6"/>
	<rect x="161.998" y="182.961" fill="#FFFFFF" width="6" height="6"/>
	<rect x="161.998" y="194.961" fill="#BE1E2D" width="6" height="6"/>
	<rect x="161.998" y="206.961" fill="#913844" width="6" height="6"/>
	<rect x="161.998" y="188.961" fill="#1A1818" width="6" height="6"/>
	<rect x="161.998" y="200.961" fill="#BE1E2D" width="6" height="6"/>
	<rect x="174.002" y="200.961" fill="#BE1E2D" width="6" height="6"/>
	<rect x="180.002" y="200.961" fill="#BE1E2D" width="6" height="6"/>
	<rect x="186.002" y="200.961" fill="#BE1E2D" width="6" height="6"/>
	<rect x="131.998" y="87.039" fill="#F3D9D0" width="6" height="6"/>
	<rect x="137.998" y="87.039" fill="#EED0C6" width="6" height="6"/>
	<rect x="143.998" y="87.039" fill="#EED0C6" width="6" height="6"/>
	<rect x="119.998" y="99.027" fill="#F3D9D0" width="6" height="6"/>
	<rect x="125.998" y="99.027" fill="#EEE3E0" width="6" height="6"/>
	<rect x="131.998" y="99.027" fill="#EFD1B8" width="6" height="6"/>
	<rect x="137.998" y="99.027" fill="#EFD1B8" width="6" height="6"/>
	<rect x="143.998" y="99.027" fill="#EEE3E0" width="6" height="6"/>
	<rect x="149.998" y="99.027" fill="#EED0C6" width="6" height="6"/>
	<rect x="119.998" y="105.027" fill="#EFD1B8" width="6" height="6"/>
	<rect x="125.998" y="105.027" fill="#EFD1B8" width="6" height="6"/>
	<rect x="131.998" y="105.027" fill="#EFD1B8" width="6" height="6"/>
	<rect x="137.998" y="105.027" fill="#EFD1B8" width="6" height="6"/>
	<rect x="143.998" y="105.027" fill="#EFD1B8" width="6" height="6"/>
	<rect x="149.998" y="105.027" fill="#EFD1B8" width="6" height="6"/>
	<rect x="119.998" y="111.027" fill="#EFD1B8" width="6" height="6"/>
	<rect x="125.998" y="111.027" fill="#F3D9D0" width="6" height="6"/>
	<rect x="119.998" y="117.004" fill="#EED0C6" width="6" height="6"/>
	<rect x="125.998" y="117.004" fill="#9B8579" width="6" height="6"/>
	<rect x="119.998" y="128.965" fill="#EFD1B8" width="6" height="6"/>
	<rect x="125.998" y="128.965" fill="#6D808E" width="6" height="6"/>
	<rect x="119.998" y="134.977" fill="#EFD1B8" width="6" height="6"/>
	<rect x="125.998" y="134.977" fill="#F3D9D0" width="6" height="6"/>
	<rect x="119.998" y="140.965" fill="#E3C9B6" width="6" height="6"/>
	<rect x="113.998" y="134.965" fill="#EFD1B8" width="6" height="6"/>
	<rect x="107.998" y="134.965" fill="#F3D9D0" width="6" height="6"/>
	<rect x="113.998" y="128.965" fill="#F3D9D0" width="6" height="6"/>
	<rect x="125.998" y="140.965" fill="#E3C9B6" width="6" height="6"/>
	<rect x="137.998" y="140.965" fill="#E3C9B6" width="6" height="6"/>
	<rect x="131.998" y="140.965" fill="#E3C9B6" width="6" height="6"/>
	<rect x="143.998" y="140.965" fill="#D7BFAA" width="6" height="6"/>
	<rect x="161.998" y="140.965" fill="#EFD1B8" width="6" height="6"/>
	<rect x="149.998" y="140.965" fill="#F3D9D0" width="6" height="6"/>
	<rect x="137.998" y="146.953" fill="#FFFFFF" width="6" height="6"/>
	<rect x="131.998" y="146.953" fill="#FFFFFF" width="6" height="6"/>
	<rect x="143.998" y="146.953" fill="#BB807B" width="6" height="6"/>
	<rect x="149.998" y="146.953" fill="#D7BFAA" width="6" height="6"/>
	<rect x="137.998" y="152.941" fill="#D28F8C" width="6" height="6"/>
	<rect x="131.998" y="152.941" fill="#D28F8C" width="6" height="6"/>
	<rect x="125.998" y="152.941" fill="#D28F8C" width="6" height="6"/>
	<rect x="143.998" y="152.941" fill="#EFD1B8" width="6" height="6"/>
	<rect x="149.998" y="152.941" fill="#E3C9B6" width="6" height="6"/>
	<rect x="137.998" y="158.941" fill="#E3C9B6" width="6" height="6"/>
	<rect x="131.998" y="158.941" fill="#D7BFAA" width="6" height="6"/>
	<rect x="143.998" y="158.941" fill="#E3C9B6" width="6" height="6"/>
	<rect x="149.998" y="158.941" fill="#EFD1B8" width="6" height="6"/>
	<rect x="155.998" y="158.941" fill="#D7BFAA" width="6" height="6"/>
	<rect x="167.998" y="140.965" fill="#E3C9B6" width="6" height="6"/>
	<rect x="161.998" y="134.977" fill="#EFD1B8" width="6" height="6"/>
	<rect x="161.998" y="152.941" fill="#D7BFAA" width="6" height="6"/>
	<rect x="161.998" y="146.953" fill="#EFD1B8" width="6" height="6"/>
	<rect x="162.002" y="158.941" fill="#EFD1B8" width="6" height="6"/>
	<rect x="167.998" y="146.953" fill="#E3C9B6" width="6" height="6"/>
	<rect x="161.998" y="128.965" fill="#EFD1B8" width="6" height="6"/>
	<rect x="161.998" y="117.004" fill="#B6A695" width="6" height="6"/>
	<rect x="167.998" y="128.965" fill="#F3D9D0" width="6" height="6"/>
	<rect x="131.998" y="111.027" fill="#F3D9D0" width="6" height="6"/>
	<rect x="137.998" y="111.027" fill="#EFD1B8" width="6" height="6"/>
	<rect x="143.998" y="111.027" fill="#EFD1B8" width="6" height="6"/>
	<rect x="149.998" y="111.027" fill="#EFD1B8" width="6" height="6"/>
	<rect x="131.998" y="117.004" fill="#C2B59B" width="6" height="6"/>
	<rect x="137.998" y="117.004" fill="#E3C9B6" width="6" height="6"/>
	<rect x="143.998" y="117.004" fill="#EFD1B8" width="6" height="6"/>
	<rect x="149.998" y="117.004" fill="#EFD1B8" width="6" height="6"/>
	<rect x="119.998" y="122.977" fill="#EFD1B8" width="6" height="6"/>
	<rect x="125.998" y="122.977" fill="#EED0C6" width="6" height="6"/>
	<rect x="161.998" y="122.977" fill="#B6A695" width="6" height="6"/>
	<rect x="167.998" y="134.938" fill="#EFD1B8" width="6" height="6"/>
	<rect x="174.002" y="128.965" fill="#EFD1B8" width="6" height="6"/>
	<rect x="174.002" y="134.938" fill="#EFD1B8" width="6" height="6"/>
	<rect x="131.998" y="122.977" fill="#EFD1B8" width="6" height="6"/>
	<rect x="137.998" y="122.977" fill="#C2B59B" width="6" height="6"/>
	<rect x="143.998" y="122.977" fill="#E3C9B6" width="6" height="6"/>
	<rect x="149.998" y="122.977" fill="#EFD1B8" width="6" height="6"/>
	<rect x="131.998" y="128.965" fill="#FFFFFF" width="6" height="6"/>
	<rect x="137.998" y="128.965" fill="#EFD1B8" width="6" height="6"/>
	<rect x="143.998" y="128.965" fill="#EFD1B8" width="6" height="6"/>
	<rect x="149.998" y="128.965" fill="#E3C9B6" width="6" height="6"/>
	<rect x="131.998" y="134.965" fill="#EFD1B8" width="6" height="6"/>
	<rect x="137.998" y="134.965" fill="#F3D9D0" width="6" height="6"/>
	<rect x="143.998" y="134.965" fill="#F3D9D0" width="6" height="6"/>
	<rect x="149.998" y="134.965" fill="#EFD1B8" width="6" height="6"/>
	<rect x="161.998" y="99.027" fill="#B6A695" width="6" height="6"/>
	<rect x="167.998" y="99.027" fill="#B6A695" width="6" height="6"/>
	<rect x="125.998" y="93.039" fill="#F3D9D0" width="6" height="6"/>
	<rect x="131.998" y="93.039" fill="#EFD1B8" width="6" height="6"/>
	<rect x="137.998" y="93.039" fill="#EEE3E0" width="6" height="6"/>
	<rect x="143.998" y="93.039" fill="#EEE3E0" width="6" height="6"/>
	<rect x="149.998" y="93.039" fill="#EED0C6" width="6" height="6"/>
	<rect x="161.998" y="93.039" fill="#B6A695" width="6" height="6"/>
	<rect x="149.998" y="87.039" fill="#D7BFAA" width="6" height="6"/>
	<rect x="161.998" y="105.027" fill="#B6A695" width="6" height="6"/>
	<rect x="167.998" y="105.027" fill="#B6A695" width="6" height="6"/>
	<rect x="161.998" y="111.027" fill="#B6A695" width="6" height="6"/>
	<rect x="156.002" y="140.965" fill="#EFD1B8" width="6" height="6"/>
	<rect x="156.002" y="134.977" fill="#EFD1B8" width="6" height="6"/>
	<rect x="156.002" y="152.941" fill="#EFD1B8" width="6" height="6"/>
	<rect x="156.002" y="146.953" fill="#EFD1B8" width="6" height="6"/>
	<rect x="156.002" y="128.965" fill="#EFD1B8" width="6" height="6"/>
	<rect x="156.002" y="117.004" fill="#D7BFAA" width="6" height="6"/>
	<rect x="156.002" y="122.977" fill="#EFD1B8" width="6" height="6"/>
	<rect x="156.002" y="99.027" fill="#B6A695" width="6" height="6"/>
	<rect x="156.002" y="93.039" fill="#B6A695" width="6" height="6"/>
	<rect x="156.002" y="87.039" fill="#B6A695" width="6" height="6"/>
	<rect x="156.002" y="105.027" fill="#D7BFAA" width="6" height="6"/>
	<rect x="156.002" y="111.027" fill="#D7BFAA" width="6" height="6"/>
	<rect x="167.998" y="111.027" fill="#B6A695" width="6" height="6"/>
	<rect x="167.998" y="117.004" fill="#B6A695" width="6" height="6"/>
	<rect x="167.998" y="122.984" fill="#F3D9D0" width="6" height="6"/>
	<rect x="174.002" y="122.984" fill="#F3D9D0" width="6" height="6"/>
	<rect x="138.002" y="170.945" fill="#D7BFAA" width="6" height="6"/>
	<rect x="144.002" y="170.945" fill="#E3C9B6" width="6" height="6"/>
	<rect x="150.002" y="170.945" fill="#D7BFAA" width="6" height="6"/>
	<rect x="156.002" y="170.945" fill="#EFD1B8" width="6" height="6"/>
	<rect x="162.002" y="176.977" fill="#EFD1B8" width="6" height="6"/>
	<rect x="162.006" y="170.945" fill="#EFD1B8" width="6" height="6"/>
	<rect x="138.002" y="164.941" fill="#EFD1B8" width="6" height="6"/>
	<rect x="131.99" y="164.941" fill="#EFD1B8" width="6" height="6"/>
	<rect x="126.002" y="158.941" fill="#E3C9B6" width="6" height="6"/>
	<rect x="144.002" y="164.941" fill="#EFD1B8" width="6" height="6"/>
	<rect x="150.002" y="164.941" fill="#EFD1B8" width="6" height="6"/>
	<rect x="156.002" y="164.941" fill="#EFD1B8" width="6" height="6"/>
	<rect x="162.006" y="164.941" fill="#EFD1B8" width="6" height="6"/>
</g>
</svg>
