<?xml version="1.0" encoding="utf-8"?>
<!-- Generator: Adobe Illustrator 16.0.0, SVG Export Plug-In . SVG Version: 6.00 Build 0)  -->
<!DOCTYPE svg PUBLIC "-//W3C//DTD SVG 1.1//EN" "http://www.w3.org/Graphics/SVG/1.1/DTD/svg11.dtd">
<svg version="1.1" id="Layer_1" xmlns="http://www.w3.org/2000/svg" xmlns:xlink="http://www.w3.org/1999/xlink" x="0px" y="0px"
	 width="300px" height="300px" viewBox="0 0 300 300" enable-background="new 0 0 300 300" xml:space="preserve">
<g>
	<rect x="120" y="114.02" fill="#B7976C" width="6" height="6"/>
	<rect x="126" y="114.02" fill="#B7976C" width="6" height="6"/>
	<rect x="132" y="114.02" fill="#AF865A" width="6" height="6"/>
	<rect x="138" y="114.02" fill="#B7976C" width="6" height="6"/>
	<rect x="144" y="114.02" fill="#29292A" width="6" height="6"/>
	<rect x="114" y="120.02" fill="#AF865A" width="6" height="6"/>
	<rect x="120" y="120.02" fill="#231F20" width="6" height="6"/>
	<rect x="126" y="120.02" fill="#231F20" width="6" height="6"/>
	<rect x="132" y="120.02" fill="#AF865A" width="6" height="6"/>
	<rect x="138" y="120.02" fill="#AF865A" width="6" height="6"/>
	<rect x="144" y="120.02" fill="#414042" width="6" height="6"/>
	<rect x="114" y="126.02" fill="#8C6E4C" width="6" height="6"/>
	<rect x="120" y="126.02" fill="#8C6E4C" width="6" height="6"/>
	<rect x="114" y="131.996" fill="#B7976C" width="6" height="6"/>
	<rect x="120" y="131.996" fill="#231F20" width="6" height="6"/>
	<rect x="114" y="137.984" fill="#8C6E4C" width="6" height="6"/>
	<rect x="120" y="137.984" fill="#AF865A" width="6" height="6"/>
	<rect x="114" y="143.996" fill="#AF865A" width="6" height="6"/>
	<rect x="120" y="143.996" fill="#8C6E4C" width="6" height="6"/>
	<rect x="114" y="149.984" fill="#231F20" width="6" height="6"/>
	<rect x="108" y="143.996" fill="#AF865A" width="6" height="6"/>
	<rect x="108" y="137.996" fill="#BD9F71" width="6" height="6"/>
	<rect x="120" y="149.984" fill="#231F20" width="6" height="6"/>
	<rect x="132" y="149.984" fill="#231F20" width="6" height="6"/>
	<rect x="126" y="149.984" fill="#231F20" width="6" height="6"/>
	<rect x="138" y="149.984" fill="#323133" width="6" height="6"/>
	<rect x="150" y="149.984" fill="#AF865A" width="6" height="6"/>
	<rect x="144" y="149.984" fill="#AF865A" width="6" height="6"/>
	<rect x="132" y="155.973" fill="#FFFFFF" width="6" height="6"/>
	<rect x="126" y="155.973" fill="#FFFFFF" width="6" height="6"/>
	<rect x="138" y="155.973" fill="#AD6D67" width="6" height="6"/>
	<rect x="144" y="155.973" fill="#323133" width="6" height="6"/>
	<rect x="132" y="161.961" fill="#323133" width="6" height="6"/>
	<rect x="126" y="161.961" fill="#231F20" width="6" height="6"/>
	<rect x="138" y="161.961" fill="#8C6E4C" width="6" height="6"/>
	<rect x="144" y="161.961" fill="#231F20" width="6" height="6"/>
	<rect x="132" y="167.961" fill="#231F20" width="6" height="6"/>
	<rect x="126" y="167.961" fill="#231F20" width="6" height="6"/>
	<rect x="138" y="167.961" fill="#231F20" width="6" height="6"/>
	<rect x="138" y="173.957" fill="#8C6E4C" width="6" height="6"/>
	<rect x="132" y="173.957" fill="#8C6E4C" width="6" height="6"/>
	<rect x="144" y="167.961" fill="#8C6E4C" width="6" height="6"/>
	<rect x="150" y="167.961" fill="#AF865A" width="6" height="6"/>
	<rect x="150" y="173.957" fill="#AF865A" width="6" height="6"/>
	<rect x="144" y="173.957" fill="#AF865A" width="6" height="6"/>
	<rect x="156" y="149.984" fill="#8C6E4C" width="6" height="6"/>
	<rect x="150" y="143.996" fill="#AF865A" width="6" height="6"/>
	<rect x="156" y="143.996" fill="#AF865A" width="6" height="6"/>
	<rect x="162" y="143.996" fill="#B7976C" width="6" height="6"/>
	<rect x="150" y="161.961" fill="#8C6E4C" width="6" height="6"/>
	<rect x="156" y="161.961" fill="#AF865A" width="6" height="6"/>
	<rect x="156" y="167.961" fill="#AF865A" width="6" height="6"/>
	<rect x="150" y="179.957" fill="#B7976C" width="6" height="6"/>
	<rect x="156" y="173.922" fill="#B7976C" width="6" height="6"/>
	<rect x="155.953" y="179.957" fill="#AF865A" width="6" height="6"/>
	<rect x="138" y="179.957" fill="#AF865A" width="6" height="6"/>
	<rect x="144" y="179.957" fill="#AF865A" width="6" height="6"/>
	<rect x="150" y="155.973" fill="#AF865A" width="6" height="6"/>
	<rect x="156" y="155.973" fill="#AF865A" width="6" height="6"/>
	<rect x="150" y="137.984" fill="#AF865A" width="6" height="6"/>
	<rect x="150" y="131.996" fill="#414042" width="6" height="6"/>
	<rect x="156" y="137.984" fill="#7C5C3C" width="6" height="6"/>
	<rect x="156" y="131.996" fill="#7C5C3C" width="6" height="6"/>
	<rect x="162" y="137.984" fill="#B7976C" width="6" height="6"/>
	<rect x="162" y="131.996" fill="#B7976C" width="6" height="6"/>
	<rect x="126" y="126.02" fill="#AF865A" width="6" height="6"/>
	<rect x="132" y="126.02" fill="#AF865A" width="6" height="6"/>
	<rect x="138" y="126.02" fill="#AF865A" width="6" height="6"/>
	<rect x="144" y="126.02" fill="#414042" width="6" height="6"/>
	<rect x="126" y="131.996" fill="#AF865A" width="6" height="6"/>
	<rect x="132" y="131.996" fill="#AF865A" width="6" height="6"/>
	<rect x="126" y="131.996" fill="#FFFFFF" width="6" height="6"/>
	<rect x="138" y="131.996" fill="#AF865A" width="6" height="6"/>
	<rect x="144" y="131.996" fill="#B7976C" width="6" height="6"/>
	<rect x="126" y="137.984" fill="#BD9F71" width="6" height="6"/>
	<rect x="132" y="137.984" fill="#99694A" width="6" height="6"/>
	<rect x="138" y="137.984" fill="#AF865A" width="6" height="6"/>
	<rect x="144" y="137.984" fill="#AF865A" width="6" height="6"/>
	<rect x="126" y="143.984" fill="#AF865A" width="6" height="6"/>
	<rect x="132" y="143.984" fill="#BD9F71" width="6" height="6"/>
	<rect x="138" y="143.984" fill="#99694A" width="6" height="6"/>
	<rect x="144" y="143.984" fill="#AF865A" width="6" height="6"/>
	<rect x="150" y="114.02" fill="#414042" width="6" height="6"/>
	<rect x="156" y="114.02" fill="#29292A" width="6" height="6"/>
	<rect x="120" y="108.031" fill="#B7976C" width="6" height="6"/>
	<rect x="114" y="114.02" fill="#B7976C" width="6" height="6"/>
	<rect x="114" y="108.031" fill="#B7976C" width="6" height="6"/>
	<rect x="114" y="102.031" fill="#414042" width="6" height="6"/>
	<rect x="126" y="108.031" fill="#B7976C" width="6" height="6"/>
	<rect x="132" y="108.031" fill="#B7976C" width="6" height="6"/>
	<rect x="138" y="108.031" fill="#BD9F71" width="6" height="6"/>
	<rect x="144" y="108.031" fill="#414042" width="6" height="6"/>
	<rect x="120" y="102.031" fill="#B7976C" width="6" height="6"/>
	<rect x="126" y="102.031" fill="#BD9F71" width="6" height="6"/>
	<rect x="132" y="102.031" fill="#BD9F71" width="6" height="6"/>
	<rect x="138" y="102.031" fill="#29292A" width="6" height="6"/>
	<rect x="144" y="102.031" fill="#29292A" width="6" height="6"/>
	<rect x="150" y="108.031" fill="#29292A" width="6" height="6"/>
	<rect x="150" y="102.031" fill="#414042" width="6" height="6"/>
	<rect x="120" y="96.031" fill="#29292A" width="6" height="6"/>
	<rect x="126" y="96.031" fill="#29292A" width="6" height="6"/>
	<rect x="132" y="96.031" fill="#29292A" width="6" height="6"/>
	<rect x="138" y="96.031" fill="#414042" width="6" height="6"/>
	<rect x="144" y="96.031" fill="#414042" width="6" height="6"/>
	<rect x="156" y="108.031" fill="#414042" width="6" height="6"/>
	<rect x="155.805" y="102.031" fill="#29292A" width="6" height="6"/>
	<rect x="149.805" y="96.031" fill="#29292A" width="6" height="6"/>
	<rect x="162" y="108.031" fill="#29292A" width="6" height="6"/>
	<rect x="150" y="120.02" fill="#29292A" width="6" height="6"/>
	<rect x="156" y="120.02" fill="#414042" width="6" height="6"/>
	<rect x="150" y="126.02" fill="#29292A" width="6" height="6"/>
	<rect x="156" y="126.02" fill="#B7976C" width="6" height="6"/>
	<rect x="162" y="114.02" fill="#414042" width="6" height="6"/>
	<rect x="162" y="120.02" fill="#29292A" width="6" height="6"/>
	<rect x="162" y="126.02" fill="#B7976C" width="6" height="6"/>
	<rect x="162" y="173.957" fill="#00AEEF" width="6" height="6"/>
	<rect x="168" y="173.957" fill="#323133" width="6" height="6"/>
	<rect x="174" y="173.957" fill="#323133" width="6" height="6"/>
	<rect x="138" y="185.969" fill="#231F20" width="6" height="6"/>
	<rect x="144" y="185.969" fill="#231F20" width="6" height="6"/>
	<rect x="156" y="185.969" fill="#00AEEF" width="6" height="6"/>
	<rect x="150" y="185.969" fill="#231F20" width="6" height="6"/>
	<rect x="132" y="185.969" fill="#00AEEF" width="6" height="6"/>
	<rect x="132" y="191.969" fill="#00AEEF" width="6" height="6"/>
	<rect x="126" y="185.969" fill="#323133" width="6" height="6"/>
	<rect x="120" y="185.969" fill="#464749" width="6" height="6"/>
	<rect x="162" y="185.969" fill="#00AEEF" width="6" height="6"/>
	<rect x="168" y="185.969" fill="#464749" width="6" height="6"/>
	<rect x="174" y="185.969" fill="#323133" width="6" height="6"/>
	<rect x="180" y="185.969" fill="#323133" width="6" height="6"/>
	<rect x="138" y="197.969" fill="#00AEEF" width="6" height="6"/>
	<rect x="144" y="197.969" fill="#231F20" width="6" height="6"/>
	<rect x="156" y="197.969" fill="#00AEEF" width="6" height="6"/>
	<rect x="150" y="197.969" fill="#00AEEF" width="6" height="6"/>
	<rect x="132" y="197.969" fill="#464749" width="6" height="6"/>
	<rect x="126" y="197.969" fill="#323133" width="6" height="6"/>
	<rect x="120" y="197.969" fill="#323133" width="6" height="6"/>
	<rect x="162" y="197.969" fill="#464749" width="6" height="6"/>
	<rect x="168" y="197.969" fill="#323133" width="6" height="6"/>
	<rect x="174" y="197.969" fill="#323133" width="6" height="6"/>
	<rect x="180" y="197.969" fill="#231F20" width="6" height="6"/>
	<rect x="132" y="179.957" fill="#00AEEF" width="6" height="6"/>
	<rect x="126" y="179.957" fill="#323133" width="6" height="6"/>
	<rect x="120" y="179.957" fill="#323133" width="6" height="6"/>
	<rect x="162" y="179.957" fill="#00AEEF" width="6" height="6"/>
	<rect x="168" y="179.957" fill="#323133" width="6" height="6"/>
	<rect x="174" y="179.957" fill="#464749" width="6" height="6"/>
	<rect x="180" y="179.957" fill="#323133" width="6" height="6"/>
	<rect x="138" y="191.969" fill="#2798C8" width="6" height="6"/>
	<rect x="144" y="191.969" fill="#231F20" width="6" height="6"/>
	<rect x="156" y="191.969" fill="#2798C8" width="6" height="6"/>
	<rect x="150" y="191.969" fill="#00AEEF" width="6" height="6"/>
	<rect x="132" y="191.969" fill="#00AEEF" width="6" height="6"/>
	<rect x="126" y="191.969" fill="#464749" width="6" height="6"/>
	<rect x="120" y="191.969" fill="#323133" width="6" height="6"/>
	<rect x="114" y="185.969" fill="#323133" width="6" height="6"/>
	<rect x="114" y="179.957" fill="#464749" width="6" height="6"/>
	<rect x="114" y="197.969" fill="#231F20" width="6" height="6"/>
	<rect x="114" y="191.969" fill="#323133" width="6" height="6"/>
	<rect x="108" y="185.969" fill="#323133" width="6" height="6"/>
	<rect x="108" y="197.969" fill="#323133" width="6" height="6"/>
	<rect x="108" y="191.969" fill="#323133" width="6" height="6"/>
	<rect x="162" y="191.969" fill="#464749" width="6" height="6"/>
	<rect x="168" y="191.969" fill="#323133" width="6" height="6"/>
	<rect x="174" y="191.969" fill="#323133" width="6" height="6"/>
	<rect x="180" y="191.969" fill="#323133" width="6" height="6"/>
	<rect x="186" y="185.969" fill="#323133" width="6" height="6"/>
	<rect x="186" y="197.969" fill="#323133" width="6" height="6"/>
	<rect x="186" y="191.969" fill="#323133" width="6" height="6"/>
</g>
</svg>
