<?xml version="1.0" encoding="utf-8"?>
<!-- Generator: Adobe Illustrator 16.0.0, SVG Export Plug-In . SVG Version: 6.00 Build 0)  -->
<!DOCTYPE svg PUBLIC "-//W3C//DTD SVG 1.1//EN" "http://www.w3.org/Graphics/SVG/1.1/DTD/svg11.dtd">
<svg version="1.1" id="Layer_1" xmlns="http://www.w3.org/2000/svg" xmlns:xlink="http://www.w3.org/1999/xlink" x="0px" y="0px"
	 width="300px" height="300px" viewBox="0 0 300 300" enable-background="new 0 0 300 300" xml:space="preserve">
<g>
	<rect x="131.25" y="198.706" fill="#EFD1B8" width="7.5" height="7.5"/>
	<rect x="138.75" y="198.706" fill="#98937E" width="7.5" height="7.5"/>
	<rect x="153.75" y="198.706" fill="#BE1E2D" width="7.5" height="7.5"/>
	<rect x="146.25" y="198.706" fill="#EFD1B8" width="7.5" height="7.5"/>
	<rect x="123.75" y="198.706" fill="#BE1E2D" width="7.5" height="7.5"/>
	<rect x="116.25" y="198.706" fill="#323133" width="7.5" height="7.5"/>
	<rect x="108.75" y="198.706" fill="#323133" width="7.5" height="7.5"/>
	<rect x="161.25" y="198.706" fill="#323133" width="7.5" height="7.5"/>
	<rect x="168.75" y="198.706" fill="#323133" width="7.5" height="7.5"/>
	<rect x="176.25" y="198.706" fill="#323133" width="7.5" height="7.5"/>
	<rect x="183.75" y="198.706" fill="#323133" width="7.5" height="7.5"/>
	<rect x="131.25" y="213.706" fill="#323133" width="7.5" height="7.5"/>
	<rect x="138.75" y="213.706" fill="#BE1E2D" width="7.5" height="7.5"/>
	<rect x="153.75" y="213.706" fill="#323133" width="7.5" height="7.5"/>
	<rect x="146.25" y="213.706" fill="#323133" width="7.5" height="7.5"/>
	<rect x="123.75" y="213.706" fill="#323133" width="7.5" height="7.5"/>
	<rect x="116.25" y="213.706" fill="#323133" width="7.5" height="7.5"/>
	<rect x="108.75" y="213.706" fill="#323133" width="7.5" height="7.5"/>
	<rect x="161.25" y="213.706" fill="#323133" width="7.5" height="7.5"/>
	<rect x="168.75" y="213.706" fill="#323133" width="7.5" height="7.5"/>
	<rect x="176.25" y="213.706" fill="#323133" width="7.5" height="7.5"/>
	<rect x="183.75" y="213.706" fill="#323133" width="7.5" height="7.5"/>
	<rect x="131.25" y="191.206" fill="#98937E" width="7.5" height="7.5"/>
	<rect x="138.75" y="191.206" fill="#EFD1B8" width="7.5" height="7.5"/>
	<rect x="153.75" y="191.206" fill="#EFD1B8" width="7.5" height="7.5"/>
	<rect x="146.25" y="191.206" fill="#98937E" width="7.5" height="7.5"/>
	<rect x="138.75" y="183.706" fill="#EFD1B8" width="7.5" height="7.5"/>
	<rect x="146.25" y="183.706" fill="#EFD1B8" width="7.5" height="7.5"/>
	<rect x="123.75" y="191.206" fill="#EFD1B8" width="7.5" height="7.5"/>
	<rect x="108.75" y="191.206" fill="#323133" width="7.5" height="7.5"/>
	<rect x="161.25" y="191.206" fill="#FAC805" width="7.5" height="7.5"/>
	<rect x="168.75" y="191.206" fill="#5F3529" width="7.5" height="7.5"/>
	<rect x="176.25" y="191.206" fill="#323133" width="7.5" height="7.5"/>
	<rect x="131.25" y="206.206" fill="#BE1E2D" width="7.5" height="7.5"/>
	<rect x="138.75" y="206.206" fill="#EFD1B8" width="7.5" height="7.5"/>
	<rect x="153.75" y="206.206" fill="#323133" width="7.5" height="7.5"/>
	<rect x="146.25" y="206.206" fill="#BE1E2D" width="7.5" height="7.5"/>
	<rect x="123.75" y="206.206" fill="#323133" width="7.5" height="7.5"/>
	<rect x="116.25" y="206.206" fill="#323133" width="7.5" height="7.5"/>
	<rect x="108.75" y="206.206" fill="#323133" width="7.5" height="7.5"/>
	<rect x="101.25" y="198.706" fill="#323133" width="7.5" height="7.5"/>
	<rect x="101.25" y="213.706" fill="#323133" width="7.5" height="7.5"/>
	<rect x="101.25" y="206.206" fill="#323133" width="7.5" height="7.5"/>
	<rect x="161.25" y="206.206" fill="#323133" width="7.5" height="7.5"/>
	<rect x="168.75" y="206.206" fill="#323133" width="7.5" height="7.5"/>
	<rect x="176.25" y="206.206" fill="#323133" width="7.5" height="7.5"/>
	<rect x="183.75" y="206.206" fill="#323133" width="7.5" height="7.5"/>
	<rect x="101.25" y="93.779" fill="#8B3F1E" width="7.5" height="7.5"/>
	<rect x="101.25" y="101.279" fill="#231F20" width="7.5" height="7.5"/>
	<rect x="108.75" y="93.779" fill="#231F20" width="7.5" height="7.5"/>
	<rect x="116.25" y="93.779" fill="#231F20" width="7.5" height="7.5"/>
	<rect x="123.75" y="93.779" fill="#5F3529" width="7.5" height="7.5"/>
	<rect x="131.25" y="93.779" fill="#EFCFC0" width="7.5" height="7.5"/>
	<rect x="138.75" y="93.779" fill="#231F20" width="7.5" height="7.5"/>
	<rect x="108.75" y="101.279" fill="#231F20" width="7.5" height="7.5"/>
	<rect x="116.25" y="101.279" fill="#5F3529" width="7.5" height="7.5"/>
	<rect x="123.75" y="101.279" fill="#EFD1B8" width="7.5" height="7.5"/>
	<rect x="131.25" y="101.279" fill="#EFD1B8" width="7.5" height="7.5"/>
	<rect x="138.75" y="101.279" fill="#231F20" width="7.5" height="7.5"/>
	<rect x="108.75" y="108.779" fill="#5F3529" width="7.5" height="7.5"/>
	<rect x="108.75" y="116.25" fill="#EFD1B8" width="7.5" height="7.5"/>
	<rect x="108.75" y="123.735" fill="#EFD1B8" width="7.5" height="7.5"/>
	<rect x="101.25" y="131.25" fill="#EFD1B8" width="7.5" height="7.5"/>
	<rect x="108.75" y="131.25" fill="#EFD1B8" width="7.5" height="7.5"/>
	<rect x="108.75" y="138.735" fill="#EFD1B8" width="7.5" height="7.5"/>
	<rect x="123.75" y="138.735" fill="#EFD1B8" width="7.5" height="7.5"/>
	<rect x="116.25" y="138.735" fill="#EFD1B8" width="7.5" height="7.5"/>
	<rect x="131.25" y="138.735" fill="#EFCFC0" width="7.5" height="7.5"/>
	<rect x="146.25" y="138.735" fill="#8B3F1E" width="7.5" height="7.5"/>
	<rect x="138.75" y="138.735" fill="#EFCFC0" width="7.5" height="7.5"/>
	<rect x="123.75" y="146.221" fill="#FFFFFF" width="7.5" height="7.5"/>
	<rect x="116.25" y="146.221" fill="#FFFFFF" width="7.5" height="7.5"/>
	<rect x="131.25" y="146.221" fill="#D28F8C" width="7.5" height="7.5"/>
	<rect x="138.75" y="146.221" fill="#EFD1B8" width="7.5" height="7.5"/>
	<rect x="123.75" y="153.706" fill="#D28F8C" width="7.5" height="7.5"/>
	<rect x="116.25" y="153.706" fill="#D28F8C" width="7.5" height="7.5"/>
	<rect x="131.25" y="153.706" fill="#EFD1B8" width="7.5" height="7.5"/>
	<rect x="138.75" y="153.706" fill="#EFD1B8" width="7.5" height="7.5"/>
	<rect x="123.75" y="161.206" fill="#EFD1B8" width="7.5" height="7.5"/>
	<rect x="116.25" y="161.206" fill="#EFCFC0" width="7.5" height="7.5"/>
	<rect x="123.75" y="168.706" fill="#EED0C6" width="7.5" height="7.5"/>
	<rect x="131.25" y="161.206" fill="#EFD1B8" width="7.5" height="7.5"/>
	<rect x="131.25" y="168.706" fill="#EFD1B8" width="7.5" height="7.5"/>
	<rect x="131.25" y="176.206" fill="#E5B29B" width="7.5" height="7.5"/>
	<rect x="138.75" y="168.706" fill="#E5B29B" width="7.5" height="7.5"/>
	<rect x="138.75" y="161.206" fill="#EFD1B8" width="7.5" height="7.5"/>
	<rect x="146.25" y="161.206" fill="#3C2415" width="7.5" height="7.5"/>
	<rect x="138.75" y="176.206" fill="#FFFFFF" width="7.5" height="7.5"/>
	<rect x="146.25" y="176.206" fill="#5F3529" width="7.5" height="7.5"/>
	<rect x="138.75" y="176.206" fill="#EFD1B8" width="7.5" height="7.5"/>
	<rect x="153.75" y="183.706" fill="#98937E" width="7.5" height="7.5"/>
	<rect x="131.25" y="183.706" fill="#EFD1B8" width="7.5" height="7.5"/>
	<rect x="153.75" y="138.735" fill="#5F3529" width="7.5" height="7.5"/>
	<rect x="146.25" y="131.25" fill="#3C2415" width="7.5" height="7.5"/>
	<rect x="153.75" y="131.25" fill="#3C2415" width="7.5" height="7.5"/>
	<rect x="146.25" y="153.706" fill="#EFD1B8" width="7.5" height="7.5"/>
	<rect x="153.75" y="153.706" fill="#5F3529" width="7.5" height="7.5"/>
	<rect x="146.25" y="146.221" fill="#5F3529" width="7.5" height="7.5"/>
	<rect x="153.75" y="146.221" fill="#8B3F1E" width="7.5" height="7.5"/>
	<rect x="146.25" y="123.735" fill="#EEE1BF" width="7.5" height="7.5"/>
	<rect x="153.75" y="123.735" fill="#8B3F1E" width="7.5" height="7.5"/>
	<rect x="146.25" y="116.25" fill="#EEE1BF" width="7.5" height="7.5"/>
	<rect x="153.75" y="116.25" fill="#231F20" width="7.5" height="7.5"/>
	<rect x="161.25" y="123.735" fill="#231F20" width="7.5" height="7.5"/>
	<rect x="161.25" y="116.25" fill="#3C2415" width="7.5" height="7.5"/>
	<rect x="116.25" y="108.765" fill="#EFD1B8" width="7.5" height="7.5"/>
	<rect x="123.75" y="108.765" fill="#AD8D75" width="7.5" height="7.5"/>
	<rect x="131.25" y="108.779" fill="#EFD1B8" width="7.5" height="7.5"/>
	<rect x="138.75" y="108.779" fill="#EFD1B8" width="7.5" height="7.5"/>
	<rect x="116.25" y="116.25" fill="#EFD1B8" width="7.5" height="7.5"/>
	<rect x="123.75" y="116.25" fill="#EFD1B8" width="7.5" height="7.5"/>
	<rect x="131.25" y="116.235" fill="#AD8D75" width="7.5" height="7.5"/>
	<rect x="138.75" y="116.25" fill="#EFD1B8" width="7.5" height="7.5"/>
	<rect x="116.25" y="123.735" fill="#7F95A5" width="7.5" height="7.5"/>
	<rect x="123.75" y="123.735" fill="#FFFFFF" width="7.5" height="7.5"/>
	<rect x="131.25" y="123.735" fill="#EFD1B8" width="7.5" height="7.5"/>
	<rect x="138.75" y="123.735" fill="#EFD1B8" width="7.5" height="7.5"/>
	<rect x="116.25" y="131.235" fill="#EFD1B8" width="7.5" height="7.5"/>
	<rect x="123.75" y="131.235" fill="#EFCFC0" width="7.5" height="7.5"/>
	<rect x="131.25" y="131.235" fill="#EED0C6" width="7.5" height="7.5"/>
	<rect x="138.75" y="131.235" fill="#EFCFC0" width="7.5" height="7.5"/>
	<rect x="146.25" y="93.779" fill="#8B3F1E" width="7.5" height="7.5"/>
	<rect x="153.75" y="93.779" fill="#231F20" width="7.5" height="7.5"/>
	<rect x="146.25" y="78.794" fill="#8B3F1E" width="7.5" height="7.5"/>
	<rect x="153.75" y="78.794" fill="#5F3529" width="7.5" height="7.5"/>
	<rect x="153.75" y="86.294" fill="#8B3F1E" width="7.5" height="7.5"/>
	<rect x="161.25" y="86.294" fill="#3C2415" width="7.5" height="7.5"/>
	<rect x="108.75" y="86.294" fill="#8B3F1E" width="7.5" height="7.5"/>
	<rect x="116.25" y="86.294" fill="#3C2415" width="7.5" height="7.5"/>
	<rect x="123.75" y="86.294" fill="#231F20" width="7.5" height="7.5"/>
	<rect x="131.25" y="86.294" fill="#3C2415" width="7.5" height="7.5"/>
	<rect x="138.75" y="86.294" fill="#231F20" width="7.5" height="7.5"/>
	<rect x="116.25" y="78.794" fill="#5F3529" width="7.5" height="7.5"/>
	<rect x="123.75" y="78.794" fill="#3C2415" width="7.5" height="7.5"/>
	<rect x="131.25" y="78.794" fill="#3C2415" width="7.5" height="7.5"/>
	<rect x="138.75" y="78.794" fill="#8B3F1E" width="7.5" height="7.5"/>
	<rect x="146.25" y="86.294" fill="#231F20" width="7.5" height="7.5"/>
	<rect x="146.25" y="101.279" fill="#231F20" width="7.5" height="7.5"/>
	<rect x="146.25" y="116.25" fill="#231F20" width="7.5" height="7.5"/>
	<rect x="146.25" y="123.735" fill="#231F20" width="7.5" height="7.5"/>
	<rect x="153.75" y="101.279" fill="#8B3F1E" width="7.5" height="7.5"/>
	<rect x="161.25" y="101.279" fill="#231F20" width="7.5" height="7.5"/>
	<rect x="161.25" y="93.779" fill="#3C2415" width="7.5" height="7.5"/>
	<rect x="168.75" y="93.779" fill="#3C2415" width="7.5" height="7.5"/>
	<rect x="161.25" y="108.779" fill="#8B3F1E" width="7.5" height="7.5"/>
	<rect x="168.75" y="108.779" fill="#231F20" width="7.5" height="7.5"/>
	<rect x="168.75" y="101.279" fill="#3C2415" width="7.5" height="7.5"/>
	<rect x="168.75" y="116.279" fill="#3C2415" width="7.5" height="7.5"/>
	<rect x="176.25" y="108.779" fill="#231F20" width="7.5" height="7.5"/>
	<rect x="176.25" y="116.279" fill="#3C2415" width="7.5" height="7.5"/>
	<rect x="168.75" y="123.735" fill="#3C2415" width="7.5" height="7.5"/>
	<rect x="176.25" y="123.735" fill="#5F3529" width="7.5" height="7.5"/>
	<rect x="176.25" y="138.75" fill="#231F20" width="7.5" height="7.5"/>
	<rect x="168.75" y="131.25" fill="#5F3529" width="7.5" height="7.5"/>
	<rect x="176.25" y="131.25" fill="#3C2415" width="7.5" height="7.5"/>
	<rect x="176.25" y="146.25" fill="#5F3529" width="7.5" height="7.5"/>
	<rect x="183.75" y="138.75" fill="#3C2415" width="7.5" height="7.5"/>
	<rect x="183.75" y="146.25" fill="#3C2415" width="7.5" height="7.5"/>
	<rect x="183.75" y="131.235" fill="#5F3529" width="7.5" height="7.5"/>
	<rect x="191.25" y="146.25" fill="#3C2415" width="7.5" height="7.5"/>
	<rect x="161.25" y="138.75" fill="#231F20" width="7.5" height="7.5"/>
	<rect x="161.25" y="131.25" fill="#8B3F1E" width="7.5" height="7.5"/>
	<rect x="161.25" y="146.25" fill="#231F20" width="7.5" height="7.5"/>
	<rect x="176.25" y="153.706" fill="#3C2415" width="7.5" height="7.5"/>
	<rect x="183.75" y="153.706" fill="#231F20" width="7.5" height="7.5"/>
	<rect x="161.25" y="153.706" fill="#3C2415" width="7.5" height="7.5"/>
	<rect x="176.25" y="161.206" fill="#8B3F1E" width="7.5" height="7.5"/>
	<rect x="176.25" y="168.706" fill="#5F3529" width="7.5" height="7.5"/>
	<rect x="176.25" y="176.206" fill="#5F3529" width="7.5" height="7.5"/>
	<rect x="168.75" y="138.75" fill="#8B3F1E" width="7.5" height="7.5"/>
	<rect x="168.75" y="146.25" fill="#5F3529" width="7.5" height="7.5"/>
	<rect x="168.75" y="153.706" fill="#3C2415" width="7.5" height="7.5"/>
	<rect x="168.75" y="161.206" fill="#5F3529" width="7.5" height="7.5"/>
	<rect x="168.75" y="168.706" fill="#8B3F1E" width="7.5" height="7.5"/>
	<rect x="168.75" y="176.206" fill="#231F20" width="7.5" height="7.5"/>
	<rect x="161.25" y="168.706" fill="#3C2415" width="7.5" height="7.5"/>
	<rect x="161.25" y="176.206" fill="#3C2415" width="7.5" height="7.5"/>
	<rect x="183.75" y="161.206" fill="#3C2415" width="7.5" height="7.5"/>
	<rect x="183.75" y="168.706" fill="#8B3F1E" width="7.5" height="7.5"/>
	<rect x="161.25" y="183.706" fill="#231F20" width="7.5" height="7.5"/>
	<rect x="161.25" y="191.206" fill="#323133" width="7.5" height="7.5"/>
	<rect x="168.75" y="183.706" fill="#231F20" width="7.5" height="7.5"/>
	<rect x="116.25" y="183.706" fill="#323133" width="7.5" height="7.5"/>
	<rect x="116.25" y="168.706" fill="#5F3529" width="7.5" height="7.5"/>
	<rect x="123.75" y="183.706" fill="#98937E" width="7.5" height="7.5"/>
	<rect x="123.75" y="176.206" fill="#8B3F1E" width="7.5" height="7.5"/>
	<rect x="116.25" y="191.206" fill="#323133" width="7.5" height="7.5"/>
	<rect x="161.25" y="161.206" fill="#8B3F1E" width="7.5" height="7.5"/>
	<rect x="153.75" y="161.206" fill="#231F20" width="7.5" height="7.5"/>
	<rect x="153.75" y="168.706" fill="#3C2415" width="7.5" height="7.5"/>
	<rect x="153.75" y="176.206" fill="#231F20" width="7.5" height="7.5"/>
	<rect x="146.25" y="168.706" fill="#EFD1B8" width="7.5" height="7.5"/>
	<rect x="146.25" y="108.779" fill="#231F20" width="7.5" height="7.5"/>
	<rect x="153.75" y="108.779" fill="#5F3529" width="7.5" height="7.5"/>
</g>
</svg>
