<?xml version="1.0" encoding="utf-8"?>
<!-- Generator: Adobe Illustrator 15.0.2, SVG Export Plug-In . SVG Version: 6.00 Build 0)  -->
<!DOCTYPE svg PUBLIC "-//W3C//DTD SVG 1.1//EN" "http://www.w3.org/Graphics/SVG/1.1/DTD/svg11.dtd">
<svg version="1.1" id="Layer_1" xmlns="http://www.w3.org/2000/svg" xmlns:xlink="http://www.w3.org/1999/xlink" x="0px" y="0px"
	 width="19.5px" height="25.485px" viewBox="0 0 19.5 25.485" enable-background="new 0 0 19.5 25.485" xml:space="preserve">
<g>
	<rect x="6" y="19.485" fill="#EADAB2" width="1.5" height="1.5"/>
	<rect x="7.5" y="19.485" fill="#EADAB2" width="1.5" height="1.5"/>
	<rect x="10.5" y="19.485" fill="#EADAB2" width="1.5" height="1.5"/>
	<rect x="9" y="19.485" fill="#EADAB2" width="1.5" height="1.5"/>
	<rect x="4.5" y="19.485" fill="#EADAB2" width="1.5" height="1.5"/>
	<rect x="3" y="19.485" fill="#FFFFFF" width="1.5" height="1.5"/>
	<rect x="12" y="19.485" fill="#6D6E70" width="1.5" height="1.5"/>
	<rect x="13.5" y="19.485" fill="#EADAB2" width="1.5" height="1.5"/>
	<rect x="6" y="20.985" fill="#EADAB2" width="1.5" height="1.5"/>
	<rect x="7.5" y="20.985" fill="#E8CD8D" width="1.5" height="1.5"/>
	<rect x="10.5" y="20.985" fill="#EADAB2" width="1.5" height="1.5"/>
	<rect x="9" y="20.985" fill="#EADAB2" width="1.5" height="1.5"/>
	<rect x="4.5" y="20.985" fill="#EADAB2" width="1.5" height="1.5"/>
	<rect x="3" y="20.985" fill="#6D6E70" width="1.5" height="1.5"/>
	<rect x="3" y="19.485" fill="#6D6E70" width="1.5" height="1.5"/>
	<rect x="1.5" y="20.985" fill="#EADAB2" width="1.5" height="1.5"/>
	<rect x="12" y="20.985" fill="#6D6E70" width="1.5" height="1.5"/>
	<rect x="13.5" y="20.985" fill="#6D6E70" width="1.5" height="1.5"/>
	<rect x="15" y="20.985" fill="#EADAB2" width="1.5" height="1.5"/>
	<rect x="16.5" y="20.985" fill="#EADAB2" width="1.5" height="1.5"/>
	<rect x="6" y="22.485" fill="#EADAB2" width="1.5" height="1.5"/>
	<rect x="7.5" y="22.485" fill="#E8CD8D" width="1.5" height="1.5"/>
	<rect x="10.5" y="22.485" fill="#6D6E70" width="1.5" height="1.5"/>
	<rect x="9" y="22.485" fill="#EADAB2" width="1.5" height="1.5"/>
	<rect x="4.5" y="22.485" fill="#6D6E70" width="1.5" height="1.5"/>
	<rect x="3" y="22.485" fill="#FFFFFF" width="1.5" height="1.5"/>
	<rect x="1.5" y="22.485" fill="#EADAB2" width="1.5" height="1.5"/>
	<rect x="12" y="22.485" fill="#FFFFFF" width="1.5" height="1.5"/>
	<rect x="13.5" y="22.485" fill="#FFFFFF" width="1.5" height="1.5"/>
	<rect x="15" y="22.485" fill="#EADAB2" width="1.5" height="1.5"/>
	<rect x="16.5" y="22.485" fill="#E8CD8D" width="1.5" height="1.5"/>
	<rect x="6" y="23.985" fill="#FFFFFF" width="1.5" height="1.5"/>
	<rect x="7.5" y="23.985" fill="#6D6E70" width="1.5" height="1.5"/>
	<rect x="10.5" y="23.985" fill="#6D6E70" width="1.5" height="1.5"/>
	<rect x="9" y="23.985" fill="#FFFFFF" width="1.5" height="1.5"/>
	<rect x="4.5" y="23.985" fill="#6D6E70" width="1.5" height="1.5"/>
	<rect x="3" y="23.985" fill="#6D6E70" width="1.5" height="1.5"/>
	<rect x="1.5" y="23.985" fill="#E8CD8D" width="1.5" height="1.5"/>
	<rect y="20.985" fill="#BE1E2D" width="1.5" height="1.5"/>
	<rect y="22.485" fill="#006838" width="1.5" height="1.5"/>
	<rect y="23.985" fill="#EADAB2" width="1.5" height="1.5"/>
	<rect x="12" y="23.985" fill="#6D6E70" width="1.5" height="1.5"/>
	<rect x="13.5" y="23.985" fill="#6D6E70" width="1.5" height="1.5"/>
	<rect x="15" y="23.985" fill="#EADAB2" width="1.5" height="1.5"/>
	<rect x="16.5" y="23.985" fill="#E8CD8D" width="1.5" height="1.5"/>
	<rect x="1.5" y="3" fill="#FFF584" width="1.5" height="1.5"/>
	<rect x="3" y="3" fill="#FFF584" width="1.5" height="1.5"/>
	<rect x="4.5" y="3" fill="#EF648C" width="1.5" height="1.5"/>
	<rect x="6" y="3" fill="#EF648C" width="1.5" height="1.5"/>
	<rect x="7.5" y="3" fill="#EF648C" width="1.5" height="1.5"/>
	<rect x="9" y="3" fill="#FFF584" width="1.5" height="1.5"/>
	<rect x="3" y="4.5" fill="#FFF584" width="1.5" height="1.5"/>
	<rect x="4.5" y="4.5" fill="#EADAB2" width="1.5" height="1.5"/>
	<rect x="6" y="4.5" fill="#D3BA6B" width="1.5" height="1.5"/>
	<rect x="7.5" y="4.5" fill="#EC297B" width="1.5" height="1.5"/>
	<rect x="9" y="4.5" fill="#EF648C" width="1.5" height="1.5"/>
	<rect x="3" y="6" fill="#EADAB2" width="1.5" height="1.5"/>
	<rect x="3" y="7.494" fill="#EADAB2" width="1.5" height="1.5"/>
	<rect x="3" y="8.991" fill="#EADAB2" width="1.5" height="1.5"/>
	<rect x="1.5" y="10.494" fill="#EADAB2" width="1.5" height="1.5"/>
	<rect x="3" y="10.494" fill="#EADAB2" width="1.5" height="1.5"/>
	<rect x="3" y="11.991" fill="#EADAB2" width="1.5" height="1.5"/>
	<rect x="6" y="11.991" fill="#EADAB2" width="1.5" height="1.5"/>
	<rect x="4.5" y="11.991" fill="#EADAB2" width="1.5" height="1.5"/>
	<rect x="7.5" y="11.991" fill="#EADAB2" width="1.5" height="1.5"/>
	<rect x="10.5" y="11.991" fill="#EADAB2" width="1.5" height="1.5"/>
	<rect x="9" y="11.991" fill="#EADAB2" width="1.5" height="1.5"/>
	<rect x="6" y="13.488" fill="#FFFFFF" width="1.5" height="1.5"/>
	<rect x="4.5" y="13.488" fill="#FFFFFF" width="1.5" height="1.5"/>
	<rect x="7.5" y="13.488" fill="#FFFFFF" width="1.5" height="1.5"/>
	<rect x="9" y="13.488" fill="#F497A4" width="1.5" height="1.5"/>
	<rect x="6" y="14.985" fill="#F497A4" width="1.5" height="1.5"/>
	<rect x="4.5" y="14.985" fill="#F497A4" width="1.5" height="1.5"/>
	<rect x="7.5" y="14.985" fill="#F497A4" width="1.5" height="1.5"/>
	<rect x="9" y="14.985" fill="#EADAB2" width="1.5" height="1.5"/>
	<rect x="6" y="16.485" fill="#EADAB2" width="1.5" height="1.5"/>
	<rect x="4.5" y="16.485" fill="#EADAB2" width="1.5" height="1.5"/>
	<rect x="7.5" y="16.485" fill="#EADAB2" width="1.5" height="1.5"/>
	<rect x="6" y="17.985" fill="#E8CD8D" width="1.5" height="1.5"/>
	<rect x="7.5" y="17.985" fill="#E8CD8D" width="1.5" height="1.5"/>
	<rect x="9" y="17.985" fill="#E8CD8D" width="1.5" height="1.5"/>
	<rect x="9" y="16.485" fill="#EADAB2" width="1.5" height="1.5"/>
	<rect x="10.5" y="16.485" fill="#EADAB2" width="1.5" height="1.5"/>
	<rect x="10.5" y="10.494" fill="#EADAB2" width="1.5" height="1.5"/>
	<rect x="12" y="10.494" fill="#D3BA6B" width="1.5" height="1.5"/>
	<rect x="10.5" y="14.985" fill="#EADAB2" width="1.5" height="1.5"/>
	<rect x="10.5" y="13.488" fill="#EADAB2" width="1.5" height="1.5"/>
	<rect x="10.5" y="8.991" fill="#E8CD8D" width="1.5" height="1.5"/>
	<rect x="12" y="8.991" fill="#EF648C" width="1.5" height="1.5"/>
	<rect x="10.5" y="7.494" fill="#E8CD8D" width="1.5" height="1.5"/>
	<rect x="12" y="7.494" fill="#EC297B" width="1.5" height="1.5"/>
	<rect x="13.5" y="8.991" fill="#FFFBD7" width="1.5" height="1.5"/>
	<rect x="13.5" y="7.494" fill="#FFF584" width="1.5" height="1.5"/>
	<rect x="4.5" y="6" fill="#FFF584" width="1.5" height="1.5"/>
	<rect x="6" y="6" fill="#8A5D3B" width="1.5" height="1.5"/>
	<rect x="7.5" y="6" fill="#EADAB2" width="1.5" height="1.5"/>
	<rect x="9" y="6" fill="#D3BA6B" width="1.5" height="1.5"/>
	<rect x="4.5" y="7.494" fill="#EADAB2" width="1.5" height="1.5"/>
	<rect x="6" y="7.491" fill="#EADAB2" width="1.5" height="1.5"/>
	<rect x="7.5" y="7.494" fill="#EADAB2" width="1.5" height="1.5"/>
	<rect x="9" y="7.494" fill="#FFF584" width="1.5" height="1.5"/>
	<rect x="4.5" y="8.991" fill="#596B42" width="1.5" height="1.5"/>
	<rect x="6" y="8.991" fill="#FFFFFF" width="1.5" height="1.5"/>
	<rect x="7.5" y="8.991" fill="#EADAB2" width="1.5" height="1.5"/>
	<rect x="9" y="8.991" fill="#FFF584" width="1.5" height="1.5"/>
	<rect x="4.5" y="10.491" fill="#EADAB2" width="1.5" height="1.5"/>
	<rect x="6" y="10.491" fill="#EADAB2" width="1.5" height="1.5"/>
	<rect x="7.5" y="10.491" fill="#EADAB2" width="1.5" height="1.5"/>
	<rect x="9" y="10.491" fill="#EADAB2" width="1.5" height="1.5"/>
	<rect x="10.5" y="3" fill="#D3BA6B" width="1.5" height="1.5"/>
	<rect x="12" y="3" fill="#FFFBD7" width="1.5" height="1.5"/>
	<rect x="12" y="1.503" fill="#FFF584" width="1.5" height="1.5"/>
	<rect x="13.5" y="1.503" fill="#FFFBD7" width="1.5" height="1.5"/>
	<rect x="3" y="1.503" fill="#EF648C" width="1.5" height="1.5"/>
	<rect x="4.5" y="1.503" fill="#EC297B" width="1.5" height="1.5"/>
	<rect x="6" y="1.503" fill="#EF648C" width="1.5" height="1.5"/>
	<rect x="7.5" y="1.503" fill="#FFF584" width="1.5" height="1.5"/>
	<rect x="9" y="1.503" fill="#FFFBD7" width="1.5" height="1.5"/>
	<rect x="4.5" y="0.003" fill="#FFF584" width="1.5" height="1.5"/>
	<rect x="6" y="0.003" fill="#FFFBD7" width="1.5" height="1.5"/>
	<rect x="7.5" y="0.003" fill="#FFF584" width="1.5" height="1.5"/>
	<rect x="9" y="0.003" fill="#FFFBD7" width="1.5" height="1.5"/>
	<rect x="10.5" y="1.503" fill="#FFFBD7" width="1.5" height="1.5"/>
	<rect x="10.5" fill="#FFF584" width="1.5" height="1.5"/>
	<rect x="12" fill="#FFFBD7" width="1.5" height="1.5"/>
	<rect x="10.5" y="4.5" fill="#FFFBD7" width="1.5" height="1.5"/>
	<rect x="10.5" y="7.494" fill="#D3BA6B" width="1.5" height="1.5"/>
	<rect x="10.5" y="8.991" fill="#FFFBD7" width="1.5" height="1.5"/>
	<rect x="12" y="4.5" fill="#D3BA6B" width="1.5" height="1.5"/>
	<rect x="13.5" y="4.5" fill="#FFF584" width="1.5" height="1.5"/>
	<rect x="13.5" y="3" fill="#FFF584" width="1.5" height="1.5"/>
	<rect x="15" y="3" fill="#FFFBD7" width="1.5" height="1.5"/>
	<rect x="13.5" y="6" fill="#FFFBD7" width="1.5" height="1.5"/>
	<rect x="15" y="6" fill="#FFF584" width="1.5" height="1.5"/>
	<rect x="15" y="4.5" fill="#FFFBD7" width="1.5" height="1.5"/>
	<rect x="15" y="7.5" fill="#FFFBD7" width="1.5" height="1.5"/>
	<rect x="15" y="8.991" fill="#FFF584" width="1.5" height="1.5"/>
	<rect x="15" y="11.994" fill="#FFF584" width="1.5" height="1.5"/>
	<rect x="15" y="13.494" fill="#FFFBD7" width="1.5" height="1.5"/>
	<rect x="13.5" y="11.994" fill="#716558" width="1.5" height="1.5"/>
	<rect x="13.5" y="10.494" fill="#716558" width="1.5" height="1.5"/>
	<rect x="15" y="10.494" fill="#716558" width="1.5" height="1.5"/>
	<rect x="13.5" y="13.494" fill="#FFF584" width="1.5" height="1.5"/>
	<rect x="15" y="14.985" fill="#D3BA6B" width="1.5" height="1.5"/>
	<rect x="16.5" y="13.494" fill="#FFF584" width="1.5" height="1.5"/>
	<rect x="18" y="14.984" fill="#FFFBD7" width="1.5" height="1.5"/>
	<rect x="16.5" y="14.985" fill="#FFF584" width="1.5" height="1.5"/>
	<rect x="13.5" y="14.985" fill="#FFFBD7" width="1.5" height="1.5"/>
	<rect x="15" y="16.485" fill="#FFFBD7" width="1.5" height="1.5"/>
	<rect x="16.5" y="16.485" fill="#FFF584" width="1.5" height="1.5"/>
	<rect x="16.5" y="17.985" fill="#FFF584" width="1.5" height="1.5"/>
	<rect x="18" y="17.985" fill="#D3BA6B" width="1.5" height="1.5"/>
	<rect x="16.5" y="11.987" fill="#FFFBD7" width="1.5" height="1.5"/>
	<rect x="16.5" y="5.997" fill="#FFFBD7" width="1.5" height="1.5"/>
	<rect x="13.5" y="16.485" fill="#FFF584" width="1.5" height="1.5"/>
	<rect x="10.5" y="6" fill="#EF648C" width="1.5" height="1.5"/>
	<rect x="12" y="6" fill="#FFF584" width="1.5" height="1.5"/>
</g>
</svg>
