<?xml version="1.0" encoding="utf-8"?>
<!-- Generator: Adobe Illustrator 15.0.2, SVG Export Plug-In . SVG Version: 6.00 Build 0)  -->
<!DOCTYPE svg PUBLIC "-//W3C//DTD SVG 1.1//EN" "http://www.w3.org/Graphics/SVG/1.1/DTD/svg11.dtd">
<svg version="1.1" id="Layer_1" xmlns="http://www.w3.org/2000/svg" xmlns:xlink="http://www.w3.org/1999/xlink" x="0px" y="0px"
	 width="19.5px" height="29.976px" viewBox="0 0 19.5 29.976" enable-background="new 0 0 19.5 29.976" xml:space="preserve">
<g>
	<rect x="4.5" y="1.5" fill="#58595B" width="1.5" height="1.5"/>
	<rect x="4.5" fill="#6D6E71" width="1.5" height="1.5"/>
	<rect x="3" y="1.5" fill="#231F20" width="1.5" height="1.5"/>
	<rect x="1.5" y="2.99" fill="#414042" width="1.5" height="1.5"/>
	<rect y="1.49" fill="#414042" width="1.5" height="1.5"/>
	<rect x="1.5" y="1.49" fill="#58595B" width="1.5" height="1.5"/>
	<rect x="6" y="1.5" fill="#939598" width="1.5" height="1.5"/>
	<rect x="7.5" y="1.5" fill="#58595B" width="1.5" height="1.5"/>
	<rect x="9" y="1.5" fill="#808285" width="1.5" height="1.5"/>
	<rect x="9" fill="#58595B" width="1.5" height="1.5"/>
	<rect x="3" y="4.497" fill="#3C2415" width="1.5" height="1.5"/>
	<rect x="4.5" y="4.497" fill="#594A42" width="1.5" height="1.5"/>
	<rect x="6" y="4.497" fill="#414042" width="1.5" height="1.5"/>
	<rect x="7.5" y="4.497" fill="#58595B" width="1.5" height="1.5"/>
	<rect x="9" y="4.497" fill="#939598" width="1.5" height="1.5"/>
	<rect x="10.5" y="4.497" fill="#58595B" width="1.5" height="1.5"/>
	<rect x="3" y="5.997" fill="#EADAB2" width="1.5" height="1.5"/>
	<rect x="4.5" y="5.997" fill="#3C2415" width="1.5" height="1.5"/>
	<rect x="6" y="5.997" fill="#3C2415" width="1.5" height="1.5"/>
	<rect x="7.5" y="5.997" fill="#414042" width="1.5" height="1.5"/>
	<rect x="9" y="5.997" fill="#414042" width="1.5" height="1.5"/>
	<rect x="10.5" y="5.997" fill="#939598" width="1.5" height="1.5"/>
	<rect x="3" y="7.497" fill="#EADAB2" width="1.5" height="1.5"/>
	<rect x="4.5" y="7.497" fill="#E8CD8D" width="1.5" height="1.5"/>
	<rect x="3" y="8.991" fill="#3C2415" width="1.5" height="1.5"/>
	<rect x="4.5" y="8.991" fill="#594A42" width="1.5" height="1.5"/>
	<rect x="3" y="11.981" fill="#E8CD8D" width="1.5" height="1.5"/>
	<rect x="4.5" y="11.981" fill="#879260" width="1.5" height="1.5"/>
	<rect x="3" y="13.484" fill="#E8CD8D" width="1.5" height="1.5"/>
	<rect x="4.5" y="13.484" fill="#E8CD8D" width="1.5" height="1.5"/>
	<rect x="3" y="14.981" fill="#231F20" width="1.5" height="1.5"/>
	<rect x="1.5" y="13.856" fill="#E8CD8D" width="1.5" height="1.5"/>
	<rect y="13.856" fill="#E8CD8D" width="1.5" height="1.5"/>
	<rect x="1.5" y="12.356" fill="#E8CD8D" width="1.5" height="1.5"/>
	<rect x="4.5" y="14.981" fill="#3C2415" width="1.5" height="1.5"/>
	<rect x="7.5" y="14.981" fill="#594A42" width="1.5" height="1.5"/>
	<rect x="6" y="14.981" fill="#3C2415" width="1.5" height="1.5"/>
	<rect x="9" y="14.981" fill="#594A42" width="1.5" height="1.5"/>
	<rect x="12" y="14.981" fill="#594A42" width="1.5" height="1.5"/>
	<rect x="10.5" y="14.981" fill="#E8CD8D" width="1.5" height="1.5"/>
	<rect x="7.5" y="16.479" fill="#FFFFFF" width="1.5" height="1.5"/>
	<rect x="6" y="16.479" fill="#FFFFFF" width="1.5" height="1.5"/>
	<rect x="9" y="16.479" fill="#FFFFFF" width="1.5" height="1.5"/>
	<rect x="10.5" y="16.479" fill="#594A42" width="1.5" height="1.5"/>
	<rect x="7.5" y="17.976" fill="#BD202E" width="1.5" height="1.5"/>
	<rect x="6" y="17.976" fill="#BD202E" width="1.5" height="1.5"/>
	<rect x="9" y="17.976" fill="#BD202E" width="1.5" height="1.5"/>
	<rect x="10.5" y="17.976" fill="#3C2415" width="1.5" height="1.5"/>
	<rect x="7.5" y="19.476" fill="#3C2415" width="1.5" height="1.5"/>
	<rect x="6" y="19.476" fill="#3C2415" width="1.5" height="1.5"/>
	<rect x="9" y="19.476" fill="#594A42" width="1.5" height="1.5"/>
	<rect x="7.5" y="20.976" fill="#E8CD8D" width="1.5" height="1.5"/>
	<rect x="9" y="20.976" fill="#E8CD8D" width="1.5" height="1.5"/>
	<rect x="7.5" y="22.476" fill="#FFFFFF" width="1.5" height="1.5"/>
	<rect x="9" y="22.476" fill="#FFFFFF" width="1.5" height="1.5"/>
	<rect x="10.5" y="20.976" fill="#E8CD8D" width="1.5" height="1.5"/>
	<rect x="10.5" y="19.476" fill="#594A42" width="1.5" height="1.5"/>
	<rect x="12" y="19.476" fill="#E8CD8D" width="1.5" height="1.5"/>
	<rect x="12" y="20.976" fill="#14354C" width="1.5" height="1.5"/>
	<rect x="13.5" y="20.976" fill="#334D6B" width="1.5" height="1.5"/>
	<rect x="13.5" y="19.476" fill="#14354C" width="1.5" height="1.5"/>
	<rect x="15" y="20.976" fill="#334D6B" width="1.5" height="1.5"/>
	<rect x="12" y="22.476" fill="#14354C" width="1.5" height="1.5"/>
	<rect x="10.5" y="22.476" fill="#FFFFFF" width="1.5" height="1.5"/>
	<rect x="6" y="22.476" fill="#14354C" width="1.5" height="1.5"/>
	<rect x="6" y="20.976" fill="#6C8394" width="1.5" height="1.5"/>
	<rect x="4.5" y="20.976" fill="#334D6B" width="1.5" height="1.5"/>
	<rect x="3" y="20.976" fill="#14354C" width="1.5" height="1.5"/>
	<rect x="4.5" y="22.476" fill="#334D6B" width="1.5" height="1.5"/>
	<rect x="13.5" y="22.476" fill="#334D6B" width="1.5" height="1.5"/>
	<rect x="15" y="22.476" fill="#6C8394" width="1.5" height="1.5"/>
	<rect x="16.5" y="22.476" fill="#334D6B" width="1.5" height="1.5"/>
	<rect x="18" y="22.476" fill="#334D6B" width="1.5" height="1.5"/>
	<rect x="7.5" y="25.476" fill="#14354C" width="1.5" height="1.5"/>
	<rect x="9" y="25.476" fill="#FFFFFF" width="1.5" height="1.5"/>
	<rect x="12" y="25.476" fill="#334D6B" width="1.5" height="1.5"/>
	<rect x="10.5" y="25.476" fill="#14354C" width="1.5" height="1.5"/>
	<rect x="6" y="25.476" fill="#334D6B" width="1.5" height="1.5"/>
	<rect x="4.5" y="25.476" fill="#6C8394" width="1.5" height="1.5"/>
	<rect x="3" y="25.476" fill="#6C8394" width="1.5" height="1.5"/>
	<rect x="13.5" y="25.476" fill="#8AA7BC" width="1.5" height="1.5"/>
	<rect x="15" y="25.476" fill="#6C8394" width="1.5" height="1.5"/>
	<rect x="16.5" y="25.476" fill="#6C8394" width="1.5" height="1.5"/>
	<rect x="18" y="25.476" fill="#14354C" width="1.5" height="1.5"/>
	<rect x="7.5" y="28.476" fill="#334D6B" width="1.5" height="1.5"/>
	<rect x="9" y="28.476" fill="#6C8394" width="1.5" height="1.5"/>
	<rect x="12" y="28.476" fill="#14354C" width="1.5" height="1.5"/>
	<rect x="10.5" y="28.476" fill="#334D6B" width="1.5" height="1.5"/>
	<rect x="6" y="28.476" fill="#14354C" width="1.5" height="1.5"/>
	<rect x="4.5" y="28.476" fill="#231F20" width="1.5" height="1.5"/>
	<rect x="3" y="28.476" fill="#6C8394" width="1.5" height="1.5"/>
	<rect x="13.5" y="28.476" fill="#231F20" width="1.5" height="1.5"/>
	<rect x="15" y="28.476" fill="#6C8394" width="1.5" height="1.5"/>
	<rect x="16.5" y="28.476" fill="#14354C" width="1.5" height="1.5"/>
	<rect x="18" y="28.476" fill="#6C8394" width="1.5" height="1.5"/>
	<rect x="7.5" y="23.976" fill="#FFFFFF" width="1.5" height="1.5"/>
	<rect x="9" y="23.976" fill="#FFFFFF" width="1.5" height="1.5"/>
	<rect x="12" y="23.976" fill="#14354C" width="1.5" height="1.5"/>
	<rect x="10.5" y="23.976" fill="#FFFFFF" width="1.5" height="1.5"/>
	<rect x="6" y="23.976" fill="#14354C" width="1.5" height="1.5"/>
	<rect x="4.5" y="23.976" fill="#6C8394" width="1.5" height="1.5"/>
	<rect x="3" y="23.976" fill="#334D6B" width="1.5" height="1.5"/>
	<rect x="13.5" y="23.976" fill="#334D6B" width="1.5" height="1.5"/>
	<rect x="15" y="23.976" fill="#14354C" width="1.5" height="1.5"/>
	<rect x="16.5" y="23.976" fill="#8AA7BC" width="1.5" height="1.5"/>
	<rect x="18" y="23.976" fill="#6C8394" width="1.5" height="1.5"/>
	<rect x="7.5" y="26.976" fill="#334D6B" width="1.5" height="1.5"/>
	<rect x="9" y="26.976" fill="#14354C" width="1.5" height="1.5"/>
	<rect x="12" y="26.976" fill="#14354C" width="1.5" height="1.5"/>
	<rect x="10.5" y="26.976" fill="#334D6B" width="1.5" height="1.5"/>
	<rect x="6" y="26.976" fill="#14354C" width="1.5" height="1.5"/>
	<rect x="4.5" y="26.976" fill="#231F20" width="1.5" height="1.5"/>
	<rect x="3" y="26.976" fill="#334D6B" width="1.5" height="1.5"/>
	<rect x="13.5" y="26.976" fill="#231F20" width="1.5" height="1.5"/>
	<rect x="15" y="26.976" fill="#8AA7BC" width="1.5" height="1.5"/>
	<rect x="16.5" y="26.976" fill="#6C8394" width="1.5" height="1.5"/>
	<rect x="18" y="26.976" fill="#8AA7BC" width="1.5" height="1.5"/>
	<rect x="15" y="19.476" fill="#8AA7BC" width="1.5" height="1.5"/>
	<rect x="16.5" y="19.476" fill="#334D6B" width="1.5" height="1.5"/>
	<rect x="13.5" y="14.981" fill="#E8CD8D" width="1.5" height="1.5"/>
	<rect x="12" y="13.484" fill="#3C2415" width="1.5" height="1.5"/>
	<rect x="13.5" y="13.484" fill="#E8CD8D" width="1.5" height="1.5"/>
	<rect x="12" y="17.976" fill="#594A42" width="1.5" height="1.5"/>
	<rect x="13.5" y="17.976" fill="#E8CD8D" width="1.5" height="1.5"/>
	<rect x="12" y="16.479" fill="#3C2415" width="1.5" height="1.5"/>
	<rect x="13.5" y="16.479" fill="#E8CD8D" width="1.5" height="1.5"/>
	<rect x="12" y="11.981" fill="#231F20" width="1.5" height="1.5"/>
	<rect x="13.5" y="11.981" fill="#E8CD8D" width="1.5" height="1.5"/>
	<rect x="12" y="8.991" fill="#58595B" width="1.5" height="1.5"/>
	<rect x="13.5" y="8.991" fill="#58595B" width="1.5" height="1.5"/>
	<rect x="15" y="11.981" fill="#E8CD8D" width="1.5" height="1.5"/>
	<rect x="15" y="10.484" fill="#E8CD8D" width="1.5" height="1.5"/>
	<rect x="6" y="7.497" fill="#3C2415" width="1.5" height="1.5"/>
	<rect x="7.5" y="7.497" fill="#3C2415" width="1.5" height="1.5"/>
	<rect x="9" y="7.497" fill="#3C2415" width="1.5" height="1.5"/>
	<rect x="10.5" y="7.497" fill="#414042" width="1.5" height="1.5"/>
	<rect x="6" y="8.991" fill="#E8CD8D" width="1.5" height="1.5"/>
	<rect x="7.5" y="8.991" fill="#E8CD8D" width="1.5" height="1.5"/>
	<rect x="9" y="8.991" fill="#231F20" width="1.5" height="1.5"/>
	<rect x="10.5" y="8.991" fill="#8B5E3C" width="1.5" height="1.5"/>
	<rect x="3" y="10.484" fill="#E8CD8D" width="1.5" height="1.5"/>
	<rect x="4.5" y="10.484" fill="#E8CD8D" width="1.5" height="1.5"/>
	<rect x="12" y="10.484" fill="#231F20" width="1.5" height="1.5"/>
	<rect x="13.5" y="10.484" fill="#231F20" width="1.5" height="1.5"/>
	<rect x="6" y="10.484" fill="#E8CD8D" width="1.5" height="1.5"/>
	<rect x="7.5" y="10.484" fill="#E8CD8D" width="1.5" height="1.5"/>
	<rect x="9" y="10.484" fill="#E8CD8D" width="1.5" height="1.5"/>
	<rect x="10.5" y="10.484" fill="#E8CD8D" width="1.5" height="1.5"/>
	<rect x="6" y="11.981" fill="#FFFFFF" width="1.5" height="1.5"/>
	<rect x="7.5" y="11.981" fill="#EADAB2" width="1.5" height="1.5"/>
	<rect x="9" y="11.981" fill="#E8CD8D" width="1.5" height="1.5"/>
	<rect x="10.5" y="11.981" fill="#E8CD8D" width="1.5" height="1.5"/>
	<rect x="6" y="13.481" fill="#EADAB2" width="1.5" height="1.5"/>
	<rect x="7.5" y="13.481" fill="#E8CD8D" width="1.5" height="1.5"/>
	<rect x="9" y="13.481" fill="#E8CD8D" width="1.5" height="1.5"/>
	<rect x="10.5" y="13.481" fill="#E8CD8D" width="1.5" height="1.5"/>
	<rect x="12" y="4.497" fill="#58595B" width="1.5" height="1.5"/>
	<rect x="13.5" y="4.497" fill="#808285" width="1.5" height="1.5"/>
	<rect x="3" y="3" fill="#414042" width="1.5" height="1.5"/>
	<rect x="4.5" y="3" fill="#231F20" width="1.5" height="1.5"/>
	<rect x="6" y="3" fill="#58595B" width="1.5" height="1.5"/>
	<rect x="7.5" y="3" fill="#939598" width="1.5" height="1.5"/>
	<rect x="9" y="3" fill="#58595B" width="1.5" height="1.5"/>
	<rect x="10.5" y="3" fill="#58595B" width="1.5" height="1.5"/>
	<rect x="12" y="3" fill="#808285" width="1.5" height="1.5"/>
	<rect x="10.5" y="1.5" fill="#808285" width="1.5" height="1.5"/>
	<rect x="7.5" fill="#808285" width="1.5" height="1.5"/>
	<rect x="6" fill="#58595B" width="1.5" height="1.5"/>
	<rect x="12" y="1.5" fill="#58595B" width="1.5" height="1.5"/>
	<rect x="13.5" y="3" fill="#58595B" width="1.5" height="1.5"/>
	<rect x="15" y="4.497" fill="#58595B" width="1.5" height="1.5"/>
	<rect x="15" y="3" fill="#58595B" width="1.5" height="1.5"/>
	<rect x="12" y="5.997" fill="#939598" width="1.5" height="1.5"/>
	<rect x="13.5" y="5.997" fill="#231F20" width="1.5" height="1.5"/>
	<rect x="12" y="7.497" fill="#58595B" width="1.5" height="1.5"/>
	<rect x="13.5" y="7.497" fill="#939598" width="1.5" height="1.5"/>
	<rect x="15" y="8.991" fill="#939598" width="1.5" height="1.5"/>
	<rect x="15" y="5.997" fill="#58595B" width="1.5" height="1.5"/>
	<rect x="15" y="7.497" fill="#231F20" width="1.5" height="1.5"/>
	<rect x="16.5" y="4.497" fill="#58595B" width="1.5" height="1.5"/>
	<rect x="16.5" y="8.991" fill="#939598" width="1.5" height="1.5"/>
	<rect x="16.5" y="10.505" fill="#939598" width="1.5" height="1.5"/>
	<rect x="16.5" y="5.997" fill="#58595B" width="1.5" height="1.5"/>
	<rect x="16.5" y="7.497" fill="#231F20" width="1.5" height="1.5"/>
</g>
</svg>
