<?xml version="1.0" encoding="utf-8"?>
<!-- Generator: Adobe Illustrator 16.0.0, SVG Export Plug-In . SVG Version: 6.00 Build 0)  -->
<!DOCTYPE svg PUBLIC "-//W3C//DTD SVG 1.1//EN" "http://www.w3.org/Graphics/SVG/1.1/DTD/svg11.dtd">
<svg version="1.1" id="Layer_1" xmlns="http://www.w3.org/2000/svg" xmlns:xlink="http://www.w3.org/1999/xlink" x="0px" y="0px"
	 width="300px" height="300px" viewBox="0 0 300 300" enable-background="new 0 0 300 300" xml:space="preserve">
<g>
	<rect x="120" y="78.811" fill="#2F292B" width="7.5" height="7.5"/>
	<rect x="112.5" y="78.811" fill="#2F292B" width="7.5" height="7.5"/>
	<rect x="127.5" y="78.811" fill="#2F292B" width="7.5" height="7.5"/>
	<rect x="135" y="78.811" fill="#2F292B" width="7.5" height="7.5"/>
	<rect x="142.5" y="78.811" fill="#2F292B" width="7.5" height="7.5"/>
	<rect x="112.5" y="93.796" fill="#2F292B" width="7.5" height="7.5"/>
	<rect x="120" y="93.796" fill="#2F292B" width="7.5" height="7.5"/>
	<rect x="127.5" y="93.796" fill="#2F292B" width="7.5" height="7.5"/>
	<rect x="135" y="93.796" fill="#2F292B" width="7.5" height="7.5"/>
	<rect x="142.5" y="93.796" fill="#2F292B" width="7.5" height="7.5"/>
	<rect x="150" y="93.796" fill="#2F292B" width="7.5" height="7.5"/>
	<rect x="112.5" y="101.296" fill="#EDD69F" width="7.5" height="7.5"/>
	<rect x="105" y="101.296" fill="#2F292B" width="7.5" height="7.5"/>
	<rect x="105" y="93.796" fill="#2F292B" width="7.5" height="7.5"/>
	<rect x="120" y="101.296" fill="#2F292B" width="7.5" height="7.5"/>
	<rect x="127.5" y="101.296" fill="#2F292B" width="7.5" height="7.5"/>
	<rect x="135" y="101.296" fill="#2F292B" width="7.5" height="7.5"/>
	<rect x="142.5" y="101.296" fill="#2F292B" width="7.5" height="7.5"/>
	<rect x="150" y="101.296" fill="#2F292B" width="7.5" height="7.5"/>
	<rect x="112.5" y="108.796" fill="#EDD69F" width="7.5" height="7.5"/>
	<rect x="120" y="108.796" fill="#EDD69F" width="7.5" height="7.5"/>
	<rect x="112.5" y="116.267" fill="#2F292B" width="7.5" height="7.5"/>
	<rect x="120" y="116.267" fill="#2F292B" width="7.5" height="7.5"/>
	<rect x="112.5" y="131.218" fill="#EDD69F" width="7.5" height="7.5"/>
	<rect x="120" y="131.218" fill="#4C2F1C" width="7.5" height="7.5"/>
	<rect x="112.5" y="138.733" fill="#EDD69F" width="7.5" height="7.5"/>
	<rect x="120" y="138.733" fill="#EDD69F" width="7.5" height="7.5"/>
	<rect x="112.5" y="146.218" fill="#EDD69F" width="7.5" height="7.5"/>
	<rect x="105" y="140.593" fill="#EDD69F" width="7.5" height="7.5"/>
	<rect x="120" y="146.218" fill="#EDD69F" width="7.5" height="7.5"/>
	<rect x="135" y="146.218" fill="#EDD69F" width="7.5" height="7.5"/>
	<rect x="127.5" y="146.218" fill="#EDD69F" width="7.5" height="7.5"/>
	<rect x="142.5" y="146.218" fill="#EDD69F" width="7.5" height="7.5"/>
	<rect x="157.5" y="146.218" fill="#EDD69F" width="7.5" height="7.5"/>
	<rect x="150" y="146.218" fill="#EDD69F" width="7.5" height="7.5"/>
	<rect x="135" y="153.704" fill="#FFFFFF" width="7.5" height="7.5"/>
	<rect x="127.5" y="153.704" fill="#FFFFFF" width="7.5" height="7.5"/>
	<rect x="142.5" y="153.704" fill="#FFFFFF" width="7.5" height="7.5"/>
	<rect x="150" y="153.704" fill="#C62C3D" width="7.5" height="7.5"/>
	<rect x="135" y="161.189" fill="#C62C3D" width="7.5" height="7.5"/>
	<rect x="127.5" y="161.189" fill="#C62C3D" width="7.5" height="7.5"/>
	<rect x="142.5" y="161.189" fill="#C62C3D" width="7.5" height="7.5"/>
	<rect x="150" y="161.189" fill="#EDD69F" width="7.5" height="7.5"/>
	<rect x="135" y="168.689" fill="#EDD69F" width="7.5" height="7.5"/>
	<rect x="127.5" y="168.689" fill="#EDD69F" width="7.5" height="7.5"/>
	<rect x="142.5" y="168.689" fill="#EDD69F" width="7.5" height="7.5"/>
	<rect x="135" y="176.189" fill="#EDD69F" width="7.5" height="7.5"/>
	<rect x="142.5" y="176.189" fill="#EDD69F" width="7.5" height="7.5"/>
	<rect x="135" y="183.689" fill="#EDD69F" width="7.5" height="7.5"/>
	<rect x="142.5" y="183.689" fill="#EDD69F" width="7.5" height="7.5"/>
	<rect x="150" y="176.189" fill="#EDD69F" width="7.5" height="7.5"/>
	<rect x="150" y="168.689" fill="#EDD69F" width="7.5" height="7.5"/>
	<rect x="157.5" y="168.689" fill="#EDD69F" width="7.5" height="7.5"/>
	<rect x="157.5" y="176.189" fill="#34A7D0" width="7.5" height="7.5"/>
	<rect x="165" y="176.189" fill="#1EBAED" width="7.5" height="7.5"/>
	<rect x="172.5" y="176.189" fill="#1EBAED" width="7.5" height="7.5"/>
	<rect x="157.5" y="183.689" fill="#34A7D0" width="7.5" height="7.5"/>
	<rect x="150" y="183.689" fill="#EDD69F" width="7.5" height="7.5"/>
	<rect x="127.5" y="183.689" fill="#34A7D0" width="7.5" height="7.5"/>
	<rect x="120" y="183.689" fill="#1EBAED" width="7.5" height="7.5"/>
	<rect x="165" y="183.689" fill="#1EBAED" width="7.5" height="7.5"/>
	<rect x="172.5" y="183.689" fill="#1EBAED" width="7.5" height="7.5"/>
	<rect x="180" y="183.689" fill="#1EBAED" width="7.5" height="7.5"/>
	<rect x="187.5" y="183.689" fill="#1EBAED" width="7.5" height="7.5"/>
	<rect x="135" y="198.689" fill="#1EBAED" width="7.5" height="7.5"/>
	<rect x="142.5" y="198.689" fill="#34A7D0" width="7.5" height="7.5"/>
	<rect x="157.5" y="198.689" fill="#1EBAED" width="7.5" height="7.5"/>
	<rect x="150" y="198.689" fill="#1EBAED" width="7.5" height="7.5"/>
	<rect x="127.5" y="198.689" fill="#1EBAED" width="7.5" height="7.5"/>
	<rect x="120" y="198.689" fill="#34A7D0" width="7.5" height="7.5"/>
	<rect x="112.5" y="198.689" fill="#1EBAED" width="7.5" height="7.5"/>
	<rect x="165" y="198.689" fill="#1EBAED" width="7.5" height="7.5"/>
	<rect x="172.5" y="198.689" fill="#34A7D0" width="7.5" height="7.5"/>
	<rect x="180" y="198.689" fill="#1EBAED" width="7.5" height="7.5"/>
	<rect x="187.5" y="198.689" fill="#1EBAED" width="7.5" height="7.5"/>
	<rect x="135" y="213.689" fill="#FFFFFF" width="7.5" height="7.5"/>
	<rect x="142.5" y="213.689" fill="#1EBAED" width="7.5" height="7.5"/>
	<rect x="157.5" y="213.689" fill="#FFFFFF" width="7.5" height="7.5"/>
	<rect x="150" y="213.689" fill="#FFFFFF" width="7.5" height="7.5"/>
	<rect x="127.5" y="213.689" fill="#1EBAED" width="7.5" height="7.5"/>
	<rect x="120" y="213.689" fill="#EDD69F" width="7.5" height="7.5"/>
	<rect x="112.5" y="213.689" fill="#EDD69F" width="7.5" height="7.5"/>
	<rect x="165" y="213.689" fill="#1EBAED" width="7.5" height="7.5"/>
	<rect x="172.5" y="213.689" fill="#EDD69F" width="7.5" height="7.5"/>
	<rect x="180" y="213.689" fill="#EDD69F" width="7.5" height="7.5"/>
	<rect x="187.5" y="213.689" fill="#EDD69F" width="7.5" height="7.5"/>
	<rect x="135" y="191.189" fill="#34A7D0" width="7.5" height="7.5"/>
	<rect x="142.5" y="191.189" fill="#EDD69F" width="7.5" height="7.5"/>
	<rect x="157.5" y="191.189" fill="#1EBAED" width="7.5" height="7.5"/>
	<rect x="150" y="191.189" fill="#34A7D0" width="7.5" height="7.5"/>
	<rect x="127.5" y="191.189" fill="#1EBAED" width="7.5" height="7.5"/>
	<rect x="120" y="191.189" fill="#1EBAED" width="7.5" height="7.5"/>
	<rect x="112.5" y="191.189" fill="#1EBAED" width="7.5" height="7.5"/>
	<rect x="165" y="191.189" fill="#1EBAED" width="7.5" height="7.5"/>
	<rect x="172.5" y="191.189" fill="#34A7D0" width="7.5" height="7.5"/>
	<rect x="180" y="191.189" fill="#1EBAED" width="7.5" height="7.5"/>
	<rect x="187.5" y="191.189" fill="#1EBAED" width="7.5" height="7.5"/>
	<rect x="135" y="206.189" fill="#1EBAED" width="7.5" height="7.5"/>
	<rect x="142.5" y="206.189" fill="#1EBAED" width="7.5" height="7.5"/>
	<rect x="157.5" y="206.189" fill="#1EBAED" width="7.5" height="7.5"/>
	<rect x="150" y="206.189" fill="#1EBAED" width="7.5" height="7.5"/>
	<rect x="127.5" y="206.189" fill="#1EBAED" width="7.5" height="7.5"/>
	<rect x="120" y="206.189" fill="#34A7D0" width="7.5" height="7.5"/>
	<rect x="112.5" y="206.189" fill="#1EBAED" width="7.5" height="7.5"/>
	<rect x="165" y="206.189" fill="#1EBAED" width="7.5" height="7.5"/>
	<rect x="172.5" y="206.189" fill="#34A7D0" width="7.5" height="7.5"/>
	<rect x="180" y="206.189" fill="#1EBAED" width="7.5" height="7.5"/>
	<rect x="187.5" y="206.189" fill="#1EBAED" width="7.5" height="7.5"/>
	<rect x="165" y="146.218" fill="#EDD69F" width="7.5" height="7.5"/>
	<rect x="157.5" y="138.733" fill="#EDD69F" width="7.5" height="7.5"/>
	<rect x="165" y="138.733" fill="#2F292B" width="7.5" height="7.5"/>
	<rect x="157.5" y="161.189" fill="#EDD69F" width="7.5" height="7.5"/>
	<rect x="165" y="161.189" fill="#EDD69F" width="7.5" height="7.5"/>
	<rect x="157.5" y="153.704" fill="#EDD69F" width="7.5" height="7.5"/>
	<rect x="165" y="153.704" fill="#EDD69F" width="7.5" height="7.5"/>
	<rect x="157.5" y="131.218" fill="#2F292B" width="7.5" height="7.5"/>
	<rect x="165" y="131.218" fill="#EDD69F" width="7.5" height="7.5"/>
	<rect x="157.5" y="116.267" fill="#2F292B" width="7.5" height="7.5"/>
	<rect x="165" y="116.267" fill="#2F292B" width="7.5" height="7.5"/>
	<rect x="172.5" y="131.218" fill="#EDD69F" width="7.5" height="7.5"/>
	<rect x="172.5" y="123.733" fill="#EDD69F" width="7.5" height="7.5"/>
	<rect x="127.5" y="108.796" fill="#2F292B" width="7.5" height="7.5"/>
	<rect x="135" y="108.796" fill="#2F292B" width="7.5" height="7.5"/>
	<rect x="142.5" y="108.796" fill="#2F292B" width="7.5" height="7.5"/>
	<rect x="150" y="108.796" fill="#2F292B" width="7.5" height="7.5"/>
	<rect x="127.5" y="116.267" fill="#EDD69F" width="7.5" height="7.5"/>
	<rect x="135" y="116.267" fill="#EDD69F" width="7.5" height="7.5"/>
	<rect x="142.5" y="116.267" fill="#2F292B" width="7.5" height="7.5"/>
	<rect x="150" y="116.267" fill="#2F292B" width="7.5" height="7.5"/>
	<rect x="112.5" y="123.733" fill="#EDD69F" width="7.5" height="7.5"/>
	<rect x="120" y="123.733" fill="#EDD69F" width="7.5" height="7.5"/>
	<rect x="157.5" y="123.733" fill="#2F292B" width="7.5" height="7.5"/>
	<rect x="165" y="123.733" fill="#2F292B" width="7.5" height="7.5"/>
	<rect x="127.5" y="123.733" fill="#EDD69F" width="7.5" height="7.5"/>
	<rect x="135" y="123.733" fill="#EDD69F" width="7.5" height="7.5"/>
	<rect x="142.5" y="123.733" fill="#2F292B" width="7.5" height="7.5"/>
	<rect x="150" y="123.733" fill="#EDD69F" width="7.5" height="7.5"/>
	<rect x="127.5" y="131.218" fill="#FFFFFF" width="7.5" height="7.5"/>
	<rect x="135" y="131.218" fill="#EDD69F" width="7.5" height="7.5"/>
	<rect x="142.5" y="131.218" fill="#2F292B" width="7.5" height="7.5"/>
	<rect x="150" y="131.218" fill="#EDD69F" width="7.5" height="7.5"/>
	<rect x="127.5" y="138.718" fill="#EDD69F" width="7.5" height="7.5"/>
	<rect x="135" y="138.718" fill="#EDD69F" width="7.5" height="7.5"/>
	<rect x="142.5" y="138.718" fill="#EDD69F" width="7.5" height="7.5"/>
	<rect x="150" y="138.718" fill="#EDD69F" width="7.5" height="7.5"/>
	<rect x="157.5" y="93.796" fill="#2F292B" width="7.5" height="7.5"/>
	<rect x="165" y="93.796" fill="#2F292B" width="7.5" height="7.5"/>
	<rect x="112.5" y="86.311" fill="#2F292B" width="7.5" height="7.5"/>
	<rect x="120" y="86.311" fill="#2F292B" width="7.5" height="7.5"/>
	<rect x="127.5" y="86.311" fill="#2F292B" width="7.5" height="7.5"/>
	<rect x="135" y="86.311" fill="#2F292B" width="7.5" height="7.5"/>
	<rect x="142.5" y="86.311" fill="#2F292B" width="7.5" height="7.5"/>
	<rect x="150" y="86.311" fill="#2F292B" width="7.5" height="7.5"/>
	<rect x="157.5" y="86.311" fill="#2F292B" width="7.5" height="7.5"/>
	<rect x="150" y="78.811" fill="#2F292B" width="7.5" height="7.5"/>
	<rect x="157.5" y="78.811" fill="#2F292B" width="7.5" height="7.5"/>
	<rect x="165" y="86.311" fill="#2F292B" width="7.5" height="7.5"/>
	<rect x="172.5" y="93.796" fill="#2F292B" width="7.5" height="7.5"/>
	<rect x="172.5" y="86.311" fill="#2F292B" width="7.5" height="7.5"/>
	<rect x="157.5" y="101.296" fill="#2F292B" width="7.5" height="7.5"/>
	<rect x="165" y="101.296" fill="#2F292B" width="7.5" height="7.5"/>
	<rect x="157.5" y="108.796" fill="#2F292B" width="7.5" height="7.5"/>
	<rect x="165" y="108.796" fill="#2F292B" width="7.5" height="7.5"/>
	<rect x="172.5" y="116.267" fill="#2F292B" width="7.5" height="7.5"/>
	<rect x="172.5" y="101.296" fill="#2F292B" width="7.5" height="7.5"/>
	<rect x="172.5" y="108.796" fill="#2F292B" width="7.5" height="7.5"/>
	<rect x="180" y="131.25" fill="#2F292B" width="7.5" height="7.5"/>
	<rect x="180" y="123.779" fill="#2F292B" width="7.5" height="7.5"/>
	<rect x="180" y="116.294" fill="#2F292B" width="7.5" height="7.5"/>
	<rect x="180" y="108.794" fill="#2F292B" width="7.5" height="7.5"/>
	<rect x="172.5" y="146.204" fill="#2F292B" width="7.5" height="7.5"/>
	<rect x="180" y="146.204" fill="#2F292B" width="7.5" height="7.5"/>
	<rect x="172.5" y="138.733" fill="#2F292B" width="7.5" height="7.5"/>
</g>
</svg>
