<?xml version="1.0" encoding="utf-8"?>
<!-- Generator: Adobe Illustrator 16.0.0, SVG Export Plug-In . SVG Version: 6.00 Build 0)  -->
<!DOCTYPE svg PUBLIC "-//W3C//DTD SVG 1.1//EN" "http://www.w3.org/Graphics/SVG/1.1/DTD/svg11.dtd">
<svg version="1.1" id="Layer_1" xmlns="http://www.w3.org/2000/svg" xmlns:xlink="http://www.w3.org/1999/xlink" x="0px" y="0px"
	 width="300px" height="300px" viewBox="0 0 300 300" enable-background="new 0 0 300 300" xml:space="preserve">
<g>
	<rect x="135.015" y="202.451" fill="#EFD1B8" width="7.5" height="7.5"/>
	<rect x="142.515" y="202.451" fill="#EFD1B8" width="7.5" height="7.5"/>
	<rect x="157.495" y="202.451" fill="#EFD1B8" width="7.5" height="7.5"/>
	<rect x="150.015" y="202.451" fill="#EFD1B8" width="7.5" height="7.5"/>
	<rect x="127.48" y="202.451" fill="#EF4136" width="7.5" height="7.5"/>
	<rect x="119.966" y="202.451" fill="#EF4136" width="7.5" height="7.5"/>
	<rect x="112.495" y="202.451" fill="#EF4136" width="7.5" height="7.5"/>
	<rect x="164.995" y="202.451" fill="#EF4136" width="7.5" height="7.5"/>
	<rect x="172.495" y="202.451" fill="#EF4136" width="7.5" height="7.5"/>
	<rect x="187.505" y="202.451" fill="#EFD1B8" width="7.5" height="7.5"/>
	<rect x="187.505" y="194.951" fill="#EFCFC0" width="7.5" height="7.5"/>
	<rect x="135.029" y="217.451" fill="#EF4136" width="7.5" height="7.5"/>
	<rect x="142.529" y="217.451" fill="#EF4136" width="7.5" height="7.5"/>
	<rect x="157.495" y="217.451" fill="#EF4136" width="7.5" height="7.5"/>
	<rect x="150.029" y="217.451" fill="#EF4136" width="7.5" height="7.5"/>
	<rect x="127.495" y="217.451" fill="#EF4136" width="7.5" height="7.5"/>
	<rect x="119.966" y="217.451" fill="#EF4136" width="7.5" height="7.5"/>
	<rect x="112.495" y="217.451" fill="#EF4136" width="7.5" height="7.5"/>
	<rect x="164.995" y="217.451" fill="#EF4136" width="7.5" height="7.5"/>
	<rect x="172.495" y="217.451" fill="#EF4136" width="7.5" height="7.5"/>
	<rect x="187.505" y="217.451" fill="#EFD1B8" width="7.5" height="7.5"/>
	<rect x="134.995" y="194.951" fill="#EFCFC0" width="7.5" height="7.5"/>
	<rect x="142.495" y="194.951" fill="#ECEEEE" width="7.5" height="7.5"/>
	<rect x="157.495" y="194.951" fill="#EFCFC0" width="7.5" height="7.5"/>
	<rect x="149.995" y="194.961" fill="#E4E3D6" width="7.5" height="7.5"/>
	<rect x="142.495" y="187.451" fill="#EFD1B8" width="7.5" height="7.5"/>
	<rect x="149.995" y="187.451" fill="#EFD1B8" width="7.5" height="7.5"/>
	<rect x="127.495" y="194.951" fill="#FFFFFF" width="7.5" height="7.5"/>
	<rect x="112.495" y="194.951" fill="#FFFFFF" width="7.5" height="7.5"/>
	<rect x="164.995" y="194.951" fill="#42607E" width="7.5" height="7.5"/>
	<rect x="172.495" y="194.951" fill="#FFFFFF" width="7.5" height="7.5"/>
	<rect x="112.495" y="187.451" fill="#8B5E3C" width="7.5" height="7.5"/>
	<rect x="104.995" y="187.451" fill="#FDF287" width="7.5" height="7.5"/>
	<rect x="135.015" y="209.951" fill="#EF4136" width="7.5" height="7.5"/>
	<rect x="142.515" y="209.951" fill="#FFFFFF" width="7.5" height="7.5"/>
	<rect x="157.495" y="209.951" fill="#FFFFFF" width="7.5" height="7.5"/>
	<rect x="150.015" y="209.951" fill="#EF4136" width="7.5" height="7.5"/>
	<rect x="127.48" y="209.951" fill="#FFFFFF" width="7.5" height="7.5"/>
	<rect x="119.966" y="209.951" fill="#EF4136" width="7.5" height="7.5"/>
	<rect x="112.495" y="209.951" fill="#FFFFFF" width="7.5" height="7.5"/>
	<rect x="104.995" y="202.451" fill="#EFD1B8" width="7.5" height="7.5"/>
	<rect x="104.995" y="194.971" fill="#EFCFC0" width="7.5" height="7.5"/>
	<rect x="104.995" y="217.451" fill="#EFD1B8" width="7.5" height="7.5"/>
	<rect x="104.995" y="209.951" fill="#EFD1B8" width="7.5" height="7.5"/>
	<rect x="97.495" y="202.451" fill="#EFCFC0" width="7.5" height="7.5"/>
	<rect x="97.495" y="217.451" fill="#EFD1B8" width="7.5" height="7.5"/>
	<rect x="97.495" y="209.951" fill="#EFD1B8" width="7.5" height="7.5"/>
	<rect x="164.995" y="209.951" fill="#EF4136" width="7.5" height="7.5"/>
	<rect x="172.495" y="209.951" fill="#FFFFFF" width="7.5" height="7.5"/>
	<rect x="187.505" y="209.951" fill="#EFD1B8" width="7.5" height="7.5"/>
	<rect x="195.005" y="202.451" fill="#EFCFC0" width="7.5" height="7.5"/>
	<rect x="195.005" y="217.451" fill="#EFD1B8" width="7.5" height="7.5"/>
	<rect x="195.005" y="209.951" fill="#EFCFC0" width="7.5" height="7.5"/>
	<rect x="112.495" y="90.029" fill="#E8E2B8" width="7.5" height="7.5"/>
	<rect x="119.995" y="90.029" fill="#EFCFC0" width="7.5" height="7.5"/>
	<rect x="127.495" y="90.029" fill="#EFD1B8" width="7.5" height="7.5"/>
	<rect x="134.995" y="90.029" fill="#8B5E3C" width="7.5" height="7.5"/>
	<rect x="142.495" y="90.029" fill="#FDF287" width="7.5" height="7.5"/>
	<rect x="112.495" y="97.529" fill="#EFCFC0" width="7.5" height="7.5"/>
	<rect x="119.995" y="97.529" fill="#EFD1B8" width="7.5" height="7.5"/>
	<rect x="127.495" y="97.529" fill="#EFD1B8" width="7.5" height="7.5"/>
	<rect x="134.995" y="97.529" fill="#EFD1B8" width="7.5" height="7.5"/>
	<rect x="142.495" y="97.529" fill="#8B5E3C" width="7.5" height="7.5"/>
	<rect x="112.495" y="105.029" fill="#EFCFC0" width="7.5" height="7.5"/>
	<rect x="112.495" y="112.5" fill="#EFD1B8" width="7.5" height="7.5"/>
	<rect x="112.495" y="119.99" fill="#EFD1B8" width="7.5" height="7.5"/>
	<rect x="104.995" y="127.5" fill="#EFD1B8" width="7.5" height="7.5"/>
	<rect x="97.495" y="127.5" fill="#EFD1B8" width="7.5" height="7.5"/>
	<rect x="104.995" y="120.01" fill="#EFCFC0" width="7.5" height="7.5"/>
	<rect x="112.495" y="127.5" fill="#EFD1B8" width="7.5" height="7.5"/>
	<rect x="112.495" y="134.99" fill="#EFD1B8" width="7.5" height="7.5"/>
	<rect x="127.495" y="134.99" fill="#EFCFC0" width="7.5" height="7.5"/>
	<rect x="119.995" y="134.99" fill="#EFD1B8" width="7.5" height="7.5"/>
	<rect x="134.995" y="134.99" fill="#F3D9D0" width="7.5" height="7.5"/>
	<rect x="149.995" y="134.99" fill="#EFD1B8" width="7.5" height="7.5"/>
	<rect x="142.495" y="134.99" fill="#EFD1B8" width="7.5" height="7.5"/>
	<rect x="127.495" y="142.471" fill="#FFFFFF" width="7.5" height="7.5"/>
	<rect x="119.995" y="142.471" fill="#FFFFFF" width="7.5" height="7.5"/>
	<rect x="134.995" y="142.471" fill="#D36368" width="7.5" height="7.5"/>
	<rect x="142.495" y="142.471" fill="#F3D9D0" width="7.5" height="7.5"/>
	<rect x="127.495" y="149.961" fill="#D28F8C" width="7.5" height="7.49"/>
	<rect x="119.995" y="149.961" fill="#D28F8C" width="7.5" height="7.49"/>
	<rect x="134.995" y="149.961" fill="#EFD1B8" width="7.5" height="7.49"/>
	<rect x="142.495" y="149.961" fill="#EFD1B8" width="7.5" height="7.49"/>
	<rect x="127.495" y="157.451" fill="#EFD1B8" width="7.5" height="7.5"/>
	<rect x="119.995" y="157.451" fill="#EFCFC0" width="7.5" height="7.5"/>
	<rect x="134.995" y="157.451" fill="#EFD1B8" width="7.5" height="7.5"/>
	<rect x="127.495" y="164.951" fill="#EFCFC0" width="7.5" height="7.5"/>
	<rect x="134.995" y="164.951" fill="#EFD1B8" width="7.5" height="7.5"/>
	<rect x="134.995" y="172.451" fill="#E5B29B" width="7.5" height="7.5"/>
	<rect x="142.495" y="164.951" fill="#EFD1B8" width="7.5" height="7.5"/>
	<rect x="142.495" y="157.451" fill="#EFD1B8" width="7.5" height="7.5"/>
	<rect x="149.995" y="157.451" fill="#EFD1B8" width="7.5" height="7.5"/>
	<rect x="142.495" y="172.451" fill="#FFFFFF" width="7.5" height="7.5"/>
	<rect x="149.995" y="172.451" fill="#EFD1B8" width="7.5" height="7.5"/>
	<rect x="142.495" y="172.451" fill="#E5B29B" width="7.5" height="7.5"/>
	<rect x="142.495" y="179.951" fill="#EFD1B8" width="7.5" height="7.5"/>
	<rect x="135.029" y="179.951" fill="#EFD1B8" width="7.5" height="7.5"/>
	<rect x="149.995" y="179.951" fill="#EFD1B8" width="7.5" height="7.5"/>
	<rect x="164.995" y="172.451" fill="#FDF287" width="7.5" height="7.5"/>
	<rect x="157.495" y="187.451" fill="#ECEEEE" width="7.5" height="7.5"/>
	<rect x="134.995" y="187.451" fill="#E4E3D6" width="7.5" height="7.5"/>
	<rect x="157.495" y="134.99" fill="#FFFFFF" width="7.5" height="7.5"/>
	<rect x="149.995" y="127.5" fill="#EFD1B8" width="7.5" height="7.5"/>
	<rect x="157.495" y="127.5" fill="#FDF287" width="7.5" height="7.5"/>
	<rect x="149.995" y="149.961" fill="#EFD1B8" width="7.5" height="7.49"/>
	<rect x="157.495" y="149.961" fill="#947B42" width="7.5" height="7.49"/>
	<rect x="149.995" y="142.471" fill="#EFD1B8" width="7.5" height="7.5"/>
	<rect x="157.495" y="142.471" fill="#BDA880" width="7.5" height="7.5"/>
	<rect x="149.995" y="119.99" fill="#EEE1BF" width="7.5" height="7.5"/>
	<rect x="157.495" y="119.99" fill="#FFFAD8" width="7.5" height="7.5"/>
	<rect x="149.995" y="112.5" fill="#E4CA97" width="7.5" height="7.5"/>
	<rect x="157.495" y="112.5" fill="#8B5E3C" width="7.5" height="7.5"/>
	<rect x="164.995" y="119.99" fill="#BDA880" width="7.5" height="7.5"/>
	<rect x="164.995" y="112.5" fill="#E8E2B8" width="7.5" height="7.5"/>
	<rect x="119.995" y="105.02" fill="#BDA880" width="7.5" height="7.5"/>
	<rect x="127.495" y="105.02" fill="#E8E2B8" width="7.5" height="7.5"/>
	<rect x="134.995" y="105" fill="#EFD1B8" width="7.5" height="7.5"/>
	<rect x="142.495" y="105.029" fill="#FFFAD8" width="7.5" height="7.5"/>
	<rect x="119.995" y="112.5" fill="#EFD1B8" width="7.5" height="7.5"/>
	<rect x="127.495" y="112.5" fill="#EFD1B8" width="7.5" height="7.5"/>
	<rect x="134.995" y="112.49" fill="#EFD1B8" width="7.5" height="7.5"/>
	<rect x="142.495" y="112.471" fill="#EFD1B8" width="7.5" height="7.5"/>
	<rect x="119.995" y="119.99" fill="#7F95A5" width="7.5" height="7.5"/>
	<rect x="127.495" y="119.99" fill="#FFFFFF" width="7.5" height="7.5"/>
	<rect x="119.995" y="127.49" fill="#EFCFC0" width="7.5" height="7.5"/>
	<rect x="127.495" y="127.49" fill="#F3D9D0" width="7.5" height="7.5"/>
	<rect x="134.995" y="119.99" fill="#EFD1B8" width="7.5" height="7.5"/>
	<rect x="142.495" y="119.99" fill="#EFD1B8" width="7.5" height="7.5"/>
	<rect x="134.995" y="127.49" fill="#EFD1B8" width="7.5" height="7.5"/>
	<rect x="142.495" y="127.49" fill="#EFD1B8" width="7.5" height="7.5"/>
	<rect x="149.995" y="90.029" fill="#BDA880" width="7.5" height="7.5"/>
	<rect x="157.495" y="90.029" fill="#E8E2B8" width="7.5" height="7.5"/>
	<rect x="149.995" y="75.049" fill="#947B42" width="7.5" height="7.5"/>
	<rect x="157.495" y="82.549" fill="#E4CA97" width="7.5" height="7.5"/>
	<rect x="112.495" y="82.549" fill="#E4CA97" width="7.5" height="7.5"/>
	<rect x="104.995" y="97.529" fill="#E8E2B8" width="7.5" height="7.5"/>
	<rect x="119.995" y="82.549" fill="#E8E2B8" width="7.5" height="7.5"/>
	<rect x="127.495" y="82.549" fill="#FDF287" width="7.5" height="7.5"/>
	<rect x="134.995" y="82.549" fill="#BDA880" width="7.5" height="7.5"/>
	<rect x="142.495" y="82.549" fill="#947B42" width="7.5" height="7.5"/>
	<rect x="119.995" y="75.049" fill="#E4CA97" width="7.5" height="7.5"/>
	<rect x="127.495" y="75.049" fill="#E8E2B8" width="7.5" height="7.5"/>
	<rect x="134.995" y="75.049" fill="#FDF287" width="7.5" height="7.5"/>
	<rect x="142.495" y="75.049" fill="#BDA880" width="7.5" height="7.5"/>
	<rect x="149.995" y="82.549" fill="#E8E2B8" width="7.5" height="7.5"/>
	<rect x="149.995" y="97.529" fill="#FDF287" width="7.5" height="7.5"/>
	<rect x="149.995" y="112.5" fill="#FFFAD8" width="7.5" height="7.5"/>
	<rect x="149.995" y="119.99" fill="#FDF287" width="7.5" height="7.5"/>
	<rect x="157.495" y="97.529" fill="#BDA880" width="7.5" height="7.5"/>
	<rect x="164.995" y="97.529" fill="#E8E2B8" width="7.5" height="7.5"/>
	<rect x="164.995" y="90.029" fill="#E4CA97" width="7.5" height="7.5"/>
	<rect x="164.995" y="105.029" fill="#BDA880" width="7.5" height="7.5"/>
	<rect x="172.495" y="105.029" fill="#FDF287" width="7.5" height="7.5"/>
	<rect x="172.495" y="97.529" fill="#E4CA97" width="7.5" height="7.5"/>
	<rect x="157.495" y="75.049" fill="#E4CA97" width="7.5" height="7.5"/>
	<rect x="164.995" y="82.549" fill="#FFFAD8" width="7.5" height="7.5"/>
	<rect x="172.495" y="90.029" fill="#FFFAD8" width="7.5" height="7.5"/>
	<rect x="172.495" y="112.529" fill="#FDF287" width="7.5" height="7.5"/>
	<rect x="172.495" y="119.99" fill="#E8E2B8" width="7.5" height="7.5"/>
	<rect x="172.495" y="135" fill="#E8E2B8" width="7.5" height="7.5"/>
	<rect x="172.495" y="127.5" fill="#E8E2B8" width="7.5" height="7.5"/>
	<rect x="172.495" y="142.5" fill="#FDF287" width="7.5" height="7.5"/>
	<rect x="179.995" y="157.451" fill="#FDF287" width="7.5" height="7.5"/>
	<rect x="179.995" y="164.951" fill="#E4CA97" width="7.5" height="7.5"/>
	<rect x="179.995" y="172.451" fill="#E4CA97" width="7.5" height="7.5"/>
	<rect x="179.995" y="179.951" fill="#FFFAD8" width="7.5" height="7.5"/>
	<rect x="179.995" y="142.48" fill="#E8E2B8" width="7.5" height="7.5"/>
	<rect x="164.995" y="135" fill="#FDF287" width="7.5" height="7.5"/>
	<rect x="164.995" y="127.5" fill="#BDA880" width="7.5" height="7.5"/>
	<rect x="164.995" y="142.5" fill="#E4CA97" width="7.5" height="7.5"/>
	<rect x="172.495" y="149.961" fill="#FDF287" width="7.5" height="7.49"/>
	<rect x="179.995" y="149.941" fill="#E8E2B8" width="7.5" height="7.49"/>
	<rect x="187.505" y="157.451" fill="#E8E2B8" width="7.5" height="7.5"/>
	<rect x="187.505" y="164.951" fill="#FDF287" width="7.5" height="7.5"/>
	<rect x="187.505" y="172.451" fill="#E8E2B8" width="7.5" height="7.5"/>
	<rect x="187.505" y="179.951" fill="#E4CA97" width="7.5" height="7.5"/>
	<rect x="187.505" y="187.451" fill="#FFFAD8" width="7.5" height="7.5"/>
	<rect x="195.005" y="179.951" fill="#E4CA97" width="7.5" height="7.5"/>
	<rect x="195.005" y="187.451" fill="#FDF287" width="7.5" height="7.5"/>
	<rect x="187.505" y="149.941" fill="#E4CA97" width="7.5" height="7.49"/>
	<rect x="179.995" y="134.98" fill="#E4CA97" width="7.5" height="7.5"/>
	<rect x="179.995" y="120.01" fill="#FDF287" width="7.5" height="7.5"/>
	<rect x="179.995" y="127.471" fill="#E4CA97" width="7.5" height="7.49"/>
	<rect x="164.995" y="149.961" fill="#FFFAD8" width="7.5" height="7.49"/>
	<rect x="172.495" y="157.451" fill="#FFFAD8" width="7.5" height="7.5"/>
	<rect x="164.995" y="187.451" fill="#FFFAD8" width="7.5" height="7.5"/>
	<rect x="164.995" y="194.951" fill="#EF4136" width="7.5" height="7.5"/>
	<rect x="179.985" y="202.471" fill="#EF4136" width="7.5" height="7.5"/>
	<rect x="180.005" y="217.451" fill="#EF4136" width="7.5" height="7.5"/>
	<rect x="179.985" y="194.971" fill="#EF4136" width="7.5" height="7.5"/>
	<rect x="180.005" y="209.951" fill="#EF4136" width="7.5" height="7.5"/>
	<rect x="179.995" y="187.451" fill="#EF4136" width="7.5" height="7.5"/>
	<rect x="172.495" y="187.451" fill="#FDF287" width="7.5" height="7.5"/>
	<rect x="127.495" y="172.451" fill="#BDA880" width="7.5" height="7.5"/>
	<rect x="119.995" y="172.451" fill="#FDF287" width="7.5" height="7.5"/>
	<rect x="127.495" y="179.951" fill="#BDA880" width="7.5" height="7.5"/>
	<rect x="119.995" y="179.951" fill="#8B5E3C" width="7.5" height="7.5"/>
	<rect x="112.495" y="172.451" fill="#E4CA97" width="7.5" height="7.5"/>
	<rect x="112.495" y="179.951" fill="#FDF287" width="7.5" height="7.5"/>
	<rect x="119.966" y="164.951" fill="#BDA880" width="7.5" height="7.5"/>
	<rect x="119.966" y="187.451" fill="#E8E2B8" width="7.5" height="7.5"/>
	<rect x="127.495" y="187.451" fill="#EF4136" width="7.5" height="7.5"/>
	<rect x="119.966" y="194.951" fill="#E4CA97" width="7.5" height="7.5"/>
	<rect x="164.995" y="157.451" fill="#E4CA97" width="7.5" height="7.5"/>
	<rect x="172.495" y="164.951" fill="#FFFAD8" width="7.5" height="7.5"/>
	<rect x="172.495" y="172.451" fill="#FFFAD8" width="7.5" height="7.5"/>
	<rect x="172.495" y="179.951" fill="#E4CA97" width="7.5" height="7.5"/>
	<rect x="164.995" y="164.951" fill="#947B42" width="7.5" height="7.5"/>
	<rect x="157.495" y="157.451" fill="#947B42" width="7.5" height="7.5"/>
	<rect x="157.495" y="164.951" fill="#FFFBD7" width="7.5" height="7.5"/>
	<rect x="157.495" y="172.451" fill="#FFFBD7" width="7.5" height="7.5"/>
	<rect x="157.495" y="179.951" fill="#EFD1B8" width="7.5" height="7.5"/>
	<rect x="149.995" y="164.951" fill="#E5B29B" width="7.5" height="7.5"/>
	<rect x="164.995" y="179.951" fill="#FDF287" width="7.5" height="7.5"/>
	<rect x="149.995" y="105.029" fill="#8B5E3C" width="7.5" height="7.5"/>
	<rect x="157.495" y="105.029" fill="#E4CA97" width="7.5" height="7.5"/>
</g>
</svg>
