<?xml version="1.0" encoding="utf-8"?>
<!-- Generator: Adobe Illustrator 16.0.0, SVG Export Plug-In . SVG Version: 6.00 Build 0)  -->
<!DOCTYPE svg PUBLIC "-//W3C//DTD SVG 1.1//EN" "http://www.w3.org/Graphics/SVG/1.1/DTD/svg11.dtd">
<svg version="1.1" id="Layer_1" xmlns="http://www.w3.org/2000/svg" xmlns:xlink="http://www.w3.org/1999/xlink" x="0px" y="0px"
	 width="300px" height="300px" viewBox="0 0 300 300" enable-background="new 0 0 300 300" xml:space="preserve">
<g>
	<rect x="159" y="182.957" fill="#1C75BC" width="6" height="6"/>
	<rect x="135" y="182.957" fill="#1C75BC" width="6" height="6"/>
	<rect x="129" y="182.957" fill="#879260" width="6" height="6"/>
	<rect x="135" y="176.973" fill="#1C75BC" width="6" height="6"/>
	<rect x="129" y="176.941" fill="#1C75BC" width="6" height="6"/>
	<rect x="123" y="176.941" fill="#1C75BC" width="6" height="6"/>
	<rect x="165" y="182.957" fill="#879260" width="6" height="6"/>
	<rect x="159" y="176.941" fill="#1C75BC" width="6" height="6"/>
	<rect x="165" y="176.941" fill="#1C75BC" width="6" height="6"/>
	<rect x="171" y="176.941" fill="#1C75BC" width="6" height="6"/>
	<rect x="141" y="194.957" fill="#1C75BC" width="6" height="6"/>
	<rect x="147" y="194.957" fill="#1C75BC" width="6" height="6"/>
	<rect x="159" y="194.957" fill="#879260" width="6" height="6"/>
	<rect x="153" y="194.957" fill="#1C75BC" width="6" height="6"/>
	<rect x="135" y="194.957" fill="#879260" width="6" height="6"/>
	<rect x="129" y="194.957" fill="#879260" width="6" height="6"/>
	<rect x="123" y="194.957" fill="#879260" width="6" height="6"/>
	<rect x="165" y="194.957" fill="#879260" width="6" height="6"/>
	<rect x="171" y="194.957" fill="#879260" width="6" height="6"/>
	<rect x="177" y="194.957" fill="#879260" width="6" height="6"/>
	<rect x="183" y="194.957" fill="#879260" width="6" height="6"/>
	<rect x="141" y="206.957" fill="#879260" width="6" height="6"/>
	<rect x="147" y="206.957" fill="#879260" width="6" height="6"/>
	<rect x="159" y="206.957" fill="#879260" width="6" height="6"/>
	<rect x="153" y="206.957" fill="#879260" width="6" height="6"/>
	<rect x="135" y="206.957" fill="#879260" width="6" height="6"/>
	<rect x="129" y="206.957" fill="#596B42" width="6" height="6"/>
	<rect x="123" y="206.957" fill="#879260" width="6" height="6"/>
	<rect x="165" y="206.957" fill="#596B42" width="6" height="6"/>
	<rect x="171" y="206.957" fill="#879260" width="6" height="6"/>
	<rect x="177" y="206.957" fill="#879260" width="6" height="6"/>
	<rect x="183" y="206.957" fill="#879260" width="6" height="6"/>
	<rect x="141" y="188.957" fill="#1C75BC" width="6" height="6"/>
	<rect x="147" y="188.957" fill="#EFD1B8" width="6" height="6"/>
	<rect x="159" y="188.957" fill="#1C75BC" width="6" height="6"/>
	<rect x="153" y="188.957" fill="#1C75BC" width="6" height="6"/>
	<rect x="135" y="188.957" fill="#1C75BC" width="6" height="6"/>
	<rect x="129" y="188.957" fill="#879260" width="6" height="6"/>
	<rect x="123" y="188.957" fill="#879260" width="6" height="6"/>
	<rect x="165" y="188.957" fill="#879260" width="6" height="6"/>
	<rect x="171" y="188.949" fill="#879260" width="6" height="6"/>
	<rect x="177" y="188.957" fill="#879260" width="6" height="6"/>
	<rect x="141" y="200.957" fill="#879260" width="6" height="6"/>
	<rect x="147" y="200.957" fill="#1C75BC" width="6" height="6"/>
	<rect x="159" y="200.957" fill="#879260" width="6" height="6"/>
	<rect x="153" y="200.957" fill="#879260" width="6" height="6"/>
	<rect x="135" y="200.957" fill="#879260" width="6" height="6"/>
	<rect x="129" y="200.957" fill="#879260" width="6" height="6"/>
	<rect x="123" y="200.957" fill="#879260" width="6" height="6"/>
	<rect x="117" y="194.957" fill="#879260" width="6" height="6"/>
	<rect x="117" y="206.957" fill="#879260" width="6" height="6"/>
	<rect x="117" y="200.957" fill="#879260" width="6" height="6"/>
	<rect x="165" y="200.957" fill="#879260" width="6" height="6"/>
	<rect x="171" y="200.957" fill="#879260" width="6" height="6"/>
	<rect x="177" y="200.957" fill="#879260" width="6" height="6"/>
	<rect x="183" y="200.957" fill="#879260" width="6" height="6"/>
	<rect x="129" y="93.043" fill="#231F20" width="6" height="6"/>
	<rect x="117" y="93.043" fill="#231F20" width="6" height="6"/>
	<rect x="135" y="93.043" fill="#231F20" width="6" height="6"/>
	<rect x="129" y="87.043" fill="#231F20" width="6" height="6"/>
	<rect x="141" y="93.043" fill="#231F20" width="6" height="6"/>
	<rect x="147" y="93.043" fill="#231F20" width="6" height="6"/>
	<rect x="123" y="105.031" fill="#F7E0CF" width="6" height="6"/>
	<rect x="129" y="105.031" fill="#EFD1B8" width="6" height="6"/>
	<rect x="135" y="105.031" fill="#EFD1B8" width="6" height="6"/>
	<rect x="141" y="105.031" fill="#EFD1B8" width="6" height="6"/>
	<rect x="147" y="105.031" fill="#EED0C6" width="6" height="6"/>
	<rect x="153" y="105.031" fill="#EED0C6" width="6" height="6"/>
	<rect x="123" y="111.031" fill="#F7E0CF" width="6" height="6"/>
	<rect x="129" y="111.031" fill="#EFD1B8" width="6" height="6"/>
	<rect x="135" y="111.031" fill="#EFD1B8" width="6" height="6"/>
	<rect x="141" y="111.031" fill="#EFD1B8" width="6" height="6"/>
	<rect x="147" y="111.031" fill="#EFD1B8" width="6" height="6"/>
	<rect x="153" y="111.031" fill="#EED0C6" width="6" height="6"/>
	<rect x="123" y="117.031" fill="#F7E0CF" width="6" height="5.996"/>
	<rect x="129" y="117.031" fill="#F7E0CF" width="6" height="5.996"/>
	<rect x="123" y="123.004" fill="#EFD1B8" width="6" height="6"/>
	<rect x="129" y="123.004" fill="#414042" width="6" height="6"/>
	<rect x="123" y="134.965" fill="#EFD1B8" width="6" height="6"/>
	<rect x="129" y="134.965" fill="#3B2314" width="6" height="6"/>
	<rect x="123" y="140.98" fill="#EFD1B8" width="6" height="6"/>
	<rect x="129" y="140.98" fill="#EFCFC0" width="6" height="6"/>
	<rect x="123" y="146.965" fill="#D7BFAA" width="6" height="6"/>
	<rect x="117" y="140.98" fill="#EFD1B8" width="6" height="6"/>
	<rect x="111" y="140.98" fill="#EED0C6" width="6" height="6"/>
	<rect x="117" y="134.98" fill="#EED0C6" width="6" height="6"/>
	<rect x="129" y="146.965" fill="#D7BFAA" width="6" height="6"/>
	<rect x="141" y="146.965" fill="#D7BFAA" width="6" height="6"/>
	<rect x="135" y="146.965" fill="#D7BFAA" width="6" height="6"/>
	<rect x="147" y="146.965" fill="#EFCFC0" width="6" height="6"/>
	<rect x="159" y="146.965" fill="#EFD1B8" width="6" height="6"/>
	<rect x="153" y="146.965" fill="#EFD1B8" width="6" height="6"/>
	<rect x="141" y="152.957" fill="#FFFFFF" width="6" height="6"/>
	<rect x="135" y="152.957" fill="#FFFFFF" width="6" height="6"/>
	<rect x="147" y="152.957" fill="#FFFFFF" width="6" height="6"/>
	<rect x="153" y="152.957" fill="#BB807B" width="6" height="6"/>
	<rect x="141" y="158.941" fill="#D28F8C" width="6" height="6"/>
	<rect x="135" y="158.941" fill="#D28F8C" width="6" height="6"/>
	<rect x="147" y="158.941" fill="#BB807B" width="6" height="6"/>
	<rect x="153" y="158.941" fill="#EFD1B8" width="6" height="6"/>
	<rect x="141" y="164.941" fill="#EFD1B8" width="6" height="6"/>
	<rect x="135" y="164.941" fill="#EFD1B8" width="6" height="6"/>
	<rect x="147" y="164.941" fill="#EFD1B8" width="6" height="6"/>
	<rect x="141" y="170.941" fill="#D7BFAA" width="6" height="6"/>
	<rect x="147" y="170.941" fill="#EFD1B8" width="6" height="6"/>
	<rect x="153" y="170.941" fill="#EFD1B8" width="6" height="6"/>
	<rect x="141" y="176.91" fill="#EFD1B8" width="6" height="6"/>
	<rect x="147" y="176.91" fill="#D7BFAA" width="6" height="6"/>
	<rect x="153" y="176.91" fill="#EFD1B8" width="6" height="6"/>
	<rect x="141" y="182.957" fill="#EFD1B8" width="6" height="6"/>
	<rect x="147" y="182.957" fill="#EFD1B8" width="6" height="6"/>
	<rect x="153" y="182.957" fill="#EFD1B8" width="6" height="6"/>
	<rect x="153" y="164.941" fill="#EFD1B8" width="6" height="6"/>
	<rect x="165" y="146.965" fill="#EFD1B8" width="6" height="6"/>
	<rect x="165" y="152.957" fill="#EFD1B8" width="6" height="6"/>
	<rect x="159" y="140.98" fill="#EFD1B8" width="6" height="6"/>
	<rect x="165" y="140.98" fill="#EFD1B8" width="6" height="6"/>
	<rect x="159" y="158.941" fill="#EFD1B8" width="6" height="6"/>
	<rect x="159" y="152.957" fill="#EFD1B8" width="6" height="6"/>
	<rect x="159" y="134.965" fill="#414042" width="6" height="6"/>
	<rect x="165" y="134.965" fill="#EFC8A6" width="6" height="6"/>
	<rect x="159" y="123.004" fill="#414042" width="6" height="6"/>
	<rect x="165" y="123.004" fill="#231F20" width="6" height="6"/>
	<rect x="171" y="140.941" fill="#EFD1B8" width="6" height="6"/>
	<rect x="171" y="134.949" fill="#EFD1B8" width="6" height="6"/>
	<rect x="135" y="117.031" fill="#EFD1B8" width="6" height="5.996"/>
	<rect x="141" y="117.031" fill="#EFD1B8" width="6" height="5.996"/>
	<rect x="147" y="117.031" fill="#EFD1B8" width="6" height="5.996"/>
	<rect x="153" y="117.031" fill="#414042" width="6" height="5.996"/>
	<rect x="135" y="123.004" fill="#594A42" width="6" height="6"/>
	<rect x="141" y="123.004" fill="#EFD1B8" width="6" height="6"/>
	<rect x="147" y="123.004" fill="#EFD1B8" width="6" height="6"/>
	<rect x="153" y="123.004" fill="#231F20" width="6" height="6"/>
	<rect x="123" y="128.98" fill="#EFD1B8" width="6" height="6"/>
	<rect x="129" y="128.98" fill="#EFD1B8" width="6" height="6"/>
	<rect x="159" y="128.98" fill="#231F20" width="6" height="6"/>
	<rect x="165" y="128.98" fill="#414042" width="6" height="6"/>
	<rect x="135" y="128.98" fill="#EFD1B8" width="6" height="6"/>
	<rect x="141" y="128.98" fill="#EFD1B8" width="6" height="6"/>
	<rect x="147" y="128.98" fill="#EFD1B8" width="6" height="6"/>
	<rect x="153" y="128.98" fill="#EFD1B8" width="6" height="6"/>
	<rect x="135" y="134.965" fill="#FFFFFF" width="6" height="6"/>
	<rect x="141" y="134.965" fill="#EFD1B8" width="6" height="6"/>
	<rect x="147" y="134.965" fill="#EFD1B8" width="6" height="6"/>
	<rect x="153" y="134.965" fill="#EFD1B8" width="6" height="6"/>
	<rect x="135" y="140.965" fill="#EED0C6" width="6" height="6"/>
	<rect x="141" y="140.965" fill="#EFCFC0" width="6" height="6"/>
	<rect x="147" y="140.965" fill="#EFD1B8" width="6" height="6"/>
	<rect x="153" y="140.965" fill="#EFD1B8" width="6" height="6"/>
	<rect x="159" y="105.031" fill="#414042" width="6" height="6"/>
	<rect x="165" y="105.031" fill="#231F20" width="6" height="6"/>
	<rect x="123" y="99.043" fill="#414042" width="6" height="6"/>
	<rect x="129" y="99.043" fill="#231F20" width="6" height="6"/>
	<rect x="135" y="99.043" fill="#231F20" width="6" height="6"/>
	<rect x="141" y="99.043" fill="#414042" width="6" height="6"/>
	<rect x="147" y="99.043" fill="#231F20" width="6" height="6"/>
	<rect x="153" y="99.043" fill="#231F20" width="6" height="6"/>
	<rect x="159" y="99.043" fill="#231F20" width="6" height="6"/>
	<rect x="153" y="93.043" fill="#231F20" width="6" height="6"/>
	<rect x="159" y="93.043" fill="#414042" width="6" height="6"/>
	<rect x="165" y="99.043" fill="#231F20" width="6" height="6"/>
	<rect x="171" y="105.031" fill="#231F20" width="6" height="6"/>
	<rect x="159" y="111.031" fill="#231F20" width="6" height="6"/>
	<rect x="165" y="111.031" fill="#414042" width="6" height="6"/>
	<rect x="159" y="117.031" fill="#231F20" width="6" height="5.996"/>
	<rect x="165" y="117.031" fill="#231F20" width="6" height="5.996"/>
	<rect x="171" y="128.98" fill="#EFD1B8" width="6" height="6"/>
	<rect x="171" y="111.031" fill="#231F20" width="6" height="6"/>
	<rect x="171" y="117.031" fill="#231F20" width="6" height="5.996"/>
	<rect x="171" y="123.004" fill="#231F20" width="6" height="6"/>
	<rect x="177" y="134.988" fill="#EFD1B8" width="6" height="6"/>
	<rect x="177" y="128.996" fill="#EFD1B8" width="6" height="6"/>
</g>
</svg>
