<?xml version="1.0" encoding="utf-8"?>
<!-- Generator: Adobe Illustrator 15.0.2, SVG Export Plug-In . SVG Version: 6.00 Build 0)  -->
<!DOCTYPE svg PUBLIC "-//W3C//DTD SVG 1.1//EN" "http://www.w3.org/Graphics/SVG/1.1/DTD/svg11.dtd">
<svg version="1.1" id="Layer_1" xmlns="http://www.w3.org/2000/svg" xmlns:xlink="http://www.w3.org/1999/xlink" x="0px" y="0px"
	 width="24px" height="29.982px" viewBox="0 0 24 29.982" enable-background="new 0 0 24 29.982" xml:space="preserve">
<g>
	<rect x="4.5" y="7.498" fill="#473733" width="1.5" height="1.5"/>
	<rect x="6" y="7.498" fill="#563D2D" width="1.5" height="1.5"/>
	<rect x="7.5" y="7.498" fill="#563D2D" width="1.5" height="1.5"/>
	<rect x="9" y="7.498" fill="#29292A" width="1.5" height="1.5"/>
	<rect x="10.5" y="7.497" fill="#29292A" width="1.5" height="1.5"/>
	<rect x="3" y="8.998" fill="#473733" width="1.5" height="1.5"/>
	<rect x="4.5" y="8.998" fill="#6A4333" width="1.5" height="1.5"/>
	<rect x="6" y="8.997" fill="#6A4333" width="1.5" height="1.5"/>
	<rect x="7.5" y="8.997" fill="#563D2D" width="1.5" height="1.5"/>
	<rect x="9" y="8.997" fill="#563D2D" width="1.5" height="1.5"/>
	<rect x="10.5" y="8.998" fill="#563D2D" width="1.5" height="1.5"/>
	<rect x="3" y="10.498" fill="#231F20" width="1.5" height="1.5"/>
	<rect x="4.5" y="10.498" fill="#231F20" width="1.5" height="1.5"/>
	<rect x="3" y="11.992" fill="#231F20" width="1.5" height="1.5"/>
	<rect x="4.5" y="11.992" fill="#422D20" width="1.5" height="1.5"/>
	<rect x="3" y="13.49" fill="#231F20" width="1.5" height="1.5"/>
	<rect x="4.5" y="13.49" fill="#231F20" width="1.5" height="1.5"/>
	<rect x="3" y="14.992" fill="#563D2D" width="1.5" height="1.5"/>
	<rect x="4.5" y="14.992" fill="#563D2D" width="1.5" height="1.5"/>
	<rect x="3" y="16.488" fill="#3B2F31" width="1.5" height="1.5"/>
	<rect x="1.5" y="13.488" fill="#6A4333" width="1.5" height="1.5"/>
	<rect x="1.5" y="11.988" fill="#6A4333" width="1.5" height="1.5"/>
	<rect x="4.5" y="16.488" fill="#3B2F31" width="1.5" height="1.5"/>
	<rect x="7.5" y="16.488" fill="#3B2F31" width="1.5" height="1.5"/>
	<rect x="6" y="16.488" fill="#3B2F31" width="1.5" height="1.5"/>
	<rect x="9" y="16.488" fill="#473733" width="1.5" height="1.5"/>
	<rect x="12" y="16.488" fill="#29292A" width="1.5" height="1.5"/>
	<rect x="10.5" y="16.488" fill="#29292A" width="1.5" height="1.5"/>
	<rect x="7.5" y="17.985" fill="#FFFFFF" width="1.5" height="1.5"/>
	<rect x="6" y="17.985" fill="#FFFFFF" width="1.5" height="1.5"/>
	<rect x="4.5" y="17.985" fill="#FFFFFF" width="1.5" height="1.5"/>
	<rect x="9" y="17.985" fill="#9D575A" width="1.5" height="1.5"/>
	<rect x="10.5" y="17.985" fill="#29292A" width="1.5" height="1.5"/>
	<rect x="7.5" y="19.482" fill="#9D575A" width="1.5" height="1.5"/>
	<rect x="6" y="19.482" fill="#AD6D67" width="1.5" height="1.5"/>
	<rect x="9" y="19.482" fill="#29292A" width="1.5" height="1.5"/>
	<rect x="10.5" y="19.482" fill="#231F20" width="1.5" height="1.5"/>
	<rect x="7.5" y="20.982" fill="#231F20" width="1.5" height="1.5"/>
	<rect x="6" y="20.982" fill="#231F20" width="1.5" height="1.5"/>
	<rect x="4.5" y="19.482" fill="#AD6D67" width="1.5" height="1.5"/>
	<rect x="4.5" y="20.982" fill="#231F20" width="1.5" height="1.5"/>
	<rect x="6" y="22.482" fill="#231F20" width="1.5" height="1.5"/>
	<rect x="9" y="20.982" fill="#231F20" width="1.5" height="1.5"/>
	<rect x="7.5" y="22.482" fill="#231F20" width="1.5" height="1.5"/>
	<rect x="9" y="22.482" fill="#231F20" width="1.5" height="1.5"/>
	<rect x="10.5" y="22.482" fill="#563D2D" width="1.5" height="1.5"/>
	<rect x="10.5" y="20.982" fill="#231F20" width="1.5" height="1.5"/>
	<rect x="12" y="20.982" fill="#29292A" width="1.5" height="1.5"/>
	<rect x="12" y="22.482" fill="#563D2D" width="1.5" height="1.5"/>
	<rect x="7.5" y="25.482" fill="#00051D" width="1.5" height="1.5"/>
	<rect x="9" y="25.482" fill="#563D2D" width="1.5" height="1.5"/>
	<rect x="12" y="25.482" fill="#001B30" width="1.5" height="1.5"/>
	<rect x="10.5" y="25.482" fill="#00051D" width="1.5" height="1.5"/>
	<rect x="6" y="25.482" fill="#001B30" width="1.5" height="1.5"/>
	<rect x="6" y="26.982" fill="#001B30" width="1.5" height="1.5"/>
	<rect x="4.5" y="25.482" fill="#00051D" width="1.5" height="1.5"/>
	<rect x="3" y="25.482" fill="#12558B" width="1.5" height="1.5"/>
	<rect x="13.5" y="25.482" fill="#001B30" width="1.5" height="1.5"/>
	<rect x="16.5" y="25.482" fill="#1C75BC" width="1.5" height="1.5"/>
	<rect x="18" y="25.482" fill="#1C75BC" width="1.5" height="1.5"/>
	<rect x="19.5" y="25.482" fill="#1C75BC" width="1.5" height="1.5"/>
	<rect x="7.5" y="28.482" fill="#00051D" width="1.5" height="1.5"/>
	<rect x="9" y="28.482" fill="#001B30" width="1.5" height="1.5"/>
	<rect x="12" y="28.482" fill="#00051D" width="1.5" height="1.5"/>
	<rect x="10.5" y="28.482" fill="#001B30" width="1.5" height="1.5"/>
	<rect x="6" y="28.482" fill="#001B30" width="1.5" height="1.5"/>
	<rect x="4.5" y="28.482" fill="#B6C8D8" width="1.5" height="1.5"/>
	<rect x="3" y="28.482" fill="#12558B" width="1.5" height="1.5"/>
	<rect x="13.5" y="28.482" fill="#001B30" width="1.5" height="1.5"/>
	<rect x="16.5" y="28.482" fill="#B6C8D8" width="1.5" height="1.5"/>
	<rect x="18" y="28.482" fill="#12558B" width="1.5" height="1.5"/>
	<rect x="19.5" y="28.482" fill="#12558B" width="1.5" height="1.5"/>
	<rect x="7.5" y="23.982" fill="#563D2D" width="1.5" height="1.5"/>
	<rect x="9" y="23.982" fill="#563D2D" width="1.5" height="1.5"/>
	<rect x="12" y="23.982" fill="#001B30" width="1.5" height="1.5"/>
	<rect x="10.5" y="23.982" fill="#563D2D" width="1.5" height="1.5"/>
	<rect x="6" y="23.982" fill="#001B30" width="1.5" height="1.5"/>
	<rect x="4.5" y="23.982" fill="#001B30" width="1.5" height="1.5"/>
	<rect x="4.5" y="22.482" fill="#001B30" width="1.5" height="1.5"/>
	<rect x="3" y="22.482" fill="#001B30" width="1.5" height="1.5"/>
	<rect x="3" y="23.982" fill="#00051D" width="1.5" height="1.5"/>
	<rect x="13.5" y="23.982" fill="#001B30" width="1.5" height="1.5"/>
	<rect x="16.5" y="23.982" fill="#00051D" width="1.5" height="1.5"/>
	<rect x="18" y="23.982" fill="#1C75BC" width="1.5" height="1.5"/>
	<rect x="18" y="22.482" fill="#001B30" width="1.5" height="1.5"/>
	<rect x="19.5" y="23.982" fill="#B6C8D8" width="1.5" height="1.5"/>
	<rect x="7.5" y="26.982" fill="#001B30" width="1.5" height="1.5"/>
	<rect x="9" y="26.982" fill="#001B30" width="1.5" height="1.5"/>
	<rect x="12" y="26.982" fill="#001B30" width="1.5" height="1.5"/>
	<rect x="10.5" y="26.982" fill="#001B30" width="1.5" height="1.5"/>
	<rect x="6" y="26.982" fill="#00051D" width="1.5" height="1.5"/>
	<rect x="4.5" y="26.982" fill="#12558B" width="1.5" height="1.5"/>
	<rect x="3" y="26.982" fill="#12558B" width="1.5" height="1.5"/>
	<rect x="1.5" y="25.482" fill="#B6C8D8" width="1.5" height="1.5"/>
	<rect x="1.5" y="23.982" fill="#001B30" width="1.5" height="1.5"/>
	<rect x="1.5" y="28.482" fill="#27AAE1" width="1.5" height="1.5"/>
	<rect x="1.5" y="26.982" fill="#12558B" width="1.5" height="1.5"/>
	<rect y="25.482" fill="#001B30" width="1.5" height="1.5"/>
	<rect y="28.482" fill="#001B30" width="1.5" height="1.5"/>
	<rect y="26.982" fill="#001B30" width="1.5" height="1.5"/>
	<rect x="13.5" y="26.982" fill="#00051D" width="1.5" height="1.5"/>
	<rect x="15" y="25.482" fill="#001B30" width="1.5" height="1.5"/>
	<rect x="15" y="28.482" fill="#001B30" width="1.5" height="1.5"/>
	<rect x="15" y="23.982" fill="#001B30" width="1.5" height="1.5"/>
	<rect x="15" y="22.482" fill="#001B30" width="1.5" height="1.5"/>
	<rect x="15" y="26.982" fill="#00051D" width="1.5" height="1.5"/>
	<rect x="16.5" y="26.982" fill="#B6C8D8" width="1.5" height="1.5"/>
	<rect x="18" y="26.982" fill="#1C75BC" width="1.5" height="1.5"/>
	<rect x="19.5" y="26.982" fill="#12558B" width="1.5" height="1.5"/>
	<rect x="21" y="25.482" fill="#001B30" width="1.5" height="1.5"/>
	<rect x="21" y="23.982" fill="#001B30" width="1.5" height="1.5"/>
	<rect x="21" y="28.482" fill="#12558B" width="1.5" height="1.5"/>
	<rect x="21" y="26.982" fill="#001B30" width="1.5" height="1.5"/>
	<rect x="22.5" y="26.982" fill="#001B30" width="1.5" height="1.5"/>
	<rect x="22.5" y="25.482" fill="#001B30" width="1.5" height="1.5"/>
	<rect x="22.5" y="28.482" fill="#001B30" width="1.5" height="1.5"/>
	<rect x="13.5" y="16.488" fill="#29292A" width="1.5" height="1.5"/>
	<rect x="12" y="14.991" fill="#29292A" width="1.5" height="1.5"/>
	<rect x="13.5" y="14.991" fill="#231F20" width="1.5" height="1.5"/>
	<rect x="12" y="19.482" fill="#231F20" width="1.5" height="1.5"/>
	<rect x="13.5" y="19.482" fill="#29292A" width="1.5" height="1.5"/>
	<rect x="12" y="17.985" fill="#231F20" width="1.5" height="1.5"/>
	<rect x="13.5" y="17.985" fill="#29292A" width="1.5" height="1.5"/>
	<rect x="15" y="16.488" fill="#563D2D" width="1.5" height="1.5"/>
	<rect x="15" y="14.991" fill="#563D2D" width="1.5" height="1.5"/>
	<rect x="15" y="19.482" fill="#563D2D" width="1.5" height="1.5"/>
	<rect x="16.5" y="19.482" fill="#563D2D" width="1.5" height="1.5"/>
	<rect x="13.5" y="20.982" fill="#563D2D" width="1.5" height="1.5"/>
	<rect x="13.5" y="22.482" fill="#563D2D" width="1.5" height="1.5"/>
	<rect x="15" y="20.982" fill="#563D2D" width="1.5" height="1.5"/>
	<rect x="16.5" y="22.482" fill="#001B30" width="1.5" height="1.5"/>
	<rect x="18" y="20.982" fill="#001B30" width="1.5" height="1.5"/>
	<rect x="19.5" y="20.982" fill="#001B30" width="1.5" height="1.5"/>
	<rect x="16.5" y="20.982" fill="#001B30" width="1.5" height="1.5"/>
	<rect x="15" y="17.985" fill="#563D2D" width="1.5" height="1.5"/>
	<rect x="12" y="13.488" fill="#29292A" width="1.5" height="1.5"/>
	<rect x="13.5" y="13.488" fill="#29292A" width="1.5" height="1.5"/>
	<rect x="12" y="11.991" fill="#563D2D" width="1.5" height="1.5"/>
	<rect x="13.5" y="11.991" fill="#231F20" width="1.5" height="1.5"/>
	<rect x="15" y="13.488" fill="#563D2D" width="1.5" height="1.5"/>
	<rect x="15" y="11.991" fill="#473733" width="1.5" height="1.5"/>
	<rect x="6" y="10.498" fill="#231F20" width="1.5" height="1.5"/>
	<rect x="7.5" y="10.498" fill="#231F20" width="1.5" height="1.5"/>
	<rect x="9" y="10.498" fill="#231F20" width="1.5" height="1.5"/>
	<rect x="10.5" y="10.498" fill="#231F20" width="1.5" height="1.5"/>
	<rect x="6" y="11.991" fill="#AA6D2D" width="1.5" height="1.5"/>
	<rect x="7.5" y="11.991" fill="#231F20" width="1.5" height="1.5"/>
	<rect x="6" y="11.991" fill="#FFFFFF" width="1.5" height="1.5"/>
	<rect x="9" y="11.992" fill="#563D2D" width="1.5" height="1.5"/>
	<rect x="10.5" y="11.992" fill="#563D2D" width="1.5" height="1.5"/>
	<rect x="6" y="13.49" fill="#231F20" width="1.5" height="1.5"/>
	<rect x="7.5" y="13.49" fill="#231F20" width="1.5" height="1.5"/>
	<rect x="9" y="13.49" fill="#6A4333" width="1.5" height="1.5"/>
	<rect x="10.5" y="13.488" fill="#563D2D" width="1.5" height="1.5"/>
	<rect x="6" y="14.988" fill="#563D2D" width="1.5" height="1.5"/>
	<rect x="7.5" y="14.988" fill="#6A4333" width="1.5" height="1.5"/>
	<rect x="9" y="14.988" fill="#563D2D" width="1.5" height="1.5"/>
	<rect x="10.5" y="14.988" fill="#563D2D" width="1.5" height="1.5"/>
	<rect x="12" y="7.497" fill="#231F20" width="1.5" height="1.5"/>
	<rect x="13.5" y="7.497" fill="#231F20" width="1.5" height="1.5"/>
	<rect x="3" y="7.498" fill="#473733" width="1.5" height="1.5"/>
	<rect x="3" y="6.001" fill="#473733" width="1.5" height="1.501"/>
	<rect x="3" y="4.5" fill="#231F20" width="1.5" height="1.5"/>
	<rect x="4.5" y="6" fill="#563D2D" width="1.5" height="1.5"/>
	<rect x="6" y="6.001" fill="#563D2D" width="1.5" height="1.501"/>
	<rect x="7.5" y="6.001" fill="#563D2D" width="1.5" height="1.501"/>
	<rect x="9" y="6.001" fill="#231F20" width="1.5" height="1.501"/>
	<rect x="10.5" y="6" fill="#231F20" width="1.5" height="1.5"/>
	<rect x="12" y="6" fill="#231F20" width="1.5" height="1.5"/>
	<rect x="4.5" y="4.5" fill="#231F20" width="1.5" height="1.5"/>
	<rect x="4.5" y="3" fill="#231F20" width="1.5" height="1.5"/>
	<rect x="3" y="3" fill="#231F20" width="1.5" height="1.5"/>
	<rect x="6" y="1.5" fill="#231F20" width="1.5" height="1.5"/>
	<rect x="6" y="3" fill="#231F20" width="1.5" height="1.5"/>
	<rect x="7.5" y="3" fill="#231F20" width="1.5" height="1.5"/>
	<rect x="9" y="3" fill="#29292A" width="1.5" height="1.5"/>
	<rect x="10.5" y="3" fill="#231F20" width="1.5" height="1.5"/>
	<rect x="12" y="4.5" fill="#231F20" width="1.5" height="1.5"/>
	<rect x="12" y="3" fill="#231F20" width="1.5" height="1.5"/>
	<rect x="7.5" y="1.5" fill="#231F20" width="1.5" height="1.5"/>
	<rect x="4.5" y="1.5" fill="#231F20" width="1.5" height="1.5"/>
	<rect x="9" y="1.5" fill="#231F20" width="1.5" height="1.5"/>
	<rect x="10.5" y="1.5" fill="#29292A" width="1.5" height="1.5"/>
	<rect x="12" y="1.5" fill="#231F20" width="1.5" height="1.5"/>
	<rect x="6" fill="#231F20" width="1.5" height="1.5"/>
	<rect x="7.5" fill="#231F20" width="1.5" height="1.5"/>
	<rect x="9" fill="#231F20" width="1.5" height="1.5"/>
	<rect x="10.5" fill="#29292A" width="1.5" height="1.5"/>
	<rect x="12" fill="#231F20" width="1.5" height="1.5"/>
	<rect x="16.5" y="3" fill="#231F20" width="1.5" height="1.5"/>
	<rect x="15" y="3" fill="#231F20" width="1.5" height="1.5"/>
	<rect x="13.5" y="4.5" fill="#231F20" width="1.5" height="1.5"/>
	<rect x="6" y="4.5" fill="#231F20" width="1.5" height="1.5"/>
	<rect x="7.5" y="4.5" fill="#29292A" width="1.5" height="1.5"/>
	<rect x="9" y="4.5" fill="#231F20" width="1.5" height="1.5"/>
	<rect x="10.5" y="4.5" fill="#231F20" width="1.5" height="1.5"/>
	<rect x="13.5" y="6" fill="#29292A" width="1.5" height="1.5"/>
	<rect x="12" y="8.997" fill="#29292A" width="1.5" height="1.5"/>
	<rect x="13.5" y="8.997" fill="#231F20" width="1.5" height="1.5"/>
	<rect x="12" y="10.497" fill="#231F20" width="1.5" height="1.5"/>
	<rect x="13.5" y="10.497" fill="#231F20" width="1.5" height="1.5"/>
	<rect x="15" y="7.497" fill="#231F20" width="1.5" height="1.5"/>
	<rect x="15" y="6" fill="#231F20" width="1.5" height="1.5"/>
	<rect x="15" y="4.5" fill="#231F20" width="1.5" height="1.5"/>
	<rect x="13.5" y="3" fill="#29292A" width="1.5" height="1.5"/>
	<rect x="15" y="1.5" fill="#231F20" width="1.5" height="1.5"/>
	<rect x="13.5" y="1.5" fill="#29292A" width="1.5" height="1.5"/>
	<rect x="15" y="8.997" fill="#231F20" width="1.5" height="1.5"/>
	<rect x="16.5" y="7.497" fill="#231F20" width="1.5" height="1.5"/>
	<rect x="16.5" y="6" fill="#231F20" width="1.5" height="1.5"/>
	<rect x="16.5" y="4.5" fill="#231F20" width="1.5" height="1.5"/>
	<rect x="16.5" y="8.997" fill="#231F20" width="1.5" height="1.5"/>
	<rect x="18" y="7.497" fill="#231F20" width="1.5" height="1.5"/>
	<rect x="18" y="11.991" fill="#231F20" width="1.5" height="1.5"/>
	<rect x="18" y="10.494" fill="#231F20" width="1.5" height="1.5"/>
	<rect x="18" y="8.998" fill="#231F20" width="1.5" height="1.5"/>
	<rect x="18" y="6" fill="#231F20" width="1.5" height="1.5"/>
	<rect x="18" y="4.498" fill="#231F20" width="1.5" height="1.5"/>
	<rect x="18" y="13.491" fill="#231F20" width="1.5" height="1.5"/>
	<rect x="16.5" y="16.486" fill="#231F20" width="1.5" height="1.5"/>
	<rect x="16.5" y="14.989" fill="#231F20" width="1.5" height="1.5"/>
	<rect x="18" y="14.991" fill="#231F20" width="1.5" height="1.5"/>
	<rect x="16.5" y="17.986" fill="#29292A" width="1.5" height="1.5"/>
	<rect x="15" y="10.497" fill="#231F20" width="1.5" height="1.5"/>
	<rect x="16.5" y="13.488" fill="#563D2D" width="1.5" height="1.5"/>
	<rect x="16.5" y="11.991" fill="#563D2D" width="1.5" height="1.5"/>
	<rect x="16.5" y="10.497" fill="#563D2D" width="1.5" height="1.5"/>
</g>
</svg>
