<?xml version="1.0" encoding="utf-8"?>
<!-- Generator: Adobe Illustrator 15.0.2, SVG Export Plug-In . SVG Version: 6.00 Build 0)  -->
<!DOCTYPE svg PUBLIC "-//W3C//DTD SVG 1.1//EN" "http://www.w3.org/Graphics/SVG/1.1/DTD/svg11.dtd">
<svg version="1.1" id="Layer_1" xmlns="http://www.w3.org/2000/svg" xmlns:xlink="http://www.w3.org/1999/xlink" x="0px" y="0px"
	 width="18px" height="29.99px" viewBox="0 0 18 29.99" enable-background="new 0 0 18 29.99" xml:space="preserve">
<g>
	<rect x="1.5" y="4.517" fill="#E8CD8D" width="1.5" height="1.5"/>
	<rect x="3" y="4.517" fill="#E8CD8D" width="1.5" height="1.5"/>
	<rect x="4.5" y="4.517" fill="#E8CD8D" width="1.5" height="1.5"/>
	<rect x="6" y="4.517" fill="#E7B685" width="1.5" height="1.5"/>
	<rect x="7.5" y="4.517" fill="#E7B685" width="1.5" height="1.5"/>
	<rect x="9" y="4.517" fill="#E7B685" width="1.5" height="1.5"/>
	<rect x="1.5" y="6.02" fill="#EADAB2" width="1.5" height="1.5"/>
	<rect x="3" y="6.02" fill="#EADAB2" width="1.5" height="1.5"/>
	<rect x="1.5" y="7.514" fill="#EADAB2" width="1.5" height="1.5"/>
	<rect x="3" y="7.514" fill="#C66521" width="1.5" height="1.5"/>
	<rect x="1.5" y="10.504" fill="#E8CD8D" width="1.5" height="1.5"/>
	<rect x="3" y="10.504" fill="#757345" width="1.5" height="1.5"/>
	<rect x="1.5" y="12.007" fill="#E8CD8D" width="1.5" height="1.5"/>
	<rect x="3" y="12.007" fill="#E8CD8D" width="1.5" height="1.5"/>
	<rect x="1.5" y="13.504" fill="#CDC09D" width="1.5" height="1.5"/>
	<rect y="11.949" fill="#E8CD8D" width="1.5" height="1.5"/>
	<rect x="3" y="13.504" fill="#CDC09D" width="1.5" height="1.5"/>
	<rect x="6" y="13.504" fill="#CDC09D" width="1.5" height="1.5"/>
	<rect x="4.5" y="13.504" fill="#CDC09D" width="1.5" height="1.5"/>
	<rect x="7.5" y="13.504" fill="#EADAB2" width="1.5" height="1.5"/>
	<rect x="10.5" y="13.504" fill="#E8CD8D" width="1.5" height="1.5"/>
	<rect x="9" y="13.504" fill="#EADAB2" width="1.5" height="1.5"/>
	<rect x="6" y="15.001" fill="#FFFFFF" width="1.5" height="1.5"/>
	<rect x="4.5" y="15.001" fill="#FFFFFF" width="1.5" height="1.5"/>
	<rect x="7.5" y="15.001" fill="#FFFFFF" width="1.5" height="1.5"/>
	<rect x="9" y="15.001" fill="#C97D7A" width="1.5" height="1.5"/>
	<rect x="6" y="16.498" fill="#C97D7A" width="1.5" height="1.5"/>
	<rect x="4.5" y="16.498" fill="#C97D7A" width="1.5" height="1.5"/>
	<rect x="7.5" y="16.498" fill="#C97D7A" width="1.5" height="1.5"/>
	<rect x="9" y="16.498" fill="#E8CD8D" width="1.5" height="1.5"/>
	<rect x="6" y="17.998" fill="#CDC09D" width="1.5" height="1.5"/>
	<rect x="4.5" y="17.998" fill="#CDC09D" width="1.5" height="1.5"/>
	<rect x="7.5" y="17.998" fill="#CDC09D" width="1.5" height="1.5"/>
	<rect x="6" y="19.498" fill="#E8CD8D" width="1.5" height="1.5"/>
	<rect x="7.5" y="19.498" fill="#E8CD8D" width="1.5" height="1.5"/>
	<rect x="9" y="19.498" fill="#E8CD8D" width="1.5" height="1.5"/>
	<rect x="9" y="17.998" fill="#E8CD8D" width="1.5" height="1.5"/>
	<rect x="12" y="13.504" fill="#E8CD8D" width="1.5" height="1.5"/>
	<rect x="10.5" y="12.007" fill="#E8CD8D" width="1.5" height="1.5"/>
	<rect x="12" y="12.007" fill="#E8CD8D" width="1.5" height="1.5"/>
	<rect x="10.5" y="16.498" fill="#E8CD8D" width="1.5" height="1.5"/>
	<rect x="10.5" y="15.001" fill="#E8CD8D" width="1.5" height="1.5"/>
	<rect x="12" y="15.001" fill="#E8CD8D" width="1.5" height="1.5"/>
	<rect x="10.5" y="10.504" fill="#E8CD8D" width="1.5" height="1.5"/>
	<rect x="12" y="10.504" fill="#E8CD8D" width="1.5" height="1.5"/>
	<rect x="10.5" y="7.514" fill="#9D5C1F" width="1.5" height="1.5"/>
	<rect x="12" y="7.514" fill="#E8CD8D" width="1.5" height="1.5"/>
	<rect x="13.5" y="10.504" fill="#E8CD8D" width="1.5" height="1.5"/>
	<rect x="13.5" y="9.007" fill="#EADAB2" width="1.5" height="1.5"/>
	<rect x="4.5" y="6.02" fill="#E8CD8D" width="1.5" height="1.5"/>
	<rect x="6" y="6.02" fill="#E8CD8D" width="1.5" height="1.5"/>
	<rect x="7.5" y="6.02" fill="#E7B685" width="1.5" height="1.5"/>
	<rect x="9" y="6.02" fill="#9D5C1F" width="1.5" height="1.5"/>
	<rect x="4.5" y="7.514" fill="#C66521" width="1.5" height="1.5"/>
	<rect x="6" y="7.514" fill="#E8CD8D" width="1.5" height="1.5"/>
	<rect x="7.5" y="7.514" fill="#E8CD8D" width="1.5" height="1.5"/>
	<rect x="9" y="7.514" fill="#BD6D14" width="1.5" height="1.5"/>
	<rect x="1.5" y="9.007" fill="#E8CD8D" width="1.5" height="1.5"/>
	<rect x="3" y="9.007" fill="#E8CD8D" width="1.5" height="1.5"/>
	<rect x="10.5" y="9.007" fill="#BD6D14" width="1.5" height="1.5"/>
	<rect x="12" y="9.007" fill="#E8CD8D" width="1.5" height="1.5"/>
	<rect x="4.5" y="9.007" fill="#E8CD8D" width="1.5" height="1.5"/>
	<rect x="6" y="9.007" fill="#E8CD8D" width="1.5" height="1.5"/>
	<rect x="7.5" y="9.007" fill="#E8CD8D" width="1.5" height="1.5"/>
	<rect x="9" y="9.007" fill="#E8CD8D" width="1.5" height="1.5"/>
	<rect x="4.5" y="10.504" fill="#FFFFFF" width="1.5" height="1.5"/>
	<rect x="6" y="10.504" fill="#E8CD8D" width="1.5" height="1.5"/>
	<rect x="7.5" y="10.504" fill="#E8CD8D" width="1.5" height="1.5"/>
	<rect x="9" y="10.504" fill="#E8CD8D" width="1.5" height="1.5"/>
	<rect x="4.5" y="12.004" fill="#E8CD8D" width="1.5" height="1.5"/>
	<rect x="6" y="12.004" fill="#E8CD8D" width="1.5" height="1.5"/>
	<rect x="7.5" y="12.004" fill="#EADAB2" width="1.5" height="1.5"/>
	<rect x="9" y="12.004" fill="#E7B685" width="1.5" height="1.5"/>
	<rect x="10.5" y="4.517" fill="#BD6D14" width="1.5" height="1.5"/>
	<rect x="12" y="4.517" fill="#9D5C1F" width="1.5" height="1.5"/>
	<rect x="13.5" y="4.517" fill="#BD6D14" width="1.5" height="1.5"/>
	<rect x="12" y="3.01" fill="#BD6D14" width="1.5" height="1.5"/>
	<rect x="12" y="1.52" fill="#BD6D14" width="1.5" height="1.5"/>
	<rect x="13.5" y="3.02" fill="#9D5C1F" width="1.5" height="1.5"/>
	<rect x="1.5" y="3.02" fill="#9D5C1F" width="1.5" height="1.5"/>
	<rect x="3" y="3.02" fill="#BD6D14" width="1.5" height="1.5"/>
	<rect x="3" y="1.51" fill="#BD6D14" width="1.5" height="1.5"/>
	<rect x="4.5" y="3.02" fill="#9D5C1F" width="1.5" height="1.5"/>
	<rect x="4.5" y="1.52" fill="#BD6D14" width="1.5" height="1.5"/>
	<rect x="6" y="3.02" fill="#BD6D14" width="1.5" height="1.5"/>
	<rect x="6" y="1.52" fill="#BD6D14" width="1.5" height="1.5"/>
	<rect x="7.5" y="3.02" fill="#BD6D14" width="1.5" height="1.5"/>
	<rect x="7.5" y="1.51" fill="#BD6D14" width="1.5" height="1.5"/>
	<rect x="9" y="1.51" fill="#BD6D14" width="1.5" height="1.5"/>
	<rect x="9" y="3.02" fill="#9D5C1F" width="1.5" height="1.5"/>
	<rect x="10.5" y="3.02" fill="#BD6D14" width="1.5" height="1.5"/>
	<rect x="10.5" y="1.52" fill="#BD6D14" width="1.5" height="1.5"/>
	<rect x="4.5" y="0.01" fill="#BD6D14" width="1.5" height="1.5"/>
	<rect x="6" y="0.01" fill="#9D5C1F" width="1.5" height="1.5"/>
	<rect x="7.5" fill="#BD6D14" width="1.5" height="1.5"/>
	<rect x="9" fill="#BD6D14" width="1.5" height="1.5"/>
	<rect x="10.5" y="6.02" fill="#BD6D14" width="1.5" height="1.5"/>
	<rect x="12" y="6.02" fill="#BD6D14" width="1.5" height="1.5"/>
	<rect x="13.5" y="7.514" fill="#E8CD8D" width="1.5" height="1.5"/>
	<rect x="13.5" y="6.02" fill="#BD6D14" width="1.5" height="1.5"/>
	<rect x="6" y="20.99" fill="#E8CD8D" width="1.5" height="1.5"/>
	<rect x="7.5" y="20.99" fill="#E8CD8D" width="1.5" height="1.5"/>
	<rect x="12" y="19.49" fill="#CEDEE6" width="1.5" height="1.5"/>
	<rect x="10.5" y="20.99" fill="#8AA7BC" width="1.5" height="1.5"/>
	<rect x="10.5" y="19.49" fill="#CEDEE6" width="1.5" height="1.5"/>
	<rect x="9" y="20.99" fill="#E8CD8D" width="1.5" height="1.5"/>
	<rect x="4.5" y="20.99" fill="#8AA7BC" width="1.5" height="1.5"/>
	<rect x="3" y="20.99" fill="#CEDEE6" width="1.5" height="1.5"/>
	<rect x="3" y="19.49" fill="#CEDEE6" width="1.5" height="1.5"/>
	<rect x="4.5" y="19.49" fill="#CEDEE6" width="1.5" height="1.5"/>
	<rect x="12" y="20.99" fill="#CEDEE6" width="1.5" height="1.5"/>
	<rect x="13.5" y="20.99" fill="#CEDEE6" width="1.5" height="1.5"/>
	<rect x="15" y="20.99" fill="#B6C8D8" width="1.5" height="1.5"/>
	<rect x="6" y="23.99" fill="#334D6B" width="1.5" height="1.5"/>
	<rect x="7.5" y="23.99" fill="#334D6B" width="1.5" height="1.5"/>
	<rect x="10.5" y="23.99" fill="#CEDEE6" width="1.5" height="1.5"/>
	<rect x="9" y="23.99" fill="#334D6B" width="1.5" height="1.5"/>
	<rect x="4.5" y="23.99" fill="#CEDEE6" width="1.5" height="1.5"/>
	<rect x="4.5" y="25.49" fill="#B6C8D8" width="1.5" height="1.5"/>
	<rect x="3" y="23.99" fill="#8AA7BC" width="1.5" height="1.5"/>
	<rect x="1.5" y="23.99" fill="#B6C8D8" width="1.5" height="1.5"/>
	<rect x="12" y="23.99" fill="#8AA7BC" width="1.5" height="1.5"/>
	<rect x="13.5" y="23.99" fill="#B6C8D8" width="1.5" height="1.5"/>
	<rect x="15" y="23.99" fill="#B6C8D8" width="1.5" height="1.5"/>
	<rect x="16.5" y="23.99" fill="#B6C8D8" width="1.5" height="1.5"/>
	<rect x="6" y="26.99" fill="#B6C8D8" width="1.5" height="1.5"/>
	<rect x="7.5" y="26.99" fill="#CEDEE6" width="1.5" height="1.5"/>
	<rect x="10.5" y="26.99" fill="#B6C8D8" width="1.5" height="1.5"/>
	<rect x="9" y="26.99" fill="#B6C8D8" width="1.5" height="1.5"/>
	<rect x="4.5" y="26.99" fill="#B6C8D8" width="1.5" height="1.5"/>
	<rect x="3" y="26.99" fill="#B6C8D8" width="1.5" height="1.5"/>
	<rect x="1.5" y="26.99" fill="#B6C8D8" width="1.5" height="1.5"/>
	<rect x="12" y="26.99" fill="#B6C8D8" width="1.5" height="1.5"/>
	<rect x="13.5" y="26.99" fill="#B6C8D8" width="1.5" height="1.5"/>
	<rect x="15" y="26.99" fill="#8AA7BC" width="1.5" height="1.5"/>
	<rect x="16.5" y="26.99" fill="#8AA7BC" width="1.5" height="1.5"/>
	<rect x="6" y="22.49" fill="#334D6B" width="1.5" height="1.5"/>
	<rect x="7.5" y="22.49" fill="#E8CD8D" width="1.5" height="1.5"/>
	<rect x="10.5" y="22.49" fill="#CEDEE6" width="1.5" height="1.5"/>
	<rect x="9" y="22.49" fill="#334D6B" width="1.5" height="1.5"/>
	<rect x="4.5" y="22.49" fill="#CEDEE6" width="1.5" height="1.5"/>
	<rect x="3" y="22.49" fill="#8AA7BC" width="1.5" height="1.5"/>
	<rect x="1.5" y="22.49" fill="#CEDEE6" width="1.5" height="1.5"/>
	<rect x="1.5" y="20.99" fill="#CEDEE6" width="1.5" height="1.5"/>
	<rect x="12" y="22.49" fill="#8AA7BC" width="1.5" height="1.5"/>
	<rect x="13.5" y="22.49" fill="#CEDEE6" width="1.5" height="1.5"/>
	<rect x="15" y="22.49" fill="#B6C8D8" width="1.5" height="1.5"/>
	<rect x="16.5" y="22.49" fill="#B6C8D8" width="1.5" height="1.5"/>
	<rect x="6" y="25.49" fill="#CEDEE6" width="1.5" height="1.5"/>
	<rect x="7.5" y="25.49" fill="#334D6B" width="1.5" height="1.5"/>
	<rect x="10.5" y="25.49" fill="#B6C8D8" width="1.5" height="1.5"/>
	<rect x="9" y="25.49" fill="#CEDEE6" width="1.5" height="1.5"/>
	<rect x="4.5" y="25.49" fill="#B6C8D8" width="1.5" height="1.5"/>
	<rect x="3" y="25.49" fill="#B6C8D8" width="1.5" height="1.5"/>
	<rect x="1.5" y="25.49" fill="#B6C8D8" width="1.5" height="1.5"/>
	<rect y="23.99" fill="#B6C8D8" width="1.5" height="1.5"/>
	<rect y="26.99" fill="#8AA7BC" width="1.5" height="1.5"/>
	<rect x="6" y="28.49" fill="#B6C8D8" width="1.5" height="1.5"/>
	<rect x="7.5" y="28.49" fill="#CEDEE6" width="1.5" height="1.5"/>
	<rect x="10.5" y="28.49" fill="#CEDEE6" width="1.5" height="1.5"/>
	<rect x="9" y="28.49" fill="#B6C8D8" width="1.5" height="1.5"/>
	<rect x="4.5" y="28.49" fill="#CEDEE6" width="1.5" height="1.5"/>
	<rect x="3" y="28.49" fill="#FFFFFF" width="1.5" height="1.5"/>
	<rect x="1.5" y="28.49" fill="#CEDEE6" width="1.5" height="1.5"/>
	<rect x="12" y="28.49" fill="#FFFFFF" width="1.5" height="1.5"/>
	<rect x="13.5" y="28.49" fill="#CEDEE6" width="1.5" height="1.5"/>
	<rect x="15" y="28.49" fill="#E8CD8D" width="1.5" height="1.5"/>
	<rect x="16.5" y="28.49" fill="#E8CD8D" width="1.5" height="1.5"/>
	<rect y="28.49" fill="#E8CD8D" width="1.5" height="1.5"/>
	<rect y="25.49" fill="#B6C8D8" width="1.5" height="1.5"/>
	<rect x="12" y="25.49" fill="#B6C8D8" width="1.5" height="1.5"/>
	<rect x="13.5" y="25.49" fill="#B6C8D8" width="1.5" height="1.5"/>
	<rect x="15" y="25.49" fill="#B6C8D8" width="1.5" height="1.5"/>
	<rect x="16.5" y="25.49" fill="#B6C8D8" width="1.5" height="1.5"/>
</g>
</svg>
