<?xml version="1.0" encoding="utf-8"?>
<!-- Generator: Adobe Illustrator 16.0.0, SVG Export Plug-In . SVG Version: 6.00 Build 0)  -->
<!DOCTYPE svg PUBLIC "-//W3C//DTD SVG 1.1//EN" "http://www.w3.org/Graphics/SVG/1.1/DTD/svg11.dtd">
<svg version="1.1" id="Layer_1" xmlns="http://www.w3.org/2000/svg" xmlns:xlink="http://www.w3.org/1999/xlink" x="0px" y="0px"
	 width="300px" height="300px" viewBox="0 0 300 300" enable-background="new 0 0 300 300" xml:space="preserve">
<g>
	<rect x="131.252" y="72.051" fill="#947B42" width="7.5" height="7.5"/>
	<rect x="138.752" y="72.051" fill="#634B1C" width="7.5" height="7.5"/>
	<rect x="146.252" y="72.051" fill="#947B42" width="7.5" height="7.5"/>
	<rect x="116.252" y="87.037" fill="#634B1C" width="7.5" height="7.5"/>
	<rect x="123.752" y="87.037" fill="#3E2D02" width="7.5" height="7.5"/>
	<rect x="131.252" y="87.037" fill="#726658" width="7.5" height="7.5"/>
	<rect x="138.752" y="87.037" fill="#634B1C" width="7.5" height="7.5"/>
	<rect x="146.252" y="87.037" fill="#726658" width="7.5" height="7.5"/>
	<rect x="153.752" y="87.037" fill="#634B1C" width="7.5" height="7.5"/>
	<rect x="116.252" y="94.537" fill="#3E2D02" width="7.5" height="7.5"/>
	<rect x="123.752" y="94.537" fill="#726658" width="7.5" height="7.5"/>
	<rect x="131.252" y="94.537" fill="#3E2D02" width="7.5" height="7.5"/>
	<rect x="138.752" y="94.537" fill="#726658" width="7.5" height="7.5"/>
	<rect x="146.252" y="94.537" fill="#EFD1B8" width="7.5" height="7.5"/>
	<rect x="153.752" y="94.537" fill="#EFD1B8" width="7.5" height="7.5"/>
	<rect x="116.252" y="102.037" fill="#EFD1B8" width="7.5" height="7.5"/>
	<rect x="123.752" y="102.037" fill="#F7E0CF" width="7.5" height="7.5"/>
	<rect x="116.252" y="109.508" fill="#EFD1B8" width="7.5" height="7.5"/>
	<rect x="123.752" y="109.508" fill="#323133" width="7.5" height="7.5"/>
	<rect x="116.252" y="124.459" fill="#EFD1B8" width="7.5" height="7.5"/>
	<rect x="123.752" y="124.459" fill="#7D7967" width="7.5" height="7.5"/>
	<rect x="116.252" y="131.973" fill="#EFD1B8" width="7.5" height="7.5"/>
	<rect x="123.752" y="131.973" fill="#EFD1B8" width="7.5" height="7.5"/>
	<rect x="116.252" y="139.459" fill="#EFD1B8" width="7.5" height="7.5"/>
	<rect x="108.752" y="131.959" fill="#EFD1B8" width="7.5" height="7.5"/>
	<rect x="123.752" y="139.459" fill="#EFD1B8" width="7.5" height="7.5"/>
	<rect x="138.752" y="139.459" fill="#EFD1B8" width="7.5" height="7.5"/>
	<rect x="131.252" y="139.459" fill="#EFD1B8" width="7.5" height="7.5"/>
	<rect x="146.252" y="139.459" fill="#F7E0CF" width="7.5" height="7.5"/>
	<rect x="161.252" y="139.459" fill="#EFD1B8" width="7.5" height="7.5"/>
	<rect x="153.752" y="139.459" fill="#F7E0CF" width="7.5" height="7.5"/>
	<rect x="138.752" y="146.943" fill="#FFFFFF" width="7.5" height="7.5"/>
	<rect x="131.252" y="146.943" fill="#FFFFFF" width="7.5" height="7.5"/>
	<rect x="146.252" y="146.943" fill="#FFFFFF" width="7.5" height="7.5"/>
	<rect x="153.752" y="146.943" fill="#BB807B" width="7.5" height="7.5"/>
	<rect x="138.752" y="154.43" fill="#D28F8C" width="7.5" height="7.5"/>
	<rect x="131.252" y="154.43" fill="#D28F8C" width="7.5" height="7.5"/>
	<rect x="146.252" y="154.43" fill="#BB807B" width="7.5" height="7.5"/>
	<rect x="153.752" y="154.43" fill="#EFD1B8" width="7.5" height="7.5"/>
	<rect x="138.752" y="161.93" fill="#F7E0CF" width="7.5" height="7.5"/>
	<rect x="131.252" y="161.93" fill="#F7E0CF" width="7.5" height="7.5"/>
	<rect x="146.252" y="161.93" fill="#EFD1B8" width="7.5" height="7.5"/>
	<rect x="138.752" y="169.43" fill="#D7BFAA" width="7.5" height="7.5"/>
	<rect x="146.252" y="169.43" fill="#D7BFAA" width="7.5" height="7.5"/>
	<rect x="138.752" y="176.891" fill="#EFD1B8" width="7.5" height="7.5"/>
	<rect x="146.252" y="176.891" fill="#EFD1B8" width="7.5" height="7.5"/>
	<rect x="153.752" y="169.43" fill="#EFD1B8" width="7.5" height="7.5"/>
	<rect x="153.752" y="161.93" fill="#EFD1B8" width="7.5" height="7.5"/>
	<rect x="161.252" y="161.93" fill="#D7BFAA" width="7.5" height="7.5"/>
	<rect x="153.752" y="176.891" fill="#EFD1B8" width="7.5" height="7.5"/>
	<rect x="138.752" y="191.891" fill="#ADAFB2" width="7.5" height="7.5"/>
	<rect x="146.252" y="191.891" fill="#EFD1B8" width="7.5" height="7.5"/>
	<rect x="161.252" y="191.891" fill="#95989B" width="7.5" height="7.5"/>
	<rect x="153.752" y="191.891" fill="#ADAFB2" width="7.5" height="7.5"/>
	<rect x="131.252" y="191.891" fill="#95989B" width="7.5" height="7.5"/>
	<rect x="123.752" y="191.891" fill="#95989B" width="7.5" height="7.5"/>
	<rect x="116.252" y="191.891" fill="#95989B" width="7.5" height="7.5"/>
	<rect x="168.752" y="191.891" fill="#95989B" width="7.5" height="7.5"/>
	<rect x="176.252" y="191.891" fill="#95989B" width="7.5" height="7.5"/>
	<rect x="183.752" y="191.891" fill="#95989B" width="7.5" height="7.5"/>
	<rect x="191.252" y="191.891" fill="#95989B" width="7.5" height="7.5"/>
	<rect x="138.752" y="206.891" fill="#95989B" width="7.5" height="7.5"/>
	<rect x="146.252" y="206.891" fill="#95989B" width="7.5" height="7.5"/>
	<rect x="161.252" y="206.891" fill="#95989B" width="7.5" height="7.5"/>
	<rect x="153.752" y="206.891" fill="#95989B" width="7.5" height="7.5"/>
	<rect x="131.252" y="206.891" fill="#95989B" width="7.5" height="7.5"/>
	<rect x="123.752" y="206.891" fill="#808285" width="7.5" height="7.5"/>
	<rect x="116.252" y="206.891" fill="#EFD1B8" width="7.5" height="7.5"/>
	<rect x="168.752" y="206.891" fill="#95989B" width="7.5" height="7.5"/>
	<rect x="176.252" y="206.891" fill="#808285" width="7.5" height="7.5"/>
	<rect x="183.752" y="206.891" fill="#EFD1B8" width="7.5" height="7.5"/>
	<rect x="191.252" y="206.891" fill="#EFD1B8" width="7.5" height="7.5"/>
	<rect x="138.752" y="184.391" fill="#EFD1B8" width="7.5" height="7.5"/>
	<rect x="146.252" y="184.391" fill="#EFD1B8" width="7.5" height="7.5"/>
	<rect x="161.252" y="184.391" fill="#ADAFB2" width="7.5" height="7.5"/>
	<rect x="153.752" y="184.391" fill="#EFD1B8" width="7.5" height="7.5"/>
	<rect x="131.252" y="184.391" fill="#ADAFB2" width="7.5" height="7.5"/>
	<rect x="123.752" y="184.391" fill="#95989B" width="7.5" height="7.5"/>
	<rect x="116.252" y="184.391" fill="#95989B" width="7.5" height="7.5"/>
	<rect x="168.752" y="184.391" fill="#95989B" width="7.5" height="7.5"/>
	<rect x="176.252" y="184.391" fill="#95989B" width="7.5" height="7.5"/>
	<rect x="183.752" y="184.391" fill="#95989B" width="7.5" height="7.5"/>
	<rect x="138.752" y="199.391" fill="#95989B" width="7.5" height="7.5"/>
	<rect x="146.252" y="199.391" fill="#ADAFB2" width="7.5" height="7.5"/>
	<rect x="161.252" y="199.391" fill="#95989B" width="7.5" height="7.5"/>
	<rect x="153.752" y="199.391" fill="#95989B" width="7.5" height="7.5"/>
	<rect x="131.252" y="199.391" fill="#95989B" width="7.5" height="7.5"/>
	<rect x="123.752" y="199.391" fill="#95989B" width="7.5" height="7.5"/>
	<rect x="116.252" y="199.391" fill="#95989B" width="7.5" height="7.5"/>
	<rect x="108.752" y="191.891" fill="#95989B" width="7.5" height="7.5"/>
	<rect x="108.752" y="206.891" fill="#EFD1B8" width="7.5" height="7.5"/>
	<rect x="108.752" y="199.391" fill="#95989B" width="7.5" height="7.5"/>
	<rect x="168.752" y="199.391" fill="#95989B" width="7.5" height="7.5"/>
	<rect x="176.252" y="199.391" fill="#95989B" width="7.5" height="7.5"/>
	<rect x="183.752" y="199.391" fill="#95989B" width="7.5" height="7.5"/>
	<rect x="191.252" y="199.391" fill="#95989B" width="7.5" height="7.5"/>
	<rect x="168.752" y="139.459" fill="#EFD1B8" width="7.5" height="7.5"/>
	<rect x="161.252" y="131.973" fill="#EFD1B8" width="7.5" height="7.5"/>
	<rect x="168.752" y="131.973" fill="#D7BFAA" width="7.5" height="7.5"/>
	<rect x="161.252" y="154.43" fill="#EFD1B8" width="7.5" height="7.5"/>
	<rect x="168.752" y="154.43" fill="#D7BFAA" width="7.5" height="7.5"/>
	<rect x="161.252" y="146.943" fill="#F7E0CF" width="7.5" height="7.5"/>
	<rect x="168.752" y="146.943" fill="#EFD1B8" width="7.5" height="7.5"/>
	<rect x="161.252" y="124.459" fill="#EFD1B8" width="7.5" height="7.5"/>
	<rect x="168.752" y="124.459" fill="#EFD1B8" width="7.5" height="7.5"/>
	<rect x="161.252" y="109.508" fill="#3E2D02" width="7.5" height="7.5"/>
	<rect x="168.752" y="109.508" fill="#634B1C" width="7.5" height="7.5"/>
	<rect x="176.252" y="124.459" fill="#EFD1B8" width="7.5" height="7.5"/>
	<rect x="176.252" y="116.973" fill="#EFD1B8" width="7.5" height="7.5"/>
	<rect x="131.252" y="102.037" fill="#EFD1B8" width="7.5" height="7.5"/>
	<rect x="138.752" y="102.037" fill="#EFD1B8" width="7.5" height="7.5"/>
	<rect x="146.252" y="102.037" fill="#EFD1B8" width="7.5" height="7.5"/>
	<rect x="153.752" y="102.037" fill="#3E2D02" width="7.5" height="7.5"/>
	<rect x="131.252" y="109.508" fill="#323133" width="7.5" height="7.5"/>
	<rect x="138.752" y="109.508" fill="#464749" width="7.5" height="7.5"/>
	<rect x="146.252" y="109.508" fill="#EFD1B8" width="7.5" height="7.5"/>
	<rect x="153.752" y="109.508" fill="#EFD1B8" width="7.5" height="7.5"/>
	<rect x="116.252" y="116.973" fill="#F7E0CF" width="7.5" height="7.5"/>
	<rect x="123.752" y="116.973" fill="#EFD1B8" width="7.5" height="7.5"/>
	<rect x="161.252" y="116.973" fill="#3E2D02" width="7.5" height="7.5"/>
	<rect x="168.752" y="116.973" fill="#F7E0CF" width="7.5" height="7.5"/>
	<rect x="131.252" y="116.973" fill="#EFD1B8" width="7.5" height="7.5"/>
	<rect x="138.752" y="116.973" fill="#EFD1B8" width="7.5" height="7.5"/>
	<rect x="146.252" y="116.973" fill="#EFD1B8" width="7.5" height="7.5"/>
	<rect x="153.752" y="116.973" fill="#F7E0CF" width="7.5" height="7.5"/>
	<rect x="131.252" y="124.459" fill="#FFFFFF" width="7.5" height="7.5"/>
	<rect x="138.752" y="124.459" fill="#EFD1B8" width="7.5" height="7.5"/>
	<rect x="146.252" y="124.459" fill="#EFD1B8" width="7.5" height="7.5"/>
	<rect x="153.752" y="124.459" fill="#F7E0CF" width="7.5" height="7.5"/>
	<rect x="131.252" y="131.959" fill="#EFD1B8" width="7.5" height="7.5"/>
	<rect x="138.752" y="131.959" fill="#F7E0CF" width="7.5" height="7.5"/>
	<rect x="146.252" y="131.959" fill="#EFD1B8" width="7.5" height="7.5"/>
	<rect x="153.752" y="131.959" fill="#EFD1B8" width="7.5" height="7.5"/>
	<rect x="161.252" y="87.037" fill="#947B42" width="7.5" height="7.5"/>
	<rect x="168.752" y="87.037" fill="#3E2D02" width="7.5" height="7.5"/>
	<rect x="123.752" y="79.551" fill="#634B1C" width="7.5" height="7.5"/>
	<rect x="131.252" y="79.551" fill="#634B1C" width="7.5" height="7.5"/>
	<rect x="138.752" y="79.551" fill="#726658" width="7.5" height="7.5"/>
	<rect x="146.252" y="79.551" fill="#634B1C" width="7.5" height="7.5"/>
	<rect x="153.752" y="79.551" fill="#947B42" width="7.5" height="7.5"/>
	<rect x="161.252" y="79.551" fill="#3E2D02" width="7.5" height="7.5"/>
	<rect x="153.752" y="72.051" fill="#634B1C" width="7.5" height="7.5"/>
	<rect x="161.252" y="72.051" fill="#947B42" width="7.5" height="7.5"/>
	<rect x="168.752" y="79.551" fill="#634B1C" width="7.5" height="7.5"/>
	<rect x="176.252" y="87.037" fill="#634B1C" width="7.5" height="7.5"/>
	<rect x="176.252" y="79.551" fill="#947B42" width="7.5" height="7.5"/>
	<rect x="161.252" y="94.537" fill="#3E2D02" width="7.5" height="7.5"/>
	<rect x="168.752" y="94.537" fill="#634B1C" width="7.5" height="7.5"/>
	<rect x="161.252" y="102.037" fill="#634B1C" width="7.5" height="7.5"/>
	<rect x="168.752" y="102.037" fill="#3E2D02" width="7.5" height="7.5"/>
	<rect x="176.252" y="109.508" fill="#F7E0CF" width="7.5" height="7.5"/>
	<rect x="176.252" y="94.537" fill="#947B42" width="7.5" height="7.5"/>
	<rect x="183.752" y="87.037" fill="#634B1C" width="7.5" height="7.5"/>
	<rect x="183.752" y="94.537" fill="#3E2D02" width="7.5" height="7.5"/>
	<rect x="176.252" y="102.037" fill="#3E2D02" width="7.5" height="7.5"/>
	<rect x="183.752" y="124.492" fill="#634B1C" width="7.5" height="7.5"/>
	<rect x="183.752" y="117.021" fill="#3E2D02" width="7.5" height="7.5"/>
	<rect x="183.752" y="109.531" fill="#634B1C" width="7.5" height="7.5"/>
	<rect x="183.752" y="102.031" fill="#634B1C" width="7.5" height="7.5"/>
	<rect x="176.252" y="139.443" fill="#726658" width="7.5" height="7.5"/>
	<rect x="183.752" y="131.979" fill="#3E2D02" width="7.5" height="7.5"/>
	<rect x="176.252" y="131.973" fill="#3E2D02" width="7.5" height="7.5"/>
</g>
</svg>
