<?xml version="1.0" encoding="utf-8"?>
<!-- Generator: Adobe Illustrator 16.0.0, SVG Export Plug-In . SVG Version: 6.00 Build 0)  -->
<!DOCTYPE svg PUBLIC "-//W3C//DTD SVG 1.1//EN" "http://www.w3.org/Graphics/SVG/1.1/DTD/svg11.dtd">
<svg version="1.1" id="Layer_1" xmlns="http://www.w3.org/2000/svg" xmlns:xlink="http://www.w3.org/1999/xlink" x="0px" y="0px"
	 width="300px" height="300px" viewBox="0 0 300 300" enable-background="new 0 0 300 300" xml:space="preserve">
<g>
	<rect x="138" y="179.934" fill="#EFC8A6" width="6" height="6"/>
	<rect x="144" y="179.934" fill="#EFC8A6" width="6" height="6"/>
	<rect x="150.004" y="179.934" fill="#EFC8A6" width="6" height="6"/>
	<rect x="162" y="173.934" fill="#323133" width="6" height="6"/>
	<rect x="168" y="173.934" fill="#323133" width="6" height="6"/>
	<rect x="156" y="179.934" fill="#A7D6F0" width="6" height="6"/>
	<rect x="132" y="179.934" fill="#A7D6F0" width="6" height="6"/>
	<rect x="126" y="179.934" fill="#323133" width="6" height="6"/>
	<rect x="162" y="179.934" fill="#A7D6F0" width="6" height="6"/>
	<rect x="168" y="179.934" fill="#323133" width="6" height="6"/>
	<rect x="174" y="179.934" fill="#323133" width="6" height="6"/>
	<rect x="138" y="191.934" fill="#C7E1F5" width="6" height="6"/>
	<rect x="144" y="191.934" fill="#1C75BC" width="6" height="6"/>
	<rect x="156" y="191.934" fill="#C7E1F5" width="6" height="6"/>
	<rect x="150" y="191.934" fill="#C7E1F5" width="6" height="6"/>
	<rect x="132" y="191.934" fill="#A7D6F0" width="6" height="6"/>
	<rect x="132" y="197.934" fill="#231F20" width="6" height="6"/>
	<rect x="126" y="191.934" fill="#323133" width="6" height="6"/>
	<rect x="120" y="191.934" fill="#464749" width="6" height="6"/>
	<rect x="162" y="191.934" fill="#A7D6F0" width="6" height="6"/>
	<rect x="168" y="191.934" fill="#464749" width="6" height="6"/>
	<rect x="174" y="191.934" fill="#323133" width="6" height="6"/>
	<rect x="180" y="191.934" fill="#323133" width="6" height="6"/>
	<rect x="138" y="203.934" fill="#C7E1F5" width="6" height="6"/>
	<rect x="144" y="203.934" fill="#D59E10" width="6" height="6"/>
	<rect x="156" y="203.934" fill="#C7E1F5" width="6" height="6"/>
	<rect x="150" y="203.934" fill="#C7E1F5" width="6" height="6"/>
	<rect x="132" y="203.934" fill="#464749" width="6" height="6"/>
	<rect x="126" y="203.934" fill="#323133" width="6" height="6"/>
	<rect x="120" y="203.934" fill="#323133" width="6" height="6"/>
	<rect x="162" y="203.934" fill="#464749" width="6" height="6"/>
	<rect x="168" y="203.934" fill="#323133" width="6" height="6"/>
	<rect x="174" y="203.934" fill="#323133" width="6" height="6"/>
	<rect x="180" y="203.934" fill="#231F20" width="6" height="6"/>
	<rect x="138" y="185.934" fill="#BE1E2D" width="6" height="6"/>
	<rect x="144" y="185.934" fill="#323133" width="6" height="6"/>
	<rect x="156" y="185.934" fill="#A7D6F0" width="6" height="6"/>
	<rect x="150" y="185.934" fill="#BE1E2D" width="6" height="6"/>
	<rect x="132" y="185.934" fill="#A7D6F0" width="6" height="6"/>
	<rect x="126" y="185.934" fill="#323133" width="6" height="6"/>
	<rect x="120" y="185.934" fill="#323133" width="6" height="6"/>
	<rect x="162" y="185.934" fill="#A7D6F0" width="6" height="6"/>
	<rect x="168" y="185.934" fill="#323133" width="6" height="6"/>
	<rect x="174" y="185.934" fill="#464749" width="6" height="6"/>
	<rect x="180" y="185.934" fill="#323133" width="6" height="6"/>
	<rect x="138" y="197.934" fill="#C7E1F5" width="6" height="6"/>
	<rect x="144" y="197.934" fill="#BE1E2D" width="6" height="6"/>
	<rect x="156" y="197.934" fill="#C7E1F5" width="6" height="6"/>
	<rect x="150" y="197.934" fill="#C7E1F5" width="6" height="6"/>
	<rect x="132" y="197.934" fill="#C7E1F5" width="6" height="6"/>
	<rect x="126" y="197.934" fill="#464749" width="6" height="6"/>
	<rect x="120" y="197.934" fill="#323133" width="6" height="6"/>
	<rect x="114" y="191.934" fill="#323133" width="6" height="6"/>
	<rect x="114" y="185.934" fill="#464749" width="6" height="6"/>
	<rect x="114" y="203.934" fill="#231F20" width="6" height="6"/>
	<rect x="114" y="197.934" fill="#323133" width="6" height="6"/>
	<rect x="108" y="191.934" fill="#323133" width="6" height="6"/>
	<rect x="108" y="203.934" fill="#323133" width="6" height="6"/>
	<rect x="108" y="197.934" fill="#323133" width="6" height="6"/>
	<rect x="162" y="197.934" fill="#464749" width="6" height="6"/>
	<rect x="168" y="197.934" fill="#323133" width="6" height="6"/>
	<rect x="174" y="197.934" fill="#323133" width="6" height="6"/>
	<rect x="180" y="197.934" fill="#323133" width="6" height="6"/>
	<rect x="186" y="191.934" fill="#323133" width="6" height="6"/>
	<rect x="186" y="203.934" fill="#323133" width="6" height="6"/>
	<rect x="186" y="197.934" fill="#323133" width="6" height="6"/>
	<rect x="120.004" y="90.066" fill="#947B42" width="6" height="6"/>
	<rect x="126.004" y="90.066" fill="#665219" width="6" height="6"/>
	<rect x="132.004" y="90.066" fill="#947B42" width="6" height="6"/>
	<rect x="138.004" y="90.066" fill="#665219" width="6" height="6"/>
	<rect x="114.004" y="102.055" fill="#EFC8A6" width="6" height="6"/>
	<rect x="120.004" y="102.055" fill="#EFC8A6" width="6" height="6"/>
	<rect x="126.004" y="102.055" fill="#EFC8A6" width="6" height="6"/>
	<rect x="132.004" y="102.055" fill="#EFC8A6" width="6" height="6"/>
	<rect x="138.004" y="102.055" fill="#EFD1B8" width="6" height="6"/>
	<rect x="144.004" y="102.055" fill="#EFD1B8" width="6" height="6"/>
	<rect x="114.004" y="108.055" fill="#EFC8A6" width="6" height="6"/>
	<rect x="108.004" y="90.066" fill="#665219" width="6" height="6"/>
	<rect x="120.004" y="108.055" fill="#EFC8A6" width="6" height="6"/>
	<rect x="126.004" y="108.055" fill="#EFC8A6" width="6" height="6"/>
	<rect x="132.004" y="108.055" fill="#EFC8A6" width="6" height="6"/>
	<rect x="138.004" y="108.055" fill="#EFC8A6" width="6" height="6"/>
	<rect x="144.004" y="108.055" fill="#AE9D85" width="6" height="6"/>
	<rect x="114.004" y="114.055" fill="#F7E0CF" width="6" height="6"/>
	<rect x="120.004" y="114.055" fill="#EFD1B8" width="6" height="6"/>
	<rect x="114.004" y="120.031" fill="#EFD1B8" width="6" height="6"/>
	<rect x="120.004" y="120.031" fill="#C2B59B" width="6" height="6"/>
	<rect x="114.004" y="131.992" fill="#EFC8A6" width="6" height="6"/>
	<rect x="120.004" y="131.992" fill="#3B2314" width="6" height="6"/>
	<rect x="114.004" y="138.004" fill="#EFD1B8" width="6" height="6"/>
	<rect x="120.004" y="138.004" fill="#EFC8A6" width="6" height="6"/>
	<rect x="114.004" y="143.992" fill="#EFC8A6" width="6" height="6"/>
	<rect x="108.004" y="138.02" fill="#EFD1B8" width="6" height="6"/>
	<rect x="120.004" y="143.992" fill="#EFC8A6" width="6" height="6"/>
	<rect x="132.004" y="143.992" fill="#EFC8A6" width="6" height="6"/>
	<rect x="126.004" y="143.992" fill="#EFC8A6" width="6" height="6"/>
	<rect x="138.004" y="143.992" fill="#E5AC81" width="6" height="6"/>
	<rect x="150.004" y="143.992" fill="#EFC8A6" width="6" height="6"/>
	<rect x="144.004" y="143.992" fill="#EFD1B8" width="6" height="6"/>
	<rect x="132.004" y="149.98" fill="#FFFFFF" width="6" height="6"/>
	<rect x="126.004" y="149.98" fill="#FFFFFF" width="6" height="6"/>
	<rect x="138.004" y="149.98" fill="#FFFFFF" width="6" height="6"/>
	<rect x="144.004" y="149.98" fill="#BB807B" width="6" height="6"/>
	<rect x="132.004" y="155.969" fill="#D28F8C" width="6" height="6"/>
	<rect x="126.004" y="155.969" fill="#D28F8C" width="6" height="6"/>
	<rect x="138.004" y="155.969" fill="#BB807B" width="6" height="6"/>
	<rect x="144.004" y="155.969" fill="#EFC8A6" width="6" height="6"/>
	<rect x="132.004" y="161.969" fill="#EFC8A6" width="6" height="6"/>
	<rect x="126.004" y="161.969" fill="#EFC8A6" width="6" height="6"/>
	<rect x="138.004" y="161.969" fill="#EFC8A6" width="6" height="6"/>
	<rect x="132.004" y="167.969" fill="#E5AC81" width="6" height="6"/>
	<rect x="138.004" y="167.969" fill="#E5AC81" width="6" height="6"/>
	<rect x="144.004" y="167.969" fill="#E5AC81" width="6" height="6"/>
	<rect x="132.004" y="173.938" fill="#E5AC81" width="6" height="6"/>
	<rect x="138.004" y="173.938" fill="#EFC8A6" width="6" height="6"/>
	<rect x="144.004" y="173.938" fill="#EFC8A6" width="6" height="6"/>
	<rect x="144.004" y="161.969" fill="#EFC8A6" width="6" height="6"/>
	<rect x="150.004" y="161.969" fill="#E5AC81" width="6" height="6"/>
	<rect x="150.004" y="167.969" fill="#EFC8A6" width="6" height="6"/>
	<rect x="150.004" y="173.938" fill="#EFC8A6" width="6" height="6"/>
	<rect x="156.004" y="143.992" fill="#EFC8A6" width="6" height="6"/>
	<rect x="150.004" y="138.004" fill="#EFC8A6" width="6" height="6"/>
	<rect x="156.004" y="138.004" fill="#EFC8A6" width="6" height="6"/>
	<rect x="150.004" y="155.969" fill="#EFC8A6" width="6" height="6"/>
	<rect x="156.004" y="155.969" fill="#EFC8A6" width="6" height="6"/>
	<rect x="156.004" y="161.969" fill="#EFC8A6" width="6" height="6"/>
	<rect x="156.004" y="167.934" fill="#EFC8A6" width="6" height="6"/>
	<rect x="156.004" y="173.934" fill="#EFC8A6" width="6" height="6"/>
	<rect x="150.004" y="149.98" fill="#EFD1B8" width="6" height="6"/>
	<rect x="156.004" y="149.98" fill="#EFC8A6" width="6" height="6"/>
	<rect x="150.004" y="131.992" fill="#EFC8A6" width="6" height="6"/>
	<rect x="156.004" y="131.992" fill="#E5AC81" width="6" height="6"/>
	<rect x="150.004" y="120.031" fill="#947B42" width="6" height="6"/>
	<rect x="156.004" y="120.031" fill="#665219" width="6" height="6"/>
	<rect x="162.004" y="131.992" fill="#EFD1B8" width="6" height="6"/>
	<rect x="162.004" y="126.004" fill="#EFD1B8" width="6" height="6"/>
	<rect x="126.004" y="114.055" fill="#EFC8A6" width="6" height="6"/>
	<rect x="132.004" y="114.055" fill="#EFC8A6" width="6" height="6"/>
	<rect x="138.004" y="114.055" fill="#EFC8A6" width="6" height="6"/>
	<rect x="144.004" y="114.055" fill="#E5AC81" width="6" height="6"/>
	<rect x="126.004" y="120.031" fill="#C2B59B" width="6" height="6"/>
	<rect x="132.004" y="120.031" fill="#EFC8A6" width="6" height="6"/>
	<rect x="138.004" y="120.031" fill="#EFC8A6" width="6" height="6"/>
	<rect x="144.004" y="120.031" fill="#E5AC81" width="6" height="6"/>
	<rect x="114.004" y="126.004" fill="#EFC8A6" width="6" height="6"/>
	<rect x="120.004" y="126.004" fill="#E5AC81" width="6" height="6"/>
	<rect x="150.004" y="126.004" fill="#AE9D85" width="6" height="6"/>
	<rect x="156.004" y="126.004" fill="#EFD1B8" width="6" height="6"/>
	<rect x="126.004" y="126.004" fill="#E5AC81" width="6" height="6"/>
	<rect x="132.004" y="126.004" fill="#EFC8A6" width="6" height="6"/>
	<rect x="138.004" y="126.004" fill="#EFC8A6" width="6" height="6"/>
	<rect x="144.004" y="126.004" fill="#EFC8A6" width="6" height="6"/>
	<rect x="126.004" y="131.992" fill="#FFFFFF" width="6" height="6"/>
	<rect x="132.004" y="131.992" fill="#EFC8A6" width="6" height="6"/>
	<rect x="138.004" y="131.992" fill="#EFC8A6" width="6" height="6"/>
	<rect x="144.004" y="131.992" fill="#EFC8A6" width="6" height="6"/>
	<rect x="126.004" y="137.992" fill="#EFC8A6" width="6" height="6"/>
	<rect x="132.004" y="137.992" fill="#E5AC81" width="6" height="6"/>
	<rect x="138.004" y="137.992" fill="#F7E0CF" width="6" height="6"/>
	<rect x="144.004" y="137.992" fill="#EFC8A6" width="6" height="6"/>
	<rect x="150.004" y="102.055" fill="#AE9D85" width="6" height="6"/>
	<rect x="156.004" y="102.055" fill="#603913" width="6" height="6"/>
	<rect x="114.004" y="96.066" fill="#665219" width="6" height="6"/>
	<rect x="120.004" y="96.066" fill="#603913" width="6" height="6"/>
	<rect x="126.004" y="96.066" fill="#947B42" width="6" height="6"/>
	<rect x="132.004" y="96.066" fill="#3E2D02" width="6" height="6"/>
	<rect x="138.004" y="96.066" fill="#947B42" width="6" height="6"/>
	<rect x="144.004" y="96.066" fill="#3E2D02" width="6" height="6"/>
	<rect x="150.004" y="96.066" fill="#603913" width="6" height="6"/>
	<rect x="144.004" y="90.066" fill="#665219" width="6" height="6"/>
	<rect x="150.004" y="90.066" fill="#665219" width="6" height="6"/>
	<rect x="156.004" y="96.066" fill="#665219" width="6" height="6"/>
	<rect x="156.004" y="90.066" fill="#665219" width="6" height="6"/>
	<rect x="162.004" y="102.055" fill="#665219" width="6" height="6"/>
	<rect x="162.004" y="96.066" fill="#AE9D85" width="6" height="6"/>
	<rect x="150.004" y="108.055" fill="#AE9D85" width="6" height="6"/>
	<rect x="156.004" y="108.055" fill="#603913" width="6" height="6"/>
	<rect x="150.004" y="114.055" fill="#603913" width="6" height="6"/>
	<rect x="156.004" y="114.055" fill="#947B42" width="6" height="6"/>
	<rect x="162.004" y="120.031" fill="#665219" width="6" height="6"/>
	<rect x="162.004" y="108.055" fill="#603913" width="6" height="6"/>
	<rect x="168.004" y="102.055" fill="#AE9D85" width="6" height="6"/>
	<rect x="168.004" y="108.055" fill="#AE9D85" width="6" height="6"/>
	<rect x="162.004" y="114.055" fill="#665219" width="6" height="6"/>
	<rect x="168.004" y="132.02" fill="#AE9D85" width="6" height="6"/>
	<rect x="168.004" y="126.043" fill="#947B42" width="6" height="6"/>
	<rect x="168.004" y="120.051" fill="#665219" width="6" height="6"/>
	<rect x="168.004" y="114.051" fill="#947B42" width="6" height="6"/>
	<rect x="162.004" y="143.98" fill="#665219" width="6" height="6"/>
	<rect x="162.004" y="149.988" fill="#AE9D85" width="6" height="6"/>
	<rect x="168.004" y="138.008" fill="#947B42" width="6" height="6"/>
	<rect x="162.004" y="138.004" fill="#EFC8A6" width="6" height="6"/>
</g>
</svg>
