<?xml version="1.0" encoding="utf-8"?>
<!-- Generator: Adobe Illustrator 16.0.0, SVG Export Plug-In . SVG Version: 6.00 Build 0)  -->
<!DOCTYPE svg PUBLIC "-//W3C//DTD SVG 1.1//EN" "http://www.w3.org/Graphics/SVG/1.1/DTD/svg11.dtd">
<svg version="1.1" id="Layer_1" xmlns="http://www.w3.org/2000/svg" xmlns:xlink="http://www.w3.org/1999/xlink" x="0px" y="0px"
	 width="300px" height="300px" viewBox="0 0 300 300" enable-background="new 0 0 300 300" xml:space="preserve">
<g>
	<rect x="126" y="99.031" fill="#754C29" width="6" height="6"/>
	<rect x="120" y="99.031" fill="#754C29" width="6" height="6"/>
	<rect x="114" y="99.031" fill="#C49A6C" width="6" height="6"/>
	<rect x="132" y="99.031" fill="#3C2415" width="6" height="6"/>
	<rect x="138" y="99.031" fill="#C2B59B" width="6" height="6"/>
	<rect x="144" y="99.031" fill="#603913" width="6" height="6"/>
	<rect x="120" y="111.023" fill="#3C2415" width="6" height="6"/>
	<rect x="114" y="111.023" fill="#3E2D02" width="6" height="6"/>
	<rect x="114" y="105.023" fill="#754C29" width="6" height="6.008"/>
	<rect x="114" y="117.023" fill="#754C29" width="6" height="6"/>
	<rect x="108" y="111.023" fill="#C49A6C" width="6" height="6"/>
	<rect x="108" y="117.023" fill="#3E2D02" width="6" height="6"/>
	<rect x="126" y="111.023" fill="#C49A6C" width="6" height="6"/>
	<rect x="132" y="111.023" fill="#603913" width="6" height="6"/>
	<rect x="138" y="111.023" fill="#603913" width="6" height="6"/>
	<rect x="144" y="111.023" fill="#754C29" width="6" height="6"/>
	<rect x="150" y="111.023" fill="#EFC8A6" width="6" height="6"/>
	<rect x="120" y="117.023" fill="#EDD69F" width="6" height="6"/>
	<rect x="126" y="117.023" fill="#3C2415" width="6" height="6"/>
	<rect x="132" y="117.023" fill="#603913" width="6" height="6"/>
	<rect x="138" y="117.023" fill="#EDD69F" width="6" height="6"/>
	<rect x="144" y="117.023" fill="#EFC8A6" width="6" height="6"/>
	<rect x="150" y="117.023" fill="#EFC8A6" width="6" height="6"/>
	<rect x="120" y="123.023" fill="#754C29" width="6" height="6"/>
	<rect x="126" y="123.023" fill="#EDD69F" width="6" height="6"/>
	<rect x="120" y="129" fill="#EDD69F" width="6" height="6"/>
	<rect x="126" y="129" fill="#3C2415" width="6" height="6"/>
	<rect x="120" y="140.961" fill="#EDD69F" width="6" height="6"/>
	<rect x="126" y="140.961" fill="#879260" width="6" height="6"/>
	<rect x="120" y="146.969" fill="#EDD69F" width="6" height="6"/>
	<rect x="126" y="146.969" fill="#EEE1BF" width="6" height="6"/>
	<rect x="120" y="152.961" fill="#D5CBAD" width="6" height="6"/>
	<rect x="114" y="146.969" fill="#EDD69F" width="6" height="6"/>
	<rect x="114" y="140.969" fill="#EEE1BF" width="6" height="6"/>
	<rect x="126" y="152.961" fill="#D5CBAD" width="6" height="6"/>
	<rect x="138" y="152.961" fill="#EDD69F" width="6" height="6"/>
	<rect x="132" y="152.961" fill="#D5CBAD" width="6" height="6"/>
	<rect x="144" y="152.961" fill="#EEE1BF" width="6" height="6"/>
	<rect x="156" y="152.961" fill="#EDD69F" width="6" height="6"/>
	<rect x="150" y="152.961" fill="#EFC8A6" width="6" height="6"/>
	<rect x="138" y="158.945" fill="#FFFFFF" width="6" height="6"/>
	<rect x="132" y="158.945" fill="#FFFFFF" width="6" height="6"/>
	<rect x="144" y="158.945" fill="#FFFFFF" width="6" height="6"/>
	<rect x="150" y="158.945" fill="#D28F8C" width="6" height="6"/>
	<rect x="138" y="164.938" fill="#D28F8C" width="6" height="6"/>
	<rect x="132" y="164.938" fill="#D28F8C" width="6" height="6"/>
	<rect x="144" y="164.938" fill="#BB807B" width="6" height="6"/>
	<rect x="150" y="164.938" fill="#EDD69F" width="6" height="6"/>
	<rect x="138" y="170.938" fill="#EDD69F" width="6" height="6"/>
	<rect x="132" y="170.938" fill="#EDD69F" width="6" height="6"/>
	<rect x="144" y="170.938" fill="#EDD69F" width="6" height="6"/>
	<rect x="138" y="176.961" fill="#D5CBAD" width="6" height="6"/>
	<rect x="144" y="176.961" fill="#D5CBAD" width="6" height="6"/>
	<rect x="150" y="176.961" fill="#EDD69F" width="6" height="6"/>
	<rect x="156" y="176.961" fill="#EDD69F" width="6" height="6"/>
	<rect x="138" y="182.961" fill="#D5CBAD" width="6" height="6"/>
	<rect x="144" y="182.961" fill="#EDD69F" width="6" height="6"/>
	<rect x="150" y="182.961" fill="#EDD69F" width="6" height="6"/>
	<rect x="150" y="170.938" fill="#EEE1BF" width="6" height="6"/>
	<rect x="156" y="170.938" fill="#EFC8A6" width="6" height="6"/>
	<rect x="156" y="182.969" fill="#EDD69F" width="6" height="6"/>
	<rect x="132" y="182.969" fill="#1C75BC" width="6" height="6"/>
	<rect x="126" y="182.969" fill="#1C75BC" width="6" height="6"/>
	<rect x="119.996" y="176.969" fill="#1C75BC" width="6" height="6"/>
	<rect x="126" y="176.969" fill="#1C75BC" width="6" height="6"/>
	<rect x="162" y="182.969" fill="#1C75BC" width="6" height="6"/>
	<rect x="168" y="182.969" fill="#1C75BC" width="6" height="6"/>
	<rect x="168" y="176.953" fill="#1C75BC" width="6" height="6"/>
	<rect x="173.82" y="176.953" fill="#1C75BC" width="6" height="6"/>
	<rect x="138" y="194.969" fill="#1C75BC" width="6" height="6"/>
	<rect x="144" y="194.969" fill="#757345" width="6" height="6"/>
	<rect x="156" y="194.969" fill="#1C75BC" width="6" height="6"/>
	<rect x="150" y="194.969" fill="#757345" width="6" height="6"/>
	<rect x="132" y="194.969" fill="#12558B" width="6" height="6"/>
	<rect x="126" y="194.969" fill="#1C75BC" width="6" height="6"/>
	<rect x="120" y="194.969" fill="#1C75BC" width="6" height="6"/>
	<rect x="162" y="194.969" fill="#12558B" width="6" height="6"/>
	<rect x="168" y="194.969" fill="#1C75BC" width="6" height="6"/>
	<rect x="174" y="194.969" fill="#1C75BC" width="6" height="6"/>
	<rect x="180" y="194.969" fill="#1C75BC" width="6" height="6"/>
	<rect x="138" y="206.969" fill="#1C75BC" width="6" height="6"/>
	<rect x="144" y="206.969" fill="#12558B" width="6" height="6"/>
	<rect x="156" y="206.969" fill="#1C75BC" width="6" height="6"/>
	<rect x="150" y="206.969" fill="#12558B" width="6" height="6"/>
	<rect x="132" y="206.969" fill="#1C75BC" width="6" height="6"/>
	<rect x="126" y="206.969" fill="#12558B" width="6" height="6"/>
	<rect x="120" y="206.969" fill="#1C75BC" width="6" height="6"/>
	<rect x="162" y="206.969" fill="#1C75BC" width="6" height="6"/>
	<rect x="168" y="206.969" fill="#12558B" width="6" height="6"/>
	<rect x="174" y="206.969" fill="#1C75BC" width="6" height="6"/>
	<rect x="180" y="206.969" fill="#1C75BC" width="6" height="6"/>
	<rect x="138" y="188.969" fill="#757345" width="6" height="6"/>
	<rect x="144" y="188.969" fill="#EDD69F" width="6" height="6"/>
	<rect x="156" y="188.969" fill="#757345" width="6" height="6"/>
	<rect x="150" y="188.969" fill="#EDD69F" width="6" height="6"/>
	<rect x="132" y="188.969" fill="#1C75BC" width="6" height="6"/>
	<rect x="126" y="188.969" fill="#12558B" width="6" height="6"/>
	<rect x="120" y="188.969" fill="#1C75BC" width="6" height="6"/>
	<rect x="162" y="188.969" fill="#1C75BC" width="6" height="6"/>
	<rect x="168" y="188.969" fill="#12558B" width="6" height="6"/>
	<rect x="174" y="188.969" fill="#1C75BC" width="6" height="6"/>
	<rect x="138" y="200.969" fill="#12558B" width="6" height="6"/>
	<rect x="144" y="200.969" fill="#757345" width="6" height="6"/>
	<rect x="156" y="200.969" fill="#12558B" width="6" height="6"/>
	<rect x="150" y="200.969" fill="#757345" width="6" height="6"/>
	<rect x="132" y="200.969" fill="#1C75BC" width="6" height="6"/>
	<rect x="126" y="200.969" fill="#1C75BC" width="6" height="6"/>
	<rect x="120" y="200.969" fill="#1C75BC" width="6" height="6"/>
	<rect x="114" y="194.969" fill="#1C75BC" width="6" height="6"/>
	<rect x="114" y="206.969" fill="#1C75BC" width="6" height="6"/>
	<rect x="114" y="200.969" fill="#1C75BC" width="6" height="6"/>
	<rect x="162" y="200.969" fill="#1C75BC" width="6" height="6"/>
	<rect x="168" y="200.969" fill="#1C75BC" width="6" height="6"/>
	<rect x="174" y="200.969" fill="#1C75BC" width="6" height="6"/>
	<rect x="180" y="200.969" fill="#1C75BC" width="6" height="6"/>
	<rect x="162" y="152.961" fill="#EDD69F" width="6" height="6"/>
	<rect x="156" y="146.969" fill="#EDD69F" width="6" height="6"/>
	<rect x="162" y="146.969" fill="#D5CBAD" width="6" height="6"/>
	<rect x="156" y="164.938" fill="#EEE1BF" width="6" height="6"/>
	<rect x="162" y="164.938" fill="#EDD69F" width="6" height="6"/>
	<rect x="156" y="158.945" fill="#EDD69F" width="6" height="6"/>
	<rect x="162" y="158.945" fill="#EDD69F" width="6" height="6"/>
	<rect x="156" y="140.961" fill="#3C2415" width="6" height="6"/>
	<rect x="162" y="140.961" fill="#3C2415" width="6" height="6"/>
	<rect x="156" y="129" fill="#603913" width="6" height="6"/>
	<rect x="162" y="129" fill="#3C2415" width="6" height="6"/>
	<rect x="168" y="140.961" fill="#EDD69F" width="6" height="6"/>
	<rect x="168" y="134.969" fill="#3C2415" width="6" height="6"/>
	<rect x="132" y="123.023" fill="#EDD69F" width="6" height="6"/>
	<rect x="138" y="123.023" fill="#EDD69F" width="6" height="6"/>
	<rect x="144" y="123.023" fill="#3C2415" width="6" height="6"/>
	<rect x="150" y="123.023" fill="#754C29" width="6" height="6"/>
	<rect x="132" y="129" fill="#754C29" width="6" height="6"/>
	<rect x="138" y="129" fill="#EDD69F" width="6" height="6"/>
	<rect x="144" y="129" fill="#EDD69F" width="6" height="6"/>
	<rect x="150" y="129" fill="#3C2415" width="6" height="6"/>
	<rect x="120" y="134.969" fill="#EEE1BF" width="6" height="6"/>
	<rect x="126" y="134.969" fill="#EDD69F" width="6" height="6"/>
	<rect x="156" y="134.969" fill="#3C2415" width="6" height="6"/>
	<rect x="162" y="134.969" fill="#603913" width="6" height="6"/>
	<rect x="132" y="134.969" fill="#EDD69F" width="6" height="6"/>
	<rect x="138" y="134.969" fill="#EDD69F" width="6" height="6"/>
	<rect x="144" y="134.969" fill="#EDD69F" width="6" height="6"/>
	<rect x="150" y="134.969" fill="#3C2415" width="6" height="6"/>
	<rect x="132" y="140.961" fill="#FFFFFF" width="6" height="6"/>
	<rect x="138" y="140.961" fill="#EDD69F" width="6" height="6"/>
	<rect x="144" y="140.961" fill="#EDD69F" width="6" height="6"/>
	<rect x="150" y="140.961" fill="#EDD69F" width="6" height="6"/>
	<rect x="132" y="146.961" fill="#EDD69F" width="6" height="6"/>
	<rect x="138" y="146.961" fill="#EEE1BF" width="6" height="6"/>
	<rect x="144" y="146.961" fill="#EFC8A6" width="6" height="6"/>
	<rect x="150" y="146.961" fill="#EFC8A6" width="6" height="6"/>
	<rect x="156" y="111.023" fill="#3E2D02" width="6" height="6"/>
	<rect x="162" y="111.023" fill="#3E2D02" width="6" height="6"/>
	<rect x="120" y="105.031" fill="#3E2D02" width="6" height="6"/>
	<rect x="126" y="105.031" fill="#3C2415" width="6" height="6"/>
	<rect x="132" y="105.031" fill="#C2B59B" width="6" height="6"/>
	<rect x="138" y="105.031" fill="#3C2415" width="6" height="6"/>
	<rect x="144" y="105.031" fill="#3E2D02" width="6" height="6"/>
	<rect x="150" y="105.031" fill="#603913" width="6" height="6"/>
	<rect x="156" y="105.031" fill="#C2B59B" width="6" height="6"/>
	<rect x="150" y="99.031" fill="#603913" width="6" height="6"/>
	<rect x="156" y="99.031" fill="#3E2D02" width="6" height="6"/>
	<rect x="132" y="93.031" fill="#754C29" width="6" height="6"/>
	<rect x="120" y="93.031" fill="#754C29" width="6" height="6"/>
	<rect x="138" y="93.031" fill="#754C29" width="6" height="6"/>
	<rect x="144" y="93.031" fill="#3E2D02" width="6" height="6"/>
	<rect x="144" y="87.031" fill="#754C29" width="6" height="6"/>
	<rect x="138" y="87.031" fill="#C49A6C" width="6" height="6"/>
	<rect x="150" y="93.031" fill="#754C29" width="6" height="6"/>
	<rect x="162" y="105.031" fill="#754C29" width="6" height="6"/>
	<rect x="162" y="99.031" fill="#754C29" width="6" height="6"/>
	<rect x="162" y="93.031" fill="#C49A6C" width="6" height="6"/>
	<rect x="168" y="111.023" fill="#3E2D02" width="6" height="6"/>
	<rect x="168" y="105.031" fill="#603913" width="6" height="6"/>
	<rect x="168" y="99.031" fill="#C49A6C" width="6" height="6"/>
	<rect x="156" y="117.023" fill="#C49A6C" width="6" height="6"/>
	<rect x="162" y="117.023" fill="#754C29" width="6" height="6"/>
	<rect x="156" y="123.023" fill="#3C2415" width="6" height="6"/>
	<rect x="162" y="123.023" fill="#C49A6C" width="6" height="6"/>
	<rect x="168" y="129" fill="#754C29" width="6" height="6"/>
	<rect x="168" y="117.023" fill="#3E2D02" width="6" height="6"/>
	<rect x="174" y="111.023" fill="#603913" width="6" height="6"/>
	<rect x="174" y="117.023" fill="#3E2D02" width="6" height="6"/>
	<rect x="174" y="105.031" fill="#754C29" width="6" height="6"/>
	<rect x="174" y="99.023" fill="#3E2D02" width="6" height="6"/>
	<rect x="180" y="99.023" fill="#754C29" width="6" height="6"/>
	<rect x="180" y="111.023" fill="#C49A6C" width="6" height="6"/>
	<rect x="180" y="117.023" fill="#754C29" width="6" height="6"/>
	<rect x="168" y="123.023" fill="#3C2415" width="6" height="6"/>
	<rect x="174" y="140.984" fill="#EDD69F" width="6" height="6"/>
	<rect x="174" y="135.008" fill="#EFC8A6" width="6" height="6"/>
	<rect x="174" y="129.016" fill="#603913" width="6" height="6"/>
	<rect x="174" y="123.016" fill="#754C29" width="6" height="6"/>
	<rect x="180" y="123.016" fill="#754C29" width="6" height="6"/>
	<rect x="180" y="129" fill="#754C29" width="6" height="6"/>
	<rect x="186" y="123.016" fill="#754C29" width="6" height="6"/>
	<rect x="186" y="129" fill="#C49A6C" width="6" height="6"/>
	<rect x="180" y="135.016" fill="#754C29" width="6" height="6"/>
	<rect x="180" y="141" fill="#754C29" width="6" height="6"/>
	<rect x="168" y="152.945" fill="#3C2415" width="6" height="6"/>
	<rect x="168" y="158.945" fill="#754C29" width="6" height="6"/>
	<rect x="174" y="152.945" fill="#754C29" width="6" height="6"/>
	<rect x="180" y="152.945" fill="#754C29" width="6" height="6"/>
	<rect x="174" y="146.977" fill="#603913" width="6" height="6"/>
	<rect x="168" y="146.969" fill="#EDD69F" width="6" height="6"/>
</g>
</svg>
