<?xml version="1.0" encoding="utf-8"?>
<!-- Generator: Adobe Illustrator 16.0.0, SVG Export Plug-In . SVG Version: 6.00 Build 0)  -->
<!DOCTYPE svg PUBLIC "-//W3C//DTD SVG 1.1//EN" "http://www.w3.org/Graphics/SVG/1.1/DTD/svg11.dtd">
<svg version="1.1" id="Layer_1" xmlns="http://www.w3.org/2000/svg" xmlns:xlink="http://www.w3.org/1999/xlink" x="0px" y="0px"
	 width="300px" height="300px" viewBox="0 0 300 300" enable-background="new 0 0 300 300" xml:space="preserve">
<g>
	<rect x="135" y="194.956" fill="#EFD1B8" width="7.5" height="7.5"/>
	<rect x="142.5" y="194.956" fill="#AD8D75" width="7.5" height="7.5"/>
	<rect x="157.5" y="194.956" fill="#EFD1B8" width="7.5" height="7.5"/>
	<rect x="150" y="194.956" fill="#AD8D75" width="7.5" height="7.5"/>
	<rect x="127.5" y="194.956" fill="#323133" width="7.5" height="7.5"/>
	<rect x="120" y="194.956" fill="#323133" width="7.5" height="7.5"/>
	<rect x="165" y="194.956" fill="#231F20" width="7.5" height="7.5"/>
	<rect x="172.5" y="194.956" fill="#323133" width="7.5" height="7.5"/>
	<rect x="180" y="194.956" fill="#231F20" width="7.5" height="7.5"/>
	<rect x="187.5" y="194.956" fill="#231F20" width="7.5" height="7.5"/>
	<rect x="135" y="209.956" fill="#323133" width="7.5" height="7.5"/>
	<rect x="142.5" y="209.956" fill="#323133" width="7.5" height="7.5"/>
	<rect x="157.5" y="209.956" fill="#323133" width="7.5" height="7.5"/>
	<rect x="150" y="209.956" fill="#323133" width="7.5" height="7.5"/>
	<rect x="127.5" y="209.956" fill="#323133" width="7.5" height="7.5"/>
	<rect x="120" y="209.956" fill="#EFD1B8" width="7.5" height="7.5"/>
	<rect x="165" y="209.956" fill="#323133" width="7.5" height="7.5"/>
	<rect x="172.5" y="209.956" fill="#323133" width="7.5" height="7.5"/>
	<rect x="180" y="209.956" fill="#EFD1B8" width="7.5" height="7.5"/>
	<rect x="187.5" y="209.956" fill="#EFD1B8" width="7.5" height="7.5"/>
	<rect x="135" y="187.456" fill="#AD8D75" width="7.5" height="7.5"/>
	<rect x="142.5" y="187.456" fill="#EFD1B8" width="7.5" height="7.5"/>
	<rect x="157.5" y="187.456" fill="#231F20" width="7.5" height="7.5"/>
	<rect x="150" y="187.456" fill="#231F20" width="7.5" height="7.5"/>
	<rect x="127.5" y="187.456" fill="#231F20" width="7.5" height="7.5"/>
	<rect x="120" y="187.456" fill="#323133" width="7.5" height="7.5"/>
	<rect x="165" y="187.456" fill="#FAC805" width="7.5" height="7.5"/>
	<rect x="172.5" y="187.456" fill="#231F20" width="7.5" height="7.5"/>
	<rect x="180" y="187.456" fill="#231F20" width="7.5" height="7.5"/>
	<rect x="135" y="202.456" fill="#323133" width="7.5" height="7.5"/>
	<rect x="142.5" y="202.456" fill="#EFD1B8" width="7.5" height="7.5"/>
	<rect x="157.5" y="202.456" fill="#323133" width="7.5" height="7.5"/>
	<rect x="150" y="202.456" fill="#EFD1B8" width="7.5" height="7.5"/>
	<rect x="127.5" y="202.456" fill="#323133" width="7.5" height="7.5"/>
	<rect x="120" y="202.456" fill="#323133" width="7.5" height="7.5"/>
	<rect x="112.5" y="194.956" fill="#323133" width="7.5" height="7.5"/>
	<rect x="112.5" y="209.956" fill="#EFD1B8" width="7.5" height="7.5"/>
	<rect x="112.5" y="202.456" fill="#323133" width="7.5" height="7.5"/>
	<rect x="165" y="202.456" fill="#323133" width="7.5" height="7.5"/>
	<rect x="172.5" y="202.456" fill="#231F20" width="7.5" height="7.5"/>
	<rect x="180" y="202.456" fill="#323133" width="7.5" height="7.5"/>
	<rect x="187.5" y="202.456" fill="#323133" width="7.5" height="7.5"/>
	<rect x="112.5" y="97.529" fill="#EED0C6" width="7.5" height="7.5"/>
	<rect x="120" y="97.529" fill="#EED0C6" width="7.5" height="7.5"/>
	<rect x="127.5" y="97.529" fill="#EFD1B8" width="7.5" height="7.5"/>
	<rect x="135" y="97.529" fill="#EFCFC0" width="7.5" height="7.5"/>
	<rect x="142.5" y="97.529" fill="#231F20" width="7.5" height="7.5"/>
	<rect x="112.5" y="105.029" fill="#EED0C6" width="7.5" height="7.5"/>
	<rect x="120" y="105.029" fill="#EED0C6" width="7.5" height="7.5"/>
	<rect x="127.5" y="105.029" fill="#EFD1B8" width="7.5" height="7.5"/>
	<rect x="135" y="105.029" fill="#EFD1B8" width="7.5" height="7.5"/>
	<rect x="142.5" y="105.029" fill="#414042" width="7.5" height="7.5"/>
	<rect x="112.5" y="112.529" fill="#EED0C6" width="7.5" height="7.5"/>
	<rect x="112.5" y="120" fill="#EFD1B8" width="7.5" height="7.5"/>
	<rect x="112.5" y="127.485" fill="#EFD1B8" width="7.5" height="7.5"/>
	<rect x="105" y="135" fill="#EFD1B8" width="7.5" height="7.5"/>
	<rect x="112.5" y="135" fill="#EFD1B8" width="7.5" height="7.5"/>
	<rect x="112.5" y="142.485" fill="#EFD1B8" width="7.5" height="7.5"/>
	<rect x="127.5" y="142.485" fill="#EFD1B8" width="7.5" height="7.5"/>
	<rect x="120" y="142.485" fill="#EFD1B8" width="7.5" height="7.5"/>
	<rect x="135" y="142.485" fill="#F3D9D0" width="7.5" height="7.5"/>
	<rect x="150" y="142.485" fill="#EEBFA2" width="7.5" height="7.5"/>
	<rect x="142.5" y="142.485" fill="#EFCFC0" width="7.5" height="7.5"/>
	<rect x="127.5" y="149.971" fill="#FFFFFF" width="7.5" height="7.5"/>
	<rect x="120" y="149.971" fill="#FFFFFF" width="7.5" height="7.5"/>
	<rect x="135" y="149.971" fill="#D28F8C" width="7.5" height="7.5"/>
	<rect x="142.5" y="149.971" fill="#F3D9D0" width="7.5" height="7.5"/>
	<rect x="127.5" y="157.456" fill="#D28F8C" width="7.5" height="7.5"/>
	<rect x="120" y="157.456" fill="#D28F8C" width="7.5" height="7.5"/>
	<rect x="135" y="157.456" fill="#EFD1B8" width="7.5" height="7.5"/>
	<rect x="142.5" y="157.456" fill="#EFD1B8" width="7.5" height="7.5"/>
	<rect x="127.5" y="164.956" fill="#EFD1B8" width="7.5" height="7.5"/>
	<rect x="120" y="164.956" fill="#EFCFC0" width="7.5" height="7.5"/>
	<rect x="135" y="164.956" fill="#EFD1B8" width="7.5" height="7.5"/>
	<rect x="135" y="172.456" fill="#E5B29B" width="7.5" height="7.5"/>
	<rect x="135" y="179.956" fill="#EFD1B8" width="7.5" height="7.5"/>
	<rect x="142.5" y="172.456" fill="#E5B29B" width="7.5" height="7.5"/>
	<rect x="142.5" y="164.956" fill="#EFD1B8" width="7.5" height="7.5"/>
	<rect x="150" y="164.956" fill="#E5B29B" width="7.5" height="7.5"/>
	<rect x="142.5" y="179.956" fill="#FFFFFF" width="7.5" height="7.5"/>
	<rect x="150" y="179.956" fill="#231F20" width="7.5" height="7.5"/>
	<rect x="127.5" y="179.956" fill="#231F20" width="7.5" height="7.5"/>
	<rect x="120" y="179.956" fill="#231F20" width="7.5" height="7.5"/>
	<rect x="127.5" y="172.456" fill="#231F20" width="7.5" height="7.5"/>
	<rect x="142.5" y="179.956" fill="#EFD1B8" width="7.5" height="7.5"/>
	<rect x="157.5" y="142.485" fill="#231F20" width="7.5" height="7.5"/>
	<rect x="150" y="135" fill="#EEBFA2" width="7.5" height="7.5"/>
	<rect x="157.5" y="135" fill="#EFD1B8" width="7.5" height="7.5"/>
	<rect x="150" y="157.456" fill="#EFD1B8" width="7.5" height="7.5"/>
	<rect x="157.5" y="157.456" fill="#5F3529" width="7.5" height="7.5"/>
	<rect x="150" y="149.971" fill="#EFCFC0" width="7.5" height="7.5"/>
	<rect x="157.5" y="149.971" fill="#231F20" width="7.5" height="7.5"/>
	<rect x="150" y="127.485" fill="#EEE1BF" width="7.5" height="7.5"/>
	<rect x="157.5" y="127.485" fill="#EFD1B8" width="7.5" height="7.5"/>
	<rect x="150" y="120" fill="#EEE1BF" width="7.5" height="7.5"/>
	<rect x="157.5" y="120" fill="#414042" width="7.5" height="7.5"/>
	<rect x="165" y="127.485" fill="#414042" width="7.5" height="7.5"/>
	<rect x="165" y="120" fill="#231F20" width="7.5" height="7.5"/>
	<rect x="120" y="112.515" fill="#231F20" width="7.5" height="7.5"/>
	<rect x="127.5" y="112.515" fill="#9B8579" width="7.5" height="7.5"/>
	<rect x="135" y="112.529" fill="#EFD1B8" width="7.5" height="7.5"/>
	<rect x="142.5" y="112.529" fill="#EFD1B8" width="7.5" height="7.5"/>
	<rect x="120" y="120" fill="#EFD1B8" width="7.5" height="7.5"/>
	<rect x="127.5" y="120" fill="#EFD1B8" width="7.5" height="7.5"/>
	<rect x="135" y="119.985" fill="#EFD1B8" width="7.5" height="7.5"/>
	<rect x="142.5" y="120" fill="#EFD1B8" width="7.5" height="7.5"/>
	<rect x="120" y="127.485" fill="#6A4333" width="7.5" height="7.5"/>
	<rect x="127.5" y="127.485" fill="#FFFFFF" width="7.5" height="7.5"/>
	<rect x="135" y="127.485" fill="#F3D9D0" width="7.5" height="7.5"/>
	<rect x="142.5" y="127.485" fill="#EFD1B8" width="7.5" height="7.5"/>
	<rect x="120" y="134.985" fill="#F3D9D0" width="7.5" height="7.5"/>
	<rect x="127.5" y="134.985" fill="#F3D9D0" width="7.5" height="7.5"/>
	<rect x="135" y="134.985" fill="#EED0C6" width="7.5" height="7.5"/>
	<rect x="142.5" y="134.985" fill="#EEBFA2" width="7.5" height="7.5"/>
	<rect x="150" y="97.529" fill="#231F20" width="7.5" height="7.5"/>
	<rect x="157.5" y="97.529" fill="#231F20" width="7.5" height="7.5"/>
	<rect x="150" y="82.544" fill="#3C2415" width="7.5" height="7.5"/>
	<rect x="157.5" y="82.544" fill="#5F3529" width="7.5" height="7.5"/>
	<rect x="157.5" y="90.044" fill="#3C2415" width="7.5" height="7.5"/>
	<rect x="165" y="90.044" fill="#231F20" width="7.5" height="7.5"/>
	<rect x="112.5" y="90.044" fill="#3C2415" width="7.5" height="7.5"/>
	<rect x="120" y="90.044" fill="#3C2415" width="7.5" height="7.5"/>
	<rect x="127.5" y="90.044" fill="#231F20" width="7.5" height="7.5"/>
	<rect x="135" y="90.044" fill="#3C2415" width="7.5" height="7.5"/>
	<rect x="142.5" y="90.044" fill="#231F20" width="7.5" height="7.5"/>
	<rect x="120" y="82.544" fill="#5F3529" width="7.5" height="7.5"/>
	<rect x="127.5" y="82.544" fill="#3C2415" width="7.5" height="7.5"/>
	<rect x="135" y="82.544" fill="#3C2415" width="7.5" height="7.5"/>
	<rect x="142.5" y="82.544" fill="#3C2415" width="7.5" height="7.5"/>
	<rect x="150" y="90.044" fill="#231F20" width="7.5" height="7.5"/>
	<rect x="150" y="105.029" fill="#231F20" width="7.5" height="7.5"/>
	<rect x="150" y="120" fill="#231F20" width="7.5" height="7.5"/>
	<rect x="150" y="127.485" fill="#231F20" width="7.5" height="7.5"/>
	<rect x="157.5" y="105.029" fill="#3C2415" width="7.5" height="7.5"/>
	<rect x="165" y="105.029" fill="#231F20" width="7.5" height="7.5"/>
	<rect x="165" y="97.529" fill="#231F20" width="7.5" height="7.5"/>
	<rect x="172.5" y="97.529" fill="#231F20" width="7.5" height="7.5"/>
	<rect x="165" y="112.529" fill="#231F20" width="7.5" height="7.5"/>
	<rect x="172.5" y="112.529" fill="#231F20" width="7.5" height="7.5"/>
	<rect x="172.5" y="105.029" fill="#231F20" width="7.5" height="7.5"/>
	<rect x="172.5" y="120.029" fill="#231F20" width="7.5" height="7.5"/>
	<rect x="172.5" y="127.485" fill="#231F20" width="7.5" height="7.5"/>
	<rect x="180" y="142.5" fill="#231F20" width="7.5" height="7.5"/>
	<rect x="172.5" y="135" fill="#414042" width="7.5" height="7.5"/>
	<rect x="180" y="135" fill="#231F20" width="7.5" height="7.5"/>
	<rect x="180" y="150" fill="#231F20" width="7.5" height="7.5"/>
	<rect x="165" y="142.5" fill="#231F20" width="7.5" height="7.5"/>
	<rect x="165" y="135" fill="#231F20" width="7.5" height="7.5"/>
	<rect x="165" y="150" fill="#231F20" width="7.5" height="7.5"/>
	<rect x="180" y="157.456" fill="#231F20" width="7.5" height="7.5"/>
	<rect x="165" y="157.456" fill="#3C2415" width="7.5" height="7.5"/>
	<rect x="180" y="164.956" fill="#231F20" width="7.5" height="7.5"/>
	<rect x="180" y="172.456" fill="#231F20" width="7.5" height="7.5"/>
	<rect x="187.5" y="150" fill="#231F20" width="7.5" height="7.5"/>
	<rect x="187.5" y="157.456" fill="#231F20" width="7.5" height="7.5"/>
	<rect x="187.5" y="164.956" fill="#231F20" width="7.5" height="7.5"/>
	<rect x="180" y="179.956" fill="#231F20" width="7.5" height="7.5"/>
	<rect x="187.5" y="179.956" fill="#231F20" width="7.5" height="7.5"/>
	<rect x="172.5" y="142.5" fill="#231F20" width="7.5" height="7.5"/>
	<rect x="172.5" y="150" fill="#231F20" width="7.5" height="7.5"/>
	<rect x="172.5" y="157.456" fill="#231F20" width="7.5" height="7.5"/>
	<rect x="172.5" y="164.956" fill="#231F20" width="7.5" height="7.5"/>
	<rect x="172.5" y="172.456" fill="#231F20" width="7.5" height="7.5"/>
	<rect x="172.5" y="179.956" fill="#231F20" width="7.5" height="7.5"/>
	<rect x="165" y="172.456" fill="#3C2415" width="7.5" height="7.5"/>
	<rect x="165" y="179.956" fill="#3C2415" width="7.5" height="7.5"/>
	<rect x="165" y="187.456" fill="#231F20" width="7.5" height="7.5"/>
	<rect x="165" y="164.956" fill="#3C2415" width="7.5" height="7.5"/>
	<rect x="157.5" y="164.956" fill="#231F20" width="7.5" height="7.5"/>
	<rect x="157.5" y="172.456" fill="#3C2415" width="7.5" height="7.5"/>
	<rect x="157.5" y="179.956" fill="#231F20" width="7.5" height="7.5"/>
	<rect x="150" y="172.456" fill="#EFD1B8" width="7.5" height="7.5"/>
	<rect x="150" y="112.529" fill="#414042" width="7.5" height="7.5"/>
	<rect x="157.5" y="112.529" fill="#5F3529" width="7.5" height="7.5"/>
</g>
</svg>
