<?xml version="1.0" encoding="utf-8"?>
<!-- Generator: Adobe Illustrator 16.0.0, SVG Export Plug-In . SVG Version: 6.00 Build 0)  -->
<!DOCTYPE svg PUBLIC "-//W3C//DTD SVG 1.1//EN" "http://www.w3.org/Graphics/SVG/1.1/DTD/svg11.dtd">
<svg version="1.1" id="Layer_1" xmlns="http://www.w3.org/2000/svg" xmlns:xlink="http://www.w3.org/1999/xlink" x="0px" y="0px"
	 width="300px" height="300px" viewBox="0 0 300 300" enable-background="new 0 0 300 300" xml:space="preserve">
<g>
	<rect x="123.75" y="71.321" fill="#2F292B" width="7.5" height="7.5"/>
	<rect x="116.25" y="71.321" fill="#4E3D15" width="7.5" height="7.5"/>
	<rect x="131.25" y="71.321" fill="#4E3D15" width="7.5" height="7.5"/>
	<rect x="138.75" y="71.321" fill="#2F292B" width="7.5" height="7.5"/>
	<rect x="146.25" y="71.321" fill="#2F292B" width="7.5" height="7.5"/>
	<rect x="116.25" y="86.306" fill="#2F292B" width="7.5" height="7.5"/>
	<rect x="123.75" y="86.306" fill="#2F292B" width="7.5" height="7.5"/>
	<rect x="131.25" y="86.306" fill="#2F292B" width="7.5" height="7.5"/>
	<rect x="138.75" y="86.306" fill="#2F292B" width="7.5" height="7.5"/>
	<rect x="146.25" y="86.306" fill="#2F292B" width="7.5" height="7.5"/>
	<rect x="153.75" y="86.306" fill="#2F292B" width="7.5" height="7.5"/>
	<rect x="116.25" y="93.806" fill="#EEE1BF" width="7.5" height="7.5"/>
	<rect x="123.75" y="93.806" fill="#EEE1BF" width="7.5" height="7.5"/>
	<rect x="131.25" y="93.806" fill="#EEE1BF" width="7.5" height="7.5"/>
	<rect x="138.75" y="93.806" fill="#EBC297" width="7.5" height="7.5"/>
	<rect x="146.25" y="93.806" fill="#EBC297" width="7.5" height="7.5"/>
	<rect x="153.75" y="93.806" fill="#2F292B" width="7.5" height="7.5"/>
	<rect x="116.25" y="108.796" fill="#EEE1BF" width="7.5" height="7.5"/>
	<rect x="123.75" y="108.796" fill="#6E5D55" width="7.5" height="7.5"/>
	<rect x="116.25" y="116.267" fill="#EDD69F" width="7.5" height="7.5"/>
	<rect x="123.75" y="116.267" fill="#EDD69F" width="7.5" height="7.5"/>
	<rect x="116.25" y="131.218" fill="#EDD69F" width="7.5" height="7.5"/>
	<rect x="123.75" y="131.218" fill="#EDD69F" width="7.5" height="7.5"/>
	<rect x="116.25" y="138.733" fill="#EEE1BF" width="7.5" height="7.5"/>
	<rect x="123.75" y="138.733" fill="#EDD69F" width="7.5" height="7.5"/>
	<rect x="116.25" y="153.748" fill="#4E3D15" width="7.5" height="7.5"/>
	<rect x="108.75" y="131.233" fill="#EDD69F" width="7.5" height="7.5"/>
	<rect x="108.75" y="138.733" fill="#EBC297" width="7.5" height="7.5"/>
	<rect x="101.25" y="138.733" fill="#EDD69F" width="7.5" height="7.5"/>
	<rect x="108.75" y="123.733" fill="#EDD69F" width="7.5" height="7.5"/>
	<rect x="108.75" y="116.282" fill="#EEE1BF" width="7.5" height="7.5"/>
	<rect x="123.75" y="153.748" fill="#4E3D15" width="7.5" height="7.5"/>
	<rect x="138.75" y="153.748" fill="#775D26" width="7.5" height="7.5"/>
	<rect x="131.25" y="153.748" fill="#6E5D55" width="7.5" height="7.5"/>
	<rect x="146.25" y="153.748" fill="#A48B54" width="7.5" height="7.5"/>
	<rect x="161.25" y="153.748" fill="#775D26" width="7.5" height="7.5"/>
	<rect x="153.75" y="153.748" fill="#9F7E2D" width="7.5" height="7.5"/>
	<rect x="138.75" y="161.233" fill="#FFFFFF" width="7.5" height="7.5"/>
	<rect x="131.25" y="161.233" fill="#FFFFFF" width="7.5" height="7.5"/>
	<rect x="146.25" y="161.233" fill="#FFFFFF" width="7.5" height="7.5"/>
	<rect x="153.75" y="161.233" fill="#C62C3D" width="7.5" height="7.5"/>
	<rect x="138.75" y="168.718" fill="#C62C3D" width="7.5" height="7.5"/>
	<rect x="131.25" y="168.718" fill="#C62C3D" width="7.5" height="7.5"/>
	<rect x="146.25" y="168.718" fill="#C62C3D" width="7.5" height="7.5"/>
	<rect x="153.75" y="168.718" fill="#4E3D15" width="7.5" height="7.5"/>
	<rect x="138.75" y="176.218" fill="#775D26" width="7.5" height="7.5"/>
	<rect x="131.25" y="176.218" fill="#775D26" width="7.5" height="7.5"/>
	<rect x="146.25" y="176.218" fill="#4E3D15" width="7.5" height="7.5"/>
	<rect x="138.75" y="183.718" fill="#4E3D15" width="7.5" height="7.5"/>
	<rect x="131.25" y="183.718" fill="#4E3D15" width="7.5" height="7.5"/>
	<rect x="123.75" y="176.218" fill="#4E3D15" width="7.5" height="7.5"/>
	<rect x="123.75" y="168.718" fill="#C62C3D" width="7.5" height="7.5"/>
	<rect x="146.25" y="183.718" fill="#EDD69F" width="7.5" height="7.5"/>
	<rect x="138.75" y="198.679" fill="#EDD69F" width="7.5" height="7.5"/>
	<rect x="146.25" y="198.679" fill="#EDD69F" width="7.5" height="7.5"/>
	<rect x="153.75" y="183.718" fill="#EDD69F" width="7.5" height="7.5"/>
	<rect x="138.75" y="191.179" fill="#EEE1BF" width="7.5" height="7.5"/>
	<rect x="146.25" y="191.179" fill="#EDD69F" width="7.5" height="7.5"/>
	<rect x="153.75" y="191.179" fill="#EDD69F" width="7.5" height="7.5"/>
	<rect x="153.75" y="176.218" fill="#4E3D15" width="7.5" height="7.5"/>
	<rect x="161.25" y="176.218" fill="#4E3D15" width="7.5" height="7.5"/>
	<rect x="161.25" y="198.679" fill="#9CB6C8" width="7.5" height="7.5"/>
	<rect x="153.75" y="198.679" fill="#EDD69F" width="7.5" height="7.5"/>
	<rect x="131.25" y="198.679" fill="#9CB6C8" width="7.5" height="7.5"/>
	<rect x="123.75" y="198.679" fill="#7F95A5" width="7.5" height="7.5"/>
	<rect x="168.75" y="198.679" fill="#7F95A5" width="7.5" height="7.5"/>
	<rect x="176.25" y="198.679" fill="#7F95A5" width="7.5" height="7.5"/>
	<rect x="138.75" y="213.679" fill="#7F95A5" width="7.5" height="7.5"/>
	<rect x="146.25" y="213.679" fill="#7F95A5" width="7.5" height="7.5"/>
	<rect x="161.25" y="213.679" fill="#7F95A5" width="7.5" height="7.5"/>
	<rect x="153.75" y="213.679" fill="#7F95A5" width="7.5" height="7.5"/>
	<rect x="131.25" y="213.679" fill="#7F95A5" width="7.5" height="7.5"/>
	<rect x="123.75" y="213.679" fill="#7F95A5" width="7.5" height="7.5"/>
	<rect x="116.25" y="213.679" fill="#7F95A5" width="7.5" height="7.5"/>
	<rect x="168.75" y="213.679" fill="#7F95A5" width="7.5" height="7.5"/>
	<rect x="176.25" y="213.679" fill="#7F95A5" width="7.5" height="7.5"/>
	<rect x="183.75" y="213.679" fill="#7F95A5" width="7.5" height="7.5"/>
	<rect x="191.25" y="213.679" fill="#8A9EAD" width="7.5" height="7.5"/>
	<rect x="138.75" y="228.679" fill="#7F95A5" width="7.5" height="7.5"/>
	<rect x="146.25" y="228.679" fill="#7F95A5" width="7.5" height="7.5"/>
	<rect x="161.25" y="228.679" fill="#7F95A5" width="7.5" height="7.5"/>
	<rect x="153.75" y="228.679" fill="#7F95A5" width="7.5" height="7.5"/>
	<rect x="131.25" y="228.679" fill="#7F95A5" width="7.5" height="7.5"/>
	<rect x="123.75" y="228.679" fill="#6D808E" width="7.5" height="7.5"/>
	<rect x="116.25" y="228.679" fill="#7F95A5" width="7.5" height="7.5"/>
	<rect x="168.75" y="228.679" fill="#6D808E" width="7.5" height="7.5"/>
	<rect x="176.25" y="228.679" fill="#7F95A5" width="7.5" height="7.5"/>
	<rect x="183.75" y="228.679" fill="#7F95A5" width="7.5" height="7.5"/>
	<rect x="191.25" y="228.679" fill="#7F95A5" width="7.5" height="7.5"/>
	<rect x="138.75" y="206.179" fill="#9CB6C8" width="7.5" height="7.5"/>
	<rect x="146.25" y="206.179" fill="#9CB6C8" width="7.5" height="7.5"/>
	<rect x="161.25" y="206.179" fill="#9CB6C8" width="7.5" height="7.5"/>
	<rect x="153.75" y="206.179" fill="#9CB6C8" width="7.5" height="7.5"/>
	<rect x="131.25" y="206.179" fill="#9CB6C8" width="7.5" height="7.5"/>
	<rect x="123.75" y="206.179" fill="#7F95A5" width="7.5" height="7.5"/>
	<rect x="116.25" y="206.179" fill="#7F95A5" width="7.5" height="7.5"/>
	<rect x="168.75" y="206.179" fill="#7F95A5" width="7.5" height="7.5"/>
	<rect x="176.25" y="206.179" fill="#7F95A5" width="7.5" height="7.5"/>
	<rect x="183.75" y="206.179" fill="#8A9EAD" width="7.5" height="7.5"/>
	<rect x="191.25" y="206.179" fill="#8A9EAD" width="7.5" height="7.5"/>
	<rect x="138.75" y="221.179" fill="#7F95A5" width="7.5" height="7.5"/>
	<rect x="146.25" y="221.179" fill="#7F95A5" width="7.5" height="7.5"/>
	<rect x="161.25" y="221.179" fill="#7F95A5" width="7.5" height="7.5"/>
	<rect x="153.75" y="221.179" fill="#7F95A5" width="7.5" height="7.5"/>
	<rect x="131.25" y="221.179" fill="#7F95A5" width="7.5" height="7.5"/>
	<rect x="123.75" y="221.179" fill="#6D808E" width="7.5" height="7.5"/>
	<rect x="116.25" y="221.179" fill="#7F95A5" width="7.5" height="7.5"/>
	<rect x="108.75" y="213.679" fill="#7F95A5" width="7.5" height="7.5"/>
	<rect x="108.75" y="228.679" fill="#7F95A5" width="7.5" height="7.5"/>
	<rect x="108.75" y="221.179" fill="#7F95A5" width="7.5" height="7.5"/>
	<rect x="168.75" y="221.179" fill="#6D808E" width="7.5" height="7.5"/>
	<rect x="176.25" y="221.179" fill="#7F95A5" width="7.5" height="7.5"/>
	<rect x="183.75" y="221.179" fill="#7F95A5" width="7.5" height="7.5"/>
	<rect x="191.25" y="221.179" fill="#8A9EAD" width="7.5" height="7.5"/>
	<rect x="168.75" y="153.748" fill="#4E3D15" width="7.5" height="7.5"/>
	<rect x="161.25" y="138.733" fill="#775D26" width="7.5" height="7.5"/>
	<rect x="168.75" y="138.733" fill="#4E3D15" width="7.5" height="7.5"/>
	<rect x="161.25" y="168.718" fill="#4E3D15" width="7.5" height="7.5"/>
	<rect x="168.75" y="168.718" fill="#4E3D15" width="7.5" height="7.5"/>
	<rect x="161.25" y="161.233" fill="#4E3D15" width="7.5" height="7.5"/>
	<rect x="168.75" y="161.233" fill="#4E3D15" width="7.5" height="7.5"/>
	<rect x="161.25" y="131.218" fill="#EDD69F" width="7.5" height="7.5"/>
	<rect x="168.75" y="131.218" fill="#2F292B" width="7.5" height="7.5"/>
	<rect x="161.25" y="116.267" fill="#2F292B" width="7.5" height="7.5"/>
	<rect x="168.75" y="116.267" fill="#2F292B" width="7.5" height="7.5"/>
	<rect x="176.25" y="131.218" fill="#EDD69F" width="7.5" height="7.5"/>
	<rect x="176.25" y="123.733" fill="#C2B99F" width="7.5" height="7.5"/>
	<rect x="131.25" y="108.796" fill="#6E5D55" width="7.5" height="7.5"/>
	<rect x="138.75" y="108.796" fill="#EDD69F" width="7.5" height="7.5"/>
	<rect x="146.25" y="108.796" fill="#EDD69F" width="7.5" height="7.5"/>
	<rect x="153.75" y="108.796" fill="#EBC297" width="7.5" height="7.5"/>
	<rect x="131.25" y="116.267" fill="#EDD69F" width="7.5" height="7.5"/>
	<rect x="138.75" y="116.267" fill="#6E5D55" width="7.5" height="7.5"/>
	<rect x="146.25" y="116.267" fill="#EDD69F" width="7.5" height="7.5"/>
	<rect x="153.75" y="116.267" fill="#EDD69F" width="7.5" height="7.5"/>
	<rect x="116.25" y="123.733" fill="#EDD69F" width="7.5" height="7.5"/>
	<rect x="123.75" y="123.733" fill="#4C2F1C" width="7.5" height="7.5"/>
	<rect x="161.25" y="123.733" fill="#EDD69F" width="7.5" height="7.5"/>
	<rect x="168.75" y="123.733" fill="#2F292B" width="7.5" height="7.5"/>
	<rect x="131.25" y="123.733" fill="#FFFFFF" width="7.5" height="7.5"/>
	<rect x="138.75" y="123.733" fill="#EDD69F" width="7.5" height="7.5"/>
	<rect x="146.25" y="123.733" fill="#EDD69F" width="7.5" height="7.5"/>
	<rect x="153.75" y="123.733" fill="#EDD69F" width="7.5" height="7.5"/>
	<rect x="131.25" y="131.218" fill="#EDD69F" width="7.5" height="7.5"/>
	<rect x="138.75" y="131.218" fill="#EDD69F" width="7.5" height="7.5"/>
	<rect x="146.25" y="131.218" fill="#EDD69F" width="7.5" height="7.5"/>
	<rect x="153.75" y="131.218" fill="#EDD69F" width="7.5" height="7.5"/>
	<rect x="131.25" y="138.718" fill="#EDD69F" width="7.5" height="7.5"/>
	<rect x="138.75" y="138.718" fill="#EBC297" width="7.5" height="7.5"/>
	<rect x="146.25" y="138.718" fill="#EBC297" width="7.5" height="7.5"/>
	<rect x="153.75" y="138.718" fill="#EDD69F" width="7.5" height="7.5"/>
	<rect x="116.25" y="146.248" fill="#4E3D15" width="7.5" height="7.5"/>
	<rect x="123.75" y="146.248" fill="#4E3D15" width="7.5" height="7.5"/>
	<rect x="161.25" y="146.248" fill="#775D26" width="7.5" height="7.5"/>
	<rect x="168.75" y="146.248" fill="#4E3D15" width="7.5" height="7.5"/>
	<rect x="131.25" y="146.233" fill="#EDD69F" width="7.5" height="7.5"/>
	<rect x="138.75" y="146.233" fill="#EDD69F" width="7.5" height="7.5"/>
	<rect x="146.25" y="146.233" fill="#EBC297" width="7.5" height="7.5"/>
	<rect x="153.75" y="146.233" fill="#EBC297" width="7.5" height="7.5"/>
	<rect x="161.25" y="86.306" fill="#2F292B" width="7.5" height="7.5"/>
	<rect x="168.75" y="86.306" fill="#4E3D15" width="7.5" height="7.5"/>
	<rect x="116.25" y="78.821" fill="#2F292B" width="7.5" height="7.5"/>
	<rect x="108.75" y="78.821" fill="#2F292B" width="7.5" height="7.5"/>
	<rect x="108.75" y="71.321" fill="#2F292B" width="7.5" height="7.5"/>
	<rect x="123.75" y="78.821" fill="#4E3D15" width="7.5" height="7.5"/>
	<rect x="131.25" y="78.821" fill="#2F292B" width="7.5" height="7.5"/>
	<rect x="138.75" y="78.821" fill="#4E3D15" width="7.5" height="7.5"/>
	<rect x="146.25" y="78.821" fill="#2F292B" width="7.5" height="7.5"/>
	<rect x="153.75" y="78.821" fill="#2F292B" width="7.5" height="7.5"/>
	<rect x="161.25" y="78.821" fill="#2F292B" width="7.5" height="7.5"/>
	<rect x="153.75" y="71.321" fill="#2F292B" width="7.5" height="7.5"/>
	<rect x="123.75" y="63.821" fill="#4E3D15" width="7.5" height="7.5"/>
	<rect x="116.25" y="63.821" fill="#2F292B" width="7.5" height="7.5"/>
	<rect x="131.25" y="63.821" fill="#2F292B" width="7.5" height="7.5"/>
	<rect x="138.75" y="63.821" fill="#2F292B" width="7.5" height="7.5"/>
	<rect x="146.25" y="63.821" fill="#4E3D15" width="7.5" height="7.5"/>
	<rect x="153.75" y="63.821" fill="#4E3D15" width="7.5" height="7.5"/>
	<rect x="161.25" y="71.321" fill="#2F292B" width="7.5" height="7.5"/>
	<rect x="168.75" y="78.821" fill="#2F292B" width="7.5" height="7.5"/>
	<rect x="168.75" y="71.321" fill="#4E3D15" width="7.5" height="7.5"/>
	<rect x="176.25" y="86.306" fill="#2F292B" width="7.5" height="7.5"/>
	<rect x="176.25" y="78.821" fill="#4E3D15" width="7.5" height="7.5"/>
	<rect x="161.25" y="93.806" fill="#4E3D15" width="7.5" height="7.5"/>
	<rect x="168.75" y="93.806" fill="#2F292B" width="7.5" height="7.5"/>
	<rect x="161.25" y="108.796" fill="#4E3D15" width="7.5" height="7.5"/>
	<rect x="168.75" y="108.796" fill="#2F292B" width="7.5" height="7.5"/>
	<rect x="176.25" y="116.267" fill="#EBC297" width="7.5" height="7.5"/>
	<rect x="176.25" y="93.806" fill="#4E3D15" width="7.5" height="7.5"/>
	<rect x="183.75" y="86.306" fill="#2F292B" width="7.5" height="7.5"/>
	<rect x="183.75" y="93.806" fill="#2F292B" width="7.5" height="7.5"/>
	<rect x="116.25" y="101.306" fill="#EBC297" width="7.5" height="7.5"/>
	<rect x="123.75" y="101.306" fill="#EBC297" width="7.5" height="7.5"/>
	<rect x="131.25" y="101.306" fill="#EDD69F" width="7.5" height="7.5"/>
	<rect x="138.75" y="101.306" fill="#EDD69F" width="7.5" height="7.5"/>
	<rect x="146.25" y="101.306" fill="#EBC297" width="7.5" height="7.5"/>
	<rect x="153.75" y="101.306" fill="#2F292B" width="7.5" height="7.5"/>
	<rect x="161.25" y="101.306" fill="#2F292B" width="7.5" height="7.5"/>
	<rect x="168.75" y="101.306" fill="#4E3D15" width="7.5" height="7.5"/>
	<rect x="176.25" y="101.306" fill="#2F292B" width="7.5" height="7.5"/>
	<rect x="183.75" y="101.306" fill="#2F292B" width="7.5" height="7.5"/>
	<rect x="176.25" y="108.796" fill="#2F292B" width="7.5" height="7.5"/>
	<rect x="183.75" y="131.252" fill="#EDD69F" width="7.5" height="7.5"/>
	<rect x="183.75" y="123.782" fill="#EBC297" width="7.5" height="7.5"/>
	<rect x="183.75" y="116.292" fill="#EBC297" width="7.5" height="7.5"/>
	<rect x="183.75" y="108.792" fill="#2F292B" width="7.5" height="7.5"/>
	<rect x="176.25" y="138.733" fill="#EDD69F" width="7.5" height="7.5"/>
</g>
</svg>
