<?xml version="1.0" encoding="utf-8"?>
<!-- Generator: Adobe Illustrator 16.0.0, SVG Export Plug-In . SVG Version: 6.00 Build 0)  -->
<!DOCTYPE svg PUBLIC "-//W3C//DTD SVG 1.1//EN" "http://www.w3.org/Graphics/SVG/1.1/DTD/svg11.dtd">
<svg version="1.1" id="Layer_1" xmlns="http://www.w3.org/2000/svg" xmlns:xlink="http://www.w3.org/1999/xlink" x="0px" y="0px"
	 width="300px" height="300px" viewBox="0 0 300 300" enable-background="new 0 0 300 300" xml:space="preserve">
<g>
	<rect x="129" y="90.064" fill="#A48B54" width="6" height="6"/>
	<rect x="135" y="90.064" fill="#84796C" width="6" height="6"/>
	<rect x="141" y="90.064" fill="#84796C" width="6" height="6"/>
	<rect x="147" y="90.064" fill="#A48B54" width="6" height="6"/>
	<rect x="123" y="102.053" fill="#6E5D55" width="6" height="6"/>
	<rect x="129" y="102.053" fill="#6E5D55" width="6" height="6"/>
	<rect x="135" y="102.053" fill="#6E5D55" width="6" height="6"/>
	<rect x="141" y="102.053" fill="#A48B54" width="6" height="6"/>
	<rect x="147" y="102.053" fill="#6E5D55" width="6" height="6"/>
	<rect x="153" y="102.053" fill="#6E5D55" width="6" height="6"/>
	<rect x="123" y="108.053" fill="#EDD69F" width="6" height="6"/>
	<rect x="117" y="108.053" fill="#84796C" width="6" height="6"/>
	<rect x="117" y="102.053" fill="#84796C" width="6" height="6"/>
	<rect x="129" y="108.053" fill="#EDD69F" width="6" height="6"/>
	<rect x="135" y="108.053" fill="#A2A4A6" width="6" height="6"/>
	<rect x="141" y="108.053" fill="#84796C" width="6" height="6"/>
	<rect x="147" y="108.053" fill="#84796C" width="6" height="6"/>
	<rect x="153" y="108.053" fill="#6E5D55" width="6" height="6"/>
	<rect x="123" y="114.053" fill="#EDD69F" width="6" height="6"/>
	<rect x="129" y="114.053" fill="#EEE1BF" width="6" height="6"/>
	<rect x="123" y="120.029" fill="#EDD69F" width="6" height="6"/>
	<rect x="129" y="120.029" fill="#A9958A" width="6" height="6"/>
	<rect x="123" y="131.99" fill="#EDD69F" width="6" height="6"/>
	<rect x="129" y="131.99" fill="#4C2F1C" width="6" height="6"/>
	<rect x="123" y="138.002" fill="#EDD69F" width="6" height="6"/>
	<rect x="129" y="138.002" fill="#EDD69F" width="6" height="6"/>
	<rect x="123" y="143.99" fill="#D5CBAD" width="6" height="6"/>
	<rect x="117" y="139.49" fill="#EDD69F" width="6" height="6"/>
	<rect x="111" y="139.49" fill="#EDD69F" width="6" height="6"/>
	<rect x="117" y="133.49" fill="#EEE1BF" width="6" height="6"/>
	<rect x="129" y="143.99" fill="#D5CBAD" width="6" height="6"/>
	<rect x="141" y="143.99" fill="#D5CBAD" width="6" height="6"/>
	<rect x="135" y="143.99" fill="#D5CBAD" width="6" height="6"/>
	<rect x="147" y="143.99" fill="#EDD69F" width="6" height="6"/>
	<rect x="159" y="143.99" fill="#EDD69F" width="6" height="6"/>
	<rect x="153" y="143.99" fill="#EEE1BF" width="6" height="6"/>
	<rect x="141" y="149.979" fill="#FFFFFF" width="6" height="6"/>
	<rect x="135" y="149.979" fill="#FFFFFF" width="6" height="6"/>
	<rect x="147" y="149.979" fill="#FFFFFF" width="6" height="6"/>
	<rect x="153" y="149.979" fill="#BB807B" width="6" height="6"/>
	<rect x="141" y="155.967" fill="#D28F8C" width="6" height="6"/>
	<rect x="135" y="155.967" fill="#D28F8C" width="6" height="6"/>
	<rect x="147" y="155.967" fill="#BB807B" width="6" height="6"/>
	<rect x="153" y="155.967" fill="#EDD69F" width="6" height="6"/>
	<rect x="141" y="161.967" fill="#D5CBAD" width="6" height="6"/>
	<rect x="135" y="161.967" fill="#D5CBAD" width="6" height="6"/>
	<rect x="147" y="161.967" fill="#EDD69F" width="6" height="6"/>
	<rect x="141" y="167.967" fill="#C2B99F" width="6" height="6"/>
	<rect x="147" y="167.967" fill="#D5CBAD" width="6" height="6"/>
	<rect x="141" y="179.936" fill="#EDD69F" width="6" height="6"/>
	<rect x="147" y="179.936" fill="#EDD69F" width="6" height="6"/>
	<rect x="153" y="167.967" fill="#EDD69F" width="6" height="6"/>
	<rect x="141" y="173.936" fill="#D5CBAD" width="6" height="6"/>
	<rect x="147" y="173.936" fill="#D5CBAD" width="6" height="6"/>
	<rect x="153" y="173.936" fill="#EDD69F" width="6" height="6"/>
	<rect x="153" y="161.967" fill="#EDD69F" width="6" height="6"/>
	<rect x="159" y="161.967" fill="#EDD69F" width="6" height="6"/>
	<rect x="159" y="173.936" fill="#B4A7B8" width="6" height="6"/>
	<rect x="165" y="173.936" fill="#908693" width="6" height="6"/>
	<rect x="171" y="167.967" fill="#908693" width="6" height="6"/>
	<rect x="165" y="167.967" fill="#B4A7B8" width="6" height="6"/>
	<rect x="159" y="179.936" fill="#B4A7B8" width="6" height="6"/>
	<rect x="153" y="179.936" fill="#EDD69F" width="6" height="6"/>
	<rect x="135" y="179.936" fill="#B4A7B8" width="6" height="6"/>
	<rect x="129" y="179.936" fill="#908693" width="6" height="6"/>
	<rect x="135" y="173.936" fill="#B4A7B8" width="6" height="6"/>
	<rect x="129" y="173.936" fill="#B4A7B8" width="6" height="6"/>
	<rect x="123" y="173.936" fill="#908693" width="6" height="6"/>
	<rect x="165" y="179.936" fill="#908693" width="6" height="6"/>
	<rect x="171" y="179.936" fill="#B4A7B8" width="6" height="6"/>
	<rect x="177" y="179.936" fill="#B4A7B8" width="6" height="6"/>
	<rect x="141" y="191.936" fill="#FFFFFF" width="6" height="6"/>
	<rect x="147" y="191.936" fill="#B4A7B8" width="6" height="6"/>
	<rect x="159" y="191.936" fill="#FFFFFF" width="6" height="6"/>
	<rect x="153" y="191.936" fill="#D8DADA" width="6" height="6"/>
	<rect x="135" y="191.936" fill="#2F292B" width="6" height="6"/>
	<rect x="129" y="191.936" fill="#908693" width="6" height="6"/>
	<rect x="123" y="191.936" fill="#B4A7B8" width="6" height="6"/>
	<rect x="165" y="191.936" fill="#908693" width="6" height="6"/>
	<rect x="171" y="191.936" fill="#B4A7B8" width="6" height="6"/>
	<rect x="177" y="191.936" fill="#B4A7B8" width="6" height="6"/>
	<rect x="183" y="191.936" fill="#B4A7B8" width="6" height="6"/>
	<rect x="141" y="203.936" fill="#908693" width="6" height="6"/>
	<rect x="147" y="203.936" fill="#FFFFFF" width="6" height="6"/>
	<rect x="159" y="203.936" fill="#B4A7B8" width="6" height="6"/>
	<rect x="153" y="203.936" fill="#908693" width="6" height="6"/>
	<rect x="135" y="203.936" fill="#B4A7B8" width="6" height="6"/>
	<rect x="129" y="203.936" fill="#B4A7B8" width="6" height="6"/>
	<rect x="123" y="203.936" fill="#908693" width="6" height="6"/>
	<rect x="165" y="203.936" fill="#B4A7B8" width="6" height="6"/>
	<rect x="171" y="203.936" fill="#908693" width="6" height="6"/>
	<rect x="177" y="203.936" fill="#B4A7B8" width="6" height="6"/>
	<rect x="183" y="203.936" fill="#B4A7B8" width="6" height="6"/>
	<rect x="141" y="185.936" fill="#A2A4A6" width="6" height="6"/>
	<rect x="147" y="185.936" fill="#FFFFFF" width="6" height="6"/>
	<rect x="159" y="185.936" fill="#F3F4F5" width="6" height="6"/>
	<rect x="153" y="185.936" fill="#6C6D70" width="6" height="6"/>
	<rect x="135" y="185.936" fill="#F3F4F5" width="6" height="6"/>
	<rect x="129" y="185.936" fill="#908693" width="6" height="6"/>
	<rect x="123" y="185.936" fill="#B4A7B8" width="6" height="6"/>
	<rect x="165" y="185.936" fill="#908693" width="6" height="6"/>
	<rect x="171" y="185.936" fill="#B4A7B8" width="6" height="6"/>
	<rect x="177" y="185.936" fill="#B4A7B8" width="6" height="6"/>
	<rect x="183" y="185.936" fill="#B4A7B8" width="6" height="6"/>
	<rect x="141" y="197.936" fill="#908693" width="6" height="6"/>
	<rect x="147" y="197.936" fill="#B4A7B8" width="6" height="6"/>
	<rect x="159" y="197.936" fill="#908693" width="6" height="6"/>
	<rect x="153" y="197.936" fill="#908693" width="6" height="6"/>
	<rect x="135" y="197.936" fill="#908693" width="6" height="6"/>
	<rect x="129" y="197.936" fill="#B4A7B8" width="6" height="6"/>
	<rect x="123" y="197.936" fill="#B4A7B8" width="6" height="6"/>
	<rect x="117" y="191.936" fill="#B4A7B8" width="6" height="6"/>
	<rect x="117" y="203.936" fill="#B4A7B8" width="6" height="6"/>
	<rect x="117" y="197.936" fill="#B4A7B8" width="6" height="6"/>
	<rect x="165" y="197.936" fill="#B4A7B8" width="6" height="6"/>
	<rect x="171" y="197.936" fill="#B4A7B8" width="6" height="6"/>
	<rect x="177" y="197.936" fill="#B4A7B8" width="6" height="6"/>
	<rect x="183" y="197.936" fill="#B4A7B8" width="6" height="6"/>
	<rect x="165" y="143.99" fill="#EDD69F" width="6" height="6"/>
	<rect x="159" y="138.002" fill="#EDD69F" width="6" height="6"/>
	<rect x="165" y="138.002" fill="#EDD69F" width="6" height="6"/>
	<rect x="159" y="155.967" fill="#EDD69F" width="6" height="6"/>
	<rect x="165" y="155.967" fill="#EDD69F" width="6" height="6"/>
	<rect x="159" y="149.979" fill="#EEE1BF" width="6" height="6"/>
	<rect x="165" y="149.979" fill="#EDD69F" width="6" height="6"/>
	<rect x="159" y="131.99" fill="#A2A4A6" width="6" height="6"/>
	<rect x="165" y="131.99" fill="#EDD69F" width="6" height="6"/>
	<rect x="159" y="120.029" fill="#A48B54" width="6" height="6"/>
	<rect x="165" y="120.029" fill="#A2A4A6" width="6" height="6"/>
	<rect x="171" y="131.99" fill="#EDD69F" width="6" height="6"/>
	<rect x="171" y="126.002" fill="#EDD69F" width="6" height="6"/>
	<rect x="135" y="114.053" fill="#EDD69F" width="6" height="6"/>
	<rect x="141" y="114.053" fill="#EDD69F" width="6" height="6"/>
	<rect x="147" y="114.053" fill="#A2A4A6" width="6" height="6"/>
	<rect x="153" y="114.053" fill="#84796C" width="6" height="6"/>
	<rect x="135" y="120.029" fill="#C2A966" width="6" height="6"/>
	<rect x="141" y="120.029" fill="#EDD69F" width="6" height="6"/>
	<rect x="147" y="120.029" fill="#EDD69F" width="6" height="6"/>
	<rect x="153" y="120.029" fill="#EDD69F" width="6" height="6"/>
	<rect x="123" y="126.002" fill="#EDD69F" width="6" height="6"/>
	<rect x="129" y="126.002" fill="#EDD69F" width="6" height="6"/>
	<rect x="159" y="126.002" fill="#84796C" width="6" height="6"/>
	<rect x="165" y="126.002" fill="#EEE1BF" width="6" height="6"/>
	<rect x="135" y="126.002" fill="#EDD69F" width="6" height="6"/>
	<rect x="141" y="126.002" fill="#EDD69F" width="6" height="6"/>
	<rect x="147" y="126.002" fill="#EDD69F" width="6" height="6"/>
	<rect x="153" y="126.002" fill="#919295" width="6" height="6"/>
	<rect x="135" y="131.99" fill="#FFFFFF" width="6" height="6"/>
	<rect x="141" y="131.99" fill="#EDD69F" width="6" height="6"/>
	<rect x="147" y="131.99" fill="#EDD69F" width="6" height="6"/>
	<rect x="153" y="131.99" fill="#84796C" width="6" height="6"/>
	<rect x="135" y="137.99" fill="#EDD69F" width="6" height="6"/>
	<rect x="141" y="137.99" fill="#EDD69F" width="6" height="6"/>
	<rect x="147" y="137.99" fill="#EDD69F" width="6" height="6"/>
	<rect x="153" y="137.99" fill="#EDD69F" width="6" height="6"/>
	<rect x="159" y="102.053" fill="#84796C" width="6" height="6"/>
	<rect x="165" y="102.053" fill="#84796C" width="6" height="6"/>
	<rect x="123" y="96.064" fill="#84796C" width="6" height="6"/>
	<rect x="129" y="96.064" fill="#6E5D55" width="6" height="6"/>
	<rect x="135" y="96.064" fill="#919295" width="6" height="6"/>
	<rect x="141" y="96.064" fill="#6E5D55" width="6" height="6"/>
	<rect x="147" y="96.064" fill="#84796C" width="6" height="6"/>
	<rect x="153" y="96.064" fill="#84796C" width="6" height="6"/>
	<rect x="159" y="96.064" fill="#A48B54" width="6" height="6"/>
	<rect x="153" y="90.064" fill="#84796C" width="6" height="6"/>
	<rect x="159" y="90.064" fill="#84796C" width="6" height="6"/>
	<rect x="165" y="96.064" fill="#84796C" width="6" height="6"/>
	<rect x="171" y="102.053" fill="#84796C" width="6" height="6"/>
	<rect x="171" y="96.064" fill="#84796C" width="6" height="6"/>
	<rect x="159" y="108.053" fill="#A48B54" width="6" height="6"/>
	<rect x="165" y="108.053" fill="#A48B54" width="6" height="6"/>
	<rect x="159" y="114.053" fill="#A2A4A6" width="6" height="6"/>
	<rect x="165" y="114.053" fill="#84796C" width="6" height="6"/>
	<rect x="171" y="120.029" fill="#EDD69F" width="6" height="6"/>
	<rect x="171" y="108.053" fill="#84796C" width="6" height="6"/>
	<rect x="177" y="102.053" fill="#84796C" width="6" height="6"/>
	<rect x="177" y="108.053" fill="#84796C" width="6" height="6"/>
	<rect x="171" y="114.053" fill="#A2A4A6" width="6" height="6"/>
	<rect x="177" y="132.018" fill="#84796C" width="6" height="6"/>
	<rect x="177" y="126.041" fill="#84796C" width="6" height="6"/>
	<rect x="177" y="120.049" fill="#84796C" width="6" height="6"/>
	<rect x="177" y="114.049" fill="#6E5D55" width="6" height="6"/>
	<rect x="171" y="143.979" fill="#808083" width="6" height="6"/>
	<rect x="171" y="149.986" fill="#6E5D55" width="6" height="6"/>
	<rect x="177" y="138.006" fill="#84796C" width="6" height="6"/>
	<rect x="171" y="138.002" fill="#84796C" width="6" height="6"/>
</g>
</svg>
