<?xml version="1.0" encoding="utf-8"?>
<!-- Generator: Adobe Illustrator 16.0.0, SVG Export Plug-In . SVG Version: 6.00 Build 0)  -->
<!DOCTYPE svg PUBLIC "-//W3C//DTD SVG 1.1//EN" "http://www.w3.org/Graphics/SVG/1.1/DTD/svg11.dtd">
<svg version="1.1" id="Layer_1" xmlns="http://www.w3.org/2000/svg" xmlns:xlink="http://www.w3.org/1999/xlink" x="0px" y="0px"
	 width="300px" height="300px" viewBox="0 0 300 300" enable-background="new 0 0 300 300" xml:space="preserve">
<g>
	<rect x="120" y="105.034" fill="#EFD1B8" width="7.5" height="7.5"/>
	<rect x="127.5" y="105.034" fill="#EFD1B8" width="7.5" height="7.5"/>
	<rect x="135" y="105.034" fill="#EFD1B8" width="7.5" height="7.5"/>
	<rect x="142.5" y="105.034" fill="#EED0C6" width="7.5" height="7.5"/>
	<rect x="150" y="105.034" fill="#D7BFAA" width="7.5" height="7.5"/>
	<rect x="112.5" y="112.534" fill="#EED0C6" width="7.5" height="7.5"/>
	<rect x="120" y="112.534" fill="#3C2415" width="7.5" height="7.5"/>
	<rect x="127.5" y="112.534" fill="#9B8579" width="7.5" height="7.5"/>
	<rect x="135" y="112.534" fill="#EFD1B8" width="7.5" height="7.5"/>
	<rect x="142.5" y="112.534" fill="#EFD1B8" width="7.5" height="7.5"/>
	<rect x="150" y="112.534" fill="#EFD1B8" width="7.5" height="7.5"/>
	<rect x="112.5" y="120.034" fill="#561324" width="7.5" height="7.5"/>
	<rect x="120" y="120.034" fill="#561324" width="7.5" height="7.5"/>
	<rect x="112.5" y="127.505" fill="#561324" width="7.5" height="7.5"/>
	<rect x="120" y="127.505" fill="#7F95A5" width="7.5" height="7.5"/>
	<rect x="112.5" y="134.995" fill="#EFD1B8" width="7.5" height="7.5"/>
	<rect x="120" y="134.995" fill="#561324" width="7.5" height="7.5"/>
	<rect x="112.5" y="142.505" fill="#EFD1B8" width="7.5" height="7.5"/>
	<rect x="120" y="142.505" fill="#EFD1B8" width="7.5" height="7.5"/>
	<rect x="112.5" y="149.985" fill="#5F3529" width="7.5" height="7.5"/>
	<rect x="105" y="142.476" fill="#EFD1B8" width="7.5" height="7.5"/>
	<rect x="105" y="134.976" fill="#EED0C6" width="7.5" height="7.5"/>
	<rect x="97.5" y="142.476" fill="#EFD1B8" width="7.5" height="7.5"/>
	<rect x="120" y="149.985" fill="#8B5E3C" width="7.5" height="7.5"/>
	<rect x="135" y="149.985" fill="#8B5E3C" width="7.5" height="7.5"/>
	<rect x="127.5" y="149.985" fill="#8B5E3C" width="7.5" height="7.5"/>
	<rect x="142.5" y="149.985" fill="#EFCFC0" width="7.5" height="7.5"/>
	<rect x="157.5" y="149.985" fill="#D7BFAA" width="7.5" height="7.5"/>
	<rect x="150" y="149.985" fill="#EFD1B8" width="7.5" height="7.5"/>
	<rect x="135" y="157.476" fill="#FFFFFF" width="7.5" height="7.5"/>
	<rect x="127.5" y="157.476" fill="#FFFFFF" width="7.5" height="7.5"/>
	<rect x="120" y="157.476" fill="#FFFFFF" width="7.5" height="7.5"/>
	<rect x="142.5" y="157.476" fill="#8B5E3C" width="7.5" height="7.5"/>
	<rect x="150" y="157.476" fill="#EFCFC0" width="7.5" height="7.5"/>
	<rect x="135" y="164.956" fill="#D28F8C" width="7.5" height="7.5"/>
	<rect x="127.5" y="164.956" fill="#D28F8C" width="7.5" height="7.5"/>
	<rect x="142.5" y="164.956" fill="#8B5E3C" width="7.5" height="7.5"/>
	<rect x="150" y="164.956" fill="#EFCFC0" width="7.5" height="7.5"/>
	<rect x="135" y="172.456" fill="#95681C" width="7.5" height="7.5"/>
	<rect x="127.5" y="172.456" fill="#906B22" width="7.5" height="7.5"/>
	<rect x="120" y="164.956" fill="#D28F8C" width="7.5" height="7.5"/>
	<rect x="120" y="172.456" fill="#603913" width="7.5" height="7.5"/>
	<rect x="142.5" y="172.456" fill="#D7BFAA" width="7.5" height="7.5"/>
	<rect x="135" y="179.956" fill="#D7BFAA" width="7.5" height="7.5"/>
	<rect x="142.5" y="179.956" fill="#D7BFAA" width="7.5" height="7.5"/>
	<rect x="150" y="179.956" fill="#EEBFA2" width="7.5" height="7.5"/>
	<rect x="150" y="172.456" fill="#D7BFAA" width="7.5" height="7.5"/>
	<rect x="157.5" y="172.456" fill="#D7BFAA" width="7.5" height="7.5"/>
	<rect x="157.5" y="179.956" fill="#EEBFA2" width="7.5" height="7.5"/>
	<rect x="165" y="179.956" fill="#FFFFFF" width="7.5" height="7.5"/>
	<rect x="165" y="172.456" fill="#EEBFA2" width="7.5" height="7.5"/>
	<rect x="127.5" y="179.956" fill="#D7BFAA" width="7.5" height="7.5"/>
	<rect x="172.5" y="179.956" fill="#774060" width="7.5" height="7.5"/>
	<rect x="180" y="179.956" fill="#633760" width="7.5" height="7.5"/>
	<rect x="172.5" y="172.456" fill="#FFFFFF" width="7.5" height="7.5"/>
	<rect x="180" y="172.456" fill="#774060" width="7.5" height="7.5"/>
	<rect x="187.5" y="172.456" fill="#774060" width="7.5" height="7.5"/>
	<rect x="135" y="194.956" fill="#774060" width="7.5" height="7.5"/>
	<rect x="142.5" y="194.956" fill="#FFFFFF" width="7.5" height="7.5"/>
	<rect x="157.5" y="194.956" fill="#FFFFFF" width="7.5" height="7.5"/>
	<rect x="150" y="194.956" fill="#FFFFFF" width="7.5" height="7.5"/>
	<rect x="135" y="187.456" fill="#FFFFFF" width="7.5" height="7.5"/>
	<rect x="150" y="187.456" fill="#EFD1B8" width="7.5" height="7.5"/>
	<rect x="142.5" y="187.456" fill="#EEBFA2" width="7.5" height="7.5"/>
	<rect x="165" y="187.456" fill="#FFFFFF" width="7.5" height="7.5"/>
	<rect x="157.5" y="187.456" fill="#EFD1B8" width="7.5" height="7.5"/>
	<rect x="127.5" y="194.956" fill="#633760" width="7.5" height="7.5"/>
	<rect x="127.5" y="202.456" fill="#774060" width="7.5" height="7.5"/>
	<rect x="120" y="194.956" fill="#774E6F" width="7.5" height="7.5"/>
	<rect x="112.5" y="194.956" fill="#774060" width="7.5" height="7.5"/>
	<rect x="165" y="194.956" fill="#774060" width="7.5" height="7.5"/>
	<rect x="172.5" y="194.956" fill="#633760" width="7.5" height="7.5"/>
	<rect x="180" y="194.956" fill="#774E6F" width="7.5" height="7.5"/>
	<rect x="187.5" y="194.956" fill="#774060" width="7.5" height="7.5"/>
	<rect x="135" y="209.956" fill="#774E6F" width="7.5" height="7.5"/>
	<rect x="142.5" y="209.956" fill="#633760" width="7.5" height="7.5"/>
	<rect x="157.5" y="209.956" fill="#633760" width="7.5" height="7.5"/>
	<rect x="150" y="209.956" fill="#774060" width="7.5" height="7.5"/>
	<rect x="127.5" y="209.956" fill="#774060" width="7.5" height="7.5"/>
	<rect x="120" y="209.956" fill="#774E6F" width="7.5" height="7.5"/>
	<rect x="112.5" y="209.956" fill="#561324" width="7.5" height="7.5"/>
	<rect x="165" y="209.956" fill="#774E6F" width="7.5" height="7.5"/>
	<rect x="172.5" y="209.956" fill="#561324" width="7.5" height="7.5"/>
	<rect x="180" y="209.956" fill="#774E6F" width="7.5" height="7.5"/>
	<rect x="187.5" y="209.956" fill="#774060" width="7.5" height="7.5"/>
	<rect x="127.5" y="187.456" fill="#774060" width="7.5" height="7.5"/>
	<rect x="120" y="187.456" fill="#633760" width="7.5" height="7.5"/>
	<rect x="120" y="179.956" fill="#774060" width="7.5" height="7.5"/>
	<rect x="113.125" y="180.684" fill="#774060" width="7.5" height="7.5"/>
	<rect x="112.5" y="187.456" fill="#633760" width="7.5" height="7.5"/>
	<rect x="172.5" y="187.456" fill="#774060" width="7.5" height="7.5"/>
	<rect x="180" y="187.456" fill="#633760" width="7.5" height="7.5"/>
	<rect x="187.5" y="187.456" fill="#774060" width="7.5" height="7.5"/>
	<rect x="135" y="202.456" fill="#633760" width="7.5" height="7.5"/>
	<rect x="142.5" y="202.456" fill="#774060" width="7.5" height="7.5"/>
	<rect x="157.5" y="202.456" fill="#774060" width="7.5" height="7.5"/>
	<rect x="150" y="202.456" fill="#FFFFFF" width="7.5" height="7.5"/>
	<rect x="127.5" y="202.456" fill="#774060" width="7.5" height="7.5"/>
	<rect x="120" y="202.456" fill="#774E6F" width="7.5" height="7.5"/>
	<rect x="112.5" y="202.456" fill="#774060" width="7.5" height="7.5"/>
	<rect x="105" y="194.956" fill="#774E6F" width="7.5" height="7.5"/>
	<rect x="105" y="187.456" fill="#774E6F" width="7.5" height="7.5"/>
	<rect x="105" y="209.956" fill="#774E6F" width="7.5" height="7.5"/>
	<rect x="105" y="202.456" fill="#774E6F" width="7.5" height="7.5"/>
	<rect x="97.5" y="194.956" fill="#774060" width="7.5" height="7.5"/>
	<rect x="97.5" y="209.956" fill="#774060" width="7.5" height="7.5"/>
	<rect x="97.5" y="202.456" fill="#774060" width="7.5" height="7.5"/>
	<rect x="165" y="202.456" fill="#633760" width="7.5" height="7.5"/>
	<rect x="172.5" y="202.456" fill="#774060" width="7.5" height="7.5"/>
	<rect x="180" y="202.456" fill="#774E6F" width="7.5" height="7.5"/>
	<rect x="187.5" y="202.456" fill="#774060" width="7.5" height="7.5"/>
	<rect x="195" y="194.956" fill="#774E6F" width="7.5" height="7.5"/>
	<rect x="195" y="209.956" fill="#774E6F" width="7.5" height="7.5"/>
	<rect x="195" y="202.456" fill="#774E6F" width="7.5" height="7.5"/>
	<rect x="165" y="149.985" fill="#D7BFAA" width="7.5" height="7.5"/>
	<rect x="157.5" y="142.505" fill="#D7BFAA" width="7.5" height="7.5"/>
	<rect x="165" y="142.505" fill="#D7BFAA" width="7.5" height="7.5"/>
	<rect x="157.5" y="164.956" fill="#D7BFAA" width="7.5" height="7.5"/>
	<rect x="165" y="164.956" fill="#D7BFAA" width="7.5" height="7.5"/>
	<rect x="157.5" y="157.476" fill="#D7BFAA" width="7.5" height="7.5"/>
	<rect x="165" y="157.476" fill="#D7BFAA" width="7.5" height="7.5"/>
	<rect x="172.5" y="149.985" fill="#D7BFAA" width="7.5" height="7.5"/>
	<rect x="172.5" y="164.956" fill="#D7BFAA" width="7.5" height="7.5"/>
	<rect x="172.5" y="157.476" fill="#D7BFAA" width="7.5" height="7.5"/>
	<rect x="157.5" y="134.985" fill="#EFD1B8" width="7.5" height="7.5"/>
	<rect x="165" y="134.985" fill="#D7BFAA" width="7.5" height="7.5"/>
	<rect x="157.5" y="127.505" fill="#EFD1B8" width="7.5" height="7.5"/>
	<rect x="165" y="127.505" fill="#D7BFAA" width="7.5" height="7.5"/>
	<rect x="172.5" y="142.476" fill="#EFD1B8" width="7.5" height="7.5"/>
	<rect x="172.5" y="134.99" fill="#EEBFA2" width="7.5" height="7.5"/>
	<rect x="127.5" y="120.034" fill="#561324" width="7.5" height="7.5"/>
	<rect x="135" y="120.034" fill="#561324" width="7.5" height="7.5"/>
	<rect x="142.5" y="120.034" fill="#B69C53" width="7.5" height="7.5"/>
	<rect x="150" y="120.034" fill="#561324" width="7.5" height="7.5"/>
	<rect x="127.5" y="127.505" fill="#AA6D2D" width="7.5" height="7.5"/>
	<rect x="135" y="127.505" fill="#43251B" width="7.5" height="7.5"/>
	<rect x="127.5" y="127.505" fill="#FFFFFF" width="7.5" height="7.5"/>
	<rect x="142.5" y="127.505" fill="#EFD1B8" width="7.5" height="7.5"/>
	<rect x="150" y="127.505" fill="#EFD1B8" width="7.5" height="7.5"/>
	<rect x="127.5" y="134.995" fill="#561324" width="7.5" height="7.5"/>
	<rect x="135" y="134.995" fill="#EFD1B8" width="7.5" height="7.5"/>
	<rect x="142.5" y="134.995" fill="#EED0C6" width="7.5" height="7.5"/>
	<rect x="150" y="134.985" fill="#EED0C6" width="7.5" height="7.5"/>
	<rect x="127.5" y="142.485" fill="#EFD1B8" width="7.5" height="7.5"/>
	<rect x="135" y="142.485" fill="#EEE3E0" width="7.5" height="7.5"/>
	<rect x="142.5" y="142.485" fill="#EED0C6" width="7.5" height="7.5"/>
	<rect x="150" y="142.485" fill="#EFD1B8" width="7.5" height="7.5"/>
	<rect x="157.5" y="105.034" fill="#D7BFAA" width="7.5" height="7.5"/>
	<rect x="165" y="105.034" fill="#D7BFAA" width="7.5" height="7.5"/>
	<rect x="112.5" y="105.034" fill="#EFD1B8" width="7.5" height="7.5"/>
	<rect x="112.5" y="97.544" fill="#EFD1B8" width="7.5" height="7.5"/>
	<polygon fill="#EFD1B8" points="120,105.2 127.5,105.044 127.5,97.544 120,97.7 	"/>
	<rect x="120" y="90.044" fill="#EFD1B8" width="7.5" height="7.5"/>
	<rect x="127.5" y="82.544" fill="#EFD1B8" width="7.5" height="7.5"/>
	<rect x="127.5" y="90.044" fill="#EFD1B8" width="7.5" height="7.5"/>
	<rect x="135" y="90.044" fill="#EFD1B8" width="7.5" height="7.5"/>
	<rect x="142.5" y="90.044" fill="#EFD1B8" width="7.5" height="7.5"/>
	<rect x="150" y="90.044" fill="#EFD1B8" width="7.5" height="7.5"/>
	<rect x="157.5" y="97.544" fill="#D7BFAA" width="7.5" height="7.5"/>
	<rect x="157.5" y="90.044" fill="#EFD1B8" width="7.5" height="7.5"/>
	<rect x="135" y="82.544" fill="#EFD1B8" width="7.5" height="7.5"/>
	<rect x="142.5" y="82.544" fill="#EFD1B8" width="7.5" height="7.5"/>
	<rect x="150" y="82.544" fill="#EFD1B8" width="7.5" height="7.5"/>
	<rect x="157.505" y="82.544" fill="#EFD1B8" width="7.5" height="7.5"/>
	<rect x="165" y="97.544" fill="#D7BFAA" width="7.5" height="7.5"/>
	<rect x="127.5" y="97.544" fill="#EFD1B8" width="7.5" height="7.5"/>
	<rect x="135" y="97.544" fill="#EED0C6" width="7.5" height="7.5"/>
	<rect x="142.5" y="97.544" fill="#EEE3E0" width="7.5" height="7.5"/>
	<rect x="150" y="97.544" fill="#EFD1B8" width="7.5" height="7.5"/>
	<rect x="157.5" y="112.534" fill="#D7BFAA" width="7.5" height="7.5"/>
	<rect x="165" y="112.534" fill="#D7BFAA" width="7.5" height="7.5"/>
	<rect x="157.5" y="120.034" fill="#561324" width="7.5" height="7.5"/>
	<rect x="165" y="120.034" fill="#561324" width="7.5" height="7.5"/>
	<rect x="172.5" y="120.034" fill="#561324" width="7.5" height="7.5"/>
	<rect x="172.5" y="105.034" fill="#D7BFAA" width="7.5" height="7.5"/>
	<rect x="172.5" y="97.544" fill="#D7BFAA" width="7.5" height="7.5"/>
	<rect x="165" y="90.044" fill="#D7BFAA" width="7.5" height="7.5"/>
	<rect x="172.5" y="112.534" fill="#D7BFAA" width="7.5" height="7.5"/>
	<rect x="172.5" y="127.52" fill="#EFD1B8" width="7.5" height="7.5"/>
	<rect x="180" y="134.99" fill="#EFD1B8" width="7.5" height="7.5"/>
	<rect x="180" y="127.52" fill="#EEBFA2" width="7.5" height="7.5"/>
</g>
</svg>
