<?xml version="1.0" encoding="utf-8"?>
<!-- Generator: Adobe Illustrator 16.0.0, SVG Export Plug-In . SVG Version: 6.00 Build 0)  -->
<!DOCTYPE svg PUBLIC "-//W3C//DTD SVG 1.1//EN" "http://www.w3.org/Graphics/SVG/1.1/DTD/svg11.dtd">
<svg version="1.1" id="Layer_1" xmlns="http://www.w3.org/2000/svg" xmlns:xlink="http://www.w3.org/1999/xlink" x="0px" y="0px"
	 width="300px" height="300px" viewBox="0 0 300 300" enable-background="new 0 0 300 300" xml:space="preserve">
<g>
	<rect x="126" y="90.082" fill="#F7E0CF" width="6" height="6"/>
	<rect x="132" y="90.082" fill="#D7BFAA" width="6" height="6"/>
	<rect x="138" y="90.082" fill="#D7BFAA" width="6" height="6"/>
	<rect x="144" y="90.082" fill="#BAA993" width="6" height="6"/>
	<rect x="120" y="102.082" fill="#F7E0CF" width="6" height="6"/>
	<rect x="126" y="102.082" fill="#EFD1B8" width="6" height="6"/>
	<rect x="132" y="102.082" fill="#EFD1B8" width="6" height="6"/>
	<rect x="138" y="102.082" fill="#EFD1B8" width="6" height="6"/>
	<rect x="144" y="102.082" fill="#F7E0CF" width="6" height="6"/>
	<rect x="150" y="102.082" fill="#BAA993" width="6" height="6"/>
	<rect x="120" y="108.082" fill="#EFD1B8" width="6" height="6"/>
	<rect x="126" y="108.082" fill="#EFD1B8" width="6" height="6"/>
	<rect x="120" y="114.059" fill="#F7E0CF" width="6" height="6"/>
	<rect x="126" y="114.059" fill="#F7E0CF" width="6" height="6"/>
	<rect x="120" y="126.02" fill="#231F20" width="6" height="6"/>
	<rect x="126" y="126.02" fill="#6C8394" width="6" height="6"/>
	<rect x="120" y="132.027" fill="#EAC4B2" width="6" height="6"/>
	<rect x="126" y="132.027" fill="#231F20" width="6" height="6"/>
	<rect x="120" y="138.02" fill="#231F20" width="6" height="6"/>
	<rect x="114" y="132.027" fill="#EFD1B8" width="6" height="6"/>
	<rect x="108" y="132.027" fill="#F7E0CF" width="6" height="6"/>
	<rect x="114" y="126.02" fill="#EFD1B8" width="6" height="6"/>
	<rect x="126" y="138.02" fill="#362906" width="6" height="6"/>
	<rect x="138" y="138.02" fill="#453308" width="6" height="6"/>
	<rect x="132" y="138.02" fill="#453308" width="6" height="6"/>
	<rect x="144" y="138.02" fill="#F7E0CF" width="6" height="6"/>
	<rect x="156" y="138.02" fill="#BAA993" width="6" height="6"/>
	<rect x="150" y="138.02" fill="#BAA993" width="6" height="6"/>
	<rect x="138" y="144.004" fill="#FFFFFF" width="6" height="6"/>
	<rect x="132" y="144.004" fill="#FFFFFF" width="6" height="6"/>
	<rect x="144" y="144.004" fill="#453308" width="6" height="6"/>
	<rect x="150" y="144.004" fill="#87816B" width="6" height="6"/>
	<rect x="138" y="149.996" fill="#C79C89" width="6" height="6"/>
	<rect x="132" y="149.996" fill="#C79C89" width="6" height="6"/>
	<rect x="144" y="149.996" fill="#3C2415" width="6" height="6"/>
	<rect x="150" y="149.996" fill="#87816B" width="6" height="6"/>
	<rect x="138" y="155.996" fill="#231F20" width="6" height="6"/>
	<rect x="132" y="155.996" fill="#231F20" width="6" height="6"/>
	<rect x="126" y="149.996" fill="#C79C89" width="6" height="6"/>
	<rect x="126" y="155.996" fill="#453308" width="6" height="6"/>
	<rect x="144" y="155.996" fill="#453308" width="6" height="6"/>
	<rect x="138" y="167.957" fill="#BAA993" width="6" height="6"/>
	<rect x="144" y="167.957" fill="#D7BFAA" width="6" height="6"/>
	<rect x="150" y="167.957" fill="#EFD1B8" width="6" height="6"/>
	<rect x="138" y="161.996" fill="#231F20" width="6" height="6"/>
	<rect x="132" y="161.996" fill="#453308" width="6" height="6"/>
	<rect x="138" y="167.957" fill="#231F20" width="6" height="6"/>
	<rect x="132" y="167.957" fill="#453308" width="6" height="6"/>
	<rect x="126" y="161.996" fill="#231F20" width="6" height="6"/>
	<rect x="144" y="161.996" fill="#231F20" width="6" height="6"/>
	<rect x="150" y="161.996" fill="#EAC4B2" width="6" height="6"/>
	<rect x="150" y="155.996" fill="#87816B" width="6" height="6"/>
	<rect x="156" y="155.941" fill="#EAC4B2" width="6" height="6"/>
	<rect x="156" y="161.957" fill="#EAC4B2" width="6" height="6"/>
	<rect x="156" y="167.957" fill="#EFD1B8" width="6" height="6"/>
	<rect x="162" y="138.02" fill="#EFD1B8" width="6" height="6"/>
	<rect x="156" y="132.027" fill="#BAA993" width="6" height="6"/>
	<rect x="162" y="132.027" fill="#EAC4B2" width="6" height="6"/>
	<rect x="156" y="149.996" fill="#BAA993" width="6" height="6"/>
	<rect x="156" y="144.004" fill="#BAA993" width="6" height="6"/>
	<rect x="156" y="126.02" fill="#87816B" width="6" height="6"/>
	<rect x="162" y="126.02" fill="#EAC4B2" width="6" height="6"/>
	<rect x="156" y="114.059" fill="#87816B" width="6" height="6"/>
	<rect x="162" y="114.059" fill="#87816B" width="6" height="6"/>
	<rect x="168" y="126.02" fill="#F7E0CF" width="6" height="6"/>
	<rect x="168" y="120.027" fill="#F7E0CF" width="6" height="6"/>
	<rect x="132" y="108.082" fill="#EAC4B2" width="6" height="6"/>
	<rect x="138" y="108.082" fill="#EFD1B8" width="6" height="6"/>
	<rect x="144" y="108.082" fill="#BAA993" width="6" height="6"/>
	<rect x="150" y="108.082" fill="#BAA993" width="6" height="6"/>
	<rect x="132" y="114.059" fill="#F7E0CF" width="6" height="6"/>
	<rect x="138" y="114.059" fill="#EAC4B2" width="6" height="6"/>
	<rect x="144" y="114.059" fill="#EFD1B8" width="6" height="6"/>
	<rect x="150" y="114.059" fill="#BAA993" width="6" height="6"/>
	<rect x="120" y="120.027" fill="#231F20" width="6" height="6"/>
	<rect x="126" y="120.027" fill="#231F20" width="6" height="6"/>
	<rect x="156" y="120.027" fill="#231F20" width="6" height="6"/>
	<rect x="162" y="120.027" fill="#231F20" width="6" height="6"/>
	<rect x="132" y="120.027" fill="#231F20" width="6" height="6"/>
	<rect x="138" y="120.027" fill="#231F20" width="6" height="6"/>
	<rect x="144" y="120.027" fill="#231F20" width="6" height="6"/>
	<rect x="150" y="120.027" fill="#231F20" width="6" height="6"/>
	<rect x="132" y="126.02" fill="#FFFFFF" width="6" height="6"/>
	<rect x="138" y="126.02" fill="#231F20" width="6" height="6"/>
	<rect x="144" y="126.02" fill="#EFD1B8" width="6" height="6"/>
	<rect x="150" y="126.02" fill="#EFD1B8" width="6" height="6"/>
	<rect x="132" y="132.02" fill="#231F20" width="6" height="6"/>
	<rect x="138" y="132.02" fill="#F7E0CF" width="6" height="6"/>
	<rect x="144" y="132.02" fill="#EAC4B2" width="6" height="6"/>
	<rect x="150" y="132.02" fill="#BAA993" width="6" height="6"/>
	<rect x="120" y="96.082" fill="#F7E0CF" width="6" height="6"/>
	<rect x="126" y="96.082" fill="#F7E0CF" width="6" height="6"/>
	<rect x="132" y="96.082" fill="#EFD1B8" width="6" height="6"/>
	<rect x="138" y="96.082" fill="#EFD1B8" width="6" height="6"/>
	<rect x="144" y="96.082" fill="#F7E0CF" width="6" height="6"/>
	<rect x="150" y="96.082" fill="#F7E0CF" width="6" height="6"/>
	<rect x="156" y="96.082" fill="#BAA993" width="6" height="6"/>
	<rect x="150" y="90.082" fill="#BAA993" width="6" height="6"/>
	<rect x="156" y="102.082" fill="#BAA993" width="6" height="6"/>
	<rect x="162" y="102.082" fill="#BAA993" width="6" height="6"/>
	<rect x="156" y="108.082" fill="#BAA993" width="6" height="6"/>
	<rect x="162" y="108.082" fill="#BAA993" width="6" height="6"/>
	<rect x="168" y="132.027" fill="#EFD1B8" width="6" height="6"/>
	<rect x="144" y="179.918" fill="#EFD1B8" width="6" height="6"/>
	<rect x="150" y="179.918" fill="#EFD1B8" width="6" height="6"/>
	<rect x="144" y="173.918" fill="#BAA993" width="6" height="6"/>
	<rect x="150" y="173.918" fill="#EFD1B8" width="6" height="6"/>
	<rect x="156" y="173.918" fill="#EFD1B8" width="6" height="6"/>
	<rect x="162" y="173.918" fill="#323133" width="6" height="6"/>
	<rect x="168" y="173.918" fill="#808285" width="6" height="6"/>
	<rect x="174" y="167.949" fill="#808285" width="6" height="6"/>
	<rect x="174" y="173.918" fill="#808285" width="6" height="6"/>
	<rect x="174" y="161.949" fill="#5A5B5E" width="6" height="6"/>
	<rect x="180" y="167.949" fill="#808285" width="6" height="6"/>
	<rect x="180" y="161.949" fill="#808285" width="6" height="6"/>
	<rect x="174" y="155.996" fill="#808285" width="6" height="6"/>
	<rect x="168" y="155.996" fill="#808285" width="6" height="6"/>
	<rect x="162" y="155.996" fill="#808285" width="6" height="6"/>
	<rect x="168" y="161.949" fill="#5A5B5E" width="6" height="6"/>
	<rect x="168" y="167.949" fill="#5A5B5E" width="6" height="6"/>
	<rect x="162" y="161.949" fill="#5A5B5E" width="6" height="6"/>
	<rect x="162" y="167.949" fill="#5A5B5E" width="6" height="6"/>
	<rect x="162" y="179.918" fill="#323133" width="6" height="6"/>
	<rect x="156" y="179.918" fill="#323133" width="6" height="6"/>
	<rect x="138" y="179.918" fill="#323133" width="6" height="6"/>
	<rect x="126" y="179.918" fill="#C48714" width="6" height="6"/>
	<rect x="138" y="173.918" fill="#F7E0CF" width="6" height="6"/>
	<rect x="168" y="179.918" fill="#F1F2F2" width="6" height="6"/>
	<rect x="174" y="179.918" fill="#C48714" width="6" height="6"/>
	<rect x="180" y="179.918" fill="#808285" width="6" height="6"/>
	<rect x="144" y="191.918" fill="#323133" width="6" height="6"/>
	<rect x="150" y="191.918" fill="#323133" width="6" height="6"/>
	<rect x="162" y="191.918" fill="#808285" width="6" height="6"/>
	<rect x="156" y="191.918" fill="#323133" width="6" height="6"/>
	<rect x="138" y="191.918" fill="#323133" width="6" height="6"/>
	<rect x="126" y="191.918" fill="#F1F2F2" width="6" height="6"/>
	<rect x="120" y="191.918" fill="#808285" width="6" height="6"/>
	<rect x="168" y="191.918" fill="#F1F2F2" width="6" height="6"/>
	<rect x="174" y="191.918" fill="#C48714" width="6" height="6"/>
	<rect x="180" y="191.918" fill="#808285" width="6" height="6"/>
	<rect x="186" y="191.918" fill="#808285" width="6" height="6"/>
	<rect x="144" y="203.918" fill="#323133" width="6" height="6"/>
	<rect x="150" y="203.918" fill="#323133" width="6" height="6"/>
	<rect x="162" y="203.918" fill="#808285" width="6" height="6"/>
	<rect x="156" y="203.918" fill="#323133" width="6" height="6"/>
	<rect x="138" y="203.918" fill="#323133" width="6" height="6"/>
	<rect x="126" y="203.918" fill="#C48714" width="6" height="6"/>
	<rect x="120" y="203.918" fill="#808285" width="6" height="6"/>
	<rect x="168" y="203.918" fill="#808285" width="6" height="6"/>
	<rect x="174" y="203.918" fill="#C48714" width="6" height="6"/>
	<rect x="180" y="203.918" fill="#808285" width="6" height="6"/>
	<rect x="186" y="203.918" fill="#808285" width="6" height="6"/>
	<rect x="144" y="185.918" fill="#323133" width="6" height="6"/>
	<rect x="150" y="185.918" fill="#7DA0B3" width="6" height="6"/>
	<rect x="162" y="185.918" fill="#7DA0B3" width="6" height="6"/>
	<rect x="156" y="185.918" fill="#323133" width="6" height="6"/>
	<rect x="138" y="185.918" fill="#7DA0B3" width="6" height="6"/>
	<rect x="126" y="185.918" fill="#F1F2F2" width="6" height="6"/>
	<rect x="120" y="185.918" fill="#808285" width="6" height="6"/>
	<rect x="168" y="185.918" fill="#F1F2F2" width="6" height="6"/>
	<rect x="174" y="185.918" fill="#808285" width="6" height="6"/>
	<rect x="180" y="185.918" fill="#C48714" width="6" height="6"/>
	<rect x="186" y="185.918" fill="#808285" width="6" height="6"/>
	<rect x="144" y="197.918" fill="#7DA0B3" width="6" height="6"/>
	<rect x="150" y="197.918" fill="#323133" width="6" height="6"/>
	<rect x="162" y="197.918" fill="#808285" width="6" height="6"/>
	<rect x="156" y="197.918" fill="#7DA0B3" width="6" height="6"/>
	<rect x="138" y="197.918" fill="#323133" width="6" height="6"/>
	<rect x="126" y="197.918" fill="#F1F2F2" width="6" height="6"/>
	<rect x="120" y="197.918" fill="#808285" width="6" height="6"/>
	<rect x="114" y="191.918" fill="#808285" width="6" height="6"/>
	<rect x="114" y="203.918" fill="#808285" width="6" height="6"/>
	<rect x="114" y="197.918" fill="#808285" width="6" height="6"/>
	<rect x="168" y="197.918" fill="#808285" width="6" height="6"/>
	<rect x="174" y="197.918" fill="#808285" width="6" height="6"/>
	<rect x="131.969" y="179.918" fill="#808285" width="6" height="6"/>
	<rect x="131.969" y="191.918" fill="#808285" width="6" height="6"/>
	<rect x="131.969" y="203.918" fill="#808285" width="6" height="6"/>
	<rect x="131.969" y="185.918" fill="#C48714" width="6" height="6"/>
	<rect x="131.969" y="197.918" fill="#C48714" width="6" height="6"/>
	<rect x="180" y="197.918" fill="#C48714" width="6" height="6"/>
	<rect x="186" y="197.918" fill="#808285" width="6" height="6"/>
</g>
</svg>
