<?xml version="1.0" encoding="utf-8"?>
<!-- Generator: Adobe Illustrator 16.0.0, SVG Export Plug-In . SVG Version: 6.00 Build 0)  -->
<!DOCTYPE svg PUBLIC "-//W3C//DTD SVG 1.1//EN" "http://www.w3.org/Graphics/SVG/1.1/DTD/svg11.dtd">
<svg version="1.1" id="Layer_1" xmlns="http://www.w3.org/2000/svg" xmlns:xlink="http://www.w3.org/1999/xlink" x="0px" y="0px"
	 width="300px" height="300px" viewBox="0 0 300 300" enable-background="new 0 0 300 300" xml:space="preserve">
<g>
	<rect x="138.75" y="176.201" fill="#E7B890" width="7.5" height="7.5"/>
	<rect x="146.25" y="176.201" fill="#E7B890" width="7.5" height="7.5"/>
	<rect x="138.75" y="183.701" fill="#F0D0B4" width="7.5" height="7.5"/>
	<rect x="146.25" y="183.701" fill="#F0D0B4" width="7.5" height="7.5"/>
	<rect x="153.75" y="176.201" fill="#F0D0B4" width="7.5" height="7.5"/>
	<rect x="161.25" y="183.701" fill="#6C6D70" width="7.5" height="7.5"/>
	<rect x="153.75" y="183.701" fill="#F0D0B4" width="7.5" height="7.5"/>
	<rect x="131.25" y="183.701" fill="#6C6D70" width="7.5" height="7.5"/>
	<rect x="123.75" y="183.701" fill="#525255" width="7.5" height="7.5"/>
	<rect x="168.75" y="183.701" fill="#525255" width="7.5" height="7.5"/>
	<rect x="176.25" y="183.701" fill="#525255" width="7.5" height="7.5"/>
	<rect x="138.75" y="198.701" fill="#6C6D70" width="7.5" height="7.5"/>
	<rect x="146.25" y="198.701" fill="#6C6D70" width="7.5" height="7.5"/>
	<rect x="161.25" y="198.701" fill="#525255" width="7.5" height="7.5"/>
	<rect x="153.75" y="198.701" fill="#6C6D70" width="7.5" height="7.5"/>
	<rect x="131.25" y="198.701" fill="#525255" width="7.5" height="7.5"/>
	<rect x="123.75" y="198.701" fill="#525255" width="7.5" height="7.5"/>
	<rect x="116.25" y="198.701" fill="#525255" width="7.5" height="7.5"/>
	<rect x="168.75" y="198.701" fill="#525255" width="7.5" height="7.5"/>
	<rect x="176.25" y="198.701" fill="#525255" width="7.5" height="7.5"/>
	<rect x="183.75" y="198.701" fill="#525255" width="7.5" height="7.5"/>
	<rect x="191.25" y="198.701" fill="#525255" width="7.5" height="7.5"/>
	<rect x="138.75" y="213.701" fill="#525255" width="7.5" height="7.5"/>
	<rect x="146.25" y="213.701" fill="#525255" width="7.5" height="7.5"/>
	<rect x="161.25" y="213.701" fill="#525255" width="7.5" height="7.5"/>
	<rect x="153.75" y="213.701" fill="#525255" width="7.5" height="7.5"/>
	<rect x="131.25" y="213.701" fill="#525255" width="7.5" height="7.5"/>
	<rect x="123.75" y="213.701" fill="#2F292B" width="7.5" height="7.5"/>
	<rect x="116.25" y="213.701" fill="#525255" width="7.5" height="7.5"/>
	<rect x="168.75" y="213.701" fill="#525255" width="7.5" height="7.5"/>
	<rect x="176.25" y="213.701" fill="#2F292B" width="7.5" height="7.5"/>
	<rect x="183.75" y="213.701" fill="#525255" width="7.5" height="7.5"/>
	<rect x="191.25" y="213.701" fill="#525255" width="7.5" height="7.5"/>
	<rect x="138.75" y="191.201" fill="#F0D0B4" width="7.5" height="7.5"/>
	<rect x="146.25" y="191.201" fill="#F0D0B4" width="7.5" height="7.5"/>
	<rect x="161.25" y="191.201" fill="#6C6D70" width="7.5" height="7.5"/>
	<rect x="153.75" y="191.201" fill="#F0D0B4" width="7.5" height="7.5"/>
	<rect x="131.25" y="191.201" fill="#6C6D70" width="7.5" height="7.5"/>
	<rect x="123.75" y="191.201" fill="#2F292B" width="7.5" height="7.5"/>
	<rect x="116.25" y="191.201" fill="#2F292B" width="7.5" height="7.5"/>
	<rect x="168.75" y="191.201" fill="#2F292B" width="7.5" height="7.5"/>
	<rect x="176.25" y="191.201" fill="#2F292B" width="7.5" height="7.5"/>
	<rect x="183.75" y="191.201" fill="#2F292B" width="7.5" height="7.5"/>
	<rect x="191.25" y="191.201" fill="#2F292B" width="7.5" height="7.5"/>
	<rect x="138.75" y="206.201" fill="#2F292B" width="7.5" height="7.5"/>
	<rect x="146.25" y="206.201" fill="#2F292B" width="7.5" height="7.5"/>
	<rect x="161.25" y="206.201" fill="#2F292B" width="7.5" height="7.5"/>
	<rect x="153.75" y="206.201" fill="#2F292B" width="7.5" height="7.5"/>
	<rect x="131.25" y="206.201" fill="#2F292B" width="7.5" height="7.5"/>
	<rect x="123.75" y="206.201" fill="#2F292B" width="7.5" height="7.5"/>
	<rect x="116.25" y="206.201" fill="#2F292B" width="7.5" height="7.5"/>
	<rect x="168.75" y="206.201" fill="#2F292B" width="7.5" height="7.5"/>
	<rect x="176.25" y="206.201" fill="#2F292B" width="7.5" height="7.5"/>
	<rect x="183.75" y="206.201" fill="#2F292B" width="7.5" height="7.5"/>
	<rect x="191.25" y="206.201" fill="#2F292B" width="7.5" height="7.5"/>
	<rect x="108.75" y="138.706" fill="#F0D0B4" width="7.5" height="7.5"/>
	<rect x="101.25" y="138.706" fill="#EBC297" width="7.5" height="7.5"/>
	<rect x="108.75" y="131.206" fill="#EBC297" width="7.5" height="7.5"/>
	<rect x="131.25" y="78.799" fill="#805041" width="7.5" height="7.5"/>
	<rect x="138.75" y="78.799" fill="#734637" width="7.5" height="7.5"/>
	<rect x="146.25" y="78.799" fill="#734637" width="7.5" height="7.5"/>
	<rect x="116.25" y="93.784" fill="#805041" width="7.5" height="7.5"/>
	<rect x="123.75" y="93.784" fill="#734637" width="7.5" height="7.5"/>
	<rect x="131.25" y="93.784" fill="#805041" width="7.5" height="7.5"/>
	<rect x="138.75" y="93.784" fill="#734637" width="7.5" height="7.5"/>
	<rect x="146.25" y="93.784" fill="#EFCFC0" width="7.5" height="7.5"/>
	<rect x="153.75" y="93.784" fill="#EFCFC0" width="7.5" height="7.5"/>
	<rect x="123.75" y="101.284" fill="#805041" width="7.5" height="7.5"/>
	<rect x="116.25" y="101.284" fill="#734637" width="7.5" height="7.5"/>
	<rect x="131.25" y="101.284" fill="#F0D0B4" width="7.5" height="7.5"/>
	<rect x="138.75" y="101.284" fill="#734637" width="7.5" height="7.5"/>
	<rect x="146.25" y="101.284" fill="#F0D0B4" width="7.5" height="7.5"/>
	<rect x="153.75" y="101.284" fill="#EFCFC0" width="7.5" height="7.5"/>
	<rect x="116.25" y="108.784" fill="#805041" width="7.5" height="7.5"/>
	<rect x="123.75" y="108.784" fill="#F0D0B4" width="7.5" height="7.5"/>
	<rect x="116.25" y="116.255" fill="#EFCFC0" width="7.5" height="7.5"/>
	<rect x="123.75" y="116.255" fill="#B68D63" width="7.5" height="7.5"/>
	<rect x="116.25" y="131.206" fill="#F0D0B4" width="7.5" height="7.5"/>
	<rect x="116.25" y="138.721" fill="#F0D0B4" width="7.5" height="7.5"/>
	<rect x="123.75" y="138.721" fill="#E7B890" width="7.5" height="7.5"/>
	<rect x="116.25" y="146.206" fill="#F0D0B4" width="7.5" height="7.5"/>
	<rect x="123.75" y="146.206" fill="#F0D0B4" width="7.5" height="7.5"/>
	<rect x="138.75" y="146.206" fill="#F0D0B4" width="7.5" height="7.5"/>
	<rect x="131.25" y="146.206" fill="#F0D0B4" width="7.5" height="7.5"/>
	<rect x="146.25" y="146.206" fill="#F0D0B4" width="7.5" height="7.5"/>
	<rect x="161.25" y="146.206" fill="#F0D0B4" width="7.5" height="7.5"/>
	<rect x="153.75" y="146.206" fill="#E7B890" width="7.5" height="7.5"/>
	<rect x="138.75" y="153.691" fill="#FFFFFF" width="7.5" height="7.5"/>
	<rect x="131.25" y="153.691" fill="#FFFFFF" width="7.5" height="7.5"/>
	<rect x="146.25" y="153.691" fill="#FFFFFF" width="7.5" height="7.5"/>
	<rect x="153.75" y="153.691" fill="#BB807B" width="7.5" height="7.5"/>
	<rect x="138.75" y="161.177" fill="#D28F8C" width="7.5" height="7.5"/>
	<rect x="131.25" y="161.177" fill="#D28F8C" width="7.5" height="7.5"/>
	<rect x="146.25" y="161.177" fill="#D28F8C" width="7.5" height="7.5"/>
	<rect x="153.75" y="161.177" fill="#F0D0B4" width="7.5" height="7.5"/>
	<rect x="138.75" y="168.677" fill="#F0D0B4" width="7.5" height="7.5"/>
	<rect x="131.25" y="168.677" fill="#F0D0B4" width="7.5" height="7.5"/>
	<rect x="146.25" y="168.677" fill="#F0D0B4" width="7.5" height="7.5"/>
	<rect x="153.75" y="168.677" fill="#F0D0B4" width="7.5" height="7.5"/>
	<rect x="161.25" y="168.677" fill="#F0D0B4" width="7.5" height="7.5"/>
	<rect x="168.75" y="146.206" fill="#F0D0B4" width="7.5" height="7.5"/>
	<rect x="161.25" y="138.721" fill="#F0D0B4" width="7.5" height="7.5"/>
	<rect x="168.75" y="138.721" fill="#F0D0B4" width="7.5" height="7.5"/>
	<rect x="161.25" y="161.177" fill="#F0D0B4" width="7.5" height="7.5"/>
	<rect x="168.75" y="161.177" fill="#F0D0B4" width="7.5" height="7.5"/>
	<rect x="161.25" y="153.691" fill="#F0D0B4" width="7.5" height="7.5"/>
	<rect x="168.75" y="153.691" fill="#F0D0B4" width="7.5" height="7.5"/>
	<rect x="161.25" y="131.206" fill="#553125" width="7.5" height="7.5"/>
	<rect x="168.75" y="131.206" fill="#F0D0B4" width="7.5" height="7.5"/>
	<rect x="161.25" y="116.255" fill="#734637" width="7.5" height="7.5"/>
	<rect x="168.75" y="116.255" fill="#734637" width="7.5" height="7.5"/>
	<rect x="176.25" y="131.206" fill="#F0D0B4" width="7.5" height="7.5"/>
	<rect x="176.25" y="123.721" fill="#F0D0B4" width="7.5" height="7.5"/>
	<rect x="131.25" y="108.784" fill="#F0D0B4" width="7.5" height="7.5"/>
	<rect x="138.75" y="108.784" fill="#F0D0B4" width="7.5" height="7.5"/>
	<rect x="146.25" y="108.784" fill="#F0D0B4" width="7.5" height="7.5"/>
	<rect x="153.75" y="108.784" fill="#734637" width="7.5" height="7.5"/>
	<rect x="131.25" y="116.255" fill="#B68D63" width="7.5" height="7.5"/>
	<rect x="138.75" y="116.255" fill="#F0D0B4" width="7.5" height="7.5"/>
	<rect x="146.25" y="116.255" fill="#F0D0B4" width="7.5" height="7.5"/>
	<rect x="153.75" y="116.255" fill="#734637" width="7.5" height="7.5"/>
	<rect x="116.25" y="123.721" fill="#EFCFC0" width="7.5" height="7.5"/>
	<rect x="123.75" y="123.721" fill="#F0D0B4" width="7.5" height="7.5"/>
	<rect x="161.25" y="123.721" fill="#734637" width="7.5" height="7.5"/>
	<rect x="168.75" y="123.721" fill="#553125" width="7.5" height="7.5"/>
	<rect x="131.25" y="123.721" fill="#F0D0B4" width="7.5" height="7.5"/>
	<rect x="138.75" y="123.721" fill="#F0D0B4" width="7.5" height="7.5"/>
	<rect x="146.25" y="123.721" fill="#F0D0B4" width="7.5" height="7.5"/>
	<rect x="153.75" y="123.721" fill="#734637" width="7.5" height="7.5"/>
	<rect x="138.75" y="131.206" fill="#F0D0B4" width="7.5" height="7.5"/>
	<rect x="146.25" y="131.206" fill="#F0D0B4" width="7.5" height="7.5"/>
	<rect x="153.75" y="131.206" fill="#F0D0B4" width="7.5" height="7.5"/>
	<rect x="131.25" y="138.706" fill="#F0D0B4" width="7.5" height="7.5"/>
	<rect x="138.75" y="138.706" fill="#F0D0B4" width="7.5" height="7.5"/>
	<rect x="146.25" y="138.706" fill="#E7B890" width="7.5" height="7.5"/>
	<rect x="153.75" y="138.706" fill="#F0D0B4" width="7.5" height="7.5"/>
	<rect x="161.25" y="93.784" fill="#734637" width="7.5" height="7.5"/>
	<rect x="168.75" y="93.784" fill="#734637" width="7.5" height="7.5"/>
	<rect x="123.75" y="86.299" fill="#805041" width="7.5" height="7.5"/>
	<rect x="131.25" y="86.299" fill="#734637" width="7.5" height="7.5"/>
	<rect x="138.75" y="86.299" fill="#805041" width="7.5" height="7.5"/>
	<rect x="146.25" y="86.299" fill="#734637" width="7.5" height="7.5"/>
	<rect x="153.75" y="86.299" fill="#734637" width="7.5" height="7.5"/>
	<rect x="161.25" y="86.299" fill="#734637" width="7.5" height="7.5"/>
	<rect x="153.75" y="78.799" fill="#734637" width="7.5" height="7.5"/>
	<rect x="161.25" y="78.799" fill="#734637" width="7.5" height="7.5"/>
	<rect x="168.75" y="86.299" fill="#734637" width="7.5" height="7.5"/>
	<rect x="176.25" y="93.784" fill="#734637" width="7.5" height="7.5"/>
	<rect x="176.25" y="86.299" fill="#734637" width="7.5" height="7.5"/>
	<rect x="176.25" y="78.799" fill="#734637" width="7.5" height="7.5"/>
	<rect x="183.75" y="93.784" fill="#734637" width="7.5" height="7.5"/>
	<rect x="161.25" y="101.284" fill="#805041" width="7.5" height="7.5"/>
	<rect x="168.75" y="101.284" fill="#734637" width="7.5" height="7.5"/>
	<rect x="161.25" y="108.784" fill="#734637" width="7.5" height="7.5"/>
	<rect x="168.75" y="108.784" fill="#805041" width="7.5" height="7.5"/>
	<rect x="176.25" y="116.255" fill="#805041" width="7.5" height="7.5"/>
	<rect x="176.25" y="101.284" fill="#734637" width="7.5" height="7.5"/>
	<rect x="183.75" y="101.284" fill="#734637" width="7.5" height="7.5"/>
	<rect x="176.25" y="108.784" fill="#734637" width="7.5" height="7.5"/>
	<rect x="183.75" y="131.235" fill="#734637" width="7.5" height="7.5"/>
	<rect x="183.75" y="138.721" fill="#734637" width="7.5" height="7.5"/>
	<rect x="183.75" y="123.765" fill="#734637" width="7.5" height="7.5"/>
	<rect x="183.75" y="116.284" fill="#734637" width="7.5" height="7.5"/>
	<rect x="183.75" y="108.784" fill="#734637" width="7.5" height="7.5"/>
	<rect x="176.25" y="146.191" fill="#553125" width="7.5" height="7.5"/>
	<rect x="176.25" y="138.721" fill="#553125" width="7.5" height="7.5"/>
	<rect x="123.75" y="131.206" fill="#4C2F1C" width="7.5" height="7.5"/>
	<rect x="131.25" y="131.206" fill="#F7F0ED" width="7.5" height="7.5"/>
</g>
</svg>
