<?xml version="1.0" encoding="utf-8"?>
<!-- Generator: Adobe Illustrator 16.0.0, SVG Export Plug-In . SVG Version: 6.00 Build 0)  -->
<!DOCTYPE svg PUBLIC "-//W3C//DTD SVG 1.1//EN" "http://www.w3.org/Graphics/SVG/1.1/DTD/svg11.dtd">
<svg version="1.1" id="Layer_1" xmlns="http://www.w3.org/2000/svg" xmlns:xlink="http://www.w3.org/1999/xlink" x="0px" y="0px"
	 width="300px" height="300px" viewBox="0 0 300 300" enable-background="new 0 0 300 300" xml:space="preserve">
<g>
	<rect x="135.752" y="86.285" fill="#947B42" width="6" height="6"/>
	<rect x="141.752" y="86.285" fill="#634B1C" width="6" height="6"/>
	<rect x="147.752" y="86.285" fill="#947B42" width="6" height="6"/>
	<rect x="123.752" y="98.273" fill="#634B1C" width="6" height="6"/>
	<rect x="129.752" y="98.273" fill="#3E2D02" width="6" height="6"/>
	<rect x="135.752" y="98.273" fill="#726658" width="6" height="6"/>
	<rect x="141.752" y="98.273" fill="#634B1C" width="6" height="6"/>
	<rect x="147.752" y="98.273" fill="#726658" width="6" height="6"/>
	<rect x="153.752" y="98.273" fill="#634B1C" width="6" height="6"/>
	<rect x="123.752" y="104.273" fill="#3E2D02" width="6" height="6"/>
	<rect x="129.752" y="104.273" fill="#726658" width="6" height="6"/>
	<rect x="135.752" y="104.273" fill="#3E2D02" width="6" height="6"/>
	<rect x="141.752" y="104.273" fill="#726658" width="6" height="6"/>
	<rect x="147.752" y="104.273" fill="#EFD1B8" width="6" height="6"/>
	<rect x="153.752" y="104.273" fill="#EFD1B8" width="6" height="6"/>
	<rect x="123.752" y="110.273" fill="#EFD1B8" width="6" height="6"/>
	<rect x="129.752" y="110.273" fill="#F7E0CF" width="6" height="6"/>
	<rect x="123.752" y="116.25" fill="#EFD1B8" width="6" height="6"/>
	<rect x="129.752" y="116.25" fill="#323133" width="6" height="6"/>
	<rect x="123.752" y="128.211" fill="#EFD1B8" width="6" height="6"/>
	<rect x="129.752" y="128.211" fill="#7D7967" width="6" height="6"/>
	<rect x="123.752" y="134.223" fill="#EFD1B8" width="6" height="6"/>
	<rect x="129.752" y="134.223" fill="#EFD1B8" width="6" height="6"/>
	<rect x="123.752" y="140.211" fill="#EFD1B8" width="6" height="6"/>
	<rect x="117.752" y="134.211" fill="#EFD1B8" width="6" height="6"/>
	<rect x="129.752" y="140.211" fill="#EFD1B8" width="6" height="6"/>
	<rect x="141.752" y="140.211" fill="#EFD1B8" width="6" height="6"/>
	<rect x="135.752" y="140.211" fill="#EFD1B8" width="6" height="6"/>
	<rect x="147.752" y="140.211" fill="#F7E0CF" width="6" height="6"/>
	<rect x="159.752" y="140.211" fill="#EFD1B8" width="6" height="6"/>
	<rect x="153.752" y="140.211" fill="#F7E0CF" width="6" height="6"/>
	<rect x="141.752" y="146.199" fill="#FFFFFF" width="6" height="6"/>
	<rect x="135.752" y="146.199" fill="#FFFFFF" width="6" height="6"/>
	<rect x="147.752" y="146.199" fill="#FFFFFF" width="6" height="6"/>
	<rect x="153.752" y="146.199" fill="#BB807B" width="6" height="6"/>
	<rect x="141.752" y="152.188" fill="#D28F8C" width="6" height="6"/>
	<rect x="135.752" y="152.188" fill="#D28F8C" width="6" height="6"/>
	<rect x="147.752" y="152.188" fill="#BB807B" width="6" height="6"/>
	<rect x="153.752" y="152.188" fill="#EFD1B8" width="6" height="6"/>
	<rect x="141.752" y="158.188" fill="#F7E0CF" width="6" height="6"/>
	<rect x="135.752" y="158.188" fill="#F7E0CF" width="6" height="6"/>
	<rect x="147.752" y="158.188" fill="#EFD1B8" width="6" height="6"/>
	<rect x="141.752" y="164.188" fill="#D7BFAA" width="6" height="6"/>
	<rect x="147.752" y="164.188" fill="#D7BFAA" width="6" height="6"/>
	<rect x="141.752" y="170.156" fill="#EFD1B8" width="6" height="6"/>
	<rect x="147.752" y="170.156" fill="#EFD1B8" width="6" height="6"/>
	<rect x="153.752" y="164.188" fill="#EFD1B8" width="6" height="6"/>
	<rect x="153.752" y="158.188" fill="#EFD1B8" width="6" height="6"/>
	<rect x="159.752" y="158.188" fill="#D7BFAA" width="6" height="6"/>
	<rect x="153.752" y="170.156" fill="#EFD1B8" width="6" height="6"/>
	<rect x="141.752" y="182.156" fill="#ADAFB2" width="6" height="6"/>
	<rect x="147.752" y="182.156" fill="#EFD1B8" width="6" height="6"/>
	<rect x="159.752" y="182.156" fill="#95989B" width="6" height="6"/>
	<rect x="153.752" y="182.156" fill="#ADAFB2" width="6" height="6"/>
	<rect x="135.752" y="182.156" fill="#95989B" width="6" height="6"/>
	<rect x="129.752" y="182.156" fill="#95989B" width="6" height="6"/>
	<rect x="123.752" y="182.156" fill="#95989B" width="6" height="6"/>
	<rect x="165.752" y="182.156" fill="#95989B" width="6" height="6"/>
	<rect x="171.752" y="182.156" fill="#95989B" width="6" height="6"/>
	<rect x="177.752" y="182.156" fill="#95989B" width="6" height="6"/>
	<rect x="183.752" y="182.156" fill="#95989B" width="6" height="6"/>
	<rect x="141.752" y="194.156" fill="#95989B" width="6" height="6"/>
	<rect x="147.752" y="194.156" fill="#95989B" width="6" height="6"/>
	<rect x="159.752" y="194.156" fill="#95989B" width="6" height="6"/>
	<rect x="153.752" y="194.156" fill="#95989B" width="6" height="6"/>
	<rect x="135.752" y="194.156" fill="#95989B" width="6" height="6"/>
	<rect x="129.752" y="194.156" fill="#808285" width="6" height="6"/>
	<rect x="123.752" y="194.156" fill="#EFD1B8" width="6" height="6"/>
	<rect x="165.752" y="194.156" fill="#95989B" width="6" height="6"/>
	<rect x="171.752" y="194.156" fill="#808285" width="6" height="6"/>
	<rect x="177.752" y="194.156" fill="#EFD1B8" width="6" height="6"/>
	<rect x="183.752" y="194.156" fill="#EFD1B8" width="6" height="6"/>
	<rect x="141.752" y="176.156" fill="#EFD1B8" width="6" height="6"/>
	<rect x="147.752" y="176.156" fill="#EFD1B8" width="6" height="6"/>
	<rect x="159.752" y="176.156" fill="#ADAFB2" width="6" height="6"/>
	<rect x="153.752" y="176.156" fill="#EFD1B8" width="6" height="6"/>
	<rect x="135.752" y="176.156" fill="#ADAFB2" width="6" height="6"/>
	<rect x="129.752" y="176.156" fill="#95989B" width="6" height="6"/>
	<rect x="123.752" y="176.156" fill="#95989B" width="6" height="6"/>
	<rect x="165.752" y="176.156" fill="#95989B" width="6" height="6"/>
	<rect x="171.752" y="176.156" fill="#95989B" width="6" height="6"/>
	<rect x="177.752" y="176.156" fill="#95989B" width="6" height="6"/>
	<rect x="141.752" y="188.156" fill="#95989B" width="6" height="6"/>
	<rect x="147.752" y="188.156" fill="#ADAFB2" width="6" height="6"/>
	<rect x="159.752" y="188.156" fill="#95989B" width="6" height="6"/>
	<rect x="153.752" y="188.156" fill="#95989B" width="6" height="6"/>
	<rect x="135.752" y="188.156" fill="#95989B" width="6" height="6"/>
	<rect x="129.752" y="188.156" fill="#95989B" width="6" height="6"/>
	<rect x="123.752" y="188.156" fill="#95989B" width="6" height="6"/>
	<rect x="117.752" y="182.156" fill="#95989B" width="6" height="6"/>
	<rect x="117.752" y="194.156" fill="#EFD1B8" width="6" height="6"/>
	<rect x="117.752" y="188.156" fill="#95989B" width="6" height="6"/>
	<rect x="165.752" y="188.156" fill="#95989B" width="6" height="6"/>
	<rect x="171.752" y="188.156" fill="#95989B" width="6" height="6"/>
	<rect x="177.752" y="188.156" fill="#95989B" width="6" height="6"/>
	<rect x="183.752" y="188.156" fill="#95989B" width="6" height="6"/>
	<rect x="165.752" y="140.211" fill="#EFD1B8" width="6" height="6"/>
	<rect x="159.752" y="134.223" fill="#EFD1B8" width="6" height="6"/>
	<rect x="165.752" y="134.223" fill="#D7BFAA" width="6" height="6"/>
	<rect x="159.752" y="152.188" fill="#EFD1B8" width="6" height="6"/>
	<rect x="165.752" y="152.188" fill="#D7BFAA" width="6" height="6"/>
	<rect x="159.752" y="146.199" fill="#F7E0CF" width="6" height="6"/>
	<rect x="165.752" y="146.199" fill="#EFD1B8" width="6" height="6"/>
	<rect x="159.752" y="128.211" fill="#EFD1B8" width="6" height="6"/>
	<rect x="165.752" y="128.211" fill="#EFD1B8" width="6" height="6"/>
	<rect x="159.752" y="116.25" fill="#3E2D02" width="6" height="6"/>
	<rect x="165.752" y="116.25" fill="#634B1C" width="6" height="6"/>
	<rect x="171.752" y="128.211" fill="#EFD1B8" width="6" height="6"/>
	<rect x="171.752" y="122.223" fill="#EFD1B8" width="6" height="6"/>
	<rect x="135.752" y="110.273" fill="#EFD1B8" width="6" height="6"/>
	<rect x="141.752" y="110.273" fill="#EFD1B8" width="6" height="6"/>
	<rect x="147.752" y="110.273" fill="#EFD1B8" width="6" height="6"/>
	<rect x="153.752" y="110.273" fill="#3E2D02" width="6" height="6"/>
	<rect x="135.752" y="116.25" fill="#323133" width="6" height="6"/>
	<rect x="141.752" y="116.25" fill="#464749" width="6" height="6"/>
	<rect x="147.752" y="116.25" fill="#EFD1B8" width="6" height="6"/>
	<rect x="153.752" y="116.25" fill="#EFD1B8" width="6" height="6"/>
	<rect x="123.752" y="122.223" fill="#F7E0CF" width="6" height="6"/>
	<rect x="129.752" y="122.223" fill="#EFD1B8" width="6" height="6"/>
	<rect x="159.752" y="122.223" fill="#3E2D02" width="6" height="6"/>
	<rect x="165.752" y="122.223" fill="#F7E0CF" width="6" height="6"/>
	<rect x="135.752" y="122.223" fill="#EFD1B8" width="6" height="6"/>
	<rect x="141.752" y="122.223" fill="#EFD1B8" width="6" height="6"/>
	<rect x="147.752" y="122.223" fill="#EFD1B8" width="6" height="6"/>
	<rect x="153.752" y="122.223" fill="#F7E0CF" width="6" height="6"/>
	<rect x="135.752" y="128.211" fill="#FFFFFF" width="6" height="6"/>
	<rect x="141.752" y="128.211" fill="#EFD1B8" width="6" height="6"/>
	<rect x="147.752" y="128.211" fill="#EFD1B8" width="6" height="6"/>
	<rect x="153.752" y="128.211" fill="#F7E0CF" width="6" height="6"/>
	<rect x="135.752" y="134.211" fill="#EFD1B8" width="6" height="6"/>
	<rect x="141.752" y="134.211" fill="#F7E0CF" width="6" height="6"/>
	<rect x="147.752" y="134.211" fill="#EFD1B8" width="6" height="6"/>
	<rect x="153.752" y="134.211" fill="#EFD1B8" width="6" height="6"/>
	<rect x="159.752" y="98.273" fill="#947B42" width="6" height="6"/>
	<rect x="165.752" y="98.273" fill="#3E2D02" width="6" height="6"/>
	<rect x="129.752" y="92.285" fill="#634B1C" width="6" height="6"/>
	<rect x="135.752" y="92.285" fill="#634B1C" width="6" height="6"/>
	<rect x="141.752" y="92.285" fill="#726658" width="6" height="6"/>
	<rect x="147.752" y="92.285" fill="#634B1C" width="6" height="6"/>
	<rect x="153.752" y="92.285" fill="#947B42" width="6" height="6"/>
	<rect x="159.752" y="92.285" fill="#3E2D02" width="6" height="6"/>
	<rect x="153.752" y="86.285" fill="#634B1C" width="6" height="6"/>
	<rect x="159.752" y="86.285" fill="#947B42" width="6" height="6"/>
	<rect x="165.752" y="92.285" fill="#634B1C" width="6" height="6"/>
	<rect x="171.752" y="98.273" fill="#634B1C" width="6" height="6"/>
	<rect x="171.752" y="92.285" fill="#947B42" width="6" height="6"/>
	<rect x="159.752" y="104.273" fill="#3E2D02" width="6" height="6"/>
	<rect x="165.752" y="104.273" fill="#634B1C" width="6" height="6"/>
	<rect x="159.752" y="110.273" fill="#634B1C" width="6" height="6"/>
	<rect x="165.752" y="110.273" fill="#3E2D02" width="6" height="6"/>
	<rect x="171.752" y="116.25" fill="#F7E0CF" width="6" height="6"/>
	<rect x="171.752" y="104.273" fill="#947B42" width="6" height="6"/>
	<rect x="177.752" y="98.273" fill="#634B1C" width="6" height="6"/>
	<rect x="177.752" y="104.273" fill="#3E2D02" width="6" height="6"/>
	<rect x="171.752" y="110.273" fill="#3E2D02" width="6" height="6"/>
	<rect x="177.752" y="128.238" fill="#634B1C" width="6" height="6"/>
	<rect x="177.752" y="122.262" fill="#3E2D02" width="6" height="6"/>
	<rect x="177.752" y="116.27" fill="#634B1C" width="6" height="6"/>
	<rect x="177.752" y="110.27" fill="#634B1C" width="6" height="6"/>
	<rect x="171.752" y="140.199" fill="#726658" width="6" height="6"/>
	<rect x="177.752" y="134.227" fill="#3E2D02" width="6" height="6"/>
	<rect x="171.752" y="134.223" fill="#3E2D02" width="6" height="6"/>
</g>
</svg>
