<?xml version="1.0" encoding="utf-8"?>
<!-- Generator: Adobe Illustrator 16.0.0, SVG Export Plug-In . SVG Version: 6.00 Build 0)  -->
<!DOCTYPE svg PUBLIC "-//W3C//DTD SVG 1.1//EN" "http://www.w3.org/Graphics/SVG/1.1/DTD/svg11.dtd">
<svg version="1.1" id="Layer_1" xmlns="http://www.w3.org/2000/svg" xmlns:xlink="http://www.w3.org/1999/xlink" x="0px" y="0px"
	 width="300px" height="300px" viewBox="0 0 300 300" enable-background="new 0 0 300 300" xml:space="preserve">
<g>
	<rect x="120" y="99.059" fill="#231F20" width="6" height="6"/>
	<rect x="126" y="99.059" fill="#231F20" width="6" height="6"/>
	<rect x="132" y="99.059" fill="#414042" width="6" height="6"/>
	<rect x="144" y="99.059" fill="#231F20" width="6" height="6"/>
	<rect x="120" y="111.047" fill="#BD9F71" width="6" height="6"/>
	<rect x="126" y="111.047" fill="#AF865A" width="6" height="6"/>
	<rect x="132" y="111.047" fill="#AF865A" width="6" height="6"/>
	<rect x="138" y="111.047" fill="#AF865A" width="6" height="6"/>
	<rect x="144" y="111.047" fill="#AF865A" width="6" height="6"/>
	<rect x="150" y="111.047" fill="#414042" width="6" height="6"/>
	<rect x="120" y="117.047" fill="#BD9F71" width="6" height="6"/>
	<rect x="126" y="117.047" fill="#BD9F71" width="6" height="6"/>
	<rect x="120" y="123.023" fill="#AF865A" width="6" height="6"/>
	<rect x="126" y="123.023" fill="#231F20" width="6" height="6"/>
	<rect x="120" y="134.984" fill="#99774E" width="6" height="6"/>
	<rect x="126" y="134.984" fill="#3B2314" width="6" height="6"/>
	<rect x="120" y="140.996" fill="#AF865A" width="6" height="6"/>
	<rect x="126" y="140.996" fill="#AF865A" width="6" height="6"/>
	<rect x="120" y="146.984" fill="#8C6E4C" width="6" height="6"/>
	<rect x="114" y="140.996" fill="#AF865A" width="6" height="6"/>
	<rect x="114" y="134.984" fill="#BD9F71" width="6" height="6"/>
	<rect x="126" y="146.984" fill="#99774E" width="6" height="6"/>
	<rect x="138" y="146.984" fill="#BD9F71" width="6" height="6"/>
	<rect x="132" y="146.984" fill="#99774E" width="6" height="6"/>
	<rect x="144" y="146.984" fill="#99694A" width="6" height="6"/>
	<rect x="156" y="146.984" fill="#AF865A" width="6" height="6"/>
	<rect x="150" y="146.984" fill="#AF865A" width="6" height="6"/>
	<rect x="138" y="152.973" fill="#FFFFFF" width="6" height="6"/>
	<rect x="132" y="152.973" fill="#FFFFFF" width="6" height="6"/>
	<rect x="144" y="152.973" fill="#FFFFFF" width="6" height="6"/>
	<rect x="150" y="152.973" fill="#AD6D67" width="6" height="6"/>
	<rect x="138" y="158.961" fill="#B1756C" width="6" height="6"/>
	<rect x="132" y="158.961" fill="#B1756C" width="6" height="6"/>
	<rect x="144" y="158.961" fill="#B1756C" width="6" height="6"/>
	<rect x="150" y="158.961" fill="#99774E" width="6" height="6"/>
	<rect x="138" y="164.961" fill="#99774E" width="6" height="6"/>
	<rect x="132" y="164.961" fill="#99774E" width="6" height="6"/>
	<rect x="144" y="164.961" fill="#99774E" width="6" height="6"/>
	<rect x="138" y="170.961" fill="#8C6E4C" width="6" height="6"/>
	<rect x="144" y="170.961" fill="#8C6E4C" width="6" height="6"/>
	<rect x="150" y="170.961" fill="#AF865A" width="6" height="6"/>
	<rect x="138" y="176.93" fill="#AF865A" width="6" height="6"/>
	<rect x="144" y="176.93" fill="#AF865A" width="6" height="6"/>
	<rect x="150" y="176.93" fill="#AF865A" width="6" height="6"/>
	<rect x="150" y="164.961" fill="#AF865A" width="6" height="6"/>
	<rect x="156" y="176.941" fill="#ECEEEE" width="6" height="6"/>
	<rect x="132" y="176.941" fill="#ECEEEE" width="6" height="6"/>
	<rect x="126" y="176.941" fill="#231F20" width="6" height="6"/>
	<rect x="162" y="176.941" fill="#231F20" width="6" height="6"/>
	<rect x="168" y="176.941" fill="#231F20" width="6" height="6"/>
	<rect x="138" y="188.941" fill="#ECEEEE" width="6" height="6"/>
	<rect x="144" y="188.941" fill="#ECEEEE" width="6" height="6"/>
	<rect x="156" y="188.941" fill="#231F20" width="6" height="6"/>
	<rect x="150" y="188.941" fill="#ECEEEE" width="6" height="6"/>
	<rect x="132" y="188.941" fill="#231F20" width="6" height="6"/>
	<rect x="126" y="188.941" fill="#ECEEEE" width="6" height="6"/>
	<rect x="120" y="188.941" fill="#231F20" width="6" height="6"/>
	<rect x="162" y="188.941" fill="#ECEEEE" width="6" height="6"/>
	<rect x="168" y="188.941" fill="#231F20" width="6" height="6"/>
	<rect x="174" y="188.941" fill="#231F20" width="6" height="6"/>
	<rect x="180" y="188.941" fill="#231F20" width="6" height="6"/>
	<rect x="138" y="200.941" fill="#ECEEEE" width="6" height="6"/>
	<rect x="144" y="200.941" fill="#ECEEEE" width="6" height="6"/>
	<rect x="156" y="200.941" fill="#323133" width="6" height="6"/>
	<rect x="150" y="200.941" fill="#ECEEEE" width="6" height="6"/>
	<rect x="132" y="200.941" fill="#323133" width="6" height="6"/>
	<rect x="126" y="200.941" fill="#231F20" width="6" height="6"/>
	<rect x="120" y="200.941" fill="#231F20" width="6" height="6"/>
	<rect x="162" y="200.941" fill="#231F20" width="6" height="6"/>
	<rect x="168" y="200.941" fill="#231F20" width="6" height="6"/>
	<rect x="174" y="200.941" fill="#231F20" width="6" height="6"/>
	<rect x="180" y="200.941" fill="#231F20" width="6" height="6"/>
	<rect x="138" y="182.941" fill="#ECEEEE" width="6" height="6"/>
	<rect x="144" y="182.941" fill="#AF865A" width="6" height="6"/>
	<rect x="156" y="182.941" fill="#ECEEEE" width="6" height="6"/>
	<rect x="150" y="182.941" fill="#ECEEEE" width="6" height="6"/>
	<rect x="132" y="182.941" fill="#ECEEEE" width="6" height="6"/>
	<rect x="126" y="182.941" fill="#ECEEEE" width="6" height="6"/>
	<rect x="120" y="182.941" fill="#323133" width="6" height="6"/>
	<rect x="162" y="182.941" fill="#ECEEEE" width="6" height="6"/>
	<rect x="168" y="182.941" fill="#323133" width="6" height="6"/>
	<rect x="174" y="182.941" fill="#231F20" width="6" height="6"/>
	<rect x="138" y="194.941" fill="#DFE0E1" width="6" height="6"/>
	<rect x="144" y="194.941" fill="#ECEEEE" width="6" height="6"/>
	<rect x="156" y="194.941" fill="#323133" width="6" height="6"/>
	<rect x="150" y="194.941" fill="#DFE0E1" width="6" height="6"/>
	<rect x="132" y="194.941" fill="#323133" width="6" height="6"/>
	<rect x="126" y="194.941" fill="#231F20" width="6" height="6"/>
	<rect x="120" y="194.941" fill="#231F20" width="6" height="6"/>
	<rect x="114" y="188.941" fill="#231F20" width="6" height="6"/>
	<rect x="114" y="200.941" fill="#231F20" width="6" height="6"/>
	<rect x="114" y="194.941" fill="#231F20" width="6" height="6"/>
	<rect x="162" y="194.941" fill="#231F20" width="6" height="6"/>
	<rect x="168" y="194.941" fill="#231F20" width="6" height="6"/>
	<rect x="174" y="194.941" fill="#231F20" width="6" height="6"/>
	<rect x="180" y="194.941" fill="#231F20" width="6" height="6"/>
	<rect x="162" y="146.984" fill="#AF865A" width="6" height="6"/>
	<rect x="156" y="140.996" fill="#AF865A" width="6" height="6"/>
	<rect x="162" y="140.996" fill="#AF865A" width="6" height="6"/>
	<rect x="156" y="158.961" fill="#AF865A" width="6" height="6"/>
	<rect x="156" y="152.973" fill="#AF865A" width="6" height="6"/>
	<rect x="162" y="152.973" fill="#AF865A" width="6" height="6"/>
	<rect x="156" y="164.957" fill="#AF865A" width="6" height="6"/>
	<rect x="156" y="134.984" fill="#414042" width="6" height="6"/>
	<rect x="162" y="134.984" fill="#AF865A" width="6" height="6"/>
	<rect x="156" y="123.023" fill="#231F20" width="6" height="6"/>
	<rect x="162" y="123.023" fill="#414042" width="6" height="6"/>
	<rect x="168" y="134.984" fill="#AF865A" width="6" height="6"/>
	<rect x="168" y="128.996" fill="#AF865A" width="6" height="6"/>
	<rect x="132" y="117.047" fill="#AF865A" width="6" height="6"/>
	<rect x="138" y="117.047" fill="#AF865A" width="6" height="6"/>
	<rect x="144" y="117.047" fill="#AF865A" width="6" height="6"/>
	<rect x="150" y="117.047" fill="#231F20" width="6" height="6"/>
	<rect x="132" y="123.023" fill="#414042" width="6" height="6"/>
	<rect x="138" y="123.023" fill="#AF865A" width="6" height="6"/>
	<rect x="144" y="123.023" fill="#AF865A" width="6" height="6"/>
	<rect x="150" y="123.023" fill="#414042" width="6" height="6"/>
	<rect x="120" y="128.996" fill="#AF865A" width="6" height="6"/>
	<rect x="126" y="128.996" fill="#AF865A" width="6" height="6"/>
	<rect x="156" y="128.996" fill="#414042" width="6" height="6"/>
	<rect x="162" y="128.996" fill="#231F20" width="6" height="6"/>
	<rect x="132" y="128.996" fill="#AF865A" width="6" height="6"/>
	<rect x="138" y="128.996" fill="#414042" width="6" height="6"/>
	<rect x="144" y="128.996" fill="#AF865A" width="6" height="6"/>
	<rect x="150" y="128.996" fill="#AF865A" width="6" height="6"/>
	<rect x="132" y="134.984" fill="#FFFFFF" width="6" height="6"/>
	<rect x="138" y="134.984" fill="#AF865A" width="6" height="6"/>
	<rect x="144" y="134.984" fill="#AF865A" width="6" height="6"/>
	<rect x="150" y="134.984" fill="#AF865A" width="6" height="6"/>
	<rect x="132" y="140.984" fill="#BD9F71" width="6" height="6"/>
	<rect x="138" y="140.984" fill="#99694A" width="6" height="6"/>
	<rect x="144" y="140.984" fill="#AF865A" width="6" height="6"/>
	<rect x="150" y="140.984" fill="#AF865A" width="6" height="6"/>
	<rect x="120" y="105.059" fill="#AF865A" width="6" height="6"/>
	<rect x="126" y="105.059" fill="#AF865A" width="6" height="6"/>
	<rect x="132" y="105.059" fill="#AF865A" width="6" height="6"/>
	<rect x="138" y="105.059" fill="#AF865A" width="6" height="6"/>
	<rect x="144" y="105.059" fill="#AF865A" width="6" height="6"/>
	<rect x="150" y="105.059" fill="#BD9F71" width="6" height="6"/>
	<rect x="156" y="105.059" fill="#231F20" width="6" height="6"/>
	<rect x="150" y="99.059" fill="#231F20" width="6" height="6"/>
	<rect x="156" y="99.059" fill="#414042" width="6" height="6"/>
	<rect x="138" y="99.059" fill="#231F20" width="6" height="6"/>
	<rect x="162" y="105.059" fill="#231F20" width="6" height="6"/>
	<rect x="162" y="99.059" fill="#231F20" width="6" height="6"/>
	<rect x="168" y="105.059" fill="#231F20" width="6" height="6"/>
	<rect x="156" y="111.047" fill="#6D6F72" width="6" height="6"/>
	<rect x="162" y="111.047" fill="#414042" width="6" height="6"/>
	<rect x="156" y="117.047" fill="#414042" width="6" height="6"/>
	<rect x="162" y="117.047" fill="#231F20" width="6" height="6"/>
	<rect x="168" y="123.023" fill="#BD9F71" width="6" height="6"/>
	<rect x="168" y="111.047" fill="#231F20" width="6" height="6"/>
	<rect x="126" y="93.059" fill="#231F20" width="6" height="6"/>
	<rect x="132" y="93.059" fill="#231F20" width="6" height="6"/>
	<rect x="144" y="93.059" fill="#414042" width="6" height="6"/>
	<rect x="150" y="93.059" fill="#231F20" width="6" height="6"/>
	<rect x="156" y="93.059" fill="#6D6F72" width="6" height="6"/>
	<rect x="138" y="93.059" fill="#231F20" width="6" height="6"/>
	<rect x="168" y="117.047" fill="#231F20" width="6" height="6"/>
	<rect x="174" y="135.012" fill="#AF865A" width="6" height="6"/>
	<rect x="174" y="129.035" fill="#BD9F71" width="6" height="6"/>
	<rect x="174" y="123.043" fill="#BD9F71" width="6" height="6"/>
	<rect x="168" y="140.996" fill="#AF865A" width="6" height="6"/>
	<rect x="120" y="99.059" fill="#231F20" width="6" height="6"/>
	<rect x="126" y="99.059" fill="#231F20" width="6" height="6"/>
	<rect x="132" y="99.059" fill="#414042" width="6" height="6"/>
	<rect x="144" y="99.059" fill="#231F20" width="6" height="6"/>
	<rect x="120" y="111.047" fill="#BD9F71" width="6" height="6"/>
	<rect x="126" y="111.047" fill="#AF865A" width="6" height="6"/>
	<rect x="132" y="111.047" fill="#AF865A" width="6" height="6"/>
	<rect x="138" y="111.047" fill="#AF865A" width="6" height="6"/>
	<rect x="144" y="111.047" fill="#AF865A" width="6" height="6"/>
	<rect x="150" y="111.047" fill="#414042" width="6" height="6"/>
	<rect x="120" y="117.047" fill="#BD9F71" width="6" height="6"/>
	<rect x="126" y="117.047" fill="#BD9F71" width="6" height="6"/>
	<rect x="120" y="123.023" fill="#AF865A" width="6" height="6"/>
	<rect x="126" y="123.023" fill="#231F20" width="6" height="6"/>
	<rect x="120" y="134.984" fill="#99774E" width="6" height="6"/>
	<rect x="126" y="134.984" fill="#3B2314" width="6" height="6"/>
	<rect x="120" y="140.996" fill="#AF865A" width="6" height="6"/>
	<rect x="126" y="140.996" fill="#AF865A" width="6" height="6"/>
	<rect x="120" y="146.984" fill="#8C6E4C" width="6" height="6"/>
	<rect x="114" y="140.996" fill="#AF865A" width="6" height="6"/>
	<rect x="114" y="134.984" fill="#BD9F71" width="6" height="6"/>
	<rect x="126" y="146.984" fill="#99774E" width="6" height="6"/>
	<rect x="138" y="146.984" fill="#BD9F71" width="6" height="6"/>
	<rect x="132" y="146.984" fill="#99774E" width="6" height="6"/>
	<rect x="144" y="146.984" fill="#99694A" width="6" height="6"/>
	<rect x="156" y="146.984" fill="#AF865A" width="6" height="6"/>
	<rect x="150" y="146.984" fill="#AF865A" width="6" height="6"/>
	<rect x="138" y="152.973" fill="#FFFFFF" width="6" height="6"/>
	<rect x="132" y="152.973" fill="#FFFFFF" width="6" height="6"/>
	<rect x="144" y="152.973" fill="#FFFFFF" width="6" height="6"/>
	<rect x="150" y="152.973" fill="#AD6D67" width="6" height="6"/>
	<rect x="138" y="158.961" fill="#B1756C" width="6" height="6"/>
	<rect x="132" y="158.961" fill="#B1756C" width="6" height="6"/>
	<rect x="144" y="158.961" fill="#B1756C" width="6" height="6"/>
	<rect x="150" y="158.961" fill="#99774E" width="6" height="6"/>
	<rect x="138" y="164.961" fill="#99774E" width="6" height="6"/>
	<rect x="132" y="164.961" fill="#99774E" width="6" height="6"/>
	<rect x="144" y="164.961" fill="#99774E" width="6" height="6"/>
	<rect x="138" y="170.961" fill="#8C6E4C" width="6" height="6"/>
	<rect x="144" y="170.961" fill="#8C6E4C" width="6" height="6"/>
	<rect x="150" y="170.961" fill="#AF865A" width="6" height="6"/>
	<rect x="138" y="176.93" fill="#AF865A" width="6" height="6"/>
	<rect x="144" y="176.93" fill="#AF865A" width="6" height="6"/>
	<rect x="150" y="176.93" fill="#AF865A" width="6" height="6"/>
	<rect x="150" y="164.961" fill="#AF865A" width="6" height="6"/>
	<rect x="156" y="176.941" fill="#ECEEEE" width="6" height="6"/>
	<rect x="132" y="176.941" fill="#ECEEEE" width="6" height="6"/>
	<rect x="126" y="176.941" fill="#231F20" width="6" height="6"/>
	<rect x="162" y="176.941" fill="#231F20" width="6" height="6"/>
	<rect x="168" y="176.941" fill="#231F20" width="6" height="6"/>
	<rect x="138" y="188.941" fill="#ECEEEE" width="6" height="6"/>
	<rect x="144" y="188.941" fill="#ECEEEE" width="6" height="6"/>
	<rect x="156" y="188.941" fill="#231F20" width="6" height="6"/>
	<rect x="150" y="188.941" fill="#ECEEEE" width="6" height="6"/>
	<rect x="132" y="188.941" fill="#231F20" width="6" height="6"/>
	<rect x="126" y="188.941" fill="#ECEEEE" width="6" height="6"/>
	<rect x="120" y="188.941" fill="#231F20" width="6" height="6"/>
	<rect x="162" y="188.941" fill="#ECEEEE" width="6" height="6"/>
	<rect x="168" y="188.941" fill="#231F20" width="6" height="6"/>
	<rect x="174" y="188.941" fill="#231F20" width="6" height="6"/>
	<rect x="180" y="188.941" fill="#231F20" width="6" height="6"/>
	<rect x="138" y="200.941" fill="#ECEEEE" width="6" height="6"/>
	<rect x="144" y="200.941" fill="#ECEEEE" width="6" height="6"/>
	<rect x="156" y="200.941" fill="#323133" width="6" height="6"/>
	<rect x="150" y="200.941" fill="#ECEEEE" width="6" height="6"/>
	<rect x="132" y="200.941" fill="#323133" width="6" height="6"/>
	<rect x="126" y="200.941" fill="#231F20" width="6" height="6"/>
	<rect x="120" y="200.941" fill="#231F20" width="6" height="6"/>
	<rect x="162" y="200.941" fill="#231F20" width="6" height="6"/>
	<rect x="168" y="200.941" fill="#231F20" width="6" height="6"/>
	<rect x="174" y="200.941" fill="#231F20" width="6" height="6"/>
	<rect x="180" y="200.941" fill="#231F20" width="6" height="6"/>
	<rect x="138" y="182.941" fill="#ECEEEE" width="6" height="6"/>
	<rect x="144" y="182.941" fill="#AF865A" width="6" height="6"/>
	<rect x="156" y="182.941" fill="#ECEEEE" width="6" height="6"/>
	<rect x="150" y="182.941" fill="#ECEEEE" width="6" height="6"/>
	<rect x="132" y="182.941" fill="#ECEEEE" width="6" height="6"/>
	<rect x="126" y="182.941" fill="#ECEEEE" width="6" height="6"/>
	<rect x="120" y="182.941" fill="#323133" width="6" height="6"/>
	<rect x="162" y="182.941" fill="#ECEEEE" width="6" height="6"/>
	<rect x="168" y="182.941" fill="#323133" width="6" height="6"/>
	<rect x="174" y="182.941" fill="#231F20" width="6" height="6"/>
	<rect x="138" y="194.941" fill="#DFE0E1" width="6" height="6"/>
	<rect x="144" y="194.941" fill="#ECEEEE" width="6" height="6"/>
	<rect x="156" y="194.941" fill="#323133" width="6" height="6"/>
	<rect x="150" y="194.941" fill="#DFE0E1" width="6" height="6"/>
	<rect x="132" y="194.941" fill="#323133" width="6" height="6"/>
	<rect x="126" y="194.941" fill="#231F20" width="6" height="6"/>
	<rect x="120" y="194.941" fill="#231F20" width="6" height="6"/>
	<rect x="114" y="188.941" fill="#231F20" width="6" height="6"/>
	<rect x="114" y="200.941" fill="#231F20" width="6" height="6"/>
	<rect x="114" y="194.941" fill="#231F20" width="6" height="6"/>
	<rect x="162" y="194.941" fill="#231F20" width="6" height="6"/>
	<rect x="168" y="194.941" fill="#231F20" width="6" height="6"/>
	<rect x="174" y="194.941" fill="#231F20" width="6" height="6"/>
	<rect x="180" y="194.941" fill="#231F20" width="6" height="6"/>
	<rect x="162" y="146.984" fill="#AF865A" width="6" height="6"/>
	<rect x="156" y="140.996" fill="#AF865A" width="6" height="6"/>
	<rect x="162" y="140.996" fill="#AF865A" width="6" height="6"/>
	<rect x="156" y="158.961" fill="#AF865A" width="6" height="6"/>
	<rect x="156" y="152.973" fill="#AF865A" width="6" height="6"/>
	<rect x="156" y="164.957" fill="#AF865A" width="6" height="6"/>
	<rect x="156" y="134.984" fill="#414042" width="6" height="6"/>
	<rect x="162" y="134.984" fill="#AF865A" width="6" height="6"/>
	<rect x="156" y="123.023" fill="#231F20" width="6" height="6"/>
	<rect x="162" y="123.023" fill="#414042" width="6" height="6"/>
	<rect x="168" y="134.984" fill="#AF865A" width="6" height="6"/>
	<rect x="168" y="128.996" fill="#AF865A" width="6" height="6"/>
	<rect x="132" y="117.047" fill="#AF865A" width="6" height="6"/>
	<rect x="138" y="117.047" fill="#AF865A" width="6" height="6"/>
	<rect x="144" y="117.047" fill="#AF865A" width="6" height="6"/>
	<rect x="150" y="117.047" fill="#231F20" width="6" height="6"/>
	<rect x="132" y="123.023" fill="#414042" width="6" height="6"/>
	<rect x="138" y="123.023" fill="#AF865A" width="6" height="6"/>
	<rect x="144" y="123.023" fill="#AF865A" width="6" height="6"/>
	<rect x="150" y="123.023" fill="#414042" width="6" height="6"/>
	<rect x="120" y="128.996" fill="#AF865A" width="6" height="6"/>
	<rect x="126" y="128.996" fill="#AF865A" width="6" height="6"/>
	<rect x="156" y="128.996" fill="#414042" width="6" height="6"/>
	<rect x="162" y="128.996" fill="#231F20" width="6" height="6"/>
	<rect x="132" y="128.996" fill="#AF865A" width="6" height="6"/>
	<rect x="138" y="128.996" fill="#414042" width="6" height="6"/>
	<rect x="144" y="128.996" fill="#AF865A" width="6" height="6"/>
	<rect x="150" y="128.996" fill="#AF865A" width="6" height="6"/>
	<rect x="132" y="134.984" fill="#FFFFFF" width="6" height="6"/>
	<rect x="138" y="134.984" fill="#AF865A" width="6" height="6"/>
	<rect x="144" y="134.984" fill="#AF865A" width="6" height="6"/>
	<rect x="150" y="134.984" fill="#AF865A" width="6" height="6"/>
	<rect x="132" y="140.984" fill="#BD9F71" width="6" height="6"/>
	<rect x="138" y="140.984" fill="#99694A" width="6" height="6"/>
	<rect x="144" y="140.984" fill="#AF865A" width="6" height="6"/>
	<rect x="150" y="140.984" fill="#AF865A" width="6" height="6"/>
	<rect x="120" y="105.059" fill="#AF865A" width="6" height="6"/>
	<rect x="126" y="105.059" fill="#AF865A" width="6" height="6"/>
	<rect x="132" y="105.059" fill="#AF865A" width="6" height="6"/>
	<rect x="138" y="105.059" fill="#AF865A" width="6" height="6"/>
	<rect x="144" y="105.059" fill="#AF865A" width="6" height="6"/>
	<rect x="150" y="105.059" fill="#BD9F71" width="6" height="6"/>
	<rect x="156" y="105.059" fill="#231F20" width="6" height="6"/>
	<rect x="150" y="99.059" fill="#231F20" width="6" height="6"/>
	<rect x="156" y="99.059" fill="#414042" width="6" height="6"/>
	<rect x="138" y="99.059" fill="#231F20" width="6" height="6"/>
	<rect x="162" y="105.059" fill="#231F20" width="6" height="6"/>
	<rect x="162" y="99.059" fill="#231F20" width="6" height="6"/>
	<rect x="168" y="105.059" fill="#231F20" width="6" height="6"/>
	<rect x="156" y="111.047" fill="#6D6F72" width="6" height="6"/>
	<rect x="162" y="111.047" fill="#414042" width="6" height="6"/>
	<rect x="156" y="117.047" fill="#414042" width="6" height="6"/>
	<rect x="162" y="117.047" fill="#231F20" width="6" height="6"/>
	<rect x="168" y="123.023" fill="#BD9F71" width="6" height="6"/>
	<rect x="168" y="111.047" fill="#231F20" width="6" height="6"/>
	<rect x="126" y="93.059" fill="#231F20" width="6" height="6"/>
	<rect x="132" y="93.059" fill="#231F20" width="6" height="6"/>
	<rect x="144" y="93.059" fill="#414042" width="6" height="6"/>
	<rect x="150" y="93.059" fill="#231F20" width="6" height="6"/>
	<rect x="156" y="93.059" fill="#6D6F72" width="6" height="6"/>
	<rect x="138" y="93.059" fill="#231F20" width="6" height="6"/>
	<rect x="168" y="117.047" fill="#231F20" width="6" height="6"/>
	<rect x="174" y="135.012" fill="#AF865A" width="6" height="6"/>
	<rect x="174" y="129.035" fill="#BD9F71" width="6" height="6"/>
	<rect x="174" y="123.043" fill="#BD9F71" width="6" height="6"/>
	<rect x="168" y="140.996" fill="#AF865A" width="6" height="6"/>
</g>
</svg>
