<?xml version="1.0" encoding="utf-8"?>
<!-- Generator: Adobe Illustrator 16.0.0, SVG Export Plug-In . SVG Version: 6.00 Build 0)  -->
<!DOCTYPE svg PUBLIC "-//W3C//DTD SVG 1.1//EN" "http://www.w3.org/Graphics/SVG/1.1/DTD/svg11.dtd">
<svg version="1.1" id="Layer_1" xmlns="http://www.w3.org/2000/svg" xmlns:xlink="http://www.w3.org/1999/xlink" x="0px" y="0px"
	 width="300px" height="300px" viewBox="0 0 300 300" enable-background="new 0 0 300 300" xml:space="preserve">
<g>
	<rect x="108.748" y="86.318" fill="#EFD1B8" width="7.5" height="7.5"/>
	<rect x="116.248" y="86.318" fill="#EFD1B8" width="7.5" height="7.5"/>
	<rect x="116.248" y="78.809" fill="#AE9D85" width="7.5" height="7.5"/>
	<rect x="123.748" y="86.318" fill="#EFD1B8" width="7.5" height="7.5"/>
	<rect x="131.248" y="86.318" fill="#EFD1B8" width="7.5" height="7.5"/>
	<rect x="138.748" y="86.318" fill="#E5B29B" width="7.5" height="7.5"/>
	<rect x="146.248" y="86.318" fill="#E5B29B" width="7.5" height="7.5"/>
	<rect x="108.748" y="101.299" fill="#D7BFAA" width="7.5" height="7.5"/>
	<rect x="116.248" y="101.299" fill="#F7E0CF" width="7.5" height="7.5"/>
	<rect x="123.748" y="101.299" fill="#F7E0CF" width="7.5" height="7.5"/>
	<rect x="131.248" y="101.299" fill="#F7E0CF" width="7.5" height="7.5"/>
	<rect x="138.748" y="101.299" fill="#EFD1B8" width="7.5" height="7.5"/>
	<rect x="146.248" y="101.299" fill="#EFD1B8" width="7.5" height="7.5"/>
	<rect x="108.748" y="108.799" fill="#F7E0CF" width="7.5" height="7.5"/>
	<rect x="116.248" y="108.799" fill="#F7E0CF" width="7.5" height="7.5"/>
	<rect x="123.748" y="108.799" fill="#F7E0CF" width="7.5" height="7.5"/>
	<rect x="131.248" y="108.799" fill="#EFD1B8" width="7.5" height="7.5"/>
	<rect x="138.748" y="108.799" fill="#EFD1B8" width="7.5" height="7.5"/>
	<rect x="146.248" y="108.799" fill="#EFD1B8" width="7.5" height="7.5"/>
	<rect x="108.748" y="116.299" fill="#EFD1B8" width="7.5" height="7.5"/>
	<rect x="116.248" y="116.299" fill="#726658" width="7.5" height="7.5"/>
	<rect x="108.748" y="123.77" fill="#E5B29B" width="7.5" height="7.5"/>
	<rect x="116.248" y="123.77" fill="#6D808E" width="7.5" height="7.5"/>
	<rect x="108.748" y="131.26" fill="#E5B29B" width="7.5" height="7.5"/>
	<rect x="116.248" y="131.26" fill="#EFD1B8" width="7.5" height="7.5"/>
	<rect x="108.748" y="138.77" fill="#F7E0CF" width="7.5" height="7.5"/>
	<rect x="116.248" y="138.77" fill="#EFD1B8" width="7.5" height="7.5"/>
	<rect x="108.748" y="146.26" fill="#D7BFAA" width="7.5" height="7.5"/>
	<rect x="116.248" y="146.26" fill="#D7BFAA" width="7.5" height="7.5"/>
	<rect x="131.248" y="146.26" fill="#D7BFAA" width="7.5" height="7.5"/>
	<rect x="123.748" y="146.26" fill="#D7BFAA" width="7.5" height="7.5"/>
	<rect x="138.748" y="146.26" fill="#D7BFAA" width="7.5" height="7.5"/>
	<rect x="153.748" y="146.26" fill="#EFD1B8" width="7.5" height="7.5"/>
	<rect x="146.248" y="146.26" fill="#F7E0CF" width="7.5" height="7.5"/>
	<rect x="131.248" y="153.74" fill="#FFFFFF" width="7.5" height="7.5"/>
	<rect x="123.748" y="153.74" fill="#FFFFFF" width="7.5" height="7.5"/>
	<rect x="138.748" y="153.74" fill="#FFFFFF" width="7.5" height="7.5"/>
	<rect x="146.248" y="153.74" fill="#AD6A6D" width="7.5" height="7.5"/>
	<rect x="131.248" y="161.23" fill="#D28F8C" width="7.5" height="7.5"/>
	<rect x="123.748" y="161.23" fill="#D28F8C" width="7.5" height="7.5"/>
	<rect x="138.748" y="161.23" fill="#D28F8C" width="7.5" height="7.5"/>
	<rect x="146.248" y="161.23" fill="#D7BFAA" width="7.5" height="7.5"/>
	<rect x="131.248" y="168.73" fill="#D7BFAA" width="7.5" height="7.5"/>
	<rect x="123.748" y="168.73" fill="#D7BFAA" width="7.5" height="7.5"/>
	<rect x="138.748" y="168.73" fill="#D7BFAA" width="7.5" height="7.5"/>
	<rect x="146.248" y="168.73" fill="#D7BFAA" width="7.5" height="7.5"/>
	<rect x="153.748" y="168.73" fill="#D7BFAA" width="7.5" height="7.5"/>
	<rect x="138.748" y="176.191" fill="#E5B29B" width="7.5" height="7.5"/>
	<rect x="146.248" y="176.191" fill="#E5B29B" width="7.5" height="7.5"/>
	<rect x="153.748" y="176.191" fill="#E5B29B" width="7.5" height="7.5"/>
	<rect x="168.748" y="168.73" fill="#EFD1B8" width="7.5" height="7.5"/>
	<rect x="168.748" y="176.191" fill="#EFD1B8" width="7.5" height="7.5"/>
	<rect x="168.748" y="146.26" fill="#EFD1B8" width="7.5" height="7.5"/>
	<rect x="153.748" y="138.77" fill="#EFD1B8" width="7.5" height="7.5"/>
	<rect x="168.748" y="138.77" fill="#EFD1B8" width="7.5" height="7.5"/>
	<rect x="153.748" y="161.23" fill="#D7BFAA" width="7.5" height="7.5"/>
	<rect x="168.748" y="161.23" fill="#EFD1B8" width="7.5" height="7.5"/>
	<rect x="153.748" y="153.74" fill="#EFD1B8" width="7.5" height="7.5"/>
	<rect x="168.748" y="153.74" fill="#EFD1B8" width="7.5" height="7.5"/>
	<rect x="153.748" y="131.26" fill="#EFD1B8" width="7.5" height="7.5"/>
	<rect x="168.748" y="131.26" fill="#EFD1B8" width="7.5" height="7.5"/>
	<rect x="153.748" y="123.77" fill="#EFD1B8" width="7.5" height="7.5"/>
	<rect x="168.748" y="123.77" fill="#E5B29B" width="7.5" height="7.5"/>
	<rect x="176.248" y="131.26" fill="#EFD1B8" width="7.5" height="7.5"/>
	<rect x="176.248" y="123.77" fill="#EFD1B8" width="7.5" height="7.5"/>
	<rect x="123.748" y="116.299" fill="#726658" width="7.5" height="7.5"/>
	<rect x="131.248" y="116.299" fill="#F7E0CF" width="7.5" height="7.5"/>
	<rect x="138.748" y="116.299" fill="#EFD1B8" width="7.5" height="7.5"/>
	<rect x="146.248" y="116.299" fill="#EFD1B8" width="7.5" height="7.5"/>
	<rect x="123.748" y="123.77" fill="#FFFFFF" width="7.5" height="7.5"/>
	<rect x="131.248" y="123.77" fill="#D7BFAA" width="7.5" height="7.5"/>
	<rect x="138.748" y="123.77" fill="#EFD1B8" width="7.5" height="7.5"/>
	<rect x="146.248" y="123.77" fill="#EFD1B8" width="7.5" height="7.5"/>
	<rect x="123.748" y="131.26" fill="#F7E0CF" width="7.5" height="7.5"/>
	<rect x="131.248" y="131.26" fill="#F7E0CF" width="7.5" height="7.5"/>
	<rect x="138.748" y="131.26" fill="#EFD1B8" width="7.5" height="7.5"/>
	<rect x="146.248" y="131.26" fill="#EFD1B8" width="7.5" height="7.5"/>
	<rect x="123.748" y="138.76" fill="#F7E0CF" width="7.5" height="7.5"/>
	<rect x="131.248" y="138.76" fill="#F7E0CF" width="7.5" height="7.5"/>
	<rect x="138.748" y="138.76" fill="#F7E0CF" width="7.5" height="7.5"/>
	<rect x="146.248" y="138.76" fill="#EFD1B8" width="7.5" height="7.5"/>
	<rect x="153.748" y="101.299" fill="#58595B" width="7.5" height="7.5"/>
	<rect x="168.748" y="101.299" fill="#464749" width="7.5" height="7.5"/>
	<rect x="108.748" y="93.818" fill="#F7E0CF" width="7.5" height="7.5"/>
	<rect x="116.248" y="93.818" fill="#F7E0CF" width="7.5" height="7.5"/>
	<rect x="123.748" y="93.818" fill="#F7E0CF" width="7.5" height="7.5"/>
	<rect x="131.248" y="93.818" fill="#F7E0CF" width="7.5" height="7.5"/>
	<rect x="138.748" y="93.818" fill="#F7E0CF" width="7.5" height="7.5"/>
	<rect x="146.248" y="93.818" fill="#E5B29B" width="7.5" height="7.5"/>
	<rect x="153.748" y="93.818" fill="#58595B" width="7.5" height="7.5"/>
	<rect x="153.748" y="86.318" fill="#E5B29B" width="7.5" height="7.5"/>
	<rect x="168.748" y="93.818" fill="#726658" width="7.5" height="7.5"/>
	<rect x="168.748" y="86.318" fill="#231F20" width="7.5" height="7.5"/>
	<rect x="168.748" y="78.809" fill="#231F20" width="7.5" height="7.5"/>
	<rect x="176.248" y="93.818" fill="#231F20" width="7.5" height="7.5"/>
	<rect x="176.248" y="86.318" fill="#231F20" width="7.5" height="7.5"/>
	<rect x="123.748" y="78.818" fill="#9B8579" width="7.5" height="7.5"/>
	<rect x="131.248" y="78.818" fill="#58595B" width="7.5" height="7.5"/>
	<rect x="138.748" y="78.818" fill="#58595B" width="7.5" height="7.5"/>
	<rect x="146.248" y="78.818" fill="#58595B" width="7.5" height="7.5"/>
	<rect x="153.748" y="78.818" fill="#726658" width="7.5" height="7.5"/>
	<rect x="153.748" y="108.799" fill="#58595B" width="7.5" height="7.5"/>
	<rect x="146.248" y="108.799" fill="#EFD1B8" width="7.5" height="7.5"/>
	<rect x="153.748" y="123.77" fill="#EFD1B8" width="7.5" height="7.5"/>
	<rect x="168.748" y="108.799" fill="#F7E0CF" width="7.5" height="7.5"/>
	<rect x="153.748" y="116.299" fill="#EFD1B8" width="7.5" height="7.5"/>
	<rect x="168.748" y="116.299" fill="#E5B29B" width="7.5" height="7.5"/>
	<rect x="176.248" y="101.299" fill="#231F20" width="7.5" height="7.5"/>
	<rect x="176.248" y="108.799" fill="#F7E0CF" width="7.5" height="7.5"/>
	<rect x="176.248" y="116.299" fill="#F7E0CF" width="7.5" height="7.5"/>
	<rect x="101.248" y="138.73" fill="#EFD1B8" width="7.5" height="7.5"/>
	<rect x="93.752" y="138.73" fill="#EFD1B8" width="7.495" height="7.5"/>
	<rect x="101.248" y="131.23" fill="#EFD1B8" width="7.5" height="7.5"/>
	<rect x="101.248" y="123.77" fill="#EFD1B8" width="7.5" height="7.5"/>
	<rect x="138.748" y="183.682" fill="#EFD1B8" width="7.5" height="7.5"/>
	<rect x="146.248" y="183.682" fill="#F7E0CF" width="7.5" height="7.5"/>
	<rect x="153.748" y="183.682" fill="#EFD1B8" width="7.5" height="7.5"/>
	<rect x="138.748" y="191.191" fill="#EFD1B8" width="7.5" height="7.5"/>
	<rect x="146.248" y="191.191" fill="#EFD1B8" width="7.5" height="7.5"/>
	<rect x="176.248" y="183.691" fill="#C3D2E0" width="7.5" height="7.5"/>
	<rect x="168.748" y="191.191" fill="#C3D2E0" width="7.5" height="7.5"/>
	<rect x="168.748" y="183.691" fill="#EFD1B8" width="7.5" height="7.5"/>
	<rect x="153.748" y="191.191" fill="#EFD1B8" width="7.5" height="7.5"/>
	<rect x="131.248" y="191.191" fill="#C3D2E0" width="7.5" height="7.5"/>
	<rect x="123.748" y="191.191" fill="#C3D2E0" width="7.5" height="7.5"/>
	<rect x="131.248" y="183.691" fill="#C3D2E0" width="7.5" height="7.5"/>
	<rect x="176.248" y="191.191" fill="#C3D2E0" width="7.5" height="7.5"/>
	<rect x="183.748" y="191.191" fill="#C7E1F5" width="7.5" height="7.5"/>
	<rect x="191.248" y="191.191" fill="#C7E1F5" width="7.5" height="7.5"/>
	<rect x="138.748" y="206.191" fill="#C7E1F5" width="7.5" height="7.5"/>
	<rect x="146.248" y="206.191" fill="#913844" width="7.5" height="7.5"/>
	<rect x="168.748" y="206.191" fill="#C3D2E0" width="7.5" height="7.5"/>
	<rect x="153.748" y="206.191" fill="#C7E1F5" width="7.5" height="7.5"/>
	<rect x="131.248" y="206.191" fill="#C3D2E0" width="7.5" height="7.5"/>
	<rect x="131.248" y="213.691" fill="#C3D2E0" width="7.5" height="7.5"/>
	<rect x="123.748" y="206.191" fill="#C3D2E0" width="7.5" height="7.5"/>
	<rect x="116.248" y="206.191" fill="#C7E1F5" width="7.5" height="7.5"/>
	<rect x="176.248" y="206.191" fill="#C7E1F5" width="7.5" height="7.5"/>
	<rect x="183.748" y="206.191" fill="#C7E1F5" width="7.5" height="7.5"/>
	<rect x="191.248" y="206.191" fill="#C7E1F5" width="7.5" height="7.5"/>
	<rect x="198.748" y="206.191" fill="#C7E1F5" width="7.5" height="7.5"/>
	<rect x="138.748" y="221.191" fill="#C7E1F5" width="7.5" height="7.5"/>
	<rect x="146.248" y="221.191" fill="#913844" width="7.5" height="7.5"/>
	<rect x="168.748" y="221.191" fill="#C7E1F5" width="7.5" height="7.5"/>
	<rect x="153.748" y="221.191" fill="#C7E1F5" width="7.5" height="7.5"/>
	<rect x="131.248" y="221.191" fill="#C7E1F5" width="7.5" height="7.5"/>
	<rect x="123.748" y="221.191" fill="#C3D2E0" width="7.5" height="7.5"/>
	<rect x="116.248" y="221.191" fill="#C7E1F5" width="7.5" height="7.5"/>
	<rect x="176.248" y="221.191" fill="#C7E1F5" width="7.5" height="7.5"/>
	<rect x="183.748" y="221.191" fill="#C3D2E0" width="7.5" height="7.5"/>
	<rect x="191.248" y="221.191" fill="#C7E1F5" width="7.5" height="7.5"/>
	<rect x="198.748" y="221.191" fill="#C7E1F5" width="7.5" height="7.5"/>
	<rect x="138.748" y="198.691" fill="#913844" width="7.5" height="7.5"/>
	<rect x="146.248" y="198.691" fill="#A97C50" width="7.5" height="7.5"/>
	<rect x="168.748" y="198.691" fill="#C3D2E0" width="7.5" height="7.5"/>
	<rect x="153.748" y="198.691" fill="#913844" width="7.5" height="7.5"/>
	<rect x="131.248" y="198.691" fill="#C3D2E0" width="7.5" height="7.5"/>
	<rect x="123.748" y="198.691" fill="#C3D2E0" width="7.5" height="7.5"/>
	<rect x="116.248" y="198.691" fill="#C7E1F5" width="7.5" height="7.5"/>
	<rect x="176.248" y="198.691" fill="#C3D2E0" width="7.5" height="7.5"/>
	<rect x="183.748" y="198.691" fill="#C7E1F5" width="7.5" height="7.5"/>
	<rect x="191.248" y="198.691" fill="#C7E1F5" width="7.5" height="7.5"/>
	<rect x="198.748" y="198.691" fill="#C7E1F5" width="7.5" height="7.5"/>
	<rect x="138.748" y="213.691" fill="#C7E1F5" width="7.5" height="7.5"/>
	<rect x="146.248" y="213.691" fill="#A97C50" width="7.5" height="7.5"/>
	<rect x="168.748" y="213.691" fill="#C7E1F5" width="7.5" height="7.5"/>
	<rect x="161.248" y="168.73" fill="#E5B29B" width="7.5" height="7.5"/>
	<rect x="161.248" y="176.191" fill="#E5B29B" width="7.5" height="7.5"/>
	<rect x="161.248" y="146.26" fill="#EFD1B8" width="7.5" height="7.5"/>
	<rect x="161.248" y="138.77" fill="#D7BFAA" width="7.5" height="7.5"/>
	<rect x="161.248" y="161.23" fill="#E5B29B" width="7.5" height="7.5"/>
	<rect x="161.248" y="153.74" fill="#EFD1B8" width="7.5" height="7.5"/>
	<rect x="161.248" y="131.26" fill="#D7BFAA" width="7.5" height="7.5"/>
	<rect x="161.248" y="123.77" fill="#EFD1B8" width="7.5" height="7.5"/>
	<rect x="161.248" y="101.299" fill="#58595B" width="7.5" height="7.5"/>
	<rect x="161.248" y="93.818" fill="#464749" width="7.5" height="7.5"/>
	<rect x="161.248" y="86.318" fill="#58595B" width="7.5" height="7.5"/>
	<rect x="161.248" y="78.809" fill="#231F20" width="7.5" height="7.5"/>
	<rect x="123.748" y="71.309" fill="#AE9D85" width="7.5" height="7.5"/>
	<rect x="131.248" y="71.309" fill="#726658" width="7.5" height="7.5"/>
	<rect x="138.748" y="71.309" fill="#58595B" width="7.5" height="7.5"/>
	<rect x="146.248" y="71.309" fill="#231F20" width="7.5" height="7.5"/>
	<rect x="153.748" y="71.309" fill="#231F20" width="7.5" height="7.5"/>
	<rect x="161.248" y="71.309" fill="#231F20" width="7.5" height="7.5"/>
	<rect x="161.248" y="108.799" fill="#58595B" width="7.5" height="7.5"/>
	<rect x="161.248" y="116.299" fill="#58595B" width="7.5" height="7.5"/>
	<rect x="161.248" y="191.191" fill="#C3D2E0" width="7.5" height="7.5"/>
	<rect x="161.248" y="183.691" fill="#EFD1B8" width="7.5" height="7.5"/>
	<rect x="161.248" y="206.191" fill="#C3D2E0" width="7.5" height="7.5"/>
	<rect x="161.248" y="221.191" fill="#C7E1F5" width="7.5" height="7.5"/>
	<rect x="161.248" y="198.691" fill="#C3D2E0" width="7.5" height="7.5"/>
	<rect x="161.248" y="213.691" fill="#C3D2E0" width="7.5" height="7.5"/>
	<rect x="153.748" y="213.691" fill="#C7E1F5" width="7.5" height="7.5"/>
	<rect x="131.248" y="213.691" fill="#C3D2E0" width="7.5" height="7.5"/>
	<rect x="123.748" y="213.691" fill="#C7E1F5" width="7.5" height="7.5"/>
	<rect x="116.248" y="213.691" fill="#C7E1F5" width="7.5" height="7.5"/>
	<rect x="108.748" y="206.191" fill="#C7E1F5" width="7.5" height="7.5"/>
	<rect x="108.748" y="221.191" fill="#C7E1F5" width="7.5" height="7.5"/>
	<rect x="108.748" y="213.691" fill="#C7E1F5" width="7.5" height="7.5"/>
	<rect x="176.248" y="213.691" fill="#C7E1F5" width="7.5" height="7.5"/>
	<rect x="183.748" y="213.691" fill="#C7E1F5" width="7.5" height="7.5"/>
	<rect x="191.248" y="213.691" fill="#C7E1F5" width="7.5" height="7.5"/>
	<rect x="198.748" y="213.691" fill="#C7E1F5" width="7.5" height="7.5"/>
</g>
</svg>
