<?xml version="1.0" encoding="utf-8"?>
<!-- Generator: Adobe Illustrator 16.0.0, SVG Export Plug-In . SVG Version: 6.00 Build 0)  -->
<!DOCTYPE svg PUBLIC "-//W3C//DTD SVG 1.1//EN" "http://www.w3.org/Graphics/SVG/1.1/DTD/svg11.dtd">
<svg version="1.1" id="Layer_1" xmlns="http://www.w3.org/2000/svg" xmlns:xlink="http://www.w3.org/1999/xlink" x="0px" y="0px"
	 width="300px" height="300px" viewBox="0 0 300 300" enable-background="new 0 0 300 300" xml:space="preserve">
<g>
	<rect x="101.25" y="131.309" fill="#EFC8A6" width="7.5" height="7.5"/>
	<rect x="93.75" y="131.309" fill="#F7E0CF" width="7.5" height="7.5"/>
	<rect x="101.25" y="123.809" fill="#EFC8A6" width="7.5" height="7.5"/>
	<rect x="131.25" y="206.211" fill="#EFC8A6" width="7.5" height="7.5"/>
	<rect x="138.75" y="206.211" fill="#EFC8A6" width="7.5" height="7.5"/>
	<rect x="153.75" y="206.211" fill="#603913" width="7.5" height="7.5"/>
	<rect x="146.25" y="206.211" fill="#EFC8A6" width="7.5" height="7.5"/>
	<rect x="123.75" y="206.211" fill="#231F20" width="7.5" height="7.5"/>
	<rect x="116.25" y="206.211" fill="#3C2415" width="7.5" height="7.5"/>
	<rect x="108.75" y="206.211" fill="#231F20" width="7.5" height="7.5"/>
	<rect x="161.25" y="206.211" fill="#231F20" width="7.5" height="7.5"/>
	<rect x="168.75" y="206.211" fill="#231F20" width="7.5" height="7.5"/>
	<rect x="183.75" y="206.211" fill="#323133" width="7.5" height="7.5"/>
	<rect x="191.25" y="206.211" fill="#323133" width="7.5" height="7.5"/>
	<rect x="131.25" y="221.211" fill="#323133" width="7.5" height="7.5"/>
	<rect x="138.75" y="221.211" fill="#323133" width="7.5" height="7.5"/>
	<rect x="153.75" y="221.211" fill="#323133" width="7.5" height="7.5"/>
	<rect x="146.25" y="221.211" fill="#323133" width="7.5" height="7.5"/>
	<rect x="123.75" y="221.211" fill="#323133" width="7.5" height="7.5"/>
	<rect x="116.25" y="221.211" fill="#323133" width="7.5" height="7.5"/>
	<rect x="108.75" y="221.211" fill="#231F20" width="7.5" height="7.5"/>
	<rect x="161.25" y="221.211" fill="#323133" width="7.5" height="7.5"/>
	<rect x="168.75" y="221.211" fill="#323133" width="7.5" height="7.5"/>
	<rect x="183.75" y="221.211" fill="#323133" width="7.5" height="7.5"/>
	<rect x="191.25" y="221.211" fill="#323133" width="7.5" height="7.5"/>
	<rect x="131.25" y="198.711" fill="#EFC8A6" width="7.5" height="7.5"/>
	<rect x="138.75" y="198.711" fill="#E5AC81" width="7.5" height="7.5"/>
	<rect x="153.75" y="198.711" fill="#3C2415" width="7.5" height="7.5"/>
	<rect x="146.25" y="198.721" fill="#EFC8A6" width="7.5" height="7.5"/>
	<rect x="138.75" y="191.211" fill="#EFC8A6" width="7.5" height="7.5"/>
	<rect x="146.25" y="190.967" fill="#231F20" width="7.5" height="7.5"/>
	<rect x="123.75" y="198.711" fill="#EFC8A6" width="7.5" height="7.5"/>
	<rect x="108.75" y="198.711" fill="#6E3E31" width="7.5" height="7.5"/>
	<rect x="161.25" y="198.711" fill="#42607E" width="7.5" height="7.5"/>
	<rect x="168.75" y="198.711" fill="#3C2415" width="7.5" height="7.5"/>
	<rect x="183.75" y="198.711" fill="#323133" width="7.5" height="7.5"/>
	<rect x="191.25" y="198.711" fill="#323133" width="7.5" height="7.5"/>
	<rect x="108.75" y="191.279" fill="#231F20" width="7.5" height="7.5"/>
	<rect x="131.25" y="213.711" fill="#231F20" width="7.5" height="7.5"/>
	<rect x="138.75" y="213.711" fill="#EFC8A6" width="7.5" height="7.5"/>
	<rect x="153.75" y="213.711" fill="#231F20" width="7.5" height="7.5"/>
	<rect x="146.25" y="213.711" fill="#231F20" width="7.5" height="7.5"/>
	<rect x="123.75" y="213.711" fill="#323133" width="7.5" height="7.5"/>
	<rect x="116.25" y="213.711" fill="#323133" width="7.5" height="7.5"/>
	<rect x="108.75" y="213.711" fill="#323133" width="7.5" height="7.5"/>
	<rect x="101.25" y="206.211" fill="#323133" width="7.5" height="7.5"/>
	<rect x="101.25" y="221.211" fill="#323133" width="7.5" height="7.5"/>
	<rect x="101.25" y="198.711" fill="#323133" width="7.5" height="7.5"/>
	<rect x="101.25" y="213.711" fill="#323133" width="7.5" height="7.5"/>
	<rect x="93.75" y="206.211" fill="#323133" width="7.5" height="7.5"/>
	<rect x="93.75" y="221.211" fill="#323133" width="7.5" height="7.5"/>
	<rect x="93.75" y="213.711" fill="#323133" width="7.5" height="7.5"/>
	<rect x="161.25" y="213.711" fill="#8B5E3C" width="7.5" height="7.5"/>
	<rect x="168.75" y="213.711" fill="#323133" width="7.5" height="7.5"/>
	<rect x="183.75" y="213.711" fill="#323133" width="7.5" height="7.5"/>
	<rect x="191.25" y="213.711" fill="#323133" width="7.5" height="7.5"/>
	<rect x="198.75" y="206.211" fill="#323133" width="7.5" height="7.5"/>
	<rect x="198.75" y="221.211" fill="#323133" width="7.5" height="7.5"/>
	<rect x="198.75" y="213.711" fill="#323133" width="7.5" height="7.5"/>
	<rect x="108.75" y="93.789" fill="#EFC8A6" width="7.5" height="7.5"/>
	<rect x="116.25" y="93.789" fill="#EFC8A6" width="7.5" height="7.5"/>
	<rect x="123.75" y="93.789" fill="#EFC8A6" width="7.5" height="7.5"/>
	<rect x="131.25" y="93.789" fill="#EFC8A6" width="7.5" height="7.5"/>
	<rect x="138.75" y="93.789" fill="#8B5E3C" width="7.5" height="7.5"/>
	<rect x="108.75" y="101.289" fill="#EFC8A6" width="7.5" height="7.5"/>
	<rect x="116.25" y="101.289" fill="#F7E0CF" width="7.5" height="7.5"/>
	<rect x="123.75" y="101.289" fill="#EFCFC0" width="7.5" height="7.5"/>
	<rect x="131.25" y="101.289" fill="#EFC8A6" width="7.5" height="7.5"/>
	<rect x="138.75" y="101.289" fill="#3C2415" width="7.5" height="7.5"/>
	<rect x="108.75" y="108.789" fill="#EFC8A6" width="7.5" height="7.5"/>
	<rect x="108.75" y="116.26" fill="#F7E0CF" width="7.5" height="7.5"/>
	<rect x="108.75" y="123.75" fill="#F7E0CF" width="7.5" height="7.5"/>
	<rect x="108.75" y="131.26" fill="#EFC8A6" width="7.5" height="7.5"/>
	<rect x="108.75" y="138.75" fill="#EFCFC0" width="7.5" height="7.5"/>
	<rect x="123.75" y="138.75" fill="#EFC8A6" width="7.5" height="7.5"/>
	<rect x="116.25" y="138.75" fill="#EFCFC0" width="7.5" height="7.5"/>
	<rect x="131.25" y="138.75" fill="#E3A193" width="7.5" height="7.5"/>
	<rect x="146.25" y="138.75" fill="#EFC8A6" width="7.5" height="7.5"/>
	<rect x="138.75" y="138.75" fill="#E5B29B" width="7.5" height="7.5"/>
	<rect x="123.75" y="146.23" fill="#FFFFFF" width="7.5" height="7.5"/>
	<rect x="116.25" y="146.23" fill="#FFFFFF" width="7.5" height="7.5"/>
	<rect x="131.25" y="146.23" fill="#AD6A6D" width="7.5" height="7.5"/>
	<rect x="138.75" y="146.23" fill="#E5AC81" width="7.5" height="7.5"/>
	<rect x="123.75" y="153.721" fill="#AD6A6D" width="7.5" height="7.49"/>
	<rect x="116.25" y="153.721" fill="#AD6A6D" width="7.5" height="7.49"/>
	<rect x="131.25" y="153.721" fill="#EFC8A6" width="7.5" height="7.49"/>
	<rect x="138.75" y="153.721" fill="#EFC8A6" width="7.5" height="7.49"/>
	<rect x="123.75" y="161.211" fill="#E5B29B" width="7.5" height="7.5"/>
	<rect x="116.25" y="161.211" fill="#E5B29B" width="7.5" height="7.5"/>
	<rect x="131.25" y="161.211" fill="#EFC8A6" width="7.5" height="7.5"/>
	<rect x="123.75" y="168.711" fill="#EFC8A6" width="7.5" height="7.5"/>
	<rect x="131.25" y="168.711" fill="#EFC8A6" width="7.5" height="7.5"/>
	<rect x="131.25" y="176.211" fill="#E5AC81" width="7.5" height="7.5"/>
	<rect x="138.75" y="168.711" fill="#E5AC81" width="7.5" height="7.5"/>
	<rect x="138.75" y="161.211" fill="#EFC8A6" width="7.5" height="7.5"/>
	<rect x="146.25" y="161.211" fill="#EFC8A6" width="7.5" height="7.5"/>
	<rect x="138.75" y="176.211" fill="#FFFFFF" width="7.5" height="7.5"/>
	<rect x="153.75" y="176.211" fill="#231F20" width="7.5" height="7.5"/>
	<rect x="146.25" y="176.211" fill="#3C2415" width="7.5" height="7.5"/>
	<rect x="138.75" y="176.211" fill="#EFC8A6" width="7.5" height="7.5"/>
	<rect x="138.75" y="183.711" fill="#EFC8A6" width="7.5" height="7.5"/>
	<rect x="146.25" y="183.711" fill="#3C2415" width="7.5" height="7.5"/>
	<rect x="161.25" y="176.211" fill="#231F20" width="7.5" height="7.5"/>
	<rect x="131.25" y="183.711" fill="#EFC8A6" width="7.5" height="7.5"/>
	<rect x="153.75" y="183.711" fill="#231F20" width="7.5" height="7.5"/>
	<rect x="153.75" y="191.211" fill="#3C2415" width="7.5" height="7.5"/>
	<rect x="131.25" y="191.211" fill="#E5AC81" width="7.5" height="7.5"/>
	<rect x="153.75" y="138.75" fill="#3C2415" width="7.5" height="7.5"/>
	<rect x="146.25" y="131.26" fill="#EFC8A6" width="7.5" height="7.5"/>
	<rect x="153.75" y="131.26" fill="#5F3529" width="7.5" height="7.5"/>
	<rect x="146.25" y="153.721" fill="#603913" width="7.5" height="7.49"/>
	<rect x="153.75" y="153.721" fill="#3C2415" width="7.5" height="7.49"/>
	<rect x="146.25" y="146.23" fill="#603913" width="7.5" height="7.5"/>
	<rect x="153.75" y="146.23" fill="#3C2415" width="7.5" height="7.5"/>
	<rect x="146.25" y="123.75" fill="#EFC8A6" width="7.5" height="7.5"/>
	<rect x="153.75" y="123.75" fill="#3C2415" width="7.5" height="7.5"/>
	<rect x="146.25" y="116.26" fill="#3C2415" width="7.5" height="7.5"/>
	<rect x="153.75" y="116.26" fill="#8B5E3C" width="7.5" height="7.5"/>
	<rect x="161.25" y="123.75" fill="#8B5E3C" width="7.5" height="7.5"/>
	<rect x="161.25" y="116.26" fill="#6E3E31" width="7.5" height="7.5"/>
	<rect x="116.25" y="108.779" fill="#726658" width="7.5" height="7.5"/>
	<rect x="123.75" y="108.779" fill="#726658" width="7.5" height="7.5"/>
	<rect x="131.25" y="108.76" fill="#EFCFC0" width="7.5" height="7.5"/>
	<rect x="138.75" y="108.789" fill="#EFC8A6" width="7.5" height="7.5"/>
	<rect x="116.25" y="116.26" fill="#EFCFC0" width="7.5" height="7.5"/>
	<rect x="123.75" y="116.26" fill="#EFCFC0" width="7.5" height="7.5"/>
	<rect x="131.25" y="116.25" fill="#726658" width="7.5" height="7.5"/>
	<rect x="138.75" y="116.23" fill="#EFC8A6" width="7.5" height="7.5"/>
	<rect x="116.25" y="123.75" fill="#7F95A5" width="7.5" height="7.5"/>
	<rect x="123.75" y="123.75" fill="#FFFFFF" width="7.5" height="7.5"/>
	<rect x="116.25" y="131.25" fill="#C8B19B" width="7.5" height="7.5"/>
	<rect x="123.75" y="131.25" fill="#E3A193" width="7.5" height="7.5"/>
	<rect x="131.25" y="123.75" fill="#EFC8A6" width="7.5" height="7.5"/>
	<rect x="138.75" y="123.75" fill="#EFC8A6" width="7.5" height="7.5"/>
	<rect x="131.25" y="131.25" fill="#E5B29B" width="7.5" height="7.5"/>
	<rect x="138.75" y="131.25" fill="#EFC8A6" width="7.5" height="7.5"/>
	<rect x="146.25" y="93.789" fill="#6E3E31" width="7.5" height="7.5"/>
	<rect x="153.75" y="93.789" fill="#8B5E3C" width="7.5" height="7.5"/>
	<rect x="146.25" y="78.809" fill="#603913" width="7.5" height="7.5"/>
	<rect x="153.75" y="78.809" fill="#3C2415" width="7.5" height="7.5"/>
	<rect x="153.75" y="86.309" fill="#603913" width="7.5" height="7.5"/>
	<rect x="161.25" y="86.309" fill="#3C2415" width="7.5" height="7.5"/>
	<rect x="161.25" y="78.809" fill="#3C2415" width="7.5" height="7.5"/>
	<rect x="108.75" y="86.309" fill="#8B5E3C" width="7.5" height="7.5"/>
	<rect x="108.75" y="78.809" fill="#3C2415" width="7.5" height="7.5"/>
	<rect x="116.25" y="71.289" fill="#3C2415" width="7.5" height="7.5"/>
	<rect x="116.25" y="86.309" fill="#3C2415" width="7.5" height="7.5"/>
	<rect x="123.75" y="86.309" fill="#3C2415" width="7.5" height="7.5"/>
	<rect x="131.25" y="86.309" fill="#3C2415" width="7.5" height="7.5"/>
	<rect x="138.75" y="86.309" fill="#8B5E3C" width="7.5" height="7.5"/>
	<rect x="116.25" y="78.809" fill="#8B5E3C" width="7.5" height="7.5"/>
	<rect x="123.75" y="78.809" fill="#8B5E3C" width="7.5" height="7.5"/>
	<rect x="131.25" y="78.809" fill="#8B5E3C" width="7.5" height="7.5"/>
	<rect x="138.75" y="78.809" fill="#3C2415" width="7.5" height="7.5"/>
	<rect x="123.75" y="71.289" fill="#5F3529" width="7.5" height="7.5"/>
	<rect x="131.25" y="71.289" fill="#8B5E3C" width="7.5" height="7.5"/>
	<rect x="138.75" y="71.289" fill="#603913" width="7.5" height="7.5"/>
	<rect x="146.25" y="71.289" fill="#3C2415" width="7.5" height="7.5"/>
	<rect x="146.25" y="86.309" fill="#8B5E3C" width="7.5" height="7.5"/>
	<rect x="146.25" y="101.289" fill="#8B5E3C" width="7.5" height="7.5"/>
	<rect x="146.25" y="116.26" fill="#3C2415" width="7.5" height="7.5"/>
	<rect x="146.25" y="123.75" fill="#EFC8A6" width="7.5" height="7.5"/>
	<rect x="153.75" y="101.289" fill="#3C2415" width="7.5" height="7.5"/>
	<rect x="161.25" y="101.289" fill="#8B5E3C" width="7.5" height="7.5"/>
	<rect x="161.25" y="93.789" fill="#603913" width="7.5" height="7.5"/>
	<rect x="168.75" y="93.789" fill="#3C2415" width="7.5" height="7.5"/>
	<rect x="168.75" y="86.24" fill="#3C2415" width="7.5" height="7.5"/>
	<rect x="161.25" y="108.789" fill="#8B5E3C" width="7.5" height="7.5"/>
	<rect x="168.75" y="108.789" fill="#3C2415" width="7.5" height="7.5"/>
	<rect x="168.75" y="101.289" fill="#6E3E31" width="7.5" height="7.5"/>
	<rect x="168.75" y="116.289" fill="#3C2415" width="7.5" height="7.5"/>
	<rect x="168.75" y="123.75" fill="#6E3E31" width="7.5" height="7.5"/>
	<rect x="168.75" y="138.76" fill="#3C2415" width="7.5" height="7.5"/>
	<rect x="168.75" y="131.26" fill="#3C2415" width="7.5" height="7.5"/>
	<rect x="168.75" y="146.26" fill="#8B5E3C" width="7.5" height="7.5"/>
	<rect x="176.25" y="116.289" fill="#6E3E31" width="7.5" height="7.5"/>
	<rect x="176.25" y="123.75" fill="#3C2415" width="7.5" height="7.5"/>
	<rect x="176.25" y="131.26" fill="#3C2415" width="7.5" height="7.5"/>
	<rect x="176.25" y="138.76" fill="#6E3E31" width="7.5" height="7.5"/>
	<rect x="176.25" y="146.26" fill="#3C2415" width="7.5" height="7.5"/>
	<rect x="161.25" y="138.76" fill="#8B5E3C" width="7.5" height="7.5"/>
	<rect x="161.25" y="131.26" fill="#8B5E3C" width="7.5" height="7.5"/>
	<rect x="161.25" y="146.26" fill="#3C2415" width="7.5" height="7.5"/>
	<rect x="168.75" y="153.721" fill="#3C2415" width="7.5" height="7.49"/>
	<rect x="176.25" y="153.721" fill="#8B5E3C" width="7.5" height="7.49"/>
	<rect x="161.25" y="153.721" fill="#5F3529" width="7.5" height="7.49"/>
	<rect x="168.75" y="161.211" fill="#5F3529" width="7.5" height="7.5"/>
	<rect x="176.25" y="161.211" fill="#8B5E3C" width="7.5" height="7.5"/>
	<rect x="161.25" y="183.711" fill="#3C2415" width="7.5" height="7.5"/>
	<rect x="161.25" y="191.211" fill="#6E3E31" width="7.5" height="7.5"/>
	<rect x="161.25" y="198.711" fill="#EFC8A6" width="7.5" height="7.5"/>
	<rect x="168.75" y="176.211" fill="#8B5E3C" width="7.5" height="7.5"/>
	<rect x="176.25" y="168.711" fill="#3C2415" width="7.5" height="7.5"/>
	<rect x="168.75" y="183.711" fill="#3C2415" width="7.5" height="7.5"/>
	<rect x="176.25" y="176.211" fill="#5F3529" width="7.5" height="7.5"/>
	<rect x="176.25" y="183.711" fill="#8B5E3C" width="7.5" height="7.5"/>
	<rect x="183.75" y="146.26" fill="#3C2415" width="7.5" height="7.5"/>
	<rect x="183.75" y="153.721" fill="#6E3E31" width="7.5" height="7.49"/>
	<rect x="183.75" y="161.211" fill="#3C2415" width="7.5" height="7.5"/>
	<rect x="183.75" y="168.662" fill="#3C2415" width="7.5" height="7.5"/>
	<rect x="183.75" y="191.211" fill="#6E3E31" width="7.5" height="7.5"/>
	<rect x="176.25" y="206.211" fill="#323133" width="7.5" height="7.5"/>
	<rect x="176.25" y="221.211" fill="#231F20" width="7.5" height="7.5"/>
	<rect x="176.25" y="198.711" fill="#231F20" width="7.5" height="7.5"/>
	<rect x="176.25" y="213.711" fill="#323133" width="7.5" height="7.5"/>
	<rect x="176.25" y="191.211" fill="#231F20" width="7.5" height="7.5"/>
	<rect x="168.75" y="191.211" fill="#EFC8A6" width="7.5" height="7.5"/>
	<rect x="123.75" y="176.211" fill="#3C2415" width="7.5" height="7.5"/>
	<rect x="123.75" y="183.711" fill="#3C2415" width="7.5" height="7.5"/>
	<rect x="116.25" y="191.211" fill="#3C2415" width="7.5" height="7.5"/>
	<rect x="116.25" y="183.711" fill="#603913" width="7.5" height="7.5"/>
	<rect x="123.75" y="191.211" fill="#603913" width="7.5" height="7.5"/>
	<rect x="116.25" y="198.711" fill="#3C2415" width="7.5" height="7.5"/>
	<rect x="161.25" y="161.211" fill="#231F20" width="7.5" height="7.5"/>
	<rect x="168.75" y="168.711" fill="#231F20" width="7.5" height="7.5"/>
	<rect x="161.25" y="168.711" fill="#231F20" width="7.5" height="7.5"/>
	<rect x="153.75" y="161.211" fill="#231F20" width="7.5" height="7.5"/>
	<rect x="153.75" y="168.711" fill="#603913" width="7.5" height="7.5"/>
	<rect x="146.25" y="168.711" fill="#3C2415" width="7.5" height="7.5"/>
	<rect x="161.25" y="176.211" fill="#231F20" width="7.5" height="7.5"/>
	<rect x="146.25" y="108.789" fill="#8B5E3C" width="7.5" height="7.5"/>
	<rect x="153.75" y="108.789" fill="#6E3E31" width="7.5" height="7.5"/>
</g>
</svg>
