<?xml version="1.0" encoding="utf-8"?>
<!-- Generator: Adobe Illustrator 16.0.0, SVG Export Plug-In . SVG Version: 6.00 Build 0)  -->
<!DOCTYPE svg PUBLIC "-//W3C//DTD SVG 1.1//EN" "http://www.w3.org/Graphics/SVG/1.1/DTD/svg11.dtd">
<svg version="1.1" id="Layer_1" xmlns="http://www.w3.org/2000/svg" xmlns:xlink="http://www.w3.org/1999/xlink" x="0px" y="0px"
	 width="300px" height="300px" viewBox="0 0 300 300" enable-background="new 0 0 300 300" xml:space="preserve">
<g>
	<rect x="131.25" y="202.451" fill="#FAC805" width="7.5" height="7.5"/>
	<rect x="138.75" y="202.451" fill="#FAC805" width="7.5" height="7.5"/>
	<rect x="153.75" y="202.451" fill="#3C2415" width="7.5" height="7.5"/>
	<rect x="146.25" y="202.451" fill="#FAC805" width="7.5" height="7.5"/>
	<rect x="123.75" y="202.451" fill="#FAC805" width="7.5" height="7.5"/>
	<rect x="116.25" y="202.451" fill="#FAC805" width="7.5" height="7.5"/>
	<rect x="108.75" y="202.451" fill="#FAC805" width="7.5" height="7.5"/>
	<rect x="161.25" y="202.451" fill="#231F20" width="7.5" height="7.5"/>
	<rect x="168.75" y="202.451" fill="#3C2415" width="7.5" height="7.5"/>
	<rect x="183.75" y="202.451" fill="#F7E0CF" width="7.5" height="7.5"/>
	<rect x="191.25" y="202.451" fill="#F7E0CF" width="7.5" height="7.5"/>
	<rect x="131.25" y="217.451" fill="#FAC805" width="7.5" height="7.5"/>
	<rect x="138.75" y="217.451" fill="#FAC805" width="7.5" height="7.5"/>
	<rect x="153.75" y="217.451" fill="#FAC805" width="7.5" height="7.5"/>
	<rect x="146.25" y="217.451" fill="#FAC805" width="7.5" height="7.5"/>
	<rect x="123.75" y="217.451" fill="#FAC805" width="7.5" height="7.5"/>
	<rect x="116.25" y="217.451" fill="#FAC805" width="7.5" height="7.5"/>
	<rect x="108.75" y="217.451" fill="#F7E0CF" width="7.5" height="7.5"/>
	<rect x="161.25" y="217.451" fill="#FAC805" width="7.5" height="7.5"/>
	<rect x="168.75" y="217.451" fill="#FAC805" width="7.5" height="7.5"/>
	<rect x="183.75" y="217.451" fill="#F7E0CF" width="7.5" height="7.5"/>
	<rect x="191.25" y="217.451" fill="#F7E0CF" width="7.5" height="7.5"/>
	<rect x="131.25" y="194.951" fill="#F7E0CF" width="7.5" height="7.5"/>
	<rect x="138.75" y="194.951" fill="#E3C680" width="7.5" height="7.5"/>
	<rect x="153.75" y="194.951" fill="#231F20" width="7.5" height="7.5"/>
	<rect x="146.25" y="194.961" fill="#F7E0CF" width="7.5" height="7.5"/>
	<rect x="138.75" y="187.451" fill="#F7E0CF" width="7.5" height="7.5"/>
	<rect x="146.25" y="187.207" fill="#E3C680" width="7.5" height="7.5"/>
	<rect x="123.75" y="194.951" fill="#F7E0CF" width="7.5" height="7.5"/>
	<rect x="108.75" y="194.951" fill="#FAC805" width="7.5" height="7.5"/>
	<rect x="161.25" y="194.951" fill="#42607E" width="7.5" height="7.5"/>
	<rect x="168.75" y="194.951" fill="#3C2415" width="7.5" height="7.5"/>
	<rect x="183.75" y="194.951" fill="#FAC805" width="7.5" height="7.5"/>
	<rect x="191.25" y="194.951" fill="#EEE3E0" width="7.5" height="7.5"/>
	<rect x="108.75" y="187.52" fill="#FAC805" width="7.5" height="7.5"/>
	<rect x="131.25" y="209.951" fill="#FAC805" width="7.5" height="7.5"/>
	<rect x="138.75" y="209.951" fill="#FAC805" width="7.5" height="7.5"/>
	<rect x="153.75" y="209.951" fill="#FAC805" width="7.5" height="7.5"/>
	<rect x="146.25" y="209.951" fill="#FAC805" width="7.5" height="7.5"/>
	<rect x="123.75" y="209.951" fill="#FAC805" width="7.5" height="7.5"/>
	<rect x="116.25" y="209.951" fill="#FAC805" width="7.5" height="7.5"/>
	<rect x="108.75" y="209.951" fill="#F7E0CF" width="7.5" height="7.5"/>
	<rect x="101.25" y="202.451" fill="#F7E0CF" width="7.5" height="7.5"/>
	<rect x="101.25" y="217.451" fill="#F7E0CF" width="7.5" height="7.5"/>
	<rect x="101.25" y="194.951" fill="#EEE3E0" width="7.5" height="7.5"/>
	<rect x="101.25" y="187.451" fill="#EEE3E0" width="7.5" height="7.5"/>
	<rect x="101.25" y="209.951" fill="#F7E0CF" width="7.5" height="7.5"/>
	<rect x="161.25" y="209.951" fill="#231F20" width="7.5" height="7.5"/>
	<rect x="168.75" y="209.951" fill="#5F3529" width="7.5" height="7.5"/>
	<rect x="183.75" y="209.951" fill="#F7E0CF" width="7.5" height="7.5"/>
	<rect x="191.25" y="209.951" fill="#F7E0CF" width="7.5" height="7.5"/>
	<rect x="101.25" y="90.029" fill="#3C2415" width="7.5" height="7.5"/>
	<rect x="101.25" y="97.529" fill="#3C2415" width="7.5" height="7.5"/>
	<rect x="108.75" y="90.029" fill="#231F20" width="7.5" height="7.5"/>
	<rect x="116.25" y="90.029" fill="#231F20" width="7.5" height="7.5"/>
	<rect x="123.75" y="90.029" fill="#F7E0CF" width="7.5" height="7.5"/>
	<rect x="131.25" y="90.029" fill="#F7E0CF" width="7.5" height="7.5"/>
	<rect x="138.75" y="90.029" fill="#3C2415" width="7.5" height="7.5"/>
	<rect x="108.75" y="97.529" fill="#EEE3E0" width="7.5" height="7.5"/>
	<rect x="116.25" y="97.529" fill="#F7E0CF" width="7.5" height="7.5"/>
	<rect x="123.75" y="97.529" fill="#F7E0CF" width="7.5" height="7.5"/>
	<rect x="131.25" y="97.529" fill="#F7E0CF" width="7.5" height="7.5"/>
	<rect x="138.75" y="97.529" fill="#231F20" width="7.5" height="7.5"/>
	<rect x="108.75" y="105.029" fill="#EEE3E0" width="7.5" height="7.5"/>
	<rect x="108.75" y="112.5" fill="#F7E0CF" width="7.5" height="7.5"/>
	<rect x="108.75" y="119.99" fill="#F7E0CF" width="7.5" height="7.5"/>
	<rect x="101.25" y="127.5" fill="#F7E0CF" width="7.5" height="7.5"/>
	<rect x="108.75" y="127.5" fill="#F7E0CF" width="7.5" height="7.5"/>
	<rect x="108.75" y="134.99" fill="#F7E0CF" width="7.5" height="7.5"/>
	<rect x="123.75" y="134.99" fill="#F7E0CF" width="7.5" height="7.5"/>
	<rect x="116.25" y="134.99" fill="#F7E0CF" width="7.5" height="7.5"/>
	<rect x="131.25" y="134.99" fill="#EEE3E0" width="7.5" height="7.5"/>
	<rect x="146.25" y="134.99" fill="#F7E0CF" width="7.5" height="7.5"/>
	<rect x="138.75" y="134.99" fill="#EFCFC0" width="7.5" height="7.5"/>
	<rect x="123.75" y="142.471" fill="#FFFFFF" width="7.5" height="7.5"/>
	<rect x="116.25" y="142.471" fill="#FFFFFF" width="7.5" height="7.5"/>
	<rect x="131.25" y="142.471" fill="#BB807B" width="7.5" height="7.5"/>
	<rect x="138.75" y="142.471" fill="#F7E0CF" width="7.5" height="7.5"/>
	<rect x="123.75" y="149.961" fill="#D28F8C" width="7.5" height="7.49"/>
	<rect x="116.25" y="149.961" fill="#D28F8C" width="7.5" height="7.49"/>
	<rect x="131.25" y="149.961" fill="#F7E0CF" width="7.5" height="7.49"/>
	<rect x="138.75" y="149.961" fill="#F7E0CF" width="7.5" height="7.49"/>
	<rect x="123.75" y="157.451" fill="#F7E0CF" width="7.5" height="7.5"/>
	<rect x="116.25" y="157.451" fill="#F7E0CF" width="7.5" height="7.5"/>
	<rect x="131.25" y="157.451" fill="#F7E0CF" width="7.5" height="7.5"/>
	<rect x="123.75" y="164.951" fill="#E3C7B1" width="7.5" height="7.5"/>
	<rect x="131.25" y="164.951" fill="#E3C7B1" width="7.5" height="7.5"/>
	<rect x="131.25" y="172.451" fill="#EEE3E0" width="7.5" height="7.5"/>
	<rect x="138.75" y="164.951" fill="#E3C7B1" width="7.5" height="7.5"/>
	<rect x="138.75" y="157.451" fill="#F7E0CF" width="7.5" height="7.5"/>
	<rect x="146.25" y="157.451" fill="#E3C7B1" width="7.5" height="7.5"/>
	<rect x="138.75" y="172.451" fill="#FFFFFF" width="7.5" height="7.5"/>
	<rect x="153.75" y="172.451" fill="#231F20" width="7.5" height="7.5"/>
	<rect x="146.25" y="172.451" fill="#F7E0CF" width="7.5" height="7.5"/>
	<rect x="138.75" y="172.451" fill="#F7E0CF" width="7.5" height="7.5"/>
	<rect x="138.75" y="179.951" fill="#F7E0CF" width="7.5" height="7.5"/>
	<rect x="146.25" y="179.951" fill="#231F20" width="7.5" height="7.5"/>
	<rect x="161.25" y="172.451" fill="#3C2415" width="7.5" height="7.5"/>
	<rect x="131.25" y="179.951" fill="#EEE3E0" width="7.5" height="7.5"/>
	<rect x="153.75" y="179.951" fill="#3C2415" width="7.5" height="7.5"/>
	<rect x="153.75" y="187.451" fill="#3C2415" width="7.5" height="7.5"/>
	<rect x="131.25" y="187.451" fill="#E3C680" width="7.5" height="7.5"/>
	<rect x="153.75" y="134.99" fill="#3C2415" width="7.5" height="7.5"/>
	<rect x="146.25" y="127.5" fill="#F7E0CF" width="7.5" height="7.5"/>
	<rect x="153.75" y="127.5" fill="#231F20" width="7.5" height="7.5"/>
	<rect x="146.25" y="149.961" fill="#F7E0CF" width="7.5" height="7.49"/>
	<rect x="153.75" y="149.961" fill="#3C2415" width="7.5" height="7.49"/>
	<rect x="146.25" y="142.471" fill="#F7E0CF" width="7.5" height="7.5"/>
	<rect x="153.75" y="142.471" fill="#231F20" width="7.5" height="7.5"/>
	<rect x="146.25" y="119.99" fill="#F7E0CF" width="7.5" height="7.5"/>
	<rect x="153.75" y="119.99" fill="#5F3529" width="7.5" height="7.5"/>
	<rect x="146.25" y="112.5" fill="#F7E0CF" width="7.5" height="7.5"/>
	<rect x="153.75" y="112.5" fill="#231F20" width="7.5" height="7.5"/>
	<rect x="161.25" y="119.99" fill="#231F20" width="7.5" height="7.5"/>
	<rect x="161.25" y="112.5" fill="#3C2415" width="7.5" height="7.5"/>
	<rect x="116.25" y="105.02" fill="#231F20" width="7.5" height="7.5"/>
	<rect x="123.75" y="105.02" fill="#9B8579" width="7.5" height="7.5"/>
	<rect x="131.25" y="105" fill="#F7E0CF" width="7.5" height="7.5"/>
	<rect x="138.75" y="105.029" fill="#F7E0CF" width="7.5" height="7.5"/>
	<rect x="116.25" y="112.5" fill="#F7E0CF" width="7.5" height="7.5"/>
	<rect x="123.75" y="112.5" fill="#F7E0CF" width="7.5" height="7.5"/>
	<rect x="131.25" y="112.49" fill="#E3C7B1" width="7.5" height="7.5"/>
	<rect x="138.75" y="112.471" fill="#F7E0CF" width="7.5" height="7.5"/>
	<rect x="116.25" y="119.99" fill="#7F95A5" width="7.5" height="7.5"/>
	<rect x="123.75" y="119.99" fill="#FFFFFF" width="7.5" height="7.5"/>
	<rect x="116.25" y="127.49" fill="#F7E0CF" width="7.5" height="7.5"/>
	<rect x="123.75" y="127.49" fill="#EFCFC0" width="7.5" height="7.5"/>
	<rect x="131.25" y="119.99" fill="#F7E0CF" width="7.5" height="7.5"/>
	<rect x="138.75" y="119.99" fill="#F7E0CF" width="7.5" height="7.5"/>
	<rect x="131.25" y="127.49" fill="#EFCFC0" width="7.5" height="7.5"/>
	<rect x="138.75" y="127.49" fill="#F7E0CF" width="7.5" height="7.5"/>
	<rect x="146.25" y="90.029" fill="#231F20" width="7.5" height="7.5"/>
	<rect x="153.75" y="90.029" fill="#5F3529" width="7.5" height="7.5"/>
	<rect x="146.25" y="75.049" fill="#231F20" width="7.5" height="7.5"/>
	<rect x="153.75" y="75.049" fill="#3C2415" width="7.5" height="7.5"/>
	<rect x="153.75" y="82.549" fill="#3C2415" width="7.5" height="7.5"/>
	<rect x="161.25" y="82.549" fill="#3C2415" width="7.5" height="7.5"/>
	<rect x="108.75" y="82.549" fill="#3C2415" width="7.5" height="7.5"/>
	<rect x="116.25" y="82.549" fill="#3C2415" width="7.5" height="7.5"/>
	<rect x="123.75" y="82.549" fill="#231F20" width="7.5" height="7.5"/>
	<rect x="131.25" y="82.549" fill="#231F20" width="7.5" height="7.5"/>
	<rect x="138.75" y="82.549" fill="#231F20" width="7.5" height="7.5"/>
	<rect x="116.25" y="75.049" fill="#3C2415" width="7.5" height="7.5"/>
	<rect x="123.75" y="75.049" fill="#3C2415" width="7.5" height="7.5"/>
	<rect x="131.25" y="75.049" fill="#3C2415" width="7.5" height="7.5"/>
	<rect x="138.75" y="75.049" fill="#3C2415" width="7.5" height="7.5"/>
	<rect x="146.25" y="82.549" fill="#3C2415" width="7.5" height="7.5"/>
	<rect x="146.25" y="97.529" fill="#3C2415" width="7.5" height="7.5"/>
	<rect x="146.25" y="112.5" fill="#F7E0CF" width="7.5" height="7.5"/>
	<rect x="146.25" y="119.99" fill="#F7E0CF" width="7.5" height="7.5"/>
	<rect x="153.75" y="97.529" fill="#231F20" width="7.5" height="7.5"/>
	<rect x="161.25" y="97.529" fill="#5F3529" width="7.5" height="7.5"/>
	<rect x="161.25" y="90.029" fill="#3C2415" width="7.5" height="7.5"/>
	<rect x="168.75" y="90.029" fill="#3C2415" width="7.5" height="7.5"/>
	<rect x="161.25" y="105.029" fill="#231F20" width="7.5" height="7.5"/>
	<rect x="168.75" y="105.029" fill="#5F3529" width="7.5" height="7.5"/>
	<rect x="168.75" y="97.529" fill="#3C2415" width="7.5" height="7.5"/>
	<rect x="168.75" y="112.529" fill="#231F20" width="7.5" height="7.5"/>
	<rect x="168.75" y="119.99" fill="#3C2415" width="7.5" height="7.5"/>
	<rect x="168.75" y="135" fill="#231F20" width="7.5" height="7.5"/>
	<rect x="168.75" y="127.5" fill="#231F20" width="7.5" height="7.5"/>
	<rect x="168.75" y="142.5" fill="#5F3529" width="7.5" height="7.5"/>
	<rect x="176.25" y="112.529" fill="#3C2415" width="7.5" height="7.5"/>
	<rect x="176.25" y="119.99" fill="#3C2415" width="7.5" height="7.5"/>
	<rect x="183.75" y="112.529" fill="#3C2415" width="7.5" height="7.5"/>
	<rect x="176.25" y="105.078" fill="#3C2415" width="7.5" height="7.5"/>
	<rect x="176.25" y="97.529" fill="#3C2415" width="7.5" height="7.5"/>
	<rect x="176.25" y="127.5" fill="#3C2415" width="7.5" height="7.5"/>
	<rect x="176.25" y="135" fill="#231F20" width="7.5" height="7.5"/>
	<rect x="176.25" y="142.5" fill="#231F20" width="7.5" height="7.5"/>
	<rect x="161.25" y="135" fill="#F7E0CF" width="7.5" height="7.5"/>
	<rect x="161.25" y="127.5" fill="#EEE3E0" width="7.5" height="7.5"/>
	<rect x="161.25" y="142.5" fill="#3C2415" width="7.5" height="7.5"/>
	<rect x="168.75" y="149.961" fill="#3C2415" width="7.5" height="7.49"/>
	<rect x="176.25" y="149.961" fill="#5F3529" width="7.5" height="7.49"/>
	<rect x="161.25" y="149.961" fill="#231F20" width="7.5" height="7.49"/>
	<rect x="168.75" y="157.451" fill="#231F20" width="7.5" height="7.5"/>
	<rect x="176.25" y="157.451" fill="#3C2415" width="7.5" height="7.5"/>
	<rect x="161.25" y="179.951" fill="#231F20" width="7.5" height="7.5"/>
	<rect x="161.25" y="187.451" fill="#231F20" width="7.5" height="7.5"/>
	<rect x="161.25" y="194.951" fill="#3C2415" width="7.5" height="7.5"/>
	<rect x="168.75" y="172.451" fill="#6E3E31" width="7.5" height="7.5"/>
	<rect x="176.25" y="164.951" fill="#3C2415" width="7.5" height="7.5"/>
	<rect x="168.75" y="179.951" fill="#3C2415" width="7.5" height="7.5"/>
	<rect x="176.25" y="172.451" fill="#231F20" width="7.5" height="7.5"/>
	<rect x="176.25" y="179.951" fill="#3C2415" width="7.5" height="7.5"/>
	<rect x="183.75" y="135" fill="#3C2415" width="7.5" height="7.5"/>
	<rect x="191.25" y="142.5" fill="#3C2415" width="7.5" height="7.5"/>
	<rect x="191.25" y="149.951" fill="#3C2415" width="7.5" height="7.5"/>
	<rect x="191.25" y="172.451" fill="#5F3529" width="7.5" height="7.5"/>
	<rect x="183.75" y="142.5" fill="#3C2415" width="7.5" height="7.5"/>
	<rect x="183.75" y="157.451" fill="#231F20" width="7.5" height="7.5"/>
	<rect x="183.75" y="164.951" fill="#3C2415" width="7.5" height="7.5"/>
	<rect x="183.75" y="172.451" fill="#3C2415" width="7.5" height="7.5"/>
	<rect x="183.75" y="179.951" fill="#231F20" width="7.5" height="7.5"/>
	<rect x="191.25" y="179.951" fill="#231F20" width="7.5" height="7.5"/>
	<rect x="191.25" y="187.207" fill="#3C2415" width="7.5" height="7.5"/>
	<rect x="183.75" y="187.451" fill="#FAC805" width="7.5" height="7.5"/>
	<rect x="176.25" y="202.451" fill="#FAC805" width="7.5" height="7.5"/>
	<rect x="176.25" y="217.451" fill="#FAC805" width="7.5" height="7.5"/>
	<rect x="176.25" y="194.951" fill="#231F20" width="7.5" height="7.5"/>
	<rect x="176.25" y="209.951" fill="#FAC805" width="7.5" height="7.5"/>
	<rect x="176.25" y="187.451" fill="#231F20" width="7.5" height="7.5"/>
	<rect x="168.75" y="187.451" fill="#231F20" width="7.5" height="7.5"/>
	<rect x="123.75" y="172.451" fill="#3C2415" width="7.5" height="7.5"/>
	<rect x="123.75" y="179.951" fill="#3C2415" width="7.5" height="7.5"/>
	<rect x="116.25" y="172.451" fill="#231F20" width="7.5" height="7.5"/>
	<rect x="116.25" y="164.951" fill="#3C2415" width="7.5" height="7.5"/>
	<rect x="116.25" y="179.951" fill="#231F20" width="7.5" height="7.5"/>
	<rect x="108.75" y="172.451" fill="#5F3529" width="7.5" height="7.5"/>
	<rect x="108.75" y="179.951" fill="#3C2415" width="7.5" height="7.5"/>
	<rect x="116.25" y="187.451" fill="#3C2415" width="7.5" height="7.5"/>
	<rect x="123.75" y="187.451" fill="#231F20" width="7.5" height="7.5"/>
	<rect x="116.25" y="194.951" fill="#3C2415" width="7.5" height="7.5"/>
	<rect x="161.25" y="157.451" fill="#3C2415" width="7.5" height="7.5"/>
	<rect x="168.75" y="164.951" fill="#231F20" width="7.5" height="7.5"/>
	<rect x="161.25" y="164.951" fill="#5F3529" width="7.5" height="7.5"/>
	<rect x="153.75" y="157.451" fill="#5F3529" width="7.5" height="7.5"/>
	<rect x="153.75" y="164.951" fill="#231F20" width="7.5" height="7.5"/>
	<rect x="146.25" y="164.951" fill="#F7E0CF" width="7.5" height="7.5"/>
	<rect x="161.25" y="172.451" fill="#3C2415" width="7.5" height="7.5"/>
	<rect x="146.25" y="105.029" fill="#231F20" width="7.5" height="7.5"/>
	<rect x="153.75" y="105.029" fill="#3C2415" width="7.5" height="7.5"/>
</g>
</svg>
