<?xml version="1.0" encoding="utf-8"?>
<!-- Generator: Adobe Illustrator 16.0.0, SVG Export Plug-In . SVG Version: 6.00 Build 0)  -->
<!DOCTYPE svg PUBLIC "-//W3C//DTD SVG 1.1//EN" "http://www.w3.org/Graphics/SVG/1.1/DTD/svg11.dtd">
<svg version="1.1" id="Layer_1" xmlns="http://www.w3.org/2000/svg" xmlns:xlink="http://www.w3.org/1999/xlink" x="0px" y="0px"
	 width="300px" height="300px" viewBox="0 0 300 300" enable-background="new 0 0 300 300" xml:space="preserve">
<g>
	<rect x="138.012" y="188.961" fill="#EFD1B8" width="6" height="6"/>
	<rect x="144.012" y="188.961" fill="#EFD1B8" width="6" height="6"/>
	<rect x="155.996" y="188.961" fill="#323133" width="6" height="6"/>
	<rect x="150.012" y="188.961" fill="#EFD1B8" width="6" height="6"/>
	<rect x="131.984" y="188.961" fill="#323133" width="6" height="6"/>
	<rect x="125.973" y="188.961" fill="#1A1818" width="6" height="6"/>
	<rect x="119.996" y="188.961" fill="#323133" width="6" height="6"/>
	<rect x="161.996" y="188.961" fill="#1A1818" width="6" height="6"/>
	<rect x="167.996" y="188.961" fill="#323133" width="6" height="6"/>
	<rect x="180.004" y="188.961" fill="#323133" width="6" height="6"/>
	<rect x="138.023" y="200.961" fill="#87816B" width="6" height="6"/>
	<rect x="144.023" y="200.961" fill="#87816B" width="6" height="6"/>
	<rect x="155.996" y="200.961" fill="#323133" width="6" height="6"/>
	<rect x="150.023" y="200.961" fill="#87816B" width="6" height="6"/>
	<rect x="131.996" y="200.961" fill="#323133" width="6" height="6"/>
	<rect x="125.973" y="200.961" fill="#1A1818" width="6" height="6"/>
	<rect x="119.996" y="200.961" fill="#323133" width="6" height="6"/>
	<rect x="161.996" y="200.961" fill="#1A1818" width="6" height="6"/>
	<rect x="167.996" y="200.961" fill="#323133" width="6" height="6"/>
	<rect x="180.004" y="200.961" fill="#323133" width="6" height="6"/>
	<rect x="137.996" y="182.961" fill="#EFD1B8" width="6" height="6"/>
	<rect x="143.996" y="182.961" fill="#EFD1B8" width="6" height="6"/>
	<rect x="155.996" y="182.961" fill="#323133" width="6" height="6"/>
	<rect x="149.996" y="182.969" fill="#EFD1B8" width="6" height="6"/>
	<rect x="143.996" y="176.961" fill="#EFD1B8" width="6" height="6"/>
	<rect x="149.996" y="176.961" fill="#EFD1B8" width="6" height="6"/>
	<rect x="131.996" y="182.961" fill="#323133" width="6" height="6"/>
	<rect x="119.996" y="182.961" fill="#1A1818" width="6" height="6"/>
	<rect x="161.996" y="182.961" fill="#323133" width="6" height="6"/>
	<rect x="167.996" y="182.961" fill="#1A1818" width="6" height="6"/>
	<rect x="138.012" y="194.961" fill="#87816B" width="6" height="6"/>
	<rect x="144.012" y="194.961" fill="#87816B" width="6" height="6"/>
	<rect x="155.996" y="194.961" fill="#1A1818" width="6" height="6"/>
	<rect x="150.012" y="194.961" fill="#87816B" width="6" height="6"/>
	<rect x="131.984" y="194.961" fill="#1A1818" width="6" height="6"/>
	<rect x="125.973" y="194.961" fill="#323133" width="6" height="6"/>
	<rect x="119.996" y="194.961" fill="#323133" width="6" height="6"/>
	<rect x="113.996" y="188.961" fill="#323133" width="6" height="6"/>
	<rect x="113.996" y="200.961" fill="#323133" width="6" height="6"/>
	<rect x="113.996" y="194.961" fill="#323133" width="6" height="6"/>
	<rect x="161.996" y="194.961" fill="#323133" width="6" height="6"/>
	<rect x="167.996" y="194.961" fill="#323133" width="6" height="6"/>
	<rect x="180.004" y="194.961" fill="#323133" width="6" height="6"/>
	<rect x="119.996" y="105.023" fill="#AF008C" width="6" height="6"/>
	<rect x="125.996" y="105.023" fill="#F7E0CF" width="6" height="6"/>
	<rect x="131.996" y="105.023" fill="#EFD1B8" width="6" height="6"/>
	<rect x="137.996" y="105.023" fill="#EFD1B8" width="6" height="6"/>
	<rect x="143.996" y="105.023" fill="#EC008C" width="6" height="6"/>
	<rect x="119.996" y="111.023" fill="#F7E0CF" width="6" height="6"/>
	<rect x="125.996" y="111.023" fill="#EFD1B8" width="6" height="6"/>
	<rect x="131.996" y="111.023" fill="#EFD1B8" width="6" height="6"/>
	<rect x="137.996" y="111.023" fill="#EFD1B8" width="6" height="6"/>
	<rect x="143.996" y="111.023" fill="#EFD1B8" width="6" height="6"/>
	<rect x="119.996" y="117.023" fill="#EFD1B8" width="6" height="6"/>
	<rect x="113.996" y="117.023" fill="#EC008C" width="6" height="6"/>
	<rect x="119.996" y="123" fill="#EFD1B8" width="6" height="6"/>
	<rect x="119.996" y="128.992" fill="#EFD1B8" width="6" height="6"/>
	<rect x="113.996" y="135" fill="#EFD1B8" width="6" height="6"/>
	<rect x="119.996" y="135" fill="#EFD1B8" width="6" height="6"/>
	<rect x="119.996" y="140.992" fill="#EFD1B8" width="6" height="6"/>
	<rect x="131.996" y="140.992" fill="#EFD1B8" width="6" height="6"/>
	<rect x="125.996" y="140.992" fill="#EFD1B8" width="6" height="6"/>
	<rect x="137.996" y="140.992" fill="#E5B29B" width="6" height="6"/>
	<rect x="149.996" y="140.992" fill="#EFD1B8" width="6" height="6"/>
	<rect x="143.996" y="140.992" fill="#EFD1B8" width="6" height="6"/>
	<rect x="131.996" y="146.977" fill="#FFFFFF" width="6" height="6"/>
	<rect x="125.996" y="146.977" fill="#FFFFFF" width="6" height="6"/>
	<rect x="137.996" y="146.977" fill="#AD6D67" width="6" height="6"/>
	<rect x="143.996" y="146.977" fill="#E5B29B" width="6" height="6"/>
	<rect x="131.996" y="152.969" fill="#C97D7A" width="6" height="5.992"/>
	<rect x="125.996" y="152.969" fill="#C97D7A" width="6" height="5.992"/>
	<rect x="137.996" y="152.969" fill="#EFD1B8" width="6" height="5.992"/>
	<rect x="143.996" y="152.969" fill="#EFD1B8" width="6" height="5.992"/>
	<rect x="131.996" y="158.961" fill="#EFD1B8" width="6" height="6"/>
	<rect x="125.996" y="158.961" fill="#EFD1B8" width="6" height="6"/>
	<rect x="137.996" y="158.961" fill="#EFD1B8" width="6" height="6"/>
	<rect x="131.996" y="164.961" fill="#EFD1B8" width="6" height="6"/>
	<rect x="137.996" y="164.961" fill="#EFD1B8" width="6" height="6"/>
	<rect x="137.996" y="170.961" fill="#E5B29B" width="6" height="6"/>
	<rect x="143.996" y="164.961" fill="#E5B29B" width="6" height="6"/>
	<rect x="143.996" y="158.961" fill="#EFC8A6" width="6" height="6"/>
	<rect x="149.996" y="158.961" fill="#E5B29B" width="6" height="6"/>
	<rect x="143.996" y="170.961" fill="#FFFFFF" width="6" height="6"/>
	<rect x="149.996" y="170.961" fill="#EFD1B8" width="6" height="6"/>
	<rect x="143.996" y="170.961" fill="#EFD1B8" width="6" height="6"/>
	<rect x="161.996" y="170.961" fill="#EE2A7B" width="6" height="6"/>
	<rect x="155.996" y="176.961" fill="#323133" width="6" height="6"/>
	<rect x="137.996" y="176.961" fill="#EFD1B8" width="6" height="6"/>
	<rect x="155.996" y="140.992" fill="#AF008C" width="6" height="6"/>
	<rect x="149.996" y="135" fill="#EFD1B8" width="6" height="6"/>
	<rect x="155.996" y="135" fill="#EFD1B8" width="6" height="6"/>
	<rect x="149.996" y="152.969" fill="#EFD1B8" width="6" height="5.992"/>
	<rect x="155.996" y="152.969" fill="#DA1C5C" width="6" height="5.992"/>
	<rect x="149.996" y="146.977" fill="#EFD1B8" width="6" height="6"/>
	<rect x="155.996" y="146.977" fill="#DA1C5C" width="6" height="6"/>
	<rect x="149.996" y="128.992" fill="#EFD1B8" width="6" height="6"/>
	<rect x="155.996" y="128.992" fill="#F7E0CF" width="6" height="6"/>
	<rect x="149.996" y="123" fill="#EFD1B8" width="6" height="6"/>
	<rect x="155.996" y="123" fill="#AF008C" width="6" height="6"/>
	<rect x="161.996" y="128.992" fill="#DA1C5C" width="6" height="6"/>
	<rect x="161.996" y="123" fill="#EC008C" width="6" height="6"/>
	<rect x="125.996" y="117.016" fill="#AE9D85" width="6" height="6"/>
	<rect x="131.996" y="117.016" fill="#AE9D85" width="6" height="6"/>
	<rect x="137.996" y="117" fill="#EFD1B8" width="6" height="6"/>
	<rect x="143.996" y="117.023" fill="#EFD1B8" width="6" height="6"/>
	<rect x="125.996" y="123" fill="#EFD1B8" width="6" height="6"/>
	<rect x="131.996" y="123" fill="#EFD1B8" width="6" height="6"/>
	<rect x="137.996" y="122.992" fill="#EFD1B8" width="6" height="6"/>
	<rect x="143.996" y="122.977" fill="#EFD1B8" width="6" height="6"/>
	<rect x="125.996" y="128.992" fill="#6C8394" width="6" height="6"/>
	<rect x="131.996" y="128.992" fill="#FFFFFF" width="6" height="6"/>
	<rect x="125.996" y="134.992" fill="#EFD1B8" width="6" height="6"/>
	<rect x="131.996" y="134.992" fill="#EAC4B2" width="6" height="6"/>
	<rect x="137.996" y="128.992" fill="#EFD1B8" width="6" height="6"/>
	<rect x="143.996" y="128.992" fill="#EFD1B8" width="6" height="6"/>
	<rect x="137.996" y="134.992" fill="#F7E0CF" width="6" height="6"/>
	<rect x="143.996" y="134.992" fill="#EFD1B8" width="6" height="6"/>
	<rect x="149.996" y="105.023" fill="#DA1C5C" width="6" height="6"/>
	<rect x="155.996" y="105.023" fill="#AF008C" width="6" height="6"/>
	<rect x="149.996" y="93.039" fill="#EC008C" width="6" height="6"/>
	<rect x="155.996" y="99.039" fill="#EC008C" width="6" height="6"/>
	<rect x="119.996" y="99.039" fill="#DA1C5C" width="6" height="6"/>
	<rect x="125.996" y="99.039" fill="#AF008C" width="6" height="6"/>
	<rect x="131.996" y="99.039" fill="#AF008C" width="6" height="6"/>
	<rect x="137.996" y="99.039" fill="#EC008C" width="6" height="6"/>
	<rect x="143.996" y="99.039" fill="#DA1C5C" width="6" height="6"/>
	<rect x="125.996" y="93.039" fill="#DA1C5C" width="6" height="6"/>
	<rect x="131.996" y="93.039" fill="#AF008C" width="6" height="6"/>
	<rect x="137.996" y="93.039" fill="#EC008C" width="6" height="6"/>
	<rect x="143.996" y="93.039" fill="#EC008C" width="6" height="6"/>
	<rect x="149.996" y="99.039" fill="#AF008C" width="6" height="6"/>
	<rect x="149.996" y="111.023" fill="#EC008C" width="6" height="6"/>
	<rect x="149.996" y="123" fill="#AF008C" width="6" height="6"/>
	<rect x="149.996" y="128.992" fill="#EFD1B8" width="6" height="6"/>
	<rect x="155.996" y="111.023" fill="#DA1C5C" width="6" height="6"/>
	<rect x="161.996" y="111.023" fill="#AF008C" width="6" height="6"/>
	<rect x="161.996" y="105.023" fill="#EC008C" width="6" height="6"/>
	<rect x="161.996" y="117.023" fill="#DA1C5C" width="6" height="6"/>
	<rect x="167.996" y="117.023" fill="#AF008C" width="6" height="6"/>
	<rect x="167.996" y="111.023" fill="#EC008C" width="6" height="6"/>
	<rect x="167.996" y="123.023" fill="#DA1C5C" width="6" height="6"/>
	<rect x="167.996" y="128.992" fill="#EC008C" width="6" height="6"/>
	<rect x="167.996" y="141" fill="#AF008C" width="6" height="6"/>
	<rect x="167.996" y="135" fill="#EC008C" width="6" height="6"/>
	<rect x="167.996" y="147" fill="#AF008C" width="6" height="6"/>
	<rect x="173.996" y="158.961" fill="#DA1C5C" width="6" height="6"/>
	<rect x="173.996" y="146.984" fill="#EC008C" width="6" height="6"/>
	<rect x="161.996" y="141" fill="#EE2A7B" width="6" height="6"/>
	<rect x="161.996" y="135" fill="#EE2A7B" width="6" height="6"/>
	<rect x="161.996" y="147" fill="#EE2A7B" width="6" height="6"/>
	<rect x="167.996" y="152.969" fill="#AF008C" width="6" height="5.992"/>
	<rect x="173.996" y="152.953" fill="#EC008C" width="6" height="5.992"/>
	<rect x="173.996" y="140.984" fill="#EC008C" width="6" height="6"/>
	<rect x="173.996" y="129.008" fill="#EC008C" width="6" height="6"/>
	<rect x="173.996" y="122.977" fill="#EC008C" width="6" height="6"/>
	<rect x="173.996" y="134.977" fill="#EC008C" width="6" height="5.992"/>
	<rect x="161.996" y="152.969" fill="#EE2A7B" width="6" height="5.992"/>
	<rect x="167.996" y="158.961" fill="#DA1C5C" width="6" height="6"/>
	<rect x="161.996" y="176.961" fill="#323133" width="6" height="6"/>
	<rect x="161.996" y="182.961" fill="#323133" width="6" height="6"/>
	<rect x="173.988" y="188.977" fill="#323133" width="6" height="6"/>
	<rect x="174.004" y="200.961" fill="#323133" width="6" height="6"/>
	<rect x="173.988" y="182.977" fill="#323133" width="6" height="6"/>
	<rect x="174.004" y="194.961" fill="#323133" width="6" height="6"/>
	<rect x="125.996" y="170.961" fill="#EC008C" width="6" height="6"/>
	<rect x="125.973" y="164.961" fill="#DA1C5C" width="6" height="6"/>
	<rect x="125.973" y="176.961" fill="#323133" width="6" height="6"/>
	<rect x="131.996" y="176.961" fill="#323133" width="6" height="6"/>
	<rect x="125.973" y="182.961" fill="#323133" width="6" height="6"/>
	<rect x="161.996" y="158.961" fill="#EE2A7B" width="6" height="6"/>
	<rect x="167.996" y="164.961" fill="#DA1C5C" width="6" height="6"/>
	<rect x="167.996" y="170.961" fill="#DA1C5C" width="6" height="6"/>
	<rect x="161.996" y="164.961" fill="#EE2A7B" width="6" height="6"/>
	<rect x="155.996" y="158.961" fill="#DA1C5C" width="6" height="6"/>
	<rect x="155.996" y="164.961" fill="#DA1C5C" width="6" height="6"/>
	<rect x="149.996" y="164.961" fill="#EFD1B8" width="6" height="6"/>
	<rect x="149.996" y="117.023" fill="#AF008C" width="6" height="6"/>
	<rect x="155.996" y="117.023" fill="#EC008C" width="6" height="6"/>
</g>
</svg>
