<?xml version="1.0" encoding="utf-8"?>
<!-- Generator: Adobe Illustrator 16.0.0, SVG Export Plug-In . SVG Version: 6.00 Build 0)  -->
<!DOCTYPE svg PUBLIC "-//W3C//DTD SVG 1.1//EN" "http://www.w3.org/Graphics/SVG/1.1/DTD/svg11.dtd">
<svg version="1.1" id="Layer_1" xmlns="http://www.w3.org/2000/svg" xmlns:xlink="http://www.w3.org/1999/xlink" x="0px" y="0px"
	 width="300px" height="300px" viewBox="0 0 300 300" enable-background="new 0 0 300 300" xml:space="preserve">
<g>
	<rect x="138" y="179.953" fill="#0CB4CD" width="6" height="6"/>
	<rect x="144" y="179.953" fill="#0CB4CD" width="6" height="6"/>
	<rect x="156" y="179.953" fill="#0CB4CD" width="6" height="6"/>
	<rect x="156" y="173.961" fill="#0CB4CD" width="6" height="6"/>
	<rect x="150" y="179.953" fill="#078B9E" width="6" height="6"/>
	<rect x="132" y="179.953" fill="#078B9E" width="6" height="6"/>
	<rect x="132" y="173.961" fill="#0CB4CD" width="6" height="6"/>
	<rect x="126" y="179.953" fill="#734A1D" width="6" height="6"/>
	<rect x="162" y="179.953" fill="#734A1D" width="6" height="6"/>
	<rect x="162" y="173.961" fill="#734A1D" width="6" height="6"/>
	<rect x="168" y="179.953" fill="#734A1D" width="6" height="6"/>
	<rect x="138" y="185.953" fill="#078B9E" width="6" height="6"/>
	<rect x="144" y="185.953" fill="#0CB4CD" width="6" height="6"/>
	<rect x="156" y="185.953" fill="#EEE1BF" width="6" height="6"/>
	<rect x="150" y="185.953" fill="#0CB4CD" width="6" height="6"/>
	<rect x="132" y="185.953" fill="#0CB4CD" width="6" height="6"/>
	<rect x="126" y="185.953" fill="#4D301C" width="6" height="6"/>
	<rect x="126" y="179.953" fill="#4D301C" width="6" height="6"/>
	<rect x="120" y="185.953" fill="#734A1D" width="6" height="6"/>
	<rect x="162" y="185.953" fill="#734A1D" width="6" height="6"/>
	<rect x="168" y="185.953" fill="#734A1D" width="6" height="6"/>
	<rect x="174" y="185.953" fill="#734A1D" width="6" height="6"/>
	<rect x="180" y="185.953" fill="#734A1D" width="6" height="6"/>
	<rect x="138" y="191.953" fill="#EEE1BF" width="6" height="6"/>
	<rect x="144" y="191.953" fill="#EEE1BF" width="6" height="6"/>
	<rect x="156" y="191.953" fill="#FFFFFF" width="6" height="6"/>
	<rect x="150" y="191.953" fill="#EEE1BF" width="6" height="6"/>
	<rect x="132" y="191.953" fill="#FFFFFF" width="6" height="6"/>
	<rect x="126" y="191.953" fill="#4D301C" width="6" height="6"/>
	<rect x="120" y="191.953" fill="#734A1D" width="6" height="6"/>
	<rect x="162" y="191.953" fill="#734A1D" width="6" height="6"/>
	<rect x="168" y="191.953" fill="#4D301C" width="6" height="6"/>
	<rect x="174" y="191.953" fill="#734A1D" width="6" height="6"/>
	<rect x="180" y="191.953" fill="#734A1D" width="6" height="6"/>
	<rect x="138" y="197.953" fill="#FFFFFF" width="6" height="6"/>
	<rect x="144" y="197.953" fill="#EEE1BF" width="6" height="6"/>
	<rect x="156" y="197.953" fill="#FFFFFF" width="6" height="6"/>
	<rect x="150" y="197.953" fill="#FFFFFF" width="6" height="6"/>
	<rect x="132" y="197.953" fill="#FFFFFF" width="6" height="6"/>
	<rect x="126" y="197.953" fill="#4D301C" width="6" height="6"/>
	<rect x="120" y="197.953" fill="#734A1D" width="6" height="6"/>
	<rect x="114" y="191.953" fill="#734A1D" width="6" height="6"/>
	<rect x="114" y="197.953" fill="#734A1D" width="6" height="6"/>
	<rect x="162" y="197.953" fill="#734A1D" width="6" height="6"/>
	<rect x="168" y="197.953" fill="#4D301C" width="6" height="6"/>
	<rect x="174" y="197.953" fill="#734A1D" width="6" height="6"/>
	<rect x="180" y="197.953" fill="#734A1D" width="6" height="6"/>
	<rect x="126" y="108.047" fill="#DBAC27" width="6" height="6"/>
	<rect x="132" y="108.047" fill="#EED29A" width="6" height="6"/>
	<rect x="138" y="108.047" fill="#FCFAE1" width="6" height="6"/>
	<rect x="144" y="108.047" fill="#FFFFFF" width="6" height="6"/>
	<rect x="150" y="108.047" fill="#FCFADF" width="6" height="6"/>
	<rect x="126" y="114.047" fill="#EEE1BF" width="6" height="6"/>
	<rect x="132" y="114.047" fill="#DBAC27" width="6" height="6"/>
	<rect x="138" y="114.047" fill="#EED29A" width="6" height="6"/>
	<rect x="144" y="114.047" fill="#FCFAE1" width="6" height="6"/>
	<rect x="150" y="114.047" fill="#FFFFFF" width="6" height="6"/>
	<rect x="126" y="120.047" fill="#EEE1BF" width="6" height="6"/>
	<rect x="126" y="126.023" fill="#EEE1BF" width="6" height="6"/>
	<rect x="126" y="132.012" fill="#EEE1BF" width="6" height="6"/>
	<rect x="120" y="138.023" fill="#EEE1BF" width="6" height="6"/>
	<rect x="126" y="138.023" fill="#EEE1BF" width="6" height="6"/>
	<rect x="126" y="144.012" fill="#EEE1BF" width="6" height="6"/>
	<rect x="138" y="144.012" fill="#EEE1BF" width="6" height="6"/>
	<rect x="132" y="144.012" fill="#EEE1BF" width="6" height="6"/>
	<rect x="144" y="144.012" fill="#EDD69F" width="6" height="6"/>
	<rect x="156" y="144.012" fill="#FCFAE1" width="6" height="6"/>
	<rect x="150" y="144.012" fill="#EEE1BF" width="6" height="6"/>
	<rect x="138" y="150" fill="#FFFFFF" width="6" height="6"/>
	<rect x="132" y="150" fill="#FFFFFF" width="6" height="6"/>
	<rect x="144" y="150" fill="#FFFFFF" width="6" height="6"/>
	<rect x="150" y="150" fill="#D28F8C" width="6" height="6"/>
	<rect x="138" y="155.988" fill="#D28F8C" width="6" height="6"/>
	<rect x="132" y="155.988" fill="#D28F8C" width="6" height="6"/>
	<rect x="144" y="155.988" fill="#D28F8C" width="6" height="6"/>
	<rect x="150" y="155.988" fill="#EEE1BF" width="6" height="6"/>
	<rect x="138" y="161.988" fill="#EEE1BF" width="6" height="6"/>
	<rect x="132" y="161.988" fill="#EEE1BF" width="6" height="6"/>
	<rect x="144" y="161.988" fill="#EEE1BF" width="6" height="6"/>
	<rect x="138" y="167.988" fill="#EDD69F" width="6" height="6"/>
	<rect x="144" y="167.988" fill="#EDD69F" width="6" height="6"/>
	<rect x="150" y="167.988" fill="#FAF399" width="6" height="6"/>
	<rect x="138" y="173.961" fill="#EDD69F" width="6" height="6"/>
	<rect x="144" y="173.961" fill="#EDD69F" width="6" height="6"/>
	<rect x="150" y="173.961" fill="#EDD69F" width="6" height="6"/>
	<rect x="150" y="161.988" fill="#EEE1BF" width="6" height="6"/>
	<rect x="156" y="161.988" fill="#FAF399" width="6" height="6"/>
	<rect x="156" y="138.023" fill="#FAF399" width="6" height="6"/>
	<rect x="162" y="138.023" fill="#EED29A" width="6" height="6"/>
	<rect x="156" y="155.988" fill="#FFFFFF" width="6" height="6"/>
	<rect x="156" y="150" fill="#FAF399" width="6" height="6"/>
	<rect x="156" y="132.012" fill="#EDD69F" width="6" height="6"/>
	<rect x="162" y="132.012" fill="#FCFAE1" width="6" height="6"/>
	<rect x="156" y="126.023" fill="#EDD69F" width="6" height="6"/>
	<rect x="162" y="126.023" fill="#FFFFFF" width="6" height="6"/>
	<rect x="168" y="132.012" fill="#FCFAE1" width="6" height="6"/>
	<rect x="168" y="126.023" fill="#FFFFFF" width="6" height="6"/>
	<rect x="132" y="120.047" fill="#EEE1BF" width="6" height="6"/>
	<rect x="138" y="120.047" fill="#EEE1BF" width="6" height="6"/>
	<rect x="144" y="120.047" fill="#EEE1BF" width="6" height="6"/>
	<rect x="150" y="120.047" fill="#EED29A" width="6" height="6"/>
	<rect x="132" y="126.023" fill="#EEE1BF" width="6" height="6"/>
	<rect x="138" y="126.012" fill="#EEE1BF" width="6" height="6"/>
	<rect x="144" y="126.023" fill="#EEE1BF" width="6" height="6"/>
	<rect x="150" y="126.023" fill="#FAF399" width="6" height="6"/>
	<rect x="132" y="132.012" fill="#6E5D55" width="6" height="6"/>
	<rect x="138" y="132.012" fill="#FFFFFF" width="6" height="6"/>
	<rect x="144" y="132.012" fill="#EEE1BF" width="6" height="6"/>
	<rect x="150" y="132.012" fill="#FAF399" width="6" height="6"/>
	<rect x="132" y="138.012" fill="#EEE1BF" width="6" height="6"/>
	<rect x="138" y="138.012" fill="#EEE1BF" width="6" height="6"/>
	<rect x="144" y="138.012" fill="#EEE1BF" width="6" height="6"/>
	<rect x="150" y="138.012" fill="#FCFAE1" width="6" height="6"/>
	<rect x="156" y="108.047" fill="#EED29A" width="6" height="6"/>
	<rect x="162" y="108.047" fill="#FCFAE1" width="6" height="6"/>
	<rect x="162" y="102.059" fill="#FAF399" width="6" height="6"/>
	<rect x="168" y="102.059" fill="#FCFAE1" width="6" height="6"/>
	<rect x="126" y="102.059" fill="#EED29A" width="6" height="6"/>
	<rect x="132" y="102.059" fill="#FCFAE1" width="6" height="6"/>
	<rect x="138" y="102.059" fill="#FFFFFF" width="6" height="6"/>
	<rect x="144" y="102.059" fill="#FCFADF" width="6" height="6"/>
	<rect x="150" y="102.059" fill="#FFFDF3" width="6" height="6"/>
	<rect x="132" y="96.059" fill="#FAF399" width="6" height="6"/>
	<rect x="138" y="96.059" fill="#FCFAE1" width="6" height="6"/>
	<rect x="144" y="96.059" fill="#FFFDF3" width="6" height="6"/>
	<rect x="150" y="96.059" fill="#FCFAE1" width="6" height="6"/>
	<rect x="156" y="102.059" fill="#FCFAE1" width="6" height="6"/>
	<rect x="156" y="96.047" fill="#FAF399" width="6" height="6"/>
	<rect x="162" y="96.047" fill="#FCFAE1" width="6" height="6"/>
	<rect x="156" y="114.047" fill="#FCFAE1" width="6" height="6"/>
	<rect x="156" y="126.023" fill="#EED29A" width="6" height="6"/>
	<rect x="156" y="132.012" fill="#FCFAE1" width="6" height="6"/>
	<rect x="162" y="114.047" fill="#FCFADF" width="6" height="6"/>
	<rect x="168" y="114.047" fill="#FAF399" width="6" height="6"/>
	<rect x="168" y="108.047" fill="#FAF399" width="6" height="6"/>
	<rect x="174" y="108.047" fill="#FCFAE1" width="6" height="6"/>
	<rect x="168" y="120.047" fill="#FCFAE1" width="6" height="6"/>
	<rect x="174" y="120.047" fill="#FAF399" width="6" height="6"/>
	<rect x="174" y="114.047" fill="#FCFAE1" width="6" height="6"/>
	<rect x="174" y="126.047" fill="#FCFAE1" width="6" height="6"/>
	<rect x="174" y="132.012" fill="#FCFAE1" width="6" height="6"/>
	<rect x="174" y="144.023" fill="#FFFFFF" width="6" height="6"/>
	<rect x="174" y="150.023" fill="#FCFAE1" width="6" height="6"/>
	<rect x="168" y="144.023" fill="#FAF399" width="6" height="6"/>
	<rect x="168" y="138.023" fill="#FAF399" width="6" height="6"/>
	<rect x="162" y="150.023" fill="#FFFFFF" width="6" height="6"/>
	<rect x="162" y="155.988" fill="#FAF399" width="6" height="6"/>
	<rect x="162" y="161.988" fill="#FCFAE1" width="6" height="6"/>
	<rect x="162" y="167.988" fill="#FAF399" width="6" height="6"/>
	<rect x="162" y="144.023" fill="#FFFFFF" width="6" height="6"/>
	<rect x="174" y="138.023" fill="#FCFAE1" width="6" height="6"/>
	<rect x="168" y="150.023" fill="#FCFADF" width="6" height="6"/>
	<rect x="174" y="155.988" fill="#EED29A" width="6" height="6"/>
	<rect x="180" y="150.023" fill="#FAF399" width="6" height="6"/>
	<rect x="180" y="138.023" fill="#FAF399" width="6" height="6"/>
	<rect x="180" y="126.047" fill="#FAF399" width="6" height="6"/>
	<rect x="180" y="132.047" fill="#FCFAE1" width="6" height="6"/>
	<rect x="168" y="155.988" fill="#FCFAE1" width="6" height="6"/>
	<rect x="174" y="161.988" fill="#FCFAE1" width="6" height="6"/>
	<rect x="180" y="143.996" fill="#FCFAE1" width="6" height="6"/>
	<rect x="180" y="120.035" fill="#FCFAE1" width="6" height="6"/>
	<rect x="168" y="161.988" fill="#FAF399" width="6" height="6"/>
	<rect x="156" y="120.047" fill="#FFFFFF" width="6" height="6"/>
	<rect x="162" y="120.047" fill="#FAF399" width="6" height="6"/>
</g>
</svg>
