<?xml version="1.0" encoding="utf-8"?>
<!-- Generator: Adobe Illustrator 16.0.0, SVG Export Plug-In . SVG Version: 6.00 Build 0)  -->
<!DOCTYPE svg PUBLIC "-//W3C//DTD SVG 1.1//EN" "http://www.w3.org/Graphics/SVG/1.1/DTD/svg11.dtd">
<svg version="1.1" id="Layer_1" xmlns="http://www.w3.org/2000/svg" xmlns:xlink="http://www.w3.org/1999/xlink" x="0px" y="0px"
	 width="300px" height="300px" viewBox="0 0 300 300" enable-background="new 0 0 300 300" xml:space="preserve">
<g>
	<rect x="112.742" y="78.799" fill="#2F292B" width="7.5" height="7.5"/>
	<rect x="112.742" y="86.299" fill="#525255" width="7.5" height="7.5"/>
	<rect x="120.242" y="86.299" fill="#2F292B" width="7.5" height="7.5"/>
	<rect x="127.742" y="86.299" fill="#6C6D70" width="7.5" height="7.5"/>
	<rect x="135.242" y="86.299" fill="#2F292B" width="7.5" height="7.5"/>
	<rect x="142.742" y="86.299" fill="#2F292B" width="7.5" height="7.5"/>
	<rect x="150.242" y="86.299" fill="#2F292B" width="7.5" height="7.5"/>
	<rect x="112.742" y="101.284" fill="#2F292B" width="7.5" height="7.5"/>
	<rect x="120.242" y="101.284" fill="#525255" width="7.5" height="7.5"/>
	<rect x="127.742" y="101.284" fill="#2F292B" width="7.5" height="7.5"/>
	<rect x="135.242" y="101.284" fill="#EEE1BF" width="7.5" height="7.5"/>
	<rect x="142.742" y="101.284" fill="#EDD69F" width="7.5" height="7.5"/>
	<rect x="150.242" y="101.284" fill="#EDD69F" width="7.5" height="7.5"/>
	<rect x="112.742" y="108.784" fill="#EEE1BF" width="7.5" height="7.5"/>
	<rect x="120.242" y="108.784" fill="#EDD69F" width="7.5" height="7.5"/>
	<rect x="127.742" y="108.784" fill="#EDD69F" width="7.5" height="7.5"/>
	<rect x="135.242" y="108.784" fill="#EDD69F" width="7.5" height="7.5"/>
	<rect x="142.742" y="108.784" fill="#EDD69F" width="7.5" height="7.5"/>
	<rect x="150.242" y="108.784" fill="#EDD69F" width="7.5" height="7.5"/>
	<rect x="112.742" y="116.284" fill="#2F292B" width="7.5" height="7.5"/>
	<rect x="120.242" y="116.284" fill="#2F292B" width="7.5" height="7.5"/>
	<rect x="112.742" y="123.755" fill="#A2A4A6" width="7.5" height="7.5"/>
	<rect x="120.242" y="123.755" fill="#734A1D" width="7.5" height="7.5"/>
	<rect x="112.742" y="131.24" fill="#D8DADA" width="7.5" height="7.5"/>
	<rect x="120.242" y="131.24" fill="#A2A4A6" width="7.5" height="7.5"/>
	<rect x="112.742" y="138.755" fill="#EDD69F" width="7.5" height="7.5"/>
	<rect x="120.242" y="138.755" fill="#EDD69F" width="7.5" height="7.5"/>
	<rect x="112.742" y="146.24" fill="#CBC0A9" width="7.5" height="7.5"/>
	<rect x="120.242" y="146.24" fill="#CBC0A9" width="7.5" height="7.5"/>
	<rect x="135.242" y="146.24" fill="#CBC0A9" width="7.5" height="7.5"/>
	<rect x="127.742" y="146.24" fill="#CBC0A9" width="7.5" height="7.5"/>
	<rect x="142.742" y="146.24" fill="#CBC0A9" width="7.5" height="7.5"/>
	<rect x="157.742" y="146.24" fill="#CBC0A9" width="7.5" height="7.5"/>
	<rect x="150.242" y="146.24" fill="#CBC0A9" width="7.5" height="7.5"/>
	<rect x="135.242" y="153.726" fill="#FFFFFF" width="7.5" height="7.5"/>
	<rect x="127.742" y="153.726" fill="#FFFFFF" width="7.5" height="7.5"/>
	<rect x="142.742" y="153.726" fill="#FFFFFF" width="7.5" height="7.5"/>
	<rect x="150.242" y="153.726" fill="#C7293B" width="7.5" height="7.5"/>
	<rect x="135.242" y="161.211" fill="#C7293B" width="7.5" height="7.5"/>
	<rect x="127.742" y="161.211" fill="#C7293B" width="7.5" height="7.5"/>
	<rect x="142.742" y="161.211" fill="#C7293B" width="7.5" height="7.5"/>
	<rect x="150.242" y="161.211" fill="#CBC0A9" width="7.5" height="7.5"/>
	<rect x="135.242" y="168.711" fill="#CBC0A9" width="7.5" height="7.5"/>
	<rect x="127.742" y="168.711" fill="#CBC0A9" width="7.5" height="7.5"/>
	<rect x="142.742" y="168.711" fill="#CBC0A9" width="7.5" height="7.5"/>
	<rect x="150.242" y="168.711" fill="#EDD69F" width="7.5" height="7.5"/>
	<rect x="157.742" y="168.711" fill="#EDD69F" width="7.5" height="7.5"/>
	<rect x="165.242" y="168.711" fill="#EEE1BF" width="7.5" height="7.5"/>
	<rect x="165.242" y="146.24" fill="#EDD69F" width="7.5" height="7.5"/>
	<rect x="157.742" y="138.755" fill="#6C6D70" width="7.5" height="7.5"/>
	<rect x="165.242" y="138.755" fill="#EDD69F" width="7.5" height="7.5"/>
	<rect x="157.742" y="161.211" fill="#EDD69F" width="7.5" height="7.5"/>
	<rect x="165.242" y="161.211" fill="#EDD69F" width="7.5" height="7.5"/>
	<rect x="157.742" y="153.726" fill="#CBC0A9" width="7.5" height="7.5"/>
	<rect x="165.242" y="153.726" fill="#EDD69F" width="7.5" height="7.5"/>
	<rect x="157.742" y="131.24" fill="#2F292B" width="7.5" height="7.5"/>
	<rect x="165.242" y="131.24" fill="#EDD69F" width="7.5" height="7.5"/>
	<rect x="157.742" y="123.755" fill="#EDD69F" width="7.5" height="7.5"/>
	<rect x="165.242" y="123.755" fill="#EEE1BF" width="7.5" height="7.5"/>
	<rect x="172.742" y="131.24" fill="#EDD69F" width="7.5" height="7.5"/>
	<rect x="172.742" y="123.755" fill="#EDD69F" width="7.5" height="7.5"/>
	<rect x="127.742" y="116.284" fill="#2F292B" width="7.5" height="7.5"/>
	<rect x="135.242" y="116.284" fill="#2F292B" width="7.5" height="7.5"/>
	<rect x="142.742" y="116.284" fill="#2F292B" width="7.5" height="7.5"/>
	<rect x="150.242" y="116.284" fill="#2F292B" width="7.5" height="7.5"/>
	<rect x="127.742" y="123.755" fill="#FFFFFF" width="7.5" height="7.5"/>
	<rect x="135.242" y="123.755" fill="#D8DADA" width="7.5" height="7.5"/>
	<rect x="142.742" y="123.755" fill="#EDD69F" width="7.5" height="7.5"/>
	<rect x="150.242" y="123.755" fill="#6C6D70" width="7.5" height="7.5"/>
	<rect x="127.742" y="131.24" fill="#A2A4A6" width="7.5" height="7.5"/>
	<rect x="135.242" y="131.24" fill="#EDD69F" width="7.5" height="7.5"/>
	<rect x="142.742" y="131.24" fill="#EDD69F" width="7.5" height="7.5"/>
	<rect x="150.242" y="131.24" fill="#2F292B" width="7.5" height="7.5"/>
	<rect x="127.742" y="138.74" fill="#EDD69F" width="7.5" height="7.5"/>
	<rect x="135.242" y="138.74" fill="#EDD69F" width="7.5" height="7.5"/>
	<rect x="142.742" y="138.74" fill="#EDD69F" width="7.5" height="7.5"/>
	<rect x="150.242" y="138.74" fill="#EDD69F" width="7.5" height="7.5"/>
	<rect x="157.742" y="101.284" fill="#2F292B" width="7.5" height="7.5"/>
	<rect x="165.242" y="101.284" fill="#2F292B" width="7.5" height="7.5"/>
	<rect x="112.742" y="93.799" fill="#2F292B" width="7.5" height="7.5"/>
	<rect x="105.242" y="86.299" fill="#2F292B" width="7.5" height="7.5"/>
	<rect x="105.242" y="101.284" fill="#2F292B" width="7.5" height="7.5"/>
	<rect x="105.242" y="93.799" fill="#525255" width="7.5" height="7.5"/>
	<rect x="120.242" y="93.799" fill="#2F292B" width="7.5" height="7.5"/>
	<rect x="127.742" y="93.799" fill="#2F292B" width="7.5" height="7.5"/>
	<rect x="135.242" y="93.799" fill="#525255" width="7.5" height="7.5"/>
	<rect x="142.742" y="93.799" fill="#2F292B" width="7.5" height="7.5"/>
	<rect x="150.242" y="93.799" fill="#EDD69F" width="7.5" height="7.5"/>
	<rect x="157.742" y="93.799" fill="#2F292B" width="7.5" height="7.5"/>
	<rect x="157.742" y="86.299" fill="#2F292B" width="7.5" height="7.5"/>
	<rect x="165.242" y="93.799" fill="#2F292B" width="7.5" height="7.5"/>
	<rect x="165.242" y="86.299" fill="#2F292B" width="7.5" height="7.5"/>
	<rect x="127.742" y="78.799" fill="#2F292B" width="7.5" height="7.5"/>
	<rect x="135.242" y="78.799" fill="#2F292B" width="7.5" height="7.5"/>
	<rect x="142.742" y="78.799" fill="#2F292B" width="7.5" height="7.5"/>
	<rect x="150.242" y="78.799" fill="#2F292B" width="7.5" height="7.5"/>
	<rect x="157.742" y="78.799" fill="#6C6D70" width="7.5" height="7.5"/>
	<rect x="157.742" y="108.784" fill="#2F292B" width="7.5" height="7.5"/>
	<rect x="150.242" y="108.784" fill="#6C6D70" width="7.5" height="7.5"/>
	<rect x="157.742" y="123.755" fill="#2F292B" width="7.5" height="7.5"/>
	<rect x="165.242" y="108.784" fill="#2F292B" width="7.5" height="7.5"/>
	<rect x="157.742" y="116.284" fill="#2F292B" width="7.5" height="7.5"/>
	<rect x="165.242" y="116.284" fill="#2F292B" width="7.5" height="7.5"/>
	<rect x="172.742" y="101.284" fill="#6C6D70" width="7.5" height="7.5"/>
	<rect x="172.742" y="108.784" fill="#2F292B" width="7.5" height="7.5"/>
	<rect x="172.742" y="116.284" fill="#2F292B" width="7.5" height="7.5"/>
	<rect x="105.242" y="131.216" fill="#EDD69F" width="7.5" height="7.5"/>
	<rect x="97.742" y="131.216" fill="#EDD69F" width="7.5" height="7.5"/>
	<rect x="105.242" y="123.716" fill="#EDD69F" width="7.5" height="7.5"/>
	<rect x="142.258" y="176.187" fill="#EDD69F" width="7.5" height="7.5"/>
	<rect x="149.758" y="176.187" fill="#CBC0A9" width="7.5" height="7.5"/>
	<rect x="157.258" y="176.187" fill="#EDD69F" width="7.5" height="7.5"/>
	<rect x="142.258" y="183.701" fill="#EDD69F" width="7.5" height="7.5"/>
	<rect x="149.758" y="183.701" fill="#EDD69F" width="7.5" height="7.5"/>
	<rect x="172.258" y="176.201" fill="#7F95A5" width="7.5" height="7.5"/>
	<rect x="172.258" y="168.701" fill="#7F95A5" width="7.5" height="7.5"/>
	<rect x="179.758" y="176.201" fill="#9CB6C8" width="7.5" height="7.5"/>
	<rect x="179.758" y="168.701" fill="#7F95A5" width="7.5" height="7.5"/>
	<rect x="187.258" y="168.701" fill="#9CB6C8" width="7.5" height="7.5"/>
	<rect x="164.758" y="183.701" fill="#7F95A5" width="7.5" height="7.5"/>
	<rect x="164.758" y="176.201" fill="#EDD69F" width="7.5" height="7.5"/>
	<rect x="157.258" y="183.701" fill="#EDD69F" width="7.5" height="7.5"/>
	<rect x="134.758" y="183.701" fill="#7F95A5" width="7.5" height="7.5"/>
	<rect x="127.258" y="183.701" fill="#9CB6C8" width="7.5" height="7.5"/>
	<rect x="127.258" y="176.201" fill="#7F95A5" width="7.5" height="7.5"/>
	<rect x="134.758" y="176.201" fill="#7F95A5" width="7.5" height="7.5"/>
	<rect x="119.758" y="176.201" fill="#9CB6C8" width="7.5" height="7.5"/>
	<rect x="172.258" y="183.701" fill="#9CB6C8" width="7.5" height="7.5"/>
	<rect x="179.758" y="183.701" fill="#9CB6C8" width="7.5" height="7.5"/>
	<rect x="187.258" y="183.701" fill="#9CB6C8" width="7.5" height="7.5"/>
	<rect x="142.258" y="198.701" fill="#9CB6C8" width="7.5" height="7.5"/>
	<rect x="149.758" y="198.701" fill="#7F95A5" width="7.5" height="7.5"/>
	<rect x="164.758" y="198.701" fill="#9CB6C8" width="7.5" height="7.5"/>
	<rect x="157.258" y="198.701" fill="#9CB6C8" width="7.5" height="7.5"/>
	<rect x="134.758" y="198.701" fill="#9CB6C8" width="7.5" height="7.5"/>
	<rect x="134.758" y="206.201" fill="#9CB6C8" width="7.5" height="7.5"/>
	<rect x="127.258" y="198.701" fill="#9CB6C8" width="7.5" height="7.5"/>
	<rect x="119.758" y="198.701" fill="#9CB6C8" width="7.5" height="7.5"/>
	<rect x="172.258" y="198.701" fill="#9CB6C8" width="7.5" height="7.5"/>
	<rect x="179.758" y="198.701" fill="#9CB6C8" width="7.5" height="7.5"/>
	<rect x="187.258" y="198.701" fill="#9CB6C8" width="7.5" height="7.5"/>
	<rect x="194.758" y="198.701" fill="#9CB6C8" width="7.5" height="7.5"/>
	<rect x="142.258" y="213.701" fill="#9CB6C8" width="7.5" height="7.5"/>
	<rect x="149.758" y="213.701" fill="#7F95A5" width="7.5" height="7.5"/>
	<rect x="164.758" y="213.701" fill="#9CB6C8" width="7.5" height="7.5"/>
	<rect x="157.258" y="213.701" fill="#9CB6C8" width="7.5" height="7.5"/>
	<rect x="134.758" y="213.701" fill="#9CB6C8" width="7.5" height="7.5"/>
	<rect x="127.258" y="213.701" fill="#7F95A5" width="7.5" height="7.5"/>
	<rect x="119.758" y="213.701" fill="#9CB6C8" width="7.5" height="7.5"/>
	<rect x="172.258" y="213.701" fill="#7F95A5" width="7.5" height="7.5"/>
	<rect x="179.758" y="213.701" fill="#9CB6C8" width="7.5" height="7.5"/>
	<rect x="187.258" y="213.701" fill="#9CB6C8" width="7.5" height="7.5"/>
	<rect x="194.758" y="213.701" fill="#7F95A5" width="7.5" height="7.5"/>
	<rect x="142.258" y="191.201" fill="#7F95A5" width="7.5" height="7.5"/>
	<rect x="149.758" y="191.201" fill="#EDD69F" width="7.5" height="7.5"/>
	<rect x="164.758" y="191.201" fill="#9CB6C8" width="7.5" height="7.5"/>
	<rect x="157.258" y="191.201" fill="#7F95A5" width="7.5" height="7.5"/>
	<rect x="134.758" y="191.201" fill="#9CB6C8" width="7.5" height="7.5"/>
	<rect x="127.258" y="191.201" fill="#9CB6C8" width="7.5" height="7.5"/>
	<rect x="119.758" y="191.201" fill="#9CB6C8" width="7.5" height="7.5"/>
	<rect x="172.258" y="191.201" fill="#9CB6C8" width="7.5" height="7.5"/>
	<rect x="179.758" y="191.201" fill="#9CB6C8" width="7.5" height="7.5"/>
	<rect x="187.258" y="191.201" fill="#9CB6C8" width="7.5" height="7.5"/>
	<rect x="194.758" y="191.201" fill="#9CB6C8" width="7.5" height="7.5"/>
	<rect x="142.258" y="206.201" fill="#9CB6C8" width="7.5" height="7.5"/>
	<rect x="149.758" y="206.201" fill="#7F95A5" width="7.5" height="7.5"/>
	<rect x="164.758" y="206.201" fill="#9CB6C8" width="7.5" height="7.5"/>
	<rect x="157.258" y="206.201" fill="#9CB6C8" width="7.5" height="7.5"/>
	<rect x="134.758" y="206.201" fill="#9CB6C8" width="7.5" height="7.5"/>
	<rect x="127.258" y="206.201" fill="#7F95A5" width="7.5" height="7.5"/>
	<rect x="119.758" y="206.201" fill="#9CB6C8" width="7.5" height="7.5"/>
	<rect x="112.258" y="198.701" fill="#9CB6C8" width="7.5" height="7.5"/>
	<rect x="112.258" y="213.701" fill="#7F95A5" width="7.5" height="7.5"/>
	<rect x="112.258" y="206.201" fill="#7F95A5" width="7.5" height="7.5"/>
	<rect x="172.258" y="206.201" fill="#7F95A5" width="7.5" height="7.5"/>
	<rect x="179.758" y="206.201" fill="#9CB6C8" width="7.5" height="7.5"/>
	<rect x="187.258" y="206.201" fill="#9CB6C8" width="7.5" height="7.5"/>
	<rect x="194.758" y="206.201" fill="#7F95A5" width="7.5" height="7.5"/>
</g>
</svg>
