<?xml version="1.0" encoding="utf-8"?>
<!-- Generator: Adobe Illustrator 16.0.0, SVG Export Plug-In . SVG Version: 6.00 Build 0)  -->
<!DOCTYPE svg PUBLIC "-//W3C//DTD SVG 1.1//EN" "http://www.w3.org/Graphics/SVG/1.1/DTD/svg11.dtd">
<svg version="1.1" id="Layer_1" xmlns="http://www.w3.org/2000/svg" xmlns:xlink="http://www.w3.org/1999/xlink" x="0px" y="0px"
	 width="300px" height="300px" viewBox="0 0 300 300" enable-background="new 0 0 300 300" xml:space="preserve">
<g>
	<rect x="120" y="82.544" fill="#EEE1BF" width="7.5" height="7.5"/>
	<rect x="127.5" y="82.544" fill="#EEE1BF" width="7.5" height="7.5"/>
	<rect x="135" y="82.544" fill="#EEE1BF" width="7.5" height="7.5"/>
	<rect x="142.5" y="82.544" fill="#EDD69F" width="7.5" height="7.5"/>
	<rect x="112.5" y="97.529" fill="#EDD69F" width="7.5" height="7.5"/>
	<rect x="120" y="97.529" fill="#EDD69F" width="7.5" height="7.5"/>
	<rect x="127.5" y="97.529" fill="#EDD69F" width="7.5" height="7.5"/>
	<rect x="135" y="97.529" fill="#EDD69F" width="7.5" height="7.5"/>
	<rect x="142.5" y="97.529" fill="#EDD69F" width="7.5" height="7.5"/>
	<rect x="150" y="97.529" fill="#EDD69F" width="7.5" height="7.5"/>
	<rect x="112.5" y="105.029" fill="#EDD69F" width="7.5" height="7.5"/>
	<rect x="120" y="105.029" fill="#EDD69F" width="7.5" height="7.5"/>
	<rect x="127.5" y="105.029" fill="#EDD69F" width="7.5" height="7.5"/>
	<rect x="135" y="105.029" fill="#EDD69F" width="7.5" height="7.5"/>
	<rect x="142.5" y="105.029" fill="#EDD69F" width="7.5" height="7.5"/>
	<rect x="150" y="105.029" fill="#EDD69F" width="7.5" height="7.5"/>
	<rect x="112.5" y="112.529" fill="#EDD69F" width="7.5" height="7.5"/>
	<rect x="120" y="112.529" fill="#EDD69F" width="7.5" height="7.5"/>
	<rect x="112.5" y="120" fill="#EDD69F" width="7.5" height="7.5"/>
	<rect x="120" y="120" fill="#84796C" width="7.5" height="7.5"/>
	<rect x="112.5" y="127.485" fill="#EDD69F" width="7.5" height="7.5"/>
	<rect x="120" y="127.485" fill="#EDD69F" width="7.5" height="7.5"/>
	<rect x="112.5" y="135" fill="#EDD69F" width="7.5" height="7.5"/>
	<rect x="120" y="135" fill="#EDD69F" width="7.5" height="7.5"/>
	<rect x="112.5" y="142.485" fill="#6E5D55" width="7.5" height="7.5"/>
	<rect x="105" y="129.36" fill="#EDD69F" width="7.5" height="7.5"/>
	<rect x="120" y="142.485" fill="#6E5D55" width="7.5" height="7.5"/>
	<rect x="135" y="142.485" fill="#84796C" width="7.5" height="7.5"/>
	<rect x="127.5" y="142.485" fill="#6E5D55" width="7.5" height="7.5"/>
	<rect x="142.5" y="142.485" fill="#84796C" width="7.5" height="7.5"/>
	<rect x="157.5" y="142.485" fill="#C2B99F" width="7.5" height="7.5"/>
	<rect x="150" y="142.485" fill="#84796C" width="7.5" height="7.5"/>
	<rect x="135" y="149.971" fill="#FFFFFF" width="7.5" height="7.5"/>
	<rect x="127.5" y="149.971" fill="#FFFFFF" width="7.5" height="7.5"/>
	<rect x="142.5" y="149.971" fill="#FFFFFF" width="7.5" height="7.5"/>
	<rect x="150" y="149.971" fill="#C7293B" width="7.5" height="7.5"/>
	<rect x="135" y="157.456" fill="#C7293B" width="7.5" height="7.5"/>
	<rect x="127.5" y="157.456" fill="#C7293B" width="7.5" height="7.5"/>
	<rect x="142.5" y="157.456" fill="#C7293B" width="7.5" height="7.5"/>
	<rect x="150" y="157.456" fill="#C2B99F" width="7.5" height="7.5"/>
	<rect x="135" y="164.956" fill="#C2B99F" width="7.5" height="7.5"/>
	<rect x="127.5" y="164.956" fill="#84796C" width="7.5" height="7.5"/>
	<rect x="142.5" y="164.956" fill="#C2B99F" width="7.5" height="7.5"/>
	<rect x="135" y="172.456" fill="#EDD69F" width="7.5" height="7.5"/>
	<rect x="142.5" y="172.456" fill="#EDD69F" width="7.5" height="7.5"/>
	<rect x="135" y="179.956" fill="#FBED21" width="7.5" height="7.5"/>
	<rect x="142.5" y="179.956" fill="#FBED21" width="7.5" height="7.5"/>
	<rect x="150" y="172.456" fill="#EDD69F" width="7.5" height="7.5"/>
	<rect x="150" y="164.956" fill="#C2B99F" width="7.5" height="7.5"/>
	<rect x="157.5" y="164.956" fill="#EDD69F" width="7.5" height="7.5"/>
	<rect x="157.5" y="172.456" fill="#2F292B" width="7.5" height="7.5"/>
	<rect x="165" y="172.456" fill="#2F292B" width="7.5" height="7.5"/>
	<rect x="172.5" y="172.456" fill="#2F292B" width="7.5" height="7.5"/>
	<rect x="157.5" y="179.956" fill="#2F292B" width="7.5" height="7.5"/>
	<rect x="150" y="179.956" fill="#FBED21" width="7.5" height="7.5"/>
	<rect x="127.5" y="179.956" fill="#2F292B" width="7.5" height="7.5"/>
	<rect x="127.5" y="172.456" fill="#2F292B" width="7.5" height="7.5"/>
	<rect x="120" y="172.456" fill="#2F292B" width="7.5" height="7.5"/>
	<rect x="120" y="179.956" fill="#525255" width="7.5" height="7.5"/>
	<rect x="165" y="179.956" fill="#2F292B" width="7.5" height="7.5"/>
	<rect x="172.5" y="179.956" fill="#525255" width="7.5" height="7.5"/>
	<rect x="180" y="179.956" fill="#2F292B" width="7.5" height="7.5"/>
	<rect x="187.5" y="179.956" fill="#525255" width="7.5" height="7.5"/>
	<rect x="135" y="194.956" fill="#2F292B" width="7.5" height="7.5"/>
	<rect x="142.5" y="194.956" fill="#FBED21" width="7.5" height="7.5"/>
	<rect x="157.5" y="194.956" fill="#525255" width="7.5" height="7.5"/>
	<rect x="150" y="194.956" fill="#2F292B" width="7.5" height="7.5"/>
	<rect x="127.5" y="194.956" fill="#525255" width="7.5" height="7.5"/>
	<rect x="120" y="194.956" fill="#525255" width="7.5" height="7.5"/>
	<rect x="112.5" y="194.956" fill="#2F292B" width="7.5" height="7.5"/>
	<rect x="165" y="194.956" fill="#2F292B" width="7.5" height="7.5"/>
	<rect x="172.5" y="194.956" fill="#2F292B" width="7.5" height="7.5"/>
	<rect x="180" y="194.956" fill="#2F292B" width="7.5" height="7.5"/>
	<rect x="187.5" y="194.956" fill="#2F292B" width="7.5" height="7.5"/>
	<rect x="135" y="209.956" fill="#2F292B" width="7.5" height="7.5"/>
	<rect x="142.5" y="209.956" fill="#FBED21" width="7.5" height="7.5"/>
	<rect x="157.5" y="209.956" fill="#2F292B" width="7.5" height="7.5"/>
	<rect x="150" y="209.956" fill="#2F292B" width="7.5" height="7.5"/>
	<rect x="127.5" y="209.956" fill="#2F292B" width="7.5" height="7.5"/>
	<rect x="120" y="209.956" fill="#2F292B" width="7.5" height="7.5"/>
	<rect x="112.5" y="209.956" fill="#2F292B" width="7.5" height="7.5"/>
	<rect x="165" y="209.956" fill="#2F292B" width="7.5" height="7.5"/>
	<rect x="172.5" y="209.956" fill="#2F292B" width="7.5" height="7.5"/>
	<rect x="180" y="209.956" fill="#2F292B" width="7.5" height="7.5"/>
	<rect x="187.5" y="209.956" fill="#2F292B" width="7.5" height="7.5"/>
	<rect x="135" y="187.456" fill="#2F292B" width="7.5" height="7.5"/>
	<rect x="142.5" y="187.456" fill="#FBED21" width="7.5" height="7.5"/>
	<rect x="157.5" y="187.456" fill="#2F292B" width="7.5" height="7.5"/>
	<rect x="150" y="187.456" fill="#2F292B" width="7.5" height="7.5"/>
	<rect x="127.5" y="187.456" fill="#2F292B" width="7.5" height="7.5"/>
	<rect x="120" y="187.456" fill="#525255" width="7.5" height="7.5"/>
	<rect x="112.5" y="187.456" fill="#2F292B" width="7.5" height="7.5"/>
	<rect x="165" y="187.456" fill="#525255" width="7.5" height="7.5"/>
	<rect x="172.5" y="187.456" fill="#2F292B" width="7.5" height="7.5"/>
	<rect x="180" y="187.456" fill="#525255" width="7.5" height="7.5"/>
	<rect x="187.5" y="187.456" fill="#525255" width="7.5" height="7.5"/>
	<rect x="135" y="202.456" fill="#2F292B" width="7.5" height="7.5"/>
	<rect x="142.5" y="202.456" fill="#FBED21" width="7.5" height="7.5"/>
	<rect x="157.5" y="202.456" fill="#525255" width="7.5" height="7.5"/>
	<rect x="150" y="202.456" fill="#2F292B" width="7.5" height="7.5"/>
	<rect x="127.5" y="202.456" fill="#525255" width="7.5" height="7.5"/>
	<rect x="120" y="202.456" fill="#2F292B" width="7.5" height="7.5"/>
	<rect x="112.5" y="202.456" fill="#2F292B" width="7.5" height="7.5"/>
	<rect x="165" y="202.456" fill="#2F292B" width="7.5" height="7.5"/>
	<rect x="172.5" y="202.456" fill="#2F292B" width="7.5" height="7.5"/>
	<rect x="180" y="202.456" fill="#2F292B" width="7.5" height="7.5"/>
	<rect x="187.5" y="202.456" fill="#2F292B" width="7.5" height="7.5"/>
	<rect x="165" y="142.485" fill="#EDD69F" width="7.5" height="7.5"/>
	<rect x="157.5" y="135" fill="#C2B99F" width="7.5" height="7.5"/>
	<rect x="165" y="135" fill="#EDD69F" width="7.5" height="7.5"/>
	<rect x="157.5" y="157.456" fill="#C2B99F" width="7.5" height="7.5"/>
	<rect x="165" y="157.456" fill="#EDD69F" width="7.5" height="7.5"/>
	<rect x="157.5" y="149.971" fill="#C2B99F" width="7.5" height="7.5"/>
	<rect x="165" y="149.971" fill="#EDD69F" width="7.5" height="7.5"/>
	<rect x="157.5" y="127.485" fill="#C2B99F" width="7.5" height="7.5"/>
	<rect x="165" y="127.485" fill="#EDD69F" width="7.5" height="7.5"/>
	<rect x="157.5" y="120" fill="#EDD69F" width="7.5" height="7.5"/>
	<rect x="165" y="120" fill="#EDD69F" width="7.5" height="7.5"/>
	<rect x="172.5" y="127.485" fill="#EDD69F" width="7.5" height="7.5"/>
	<rect x="172.5" y="120" fill="#EDD69F" width="7.5" height="7.5"/>
	<rect x="172.5" y="112.529" fill="#EEE1BF" width="7.5" height="7.5"/>
	<rect x="127.5" y="112.529" fill="#84796C" width="7.5" height="7.5"/>
	<rect x="135" y="112.529" fill="#A9958A" width="7.5" height="7.5"/>
	<rect x="142.5" y="112.529" fill="#EDD69F" width="7.5" height="7.5"/>
	<rect x="150" y="112.529" fill="#EDD69F" width="7.5" height="7.5"/>
	<rect x="127.5" y="120" fill="#EDD69F" width="7.5" height="7.5"/>
	<rect x="135" y="120" fill="#EDD69F" width="7.5" height="7.5"/>
	<rect x="142.5" y="120" fill="#EDD69F" width="7.5" height="7.5"/>
	<rect x="150" y="120" fill="#EDD69F" width="7.5" height="7.5"/>
	<rect x="127.5" y="127.485" fill="#39B8E4" width="7.5" height="7.5"/>
	<rect x="135" y="127.485" fill="#FFFFFF" width="7.5" height="7.5"/>
	<rect x="142.5" y="127.485" fill="#EDD69F" width="7.5" height="7.5"/>
	<rect x="150" y="127.485" fill="#EDD69F" width="7.5" height="7.5"/>
	<rect x="127.5" y="134.985" fill="#EDD69F" width="7.5" height="7.5"/>
	<rect x="135" y="134.985" fill="#EDD69F" width="7.5" height="7.5"/>
	<rect x="142.5" y="134.985" fill="#EDD69F" width="7.5" height="7.5"/>
	<rect x="150" y="134.985" fill="#EDD69F" width="7.5" height="7.5"/>
	<rect x="157.5" y="97.529" fill="#EDD69F" width="7.5" height="7.5"/>
	<rect x="165" y="97.529" fill="#EDD69F" width="7.5" height="7.5"/>
	<rect x="112.5" y="90.044" fill="#EDD69F" width="7.5" height="7.5"/>
	<rect x="120" y="90.044" fill="#EDD69F" width="7.5" height="7.5"/>
	<rect x="127.5" y="90.044" fill="#EDD69F" width="7.5" height="7.5"/>
	<rect x="135" y="90.044" fill="#EDD69F" width="7.5" height="7.5"/>
	<rect x="142.5" y="90.044" fill="#EDD69F" width="7.5" height="7.5"/>
	<rect x="150" y="90.044" fill="#EDD69F" width="7.5" height="7.5"/>
	<rect x="157.5" y="90.044" fill="#EDD69F" width="7.5" height="7.5"/>
	<rect x="150" y="82.544" fill="#EDD69F" width="7.5" height="7.5"/>
	<rect x="157.5" y="82.544" fill="#EDD69F" width="7.5" height="7.5"/>
	<rect x="165" y="90.044" fill="#EDD69F" width="7.5" height="7.5"/>
	<rect x="157.5" y="105.029" fill="#EDD69F" width="7.5" height="7.5"/>
	<rect x="165" y="105.029" fill="#EDD69F" width="7.5" height="7.5"/>
	<rect x="157.5" y="112.529" fill="#EDD69F" width="7.5" height="7.5"/>
	<rect x="165" y="112.529" fill="#EDD69F" width="7.5" height="7.5"/>
</g>
</svg>
