<?xml version="1.0" encoding="utf-8"?>
<!-- Generator: Adobe Illustrator 16.0.0, SVG Export Plug-In . SVG Version: 6.00 Build 0)  -->
<!DOCTYPE svg PUBLIC "-//W3C//DTD SVG 1.1//EN" "http://www.w3.org/Graphics/SVG/1.1/DTD/svg11.dtd">
<svg version="1.1" id="Layer_1" xmlns="http://www.w3.org/2000/svg" xmlns:xlink="http://www.w3.org/1999/xlink" x="0px" y="0px"
	 width="300px" height="300px" viewBox="0 0 300 300" enable-background="new 0 0 300 300" xml:space="preserve">
<g>
	<rect x="129" y="96.059" fill="#2F292B" width="6" height="6"/>
	<rect x="135" y="96.059" fill="#2F292B" width="6" height="6"/>
	<rect x="141" y="96.059" fill="#2F292B" width="6" height="6"/>
	<rect x="147" y="96.059" fill="#2F292B" width="6" height="6"/>
	<rect x="123" y="108.047" fill="#2F292B" width="6" height="6"/>
	<rect x="129" y="108.047" fill="#525255" width="6" height="6"/>
	<rect x="135" y="108.047" fill="#2F292B" width="6" height="6"/>
	<rect x="141" y="108.047" fill="#2F292B" width="6" height="6"/>
	<rect x="147" y="108.047" fill="#2F292B" width="6" height="6"/>
	<rect x="153" y="108.047" fill="#2F292B" width="6" height="6"/>
	<rect x="123" y="114.047" fill="#525255" width="6" height="6"/>
	<rect x="129" y="114.047" fill="#EDD69F" width="6" height="6"/>
	<rect x="135" y="114.047" fill="#2F292B" width="6" height="6"/>
	<rect x="141" y="114.047" fill="#EDD69F" width="6" height="6"/>
	<rect x="147" y="114.047" fill="#2F292B" width="6" height="6"/>
	<rect x="153" y="114.047" fill="#2F292B" width="6" height="6"/>
	<rect x="123" y="120.047" fill="#EEE1BF" width="6" height="6"/>
	<rect x="129" y="120.047" fill="#EEE1BF" width="6" height="6"/>
	<rect x="123" y="126.023" fill="#EDD69F" width="6" height="6"/>
	<rect x="129" y="126.023" fill="#525255" width="6" height="6"/>
	<rect x="123" y="137.984" fill="#EDD69F" width="6" height="6"/>
	<rect x="129" y="137.984" fill="#4C2F1C" width="6" height="6"/>
	<rect x="123" y="143.996" fill="#EDD69F" width="6" height="6"/>
	<rect x="129" y="143.996" fill="#EEE1BF" width="6" height="6"/>
	<rect x="123" y="149.984" fill="#C2B99F" width="6" height="6"/>
	<rect x="117" y="143.996" fill="#EDD69F" width="6" height="6"/>
	<rect x="111" y="143.996" fill="#EDD69F" width="6" height="6"/>
	<rect x="117" y="137.996" fill="#EDD69F" width="6" height="6"/>
	<rect x="129" y="149.984" fill="#D5CBAD" width="6" height="6"/>
	<rect x="141" y="149.984" fill="#D5CBAD" width="6" height="6"/>
	<rect x="135" y="149.984" fill="#D5CBAD" width="6" height="6"/>
	<rect x="147" y="149.984" fill="#EEE1BF" width="6" height="6"/>
	<rect x="159" y="149.984" fill="#D5CBAD" width="6" height="6"/>
	<rect x="153" y="149.984" fill="#D5CBAD" width="6" height="6"/>
	<rect x="141" y="155.973" fill="#FFFFFF" width="6" height="6"/>
	<rect x="135" y="155.973" fill="#FFFFFF" width="6" height="6"/>
	<rect x="147" y="155.973" fill="#FFFFFF" width="6" height="6"/>
	<rect x="153" y="155.973" fill="#BB807B" width="6" height="6"/>
	<rect x="141" y="161.961" fill="#D28F8C" width="6" height="6"/>
	<rect x="135" y="161.961" fill="#D28F8C" width="6" height="6"/>
	<rect x="147" y="161.961" fill="#BB807B" width="6" height="6"/>
	<rect x="153" y="161.961" fill="#D5CBAD" width="6" height="6"/>
	<rect x="141" y="167.961" fill="#D5CBAD" width="6" height="6"/>
	<rect x="135" y="167.961" fill="#C2B99F" width="6" height="6"/>
	<rect x="147" y="167.961" fill="#D5CBAD" width="6" height="6"/>
	<rect x="141" y="173.961" fill="#EEE1BF" width="6" height="6"/>
	<rect x="147" y="173.961" fill="#EDD69F" width="6" height="6"/>
	<rect x="153" y="173.961" fill="#EDD69F" width="6" height="6"/>
	<rect x="141" y="179.93" fill="#D5CBAD" width="6" height="6"/>
	<rect x="147" y="179.93" fill="#EDD69F" width="6" height="6"/>
	<rect x="153" y="179.93" fill="#EDD69F" width="6" height="6"/>
	<rect x="153" y="167.961" fill="#D5CBAD" width="6" height="6"/>
	<rect x="159" y="179.941" fill="#5F8AA2" width="6" height="6"/>
	<rect x="135" y="179.941" fill="#5F8AA2" width="6" height="6"/>
	<rect x="129" y="179.941" fill="#74A8C4" width="6" height="6"/>
	<rect x="165" y="179.941" fill="#74A8C4" width="6" height="6"/>
	<rect x="171" y="179.941" fill="#74A8C4" width="6" height="6"/>
	<rect x="141" y="191.941" fill="#5F8AA2" width="6" height="6"/>
	<rect x="147" y="191.941" fill="#5F8AA2" width="6" height="6"/>
	<rect x="159" y="191.941" fill="#74A8C4" width="6" height="6"/>
	<rect x="153" y="191.941" fill="#5F8AA2" width="6" height="6"/>
	<rect x="135" y="191.941" fill="#74A8C4" width="6" height="6"/>
	<rect x="129" y="191.941" fill="#74A8C4" width="6" height="6"/>
	<rect x="123" y="191.941" fill="#74A8C4" width="6" height="6"/>
	<rect x="165" y="191.941" fill="#74A8C4" width="6" height="6"/>
	<rect x="171" y="191.941" fill="#74A8C4" width="6" height="6"/>
	<rect x="177" y="191.941" fill="#74A8C4" width="6" height="6"/>
	<rect x="183" y="191.941" fill="#74A8C4" width="6" height="6"/>
	<rect x="141" y="203.941" fill="#74A8C4" width="6" height="6"/>
	<rect x="147" y="203.941" fill="#74A8C4" width="6" height="6"/>
	<rect x="159" y="203.941" fill="#74A8C4" width="6" height="6"/>
	<rect x="153" y="203.941" fill="#74A8C4" width="6" height="6"/>
	<rect x="135" y="203.941" fill="#74A8C4" width="6" height="6"/>
	<rect x="129" y="203.941" fill="#74A8C4" width="6" height="6"/>
	<rect x="123" y="203.941" fill="#EDD69F" width="6" height="6"/>
	<rect x="165" y="203.941" fill="#74A8C4" width="6" height="6"/>
	<rect x="171" y="203.941" fill="#EEE1BF" width="6" height="6"/>
	<rect x="177" y="203.941" fill="#EDD69F" width="6" height="6"/>
	<rect x="183" y="203.941" fill="#EDD69F" width="6" height="6"/>
	<rect x="141" y="185.941" fill="#2F292B" width="6" height="6"/>
	<rect x="147" y="185.941" fill="#2F292B" width="6" height="6"/>
	<rect x="159" y="185.941" fill="#5F8AA2" width="6" height="6"/>
	<rect x="153" y="185.941" fill="#2F292B" width="6" height="6"/>
	<rect x="135" y="185.941" fill="#5F8AA2" width="6" height="6"/>
	<rect x="129" y="185.941" fill="#74A8C4" width="6" height="6"/>
	<rect x="123" y="185.941" fill="#74A8C4" width="6" height="6"/>
	<rect x="165" y="185.941" fill="#74A8C4" width="6" height="6"/>
	<rect x="171" y="185.941" fill="#74A8C4" width="6" height="6"/>
	<rect x="177" y="185.941" fill="#74A8C4" width="6" height="6"/>
	<rect x="183" y="185.941" fill="#74A8C4" width="6" height="6"/>
	<rect x="141" y="197.941" fill="#74A8C4" width="6" height="6"/>
	<rect x="147" y="197.941" fill="#74A8C4" width="6" height="6"/>
	<rect x="159" y="197.941" fill="#74A8C4" width="6" height="6"/>
	<rect x="153" y="197.941" fill="#74A8C4" width="6" height="6"/>
	<rect x="135" y="197.941" fill="#74A8C4" width="6" height="6"/>
	<rect x="129" y="197.941" fill="#74A8C4" width="6" height="6"/>
	<rect x="123" y="197.941" fill="#5F8AA2" width="6" height="6"/>
	<rect x="117" y="191.941" fill="#74A8C4" width="6" height="6"/>
	<rect x="117" y="203.941" fill="#EEE1BF" width="6" height="6"/>
	<rect x="117" y="197.941" fill="#5F8AA2" width="6" height="6"/>
	<rect x="165" y="197.941" fill="#74A8C4" width="6" height="6"/>
	<rect x="171" y="197.941" fill="#5F8AA2" width="6" height="6"/>
	<rect x="177" y="197.941" fill="#5F8AA2" width="6" height="6"/>
	<rect x="183" y="197.941" fill="#5F8AA2" width="6" height="6"/>
	<rect x="165" y="149.984" fill="#EDD69F" width="6" height="6"/>
	<rect x="159" y="143.996" fill="#2F292B" width="6" height="6"/>
	<rect x="165" y="143.996" fill="#EDD69F" width="6" height="6"/>
	<rect x="159" y="161.961" fill="#D5CBAD" width="6" height="6"/>
	<rect x="159" y="155.973" fill="#D5CBAD" width="6" height="6"/>
	<rect x="165" y="155.973" fill="#EDD69F" width="6" height="6"/>
	<rect x="159" y="137.984" fill="#2F292B" width="6" height="6"/>
	<rect x="165" y="137.984" fill="#EDD69F" width="6" height="6"/>
	<rect x="159" y="126.023" fill="#2F292B" width="6" height="6"/>
	<rect x="165" y="126.023" fill="#2F292B" width="6" height="6"/>
	<rect x="171" y="137.984" fill="#EDD69F" width="6" height="6"/>
	<rect x="171" y="131.996" fill="#EDD69F" width="6" height="6"/>
	<rect x="135" y="120.047" fill="#EDD69F" width="6" height="6"/>
	<rect x="141" y="120.047" fill="#EDD69F" width="6" height="6"/>
	<rect x="147" y="120.047" fill="#EDD69F" width="6" height="6"/>
	<rect x="153" y="120.047" fill="#525255" width="6" height="6"/>
	<rect x="135" y="126.023" fill="#525255" width="6" height="6"/>
	<rect x="141" y="126.023" fill="#EDD69F" width="6" height="6"/>
	<rect x="147" y="126.023" fill="#EDD69F" width="6" height="6"/>
	<rect x="153" y="126.023" fill="#525255" width="6" height="6"/>
	<rect x="123" y="131.996" fill="#EDD69F" width="6" height="6"/>
	<rect x="129" y="131.996" fill="#EDD69F" width="6" height="6"/>
	<rect x="159" y="131.996" fill="#2F292B" width="6" height="6"/>
	<rect x="165" y="131.996" fill="#2F292B" width="6" height="6"/>
	<rect x="135" y="131.996" fill="#EDD69F" width="6" height="6"/>
	<rect x="141" y="131.996" fill="#EDD69F" width="6" height="6"/>
	<rect x="147" y="131.996" fill="#EDD69F" width="6" height="6"/>
	<rect x="153" y="131.996" fill="#2F292B" width="6" height="6"/>
	<rect x="135" y="137.984" fill="#FFFFFF" width="6" height="6"/>
	<rect x="141" y="137.984" fill="#EDD69F" width="6" height="6"/>
	<rect x="147" y="137.984" fill="#EDD69F" width="6" height="6"/>
	<rect x="153" y="137.984" fill="#2F292B" width="6" height="6"/>
	<rect x="135" y="143.984" fill="#EDD69F" width="6" height="6"/>
	<rect x="141" y="143.984" fill="#F0D0B4" width="6" height="6"/>
	<rect x="147" y="143.984" fill="#EEE1BF" width="6" height="6"/>
	<rect x="153" y="143.984" fill="#EDD69F" width="6" height="6"/>
	<rect x="159" y="108.047" fill="#2F292B" width="6" height="6"/>
	<rect x="165" y="108.047" fill="#2F292B" width="6" height="6"/>
	<rect x="123" y="102.059" fill="#525255" width="6" height="6"/>
	<rect x="129" y="102.059" fill="#2F292B" width="6" height="6"/>
	<rect x="135" y="102.059" fill="#2F292B" width="6" height="6"/>
	<rect x="141" y="102.059" fill="#525255" width="6" height="6"/>
	<rect x="147" y="102.059" fill="#2F292B" width="6" height="6"/>
	<rect x="153" y="102.059" fill="#2F292B" width="6" height="6"/>
	<rect x="159" y="102.059" fill="#2F292B" width="6" height="6"/>
	<rect x="153" y="96.059" fill="#2F292B" width="6" height="6"/>
	<rect x="159" y="96.059" fill="#525255" width="6" height="6"/>
	<rect x="135" y="90.059" fill="#2F292B" width="6" height="6"/>
	<rect x="141" y="90.059" fill="#525255" width="6" height="6"/>
	<rect x="147" y="90.059" fill="#2F292B" width="6" height="6"/>
	<rect x="153" y="90.059" fill="#2F292B" width="6" height="6"/>
	<rect x="159" y="90.059" fill="#2F292B" width="6" height="6"/>
	<rect x="165" y="102.059" fill="#2F292B" width="6" height="6"/>
	<rect x="165" y="96.059" fill="#2F292B" width="6" height="6"/>
	<rect x="165" y="90.059" fill="#2F292B" width="6" height="6"/>
	<rect x="171" y="108.047" fill="#2F292B" width="6" height="6"/>
	<rect x="171" y="102.059" fill="#2F292B" width="6" height="6"/>
	<rect x="171" y="96.059" fill="#2F292B" width="6" height="6"/>
	<rect x="159" y="114.047" fill="#2F292B" width="6" height="6"/>
	<rect x="165" y="114.047" fill="#525255" width="6" height="6"/>
	<rect x="159" y="120.047" fill="#2F292B" width="6" height="6"/>
	<rect x="165" y="120.047" fill="#2F292B" width="6" height="6"/>
	<rect x="171" y="126.023" fill="#F0D0B4" width="6" height="6"/>
	<rect x="171" y="114.047" fill="#2F292B" width="6" height="6"/>
	<rect x="177" y="108.047" fill="#2F292B" width="6" height="6"/>
	<rect x="177" y="114.047" fill="#2F292B" width="6" height="6"/>
	<rect x="177" y="96.059" fill="#2F292B" width="6" height="6"/>
	<rect x="177" y="102.059" fill="#525255" width="6" height="6"/>
	<rect x="183" y="108.047" fill="#2F292B" width="6" height="6"/>
	<rect x="183" y="114.047" fill="#2F292B" width="6" height="6"/>
	<rect x="171" y="120.047" fill="#2F292B" width="6" height="6"/>
	<rect x="177" y="138.012" fill="#EDD69F" width="6" height="6"/>
	<rect x="177" y="132.035" fill="#F0D0B4" width="6" height="6"/>
	<rect x="177" y="126.043" fill="#EEE1BF" width="6" height="6"/>
	<rect x="177" y="120.043" fill="#2F292B" width="6" height="6"/>
	<rect x="183" y="120.043" fill="#2F292B" width="6" height="6"/>
	<rect x="183" y="126.023" fill="#2F292B" width="6" height="6"/>
	<rect x="183" y="132.043" fill="#2F292B" width="6" height="6"/>
	<rect x="183" y="138.023" fill="#2F292B" width="6" height="6"/>
	<rect x="171" y="149.973" fill="#525255" width="6" height="6"/>
	<rect x="177" y="144" fill="#2F292B" width="6" height="6"/>
	<rect x="171" y="143.996" fill="#2F292B" width="6" height="6"/>
</g>
</svg>
