<?xml version="1.0" encoding="utf-8"?>
<!-- Generator: Adobe Illustrator 16.0.0, SVG Export Plug-In . SVG Version: 6.00 Build 0)  -->
<!DOCTYPE svg PUBLIC "-//W3C//DTD SVG 1.1//EN" "http://www.w3.org/Graphics/SVG/1.1/DTD/svg11.dtd">
<svg version="1.1" id="Layer_1" xmlns="http://www.w3.org/2000/svg" xmlns:xlink="http://www.w3.org/1999/xlink" x="0px" y="0px"
	 width="300px" height="300px" viewBox="0 0 300 300" enable-background="new 0 0 300 300" xml:space="preserve">
<g>
	<rect x="135" y="90.056" fill="#43251B" width="6" height="6"/>
	<rect x="141" y="90.056" fill="#231F20" width="6" height="6"/>
	<rect x="147" y="90.056" fill="#3E2D02" width="6" height="6"/>
	<rect x="123" y="102.044" fill="#231F20" width="6" height="6"/>
	<rect x="129" y="102.044" fill="#43251B" width="6" height="6"/>
	<rect x="135" y="102.044" fill="#3E2D02" width="6" height="6"/>
	<rect x="141" y="102.044" fill="#231F20" width="6" height="6"/>
	<rect x="147" y="102.044" fill="#3E2D02" width="6" height="6"/>
	<rect x="153" y="102.044" fill="#EDD69F" width="6" height="6"/>
	<rect x="123" y="108.044" fill="#43251B" width="6" height="6"/>
	<rect x="117" y="114.041" fill="#231F20" width="6" height="6"/>
	<rect x="129" y="108.044" fill="#231F20" width="6" height="6"/>
	<rect x="135" y="108.044" fill="#231F20" width="6" height="6"/>
	<rect x="141" y="108.044" fill="#EDD69F" width="6" height="6"/>
	<rect x="147" y="108.044" fill="#EDD69F" width="6" height="6"/>
	<rect x="153" y="108.044" fill="#231F20" width="6" height="6"/>
	<rect x="123" y="114.044" fill="#231F20" width="6" height="6"/>
	<rect x="129" y="114.044" fill="#EEE1BF" width="6" height="6"/>
	<rect x="123" y="120.021" fill="#EDD69F" width="6" height="6"/>
	<rect x="129" y="120.021" fill="#3E2D02" width="6" height="6"/>
	<rect x="123" y="131.982" fill="#EDD69F" width="6" height="6"/>
	<rect x="129" y="131.982" fill="#3B2314" width="6" height="6"/>
	<rect x="123" y="137.994" fill="#EDD69F" width="6" height="6"/>
	<rect x="129" y="137.994" fill="#EEE1BF" width="6" height="6"/>
	<rect x="123" y="143.982" fill="#EDD69F" width="6" height="6"/>
	<rect x="117" y="137.994" fill="#EDD69F" width="6" height="6"/>
	<rect x="111" y="137.994" fill="#EDD69F" width="6" height="6"/>
	<rect x="117" y="131.994" fill="#EEE1BF" width="6" height="6"/>
	<rect x="129" y="143.982" fill="#EDD69F" width="6" height="6"/>
	<rect x="141" y="143.982" fill="#EEE1BF" width="6" height="6"/>
	<rect x="135" y="143.982" fill="#EDD69F" width="6" height="6"/>
	<rect x="147" y="143.982" fill="#D5CBAD" width="6" height="6"/>
	<rect x="159" y="143.982" fill="#EDD69F" width="6" height="6"/>
	<rect x="153" y="143.982" fill="#EDD69F" width="6" height="6"/>
	<rect x="141" y="149.97" fill="#FFFFFF" width="6" height="6"/>
	<rect x="135" y="149.97" fill="#FFFFFF" width="6" height="6"/>
	<rect x="147" y="149.97" fill="#FFFFFF" width="6" height="6"/>
	<rect x="153" y="149.97" fill="#BB807B" width="6" height="6"/>
	<rect x="141" y="155.958" fill="#D28F8C" width="6" height="6"/>
	<rect x="135" y="155.958" fill="#D28F8C" width="6" height="6"/>
	<rect x="147" y="155.958" fill="#D28F8C" width="6" height="6"/>
	<rect x="153" y="155.958" fill="#EDD69F" width="6" height="6"/>
	<rect x="141" y="161.958" fill="#EDD69F" width="6" height="6"/>
	<rect x="135" y="161.958" fill="#EDD69F" width="6" height="6"/>
	<rect x="147" y="161.958" fill="#EDD69F" width="6" height="6"/>
	<rect x="141" y="173.966" fill="#EDD69F" width="6" height="6"/>
	<rect x="147" y="173.966" fill="#EEE1BF" width="6" height="6"/>
	<rect x="153" y="173.966" fill="#EDD69F" width="6" height="6"/>
	<rect x="141" y="167.958" fill="#EEE1BF" width="6" height="6"/>
	<rect x="147" y="167.958" fill="#EDD69F" width="6" height="6"/>
	<rect x="153" y="167.958" fill="#EDD69F" width="6" height="6"/>
	<rect x="141" y="179.935" fill="#D5CBAD" width="6" height="6"/>
	<rect x="147" y="179.935" fill="#EDD69F" width="6" height="6"/>
	<rect x="153" y="179.935" fill="#EDD69F" width="6" height="6"/>
	<rect x="153" y="161.958" fill="#EDD69F" width="6" height="6"/>
	<rect x="159" y="179.943" fill="#C3D2E0" width="6" height="6"/>
	<rect x="135" y="179.943" fill="#C3D2E0" width="6" height="6"/>
	<rect x="129" y="179.943" fill="#2E3192" width="6" height="6"/>
	<rect x="135" y="173.966" fill="#C3D2E0" width="6" height="6"/>
	<rect x="129" y="173.935" fill="#C3D2E0" width="6" height="6"/>
	<rect x="123" y="173.935" fill="#D7E4EB" width="6" height="6"/>
	<rect x="165" y="179.943" fill="#2E3192" width="6" height="6"/>
	<rect x="159" y="173.935" fill="#C3D2E0" width="6" height="6"/>
	<rect x="165" y="173.935" fill="#D7E4EB" width="6" height="6"/>
	<rect x="171" y="173.935" fill="#D7E4EB" width="6" height="6"/>
	<rect x="141" y="191.943" fill="#C3D2E0" width="6" height="6"/>
	<rect x="147" y="191.943" fill="#FFFFFF" width="6" height="6"/>
	<rect x="159" y="191.943" fill="#2E3192" width="6" height="6"/>
	<rect x="153" y="191.943" fill="#C3D2E0" width="6" height="6"/>
	<rect x="135" y="191.943" fill="#2E3192" width="6" height="6"/>
	<rect x="129" y="191.943" fill="#D7E4EB" width="6" height="6"/>
	<rect x="123" y="191.943" fill="#C3D2E0" width="6" height="6"/>
	<rect x="165" y="191.943" fill="#C3D2E0" width="6" height="6"/>
	<rect x="171" y="191.943" fill="#D7E4EB" width="6" height="6"/>
	<rect x="177" y="191.943" fill="#C3D2E0" width="6" height="6"/>
	<rect x="183" y="191.943" fill="#D7E4EB" width="6" height="6"/>
	<rect x="141" y="203.943" fill="#D7E4EB" width="6" height="6"/>
	<rect x="147" y="203.943" fill="#2E3192" width="6" height="6"/>
	<rect x="159" y="203.943" fill="#D7E4EB" width="6" height="6"/>
	<rect x="153" y="203.943" fill="#C3D2E0" width="6" height="6"/>
	<rect x="135" y="203.943" fill="#C3D2E0" width="6" height="6"/>
	<rect x="129" y="203.943" fill="#9CB6C8" width="6" height="6"/>
	<rect x="123" y="203.943" fill="#C3D2E0" width="6" height="6"/>
	<rect x="165" y="203.943" fill="#C3D2E0" width="6" height="6"/>
	<rect x="171" y="203.943" fill="#9CB6C8" width="6" height="6"/>
	<rect x="177" y="203.943" fill="#C3D2E0" width="6" height="6"/>
	<rect x="183" y="203.943" fill="#D7E4EB" width="6" height="6"/>
	<rect x="141" y="185.943" fill="#FFFFFF" width="6" height="6"/>
	<rect x="147" y="185.943" fill="#FFFFFF" width="6" height="6"/>
	<rect x="159" y="185.943" fill="#C3D2E0" width="6" height="6"/>
	<rect x="153" y="185.943" fill="#FFFFFF" width="6" height="6"/>
	<rect x="135" y="185.943" fill="#C3D2E0" width="6" height="6"/>
	<rect x="129" y="185.943" fill="#2E3192" width="6" height="6"/>
	<rect x="123" y="185.943" fill="#C3D2E0" width="6" height="6"/>
	<rect x="165" y="185.943" fill="#2E3192" width="6" height="6"/>
	<rect x="171" y="185.943" fill="#D7E4EB" width="6" height="6"/>
	<rect x="177" y="185.943" fill="#C3D2E0" width="6" height="6"/>
	<rect x="183" y="185.943" fill="#D7E4EB" width="6" height="6"/>
	<rect x="141" y="197.943" fill="#2E3192" width="6" height="6"/>
	<rect x="147" y="197.943" fill="#C3D2E0" width="6" height="6"/>
	<rect x="159" y="197.943" fill="#D7E4EB" width="6" height="6"/>
	<rect x="153" y="197.943" fill="#2E3192" width="6" height="6"/>
	<rect x="135" y="197.943" fill="#C3D2E0" width="6" height="6"/>
	<rect x="129" y="197.943" fill="#D7E4EB" width="6" height="6"/>
	<rect x="123" y="197.943" fill="#C3D2E0" width="6" height="6"/>
	<rect x="117" y="191.943" fill="#D7E4EB" width="6" height="6"/>
	<rect x="117" y="203.943" fill="#D7E4EB" width="6" height="6"/>
	<rect x="117" y="197.943" fill="#D7E4EB" width="6" height="6"/>
	<rect x="165" y="197.943" fill="#ED1C24" width="6" height="6"/>
	<rect x="171" y="197.943" fill="#D7E4EB" width="6" height="6"/>
	<rect x="177" y="197.943" fill="#C3D2E0" width="6" height="6"/>
	<rect x="183" y="197.943" fill="#D7E4EB" width="6" height="6"/>
	<rect x="165" y="143.982" fill="#EFC8A6" width="6" height="6"/>
	<rect x="159" y="137.994" fill="#231F20" width="6" height="6"/>
	<rect x="165" y="137.994" fill="#EDD69F" width="6" height="6"/>
	<rect x="159" y="155.958" fill="#EDD69F" width="6" height="6"/>
	<rect x="159" y="149.97" fill="#EDD69F" width="6" height="6"/>
	<rect x="165" y="149.97" fill="#EDD69F" width="6" height="6"/>
	<rect x="159" y="131.982" fill="#3E2D02" width="6" height="6"/>
	<rect x="165" y="131.982" fill="#EDD69F" width="6" height="6"/>
	<rect x="159" y="120.021" fill="#3E2D02" width="6" height="6"/>
	<rect x="165" y="120.021" fill="#3E2D02" width="6" height="6"/>
	<rect x="171" y="131.982" fill="#EDD69F" width="6" height="6"/>
	<rect x="171" y="125.994" fill="#3E2D02" width="6" height="6"/>
	<rect x="135" y="114.044" fill="#EDD69F" width="6" height="6"/>
	<rect x="141" y="114.044" fill="#EDD69F" width="6" height="6"/>
	<rect x="147" y="114.044" fill="#231F20" width="6" height="6"/>
	<rect x="153" y="114.044" fill="#3E2D02" width="6" height="6"/>
	<rect x="135" y="120.021" fill="#3E2D02" width="6" height="6"/>
	<rect x="141" y="120.021" fill="#EDD69F" width="6" height="6"/>
	<rect x="147" y="120.021" fill="#231F20" width="6" height="6"/>
	<rect x="153" y="120.021" fill="#3E2D02" width="6" height="6"/>
	<rect x="123" y="125.994" fill="#EEE1BF" width="6" height="6"/>
	<rect x="129" y="125.994" fill="#EDD69F" width="6" height="6"/>
	<rect x="159" y="125.994" fill="#3E2D02" width="6" height="6"/>
	<rect x="165" y="125.994" fill="#231F20" width="6" height="6"/>
	<rect x="135" y="125.994" fill="#EDD69F" width="6" height="6"/>
	<rect x="141" y="125.994" fill="#EDD69F" width="6" height="6"/>
	<rect x="147" y="125.994" fill="#EDD69F" width="6" height="6"/>
	<rect x="153" y="125.994" fill="#231F20" width="6" height="6"/>
	<rect x="135" y="131.982" fill="#FFFFFF" width="6" height="6"/>
	<rect x="141" y="131.982" fill="#EDD69F" width="6" height="6"/>
	<rect x="147" y="131.982" fill="#EDD69F" width="6" height="6"/>
	<rect x="153" y="131.982" fill="#231F20" width="6" height="6"/>
	<rect x="135" y="137.982" fill="#EDD69F" width="6" height="6"/>
	<rect x="141" y="137.982" fill="#D5CBAD" width="6" height="6"/>
	<rect x="147" y="137.982" fill="#EDD69F" width="6" height="6"/>
	<rect x="153" y="137.982" fill="#EDD69F" width="6" height="6"/>
	<rect x="159" y="102.044" fill="#3E2D02" width="6" height="6"/>
	<rect x="165" y="102.044" fill="#3E2D02" width="6" height="6"/>
	<rect x="129" y="96.056" fill="#231F20" width="6" height="6"/>
	<rect x="129" y="90.056" fill="#3E2D02" width="6" height="6"/>
	<rect x="123" y="96.056" fill="#3E2D02" width="6" height="6"/>
	<rect x="135" y="96.056" fill="#231F20" width="6" height="6"/>
	<rect x="141" y="96.056" fill="#3E2D02" width="6" height="6"/>
	<rect x="147" y="96.056" fill="#231F20" width="6" height="6"/>
	<rect x="153" y="96.056" fill="#3E2D02" width="6" height="6"/>
	<rect x="159" y="96.056" fill="#3E2D02" width="6" height="6"/>
	<rect x="153" y="90.056" fill="#3E2D02" width="6" height="6"/>
	<rect x="159" y="90.056" fill="#3E2D02" width="6" height="6"/>
	<rect x="165" y="96.056" fill="#3E2D02" width="6" height="6"/>
	<rect x="171" y="102.044" fill="#3E2D02" width="6" height="6"/>
	<rect x="171" y="96.056" fill="#3E2D02" width="6" height="6"/>
	<rect x="159" y="108.044" fill="#3C2415" width="6" height="6"/>
	<rect x="165" y="108.044" fill="#3E2D02" width="6" height="6"/>
	<rect x="159" y="114.044" fill="#231F20" width="6" height="6"/>
	<rect x="165" y="114.044" fill="#3C2415" width="6" height="6"/>
	<rect x="171" y="120.021" fill="#3C2415" width="6" height="6"/>
	<rect x="171" y="108.044" fill="#3E2D02" width="6" height="6"/>
	<rect x="177" y="108.044" fill="#3E2D02" width="6" height="6"/>
	<rect x="171" y="114.044" fill="#3E2D02" width="6" height="6"/>
	<rect x="177" y="132.009" fill="#3E2D02" width="6" height="6"/>
	<rect x="177" y="126.033" fill="#3E2D02" width="6" height="6"/>
	<rect x="177" y="120.041" fill="#3E2D02" width="6" height="6"/>
	<rect x="177" y="114.041" fill="#3E2D02" width="6" height="6"/>
	<rect x="171" y="143.97" fill="#3E2D02" width="6" height="6"/>
	<rect x="171" y="137.994" fill="#3E2D02" width="6" height="6"/>
</g>
</svg>
