<?xml version="1.0" encoding="utf-8"?>
<!-- Generator: Adobe Illustrator 16.0.0, SVG Export Plug-In . SVG Version: 6.00 Build 0)  -->
<!DOCTYPE svg PUBLIC "-//W3C//DTD SVG 1.1//EN" "http://www.w3.org/Graphics/SVG/1.1/DTD/svg11.dtd">
<svg version="1.1" id="Layer_1" xmlns="http://www.w3.org/2000/svg" xmlns:xlink="http://www.w3.org/1999/xlink" x="0px" y="0px"
	 width="300px" height="300px" viewBox="0 0 300 300" enable-background="new 0 0 300 300" xml:space="preserve">
<g>
	<rect x="126" y="75.08" fill="#F7E0CF" width="6" height="6"/>
	<rect x="132" y="75.08" fill="#D7BFAA" width="6" height="6"/>
	<rect x="138" y="75.08" fill="#D7BFAA" width="6" height="6"/>
	<rect x="144" y="75.08" fill="#BAA993" width="6" height="6"/>
	<rect x="120" y="87.08" fill="#F7E0CF" width="6" height="6"/>
	<rect x="126" y="87.08" fill="#EFD1B8" width="6" height="6"/>
	<rect x="132" y="87.08" fill="#EFD1B8" width="6" height="6"/>
	<rect x="138" y="87.08" fill="#EFD1B8" width="6" height="6"/>
	<rect x="144" y="87.08" fill="#F7E0CF" width="6" height="6"/>
	<rect x="150" y="87.08" fill="#BAA993" width="6" height="6"/>
	<rect x="120" y="93.08" fill="#EFD1B8" width="6" height="6"/>
	<rect x="126" y="93.08" fill="#EFD1B8" width="6" height="6"/>
	<rect x="120" y="99.057" fill="#F7E0CF" width="6" height="6"/>
	<rect x="126" y="99.057" fill="#F7E0CF" width="6" height="6"/>
	<rect x="120" y="111.018" fill="#231F20" width="6" height="6"/>
	<rect x="126" y="111.018" fill="#6C8394" width="6" height="6"/>
	<rect x="120" y="117.025" fill="#EAC4B2" width="6" height="6"/>
	<rect x="126" y="117.025" fill="#231F20" width="6" height="6"/>
	<rect x="120" y="123.018" fill="#231F20" width="6" height="6"/>
	<rect x="114" y="117.025" fill="#EFD1B8" width="6" height="6"/>
	<rect x="108" y="117.025" fill="#F7E0CF" width="6" height="6"/>
	<rect x="114" y="111.018" fill="#EFD1B8" width="6" height="6"/>
	<rect x="126" y="123.018" fill="#362906" width="6" height="6"/>
	<rect x="138" y="123.018" fill="#453308" width="6" height="6"/>
	<rect x="132" y="123.018" fill="#453308" width="6" height="6"/>
	<rect x="144" y="123.018" fill="#F7E0CF" width="6" height="6"/>
	<rect x="156" y="123.018" fill="#BAA993" width="6" height="6"/>
	<rect x="150" y="123.018" fill="#BAA993" width="6" height="6"/>
	<rect x="138" y="129.002" fill="#FFFFFF" width="6" height="6"/>
	<rect x="132" y="129.002" fill="#FFFFFF" width="6" height="6"/>
	<rect x="144" y="129.002" fill="#453308" width="6" height="6"/>
	<rect x="150" y="129.002" fill="#87816B" width="6" height="6"/>
	<rect x="138" y="134.994" fill="#C79C89" width="6" height="6"/>
	<rect x="132" y="134.994" fill="#C79C89" width="6" height="6"/>
	<rect x="144" y="134.994" fill="#3C2415" width="6" height="6"/>
	<rect x="150" y="134.994" fill="#87816B" width="6" height="6"/>
	<rect x="138" y="140.994" fill="#231F20" width="6" height="6"/>
	<rect x="132" y="140.994" fill="#231F20" width="6" height="6"/>
	<rect x="126" y="134.994" fill="#C79C89" width="6" height="6"/>
	<rect x="126" y="140.994" fill="#453308" width="6" height="6"/>
	<rect x="144" y="140.994" fill="#453308" width="6" height="6"/>
	<rect x="138" y="152.955" fill="#BAA993" width="6" height="6"/>
	<rect x="144" y="152.955" fill="#D7BFAA" width="6" height="6"/>
	<rect x="150" y="152.955" fill="#EFD1B8" width="6" height="6"/>
	<rect x="138" y="146.994" fill="#231F20" width="6" height="6"/>
	<rect x="132" y="146.994" fill="#453308" width="6" height="6"/>
	<rect x="138" y="152.955" fill="#231F20" width="6" height="6"/>
	<rect x="132" y="152.955" fill="#453308" width="6" height="6"/>
	<rect x="126" y="146.994" fill="#231F20" width="6" height="6"/>
	<rect x="144" y="146.994" fill="#231F20" width="6" height="6"/>
	<rect x="150" y="146.994" fill="#231F20" width="6" height="6"/>
	<rect x="150" y="140.994" fill="#231F20" width="6" height="6"/>
	<rect x="156" y="140.939" fill="#EAC4B2" width="6" height="6"/>
	<rect x="156" y="146.955" fill="#EAC4B2" width="6" height="6"/>
	<rect x="156" y="152.955" fill="#EFD1B8" width="6" height="6"/>
	<rect x="162" y="123.018" fill="#EFD1B8" width="6" height="6"/>
	<rect x="156" y="117.025" fill="#BAA993" width="6" height="6"/>
	<rect x="162" y="117.025" fill="#EAC4B2" width="6" height="6"/>
	<rect x="156" y="134.994" fill="#BAA993" width="6" height="6"/>
	<rect x="156" y="129.002" fill="#BAA993" width="6" height="6"/>
	<rect x="156" y="111.018" fill="#87816B" width="6" height="6"/>
	<rect x="162" y="111.018" fill="#EAC4B2" width="6" height="6"/>
	<rect x="156" y="99.057" fill="#87816B" width="6" height="6"/>
	<rect x="162" y="99.057" fill="#87816B" width="6" height="6"/>
	<rect x="168" y="111.018" fill="#F7E0CF" width="6" height="6"/>
	<rect x="168" y="105.025" fill="#F7E0CF" width="6" height="6"/>
	<rect x="132" y="93.08" fill="#EAC4B2" width="6" height="6"/>
	<rect x="138" y="93.08" fill="#EFD1B8" width="6" height="6"/>
	<rect x="144" y="93.08" fill="#BAA993" width="6" height="6"/>
	<rect x="150" y="93.08" fill="#BAA993" width="6" height="6"/>
	<rect x="132" y="99.057" fill="#F7E0CF" width="6" height="6"/>
	<rect x="138" y="99.057" fill="#EAC4B2" width="6" height="6"/>
	<rect x="144" y="99.057" fill="#EFD1B8" width="6" height="6"/>
	<rect x="150" y="99.057" fill="#BAA993" width="6" height="6"/>
	<rect x="120" y="105.025" fill="#231F20" width="6" height="6"/>
	<rect x="126" y="105.025" fill="#231F20" width="6" height="6"/>
	<rect x="156" y="105.025" fill="#231F20" width="6" height="6"/>
	<rect x="162" y="105.025" fill="#231F20" width="6" height="6"/>
	<rect x="132" y="105.025" fill="#231F20" width="6" height="6"/>
	<rect x="138" y="105.025" fill="#231F20" width="6" height="6"/>
	<rect x="144" y="105.025" fill="#231F20" width="6" height="6"/>
	<rect x="150" y="105.025" fill="#231F20" width="6" height="6"/>
	<rect x="132" y="111.018" fill="#FFFFFF" width="6" height="6"/>
	<rect x="138" y="111.018" fill="#231F20" width="6" height="6"/>
	<rect x="144" y="111.018" fill="#EFD1B8" width="6" height="6"/>
	<rect x="150" y="111.018" fill="#EFD1B8" width="6" height="6"/>
	<rect x="132" y="117.018" fill="#231F20" width="6" height="6"/>
	<rect x="138" y="117.018" fill="#F7E0CF" width="6" height="6"/>
	<rect x="144" y="117.018" fill="#EAC4B2" width="6" height="6"/>
	<rect x="150" y="117.018" fill="#BAA993" width="6" height="6"/>
	<rect x="120" y="81.08" fill="#F7E0CF" width="6" height="6"/>
	<rect x="126" y="81.08" fill="#F7E0CF" width="6" height="6"/>
	<rect x="132" y="81.08" fill="#EFD1B8" width="6" height="6"/>
	<rect x="138" y="81.08" fill="#EFD1B8" width="6" height="6"/>
	<rect x="144" y="81.08" fill="#F7E0CF" width="6" height="6"/>
	<rect x="150" y="81.08" fill="#F7E0CF" width="6" height="6"/>
	<rect x="156" y="81.08" fill="#BAA993" width="6" height="6"/>
	<rect x="150" y="75.08" fill="#BAA993" width="6" height="6"/>
	<rect x="156" y="87.08" fill="#BAA993" width="6" height="6"/>
	<rect x="162" y="87.08" fill="#BAA993" width="6" height="6"/>
	<rect x="156" y="93.08" fill="#BAA993" width="6" height="6"/>
	<rect x="162" y="93.08" fill="#BAA993" width="6" height="6"/>
	<rect x="168" y="117.025" fill="#EFD1B8" width="6" height="6"/>
	<rect x="144" y="164.92" fill="#EFD1B8" width="6" height="6"/>
	<rect x="150" y="164.92" fill="#EFD1B8" width="6" height="6"/>
	<rect x="144" y="158.92" fill="#BAA993" width="6" height="6"/>
	<rect x="150" y="158.92" fill="#EFD1B8" width="6" height="6"/>
	<rect x="156" y="158.92" fill="#EFD1B8" width="6" height="6"/>
	<rect x="162" y="158.92" fill="#323133" width="6" height="6"/>
	<rect x="168" y="158.92" fill="#808285" width="6" height="6"/>
	<rect x="174" y="152.951" fill="#808285" width="6" height="6"/>
	<rect x="174" y="158.92" fill="#808285" width="6" height="6"/>
	<rect x="174" y="146.951" fill="#5A5B5E" width="6" height="6"/>
	<rect x="180" y="152.951" fill="#808285" width="6" height="6"/>
	<rect x="180" y="146.951" fill="#808285" width="6" height="6"/>
	<rect x="174" y="140.994" fill="#808285" width="6" height="6"/>
	<rect x="168" y="140.994" fill="#808285" width="6" height="6"/>
	<rect x="162" y="140.994" fill="#808285" width="6" height="6"/>
	<rect x="168" y="146.951" fill="#5A5B5E" width="6" height="6"/>
	<rect x="168" y="152.951" fill="#5A5B5E" width="6" height="6"/>
	<rect x="162" y="146.951" fill="#5A5B5E" width="6" height="6"/>
	<rect x="162" y="152.951" fill="#5A5B5E" width="6" height="6"/>
	<rect x="162" y="164.92" fill="#323133" width="6" height="6"/>
	<rect x="156" y="164.92" fill="#323133" width="6" height="6"/>
	<rect x="138" y="164.92" fill="#323133" width="6" height="6"/>
	<rect x="126" y="164.92" fill="#C48714" width="6" height="6"/>
	<rect x="138" y="158.92" fill="#F7E0CF" width="6" height="6"/>
	<rect x="168" y="164.92" fill="#F1F2F2" width="6" height="6"/>
	<rect x="174" y="164.92" fill="#C48714" width="6" height="6"/>
	<rect x="180" y="164.92" fill="#808285" width="6" height="6"/>
	<rect x="144" y="176.92" fill="#231F20" width="6" height="6"/>
	<rect x="150" y="176.92" fill="#323133" width="6" height="6"/>
	<rect x="162" y="176.92" fill="#808285" width="6" height="6"/>
	<rect x="156" y="176.92" fill="#323133" width="6" height="6"/>
	<rect x="138" y="176.92" fill="#323133" width="6" height="6"/>
	<rect x="126" y="176.838" fill="#453308" width="6" height="6"/>
	<rect x="120" y="176.92" fill="#808285" width="6" height="6"/>
	<rect x="168" y="176.92" fill="#F1F2F2" width="6" height="6"/>
	<rect x="174" y="176.92" fill="#C48714" width="6" height="6"/>
	<rect x="180" y="176.92" fill="#808285" width="6" height="6"/>
	<rect x="186" y="176.92" fill="#808285" width="6" height="6"/>
	<rect x="144" y="188.92" fill="#323133" width="6" height="6"/>
	<rect x="150" y="188.92" fill="#323133" width="6" height="6"/>
	<rect x="162" y="188.92" fill="#808285" width="6" height="6"/>
	<rect x="156" y="188.92" fill="#323133" width="6" height="6"/>
	<rect x="138" y="188.92" fill="#231F20" width="6" height="6"/>
	<rect x="126" y="188.92" fill="#C48714" width="6" height="6"/>
	<rect x="120" y="188.92" fill="#453308" width="6" height="6"/>
	<rect x="168" y="188.92" fill="#808285" width="6" height="6"/>
	<rect x="174" y="188.92" fill="#C48714" width="6" height="6"/>
	<rect x="180" y="188.92" fill="#808285" width="6" height="6"/>
	<rect x="186" y="188.92" fill="#808285" width="6" height="6"/>
	<rect x="144" y="170.92" fill="#323133" width="6" height="6"/>
	<rect x="150" y="170.92" fill="#7DA0B3" width="6" height="6"/>
	<rect x="162" y="170.92" fill="#7DA0B3" width="6" height="6"/>
	<rect x="156" y="170.92" fill="#323133" width="6" height="6"/>
	<rect x="138" y="170.92" fill="#7DA0B3" width="6" height="6"/>
	<rect x="126" y="170.92" fill="#F1F2F2" width="6" height="6"/>
	<rect x="120" y="170.92" fill="#808285" width="6" height="6"/>
	<rect x="168" y="170.92" fill="#F1F2F2" width="6" height="6"/>
	<rect x="174" y="170.92" fill="#808285" width="6" height="6"/>
	<rect x="180" y="170.92" fill="#C48714" width="6" height="6"/>
	<rect x="186" y="170.92" fill="#808285" width="6" height="6"/>
	<rect x="144" y="182.92" fill="#231F20" width="6" height="6"/>
	<rect x="150" y="182.92" fill="#323133" width="6" height="6"/>
	<rect x="162" y="182.92" fill="#808285" width="6" height="6"/>
	<rect x="156" y="182.92" fill="#7DA0B3" width="6" height="6"/>
	<rect x="138" y="182.92" fill="#231F20" width="6" height="6"/>
	<rect x="126" y="182.92" fill="#231F20" width="6" height="6"/>
	<rect x="120" y="182.92" fill="#453308" width="6" height="6"/>
	<rect x="114" y="176.92" fill="#808285" width="6" height="6"/>
	<rect x="114" y="188.92" fill="#808285" width="6" height="6"/>
	<rect x="114" y="182.92" fill="#808285" width="6" height="6"/>
	<rect x="168" y="182.92" fill="#808285" width="6" height="6"/>
	<rect x="174" y="182.92" fill="#808285" width="6" height="6"/>
	<rect x="131.969" y="164.92" fill="#808285" width="6" height="6"/>
	<rect x="131.969" y="176.92" fill="#808285" width="6" height="6"/>
	<rect x="131.969" y="188.92" fill="#231F20" width="6" height="6"/>
	<rect x="131.969" y="170.92" fill="#C48714" width="6" height="6"/>
	<rect x="131.969" y="182.92" fill="#453308" width="6" height="6"/>
	<rect x="144" y="188.92" fill="#453308" width="6" height="6"/>
	<rect x="126" y="188.92" fill="#231F20" width="6" height="6"/>
	<rect x="138" y="200.92" fill="#231F20" width="6" height="6"/>
	<rect x="138" y="206.92" fill="#231F20" width="6" height="6"/>
	<rect x="138" y="212.92" fill="#231F20" width="6" height="6"/>
	<rect x="144" y="194.92" fill="#231F20" width="6" height="6"/>
	<rect x="144" y="200.92" fill="#231F20" width="6" height="6"/>
	<rect x="144" y="206.92" fill="#3C2415" width="6" height="6"/>
	<rect x="138" y="194.92" fill="#453308" width="6" height="6"/>
	<rect x="126" y="194.92" fill="#3C2415" width="6" height="6"/>
	<rect x="126" y="200.92" fill="#231F20" width="6" height="6"/>
	<rect x="131.969" y="200.92" fill="#453308" width="6" height="6"/>
	<rect x="131.969" y="206.92" fill="#231F20" width="6" height="6"/>
	<rect x="126" y="206.92" fill="#453308" width="6" height="6"/>
	<rect x="131.969" y="212.92" fill="#3C2415" width="6" height="6"/>
	<rect x="131.969" y="218.92" fill="#231F20" width="6" height="6"/>
	<rect x="126" y="218.92" fill="#231F20" width="6" height="6"/>
	<rect x="120" y="218.92" fill="#231F20" width="6" height="6"/>
	<rect x="114" y="218.92" fill="#453308" width="6" height="6"/>
	<rect x="126" y="212.92" fill="#453308" width="6" height="6"/>
	<rect x="120" y="212.92" fill="#231F20" width="6" height="6"/>
	<rect x="131.969" y="194.92" fill="#453308" width="6" height="6"/>
	<rect x="180" y="182.92" fill="#C48714" width="6" height="6"/>
	<rect x="186" y="182.92" fill="#808285" width="6" height="6"/>
	<rect x="138" y="158.896" fill="#453308" width="6" height="6"/>
	<rect x="132" y="158.896" fill="#231F20" width="6" height="6"/>
	<rect x="126" y="152.936" fill="#231F20" width="6" height="6"/>
	<rect x="120" y="146.994" fill="#231F20" width="6" height="6"/>
	<rect x="120" y="152.936" fill="#453308" width="6" height="6"/>
	<rect x="144" y="152.936" fill="#453308" width="6" height="6"/>
	<rect x="138" y="164.877" fill="#231F20" width="6" height="6"/>
	<rect x="132" y="164.877" fill="#453308" width="6" height="6"/>
	<rect x="126" y="158.916" fill="#453308" width="6" height="6"/>
	<rect x="120" y="158.916" fill="#231F20" width="6" height="6"/>
	<rect x="120" y="164.928" fill="#453308" width="6" height="6"/>
	<rect x="120" y="170.908" fill="#231F20" width="6" height="6"/>
	<rect x="120" y="176.92" fill="#3C2415" width="6" height="6"/>
	<rect x="144" y="158.916" fill="#231F20" width="6" height="6"/>
	<rect x="138" y="170.857" fill="#231F20" width="6" height="6"/>
	<rect x="132" y="170.857" fill="#453308" width="6" height="6"/>
	<rect x="126" y="164.896" fill="#3C2415" width="6" height="6"/>
	<rect x="144" y="164.896" fill="#231F20" width="6" height="6"/>
	<rect x="138" y="176.838" fill="#231F20" width="6" height="6"/>
	<rect x="132" y="176.838" fill="#231F20" width="6" height="6"/>
	<rect x="126" y="170.877" fill="#231F20" width="6" height="6"/>
	<rect x="144" y="170.877" fill="#3C2415" width="6" height="6"/>
</g>
</svg>
