<?xml version="1.0" encoding="utf-8"?>
<!-- Generator: Adobe Illustrator 16.0.0, SVG Export Plug-In . SVG Version: 6.00 Build 0)  -->
<!DOCTYPE svg PUBLIC "-//W3C//DTD SVG 1.1//EN" "http://www.w3.org/Graphics/SVG/1.1/DTD/svg11.dtd">
<svg version="1.1" id="Layer_1" xmlns="http://www.w3.org/2000/svg" xmlns:xlink="http://www.w3.org/1999/xlink" x="0px" y="0px"
	 width="300px" height="300px" viewBox="0 0 300 300" enable-background="new 0 0 300 300" xml:space="preserve">
<g>
	<rect x="114" y="135.049" fill="#EEE1BF" width="6" height="6"/>
	<rect x="108" y="135.049" fill="#EEE1BF" width="6" height="6"/>
	<rect x="114" y="129.049" fill="#EEE1BF" width="6" height="6"/>
	<rect x="138" y="194.971" fill="#00B3AB" width="6" height="6"/>
	<rect x="144" y="194.971" fill="#00B3AB" width="6" height="6"/>
	<rect x="156" y="194.971" fill="#4D301C" width="6" height="6"/>
	<rect x="150" y="194.971" fill="#00B3AB" width="6" height="6"/>
	<rect x="132" y="194.971" fill="#8AC2B6" width="6" height="6"/>
	<rect x="126" y="194.971" fill="#4D301C" width="6" height="6"/>
	<rect x="120" y="194.971" fill="#8AC2B6" width="6" height="6"/>
	<rect x="162" y="194.971" fill="#4D301C" width="6" height="6"/>
	<rect x="168" y="194.971" fill="#4D301C" width="6" height="6"/>
	<rect x="180" y="194.971" fill="#8AC2B6" width="6" height="6"/>
	<rect x="186" y="194.971" fill="#8AC2B6" width="6" height="6"/>
	<rect x="138" y="206.971" fill="#FFFFFF" width="6" height="6"/>
	<rect x="144" y="206.971" fill="#8AC2B6" width="6" height="6"/>
	<rect x="156" y="206.971" fill="#8AC2B6" width="6" height="6"/>
	<rect x="150" y="206.971" fill="#FFFFFF" width="6" height="6"/>
	<rect x="132" y="206.971" fill="#8AC2B6" width="6" height="6"/>
	<rect x="126" y="206.971" fill="#8AC2B6" width="6" height="6"/>
	<rect x="120" y="206.971" fill="#EEE1BF" width="6" height="6"/>
	<rect x="162" y="206.971" fill="#8AC2B6" width="6" height="6"/>
	<rect x="168" y="206.971" fill="#4D301C" width="6" height="6"/>
	<rect x="180" y="206.971" fill="#EEE1BF" width="6" height="6"/>
	<rect x="186" y="206.971" fill="#EEE1BF" width="6" height="6"/>
	<rect x="138" y="188.971" fill="#EEE1BF" width="6" height="6"/>
	<rect x="144" y="188.971" fill="#EEE1BF" width="6" height="6"/>
	<rect x="156" y="188.971" fill="#2F292B" width="6" height="6"/>
	<rect x="150" y="188.975" fill="#EEE1BF" width="6" height="6"/>
	<rect x="144" y="182.971" fill="#EEE1BF" width="6" height="6"/>
	<rect x="150" y="182.775" fill="#2F292B" width="6" height="6"/>
	<rect x="132" y="188.971" fill="#00B3AB" width="6" height="6"/>
	<rect x="120" y="188.971" fill="#8AC2B6" width="6" height="6"/>
	<rect x="162" y="188.971" fill="#42607E" width="6" height="6"/>
	<rect x="168" y="188.971" fill="#4D301C" width="6" height="6"/>
	<rect x="180" y="188.971" fill="#8AC2B6" width="6" height="6"/>
	<rect x="186" y="188.971" fill="#8AC2B6" width="6" height="6"/>
	<rect x="120" y="183.025" fill="#8AC2B6" width="6" height="6"/>
	<rect x="138" y="200.971" fill="#8AC2B6" width="6" height="6"/>
	<rect x="144" y="200.971" fill="#8AC2B6" width="6" height="6"/>
	<rect x="156" y="200.971" fill="#8AC2B6" width="6" height="6"/>
	<rect x="150" y="200.971" fill="#8AC2B6" width="6" height="6"/>
	<rect x="132" y="200.971" fill="#8AC2B6" width="6" height="6"/>
	<rect x="126" y="200.971" fill="#8AC2B6" width="6" height="6"/>
	<rect x="120" y="200.971" fill="#00B3AB" width="6" height="6"/>
	<rect x="114" y="194.971" fill="#8AC2B6" width="6" height="6"/>
	<rect x="114" y="206.971" fill="#EFCFC0" width="6" height="6"/>
	<rect x="114" y="188.971" fill="#8AC2B6" width="6" height="6"/>
	<rect x="114" y="200.971" fill="#00B3AB" width="6" height="6"/>
	<rect x="162" y="200.971" fill="#4D301C" width="6" height="6"/>
	<rect x="168" y="200.971" fill="#4D301C" width="6" height="6"/>
	<rect x="180" y="200.971" fill="#00B3AB" width="6" height="6"/>
	<rect x="186" y="200.971" fill="#00B3AB" width="6" height="6"/>
	<rect x="114" y="105.029" fill="#CE782A" width="6" height="6"/>
	<rect x="120" y="105.029" fill="#CE782A" width="6" height="6"/>
	<rect x="126" y="105.029" fill="#CE782A" width="6" height="6"/>
	<rect x="132" y="105.029" fill="#CE782A" width="6" height="6"/>
	<rect x="138" y="105.029" fill="#995925" width="6" height="6"/>
	<rect x="144" y="105.029" fill="#CE782A" width="6" height="6"/>
	<rect x="120" y="111.029" fill="#EEE1BF" width="6" height="6"/>
	<rect x="126" y="111.029" fill="#EEE1BF" width="6" height="6"/>
	<rect x="132" y="111.029" fill="#EEE1BF" width="6" height="6"/>
	<rect x="138" y="111.029" fill="#B4AC93" width="6" height="6"/>
	<rect x="144" y="111.029" fill="#C2B99F" width="6" height="6"/>
	<rect x="120" y="117.029" fill="#EEE1BF" width="6" height="6"/>
	<rect x="120" y="123.006" fill="#EEE1BF" width="6" height="6"/>
	<rect x="120" y="128.998" fill="#EEE1BF" width="6" height="6"/>
	<rect x="120" y="135.006" fill="#EEE1BF" width="6" height="6"/>
	<rect x="120" y="140.998" fill="#EEE1BF" width="6" height="6"/>
	<rect x="132" y="140.998" fill="#EEE1BF" width="6" height="6"/>
	<rect x="126" y="140.998" fill="#EEE1BF" width="6" height="6"/>
	<rect x="138" y="140.998" fill="#EFCFC0" width="6" height="6"/>
	<rect x="150" y="140.998" fill="#EEE1BF" width="6" height="6"/>
	<rect x="144" y="140.998" fill="#EFCFC0" width="6" height="6"/>
	<rect x="132" y="146.982" fill="#FFFFFF" width="6" height="6"/>
	<rect x="126" y="146.982" fill="#FFFFFF" width="6" height="6"/>
	<rect x="138" y="146.982" fill="#FFFFFF" width="6" height="6"/>
	<rect x="144" y="146.982" fill="#BB807B" width="6" height="6"/>
	<rect x="132" y="152.975" fill="#D28F8C" width="6" height="5.996"/>
	<rect x="126" y="152.975" fill="#D28F8C" width="6" height="5.996"/>
	<rect x="138" y="152.975" fill="#BB807B" width="6" height="5.996"/>
	<rect x="144" y="152.975" fill="#EEE1BF" width="6" height="5.996"/>
	<rect x="132" y="158.971" fill="#EEE1BF" width="6" height="6"/>
	<rect x="126" y="158.971" fill="#EEE1BF" width="6" height="6"/>
	<rect x="138" y="158.971" fill="#EEE1BF" width="6" height="6"/>
	<rect x="132" y="164.971" fill="#EEE1BF" width="6" height="6"/>
	<rect x="138" y="164.971" fill="#EEE1BF" width="6" height="6"/>
	<rect x="138" y="170.971" fill="#FCFADF" width="6" height="6"/>
	<rect x="144" y="164.971" fill="#D5CBAD" width="6" height="6"/>
	<rect x="144" y="158.971" fill="#EEE1BF" width="6" height="6"/>
	<rect x="150" y="158.971" fill="#EEE1BF" width="6" height="6"/>
	<rect x="144" y="170.971" fill="#FFFFFF" width="6" height="6"/>
	<rect x="156" y="170.971" fill="#734A1D" width="6" height="6"/>
	<rect x="150" y="170.971" fill="#4D301C" width="6" height="6"/>
	<rect x="144" y="170.971" fill="#EEE1BF" width="6" height="6"/>
	<rect x="144" y="176.971" fill="#EEE1BF" width="6" height="6"/>
	<rect x="150" y="176.971" fill="#4D301C" width="6" height="6"/>
	<rect x="162" y="170.971" fill="#2F292B" width="6" height="6"/>
	<rect x="138" y="176.971" fill="#EEE1BF" width="6" height="6"/>
	<rect x="156" y="176.971" fill="#9B724E" width="6" height="6"/>
	<rect x="156" y="182.971" fill="#4D301C" width="6" height="6"/>
	<rect x="138" y="182.971" fill="#EEE1BF" width="6" height="6"/>
	<rect x="156" y="140.998" fill="#4D301C" width="6" height="6"/>
	<rect x="150" y="135.006" fill="#4D301C" width="6" height="6"/>
	<rect x="156" y="135.006" fill="#4D301C" width="6" height="6"/>
	<rect x="150" y="152.975" fill="#EEE1BF" width="6" height="5.996"/>
	<rect x="156" y="152.975" fill="#4D301C" width="6" height="5.996"/>
	<rect x="150" y="146.982" fill="#EEE1BF" width="6" height="6"/>
	<rect x="156" y="146.982" fill="#4D301C" width="6" height="6"/>
	<rect x="150" y="128.998" fill="#EEE1BF" width="6" height="6"/>
	<rect x="156" y="128.998" fill="#B4AC93" width="6" height="6"/>
	<rect x="150" y="123.006" fill="#EEE1BF" width="6" height="6"/>
	<rect x="156" y="123.006" fill="#C2B99F" width="6" height="6"/>
	<rect x="162" y="128.998" fill="#C2B99F" width="6" height="6"/>
	<rect x="162" y="123.006" fill="#C2B99F" width="6" height="6"/>
	<rect x="126" y="117.021" fill="#C2B99F" width="6" height="6"/>
	<rect x="132" y="117.021" fill="#C2B99F" width="6" height="6"/>
	<rect x="138" y="117.006" fill="#EEE1BF" width="6" height="6"/>
	<rect x="144" y="117.029" fill="#B4AC93" width="6" height="6"/>
	<rect x="126" y="123.006" fill="#EEE1BF" width="6" height="6"/>
	<rect x="132" y="123.006" fill="#EEE1BF" width="6" height="6"/>
	<rect x="138" y="122.998" fill="#EEE1BF" width="6" height="6"/>
	<rect x="144" y="122.982" fill="#4D301C" width="6" height="6"/>
	<rect x="126" y="128.998" fill="#8D9C8E" width="6" height="6"/>
	<rect x="132" y="128.998" fill="#FFFFFF" width="6" height="6"/>
	<rect x="126" y="134.998" fill="#EEE1BF" width="6" height="6"/>
	<rect x="132" y="134.998" fill="#EEE1BF" width="6" height="6"/>
	<rect x="138" y="128.998" fill="#FCFADF" width="6" height="6"/>
	<rect x="144" y="128.998" fill="#EEE1BF" width="6" height="6"/>
	<rect x="138" y="134.998" fill="#EFCFC0" width="6" height="6"/>
	<rect x="144" y="134.998" fill="#EFCFC0" width="6" height="6"/>
	<rect x="150" y="105.029" fill="#CE782A" width="6" height="6"/>
	<rect x="156" y="105.029" fill="#CE782A" width="6" height="6"/>
	<rect x="150" y="93.045" fill="#CE782A" width="6" height="6"/>
	<rect x="156" y="93.045" fill="#CE782A" width="6" height="6"/>
	<rect x="156" y="99.045" fill="#CE782A" width="6" height="6"/>
	<rect x="162" y="99.045" fill="#CE782A" width="6" height="6"/>
	<rect x="162" y="93.045" fill="#CE782A" width="6" height="6"/>
	<rect x="120" y="99.045" fill="#CE782A" width="6" height="6"/>
	<rect x="126" y="99.045" fill="#CE782A" width="6" height="6"/>
	<rect x="132" y="99.045" fill="#995925" width="6" height="6"/>
	<rect x="138" y="99.045" fill="#B7752F" width="6" height="6"/>
	<rect x="144" y="99.045" fill="#CE782A" width="6" height="6"/>
	<rect x="126" y="93.045" fill="#995925" width="6" height="6"/>
	<rect x="132" y="93.045" fill="#B7752F" width="6" height="6"/>
	<rect x="138" y="93.045" fill="#B7752F" width="6" height="6"/>
	<rect x="144" y="93.045" fill="#B7752F" width="6" height="6"/>
	<rect x="132" y="87.029" fill="#B7752F" width="6" height="6"/>
	<rect x="138" y="87.029" fill="#B7752F" width="6" height="6"/>
	<rect x="144" y="87.029" fill="#B7752F" width="6" height="6"/>
	<rect x="150" y="87.029" fill="#B7752F" width="6" height="6"/>
	<rect x="150" y="99.045" fill="#CE782A" width="6" height="6"/>
	<rect x="150" y="111.029" fill="#CE782A" width="6" height="6"/>
	<rect x="150" y="123.006" fill="#B4AC93" width="6" height="6"/>
	<rect x="150" y="128.998" fill="#4D301C" width="6" height="6"/>
	<rect x="156" y="111.029" fill="#CE782A" width="6" height="6"/>
	<rect x="162" y="111.029" fill="#CE782A" width="6" height="6"/>
	<rect x="162" y="105.029" fill="#CE782A" width="6" height="6"/>
	<rect x="168" y="105.029" fill="#CE782A" width="6" height="6"/>
	<rect x="168" y="98.99" fill="#CE782A" width="6" height="6"/>
	<rect x="162" y="117.029" fill="#C2B99F" width="6" height="6"/>
	<rect x="168" y="117.029" fill="#CE782A" width="6" height="6"/>
	<rect x="168" y="111.029" fill="#CE782A" width="6" height="6"/>
	<rect x="168" y="123.029" fill="#C2B99F" width="6" height="6"/>
	<rect x="168" y="128.998" fill="#C2B99F" width="6" height="6"/>
	<rect x="168" y="141.006" fill="#734A1D" width="6" height="6"/>
	<rect x="168" y="135.006" fill="#4D301C" width="6" height="6"/>
	<rect x="168" y="147.006" fill="#4D301C" width="6" height="6"/>
	<rect x="174" y="123.029" fill="#CE782A" width="6" height="6"/>
	<rect x="174" y="128.998" fill="#4D301C" width="6" height="6"/>
	<rect x="174" y="117.068" fill="#CE782A" width="6" height="6"/>
	<rect x="174" y="111.033" fill="#CE782A" width="6" height="6"/>
	<rect x="174" y="135.006" fill="#4D301C" width="6" height="6"/>
	<rect x="174" y="141.006" fill="#4D301C" width="6" height="6"/>
	<rect x="174" y="147.006" fill="#4D301C" width="6" height="6"/>
	<rect x="162" y="141.006" fill="#9B724E" width="6" height="6"/>
	<rect x="162" y="135.006" fill="#B4AC93" width="6" height="6"/>
	<rect x="162" y="147.006" fill="#734A1D" width="6" height="6"/>
	<rect x="168" y="152.975" fill="#4D301C" width="6" height="5.996"/>
	<rect x="174" y="152.975" fill="#4D301C" width="6" height="5.996"/>
	<rect x="162" y="152.975" fill="#734A1D" width="6" height="5.996"/>
	<rect x="168" y="158.971" fill="#734A1D" width="6" height="6"/>
	<rect x="174" y="158.971" fill="#4D301C" width="6" height="6"/>
	<rect x="162" y="176.971" fill="#734A1D" width="6" height="6"/>
	<rect x="162" y="182.971" fill="#9B724E" width="6" height="6"/>
	<rect x="162" y="188.971" fill="#4D301C" width="6" height="6"/>
	<rect x="168" y="170.971" fill="#4D301C" width="6" height="6"/>
	<rect x="174" y="164.971" fill="#4D301C" width="6" height="6"/>
	<rect x="168" y="176.971" fill="#4D301C" width="6" height="6"/>
	<rect x="174" y="170.971" fill="#734A1D" width="6" height="6"/>
	<rect x="174" y="176.971" fill="#4D301C" width="6" height="6"/>
	<rect x="180" y="147.006" fill="#4D301C" width="6" height="6"/>
	<rect x="180" y="152.975" fill="#734A1D" width="6" height="5.996"/>
	<rect x="180" y="158.971" fill="#4D301C" width="6" height="6"/>
	<rect x="180" y="182.971" fill="#8AC2B6" width="6" height="6"/>
	<rect x="174" y="194.971" fill="#8AC2B6" width="6" height="6"/>
	<rect x="174" y="206.971" fill="#EFCFC0" width="6" height="6"/>
	<rect x="174" y="188.971" fill="#8AC2B6" width="6" height="6"/>
	<rect x="174" y="200.971" fill="#00B3AB" width="6" height="6"/>
	<rect x="174" y="182.971" fill="#8AC2B6" width="6" height="6"/>
	<rect x="168" y="182.971" fill="#734A1D" width="6" height="6"/>
	<rect x="132" y="170.971" fill="#4D301C" width="6" height="6"/>
	<rect x="132" y="176.971" fill="#4D301C" width="6" height="6"/>
	<rect x="126" y="182.971" fill="#4D301C" width="6" height="6"/>
	<rect x="126" y="170.971" fill="#734A1D" width="6" height="6"/>
	<rect x="126" y="164.932" fill="#4D301C" width="6" height="6"/>
	<rect x="126" y="176.971" fill="#734A1D" width="6" height="6"/>
	<rect x="132" y="182.971" fill="#734A1D" width="6" height="6"/>
	<rect x="126" y="188.971" fill="#4D301C" width="6" height="6"/>
	<rect x="162" y="158.971" fill="#4D301C" width="6" height="6"/>
	<rect x="168" y="164.971" fill="#4D301C" width="6" height="6"/>
	<rect x="162" y="164.971" fill="#4D301C" width="6" height="6"/>
	<rect x="156" y="158.971" fill="#4D301C" width="6" height="6"/>
	<rect x="156" y="164.971" fill="#734A1D" width="6" height="6"/>
	<rect x="150" y="164.971" fill="#4D301C" width="6" height="6"/>
	<rect x="162" y="170.971" fill="#4D301C" width="6" height="6"/>
	<rect x="150" y="117.029" fill="#C2B99F" width="6" height="6"/>
	<rect x="156" y="117.029" fill="#C2B99F" width="6" height="6"/>
</g>
</svg>
