<?xml version="1.0" encoding="utf-8"?>
<!-- Generator: Adobe Illustrator 16.0.0, SVG Export Plug-In . SVG Version: 6.00 Build 0)  -->
<!DOCTYPE svg PUBLIC "-//W3C//DTD SVG 1.1//EN" "http://www.w3.org/Graphics/SVG/1.1/DTD/svg11.dtd">
<svg version="1.1" id="Layer_1" xmlns="http://www.w3.org/2000/svg" xmlns:xlink="http://www.w3.org/1999/xlink" x="0px" y="0px"
	 width="300px" height="300px" viewBox="0 0 300 300" enable-background="new 0 0 300 300" xml:space="preserve">
<g>
	<rect x="116.328" y="97.529" fill="#734A1D" width="7.5" height="7.5"/>
	<rect x="108.828" y="97.529" fill="#4D301C" width="7.5" height="7.5"/>
	<rect x="108.828" y="105.029" fill="#734A1D" width="7.5" height="7.5"/>
	<rect x="101.328" y="105.029" fill="#4D301C" width="7.5" height="7.5"/>
	<rect x="123.828" y="97.529" fill="#4D301C" width="7.5" height="7.5"/>
	<rect x="131.328" y="97.529" fill="#4D301C" width="7.5" height="7.5"/>
	<rect x="138.828" y="97.529" fill="#4D301C" width="7.5" height="7.5"/>
	<rect x="146.328" y="97.529" fill="#734A1D" width="7.5" height="7.5"/>
	<rect x="153.828" y="97.529" fill="#4D301C" width="7.5" height="7.5"/>
	<rect x="116.328" y="105.029" fill="#EDD69F" width="7.5" height="7.5"/>
	<rect x="123.828" y="105.029" fill="#734A1D" width="7.5" height="7.5"/>
	<rect x="131.328" y="105.029" fill="#EDD69F" width="7.5" height="7.5"/>
	<rect x="138.828" y="105.029" fill="#EDD69F" width="7.5" height="7.5"/>
	<rect x="146.328" y="105.029" fill="#734A1D" width="7.5" height="7.5"/>
	<rect x="116.328" y="112.529" fill="#734A1D" width="7.5" height="7.5"/>
	<rect x="123.828" y="112.529" fill="#EDD69F" width="7.5" height="7.5"/>
	<rect x="131.328" y="112.529" fill="#734A1D" width="7.5" height="7.5"/>
	<rect x="138.828" y="112.529" fill="#EDD69F" width="7.5" height="7.5"/>
	<rect x="146.328" y="112.529" fill="#EDD69F" width="7.5" height="7.5"/>
	<rect x="153.828" y="105.029" fill="#EDD69F" width="7.5" height="7.5"/>
	<rect x="116.172" y="120.029" fill="#2F292B" width="7.5" height="7.5"/>
	<rect x="123.672" y="120.029" fill="#2F292B" width="7.5" height="7.5"/>
	<rect x="116.172" y="127.5" fill="#2F292B" width="7.5" height="7.5"/>
	<rect x="123.672" y="127.5" fill="#00A456" width="7.5" height="7.5"/>
	<rect x="116.172" y="134.985" fill="#2F292B" width="7.5" height="7.5"/>
	<rect x="123.672" y="134.985" fill="#2F292B" width="7.5" height="7.5"/>
	<rect x="116.172" y="142.5" fill="#EDD69F" width="7.5" height="7.5"/>
	<rect x="123.672" y="142.5" fill="#EDD69F" width="7.5" height="7.5"/>
	<rect x="116.172" y="149.985" fill="#EDD69F" width="7.5" height="7.5"/>
	<rect x="108.672" y="142.485" fill="#EDD69F" width="7.5" height="7.5"/>
	<rect x="108.672" y="134.985" fill="#CBC0A9" width="7.5" height="7.5"/>
	<rect x="123.672" y="149.985" fill="#EDD69F" width="7.5" height="7.5"/>
	<rect x="138.672" y="149.985" fill="#EDD69F" width="7.5" height="7.5"/>
	<rect x="131.172" y="149.985" fill="#EDD69F" width="7.5" height="7.5"/>
	<rect x="146.172" y="149.985" fill="#EDD69F" width="7.5" height="7.5"/>
	<rect x="161.172" y="149.985" fill="#EDD69F" width="7.5" height="7.5"/>
	<rect x="153.672" y="149.985" fill="#EDD69F" width="7.5" height="7.5"/>
	<rect x="138.672" y="157.471" fill="#FFFFFF" width="7.5" height="7.5"/>
	<rect x="131.172" y="157.471" fill="#FFFFFF" width="7.5" height="7.5"/>
	<rect x="146.172" y="157.471" fill="#FFFFFF" width="7.5" height="7.5"/>
	<rect x="153.672" y="157.471" fill="#C7293B" width="7.5" height="7.5"/>
	<rect x="138.672" y="164.956" fill="#C7293B" width="7.5" height="7.5"/>
	<rect x="131.172" y="164.956" fill="#C7293B" width="7.5" height="7.5"/>
	<rect x="146.172" y="164.956" fill="#C7293B" width="7.5" height="7.5"/>
	<rect x="153.672" y="164.956" fill="#EDD69F" width="7.5" height="7.5"/>
	<rect x="138.672" y="172.456" fill="#EDD69F" width="7.5" height="7.5"/>
	<rect x="131.172" y="172.456" fill="#EDD69F" width="7.5" height="7.5"/>
	<rect x="146.172" y="172.456" fill="#EDD69F" width="7.5" height="7.5"/>
	<rect x="138.672" y="179.956" fill="#EDD69F" width="7.5" height="7.5"/>
	<rect x="146.172" y="179.956" fill="#EDD69F" width="7.5" height="7.5"/>
	<rect x="138.672" y="187.456" fill="#EDD69F" width="7.5" height="7.5"/>
	<rect x="146.172" y="187.456" fill="#EDD69F" width="7.5" height="7.5"/>
	<rect x="153.672" y="179.956" fill="#EDD69F" width="7.5" height="7.5"/>
	<rect x="153.672" y="172.456" fill="#EDD69F" width="7.5" height="7.5"/>
	<rect x="161.172" y="172.456" fill="#EDD69F" width="7.5" height="7.5"/>
	<rect x="161.172" y="179.956" fill="#4D301C" width="7.5" height="7.5"/>
	<rect x="168.672" y="179.956" fill="#4D301C" width="7.5" height="7.5"/>
	<rect x="168.672" y="172.456" fill="#4D301C" width="7.5" height="7.5"/>
	<rect x="176.172" y="179.956" fill="#4D301C" width="7.5" height="7.5"/>
	<rect x="161.172" y="187.456" fill="#4D301C" width="7.5" height="7.5"/>
	<rect x="153.672" y="187.456" fill="#EDD69F" width="7.5" height="7.5"/>
	<rect x="131.172" y="187.456" fill="#4D301C" width="7.5" height="7.5"/>
	<rect x="123.672" y="187.456" fill="#4D301C" width="7.5" height="7.5"/>
	<rect x="168.672" y="187.456" fill="#4D301C" width="7.5" height="7.5"/>
	<rect x="176.172" y="187.456" fill="#B5B7B9" width="7.5" height="7.5"/>
	<rect x="183.672" y="179.956" fill="#4D301C" width="7.5" height="7.5"/>
	<rect x="183.672" y="187.456" fill="#919295" width="7.5" height="7.5"/>
	<rect x="191.172" y="187.456" fill="#B5B7B9" width="7.5" height="7.5"/>
	<rect x="138.672" y="194.956" fill="#B68D63" width="7.5" height="7.5"/>
	<rect x="146.172" y="194.956" fill="#EDD69F" width="7.5" height="7.5"/>
	<rect x="161.172" y="194.956" fill="#4D301C" width="7.5" height="7.5"/>
	<rect x="153.672" y="194.956" fill="#B68D63" width="7.5" height="7.5"/>
	<rect x="131.172" y="194.956" fill="#4D301C" width="7.5" height="7.5"/>
	<rect x="123.672" y="194.956" fill="#4D301C" width="7.5" height="7.5"/>
	<rect x="116.172" y="194.956" fill="#B5B7B9" width="7.5" height="7.5"/>
	<rect x="168.672" y="194.956" fill="#4D301C" width="7.5" height="7.5"/>
	<rect x="176.172" y="194.956" fill="#919295" width="7.5" height="7.5"/>
	<rect x="183.672" y="194.956" fill="#B5B7B9" width="7.5" height="7.5"/>
	<rect x="191.172" y="194.956" fill="#919295" width="7.5" height="7.5"/>
	<rect x="138.672" y="202.456" fill="#919295" width="7.5" height="7.5"/>
	<rect x="146.172" y="202.456" fill="#F6EC45" width="7.5" height="7.5"/>
	<rect x="161.172" y="202.456" fill="#4D301C" width="7.5" height="7.5"/>
	<rect x="153.672" y="202.456" fill="#919295" width="7.5" height="7.5"/>
	<rect x="131.172" y="202.456" fill="#4D301C" width="7.5" height="7.5"/>
	<rect x="123.672" y="202.456" fill="#4D301C" width="7.5" height="7.5"/>
	<rect x="116.172" y="202.456" fill="#B5B7B9" width="7.5" height="7.5"/>
	<rect x="168.672" y="202.456" fill="#4D301C" width="7.5" height="7.5"/>
	<rect x="176.172" y="202.456" fill="#B5B7B9" width="7.5" height="7.5"/>
	<rect x="183.672" y="202.456" fill="#919295" width="7.5" height="7.5"/>
	<rect x="191.172" y="202.456" fill="#B5B7B9" width="7.5" height="7.5"/>
	<rect x="138.672" y="209.956" fill="#4D301C" width="7.5" height="7.5"/>
	<rect x="146.172" y="209.956" fill="#919295" width="7.5" height="7.5"/>
	<rect x="161.172" y="209.956" fill="#4D301C" width="7.5" height="7.5"/>
	<rect x="153.672" y="209.956" fill="#4D301C" width="7.5" height="7.5"/>
	<rect x="131.172" y="209.956" fill="#4D301C" width="7.5" height="7.5"/>
	<rect x="123.672" y="209.956" fill="#4D301C" width="7.5" height="7.5"/>
	<rect x="116.172" y="209.956" fill="#6C6D70" width="7.5" height="7.5"/>
	<rect x="168.672" y="209.956" fill="#4D301C" width="7.5" height="7.5"/>
	<rect x="176.172" y="209.956" fill="#6C6D70" width="7.5" height="7.5"/>
	<rect x="183.672" y="209.956" fill="#6C6D70" width="7.5" height="7.5"/>
	<rect x="191.172" y="209.956" fill="#6C6D70" width="7.5" height="7.5"/>
	<rect x="138.672" y="217.456" fill="#4D301C" width="7.5" height="7.5"/>
	<rect x="146.172" y="217.456" fill="#4D301C" width="7.5" height="7.5"/>
	<rect x="161.172" y="217.456" fill="#4D301C" width="7.5" height="7.5"/>
	<rect x="153.672" y="217.456" fill="#4D301C" width="7.5" height="7.5"/>
	<rect x="131.172" y="217.456" fill="#4D301C" width="7.5" height="7.5"/>
	<rect x="123.672" y="217.456" fill="#4D301C" width="7.5" height="7.5"/>
	<rect x="116.172" y="217.456" fill="#EDD69F" width="7.5" height="7.5"/>
	<rect x="168.672" y="217.456" fill="#4D301C" width="7.5" height="7.5"/>
	<rect x="176.172" y="217.456" fill="#EDD69F" width="7.5" height="7.5"/>
	<rect x="183.672" y="217.456" fill="#EDD69F" width="7.5" height="7.5"/>
	<rect x="191.172" y="217.456" fill="#EDD69F" width="7.5" height="7.5"/>
	<rect x="168.672" y="149.985" fill="#EDD69F" width="7.5" height="7.5"/>
	<rect x="161.172" y="142.5" fill="#EDD69F" width="7.5" height="7.5"/>
	<rect x="168.672" y="142.5" fill="#EDD69F" width="7.5" height="7.5"/>
	<rect x="161.172" y="164.956" fill="#EDD69F" width="7.5" height="7.5"/>
	<rect x="168.672" y="164.956" fill="#EDD69F" width="7.5" height="7.5"/>
	<rect x="161.172" y="157.471" fill="#EDD69F" width="7.5" height="7.5"/>
	<rect x="168.672" y="157.471" fill="#EDD69F" width="7.5" height="7.5"/>
	<rect x="161.172" y="134.985" fill="#734A1D" width="7.5" height="7.5"/>
	<rect x="168.672" y="134.985" fill="#A9958A" width="7.5" height="7.5"/>
	<rect x="161.172" y="127.5" fill="#EDD69F" width="7.5" height="7.5"/>
	<rect x="168.672" y="127.5" fill="#EDD69F" width="7.5" height="7.5"/>
	<rect x="176.172" y="134.985" fill="#EDD69F" width="7.5" height="7.5"/>
	<rect x="176.172" y="142.5" fill="#EDD69F" width="7.5" height="7.5"/>
	<rect x="176.172" y="127.5" fill="#EDD69F" width="7.5" height="7.5"/>
	<rect x="131.172" y="120.029" fill="#2F292B" width="7.5" height="7.5"/>
	<rect x="146.172" y="120.029" fill="#2F292B" width="7.5" height="7.5"/>
	<rect x="138.672" y="120.029" fill="#2F292B" width="7.5" height="7.5"/>
	<rect x="153.672" y="120.029" fill="#2F292B" width="7.5" height="7.5"/>
	<rect x="131.172" y="127.5" fill="#FFFFFF" width="7.5" height="7.5"/>
	<rect x="138.672" y="127.5" fill="#2F292B" width="7.5" height="7.5"/>
	<rect x="146.172" y="127.5" fill="#EDD69F" width="7.5" height="7.5"/>
	<rect x="153.672" y="127.5" fill="#4D301C" width="7.5" height="7.5"/>
	<rect x="131.172" y="134.985" fill="#2F292B" width="7.5" height="7.5"/>
	<rect x="138.672" y="134.985" fill="#2F292B" width="7.5" height="7.5"/>
	<rect x="146.172" y="134.985" fill="#EDD69F" width="7.5" height="7.5"/>
	<rect x="153.672" y="134.985" fill="#EDD69F" width="7.5" height="7.5"/>
	<rect x="131.172" y="142.485" fill="#EDD69F" width="7.5" height="7.5"/>
	<rect x="138.672" y="142.485" fill="#EDD69F" width="7.5" height="7.5"/>
	<rect x="146.172" y="142.485" fill="#EDD69F" width="7.5" height="7.5"/>
	<rect x="153.672" y="142.485" fill="#EDD69F" width="7.5" height="7.5"/>
	<rect x="161.328" y="97.529" fill="#734A1D" width="7.5" height="7.5"/>
	<rect x="168.828" y="97.529" fill="#734A1D" width="7.5" height="7.5"/>
	<rect x="138.828" y="82.544" fill="#4D301C" width="7.5" height="7.5"/>
	<rect x="146.328" y="82.544" fill="#734A1D" width="7.5" height="7.5"/>
	<rect x="153.672" y="82.544" fill="#734A1D" width="7.5" height="7.5"/>
	<rect x="168.672" y="90.044" fill="#734A1D" width="7.5" height="7.5"/>
	<rect x="168.525" y="75.044" fill="#4D301C" width="7.5" height="7.5"/>
	<rect x="161.172" y="75.044" fill="#734A1D" width="7.5" height="7.5"/>
	<rect x="176.172" y="97.529" fill="#734A1D" width="7.5" height="7.5"/>
	<rect x="176.172" y="105.029" fill="#4D301C" width="7.5" height="7.5"/>
	<rect x="176.172" y="112.529" fill="#734A1D" width="7.5" height="7.5"/>
	<rect x="183.672" y="112.529" fill="#4D301C" width="7.5" height="7.5"/>
	<rect x="176.172" y="149.985" fill="#734A1D" width="7.5" height="7.5"/>
	<rect x="183.672" y="149.985" fill="#734A1D" width="7.5" height="7.5"/>
	<rect x="176.172" y="157.471" fill="#734A1D" width="7.5" height="7.5"/>
	<rect x="183.672" y="105.029" fill="#734A1D" width="7.5" height="7.5"/>
	<rect x="176.172" y="120.029" fill="#734A1D" width="7.5" height="7.5"/>
	<rect x="161.172" y="82.544" fill="#734A1D" width="7.5" height="7.5"/>
	<rect x="146.172" y="75.044" fill="#734A1D" width="7.5" height="7.5"/>
	<rect x="138.828" y="75.044" fill="#734A1D" width="7.5" height="7.5"/>
	<rect x="131.328" y="75.044" fill="#4D301C" width="7.5" height="7.5"/>
	<rect x="123.828" y="75.044" fill="#734A1D" width="7.5" height="7.5"/>
	<rect x="116.328" y="90.044" fill="#4D301C" width="7.5" height="7.5"/>
	<rect x="123.828" y="90.044" fill="#4D301C" width="7.5" height="7.5"/>
	<rect x="123.828" y="82.544" fill="#734A1D" width="7.5" height="7.5"/>
	<rect x="131.328" y="90.044" fill="#734A1D" width="7.5" height="7.5"/>
	<rect x="131.328" y="82.544" fill="#734A1D" width="7.5" height="7.5"/>
	<rect x="138.828" y="90.044" fill="#734A1D" width="7.5" height="7.5"/>
	<rect x="146.328" y="90.044" fill="#4D301C" width="7.5" height="7.5"/>
	<rect x="153.828" y="90.044" fill="#734A1D" width="7.5" height="7.5"/>
	<rect x="161.328" y="90.044" fill="#4D301C" width="7.5" height="7.5"/>
	<rect x="161.328" y="105.029" fill="#4D301C" width="7.5" height="7.5"/>
	<rect x="161.172" y="127.5" fill="#734A1D" width="7.5" height="7.5"/>
	<rect x="153.828" y="105.029" fill="#734A1D" width="7.5" height="7.5"/>
	<rect x="153.828" y="112.529" fill="#734A1D" width="7.5" height="7.5"/>
	<rect x="161.172" y="112.529" fill="#4D301C" width="7.5" height="7.5"/>
	<rect x="168.672" y="112.529" fill="#734A1D" width="7.5" height="7.5"/>
	<rect x="168.828" y="105.029" fill="#734A1D" width="7.5" height="7.5"/>
	<rect x="161.172" y="120.029" fill="#2F292B" width="7.5" height="7.5"/>
	<rect x="168.672" y="120.029" fill="#2F292B" width="7.5" height="7.5"/>
</g>
</svg>
