<?xml version="1.0" encoding="utf-8"?>
<!-- Generator: Adobe Illustrator 16.0.0, SVG Export Plug-In . SVG Version: 6.00 Build 0)  -->
<!DOCTYPE svg PUBLIC "-//W3C//DTD SVG 1.1//EN" "http://www.w3.org/Graphics/SVG/1.1/DTD/svg11.dtd">
<svg version="1.1" id="Layer_1" xmlns="http://www.w3.org/2000/svg" xmlns:xlink="http://www.w3.org/1999/xlink" x="0px" y="0px"
	 width="300px" height="300px" viewBox="0 0 300 300" enable-background="new 0 0 300 300" xml:space="preserve">
<g>
	<rect x="105" y="93.779" fill="#E9D9A3" width="7.5" height="7.5"/>
	<rect x="105" y="101.279" fill="#FDF287" width="7.5" height="7.5"/>
	<rect x="97.5" y="101.279" fill="#FDF287" width="7.5" height="7.5"/>
	<rect x="112.5" y="93.779" fill="#FDF287" width="7.5" height="7.5"/>
	<rect x="120" y="93.779" fill="#E3C680" width="7.5" height="7.5"/>
	<rect x="127.5" y="93.779" fill="#EFD1B8" width="7.5" height="7.5"/>
	<rect x="135" y="93.779" fill="#EFCFC0" width="7.5" height="7.5"/>
	<rect x="142.5" y="93.779" fill="#EFCFC0" width="7.5" height="7.5"/>
	<rect x="112.5" y="101.279" fill="#EEBFA2" width="7.5" height="7.5"/>
	<rect x="120" y="101.279" fill="#EEBFA2" width="7.5" height="7.5"/>
	<rect x="127.5" y="101.279" fill="#EFD1B8" width="7.5" height="7.5"/>
	<rect x="135" y="101.279" fill="#EFD1B8" width="7.5" height="7.5"/>
	<rect x="142.5" y="101.279" fill="#EFCFC0" width="7.5" height="7.5"/>
	<rect x="112.5" y="108.779" fill="#EEBFA2" width="7.5" height="7.5"/>
	<rect x="112.5" y="116.25" fill="#EFD1B8" width="7.5" height="7.5"/>
	<rect x="112.5" y="123.735" fill="#EFD1B8" width="7.5" height="7.5"/>
	<rect x="105" y="131.25" fill="#EFD1B8" width="7.5" height="7.5"/>
	<rect x="112.5" y="131.25" fill="#EFD1B8" width="7.5" height="7.5"/>
	<rect x="112.5" y="138.735" fill="#EFD1B8" width="7.5" height="7.5"/>
	<rect x="127.5" y="138.735" fill="#F3D9D0" width="7.5" height="7.5"/>
	<rect x="120" y="138.735" fill="#EFD1B8" width="7.5" height="7.5"/>
	<rect x="135" y="138.735" fill="#E5B29B" width="7.5" height="7.5"/>
	<rect x="150" y="138.735" fill="#E3C680" width="7.5" height="7.5"/>
	<rect x="142.5" y="138.735" fill="#EEBFA2" width="7.5" height="7.5"/>
	<rect x="127.5" y="146.221" fill="#FFFFFF" width="7.5" height="7.5"/>
	<rect x="120" y="146.221" fill="#FFFFFF" width="7.5" height="7.5"/>
	<rect x="135" y="146.221" fill="#D28F8C" width="7.5" height="7.5"/>
	<rect x="142.5" y="146.221" fill="#EFD1B8" width="7.5" height="7.5"/>
	<rect x="127.5" y="153.706" fill="#D36368" width="7.5" height="7.5"/>
	<rect x="120" y="153.706" fill="#D36368" width="7.5" height="7.5"/>
	<rect x="135" y="153.706" fill="#EFD1B8" width="7.5" height="7.5"/>
	<rect x="142.5" y="153.706" fill="#EFD1B8" width="7.5" height="7.5"/>
	<rect x="127.5" y="161.206" fill="#EFD1B8" width="7.5" height="7.5"/>
	<rect x="120" y="161.206" fill="#EEBFA2" width="7.5" height="7.5"/>
	<rect x="127.5" y="168.706" fill="#EEBFA2" width="7.5" height="7.5"/>
	<rect x="135" y="161.206" fill="#EFD1B8" width="7.5" height="7.5"/>
	<rect x="135" y="168.706" fill="#E5B29B" width="7.5" height="7.5"/>
	<rect x="135" y="176.206" fill="#EFD1B8" width="7.5" height="7.5"/>
	<rect x="142.5" y="168.706" fill="#E5B29B" width="7.5" height="7.5"/>
	<rect x="142.5" y="161.206" fill="#EFD1B8" width="7.5" height="7.5"/>
	<rect x="150" y="161.206" fill="#FDF287" width="7.5" height="7.5"/>
	<rect x="142.5" y="176.206" fill="#FFFFFF" width="7.5" height="7.5"/>
	<rect x="150" y="176.206" fill="#EFD1B8" width="7.5" height="7.5"/>
	<rect x="142.5" y="176.206" fill="#EFD1B8" width="7.5" height="7.5"/>
	<rect x="157.5" y="138.735" fill="#ECEEEE" width="7.5" height="7.5"/>
	<rect x="150" y="131.25" fill="#FDF287" width="7.5" height="7.5"/>
	<rect x="157.5" y="131.25" fill="#FDF287" width="7.5" height="7.5"/>
	<rect x="150" y="153.706" fill="#FDF287" width="7.5" height="7.5"/>
	<rect x="157.5" y="153.706" fill="#FDF287" width="7.5" height="7.5"/>
	<rect x="150" y="146.221" fill="#EFD1B8" width="7.5" height="7.5"/>
	<rect x="157.5" y="146.221" fill="#E8E2B8" width="7.5" height="7.5"/>
	<rect x="150" y="123.735" fill="#EEE1BF" width="7.5" height="7.5"/>
	<rect x="157.5" y="123.735" fill="#947B42" width="7.5" height="7.5"/>
	<rect x="150" y="116.25" fill="#EEE1BF" width="7.5" height="7.5"/>
	<rect x="157.5" y="116.25" fill="#FFFAD8" width="7.5" height="7.5"/>
	<rect x="165" y="123.735" fill="#FDF287" width="7.5" height="7.5"/>
	<rect x="165" y="116.25" fill="#E8E2B8" width="7.5" height="7.5"/>
	<rect x="120" y="108.765" fill="#9B8579" width="7.5" height="7.5"/>
	<rect x="127.5" y="108.765" fill="#C2B59B" width="7.5" height="7.5"/>
	<rect x="135" y="108.779" fill="#EFD1B8" width="7.5" height="7.5"/>
	<rect x="142.5" y="108.779" fill="#CEA96F" width="7.5" height="7.5"/>
	<rect x="120" y="116.25" fill="#EFD1B8" width="7.5" height="7.5"/>
	<rect x="127.5" y="116.25" fill="#EFD1B8" width="7.5" height="7.5"/>
	<rect x="135" y="116.235" fill="#EFD1B8" width="7.5" height="7.5"/>
	<rect x="142.5" y="116.25" fill="#CEA96F" width="7.5" height="7.5"/>
	<rect x="120" y="123.735" fill="#7F95A5" width="7.5" height="7.5"/>
	<rect x="127.5" y="123.735" fill="#FFFFFF" width="7.5" height="7.5"/>
	<rect x="135" y="123.735" fill="#EFD1B8" width="7.5" height="7.5"/>
	<rect x="142.5" y="123.735" fill="#CEA96F" width="7.5" height="7.5"/>
	<rect x="120" y="131.235" fill="#EFD1B8" width="7.5" height="7.5"/>
	<rect x="127.5" y="131.235" fill="#E5B29B" width="7.5" height="7.5"/>
	<rect x="135" y="131.235" fill="#EEBFA2" width="7.5" height="7.5"/>
	<rect x="142.5" y="131.235" fill="#E3C680" width="7.5" height="7.5"/>
	<rect x="150" y="93.779" fill="#FFFAD8" width="7.5" height="7.5"/>
	<rect x="157.5" y="93.779" fill="#FDF287" width="7.5" height="7.5"/>
	<rect x="150" y="78.794" fill="#FDF287" width="7.5" height="7.5"/>
	<rect x="157.5" y="78.794" fill="#E9D9A3" width="7.5" height="7.5"/>
	<rect x="157.5" y="86.294" fill="#FDF287" width="7.5" height="7.5"/>
	<rect x="165" y="86.294" fill="#E9D9A3" width="7.5" height="7.5"/>
	<rect x="112.5" y="86.294" fill="#E9D9A3" width="7.5" height="7.5"/>
	<rect x="120" y="86.294" fill="#E8E2B8" width="7.5" height="7.5"/>
	<rect x="127.5" y="86.294" fill="#E3C680" width="7.5" height="7.5"/>
	<rect x="135" y="86.294" fill="#947B42" width="7.5" height="7.5"/>
	<rect x="142.5" y="86.294" fill="#FFFAD8" width="7.5" height="7.5"/>
	<rect x="120" y="78.794" fill="#E9D9A3" width="7.5" height="7.5"/>
	<rect x="127.5" y="78.794" fill="#E8E2B8" width="7.5" height="7.5"/>
	<rect x="135" y="78.794" fill="#E8E2B8" width="7.5" height="7.5"/>
	<rect x="142.5" y="78.794" fill="#947B42" width="7.5" height="7.5"/>
	<rect x="150" y="86.294" fill="#FFFAD8" width="7.5" height="7.5"/>
	<rect x="150" y="101.279" fill="#FDF287" width="7.5" height="7.5"/>
	<rect x="150" y="116.25" fill="#FDF287" width="7.5" height="7.5"/>
	<rect x="150" y="123.735" fill="#FDF287" width="7.5" height="7.5"/>
	<rect x="157.5" y="101.279" fill="#FFFAD8" width="7.5" height="7.5"/>
	<rect x="165" y="101.279" fill="#FDF287" width="7.5" height="7.5"/>
	<rect x="165" y="93.779" fill="#FFFAD8" width="7.5" height="7.5"/>
	<rect x="172.5" y="93.779" fill="#E9D9A3" width="7.5" height="7.5"/>
	<rect x="165" y="108.779" fill="#E8E2B8" width="7.5" height="7.5"/>
	<rect x="172.5" y="108.779" fill="#FFFAD8" width="7.5" height="7.5"/>
	<rect x="172.5" y="101.279" fill="#FFFAD8" width="7.5" height="7.5"/>
	<rect x="172.5" y="116.279" fill="#FFFAD8" width="7.5" height="7.5"/>
	<rect x="180" y="108.779" fill="#E9D9A3" width="7.5" height="7.5"/>
	<rect x="180" y="116.279" fill="#E9D9A3" width="7.5" height="7.5"/>
	<rect x="172.5" y="123.735" fill="#FFFAD8" width="7.5" height="7.5"/>
	<rect x="180" y="123.735" fill="#FFFAD8" width="7.5" height="7.5"/>
	<rect x="180" y="138.75" fill="#FFFAD8" width="7.5" height="7.5"/>
	<rect x="172.5" y="131.25" fill="#FFFAD8" width="7.5" height="7.5"/>
	<rect x="180" y="131.25" fill="#FDF287" width="7.5" height="7.5"/>
	<rect x="180" y="146.25" fill="#FFFAD8" width="7.5" height="7.5"/>
	<rect x="187.5" y="138.75" fill="#FDF287" width="7.5" height="7.5"/>
	<rect x="187.5" y="146.25" fill="#FDF287" width="7.5" height="7.5"/>
	<rect x="187.5" y="131.235" fill="#FDF287" width="7.5" height="7.5"/>
	<rect x="195" y="146.25" fill="#FDF287" width="7.5" height="7.5"/>
	<rect x="165" y="138.75" fill="#E8E2B8" width="7.5" height="7.5"/>
	<rect x="165" y="131.25" fill="#FDF287" width="7.5" height="7.5"/>
	<rect x="165" y="146.25" fill="#FDF287" width="7.5" height="7.5"/>
	<rect x="180" y="153.706" fill="#FDF287" width="7.5" height="7.5"/>
	<rect x="187.5" y="153.706" fill="#E8E2B8" width="7.5" height="7.5"/>
	<rect x="165" y="153.706" fill="#E8E2B8" width="7.5" height="7.5"/>
	<rect x="180" y="161.206" fill="#FDF287" width="7.5" height="7.5"/>
	<rect x="180" y="168.706" fill="#E8E2B8" width="7.5" height="7.5"/>
	<rect x="180" y="176.206" fill="#E8E2B8" width="7.5" height="7.5"/>
	<rect x="172.5" y="138.75" fill="#947B42" width="7.5" height="7.5"/>
	<rect x="172.5" y="146.25" fill="#947B42" width="7.5" height="7.5"/>
	<rect x="172.5" y="153.706" fill="#FFFAD8" width="7.5" height="7.5"/>
	<rect x="172.5" y="161.206" fill="#E8E2B8" width="7.5" height="7.5"/>
	<rect x="172.5" y="168.706" fill="#E8E2B8" width="7.5" height="7.5"/>
	<rect x="172.5" y="176.206" fill="#FDF287" width="7.5" height="7.5"/>
	<rect x="165" y="168.706" fill="#FDF287" width="7.5" height="7.5"/>
	<rect x="165" y="176.206" fill="#FDF287" width="7.5" height="7.5"/>
	<rect x="187.5" y="161.206" fill="#FDF287" width="7.5" height="7.5"/>
	<rect x="187.5" y="168.706" fill="#FDF287" width="7.5" height="7.5"/>
	<rect x="165" y="161.206" fill="#FFFAD8" width="7.5" height="7.5"/>
	<rect x="157.5" y="161.206" fill="#CEA96F" width="7.5" height="7.5"/>
	<rect x="157.5" y="168.706" fill="#CEA96F" width="7.5" height="7.5"/>
	<rect x="157.5" y="176.206" fill="#CEA96F" width="7.5" height="7.5"/>
	<rect x="150" y="168.706" fill="#EFD1B8" width="7.5" height="7.5"/>
	<rect x="150" y="108.779" fill="#FDF287" width="7.5" height="7.5"/>
	<rect x="157.5" y="108.779" fill="#FFFAD8" width="7.5" height="7.5"/>
	<rect x="135.015" y="198.706" fill="#E5B29B" width="7.5" height="7.5"/>
	<rect x="142.515" y="198.706" fill="#E5B29B" width="7.5" height="7.5"/>
	<rect x="157.495" y="198.706" fill="#E5B29B" width="7.5" height="7.5"/>
	<rect x="150.015" y="198.706" fill="#E5B29B" width="7.5" height="7.5"/>
	<rect x="127.48" y="198.706" fill="#323133" width="7.5" height="7.5"/>
	<rect x="119.966" y="198.706" fill="#323133" width="7.5" height="7.5"/>
	<rect x="112.495" y="198.706" fill="#FDF287" width="7.5" height="7.5"/>
	<rect x="164.995" y="198.706" fill="#323133" width="7.5" height="7.5"/>
	<rect x="172.495" y="198.706" fill="#323133" width="7.5" height="7.5"/>
	<rect x="187.505" y="198.706" fill="#323133" width="7.5" height="7.5"/>
	<rect x="187.505" y="191.206" fill="#323133" width="7.5" height="7.5"/>
	<rect x="135.029" y="213.706" fill="#323133" width="7.5" height="7.5"/>
	<rect x="142.529" y="213.706" fill="#5A5B5E" width="7.5" height="7.5"/>
	<rect x="157.495" y="213.706" fill="#323133" width="7.5" height="7.5"/>
	<rect x="150.029" y="213.706" fill="#95989B" width="7.5" height="7.5"/>
	<rect x="127.495" y="213.706" fill="#C6C8C9" width="7.5" height="7.5"/>
	<rect x="119.966" y="213.706" fill="#323133" width="7.5" height="7.5"/>
	<rect x="112.495" y="213.706" fill="#323133" width="7.5" height="7.5"/>
	<rect x="164.995" y="213.706" fill="#C6C8C9" width="7.5" height="7.5"/>
	<rect x="172.495" y="213.706" fill="#323133" width="7.5" height="7.5"/>
	<rect x="187.505" y="213.706" fill="#EFD1B8" width="7.5" height="7.5"/>
	<rect x="134.995" y="191.206" fill="#EFCFC0" width="7.5" height="7.5"/>
	<rect x="142.495" y="191.206" fill="#EFD1B8" width="7.5" height="7.5"/>
	<rect x="157.495" y="191.206" fill="#EFCFC0" width="7.5" height="7.5"/>
	<rect x="149.995" y="191.211" fill="#EFD1B8" width="7.5" height="7.5"/>
	<rect x="142.495" y="183.706" fill="#EFD1B8" width="7.5" height="7.5"/>
	<rect x="149.995" y="183.706" fill="#EFD1B8" width="7.5" height="7.5"/>
	<rect x="127.495" y="191.206" fill="#947B42" width="7.5" height="7.5"/>
	<rect x="112.495" y="191.206" fill="#FFFAD8" width="7.5" height="7.5"/>
	<rect x="164.995" y="191.206" fill="#42607E" width="7.5" height="7.5"/>
	<rect x="172.495" y="191.206" fill="#FDF287" width="7.5" height="7.5"/>
	<rect x="112.495" y="183.706" fill="#CEA96F" width="7.5" height="7.5"/>
	<rect x="104.995" y="183.706" fill="#FDF287" width="7.5" height="7.5"/>
	<rect x="135.015" y="206.206" fill="#323133" width="7.5" height="7.5"/>
	<rect x="142.515" y="206.206" fill="#95989B" width="7.5" height="7.5"/>
	<rect x="157.495" y="206.206" fill="#323133" width="7.5" height="7.5"/>
	<rect x="150.015" y="206.206" fill="#5A5B5E" width="7.5" height="7.5"/>
	<rect x="127.48" y="206.206" fill="#323133" width="7.5" height="7.5"/>
	<rect x="119.966" y="206.206" fill="#C6C8C9" width="7.5" height="7.5"/>
	<rect x="112.495" y="206.206" fill="#323133" width="7.5" height="7.5"/>
	<rect x="104.995" y="198.706" fill="#FDF287" width="7.5" height="7.5"/>
	<rect x="104.995" y="191.226" fill="#FFFAD8" width="7.5" height="7.5"/>
	<rect x="104.995" y="213.706" fill="#EFD1B8" width="7.5" height="7.5"/>
	<rect x="104.995" y="206.206" fill="#FDF287" width="7.5" height="7.5"/>
	<rect x="97.495" y="198.706" fill="#E5B29B" width="7.5" height="7.5"/>
	<rect x="97.495" y="213.706" fill="#EFD1B8" width="7.5" height="7.5"/>
	<rect x="97.495" y="206.206" fill="#EFD1B8" width="7.5" height="7.5"/>
	<rect x="164.995" y="206.206" fill="#323133" width="7.5" height="7.5"/>
	<rect x="172.495" y="206.206" fill="#C6C8C9" width="7.5" height="7.5"/>
	<rect x="187.505" y="206.206" fill="#323133" width="7.5" height="7.5"/>
	<rect x="195.005" y="198.706" fill="#E5B29B" width="7.5" height="7.5"/>
	<rect x="195.005" y="213.706" fill="#EFD1B8" width="7.5" height="7.5"/>
	<rect x="195.005" y="206.206" fill="#EFCFC0" width="7.5" height="7.5"/>
	<rect x="157.495" y="183.706" fill="#EFD1B8" width="7.5" height="7.5"/>
	<rect x="134.995" y="183.706" fill="#EFD1B8" width="7.5" height="7.5"/>
	<rect x="187.505" y="183.706" fill="#E8E2B8" width="7.5" height="7.5"/>
	<rect x="195.005" y="183.706" fill="#E8E2B8" width="7.5" height="7.5"/>
	<rect x="164.995" y="183.706" fill="#CEA96F" width="7.5" height="7.5"/>
	<rect x="164.995" y="191.206" fill="#EFD1B8" width="7.5" height="7.5"/>
	<rect x="179.985" y="198.726" fill="#FDF287" width="7.5" height="7.5"/>
	<rect x="180.005" y="213.706" fill="#323133" width="7.5" height="7.5"/>
	<rect x="179.985" y="191.226" fill="#FDF287" width="7.5" height="7.5"/>
	<rect x="180.005" y="206.206" fill="#323133" width="7.5" height="7.5"/>
	<rect x="179.995" y="183.706" fill="#E8E2B8" width="7.5" height="7.5"/>
	<rect x="172.495" y="183.706" fill="#FDF287" width="7.5" height="7.5"/>
	<rect x="119.966" y="183.706" fill="#CEA96F" width="7.5" height="7.5"/>
	<rect x="119.966" y="176.206" fill="#CEA96F" width="7.5" height="7.5"/>
	<rect x="127.48" y="176.206" fill="#947B42" width="7.5" height="7.5"/>
	<rect x="112.495" y="176.206" fill="#FFFAD8" width="7.5" height="7.5"/>
	<rect x="105" y="176.206" fill="#FDF287" width="7.5" height="7.5"/>
	<rect x="97.734" y="183.706" fill="#FDF287" width="7.5" height="7.5"/>
	<rect x="112.495" y="168.706" fill="#FDF287" width="7.5" height="7.5"/>
	<rect x="112.495" y="161.206" fill="#FDF287" width="7.5" height="7.5"/>
	<rect x="119.966" y="168.706" fill="#FFFAD8" width="7.5" height="7.5"/>
	<rect x="127.495" y="183.706" fill="#947B42" width="7.5" height="7.5"/>
	<rect x="119.966" y="191.206" fill="#947B42" width="7.5" height="7.5"/>
</g>
</svg>
