<?xml version="1.0" encoding="utf-8"?>
<!-- Generator: Adobe Illustrator 16.0.0, SVG Export Plug-In . SVG Version: 6.00 Build 0)  -->
<!DOCTYPE svg PUBLIC "-//W3C//DTD SVG 1.1//EN" "http://www.w3.org/Graphics/SVG/1.1/DTD/svg11.dtd">
<svg version="1.1" id="Layer_1" xmlns="http://www.w3.org/2000/svg" xmlns:xlink="http://www.w3.org/1999/xlink" x="0px" y="0px"
	 width="300px" height="300px" viewBox="0 0 300 300" enable-background="new 0 0 300 300" xml:space="preserve">
<g>
	<rect x="112.5" y="78.794" fill="#DBAC27" width="7.5" height="7.5"/>
	<rect x="112.5" y="86.294" fill="#F8CF0A" width="7.5" height="7.5"/>
	<rect x="120" y="86.294" fill="#DBAC27" width="7.5" height="7.5"/>
	<rect x="127.5" y="86.294" fill="#F8CF0A" width="7.5" height="7.5"/>
	<rect x="135" y="86.294" fill="#DBAC27" width="7.5" height="7.5"/>
	<rect x="142.5" y="86.294" fill="#F8CF0A" width="7.5" height="7.5"/>
	<rect x="150" y="86.294" fill="#DBAC27" width="7.5" height="7.5"/>
	<rect x="112.5" y="101.274" fill="#B68D63" width="7.5" height="7.5"/>
	<rect x="120" y="101.274" fill="#F8CF0A" width="7.5" height="7.5"/>
	<rect x="127.5" y="101.274" fill="#DBAC27" width="7.5" height="7.5"/>
	<rect x="135" y="101.274" fill="#F8CF0A" width="7.5" height="7.5"/>
	<rect x="142.5" y="101.274" fill="#734A1D" width="7.5" height="7.5"/>
	<rect x="150" y="101.274" fill="#F8CF0A" width="7.5" height="7.5"/>
	<rect x="112.5" y="108.774" fill="#EDD69F" width="7.5" height="7.5"/>
	<rect x="120" y="108.774" fill="#EDD69F" width="7.5" height="7.5"/>
	<rect x="127.5" y="108.774" fill="#EDD69F" width="7.5" height="7.5"/>
	<rect x="135" y="108.774" fill="#EDD69F" width="7.5" height="7.5"/>
	<rect x="142.5" y="108.774" fill="#EDD69F" width="7.5" height="7.5"/>
	<rect x="150" y="108.774" fill="#EDD69F" width="7.5" height="7.5"/>
	<rect x="112.5" y="116.274" fill="#EDD69F" width="7.5" height="7.5"/>
	<rect x="120" y="116.274" fill="#EDD69F" width="7.5" height="7.5"/>
	<rect x="112.5" y="123.745" fill="#EDD69F" width="7.5" height="7.5"/>
	<rect x="120" y="123.745" fill="#6E5D55" width="7.5" height="7.5"/>
	<rect x="112.5" y="131.235" fill="#EDD69F" width="7.5" height="7.5"/>
	<rect x="120" y="131.235" fill="#2F292B" width="7.5" height="7.5"/>
	<rect x="112.5" y="138.745" fill="#EDD69F" width="7.5" height="7.5"/>
	<rect x="120" y="138.745" fill="#EDD69F" width="7.5" height="7.5"/>
	<rect x="112.5" y="146.235" fill="#EDD69F" width="7.5" height="7.5"/>
	<rect x="105" y="138.745" fill="#EDD69F" width="7.5" height="7.5"/>
	<rect x="120" y="146.235" fill="#EDD69F" width="7.5" height="7.5"/>
	<rect x="135" y="146.235" fill="#EDD69F" width="7.5" height="7.5"/>
	<rect x="127.5" y="146.235" fill="#EDD69F" width="7.5" height="7.5"/>
	<rect x="142.5" y="146.235" fill="#EDD69F" width="7.5" height="7.5"/>
	<rect x="157.5" y="146.235" fill="#EDD69F" width="7.5" height="7.5"/>
	<rect x="150" y="146.235" fill="#EEE1BF" width="7.5" height="7.5"/>
	<rect x="135" y="153.716" fill="#FFFFFF" width="7.5" height="7.5"/>
	<rect x="127.5" y="153.716" fill="#FFFFFF" width="7.5" height="7.5"/>
	<rect x="142.5" y="153.716" fill="#FFFFFF" width="7.5" height="7.5"/>
	<rect x="150" y="153.716" fill="#C7293B" width="7.5" height="7.5"/>
	<rect x="135" y="161.206" fill="#C7293B" width="7.5" height="7.5"/>
	<rect x="127.5" y="161.206" fill="#C7293B" width="7.5" height="7.5"/>
	<rect x="142.5" y="161.206" fill="#C7293B" width="7.5" height="7.5"/>
	<rect x="150" y="161.206" fill="#EDD69F" width="7.5" height="7.5"/>
	<rect x="135" y="168.706" fill="#EDD69F" width="7.5" height="7.5"/>
	<rect x="127.5" y="168.706" fill="#EDD69F" width="7.5" height="7.5"/>
	<rect x="142.5" y="168.706" fill="#EDD69F" width="7.5" height="7.5"/>
	<rect x="135" y="176.206" fill="#EDD69F" width="7.5" height="7.5"/>
	<rect x="142.5" y="176.206" fill="#EDD69F" width="7.5" height="7.5"/>
	<rect x="135" y="183.706" fill="#EDD69F" width="7.5" height="7.5"/>
	<rect x="142.5" y="183.706" fill="#EDD69F" width="7.5" height="7.5"/>
	<rect x="150" y="176.206" fill="#EDD69F" width="7.5" height="7.5"/>
	<rect x="150" y="168.706" fill="#EDD69F" width="7.5" height="7.5"/>
	<rect x="157.5" y="168.706" fill="#EDD69F" width="7.5" height="7.5"/>
	<rect x="157.5" y="176.206" fill="#525255" width="7.5" height="7.5"/>
	<rect x="165" y="176.206" fill="#808083" width="7.5" height="7.5"/>
	<rect x="172.5" y="176.206" fill="#808083" width="7.5" height="7.5"/>
	<rect x="157.5" y="183.706" fill="#808083" width="7.5" height="7.5"/>
	<rect x="150" y="183.706" fill="#525255" width="7.5" height="7.5"/>
	<rect x="127.5" y="183.706" fill="#525255" width="7.5" height="7.5"/>
	<rect x="127.5" y="176.206" fill="#EDD69F" width="7.5" height="7.5"/>
	<rect x="120" y="183.706" fill="#808083" width="7.5" height="7.5"/>
	<rect x="165" y="183.706" fill="#808083" width="7.5" height="7.5"/>
	<rect x="172.5" y="183.706" fill="#525255" width="7.5" height="7.5"/>
	<rect x="180" y="176.206" fill="#525255" width="7.5" height="7.5"/>
	<rect x="180" y="183.706" fill="#525255" width="7.5" height="7.5"/>
	<rect x="187.5" y="183.706" fill="#525255" width="7.5" height="7.5"/>
	<rect x="135" y="191.206" fill="#525255" width="7.5" height="7.5"/>
	<rect x="142.5" y="191.206" fill="#525255" width="7.5" height="7.5"/>
	<rect x="157.5" y="191.206" fill="#808083" width="7.5" height="7.5"/>
	<rect x="150" y="191.206" fill="#808083" width="7.5" height="7.5"/>
	<rect x="127.5" y="191.206" fill="#808083" width="7.5" height="7.5"/>
	<rect x="120" y="191.206" fill="#808083" width="7.5" height="7.5"/>
	<rect x="112.5" y="191.206" fill="#525255" width="7.5" height="7.5"/>
	<rect x="165" y="191.206" fill="#808083" width="7.5" height="7.5"/>
	<rect x="172.5" y="191.206" fill="#525255" width="7.5" height="7.5"/>
	<rect x="180" y="191.206" fill="#525255" width="7.5" height="7.5"/>
	<rect x="187.5" y="191.206" fill="#525255" width="7.5" height="7.5"/>
	<rect x="135" y="198.706" fill="#808083" width="7.5" height="7.5"/>
	<rect x="142.5" y="198.706" fill="#808083" width="7.5" height="7.5"/>
	<rect x="157.5" y="198.706" fill="#808083" width="7.5" height="7.5"/>
	<rect x="150" y="198.706" fill="#808083" width="7.5" height="7.5"/>
	<rect x="127.5" y="198.706" fill="#808083" width="7.5" height="7.5"/>
	<rect x="120" y="198.706" fill="#808083" width="7.5" height="7.5"/>
	<rect x="112.5" y="198.706" fill="#525255" width="7.5" height="7.5"/>
	<rect x="165" y="198.706" fill="#808083" width="7.5" height="7.5"/>
	<rect x="172.5" y="198.706" fill="#525255" width="7.5" height="7.5"/>
	<rect x="180" y="198.706" fill="#525255" width="7.5" height="7.5"/>
	<rect x="187.5" y="198.706" fill="#525255" width="7.5" height="7.5"/>
	<rect x="135" y="206.206" fill="#808083" width="7.5" height="7.5"/>
	<rect x="142.5" y="206.206" fill="#808083" width="7.5" height="7.5"/>
	<rect x="157.5" y="206.206" fill="#808083" width="7.5" height="7.5"/>
	<rect x="150" y="206.206" fill="#808083" width="7.5" height="7.5"/>
	<rect x="127.5" y="206.206" fill="#808083" width="7.5" height="7.5"/>
	<rect x="120" y="206.206" fill="#808083" width="7.5" height="7.5"/>
	<rect x="112.5" y="206.206" fill="#525255" width="7.5" height="7.5"/>
	<rect x="165" y="206.206" fill="#808083" width="7.5" height="7.5"/>
	<rect x="172.5" y="206.206" fill="#525255" width="7.5" height="7.5"/>
	<rect x="180" y="206.206" fill="#525255" width="7.5" height="7.5"/>
	<rect x="187.5" y="206.206" fill="#525255" width="7.5" height="7.5"/>
	<rect x="135" y="213.706" fill="#808083" width="7.5" height="7.5"/>
	<rect x="142.5" y="213.706" fill="#808083" width="7.5" height="7.5"/>
	<rect x="157.5" y="213.706" fill="#808083" width="7.5" height="7.5"/>
	<rect x="150" y="213.706" fill="#808083" width="7.5" height="7.5"/>
	<rect x="127.5" y="213.706" fill="#808083" width="7.5" height="7.5"/>
	<rect x="120" y="213.706" fill="#808083" width="7.5" height="7.5"/>
	<rect x="112.5" y="213.706" fill="#EDD69F" width="7.5" height="7.5"/>
	<rect x="165" y="213.706" fill="#808083" width="7.5" height="7.5"/>
	<rect x="172.5" y="213.706" fill="#EDD69F" width="7.5" height="7.5"/>
	<rect x="180" y="213.706" fill="#EDD69F" width="7.5" height="7.5"/>
	<rect x="187.5" y="213.706" fill="#EDD69F" width="7.5" height="7.5"/>
	<rect x="165" y="146.235" fill="#EDD69F" width="7.5" height="7.5"/>
	<rect x="157.5" y="138.745" fill="#EDD69F" width="7.5" height="7.5"/>
	<rect x="165" y="138.745" fill="#EEE1BF" width="7.5" height="7.5"/>
	<rect x="157.5" y="161.206" fill="#EDD69F" width="7.5" height="7.5"/>
	<rect x="165" y="161.206" fill="#EDD69F" width="7.5" height="7.5"/>
	<rect x="157.5" y="153.716" fill="#EDD69F" width="7.5" height="7.5"/>
	<rect x="165" y="153.716" fill="#EDD69F" width="7.5" height="7.5"/>
	<rect x="157.5" y="131.235" fill="#EDD69F" width="7.5" height="7.5"/>
	<rect x="165" y="131.235" fill="#EEE1BF" width="7.5" height="7.5"/>
	<rect x="157.5" y="123.745" fill="#EDD69F" width="7.5" height="7.5"/>
	<rect x="165" y="123.745" fill="#EEE1BF" width="7.5" height="7.5"/>
	<rect x="172.5" y="131.235" fill="#EEE1BF" width="7.5" height="7.5"/>
	<rect x="172.5" y="123.745" fill="#EEE1BF" width="7.5" height="7.5"/>
	<rect x="127.5" y="116.274" fill="#EDD69F" width="7.5" height="7.5"/>
	<rect x="135" y="116.274" fill="#EDD69F" width="7.5" height="7.5"/>
	<rect x="142.5" y="116.274" fill="#EDD69F" width="7.5" height="7.5"/>
	<rect x="150" y="116.274" fill="#EDD69F" width="7.5" height="7.5"/>
	<rect x="127.5" y="123.745" fill="#84796C" width="7.5" height="7.5"/>
	<rect x="135" y="123.745" fill="#84796C" width="7.5" height="7.5"/>
	<rect x="142.5" y="123.745" fill="#EDD69F" width="7.5" height="7.5"/>
	<rect x="150" y="123.745" fill="#EDD69F" width="7.5" height="7.5"/>
	<rect x="127.5" y="131.235" fill="#FFFFFF" width="7.5" height="7.5"/>
	<rect x="135" y="131.235" fill="#EDD69F" width="7.5" height="7.5"/>
	<rect x="142.5" y="131.235" fill="#EDD69F" width="7.5" height="7.5"/>
	<rect x="150" y="131.235" fill="#EDD69F" width="7.5" height="7.5"/>
	<rect x="127.5" y="138.735" fill="#EDD69F" width="7.5" height="7.5"/>
	<rect x="135" y="138.735" fill="#EDD69F" width="7.5" height="7.5"/>
	<rect x="142.5" y="138.735" fill="#EEE1BF" width="7.5" height="7.5"/>
	<rect x="150" y="138.735" fill="#EDD69F" width="7.5" height="7.5"/>
	<rect x="157.5" y="101.274" fill="#B68D63" width="7.5" height="7.5"/>
	<rect x="165" y="101.274" fill="#DBAC27" width="7.5" height="7.5"/>
	<rect x="112.5" y="93.794" fill="#DBAC27" width="7.5" height="7.5"/>
	<rect x="105" y="86.294" fill="#F8CF0A" width="7.5" height="7.5"/>
	<rect x="105" y="93.794" fill="#DBAC27" width="7.5" height="7.5"/>
	<rect x="120" y="93.794" fill="#F8CF0A" width="7.5" height="7.5"/>
	<rect x="127.5" y="93.794" fill="#B68D63" width="7.5" height="7.5"/>
	<rect x="135" y="93.794" fill="#F8CF0A" width="7.5" height="7.5"/>
	<rect x="142.5" y="93.794" fill="#DBAC27" width="7.5" height="7.5"/>
	<rect x="150" y="93.794" fill="#F8CF0A" width="7.5" height="7.5"/>
	<rect x="157.5" y="93.794" fill="#DBAC27" width="7.5" height="7.5"/>
	<rect x="157.5" y="108.774" fill="#F8CF0A" width="7.5" height="7.5"/>
	<rect x="157.5" y="123.745" fill="#B68D63" width="7.5" height="7.5"/>
	<rect x="165" y="108.774" fill="#734A1D" width="7.5" height="7.5"/>
	<rect x="157.5" y="116.274" fill="#DBAC27" width="7.5" height="7.5"/>
	<rect x="165" y="116.274" fill="#F8CF0A" width="7.5" height="7.5"/>
</g>
</svg>
