<?xml version="1.0" encoding="utf-8"?>
<!-- Generator: Adobe Illustrator 16.0.0, SVG Export Plug-In . SVG Version: 6.00 Build 0)  -->
<!DOCTYPE svg PUBLIC "-//W3C//DTD SVG 1.1//EN" "http://www.w3.org/Graphics/SVG/1.1/DTD/svg11.dtd">
<svg version="1.1" id="Layer_1" xmlns="http://www.w3.org/2000/svg" xmlns:xlink="http://www.w3.org/1999/xlink" x="0px" y="0px"
	 width="300px" height="300px" viewBox="0 0 300 300" enable-background="new 0 0 300 300" xml:space="preserve">
<g>
	<rect x="129" y="96.07" fill="#C2B59B" width="6" height="6"/>
	<rect x="135" y="96.07" fill="#726658" width="6" height="6"/>
	<rect x="141" y="96.07" fill="#C2B59B" width="6" height="6"/>
	<rect x="147" y="96.07" fill="#C2B59B" width="6" height="6"/>
	<rect x="123" y="108.055" fill="#3C2415" width="6" height="6"/>
	<rect x="129" y="108.055" fill="#603913" width="6" height="6"/>
	<rect x="135" y="108.055" fill="#9B8579" width="6" height="6"/>
	<rect x="141" y="108.055" fill="#C2B59B" width="6" height="6"/>
	<rect x="147" y="108.055" fill="#C2B59B" width="6" height="6"/>
	<rect x="153" y="108.055" fill="#726658" width="6" height="6"/>
	<rect x="123" y="114.055" fill="#EFD1B8" width="6" height="6"/>
	<rect x="129" y="114.055" fill="#AD8D75" width="6" height="6"/>
	<rect x="135" y="114.055" fill="#603913" width="6" height="6"/>
	<rect x="141" y="114.055" fill="#9B8579" width="6" height="6"/>
	<rect x="147" y="114.055" fill="#9B8579" width="6" height="6"/>
	<rect x="153" y="114.055" fill="#C2B59B" width="6" height="6"/>
	<rect x="123" y="120.055" fill="#EFD1B8" width="6" height="6"/>
	<rect x="129" y="120.055" fill="#EFD1B8" width="6" height="6"/>
	<rect x="123" y="126.031" fill="#F7E0CF" width="6" height="6"/>
	<rect x="129" y="126.031" fill="#F7E0CF" width="6" height="6"/>
	<rect x="123" y="137.992" fill="#231F20" width="6" height="6"/>
	<rect x="129" y="137.992" fill="#7F95A5" width="6" height="6"/>
	<rect x="123" y="144.008" fill="#EFD1B8" width="6" height="6"/>
	<rect x="129" y="144.008" fill="#231F20" width="6" height="6"/>
	<rect x="123" y="149.992" fill="#AD8D75" width="6" height="6"/>
	<rect x="117" y="144.008" fill="#EFD1B8" width="6" height="6"/>
	<rect x="111" y="144.008" fill="#EFD1B8" width="6" height="6"/>
	<rect x="117" y="137.992" fill="#EFD1B8" width="6" height="6"/>
	<rect x="129" y="149.992" fill="#AD8D75" width="6" height="6"/>
	<rect x="141" y="149.992" fill="#C2B59B" width="6" height="6"/>
	<rect x="135" y="149.992" fill="#AD8D75" width="6" height="6"/>
	<rect x="147" y="149.992" fill="#F7E0CF" width="6" height="6"/>
	<rect x="159" y="149.992" fill="#D7BFAA" width="6" height="6"/>
	<rect x="153" y="149.992" fill="#EFD1B8" width="6" height="6"/>
	<rect x="141" y="155.984" fill="#FFFFFF" width="6" height="6"/>
	<rect x="135" y="155.984" fill="#FFFFFF" width="6" height="6"/>
	<rect x="147" y="155.984" fill="#FFFFFF" width="6" height="6"/>
	<rect x="153" y="155.984" fill="#D28F8C" width="6" height="6"/>
	<rect x="141" y="161.969" fill="#D28F8C" width="6" height="6"/>
	<rect x="135" y="161.969" fill="#D28F8C" width="6" height="6"/>
	<rect x="147" y="161.969" fill="#D28F8C" width="6" height="6"/>
	<rect x="153" y="161.969" fill="#D7BFAA" width="6" height="6"/>
	<rect x="141" y="167.969" fill="#AD8D75" width="6" height="6"/>
	<rect x="135" y="167.969" fill="#AD8D75" width="6" height="6"/>
	<rect x="147" y="167.969" fill="#C2B59B" width="6" height="6"/>
	<rect x="141" y="179.93" fill="#D7BFAA" width="6" height="6"/>
	<rect x="147" y="179.93" fill="#D7BFAA" width="6" height="6"/>
	<rect x="141" y="185.93" fill="#EFD1B8" width="6" height="6"/>
	<rect x="147" y="185.93" fill="#EFD1B8" width="6" height="6"/>
	<rect x="153" y="179.93" fill="#EFD1B8" width="6" height="6"/>
	<rect x="141" y="173.969" fill="#D7BFAA" width="6" height="6"/>
	<rect x="147" y="173.969" fill="#D7BFAA" width="6" height="6"/>
	<rect x="153" y="173.969" fill="#EFD1B8" width="6" height="6"/>
	<rect x="153" y="167.969" fill="#D7BFAA" width="6" height="6"/>
	<rect x="159" y="167.969" fill="#EFD1B8" width="6" height="6"/>
	<rect x="159" y="185.93" fill="#939598" width="6" height="6"/>
	<rect x="153" y="185.93" fill="#EFD1B8" width="6" height="6"/>
	<rect x="135" y="185.93" fill="#939598" width="6" height="6"/>
	<rect x="159" y="179.93" fill="#EAB0B2" width="6" height="6"/>
	<rect x="165" y="179.93" fill="#C3D2E0" width="6" height="6"/>
	<rect x="135" y="179.93" fill="#EAB0B2" width="6" height="6"/>
	<rect x="129" y="179.93" fill="#C3D2E0" width="6" height="6"/>
	<rect x="129" y="185.93" fill="#323133" width="6" height="6"/>
	<rect x="165" y="185.93" fill="#323133" width="6" height="6"/>
	<rect x="171" y="185.93" fill="#323133" width="6" height="6"/>
	<rect x="177" y="185.93" fill="#323133" width="6" height="6"/>
	<rect x="141" y="197.93" fill="#939598" width="6" height="6"/>
	<rect x="147" y="197.93" fill="#665219" width="6" height="6"/>
	<rect x="159" y="197.93" fill="#C3D2E0" width="6" height="6"/>
	<rect x="153" y="197.93" fill="#939598" width="6" height="6"/>
	<rect x="135" y="197.93" fill="#C3D2E0" width="6" height="6"/>
	<rect x="129" y="197.93" fill="#323133" width="6" height="6"/>
	<rect x="123" y="197.93" fill="#323133" width="6" height="6"/>
	<rect x="165" y="197.93" fill="#323133" width="6" height="6"/>
	<rect x="171" y="197.93" fill="#323133" width="6" height="6"/>
	<rect x="177" y="197.93" fill="#323133" width="6" height="6"/>
	<rect x="183" y="197.93" fill="#323133" width="6" height="6"/>
	<rect x="141" y="209.93" fill="#939598" width="6" height="6"/>
	<rect x="147" y="209.93" fill="#665219" width="6" height="6"/>
	<rect x="159" y="209.93" fill="#C3D2E0" width="6" height="6"/>
	<rect x="153" y="209.93" fill="#939598" width="6" height="6"/>
	<rect x="135" y="209.93" fill="#C3D2E0" width="6" height="6"/>
	<rect x="129" y="209.93" fill="#1A1818" width="6" height="6"/>
	<rect x="123" y="209.93" fill="#323133" width="6" height="6"/>
	<rect x="165" y="209.93" fill="#323133" width="6" height="6"/>
	<rect x="171" y="209.93" fill="#1A1818" width="6" height="6"/>
	<rect x="177" y="209.93" fill="#323133" width="6" height="6"/>
	<rect x="183" y="209.93" fill="#323133" width="6" height="6"/>
	<rect x="141" y="191.93" fill="#C3D2E0" width="6" height="6"/>
	<rect x="147" y="191.93" fill="#95681C" width="6" height="6"/>
	<rect x="159" y="191.93" fill="#EAB0B2" width="6" height="6"/>
	<rect x="153" y="191.93" fill="#C3D2E0" width="6" height="6"/>
	<rect x="135" y="191.93" fill="#EAB0B2" width="6" height="6"/>
	<rect x="129" y="191.93" fill="#323133" width="6" height="6"/>
	<rect x="123" y="191.93" fill="#323133" width="6" height="6"/>
	<rect x="165" y="191.93" fill="#323133" width="6" height="6"/>
	<rect x="171" y="191.93" fill="#323133" width="6" height="6"/>
	<rect x="177" y="191.93" fill="#323133" width="6" height="6"/>
	<rect x="183" y="191.93" fill="#323133" width="6" height="6"/>
	<rect x="141" y="203.93" fill="#EAB0B2" width="6" height="6"/>
	<rect x="147" y="203.93" fill="#665219" width="6" height="6"/>
	<rect x="159" y="203.93" fill="#C3D2E0" width="6" height="6"/>
	<rect x="153" y="203.93" fill="#EAB0B2" width="6" height="6"/>
	<rect x="135" y="203.93" fill="#C3D2E0" width="6" height="6"/>
	<rect x="129" y="203.93" fill="#323133" width="6" height="6"/>
	<rect x="123" y="203.93" fill="#323133" width="6" height="6"/>
	<rect x="165" y="203.93" fill="#323133" width="6" height="6"/>
	<rect x="171" y="203.93" fill="#323133" width="6" height="6"/>
	<rect x="177" y="203.93" fill="#323133" width="6" height="6"/>
	<rect x="183" y="203.93" fill="#323133" width="6" height="6"/>
	<rect x="165" y="149.992" fill="#EFD1B8" width="6" height="6"/>
	<rect x="159" y="144.008" fill="#EFD1B8" width="6" height="6"/>
	<rect x="165" y="144.008" fill="#EFD1B8" width="6" height="6"/>
	<rect x="159" y="161.969" fill="#D7BFAA" width="6" height="6"/>
	<rect x="165" y="161.969" fill="#EFD1B8" width="6" height="6"/>
	<rect x="159" y="155.984" fill="#D7BFAA" width="6" height="6"/>
	<rect x="165" y="155.984" fill="#EFD1B8" width="6" height="6"/>
	<rect x="159" y="137.992" fill="#AD8D75" width="6" height="6"/>
	<rect x="165" y="137.992" fill="#EFD1B8" width="6" height="6"/>
	<rect x="159" y="126.031" fill="#9B8579" width="6" height="6"/>
	<rect x="165" y="126.031" fill="#9B8579" width="6" height="6"/>
	<rect x="171" y="137.992" fill="#EFD1B8" width="6" height="6"/>
	<rect x="171" y="132.008" fill="#9B8579" width="6" height="6"/>
	<rect x="135" y="120.055" fill="#AD8D75" width="6" height="6"/>
	<rect x="141" y="120.055" fill="#3C2415" width="6" height="6"/>
	<rect x="147" y="120.055" fill="#603913" width="6" height="6"/>
	<rect x="153" y="120.055" fill="#9B8579" width="6" height="6"/>
	<rect x="135" y="126.031" fill="#EFD1B8" width="6" height="6"/>
	<rect x="141" y="126.031" fill="#EFD1B8" width="6" height="6"/>
	<rect x="147" y="126.031" fill="#AD8D75" width="6" height="6"/>
	<rect x="153" y="126.031" fill="#603913" width="6" height="6"/>
	<rect x="123" y="132.008" fill="#231F20" width="6" height="6"/>
	<rect x="129" y="132.008" fill="#231F20" width="6" height="6"/>
	<rect x="159" y="132.008" fill="#3C2415" width="6" height="6"/>
	<rect x="165" y="132.008" fill="#231F20" width="6" height="6"/>
	<rect x="135" y="132.008" fill="#231F20" width="6" height="6"/>
	<rect x="141" y="132.008" fill="#231F20" width="6" height="6"/>
	<rect x="147" y="132.008" fill="#231F20" width="6" height="6"/>
	<rect x="153" y="132.008" fill="#231F20" width="6" height="6"/>
	<rect x="135" y="137.992" fill="#FFFFFF" width="6" height="6"/>
	<rect x="141" y="137.992" fill="#3C2415" width="6" height="6"/>
	<rect x="147" y="137.992" fill="#EFD1B8" width="6" height="6"/>
	<rect x="153" y="137.992" fill="#EFD1B8" width="6" height="6"/>
	<rect x="135" y="143.992" fill="#3C2415" width="6" height="6"/>
	<rect x="141" y="143.992" fill="#F7E0CF" width="6" height="6"/>
	<rect x="147" y="143.992" fill="#EFD1B8" width="6" height="6"/>
	<rect x="153" y="143.992" fill="#EFD1B8" width="6" height="6"/>
	<rect x="159" y="108.055" fill="#C2B59B" width="6" height="6"/>
	<rect x="165" y="108.055" fill="#C2B59B" width="6" height="6"/>
	<rect x="123" y="102.07" fill="#9B8579" width="6" height="6"/>
	<rect x="129" y="102.07" fill="#9B8579" width="6" height="6"/>
	<rect x="135" y="102.07" fill="#C2B59B" width="6" height="6"/>
	<rect x="141" y="102.07" fill="#726658" width="6" height="6"/>
	<rect x="147" y="102.07" fill="#726658" width="6" height="6"/>
	<rect x="153" y="102.07" fill="#C2B59B" width="6" height="6"/>
	<rect x="159" y="102.07" fill="#C2B59B" width="6" height="6"/>
	<rect x="153" y="96.07" fill="#C2B59B" width="6" height="6"/>
	<rect x="141" y="90.07" fill="#C2B59B" width="6" height="6"/>
	<rect x="159" y="96.07" fill="#C2B59B" width="6" height="6"/>
	<rect x="147" y="90.07" fill="#726658" width="6" height="6"/>
	<rect x="153" y="90.07" fill="#C2B59B" width="6" height="6"/>
	<rect x="159" y="90.07" fill="#C2B59B" width="6" height="6"/>
	<rect x="153" y="84.07" fill="#C2B59B" width="6" height="6"/>
	<rect x="159" y="84.07" fill="#C2B59B" width="6" height="6"/>
	<rect x="165" y="102.07" fill="#726658" width="6" height="6"/>
	<rect x="171" y="108.055" fill="#C2B59B" width="6" height="6"/>
	<rect x="171" y="102.07" fill="#726658" width="6" height="6"/>
	<rect x="165" y="96.07" fill="#C2B59B" width="6" height="6"/>
	<rect x="171" y="96.07" fill="#C2B59B" width="6" height="6"/>
	<rect x="165" y="90.07" fill="#C2B59B" width="6" height="6"/>
	<rect x="165" y="84.07" fill="#C2B59B" width="6" height="6"/>
	<rect x="171" y="90.07" fill="#C2B59B" width="6" height="6"/>
	<rect x="159" y="114.055" fill="#726658" width="6" height="6"/>
	<rect x="165" y="114.055" fill="#726658" width="6" height="6"/>
	<rect x="159" y="120.055" fill="#C2B59B" width="6" height="6"/>
	<rect x="165" y="120.055" fill="#C2B59B" width="6" height="6"/>
	<rect x="171" y="126.031" fill="#9B8579" width="6" height="6"/>
	<rect x="171" y="144.008" fill="#EFD1B8" width="6" height="6"/>
	<rect x="171" y="114.055" fill="#726658" width="6" height="6"/>
	<rect x="171" y="120.055" fill="#C2B59B" width="6" height="6"/>
	<rect x="177" y="108.055" fill="#C2B59B" width="6" height="6"/>
	<rect x="177" y="102.07" fill="#726658" width="6" height="6"/>
	<rect x="177" y="96.07" fill="#C2B59B" width="6" height="6"/>
	<rect x="177" y="114.055" fill="#726658" width="6" height="6"/>
	<rect x="177" y="120.055" fill="#C2B59B" width="6" height="6"/>
	<rect x="177" y="126.031" fill="#C2B59B" width="6" height="6"/>
	<rect x="177" y="132.008" fill="#9B8579" width="6" height="6"/>
	<rect x="177" y="137.992" fill="#9B8579" width="6" height="6"/>
</g>
</svg>
