<?xml version="1.0" encoding="utf-8"?>
<!-- Generator: Adobe Illustrator 16.0.0, SVG Export Plug-In . SVG Version: 6.00 Build 0)  -->
<!DOCTYPE svg PUBLIC "-//W3C//DTD SVG 1.1//EN" "http://www.w3.org/Graphics/SVG/1.1/DTD/svg11.dtd">
<svg version="1.1" id="Layer_1" xmlns="http://www.w3.org/2000/svg" xmlns:xlink="http://www.w3.org/1999/xlink" x="0px" y="0px"
	 width="300px" height="300px" viewBox="0 0 300 300" enable-background="new 0 0 300 300" xml:space="preserve">
<g>
	<rect x="120" y="108.086" fill="#EDD69F" width="6" height="6"/>
	<rect x="126" y="108.086" fill="#EDD69F" width="6" height="6"/>
	<rect x="132" y="108.086" fill="#EDD69F" width="6" height="6"/>
	<rect x="138" y="108.086" fill="#EBC297" width="6" height="6"/>
	<rect x="144" y="108.086" fill="#EBC297" width="6" height="6"/>
	<rect x="150" y="108.086" fill="#EBC297" width="6" height="6"/>
	<rect x="120" y="114.098" fill="#EEE1BF" width="6" height="6"/>
	<rect x="126" y="114.098" fill="#EEE1BF" width="6" height="6"/>
	<rect x="120" y="120.074" fill="#EEE1BF" width="6" height="6"/>
	<rect x="126" y="120.074" fill="#CE782A" width="6" height="6"/>
	<rect x="120" y="132.035" fill="#EDD69F" width="6" height="6"/>
	<rect x="126" y="132.035" fill="#868458" width="6" height="6"/>
	<rect x="120" y="138.047" fill="#EDD69F" width="6" height="6"/>
	<rect x="126" y="138.047" fill="#EDD69F" width="6" height="6"/>
	<rect x="120" y="144.035" fill="#D5CBAD" width="6" height="6"/>
	<rect x="114" y="137.816" fill="#EDD69F" width="6" height="6"/>
	<rect x="126" y="144.035" fill="#D5CBAD" width="6" height="6"/>
	<rect x="138" y="144.035" fill="#D5CBAD" width="6" height="6"/>
	<rect x="132" y="144.035" fill="#D5CBAD" width="6" height="6"/>
	<rect x="144" y="144.035" fill="#EEE1BF" width="6" height="6"/>
	<rect x="156" y="144.035" fill="#EDD69F" width="6" height="6"/>
	<rect x="150" y="144.035" fill="#EEE1BF" width="6" height="6"/>
	<rect x="138" y="150.023" fill="#FFFFFF" width="6" height="6"/>
	<rect x="132" y="150.023" fill="#FFFFFF" width="6" height="6"/>
	<rect x="144" y="150.023" fill="#FFFFFF" width="6" height="6"/>
	<rect x="150" y="150.023" fill="#D28F8C" width="6" height="6"/>
	<rect x="138" y="156.012" fill="#D28F8C" width="6" height="6"/>
	<rect x="132" y="156.012" fill="#D28F8C" width="6" height="6"/>
	<rect x="144" y="156.012" fill="#D28F8C" width="6" height="6"/>
	<rect x="150" y="156.012" fill="#EDD69F" width="6" height="6"/>
	<rect x="138" y="162.012" fill="#D5CBAD" width="6" height="6"/>
	<rect x="132" y="162.012" fill="#D5CBAD" width="6" height="6"/>
	<rect x="144" y="162.012" fill="#D5CBAD" width="6" height="6"/>
	<rect x="138" y="168.012" fill="#EDD69F" width="6" height="6"/>
	<rect x="144" y="168.012" fill="#EDD69F" width="6" height="6"/>
	<rect x="150" y="168.012" fill="#EDD69F" width="6" height="6"/>
	<rect x="150" y="162.012" fill="#EDD69F" width="6" height="6"/>
	<rect x="162" y="144.035" fill="#EDD69F" width="6" height="6"/>
	<rect x="156" y="138.047" fill="#EDD69F" width="6" height="6"/>
	<rect x="162" y="138.047" fill="#EDD69F" width="6" height="6"/>
	<rect x="156" y="156.012" fill="#EDD69F" width="6" height="6"/>
	<rect x="156" y="150.023" fill="#EDD69F" width="6" height="6"/>
	<rect x="162" y="150.023" fill="#EDD69F" width="6" height="6"/>
	<rect x="156" y="132.035" fill="#EDD69F" width="6" height="6"/>
	<rect x="162" y="132.035" fill="#EDD69F" width="6" height="6"/>
	<rect x="156" y="120.074" fill="#AD6F29" width="6" height="6"/>
	<rect x="162" y="120.074" fill="#EDD69F" width="6" height="6"/>
	<rect x="168" y="132.035" fill="#EDD69F" width="6" height="6"/>
	<rect x="168" y="126.047" fill="#EEE1BF" width="6" height="6"/>
	<rect x="132" y="114.098" fill="#EDD69F" width="6" height="6"/>
	<rect x="138" y="114.098" fill="#EDD69F" width="6" height="6"/>
	<rect x="144" y="114.098" fill="#EBC297" width="6" height="6"/>
	<rect x="150" y="114.098" fill="#AD6F29" width="6" height="6"/>
	<rect x="132" y="120.074" fill="#CE782A" width="6" height="6"/>
	<rect x="138" y="120.074" fill="#EDD69F" width="6" height="6"/>
	<rect x="144" y="120.074" fill="#EDD69F" width="6" height="6"/>
	<rect x="150" y="120.074" fill="#C7802A" width="6" height="6"/>
	<rect x="120" y="126.047" fill="#EDD69F" width="6" height="6"/>
	<rect x="126" y="126.047" fill="#EDD69F" width="6" height="6"/>
	<rect x="156" y="126.047" fill="#C7802A" width="6" height="6"/>
	<rect x="162" y="126.047" fill="#EDD69F" width="6" height="6"/>
	<rect x="132" y="126.047" fill="#EDD69F" width="6" height="6"/>
	<rect x="138" y="126.047" fill="#EDD69F" width="6" height="6"/>
	<rect x="144" y="126.047" fill="#EDD69F" width="6" height="6"/>
	<rect x="150" y="126.047" fill="#EDD69F" width="6" height="6"/>
	<rect x="132" y="132.035" fill="#FFFFFF" width="6" height="6"/>
	<rect x="138" y="132.035" fill="#EDD69F" width="6" height="6"/>
	<rect x="144" y="132.035" fill="#EDD69F" width="6" height="6"/>
	<rect x="150" y="132.035" fill="#EDD69F" width="6" height="6"/>
	<rect x="132" y="138.035" fill="#EDD69F" width="6" height="6"/>
	<rect x="138" y="138.035" fill="#EDD69F" width="6" height="6"/>
	<rect x="144" y="138.035" fill="#EEE1BF" width="6" height="6"/>
	<rect x="150" y="138.035" fill="#EBC297" width="6" height="6"/>
	<rect x="156" y="108.086" fill="#C7802A" width="6" height="6"/>
	<rect x="162" y="108.086" fill="#AD6F29" width="6" height="6"/>
	<rect x="168" y="108.086" fill="#C7802A" width="6" height="6"/>
	<rect x="162" y="102.059" fill="#C7802A" width="6" height="6"/>
	<rect x="162" y="96.098" fill="#C7802A" width="6" height="6"/>
	<rect x="168" y="102.098" fill="#AD6F29" width="6" height="6"/>
	<rect x="120" y="102.098" fill="#AD6F29" width="6" height="6"/>
	<rect x="126" y="102.098" fill="#C7802A" width="6" height="6"/>
	<rect x="126" y="96.059" fill="#C7802A" width="6" height="6"/>
	<rect x="132" y="102.098" fill="#AD6F29" width="6" height="6"/>
	<rect x="132" y="96.098" fill="#C7802A" width="6" height="6"/>
	<rect x="138" y="102.098" fill="#C7802A" width="6" height="6"/>
	<rect x="138" y="96.098" fill="#C7802A" width="6" height="6"/>
	<rect x="144" y="102.098" fill="#C7802A" width="6" height="6"/>
	<rect x="144" y="96.059" fill="#C7802A" width="6" height="6"/>
	<rect x="150" y="96.059" fill="#C7802A" width="6" height="6"/>
	<rect x="150" y="102.098" fill="#AD6F29" width="6" height="6"/>
	<rect x="156" y="102.098" fill="#C7802A" width="6" height="6"/>
	<rect x="156" y="96.098" fill="#C7802A" width="6" height="6"/>
	<rect x="132" y="90.059" fill="#C7802A" width="6" height="6"/>
	<rect x="138" y="90.059" fill="#AD6F29" width="6" height="6"/>
	<rect x="144" y="90.02" fill="#C7802A" width="6" height="6"/>
	<rect x="150" y="90.02" fill="#C7802A" width="6" height="6"/>
	<rect x="156" y="114.098" fill="#C7802A" width="6" height="6"/>
	<rect x="162" y="114.098" fill="#C7802A" width="6" height="6"/>
	<rect x="168" y="120.074" fill="#EDD69F" width="6" height="6"/>
	<rect x="168" y="114.098" fill="#C7802A" width="6" height="6"/>
	<rect x="138" y="173.98" fill="#EDD69F" width="6" height="6"/>
	<rect x="144" y="173.98" fill="#EDD69F" width="6" height="6"/>
	<rect x="162" y="167.98" fill="#D7E4EB" width="6" height="6"/>
	<rect x="156" y="173.98" fill="#9CB6C8" width="6" height="6"/>
	<rect x="156" y="167.98" fill="#D7E4EB" width="6" height="6"/>
	<rect x="150" y="173.98" fill="#EDD69F" width="6" height="6"/>
	<rect x="132" y="173.98" fill="#9CB6C8" width="6" height="6"/>
	<rect x="126" y="173.98" fill="#D7E4EB" width="6" height="6"/>
	<rect x="126" y="167.98" fill="#D7E4EB" width="6" height="6"/>
	<rect x="132" y="167.98" fill="#D7E4EB" width="6" height="6"/>
	<rect x="162" y="173.98" fill="#D7E4EB" width="6" height="6"/>
	<rect x="168" y="173.98" fill="#D7E4EB" width="6" height="6"/>
	<rect x="174" y="173.98" fill="#C3D2E0" width="6" height="6"/>
	<rect x="138" y="185.98" fill="#42607E" width="6" height="6"/>
	<rect x="144" y="185.98" fill="#42607E" width="6" height="6"/>
	<rect x="156" y="185.98" fill="#D7E4EB" width="6" height="6"/>
	<rect x="150" y="185.98" fill="#42607E" width="6" height="6"/>
	<rect x="132" y="185.98" fill="#D7E4EB" width="6" height="6"/>
	<rect x="132" y="191.98" fill="#C3D2E0" width="6" height="6"/>
	<rect x="126" y="185.98" fill="#9CB6C8" width="6" height="6"/>
	<rect x="120" y="185.98" fill="#C3D2E0" width="6" height="6"/>
	<rect x="162" y="185.98" fill="#9CB6C8" width="6" height="6"/>
	<rect x="168" y="185.98" fill="#C3D2E0" width="6" height="6"/>
	<rect x="174" y="185.98" fill="#C3D2E0" width="6" height="6"/>
	<rect x="180" y="185.98" fill="#C3D2E0" width="6" height="6"/>
	<rect x="138" y="197.98" fill="#C3D2E0" width="6" height="6"/>
	<rect x="144" y="197.98" fill="#D7E4EB" width="6" height="6"/>
	<rect x="156" y="197.98" fill="#C3D2E0" width="6" height="6"/>
	<rect x="150" y="197.98" fill="#C3D2E0" width="6" height="6"/>
	<rect x="132" y="197.98" fill="#C3D2E0" width="6" height="6"/>
	<rect x="126" y="197.98" fill="#C3D2E0" width="6" height="6"/>
	<rect x="120" y="197.98" fill="#C3D2E0" width="6" height="6"/>
	<rect x="162" y="197.98" fill="#C3D2E0" width="6" height="6"/>
	<rect x="168" y="197.98" fill="#C3D2E0" width="6" height="6"/>
	<rect x="174" y="197.98" fill="#9CB6C8" width="6" height="6"/>
	<rect x="180" y="197.98" fill="#9CB6C8" width="6" height="6"/>
	<rect x="138" y="179.98" fill="#42607E" width="6" height="6"/>
	<rect x="144" y="179.98" fill="#EDD69F" width="6" height="6"/>
	<rect x="156" y="179.98" fill="#D7E4EB" width="6" height="6"/>
	<rect x="150" y="179.98" fill="#42607E" width="6" height="6"/>
	<rect x="132" y="179.98" fill="#D7E4EB" width="6" height="6"/>
	<rect x="126" y="179.98" fill="#9CB6C8" width="6" height="6"/>
	<rect x="120" y="179.98" fill="#D7E4EB" width="6" height="6"/>
	<rect x="120" y="173.98" fill="#D7E4EB" width="6" height="6"/>
	<rect x="162" y="179.98" fill="#9CB6C8" width="6" height="6"/>
	<rect x="168" y="179.98" fill="#D7E4EB" width="6" height="6"/>
	<rect x="174" y="179.98" fill="#C3D2E0" width="6" height="6"/>
	<rect x="180" y="179.98" fill="#C3D2E0" width="6" height="6"/>
	<rect x="138" y="191.98" fill="#D7E4EB" width="6" height="6"/>
	<rect x="144" y="191.98" fill="#42607E" width="6" height="6"/>
	<rect x="156" y="191.98" fill="#C3D2E0" width="6" height="6"/>
	<rect x="150" y="191.98" fill="#D7E4EB" width="6" height="6"/>
	<rect x="132" y="191.98" fill="#C3D2E0" width="6" height="6"/>
	<rect x="126" y="191.98" fill="#C3D2E0" width="6" height="6"/>
	<rect x="120" y="191.98" fill="#C3D2E0" width="6" height="6"/>
	<rect x="114" y="185.98" fill="#C3D2E0" width="6" height="6"/>
	<rect x="114" y="197.98" fill="#9CB6C8" width="6" height="6"/>
	<rect x="138" y="203.98" fill="#C3D2E0" width="6" height="6"/>
	<rect x="144" y="203.98" fill="#D7E4EB" width="6" height="6"/>
	<rect x="156" y="203.98" fill="#D7E4EB" width="6" height="6"/>
	<rect x="150" y="203.98" fill="#C3D2E0" width="6" height="6"/>
	<rect x="132" y="203.98" fill="#D7E4EB" width="6" height="6"/>
	<rect x="126" y="203.98" fill="#FFFFFF" width="6" height="6"/>
	<rect x="120" y="203.98" fill="#D7E4EB" width="6" height="6"/>
	<rect x="162" y="203.98" fill="#FFFFFF" width="6" height="6"/>
	<rect x="168" y="203.98" fill="#D7E4EB" width="6" height="6"/>
	<rect x="174" y="203.98" fill="#EDD69F" width="6" height="6"/>
	<rect x="180" y="203.98" fill="#EDD69F" width="6" height="6"/>
	<rect x="114" y="203.98" fill="#EDD69F" width="6" height="6"/>
	<rect x="114" y="191.98" fill="#C3D2E0" width="6" height="6"/>
	<rect x="162" y="191.98" fill="#C3D2E0" width="6" height="6"/>
	<rect x="168" y="191.98" fill="#C3D2E0" width="6" height="6"/>
	<rect x="174" y="191.98" fill="#C3D2E0" width="6" height="6"/>
	<rect x="180" y="191.98" fill="#C3D2E0" width="6" height="6"/>
</g>
</svg>
