<?xml version="1.0" encoding="utf-8"?>
<!-- Generator: Adobe Illustrator 16.0.0, SVG Export Plug-In . SVG Version: 6.00 Build 0)  -->
<!DOCTYPE svg PUBLIC "-//W3C//DTD SVG 1.1//EN" "http://www.w3.org/Graphics/SVG/1.1/DTD/svg11.dtd">
<svg version="1.1" id="Layer_1" xmlns="http://www.w3.org/2000/svg" xmlns:xlink="http://www.w3.org/1999/xlink" x="0px" y="0px"
	 width="300px" height="300px" viewBox="0 0 300 300" enable-background="new 0 0 300 300" xml:space="preserve">
<g>
	<rect x="156" y="182.949" fill="#14354C" width="6" height="6"/>
	<rect x="132" y="182.949" fill="#14354C" width="6" height="6"/>
	<rect x="162" y="176.949" fill="#14354C" width="6" height="6"/>
	<rect x="168" y="176.949" fill="#14354C" width="6" height="6"/>
	<rect x="126" y="176.949" fill="#14354C" width="6" height="6"/>
	<rect x="120" y="176.949" fill="#14354C" width="6" height="6"/>
	<rect x="126" y="182.949" fill="#001B30" width="6" height="6"/>
	<rect x="162" y="182.949" fill="#001B30" width="6" height="6"/>
	<rect x="138" y="194.949" fill="#001B30" width="6" height="6"/>
	<rect x="144" y="194.949" fill="#14354C" width="6" height="6"/>
	<rect x="156" y="194.949" fill="#14354C" width="6" height="6"/>
	<rect x="150" y="194.949" fill="#001B30" width="6" height="6"/>
	<rect x="132" y="194.949" fill="#14354C" width="6" height="6"/>
	<rect x="126" y="194.949" fill="#14354C" width="6" height="6"/>
	<rect x="120" y="194.949" fill="#14354C" width="6" height="6"/>
	<rect x="162" y="194.949" fill="#14354C" width="6" height="6"/>
	<rect x="168" y="194.949" fill="#14354C" width="6" height="6"/>
	<rect x="174" y="194.949" fill="#14354C" width="6" height="6"/>
	<rect x="180" y="194.949" fill="#334D6B" width="6" height="6"/>
	<rect x="138" y="206.949" fill="#14354C" width="6" height="6"/>
	<rect x="144" y="206.949" fill="#14354C" width="6" height="6"/>
	<rect x="156" y="206.949" fill="#14354C" width="6" height="6"/>
	<rect x="150" y="206.949" fill="#14354C" width="6" height="6"/>
	<rect x="132" y="206.949" fill="#14354C" width="6" height="6"/>
	<rect x="126" y="206.949" fill="#001B30" width="6" height="6"/>
	<rect x="120" y="206.949" fill="#14354C" width="6" height="6"/>
	<rect x="162" y="206.949" fill="#14354C" width="6" height="6"/>
	<rect x="168" y="206.949" fill="#001B30" width="6" height="6"/>
	<rect x="174" y="206.949" fill="#14354C" width="6" height="6"/>
	<rect x="180" y="206.949" fill="#14354C" width="6" height="6"/>
	<rect x="138" y="188.949" fill="#14354C" width="6" height="6"/>
	<rect x="144" y="188.949" fill="#DCB397" width="6" height="6"/>
	<rect x="156" y="188.949" fill="#001B30" width="6" height="6"/>
	<rect x="150" y="188.949" fill="#14354C" width="6" height="6"/>
	<rect x="132" y="188.949" fill="#001B30" width="6" height="6"/>
	<rect x="126" y="188.949" fill="#14354C" width="6" height="6"/>
	<rect x="120" y="188.949" fill="#334D6B" width="6" height="6"/>
	<rect x="162" y="188.949" fill="#14354C" width="6" height="6"/>
	<rect x="168" y="188.949" fill="#14354C" width="6" height="6"/>
	<rect x="174" y="188.949" fill="#334D6B" width="6" height="6"/>
	<rect x="138" y="200.949" fill="#14354C" width="6" height="6"/>
	<rect x="144" y="200.949" fill="#E4E3D6" width="6" height="6"/>
	<rect x="156" y="200.949" fill="#14354C" width="6" height="6"/>
	<rect x="150" y="200.949" fill="#14354C" width="6" height="6"/>
	<rect x="132" y="200.949" fill="#14354C" width="6" height="6"/>
	<rect x="126" y="200.949" fill="#14354C" width="6" height="6"/>
	<rect x="120" y="200.949" fill="#14354C" width="6" height="6"/>
	<rect x="114" y="194.949" fill="#334D6B" width="6" height="6"/>
	<rect x="114" y="206.949" fill="#14354C" width="6" height="6"/>
	<rect x="114" y="200.949" fill="#14354C" width="6" height="6"/>
	<rect x="162" y="200.949" fill="#14354C" width="6" height="6"/>
	<rect x="168" y="200.949" fill="#14354C" width="6" height="6"/>
	<rect x="174" y="200.949" fill="#14354C" width="6" height="6"/>
	<rect x="180" y="200.949" fill="#14354C" width="6" height="6"/>
	<rect x="126" y="93.051" fill="#754C29" width="6" height="6"/>
	<rect x="132" y="93.051" fill="#362906" width="6" height="6"/>
	<rect x="138" y="93.051" fill="#563D2D" width="6" height="6"/>
	<rect x="132" y="87.051" fill="#362906" width="6" height="6"/>
	<rect x="138" y="87.051" fill="#754C29" width="6" height="6"/>
	<rect x="144" y="87.051" fill="#563D2D" width="6" height="6"/>
	<rect x="144" y="93.051" fill="#3E2D02" width="6" height="6"/>
	<rect x="120" y="105.035" fill="#F7E0CF" width="6" height="6"/>
	<rect x="126" y="105.035" fill="#F7E0CF" width="6" height="6"/>
	<rect x="132" y="105.035" fill="#EAC4B2" width="6" height="6"/>
	<rect x="138" y="105.035" fill="#EAC4B2" width="6" height="6"/>
	<rect x="144" y="105.035" fill="#231F20" width="6" height="6"/>
	<rect x="150" y="105.035" fill="#3E2D02" width="6" height="6"/>
	<rect x="120" y="111.035" fill="#F7E0CF" width="6" height="6"/>
	<rect x="126" y="111.035" fill="#EFD1B8" width="6" height="6"/>
	<rect x="132" y="111.035" fill="#EFD1B8" width="6" height="6"/>
	<rect x="138" y="111.035" fill="#EFD1B8" width="6" height="6"/>
	<rect x="144" y="111.035" fill="#3E2D02" width="6" height="6"/>
	<rect x="150" y="111.035" fill="#754C29" width="6" height="6"/>
	<rect x="120" y="117.035" fill="#F7E0CF" width="6" height="6"/>
	<rect x="126" y="117.035" fill="#F7E0CF" width="6" height="6"/>
	<rect x="120" y="123.012" fill="#EFD1B8" width="6" height="6"/>
	<rect x="126" y="123.012" fill="#3E2D02" width="6" height="6"/>
	<rect x="120" y="134.973" fill="#F7E0CF" width="6" height="6"/>
	<rect x="126" y="134.973" fill="#3B2314" width="6" height="6"/>
	<rect x="120" y="140.988" fill="#EFD1B8" width="6" height="6"/>
	<rect x="126" y="140.988" fill="#EAC4B2" width="6" height="6"/>
	<rect x="120" y="146.973" fill="#D7BFAA" width="6" height="6"/>
	<rect x="114" y="140.988" fill="#EFD1B8" width="6" height="6"/>
	<rect x="126" y="146.973" fill="#D7BFAA" width="6" height="6"/>
	<rect x="138" y="146.973" fill="#F7E0CF" width="6" height="6"/>
	<rect x="132" y="146.973" fill="#D7BFAA" width="6" height="6"/>
	<rect x="144" y="146.973" fill="#EAC4B2" width="6" height="6"/>
	<rect x="156" y="146.973" fill="#D7BFAA" width="6" height="6"/>
	<rect x="150" y="146.973" fill="#EFD1B8" width="6" height="6"/>
	<rect x="138" y="152.965" fill="#FFFFFF" width="6" height="6"/>
	<rect x="132" y="152.965" fill="#FFFFFF" width="6" height="6"/>
	<rect x="144" y="152.965" fill="#C97D7A" width="6" height="6"/>
	<rect x="150" y="152.965" fill="#EFD1B8" width="6" height="6"/>
	<rect x="138" y="158.949" fill="#C97D7A" width="6" height="6"/>
	<rect x="132" y="158.949" fill="#C97D7A" width="6" height="6"/>
	<rect x="144" y="158.949" fill="#EFD1B8" width="6" height="6"/>
	<rect x="150" y="158.949" fill="#EFD1B8" width="6" height="6"/>
	<rect x="138" y="164.949" fill="#EFD1B8" width="6" height="6"/>
	<rect x="132" y="164.949" fill="#D7BFAA" width="6" height="6"/>
	<rect x="144" y="164.949" fill="#EFD1B8" width="6" height="6"/>
	<rect x="138" y="170.949" fill="#BAA993" width="6" height="6"/>
	<rect x="144" y="170.949" fill="#EFD1B8" width="6" height="6"/>
	<rect x="150" y="170.949" fill="#EFD1B8" width="6" height="6"/>
	<rect x="150" y="164.949" fill="#EAC4B2" width="6" height="6"/>
	<rect x="162" y="146.973" fill="#231F20" width="6" height="6"/>
	<rect x="156" y="140.988" fill="#D7BFAA" width="6" height="6"/>
	<rect x="162" y="140.988" fill="#EFD1B8" width="6" height="6"/>
	<rect x="156" y="158.949" fill="#EAC4B2" width="6" height="6"/>
	<rect x="156" y="152.965" fill="#EFD1B8" width="6" height="6"/>
	<rect x="156" y="134.973" fill="#231F20" width="6" height="6"/>
	<rect x="162" y="134.973" fill="#D7BFAA" width="6" height="6"/>
	<rect x="156" y="123.012" fill="#231F20" width="6" height="6"/>
	<rect x="162" y="123.012" fill="#563D2D" width="6" height="6"/>
	<rect x="168" y="134.957" fill="#EAC4B2" width="6" height="6"/>
	<rect x="132" y="117.035" fill="#EFD1B8" width="6" height="6"/>
	<rect x="138" y="117.035" fill="#EFD1B8" width="6" height="6"/>
	<rect x="144" y="117.035" fill="#3E2D02" width="6" height="6"/>
	<rect x="150" y="117.035" fill="#231F20" width="6" height="6"/>
	<rect x="132" y="123.012" fill="#C2B59B" width="6" height="6"/>
	<rect x="138" y="123.012" fill="#EFD1B8" width="6" height="6"/>
	<rect x="144" y="123.012" fill="#EFD1B8" width="6" height="6"/>
	<rect x="150" y="123.012" fill="#231F20" width="6" height="6"/>
	<rect x="120" y="128.988" fill="#F7E0CF" width="6" height="6"/>
	<rect x="126" y="128.988" fill="#EFD1B8" width="6" height="6"/>
	<rect x="156" y="128.988" fill="#231F20" width="6" height="6"/>
	<rect x="162" y="128.988" fill="#EAC4B2" width="6" height="6"/>
	<rect x="132" y="128.988" fill="#EFD1B8" width="6" height="6"/>
	<rect x="138" y="128.988" fill="#F7E0CF" width="6" height="6"/>
	<rect x="144" y="128.988" fill="#EFD1B8" width="6" height="6"/>
	<rect x="150" y="128.988" fill="#231F20" width="6" height="6"/>
	<rect x="132" y="134.973" fill="#FFFFFF" width="6" height="6"/>
	<rect x="138" y="134.973" fill="#F7E0CF" width="6" height="6"/>
	<rect x="144" y="134.973" fill="#EFD1B8" width="6" height="6"/>
	<rect x="150" y="134.973" fill="#EFD1B8" width="6" height="6"/>
	<rect x="132" y="140.973" fill="#F7E0CF" width="6" height="6"/>
	<rect x="138" y="140.973" fill="#EAC4B2" width="6" height="6"/>
	<rect x="144" y="140.973" fill="#F7E0CF" width="6" height="6"/>
	<rect x="150" y="140.973" fill="#EFD1B8" width="6" height="6"/>
	<rect x="156" y="105.035" fill="#3E2D02" width="6" height="6"/>
	<rect x="162" y="105.035" fill="#754C29" width="6" height="6"/>
	<rect x="120" y="99.051" fill="#754C29" width="6" height="6"/>
	<rect x="126" y="99.051" fill="#231F20" width="6" height="6"/>
	<rect x="132" y="99.051" fill="#563D2D" width="6" height="6"/>
	<rect x="138" y="99.051" fill="#231F20" width="6" height="6"/>
	<rect x="144" y="99.051" fill="#362906" width="6" height="6"/>
	<rect x="150" y="99.051" fill="#563D2D" width="6" height="6"/>
	<rect x="156" y="99.051" fill="#3E2D02" width="6" height="6"/>
	<rect x="150" y="93.051" fill="#3E2D02" width="6" height="6"/>
	<rect x="156" y="93.051" fill="#563D2D" width="6" height="6"/>
	<rect x="162" y="99.051" fill="#3E2D02" width="6" height="6"/>
	<rect x="168" y="105.035" fill="#362906" width="6" height="6"/>
	<rect x="156" y="111.035" fill="#563D2D" width="6" height="6"/>
	<rect x="162" y="111.035" fill="#754C29" width="6" height="6"/>
	<rect x="156" y="117.035" fill="#3E2D02" width="6" height="6"/>
	<rect x="162" y="117.035" fill="#231F20" width="6" height="6"/>
	<rect x="168" y="128.988" fill="#F7E0CF" width="6" height="6"/>
	<rect x="168" y="111.035" fill="#3E2D02" width="6" height="6"/>
	<rect x="168" y="117.035" fill="#3E2D02" width="6" height="6"/>
	<rect x="168" y="123.012" fill="#231F20" width="6" height="6"/>
	<rect x="138" y="176.973" fill="#EFD1B8" width="6" height="6"/>
	<rect x="144" y="176.973" fill="#D7BFAA" width="6" height="6"/>
	<rect x="138" y="182.973" fill="#EFD1B8" width="6" height="6"/>
	<rect x="144" y="182.973" fill="#EFD1B8" width="6" height="6"/>
	<rect x="150" y="176.973" fill="#EFD1B8" width="6" height="6"/>
	<rect x="150" y="182.973" fill="#EFD1B8" width="6" height="6"/>
</g>
</svg>
