<?xml version="1.0" encoding="utf-8"?>
<!-- Generator: Adobe Illustrator 16.0.0, SVG Export Plug-In . SVG Version: 6.00 Build 0)  -->
<!DOCTYPE svg PUBLIC "-//W3C//DTD SVG 1.1//EN" "http://www.w3.org/Graphics/SVG/1.1/DTD/svg11.dtd">
<svg version="1.1" id="Layer_1" xmlns="http://www.w3.org/2000/svg" xmlns:xlink="http://www.w3.org/1999/xlink" x="0px" y="0px"
	 width="300px" height="300px" viewBox="0 0 300 300" enable-background="new 0 0 300 300" xml:space="preserve">
<g>
	<rect x="138" y="185.965" fill="#EFD1B8" width="6" height="6"/>
	<rect x="144" y="185.965" fill="#AD8D75" width="6" height="6"/>
	<rect x="156" y="185.965" fill="#EFD1B8" width="6" height="6"/>
	<rect x="150" y="185.965" fill="#AD8D75" width="6" height="6"/>
	<rect x="132" y="185.965" fill="#323133" width="6" height="6"/>
	<rect x="126" y="185.965" fill="#323133" width="6" height="6"/>
	<rect x="162" y="185.965" fill="#231F20" width="6" height="6"/>
	<rect x="168" y="185.965" fill="#323133" width="6" height="6"/>
	<rect x="174" y="185.965" fill="#231F20" width="6" height="6"/>
	<rect x="180" y="185.965" fill="#231F20" width="6" height="6"/>
	<rect x="138" y="197.965" fill="#323133" width="6" height="6"/>
	<rect x="144" y="197.965" fill="#323133" width="6" height="6"/>
	<rect x="156" y="197.965" fill="#323133" width="6" height="6"/>
	<rect x="150" y="197.965" fill="#323133" width="6" height="6"/>
	<rect x="132" y="197.965" fill="#323133" width="6" height="6"/>
	<rect x="126" y="197.965" fill="#EFD1B8" width="6" height="6"/>
	<rect x="162" y="197.965" fill="#323133" width="6" height="6"/>
	<rect x="168" y="197.965" fill="#323133" width="6" height="6"/>
	<rect x="174" y="197.965" fill="#EFD1B8" width="6" height="6"/>
	<rect x="180" y="197.965" fill="#EFD1B8" width="6" height="6"/>
	<rect x="138" y="179.965" fill="#AD8D75" width="6" height="6"/>
	<rect x="144" y="179.965" fill="#EFD1B8" width="6" height="6"/>
	<rect x="156" y="179.965" fill="#231F20" width="6" height="6"/>
	<rect x="150" y="179.965" fill="#231F20" width="6" height="6"/>
	<rect x="132" y="179.965" fill="#231F20" width="6" height="6"/>
	<rect x="126" y="179.965" fill="#323133" width="6" height="6"/>
	<rect x="162" y="179.965" fill="#FAC805" width="6" height="6"/>
	<rect x="168" y="179.965" fill="#231F20" width="6" height="6"/>
	<rect x="174" y="179.965" fill="#231F20" width="6" height="6"/>
	<rect x="138" y="191.965" fill="#323133" width="6" height="6"/>
	<rect x="144" y="191.965" fill="#EFD1B8" width="6" height="6"/>
	<rect x="156" y="191.965" fill="#323133" width="6" height="6"/>
	<rect x="150" y="191.965" fill="#EFD1B8" width="6" height="6"/>
	<rect x="132" y="191.965" fill="#323133" width="6" height="6"/>
	<rect x="126" y="191.965" fill="#323133" width="6" height="6"/>
	<rect x="120" y="185.965" fill="#323133" width="6" height="6"/>
	<rect x="120" y="197.965" fill="#EFD1B8" width="6" height="6"/>
	<rect x="120" y="191.965" fill="#323133" width="6" height="6"/>
	<rect x="162" y="191.965" fill="#323133" width="6" height="6"/>
	<rect x="168" y="191.965" fill="#231F20" width="6" height="6"/>
	<rect x="174" y="191.965" fill="#323133" width="6" height="6"/>
	<rect x="180" y="191.965" fill="#323133" width="6" height="6"/>
	<rect x="120" y="108.023" fill="#EED0C6" width="6" height="6"/>
	<rect x="126" y="108.023" fill="#EED0C6" width="6" height="6"/>
	<rect x="132" y="108.023" fill="#EFD1B8" width="6" height="6"/>
	<rect x="138" y="108.023" fill="#EFCFC0" width="6" height="6"/>
	<rect x="144" y="108.023" fill="#231F20" width="6" height="6"/>
	<rect x="120" y="114.023" fill="#EED0C6" width="6" height="6"/>
	<rect x="126" y="114.023" fill="#EED0C6" width="6" height="6"/>
	<rect x="132" y="114.023" fill="#EFD1B8" width="6" height="6"/>
	<rect x="138" y="114.023" fill="#EFD1B8" width="6" height="6"/>
	<rect x="144" y="114.023" fill="#414042" width="6" height="6"/>
	<rect x="120" y="120.023" fill="#EED0C6" width="6" height="6"/>
	<rect x="120" y="126" fill="#EFD1B8" width="6" height="6"/>
	<rect x="120" y="131.988" fill="#EFD1B8" width="6" height="6"/>
	<rect x="114" y="138" fill="#EFD1B8" width="6" height="6"/>
	<rect x="120" y="138" fill="#EFD1B8" width="6" height="6"/>
	<rect x="120" y="143.988" fill="#EFD1B8" width="6" height="6"/>
	<rect x="132" y="143.988" fill="#EFD1B8" width="6" height="6"/>
	<rect x="126" y="143.988" fill="#EFD1B8" width="6" height="6"/>
	<rect x="138" y="143.988" fill="#F3D9D0" width="6" height="6"/>
	<rect x="150" y="143.988" fill="#EEBFA2" width="6" height="6"/>
	<rect x="144" y="143.988" fill="#EFCFC0" width="6" height="6"/>
	<rect x="132" y="149.977" fill="#FFFFFF" width="6" height="6"/>
	<rect x="126" y="149.977" fill="#FFFFFF" width="6" height="6"/>
	<rect x="138" y="149.977" fill="#D28F8C" width="6" height="6"/>
	<rect x="144" y="149.977" fill="#F3D9D0" width="6" height="6"/>
	<rect x="132" y="155.965" fill="#D28F8C" width="6" height="6"/>
	<rect x="126" y="155.965" fill="#D28F8C" width="6" height="6"/>
	<rect x="138" y="155.965" fill="#EFD1B8" width="6" height="6"/>
	<rect x="144" y="155.965" fill="#EFD1B8" width="6" height="6"/>
	<rect x="132" y="161.965" fill="#EFD1B8" width="6" height="6"/>
	<rect x="126" y="161.965" fill="#EFCFC0" width="6" height="6"/>
	<rect x="138" y="161.965" fill="#EFD1B8" width="6" height="6"/>
	<rect x="138" y="167.965" fill="#E5B29B" width="6" height="6"/>
	<rect x="138" y="173.965" fill="#EFD1B8" width="6" height="6"/>
	<rect x="144" y="167.965" fill="#E5B29B" width="6" height="6"/>
	<rect x="144" y="161.965" fill="#EFD1B8" width="6" height="6"/>
	<rect x="150" y="161.965" fill="#E5B29B" width="6" height="6"/>
	<rect x="144" y="173.965" fill="#FFFFFF" width="6" height="6"/>
	<rect x="150" y="173.965" fill="#231F20" width="6" height="6"/>
	<rect x="132" y="173.965" fill="#231F20" width="6" height="6"/>
	<rect x="126" y="173.965" fill="#231F20" width="6" height="6"/>
	<rect x="132" y="167.965" fill="#231F20" width="6" height="6"/>
	<rect x="144" y="173.965" fill="#EFD1B8" width="6" height="6"/>
	<rect x="156" y="143.988" fill="#231F20" width="6" height="6"/>
	<rect x="150" y="138" fill="#EEBFA2" width="6" height="6"/>
	<rect x="156" y="138" fill="#EFD1B8" width="6" height="6"/>
	<rect x="150" y="155.965" fill="#EFD1B8" width="6" height="6"/>
	<rect x="156" y="155.965" fill="#5F3529" width="6" height="6"/>
	<rect x="150" y="149.977" fill="#EFCFC0" width="6" height="6"/>
	<rect x="156" y="149.977" fill="#231F20" width="6" height="6"/>
	<rect x="150" y="131.988" fill="#EEE1BF" width="6" height="6"/>
	<rect x="156" y="131.988" fill="#EFD1B8" width="6" height="6"/>
	<rect x="150" y="126" fill="#EEE1BF" width="6" height="6"/>
	<rect x="156" y="126" fill="#414042" width="6" height="6"/>
	<rect x="162" y="131.988" fill="#414042" width="6" height="6"/>
	<rect x="162" y="126" fill="#231F20" width="6" height="6"/>
	<rect x="126" y="120.012" fill="#231F20" width="6" height="6"/>
	<rect x="132" y="120.012" fill="#9B8579" width="6" height="6"/>
	<rect x="138" y="120.023" fill="#EFD1B8" width="6" height="6"/>
	<rect x="144" y="120.023" fill="#EFD1B8" width="6" height="6"/>
	<rect x="126" y="126" fill="#EFD1B8" width="6" height="6"/>
	<rect x="132" y="126" fill="#EFD1B8" width="6" height="6"/>
	<rect x="138" y="125.988" fill="#EFD1B8" width="6" height="6"/>
	<rect x="144" y="126" fill="#EFD1B8" width="6" height="6"/>
	<rect x="126" y="131.988" fill="#6A4333" width="6" height="6"/>
	<rect x="132" y="131.988" fill="#FFFFFF" width="6" height="6"/>
	<rect x="138" y="131.988" fill="#F3D9D0" width="6" height="6"/>
	<rect x="144" y="131.988" fill="#EFD1B8" width="6" height="6"/>
	<rect x="126" y="137.988" fill="#F3D9D0" width="6" height="6"/>
	<rect x="132" y="137.988" fill="#F3D9D0" width="6" height="6"/>
	<rect x="138" y="137.988" fill="#EED0C6" width="6" height="6"/>
	<rect x="144" y="137.988" fill="#EEBFA2" width="6" height="6"/>
	<rect x="150" y="108.023" fill="#231F20" width="6" height="6"/>
	<rect x="156" y="108.023" fill="#231F20" width="6" height="6"/>
	<rect x="150" y="96.035" fill="#3C2415" width="6" height="6"/>
	<rect x="156" y="96.035" fill="#5F3529" width="6" height="6"/>
	<rect x="156" y="102.035" fill="#3C2415" width="6" height="6"/>
	<rect x="162" y="102.035" fill="#231F20" width="6" height="6"/>
	<rect x="120" y="102.035" fill="#3C2415" width="6" height="6"/>
	<rect x="126" y="102.035" fill="#3C2415" width="6" height="6"/>
	<rect x="132" y="102.035" fill="#231F20" width="6" height="6"/>
	<rect x="138" y="102.035" fill="#3C2415" width="6" height="6"/>
	<rect x="144" y="102.035" fill="#231F20" width="6" height="6"/>
	<rect x="126" y="96.035" fill="#5F3529" width="6" height="6"/>
	<rect x="132" y="96.035" fill="#3C2415" width="6" height="6"/>
	<rect x="138" y="96.035" fill="#3C2415" width="6" height="6"/>
	<rect x="144" y="96.035" fill="#3C2415" width="6" height="6"/>
	<rect x="150" y="102.035" fill="#231F20" width="6" height="6"/>
	<rect x="150" y="114.023" fill="#231F20" width="6" height="6"/>
	<rect x="150" y="126" fill="#231F20" width="6" height="6"/>
	<rect x="150" y="131.988" fill="#231F20" width="6" height="6"/>
	<rect x="156" y="114.023" fill="#3C2415" width="6" height="6"/>
	<rect x="162" y="114.023" fill="#231F20" width="6" height="6"/>
	<rect x="162" y="108.023" fill="#231F20" width="6" height="6"/>
	<rect x="168" y="108.023" fill="#231F20" width="6" height="6"/>
	<rect x="162" y="120.023" fill="#231F20" width="6" height="6"/>
	<rect x="168" y="120.023" fill="#231F20" width="6" height="6"/>
	<rect x="168" y="114.023" fill="#231F20" width="6" height="6"/>
	<rect x="168" y="126.023" fill="#231F20" width="6" height="6"/>
	<rect x="168" y="131.988" fill="#231F20" width="6" height="6"/>
	<rect x="174" y="144" fill="#231F20" width="6" height="6"/>
	<rect x="168" y="138" fill="#414042" width="6" height="6"/>
	<rect x="174" y="138" fill="#231F20" width="6" height="6"/>
	<rect x="174" y="150" fill="#231F20" width="6" height="6"/>
	<rect x="162" y="144" fill="#231F20" width="6" height="6"/>
	<rect x="162" y="138" fill="#231F20" width="6" height="6"/>
	<rect x="162" y="150" fill="#231F20" width="6" height="6"/>
	<rect x="174" y="155.965" fill="#231F20" width="6" height="6"/>
	<rect x="162" y="155.965" fill="#3C2415" width="6" height="6"/>
	<rect x="174" y="161.965" fill="#231F20" width="6" height="6"/>
	<rect x="174" y="167.965" fill="#231F20" width="6" height="6"/>
	<rect x="180" y="150" fill="#231F20" width="6" height="6"/>
	<rect x="180" y="155.965" fill="#231F20" width="6" height="6"/>
	<rect x="180" y="161.965" fill="#231F20" width="6" height="6"/>
	<rect x="174" y="173.965" fill="#231F20" width="6" height="6"/>
	<rect x="180" y="173.965" fill="#231F20" width="6" height="6"/>
	<rect x="168" y="144" fill="#231F20" width="6" height="6"/>
	<rect x="168" y="150" fill="#231F20" width="6" height="6"/>
	<rect x="168" y="155.965" fill="#231F20" width="6" height="6"/>
	<rect x="168" y="161.965" fill="#231F20" width="6" height="6"/>
	<rect x="168" y="167.965" fill="#231F20" width="6" height="6"/>
	<rect x="168" y="173.965" fill="#231F20" width="6" height="6"/>
	<rect x="162" y="167.965" fill="#3C2415" width="6" height="6"/>
	<rect x="162" y="173.965" fill="#3C2415" width="6" height="6"/>
	<rect x="162" y="179.965" fill="#231F20" width="6" height="6"/>
	<rect x="162" y="161.965" fill="#3C2415" width="6" height="6"/>
	<rect x="156" y="161.965" fill="#231F20" width="6" height="6"/>
	<rect x="156" y="167.965" fill="#3C2415" width="6" height="6"/>
	<rect x="156" y="173.965" fill="#231F20" width="6" height="6"/>
	<rect x="150" y="167.965" fill="#EFD1B8" width="6" height="6"/>
	<rect x="150" y="120.023" fill="#414042" width="6" height="6"/>
	<rect x="156" y="120.023" fill="#5F3529" width="6" height="6"/>
</g>
</svg>
