<?xml version="1.0" encoding="utf-8"?>
<!-- Generator: Adobe Illustrator 16.0.0, SVG Export Plug-In . SVG Version: 6.00 Build 0)  -->
<!DOCTYPE svg PUBLIC "-//W3C//DTD SVG 1.1//EN" "http://www.w3.org/Graphics/SVG/1.1/DTD/svg11.dtd">
<svg version="1.1" id="Layer_1" xmlns="http://www.w3.org/2000/svg" xmlns:xlink="http://www.w3.org/1999/xlink" x="0px" y="0px"
	 width="300px" height="300px" viewBox="0 0 300 300" enable-background="new 0 0 300 300" xml:space="preserve">
<g>
	<rect x="116.998" y="99.055" fill="#EFD1B8" width="6" height="6"/>
	<rect x="122.998" y="99.055" fill="#EFD1B8" width="6" height="6"/>
	<rect x="122.998" y="93.047" fill="#AE9D85" width="6" height="6"/>
	<rect x="128.998" y="99.055" fill="#EFD1B8" width="6" height="6"/>
	<rect x="134.998" y="99.055" fill="#EFD1B8" width="6" height="6"/>
	<rect x="140.998" y="99.055" fill="#E5B29B" width="6" height="6"/>
	<rect x="146.998" y="99.055" fill="#E5B29B" width="6" height="6"/>
	<rect x="116.998" y="111.039" fill="#D7BFAA" width="6" height="6"/>
	<rect x="122.998" y="111.039" fill="#F7E0CF" width="6" height="6"/>
	<rect x="128.998" y="111.039" fill="#F7E0CF" width="6" height="6"/>
	<rect x="134.998" y="111.039" fill="#F7E0CF" width="6" height="6"/>
	<rect x="140.998" y="111.039" fill="#EFD1B8" width="6" height="6"/>
	<rect x="146.998" y="111.039" fill="#EFD1B8" width="6" height="6"/>
	<rect x="116.998" y="117.039" fill="#F7E0CF" width="6" height="6"/>
	<rect x="122.998" y="117.039" fill="#F7E0CF" width="6" height="6"/>
	<rect x="128.998" y="117.039" fill="#F7E0CF" width="6" height="6"/>
	<rect x="134.998" y="117.039" fill="#EFD1B8" width="6" height="6"/>
	<rect x="140.998" y="117.039" fill="#EFD1B8" width="6" height="6"/>
	<rect x="146.998" y="117.039" fill="#EFD1B8" width="6" height="6"/>
	<rect x="116.998" y="123.039" fill="#EFD1B8" width="6" height="6"/>
	<rect x="122.998" y="123.039" fill="#726658" width="6" height="6"/>
	<rect x="116.998" y="129.016" fill="#E5B29B" width="6" height="6"/>
	<rect x="122.998" y="129.016" fill="#6D808E" width="6" height="6"/>
	<rect x="116.998" y="135.008" fill="#E5B29B" width="6" height="6"/>
	<rect x="122.998" y="135.008" fill="#EFD1B8" width="6" height="6"/>
	<rect x="116.998" y="141.016" fill="#F7E0CF" width="6" height="6"/>
	<rect x="122.998" y="141.016" fill="#EFD1B8" width="6" height="6"/>
	<rect x="116.998" y="147.008" fill="#D7BFAA" width="6" height="6"/>
	<rect x="122.998" y="147.008" fill="#D7BFAA" width="6" height="6"/>
	<rect x="134.998" y="147.008" fill="#D7BFAA" width="6" height="6"/>
	<rect x="128.998" y="147.008" fill="#D7BFAA" width="6" height="6"/>
	<rect x="140.998" y="147.008" fill="#D7BFAA" width="6" height="6"/>
	<rect x="152.998" y="147.008" fill="#EFD1B8" width="6" height="6"/>
	<rect x="146.998" y="147.008" fill="#F7E0CF" width="6" height="6"/>
	<rect x="134.998" y="152.992" fill="#FFFFFF" width="6" height="6"/>
	<rect x="128.998" y="152.992" fill="#FFFFFF" width="6" height="6"/>
	<rect x="140.998" y="152.992" fill="#FFFFFF" width="6" height="6"/>
	<rect x="146.998" y="152.992" fill="#AD6A6D" width="6" height="6"/>
	<rect x="134.998" y="158.984" fill="#D28F8C" width="6" height="6"/>
	<rect x="128.998" y="158.984" fill="#D28F8C" width="6" height="6"/>
	<rect x="140.998" y="158.984" fill="#D28F8C" width="6" height="6"/>
	<rect x="146.998" y="158.984" fill="#D7BFAA" width="6" height="6"/>
	<rect x="134.998" y="164.984" fill="#D7BFAA" width="6" height="6"/>
	<rect x="128.998" y="164.984" fill="#D7BFAA" width="6" height="6"/>
	<rect x="140.998" y="164.984" fill="#D7BFAA" width="6" height="6"/>
	<rect x="146.998" y="164.984" fill="#D7BFAA" width="6" height="6"/>
	<rect x="152.998" y="164.984" fill="#D7BFAA" width="6" height="6"/>
	<rect x="140.998" y="170.953" fill="#E5B29B" width="6" height="6"/>
	<rect x="146.998" y="170.953" fill="#E5B29B" width="6" height="6"/>
	<rect x="152.998" y="170.953" fill="#E5B29B" width="6" height="6"/>
	<rect x="164.998" y="164.984" fill="#EFD1B8" width="6" height="6"/>
	<rect x="164.998" y="170.953" fill="#EFD1B8" width="6" height="6"/>
	<rect x="164.998" y="147.008" fill="#EFD1B8" width="6" height="6"/>
	<rect x="152.998" y="141.016" fill="#EFD1B8" width="6" height="6"/>
	<rect x="164.998" y="141.016" fill="#EFD1B8" width="6" height="6"/>
	<rect x="152.998" y="158.984" fill="#D7BFAA" width="6" height="6"/>
	<rect x="164.998" y="158.984" fill="#EFD1B8" width="6" height="6"/>
	<rect x="152.998" y="152.992" fill="#EFD1B8" width="6" height="6"/>
	<rect x="164.998" y="152.992" fill="#EFD1B8" width="6" height="6"/>
	<rect x="152.998" y="135.008" fill="#EFD1B8" width="6" height="6"/>
	<rect x="164.998" y="135.008" fill="#EFD1B8" width="6" height="6"/>
	<rect x="152.998" y="129.016" fill="#EFD1B8" width="6" height="6"/>
	<rect x="164.998" y="129.016" fill="#E5B29B" width="6" height="6"/>
	<rect x="170.998" y="135.008" fill="#EFD1B8" width="6" height="6"/>
	<rect x="170.998" y="129.016" fill="#EFD1B8" width="6" height="6"/>
	<rect x="128.998" y="123.039" fill="#726658" width="6" height="6"/>
	<rect x="134.998" y="123.039" fill="#F7E0CF" width="6" height="6"/>
	<rect x="140.998" y="123.039" fill="#EFD1B8" width="6" height="6"/>
	<rect x="146.998" y="123.039" fill="#EFD1B8" width="6" height="6"/>
	<rect x="128.998" y="129.016" fill="#FFFFFF" width="6" height="6"/>
	<rect x="134.998" y="129.016" fill="#D7BFAA" width="6" height="6"/>
	<rect x="140.998" y="129.016" fill="#EFD1B8" width="6" height="6"/>
	<rect x="146.998" y="129.016" fill="#EFD1B8" width="6" height="6"/>
	<rect x="128.998" y="135.008" fill="#F7E0CF" width="6" height="6"/>
	<rect x="134.998" y="135.008" fill="#F7E0CF" width="6" height="6"/>
	<rect x="140.998" y="135.008" fill="#EFD1B8" width="6" height="6"/>
	<rect x="146.998" y="135.008" fill="#EFD1B8" width="6" height="6"/>
	<rect x="128.998" y="141.008" fill="#F7E0CF" width="6" height="6"/>
	<rect x="134.998" y="141.008" fill="#F7E0CF" width="6" height="6"/>
	<rect x="140.998" y="141.008" fill="#F7E0CF" width="6" height="6"/>
	<rect x="146.998" y="141.008" fill="#EFD1B8" width="6" height="6"/>
	<rect x="152.998" y="111.039" fill="#58595B" width="6" height="6"/>
	<rect x="164.998" y="111.039" fill="#464749" width="6" height="6"/>
	<rect x="116.998" y="105.055" fill="#F7E0CF" width="6" height="6"/>
	<rect x="122.998" y="105.055" fill="#F7E0CF" width="6" height="6"/>
	<rect x="128.998" y="105.055" fill="#F7E0CF" width="6" height="6"/>
	<rect x="134.998" y="105.055" fill="#F7E0CF" width="6" height="6"/>
	<rect x="140.998" y="105.055" fill="#F7E0CF" width="6" height="6"/>
	<rect x="146.998" y="105.055" fill="#E5B29B" width="6" height="6"/>
	<rect x="152.998" y="105.055" fill="#58595B" width="6" height="6"/>
	<rect x="152.998" y="99.055" fill="#E5B29B" width="6" height="6"/>
	<rect x="164.998" y="105.055" fill="#726658" width="6" height="6"/>
	<rect x="164.998" y="99.055" fill="#231F20" width="6" height="6"/>
	<rect x="164.998" y="93.047" fill="#231F20" width="6" height="6"/>
	<rect x="170.998" y="105.055" fill="#231F20" width="6" height="6"/>
	<rect x="170.998" y="99.055" fill="#231F20" width="6" height="6"/>
	<rect x="128.998" y="93.055" fill="#9B8579" width="6" height="6"/>
	<rect x="134.998" y="93.055" fill="#58595B" width="6" height="6"/>
	<rect x="140.998" y="93.055" fill="#58595B" width="6" height="6"/>
	<rect x="146.998" y="93.055" fill="#58595B" width="6" height="6"/>
	<rect x="152.998" y="93.055" fill="#726658" width="6" height="6"/>
	<rect x="152.998" y="117.039" fill="#58595B" width="6" height="6"/>
	<rect x="146.998" y="117.039" fill="#EFD1B8" width="6" height="6"/>
	<rect x="152.998" y="129.016" fill="#EFD1B8" width="6" height="6"/>
	<rect x="164.998" y="117.039" fill="#F7E0CF" width="6" height="6"/>
	<rect x="152.998" y="123.039" fill="#EFD1B8" width="6" height="6"/>
	<rect x="164.998" y="123.039" fill="#E5B29B" width="6" height="6"/>
	<rect x="170.998" y="111.039" fill="#231F20" width="6" height="6"/>
	<rect x="170.998" y="117.039" fill="#F7E0CF" width="6" height="6"/>
	<rect x="170.998" y="123.039" fill="#F7E0CF" width="6" height="6"/>
	<rect x="110.998" y="140.984" fill="#EFD1B8" width="6" height="6"/>
	<rect x="105.002" y="140.984" fill="#EFD1B8" width="5.996" height="6"/>
	<rect x="110.998" y="134.984" fill="#EFD1B8" width="6" height="6"/>
	<rect x="110.998" y="129.016" fill="#EFD1B8" width="6" height="6"/>
	<rect x="140.998" y="176.945" fill="#EFD1B8" width="6" height="6"/>
	<rect x="146.998" y="176.945" fill="#F7E0CF" width="6" height="6"/>
	<rect x="152.998" y="176.945" fill="#EFD1B8" width="6" height="6"/>
	<rect x="140.998" y="182.953" fill="#EFD1B8" width="6" height="6"/>
	<rect x="146.998" y="182.953" fill="#EFD1B8" width="6" height="6"/>
	<rect x="170.998" y="176.953" fill="#C3D2E0" width="6" height="6"/>
	<rect x="164.998" y="182.953" fill="#C3D2E0" width="6" height="6"/>
	<rect x="164.998" y="176.953" fill="#EFD1B8" width="6" height="6"/>
	<rect x="152.998" y="182.953" fill="#EFD1B8" width="6" height="6"/>
	<rect x="134.998" y="182.953" fill="#C3D2E0" width="6" height="6"/>
	<rect x="128.998" y="182.953" fill="#C3D2E0" width="6" height="6"/>
	<rect x="134.998" y="176.953" fill="#C3D2E0" width="6" height="6"/>
	<rect x="170.998" y="182.953" fill="#C3D2E0" width="6" height="6"/>
	<rect x="176.998" y="182.953" fill="#C7E1F5" width="6" height="6"/>
	<rect x="182.998" y="182.953" fill="#C7E1F5" width="6" height="6"/>
	<rect x="140.998" y="194.953" fill="#C7E1F5" width="6" height="6"/>
	<rect x="146.998" y="194.953" fill="#913844" width="6" height="6"/>
	<rect x="164.998" y="194.953" fill="#C3D2E0" width="6" height="6"/>
	<rect x="152.998" y="194.953" fill="#C7E1F5" width="6" height="6"/>
	<rect x="134.998" y="194.953" fill="#C3D2E0" width="6" height="6"/>
	<rect x="134.998" y="200.953" fill="#C3D2E0" width="6" height="6"/>
	<rect x="128.998" y="194.953" fill="#C3D2E0" width="6" height="6"/>
	<rect x="122.998" y="194.953" fill="#C7E1F5" width="6" height="6"/>
	<rect x="170.998" y="194.953" fill="#C7E1F5" width="6" height="6"/>
	<rect x="176.998" y="194.953" fill="#C7E1F5" width="6" height="6"/>
	<rect x="182.998" y="194.953" fill="#C7E1F5" width="6" height="6"/>
	<rect x="188.998" y="194.953" fill="#C7E1F5" width="6" height="6"/>
	<rect x="140.998" y="206.953" fill="#C7E1F5" width="6" height="6"/>
	<rect x="146.998" y="206.953" fill="#913844" width="6" height="6"/>
	<rect x="164.998" y="206.953" fill="#C7E1F5" width="6" height="6"/>
	<rect x="152.998" y="206.953" fill="#C7E1F5" width="6" height="6"/>
	<rect x="134.998" y="206.953" fill="#C7E1F5" width="6" height="6"/>
	<rect x="128.998" y="206.953" fill="#C3D2E0" width="6" height="6"/>
	<rect x="122.998" y="206.953" fill="#C7E1F5" width="6" height="6"/>
	<rect x="170.998" y="206.953" fill="#C7E1F5" width="6" height="6"/>
	<rect x="176.998" y="206.953" fill="#C3D2E0" width="6" height="6"/>
	<rect x="182.998" y="206.953" fill="#C7E1F5" width="6" height="6"/>
	<rect x="188.998" y="206.953" fill="#C7E1F5" width="6" height="6"/>
	<rect x="140.998" y="188.953" fill="#913844" width="6" height="6"/>
	<rect x="146.998" y="188.953" fill="#A97C50" width="6" height="6"/>
	<rect x="164.998" y="188.953" fill="#C3D2E0" width="6" height="6"/>
	<rect x="152.998" y="188.953" fill="#913844" width="6" height="6"/>
	<rect x="134.998" y="188.953" fill="#C3D2E0" width="6" height="6"/>
	<rect x="128.998" y="188.953" fill="#C3D2E0" width="6" height="6"/>
	<rect x="122.998" y="188.953" fill="#C7E1F5" width="6" height="6"/>
	<rect x="170.998" y="188.953" fill="#C3D2E0" width="6" height="6"/>
	<rect x="176.998" y="188.953" fill="#C7E1F5" width="6" height="6"/>
	<rect x="182.998" y="188.953" fill="#C7E1F5" width="6" height="6"/>
	<rect x="188.998" y="188.953" fill="#C7E1F5" width="6" height="6"/>
	<rect x="140.998" y="200.953" fill="#C7E1F5" width="6" height="6"/>
	<rect x="146.998" y="200.953" fill="#A97C50" width="6" height="6"/>
	<rect x="164.998" y="200.953" fill="#C7E1F5" width="6" height="6"/>
	<rect x="158.998" y="164.984" fill="#E5B29B" width="6" height="6"/>
	<rect x="158.998" y="170.953" fill="#E5B29B" width="6" height="6"/>
	<rect x="158.998" y="147.008" fill="#EFD1B8" width="6" height="6"/>
	<rect x="158.998" y="141.016" fill="#D7BFAA" width="6" height="6"/>
	<rect x="158.998" y="158.984" fill="#E5B29B" width="6" height="6"/>
	<rect x="158.998" y="152.992" fill="#EFD1B8" width="6" height="6"/>
	<rect x="158.998" y="135.008" fill="#D7BFAA" width="6" height="6"/>
	<rect x="158.998" y="129.016" fill="#EFD1B8" width="6" height="6"/>
	<rect x="158.998" y="111.039" fill="#58595B" width="6" height="6"/>
	<rect x="158.998" y="105.055" fill="#464749" width="6" height="6"/>
	<rect x="158.998" y="99.055" fill="#58595B" width="6" height="6"/>
	<rect x="158.998" y="93.047" fill="#231F20" width="6" height="6"/>
	<rect x="128.998" y="87.047" fill="#AE9D85" width="6" height="6"/>
	<rect x="134.998" y="87.047" fill="#726658" width="6" height="6"/>
	<rect x="140.998" y="87.047" fill="#58595B" width="6" height="6"/>
	<rect x="146.998" y="87.047" fill="#231F20" width="6" height="6"/>
	<rect x="152.998" y="87.047" fill="#231F20" width="6" height="6"/>
	<rect x="158.998" y="87.047" fill="#231F20" width="6" height="6"/>
	<rect x="158.998" y="117.039" fill="#58595B" width="6" height="6"/>
	<rect x="158.998" y="123.039" fill="#58595B" width="6" height="6"/>
	<rect x="158.998" y="182.953" fill="#C3D2E0" width="6" height="6"/>
	<rect x="158.998" y="176.953" fill="#EFD1B8" width="6" height="6"/>
	<rect x="158.998" y="194.953" fill="#C3D2E0" width="6" height="6"/>
	<rect x="158.998" y="206.953" fill="#C7E1F5" width="6" height="6"/>
	<rect x="158.998" y="188.953" fill="#C3D2E0" width="6" height="6"/>
	<rect x="158.998" y="200.953" fill="#C3D2E0" width="6" height="6"/>
	<rect x="152.998" y="200.953" fill="#C7E1F5" width="6" height="6"/>
	<rect x="134.998" y="200.953" fill="#C3D2E0" width="6" height="6"/>
	<rect x="128.998" y="200.953" fill="#C7E1F5" width="6" height="6"/>
	<rect x="122.998" y="200.953" fill="#C7E1F5" width="6" height="6"/>
	<rect x="116.998" y="194.953" fill="#C7E1F5" width="6" height="6"/>
	<rect x="116.998" y="206.953" fill="#C7E1F5" width="6" height="6"/>
	<rect x="116.998" y="200.953" fill="#C7E1F5" width="6" height="6"/>
	<rect x="170.998" y="200.953" fill="#C7E1F5" width="6" height="6"/>
	<rect x="176.998" y="200.953" fill="#C7E1F5" width="6" height="6"/>
	<rect x="182.998" y="200.953" fill="#C7E1F5" width="6" height="6"/>
	<rect x="188.998" y="200.953" fill="#C7E1F5" width="6" height="6"/>
</g>
</svg>
