<?xml version="1.0" encoding="utf-8"?>
<!-- Generator: Adobe Illustrator 16.0.0, SVG Export Plug-In . SVG Version: 6.00 Build 0)  -->
<!DOCTYPE svg PUBLIC "-//W3C//DTD SVG 1.1//EN" "http://www.w3.org/Graphics/SVG/1.1/DTD/svg11.dtd">
<svg version="1.1" id="Layer_1" xmlns="http://www.w3.org/2000/svg" xmlns:xlink="http://www.w3.org/1999/xlink" x="0px" y="0px"
	 width="300px" height="300px" viewBox="0 0 300 300" enable-background="new 0 0 300 300" xml:space="preserve">
<g>
	<rect x="117" y="120.039" fill="#F7E0CF" width="6" height="6"/>
	<rect x="123" y="120.039" fill="#EFD1B8" width="6" height="6"/>
	<rect x="117" y="126.016" fill="#3C2415" width="6" height="6"/>
	<rect x="123" y="126.016" fill="#603913" width="6" height="6"/>
	<rect x="117" y="137.977" fill="#EFD1B8" width="6" height="6"/>
	<rect x="123" y="137.977" fill="#7D7967" width="6" height="6"/>
	<rect x="117" y="143.984" fill="#EFD1B8" width="6" height="6"/>
	<rect x="123" y="143.984" fill="#EFD1B8" width="6" height="6"/>
	<rect x="117" y="149.977" fill="#3C2415" width="6" height="6"/>
	<rect x="111" y="143.984" fill="#EFD1B8" width="6" height="6"/>
	<rect x="111" y="137.984" fill="#EFCFC0" width="6" height="6"/>
	<rect x="123" y="149.977" fill="#603913" width="6" height="6"/>
	<rect x="135" y="149.977" fill="#9B8579" width="6" height="6"/>
	<rect x="129" y="149.977" fill="#726658" width="6" height="6"/>
	<rect x="141" y="149.977" fill="#EFCFC0" width="6" height="6"/>
	<rect x="153" y="149.977" fill="#D7BFAA" width="6" height="6"/>
	<rect x="147" y="149.977" fill="#EFD1B8" width="6" height="6"/>
	<rect x="135" y="155.961" fill="#FFFFFF" width="6" height="6"/>
	<rect x="129" y="155.961" fill="#FFFFFF" width="6" height="6"/>
	<rect x="141" y="155.961" fill="#BB807B" width="6" height="6"/>
	<rect x="147" y="155.961" fill="#D7BFAA" width="6" height="6"/>
	<rect x="135" y="161.953" fill="#D28F8C" width="6" height="6"/>
	<rect x="129" y="161.953" fill="#D28F8C" width="6" height="6"/>
	<rect x="141" y="161.953" fill="#EFD1B8" width="6" height="6"/>
	<rect x="147" y="161.953" fill="#D7BFAA" width="6" height="6"/>
	<rect x="135" y="167.953" fill="#603913" width="6" height="6"/>
	<rect x="129" y="167.953" fill="#3C2415" width="6" height="6"/>
	<rect x="141" y="167.953" fill="#3C2415" width="6" height="6"/>
	<rect x="135" y="173.953" fill="#9B8579" width="6" height="6"/>
	<rect x="141" y="173.953" fill="#9B8579" width="6" height="6"/>
	<rect x="135" y="179.953" fill="#D7BFAA" width="6" height="6"/>
	<rect x="141" y="179.953" fill="#D7BFAA" width="6" height="6"/>
	<rect x="147" y="173.953" fill="#9B8579" width="6" height="6"/>
	<rect x="147" y="167.953" fill="#603913" width="6" height="6"/>
	<rect x="153" y="167.953" fill="#D7BFAA" width="6" height="6"/>
	<rect x="153" y="173.953" fill="#D7BFAA" width="6" height="6"/>
	<rect x="159" y="173.953" fill="#231F20" width="6" height="6"/>
	<rect x="165" y="173.953" fill="#323133" width="6" height="6"/>
	<rect x="159" y="167.953" fill="#EFD1B8" width="6" height="6"/>
	<rect x="153" y="179.953" fill="#231F20" width="6" height="6"/>
	<rect x="147" y="179.953" fill="#D7BFAA" width="6" height="6"/>
	<rect x="129" y="179.953" fill="#231F20" width="6" height="6"/>
	<rect x="117" y="179.953" fill="#323133" width="6" height="6"/>
	<rect x="159" y="179.953" fill="#323133" width="6" height="6"/>
	<rect x="165" y="179.953" fill="#323133" width="6" height="6"/>
	<rect x="171" y="179.953" fill="#323133" width="6" height="6"/>
	<rect x="135" y="191.953" fill="#231F20" width="6" height="6"/>
	<rect x="141" y="191.953" fill="#231F20" width="6" height="6"/>
	<rect x="153" y="191.953" fill="#323133" width="6" height="6"/>
	<rect x="147" y="191.953" fill="#231F20" width="6" height="6"/>
	<rect x="129" y="191.953" fill="#323133" width="6" height="6"/>
	<rect x="117" y="191.953" fill="#323133" width="6" height="6"/>
	<rect x="111" y="191.953" fill="#323133" width="6" height="6"/>
	<rect x="159" y="191.953" fill="#323133" width="6" height="6"/>
	<rect x="165" y="191.953" fill="#323133" width="6" height="6"/>
	<rect x="171" y="191.953" fill="#323133" width="6" height="6"/>
	<rect x="177" y="191.953" fill="#323133" width="6" height="6"/>
	<rect x="135" y="203.953" fill="#323133" width="6" height="6"/>
	<rect x="141" y="203.953" fill="#D7DF23" width="6" height="6"/>
	<rect x="153" y="203.953" fill="#D7DF23" width="6" height="6"/>
	<rect x="147" y="203.953" fill="#323133" width="6" height="6"/>
	<rect x="129" y="203.953" fill="#D7DF23" width="6" height="6"/>
	<rect x="117" y="203.953" fill="#EFD1B8" width="6" height="6"/>
	<rect x="111" y="203.953" fill="#EFD1B8" width="6" height="6"/>
	<rect x="159" y="203.953" fill="#231F20" width="6" height="6"/>
	<rect x="165" y="203.953" fill="#EFD1B8" width="6" height="6"/>
	<rect x="171" y="203.953" fill="#EFD1B8" width="6" height="6"/>
	<rect x="177" y="203.953" fill="#EFD1B8" width="6" height="6"/>
	<rect x="135" y="185.953" fill="#ECEEEE" width="6" height="6"/>
	<rect x="141" y="185.953" fill="#ECEEEE" width="6" height="6"/>
	<rect x="153" y="185.953" fill="#231F20" width="6" height="6"/>
	<rect x="147" y="185.953" fill="#ECEEEE" width="6" height="6"/>
	<rect x="129" y="185.953" fill="#231F20" width="6" height="6"/>
	<rect x="117" y="185.953" fill="#323133" width="6" height="6"/>
	<rect x="111" y="185.953" fill="#323133" width="6" height="6"/>
	<rect x="159" y="185.953" fill="#323133" width="6" height="6"/>
	<rect x="165" y="185.953" fill="#323133" width="6" height="6"/>
	<rect x="171" y="185.953" fill="#323133" width="6" height="6"/>
	<rect x="177" y="185.953" fill="#323133" width="6" height="6"/>
	<rect x="135" y="197.953" fill="#323133" width="6" height="6"/>
	<rect x="141" y="197.953" fill="#D7DF23" width="6" height="6"/>
	<rect x="153" y="197.953" fill="#323133" width="6" height="6"/>
	<rect x="147" y="197.953" fill="#323133" width="6" height="6"/>
	<rect x="129" y="197.953" fill="#323133" width="6" height="6"/>
	<rect x="117" y="197.953" fill="#323133" width="6" height="6"/>
	<rect x="123" y="179.953" fill="#323133" width="6" height="6"/>
	<rect x="123" y="191.953" fill="#323133" width="6" height="6"/>
	<rect x="123" y="203.953" fill="#231F20" width="6" height="6"/>
	<rect x="123" y="185.953" fill="#323133" width="6" height="6"/>
	<rect x="123" y="197.953" fill="#323133" width="6" height="6"/>
	<rect x="111" y="197.953" fill="#323133" width="6" height="6"/>
	<rect x="159" y="197.953" fill="#323133" width="6" height="6"/>
	<rect x="165" y="197.953" fill="#323133" width="6" height="6"/>
	<rect x="171" y="197.953" fill="#323133" width="6" height="6"/>
	<rect x="177" y="197.953" fill="#323133" width="6" height="6"/>
	<rect x="159" y="149.977" fill="#D7BFAA" width="6" height="6"/>
	<rect x="153" y="143.984" fill="#D7BFAA" width="6" height="6"/>
	<rect x="159" y="143.984" fill="#EFD1B8" width="6" height="6"/>
	<rect x="153" y="161.953" fill="#594A42" width="6" height="6"/>
	<rect x="159" y="161.953" fill="#EFD1B8" width="6" height="6"/>
	<rect x="153" y="155.961" fill="#9B8579" width="6" height="6"/>
	<rect x="159" y="155.961" fill="#EFD1B8" width="6" height="6"/>
	<rect x="153" y="137.977" fill="#9B8579" width="6" height="6"/>
	<rect x="159" y="137.977" fill="#EFD1B8" width="6" height="6"/>
	<rect x="153" y="126.016" fill="#3C2415" width="6" height="6"/>
	<rect x="159" y="126.016" fill="#EFD1B8" width="6" height="6"/>
	<rect x="165" y="137.977" fill="#EFD1B8" width="6" height="6"/>
	<rect x="165" y="131.984" fill="#EFD1B8" width="6" height="6"/>
	<rect x="129" y="120.039" fill="#603913" width="6" height="6"/>
	<rect x="135" y="120.039" fill="#3C2415" width="6" height="6"/>
	<rect x="141" y="120.039" fill="#603913" width="6" height="6"/>
	<rect x="147" y="120.039" fill="#3C2415" width="6" height="6"/>
	<rect x="129" y="126.016" fill="#EFD1B8" width="6" height="6"/>
	<rect x="135" y="126.016" fill="#EFD1B8" width="6" height="6"/>
	<rect x="141" y="126.016" fill="#231F20" width="6" height="6"/>
	<rect x="147" y="126.016" fill="#8B5E3C" width="6" height="6"/>
	<rect x="117" y="131.984" fill="#EFD1B8" width="6" height="6"/>
	<rect x="123" y="131.984" fill="#EFD1B8" width="6" height="6"/>
	<rect x="153" y="131.984" fill="#3C2415" width="6" height="6"/>
	<rect x="159" y="131.984" fill="#D5CBAD" width="6" height="6"/>
	<rect x="129" y="131.984" fill="#D7BFAA" width="6" height="6"/>
	<rect x="135" y="131.984" fill="#EFD1B8" width="6" height="6"/>
	<rect x="141" y="131.984" fill="#EFD1B8" width="6" height="6"/>
	<rect x="147" y="131.984" fill="#EFD1B8" width="6" height="6"/>
	<rect x="129" y="137.977" fill="#FFFFFF" width="6" height="6"/>
	<rect x="135" y="137.977" fill="#F7E0CF" width="6" height="6"/>
	<rect x="141" y="137.977" fill="#EFD1B8" width="6" height="6"/>
	<rect x="147" y="137.977" fill="#EFD1B8" width="6" height="6"/>
	<rect x="129" y="143.977" fill="#F7E0CF" width="6" height="6"/>
	<rect x="135" y="143.977" fill="#EFCFC0" width="6" height="6"/>
	<rect x="141" y="143.977" fill="#EFD1B8" width="6" height="6"/>
	<rect x="147" y="143.977" fill="#EFD1B8" width="6" height="6"/>
	<rect x="153" y="120.039" fill="#603913" width="6" height="6"/>
	<rect x="159" y="120.039" fill="#BE1E2D" width="6" height="6"/>
	<rect x="165" y="126.016" fill="#EFD1B8" width="6" height="6"/>
	<rect x="165" y="120.039" fill="#BE1E2D" width="6" height="6"/>
	<rect x="123" y="114.039" fill="#BE1E2D" width="6" height="6"/>
	<rect x="129" y="114.039" fill="#BE1E2D" width="6" height="6"/>
	<rect x="135" y="114.039" fill="#BE1E2D" width="6" height="6"/>
	<rect x="141" y="114.039" fill="#BE1E2D" width="6" height="6"/>
	<rect x="147" y="114.039" fill="#BE1E2D" width="6" height="6"/>
	<rect x="153" y="114.039" fill="#BE1E2D" width="6" height="6"/>
	<rect x="159" y="114.039" fill="#BE1E2D" width="6" height="6"/>
	<rect x="123" y="108.047" fill="#911C24" width="6" height="6"/>
	<rect x="117" y="114.039" fill="#BE1E2D" width="6" height="6"/>
	<rect x="177" y="120.039" fill="#BE1E2D" width="6" height="6"/>
	<rect x="183" y="120.039" fill="#BE1E2D" width="6" height="6"/>
	<rect x="171" y="120.039" fill="#BE1E2D" width="6" height="6"/>
	<rect x="117" y="108.047" fill="#BE1E2D" width="6" height="6"/>
	<rect x="117" y="102.047" fill="#911C24" width="6" height="6"/>
	<rect x="117" y="96.047" fill="#BE1E2D" width="6" height="6"/>
	<rect x="129" y="108.047" fill="#BE1E2D" width="6" height="6"/>
	<rect x="135" y="108.047" fill="#BE1E2D" width="6" height="6"/>
	<rect x="141" y="108.047" fill="#BE1E2D" width="6" height="6"/>
	<rect x="147" y="108.047" fill="#BE1E2D" width="6" height="6"/>
	<rect x="123" y="102.047" fill="#911C24" width="6" height="6"/>
	<rect x="129" y="102.047" fill="#911C24" width="6" height="6"/>
	<rect x="135" y="102.047" fill="#BE1E2D" width="6" height="6"/>
	<rect x="141" y="102.047" fill="#BE1E2D" width="6" height="6"/>
	<rect x="147" y="102.047" fill="#BE1E2D" width="6" height="6"/>
	<rect x="153" y="108.047" fill="#BE1E2D" width="6" height="6"/>
	<rect x="153" y="102.047" fill="#BE1E2D" width="6" height="6"/>
	<rect x="123" y="96.047" fill="#F7941E" width="6" height="6"/>
	<rect x="129" y="96.047" fill="#BE1E2D" width="6" height="6"/>
	<rect x="135" y="96.047" fill="#BE1E2D" width="6" height="6"/>
	<rect x="141" y="96.047" fill="#BE1E2D" width="6" height="6"/>
	<rect x="147" y="96.047" fill="#BE1E2D" width="6" height="6"/>
	<rect x="123" y="90.047" fill="#BE1E2D" width="6" height="6"/>
	<rect x="129" y="90.047" fill="#BE1E2D" width="6" height="6"/>
	<rect x="135" y="90.047" fill="#BE1E2D" width="6" height="6"/>
	<rect x="141" y="90.047" fill="#BE1E2D" width="6" height="6"/>
	<rect x="147" y="90.047" fill="#911C24" width="6" height="6"/>
	<rect x="153" y="90.047" fill="#BE1E2D" width="6" height="6"/>
	<rect x="153" y="96.047" fill="#BE1E2D" width="6" height="6"/>
	<rect x="159" y="90.047" fill="#BE1E2D" width="6" height="6"/>
	<rect x="165" y="96.047" fill="#BE1E2D" width="6" height="6"/>
	<rect x="159" y="96.047" fill="#BE1E2D" width="6" height="6"/>
	<rect x="159" y="108.047" fill="#BE1E2D" width="6" height="6"/>
	<rect x="159" y="102.047" fill="#BE1E2D" width="6" height="6"/>
	<rect x="165" y="114.039" fill="#BE1E2D" width="6" height="6"/>
	<rect x="165" y="108.047" fill="#BE1E2D" width="6" height="6"/>
	<rect x="165" y="102.047" fill="#BE1E2D" width="6" height="6"/>
</g>
</svg>
