<?xml version="1.0" encoding="utf-8"?>
<!-- Generator: Adobe Illustrator 16.0.0, SVG Export Plug-In . SVG Version: 6.00 Build 0)  -->
<!DOCTYPE svg PUBLIC "-//W3C//DTD SVG 1.1//EN" "http://www.w3.org/Graphics/SVG/1.1/DTD/svg11.dtd">
<svg version="1.1" id="Layer_1" xmlns="http://www.w3.org/2000/svg" xmlns:xlink="http://www.w3.org/1999/xlink" x="0px" y="0px"
	 width="300px" height="300px" viewBox="0 0 300 300" enable-background="new 0 0 300 300" xml:space="preserve">
<g>
	<rect x="168.002" y="170.953" fill="#6D6F72" width="6" height="6"/>
	<rect x="126.002" y="176.953" fill="#6D6F72" width="6" height="6"/>
	<rect x="162.002" y="176.953" fill="#FFFFFF" width="6" height="6"/>
	<rect x="168.002" y="176.953" fill="#6D6F72" width="6" height="6"/>
	<rect x="174.002" y="176.953" fill="#6D6F72" width="6" height="6"/>
	<rect x="138.002" y="188.953" fill="#C3D2E0" width="6" height="6"/>
	<rect x="144.002" y="188.953" fill="#4C7993" width="6" height="6"/>
	<rect x="156.002" y="188.953" fill="#FFFFFF" width="6" height="6"/>
	<rect x="150.002" y="188.953" fill="#C3D2E0" width="6" height="6"/>
	<rect x="132.002" y="188.953" fill="#FFFFFF" width="6" height="6"/>
	<rect x="132.002" y="194.953" fill="#FFFFFF" width="6" height="6"/>
	<rect x="126.002" y="188.953" fill="#6D6F72" width="6" height="6"/>
	<rect x="120.002" y="188.953" fill="#464749" width="6" height="6"/>
	<rect x="162.002" y="188.953" fill="#FFFFFF" width="6" height="6"/>
	<rect x="168.002" y="188.953" fill="#464749" width="6" height="6"/>
	<rect x="174.002" y="188.953" fill="#6D6F72" width="6" height="6"/>
	<rect x="180.002" y="188.953" fill="#6D6F72" width="6" height="6"/>
	<rect x="138.002" y="200.953" fill="#ECEEEE" width="6" height="6"/>
	<rect x="144.002" y="200.953" fill="#4C7993" width="6" height="6"/>
	<rect x="156.002" y="200.953" fill="#ECEEEE" width="6" height="6"/>
	<rect x="150.002" y="200.953" fill="#ECEEEE" width="6" height="6"/>
	<rect x="132.002" y="200.953" fill="#464749" width="6" height="6"/>
	<rect x="126.002" y="200.953" fill="#6D6F72" width="6" height="6"/>
	<rect x="120.002" y="200.953" fill="#6D6F72" width="6" height="6"/>
	<rect x="162.002" y="200.953" fill="#464749" width="6" height="6"/>
	<rect x="168.002" y="200.953" fill="#6D6F72" width="6" height="6"/>
	<rect x="174.002" y="200.953" fill="#464749" width="6" height="6"/>
	<rect x="180.002" y="200.953" fill="#6D6F72" width="6" height="6"/>
	<rect x="138.002" y="182.953" fill="#EFD1B8" width="6" height="6"/>
	<rect x="144.002" y="182.953" fill="#D7BFAA" width="6" height="6"/>
	<rect x="150.002" y="182.953" fill="#EFD1B8" width="6" height="6"/>
	<rect x="132.002" y="182.953" fill="#FFFFFF" width="6" height="6"/>
	<rect x="126.002" y="182.953" fill="#6D6F72" width="6" height="6"/>
	<rect x="120.002" y="182.953" fill="#6D6F72" width="6" height="6"/>
	<rect x="162.002" y="182.953" fill="#FFFFFF" width="6" height="6"/>
	<rect x="168.002" y="182.953" fill="#6D6F72" width="6" height="6"/>
	<rect x="174.002" y="182.953" fill="#464749" width="6" height="6"/>
	<rect x="180.002" y="182.953" fill="#6D6F72" width="6" height="6"/>
	<rect x="138.002" y="194.953" fill="#ECEEEE" width="6" height="6"/>
	<rect x="144.002" y="194.953" fill="#C3D2E0" width="6" height="6"/>
	<rect x="156.002" y="194.953" fill="#FFFFFF" width="6" height="6"/>
	<rect x="150.002" y="194.953" fill="#ECEEEE" width="6" height="6"/>
	<rect x="126.002" y="194.953" fill="#464749" width="6" height="6"/>
	<rect x="120.002" y="194.953" fill="#6D6F72" width="6" height="6"/>
	<rect x="114.002" y="188.953" fill="#6D6F72" width="6" height="6"/>
	<rect x="114.002" y="182.953" fill="#464749" width="6" height="6"/>
	<rect x="114.002" y="200.953" fill="#464749" width="6" height="6"/>
	<rect x="114.002" y="194.953" fill="#6D6F72" width="6" height="6"/>
	<rect x="108.002" y="188.953" fill="#6D6F72" width="6" height="6"/>
	<rect x="108.002" y="200.953" fill="#6D6F72" width="6" height="6"/>
	<rect x="108.002" y="194.953" fill="#6D6F72" width="6" height="6"/>
	<rect x="101.998" y="200.953" fill="#6D6F72" width="6" height="6"/>
	<rect x="101.998" y="194.953" fill="#6D6F72" width="6" height="6"/>
	<rect x="162.002" y="194.953" fill="#464749" width="6" height="6"/>
	<rect x="168.002" y="194.953" fill="#6D6F72" width="6" height="6"/>
	<rect x="174.002" y="194.953" fill="#6D6F72" width="6" height="6"/>
	<rect x="180.002" y="194.953" fill="#6D6F72" width="6" height="6"/>
	<rect x="186.002" y="188.953" fill="#6D6F72" width="6" height="6"/>
	<rect x="186.002" y="182.953" fill="#6D6F72" width="6" height="6"/>
	<rect x="186.002" y="200.953" fill="#6D6F72" width="6" height="6"/>
	<rect x="186.002" y="194.953" fill="#6D6F72" width="6" height="6"/>
	<rect x="192.002" y="188.953" fill="#6D6F72" width="6" height="6"/>
	<rect x="192.002" y="200.953" fill="#6D6F72" width="6" height="6"/>
	<rect x="192.002" y="194.953" fill="#6D6F72" width="6" height="6"/>
	<rect x="132.002" y="176.984" fill="#E3C9B6" width="6" height="6"/>
	<rect x="138.002" y="176.984" fill="#E3C9B6" width="6" height="6"/>
	<rect x="144.002" y="176.984" fill="#E3C9B6" width="6" height="6"/>
	<rect x="149.998" y="176.984" fill="#D7BFAA" width="6" height="6"/>
	<rect x="155.998" y="182.953" fill="#FFFFFF" width="6" height="6"/>
	<rect x="125.998" y="93.047" fill="#E3C9B6" width="6" height="6"/>
	<rect x="131.998" y="93.047" fill="#E3C9B6" width="6" height="6"/>
	<rect x="137.998" y="93.047" fill="#E3C9B6" width="6" height="6"/>
	<rect x="113.998" y="105.039" fill="#F3D9D0" width="6" height="6"/>
	<rect x="119.998" y="105.039" fill="#EFD1B8" width="6" height="6"/>
	<rect x="125.998" y="105.039" fill="#EFD1B8" width="6" height="6"/>
	<rect x="131.998" y="105.039" fill="#EFD1B8" width="6" height="6"/>
	<rect x="137.998" y="105.039" fill="#EFD1B8" width="6" height="6"/>
	<rect x="143.998" y="105.039" fill="#F3D9D0" width="6" height="6"/>
	<rect x="113.998" y="111.039" fill="#EFD1B8" width="6" height="6"/>
	<rect x="119.998" y="111.039" fill="#EFD1B8" width="6" height="6"/>
	<rect x="125.998" y="111.039" fill="#EFD1B8" width="6" height="6"/>
	<rect x="131.998" y="111.039" fill="#EFD1B8" width="6" height="6"/>
	<rect x="137.998" y="111.039" fill="#EFD1B8" width="6" height="6"/>
	<rect x="143.998" y="111.039" fill="#EFD1B8" width="6" height="6"/>
	<rect x="113.998" y="117.039" fill="#F3D9D0" width="6" height="6"/>
	<rect x="119.998" y="117.039" fill="#F3D9D0" width="6" height="6"/>
	<rect x="113.998" y="123.016" fill="#EEE3E0" width="6" height="6"/>
	<rect x="119.998" y="123.016" fill="#414042" width="6" height="6"/>
	<rect x="113.998" y="134.961" fill="#EFD1B8" width="6" height="6"/>
	<rect x="119.998" y="134.977" fill="#7F95A5" width="6" height="6"/>
	<rect x="113.998" y="140.984" fill="#EFD1B8" width="6" height="6"/>
	<rect x="119.998" y="140.977" fill="#EFD1B8" width="6" height="6"/>
	<rect x="113.998" y="146.977" fill="#D7BFAA" width="6" height="6"/>
	<rect x="107.998" y="140.977" fill="#EFD1B8" width="6" height="6"/>
	<rect x="101.998" y="140.977" fill="#F3D9D0" width="6" height="6"/>
	<rect x="107.998" y="134.977" fill="#F3D9D0" width="6" height="6"/>
	<rect x="119.998" y="146.977" fill="#D7BFAA" width="6" height="6"/>
	<rect x="131.998" y="146.977" fill="#D7BFAA" width="6" height="6"/>
	<rect x="125.998" y="146.977" fill="#D7BFAA" width="6" height="6"/>
	<rect x="137.998" y="146.977" fill="#E5B29B" width="6" height="6"/>
	<rect x="155.998" y="146.977" fill="#D7BFAA" width="6" height="6"/>
	<rect x="143.998" y="146.977" fill="#F3D9D0" width="6" height="6"/>
	<rect x="131.998" y="152.961" fill="#FFFFFF" width="6" height="6"/>
	<rect x="125.998" y="152.961" fill="#FFFFFF" width="6" height="6"/>
	<rect x="137.998" y="152.961" fill="#FFFFFF" width="6" height="6"/>
	<rect x="143.998" y="152.961" fill="#BB807B" width="6" height="6"/>
	<rect x="131.998" y="158.953" fill="#D28F8C" width="6" height="6"/>
	<rect x="125.998" y="158.953" fill="#D28F8C" width="6" height="6"/>
	<rect x="137.998" y="158.953" fill="#BB807B" width="6" height="6"/>
	<rect x="143.998" y="158.953" fill="#E3C9B6" width="6" height="6"/>
	<rect x="131.998" y="164.953" fill="#E3C9B6" width="6" height="6"/>
	<rect x="125.998" y="164.953" fill="#D7BFAA" width="6" height="6"/>
	<rect x="137.998" y="164.953" fill="#E3C9B6" width="6" height="6"/>
	<rect x="143.998" y="164.953" fill="#D7BFAA" width="6" height="6"/>
	<rect x="149.998" y="164.953" fill="#D7BFAA" width="6" height="6"/>
	<rect x="161.998" y="146.977" fill="#EFD1B8" width="6" height="6"/>
	<rect x="155.998" y="140.984" fill="#D7BFAA" width="6" height="6"/>
	<rect x="155.998" y="158.953" fill="#D7BFAA" width="6" height="6"/>
	<rect x="155.998" y="152.961" fill="#D7BFAA" width="6" height="6"/>
	<rect x="156.002" y="164.953" fill="#E3C9B6" width="6" height="6"/>
	<rect x="155.998" y="134.977" fill="#D7BFAA" width="6" height="6"/>
	<rect x="161.998" y="140.953" fill="#EFD1B8" width="6" height="6"/>
	<rect x="168.002" y="140.953" fill="#EFD1B8" width="6" height="6"/>
	<rect x="155.998" y="123.016" fill="#726658" width="6" height="6"/>
	<rect x="161.998" y="128.992" fill="#EFD1B8" width="6" height="6"/>
	<rect x="125.998" y="117.039" fill="#F3D9D0" width="6" height="6"/>
	<rect x="131.998" y="117.039" fill="#EFD1B8" width="6" height="6"/>
	<rect x="137.998" y="117.039" fill="#EFD1B8" width="6" height="6"/>
	<rect x="143.998" y="117.039" fill="#EFD1B8" width="6" height="6"/>
	<rect x="125.998" y="123.016" fill="#414042" width="6" height="6"/>
	<rect x="131.998" y="123.016" fill="#EFD1B8" width="6" height="6"/>
	<rect x="137.998" y="123.016" fill="#EFD1B8" width="6" height="6"/>
	<rect x="143.998" y="123.016" fill="#EFD1B8" width="6" height="6"/>
	<rect x="113.998" y="128.977" fill="#EFD1B8" width="6" height="6"/>
	<rect x="119.998" y="128.977" fill="#EFD1B8" width="6" height="6"/>
	<rect x="155.998" y="128.977" fill="#9B8579" width="6" height="6"/>
	<rect x="161.998" y="134.969" fill="#EFD1B8" width="6" height="6"/>
	<rect x="168.002" y="128.992" fill="#EFD1B8" width="6" height="6"/>
	<rect x="168.002" y="134.969" fill="#EFD1B8" width="6" height="6"/>
	<rect x="125.998" y="128.977" fill="#EFD1B8" width="6" height="6"/>
	<rect x="131.998" y="128.977" fill="#9B8579" width="6" height="6"/>
	<rect x="137.998" y="128.977" fill="#EFD1B8" width="6" height="6"/>
	<rect x="143.998" y="128.977" fill="#EFD1B8" width="6" height="6"/>
	<rect x="125.998" y="134.977" fill="#FFFFFF" width="6" height="6"/>
	<rect x="131.998" y="134.977" fill="#EFD1B8" width="6" height="6"/>
	<rect x="137.998" y="134.977" fill="#EFD1B8" width="6" height="6"/>
	<rect x="143.998" y="134.977" fill="#E3C9B6" width="6" height="6"/>
	<rect x="125.998" y="140.977" fill="#EFD1B8" width="6" height="6"/>
	<rect x="131.998" y="140.977" fill="#E5B29B" width="6" height="6"/>
	<rect x="137.998" y="140.977" fill="#F3D9D0" width="6" height="6"/>
	<rect x="143.998" y="140.977" fill="#EFD1B8" width="6" height="6"/>
	<rect x="155.998" y="105.039" fill="#9B8579" width="6" height="6"/>
	<rect x="161.998" y="105.039" fill="#726658" width="6" height="6"/>
	<rect x="119.998" y="99.047" fill="#E3C9B6" width="6" height="6"/>
	<rect x="125.998" y="99.047" fill="#F3D9D0" width="6" height="6"/>
	<rect x="131.998" y="99.047" fill="#F3D9D0" width="6" height="6"/>
	<rect x="137.998" y="99.047" fill="#F3D9D0" width="6" height="6"/>
	<rect x="143.998" y="99.047" fill="#D7BFAA" width="6" height="6"/>
	<rect x="155.998" y="99.047" fill="#726658" width="6" height="6"/>
	<rect x="143.998" y="93.047" fill="#D7BFAA" width="6" height="6"/>
	<rect x="155.998" y="111.039" fill="#AE9D85" width="6" height="6"/>
	<rect x="161.998" y="111.039" fill="#9B8579" width="6" height="6"/>
	<rect x="155.998" y="117.039" fill="#9B8579" width="6" height="6"/>
	<rect x="150.002" y="146.977" fill="#EFD1B8" width="6" height="6"/>
	<rect x="150.002" y="140.984" fill="#EFD1B8" width="6" height="6"/>
	<rect x="150.002" y="158.953" fill="#D7BFAA" width="6" height="6"/>
	<rect x="150.002" y="152.961" fill="#D7BFAA" width="6" height="6"/>
	<rect x="150.002" y="134.977" fill="#EFD1B8" width="6" height="6"/>
	<rect x="150.002" y="123.016" fill="#D7BFAA" width="6" height="6"/>
	<rect x="150.002" y="128.977" fill="#EFD1B8" width="6" height="6"/>
	<rect x="150.002" y="105.039" fill="#D7BFAA" width="6" height="6"/>
	<rect x="150.002" y="99.047" fill="#9B8579" width="6" height="6"/>
	<rect x="150.002" y="93.047" fill="#726658" width="6" height="6"/>
	<rect x="162.002" y="99.047" fill="#594A42" width="6" height="6"/>
	<rect x="156.006" y="93.047" fill="#594A42" width="6" height="6"/>
	<rect x="150.002" y="111.039" fill="#D7BFAA" width="6" height="6"/>
	<rect x="150.002" y="117.039" fill="#D7BFAA" width="6" height="6"/>
	<rect x="161.998" y="117.039" fill="#726658" width="6" height="6"/>
	<rect x="168.002" y="105.039" fill="#594A42" width="6" height="6"/>
	<rect x="168.002" y="111.039" fill="#726658" width="6" height="6"/>
	<rect x="168.002" y="117.039" fill="#594A42" width="6" height="6"/>
	<rect x="161.998" y="123.016" fill="#9B8579" width="6" height="6"/>
	<rect x="168.002" y="123.016" fill="#594A42" width="6" height="6"/>
	<rect x="132.002" y="170.953" fill="#D7BFAA" width="6" height="6"/>
	<rect x="138.002" y="170.953" fill="#D7BFAA" width="6" height="6"/>
	<rect x="144.002" y="170.953" fill="#D7BFAA" width="6" height="6"/>
	<rect x="150.002" y="170.953" fill="#E3C9B6" width="6" height="6"/>
	<rect x="156.002" y="176.984" fill="#EFD1B8" width="6" height="6"/>
	<rect x="156.006" y="170.953" fill="#D7BFAA" width="6" height="6"/>
	<rect x="161.994" y="152.938" fill="#D7BFAA" width="6" height="6"/>
	<rect x="161.994" y="164.969" fill="#EFD1B8" width="6" height="6"/>
	<rect x="161.994" y="170.953" fill="#EFD1B8" width="6" height="6"/>
	<rect x="161.998" y="158.938" fill="#D7BFAA" width="6" height="6"/>
</g>
</svg>
