<?xml version="1.0" encoding="utf-8"?>
<!-- Generator: Adobe Illustrator 16.0.0, SVG Export Plug-In . SVG Version: 6.00 Build 0)  -->
<!DOCTYPE svg PUBLIC "-//W3C//DTD SVG 1.1//EN" "http://www.w3.org/Graphics/SVG/1.1/DTD/svg11.dtd">
<svg version="1.1" id="Layer_1" xmlns="http://www.w3.org/2000/svg" xmlns:xlink="http://www.w3.org/1999/xlink" x="0px" y="0px"
	 width="300px" height="300px" viewBox="0 0 300 300" enable-background="new 0 0 300 300" xml:space="preserve">
<g>
	<rect x="120.125" y="110.41" fill="#9B724E" width="6" height="6"/>
	<rect x="114.125" y="110.41" fill="#4D301C" width="6" height="6"/>
	<rect x="114.125" y="116.41" fill="#734A1D" width="6" height="6"/>
	<rect x="126.125" y="110.41" fill="#4D301C" width="6" height="6"/>
	<rect x="132.125" y="110.41" fill="#4D301C" width="6" height="6"/>
	<rect x="138.125" y="110.41" fill="#4D301C" width="6" height="6"/>
	<rect x="144.125" y="110.41" fill="#734A1D" width="6" height="6"/>
	<rect x="150.125" y="110.41" fill="#4D301C" width="6" height="6"/>
	<rect x="120.125" y="116.41" fill="#EDD69F" width="6" height="6"/>
	<rect x="126.125" y="116.41" fill="#EDD69F" width="6" height="6"/>
	<rect x="132.125" y="116.41" fill="#EDD69F" width="6" height="6"/>
	<rect x="138.125" y="116.41" fill="#EDD69F" width="6" height="6"/>
	<rect x="144.125" y="116.41" fill="#734A1D" width="6" height="6"/>
	<rect x="120.125" y="122.41" fill="#EDD69F" width="6" height="6"/>
	<rect x="126.125" y="122.41" fill="#9B724E" width="6" height="6"/>
	<rect x="132.125" y="122.41" fill="#9B724E" width="6" height="6"/>
	<rect x="138.125" y="122.41" fill="#EDD69F" width="6" height="6"/>
	<rect x="144.125" y="122.41" fill="#EDD69F" width="6" height="6"/>
	<rect x="150.125" y="116.41" fill="#EDD69F" width="6" height="6"/>
	<rect x="120" y="128.41" fill="#EDD69F" width="6" height="6"/>
	<rect x="126" y="128.41" fill="#EDD69F" width="6" height="6"/>
	<rect x="120" y="134.387" fill="#EDD69F" width="6" height="6"/>
	<rect x="126" y="134.387" fill="#4D301C" width="6" height="6"/>
	<rect x="120" y="140.375" fill="#EDD69F" width="6" height="6"/>
	<rect x="126" y="140.375" fill="#EDD69F" width="6" height="6"/>
	<rect x="120" y="146.387" fill="#EDD69F" width="6" height="6"/>
	<rect x="126" y="146.387" fill="#EDD69F" width="6" height="6"/>
	<rect x="120" y="152.375" fill="#4D301C" width="6" height="6"/>
	<rect x="114" y="146.375" fill="#EDD69F" width="6" height="6"/>
	<rect x="114" y="140.375" fill="#EDD69F" width="6" height="6"/>
	<rect x="126" y="152.375" fill="#4D301C" width="6" height="6"/>
	<rect x="138" y="152.375" fill="#4D301C" width="6" height="6"/>
	<rect x="132" y="152.375" fill="#734A1D" width="6" height="6"/>
	<rect x="144" y="152.375" fill="#734A1D" width="6" height="6"/>
	<rect x="156" y="152.375" fill="#4D301C" width="6" height="6"/>
	<rect x="150" y="152.375" fill="#EDD69F" width="6" height="6"/>
	<rect x="138" y="158.363" fill="#FFFFFF" width="6" height="6"/>
	<rect x="132" y="158.363" fill="#FFFFFF" width="6" height="6"/>
	<rect x="144" y="158.363" fill="#FFFFFF" width="6" height="6"/>
	<rect x="150" y="158.363" fill="#A9958A" width="6" height="6"/>
	<rect x="138" y="164.352" fill="#C7293B" width="6" height="6"/>
	<rect x="132" y="164.352" fill="#C7293B" width="6" height="6"/>
	<rect x="144" y="164.352" fill="#C7293B" width="6" height="6"/>
	<rect x="150" y="164.352" fill="#4D301C" width="6" height="6"/>
	<rect x="138" y="170.352" fill="#4D301C" width="6" height="6"/>
	<rect x="132" y="170.352" fill="#4D301C" width="6" height="6"/>
	<rect x="144" y="170.352" fill="#4D301C" width="6" height="6"/>
	<rect x="138" y="176.352" fill="#EDD69F" width="6" height="6"/>
	<rect x="144" y="176.352" fill="#EDD69F" width="6" height="6"/>
	<rect x="138" y="182.352" fill="#EDD69F" width="6" height="6"/>
	<rect x="144" y="182.352" fill="#EDD69F" width="6" height="6"/>
	<rect x="150" y="176.352" fill="#EDD69F" width="6" height="6"/>
	<rect x="150" y="170.352" fill="#4D301C" width="6" height="6"/>
	<rect x="156" y="170.352" fill="#EDD69F" width="6" height="6"/>
	<rect x="156" y="176.352" fill="#2F292B" width="6" height="6"/>
	<rect x="162" y="176.352" fill="#8A281C" width="6" height="6"/>
	<rect x="162" y="170.352" fill="#525255" width="6" height="6"/>
	<rect x="168.125" y="170.352" fill="#C7293B" width="6" height="6"/>
	<rect x="174" y="170.352" fill="#2F292B" width="6" height="6"/>
	<rect x="168" y="176.352" fill="#2F292B" width="6" height="6"/>
	<rect x="156" y="182.352" fill="#C7293B" width="6" height="6"/>
	<rect x="150" y="182.352" fill="#EDD69F" width="6" height="6"/>
	<rect x="132" y="182.352" fill="#C7293B" width="6" height="6"/>
	<rect x="126" y="182.352" fill="#525255" width="6" height="6"/>
	<rect x="126" y="176.352" fill="#C7293B" width="6" height="6"/>
	<rect x="120.125" y="176.352" fill="#2F292B" width="6" height="6"/>
	<rect x="162" y="182.352" fill="#2F292B" width="6" height="6"/>
	<rect x="168" y="182.352" fill="#8A281C" width="6" height="6"/>
	<rect x="174" y="182.352" fill="#2F292B" width="6" height="6"/>
	<rect x="180" y="182.352" fill="#8A281C" width="6" height="6"/>
	<rect x="138" y="188.352" fill="#EDD69F" width="6" height="6"/>
	<rect x="144" y="188.352" fill="#EDD69F" width="6" height="6"/>
	<rect x="156" y="188.352" fill="#525255" width="6" height="6"/>
	<rect x="150" y="188.352" fill="#EDD69F" width="6" height="6"/>
	<rect x="132" y="188.352" fill="#2F292B" width="6" height="6"/>
	<rect x="126" y="188.352" fill="#8A281C" width="6" height="6"/>
	<rect x="120" y="188.352" fill="#2F292B" width="6" height="6"/>
	<rect x="162" y="188.352" fill="#8A281C" width="6" height="6"/>
	<rect x="168" y="188.352" fill="#2F292B" width="6" height="6"/>
	<rect x="174" y="188.352" fill="#8A281C" width="6" height="6"/>
	<rect x="180" y="188.352" fill="#2F292B" width="6" height="6"/>
	<rect x="138" y="194.352" fill="#F3F4F5" width="6" height="6"/>
	<rect x="144" y="194.352" fill="#EDD69F" width="6" height="6"/>
	<rect x="156" y="194.352" fill="#C7293B" width="6" height="6"/>
	<rect x="150" y="194.352" fill="#F3F4F5" width="6" height="6"/>
	<rect x="132" y="194.352" fill="#C7293B" width="6" height="6"/>
	<rect x="126" y="194.352" fill="#2F292B" width="6" height="6"/>
	<rect x="120" y="194.352" fill="#8A281C" width="6" height="6"/>
	<rect x="162" y="194.352" fill="#2F292B" width="6" height="6"/>
	<rect x="168" y="194.352" fill="#8A281C" width="6" height="6"/>
	<rect x="174" y="194.352" fill="#525255" width="6" height="6"/>
	<rect x="180" y="194.352" fill="#8A281C" width="6" height="6"/>
	<rect x="138" y="200.352" fill="#F3F4F5" width="6" height="6"/>
	<rect x="144" y="200.352" fill="#EDD69F" width="6" height="6"/>
	<rect x="156" y="200.352" fill="#2F292B" width="6" height="6"/>
	<rect x="150" y="200.352" fill="#F3F4F5" width="6" height="6"/>
	<rect x="132" y="200.352" fill="#525255" width="6" height="6"/>
	<rect x="126" y="200.352" fill="#8A281C" width="6" height="6"/>
	<rect x="120" y="200.352" fill="#525255" width="6" height="6"/>
	<rect x="162" y="200.352" fill="#8A281C" width="6" height="6"/>
	<rect x="168" y="200.352" fill="#2F292B" width="6" height="6"/>
	<rect x="174" y="200.352" fill="#8A281C" width="6" height="6"/>
	<rect x="180" y="200.352" fill="#2F292B" width="6" height="6"/>
	<rect x="138" y="206.352" fill="#F3F4F5" width="6" height="6"/>
	<rect x="144" y="206.352" fill="#F3F4F5" width="6" height="6"/>
	<rect x="156" y="206.352" fill="#C7293B" width="6" height="6"/>
	<rect x="150" y="206.352" fill="#F3F4F5" width="6" height="6"/>
	<rect x="132" y="206.352" fill="#C7293B" width="6" height="6"/>
	<rect x="126" y="206.352" fill="#2F292B" width="6" height="6"/>
	<rect x="120" y="206.352" fill="#8A281C" width="6" height="6"/>
	<rect x="162" y="206.352" fill="#525255" width="6" height="6"/>
	<rect x="168" y="206.352" fill="#8A281C" width="6" height="6"/>
	<rect x="174" y="206.352" fill="#2F292B" width="6" height="6"/>
	<rect x="180" y="206.352" fill="#8A281C" width="6" height="6"/>
	<rect x="162" y="152.375" fill="#EDD69F" width="6" height="6"/>
	<rect x="156" y="146.387" fill="#4D301C" width="6" height="6"/>
	<rect x="162" y="146.387" fill="#EDD69F" width="6" height="6"/>
	<rect x="156" y="164.352" fill="#EDD69F" width="6" height="6"/>
	<rect x="162" y="164.352" fill="#EDD69F" width="6" height="6"/>
	<rect x="156" y="158.363" fill="#4D301C" width="6" height="6"/>
	<rect x="162" y="158.363" fill="#EDD69F" width="6" height="6"/>
	<rect x="156" y="140.375" fill="#9B724E" width="6" height="6"/>
	<rect x="162" y="140.375" fill="#A9958A" width="6" height="6"/>
	<rect x="156" y="134.387" fill="#EDD69F" width="6" height="6"/>
	<rect x="162" y="134.387" fill="#EDD69F" width="6" height="6"/>
	<rect x="168" y="140.375" fill="#EDD69F" width="6" height="6"/>
	<rect x="168" y="146.387" fill="#EDD69F" width="6" height="6"/>
	<rect x="168" y="134.387" fill="#EDD69F" width="6" height="6"/>
	<rect x="132" y="128.41" fill="#EDD69F" width="6" height="6"/>
	<rect x="144" y="128.41" fill="#EDD69F" width="6" height="6"/>
	<rect x="138" y="128.41" fill="#EDD69F" width="6" height="6"/>
	<rect x="150" y="128.41" fill="#2F292B" width="6" height="6"/>
	<rect x="132" y="134.387" fill="#FFFFFF" width="6" height="6"/>
	<rect x="138" y="134.387" fill="#EDD69F" width="6" height="6"/>
	<rect x="144" y="134.387" fill="#EDD69F" width="6" height="6"/>
	<rect x="150" y="134.387" fill="#4D301C" width="6" height="6"/>
	<rect x="132" y="140.375" fill="#EDD69F" width="6" height="6"/>
	<rect x="138" y="140.375" fill="#EDD69F" width="6" height="6"/>
	<rect x="144" y="140.375" fill="#EDD69F" width="6" height="6"/>
	<rect x="150" y="140.375" fill="#EDD69F" width="6" height="6"/>
	<rect x="132" y="146.375" fill="#EDD69F" width="6" height="6"/>
	<rect x="138" y="146.375" fill="#EDD69F" width="6" height="6"/>
	<rect x="144" y="146.375" fill="#EDD69F" width="6" height="6"/>
	<rect x="150" y="146.375" fill="#EDD69F" width="6" height="6"/>
	<rect x="156.125" y="110.41" fill="#734A1D" width="6" height="6"/>
	<rect x="162.125" y="110.41" fill="#734A1D" width="6" height="6"/>
	<rect x="138.125" y="98.422" fill="#4D301C" width="6" height="6"/>
	<rect x="144.125" y="98.422" fill="#734A1D" width="6" height="6"/>
	<rect x="150" y="98.422" fill="#734A1D" width="6" height="6"/>
	<rect x="162" y="104.422" fill="#734A1D" width="6" height="6"/>
	<rect x="168" y="104.422" fill="#734A1D" width="6" height="6"/>
	<rect x="168" y="98.422" fill="#734A1D" width="6" height="6"/>
	<rect x="174" y="98.422" fill="#734A1D" width="6" height="6"/>
	<rect x="161.883" y="92.422" fill="#B68D63" width="6" height="6"/>
	<rect x="156" y="92.422" fill="#734A1D" width="6" height="6"/>
	<rect x="168" y="110.41" fill="#734A1D" width="6" height="6"/>
	<rect x="168" y="116.41" fill="#4D301C" width="6" height="6"/>
	<rect x="168" y="122.41" fill="#734A1D" width="6" height="6"/>
	<rect x="174" y="122.41" fill="#4D301C" width="6" height="6"/>
	<rect x="168" y="152.375" fill="#734A1D" width="6" height="6"/>
	<rect x="174" y="152.375" fill="#734A1D" width="6" height="6"/>
	<rect x="168" y="158.363" fill="#734A1D" width="6" height="6"/>
	<rect x="174" y="116.41" fill="#734A1D" width="6" height="6"/>
	<rect x="168" y="128.41" fill="#734A1D" width="6" height="6"/>
	<rect x="156" y="98.422" fill="#734A1D" width="6" height="6"/>
	<rect x="144" y="92.422" fill="#B68D63" width="6" height="6"/>
	<rect x="144" y="87.648" fill="#734A1D" width="6" height="6"/>
	<rect x="150.125" y="87.648" fill="#B68D63" width="6" height="6"/>
	<rect x="132.125" y="92.422" fill="#4D301C" width="6" height="6"/>
	<rect x="120.125" y="104.422" fill="#4D301C" width="6" height="6"/>
	<rect x="126.125" y="104.422" fill="#4D301C" width="6" height="6"/>
	<rect x="126.125" y="98.422" fill="#734A1D" width="6" height="6"/>
	<rect x="132.125" y="104.422" fill="#734A1D" width="6" height="6"/>
	<rect x="132.125" y="98.422" fill="#9B724E" width="6" height="6"/>
	<rect x="138.125" y="104.422" fill="#734A1D" width="6" height="6"/>
	<rect x="144.125" y="104.422" fill="#4D301C" width="6" height="6"/>
	<rect x="150.125" y="104.422" fill="#B68D63" width="6" height="6"/>
	<rect x="156.125" y="104.422" fill="#4D301C" width="6" height="6"/>
	<rect x="156.125" y="116.41" fill="#4D301C" width="6" height="6"/>
	<rect x="156" y="134.387" fill="#734A1D" width="6" height="6"/>
	<rect x="150.125" y="116.41" fill="#734A1D" width="6" height="6"/>
	<rect x="150.125" y="122.41" fill="#9B724E" width="6" height="6"/>
	<rect x="156" y="122.41" fill="#4D301C" width="6" height="6"/>
	<rect x="162" y="122.41" fill="#734A1D" width="6" height="6"/>
	<rect x="162.125" y="116.41" fill="#9B724E" width="6" height="6"/>
	<rect x="156" y="128.41" fill="#2F292B" width="6" height="6"/>
	<rect x="162" y="128.41" fill="#2F292B" width="6" height="6"/>
</g>
</svg>
