<?xml version="1.0" encoding="utf-8"?>
<!-- Generator: Adobe Illustrator 16.0.0, SVG Export Plug-In . SVG Version: 6.00 Build 0)  -->
<!DOCTYPE svg PUBLIC "-//W3C//DTD SVG 1.1//EN" "http://www.w3.org/Graphics/SVG/1.1/DTD/svg11.dtd">
<svg version="1.1" id="Layer_1" xmlns="http://www.w3.org/2000/svg" xmlns:xlink="http://www.w3.org/1999/xlink" x="0px" y="0px"
	 width="300px" height="300px" viewBox="0 0 300 300" enable-background="new 0 0 300 300" xml:space="preserve">
<g>
	<rect x="138.75" y="176.206" fill="#FADEE7" width="7.5" height="7.5"/>
	<rect x="146.25" y="176.206" fill="#FADEE7" width="7.5" height="7.5"/>
	<rect x="153.75" y="176.206" fill="#FADEE7" width="7.5" height="7.5"/>
	<rect x="153.75" y="168.706" fill="#FADEE7" width="7.5" height="7.5"/>
	<rect x="161.25" y="176.206" fill="#FADEE7" width="7.5" height="7.5"/>
	<rect x="161.25" y="168.706" fill="#FADEE7" width="7.5" height="7.5"/>
	<rect x="161.25" y="161.216" fill="#F1F1F0" width="7.5" height="7.5"/>
	<rect x="168.75" y="153.735" fill="#F1F1F0" width="7.5" height="7.5"/>
	<rect x="168.75" y="161.216" fill="#FFFFFF" width="7.5" height="7.5"/>
	<rect x="138.75" y="183.667" fill="#FADEE7" width="7.5" height="7.5"/>
	<rect x="146.25" y="183.667" fill="#FADEE7" width="7.5" height="7.5"/>
	<rect x="153.75" y="183.667" fill="#FADEE7" width="7.5" height="7.5"/>
	<rect x="161.25" y="183.677" fill="#FADEE7" width="7.5" height="7.5"/>
	<rect x="131.25" y="183.677" fill="#E75A8D" width="7.5" height="7.5"/>
	<rect x="123.75" y="183.677" fill="#E75A8D" width="7.5" height="7.5"/>
	<rect x="168.75" y="183.677" fill="#E75A8D" width="7.5" height="7.5"/>
	<rect x="176.25" y="183.677" fill="#DE90B5" width="7.5" height="7.5"/>
	<rect x="138.75" y="198.677" fill="#FFFFFF" width="7.5" height="7.5"/>
	<rect x="146.25" y="198.677" fill="#FFFFFF" width="7.5" height="7.5"/>
	<rect x="161.25" y="198.677" fill="#E75A8D" width="7.5" height="7.5"/>
	<rect x="153.75" y="198.677" fill="#FFFFFF" width="7.5" height="7.5"/>
	<rect x="131.25" y="198.677" fill="#DE90B5" width="7.5" height="7.5"/>
	<rect x="123.75" y="198.677" fill="#FFFFFF" width="7.5" height="7.5"/>
	<rect x="116.25" y="198.677" fill="#E75A8D" width="7.5" height="7.5"/>
	<rect x="168.75" y="198.677" fill="#E75A8D" width="7.5" height="7.5"/>
	<rect x="176.25" y="198.677" fill="#FFFFFF" width="7.5" height="7.5"/>
	<rect x="183.75" y="198.677" fill="#DE90B5" width="7.5" height="7.5"/>
	<rect x="191.25" y="198.677" fill="#E75A8D" width="7.5" height="7.5"/>
	<rect x="138.75" y="213.677" fill="#FFFFFF" width="7.5" height="7.5"/>
	<rect x="146.25" y="213.677" fill="#FFFFFF" width="7.5" height="7.5"/>
	<rect x="161.25" y="213.677" fill="#E75A8D" width="7.5" height="7.5"/>
	<rect x="153.75" y="213.677" fill="#FFFFFF" width="7.5" height="7.5"/>
	<rect x="131.25" y="213.677" fill="#E75A8D" width="7.5" height="7.5"/>
	<rect x="123.75" y="213.677" fill="#FFFFFF" width="7.5" height="7.5"/>
	<rect x="116.25" y="213.677" fill="#E75A8D" width="7.5" height="7.5"/>
	<rect x="168.75" y="213.677" fill="#E75A8D" width="7.5" height="7.5"/>
	<rect x="176.25" y="213.677" fill="#FFFFFF" width="7.5" height="7.5"/>
	<rect x="183.75" y="213.677" fill="#DE90B5" width="7.5" height="7.5"/>
	<rect x="191.25" y="213.677" fill="#E75A8D" width="7.5" height="7.5"/>
	<rect x="138.75" y="191.177" fill="#E75A8D" width="7.5" height="7.5"/>
	<rect x="146.25" y="191.177" fill="#FFFFFF" width="7.5" height="7.5"/>
	<rect x="161.25" y="191.177" fill="#E75A8D" width="7.5" height="7.5"/>
	<rect x="153.75" y="191.177" fill="#E75A8D" width="7.5" height="7.5"/>
	<rect x="131.25" y="191.177" fill="#E75A8D" width="7.5" height="7.5"/>
	<rect x="123.75" y="191.177" fill="#E75A8D" width="7.5" height="7.5"/>
	<rect x="116.25" y="191.177" fill="#FFFFFF" width="7.5" height="7.5"/>
	<rect x="168.75" y="191.177" fill="#E75A8D" width="7.5" height="7.5"/>
	<rect x="176.25" y="191.177" fill="#E75A8D" width="7.5" height="7.5"/>
	<rect x="183.75" y="191.177" fill="#FFFFFF" width="7.5" height="7.5"/>
	<rect x="191.25" y="191.177" fill="#E75A8D" width="7.5" height="7.5"/>
	<rect x="138.75" y="206.177" fill="#FFFFFF" width="7.5" height="7.5"/>
	<rect x="146.25" y="206.177" fill="#FFFFFF" width="7.5" height="7.5"/>
	<rect x="161.25" y="206.177" fill="#FFFFFF" width="7.5" height="7.5"/>
	<rect x="153.75" y="206.177" fill="#FFFFFF" width="7.5" height="7.5"/>
	<rect x="131.25" y="206.177" fill="#FFFFFF" width="7.5" height="7.5"/>
	<rect x="123.75" y="206.177" fill="#E75A8D" width="7.5" height="7.5"/>
	<rect x="116.25" y="206.177" fill="#DE90B5" width="7.5" height="7.5"/>
	<rect x="108.75" y="198.677" fill="#E75A8D" width="7.5" height="7.5"/>
	<rect x="108.75" y="213.677" fill="#E75A8D" width="7.5" height="7.5"/>
	<rect x="108.75" y="206.177" fill="#E75A8D" width="7.5" height="7.5"/>
	<rect x="168.75" y="206.177" fill="#FFFFFF" width="7.5" height="7.5"/>
	<rect x="176.25" y="206.177" fill="#DE90B5" width="7.5" height="7.5"/>
	<rect x="183.75" y="206.177" fill="#E75A8D" width="7.5" height="7.5"/>
	<rect x="191.25" y="206.177" fill="#E75A8D" width="7.5" height="7.5"/>
	<rect x="123.75" y="86.323" fill="#E75A8D" width="7.5" height="7.5"/>
	<rect x="131.25" y="86.323" fill="#FFFFFF" width="7.5" height="7.5"/>
	<rect x="138.75" y="86.323" fill="#FFFFFF" width="7.5" height="7.5"/>
	<rect x="146.25" y="86.323" fill="#FFFFFF" width="7.5" height="7.5"/>
	<rect x="116.25" y="101.313" fill="#E75A8D" width="7.5" height="7.5"/>
	<rect x="123.75" y="101.313" fill="#E75A8D" width="7.5" height="7.5"/>
	<rect x="131.25" y="101.313" fill="#DE90B5" width="7.5" height="7.5"/>
	<rect x="138.75" y="101.313" fill="#E75A8D" width="7.5" height="7.5"/>
	<rect x="146.25" y="101.313" fill="#E75A8D" width="7.5" height="7.5"/>
	<rect x="153.75" y="101.313" fill="#E75A8D" width="7.5" height="7.5"/>
	<rect x="116.25" y="108.813" fill="#2F292B" width="7.5" height="7.5"/>
	<rect x="123.75" y="108.813" fill="#2F292B" width="7.5" height="7.5"/>
	<rect x="131.25" y="108.813" fill="#FFFFFF" width="7.5" height="7.5"/>
	<rect x="138.75" y="108.813" fill="#DE90B5" width="7.5" height="7.5"/>
	<rect x="146.25" y="108.813" fill="#E75A8D" width="7.5" height="7.5"/>
	<rect x="153.75" y="108.813" fill="#E75A8D" width="7.5" height="7.5"/>
	<rect x="116.25" y="116.313" fill="#2F292B" width="7.5" height="7.5"/>
	<rect x="123.75" y="116.313" fill="#2F292B" width="7.5" height="7.5"/>
	<rect x="116.25" y="123.784" fill="#2F292B" width="7.5" height="7.5"/>
	<rect x="123.75" y="123.784" fill="#2F292B" width="7.5" height="7.5"/>
	<rect x="116.25" y="138.735" fill="#E75A8D" width="7.5" height="7.5"/>
	<rect x="108.75" y="138.735" fill="#2F292B" width="7.5" height="7.5"/>
	<rect x="123.75" y="138.735" fill="#E75A8D" width="7.5" height="7.5"/>
	<rect x="116.25" y="146.245" fill="#E75A8D" width="7.5" height="7.5"/>
	<rect x="123.75" y="146.245" fill="#E75A8D" width="7.5" height="7.5"/>
	<rect x="123.75" y="153.735" fill="#DADCDC" width="7.5" height="7.5"/>
	<rect x="138.75" y="153.735" fill="#FFFFFF" width="7.5" height="7.5"/>
	<rect x="131.25" y="153.735" fill="#DADCDC" width="7.5" height="7.5"/>
	<rect x="146.25" y="153.735" fill="#FFFFFF" width="7.5" height="7.5"/>
	<rect x="161.25" y="153.735" fill="#FFFFFF" width="7.5" height="7.5"/>
	<rect x="153.75" y="153.735" fill="#FFFFFF" width="7.5" height="7.5"/>
	<rect x="138.75" y="161.216" fill="#FFFFFF" width="7.5" height="7.5"/>
	<rect x="131.25" y="161.216" fill="#DADCDC" width="7.5" height="7.5"/>
	<rect x="146.25" y="161.216" fill="#FFFFFF" width="7.5" height="7.5"/>
	<rect x="153.75" y="161.216" fill="#FFFFFF" width="7.5" height="7.5"/>
	<rect x="138.75" y="168.706" fill="#FFFFFF" width="7.5" height="7.5"/>
	<rect x="131.25" y="168.706" fill="#DADCDC" width="7.5" height="7.5"/>
	<rect x="146.25" y="168.706" fill="#FFFFFF" width="7.5" height="7.5"/>
	<rect x="161.25" y="146.245" fill="#FFFFFF" width="7.5" height="7.5"/>
	<rect x="168.75" y="146.245" fill="#FFFFFF" width="7.5" height="7.5"/>
	<rect x="161.25" y="138.735" fill="#FFFFFF" width="7.5" height="7.5"/>
	<rect x="168.75" y="138.735" fill="#FFFFFF" width="7.5" height="7.5"/>
	<rect x="161.25" y="123.784" fill="#E75A8D" width="7.5" height="7.5"/>
	<rect x="168.75" y="123.784" fill="#FFFFFF" width="7.5" height="7.5"/>
	<rect x="176.25" y="138.735" fill="#FFFFFF" width="7.5" height="7.5"/>
	<rect x="176.25" y="131.245" fill="#FFFFFF" width="7.5" height="7.5"/>
	<rect x="131.25" y="116.313" fill="#2F292B" width="7.5" height="7.5"/>
	<rect x="138.75" y="116.313" fill="#E75A8D" width="7.5" height="7.5"/>
	<rect x="146.25" y="116.313" fill="#E75A8D" width="7.5" height="7.5"/>
	<rect x="153.75" y="116.313" fill="#E75A8D" width="7.5" height="7.5"/>
	<rect x="131.25" y="123.784" fill="#2F292B" width="7.5" height="7.5"/>
	<rect x="138.75" y="123.784" fill="#DE90B5" width="7.5" height="7.5"/>
	<rect x="146.25" y="123.784" fill="#E75A8D" width="7.5" height="7.5"/>
	<rect x="153.75" y="123.784" fill="#E75A8D" width="7.5" height="7.5"/>
	<rect x="116.25" y="131.245" fill="#2F292B" width="7.5" height="7.5"/>
	<rect x="108.75" y="131.245" fill="#2F292B" width="7.5" height="7.5"/>
	<rect x="108.75" y="108.813" fill="#E75A8D" width="7.5" height="7.5"/>
	<rect x="108.75" y="101.313" fill="#E75A8D" width="7.5" height="7.5"/>
	<rect x="108.75" y="93.823" fill="#E75A8D" width="7.5" height="7.5"/>
	<rect x="108.75" y="116.313" fill="#2F292B" width="7.5" height="7.5"/>
	<rect x="108.75" y="123.784" fill="#2F292B" width="7.5" height="7.5"/>
	<rect x="101.25" y="108.813" fill="#E75A8D" width="7.5" height="7.5"/>
	<rect x="101.25" y="101.313" fill="#E75A8D" width="7.5" height="7.5"/>
	<rect x="101.25" y="116.313" fill="#E75A8D" width="7.5" height="7.5"/>
	<rect x="101.25" y="123.784" fill="#E75A8D" width="7.5" height="7.5"/>
	<rect x="123.75" y="131.245" fill="#2F292B" width="7.5" height="7.5"/>
	<rect x="161.25" y="131.245" fill="#FFFFFF" width="7.5" height="7.5"/>
	<rect x="168.75" y="131.245" fill="#FFFFFF" width="7.5" height="7.5"/>
	<rect x="131.25" y="131.245" fill="#E75A8D" width="7.5" height="7.5"/>
	<rect x="138.75" y="131.245" fill="#E75A8D" width="7.5" height="7.5"/>
	<rect x="146.25" y="131.245" fill="#E75A8D" width="7.5" height="7.5"/>
	<rect x="153.75" y="131.245" fill="#FFFFFF" width="7.5" height="7.5"/>
	<rect x="131.25" y="138.735" fill="#E75A8D" width="7.5" height="7.5"/>
	<rect x="138.75" y="138.735" fill="#E75A8D" width="7.5" height="7.5"/>
	<rect x="146.25" y="138.735" fill="#FFFFFF" width="7.5" height="7.5"/>
	<rect x="153.75" y="138.735" fill="#FFFFFF" width="7.5" height="7.5"/>
	<rect x="131.25" y="146.235" fill="#E75A8D" width="7.5" height="7.5"/>
	<rect x="138.75" y="146.235" fill="#FFFFFF" width="7.5" height="7.5"/>
	<rect x="146.25" y="146.235" fill="#FFFFFF" width="7.5" height="7.5"/>
	<rect x="153.75" y="146.235" fill="#FFFFFF" width="7.5" height="7.5"/>
	<rect x="161.25" y="101.313" fill="#E75A8D" width="7.5" height="7.5"/>
	<rect x="168.75" y="101.313" fill="#E75A8D" width="7.5" height="7.5"/>
	<rect x="116.25" y="93.823" fill="#E75A8D" width="7.5" height="7.5"/>
	<rect x="116.25" y="86.323" fill="#E75A8D" width="7.5" height="7.5"/>
	<rect x="123.75" y="93.823" fill="#E75A8D" width="7.5" height="7.5"/>
	<rect x="131.25" y="93.823" fill="#E75A8D" width="7.5" height="7.5"/>
	<rect x="138.75" y="93.823" fill="#E75A8D" width="7.5" height="7.5"/>
	<rect x="146.25" y="93.823" fill="#E75A8D" width="7.5" height="7.5"/>
	<rect x="153.75" y="93.823" fill="#E75A8D" width="7.5" height="7.5"/>
	<rect x="161.25" y="93.823" fill="#E75A8D" width="7.5" height="7.5"/>
	<rect x="153.75" y="86.323" fill="#FFFFFF" width="7.5" height="7.5"/>
	<rect x="161.25" y="86.323" fill="#FFFFFF" width="7.5" height="7.5"/>
	<rect x="131.25" y="78.823" fill="#E75A8D" width="7.5" height="7.5"/>
	<rect x="138.75" y="78.823" fill="#F1F1F0" width="7.5" height="7.5"/>
	<rect x="146.25" y="78.823" fill="#F1F1F0" width="7.5" height="7.5"/>
	<rect x="153.75" y="78.823" fill="#FFFFFF" width="7.5" height="7.5"/>
	<rect x="161.25" y="78.823" fill="#FFFFFF" width="7.5" height="7.5"/>
	<rect x="168.75" y="93.823" fill="#E75A8D" width="7.5" height="7.5"/>
	<rect x="168.75" y="86.323" fill="#FFFFFF" width="7.5" height="7.5"/>
	<rect x="168.75" y="78.823" fill="#FFFFFF" width="7.5" height="7.5"/>
	<rect x="176.25" y="101.313" fill="#E75A8D" width="7.5" height="7.5"/>
	<rect x="176.25" y="93.823" fill="#FFFFFF" width="7.5" height="7.5"/>
	<rect x="176.25" y="86.323" fill="#F1F1F0" width="7.5" height="7.5"/>
	<rect x="161.25" y="108.813" fill="#E75A8D" width="7.5" height="7.5"/>
	<rect x="168.75" y="108.813" fill="#DE90B5" width="7.5" height="7.5"/>
	<rect x="161.25" y="116.313" fill="#E75A8D" width="7.5" height="7.5"/>
	<rect x="168.75" y="116.313" fill="#E75A8D" width="7.5" height="7.5"/>
	<rect x="176.25" y="123.784" fill="#FFFFFF" width="7.5" height="7.5"/>
	<rect x="176.25" y="108.813" fill="#E75A8D" width="7.5" height="7.5"/>
	<rect x="183.75" y="101.313" fill="#E75A8D" width="7.5" height="7.5"/>
	<rect x="183.75" y="108.813" fill="#E75A8D" width="7.5" height="7.5"/>
	<rect x="183.75" y="86.323" fill="#FFFFFF" width="7.5" height="7.5"/>
	<rect x="183.75" y="93.823" fill="#DADBDD" width="7.5" height="7.5"/>
	<rect x="191.25" y="101.313" fill="#E75A8D" width="7.5" height="7.5"/>
	<rect x="191.25" y="108.813" fill="#E75A8D" width="7.5" height="7.5"/>
	<rect x="176.25" y="116.313" fill="#DE90B5" width="7.5" height="7.5"/>
	<rect x="183.75" y="138.765" fill="#FFFFFF" width="7.5" height="7.5"/>
	<rect x="183.75" y="131.294" fill="#F1F1F0" width="7.5" height="7.5"/>
	<rect x="183.75" y="123.804" fill="#FFFFFF" width="7.5" height="7.5"/>
	<rect x="183.75" y="116.304" fill="#FFFFFF" width="7.5" height="7.5"/>
	<rect x="191.25" y="116.304" fill="#DADBDD" width="7.5" height="7.5"/>
	<rect x="191.25" y="123.784" fill="#DADBDD" width="7.5" height="7.5"/>
	<rect x="191.25" y="131.294" fill="#FFFFFF" width="7.5" height="7.5"/>
	<rect x="176.25" y="146.245" fill="#FFFFFF" width="7.5" height="7.5"/>
	<rect x="183.75" y="146.245" fill="#FFFFFF" width="7.5" height="7.5"/>
</g>
</svg>
