<?xml version="1.0" encoding="utf-8"?>
<!-- Generator: Adobe Illustrator 16.0.0, SVG Export Plug-In . SVG Version: 6.00 Build 0)  -->
<!DOCTYPE svg PUBLIC "-//W3C//DTD SVG 1.1//EN" "http://www.w3.org/Graphics/SVG/1.1/DTD/svg11.dtd">
<svg version="1.1" id="Layer_1" xmlns="http://www.w3.org/2000/svg" xmlns:xlink="http://www.w3.org/1999/xlink" x="0px" y="0px"
	 width="300px" height="300px" viewBox="0 0 300 300" enable-background="new 0 0 300 300" xml:space="preserve">
<g>
	<rect x="135" y="108.789" fill="#AE9D85" width="7.5" height="7.5"/>
	<rect x="142.5" y="101.289" fill="#947B42" width="7.5" height="7.5"/>
	<rect x="150" y="101.289" fill="#AE9D85" width="7.5" height="7.5"/>
	<rect x="127.5" y="108.789" fill="#947B42" width="7.5" height="7.5"/>
	<rect x="135" y="101.289" fill="#947B42" width="7.5" height="7.5"/>
	<rect x="142.5" y="108.789" fill="#AE9D85" width="7.5" height="7.5"/>
	<rect x="150" y="108.789" fill="#AE9D85" width="7.5" height="7.5"/>
	<rect x="157.5" y="108.789" fill="#AE9D85" width="7.5" height="7.5"/>
	<rect x="127.5" y="116.289" fill="#F3D9D0" width="7.5" height="7.5"/>
	<rect x="127.5" y="123.76" fill="#EFD1B8" width="7.5" height="7.5"/>
	<rect x="127.5" y="131.245" fill="#F3D9D0" width="7.5" height="7.5"/>
	<rect x="120" y="138.745" fill="#F3D9D0" width="7.5" height="7.5"/>
	<rect x="127.5" y="138.76" fill="#F3D9D0" width="7.5" height="7.5"/>
	<rect x="127.5" y="146.245" fill="#F3D9D0" width="7.5" height="7.5"/>
	<rect x="142.5" y="146.245" fill="#EFD1B8" width="7.5" height="7.5"/>
	<rect x="135" y="146.245" fill="#F3D9D0" width="7.5" height="7.5"/>
	<rect x="150" y="146.245" fill="#F3D9D0" width="7.5" height="7.5"/>
	<rect x="157.5" y="146.245" fill="#F3D9D0" width="7.5" height="7.5"/>
	<rect x="142.5" y="153.73" fill="#E3A193" width="7.5" height="7.5"/>
	<rect x="135" y="153.73" fill="#FFFFFF" width="7.5" height="7.5"/>
	<rect x="150" y="153.73" fill="#EFD1B8" width="7.5" height="7.5"/>
	<rect x="157.5" y="153.73" fill="#F3D9D0" width="7.5" height="7.5"/>
	<rect x="142.5" y="161.216" fill="#F3D9D0" width="7.5" height="7.5"/>
	<rect x="135" y="161.216" fill="#F3D9D0" width="7.5" height="7.5"/>
	<rect x="150" y="161.216" fill="#F3D9D0" width="7.5" height="7.5"/>
	<rect x="142.5" y="168.735" fill="#F3D9D0" width="7.5" height="7.5"/>
	<rect x="150" y="168.735" fill="#F3D9D0" width="7.5" height="7.5"/>
	<rect x="142.49" y="176.211" fill="#FFFFFF" width="7.5" height="7.5"/>
	<rect x="150" y="176.211" fill="#FFFFFF" width="7.5" height="7.5"/>
	<rect x="157.5" y="176.211" fill="#F7941E" width="7.5" height="7.5"/>
	<rect x="165" y="176.211" fill="#C66521" width="7.5" height="7.5"/>
	<rect x="127.49" y="176.211" fill="#C66521" width="7.5" height="7.5"/>
	<rect x="135" y="176.211" fill="#F7941E" width="7.5" height="7.5"/>
	<rect x="142.49" y="183.711" fill="#FFFFFF" width="7.5" height="7.5"/>
	<rect x="150" y="183.711" fill="#F7941E" width="7.5" height="7.5"/>
	<rect x="157.5" y="183.711" fill="#C66521" width="7.5" height="7.5"/>
	<rect x="165" y="183.711" fill="#F7941E" width="7.5" height="7.5"/>
	<rect x="172.5" y="183.711" fill="#F7941E" width="7.5" height="7.5"/>
	<rect x="127.49" y="183.711" fill="#C66521" width="7.5" height="7.5"/>
	<rect x="120" y="183.711" fill="#F7941E" width="7.5" height="7.5"/>
	<rect x="135" y="183.711" fill="#F7941E" width="7.5" height="7.5"/>
	<rect x="142.49" y="191.211" fill="#F7941E" width="7.5" height="7.5"/>
	<rect x="150" y="191.211" fill="#C66521" width="7.5" height="7.5"/>
	<rect x="157.5" y="191.211" fill="#F7941E" width="7.5" height="7.5"/>
	<rect x="165" y="191.211" fill="#F7941E" width="7.5" height="7.5"/>
	<rect x="172.5" y="191.211" fill="#F7941E" width="7.5" height="7.5"/>
	<rect x="127.49" y="191.211" fill="#F7941E" width="7.5" height="7.5"/>
	<rect x="120" y="191.211" fill="#F7941E" width="7.5" height="7.5"/>
	<rect x="135" y="191.211" fill="#C66521" width="7.5" height="7.5"/>
	<rect x="157.5" y="168.716" fill="#F7941E" width="7.5" height="7.5"/>
	<rect x="165" y="138.76" fill="#F3D9D0" width="7.5" height="7.5"/>
	<rect x="165" y="123.76" fill="#E9D9A3" width="7.5" height="7.5"/>
	<rect x="135" y="116.289" fill="#F3D9D0" width="7.5" height="7.5"/>
	<rect x="142.5" y="116.289" fill="#F3D9D0" width="7.5" height="7.5"/>
	<rect x="150" y="116.289" fill="#F3D9D0" width="7.5" height="7.5"/>
	<rect x="157.5" y="116.289" fill="#947B42" width="7.5" height="7.5"/>
	<rect x="135" y="123.76" fill="#AE9D85" width="7.5" height="7.5"/>
	<rect x="142.5" y="123.76" fill="#EFD1B8" width="7.5" height="7.5"/>
	<rect x="150" y="123.76" fill="#F3D9D0" width="7.5" height="7.5"/>
	<rect x="157.5" y="123.76" fill="#947B42" width="7.5" height="7.5"/>
	<rect x="135" y="131.245" fill="#F3D9D0" width="7.5" height="7.5"/>
	<rect x="142.5" y="131.245" fill="#F3D9D0" width="7.5" height="7.5"/>
	<rect x="150" y="131.245" fill="#F3D9D0" width="7.5" height="7.5"/>
	<rect x="157.5" y="131.245" fill="#AE9D85" width="7.5" height="7.5"/>
	<rect x="135" y="138.745" fill="#9CB6C8" width="7.5" height="7.5"/>
	<rect x="142.5" y="138.745" fill="#FFFFFF" width="7.5" height="7.5"/>
	<rect x="150" y="138.745" fill="#F3D9D0" width="7.5" height="7.5"/>
	<rect x="157.5" y="138.745" fill="#F3D9D0" width="7.5" height="7.5"/>
	<rect x="165" y="123.76" fill="#AE9D85" width="7.5" height="7.5"/>
	<rect x="165" y="131.245" fill="#947B42" width="7.5" height="7.5"/>
	<rect x="165" y="138.76" fill="#F3D9D0" width="7.5" height="7.5"/>
	<rect x="165" y="116.289" fill="#AE9D85" width="7.5" height="7.5"/>
</g>
</svg>
