<?xml version="1.0" encoding="utf-8"?>
<!-- Generator: Adobe Illustrator 16.0.0, SVG Export Plug-In . SVG Version: 6.00 Build 0)  -->
<!DOCTYPE svg PUBLIC "-//W3C//DTD SVG 1.1//EN" "http://www.w3.org/Graphics/SVG/1.1/DTD/svg11.dtd">
<svg version="1.1" id="Layer_1" xmlns="http://www.w3.org/2000/svg" xmlns:xlink="http://www.w3.org/1999/xlink" x="0px" y="0px"
	 width="300px" height="300px" viewBox="0 0 300 300" enable-background="new 0 0 300 300" xml:space="preserve">
<g>
	<rect x="120" y="108.789" fill="#EFD1B8" width="7.5" height="7.5"/>
	<rect x="127.5" y="108.789" fill="#EFD1B8" width="7.5" height="7.5"/>
	<rect x="135" y="108.789" fill="#EFC8A6" width="7.5" height="7.5"/>
	<rect x="142.5" y="108.789" fill="#EEBFA2" width="7.5" height="7.5"/>
	<rect x="150" y="108.779" fill="#5A5B5E" width="7.5" height="7.5"/>
	<rect x="112.5" y="116.289" fill="#E5B29B" width="7.5" height="7.5"/>
	<rect x="120" y="116.289" fill="#6D6E71" width="7.5" height="7.5"/>
	<rect x="127.5" y="116.279" fill="#808285" width="7.5" height="7.5"/>
	<rect x="135" y="116.279" fill="#EFC8A6" width="7.5" height="7.5"/>
	<rect x="142.5" y="116.279" fill="#EFC8A6" width="7.5" height="7.5"/>
	<rect x="150" y="116.289" fill="#808285" width="7.5" height="7.5"/>
	<rect x="112.5" y="123.789" fill="#ADAFB2" width="7.5" height="7.5"/>
	<rect x="120" y="123.789" fill="#ADAFB2" width="7.5" height="7.5"/>
	<rect x="112.5" y="131.26" fill="#AFAFA2" width="7.5" height="7.5"/>
	<rect x="120" y="131.26" fill="#7F95A5" width="7.5" height="7.5"/>
	<rect x="112.5" y="138.75" fill="#EFC8A6" width="7.5" height="7.5"/>
	<rect x="120" y="138.75" fill="#AFAFA2" width="7.5" height="7.5"/>
	<rect x="112.5" y="146.26" fill="#EFC8A6" width="7.5" height="7.5"/>
	<rect x="120" y="146.26" fill="#EFC8A6" width="7.5" height="7.5"/>
	<rect x="112.5" y="153.74" fill="#EFD1B8" width="7.5" height="7.5"/>
	<rect x="105" y="146.26" fill="#EFC8A6" width="7.5" height="7.5"/>
	<rect x="105" y="138.76" fill="#EFC8A6" width="7.5" height="7.5"/>
	<rect x="120" y="153.74" fill="#EFD1B8" width="7.5" height="7.5"/>
	<rect x="135" y="153.74" fill="#C79C89" width="7.5" height="7.5"/>
	<rect x="127.5" y="153.74" fill="#EFC8A6" width="7.5" height="7.5"/>
	<rect x="142.5" y="153.74" fill="#E5B29B" width="7.5" height="7.5"/>
	<rect x="157.5" y="153.74" fill="#F1F2F2" width="7.5" height="7.5"/>
	<rect x="150" y="153.74" fill="#EFC8A6" width="7.5" height="7.5"/>
	<rect x="135" y="161.221" fill="#FFFFFF" width="7.5" height="7.5"/>
	<rect x="127.5" y="161.221" fill="#FFFFFF" width="7.5" height="7.5"/>
	<rect x="120" y="161.221" fill="#FFFFFF" width="7.5" height="7.5"/>
	<rect x="142.5" y="161.221" fill="#C79C89" width="7.5" height="7.5"/>
	<rect x="150" y="161.221" fill="#EFC8A6" width="7.5" height="7.5"/>
	<rect x="135" y="168.711" fill="#E3A193" width="7.5" height="7.5"/>
	<rect x="127.5" y="168.711" fill="#E3A193" width="7.5" height="7.5"/>
	<rect x="142.5" y="168.711" fill="#EFC8A6" width="7.5" height="7.5"/>
	<rect x="150" y="168.711" fill="#E5B29B" width="7.5" height="7.5"/>
	<rect x="135" y="176.211" fill="#EFC8A6" width="7.5" height="7.5"/>
	<rect x="127.5" y="176.211" fill="#EFC8A6" width="7.5" height="7.5"/>
	<rect x="120" y="168.711" fill="#E3A193" width="7.5" height="7.5"/>
	<rect x="120" y="176.211" fill="#E5B29B" width="7.5" height="7.5"/>
	<rect x="142.5" y="176.211" fill="#EFC8A6" width="7.5" height="7.5"/>
	<rect x="135" y="183.711" fill="#C79C89" width="7.5" height="7.5"/>
	<rect x="142.5" y="183.711" fill="#EFC8A6" width="7.5" height="7.5"/>
	<rect x="135" y="191.211" fill="#EFC8A6" width="7.5" height="7.5"/>
	<rect x="142.5" y="191.211" fill="#C79C89" width="7.5" height="7.5"/>
	<rect x="150" y="183.711" fill="#EFC8A6" width="7.5" height="7.5"/>
	<rect x="150" y="176.211" fill="#EFC8A6" width="7.5" height="7.5"/>
	<rect x="157.5" y="176.211" fill="#EFD1B8" width="7.5" height="7.5"/>
	<rect x="157.5" y="183.711" fill="#EFC8A6" width="7.5" height="7.5"/>
	<rect x="157.5" y="191.211" fill="#EFC8A6" width="7.5" height="7.5"/>
	<rect x="150" y="191.211" fill="#EFC8A6" width="7.5" height="7.5"/>
	<rect x="127.5" y="191.211" fill="#231F20" width="7.5" height="7.5"/>
	<rect x="120" y="191.211" fill="#323133" width="7.5" height="7.5"/>
	<rect x="165" y="191.211" fill="#231F20" width="7.5" height="7.5"/>
	<rect x="172.5" y="191.211" fill="#323133" width="7.5" height="7.5"/>
	<rect x="180" y="191.211" fill="#323133" width="7.5" height="7.5"/>
	<rect x="135" y="206.211" fill="#231F20" width="7.5" height="7.5"/>
	<rect x="142.5" y="206.211" fill="#231F20" width="7.5" height="7.5"/>
	<rect x="157.5" y="206.211" fill="#231F20" width="7.5" height="7.5"/>
	<rect x="150" y="206.211" fill="#231F20" width="7.5" height="7.5"/>
	<rect x="127.5" y="206.211" fill="#323133" width="7.5" height="7.5"/>
	<rect x="127.5" y="213.711" fill="#323133" width="7.5" height="7.5"/>
	<rect x="120" y="206.211" fill="#323133" width="7.5" height="7.5"/>
	<rect x="112.5" y="206.211" fill="#323133" width="7.5" height="7.5"/>
	<rect x="165" y="206.211" fill="#323133" width="7.5" height="7.5"/>
	<rect x="172.5" y="206.211" fill="#323133" width="7.5" height="7.5"/>
	<rect x="180" y="206.211" fill="#323133" width="7.5" height="7.5"/>
	<rect x="187.5" y="206.211" fill="#323133" width="7.5" height="7.5"/>
	<rect x="135" y="221.211" fill="#323133" width="7.5" height="7.5"/>
	<rect x="142.5" y="221.211" fill="#323133" width="7.5" height="7.5"/>
	<rect x="157.5" y="221.211" fill="#323133" width="7.5" height="7.5"/>
	<rect x="150" y="221.211" fill="#323133" width="7.5" height="7.5"/>
	<rect x="127.5" y="221.211" fill="#323133" width="7.5" height="7.5"/>
	<rect x="120" y="221.211" fill="#323133" width="7.5" height="7.5"/>
	<rect x="112.5" y="221.211" fill="#231F20" width="7.5" height="7.5"/>
	<rect x="165" y="221.211" fill="#323133" width="7.5" height="7.5"/>
	<rect x="172.5" y="221.211" fill="#231F20" width="7.5" height="7.5"/>
	<rect x="180" y="221.211" fill="#EFC8A6" width="7.5" height="7.5"/>
	<rect x="187.5" y="221.211" fill="#EFC8A6" width="7.5" height="7.5"/>
	<rect x="135" y="198.711" fill="#EFC8A6" width="7.5" height="7.5"/>
	<rect x="142.5" y="198.711" fill="#EFC8A6" width="7.5" height="7.5"/>
	<rect x="157.5" y="198.711" fill="#EFC8A6" width="7.5" height="7.5"/>
	<rect x="150" y="198.711" fill="#EFC8A6" width="7.5" height="7.5"/>
	<rect x="127.5" y="198.711" fill="#231F20" width="7.5" height="7.5"/>
	<rect x="120" y="198.711" fill="#323133" width="7.5" height="7.5"/>
	<rect x="112.5" y="198.711" fill="#323133" width="7.5" height="7.5"/>
	<rect x="165" y="198.711" fill="#231F20" width="7.5" height="7.5"/>
	<rect x="172.5" y="198.711" fill="#323133" width="7.5" height="7.5"/>
	<rect x="180" y="198.711" fill="#323133" width="7.5" height="7.5"/>
	<rect x="187.5" y="198.711" fill="#323133" width="7.5" height="7.5"/>
	<rect x="135" y="213.711" fill="#323133" width="7.5" height="7.5"/>
	<rect x="142.5" y="213.711" fill="#323133" width="7.5" height="7.5"/>
	<rect x="157.5" y="213.711" fill="#323133" width="7.5" height="7.5"/>
	<rect x="150" y="213.711" fill="#323133" width="7.5" height="7.5"/>
	<rect x="127.5" y="213.711" fill="#323133" width="7.5" height="7.5"/>
	<rect x="120" y="213.711" fill="#323133" width="7.5" height="7.5"/>
	<rect x="112.5" y="213.711" fill="#231F20" width="7.5" height="7.5"/>
	<rect x="105" y="206.211" fill="#323133" width="7.5" height="7.5"/>
	<rect x="105" y="198.711" fill="#323133" width="7.5" height="7.5"/>
	<rect x="105" y="221.211" fill="#EFD1B8" width="7.5" height="7.5"/>
	<rect x="105" y="213.711" fill="#323133" width="7.5" height="7.5"/>
	<rect x="97.5" y="206.211" fill="#323133" width="7.5" height="7.5"/>
	<rect x="97.5" y="221.211" fill="#EFD1B8" width="7.5" height="7.5"/>
	<rect x="97.5" y="213.711" fill="#323133" width="7.5" height="7.5"/>
	<rect x="165" y="213.711" fill="#323133" width="7.5" height="7.5"/>
	<rect x="172.5" y="213.711" fill="#231F20" width="7.5" height="7.5"/>
	<rect x="180" y="213.711" fill="#323133" width="7.5" height="7.5"/>
	<rect x="187.5" y="213.711" fill="#323133" width="7.5" height="7.5"/>
	<rect x="195" y="206.211" fill="#323133" width="7.5" height="7.5"/>
	<rect x="195" y="221.211" fill="#EFC8A6" width="7.5" height="7.5"/>
	<rect x="195" y="213.711" fill="#323133" width="7.5" height="7.5"/>
	<rect x="165" y="153.74" fill="#BCBEC0" width="7.5" height="7.5"/>
	<rect x="172.49" y="161.23" fill="#BCBEC0" width="7.5" height="7.5"/>
	<rect x="157.5" y="146.25" fill="#939598" width="7.5" height="7.5"/>
	<rect x="165" y="146.25" fill="#ECEEEE" width="7.5" height="7.5"/>
	<rect x="157.5" y="168.711" fill="#BCBEC0" width="7.5" height="7.5"/>
	<rect x="165" y="168.711" fill="#F1F2F2" width="7.5" height="7.5"/>
	<rect x="157.5" y="161.221" fill="#E6E7E8" width="7.5" height="7.5"/>
	<rect x="165" y="161.221" fill="#939598" width="7.5" height="7.5"/>
	<rect x="172.49" y="168.721" fill="#939598" width="7.5" height="7.5"/>
	<rect x="172.49" y="176.211" fill="#BCBEC0" width="7.5" height="7.5"/>
	<rect x="180" y="183.711" fill="#BCBEC0" width="7.5" height="7.5"/>
	<rect x="157.5" y="138.74" fill="#ECEEEE" width="7.5" height="7.5"/>
	<rect x="165" y="138.74" fill="#DFE0E1" width="7.5" height="7.5"/>
	<rect x="157.5" y="131.25" fill="#808285" width="7.5" height="7.5"/>
	<rect x="165" y="131.25" fill="#E6E7E8" width="7.5" height="7.5"/>
	<rect x="172.5" y="138.74" fill="#E6E7E8" width="7.5" height="7.5"/>
	<rect x="172.5" y="131.25" fill="#BCBEC0" width="7.5" height="7.5"/>
	<rect x="127.5" y="123.789" fill="#ADAFB2" width="7.5" height="7.5"/>
	<rect x="135" y="123.789" fill="#ADAFB2" width="7.5" height="7.5"/>
	<rect x="142.5" y="123.789" fill="#95989B" width="7.5" height="7.5"/>
	<rect x="150" y="123.789" fill="#95989B" width="7.5" height="7.5"/>
	<rect x="127.5" y="131.25" fill="#AA6D2D" width="7.5" height="7.5"/>
	<rect x="135" y="131.25" fill="#AFAFA2" width="7.5" height="7.5"/>
	<rect x="127.5" y="131.25" fill="#EEE3E0" width="7.5" height="7.5"/>
	<rect x="142.5" y="131.26" fill="#EFC8A6" width="7.5" height="7.5"/>
	<rect x="150" y="131.26" fill="#EFC8A6" width="7.5" height="7.5"/>
	<rect x="127.5" y="138.75" fill="#AFAFA2" width="7.5" height="7.5"/>
	<rect x="135" y="138.75" fill="#EFD1B8" width="7.5" height="7.5"/>
	<rect x="142.5" y="138.75" fill="#EFC8A6" width="7.5" height="7.5"/>
	<rect x="150" y="138.74" fill="#EFC8A6" width="7.5" height="7.5"/>
	<rect x="127.5" y="146.24" fill="#EFD1B8" width="7.5" height="7.5"/>
	<rect x="135" y="146.24" fill="#E5B29B" width="7.5" height="7.5"/>
	<rect x="142.5" y="146.24" fill="#EFC8A6" width="7.5" height="7.5"/>
	<rect x="150" y="146.24" fill="#EFC8A6" width="7.5" height="7.5"/>
	<rect x="157.5" y="108.779" fill="#F1F2F2" width="7.5" height="7.5"/>
	<rect x="165" y="108.779" fill="#5A5B5E" width="7.5" height="7.5"/>
	<rect x="112.5" y="108.789" fill="#EFD1B8" width="7.5" height="7.5"/>
	<rect x="112.5" y="101.299" fill="#C79C89" width="7.5" height="7.51"/>
	<rect x="112.5" y="93.799" fill="#EFD1B8" width="7.5" height="7.5"/>
	<rect x="120" y="101.299" fill="#E5B29B" width="7.5" height="7.5"/>
	<rect x="127.5" y="101.299" fill="#C79C89" width="7.5" height="7.51"/>
	<rect x="135" y="101.299" fill="#EFC8A6" width="7.5" height="7.51"/>
	<rect x="142.5" y="101.299" fill="#EFC8A6" width="7.5" height="7.51"/>
	<rect x="150" y="101.299" fill="#EEBFA2" width="7.5" height="7.5"/>
	<rect x="157.5" y="101.299" fill="#5A5B5E" width="7.5" height="7.5"/>
	<rect x="120" y="93.799" fill="#EFD1B8" width="7.5" height="7.5"/>
	<rect x="120" y="86.299" fill="#EEE3E0" width="7.5" height="7.5"/>
	<rect x="127.5" y="78.799" fill="#EEE3E0" width="7.5" height="7.5"/>
	<rect x="127.5" y="86.299" fill="#EFD1B8" width="7.5" height="7.5"/>
	<rect x="135" y="86.299" fill="#EFD1B8" width="7.5" height="7.5"/>
	<rect x="142.5" y="86.299" fill="#EFD1B8" width="7.5" height="7.5"/>
	<rect x="150" y="86.299" fill="#808285" width="7.5" height="7.5"/>
	<rect x="157.5" y="93.799" fill="#5A5B5E" width="7.5" height="7.5"/>
	<rect x="157.5" y="86.299" fill="#5A5B5E" width="7.5" height="7.5"/>
	<rect x="135" y="78.799" fill="#EFD1B8" width="7.5" height="7.5"/>
	<rect x="142.5" y="78.799" fill="#808285" width="7.5" height="7.5"/>
	<rect x="150" y="78.799" fill="#5A5B5E" width="7.5" height="7.5"/>
	<rect x="157.505" y="71.289" fill="#808285" width="7.5" height="7.5"/>
	<rect x="165" y="93.799" fill="#5A5B5E" width="7.5" height="7.5"/>
	<rect x="127.5" y="93.799" fill="#EFC8A6" width="7.5" height="7.5"/>
	<rect x="135" y="93.799" fill="#EFC8A6" width="7.5" height="7.5"/>
	<rect x="142.5" y="93.799" fill="#EFC8A6" width="7.5" height="7.5"/>
	<rect x="150" y="93.799" fill="#EFD1B8" width="7.5" height="7.5"/>
	<rect x="165" y="101.299" fill="#939598" width="7.5" height="7.5"/>
	<rect x="157.5" y="116.279" fill="#A7A9AC" width="7.5" height="7.5"/>
	<rect x="165" y="116.279" fill="#F1F2F2" width="7.5" height="7.5"/>
	<rect x="157.5" y="123.779" fill="#808285" width="7.5" height="7.5"/>
	<rect x="165" y="123.779" fill="#BCBEC0" width="7.5" height="7.5"/>
	<rect x="172.5" y="108.779" fill="#A7A9AC" width="7.5" height="7.5"/>
	<rect x="172.5" y="101.299" fill="#A7A9AC" width="7.5" height="7.5"/>
	<rect x="180" y="101.299" fill="#E6E7E8" width="7.5" height="7.5"/>
	<rect x="172.5" y="93.799" fill="#E6E7E8" width="7.5" height="7.5"/>
	<rect x="165" y="86.299" fill="#5A5B5E" width="7.5" height="7.5"/>
	<rect x="172.5" y="78.799" fill="#5A5B5E" width="7.5" height="7.5"/>
	<rect x="172.5" y="116.279" fill="#E6E7E8" width="7.5" height="7.5"/>
	<rect x="180" y="108.779" fill="#808285" width="7.5" height="7.5"/>
	<rect x="180" y="116.279" fill="#A7A9AC" width="7.5" height="7.5"/>
	<rect x="172.5" y="146.26" fill="#DFE0E1" width="7.5" height="7.5"/>
	<rect x="172.5" y="153.76" fill="#ECEEEE" width="7.5" height="7.5"/>
	<rect x="172.5" y="123.779" fill="#F1F2F2" width="7.5" height="7.5"/>
	<rect x="180" y="138.74" fill="#BCBEC0" width="7.5" height="7.5"/>
	<rect x="187.422" y="146.328" fill="#BCBEC0" width="7.5" height="7.5"/>
	<rect x="187.422" y="161.221" fill="#BCBEC0" width="7.5" height="7.5"/>
	<rect x="187.422" y="168.73" fill="#ECEEEE" width="7.5" height="7.5"/>
	<rect x="195" y="161.221" fill="#BCBEC0" width="7.5" height="7.5"/>
	<rect x="187.422" y="176.211" fill="#ECEEEE" width="7.5" height="7.5"/>
	<rect x="195" y="176.211" fill="#ECEEEE" width="7.5" height="7.5"/>
	<rect x="180" y="146.26" fill="#BCBEC0" width="7.5" height="7.5"/>
	<rect x="180" y="153.76" fill="#BCBEC0" width="7.5" height="7.5"/>
	<rect x="180" y="161.23" fill="#ECEEEE" width="7.5" height="7.5"/>
	<rect x="180" y="168.73" fill="#BCBEC0" width="7.5" height="7.5"/>
	<rect x="180" y="131.25" fill="#E6E7E8" width="7.5" height="7.5"/>
	<rect x="187.422" y="138.74" fill="#E6E7E8" width="7.5" height="7.5"/>
	<rect x="180" y="123.779" fill="#E6E7E8" width="7.5" height="7.5"/>
</g>
</svg>
