<?xml version="1.0" encoding="utf-8"?>
<!-- Generator: Adobe Illustrator 16.0.0, SVG Export Plug-In . SVG Version: 6.00 Build 0)  -->
<!DOCTYPE svg PUBLIC "-//W3C//DTD SVG 1.1//EN" "http://www.w3.org/Graphics/SVG/1.1/DTD/svg11.dtd">
<svg version="1.1" id="Layer_1" xmlns="http://www.w3.org/2000/svg" xmlns:xlink="http://www.w3.org/1999/xlink" x="0px" y="0px"
	 width="300px" height="300px" viewBox="0 0 300 300" enable-background="new 0 0 300 300" xml:space="preserve">
<g>
	<rect x="135" y="188.965" fill="#737D7A" width="6" height="6"/>
	<rect x="141" y="188.965" fill="#A97C50" width="6" height="6"/>
	<rect x="153" y="188.965" fill="#737D7A" width="6" height="6"/>
	<rect x="147" y="188.965" fill="#737D7A" width="6" height="6"/>
	<rect x="129" y="188.965" fill="#737D7A" width="6" height="6"/>
	<rect x="123" y="188.965" fill="#FAC805" width="6" height="6"/>
	<rect x="117" y="188.965" fill="#FAC805" width="6" height="6"/>
	<rect x="159" y="188.965" fill="#FAC805" width="6" height="6"/>
	<rect x="165" y="188.965" fill="#FAC805" width="6" height="6"/>
	<rect x="171" y="188.965" fill="#FAC805" width="6" height="6"/>
	<rect x="177" y="188.965" fill="#FAC805" width="6" height="6"/>
	<rect x="135" y="200.965" fill="#FAC805" width="6" height="6"/>
	<rect x="141" y="200.965" fill="#6D808E" width="6" height="6"/>
	<rect x="153" y="200.965" fill="#FAC805" width="6" height="6"/>
	<rect x="147" y="200.965" fill="#FAC805" width="6" height="6"/>
	<rect x="129" y="200.965" fill="#FAC805" width="6" height="6"/>
	<rect x="123" y="200.965" fill="#D59E10" width="6" height="6"/>
	<rect x="117" y="200.965" fill="#FAC805" width="6" height="6"/>
	<rect x="159" y="200.965" fill="#FAC805" width="6" height="6"/>
	<rect x="165" y="200.965" fill="#D59E10" width="6" height="6"/>
	<rect x="171" y="200.965" fill="#FAC805" width="6" height="6"/>
	<rect x="177" y="200.965" fill="#FAC805" width="6" height="6"/>
	<rect x="135" y="182.965" fill="#906B22" width="6" height="6"/>
	<rect x="141" y="182.965" fill="#EFD1B8" width="6" height="6"/>
	<rect x="153" y="182.965" fill="#EFD1B8" width="6" height="6"/>
	<rect x="147" y="182.965" fill="#906B22" width="6" height="6"/>
	<rect x="141" y="176.965" fill="#EFD1B8" width="6" height="6"/>
	<rect x="147" y="176.965" fill="#EFD1B8" width="6" height="6"/>
	<rect x="129" y="182.965" fill="#737D7A" width="6" height="6"/>
	<rect x="117" y="182.965" fill="#FAC805" width="6" height="6"/>
	<rect x="159" y="182.965" fill="#FAC805" width="6" height="6"/>
	<rect x="165" y="182.965" fill="#3C2415" width="6" height="6"/>
	<rect x="171" y="182.965" fill="#FAC805" width="6" height="6"/>
	<rect x="135" y="194.965" fill="#737D7A" width="6" height="6"/>
	<rect x="141" y="194.965" fill="#737D7A" width="6" height="6"/>
	<rect x="153" y="194.965" fill="#FAC805" width="6" height="6"/>
	<rect x="147" y="194.965" fill="#737D7A" width="6" height="6"/>
	<rect x="129" y="194.965" fill="#FAC805" width="6" height="6"/>
	<rect x="123" y="194.965" fill="#FAC805" width="6" height="6"/>
	<rect x="117" y="194.965" fill="#FAC805" width="6" height="6"/>
	<rect x="111" y="188.965" fill="#FAC805" width="6" height="6"/>
	<rect x="111" y="200.965" fill="#FAC805" width="6" height="6"/>
	<rect x="111" y="194.965" fill="#FAC805" width="6" height="6"/>
	<rect x="159" y="194.965" fill="#FAC805" width="6" height="6"/>
	<rect x="165" y="194.965" fill="#FAC805" width="6" height="6"/>
	<rect x="171" y="194.965" fill="#FAC805" width="6" height="6"/>
	<rect x="177" y="194.965" fill="#FAC805" width="6" height="6"/>
	<rect x="111" y="105.027" fill="#3C2415" width="6" height="6"/>
	<rect x="111" y="111.027" fill="#231F20" width="6" height="6"/>
	<rect x="117" y="105.027" fill="#231F20" width="6" height="6"/>
	<rect x="123" y="105.027" fill="#231F20" width="6" height="6"/>
	<rect x="129" y="105.027" fill="#EFD1B8" width="6" height="6"/>
	<rect x="135" y="105.027" fill="#EFCFC0" width="6" height="6"/>
	<rect x="141" y="105.027" fill="#231F20" width="6" height="6"/>
	<rect x="117" y="111.027" fill="#EED0C6" width="6" height="6"/>
	<rect x="123" y="111.027" fill="#EED0C6" width="6" height="6"/>
	<rect x="129" y="111.027" fill="#EFD1B8" width="6" height="6"/>
	<rect x="135" y="111.027" fill="#EFD1B8" width="6" height="6"/>
	<rect x="141" y="111.027" fill="#231F20" width="6" height="6"/>
	<rect x="117" y="117.027" fill="#EED0C6" width="6" height="6"/>
	<rect x="117" y="123.004" fill="#00051D" width="6" height="6"/>
	<rect x="117" y="128.988" fill="#422D20" width="6" height="6"/>
	<rect x="111" y="135.004" fill="#EFD1B8" width="6" height="6"/>
	<rect x="117" y="135.004" fill="#EFD1B8" width="6" height="6"/>
	<rect x="117" y="140.988" fill="#EFD1B8" width="6" height="6"/>
	<rect x="129" y="140.988" fill="#EFD1B8" width="6" height="6"/>
	<rect x="123" y="140.988" fill="#EFD1B8" width="6" height="6"/>
	<rect x="135" y="140.988" fill="#EFCFC0" width="6" height="6"/>
	<rect x="147" y="140.988" fill="#EFCFC0" width="6" height="6"/>
	<rect x="141" y="140.988" fill="#EFCFC0" width="6" height="6"/>
	<rect x="129" y="146.98" fill="#FFFFFF" width="6" height="6"/>
	<rect x="123" y="146.98" fill="#FFFFFF" width="6" height="6"/>
	<rect x="135" y="146.98" fill="#D28F8C" width="6" height="6"/>
	<rect x="141" y="146.98" fill="#EFD1B8" width="6" height="6"/>
	<rect x="129" y="152.965" fill="#D28F8C" width="6" height="6"/>
	<rect x="123" y="152.965" fill="#D28F8C" width="6" height="6"/>
	<rect x="135" y="152.965" fill="#EFD1B8" width="6" height="6"/>
	<rect x="141" y="152.965" fill="#EFD1B8" width="6" height="6"/>
	<rect x="129" y="158.965" fill="#EFD1B8" width="6" height="6"/>
	<rect x="123" y="158.965" fill="#EFCFC0" width="6" height="6"/>
	<rect x="129" y="164.965" fill="#EED0C6" width="6" height="6"/>
	<rect x="135" y="158.965" fill="#EFD1B8" width="6" height="6"/>
	<rect x="135" y="164.965" fill="#EFD1B8" width="6" height="6"/>
	<rect x="135" y="170.965" fill="#E5B29B" width="6" height="6"/>
	<rect x="141" y="164.965" fill="#E5B29B" width="6" height="6"/>
	<rect x="141" y="158.965" fill="#EFD1B8" width="6" height="6"/>
	<rect x="147" y="158.965" fill="#3C2415" width="6" height="6"/>
	<rect x="141" y="170.965" fill="#FFFFFF" width="6" height="6"/>
	<rect x="147" y="170.965" fill="#231F20" width="6" height="6"/>
	<rect x="141" y="170.965" fill="#EFD1B8" width="6" height="6"/>
	<rect x="153" y="176.965" fill="#906B22" width="6" height="6"/>
	<rect x="135" y="176.965" fill="#EFD1B8" width="6" height="6"/>
	<rect x="153" y="140.988" fill="#ECEEEE" width="6" height="6"/>
	<rect x="147" y="135.004" fill="#3C2415" width="6" height="6"/>
	<rect x="153" y="135.004" fill="#3C2415" width="6" height="6"/>
	<rect x="147" y="152.965" fill="#EFD1B8" width="6" height="6"/>
	<rect x="153" y="152.965" fill="#5F3529" width="6" height="6"/>
	<rect x="147" y="146.98" fill="#EFD1B8" width="6" height="6"/>
	<rect x="153" y="146.98" fill="#231F20" width="6" height="6"/>
	<rect x="147" y="128.988" fill="#EEE1BF" width="6" height="6"/>
	<rect x="153" y="128.988" fill="#231F20" width="6" height="6"/>
	<rect x="147" y="123.004" fill="#EEE1BF" width="6" height="6"/>
	<rect x="153" y="123.004" fill="#231F20" width="6" height="6"/>
	<rect x="159" y="128.988" fill="#231F20" width="6" height="6"/>
	<rect x="159" y="123.004" fill="#3C2415" width="6" height="6"/>
	<rect x="123" y="117.012" fill="#9B8579" width="6" height="6"/>
	<rect x="129" y="117.012" fill="#9B8579" width="6" height="6"/>
	<rect x="135" y="117.027" fill="#EFD1B8" width="6" height="6"/>
	<rect x="141" y="117.027" fill="#EFD1B8" width="6" height="6"/>
	<rect x="123" y="123.004" fill="#3E2D02" width="6" height="6"/>
	<rect x="129" y="123.004" fill="#422D20" width="6" height="6"/>
	<rect x="135" y="122.988" fill="#3E2D02" width="6" height="6"/>
	<rect x="141" y="123.004" fill="#3E2D02" width="6" height="6"/>
	<rect x="123" y="128.988" fill="#6A4333" width="6" height="6"/>
	<rect x="129" y="128.988" fill="#FFFFFF" width="6" height="6"/>
	<rect x="135" y="128.988" fill="#00051D" width="6" height="6"/>
	<rect x="141" y="128.988" fill="#EFD1B8" width="6" height="6"/>
	<rect x="123" y="134.988" fill="#3E2D02" width="6" height="6"/>
	<rect x="129" y="134.988" fill="#422D20" width="6" height="6"/>
	<rect x="135" y="134.988" fill="#EED0C6" width="6" height="6"/>
	<rect x="141" y="134.988" fill="#EFCFC0" width="6" height="6"/>
	<rect x="147" y="105.027" fill="#231F20" width="6" height="6"/>
	<rect x="153" y="105.027" fill="#231F20" width="6" height="6"/>
	<rect x="147" y="93.035" fill="#3C2415" width="6" height="6"/>
	<rect x="153" y="93.035" fill="#5F3529" width="6" height="6"/>
	<rect x="153" y="99.035" fill="#3C2415" width="6" height="6"/>
	<rect x="159" y="99.035" fill="#3C2415" width="6" height="6"/>
	<rect x="117" y="99.035" fill="#3C2415" width="6" height="6"/>
	<rect x="123" y="99.035" fill="#3C2415" width="6" height="6"/>
	<rect x="129" y="99.035" fill="#231F20" width="6" height="6"/>
	<rect x="135" y="99.035" fill="#3C2415" width="6" height="6"/>
	<rect x="141" y="99.035" fill="#231F20" width="6" height="6"/>
	<rect x="123" y="93.035" fill="#5F3529" width="6" height="6"/>
	<rect x="129" y="93.035" fill="#3C2415" width="6" height="6"/>
	<rect x="135" y="93.035" fill="#3C2415" width="6" height="6"/>
	<rect x="141" y="93.035" fill="#3C2415" width="6" height="6"/>
	<rect x="147" y="99.035" fill="#231F20" width="6" height="6"/>
	<rect x="147" y="111.027" fill="#231F20" width="6" height="6"/>
	<rect x="147" y="123.004" fill="#231F20" width="6" height="6"/>
	<rect x="147" y="128.988" fill="#231F20" width="6" height="6"/>
	<rect x="153" y="111.027" fill="#3C2415" width="6" height="6"/>
	<rect x="159" y="111.027" fill="#231F20" width="6" height="6"/>
	<rect x="159" y="105.027" fill="#3C2415" width="6" height="6"/>
	<rect x="165" y="105.027" fill="#3C2415" width="6" height="6"/>
	<rect x="159" y="117.027" fill="#3C2415" width="6" height="6"/>
	<rect x="165" y="117.027" fill="#231F20" width="6" height="6"/>
	<rect x="165" y="111.027" fill="#3C2415" width="6" height="6"/>
	<rect x="165" y="123.027" fill="#3C2415" width="6" height="6"/>
	<rect x="171" y="117.027" fill="#231F20" width="6" height="6"/>
	<rect x="171" y="123.027" fill="#3C2415" width="6" height="6"/>
	<rect x="165" y="128.988" fill="#3C2415" width="6" height="6"/>
	<rect x="171" y="128.988" fill="#5F3529" width="6" height="6"/>
	<rect x="171" y="141.004" fill="#231F20" width="6" height="6"/>
	<rect x="165" y="135.004" fill="#5F3529" width="6" height="6"/>
	<rect x="171" y="135.004" fill="#3C2415" width="6" height="6"/>
	<rect x="171" y="147.004" fill="#5F3529" width="6" height="6"/>
	<rect x="177" y="141.004" fill="#3C2415" width="6" height="6"/>
	<rect x="177" y="147.004" fill="#3C2415" width="6" height="6"/>
	<rect x="177" y="134.988" fill="#5F3529" width="6" height="6"/>
	<rect x="183" y="147.004" fill="#3C2415" width="6" height="6"/>
	<rect x="159" y="141.004" fill="#231F20" width="6" height="6"/>
	<rect x="159" y="135.004" fill="#231F20" width="6" height="6"/>
	<rect x="159" y="147.004" fill="#231F20" width="6" height="6"/>
	<rect x="171" y="152.965" fill="#3C2415" width="6" height="6"/>
	<rect x="177" y="152.965" fill="#231F20" width="6" height="6"/>
	<rect x="159" y="152.965" fill="#3C2415" width="6" height="6"/>
	<rect x="171" y="158.965" fill="#5F3529" width="6" height="6"/>
	<rect x="165" y="141.004" fill="#231F20" width="6" height="6"/>
	<rect x="165" y="147.004" fill="#5F3529" width="6" height="6"/>
	<rect x="165" y="152.965" fill="#3C2415" width="6" height="6"/>
	<rect x="165" y="158.965" fill="#5F3529" width="6" height="6"/>
	<rect x="165" y="164.965" fill="#231F20" width="6" height="6"/>
	<rect x="165" y="170.965" fill="#231F20" width="6" height="6"/>
	<rect x="159" y="164.965" fill="#3C2415" width="6" height="6"/>
	<rect x="159" y="170.965" fill="#3C2415" width="6" height="6"/>
	<rect x="177" y="158.965" fill="#3C2415" width="6" height="6"/>
	<rect x="177" y="164.965" fill="#3C2415" width="6" height="6"/>
	<rect x="159" y="176.965" fill="#231F20" width="6" height="6"/>
	<rect x="159" y="182.965" fill="#737D7A" width="6" height="6"/>
	<rect x="165" y="176.965" fill="#FAC805" width="6" height="6"/>
	<rect x="123" y="176.965" fill="#737D7A" width="6" height="6"/>
	<rect x="129" y="176.965" fill="#906B22" width="6" height="6"/>
	<rect x="123" y="182.965" fill="#FAC805" width="6" height="6"/>
	<rect x="159" y="158.965" fill="#3C2415" width="6" height="6"/>
	<rect x="153" y="158.965" fill="#231F20" width="6" height="6"/>
	<rect x="153" y="164.965" fill="#3C2415" width="6" height="6"/>
	<rect x="153" y="170.965" fill="#3C2415" width="6" height="6"/>
	<rect x="147" y="164.965" fill="#EFD1B8" width="6" height="6"/>
	<rect x="147" y="117.027" fill="#231F20" width="6" height="6"/>
	<rect x="153" y="117.027" fill="#5F3529" width="6" height="6"/>
</g>
</svg>
