<?xml version="1.0" encoding="utf-8"?>
<!-- Generator: Adobe Illustrator 16.0.0, SVG Export Plug-In . SVG Version: 6.00 Build 0)  -->
<!DOCTYPE svg PUBLIC "-//W3C//DTD SVG 1.1//EN" "http://www.w3.org/Graphics/SVG/1.1/DTD/svg11.dtd">
<svg version="1.1" id="Layer_1" xmlns="http://www.w3.org/2000/svg" xmlns:xlink="http://www.w3.org/1999/xlink" x="0px" y="0px"
	 width="300px" height="300px" viewBox="0 0 300 300" enable-background="new 0 0 300 300" xml:space="preserve">
<g>
	<rect x="108.73" y="75.029" fill="#231F20" width="7.5" height="7.5"/>
	<rect x="108.73" y="90.02" fill="#231F20" width="7.5" height="7.5"/>
	<rect x="116.23" y="90.02" fill="#231F20" width="7.5" height="7.5"/>
	<rect x="123.73" y="90.02" fill="#231F20" width="7.5" height="7.5"/>
	<rect x="131.23" y="90.02" fill="#231F20" width="7.5" height="7.5"/>
	<rect x="138.73" y="90.02" fill="#231F20" width="7.5" height="7.5"/>
	<rect x="146.23" y="90.02" fill="#231F20" width="7.5" height="7.5"/>
	<rect x="108.73" y="105.02" fill="#231F20" width="7.5" height="7.5"/>
	<rect x="116.23" y="105.02" fill="#231F20" width="7.5" height="7.5"/>
	<rect x="123.73" y="105.02" fill="#464749" width="7.5" height="7.5"/>
	<rect x="131.23" y="105.02" fill="#EFD1B8" width="7.5" height="7.5"/>
	<rect x="138.73" y="105.02" fill="#EFD1B8" width="7.5" height="7.5"/>
	<rect x="146.23" y="105.02" fill="#231F20" width="7.5" height="7.5"/>
	<rect x="108.73" y="112.52" fill="#EFCFC0" width="7.5" height="7.5"/>
	<rect x="116.23" y="112.52" fill="#EFCFC0" width="7.5" height="7.5"/>
	<rect x="108.73" y="119.99" fill="#231F20" width="7.5" height="7.5"/>
	<rect x="116.23" y="119.99" fill="#231F20" width="7.5" height="7.5"/>
	<rect x="108.73" y="127.48" fill="#231F20" width="7.5" height="7.5"/>
	<rect x="116.23" y="127.48" fill="#603913" width="7.5" height="7.5"/>
	<rect x="108.73" y="134.99" fill="#EFD1B8" width="7.5" height="7.5"/>
	<rect x="116.23" y="134.99" fill="#231F20" width="7.5" height="7.5"/>
	<rect x="108.73" y="142.48" fill="#BAA993" width="7.5" height="7.5"/>
	<rect x="101.23" y="134.99" fill="#EFD1B8" width="7.5" height="7.5"/>
	<rect x="116.23" y="142.48" fill="#BAA993" width="7.5" height="7.5"/>
	<rect x="131.23" y="142.48" fill="#D7BFAA" width="7.5" height="7.5"/>
	<rect x="123.73" y="142.48" fill="#D7BFAA" width="7.5" height="7.5"/>
	<rect x="138.73" y="142.48" fill="#EFCFC0" width="7.5" height="7.5"/>
	<rect x="153.73" y="142.48" fill="#EFD1B8" width="7.5" height="7.5"/>
	<rect x="146.23" y="142.48" fill="#EFCFC0" width="7.5" height="7.5"/>
	<rect x="131.23" y="149.961" fill="#FFFFFF" width="7.5" height="7.5"/>
	<rect x="123.73" y="149.961" fill="#FFFFFF" width="7.5" height="7.5"/>
	<rect x="138.73" y="149.961" fill="#FFFFFF" width="7.5" height="7.5"/>
	<rect x="146.23" y="149.961" fill="#EFD1B8" width="7.5" height="7.5"/>
	<rect x="131.23" y="157.451" fill="#D28F8C" width="7.5" height="7.5"/>
	<rect x="123.73" y="157.451" fill="#D28F8C" width="7.5" height="7.5"/>
	<rect x="138.73" y="157.451" fill="#BB807B" width="7.5" height="7.5"/>
	<rect x="146.23" y="157.451" fill="#EFD1B8" width="7.5" height="7.5"/>
	<rect x="131.23" y="164.951" fill="#EFCFC0" width="7.5" height="7.5"/>
	<rect x="123.73" y="164.951" fill="#EFCFC0" width="7.5" height="7.5"/>
	<rect x="123.73" y="172.505" fill="#EFD1B8" width="7.5" height="7.5"/>
	<rect x="138.73" y="164.951" fill="#EFD1B8" width="7.5" height="7.5"/>
	<rect x="146.23" y="164.951" fill="#EFD1B8" width="7.5" height="7.5"/>
	<rect x="153.73" y="164.951" fill="#EFCFC0" width="7.5" height="7.5"/>
	<rect x="161.23" y="142.48" fill="#EFD1B8" width="7.5" height="7.5"/>
	<rect x="153.73" y="134.99" fill="#5A5B5E" width="7.5" height="7.5"/>
	<rect x="161.23" y="134.99" fill="#EFD1B8" width="7.5" height="7.5"/>
	<rect x="153.73" y="157.451" fill="#EFD1B8" width="7.5" height="7.5"/>
	<rect x="161.23" y="157.451" fill="#EFD1B8" width="7.5" height="7.5"/>
	<rect x="161.23" y="164.951" fill="#EFD1B8" width="7.5" height="7.5"/>
	<rect x="153.73" y="149.961" fill="#EFD1B8" width="7.5" height="7.5"/>
	<rect x="161.23" y="149.961" fill="#EFCFC0" width="7.5" height="7.5"/>
	<rect x="153.73" y="127.48" fill="#231F20" width="7.5" height="7.5"/>
	<rect x="161.23" y="127.48" fill="#EFD1B8" width="7.5" height="7.5"/>
	<rect x="153.73" y="119.99" fill="#EDD69F" width="7.5" height="7.5"/>
	<rect x="161.23" y="119.99" fill="#231F20" width="7.5" height="7.5"/>
	<rect x="168.73" y="127.48" fill="#EFD1B8" width="7.5" height="7.5"/>
	<rect x="168.73" y="134.99" fill="#EFD1B8" width="7.5" height="7.5"/>
	<rect x="168.73" y="119.99" fill="#231F20" width="7.5" height="7.5"/>
	<rect x="123.73" y="112.52" fill="#EFD1B8" width="7.5" height="7.5"/>
	<rect x="131.23" y="112.52" fill="#EFD1B8" width="7.5" height="7.5"/>
	<rect x="138.73" y="112.52" fill="#EFD1B8" width="7.5" height="7.5"/>
	<rect x="146.23" y="112.52" fill="#323133" width="7.5" height="7.5"/>
	<rect x="123.73" y="119.99" fill="#231F20" width="7.5" height="7.5"/>
	<rect x="131.23" y="119.99" fill="#231F20" width="7.5" height="7.5"/>
	<rect x="138.73" y="119.99" fill="#231F20" width="7.5" height="7.5"/>
	<rect x="146.23" y="119.99" fill="#231F20" width="7.5" height="7.5"/>
	<rect x="123.73" y="127.48" fill="#FFFFFF" width="7.5" height="7.5"/>
	<rect x="131.23" y="127.48" fill="#231F20" width="7.5" height="7.5"/>
	<rect x="138.73" y="127.48" fill="#EFD1B8" width="7.5" height="7.5"/>
	<rect x="146.23" y="127.48" fill="#EFD1B8" width="7.5" height="7.5"/>
	<rect x="123.73" y="134.98" fill="#231F20" width="7.5" height="7.5"/>
	<rect x="131.23" y="134.98" fill="#EFD1B8" width="7.5" height="7.5"/>
	<rect x="138.73" y="134.98" fill="#EFCFC0" width="7.5" height="7.5"/>
	<rect x="146.23" y="134.98" fill="#EFD1B8" width="7.5" height="7.5"/>
	<rect x="153.73" y="90.02" fill="#231F20" width="7.5" height="7.5"/>
	<rect x="161.23" y="90.02" fill="#323133" width="7.5" height="7.5"/>
	<rect x="108.73" y="82.529" fill="#231F20" width="7.5" height="7.5"/>
	<rect x="101.27" y="82.529" fill="#231F20" width="7.5" height="7.5"/>
	<rect x="116.23" y="82.529" fill="#231F20" width="7.5" height="7.5"/>
	<rect x="123.73" y="82.529" fill="#231F20" width="7.5" height="7.5"/>
	<rect x="131.23" y="82.529" fill="#231F20" width="7.5" height="7.5"/>
	<rect x="138.73" y="82.529" fill="#231F20" width="7.5" height="7.5"/>
	<rect x="146.23" y="82.529" fill="#231F20" width="7.5" height="7.5"/>
	<rect x="153.73" y="82.529" fill="#323133" width="7.5" height="7.5"/>
	<rect x="153.73" y="105.02" fill="#323133" width="7.5" height="7.5"/>
	<rect x="153.73" y="119.99" fill="#231F20" width="7.5" height="7.5"/>
	<rect x="161.23" y="105.02" fill="#231F20" width="7.5" height="7.5"/>
	<rect x="168.73" y="105.02" fill="#231F20" width="7.5" height="7.5"/>
	<rect x="108.73" y="97.52" fill="#EFCFC0" width="7.5" height="7.5"/>
	<rect x="116.23" y="97.52" fill="#EFD1B8" width="7.5" height="7.5"/>
	<rect x="123.73" y="97.52" fill="#EFD1B8" width="7.5" height="7.5"/>
	<rect x="131.23" y="97.52" fill="#EFD1B8" width="7.5" height="7.5"/>
	<rect x="138.73" y="97.52" fill="#EFD1B8" width="7.5" height="7.5"/>
	<rect x="146.23" y="97.52" fill="#EFD1B8" width="7.5" height="7.5"/>
	<rect x="153.73" y="97.52" fill="#231F20" width="7.5" height="7.5"/>
	<rect x="161.23" y="97.52" fill="#231F20" width="7.5" height="7.5"/>
	<rect x="168.73" y="97.52" fill="#231F20" width="7.5" height="7.5"/>
	<rect x="168.73" y="112.52" fill="#231F20" width="7.5" height="7.5"/>
	<rect x="168.73" y="142.48" fill="#231F20" width="7.5" height="7.5"/>
	<rect x="168.73" y="149.961" fill="#231F20" width="7.5" height="7.5"/>
	<rect x="153.73" y="112.52" fill="#323133" width="7.5" height="7.5"/>
	<rect x="161.23" y="112.52" fill="#323133" width="7.5" height="7.5"/>
	<rect x="131.23" y="172.451" fill="#EFD1B8" width="7.5" height="7.5"/>
	<rect x="138.73" y="172.451" fill="#EFD1B8" width="7.5" height="7.5"/>
	<rect x="146.23" y="172.451" fill="#EFCFC0" width="7.5" height="7.5"/>
	<rect x="153.73" y="172.451" fill="#EFD1B8" width="7.5" height="7.5"/>
	<rect x="138.77" y="187.466" fill="#12558B" width="7.5" height="7.5"/>
	<rect x="146.27" y="187.466" fill="#12558B" width="7.5" height="7.5"/>
	<rect x="138.77" y="179.966" fill="#EFCFC0" width="7.5" height="7.5"/>
	<rect x="146.27" y="179.966" fill="#EFD1B8" width="7.5" height="7.5"/>
	<rect x="153.77" y="179.966" fill="#EFD1B8" width="7.5" height="7.5"/>
	<rect x="161.27" y="179.966" fill="#12558B" width="7.5" height="7.5"/>
	<rect x="168.77" y="179.966" fill="#808285" width="7.5" height="7.5"/>
	<rect x="176.27" y="172.505" fill="#808285" width="7.5" height="7.5"/>
	<rect x="176.27" y="179.966" fill="#808285" width="7.5" height="7.5"/>
	<rect x="176.27" y="165.005" fill="#464749" width="7.5" height="7.5"/>
	<rect x="183.77" y="172.505" fill="#808285" width="7.5" height="7.5"/>
	<rect x="183.77" y="165.005" fill="#808285" width="7.5" height="7.5"/>
	<rect x="168.77" y="165.005" fill="#464749" width="7.5" height="7.5"/>
	<rect x="161.27" y="172.505" fill="#EFD1B8" width="7.5" height="7.5"/>
	<rect x="168.77" y="172.505" fill="#464749" width="7.5" height="7.5"/>
	<rect x="161.27" y="187.466" fill="#12558B" width="7.5" height="7.5"/>
	<rect x="153.77" y="187.466" fill="#12558B" width="7.5" height="7.5"/>
	<rect x="131.27" y="187.466" fill="#12558B" width="7.5" height="7.5"/>
	<rect x="116.27" y="187.466" fill="#808285" width="7.5" height="7.5"/>
	<rect x="123.73" y="179.966" fill="#464749" width="7.5" height="7.5"/>
	<rect x="131.27" y="179.966" fill="#EFCFC0" width="7.5" height="7.5"/>
	<rect x="168.77" y="187.466" fill="#F1F2F2" width="7.5" height="7.5"/>
	<rect x="176.27" y="187.466" fill="#808285" width="7.5" height="7.5"/>
	<rect x="183.77" y="187.466" fill="#808285" width="7.5" height="7.5"/>
	<rect x="138.77" y="202.466" fill="#C3D2E0" width="7.5" height="7.5"/>
	<rect x="146.27" y="202.466" fill="#12558B" width="7.5" height="7.5"/>
	<rect x="161.27" y="202.466" fill="#808285" width="7.5" height="7.5"/>
	<rect x="153.77" y="202.466" fill="#ECEEEE" width="7.5" height="7.5"/>
	<rect x="131.27" y="202.466" fill="#808285" width="7.5" height="7.5"/>
	<rect x="116.27" y="202.466" fill="#F1F2F2" width="7.5" height="7.5"/>
	<rect x="108.77" y="202.466" fill="#808285" width="7.5" height="7.5"/>
	<rect x="168.77" y="202.466" fill="#F1F2F2" width="7.5" height="7.5"/>
	<rect x="176.27" y="202.466" fill="#808285" width="7.5" height="7.5"/>
	<rect x="183.77" y="202.466" fill="#808285" width="7.5" height="7.5"/>
	<rect x="191.27" y="202.466" fill="#808285" width="7.5" height="7.5"/>
	<rect x="138.77" y="217.471" fill="#12558B" width="7.5" height="7.5"/>
	<rect x="146.27" y="217.471" fill="#12558B" width="7.5" height="7.5"/>
	<rect x="161.27" y="217.471" fill="#808285" width="7.5" height="7.5"/>
	<rect x="153.77" y="217.471" fill="#12558B" width="7.5" height="7.5"/>
	<rect x="131.27" y="217.471" fill="#808285" width="7.5" height="7.5"/>
	<rect x="116.27" y="217.471" fill="#808285" width="7.5" height="7.5"/>
	<rect x="108.77" y="217.471" fill="#808285" width="7.5" height="7.5"/>
	<rect x="168.77" y="217.471" fill="#808285" width="7.5" height="7.5"/>
	<rect x="176.27" y="217.471" fill="#808285" width="7.5" height="7.5"/>
	<rect x="183.77" y="217.471" fill="#808285" width="7.5" height="7.5"/>
	<rect x="191.27" y="217.471" fill="#808285" width="7.5" height="7.5"/>
	<rect x="138.77" y="194.966" fill="#ECEEEE" width="7.5" height="7.5"/>
	<rect x="146.27" y="194.966" fill="#12558B" width="7.5" height="7.5"/>
	<rect x="161.27" y="194.966" fill="#12558B" width="7.5" height="7.5"/>
	<rect x="153.77" y="194.966" fill="#C3D2E0" width="7.5" height="7.5"/>
	<rect x="131.27" y="194.966" fill="#12558B" width="7.5" height="7.5"/>
	<rect x="116.27" y="194.966" fill="#F1F2F2" width="7.5" height="7.5"/>
	<rect x="108.77" y="194.966" fill="#808285" width="7.5" height="7.5"/>
	<rect x="168.77" y="194.966" fill="#F1F2F2" width="7.5" height="7.5"/>
	<rect x="176.27" y="194.966" fill="#808285" width="7.5" height="7.5"/>
	<rect x="183.77" y="194.966" fill="#808285" width="7.5" height="7.5"/>
	<rect x="191.27" y="194.966" fill="#808285" width="7.5" height="7.5"/>
	<rect x="138.77" y="209.966" fill="#12558B" width="7.5" height="7.505"/>
	<rect x="146.27" y="209.966" fill="#C3D2E0" width="7.5" height="7.505"/>
	<rect x="161.27" y="209.966" fill="#808285" width="7.5" height="7.505"/>
	<rect x="153.77" y="209.966" fill="#12558B" width="7.5" height="7.505"/>
	<rect x="131.27" y="209.966" fill="#808285" width="7.5" height="7.505"/>
	<rect x="116.27" y="209.966" fill="#F1F2F2" width="7.5" height="7.505"/>
	<rect x="108.77" y="209.966" fill="#808285" width="7.5" height="7.505"/>
	<rect x="101.27" y="202.466" fill="#808285" width="7.5" height="7.5"/>
	<rect x="101.27" y="217.471" fill="#808285" width="7.5" height="7.5"/>
	<rect x="101.27" y="209.966" fill="#808285" width="7.5" height="7.505"/>
	<rect x="168.77" y="209.966" fill="#323133" width="7.5" height="7.505"/>
	<rect x="176.27" y="209.966" fill="#323133" width="7.5" height="7.505"/>
	<rect x="123.73" y="187.466" fill="#808285" width="7.5" height="7.5"/>
	<rect x="123.73" y="202.466" fill="#808285" width="7.5" height="7.5"/>
	<rect x="123.73" y="217.471" fill="#808285" width="7.5" height="7.5"/>
	<rect x="123.73" y="194.966" fill="#808285" width="7.5" height="7.5"/>
	<rect x="123.73" y="209.966" fill="#808285" width="7.5" height="7.505"/>
	<rect x="183.77" y="209.966" fill="#323133" width="7.5" height="7.505"/>
	<rect x="191.27" y="209.966" fill="#808285" width="7.5" height="7.505"/>
</g>
</svg>
