<?xml version="1.0" encoding="utf-8"?>
<!-- Generator: Adobe Illustrator 15.0.2, SVG Export Plug-In . SVG Version: 6.00 Build 0)  -->
<!DOCTYPE svg PUBLIC "-//W3C//DTD SVG 1.1//EN" "http://www.w3.org/Graphics/SVG/1.1/DTD/svg11.dtd">
<svg version="1.1" id="Layer_1" xmlns="http://www.w3.org/2000/svg" xmlns:xlink="http://www.w3.org/1999/xlink" x="0px" y="0px"
	 width="19.5px" height="28.485px" viewBox="0 0 19.5 28.485" enable-background="new 0 0 19.5 28.485" xml:space="preserve">
<g>
	<rect x="3" y="3.007" fill="#95681C" width="1.5" height="1.5"/>
	<rect x="4.5" y="3.007" fill="#95681C" width="1.5" height="1.5"/>
	<rect x="6" y="3.007" fill="#95681C" width="1.5" height="1.5"/>
	<rect x="7.5" y="3.007" fill="#C48714" width="1.5" height="1.5"/>
	<rect x="9" y="3.007" fill="#95681C" width="1.5" height="1.5"/>
	<rect x="10.5" y="3.007" fill="#C48714" width="1.5" height="1.5"/>
	<rect x="3" y="4.507" fill="#EADAB2" width="1.5" height="1.5"/>
	<rect x="1.5" y="3.007" fill="#C48714" width="1.5" height="1.5"/>
	<rect x="4.5" y="4.507" fill="#E8CD8D" width="1.5" height="1.5"/>
	<rect x="6" y="4.507" fill="#E8CD8D" width="1.5" height="1.5"/>
	<rect x="7.5" y="4.507" fill="#E8CD8D" width="1.5" height="1.5"/>
	<rect x="9" y="4.507" fill="#E8CD8D" width="1.5" height="1.5"/>
	<rect x="10.5" y="4.507" fill="#C48714" width="1.5" height="1.5"/>
	<rect x="3" y="6.007" fill="#EADAB2" width="1.5" height="1.5"/>
	<rect x="4.5" y="6.007" fill="#E8CD8D" width="1.5" height="1.5"/>
	<rect x="3" y="7.501" fill="#95681C" width="1.5" height="1.5"/>
	<rect x="4.5" y="7.501" fill="#95681C" width="1.5" height="1.5"/>
	<rect x="3" y="10.491" fill="#E8CD8D" width="1.5" height="1.5"/>
	<rect x="4.5" y="10.491" fill="#3B2314" width="1.5" height="1.5"/>
	<rect x="3" y="11.994" fill="#E8CD8D" width="1.5" height="1.5"/>
	<rect x="4.5" y="11.994" fill="#E8CD8D" width="1.5" height="1.5"/>
	<rect x="3" y="13.491" fill="#95681C" width="1.5" height="1.5"/>
	<rect x="1.5" y="11.937" fill="#E8CD8D" width="1.5" height="1.5"/>
	<rect y="11.937" fill="#E8CD8D" width="1.5" height="1.5"/>
	<rect x="1.5" y="10.437" fill="#E8CD8D" width="1.5" height="1.5"/>
	<rect x="4.5" y="13.491" fill="#95681C" width="1.5" height="1.5"/>
	<rect x="7.5" y="13.491" fill="#C48714" width="1.5" height="1.5"/>
	<rect x="6" y="13.491" fill="#C48714" width="1.5" height="1.5"/>
	<rect x="9" y="13.491" fill="#C48714" width="1.5" height="1.5"/>
	<rect x="12" y="13.491" fill="#C48714" width="1.5" height="1.5"/>
	<rect x="10.5" y="13.491" fill="#E8CD8D" width="1.5" height="1.5"/>
	<rect x="7.5" y="14.988" fill="#FFFFFF" width="1.5" height="1.5"/>
	<rect x="6" y="14.988" fill="#FFFFFF" width="1.5" height="1.5"/>
	<rect x="9" y="14.988" fill="#FFFFFF" width="1.5" height="1.5"/>
	<rect x="10.5" y="14.988" fill="#BE1E2D" width="1.5" height="1.5"/>
	<rect x="7.5" y="16.485" fill="#BD202E" width="1.5" height="1.5"/>
	<rect x="6" y="16.485" fill="#BD202E" width="1.5" height="1.5"/>
	<rect x="9" y="16.485" fill="#BD202E" width="1.5" height="1.5"/>
	<rect x="10.5" y="16.485" fill="#C48714" width="1.5" height="1.5"/>
	<rect x="7.5" y="17.985" fill="#95681C" width="1.5" height="1.5"/>
	<rect x="6" y="17.985" fill="#95681C" width="1.5" height="1.5"/>
	<rect x="9" y="17.985" fill="#C48714" width="1.5" height="1.5"/>
	<rect x="7.5" y="19.485" fill="#E8CD8D" width="1.5" height="1.5"/>
	<rect x="9" y="19.485" fill="#E8CD8D" width="1.5" height="1.5"/>
	<rect x="7.5" y="20.985" fill="#F15A29" width="1.5" height="1.5"/>
	<rect x="9" y="20.985" fill="#F15A29" width="1.5" height="1.5"/>
	<rect x="10.5" y="19.485" fill="#E8CD8D" width="1.5" height="1.5"/>
	<rect x="10.5" y="17.985" fill="#E8CD8D" width="1.5" height="1.5"/>
	<rect x="12" y="17.985" fill="#E8CD8D" width="1.5" height="1.5"/>
	<rect x="12" y="19.485" fill="#F1F2F2" width="1.5" height="1.5"/>
	<rect x="13.5" y="19.485" fill="#8AA7BC" width="1.5" height="1.5"/>
	<rect x="15" y="19.485" fill="#E6E7E8" width="1.5" height="1.5"/>
	<rect x="12" y="20.985" fill="#8AA7BC" width="1.5" height="1.5"/>
	<rect x="10.5" y="20.985" fill="#F15A29" width="1.5" height="1.5"/>
	<rect x="6" y="20.985" fill="#8AA7BC" width="1.5" height="1.5"/>
	<rect x="6" y="19.485" fill="#F1F2F2" width="1.5" height="1.5"/>
	<rect x="4.5" y="19.485" fill="#8AA7BC" width="1.5" height="1.5"/>
	<rect x="3" y="19.485" fill="#F1F2F2" width="1.5" height="1.5"/>
	<rect x="4.5" y="20.985" fill="#F1F2F2" width="1.5" height="1.5"/>
	<rect x="13.5" y="20.985" fill="#B69C53" width="1.5" height="1.5"/>
	<rect x="15" y="20.985" fill="#854111" width="1.5" height="1.5"/>
	<rect x="16.5" y="20.985" fill="#854111" width="1.5" height="1.5"/>
	<rect x="18" y="20.985" fill="#854111" width="1.5" height="1.5"/>
	<rect x="7.5" y="23.985" fill="#8AA7BC" width="1.5" height="1.5"/>
	<rect x="9" y="23.985" fill="#F15A29" width="1.5" height="1.5"/>
	<rect x="12" y="23.985" fill="#8AA7BC" width="1.5" height="1.5"/>
	<rect x="10.5" y="23.985" fill="#8AA7BC" width="1.5" height="1.5"/>
	<rect x="6" y="23.985" fill="#8AA7BC" width="1.5" height="1.5"/>
	<rect x="4.5" y="23.985" fill="#854111" width="1.5" height="1.5"/>
	<rect x="3" y="23.985" fill="#B69C53" width="1.5" height="1.5"/>
	<rect x="13.5" y="23.985" fill="#B69C53" width="1.5" height="1.5"/>
	<rect x="15" y="23.985" fill="#B69C53" width="1.5" height="1.5"/>
	<rect x="16.5" y="23.985" fill="#B69C53" width="1.5" height="1.5"/>
	<rect x="18" y="23.985" fill="#B69C53" width="1.5" height="1.5"/>
	<rect x="7.5" y="26.985" fill="#B69C53" width="1.5" height="1.5"/>
	<rect x="9" y="26.985" fill="#B69C53" width="1.5" height="1.5"/>
	<rect x="12" y="26.985" fill="#B69C53" width="1.5" height="1.5"/>
	<rect x="10.5" y="26.985" fill="#B69C53" width="1.5" height="1.5"/>
	<rect x="6" y="26.985" fill="#B69C53" width="1.5" height="1.5"/>
	<rect x="4.5" y="26.985" fill="#726658" width="1.5" height="1.5"/>
	<rect x="3" y="26.985" fill="#B69C53" width="1.5" height="1.5"/>
	<rect x="13.5" y="26.985" fill="#B69C53" width="1.5" height="1.5"/>
	<rect x="15" y="26.985" fill="#726658" width="1.5" height="1.5"/>
	<rect x="16.5" y="26.985" fill="#B69C53" width="1.5" height="1.5"/>
	<rect x="18" y="26.985" fill="#B69C53" width="1.5" height="1.5"/>
	<rect x="7.5" y="22.485" fill="#F1F2F2" width="1.5" height="1.5"/>
	<rect x="9" y="22.485" fill="#F15A29" width="1.5" height="1.5"/>
	<rect x="12" y="22.485" fill="#F1F2F2" width="1.5" height="1.5"/>
	<rect x="10.5" y="22.485" fill="#F1F2F2" width="1.5" height="1.5"/>
	<rect x="6" y="22.485" fill="#F1F2F2" width="1.5" height="1.5"/>
	<rect x="4.5" y="22.485" fill="#854111" width="1.5" height="1.5"/>
	<rect x="3" y="22.485" fill="#854111" width="1.5" height="1.5"/>
	<rect x="13.5" y="22.485" fill="#B69C53" width="1.5" height="1.5"/>
	<rect x="15" y="22.485" fill="#B69C53" width="1.5" height="1.5"/>
	<rect x="16.5" y="22.485" fill="#854111" width="1.5" height="1.5"/>
	<rect x="18" y="22.485" fill="#B69C53" width="1.5" height="1.5"/>
	<rect x="7.5" y="25.485" fill="#F1F2F2" width="1.5" height="1.5"/>
	<rect x="9" y="25.485" fill="#F15A29" width="1.5" height="1.5"/>
	<rect x="12" y="25.485" fill="#B69C53" width="1.5" height="1.5"/>
	<rect x="10.5" y="25.485" fill="#F1F2F2" width="1.5" height="1.5"/>
	<rect x="6" y="25.485" fill="#B69C53" width="1.5" height="1.5"/>
	<rect x="4.5" y="25.485" fill="#B69C53" width="1.5" height="1.5"/>
	<rect x="3" y="25.485" fill="#B69C53" width="1.5" height="1.5"/>
	<rect x="13.5" y="25.485" fill="#B69C53" width="1.5" height="1.5"/>
	<rect x="15" y="25.485" fill="#726658" width="1.5" height="1.5"/>
	<rect x="16.5" y="25.485" fill="#B69C53" width="1.5" height="1.5"/>
	<rect x="18" y="25.485" fill="#B69C53" width="1.5" height="1.5"/>
	<rect x="13.5" y="13.491" fill="#E8CD8D" width="1.5" height="1.5"/>
	<rect x="12" y="11.994" fill="#C48714" width="1.5" height="1.5"/>
	<rect x="13.5" y="11.994" fill="#E8CD8D" width="1.5" height="1.5"/>
	<rect x="12" y="16.485" fill="#E8CD8D" width="1.5" height="1.5"/>
	<rect x="12" y="14.988" fill="#C48714" width="1.5" height="1.5"/>
	<rect x="13.5" y="14.988" fill="#E8CD8D" width="1.5" height="1.5"/>
	<rect x="12" y="10.491" fill="#95681C" width="1.5" height="1.5"/>
	<rect x="13.5" y="10.491" fill="#E8CD8D" width="1.5" height="1.5"/>
	<rect x="12" y="7.501" fill="#95681C" width="1.5" height="1.5"/>
	<rect x="13.5" y="7.501" fill="#C48714" width="1.5" height="1.5"/>
	<rect x="15" y="10.491" fill="#E8CD8D" width="1.5" height="1.5"/>
	<rect x="15" y="8.994" fill="#EADAB2" width="1.5" height="1.5"/>
	<rect x="6" y="6.007" fill="#E8CD8D" width="1.5" height="1.5"/>
	<rect x="7.5" y="6.007" fill="#E8CD8D" width="1.5" height="1.5"/>
	<rect x="9" y="6.007" fill="#E8CD8D" width="1.5" height="1.5"/>
	<rect x="10.5" y="6.007" fill="#95681C" width="1.5" height="1.5"/>
	<rect x="6" y="7.501" fill="#E8CD8D" width="1.5" height="1.5"/>
	<rect x="7.5" y="7.501" fill="#E8CD8D" width="1.5" height="1.5"/>
	<rect x="9" y="7.501" fill="#E8CD8D" width="1.5" height="1.5"/>
	<rect x="10.5" y="7.501" fill="#95681C" width="1.5" height="1.5"/>
	<rect x="3" y="8.994" fill="#E8CD8D" width="1.5" height="1.5"/>
	<rect x="4.5" y="8.994" fill="#E8CD8D" width="1.5" height="1.5"/>
	<rect x="12" y="8.994" fill="#95681C" width="1.5" height="1.5"/>
	<rect x="13.5" y="8.994" fill="#EADAB2" width="1.5" height="1.5"/>
	<rect x="6" y="8.994" fill="#E8CD8D" width="1.5" height="1.5"/>
	<rect x="7.5" y="8.994" fill="#E8CD8D" width="1.5" height="1.5"/>
	<rect x="9" y="8.994" fill="#E8CD8D" width="1.5" height="1.5"/>
	<rect x="10.5" y="8.994" fill="#E8CD8D" width="1.5" height="1.5"/>
	<rect x="6" y="10.491" fill="#FFFFFF" width="1.5" height="1.5"/>
	<rect x="7.5" y="10.491" fill="#E8CD8D" width="1.5" height="1.5"/>
	<rect x="9" y="10.491" fill="#EADAB2" width="1.5" height="1.5"/>
	<rect x="10.5" y="10.491" fill="#E7B685" width="1.5" height="1.5"/>
	<rect x="6" y="11.991" fill="#E8CD8D" width="1.5" height="1.5"/>
	<rect x="7.5" y="11.991" fill="#EADAB2" width="1.5" height="1.5"/>
	<rect x="9" y="11.991" fill="#E7B685" width="1.5" height="1.5"/>
	<rect x="10.5" y="11.991" fill="#E7B685" width="1.5" height="1.5"/>
	<rect x="12" y="3.007" fill="#95681C" width="1.5" height="1.5"/>
	<rect x="13.5" y="3.007" fill="#C48714" width="1.5" height="1.5"/>
	<rect x="15" y="3.007" fill="#FBB040" width="1.5" height="1.5"/>
	<rect x="13.5" y="1.5" fill="#C48714" width="1.5" height="1.5"/>
	<rect x="3" y="1.51" fill="#C48714" width="1.5" height="1.5"/>
	<rect x="4.5" y="1.51" fill="#C48714" width="1.5" height="1.5"/>
	<rect x="6" y="1.51" fill="#C48714" width="1.5" height="1.5"/>
	<rect x="6" y="0.01" fill="#FBB040" width="1.5" height="1.5"/>
	<rect x="7.5" y="1.51" fill="#C48714" width="1.5" height="1.5"/>
	<rect x="7.5" y="0.01" fill="#C48714" width="1.5" height="1.5"/>
	<rect x="9" y="1.51" fill="#C48714" width="1.5" height="1.5"/>
	<rect x="9" fill="#C48714" width="1.5" height="1.5"/>
	<rect x="10.5" y="1.51" fill="#95681C" width="1.5" height="1.5"/>
	<rect x="12" y="1.51" fill="#C48714" width="1.5" height="1.5"/>
	<rect x="12" y="0.01" fill="#FBB040" width="1.5" height="1.5"/>
	<rect x="12" y="4.507" fill="#95681C" width="1.5" height="1.5"/>
	<rect x="13.5" y="4.507" fill="#C48714" width="1.5" height="1.5"/>
	<rect x="12" y="6.007" fill="#C48714" width="1.5" height="1.5"/>
	<rect x="13.5" y="6.007" fill="#C48714" width="1.5" height="1.5"/>
	<rect x="15" y="7.501" fill="#95681C" width="1.5" height="1.5"/>
	<rect x="15" y="6.007" fill="#C48714" width="1.5" height="1.5"/>
</g>
</svg>
