<?xml version="1.0" encoding="utf-8"?>
<!-- Generator: Adobe Illustrator 16.0.0, SVG Export Plug-In . SVG Version: 6.00 Build 0)  -->
<!DOCTYPE svg PUBLIC "-//W3C//DTD SVG 1.1//EN" "http://www.w3.org/Graphics/SVG/1.1/DTD/svg11.dtd">
<svg version="1.1" id="Layer_1" xmlns="http://www.w3.org/2000/svg" xmlns:xlink="http://www.w3.org/1999/xlink" x="0px" y="0px"
	 width="300px" height="300px" viewBox="0 0 300 300" enable-background="new 0 0 300 300" xml:space="preserve">
<g>
	<rect x="108" y="137.984" fill="#838888" width="6" height="6"/>
	<rect x="120" y="96.031" fill="#212020" width="6" height="6"/>
	<rect x="126" y="96.031" fill="#9EA8A5" width="6" height="6"/>
	<rect x="132" y="96.031" fill="#9EA8A5" width="6" height="6"/>
	<rect x="138" y="96.031" fill="#646566" width="6" height="6"/>
	<rect x="114" y="108.02" fill="#212020" width="6" height="6"/>
	<rect x="120" y="108.02" fill="#9EA8A5" width="6" height="6"/>
	<rect x="126" y="108.02" fill="#212020" width="6" height="6"/>
	<rect x="132" y="108.02" fill="#646566" width="6" height="6"/>
	<rect x="138" y="108.02" fill="#646566" width="6" height="6"/>
	<rect x="144" y="108.02" fill="#212020" width="6" height="6"/>
	<rect x="114" y="114.02" fill="#646566" width="6" height="6"/>
	<rect x="108" y="114.02" fill="#212020" width="6" height="6"/>
	<rect x="108" y="120.02" fill="#212020" width="6" height="6"/>
	<rect x="120" y="114.02" fill="#9EA8A5" width="6" height="6"/>
	<rect x="126" y="114.02" fill="#646566" width="6" height="6"/>
	<rect x="132" y="114.02" fill="#212020" width="6" height="6"/>
	<rect x="138" y="114.02" fill="#414042" width="6" height="6"/>
	<rect x="144" y="114.02" fill="#212020" width="6" height="6"/>
	<rect x="114" y="120.02" fill="#646566" width="6" height="6"/>
	<rect x="120" y="120.02" fill="#414042" width="6" height="6"/>
	<rect x="114" y="131.992" fill="#212020" width="6" height="6"/>
	<rect x="120" y="131.992" fill="#212020" width="6" height="6"/>
	<rect x="114" y="137.984" fill="#838888" width="6" height="6"/>
	<rect x="120" y="137.984" fill="#838888" width="6" height="6"/>
	<rect x="114" y="143.992" fill="#212020" width="6" height="6"/>
	<rect x="120" y="143.992" fill="#212020" width="6" height="6"/>
	<rect x="114" y="149.984" fill="#9EA8A5" width="6" height="6"/>
	<rect x="108" y="143.984" fill="#212020" width="6" height="6"/>
	<rect x="102" y="143.984" fill="#838888" width="6" height="6"/>
	<rect x="108" y="149.984" fill="#414042" width="6" height="6"/>
	<rect x="120" y="149.984" fill="#838888" width="6" height="6"/>
	<rect x="120" y="155.969" fill="#9EA8A5" width="6" height="6"/>
	<rect x="114" y="155.969" fill="#414042" width="6" height="6"/>
	<rect x="132" y="149.984" fill="#212020" width="6" height="6"/>
	<rect x="126" y="149.984" fill="#414042" width="6" height="6"/>
	<rect x="138" y="149.984" fill="#212020" width="6" height="6"/>
	<rect x="150" y="149.984" fill="#212020" width="6.004" height="6"/>
	<rect x="144" y="149.984" fill="#414042" width="6" height="6"/>
	<rect x="132" y="155.969" fill="#414042" width="6" height="6"/>
	<rect x="126" y="155.969" fill="#212020" width="6" height="6"/>
	<rect x="138" y="155.969" fill="#414042" width="6" height="6"/>
	<rect x="144" y="155.969" fill="#212020" width="6" height="6"/>
	<rect x="132" y="161.961" fill="#212020" width="6" height="6"/>
	<rect x="126" y="161.961" fill="#212020" width="6" height="6"/>
	<rect x="120" y="161.961" fill="#212020" width="6" height="6"/>
	<rect x="138" y="161.961" fill="#414042" width="6" height="6"/>
	<rect x="144" y="161.961" fill="#414042" width="6" height="6"/>
	<rect x="132" y="167.961" fill="#212020" width="6" height="6"/>
	<rect x="126" y="167.961" fill="#212020" width="6" height="6"/>
	<rect x="126" y="173.961" fill="#212020" width="6" height="6"/>
	<rect x="138" y="167.961" fill="#212020" width="6" height="6"/>
	<rect x="132" y="173.961" fill="#212020" width="6" height="6"/>
	<rect x="138" y="173.961" fill="#414042" width="6" height="6"/>
	<rect x="144" y="173.961" fill="#212020" width="6" height="6"/>
	<rect x="144" y="167.961" fill="#212020" width="6" height="6"/>
	<rect x="150" y="167.961" fill="#212020" width="6.004" height="6"/>
	<rect x="156.004" y="149.984" fill="#212020" width="6" height="6"/>
	<rect x="150" y="143.992" fill="#212020" width="6.004" height="6"/>
	<rect x="150" y="149.992" fill="#838888" width="6.004" height="6"/>
	<rect x="156.004" y="143.992" fill="#212020" width="6" height="6"/>
	<rect x="150" y="161.961" fill="#212020" width="6.004" height="6"/>
	<rect x="156.004" y="161.961" fill="#212020" width="6" height="6"/>
	<rect x="150" y="155.969" fill="#646566" width="6.004" height="6"/>
	<rect x="156.004" y="155.969" fill="#838888" width="6" height="6"/>
	<rect x="150" y="137.984" fill="#212020" width="6.004" height="6"/>
	<rect x="156.004" y="137.984" fill="#414042" width="6" height="6"/>
	<rect x="150" y="131.992" fill="#212020" width="6.004" height="6"/>
	<rect x="156.004" y="131.992" fill="#212020" width="6" height="6"/>
	<rect x="162.004" y="137.984" fill="#414042" width="6" height="6"/>
	<rect x="162.004" y="131.992" fill="#414042" width="6" height="6"/>
	<rect x="126" y="120.02" fill="#646566" width="6" height="6"/>
	<rect x="132" y="120.02" fill="#646566" width="6" height="6"/>
	<rect x="138" y="120.02" fill="#212020" width="6" height="6"/>
	<rect x="132" y="126.02" fill="#9EA8A5" width="6" height="6.004"/>
	<rect x="138" y="126.02" fill="#646566" width="6" height="6.004"/>
	<rect x="120" y="126.02" fill="#212020" width="6" height="6.004"/>
	<rect x="114" y="126.02" fill="#212020" width="6" height="6.004"/>
	<rect x="126" y="126.02" fill="#212020" width="6" height="6.004"/>
	<rect x="144" y="120.02" fill="#212020" width="6" height="6"/>
	<rect x="126" y="131.992" fill="#212020" width="6" height="6"/>
	<rect x="132" y="131.992" fill="#414042" width="6" height="6"/>
	<rect x="138" y="131.992" fill="#838888" width="6" height="6"/>
	<rect x="144" y="131.992" fill="#212020" width="6" height="6"/>
	<rect x="144" y="126.02" fill="#212020" width="6" height="6.004"/>
	<rect x="126" y="137.984" fill="#838888" width="6" height="6"/>
	<rect x="132" y="137.984" fill="#414042" width="6" height="6"/>
	<rect x="138" y="137.984" fill="#212020" width="6" height="6"/>
	<rect x="144" y="137.984" fill="#212020" width="6" height="6"/>
	<rect x="126" y="143.984" fill="#414042" width="6" height="6"/>
	<rect x="132" y="143.984" fill="#212020" width="6" height="6"/>
	<rect x="138" y="143.984" fill="#212020" width="6" height="6"/>
	<rect x="144" y="143.984" fill="#838888" width="6" height="6"/>
	<rect x="150" y="108.02" fill="#646566" width="6.004" height="6"/>
	<rect x="156.004" y="108.02" fill="#212020" width="6" height="6"/>
	<rect x="114" y="102.031" fill="#212020" width="6" height="6"/>
	<rect x="120" y="102.031" fill="#646566" width="6" height="6"/>
	<rect x="126" y="102.031" fill="#9EA8A5" width="6" height="6"/>
	<rect x="132" y="102.031" fill="#646566" width="6" height="6"/>
	<rect x="138" y="102.031" fill="#646566" width="6" height="6"/>
	<rect x="144" y="102.031" fill="#212020" width="6" height="6"/>
	<rect x="150" y="102.031" fill="#646566" width="6.004" height="6"/>
	<rect x="144" y="96.031" fill="#212020" width="6" height="6"/>
	<rect x="150" y="96.031" fill="#9EA8A5" width="6.004" height="6"/>
	<rect x="156.004" y="96.031" fill="#212020" width="6" height="6"/>
	<rect x="132" y="90.031" fill="#212020" width="6" height="6"/>
	<rect x="126" y="90.031" fill="#212020" width="6" height="6"/>
	<rect x="138" y="90.031" fill="#212020" width="6" height="6"/>
	<rect x="144" y="90.031" fill="#212020" width="6" height="6"/>
	<rect x="150" y="90.031" fill="#212020" width="6.004" height="6"/>
	<rect x="156.004" y="102.031" fill="#646566" width="6" height="6"/>
	<rect x="150" y="114.02" fill="#646566" width="6.004" height="6"/>
	<rect x="156.004" y="114.02" fill="#646566" width="6" height="6"/>
	<rect x="150" y="120.02" fill="#646566" width="6.004" height="6"/>
	<rect x="156.004" y="120.02" fill="#414042" width="6" height="6"/>
	<rect x="162.004" y="108.02" fill="#212020" width="6" height="6"/>
	<rect x="162.004" y="108.02" fill="#212020" width="6" height="6"/>
	<rect x="162.004" y="102.031" fill="#212020" width="6" height="6"/>
	<rect x="162.004" y="114.02" fill="#212020" width="6" height="6"/>
	<rect x="162.004" y="120.02" fill="#414042" width="6" height="6"/>
	<rect x="168.004" y="120.02" fill="#212020" width="6" height="6"/>
	<rect x="168.004" y="114.02" fill="#212020" width="6" height="6"/>
	<rect x="150" y="126.02" fill="#212020" width="6.004" height="6.004"/>
	<rect x="156.004" y="126.02" fill="#414042" width="6" height="6.004"/>
	<rect x="162.004" y="126.02" fill="#414042" width="6" height="6.004"/>
	<rect x="168.004" y="126.02" fill="#212020" width="6" height="6.004"/>
	<rect x="168.004" y="131.992" fill="#212020" width="6" height="6"/>
	<rect x="168.004" y="137.992" fill="#414042" width="6" height="6"/>
	<rect x="174.004" y="137.992" fill="#212020" width="6" height="6"/>
	<rect x="168.004" y="143.992" fill="#414042" width="6" height="6"/>
	<rect x="162.004" y="143.992" fill="#414042" width="6" height="6"/>
	<rect x="162.004" y="149.992" fill="#414042" width="6" height="6"/>
	<rect x="162.004" y="155.992" fill="#646566" width="6" height="6"/>
	<rect x="168.004" y="149.992" fill="#414042" width="6" height="6"/>
	<rect x="174.004" y="155.992" fill="#646566" width="6" height="6"/>
	<rect x="180.004" y="155.992" fill="#646566" width="5.996" height="6"/>
	<rect x="174.004" y="149.992" fill="#414042" width="6" height="6"/>
	<rect x="180.004" y="149.992" fill="#414042" width="5.996" height="6"/>
	<rect x="186" y="155.992" fill="#212020" width="6" height="6"/>
	<rect x="186" y="149.992" fill="#212020" width="6" height="6"/>
	<rect x="192" y="155.992" fill="#212020" width="6" height="6"/>
	<rect x="174.004" y="144.008" fill="#414042" width="6" height="6"/>
	<rect x="180.004" y="144.008" fill="#212020" width="5.996" height="6"/>
	<rect x="168.004" y="155.992" fill="#646566" width="6" height="6"/>
	<rect x="162.004" y="161.961" fill="#212020" width="6" height="6"/>
	<rect x="168.004" y="161.961" fill="#212020" width="6" height="6"/>
	<rect x="174.004" y="161.961" fill="#414042" width="6" height="6"/>
	<rect x="132" y="179.969" fill="#212020" width="6" height="6"/>
	<rect x="138" y="179.969" fill="#212020" width="6" height="6"/>
	<rect x="156.004" y="173.965" fill="#212020" width="6" height="6.004"/>
	<rect x="156.004" y="167.969" fill="#212020" width="6" height="5.996"/>
	<rect x="162.004" y="173.965" fill="#212020" width="6" height="6.004"/>
	<rect x="162.004" y="167.969" fill="#212020" width="6" height="5.996"/>
	<rect x="168.004" y="167.969" fill="#212020" width="6" height="5.996"/>
	<rect x="150" y="179.969" fill="#212020" width="6.004" height="6"/>
	<rect x="150" y="173.965" fill="#414042" width="6.004" height="6.004"/>
	<rect x="144" y="179.969" fill="#414042" width="6" height="6"/>
	<rect x="126" y="179.969" fill="#414042" width="6" height="6"/>
	<rect x="120" y="179.969" fill="#212020" width="6" height="6"/>
	<rect x="120" y="173.965" fill="#212020" width="6" height="6.004"/>
	<rect x="114" y="173.965" fill="#212020" width="6" height="6.004"/>
	<rect x="156.004" y="179.969" fill="#414042" width="6" height="6"/>
	<rect x="162.004" y="179.969" fill="#212020" width="6" height="6"/>
	<rect x="168.004" y="179.969" fill="#212020" width="6" height="6"/>
	<rect x="132" y="191.969" fill="#212020" width="6" height="6"/>
	<rect x="138" y="191.969" fill="#212020" width="6" height="6"/>
	<rect x="150" y="191.969" fill="#212020" width="6.004" height="6"/>
	<rect x="144" y="191.969" fill="#212020" width="6" height="6"/>
	<rect x="126" y="191.969" fill="#212020" width="6" height="6"/>
	<rect x="126" y="197.969" fill="#212020" width="6" height="6"/>
	<rect x="120" y="191.969" fill="#414042" width="6" height="6"/>
	<rect x="114" y="191.969" fill="#212020" width="6" height="6"/>
	<rect x="156.004" y="191.969" fill="#212020" width="6" height="6"/>
	<rect x="162.004" y="191.969" fill="#414042" width="6" height="6"/>
	<rect x="168.004" y="191.969" fill="#212020" width="6" height="6"/>
	<rect x="174.004" y="191.969" fill="#212020" width="6" height="6"/>
	<rect x="132" y="203.969" fill="#212020" width="6" height="6"/>
	<rect x="138" y="203.969" fill="#212020" width="6" height="6"/>
	<rect x="150" y="203.969" fill="#212020" width="6.004" height="6"/>
	<rect x="144" y="203.969" fill="#212020" width="6" height="6"/>
	<rect x="126" y="203.969" fill="#212020" width="6" height="6"/>
	<rect x="120" y="203.969" fill="#414042" width="6" height="6"/>
	<rect x="114" y="203.969" fill="#212020" width="6" height="6"/>
	<rect x="156.004" y="203.969" fill="#212020" width="6" height="6"/>
	<rect x="162.004" y="203.969" fill="#414042" width="6" height="6"/>
	<rect x="168.004" y="203.969" fill="#212020" width="6" height="6"/>
	<rect x="174.004" y="203.969" fill="#212020" width="6" height="6"/>
	<rect x="132" y="185.969" fill="#9EA8A5" width="6" height="6"/>
	<rect x="138" y="185.969" fill="#9EA8A5" width="6" height="6"/>
	<rect x="150" y="185.969" fill="#3554A3" width="6.004" height="6"/>
	<rect x="144" y="185.969" fill="#212020" width="6" height="6"/>
	<rect x="126" y="185.969" fill="#212020" width="6" height="6"/>
	<rect x="120" y="185.969" fill="#414042" width="6" height="6"/>
	<rect x="114" y="185.969" fill="#212020" width="6" height="6"/>
	<rect x="156.004" y="185.969" fill="#212020" width="6" height="6"/>
	<rect x="162.004" y="185.969" fill="#414042" width="6" height="6"/>
	<rect x="168.004" y="185.969" fill="#212020" width="6" height="6"/>
	<rect x="174.004" y="185.969" fill="#212020" width="6" height="6"/>
	<rect x="132" y="197.969" fill="#9EA8A5" width="6" height="6"/>
	<rect x="138" y="197.969" fill="#9EA8A5" width="6" height="6"/>
	<rect x="150" y="197.969" fill="#C7283B" width="6.004" height="6"/>
	<rect x="144" y="197.969" fill="#212020" width="6" height="6"/>
	<rect x="126" y="197.969" fill="#212020" width="6" height="6"/>
	<rect x="120" y="197.969" fill="#414042" width="6" height="6"/>
	<rect x="114" y="197.969" fill="#414042" width="6" height="6"/>
	<rect x="108" y="191.969" fill="#212020" width="6" height="6"/>
	<rect x="108" y="203.969" fill="#212020" width="6" height="6"/>
	<rect x="108" y="197.969" fill="#212020" width="6" height="6"/>
	<rect x="156.004" y="197.969" fill="#212020" width="6" height="6"/>
	<rect x="162.004" y="197.969" fill="#414042" width="6" height="6"/>
	<rect x="168.004" y="197.969" fill="#414042" width="6" height="6"/>
	<rect x="174.004" y="197.969" fill="#212020" width="6" height="6"/>
</g>
</svg>
