<?xml version="1.0" encoding="utf-8"?>
<!-- Generator: Adobe Illustrator 16.0.0, SVG Export Plug-In . SVG Version: 6.00 Build 0)  -->
<!DOCTYPE svg PUBLIC "-//W3C//DTD SVG 1.1//EN" "http://www.w3.org/Graphics/SVG/1.1/DTD/svg11.dtd">
<svg version="1.1" id="Layer_1" xmlns="http://www.w3.org/2000/svg" xmlns:xlink="http://www.w3.org/1999/xlink" x="0px" y="0px"
	 width="300px" height="300px" viewBox="0 0 300 300" enable-background="new 0 0 300 300" xml:space="preserve">
<g>
	<rect x="123.75" y="75.081" fill="#A48B54" width="7.5" height="7.5"/>
	<rect x="131.25" y="75.081" fill="#84796C" width="7.5" height="7.5"/>
	<rect x="138.75" y="75.081" fill="#84796C" width="7.5" height="7.5"/>
	<rect x="146.25" y="75.081" fill="#A48B54" width="7.5" height="7.5"/>
	<rect x="116.25" y="90.066" fill="#6E5D55" width="7.5" height="7.5"/>
	<rect x="123.75" y="90.066" fill="#6E5D55" width="7.5" height="7.5"/>
	<rect x="131.25" y="90.066" fill="#6E5D55" width="7.5" height="7.5"/>
	<rect x="138.75" y="90.066" fill="#A48B54" width="7.5" height="7.5"/>
	<rect x="146.25" y="90.066" fill="#6E5D55" width="7.5" height="7.5"/>
	<rect x="153.75" y="90.066" fill="#6E5D55" width="7.5" height="7.5"/>
	<rect x="116.25" y="97.566" fill="#EDD69F" width="7.5" height="7.5"/>
	<rect x="108.75" y="97.566" fill="#84796C" width="7.5" height="7.5"/>
	<rect x="108.75" y="90.066" fill="#84796C" width="7.5" height="7.5"/>
	<rect x="123.75" y="97.566" fill="#EDD69F" width="7.5" height="7.5"/>
	<rect x="131.25" y="97.566" fill="#A2A4A6" width="7.5" height="7.5"/>
	<rect x="138.75" y="97.566" fill="#84796C" width="7.5" height="7.5"/>
	<rect x="146.25" y="97.566" fill="#84796C" width="7.5" height="7.5"/>
	<rect x="153.75" y="97.566" fill="#6E5D55" width="7.5" height="7.5"/>
	<rect x="116.25" y="105.066" fill="#EDD69F" width="7.5" height="7.5"/>
	<rect x="123.75" y="105.066" fill="#EEE1BF" width="7.5" height="7.5"/>
	<rect x="116.25" y="112.537" fill="#EDD69F" width="7.5" height="7.5"/>
	<rect x="123.75" y="112.537" fill="#A9958A" width="7.5" height="7.5"/>
	<rect x="116.25" y="127.488" fill="#EDD69F" width="7.5" height="7.5"/>
	<rect x="123.75" y="127.488" fill="#4C2F1C" width="7.5" height="7.5"/>
	<rect x="116.25" y="135.002" fill="#EDD69F" width="7.5" height="7.5"/>
	<rect x="123.75" y="135.002" fill="#EDD69F" width="7.5" height="7.5"/>
	<rect x="116.25" y="142.488" fill="#D5CBAD" width="7.5" height="7.5"/>
	<rect x="108.75" y="136.863" fill="#EDD69F" width="7.5" height="7.5"/>
	<rect x="101.25" y="136.863" fill="#EDD69F" width="7.5" height="7.5"/>
	<rect x="108.75" y="129.363" fill="#EEE1BF" width="7.5" height="7.5"/>
	<rect x="123.75" y="142.488" fill="#D5CBAD" width="7.5" height="7.5"/>
	<rect x="138.75" y="142.488" fill="#D5CBAD" width="7.5" height="7.5"/>
	<rect x="131.25" y="142.488" fill="#D5CBAD" width="7.5" height="7.5"/>
	<rect x="146.25" y="142.488" fill="#EDD69F" width="7.5" height="7.5"/>
	<rect x="161.25" y="142.488" fill="#EDD69F" width="7.5" height="7.5"/>
	<rect x="153.75" y="142.488" fill="#EEE1BF" width="7.5" height="7.5"/>
	<rect x="138.75" y="149.973" fill="#FFFFFF" width="7.5" height="7.5"/>
	<rect x="131.25" y="149.973" fill="#FFFFFF" width="7.5" height="7.5"/>
	<rect x="146.25" y="149.973" fill="#FFFFFF" width="7.5" height="7.5"/>
	<rect x="153.75" y="149.973" fill="#BB807B" width="7.5" height="7.5"/>
	<rect x="138.75" y="157.458" fill="#D28F8C" width="7.5" height="7.5"/>
	<rect x="131.25" y="157.458" fill="#D28F8C" width="7.5" height="7.5"/>
	<rect x="146.25" y="157.458" fill="#BB807B" width="7.5" height="7.5"/>
	<rect x="153.75" y="157.458" fill="#EDD69F" width="7.5" height="7.5"/>
	<rect x="138.75" y="164.958" fill="#D5CBAD" width="7.5" height="7.5"/>
	<rect x="131.25" y="164.958" fill="#D5CBAD" width="7.5" height="7.5"/>
	<rect x="146.25" y="164.958" fill="#EDD69F" width="7.5" height="7.5"/>
	<rect x="138.75" y="172.458" fill="#C2B99F" width="7.5" height="7.5"/>
	<rect x="146.25" y="172.458" fill="#D5CBAD" width="7.5" height="7.5"/>
	<rect x="138.75" y="187.419" fill="#EDD69F" width="7.5" height="7.5"/>
	<rect x="146.25" y="187.419" fill="#EDD69F" width="7.5" height="7.5"/>
	<rect x="153.75" y="172.458" fill="#EDD69F" width="7.5" height="7.5"/>
	<rect x="138.75" y="179.919" fill="#D5CBAD" width="7.5" height="7.5"/>
	<rect x="146.25" y="179.919" fill="#D5CBAD" width="7.5" height="7.5"/>
	<rect x="153.75" y="179.919" fill="#EDD69F" width="7.5" height="7.5"/>
	<rect x="153.75" y="164.958" fill="#EDD69F" width="7.5" height="7.5"/>
	<rect x="161.25" y="164.958" fill="#EDD69F" width="7.5" height="7.5"/>
	<rect x="161.25" y="179.919" fill="#B4A7B8" width="7.5" height="7.5"/>
	<rect x="168.75" y="179.919" fill="#908693" width="7.5" height="7.5"/>
	<rect x="176.25" y="172.458" fill="#908693" width="7.5" height="7.5"/>
	<rect x="168.75" y="172.458" fill="#B4A7B8" width="7.5" height="7.5"/>
	<rect x="161.25" y="187.419" fill="#B4A7B8" width="7.5" height="7.5"/>
	<rect x="153.75" y="187.419" fill="#EDD69F" width="7.5" height="7.5"/>
	<rect x="131.25" y="187.419" fill="#B4A7B8" width="7.5" height="7.5"/>
	<rect x="123.75" y="187.419" fill="#908693" width="7.5" height="7.5"/>
	<rect x="131.25" y="179.919" fill="#B4A7B8" width="7.5" height="7.5"/>
	<rect x="123.75" y="179.919" fill="#B4A7B8" width="7.5" height="7.5"/>
	<rect x="116.25" y="179.919" fill="#908693" width="7.5" height="7.5"/>
	<rect x="168.75" y="187.419" fill="#908693" width="7.5" height="7.5"/>
	<rect x="176.25" y="187.419" fill="#B4A7B8" width="7.5" height="7.5"/>
	<rect x="183.75" y="187.419" fill="#B4A7B8" width="7.5" height="7.5"/>
	<rect x="138.75" y="202.419" fill="#FFFFFF" width="7.5" height="7.5"/>
	<rect x="146.25" y="202.419" fill="#B4A7B8" width="7.5" height="7.5"/>
	<rect x="161.25" y="202.419" fill="#FFFFFF" width="7.5" height="7.5"/>
	<rect x="153.75" y="202.419" fill="#D8DADA" width="7.5" height="7.5"/>
	<rect x="131.25" y="202.419" fill="#2F292B" width="7.5" height="7.5"/>
	<rect x="123.75" y="202.419" fill="#908693" width="7.5" height="7.5"/>
	<rect x="116.25" y="202.419" fill="#B4A7B8" width="7.5" height="7.5"/>
	<rect x="168.75" y="202.419" fill="#908693" width="7.5" height="7.5"/>
	<rect x="176.25" y="202.419" fill="#B4A7B8" width="7.5" height="7.5"/>
	<rect x="183.75" y="202.419" fill="#B4A7B8" width="7.5" height="7.5"/>
	<rect x="191.25" y="202.419" fill="#B4A7B8" width="7.5" height="7.5"/>
	<rect x="138.75" y="217.419" fill="#908693" width="7.5" height="7.5"/>
	<rect x="146.25" y="217.419" fill="#FFFFFF" width="7.5" height="7.5"/>
	<rect x="161.25" y="217.419" fill="#B4A7B8" width="7.5" height="7.5"/>
	<rect x="153.75" y="217.419" fill="#908693" width="7.5" height="7.5"/>
	<rect x="131.25" y="217.419" fill="#B4A7B8" width="7.5" height="7.5"/>
	<rect x="123.75" y="217.419" fill="#B4A7B8" width="7.5" height="7.5"/>
	<rect x="116.25" y="217.419" fill="#908693" width="7.5" height="7.5"/>
	<rect x="168.75" y="217.419" fill="#B4A7B8" width="7.5" height="7.5"/>
	<rect x="176.25" y="217.419" fill="#908693" width="7.5" height="7.5"/>
	<rect x="183.75" y="217.419" fill="#B4A7B8" width="7.5" height="7.5"/>
	<rect x="191.25" y="217.419" fill="#B4A7B8" width="7.5" height="7.5"/>
	<rect x="138.75" y="194.919" fill="#A2A4A6" width="7.5" height="7.5"/>
	<rect x="146.25" y="194.919" fill="#FFFFFF" width="7.5" height="7.5"/>
	<rect x="161.25" y="194.919" fill="#F3F4F5" width="7.5" height="7.5"/>
	<rect x="153.75" y="194.919" fill="#6C6D70" width="7.5" height="7.5"/>
	<rect x="131.25" y="194.919" fill="#F3F4F5" width="7.5" height="7.5"/>
	<rect x="123.75" y="194.919" fill="#908693" width="7.5" height="7.5"/>
	<rect x="116.25" y="194.919" fill="#B4A7B8" width="7.5" height="7.5"/>
	<rect x="168.75" y="194.919" fill="#908693" width="7.5" height="7.5"/>
	<rect x="176.25" y="194.919" fill="#B4A7B8" width="7.5" height="7.5"/>
	<rect x="183.75" y="194.919" fill="#B4A7B8" width="7.5" height="7.5"/>
	<rect x="191.25" y="194.919" fill="#B4A7B8" width="7.5" height="7.5"/>
	<rect x="138.75" y="209.919" fill="#908693" width="7.5" height="7.5"/>
	<rect x="146.25" y="209.919" fill="#B4A7B8" width="7.5" height="7.5"/>
	<rect x="161.25" y="209.919" fill="#908693" width="7.5" height="7.5"/>
	<rect x="153.75" y="209.919" fill="#908693" width="7.5" height="7.5"/>
	<rect x="131.25" y="209.919" fill="#908693" width="7.5" height="7.5"/>
	<rect x="123.75" y="209.919" fill="#B4A7B8" width="7.5" height="7.5"/>
	<rect x="116.25" y="209.919" fill="#B4A7B8" width="7.5" height="7.5"/>
	<rect x="108.75" y="202.419" fill="#B4A7B8" width="7.5" height="7.5"/>
	<rect x="108.75" y="217.419" fill="#B4A7B8" width="7.5" height="7.5"/>
	<rect x="108.75" y="209.919" fill="#B4A7B8" width="7.5" height="7.5"/>
	<rect x="168.75" y="209.919" fill="#B4A7B8" width="7.5" height="7.5"/>
	<rect x="176.25" y="209.919" fill="#B4A7B8" width="7.5" height="7.5"/>
	<rect x="183.75" y="209.919" fill="#B4A7B8" width="7.5" height="7.5"/>
	<rect x="191.25" y="209.919" fill="#B4A7B8" width="7.5" height="7.5"/>
	<rect x="168.75" y="142.488" fill="#EDD69F" width="7.5" height="7.5"/>
	<rect x="161.25" y="135.002" fill="#EDD69F" width="7.5" height="7.5"/>
	<rect x="168.75" y="135.002" fill="#EDD69F" width="7.5" height="7.5"/>
	<rect x="161.25" y="157.458" fill="#EDD69F" width="7.5" height="7.5"/>
	<rect x="168.75" y="157.458" fill="#EDD69F" width="7.5" height="7.5"/>
	<rect x="161.25" y="149.973" fill="#EEE1BF" width="7.5" height="7.5"/>
	<rect x="168.75" y="149.973" fill="#EDD69F" width="7.5" height="7.5"/>
	<rect x="161.25" y="127.488" fill="#A2A4A6" width="7.5" height="7.5"/>
	<rect x="168.75" y="127.488" fill="#EDD69F" width="7.5" height="7.5"/>
	<rect x="161.25" y="112.537" fill="#A48B54" width="7.5" height="7.5"/>
	<rect x="168.75" y="112.537" fill="#A2A4A6" width="7.5" height="7.5"/>
	<rect x="176.25" y="127.488" fill="#EDD69F" width="7.5" height="7.5"/>
	<rect x="176.25" y="120.002" fill="#EDD69F" width="7.5" height="7.5"/>
	<rect x="131.25" y="105.066" fill="#EDD69F" width="7.5" height="7.5"/>
	<rect x="138.75" y="105.066" fill="#EDD69F" width="7.5" height="7.5"/>
	<rect x="146.25" y="105.066" fill="#A2A4A6" width="7.5" height="7.5"/>
	<rect x="153.75" y="105.066" fill="#84796C" width="7.5" height="7.5"/>
	<rect x="131.25" y="112.537" fill="#C2A966" width="7.5" height="7.5"/>
	<rect x="138.75" y="112.537" fill="#EDD69F" width="7.5" height="7.5"/>
	<rect x="146.25" y="112.537" fill="#EDD69F" width="7.5" height="7.5"/>
	<rect x="153.75" y="112.537" fill="#EDD69F" width="7.5" height="7.5"/>
	<rect x="116.25" y="120.002" fill="#EDD69F" width="7.5" height="7.5"/>
	<rect x="123.75" y="120.002" fill="#EDD69F" width="7.5" height="7.5"/>
	<rect x="161.25" y="120.002" fill="#84796C" width="7.5" height="7.5"/>
	<rect x="168.75" y="120.002" fill="#EEE1BF" width="7.5" height="7.5"/>
	<rect x="131.25" y="120.002" fill="#EDD69F" width="7.5" height="7.5"/>
	<rect x="138.75" y="120.002" fill="#EDD69F" width="7.5" height="7.5"/>
	<rect x="146.25" y="120.002" fill="#EDD69F" width="7.5" height="7.5"/>
	<rect x="153.75" y="120.002" fill="#919295" width="7.5" height="7.5"/>
	<rect x="131.25" y="127.488" fill="#FFFFFF" width="7.5" height="7.5"/>
	<rect x="138.75" y="127.488" fill="#EDD69F" width="7.5" height="7.5"/>
	<rect x="146.25" y="127.488" fill="#EDD69F" width="7.5" height="7.5"/>
	<rect x="153.75" y="127.488" fill="#84796C" width="7.5" height="7.5"/>
	<rect x="131.25" y="134.988" fill="#EDD69F" width="7.5" height="7.5"/>
	<rect x="138.75" y="134.988" fill="#EDD69F" width="7.5" height="7.5"/>
	<rect x="146.25" y="134.988" fill="#EDD69F" width="7.5" height="7.5"/>
	<rect x="153.75" y="134.988" fill="#EDD69F" width="7.5" height="7.5"/>
	<rect x="161.25" y="90.066" fill="#84796C" width="7.5" height="7.5"/>
	<rect x="168.75" y="90.066" fill="#84796C" width="7.5" height="7.5"/>
	<rect x="116.25" y="82.581" fill="#84796C" width="7.5" height="7.5"/>
	<rect x="123.75" y="82.581" fill="#6E5D55" width="7.5" height="7.5"/>
	<rect x="131.25" y="82.581" fill="#919295" width="7.5" height="7.5"/>
	<rect x="138.75" y="82.581" fill="#6E5D55" width="7.5" height="7.5"/>
	<rect x="146.25" y="82.581" fill="#84796C" width="7.5" height="7.5"/>
	<rect x="153.75" y="82.581" fill="#84796C" width="7.5" height="7.5"/>
	<rect x="161.25" y="82.581" fill="#A48B54" width="7.5" height="7.5"/>
	<rect x="153.75" y="75.081" fill="#84796C" width="7.5" height="7.5"/>
	<rect x="161.25" y="75.081" fill="#84796C" width="7.5" height="7.5"/>
	<rect x="168.75" y="82.581" fill="#84796C" width="7.5" height="7.5"/>
	<rect x="176.25" y="90.066" fill="#84796C" width="7.5" height="7.5"/>
	<rect x="176.25" y="82.581" fill="#84796C" width="7.5" height="7.5"/>
	<rect x="161.25" y="97.566" fill="#A48B54" width="7.5" height="7.5"/>
	<rect x="168.75" y="97.566" fill="#A48B54" width="7.5" height="7.5"/>
	<rect x="161.25" y="105.066" fill="#A2A4A6" width="7.5" height="7.5"/>
	<rect x="168.75" y="105.066" fill="#84796C" width="7.5" height="7.5"/>
	<rect x="176.25" y="112.537" fill="#EDD69F" width="7.5" height="7.5"/>
	<rect x="176.25" y="97.566" fill="#84796C" width="7.5" height="7.5"/>
	<rect x="183.75" y="90.066" fill="#84796C" width="7.5" height="7.5"/>
	<rect x="183.75" y="97.566" fill="#84796C" width="7.5" height="7.5"/>
	<rect x="176.25" y="105.066" fill="#A2A4A6" width="7.5" height="7.5"/>
	<rect x="183.75" y="127.522" fill="#84796C" width="7.5" height="7.5"/>
	<rect x="183.75" y="120.051" fill="#84796C" width="7.5" height="7.5"/>
	<rect x="183.75" y="112.561" fill="#84796C" width="7.5" height="7.5"/>
	<rect x="183.75" y="105.061" fill="#6E5D55" width="7.5" height="7.5"/>
	<rect x="176.25" y="142.473" fill="#808083" width="7.5" height="7.5"/>
	<rect x="176.25" y="149.983" fill="#6E5D55" width="7.5" height="7.5"/>
	<rect x="183.75" y="135.007" fill="#84796C" width="7.5" height="7.5"/>
	<rect x="176.25" y="135.002" fill="#84796C" width="7.5" height="7.5"/>
</g>
</svg>
