<?xml version="1.0" encoding="utf-8"?>
<!-- Generator: Adobe Illustrator 16.0.0, SVG Export Plug-In . SVG Version: 6.00 Build 0)  -->
<!DOCTYPE svg PUBLIC "-//W3C//DTD SVG 1.1//EN" "http://www.w3.org/Graphics/SVG/1.1/DTD/svg11.dtd">
<svg version="1.1" id="Layer_1" xmlns="http://www.w3.org/2000/svg" xmlns:xlink="http://www.w3.org/1999/xlink" x="0px" y="0px"
	 width="300px" height="300px" viewBox="0 0 300 300" enable-background="new 0 0 300 300" xml:space="preserve">
<g>
	<rect x="131.282" y="168.628" fill="#E5B29B" width="7.5" height="7.5"/>
	<rect x="138.782" y="168.628" fill="#D7BFAA" width="7.5" height="7.5"/>
	<rect x="146.282" y="168.628" fill="#EFD1B8" width="7.5" height="7.5"/>
	<rect x="153.777" y="168.628" fill="#EFD1B8" width="7.5" height="7.5"/>
	<rect x="123.772" y="78.906" fill="#464749" width="7.5" height="7.5"/>
	<rect x="131.272" y="78.906" fill="#231F20" width="7.5" height="7.5"/>
	<rect x="138.772" y="78.906" fill="#231F20" width="7.5" height="7.5"/>
	<rect x="116.272" y="93.887" fill="#F3D9D0" width="7.5" height="7.5"/>
	<rect x="123.772" y="93.887" fill="#EFD1B8" width="7.5" height="7.5"/>
	<rect x="131.272" y="93.887" fill="#EFD1B8" width="7.5" height="7.5"/>
	<rect x="138.772" y="93.887" fill="#464749" width="7.5" height="7.5"/>
	<rect x="146.272" y="93.887" fill="#231F20" width="7.5" height="7.5"/>
	<rect x="108.772" y="101.455" fill="#F3D9D0" width="7.5" height="7.5"/>
	<rect x="116.272" y="101.455" fill="#EFD1B8" width="7.5" height="7.5"/>
	<rect x="108.772" y="108.926" fill="#EFD1B8" width="7.5" height="7.5"/>
	<rect x="116.272" y="108.926" fill="#231F20" width="7.5" height="7.5"/>
	<rect x="108.772" y="123.867" fill="#EFCFC0" width="7.5" height="7.5"/>
	<rect x="116.272" y="123.877" fill="#6D808E" width="7.5" height="7.5"/>
	<rect x="108.772" y="131.396" fill="#EFD1B8" width="7.5" height="7.5"/>
	<rect x="116.272" y="131.377" fill="#EFCFC0" width="7.5" height="7.5"/>
	<rect x="108.772" y="138.877" fill="#E3C9B6" width="7.5" height="7.5"/>
	<rect x="101.272" y="131.377" fill="#EFD1B8" width="7.5" height="7.5"/>
	<rect x="116.272" y="138.877" fill="#E3C9B6" width="7.5" height="7.5"/>
	<rect x="131.272" y="138.877" fill="#EFCFC0" width="7.5" height="7.5"/>
	<rect x="123.772" y="138.877" fill="#BAA993" width="7.5" height="7.5"/>
	<rect x="138.772" y="138.877" fill="#EFCFC0" width="7.5" height="7.5"/>
	<rect x="161.272" y="138.877" fill="#EFD1B8" width="7.5" height="7.5"/>
	<rect x="146.272" y="138.877" fill="#EFD1B8" width="7.5" height="7.5"/>
	<rect x="131.272" y="146.367" fill="#AD6A6D" width="7.5" height="7.5"/>
	<rect x="123.772" y="146.367" fill="#FFFFFF" width="7.5" height="7.5"/>
	<rect x="116.272" y="146.367" fill="#FFFFFF" width="7.5" height="7.5"/>
	<rect x="138.772" y="146.367" fill="#EFD1B8" width="7.5" height="7.5"/>
	<rect x="146.272" y="146.367" fill="#E3C9B6" width="7.5" height="7.5"/>
	<rect x="131.272" y="153.848" fill="#EFD1B8" width="7.5" height="7.5"/>
	<rect x="123.772" y="153.848" fill="#D28F8C" width="7.5" height="7.5"/>
	<rect x="138.772" y="153.848" fill="#E3C9B6" width="7.5" height="7.5"/>
	<rect x="146.272" y="153.848" fill="#E5B29B" width="7.5" height="7.5"/>
	<rect x="131.272" y="161.348" fill="#EFD1B8" width="7.5" height="7.5"/>
	<rect x="123.772" y="161.348" fill="#EFCFC0" width="7.5" height="7.5"/>
	<rect x="116.272" y="153.848" fill="#E3A193" width="7.5" height="7.5"/>
	<rect x="116.272" y="161.348" fill="#EFCFC0" width="7.5" height="7.5"/>
	<rect x="123.777" y="168.628" fill="#BAA993" width="7.5" height="7.5"/>
	<rect x="116.272" y="168.628" fill="#BAA993" width="7.5" height="7.5"/>
	<rect x="138.772" y="161.348" fill="#E5B29B" width="7.5" height="7.5"/>
	<rect x="146.272" y="161.348" fill="#E3C9B6" width="7.5" height="7.5"/>
	<rect x="153.772" y="161.348" fill="#E3C9B6" width="7.5" height="7.5"/>
	<rect x="168.772" y="138.877" fill="#EFD1B8" width="7.5" height="7.5"/>
	<rect x="161.272" y="131.396" fill="#5A5B5E" width="7.5" height="7.5"/>
	<rect x="161.272" y="153.848" fill="#EFD1B8" width="7.5" height="7.5"/>
	<rect x="161.272" y="146.367" fill="#EFD1B8" width="7.5" height="7.5"/>
	<rect x="161.277" y="161.348" fill="#EFD1B8" width="7.5" height="7.5"/>
	<rect x="161.272" y="123.877" fill="#231F20" width="7.5" height="7.5"/>
	<rect x="168.772" y="131.357" fill="#EFD1B8" width="7.5" height="7.5"/>
	<rect x="176.277" y="131.357" fill="#EFD1B8" width="7.5" height="7.5"/>
	<rect x="161.272" y="108.926" fill="#323133" width="7.5" height="7.5"/>
	<rect x="168.772" y="116.406" fill="#F3D9D0" width="7.5" height="7.5"/>
	<rect x="123.772" y="101.455" fill="#EFD1B8" width="7.5" height="7.5"/>
	<rect x="131.272" y="101.455" fill="#E3C9B6" width="7.5" height="7.5"/>
	<rect x="138.772" y="101.455" fill="#EFD1B8" width="7.5" height="7.5"/>
	<rect x="146.272" y="101.455" fill="#464749" width="7.5" height="7.5"/>
	<rect x="123.772" y="108.926" fill="#414042" width="7.5" height="7.5"/>
	<rect x="131.272" y="108.926" fill="#EFD1B8" width="7.5" height="7.5"/>
	<rect x="138.772" y="108.926" fill="#EFD1B8" width="7.5" height="7.5"/>
	<rect x="146.272" y="108.926" fill="#323133" width="7.5" height="7.5"/>
	<rect x="108.772" y="116.377" fill="#EFD1B8" width="7.5" height="7.5"/>
	<rect x="116.272" y="116.377" fill="#EFD1B8" width="7.5" height="7.5"/>
	<rect x="161.272" y="116.377" fill="#5A5B5E" width="7.5" height="7.5"/>
	<rect x="168.772" y="123.867" fill="#E5B29B" width="7.5" height="7.5"/>
	<rect x="176.277" y="116.406" fill="#EFD1B8" width="7.5" height="7.5"/>
	<rect x="176.277" y="123.867" fill="#EFD1B8" width="7.5" height="7.5"/>
	<rect x="123.772" y="116.377" fill="#EFD1B8" width="7.5" height="7.5"/>
	<rect x="131.272" y="116.377" fill="#D7BFAA" width="7.5" height="7.5"/>
	<rect x="138.772" y="116.377" fill="#EFD1B8" width="7.5" height="7.5"/>
	<rect x="146.272" y="116.377" fill="#323133" width="7.5" height="7.5"/>
	<rect x="123.772" y="123.877" fill="#FFFFFF" width="7.5" height="7.5"/>
	<rect x="131.272" y="123.877" fill="#EFD1B8" width="7.5" height="7.5"/>
	<rect x="138.772" y="123.877" fill="#EFD1B8" width="7.5" height="7.5"/>
	<rect x="146.272" y="123.877" fill="#EFD1B8" width="7.5" height="7.5"/>
	<rect x="123.772" y="131.377" fill="#EFCFC0" width="7.5" height="7.5"/>
	<rect x="131.272" y="131.377" fill="#EFCFC0" width="7.5" height="7.5"/>
	<rect x="138.772" y="131.377" fill="#EFD1B8" width="7.5" height="7.5"/>
	<rect x="146.272" y="131.377" fill="#EFD1B8" width="7.5" height="7.5"/>
	<rect x="161.272" y="93.887" fill="#464749" width="7.5" height="7.5"/>
	<rect x="168.772" y="93.887" fill="#231F20" width="7.5" height="7.5"/>
	<rect x="116.272" y="86.406" fill="#231F20" width="7.5" height="7.5"/>
	<rect x="108.772" y="78.906" fill="#231F20" width="7.5" height="7.5"/>
	<rect x="108.772" y="94.004" fill="#F3D9D0" width="7.5" height="7.5"/>
	<rect x="108.772" y="86.455" fill="#464749" width="7.5" height="7.5"/>
	<rect x="101.223" y="86.455" fill="#231F20" width="7.5" height="7.5"/>
	<rect x="123.772" y="86.406" fill="#231F20" width="7.5" height="7.5"/>
	<rect x="131.272" y="86.406" fill="#464749" width="7.5" height="7.5"/>
	<rect x="138.772" y="86.406" fill="#231F20" width="7.5" height="7.5"/>
	<rect x="146.272" y="86.406" fill="#231F20" width="7.5" height="7.5"/>
	<rect x="161.272" y="86.406" fill="#231F20" width="7.5" height="7.5"/>
	<rect x="146.272" y="78.906" fill="#231F20" width="7.5" height="7.5"/>
	<rect x="161.272" y="101.455" fill="#231F20" width="7.5" height="7.5"/>
	<rect x="153.777" y="138.877" fill="#323133" width="7.5" height="7.5"/>
	<rect x="153.777" y="131.396" fill="#5A5B5E" width="7.5" height="7.5"/>
	<rect x="153.777" y="153.848" fill="#E3C9B6" width="7.5" height="7.5"/>
	<rect x="153.777" y="146.367" fill="#5A5B5E" width="7.5" height="7.5"/>
	<rect x="153.777" y="123.877" fill="#5A5B5E" width="7.5" height="7.5"/>
	<rect x="153.777" y="108.926" fill="#231F20" width="7.5" height="7.5"/>
	<rect x="153.777" y="116.377" fill="#323133" width="7.5" height="7.5"/>
	<rect x="153.777" y="93.887" fill="#464749" width="7.5" height="7.5"/>
	<rect x="153.777" y="86.406" fill="#231F20" width="7.5" height="7.5"/>
	<rect x="153.777" y="78.906" fill="#231F20" width="7.5" height="7.5"/>
	<rect x="153.777" y="101.455" fill="#231F20" width="7.5" height="7.5"/>
	<rect x="168.772" y="101.455" fill="#323133" width="7.5" height="7.5"/>
	<rect x="168.772" y="108.926" fill="#231F20" width="7.5" height="7.5"/>
	<rect x="123.777" y="176.128" fill="#D7BFAA" width="7.5" height="7.5"/>
	<rect x="131.277" y="176.133" fill="#D7BFAA" width="7.5" height="7.5"/>
	<rect x="138.777" y="176.133" fill="#EFD1B8" width="7.5" height="7.5"/>
	<rect x="123.777" y="183.594" fill="#FFFFFF" width="7.5" height="7.5"/>
	<rect x="131.277" y="183.594" fill="#EFD1B8" width="7.5" height="7.5"/>
	<rect x="138.777" y="183.594" fill="#EFD1B8" width="7.5" height="7.5"/>
	<rect x="146.272" y="176.133" fill="#EFD1B8" width="7.5" height="7.5"/>
	<rect x="146.272" y="183.594" fill="#EFD1B8" width="7.5" height="7.5"/>
	<rect x="138.777" y="198.594" fill="#231F20" width="7.5" height="7.5"/>
	<rect x="131.277" y="191.094" fill="#231F20" width="7.5" height="7.5"/>
	<rect x="146.277" y="191.094" fill="#231F20" width="7.5" height="7.5"/>
	<rect x="138.777" y="191.094" fill="#231F20" width="7.5" height="7.5"/>
	<rect x="153.772" y="183.589" fill="#231F20" width="7.5" height="7.5"/>
	<rect x="153.772" y="191.094" fill="#323133" width="7.5" height="7.5"/>
	<rect x="153.777" y="176.133" fill="#EFD1B8" width="7.5" height="7.5"/>
	<rect x="123.772" y="183.594" fill="#231F20" width="7.5" height="7.5"/>
	<rect x="116.272" y="183.594" fill="#5A5B5E" width="7.5" height="7.5"/>
	<rect x="116.272" y="176.128" fill="#323133" width="7.5" height="7.5"/>
	<rect x="108.928" y="176.128" fill="#5A5B5E" width="7.5" height="7.5"/>
	<rect x="123.772" y="191.094" fill="#323133" width="7.5" height="7.5"/>
	<rect x="116.272" y="191.094" fill="#231F20" width="7.5" height="7.5"/>
	<rect x="108.772" y="191.094" fill="#42607E" width="7.5" height="7.5"/>
	<rect x="123.772" y="198.594" fill="#5A5B5E" width="7.5" height="7.5"/>
	<rect x="116.272" y="198.594" fill="#323133" width="7.5" height="7.5"/>
	<rect x="108.772" y="198.594" fill="#5A5B5E" width="7.5" height="7.5"/>
	<rect x="123.772" y="206.094" fill="#42607E" width="7.5" height="7.5"/>
	<rect x="116.272" y="206.094" fill="#323133" width="7.5" height="7.5"/>
	<rect x="108.772" y="206.094" fill="#5A5B5E" width="7.5" height="7.5"/>
	<rect x="123.772" y="213.594" fill="#5A5B5E" width="7.5" height="7.5"/>
	<rect x="131.272" y="198.594" fill="#231F20" width="7.5" height="7.5"/>
	<rect x="131.272" y="206.094" fill="#231F20" width="7.5" height="7.5"/>
	<rect x="131.272" y="213.594" fill="#323133" width="7.5" height="7.5"/>
	<rect x="138.772" y="206.094" fill="#231F20" width="7.5" height="7.5"/>
	<rect x="138.772" y="213.594" fill="#231F20" width="7.5" height="7.5"/>
	<rect x="116.272" y="213.594" fill="#323133" width="7.5" height="7.5"/>
	<rect x="108.772" y="213.594" fill="#231F20" width="7.5" height="7.5"/>
	<rect x="101.272" y="198.594" fill="#323133" width="7.5" height="7.5"/>
	<rect x="101.272" y="206.094" fill="#323133" width="7.5" height="7.5"/>
	<rect x="101.272" y="213.594" fill="#323133" width="7.5" height="7.5"/>
	<rect x="161.277" y="176.128" fill="#5A5B5E" width="7.5" height="7.5"/>
	<rect x="168.777" y="176.094" fill="#323133" width="7.5" height="7.5"/>
	<rect x="161.277" y="168.594" fill="#5A5B5E" width="7.5" height="7.5"/>
	<rect x="168.777" y="168.594" fill="#323133" width="7.5" height="7.5"/>
	<rect x="176.277" y="168.594" fill="#5A5B5E" width="7.5" height="7.5"/>
	<rect x="161.277" y="183.594" fill="#323133" width="7.5" height="7.5"/>
	<rect x="168.777" y="183.594" fill="#231F20" width="7.5" height="7.5"/>
	<rect x="176.277" y="183.594" fill="#323133" width="7.5" height="7.5"/>
	<rect x="183.777" y="183.594" fill="#323133" width="7.5" height="7.5"/>
	<rect x="161.277" y="191.094" fill="#231F20" width="7.5" height="7.5"/>
	<rect x="168.777" y="191.094" fill="#323133" width="7.5" height="7.5"/>
	<rect x="176.277" y="191.094" fill="#323133" width="7.5" height="7.5"/>
	<rect x="183.777" y="191.094" fill="#42607E" width="7.5" height="7.5"/>
	<rect x="191.277" y="191.094" fill="#323133" width="7.5" height="7.5"/>
	<rect x="161.277" y="198.594" fill="#323133" width="7.5" height="7.5"/>
	<rect x="168.777" y="198.594" fill="#42607E" width="7.5" height="7.5"/>
	<rect x="176.277" y="198.594" fill="#323133" width="7.5" height="7.5"/>
	<rect x="183.777" y="198.594" fill="#5A5B5E" width="7.5" height="7.5"/>
	<rect x="191.277" y="198.594" fill="#323133" width="7.5" height="7.5"/>
	<rect x="161.277" y="206.094" fill="#323133" width="7.5" height="7.5"/>
	<rect x="168.777" y="206.094" fill="#5A5B5E" width="7.5" height="7.5"/>
	<rect x="176.277" y="206.094" fill="#323133" width="7.5" height="7.5"/>
	<rect x="183.777" y="206.094" fill="#42607E" width="7.5" height="7.5"/>
	<rect x="191.277" y="206.094" fill="#323133" width="7.5" height="7.5"/>
	<rect x="161.277" y="213.594" fill="#323133" width="7.5" height="7.5"/>
	<rect x="153.782" y="198.594" fill="#5A5B5E" width="7.5" height="7.5"/>
	<rect x="146.277" y="198.594" fill="#231F20" width="7.5" height="7.5"/>
	<rect x="153.782" y="206.094" fill="#42607E" width="7.5" height="7.5"/>
	<rect x="153.782" y="213.594" fill="#5A5B5E" width="7.5" height="7.5"/>
	<rect x="146.272" y="206.094" fill="#231F20" width="7.5" height="7.5"/>
	<rect x="146.272" y="213.594" fill="#323133" width="7.5" height="7.5"/>
	<rect x="168.777" y="213.594" fill="#231F20" width="7.5" height="7.5"/>
	<rect x="176.277" y="213.594" fill="#323133" width="7.5" height="7.5"/>
	<rect x="183.777" y="213.594" fill="#5A5B5E" width="7.5" height="7.5"/>
	<rect x="191.277" y="213.594" fill="#323133" width="7.5" height="7.5"/>
</g>
</svg>
