<?xml version="1.0" encoding="utf-8"?>
<!-- Generator: Adobe Illustrator 16.0.0, SVG Export Plug-In . SVG Version: 6.00 Build 0)  -->
<!DOCTYPE svg PUBLIC "-//W3C//DTD SVG 1.1//EN" "http://www.w3.org/Graphics/SVG/1.1/DTD/svg11.dtd">
<svg version="1.1" id="Layer_1" xmlns="http://www.w3.org/2000/svg" xmlns:xlink="http://www.w3.org/1999/xlink" x="0px" y="0px"
	 width="300px" height="300px" viewBox="0 0 300 300" enable-background="new 0 0 300 300" xml:space="preserve">
<g>
	<rect x="120.193" y="93.039" fill="#2F292B" width="6" height="6"/>
	<rect x="120.193" y="99.039" fill="#525255" width="6" height="6"/>
	<rect x="126.193" y="99.039" fill="#2F292B" width="6" height="6"/>
	<rect x="132.193" y="99.039" fill="#6C6D70" width="6" height="6"/>
	<rect x="138.193" y="99.039" fill="#2F292B" width="6" height="6"/>
	<rect x="144.193" y="99.039" fill="#2F292B" width="6" height="6"/>
	<rect x="150.193" y="99.039" fill="#2F292B" width="6" height="6"/>
	<rect x="120.193" y="111.027" fill="#2F292B" width="6" height="6"/>
	<rect x="126.193" y="111.027" fill="#525255" width="6" height="6"/>
	<rect x="132.193" y="111.027" fill="#2F292B" width="6" height="6"/>
	<rect x="138.193" y="111.027" fill="#EEE1BF" width="6" height="6"/>
	<rect x="144.193" y="111.027" fill="#EDD69F" width="6" height="6"/>
	<rect x="150.193" y="111.027" fill="#EDD69F" width="6" height="6"/>
	<rect x="120.193" y="117.027" fill="#EEE1BF" width="6" height="6"/>
	<rect x="126.193" y="117.027" fill="#EDD69F" width="6" height="6"/>
	<rect x="132.193" y="117.027" fill="#EDD69F" width="6" height="6"/>
	<rect x="138.193" y="117.027" fill="#EDD69F" width="6" height="6"/>
	<rect x="144.193" y="117.027" fill="#EDD69F" width="6" height="6"/>
	<rect x="150.193" y="117.027" fill="#EDD69F" width="6" height="6"/>
	<rect x="120.193" y="123.027" fill="#2F292B" width="6" height="6"/>
	<rect x="126.193" y="123.027" fill="#2F292B" width="6" height="6"/>
	<rect x="120.193" y="129.004" fill="#A2A4A6" width="6" height="6"/>
	<rect x="126.193" y="129.004" fill="#734A1D" width="6" height="6"/>
	<rect x="120.193" y="134.992" fill="#D8DADA" width="6" height="6"/>
	<rect x="126.193" y="134.992" fill="#A2A4A6" width="6" height="6"/>
	<rect x="120.193" y="141.004" fill="#EDD69F" width="6" height="6"/>
	<rect x="126.193" y="141.004" fill="#EDD69F" width="6" height="6"/>
	<rect x="120.193" y="146.992" fill="#CBC0A9" width="6" height="6"/>
	<rect x="126.193" y="146.992" fill="#CBC0A9" width="6" height="6"/>
	<rect x="138.193" y="146.992" fill="#CBC0A9" width="6" height="6"/>
	<rect x="132.193" y="146.992" fill="#CBC0A9" width="6" height="6"/>
	<rect x="144.193" y="146.992" fill="#CBC0A9" width="6" height="6"/>
	<rect x="156.193" y="146.992" fill="#CBC0A9" width="6" height="6"/>
	<rect x="150.193" y="146.992" fill="#CBC0A9" width="6" height="6"/>
	<rect x="138.193" y="152.98" fill="#FFFFFF" width="6" height="6"/>
	<rect x="132.193" y="152.98" fill="#FFFFFF" width="6" height="6"/>
	<rect x="144.193" y="152.98" fill="#FFFFFF" width="6" height="6"/>
	<rect x="150.193" y="152.98" fill="#C7293B" width="6" height="6"/>
	<rect x="138.193" y="158.969" fill="#C7293B" width="6" height="6"/>
	<rect x="132.193" y="158.969" fill="#C7293B" width="6" height="6"/>
	<rect x="144.193" y="158.969" fill="#C7293B" width="6" height="6"/>
	<rect x="150.193" y="158.969" fill="#CBC0A9" width="6" height="6"/>
	<rect x="138.193" y="164.969" fill="#CBC0A9" width="6" height="6"/>
	<rect x="132.193" y="164.969" fill="#CBC0A9" width="6" height="6"/>
	<rect x="144.193" y="164.969" fill="#CBC0A9" width="6" height="6"/>
	<rect x="150.193" y="164.969" fill="#EDD69F" width="6" height="6"/>
	<rect x="156.193" y="164.969" fill="#EDD69F" width="6" height="6"/>
	<rect x="162.193" y="164.969" fill="#EEE1BF" width="6" height="6"/>
	<rect x="162.193" y="146.992" fill="#EDD69F" width="6" height="6"/>
	<rect x="156.193" y="141.004" fill="#6C6D70" width="6" height="6"/>
	<rect x="162.193" y="141.004" fill="#EDD69F" width="6" height="6"/>
	<rect x="156.193" y="158.969" fill="#EDD69F" width="6" height="6"/>
	<rect x="162.193" y="158.969" fill="#EDD69F" width="6" height="6"/>
	<rect x="156.193" y="152.98" fill="#CBC0A9" width="6" height="6"/>
	<rect x="162.193" y="152.98" fill="#EDD69F" width="6" height="6"/>
	<rect x="156.193" y="134.992" fill="#2F292B" width="6" height="6"/>
	<rect x="162.193" y="134.992" fill="#EDD69F" width="6" height="6"/>
	<rect x="156.193" y="129.004" fill="#EDD69F" width="6" height="6"/>
	<rect x="162.193" y="129.004" fill="#EEE1BF" width="6" height="6"/>
	<rect x="168.193" y="134.992" fill="#EDD69F" width="6" height="6"/>
	<rect x="168.193" y="129.004" fill="#EDD69F" width="6" height="6"/>
	<rect x="132.193" y="123.027" fill="#2F292B" width="6" height="6"/>
	<rect x="138.193" y="123.027" fill="#2F292B" width="6" height="6"/>
	<rect x="144.193" y="123.027" fill="#2F292B" width="6" height="6"/>
	<rect x="150.193" y="123.027" fill="#2F292B" width="6" height="6"/>
	<rect x="132.193" y="129.004" fill="#FFFFFF" width="6" height="6"/>
	<rect x="138.193" y="129.004" fill="#D8DADA" width="6" height="6"/>
	<rect x="144.193" y="129.004" fill="#EDD69F" width="6" height="6"/>
	<rect x="150.193" y="129.004" fill="#6C6D70" width="6" height="6"/>
	<rect x="132.193" y="134.992" fill="#A2A4A6" width="6" height="6"/>
	<rect x="138.193" y="134.992" fill="#EDD69F" width="6" height="6"/>
	<rect x="144.193" y="134.992" fill="#EDD69F" width="6" height="6"/>
	<rect x="150.193" y="134.992" fill="#2F292B" width="6" height="6"/>
	<rect x="132.193" y="140.992" fill="#EDD69F" width="6" height="6"/>
	<rect x="138.193" y="140.992" fill="#EDD69F" width="6" height="6"/>
	<rect x="144.193" y="140.992" fill="#EDD69F" width="6" height="6"/>
	<rect x="150.193" y="140.992" fill="#EDD69F" width="6" height="6"/>
	<rect x="156.193" y="111.027" fill="#2F292B" width="6" height="6"/>
	<rect x="162.193" y="111.027" fill="#2F292B" width="6" height="6"/>
	<rect x="120.193" y="105.039" fill="#2F292B" width="6" height="6"/>
	<rect x="114.193" y="99.039" fill="#2F292B" width="6" height="6"/>
	<rect x="114.193" y="111.027" fill="#2F292B" width="6" height="6"/>
	<rect x="114.193" y="105.039" fill="#525255" width="6" height="6"/>
	<rect x="126.193" y="105.039" fill="#2F292B" width="6" height="6"/>
	<rect x="132.193" y="105.039" fill="#2F292B" width="6" height="6"/>
	<rect x="138.193" y="105.039" fill="#525255" width="6" height="6"/>
	<rect x="144.193" y="105.039" fill="#2F292B" width="6" height="6"/>
	<rect x="150.193" y="105.039" fill="#EDD69F" width="6" height="6"/>
	<rect x="156.193" y="105.039" fill="#2F292B" width="6" height="6"/>
	<rect x="156.193" y="99.039" fill="#2F292B" width="6" height="6"/>
	<rect x="162.193" y="105.039" fill="#2F292B" width="6" height="6"/>
	<rect x="162.193" y="99.039" fill="#2F292B" width="6" height="6"/>
	<rect x="132.193" y="93.039" fill="#2F292B" width="6" height="6"/>
	<rect x="138.193" y="93.039" fill="#2F292B" width="6" height="6"/>
	<rect x="144.193" y="93.039" fill="#2F292B" width="6" height="6"/>
	<rect x="150.193" y="93.039" fill="#2F292B" width="6" height="6"/>
	<rect x="156.193" y="93.039" fill="#6C6D70" width="6" height="6"/>
	<rect x="156.193" y="117.027" fill="#2F292B" width="6" height="6"/>
	<rect x="150.193" y="117.027" fill="#6C6D70" width="6" height="6"/>
	<rect x="156.193" y="129.004" fill="#2F292B" width="6" height="6"/>
	<rect x="162.193" y="117.027" fill="#2F292B" width="6" height="6"/>
	<rect x="156.193" y="123.027" fill="#2F292B" width="6" height="6"/>
	<rect x="162.193" y="123.027" fill="#2F292B" width="6" height="6"/>
	<rect x="168.193" y="111.027" fill="#6C6D70" width="6" height="6"/>
	<rect x="168.193" y="117.027" fill="#2F292B" width="6" height="6"/>
	<rect x="168.193" y="123.027" fill="#2F292B" width="6" height="6"/>
	<rect x="114.193" y="134.973" fill="#EDD69F" width="6" height="6"/>
	<rect x="108.193" y="134.973" fill="#EDD69F" width="6" height="6"/>
	<rect x="114.193" y="128.973" fill="#EDD69F" width="6" height="6"/>
	<rect x="143.807" y="170.949" fill="#EDD69F" width="6" height="6"/>
	<rect x="149.807" y="170.949" fill="#CBC0A9" width="6" height="6"/>
	<rect x="155.807" y="170.949" fill="#EDD69F" width="6" height="6"/>
	<rect x="143.807" y="176.961" fill="#EDD69F" width="6" height="6"/>
	<rect x="149.807" y="176.961" fill="#EDD69F" width="6" height="6"/>
	<rect x="167.807" y="170.961" fill="#7F95A5" width="6" height="6"/>
	<rect x="167.807" y="164.961" fill="#7F95A5" width="6" height="6"/>
	<rect x="173.807" y="170.961" fill="#9CB6C8" width="6" height="6"/>
	<rect x="173.807" y="164.961" fill="#7F95A5" width="6" height="6"/>
	<rect x="179.807" y="164.961" fill="#9CB6C8" width="6" height="6"/>
	<rect x="161.807" y="176.961" fill="#7F95A5" width="6" height="6"/>
	<rect x="161.807" y="170.961" fill="#EDD69F" width="6" height="6"/>
	<rect x="155.807" y="176.961" fill="#EDD69F" width="6" height="6"/>
	<rect x="137.807" y="176.961" fill="#7F95A5" width="6" height="6"/>
	<rect x="131.807" y="176.961" fill="#9CB6C8" width="6" height="6"/>
	<rect x="131.807" y="170.961" fill="#7F95A5" width="6" height="6"/>
	<rect x="137.807" y="170.961" fill="#7F95A5" width="6" height="6"/>
	<rect x="125.807" y="170.961" fill="#9CB6C8" width="6" height="6"/>
	<rect x="167.807" y="176.961" fill="#9CB6C8" width="6" height="6"/>
	<rect x="173.807" y="176.961" fill="#9CB6C8" width="6" height="6"/>
	<rect x="179.807" y="176.961" fill="#9CB6C8" width="6" height="6"/>
	<rect x="143.807" y="188.961" fill="#9CB6C8" width="6" height="6"/>
	<rect x="149.807" y="188.961" fill="#7F95A5" width="6" height="6"/>
	<rect x="161.807" y="188.961" fill="#9CB6C8" width="6" height="6"/>
	<rect x="155.807" y="188.961" fill="#9CB6C8" width="6" height="6"/>
	<rect x="137.807" y="188.961" fill="#9CB6C8" width="6" height="6"/>
	<rect x="137.807" y="194.961" fill="#9CB6C8" width="6" height="6"/>
	<rect x="131.807" y="188.961" fill="#9CB6C8" width="6" height="6"/>
	<rect x="125.807" y="188.961" fill="#9CB6C8" width="6" height="6"/>
	<rect x="167.807" y="188.961" fill="#9CB6C8" width="6" height="6"/>
	<rect x="173.807" y="188.961" fill="#9CB6C8" width="6" height="6"/>
	<rect x="179.807" y="188.961" fill="#9CB6C8" width="6" height="6"/>
	<rect x="185.807" y="188.961" fill="#9CB6C8" width="6" height="6"/>
	<rect x="143.807" y="200.961" fill="#9CB6C8" width="6" height="6"/>
	<rect x="149.807" y="200.961" fill="#7F95A5" width="6" height="6"/>
	<rect x="161.807" y="200.961" fill="#9CB6C8" width="6" height="6"/>
	<rect x="155.807" y="200.961" fill="#9CB6C8" width="6" height="6"/>
	<rect x="137.807" y="200.961" fill="#9CB6C8" width="6" height="6"/>
	<rect x="131.807" y="200.961" fill="#7F95A5" width="6" height="6"/>
	<rect x="125.807" y="200.961" fill="#9CB6C8" width="6" height="6"/>
	<rect x="167.807" y="200.961" fill="#7F95A5" width="6" height="6"/>
	<rect x="173.807" y="200.961" fill="#9CB6C8" width="6" height="6"/>
	<rect x="179.807" y="200.961" fill="#9CB6C8" width="6" height="6"/>
	<rect x="185.807" y="200.961" fill="#7F95A5" width="6" height="6"/>
	<rect x="143.807" y="182.961" fill="#7F95A5" width="6" height="6"/>
	<rect x="149.807" y="182.961" fill="#EDD69F" width="6" height="6"/>
	<rect x="161.807" y="182.961" fill="#9CB6C8" width="6" height="6"/>
	<rect x="155.807" y="182.961" fill="#7F95A5" width="6" height="6"/>
	<rect x="137.807" y="182.961" fill="#9CB6C8" width="6" height="6"/>
	<rect x="131.807" y="182.961" fill="#9CB6C8" width="6" height="6"/>
	<rect x="125.807" y="182.961" fill="#9CB6C8" width="6" height="6"/>
	<rect x="167.807" y="182.961" fill="#9CB6C8" width="6" height="6"/>
	<rect x="173.807" y="182.961" fill="#9CB6C8" width="6" height="6"/>
	<rect x="179.807" y="182.961" fill="#9CB6C8" width="6" height="6"/>
	<rect x="185.807" y="182.961" fill="#9CB6C8" width="6" height="6"/>
	<rect x="143.807" y="194.961" fill="#9CB6C8" width="6" height="6"/>
	<rect x="149.807" y="194.961" fill="#7F95A5" width="6" height="6"/>
	<rect x="161.807" y="194.961" fill="#9CB6C8" width="6" height="6"/>
	<rect x="155.807" y="194.961" fill="#9CB6C8" width="6" height="6"/>
	<rect x="137.807" y="194.961" fill="#9CB6C8" width="6" height="6"/>
	<rect x="131.807" y="194.961" fill="#7F95A5" width="6" height="6"/>
	<rect x="125.807" y="194.961" fill="#9CB6C8" width="6" height="6"/>
	<rect x="119.807" y="188.961" fill="#9CB6C8" width="6" height="6"/>
	<rect x="119.807" y="200.961" fill="#7F95A5" width="6" height="6"/>
	<rect x="119.807" y="194.961" fill="#7F95A5" width="6" height="6"/>
	<rect x="167.807" y="194.961" fill="#7F95A5" width="6" height="6"/>
	<rect x="173.807" y="194.961" fill="#9CB6C8" width="6" height="6"/>
	<rect x="179.807" y="194.961" fill="#9CB6C8" width="6" height="6"/>
	<rect x="185.807" y="194.961" fill="#7F95A5" width="6" height="6"/>
</g>
</svg>
