<?xml version="1.0" encoding="utf-8"?>
<!-- Generator: Adobe Illustrator 16.0.0, SVG Export Plug-In . SVG Version: 6.00 Build 0)  -->
<!DOCTYPE svg PUBLIC "-//W3C//DTD SVG 1.1//EN" "http://www.w3.org/Graphics/SVG/1.1/DTD/svg11.dtd">
<svg version="1.1" id="Layer_1" xmlns="http://www.w3.org/2000/svg" xmlns:xlink="http://www.w3.org/1999/xlink" x="0px" y="0px"
	 width="300px" height="300px" viewBox="0 0 300 300" enable-background="new 0 0 300 300" xml:space="preserve">
<g>
	<rect x="132" y="179.957" fill="#FFFFFF" width="6" height="6"/>
	<rect x="162" y="179.957" fill="#FFFFFF" width="6" height="6"/>
	<rect x="156" y="179.945" fill="#E7C5A2" width="6" height="6"/>
	<rect x="138" y="191.957" fill="#ECEEEE" width="6" height="6"/>
	<rect x="144" y="191.957" fill="#FFFFFF" width="6" height="6"/>
	<rect x="156" y="191.957" fill="#C6C8C9" width="6" height="6"/>
	<rect x="150" y="191.957" fill="#FFFFFF" width="6" height="6"/>
	<rect x="132" y="191.957" fill="#C6C8C9" width="6" height="6"/>
	<rect x="126" y="191.957" fill="#ECEEEE" width="6" height="6"/>
	<rect x="162" y="191.957" fill="#ECEEEE" width="6" height="6"/>
	<rect x="168" y="191.957" fill="#ECEEEE" width="6" height="6"/>
	<rect x="174" y="191.957" fill="#ECEEEE" width="6" height="6"/>
	<rect x="180" y="191.957" fill="#ECEEEE" width="6" height="6"/>
	<rect x="138" y="203.957" fill="#ECEEEE" width="6" height="6"/>
	<rect x="144" y="203.957" fill="#C6C8C9" width="6" height="6"/>
	<rect x="156" y="203.957" fill="#ECEEEE" width="6" height="6"/>
	<rect x="150" y="203.957" fill="#ECEEEE" width="6" height="6"/>
	<rect x="132" y="203.957" fill="#ECEEEE" width="6" height="6"/>
	<rect x="126" y="203.957" fill="#E7C5A2" width="6" height="6"/>
	<rect x="162" y="203.957" fill="#ECEEEE" width="6" height="6"/>
	<rect x="168" y="203.957" fill="#C6C8C9" width="6" height="6"/>
	<rect x="174" y="203.957" fill="#E7C5A2" width="6" height="6"/>
	<rect x="180" y="203.957" fill="#E7C5A2" width="6" height="6"/>
	<rect x="138" y="185.957" fill="#FFFFFF" width="6" height="6"/>
	<rect x="144" y="185.957" fill="#E7C5A2" width="6" height="6"/>
	<rect x="156" y="185.957" fill="#FFFFFF" width="6" height="6"/>
	<rect x="150" y="185.957" fill="#E7C5A2" width="6" height="6"/>
	<rect x="132" y="185.957" fill="#C6C8C9" width="6" height="6"/>
	<rect x="126" y="185.957" fill="#ECEEEE" width="6" height="6"/>
	<rect x="162" y="185.957" fill="#C6C8C9" width="6" height="6"/>
	<rect x="168" y="185.949" fill="#ECEEEE" width="6" height="6"/>
	<rect x="174" y="185.957" fill="#ECEEEE" width="6" height="6"/>
	<rect x="138" y="197.957" fill="#C6C8C9" width="6" height="6"/>
	<rect x="144" y="197.957" fill="#ECEEEE" width="6" height="6"/>
	<rect x="156" y="197.957" fill="#ECEEEE" width="6" height="6"/>
	<rect x="150" y="197.957" fill="#C6C8C9" width="6" height="6"/>
	<rect x="132" y="197.957" fill="#ECEEEE" width="6" height="6"/>
	<rect x="126" y="197.957" fill="#ECEEEE" width="6" height="6"/>
	<rect x="120" y="191.957" fill="#ECEEEE" width="6" height="6"/>
	<rect x="120" y="203.957" fill="#E7C5A2" width="6" height="6"/>
	<rect x="120" y="197.957" fill="#ECEEEE" width="6" height="6"/>
	<rect x="162" y="197.957" fill="#ECEEEE" width="6" height="6"/>
	<rect x="168" y="197.957" fill="#ECEEEE" width="6" height="6"/>
	<rect x="174" y="197.957" fill="#ECEEEE" width="6" height="6"/>
	<rect x="180" y="197.957" fill="#ECEEEE" width="6" height="6"/>
	<rect x="126" y="96.043" fill="#231F20" width="6" height="6"/>
	<rect x="132" y="96.043" fill="#323133" width="6" height="6"/>
	<rect x="126" y="90.043" fill="#323133" width="6" height="6"/>
	<rect x="132" y="90.043" fill="#231F20" width="6" height="6"/>
	<rect x="138" y="90.043" fill="#323133" width="6" height="6"/>
	<rect x="144" y="90.043" fill="#231F20" width="6" height="6"/>
	<rect x="120" y="96.043" fill="#323133" width="6" height="6"/>
	<rect x="138" y="96.043" fill="#231F20" width="6" height="6"/>
	<rect x="144" y="96.043" fill="#323133" width="6" height="6"/>
	<rect x="120" y="108.031" fill="#231F20" width="6" height="6"/>
	<rect x="126" y="108.031" fill="#E7C5A2" width="6" height="6"/>
	<rect x="132" y="108.031" fill="#E7C5A2" width="6" height="6"/>
	<rect x="138" y="108.031" fill="#231F20" width="6" height="6"/>
	<rect x="144" y="108.031" fill="#231F20" width="6" height="6"/>
	<rect x="150" y="108.031" fill="#231F20" width="6" height="6"/>
	<rect x="120" y="114.031" fill="#ECD4BA" width="6" height="6"/>
	<rect x="126" y="114.031" fill="#E7C5A2" width="6" height="6"/>
	<rect x="132" y="114.031" fill="#E7C5A2" width="6" height="6"/>
	<rect x="138" y="114.031" fill="#E7C5A2" width="6" height="6"/>
	<rect x="144" y="114.031" fill="#EED0C6" width="6" height="6"/>
	<rect x="150" y="114.031" fill="#EED0C6" width="6" height="6"/>
	<rect x="120" y="120.031" fill="#ECD4BA" width="6" height="6"/>
	<rect x="126" y="120.031" fill="#ECD4BA" width="6" height="6"/>
	<rect x="120" y="126.008" fill="#E7C5A2" width="6" height="6"/>
	<rect x="126" y="126.008" fill="#231F20" width="6" height="6"/>
	<rect x="120" y="137.969" fill="#E7C5A2" width="6" height="6"/>
	<rect x="126" y="137.969" fill="#3B2314" width="6" height="6"/>
	<rect x="120" y="143.98" fill="#E7C5A2" width="6" height="6"/>
	<rect x="126" y="143.98" fill="#E1B79E" width="6" height="6"/>
	<rect x="120" y="149.969" fill="#A49C80" width="6" height="6"/>
	<rect x="114" y="143.98" fill="#E7C5A2" width="6" height="6"/>
	<rect x="126" y="149.969" fill="#BAA993" width="6" height="6"/>
	<rect x="138" y="149.969" fill="#ECD4BA" width="6" height="6"/>
	<rect x="132" y="149.969" fill="#D7BFAA" width="6" height="6"/>
	<rect x="144" y="149.969" fill="#C79C89" width="6" height="6"/>
	<rect x="156" y="149.969" fill="#D7BFAA" width="6" height="6"/>
	<rect x="150" y="149.969" fill="#D7BFAA" width="6" height="6"/>
	<rect x="138" y="155.957" fill="#FFFFFF" width="6" height="6"/>
	<rect x="132" y="155.957" fill="#FFFFFF" width="6" height="6"/>
	<rect x="144" y="155.957" fill="#FFFFFF" width="6" height="6"/>
	<rect x="150" y="155.957" fill="#AD6D67" width="6" height="6"/>
	<rect x="138" y="161.945" fill="#C97D7A" width="6" height="6"/>
	<rect x="132" y="161.945" fill="#C97D7A" width="6" height="6"/>
	<rect x="144" y="161.945" fill="#AD6D67" width="6" height="6"/>
	<rect x="150" y="161.945" fill="#BAA993" width="6" height="6"/>
	<rect x="138" y="167.945" fill="#BAA993" width="6" height="6"/>
	<rect x="132" y="167.945" fill="#A49C80" width="6" height="6"/>
	<rect x="144" y="167.945" fill="#BAA993" width="6" height="6"/>
	<rect x="138" y="173.945" fill="#D7BFAA" width="6" height="6"/>
	<rect x="144" y="173.945" fill="#D7BFAA" width="6" height="6"/>
	<rect x="150" y="173.945" fill="#D7BFAA" width="6" height="6"/>
	<rect x="138" y="179.914" fill="#D7BFAA" width="6" height="6"/>
	<rect x="144" y="179.914" fill="#D7BFAA" width="6" height="6"/>
	<rect x="150" y="179.914" fill="#E7C5A2" width="6" height="6"/>
	<rect x="156" y="168.051" fill="#D7BFAA" width="6" height="6"/>
	<rect x="156" y="174.02" fill="#E7C5A2" width="6" height="6"/>
	<rect x="150" y="167.945" fill="#D7BFAA" width="6" height="6"/>
	<rect x="162" y="149.969" fill="#E7C5A2" width="6" height="6"/>
	<rect x="156" y="143.98" fill="#BAA993" width="6" height="6"/>
	<rect x="162" y="143.98" fill="#E7C5A2" width="6" height="6"/>
	<rect x="156" y="161.945" fill="#D7BFAA" width="6" height="6"/>
	<rect x="156" y="155.957" fill="#D7BFAA" width="6" height="6"/>
	<rect x="156" y="137.969" fill="#231F20" width="6" height="6"/>
	<rect x="162" y="137.969" fill="#E5B29B" width="6" height="6"/>
	<rect x="156" y="126.008" fill="#231F20" width="6" height="6"/>
	<rect x="162" y="126.008" fill="#231F20" width="6" height="6"/>
	<rect x="168" y="143.941" fill="#E7C5A2" width="6" height="6"/>
	<rect x="168" y="137.953" fill="#E7C5A2" width="6" height="6"/>
	<rect x="132" y="120.031" fill="#D7BFAA" width="6" height="6"/>
	<rect x="138" y="120.031" fill="#E7C5A2" width="6" height="6"/>
	<rect x="144" y="120.031" fill="#EED0C6" width="6" height="6"/>
	<rect x="150" y="120.031" fill="#323133" width="6" height="6"/>
	<rect x="132" y="126.008" fill="#231F20" width="6" height="6"/>
	<rect x="138" y="126.008" fill="#E7C5A2" width="6" height="6"/>
	<rect x="144" y="126.008" fill="#E7C5A2" width="6" height="6"/>
	<rect x="150" y="126.008" fill="#323133" width="6" height="6"/>
	<rect x="120" y="131.98" fill="#E7C5A2" width="6" height="6"/>
	<rect x="126" y="131.98" fill="#E7C5A2" width="6" height="6"/>
	<rect x="156" y="131.98" fill="#323133" width="6" height="6"/>
	<rect x="162" y="131.98" fill="#ECD4BA" width="6" height="6"/>
	<rect x="132" y="131.98" fill="#E7C5A2" width="6" height="6"/>
	<rect x="138" y="131.98" fill="#E7C5A2" width="6" height="6"/>
	<rect x="144" y="131.98" fill="#E7C5A2" width="6" height="6"/>
	<rect x="150" y="131.98" fill="#E7C5A2" width="6" height="6"/>
	<rect x="132" y="137.969" fill="#FFFFFF" width="6" height="6"/>
	<rect x="138" y="137.969" fill="#E7C5A2" width="6" height="6"/>
	<rect x="144" y="137.969" fill="#E7C5A2" width="6" height="6"/>
	<rect x="150" y="137.969" fill="#E7C5A2" width="6" height="6"/>
	<rect x="132" y="143.969" fill="#ECD4BA" width="6" height="6"/>
	<rect x="138" y="143.969" fill="#C79C89" width="6" height="6"/>
	<rect x="144" y="143.969" fill="#E7C5A2" width="6" height="6"/>
	<rect x="150" y="143.969" fill="#D7BFAA" width="6" height="6"/>
	<rect x="156" y="108.031" fill="#231F20" width="6" height="6"/>
	<rect x="162" y="108.031" fill="#231F20" width="6" height="6"/>
	<rect x="120" y="102.043" fill="#323133" width="6" height="6"/>
	<rect x="126" y="102.043" fill="#231F20" width="6" height="6"/>
	<rect x="132" y="102.043" fill="#323133" width="6" height="6"/>
	<rect x="138" y="102.043" fill="#231F20" width="6" height="6"/>
	<rect x="144" y="102.043" fill="#231F20" width="6" height="6"/>
	<rect x="150" y="102.043" fill="#231F20" width="6" height="6"/>
	<rect x="156" y="102.043" fill="#231F20" width="6" height="6"/>
	<rect x="150" y="96.043" fill="#231F20" width="6" height="6"/>
	<rect x="150" y="90.043" fill="#323133" width="6" height="6"/>
	<rect x="156" y="96.043" fill="#231F20" width="6" height="6"/>
	<rect x="162" y="102.043" fill="#231F20" width="6" height="6"/>
	<rect x="168" y="108.031" fill="#231F20" width="6" height="6"/>
	<rect x="156" y="114.031" fill="#231F20" width="6" height="6"/>
	<rect x="162" y="114.031" fill="#231F20" width="6" height="6"/>
	<rect x="156" y="120.031" fill="#231F20" width="6" height="6"/>
	<rect x="162" y="120.031" fill="#323133" width="6" height="6"/>
	<rect x="168" y="131.98" fill="#ECD4BA" width="6" height="6"/>
	<rect x="168" y="114.031" fill="#231F20" width="6" height="6"/>
	<rect x="168" y="120.031" fill="#231F20" width="6" height="6"/>
	<rect x="168" y="126.008" fill="#231F20" width="6" height="6"/>
</g>
</svg>
