<?xml version="1.0" encoding="utf-8"?>
<!-- Generator: Adobe Illustrator 16.0.0, SVG Export Plug-In . SVG Version: 6.00 Build 0)  -->
<!DOCTYPE svg PUBLIC "-//W3C//DTD SVG 1.1//EN" "http://www.w3.org/Graphics/SVG/1.1/DTD/svg11.dtd">
<svg version="1.1" id="Layer_1" xmlns="http://www.w3.org/2000/svg" xmlns:xlink="http://www.w3.org/1999/xlink" x="0px" y="0px"
	 width="300px" height="300px" viewBox="0 0 300 300" enable-background="new 0 0 300 300" xml:space="preserve">
<g>
	<rect x="123.748" y="88.057" fill="#2F292B" width="7.5" height="7.5"/>
	<rect x="131.248" y="88.057" fill="#888F48" width="7.5" height="7.5"/>
	<rect x="138.748" y="88.057" fill="#2F292B" width="7.5" height="7.5"/>
	<rect x="131.248" y="80.557" fill="#2F292B" width="7.5" height="7.5"/>
	<rect x="146.248" y="88.057" fill="#AEB762" width="7.5" height="7.5"/>
	<rect x="123.748" y="103.037" fill="#AEB762" width="7.5" height="7.5"/>
	<rect x="131.248" y="103.037" fill="#AEB762" width="7.5" height="7.5"/>
	<rect x="138.748" y="103.037" fill="#AEB762" width="7.5" height="7.5"/>
	<rect x="146.248" y="103.037" fill="#EE2730" width="7.5" height="7.5"/>
	<rect x="153.748" y="103.037" fill="#C7293B" width="7.5" height="7.5"/>
	<rect x="116.248" y="110.537" fill="#AEB762" width="7.5" height="7.5"/>
	<rect x="123.748" y="110.537" fill="#AEB762" width="7.5" height="7.5"/>
	<rect x="131.248" y="110.537" fill="#AEB762" width="7.5" height="7.5"/>
	<rect x="138.748" y="110.537" fill="#AEB762" width="7.5" height="7.5"/>
	<rect x="146.248" y="110.537" fill="#AEB762" width="7.5" height="7.5"/>
	<rect x="153.748" y="110.537" fill="#EE2730" width="7.5" height="7.5"/>
	<rect x="116.248" y="118.037" fill="#AEB762" width="7.5" height="7.5"/>
	<rect x="123.748" y="118.037" fill="#AEB762" width="7.5" height="7.5"/>
	<rect x="116.248" y="125.508" fill="#AEB762" width="7.5" height="7.5"/>
	<rect x="123.748" y="125.508" fill="#AEB762" width="7.5" height="7.5"/>
	<rect x="116.248" y="132.998" fill="#AEB762" width="7.5" height="7.5"/>
	<rect x="123.748" y="132.998" fill="#AEB762" width="7.5" height="7.5"/>
	<rect x="116.248" y="140.508" fill="#AEB762" width="7.5" height="7.5"/>
	<rect x="123.748" y="140.508" fill="#AEB762" width="7.5" height="7.5"/>
	<rect x="116.248" y="147.998" fill="#AEB762" width="7.5" height="7.5"/>
	<rect x="108.748" y="142.373" fill="#AEB762" width="7.5" height="7.5"/>
	<rect x="108.748" y="134.873" fill="#AEB762" width="7.5" height="7.5"/>
	<rect x="123.748" y="147.998" fill="#AEB762" width="7.5" height="7.5"/>
	<rect x="138.748" y="147.998" fill="#AEB762" width="7.5" height="7.5"/>
	<rect x="131.248" y="147.998" fill="#AEB762" width="7.5" height="7.5"/>
	<rect x="146.248" y="147.998" fill="#AEB762" width="7.5" height="7.5"/>
	<rect x="161.248" y="147.998" fill="#AEB762" width="7.5" height="7.5"/>
	<rect x="153.748" y="147.998" fill="#AEB762" width="7.5" height="7.5"/>
	<rect x="138.748" y="155.479" fill="#FFFFFF" width="7.5" height="7.5"/>
	<rect x="131.248" y="155.479" fill="#FFFFFF" width="7.5" height="7.5"/>
	<rect x="146.248" y="155.479" fill="#FFFFFF" width="7.5" height="7.5"/>
	<rect x="153.748" y="155.479" fill="#C7293B" width="7.5" height="7.5"/>
	<rect x="138.748" y="162.969" fill="#EE2730" width="7.5" height="7.5"/>
	<rect x="131.248" y="162.969" fill="#EE2730" width="7.5" height="7.5"/>
	<rect x="146.248" y="162.969" fill="#EE2730" width="7.5" height="7.5"/>
	<rect x="153.748" y="162.969" fill="#AEB762" width="7.5" height="7.5"/>
	<rect x="138.748" y="170.469" fill="#AEB762" width="7.5" height="7.5"/>
	<rect x="131.248" y="170.469" fill="#AEB762" width="7.5" height="7.5"/>
	<rect x="146.248" y="170.469" fill="#C7293B" width="7.5" height="7.5"/>
	<rect x="138.748" y="177.969" fill="#AEB762" width="7.5" height="7.5"/>
	<rect x="146.248" y="177.969" fill="#AEB762" width="7.5" height="7.5"/>
	<rect x="138.748" y="185.469" fill="#888F48" width="7.5" height="7.5"/>
	<rect x="146.248" y="185.469" fill="#888F48" width="7.5" height="7.5"/>
	<rect x="153.748" y="177.969" fill="#AEB762" width="7.5" height="7.5"/>
	<rect x="153.748" y="170.469" fill="#AEB762" width="7.5" height="7.5"/>
	<rect x="161.248" y="170.469" fill="#AEB762" width="7.5" height="7.5"/>
	<rect x="161.248" y="177.969" fill="#FFFFFF" width="7.5" height="7.5"/>
	<rect x="168.748" y="177.969" fill="#FFFFFF" width="7.5" height="7.5"/>
	<rect x="168.748" y="170.469" fill="#FFFFFF" width="7.5" height="7.5"/>
	<rect x="176.248" y="177.969" fill="#FFFFFF" width="7.5" height="7.5"/>
	<rect x="161.248" y="185.469" fill="#FFFFFF" width="7.5" height="7.5"/>
	<rect x="153.748" y="185.469" fill="#888F48" width="7.5" height="7.5"/>
	<rect x="131.248" y="185.469" fill="#FFFFFF" width="7.5" height="7.5"/>
	<rect x="131.248" y="177.969" fill="#FFFFFF" width="7.5" height="7.5"/>
	<rect x="123.748" y="185.469" fill="#FFFFFF" width="7.5" height="7.5"/>
	<rect x="168.748" y="185.469" fill="#FFFFFF" width="7.5" height="7.5"/>
	<rect x="176.248" y="185.469" fill="#AEB762" width="7.5" height="7.5"/>
	<rect x="183.748" y="177.969" fill="#FFFFFF" width="7.5" height="7.5"/>
	<rect x="183.748" y="185.469" fill="#FFFFFF" width="7.5" height="7.5"/>
	<rect x="191.248" y="185.469" fill="#FFFFFF" width="7.5" height="7.5"/>
	<rect x="138.748" y="200.469" fill="#FFFFFF" width="7.5" height="7.5"/>
	<rect x="146.248" y="200.469" fill="#FFFFFF" width="7.5" height="7.5"/>
	<rect x="161.248" y="200.469" fill="#FFFFFF" width="7.5" height="7.5"/>
	<rect x="153.748" y="200.469" fill="#F1F1F0" width="7.5" height="7.5"/>
	<rect x="131.248" y="200.469" fill="#FFFFFF" width="7.5" height="7.5"/>
	<rect x="123.748" y="200.469" fill="#F1F1F0" width="7.5" height="7.5"/>
	<rect x="116.248" y="200.469" fill="#FFFFFF" width="7.5" height="7.5"/>
	<rect x="168.748" y="200.469" fill="#FFFFFF" width="7.5" height="7.5"/>
	<rect x="176.248" y="200.469" fill="#FFFFFF" width="7.5" height="7.5"/>
	<rect x="183.748" y="200.469" fill="#AEB762" width="7.5" height="7.5"/>
	<rect x="191.248" y="200.469" fill="#FFFFFF" width="7.5" height="7.5"/>
	<rect x="138.748" y="215.469" fill="#FFFFFF" width="7.5" height="7.5"/>
	<rect x="146.248" y="215.469" fill="#FFFFFF" width="7.5" height="7.5"/>
	<rect x="161.248" y="215.469" fill="#FFFFFF" width="7.5" height="7.5"/>
	<rect x="153.748" y="215.469" fill="#FFFFFF" width="7.5" height="7.5"/>
	<rect x="131.248" y="215.469" fill="#FFFFFF" width="7.5" height="7.5"/>
	<rect x="123.748" y="215.469" fill="#F1F1F0" width="7.5" height="7.5"/>
	<rect x="116.248" y="215.469" fill="#888F48" width="7.5" height="7.5"/>
	<rect x="168.748" y="215.469" fill="#FFFFFF" width="7.5" height="7.5"/>
	<rect x="176.248" y="215.469" fill="#888F48" width="7.5" height="7.5"/>
	<rect x="183.748" y="215.469" fill="#AEB762" width="7.5" height="7.5"/>
	<rect x="191.248" y="215.469" fill="#AEB762" width="7.5" height="7.5"/>
	<rect x="138.748" y="192.969" fill="#FFFFFF" width="7.5" height="7.5"/>
	<rect x="146.248" y="192.969" fill="#888F48" width="7.5" height="7.5"/>
	<rect x="161.248" y="192.969" fill="#FFFFFF" width="7.5" height="7.5"/>
	<rect x="153.748" y="192.969" fill="#888F48" width="7.5" height="7.5"/>
	<rect x="131.248" y="192.969" fill="#FFFFFF" width="7.5" height="7.5"/>
	<rect x="123.748" y="192.969" fill="#FFFFFF" width="7.5" height="7.5"/>
	<rect x="116.248" y="192.969" fill="#FFFFFF" width="7.5" height="7.5"/>
	<rect x="168.748" y="192.969" fill="#F1F1F0" width="7.5" height="7.5"/>
	<rect x="176.248" y="192.969" fill="#FFFFFF" width="7.5" height="7.5"/>
	<rect x="183.748" y="192.969" fill="#AEB762" width="7.5" height="7.5"/>
	<rect x="191.248" y="192.969" fill="#AEB762" width="7.5" height="7.5"/>
	<rect x="138.748" y="207.969" fill="#FFFFFF" width="7.5" height="7.5"/>
	<rect x="146.248" y="207.969" fill="#FFFFFF" width="7.5" height="7.5"/>
	<rect x="161.248" y="207.969" fill="#FFFFFF" width="7.5" height="7.5"/>
	<rect x="153.748" y="207.969" fill="#FFFFFF" width="7.5" height="7.5"/>
	<rect x="131.248" y="207.969" fill="#FFFFFF" width="7.5" height="7.5"/>
	<rect x="123.748" y="207.969" fill="#FFFFFF" width="7.5" height="7.5"/>
	<rect x="116.248" y="207.969" fill="#FFFFFF" width="7.5" height="7.5"/>
	<rect x="168.748" y="207.969" fill="#F1F1F0" width="7.5" height="7.5"/>
	<rect x="176.248" y="207.969" fill="#FFFFFF" width="7.5" height="7.5"/>
	<rect x="183.748" y="207.969" fill="#FFFFFF" width="7.5" height="7.5"/>
	<rect x="191.248" y="207.969" fill="#FFFFFF" width="7.5" height="7.5"/>
	<rect x="176.248" y="170.469" fill="#FFFFFF" width="7.5" height="7.5"/>
	<rect x="168.748" y="147.998" fill="#AEB762" width="7.5" height="7.5"/>
	<rect x="161.248" y="140.508" fill="#AEB762" width="7.5" height="7.5"/>
	<rect x="168.748" y="140.508" fill="#AEB762" width="7.5" height="7.5"/>
	<rect x="161.248" y="162.969" fill="#B8AE9B" width="7.5" height="7.5"/>
	<rect x="168.748" y="162.969" fill="#AEB762" width="7.5" height="7.5"/>
	<rect x="161.248" y="155.479" fill="#AEB762" width="7.5" height="7.5"/>
	<rect x="168.748" y="155.479" fill="#AEB762" width="7.5" height="7.5"/>
	<rect x="161.248" y="132.998" fill="#888F48" width="7.5" height="7.5"/>
	<rect x="168.748" y="132.998" fill="#AEB762" width="7.5" height="7.5"/>
	<rect x="161.248" y="125.508" fill="#888F48" width="7.5" height="7.5"/>
	<rect x="168.748" y="125.508" fill="#AEB762" width="7.5" height="7.5"/>
	<rect x="176.248" y="125.508" fill="#AEB762" width="7.5" height="7.5"/>
	<rect x="131.248" y="118.037" fill="#2F292B" width="7.5" height="7.5"/>
	<rect x="138.748" y="118.037" fill="#2F292B" width="7.5" height="7.5"/>
	<rect x="146.248" y="118.037" fill="#AEB762" width="7.5" height="7.5"/>
	<rect x="153.748" y="118.037" fill="#AEB762" width="7.5" height="7.5"/>
	<rect x="131.248" y="125.508" fill="#AEB762" width="7.5" height="7.5"/>
	<rect x="138.748" y="125.508" fill="#AEB762" width="7.5" height="7.5"/>
	<rect x="146.248" y="125.508" fill="#AEB762" width="7.5" height="7.5"/>
	<rect x="153.748" y="125.508" fill="#AEB762" width="7.5" height="7.5"/>
	<rect x="131.248" y="132.998" fill="#AEB762" width="7.5" height="7.5"/>
	<rect x="138.748" y="132.998" fill="#FBF246" width="7.5" height="7.5"/>
	<rect x="146.248" y="132.998" fill="#AEB762" width="7.5" height="7.5"/>
	<rect x="153.748" y="132.998" fill="#AEB762" width="7.5" height="7.5"/>
	<rect x="131.248" y="140.498" fill="#AEB762" width="7.5" height="7.5"/>
	<rect x="138.748" y="140.498" fill="#AEB762" width="7.5" height="7.5"/>
	<rect x="146.248" y="140.498" fill="#AEB762" width="7.5" height="7.5"/>
	<rect x="153.748" y="140.498" fill="#888F48" width="7.5" height="7.5"/>
	<rect x="161.248" y="103.037" fill="#AEB762" width="7.5" height="7.5"/>
	<rect x="168.748" y="103.037" fill="#2F292B" width="7.5" height="7.5"/>
	<rect x="168.748" y="95.557" fill="#AEB762" width="7.5" height="7.5"/>
	<rect x="161.248" y="88.057" fill="#2F292B" width="7.5" height="7.5"/>
	<rect x="153.748" y="80.557" fill="#2F292B" width="7.5" height="7.5"/>
	<rect x="161.248" y="73.057" fill="#2F292B" width="7.5" height="7.5"/>
	<rect x="146.248" y="80.557" fill="#2F292B" width="7.5" height="7.5"/>
	<rect x="176.326" y="118.037" fill="#AEB762" width="7.5" height="7.5"/>
	<rect x="176.248" y="95.557" fill="#2F292B" width="7.5" height="7.5"/>
	<rect x="153.748" y="88.057" fill="#2F292B" width="7.5" height="7.5"/>
	<rect x="116.248" y="103.037" fill="#888F48" width="7.5" height="7.5"/>
	<rect x="123.748" y="95.557" fill="#888F48" width="7.5" height="7.5"/>
	<rect x="131.248" y="95.557" fill="#AEB762" width="7.5" height="7.5"/>
	<rect x="138.748" y="95.557" fill="#EE2730" width="7.5" height="7.5"/>
	<rect x="146.248" y="95.557" fill="#2F292B" width="7.5" height="7.5"/>
	<rect x="153.748" y="95.557" fill="#AEB762" width="7.5" height="7.5"/>
	<rect x="161.248" y="95.557" fill="#2F292B" width="7.5" height="7.5"/>
	<rect x="161.248" y="110.537" fill="#AEB762" width="7.5" height="7.5"/>
	<rect x="168.748" y="110.537" fill="#AEB762" width="7.5" height="7.5"/>
	<rect x="161.248" y="118.037" fill="#AEB762" width="7.5" height="7.5"/>
	<rect x="168.748" y="118.037" fill="#AEB762" width="7.5" height="7.5"/>
</g>
</svg>
