<?xml version="1.0" encoding="utf-8"?>
<!-- Generator: Adobe Illustrator 16.0.0, SVG Export Plug-In . SVG Version: 6.00 Build 0)  -->
<!DOCTYPE svg PUBLIC "-//W3C//DTD SVG 1.1//EN" "http://www.w3.org/Graphics/SVG/1.1/DTD/svg11.dtd">
<svg version="1.1" id="Layer_1" xmlns="http://www.w3.org/2000/svg" xmlns:xlink="http://www.w3.org/1999/xlink" x="0px" y="0px"
	 width="300px" height="300px" viewBox="0 0 300 300" enable-background="new 0 0 300 300" xml:space="preserve">
<g>
	<rect x="135" y="187.417" fill="#EFC8A6" width="7.5" height="7.5"/>
	<rect x="142.5" y="187.417" fill="#EFC8A6" width="7.5" height="7.5"/>
	<rect x="150.005" y="187.417" fill="#EFC8A6" width="7.5" height="7.5"/>
	<rect x="165" y="179.917" fill="#323133" width="7.5" height="7.5"/>
	<rect x="172.5" y="179.917" fill="#323133" width="7.5" height="7.5"/>
	<rect x="157.5" y="187.417" fill="#A7D6F0" width="7.5" height="7.5"/>
	<rect x="127.5" y="187.417" fill="#A7D6F0" width="7.5" height="7.5"/>
	<rect x="120" y="187.417" fill="#323133" width="7.5" height="7.5"/>
	<rect x="165" y="187.417" fill="#A7D6F0" width="7.5" height="7.5"/>
	<rect x="172.5" y="187.417" fill="#323133" width="7.5" height="7.5"/>
	<rect x="180" y="187.417" fill="#323133" width="7.5" height="7.5"/>
	<rect x="135" y="202.417" fill="#C7E1F5" width="7.5" height="7.5"/>
	<rect x="142.5" y="202.417" fill="#1C75BC" width="7.5" height="7.5"/>
	<rect x="157.5" y="202.417" fill="#C7E1F5" width="7.5" height="7.5"/>
	<rect x="150" y="202.417" fill="#C7E1F5" width="7.5" height="7.5"/>
	<rect x="127.5" y="202.417" fill="#A7D6F0" width="7.5" height="7.5"/>
	<rect x="127.5" y="209.917" fill="#231F20" width="7.5" height="7.5"/>
	<rect x="120" y="202.417" fill="#323133" width="7.5" height="7.5"/>
	<rect x="112.5" y="202.417" fill="#464749" width="7.5" height="7.5"/>
	<rect x="165" y="202.417" fill="#A7D6F0" width="7.5" height="7.5"/>
	<rect x="172.5" y="202.417" fill="#464749" width="7.5" height="7.5"/>
	<rect x="180" y="202.417" fill="#323133" width="7.5" height="7.5"/>
	<rect x="187.5" y="202.417" fill="#323133" width="7.5" height="7.5"/>
	<rect x="135" y="217.417" fill="#C7E1F5" width="7.5" height="7.5"/>
	<rect x="142.5" y="217.417" fill="#D59E10" width="7.5" height="7.5"/>
	<rect x="157.5" y="217.417" fill="#C7E1F5" width="7.5" height="7.5"/>
	<rect x="150" y="217.417" fill="#C7E1F5" width="7.5" height="7.5"/>
	<rect x="127.5" y="217.417" fill="#464749" width="7.5" height="7.5"/>
	<rect x="120" y="217.417" fill="#323133" width="7.5" height="7.5"/>
	<rect x="112.5" y="217.417" fill="#323133" width="7.5" height="7.5"/>
	<rect x="165" y="217.417" fill="#464749" width="7.5" height="7.5"/>
	<rect x="172.5" y="217.417" fill="#323133" width="7.5" height="7.5"/>
	<rect x="180" y="217.417" fill="#323133" width="7.5" height="7.5"/>
	<rect x="187.5" y="217.417" fill="#231F20" width="7.5" height="7.5"/>
	<rect x="135" y="194.917" fill="#BE1E2D" width="7.5" height="7.5"/>
	<rect x="142.5" y="194.917" fill="#323133" width="7.5" height="7.5"/>
	<rect x="157.5" y="194.917" fill="#A7D6F0" width="7.5" height="7.5"/>
	<rect x="150" y="194.917" fill="#BE1E2D" width="7.5" height="7.5"/>
	<rect x="127.5" y="194.917" fill="#A7D6F0" width="7.5" height="7.5"/>
	<rect x="120" y="194.917" fill="#323133" width="7.5" height="7.5"/>
	<rect x="112.5" y="194.917" fill="#323133" width="7.5" height="7.5"/>
	<rect x="165" y="194.917" fill="#A7D6F0" width="7.5" height="7.5"/>
	<rect x="172.5" y="194.917" fill="#323133" width="7.5" height="7.5"/>
	<rect x="180" y="194.917" fill="#464749" width="7.5" height="7.5"/>
	<rect x="187.5" y="194.917" fill="#323133" width="7.5" height="7.5"/>
	<rect x="135" y="209.917" fill="#C7E1F5" width="7.5" height="7.5"/>
	<rect x="142.5" y="209.917" fill="#BE1E2D" width="7.5" height="7.5"/>
	<rect x="157.5" y="209.917" fill="#C7E1F5" width="7.5" height="7.5"/>
	<rect x="150" y="209.917" fill="#C7E1F5" width="7.5" height="7.5"/>
	<rect x="127.5" y="209.917" fill="#C7E1F5" width="7.5" height="7.5"/>
	<rect x="120" y="209.917" fill="#464749" width="7.5" height="7.5"/>
	<rect x="112.5" y="209.917" fill="#323133" width="7.5" height="7.5"/>
	<rect x="105" y="202.417" fill="#323133" width="7.5" height="7.5"/>
	<rect x="105" y="194.917" fill="#464749" width="7.5" height="7.5"/>
	<rect x="105" y="217.417" fill="#231F20" width="7.5" height="7.5"/>
	<rect x="105" y="209.917" fill="#323133" width="7.5" height="7.5"/>
	<rect x="97.5" y="202.417" fill="#323133" width="7.5" height="7.5"/>
	<rect x="97.5" y="217.417" fill="#323133" width="7.5" height="7.5"/>
	<rect x="97.5" y="209.917" fill="#323133" width="7.5" height="7.5"/>
	<rect x="165" y="209.917" fill="#464749" width="7.5" height="7.5"/>
	<rect x="172.5" y="209.917" fill="#323133" width="7.5" height="7.5"/>
	<rect x="180" y="209.917" fill="#323133" width="7.5" height="7.5"/>
	<rect x="187.5" y="209.917" fill="#323133" width="7.5" height="7.5"/>
	<rect x="195" y="202.417" fill="#323133" width="7.5" height="7.5"/>
	<rect x="195" y="217.417" fill="#323133" width="7.5" height="7.5"/>
	<rect x="195" y="209.917" fill="#323133" width="7.5" height="7.5"/>
	<rect x="112.505" y="75.083" fill="#947B42" width="7.5" height="7.5"/>
	<rect x="120.005" y="75.083" fill="#665219" width="7.5" height="7.5"/>
	<rect x="127.505" y="75.083" fill="#947B42" width="7.5" height="7.5"/>
	<rect x="135.005" y="75.083" fill="#665219" width="7.5" height="7.5"/>
	<rect x="105.005" y="90.068" fill="#EFC8A6" width="7.5" height="7.5"/>
	<rect x="112.505" y="90.068" fill="#EFC8A6" width="7.5" height="7.5"/>
	<rect x="120.005" y="90.068" fill="#EFC8A6" width="7.5" height="7.5"/>
	<rect x="127.505" y="90.068" fill="#EFC8A6" width="7.5" height="7.5"/>
	<rect x="135.005" y="90.068" fill="#EFD1B8" width="7.5" height="7.5"/>
	<rect x="142.505" y="90.068" fill="#EFD1B8" width="7.5" height="7.5"/>
	<rect x="105.005" y="97.568" fill="#EFC8A6" width="7.5" height="7.5"/>
	<rect x="97.505" y="75.083" fill="#665219" width="7.5" height="7.5"/>
	<rect x="112.505" y="97.568" fill="#EFC8A6" width="7.5" height="7.5"/>
	<rect x="120.005" y="97.568" fill="#EFC8A6" width="7.5" height="7.5"/>
	<rect x="127.505" y="97.568" fill="#EFC8A6" width="7.5" height="7.5"/>
	<rect x="135.005" y="97.568" fill="#EFC8A6" width="7.5" height="7.5"/>
	<rect x="142.505" y="97.568" fill="#AE9D85" width="7.5" height="7.5"/>
	<rect x="105.005" y="105.068" fill="#F7E0CF" width="7.5" height="7.5"/>
	<rect x="112.505" y="105.068" fill="#EFD1B8" width="7.5" height="7.5"/>
	<rect x="105.005" y="112.539" fill="#EFD1B8" width="7.5" height="7.5"/>
	<rect x="112.505" y="112.539" fill="#C2B59B" width="7.5" height="7.5"/>
	<rect x="105.005" y="127.49" fill="#EFC8A6" width="7.5" height="7.5"/>
	<rect x="112.505" y="127.49" fill="#3B2314" width="7.5" height="7.5"/>
	<rect x="105.005" y="135.005" fill="#EFD1B8" width="7.5" height="7.5"/>
	<rect x="112.505" y="135.005" fill="#EFC8A6" width="7.5" height="7.5"/>
	<rect x="105.005" y="142.49" fill="#EFC8A6" width="7.5" height="7.5"/>
	<rect x="97.505" y="135.024" fill="#EFD1B8" width="7.5" height="7.5"/>
	<rect x="112.505" y="142.49" fill="#EFC8A6" width="7.5" height="7.5"/>
	<rect x="127.505" y="142.49" fill="#EFC8A6" width="7.5" height="7.5"/>
	<rect x="120.005" y="142.49" fill="#EFC8A6" width="7.5" height="7.5"/>
	<rect x="135.005" y="142.49" fill="#E5AC81" width="7.5" height="7.5"/>
	<rect x="150.005" y="142.49" fill="#EFC8A6" width="7.5" height="7.5"/>
	<rect x="142.505" y="142.49" fill="#EFD1B8" width="7.5" height="7.5"/>
	<rect x="127.505" y="149.976" fill="#FFFFFF" width="7.5" height="7.5"/>
	<rect x="120.005" y="149.976" fill="#FFFFFF" width="7.5" height="7.5"/>
	<rect x="135.005" y="149.976" fill="#FFFFFF" width="7.5" height="7.5"/>
	<rect x="142.505" y="149.976" fill="#BB807B" width="7.5" height="7.5"/>
	<rect x="127.505" y="157.461" fill="#D28F8C" width="7.5" height="7.5"/>
	<rect x="120.005" y="157.461" fill="#D28F8C" width="7.5" height="7.5"/>
	<rect x="135.005" y="157.461" fill="#BB807B" width="7.5" height="7.5"/>
	<rect x="142.505" y="157.461" fill="#EFC8A6" width="7.5" height="7.5"/>
	<rect x="127.505" y="164.961" fill="#EFC8A6" width="7.5" height="7.5"/>
	<rect x="120.005" y="164.961" fill="#EFC8A6" width="7.5" height="7.5"/>
	<rect x="135.005" y="164.961" fill="#EFC8A6" width="7.5" height="7.5"/>
	<rect x="127.505" y="172.461" fill="#E5AC81" width="7.5" height="7.5"/>
	<rect x="135.005" y="172.461" fill="#E5AC81" width="7.5" height="7.5"/>
	<rect x="142.505" y="172.461" fill="#E5AC81" width="7.5" height="7.5"/>
	<rect x="127.505" y="179.922" fill="#E5AC81" width="7.5" height="7.5"/>
	<rect x="135.005" y="179.922" fill="#EFC8A6" width="7.5" height="7.5"/>
	<rect x="142.505" y="179.922" fill="#EFC8A6" width="7.5" height="7.5"/>
	<rect x="142.505" y="164.961" fill="#EFC8A6" width="7.5" height="7.5"/>
	<rect x="150.005" y="164.961" fill="#E5AC81" width="7.5" height="7.5"/>
	<rect x="150.005" y="172.461" fill="#EFC8A6" width="7.5" height="7.5"/>
	<rect x="150.005" y="179.922" fill="#EFC8A6" width="7.5" height="7.5"/>
	<rect x="157.505" y="142.49" fill="#EFC8A6" width="7.5" height="7.5"/>
	<rect x="150.005" y="135.005" fill="#EFC8A6" width="7.5" height="7.5"/>
	<rect x="157.505" y="135.005" fill="#EFC8A6" width="7.5" height="7.5"/>
	<rect x="150.005" y="157.461" fill="#EFC8A6" width="7.5" height="7.5"/>
	<rect x="157.505" y="157.461" fill="#EFC8A6" width="7.5" height="7.5"/>
	<rect x="157.505" y="164.961" fill="#EFC8A6" width="7.5" height="7.5"/>
	<rect x="157.505" y="172.417" fill="#EFC8A6" width="7.5" height="7.5"/>
	<rect x="157.505" y="179.917" fill="#EFC8A6" width="7.5" height="7.5"/>
	<rect x="150.005" y="149.976" fill="#EFD1B8" width="7.5" height="7.5"/>
	<rect x="157.505" y="149.976" fill="#EFC8A6" width="7.5" height="7.5"/>
	<rect x="150.005" y="127.49" fill="#EFC8A6" width="7.5" height="7.5"/>
	<rect x="157.505" y="127.49" fill="#E5AC81" width="7.5" height="7.5"/>
	<rect x="150.005" y="112.539" fill="#947B42" width="7.5" height="7.5"/>
	<rect x="157.505" y="112.539" fill="#665219" width="7.5" height="7.5"/>
	<rect x="165.005" y="127.49" fill="#EFD1B8" width="7.5" height="7.5"/>
	<rect x="165.005" y="120.005" fill="#EFD1B8" width="7.5" height="7.5"/>
	<rect x="120.005" y="105.068" fill="#EFC8A6" width="7.5" height="7.5"/>
	<rect x="127.505" y="105.068" fill="#EFC8A6" width="7.5" height="7.5"/>
	<rect x="135.005" y="105.068" fill="#EFC8A6" width="7.5" height="7.5"/>
	<rect x="142.505" y="105.068" fill="#E5AC81" width="7.5" height="7.5"/>
	<rect x="120.005" y="112.539" fill="#C2B59B" width="7.5" height="7.5"/>
	<rect x="127.505" y="112.539" fill="#EFC8A6" width="7.5" height="7.5"/>
	<rect x="135.005" y="112.539" fill="#EFC8A6" width="7.5" height="7.5"/>
	<rect x="142.505" y="112.539" fill="#E5AC81" width="7.5" height="7.5"/>
	<rect x="105.005" y="120.005" fill="#EFC8A6" width="7.5" height="7.5"/>
	<rect x="112.505" y="120.005" fill="#E5AC81" width="7.5" height="7.5"/>
	<rect x="150.005" y="120.005" fill="#AE9D85" width="7.5" height="7.5"/>
	<rect x="157.505" y="120.005" fill="#EFD1B8" width="7.5" height="7.5"/>
	<rect x="120.005" y="120.005" fill="#E5AC81" width="7.5" height="7.5"/>
	<rect x="127.505" y="120.005" fill="#EFC8A6" width="7.5" height="7.5"/>
	<rect x="135.005" y="120.005" fill="#EFC8A6" width="7.5" height="7.5"/>
	<rect x="142.505" y="120.005" fill="#EFC8A6" width="7.5" height="7.5"/>
	<rect x="120.005" y="127.49" fill="#FFFFFF" width="7.5" height="7.5"/>
	<rect x="127.505" y="127.49" fill="#EFC8A6" width="7.5" height="7.5"/>
	<rect x="135.005" y="127.49" fill="#EFC8A6" width="7.5" height="7.5"/>
	<rect x="142.505" y="127.49" fill="#EFC8A6" width="7.5" height="7.5"/>
	<rect x="120.005" y="134.99" fill="#EFC8A6" width="7.5" height="7.5"/>
	<rect x="127.505" y="134.99" fill="#E5AC81" width="7.5" height="7.5"/>
	<rect x="135.005" y="134.99" fill="#F7E0CF" width="7.5" height="7.5"/>
	<rect x="142.505" y="134.99" fill="#EFC8A6" width="7.5" height="7.5"/>
	<rect x="150.005" y="90.068" fill="#AE9D85" width="7.5" height="7.5"/>
	<rect x="157.505" y="90.068" fill="#603913" width="7.5" height="7.5"/>
	<rect x="105.005" y="82.583" fill="#665219" width="7.5" height="7.5"/>
	<rect x="112.505" y="82.583" fill="#603913" width="7.5" height="7.5"/>
	<rect x="120.005" y="82.583" fill="#947B42" width="7.5" height="7.5"/>
	<rect x="127.505" y="82.583" fill="#3E2D02" width="7.5" height="7.5"/>
	<rect x="135.005" y="82.583" fill="#947B42" width="7.5" height="7.5"/>
	<rect x="142.505" y="82.583" fill="#3E2D02" width="7.5" height="7.5"/>
	<rect x="150.005" y="82.583" fill="#603913" width="7.5" height="7.5"/>
	<rect x="142.505" y="75.083" fill="#665219" width="7.5" height="7.5"/>
	<rect x="150.005" y="75.083" fill="#665219" width="7.5" height="7.5"/>
	<rect x="157.505" y="82.583" fill="#665219" width="7.5" height="7.5"/>
	<rect x="157.505" y="75.083" fill="#665219" width="7.5" height="7.5"/>
	<rect x="165.005" y="90.068" fill="#665219" width="7.5" height="7.5"/>
	<rect x="165.005" y="82.583" fill="#AE9D85" width="7.5" height="7.5"/>
	<rect x="150.005" y="97.568" fill="#AE9D85" width="7.5" height="7.5"/>
	<rect x="157.505" y="97.568" fill="#603913" width="7.5" height="7.5"/>
	<rect x="150.005" y="105.068" fill="#603913" width="7.5" height="7.5"/>
	<rect x="157.505" y="105.068" fill="#947B42" width="7.5" height="7.5"/>
	<rect x="165.005" y="112.539" fill="#665219" width="7.5" height="7.5"/>
	<rect x="165.005" y="97.568" fill="#603913" width="7.5" height="7.5"/>
	<rect x="172.505" y="90.068" fill="#AE9D85" width="7.5" height="7.5"/>
	<rect x="172.505" y="97.568" fill="#AE9D85" width="7.5" height="7.5"/>
	<rect x="165.005" y="105.068" fill="#665219" width="7.5" height="7.5"/>
	<rect x="172.505" y="127.524" fill="#AE9D85" width="7.5" height="7.5"/>
	<rect x="172.505" y="120.054" fill="#947B42" width="7.5" height="7.5"/>
	<rect x="172.505" y="112.563" fill="#665219" width="7.5" height="7.5"/>
	<rect x="172.505" y="105.063" fill="#947B42" width="7.5" height="7.5"/>
	<rect x="165.005" y="142.476" fill="#665219" width="7.5" height="7.5"/>
	<rect x="165.005" y="149.985" fill="#AE9D85" width="7.5" height="7.5"/>
	<rect x="172.505" y="135.01" fill="#947B42" width="7.5" height="7.5"/>
	<rect x="165.005" y="135.005" fill="#EFC8A6" width="7.5" height="7.5"/>
</g>
</svg>
