<?xml version="1.0" encoding="utf-8"?>
<!-- Generator: Adobe Illustrator 16.0.0, SVG Export Plug-In . SVG Version: 6.00 Build 0)  -->
<!DOCTYPE svg PUBLIC "-//W3C//DTD SVG 1.1//EN" "http://www.w3.org/Graphics/SVG/1.1/DTD/svg11.dtd">
<svg version="1.1" id="Layer_1" xmlns="http://www.w3.org/2000/svg" xmlns:xlink="http://www.w3.org/1999/xlink" x="0px" y="0px"
	 width="300px" height="300px" viewBox="0 0 300 300" enable-background="new 0 0 300 300" xml:space="preserve">
<g>
	<rect x="116.245" y="78.789" fill="#CCA87F" width="7.5" height="7.5"/>
	<rect x="101.245" y="86.289" fill="#EEE1BF" width="7.5" height="7.5"/>
	<rect x="123.745" y="78.789" fill="#4D301F" width="7.5" height="7.5"/>
	<rect x="131.245" y="78.789" fill="#876038" width="7.5" height="7.5"/>
	<rect x="138.745" y="78.789" fill="#EEE1BF" width="7.5" height="7.5"/>
	<rect x="108.745" y="93.779" fill="#6E5D55" width="7.5" height="7.5"/>
	<rect x="116.245" y="93.779" fill="#EDD69F" width="7.5" height="7.5"/>
	<rect x="123.745" y="93.779" fill="#EDD69F" width="7.5" height="7.5"/>
	<rect x="131.245" y="93.779" fill="#6E5D55" width="7.5" height="7.5"/>
	<rect x="138.745" y="93.779" fill="#9A734E" width="7.5" height="7.5"/>
	<rect x="146.245" y="93.779" fill="#CCA87F" width="7.5" height="7.5"/>
	<rect x="108.745" y="101.279" fill="#EDD69F" width="7.5" height="7.5"/>
	<rect x="101.245" y="101.279" fill="#876038" width="7.5" height="7.5"/>
	<rect x="101.245" y="108.779" fill="#CCA87F" width="7.5" height="7.5"/>
	<rect x="101.245" y="116.279" fill="#724B1E" width="7.5" height="7.5"/>
	<rect x="93.745" y="101.279" fill="#EEE1BF" width="7.5" height="7.5"/>
	<rect x="93.745" y="108.779" fill="#876038" width="7.5" height="7.5"/>
	<rect x="101.245" y="93.779" fill="#EEE1BF" width="7.5" height="7.5"/>
	<rect x="116.245" y="101.279" fill="#EDD69F" width="7.5" height="7.5"/>
	<rect x="123.745" y="101.279" fill="#EDD69F" width="7.5" height="7.5"/>
	<rect x="131.245" y="101.279" fill="#9A734E" width="7.5" height="7.5"/>
	<rect x="138.745" y="101.279" fill="#EEE1BF" width="7.5" height="7.5"/>
	<rect x="146.245" y="101.279" fill="#9A734E" width="7.5" height="7.5"/>
	<rect x="108.745" y="108.779" fill="#EDD69F" width="7.5" height="7.5"/>
	<rect x="116.245" y="108.779" fill="#EDD69F" width="7.5" height="7.5"/>
	<rect x="108.745" y="123.74" fill="#2E2929" width="7.5" height="7.5"/>
	<rect x="116.245" y="123.74" fill="#2E2929" width="7.5" height="7.5"/>
	<rect x="108.745" y="131.226" fill="#2E2929" width="7.5" height="7.5"/>
	<rect x="116.245" y="131.226" fill="#2B87C5" width="7.5" height="7.5"/>
	<rect x="108.745" y="138.74" fill="#EDD69F" width="7.5" height="7.5"/>
	<rect x="116.245" y="138.74" fill="#2E2929" width="7.5" height="7.5"/>
	<rect x="108.745" y="146.226" fill="#EDD69F" width="7.5" height="7.505"/>
	<rect x="101.245" y="138.726" fill="#EDD69F" width="7.5" height="7.5"/>
	<rect x="93.745" y="138.726" fill="#EDD69F" width="7.5" height="7.5"/>
	<rect x="101.245" y="131.226" fill="#EDD69F" width="7.5" height="7.5"/>
	<rect x="116.245" y="146.226" fill="#EDD69F" width="7.5" height="7.505"/>
	<rect x="116.245" y="153.711" fill="#FFFFFF" width="7.5" height="7.5"/>
	<rect x="131.245" y="146.226" fill="#EDD69F" width="7.5" height="7.505"/>
	<rect x="123.745" y="146.226" fill="#EDD69F" width="7.5" height="7.505"/>
	<rect x="138.745" y="146.226" fill="#A7948A" width="7.5" height="7.505"/>
	<rect x="153.745" y="146.226" fill="#EDD69F" width="7.5" height="7.505"/>
	<rect x="146.245" y="146.226" fill="#EDD69F" width="7.5" height="7.505"/>
	<rect x="131.245" y="153.711" fill="#FFFFFF" width="7.5" height="7.5"/>
	<rect x="123.745" y="153.711" fill="#FFFFFF" width="7.5" height="7.5"/>
	<rect x="138.745" y="153.711" fill="#FFFFFF" width="7.5" height="7.5"/>
	<rect x="146.245" y="153.711" fill="#CABFA9" width="7.5" height="7.5"/>
	<rect x="131.245" y="161.201" fill="#C62C3D" width="7.5" height="7.5"/>
	<rect x="123.745" y="161.201" fill="#C62C3D" width="7.5" height="7.5"/>
	<rect x="138.745" y="161.201" fill="#C62C3D" width="7.5" height="7.5"/>
	<rect x="146.245" y="161.201" fill="#CABFA9" width="7.5" height="7.5"/>
	<rect x="131.245" y="168.701" fill="#EDD69F" width="7.5" height="7.5"/>
	<rect x="123.745" y="168.701" fill="#EDD69F" width="7.5" height="7.5"/>
	<rect x="116.245" y="168.701" fill="#EDD69F" width="7.5" height="7.5"/>
	<rect x="123.745" y="176.201" fill="#EDD69F" width="7.5" height="7.5"/>
	<rect x="138.745" y="168.701" fill="#EDD69F" width="7.5" height="7.5"/>
	<rect x="131.245" y="176.201" fill="#EDD69F" width="7.5" height="7.5"/>
	<rect x="138.745" y="176.201" fill="#CABFA9" width="7.5" height="7.5"/>
	<rect x="146.245" y="176.201" fill="#EDD69F" width="7.5" height="7.5"/>
	<rect x="146.245" y="168.701" fill="#EDD69F" width="7.5" height="7.5"/>
	<rect x="153.745" y="168.701" fill="#EDD69F" width="7.5" height="7.5"/>
	<rect x="161.245" y="146.226" fill="#4D301F" width="7.5" height="7.505"/>
	<rect x="153.745" y="138.74" fill="#CCA87F" width="7.5" height="7.5"/>
	<rect x="153.745" y="146.24" fill="#9A734E" width="7.5" height="7.5"/>
	<rect x="161.245" y="138.74" fill="#EEE1BF" width="7.5" height="7.5"/>
	<rect x="153.745" y="161.201" fill="#EDD69F" width="7.5" height="7.5"/>
	<rect x="161.245" y="161.201" fill="#EEE1BF" width="7.5" height="7.5"/>
	<rect x="161.245" y="168.691" fill="#9A734E" width="7.5" height="7.5"/>
	<rect x="153.745" y="153.711" fill="#EDD69F" width="7.5" height="7.5"/>
	<rect x="161.245" y="153.711" fill="#CCA87F" width="7.5" height="7.5"/>
	<rect x="153.745" y="131.226" fill="#CCA87F" width="7.5" height="7.5"/>
	<rect x="161.245" y="131.226" fill="#9A734E" width="7.5" height="7.5"/>
	<rect x="153.745" y="123.74" fill="#724B1E" width="7.5" height="7.5"/>
	<rect x="161.245" y="123.74" fill="#724B1E" width="7.5" height="7.5"/>
	<rect x="168.745" y="131.226" fill="#9A734E" width="7.5" height="7.5"/>
	<rect x="168.745" y="123.74" fill="#EEE1BF" width="7.5" height="7.5"/>
	<rect x="123.745" y="108.779" fill="#EDD69F" width="7.5" height="7.5"/>
	<rect x="131.245" y="108.779" fill="#EDD69F" width="7.5" height="7.5"/>
	<rect x="138.745" y="108.779" fill="#CCA87F" width="7.5" height="7.5"/>
	<rect x="131.245" y="116.279" fill="#EDD69F" width="7.5" height="7.5"/>
	<rect x="138.745" y="116.279" fill="#EDD69F" width="7.5" height="7.5"/>
	<rect x="116.245" y="116.279" fill="#9A734E" width="7.5" height="7.5"/>
	<rect x="108.745" y="116.279" fill="#EDD69F" width="7.5" height="7.5"/>
	<rect x="123.745" y="116.279" fill="#9A734E" width="7.5" height="7.5"/>
	<rect x="146.245" y="108.779" fill="#EEE1BF" width="7.5" height="7.5"/>
	<rect x="123.745" y="123.74" fill="#2E2929" width="7.5" height="7.5"/>
	<rect x="131.245" y="123.74" fill="#2E2929" width="7.5" height="7.5"/>
	<rect x="138.745" y="123.74" fill="#2E2929" width="7.5" height="7.5"/>
	<rect x="146.245" y="123.74" fill="#2E2929" width="7.5" height="7.5"/>
	<rect x="146.245" y="116.279" fill="#9A734E" width="7.5" height="7.5"/>
	<rect x="123.745" y="131.226" fill="#FFFFFF" width="7.5" height="7.5"/>
	<rect x="131.245" y="131.226" fill="#2E2929" width="7.5" height="7.5"/>
	<rect x="138.745" y="131.226" fill="#EDD69F" width="7.5" height="7.5"/>
	<rect x="146.245" y="131.226" fill="#EDD69F" width="7.5" height="7.5"/>
	<rect x="123.745" y="138.726" fill="#2E2929" width="7.5" height="7.5"/>
	<rect x="131.245" y="138.726" fill="#EDD69F" width="7.5" height="7.5"/>
	<rect x="138.745" y="138.726" fill="#EDD69F" width="7.5" height="7.5"/>
	<rect x="146.245" y="138.726" fill="#EDD69F" width="7.5" height="7.5"/>
	<rect x="153.745" y="93.779" fill="#B48C63" width="7.5" height="7.5"/>
	<rect x="161.245" y="93.779" fill="#724B1E" width="7.5" height="7.5"/>
	<rect x="108.745" y="86.289" fill="#CCA87F" width="7.5" height="7.5"/>
	<rect x="116.245" y="86.289" fill="#6E5D55" width="7.5" height="7.5"/>
	<rect x="123.745" y="86.289" fill="#876038" width="7.5" height="7.5"/>
	<rect x="131.245" y="86.289" fill="#9A734E" width="7.5" height="7.5"/>
	<rect x="138.745" y="86.289" fill="#CCA87F" width="7.5" height="7.5"/>
	<rect x="146.245" y="86.289" fill="#4D301F" width="7.5" height="7.5"/>
	<rect x="153.745" y="86.289" fill="#CCA87F" width="7.5" height="7.5"/>
	<rect x="146.245" y="78.789" fill="#724B1E" width="7.5" height="7.5"/>
	<rect x="161.245" y="86.289" fill="#EEE1BF" width="7.5" height="7.5"/>
	<rect x="153.745" y="101.279" fill="#724B1E" width="7.5" height="7.5"/>
	<rect x="161.245" y="101.279" fill="#B48C63" width="7.5" height="7.5"/>
	<rect x="153.745" y="108.779" fill="#9A734E" width="7.5" height="7.5"/>
	<rect x="161.245" y="108.779" fill="#CCA87F" width="7.5" height="7.5"/>
	<rect x="168.745" y="93.779" fill="#724B1E" width="7.5" height="7.5"/>
	<rect x="168.745" y="86.289" fill="#CCA87F" width="7.5" height="7.5"/>
	<rect x="168.745" y="101.279" fill="#4D301F" width="7.5" height="7.5"/>
	<rect x="168.745" y="108.779" fill="#B48C63" width="7.5" height="7.5"/>
	<rect x="176.245" y="93.779" fill="#EEE1BF" width="7.5" height="7.5"/>
	<rect x="176.245" y="101.279" fill="#4D301F" width="7.5" height="7.5"/>
	<rect x="176.245" y="108.779" fill="#724B1E" width="7.5" height="7.5"/>
	<rect x="153.745" y="116.279" fill="#EEE1BF" width="7.5" height="7.5"/>
	<rect x="161.245" y="116.279" fill="#9A734E" width="7.5" height="7.5"/>
	<rect x="168.745" y="116.279" fill="#724B1E" width="7.5" height="7.5"/>
	<rect x="176.245" y="116.279" fill="#B48C63" width="7.5" height="7.5"/>
	<rect x="176.245" y="123.74" fill="#724B1E" width="7.5" height="7.5"/>
	<rect x="191.255" y="123.74" fill="#724B1E" width="7.5" height="7.5"/>
	<rect x="176.245" y="131.24" fill="#4D301F" width="7.5" height="7.5"/>
	<rect x="191.255" y="131.24" fill="#4D301F" width="7.5" height="7.5"/>
	<rect x="176.245" y="138.74" fill="#CCA87F" width="7.5" height="7.5"/>
	<rect x="168.745" y="138.74" fill="#724B1E" width="7.5" height="7.5"/>
	<rect x="168.745" y="146.24" fill="#EEE1BF" width="7.5" height="7.5"/>
	<rect x="168.745" y="153.74" fill="#724B1E" width="7.5" height="7.5"/>
	<rect x="176.245" y="146.24" fill="#4D301F" width="7.5" height="7.5"/>
	<rect x="183.745" y="153.74" fill="#4D301F" width="7.5" height="7.5"/>
	<rect x="183.745" y="161.211" fill="#EEE1BF" width="7.5" height="7.5"/>
	<rect x="191.255" y="161.211" fill="#EEE1BF" width="7.5" height="7.5"/>
	<rect x="183.745" y="138.755" fill="#CCA87F" width="7.5" height="7.5"/>
	<rect x="183.745" y="131.226" fill="#CCA87F" width="7.5" height="7.5"/>
	<rect x="191.255" y="116.279" fill="#CCA87F" width="7.5" height="7.5"/>
	<rect x="183.745" y="146.221" fill="#CCA87F" width="7.5" height="7.5"/>
	<rect x="191.255" y="168.701" fill="#CCA87F" width="7.5" height="7.5"/>
	<rect x="198.755" y="168.701" fill="#CCA87F" width="7.5" height="7.5"/>
	<rect x="183.745" y="108.779" fill="#CCA87F" width="7.5" height="7.5"/>
	<rect x="183.745" y="116.279" fill="#EEE1BF" width="7.5" height="7.5"/>
	<rect x="183.745" y="123.77" fill="#EEE1BF" width="7.5" height="7.5"/>
	<rect x="176.245" y="153.74" fill="#EEE1BF" width="7.5" height="7.5"/>
	<rect x="168.745" y="161.201" fill="#724B1E" width="7.5" height="7.5"/>
	<rect x="168.745" y="168.691" fill="#EEE1BF" width="7.5" height="7.5"/>
	<rect x="168.745" y="176.211" fill="#2E2929" width="7.5" height="7.5"/>
	<rect x="176.245" y="168.701" fill="#724B1E" width="7.5" height="7.5"/>
	<rect x="183.755" y="176.211" fill="#724B1E" width="7.5" height="7.5"/>
	<rect x="191.255" y="176.211" fill="#724B1E" width="7.5" height="7.5"/>
	<rect x="183.755" y="168.701" fill="#724B1E" width="7.5" height="7.5"/>
	<rect x="108.75" y="176.211" fill="#2E2929" width="7.5" height="7.5"/>
	<rect x="108.75" y="183.711" fill="#808083" width="7.5" height="7.5"/>
	<rect x="101.245" y="176.211" fill="#2E2929" width="7.5" height="7.5"/>
	<rect x="116.25" y="176.211" fill="#2E2929" width="7.5" height="7.5"/>
	<rect x="176.245" y="176.191" fill="#EEE1BF" width="7.5" height="7.5"/>
	<rect x="176.245" y="161.201" fill="#724B1E" width="7.5" height="7.5"/>
	<rect x="131.245" y="183.711" fill="#CABFA9" width="7.5" height="7.5"/>
	<rect x="138.745" y="183.711" fill="#EDD69F" width="7.5" height="7.5"/>
	<rect x="161.245" y="176.211" fill="#2E2929" width="7.5" height="7.5"/>
	<rect x="153.745" y="183.711" fill="#2E2929" width="7.5" height="7.5"/>
	<rect x="153.745" y="176.211" fill="#EDD69F" width="7.5" height="7.5"/>
	<rect x="146.245" y="183.711" fill="#EDD69F" width="7.5" height="7.5"/>
	<rect x="123.745" y="183.711" fill="#2E2929" width="7.5" height="7.5"/>
	<rect x="116.245" y="183.711" fill="#808083" width="7.5" height="7.5"/>
	<rect x="161.245" y="183.711" fill="#2E2929" width="7.5" height="7.5"/>
	<rect x="168.745" y="183.711" fill="#919194" width="7.5" height="7.5"/>
	<rect x="176.245" y="183.711" fill="#6D6D6F" width="7.5" height="7.5"/>
	<rect x="131.245" y="198.711" fill="#545356" width="7.5" height="7.5"/>
	<rect x="138.745" y="198.711" fill="#2E2929" width="7.5" height="7.5"/>
	<rect x="153.745" y="198.711" fill="#A1A3A6" width="7.5" height="7.5"/>
	<rect x="146.245" y="198.711" fill="#545356" width="7.5" height="7.5"/>
	<rect x="123.745" y="198.711" fill="#A1A3A6" width="7.5" height="7.5"/>
	<rect x="123.745" y="206.211" fill="#919194" width="7.5" height="7.5"/>
	<rect x="116.245" y="198.711" fill="#A1A3A6" width="7.5" height="7.5"/>
	<rect x="108.745" y="198.711" fill="#6D6D6F" width="7.5" height="7.5"/>
	<rect x="161.245" y="198.711" fill="#A1A3A6" width="7.5" height="7.5"/>
	<rect x="168.745" y="198.711" fill="#6D6D6F" width="7.5" height="7.5"/>
	<rect x="176.245" y="198.711" fill="#A1A3A6" width="7.5" height="7.5"/>
	<rect x="183.745" y="198.711" fill="#A1A3A6" width="7.5" height="7.5"/>
	<rect x="131.245" y="213.711" fill="#A1A3A6" width="7.5" height="7.5"/>
	<rect x="138.745" y="213.711" fill="#2E2929" width="7.5" height="7.5"/>
	<rect x="153.745" y="213.711" fill="#A1A3A6" width="7.5" height="7.5"/>
	<rect x="146.245" y="213.711" fill="#6D6D6F" width="7.5" height="7.5"/>
	<rect x="123.745" y="213.711" fill="#A1A3A6" width="7.5" height="7.5"/>
	<rect x="116.245" y="213.711" fill="#2F292B" width="7.5" height="7.5"/>
	<rect x="108.745" y="213.711" fill="#B5B5B8" width="7.5" height="7.5"/>
	<rect x="161.245" y="213.711" fill="#2E2929" width="7.5" height="7.5"/>
	<rect x="168.745" y="213.711" fill="#6D6D6F" width="7.5" height="7.5"/>
	<rect x="176.245" y="213.711" fill="#A1A3A6" width="7.5" height="7.5"/>
	<rect x="183.745" y="213.711" fill="#6D6D6F" width="7.5" height="7.5"/>
	<rect x="131.245" y="191.211" fill="#FFFFFF" width="7.5" height="7.5"/>
	<rect x="138.745" y="191.211" fill="#FFFFFF" width="7.5" height="7.5"/>
	<rect x="153.745" y="191.211" fill="#545356" width="7.5" height="7.5"/>
	<rect x="146.245" y="191.211" fill="#FFFFFF" width="7.5" height="7.5"/>
	<rect x="123.745" y="191.211" fill="#545356" width="7.5" height="7.5"/>
	<rect x="116.245" y="191.211" fill="#6D6D6F" width="7.5" height="7.5"/>
	<rect x="108.745" y="191.211" fill="#919194" width="7.5" height="7.5"/>
	<rect x="161.245" y="191.211" fill="#6D6D6F" width="7.5" height="7.5"/>
	<rect x="168.745" y="191.211" fill="#919194" width="7.5" height="7.5"/>
	<rect x="176.245" y="191.211" fill="#919194" width="7.5" height="7.5"/>
	<rect x="183.745" y="191.211" fill="#6D6D6F" width="7.5" height="7.5"/>
	<rect x="131.245" y="206.211" fill="#919194" width="7.5" height="7.5"/>
	<rect x="138.745" y="206.211" fill="#2E2929" width="7.5" height="7.5"/>
	<rect x="153.745" y="206.211" fill="#6D6D6F" width="7.5" height="7.5"/>
	<rect x="146.245" y="206.211" fill="#919194" width="7.5" height="7.5"/>
	<rect x="123.745" y="206.211" fill="#6D6D6F" width="7.5" height="7.5"/>
	<rect x="116.245" y="206.211" fill="#2F292B" width="7.5" height="7.5"/>
	<rect x="108.745" y="206.211" fill="#6D6D6F" width="7.5" height="7.5"/>
	<rect x="101.245" y="198.711" fill="#A1A3A6" width="7.5" height="7.5"/>
	<rect x="101.245" y="213.711" fill="#6D6D6F" width="7.5" height="7.5"/>
	<rect x="101.245" y="206.211" fill="#B5B5B8" width="7.5" height="7.5"/>
	<rect x="161.245" y="206.211" fill="#2E2929" width="7.5" height="7.5"/>
	<rect x="168.745" y="206.211" fill="#A1A3A6" width="7.5" height="7.5"/>
	<rect x="176.245" y="206.211" fill="#6D6D6F" width="7.5" height="7.5"/>
	<rect x="183.745" y="206.211" fill="#A1A3A6" width="7.5" height="7.5"/>
</g>
</svg>
