<?xml version="1.0" encoding="utf-8"?>
<!-- Generator: Adobe Illustrator 15.0.2, SVG Export Plug-In . SVG Version: 6.00 Build 0)  -->
<!DOCTYPE svg PUBLIC "-//W3C//DTD SVG 1.1//EN" "http://www.w3.org/Graphics/SVG/1.1/DTD/svg11.dtd">
<svg version="1.1" id="Layer_1" xmlns="http://www.w3.org/2000/svg" xmlns:xlink="http://www.w3.org/1999/xlink" x="0px" y="0px"
	 width="16.5px" height="26.982px" viewBox="0 0 16.5 26.982" enable-background="new 0 0 16.5 26.982" xml:space="preserve">
<g>
	<rect y="2.997" fill="#3C2415" width="1.5" height="1.5"/>
	<rect y="4.497" fill="#3C2415" width="1.5" height="1.5"/>
	<rect y="5.997" fill="#3C2415" width="1.5" height="1.5"/>
	<rect x="1.5" y="2.997" fill="#3C2415" width="1.5" height="1.5"/>
	<rect x="3" y="2.997" fill="#3C2415" width="1.5" height="1.5"/>
	<rect x="4.5" y="2.997" fill="#3C2415" width="1.5" height="1.5"/>
	<rect x="6" y="2.997" fill="#603913" width="1.5" height="1.5"/>
	<rect x="7.5" y="2.997" fill="#3C2415" width="1.5" height="1.5"/>
	<rect x="1.5" y="4.497" fill="#E8CD8D" width="1.5" height="1.5"/>
	<rect x="3" y="4.497" fill="#E8CD8D" width="1.5" height="1.5"/>
	<rect x="4.5" y="4.497" fill="#3C2415" width="1.5" height="1.5"/>
	<rect x="6" y="4.497" fill="#3C2415" width="1.5" height="1.5"/>
	<rect x="7.5" y="4.497" fill="#3C2415" width="1.5" height="1.5"/>
	<rect x="1.5" y="5.997" fill="#E8CD8D" width="1.5" height="1.5"/>
	<rect x="1.5" y="7.491" fill="#E8CD8D" width="1.5" height="1.5"/>
	<rect x="1.5" y="8.988" fill="#E8CD8D" width="1.5" height="1.5"/>
	<rect y="10.491" fill="#E8CD8D" width="1.5" height="1.5"/>
	<rect x="1.5" y="10.491" fill="#E8CD8D" width="1.5" height="1.5"/>
	<rect x="1.5" y="11.988" fill="#E8CD8D" width="1.5" height="1.5"/>
	<rect x="4.5" y="11.988" fill="#E8CD8D" width="1.5" height="1.5"/>
	<rect x="3" y="11.988" fill="#E8CD8D" width="1.5" height="1.5"/>
	<rect x="6" y="11.988" fill="#E8CD8D" width="1.5" height="1.5"/>
	<rect x="9" y="11.988" fill="#E8CD8D" width="1.5" height="1.5"/>
	<rect x="7.5" y="11.988" fill="#E8CD8D" width="1.5" height="1.5"/>
	<rect x="4.5" y="13.485" fill="#FFFFFF" width="1.5" height="1.5"/>
	<rect x="3" y="13.485" fill="#FFFFFF" width="1.5" height="1.5"/>
	<rect x="6" y="13.485" fill="#FFFFFF" width="1.5" height="1.5"/>
	<rect x="7.5" y="13.485" fill="#D36368" width="1.5" height="1.5"/>
	<rect x="4.5" y="14.982" fill="#D36368" width="1.5" height="1.5"/>
	<rect x="3" y="14.982" fill="#D36368" width="1.5" height="1.5"/>
	<rect x="6" y="14.982" fill="#D36368" width="1.5" height="1.5"/>
	<rect x="7.5" y="14.982" fill="#E8CD8D" width="1.5" height="1.5"/>
	<rect x="4.5" y="16.482" fill="#E8CD8D" width="1.5" height="1.5"/>
	<rect x="3" y="16.482" fill="#E8CD8D" width="1.5" height="1.5"/>
	<rect x="6" y="16.482" fill="#E8CD8D" width="1.5" height="1.5"/>
	<rect x="4.5" y="17.982" fill="#E8CD8D" width="1.5" height="1.5"/>
	<rect x="6" y="17.982" fill="#E8CD8D" width="1.5" height="1.5"/>
	<rect x="4.5" y="19.482" fill="#FFFFFF" width="1.5" height="1.5"/>
	<rect x="6" y="19.482" fill="#E8CD8D" width="1.5" height="1.5"/>
	<rect x="7.5" y="17.982" fill="#E8CD8D" width="1.5" height="1.5"/>
	<rect x="7.5" y="16.482" fill="#E8CD8D" width="1.5" height="1.5"/>
	<rect x="9" y="16.482" fill="#E8CD8D" width="1.5" height="1.5"/>
	<rect x="9" y="17.982" fill="#0083B9" width="1.5" height="1.5"/>
	<rect x="9" y="19.482" fill="#0083B9" width="1.5" height="1.5"/>
	<rect x="7.5" y="19.482" fill="#FFFFFF" width="1.5" height="1.5"/>
	<rect x="3" y="19.482" fill="#0083B9" width="1.5" height="1.5"/>
	<rect x="10.5" y="19.482" fill="#3C2415" width="1.5" height="1.5"/>
	<rect x="12" y="19.482" fill="#9B8579" width="1.5" height="1.5"/>
	<rect x="4.5" y="20.982" fill="#FFFFFF" width="1.5" height="1.5"/>
	<rect x="6" y="20.982" fill="#E8CD8D" width="1.5" height="1.5"/>
	<rect x="9" y="20.982" fill="#0083B9" width="1.5" height="1.5"/>
	<rect x="7.5" y="20.982" fill="#FFFFFF" width="1.5" height="1.5"/>
	<rect x="3" y="20.982" fill="#0083B9" width="1.5" height="1.5"/>
	<rect x="1.5" y="20.982" fill="#006495" width="1.5" height="1.5"/>
	<rect x="10.5" y="20.982" fill="#3C2415" width="1.5" height="1.5"/>
	<rect x="12" y="20.982" fill="#006495" width="1.5" height="1.5"/>
	<rect x="13.5" y="20.982" fill="#006495" width="1.5" height="1.5"/>
	<rect x="15" y="20.982" fill="#006495" width="1.5" height="1.5"/>
	<rect x="4.5" y="22.482" fill="#FFFFFF" width="1.5" height="1.5"/>
	<rect x="6" y="22.482" fill="#EADAB2" width="1.5" height="1.5"/>
	<rect x="9" y="22.482" fill="#0083B9" width="1.5" height="1.5"/>
	<rect x="7.5" y="22.482" fill="#FFFFFF" width="1.5" height="1.5"/>
	<rect x="3" y="22.482" fill="#0083B9" width="1.5" height="1.5"/>
	<rect x="1.5" y="22.482" fill="#006495" width="1.5" height="1.5"/>
	<rect y="22.482" fill="#006495" width="1.5" height="1.5"/>
	<rect x="10.5" y="22.482" fill="#0083B9" width="1.5" height="1.5"/>
	<rect x="12" y="22.482" fill="#006495" width="1.5" height="1.5"/>
	<rect x="13.5" y="22.482" fill="#006495" width="1.5" height="1.5"/>
	<rect x="15" y="22.482" fill="#006495" width="1.5" height="1.5"/>
	<rect x="4.5" y="23.982" fill="#0083B9" width="1.5" height="1.5"/>
	<rect x="6" y="23.982" fill="#0083B9" width="1.5" height="1.5"/>
	<rect x="9" y="23.982" fill="#0083B9" width="1.5" height="1.5"/>
	<rect x="7.5" y="23.982" fill="#0083B9" width="1.5" height="1.5"/>
	<rect x="3" y="23.982" fill="#0083B9" width="1.5" height="1.5"/>
	<rect x="1.5" y="23.982" fill="#0083B9" width="1.5" height="1.5"/>
	<rect y="23.982" fill="#006495" width="1.5" height="1.5"/>
	<rect x="10.5" y="23.982" fill="#0083B9" width="1.5" height="1.5"/>
	<rect x="12" y="23.982" fill="#0083B9" width="1.5" height="1.5"/>
	<rect x="13.5" y="23.982" fill="#006495" width="1.5" height="1.5"/>
	<rect x="15" y="23.982" fill="#006495" width="1.5" height="1.5"/>
	<rect x="4.5" y="25.482" fill="#0083B9" width="1.5" height="1.5"/>
	<rect x="6" y="25.482" fill="#006495" width="1.5" height="1.5"/>
	<rect x="9" y="25.482" fill="#0083B9" width="1.5" height="1.5"/>
	<rect x="7.5" y="25.482" fill="#0083B9" width="1.5" height="1.5"/>
	<rect x="3" y="25.482" fill="#0083B9" width="1.5" height="1.5"/>
	<rect x="1.5" y="25.482" fill="#0083B9" width="1.5" height="1.5"/>
	<rect y="25.482" fill="#006495" width="1.5" height="1.5"/>
	<rect x="10.5" y="25.482" fill="#0083B9" width="1.5" height="1.5"/>
	<rect x="12" y="25.482" fill="#0083B9" width="1.5" height="1.5"/>
	<rect x="13.5" y="25.482" fill="#006495" width="1.5" height="1.5"/>
	<rect x="15" y="25.482" fill="#006495" width="1.5" height="1.5"/>
	<rect x="10.5" y="11.988" fill="#3C2415" width="1.5" height="1.5"/>
	<rect x="9" y="10.491" fill="#3C2415" width="1.5" height="1.5"/>
	<rect x="10.5" y="10.491" fill="#E8CD8D" width="1.5" height="1.5"/>
	<rect x="9" y="14.982" fill="#E8CD8D" width="1.5" height="1.5"/>
	<rect x="10.5" y="14.982" fill="#3C2415" width="1.5" height="1.5"/>
	<rect x="9" y="13.485" fill="#E8CD8D" width="1.5" height="1.5"/>
	<rect x="10.5" y="13.485" fill="#3C2415" width="1.5" height="1.5"/>
	<rect x="9" y="8.988" fill="#E8CD8D" width="1.5" height="1.5"/>
	<rect x="10.5" y="8.988" fill="#E8CD8D" width="1.5" height="1.5"/>
	<rect x="9" y="7.491" fill="#E8CD8D" width="1.5" height="1.5"/>
	<rect x="10.5" y="7.491" fill="#3C2415" width="1.5" height="1.5"/>
	<rect x="12" y="8.988" fill="#3C2415" width="1.5" height="1.5"/>
	<rect x="12" y="7.491" fill="#3C2415" width="1.5" height="1.5"/>
	<rect x="3" y="5.997" fill="#E8CD8D" width="1.5" height="1.5"/>
	<rect x="4.5" y="5.997" fill="#E8CD8D" width="1.5" height="1.5"/>
	<rect x="6" y="5.997" fill="#3C2415" width="1.5" height="1.5"/>
	<rect x="7.5" y="5.997" fill="#3C2415" width="1.5" height="1.5"/>
	<rect x="3" y="7.491" fill="#E8CD8D" width="1.5" height="1.5"/>
	<rect x="4.5" y="7.491" fill="#E8CD8D" width="1.5" height="1.5"/>
	<rect x="6" y="7.491" fill="#E8CD8D" width="1.5" height="1.5"/>
	<rect x="7.5" y="7.491" fill="#E8CD8D" width="1.5" height="1.5"/>
	<rect x="3" y="8.988" fill="#596B42" width="1.5" height="1.5"/>
	<rect x="4.5" y="8.988" fill="#FFFFFF" width="1.5" height="1.5"/>
	<rect x="6" y="8.988" fill="#E8CD8D" width="1.5" height="1.5"/>
	<rect x="7.5" y="8.988" fill="#E8CD8D" width="1.5" height="1.5"/>
	<rect x="3" y="10.488" fill="#E8CD8D" width="1.5" height="1.5"/>
	<rect x="4.5" y="10.488" fill="#E8CD8D" width="1.5" height="1.5"/>
	<rect x="6" y="10.488" fill="#E8CD8D" width="1.5" height="1.5"/>
	<rect x="7.5" y="10.488" fill="#E8CD8D" width="1.5" height="1.5"/>
	<rect x="9" y="2.997" fill="#3C2415" width="1.5" height="1.5"/>
	<rect x="10.5" y="2.997" fill="#3C2415" width="1.5" height="1.5"/>
	<rect x="10.5" y="1.5" fill="#3C2415" width="1.5" height="1.5"/>
	<rect x="12" y="1.5" fill="#3C2415" width="1.5" height="1.5"/>
	<rect x="1.5" y="1.5" fill="#3C2415" width="1.5" height="1.5"/>
	<rect x="3" y="1.5" fill="#603913" width="1.5" height="1.5"/>
	<rect x="4.5" y="1.5" fill="#3C2415" width="1.5" height="1.5"/>
	<rect x="6" y="1.5" fill="#3C2415" width="1.5" height="1.5"/>
	<rect x="7.5" y="1.5" fill="#3C2415" width="1.5" height="1.5"/>
	<rect x="3" fill="#3C2415" width="1.5" height="1.5"/>
	<rect x="4.5" fill="#3C2415" width="1.5" height="1.5"/>
	<rect x="6" fill="#3C2415" width="1.5" height="1.5"/>
	<rect x="7.5" fill="#603913" width="1.5" height="1.5"/>
	<rect x="9" y="1.5" fill="#3C2415" width="1.5" height="1.5"/>
	<rect x="9" y="4.497" fill="#3C2415" width="1.5" height="1.5"/>
	<rect x="9" y="7.491" fill="#3C2415" width="1.5" height="1.5"/>
	<rect x="9" y="8.988" fill="#3C2415" width="1.5" height="1.5"/>
	<rect x="10.5" y="4.497" fill="#603913" width="1.5" height="1.5"/>
	<rect x="12" y="4.497" fill="#3C2415" width="1.5" height="1.5"/>
	<rect x="12" y="2.997" fill="#3C2415" width="1.5" height="1.5"/>
	<rect x="13.5" y="2.997" fill="#3C2415" width="1.5" height="1.5"/>
	<rect x="12" y="5.997" fill="#3C2415" width="1.5" height="1.5"/>
	<rect x="13.5" y="5.997" fill="#3C2415" width="1.5" height="1.5"/>
	<rect x="13.5" y="4.497" fill="#603913" width="1.5" height="1.5"/>
	<rect x="13.5" y="7.497" fill="#3C2415" width="1.5" height="1.5"/>
	<rect x="13.5" y="8.988" fill="#3C2415" width="1.5" height="1.5"/>
	<rect x="13.5" y="11.991" fill="#3C2415" width="1.5" height="1.5"/>
	<rect x="13.5" y="10.491" fill="#3C2415" width="1.5" height="1.5"/>
	<rect x="13.5" y="13.491" fill="#3C2415" width="1.5" height="1.5"/>
	<rect x="12" y="11.991" fill="#3C2415" width="1.5" height="1.5"/>
	<rect x="12" y="10.491" fill="#3C2415" width="1.5" height="1.5"/>
	<rect x="12" y="13.491" fill="#3C2415" width="1.5" height="1.5"/>
	<rect x="13.5" y="14.982" fill="#603913" width="1.5" height="1.5"/>
	<rect x="15" y="13.491" fill="#3C2415" width="1.5" height="1.5"/>
	<rect x="15" y="14.982" fill="#3C2415" width="1.5" height="1.5"/>
	<rect x="12" y="14.982" fill="#3C2415" width="1.5" height="1.5"/>
	<rect x="13.5" y="16.482" fill="#3C2415" width="1.5" height="1.5"/>
	<rect x="15" y="16.482" fill="#3C2415" width="1.5" height="1.5"/>
	<rect x="15" y="8.994" fill="#3C2415" width="1.5" height="1.5"/>
	<rect x="15" y="10.485" fill="#3C2415" width="1.5" height="1.5"/>
	<rect x="15" y="11.984" fill="#3C2415" width="1.5" height="1.5"/>
	<rect x="15" y="5.994" fill="#3C2415" width="1.5" height="1.5"/>
	<rect x="15" y="7.492" fill="#3C2415" width="1.5" height="1.5"/>
	<rect x="1.5" y="16.482" fill="#3C2415" width="1.5" height="1.5"/>
	<rect x="3" y="17.982" fill="#3C2415" width="1.5" height="1.5"/>
	<rect x="1.5" y="17.982" fill="#3C2415" width="1.5" height="1.5"/>
	<rect y="17.982" fill="#3C2415" width="1.5" height="1.5"/>
	<rect x="12" y="16.482" fill="#3C2415" width="1.5" height="1.5"/>
	<rect x="13.5" y="17.982" fill="#3C2415" width="1.5" height="1.5"/>
	<rect x="12" y="17.982" fill="#3C2415" width="1.5" height="1.5"/>
	<rect x="10.5" y="16.482" fill="#3C2415" width="1.5" height="1.5"/>
	<rect x="10.5" y="17.982" fill="#3C2415" width="1.5" height="1.5"/>
	<rect x="12" y="19.482" fill="#3C2415" width="1.5" height="1.5"/>
	<rect x="9" y="5.997" fill="#603913" width="1.5" height="1.5"/>
	<rect x="10.5" y="5.997" fill="#3C2415" width="1.5" height="1.5"/>
</g>
</svg>
