<?xml version="1.0" encoding="utf-8"?>
<!-- Generator: Adobe Illustrator 16.0.0, SVG Export Plug-In . SVG Version: 6.00 Build 0)  -->
<!DOCTYPE svg PUBLIC "-//W3C//DTD SVG 1.1//EN" "http://www.w3.org/Graphics/SVG/1.1/DTD/svg11.dtd">
<svg version="1.1" id="Layer_1" xmlns="http://www.w3.org/2000/svg" xmlns:xlink="http://www.w3.org/1999/xlink" x="0px" y="0px"
	 width="300px" height="300px" viewBox="0 0 300 300" enable-background="new 0 0 300 300" xml:space="preserve">
<g>
	<rect x="112.5" y="90.054" fill="#EFD1B8" width="7.5" height="7.5"/>
	<rect x="120" y="90.049" fill="#EFD1B8" width="7.5" height="7.5"/>
	<rect x="127.5" y="90.049" fill="#EFD1B8" width="7.5" height="7.5"/>
	<rect x="135" y="90.049" fill="#EFD1B8" width="7.5" height="7.5"/>
	<rect x="142.5" y="90.049" fill="#EFD1B8" width="7.5" height="7.5"/>
	<rect x="150" y="90.049" fill="#EFD1B8" width="7.5" height="7.5"/>
	<rect x="120" y="82.549" fill="#323133" width="7.5" height="7.5"/>
	<rect x="112.5" y="82.549" fill="#323133" width="7.5" height="7.5"/>
	<rect x="127.5" y="82.549" fill="#1A1818" width="7.5" height="7.5"/>
	<rect x="135" y="82.549" fill="#1A1818" width="7.5" height="7.5"/>
	<rect x="142.5" y="82.549" fill="#323133" width="7.5" height="7.5"/>
	<rect x="150" y="82.549" fill="#1A1818" width="7.5" height="7.5"/>
	<rect x="120" y="75.054" fill="#323133" width="7.5" height="7.5"/>
	<rect x="127.5" y="75.054" fill="#1A1818" width="7.5" height="7.5"/>
	<rect x="135" y="75.054" fill="#1A1818" width="7.5" height="7.5"/>
	<rect x="142.5" y="75.054" fill="#323133" width="7.5" height="7.5"/>
	<rect x="150" y="75.054" fill="#1A1818" width="7.5" height="7.5"/>
	<rect x="112.5" y="105.034" fill="#EFD1B8" width="7.5" height="7.5"/>
	<rect x="120" y="105.034" fill="#EFCFC0" width="7.5" height="7.5"/>
	<rect x="127.5" y="105.034" fill="#EFD1B8" width="7.5" height="7.5"/>
	<rect x="135" y="105.034" fill="#EFD1B8" width="7.5" height="7.5"/>
	<rect x="142.5" y="105.034" fill="#EFD1B8" width="7.5" height="7.5"/>
	<rect x="150" y="105.034" fill="#EFD1B8" width="7.5" height="7.5"/>
	<rect x="112.5" y="112.534" fill="#EFCFC0" width="7.5" height="7.5"/>
	<rect x="120" y="112.534" fill="#726658" width="7.5" height="7.5"/>
	<rect x="127.5" y="112.534" fill="#9B8579" width="7.5" height="7.5"/>
	<rect x="135" y="112.534" fill="#EFD1B8" width="7.5" height="7.5"/>
	<rect x="142.5" y="112.534" fill="#EFD1B8" width="7.5" height="7.5"/>
	<rect x="150" y="112.534" fill="#EFD1B8" width="7.5" height="7.5"/>
	<rect x="112.5" y="120.034" fill="#231F20" width="7.5" height="7.5"/>
	<rect x="120" y="120.034" fill="#231F20" width="7.5" height="7.5"/>
	<rect x="112.5" y="127.505" fill="#231F20" width="7.5" height="7.5"/>
	<rect x="120" y="127.505" fill="#8B5E3C" width="7.5" height="7.5"/>
	<rect x="112.5" y="134.99" fill="#EFD1B8" width="7.5" height="7.5"/>
	<rect x="120" y="134.99" fill="#231F20" width="7.5" height="7.5"/>
	<rect x="112.5" y="142.505" fill="#EFD1B8" width="7.5" height="7.5"/>
	<rect x="120" y="142.505" fill="#EFD1B8" width="7.5" height="7.5"/>
	<rect x="112.5" y="149.99" fill="#E3C7B1" width="7.5" height="7.5"/>
	<rect x="105" y="142.505" fill="#EFD1B8" width="7.5" height="7.5"/>
	<rect x="105" y="134.99" fill="#EFCFC0" width="7.5" height="7.5"/>
	<rect x="120" y="149.99" fill="#E3C7B1" width="7.5" height="7.5"/>
	<rect x="135" y="149.99" fill="#E3C7B1" width="7.5" height="7.5"/>
	<rect x="127.5" y="149.99" fill="#E3C7B1" width="7.5" height="7.5"/>
	<rect x="142.5" y="149.99" fill="#E3C7B1" width="7.5" height="7.5"/>
	<rect x="157.5" y="149.99" fill="#E3C7B1" width="7.5" height="7.5"/>
	<rect x="150" y="149.99" fill="#E3C7B1" width="7.5" height="7.5"/>
	<rect x="135" y="157.476" fill="#FFFFFF" width="7.5" height="7.5"/>
	<rect x="127.5" y="157.476" fill="#FFFFFF" width="7.5" height="7.5"/>
	<rect x="142.5" y="157.476" fill="#FFFFFF" width="7.5" height="7.5"/>
	<rect x="150" y="157.476" fill="#BB807B" width="7.5" height="7.5"/>
	<rect x="135" y="164.961" fill="#AD6A6D" width="7.5" height="7.5"/>
	<rect x="127.5" y="164.961" fill="#AD6A6D" width="7.5" height="7.5"/>
	<rect x="142.5" y="164.961" fill="#BB807B" width="7.5" height="7.5"/>
	<rect x="150" y="164.961" fill="#E3C7B1" width="7.5" height="7.5"/>
	<rect x="135" y="172.461" fill="#E3C7B1" width="7.5" height="7.5"/>
	<rect x="127.5" y="172.461" fill="#E3C7B1" width="7.5" height="7.5"/>
	<rect x="142.5" y="172.461" fill="#E3C7B1" width="7.5" height="7.5"/>
	<rect x="135" y="179.961" fill="#EFD1B8" width="7.5" height="7.5"/>
	<rect x="142.5" y="179.961" fill="#EFD1B8" width="7.5" height="7.5"/>
	<rect x="150" y="179.961" fill="#EFD1B8" width="7.5" height="7.5"/>
	<rect x="150" y="172.461" fill="#E3C7B1" width="7.5" height="7.5"/>
	<rect x="157.5" y="172.461" fill="#EFD1B8" width="7.5" height="7.5"/>
	<rect x="165" y="149.99" fill="#EFD1B8" width="7.5" height="7.5"/>
	<rect x="157.5" y="142.505" fill="#E3C7B1" width="7.5" height="7.5"/>
	<rect x="165" y="142.505" fill="#EFD1B8" width="7.5" height="7.5"/>
	<rect x="157.5" y="164.961" fill="#E3C7B1" width="7.5" height="7.5"/>
	<rect x="165" y="164.961" fill="#EFD1B8" width="7.5" height="7.5"/>
	<rect x="165" y="172.461" fill="#EFD1B8" width="7.5" height="7.5"/>
	<rect x="157.5" y="157.476" fill="#E3C7B1" width="7.5" height="7.5"/>
	<rect x="165" y="157.476" fill="#EFD1B8" width="7.5" height="7.5"/>
	<rect x="157.5" y="134.99" fill="#E3C7B1" width="7.5" height="7.5"/>
	<rect x="165" y="134.99" fill="#EFD1B8" width="7.5" height="7.5"/>
	<rect x="157.5" y="127.505" fill="#EDD69F" width="7.5" height="7.5"/>
	<rect x="165" y="127.505" fill="#EFD1B8" width="7.5" height="7.5"/>
	<rect x="172.5" y="134.99" fill="#EFD1B8" width="7.5" height="7.5"/>
	<rect x="172.5" y="127.505" fill="#EFD1B8" width="7.5" height="7.5"/>
	<rect x="127.5" y="120.034" fill="#231F20" width="7.5" height="7.5"/>
	<rect x="135" y="120.034" fill="#231F20" width="7.5" height="7.5"/>
	<rect x="142.5" y="120.034" fill="#231F20" width="7.5" height="7.5"/>
	<rect x="150" y="120.034" fill="#231F20" width="7.5" height="7.5"/>
	<rect x="127.5" y="127.505" fill="#FFFFFF" width="7.5" height="7.5"/>
	<rect x="135" y="127.505" fill="#231F20" width="7.5" height="7.5"/>
	<rect x="142.5" y="127.505" fill="#EFD1B8" width="7.5" height="7.5"/>
	<rect x="150" y="127.505" fill="#EFD1B8" width="7.5" height="7.5"/>
	<rect x="127.5" y="134.99" fill="#231F20" width="7.5" height="7.5"/>
	<rect x="135" y="134.99" fill="#EFCFC0" width="7.5" height="7.5"/>
	<rect x="142.5" y="134.99" fill="#EFD1B8" width="7.5" height="7.5"/>
	<rect x="150" y="134.99" fill="#EFD1B8" width="7.5" height="7.5"/>
	<rect x="127.5" y="142.49" fill="#EFD1B8" width="7.5" height="7.5"/>
	<rect x="135" y="142.49" fill="#EFCFC0" width="7.5" height="7.5"/>
	<rect x="142.5" y="142.49" fill="#EFCFC0" width="7.5" height="7.5"/>
	<rect x="150" y="142.49" fill="#EFD1B8" width="7.5" height="7.5"/>
	<rect x="157.5" y="105.034" fill="#1A1818" width="7.5" height="7.5"/>
	<rect x="165" y="105.034" fill="#1A1818" width="7.5" height="7.5"/>
	<rect x="112.5" y="97.549" fill="#EFD1B8" width="7.5" height="7.5"/>
	<rect x="120" y="97.549" fill="#EFD1B8" width="7.5" height="7.5"/>
	<rect x="127.5" y="97.549" fill="#EFD1B8" width="7.5" height="7.5"/>
	<rect x="135" y="97.549" fill="#EFD1B8" width="7.5" height="7.5"/>
	<rect x="142.5" y="97.549" fill="#EFD1B8" width="7.5" height="7.5"/>
	<rect x="150" y="97.549" fill="#EFD1B8" width="7.5" height="7.5"/>
	<rect x="157.5" y="97.549" fill="#1A1818" width="7.5" height="7.5"/>
	<rect x="157.5" y="90.049" fill="#EFD1B8" width="7.5" height="7.5"/>
	<rect x="165" y="97.549" fill="#323133" width="7.5" height="7.5"/>
	<rect x="157.5" y="112.534" fill="#1A1818" width="7.5" height="7.5"/>
	<rect x="157.5" y="127.505" fill="#323133" width="7.5" height="7.5"/>
	<rect x="165" y="112.534" fill="#1A1818" width="7.5" height="7.5"/>
	<rect x="172.5" y="105.034" fill="#1A1818" width="7.5" height="7.5"/>
	<rect x="157.5" y="82.554" fill="#323133" width="7.5" height="7.5"/>
	<rect x="165" y="90.054" fill="#323133" width="7.5" height="7.5"/>
	<rect x="172.5" y="97.539" fill="#323133" width="7.5" height="7.5"/>
	<rect x="157.5" y="75.063" fill="#323133" width="7.5" height="7.5"/>
	<rect x="165" y="82.563" fill="#323133" width="7.5" height="7.5"/>
	<rect x="172.5" y="90.049" fill="#323133" width="7.5" height="7.5"/>
	<rect x="172.5" y="112.534" fill="#323133" width="7.5" height="7.5"/>
	<rect x="172.5" y="120.034" fill="#EFCFC0" width="7.5" height="7.5"/>
	<rect x="172.5" y="142.505" fill="#1A1818" width="7.5" height="7.5"/>
	<rect x="157.5" y="120.034" fill="#231F20" width="7.5" height="7.5"/>
	<rect x="165" y="120.034" fill="#EFD1B8" width="7.5" height="7.5"/>
	<rect x="142.5" y="187.461" fill="#EFD1B8" width="7.5" height="7.5"/>
	<rect x="135" y="187.446" fill="#A7D6F0" width="7.5" height="7.5"/>
	<rect x="165" y="179.946" fill="#323133" width="7.5" height="7.5"/>
	<rect x="172.5" y="179.946" fill="#323133" width="7.5" height="7.5"/>
	<rect x="150" y="187.446" fill="#EFC8A6" width="7.5" height="7.5"/>
	<rect x="157.5" y="179.961" fill="#EFD1B8" width="7.5" height="7.5"/>
	<rect x="157.5" y="187.446" fill="#A7D6F0" width="7.5" height="7.5"/>
	<rect x="127.5" y="187.446" fill="#A7D6F0" width="7.5" height="7.5"/>
	<rect x="120" y="187.446" fill="#323133" width="7.5" height="7.5"/>
	<rect x="165" y="187.446" fill="#A7D6F0" width="7.5" height="7.5"/>
	<rect x="172.5" y="187.446" fill="#323133" width="7.5" height="7.5"/>
	<rect x="180" y="187.446" fill="#323133" width="7.5" height="7.5"/>
	<rect x="135" y="202.446" fill="#C0DFF2" width="7.5" height="7.5"/>
	<rect x="142.5" y="202.446" fill="#7F95A5" width="7.5" height="7.5"/>
	<rect x="157.5" y="202.446" fill="#C0DFF2" width="7.5" height="7.5"/>
	<rect x="150" y="202.446" fill="#C0DFF2" width="7.5" height="7.5"/>
	<rect x="127.5" y="202.446" fill="#A7D6F0" width="7.5" height="7.5"/>
	<rect x="127.5" y="209.946" fill="#231F20" width="7.5" height="7.5"/>
	<rect x="120" y="202.446" fill="#323133" width="7.5" height="7.5"/>
	<rect x="112.5" y="202.446" fill="#464749" width="7.5" height="7.5"/>
	<rect x="165" y="202.446" fill="#A7D6F0" width="7.5" height="7.5"/>
	<rect x="172.5" y="202.446" fill="#464749" width="7.5" height="7.5"/>
	<rect x="180" y="202.446" fill="#323133" width="7.5" height="7.5"/>
	<rect x="187.5" y="202.446" fill="#323133" width="7.5" height="7.5"/>
	<rect x="135" y="217.446" fill="#C0DFF2" width="7.5" height="7.5"/>
	<rect x="142.5" y="217.446" fill="#7F95A5" width="7.5" height="7.5"/>
	<rect x="157.5" y="217.446" fill="#C0DFF2" width="7.5" height="7.5"/>
	<rect x="150" y="217.446" fill="#C0DFF2" width="7.5" height="7.5"/>
	<rect x="127.5" y="217.446" fill="#464749" width="7.5" height="7.5"/>
	<rect x="120" y="217.446" fill="#323133" width="7.5" height="7.5"/>
	<rect x="112.5" y="217.446" fill="#323133" width="7.5" height="7.5"/>
	<rect x="165" y="217.446" fill="#464749" width="7.5" height="7.5"/>
	<rect x="172.5" y="217.446" fill="#323133" width="7.5" height="7.5"/>
	<rect x="180" y="217.446" fill="#323133" width="7.5" height="7.5"/>
	<rect x="187.5" y="217.446" fill="#231F20" width="7.5" height="7.5"/>
	<rect x="135" y="194.946" fill="#7F95A5" width="7.5" height="7.5"/>
	<rect x="142.5" y="194.946" fill="#6D808E" width="7.5" height="7.5"/>
	<rect x="157.5" y="194.946" fill="#A7D6F0" width="7.5" height="7.5"/>
	<rect x="150" y="194.946" fill="#7F95A5" width="7.5" height="7.5"/>
	<rect x="127.5" y="194.946" fill="#A7D6F0" width="7.5" height="7.5"/>
	<rect x="120" y="194.946" fill="#323133" width="7.5" height="7.5"/>
	<rect x="112.5" y="194.946" fill="#323133" width="7.5" height="7.5"/>
	<rect x="165" y="194.946" fill="#A7D6F0" width="7.5" height="7.5"/>
	<rect x="172.5" y="194.946" fill="#323133" width="7.5" height="7.5"/>
	<rect x="180" y="194.946" fill="#464749" width="7.5" height="7.5"/>
	<rect x="187.5" y="194.946" fill="#323133" width="7.5" height="7.5"/>
	<rect x="135" y="209.946" fill="#C0DFF2" width="7.5" height="7.5"/>
	<rect x="142.5" y="209.946" fill="#6D808E" width="7.5" height="7.5"/>
	<rect x="157.5" y="209.946" fill="#C0DFF2" width="7.5" height="7.5"/>
	<rect x="150" y="209.946" fill="#C0DFF2" width="7.5" height="7.5"/>
	<rect x="127.5" y="209.946" fill="#C0DFF2" width="7.5" height="7.5"/>
	<rect x="120" y="209.946" fill="#464749" width="7.5" height="7.5"/>
	<rect x="112.5" y="209.946" fill="#323133" width="7.5" height="7.5"/>
	<rect x="105" y="202.446" fill="#323133" width="7.5" height="7.5"/>
	<rect x="105" y="194.946" fill="#464749" width="7.5" height="7.5"/>
	<rect x="105" y="217.446" fill="#231F20" width="7.5" height="7.5"/>
	<rect x="105" y="209.946" fill="#323133" width="7.5" height="7.5"/>
	<rect x="97.5" y="202.446" fill="#323133" width="7.5" height="7.5"/>
	<rect x="97.5" y="217.446" fill="#323133" width="7.5" height="7.5"/>
	<rect x="97.5" y="209.946" fill="#323133" width="7.5" height="7.5"/>
	<rect x="165" y="209.946" fill="#464749" width="7.5" height="7.5"/>
	<rect x="172.5" y="209.946" fill="#323133" width="7.5" height="7.5"/>
	<rect x="180" y="209.946" fill="#323133" width="7.5" height="7.5"/>
	<rect x="187.5" y="209.946" fill="#323133" width="7.5" height="7.5"/>
	<rect x="195" y="202.446" fill="#323133" width="7.5" height="7.5"/>
	<rect x="195" y="217.446" fill="#323133" width="7.5" height="7.5"/>
	<rect x="195" y="209.946" fill="#323133" width="7.5" height="7.5"/>
</g>
</svg>
