<?xml version="1.0" encoding="utf-8"?>
<!-- Generator: Adobe Illustrator 16.0.0, SVG Export Plug-In . SVG Version: 6.00 Build 0)  -->
<!DOCTYPE svg PUBLIC "-//W3C//DTD SVG 1.1//EN" "http://www.w3.org/Graphics/SVG/1.1/DTD/svg11.dtd">
<svg version="1.1" id="Layer_1" xmlns="http://www.w3.org/2000/svg" xmlns:xlink="http://www.w3.org/1999/xlink" x="0px" y="0px"
	 width="300px" height="300px" viewBox="0 0 300 300" enable-background="new 0 0 300 300" xml:space="preserve">
<g>
	<rect x="126" y="179.965" fill="#966C3C" width="6" height="6"/>
	<rect x="132" y="179.965" fill="#B9915D" width="6" height="6"/>
	<rect x="138" y="179.965" fill="#B9915D" width="6" height="6"/>
	<rect x="144" y="179.965" fill="#B9915D" width="6" height="6"/>
	<rect x="150" y="179.965" fill="#B9915D" width="6" height="6"/>
	<rect x="132" y="191.965" fill="#6C8991" width="6" height="6"/>
	<rect x="138" y="191.965" fill="#B9915D" width="6" height="6"/>
	<rect x="150" y="191.965" fill="#B9915D" width="6" height="6"/>
	<rect x="144" y="191.965" fill="#966C3C" width="6" height="6"/>
	<rect x="126" y="191.965" fill="#6C8991" width="6" height="6"/>
	<rect x="126" y="197.965" fill="#01243F" width="6" height="6"/>
	<rect x="120" y="191.965" fill="#6C8991" width="6" height="6"/>
	<rect x="114" y="191.965" fill="#B9915D" width="6" height="6"/>
	<rect x="156" y="191.965" fill="#6C8991" width="6" height="6"/>
	<rect x="168" y="191.965" fill="#6C8991" width="6" height="6"/>
	<rect x="174" y="191.965" fill="#B9915D" width="6" height="6"/>
	<rect x="180" y="191.965" fill="#B9915D" width="6" height="6"/>
	<rect x="132" y="203.965" fill="#C7293B" width="6" height="6"/>
	<rect x="138" y="203.965" fill="#C7293B" width="6" height="6"/>
	<rect x="150" y="203.965" fill="#C7293B" width="6" height="6"/>
	<rect x="144" y="203.965" fill="#6C8991" width="6" height="6"/>
	<rect x="126" y="203.965" fill="#6C8991" width="6" height="6"/>
	<rect x="120" y="203.965" fill="#B9915D" width="6" height="6"/>
	<rect x="114" y="203.965" fill="#B9915D" width="6" height="6"/>
	<rect x="156" y="203.965" fill="#C7293B" width="6" height="6"/>
	<rect x="168" y="203.965" fill="#B9915D" width="6" height="6"/>
	<rect x="174" y="203.965" fill="#B9915D" width="6" height="6"/>
	<rect x="180" y="203.965" fill="#B9915D" width="6" height="6"/>
	<rect x="132" y="185.965" fill="#B9915D" width="6" height="6"/>
	<rect x="138" y="185.965" fill="#B9915D" width="6" height="6"/>
	<rect x="150" y="185.965" fill="#B9915D" width="6" height="6"/>
	<rect x="144" y="185.965" fill="#B9915D" width="6" height="6"/>
	<rect x="126" y="185.965" fill="#6C8991" width="6" height="6"/>
	<rect x="120" y="185.965" fill="#6C8991" width="6" height="6"/>
	<rect x="120" y="179.965" fill="#6C8991" width="6" height="6"/>
	<rect x="114" y="179.965" fill="#6C8991" width="6" height="6"/>
	<rect x="114" y="185.965" fill="#B9915D" width="6" height="6"/>
	<rect x="156" y="185.965" fill="#B9915D" width="6" height="6"/>
	<rect x="168" y="185.965" fill="#6C8991" width="6" height="6"/>
	<rect x="174" y="185.965" fill="#B9915D" width="6" height="6"/>
	<rect x="174" y="179.965" fill="#6C8991" width="6" height="6"/>
	<rect x="186" y="179.965" fill="#BEC4C9" width="6" height="6"/>
	<rect x="192" y="179.965" fill="#BEC4C9" width="6" height="6"/>
	<rect x="180" y="179.965" fill="#BEC4C9" width="6" height="6"/>
	<rect x="186" y="173.965" fill="#BEC4C9" width="6" height="6"/>
	<rect x="192" y="173.965" fill="#BEC4C9" width="6" height="6"/>
	<rect x="180" y="173.965" fill="#BEC4C9" width="6" height="6"/>
	<rect x="186" y="167.965" fill="#BEC4C9" width="6" height="6"/>
	<rect x="180" y="167.965" fill="#BEC4C9" width="6" height="6"/>
	<rect x="186" y="161.965" fill="#BEC4C9" width="6" height="6"/>
	<rect x="180" y="161.965" fill="#BEC4C9" width="6" height="6"/>
	<rect x="180" y="185.965" fill="#B9915D" width="6" height="6"/>
	<rect x="132" y="197.965" fill="#6C8991" width="6" height="6"/>
	<rect x="138" y="197.965" fill="#6C8991" width="6" height="6"/>
	<rect x="150" y="197.965" fill="#6C8991" width="6" height="6"/>
	<rect x="144" y="197.965" fill="#6C8991" width="6" height="6"/>
	<rect x="126" y="197.965" fill="#6C8991" width="6" height="6"/>
	<rect x="120" y="197.965" fill="#6C8991" width="6" height="6"/>
	<rect x="114" y="197.965" fill="#C7A881" width="6" height="6"/>
	<rect x="108" y="191.965" fill="#B9915D" width="6" height="6"/>
	<rect x="108" y="185.965" fill="#B9915D" width="6" height="6"/>
	<rect x="108" y="203.965" fill="#B9915D" width="6" height="6"/>
	<rect x="108" y="197.965" fill="#B9915D" width="6" height="6"/>
	<rect x="102" y="191.965" fill="#C7A881" width="6" height="6"/>
	<rect x="102" y="203.965" fill="#B9915D" width="6" height="6"/>
	<rect x="102" y="197.965" fill="#B9915D" width="6" height="6"/>
	<rect x="156" y="197.965" fill="#6C8991" width="6" height="6"/>
	<rect x="162" y="191.965" fill="#6C8991" width="6" height="6"/>
	<rect x="162" y="203.965" fill="#6C8991" width="6" height="6"/>
	<rect x="162" y="185.965" fill="#6C8991" width="6" height="6"/>
	<rect x="162" y="179.965" fill="#B9915D" width="6" height="6"/>
	<rect x="162" y="197.965" fill="#6C8991" width="6" height="6"/>
	<rect x="168" y="197.965" fill="#6C8991" width="6" height="6"/>
	<rect x="174" y="197.965" fill="#B9915D" width="6" height="6"/>
	<rect x="180" y="197.965" fill="#C7A881" width="6" height="6"/>
	<rect x="186" y="191.965" fill="#B9915D" width="6" height="6"/>
	<rect x="186" y="185.965" fill="#B9915D" width="6" height="6"/>
	<rect x="186" y="203.965" fill="#B9915D" width="6" height="6"/>
	<rect x="186" y="197.965" fill="#B9915D" width="6" height="6"/>
	<rect x="192" y="197.965" fill="#B9915D" width="6" height="6"/>
	<rect x="192" y="191.965" fill="#C7A881" width="6" height="6"/>
	<rect x="192" y="203.965" fill="#B9915D" width="6" height="6"/>
	<rect x="156" y="179.965" fill="#B9915D" width="6" height="6"/>
	<rect x="168" y="179.965" fill="#6C8991" width="6" height="6"/>
	<rect x="174" y="173.965" fill="#BEC4C9" width="6" height="6"/>
	<rect x="114" y="96.035" fill="#DAA22D" width="6" height="6"/>
	<rect x="120" y="90.035" fill="#D28C29" width="6" height="6"/>
	<rect x="126" y="90.035" fill="#DAA22D" width="6" height="6"/>
	<rect x="132" y="90.035" fill="#DAA22D" width="6" height="6"/>
	<rect x="120" y="96.035" fill="#DAA22D" width="6" height="6"/>
	<rect x="126" y="96.035" fill="#DAA22D" width="6" height="6"/>
	<rect x="132" y="96.035" fill="#DAA22D" width="6" height="6"/>
	<rect x="108" y="108.027" fill="#DAA22D" width="6" height="6"/>
	<rect x="114" y="108.027" fill="#DAA22D" width="6" height="6"/>
	<rect x="120" y="108.027" fill="#D28C29" width="6" height="6"/>
	<rect x="126" y="108.027" fill="#DAA22D" width="6" height="6"/>
	<rect x="132" y="108.027" fill="#D28C29" width="6" height="6"/>
	<rect x="138" y="108.027" fill="#DAA22D" width="6" height="6"/>
	<rect x="114" y="114.027" fill="#B9915D" width="6" height="6"/>
	<rect x="120" y="114.027" fill="#B9915D" width="6" height="6"/>
	<rect x="126" y="114.027" fill="#DAA22D" width="6" height="6"/>
	<rect x="132" y="114.027" fill="#D28C29" width="6" height="6"/>
	<rect x="138" y="114.027" fill="#DAA22D" width="6" height="6"/>
	<rect x="114" y="120.027" fill="#B9915D" width="6" height="6"/>
	<rect x="108" y="114.027" fill="#966C3C" width="6" height="6"/>
	<rect x="108" y="120.027" fill="#B9915D" width="6" height="6"/>
	<rect x="108" y="126.004" fill="#B9915D" width="6" height="6"/>
	<rect x="114" y="126.004" fill="#4C2E1A" width="6" height="6"/>
	<rect x="108" y="131.988" fill="#B9915D" width="6" height="6"/>
	<rect x="102" y="131.988" fill="#B9915D" width="6" height="6"/>
	<rect x="108" y="138.004" fill="#B9915D" width="6" height="6"/>
	<rect x="114" y="131.988" fill="#B9915D" width="6" height="6"/>
	<rect x="102" y="138.004" fill="#B9915D" width="6" height="6"/>
	<rect x="114" y="138.004" fill="#B9915D" width="6" height="6"/>
	<rect x="108" y="143.988" fill="#B9915D" width="6" height="6"/>
	<rect x="114" y="143.988" fill="#B9915D" width="6" height="6"/>
	<rect x="126" y="143.988" fill="#B9915D" width="6" height="6"/>
	<rect x="120" y="143.988" fill="#B9915D" width="6" height="6"/>
	<rect x="132" y="143.988" fill="#B9915D" width="6" height="6"/>
	<rect x="144" y="143.988" fill="#DAA22D" width="6" height="6"/>
	<rect x="138" y="143.988" fill="#DAA22D" width="6" height="6"/>
	<rect x="126" y="149.98" fill="#222020" width="6" height="6"/>
	<rect x="120" y="149.98" fill="#FFFFFF" width="6" height="6"/>
	<rect x="114" y="149.98" fill="#FFFFFF" width="6" height="6"/>
	<rect x="132" y="149.98" fill="#B9915D" width="6" height="6"/>
	<rect x="138" y="149.98" fill="#D28C29" width="6" height="6"/>
	<rect x="126" y="155.965" fill="#B9915D" width="6" height="6"/>
	<rect x="120" y="155.965" fill="#B9915D" width="6" height="6"/>
	<rect x="114" y="155.965" fill="#B9915D" width="6" height="6"/>
	<rect x="114" y="161.965" fill="#B9915D" width="6" height="6"/>
	<rect x="132" y="155.965" fill="#B9915D" width="6" height="6"/>
	<rect x="138" y="155.965" fill="#B9915D" width="6" height="6"/>
	<rect x="126" y="161.965" fill="#B9915D" width="6" height="6"/>
	<rect x="120" y="161.965" fill="#B9915D" width="6" height="6"/>
	<rect x="132" y="161.965" fill="#966C3C" width="6" height="6"/>
	<rect x="126" y="167.965" fill="#966C3C" width="6" height="6"/>
	<rect x="132" y="167.965" fill="#B9915D" width="6" height="6"/>
	<rect x="132" y="173.965" fill="#966C3C" width="6" height="6"/>
	<rect x="126" y="173.965" fill="#966C3C" width="6" height="6"/>
	<rect x="138" y="167.965" fill="#B9915D" width="6" height="6"/>
	<rect x="138" y="161.965" fill="#B9915D" width="6" height="6"/>
	<rect x="144" y="161.965" fill="#B9915D" width="6" height="6"/>
	<rect x="144" y="167.965" fill="#B9915D" width="6" height="6"/>
	<rect x="150" y="167.965" fill="#B9915D" width="6" height="6"/>
	<rect x="156" y="167.965" fill="#B9915D" width="6" height="6"/>
	<rect x="150" y="161.965" fill="#966C3C" width="6" height="6"/>
	<rect x="156" y="161.965" fill="#B9915D" width="6" height="6"/>
	<rect x="162" y="167.965" fill="#B9915D" width="6" height="6"/>
	<rect x="162" y="161.965" fill="#B9915D" width="6" height="6"/>
	<rect x="144" y="173.965" fill="#B9915D" width="6" height="6"/>
	<rect x="138" y="173.965" fill="#B9915D" width="6" height="6"/>
	<rect x="150" y="173.965" fill="#B9915D" width="6" height="6"/>
	<rect x="156" y="173.965" fill="#B9915D" width="6" height="6"/>
	<rect x="162" y="173.965" fill="#B9915D" width="6" height="6"/>
	<rect x="150" y="143.988" fill="#DAA22D" width="6" height="6"/>
	<rect x="144" y="138.004" fill="#DAA22D" width="6" height="6"/>
	<rect x="150" y="138.004" fill="#D28C29" width="6" height="6"/>
	<rect x="144" y="155.965" fill="#966C3C" width="6" height="6"/>
	<rect x="150" y="155.965" fill="#D28C29" width="6" height="6"/>
	<rect x="144" y="149.98" fill="#DAA22D" width="6" height="6"/>
	<rect x="150" y="149.98" fill="#D28C29" width="6" height="6"/>
	<rect x="156" y="143.988" fill="#DAA22D" width="6" height="6"/>
	<rect x="156" y="138.004" fill="#DAA22D" width="6" height="6"/>
	<rect x="156" y="155.965" fill="#DAA22D" width="6" height="6"/>
	<rect x="156" y="149.98" fill="#DAA22D" width="6" height="6"/>
	<rect x="144" y="131.988" fill="#DAA22D" width="6" height="6"/>
	<rect x="150" y="131.988" fill="#DAA22D" width="6" height="6"/>
	<rect x="144" y="126.004" fill="#DAA22D" width="6" height="6"/>
	<rect x="150" y="126.004" fill="#DAA22D" width="6" height="6"/>
	<rect x="156" y="131.988" fill="#D28C29" width="6" height="6"/>
	<rect x="162" y="143.988" fill="#D28C29" width="6" height="6"/>
	<rect x="162" y="138.004" fill="#D28C29" width="6" height="6"/>
	<rect x="162" y="155.965" fill="#DAA22D" width="6" height="6"/>
	<rect x="162" y="149.98" fill="#D28C29" width="6" height="6"/>
	<rect x="162" y="131.988" fill="#DAA22D" width="6" height="6"/>
	<rect x="162" y="131.988" fill="#DAA22D" width="6" height="6"/>
	<rect x="162" y="126.004" fill="#DAA22D" width="6" height="6"/>
	<rect x="162" y="120.027" fill="#DAA22D" width="6" height="6"/>
	<rect x="168" y="143.988" fill="#DAA22D" width="6" height="6"/>
	<rect x="168" y="138.004" fill="#DAA22D" width="6" height="6"/>
	<rect x="168" y="155.965" fill="#DAA22D" width="6" height="6"/>
	<rect x="174" y="155.965" fill="#D28C29" width="6" height="6"/>
	<rect x="168" y="149.98" fill="#DAA22D" width="6" height="6"/>
	<rect x="174" y="143.988" fill="#DAA22D" width="6" height="6"/>
	<rect x="174" y="149.98" fill="#D28C29" width="6" height="6"/>
	<rect x="180" y="149.98" fill="#DAA22D" width="6" height="6"/>
	<rect x="156" y="126.004" fill="#DAA22D" width="6" height="6"/>
	<rect x="156" y="120.027" fill="#DAA22D" width="6" height="6"/>
	<rect x="156" y="114.027" fill="#DAA22D" width="6" height="6"/>
	<rect x="156" y="108.027" fill="#DAA22D" width="6" height="6"/>
	<rect x="120" y="120.027" fill="#B9915D" width="6" height="6"/>
	<rect x="126" y="120.027" fill="#B9915D" width="6" height="6"/>
	<rect x="132" y="120.027" fill="#966C3C" width="6" height="6"/>
	<rect x="138" y="120.027" fill="#D28C29" width="6" height="6"/>
	<rect x="120" y="126.004" fill="#FFFFFF" width="6" height="6"/>
	<rect x="126" y="126.004" fill="#B9915D" width="6" height="6"/>
	<rect x="132" y="126.004" fill="#B9915D" width="6" height="6"/>
	<rect x="138" y="126.004" fill="#DAA22D" width="6" height="6"/>
	<rect x="120" y="131.988" fill="#B9915D" width="6" height="6"/>
	<rect x="126" y="131.988" fill="#B9915D" width="6" height="6"/>
	<rect x="132" y="131.988" fill="#B9915D" width="6" height="6"/>
	<rect x="138" y="131.988" fill="#D28C29" width="6" height="6"/>
	<rect x="120" y="137.988" fill="#B9915D" width="6" height="6"/>
	<rect x="126" y="137.988" fill="#B9915D" width="6" height="6"/>
	<rect x="132" y="137.988" fill="#222020" width="6" height="6"/>
	<rect x="138" y="137.988" fill="#DAA22D" width="6" height="6"/>
	<rect x="144" y="108.027" fill="#DAA22D" width="6" height="6"/>
	<rect x="150" y="108.027" fill="#DAA22D" width="6" height="6"/>
	<rect x="108" y="102.035" fill="#D28C29" width="6" height="6"/>
	<rect x="114" y="102.035" fill="#DAA22D" width="6" height="6"/>
	<rect x="120" y="102.035" fill="#DAA22D" width="6" height="6"/>
	<rect x="126" y="102.035" fill="#DAA22D" width="6" height="6"/>
	<rect x="132" y="102.035" fill="#D28C29" width="6" height="6"/>
	<rect x="138" y="102.035" fill="#DAA22D" width="6" height="6"/>
	<rect x="144" y="102.035" fill="#DAA22D" width="6" height="6"/>
	<rect x="138" y="96.035" fill="#DAA22D" width="6" height="6"/>
	<rect x="144" y="96.035" fill="#DAA22D" width="6" height="6"/>
	<rect x="144" y="90.035" fill="#DAA22D" width="6" height="6"/>
	<rect x="138" y="90.035" fill="#DAA22D" width="6" height="6"/>
	<rect x="150" y="90.035" fill="#DAA22D" width="6" height="6"/>
	<rect x="150" y="96.035" fill="#DAA22D" width="6" height="6"/>
	<rect x="150" y="102.035" fill="#DAA22D" width="6" height="6"/>
	<rect x="156" y="96.035" fill="#DAA22D" width="6" height="6"/>
	<rect x="156" y="102.035" fill="#DAA22D" width="6" height="6"/>
	<rect x="162" y="114.027" fill="#DAA22D" width="6" height="6"/>
	<rect x="162" y="108.027" fill="#DAA22D" width="6" height="6"/>
	<rect x="168" y="126.004" fill="#DAA22D" width="6" height="6"/>
	<rect x="168" y="120.027" fill="#DAA22D" width="6" height="6"/>
	<rect x="168" y="114.027" fill="#DAA22D" width="6" height="6"/>
	<rect x="174" y="126.004" fill="#DAA22D" width="6" height="6"/>
	<rect x="168" y="131.988" fill="#DAA22D" width="6" height="6"/>
	<rect x="174" y="131.988" fill="#DAA22D" width="6" height="6"/>
	<rect x="174" y="138.004" fill="#D28C29" width="6" height="6"/>
	<rect x="180" y="138.004" fill="#DAA22D" width="6" height="6"/>
	<rect x="180" y="143.988" fill="#DAA22D" width="6" height="6"/>
	<rect x="168" y="108.027" fill="#DAA22D" width="6" height="6"/>
	<rect x="162" y="102.035" fill="#DAA22D" width="6" height="6"/>
	<rect x="144" y="114.027" fill="#DAA22D" width="6" height="6"/>
	<rect x="150" y="114.027" fill="#DAA22D" width="6" height="6"/>
	<rect x="144" y="120.027" fill="#DAA22D" width="6" height="6"/>
	<rect x="150" y="120.027" fill="#DAA22D" width="6" height="6"/>
</g>
</svg>
