<?xml version="1.0" encoding="utf-8"?>
<!-- Generator: Adobe Illustrator 16.0.0, SVG Export Plug-In . SVG Version: 6.00 Build 0)  -->
<!DOCTYPE svg PUBLIC "-//W3C//DTD SVG 1.1//EN" "http://www.w3.org/Graphics/SVG/1.1/DTD/svg11.dtd">
<svg version="1.1" id="Layer_1" xmlns="http://www.w3.org/2000/svg" xmlns:xlink="http://www.w3.org/1999/xlink" x="0px" y="0px"
	 width="300px" height="300px" viewBox="0 0 300 300" enable-background="new 0 0 300 300" xml:space="preserve">
<rect x="123.75" y="90.044" fill="#2F292B" width="7.5" height="7.5"/>
<rect x="131.25" y="90.044" fill="#2F292B" width="7.5" height="7.5"/>
<rect x="138.75" y="90.044" fill="#2F292B" width="7.5" height="7.5"/>
<rect x="146.25" y="90.044" fill="#2F292B" width="7.5" height="7.5"/>
<rect x="116.25" y="105.029" fill="#2F292B" width="7.5" height="7.5"/>
<rect x="123.75" y="105.029" fill="#2F292B" width="7.5" height="7.5"/>
<rect x="131.25" y="105.029" fill="#2F292B" width="7.5" height="7.5"/>
<rect x="138.75" y="105.029" fill="#2F292B" width="7.5" height="7.5"/>
<rect x="146.25" y="105.029" fill="#2F292B" width="7.5" height="7.5"/>
<rect x="153.75" y="105.029" fill="#2F292B" width="7.5" height="7.5"/>
<rect x="116.25" y="112.529" fill="#2F292B" width="7.5" height="7.5"/>
<rect x="108.75" y="112.529" fill="#2F292B" width="7.5" height="7.5"/>
<rect x="108.75" y="105.029" fill="#2F292B" width="7.5" height="7.5"/>
<rect x="108.75" y="97.544" fill="#2F292B" width="7.5" height="7.5"/>
<rect x="101.25" y="105.029" fill="#2F292B" width="7.5" height="7.5"/>
<rect x="123.75" y="112.529" fill="#EDD69F" width="7.5" height="7.5"/>
<rect x="131.25" y="112.529" fill="#EDD69F" width="7.5" height="7.5"/>
<rect x="138.75" y="112.529" fill="#EDD69F" width="7.5" height="7.5"/>
<rect x="146.25" y="112.529" fill="#EDD69F" width="7.5" height="7.5"/>
<rect x="153.75" y="112.529" fill="#EDD69F" width="7.5" height="7.5"/>
<rect x="116.25" y="120.029" fill="#EDD69F" width="7.5" height="7.5"/>
<rect x="123.75" y="120.029" fill="#EDD69F" width="7.5" height="7.5"/>
<rect x="116.25" y="127.5" fill="#EDD69F" width="7.5" height="7.5"/>
<rect x="123.75" y="127.5" fill="#EDD69F" width="7.5" height="7.5"/>
<rect x="116.25" y="134.985" fill="#EDD69F" width="7.5" height="7.5"/>
<rect x="123.75" y="134.985" fill="#EDD69F" width="7.5" height="7.5"/>
<rect x="116.25" y="142.5" fill="#EDD69F" width="7.5" height="7.5"/>
<rect x="123.75" y="142.5" fill="#EDD69F" width="7.5" height="7.5"/>
<rect x="116.25" y="149.985" fill="#BAAE9C" width="7.5" height="7.5"/>
<rect x="108.75" y="142.5" fill="#EDD69F" width="7.5" height="7.5"/>
<rect x="101.25" y="142.5" fill="#EDD69F" width="7.5" height="7.5"/>
<rect x="108.75" y="135" fill="#EDD69F" width="7.5" height="7.5"/>
<rect x="123.75" y="149.985" fill="#BAAE9C" width="7.5" height="7.5"/>
<rect x="138.75" y="149.985" fill="#BAAE9C" width="7.5" height="7.5"/>
<rect x="131.25" y="149.985" fill="#BAAE9C" width="7.5" height="7.5"/>
<rect x="146.25" y="149.985" fill="#BAAE9C" width="7.5" height="7.5"/>
<rect x="161.25" y="149.985" fill="#BAAE9C" width="7.5" height="7.5"/>
<rect x="153.75" y="149.985" fill="#BAAE9C" width="7.5" height="7.5"/>
<rect x="138.75" y="157.471" fill="#FFFFFF" width="7.5" height="7.5"/>
<rect x="131.25" y="157.471" fill="#FFFFFF" width="7.5" height="7.5"/>
<rect x="146.25" y="157.471" fill="#FFFFFF" width="7.5" height="7.5"/>
<rect x="153.75" y="157.471" fill="#C7293B" width="7.5" height="7.5"/>
<rect x="138.75" y="164.956" fill="#ED2A32" width="7.5" height="7.5"/>
<rect x="131.25" y="164.956" fill="#ED2A32" width="7.5" height="7.5"/>
<rect x="146.25" y="164.956" fill="#ED2A32" width="7.5" height="7.5"/>
<rect x="153.75" y="164.956" fill="#BAAE9C" width="7.5" height="7.5"/>
<rect x="138.75" y="172.456" fill="#BAAE9C" width="7.5" height="7.5"/>
<rect x="131.25" y="172.456" fill="#BAAE9C" width="7.5" height="7.5"/>
<rect x="146.25" y="172.456" fill="#BAAE9C" width="7.5" height="7.5"/>
<rect x="138.75" y="179.956" fill="#EDD69F" width="7.5" height="7.5"/>
<rect x="146.25" y="179.956" fill="#EDD69F" width="7.5" height="7.5"/>
<rect x="138.75" y="187.456" fill="#FFFFFF" width="7.5" height="7.5"/>
<rect x="146.25" y="187.456" fill="#FFFFFF" width="7.5" height="7.5"/>
<rect x="153.75" y="179.956" fill="#EDD69F" width="7.5" height="7.5"/>
<rect x="153.75" y="172.456" fill="#BAAE9C" width="7.5" height="7.5"/>
<rect x="161.25" y="172.456" fill="#EDD69F" width="7.5" height="7.5"/>
<rect x="161.25" y="179.956" fill="#C7293B" width="7.5" height="7.5"/>
<rect x="168.75" y="179.956" fill="#C7293B" width="7.5" height="7.5"/>
<rect x="168.75" y="172.456" fill="#C7293B" width="7.5" height="7.5"/>
<rect x="176.25" y="179.956" fill="#ED2A32" width="7.5" height="7.5"/>
<rect x="161.25" y="187.456" fill="#C7293B" width="7.5" height="7.5"/>
<rect x="153.75" y="187.456" fill="#FFFFFF" width="7.5" height="7.5"/>
<rect x="131.25" y="187.456" fill="#C7293B" width="7.5" height="7.5"/>
<rect x="131.25" y="179.956" fill="#C7293B" width="7.5" height="7.5"/>
<rect x="123.75" y="187.456" fill="#C7293B" width="7.5" height="7.5"/>
<rect x="168.75" y="187.456" fill="#C7293B" width="7.5" height="7.5"/>
<rect x="176.25" y="187.456" fill="#ED2A32" width="7.5" height="7.5"/>
<rect x="183.75" y="179.956" fill="#ED2A32" width="7.5" height="7.5"/>
<rect x="183.75" y="187.456" fill="#ED2A32" width="7.5" height="7.5"/>
<rect x="191.25" y="187.456" fill="#ED2A32" width="7.5" height="7.5"/>
<rect x="138.75" y="202.456" fill="#FFFFFF" width="7.5" height="7.5"/>
<rect x="146.25" y="202.456" fill="#C7293B" width="7.5" height="7.5"/>
<rect x="161.25" y="202.456" fill="#FFFFFF" width="7.5" height="7.5"/>
<rect x="153.75" y="202.456" fill="#C7293B" width="7.5" height="7.5"/>
<rect x="131.25" y="202.456" fill="#FFFFFF" width="7.5" height="7.5"/>
<rect x="123.75" y="202.456" fill="#C7293B" width="7.5" height="7.5"/>
<rect x="116.25" y="202.456" fill="#ED2A32" width="7.5" height="7.5"/>
<rect x="168.75" y="202.456" fill="#C7293B" width="7.5" height="7.5"/>
<rect x="176.25" y="202.456" fill="#ED2A32" width="7.5" height="7.5"/>
<rect x="183.75" y="202.456" fill="#ED2A32" width="7.5" height="7.5"/>
<rect x="191.25" y="202.456" fill="#ED2A32" width="7.5" height="7.5"/>
<rect x="138.75" y="217.456" fill="#C7293B" width="7.5" height="7.5"/>
<rect x="146.25" y="217.456" fill="#C7293B" width="7.5" height="7.5"/>
<rect x="161.25" y="217.456" fill="#FFFFFF" width="7.5" height="7.5"/>
<rect x="153.75" y="217.456" fill="#FFFFFF" width="7.5" height="7.5"/>
<rect x="131.25" y="217.456" fill="#FFFFFF" width="7.5" height="7.5"/>
<rect x="123.75" y="217.456" fill="#C7293B" width="7.5" height="7.5"/>
<rect x="116.25" y="217.456" fill="#EDD69F" width="7.5" height="7.5"/>
<rect x="168.75" y="217.456" fill="#C7293B" width="7.5" height="7.5"/>
<rect x="176.25" y="217.456" fill="#EDD69F" width="7.5" height="7.5"/>
<rect x="183.75" y="217.456" fill="#EDD69F" width="7.5" height="7.5"/>
<rect x="191.25" y="217.456" fill="#EDD69F" width="7.5" height="7.5"/>
<rect x="138.75" y="194.956" fill="#C7293B" width="7.5" height="7.5"/>
<rect x="146.25" y="194.956" fill="#C7293B" width="7.5" height="7.5"/>
<rect x="161.25" y="194.956" fill="#C7293B" width="7.5" height="7.5"/>
<rect x="153.75" y="194.956" fill="#C7293B" width="7.5" height="7.5"/>
<rect x="131.25" y="194.956" fill="#C7293B" width="7.5" height="7.5"/>
<rect x="123.75" y="194.956" fill="#C7293B" width="7.5" height="7.5"/>
<rect x="116.25" y="194.956" fill="#EF5446" width="7.5" height="7.5"/>
<rect x="168.75" y="194.956" fill="#C7293B" width="7.5" height="7.5"/>
<rect x="176.25" y="194.956" fill="#EF5446" width="7.5" height="7.5"/>
<rect x="183.75" y="194.956" fill="#EF5446" width="7.5" height="7.5"/>
<rect x="191.25" y="194.956" fill="#EF5446" width="7.5" height="7.5"/>
<rect x="138.75" y="209.956" fill="#C7293B" width="7.5" height="7.5"/>
<rect x="146.25" y="209.956" fill="#FFFFFF" width="7.5" height="7.5"/>
<rect x="161.25" y="209.956" fill="#FFFFFF" width="7.5" height="7.5"/>
<rect x="153.75" y="209.956" fill="#C7293B" width="7.5" height="7.5"/>
<rect x="131.25" y="209.956" fill="#FFFFFF" width="7.5" height="7.5"/>
<rect x="123.75" y="209.956" fill="#C7293B" width="7.5" height="7.5"/>
<rect x="116.25" y="209.956" fill="#EF5446" width="7.5" height="7.5"/>
<rect x="168.75" y="209.956" fill="#C7293B" width="7.5" height="7.5"/>
<rect x="176.25" y="209.956" fill="#EF5446" width="7.5" height="7.5"/>
<rect x="183.75" y="209.956" fill="#EF5446" width="7.5" height="7.5"/>
<rect x="191.25" y="209.956" fill="#EF5446" width="7.5" height="7.5"/>
<rect x="176.25" y="172.456" fill="#C7293B" width="7.5" height="7.5"/>
<rect x="168.75" y="149.985" fill="#EDD69F" width="7.5" height="7.5"/>
<rect x="161.25" y="142.5" fill="#EDD69F" width="7.5" height="7.5"/>
<rect x="168.75" y="142.5" fill="#EDD69F" width="7.5" height="7.5"/>
<rect x="161.25" y="164.956" fill="#BAAE9C" width="7.5" height="7.5"/>
<rect x="168.75" y="164.956" fill="#EDD69F" width="7.5" height="7.5"/>
<rect x="161.25" y="157.471" fill="#BAAE9C" width="7.5" height="7.5"/>
<rect x="168.75" y="157.471" fill="#EDD69F" width="7.5" height="7.5"/>
<rect x="161.25" y="134.985" fill="#2F292B" width="7.5" height="7.5"/>
<rect x="168.75" y="134.985" fill="#EDD69F" width="7.5" height="7.5"/>
<rect x="161.25" y="127.5" fill="#2F292B" width="7.5" height="7.5"/>
<rect x="168.75" y="127.5" fill="#2F292B" width="7.5" height="7.5"/>
<rect x="176.25" y="134.985" fill="#EDD69F" width="7.5" height="7.5"/>
<rect x="176.25" y="127.5" fill="#EDD69F" width="7.5" height="7.5"/>
<rect x="131.25" y="120.029" fill="#2F292B" width="7.5" height="7.5"/>
<rect x="138.75" y="120.029" fill="#2F292B" width="7.5" height="7.5"/>
<rect x="146.25" y="120.029" fill="#EDD69F" width="7.5" height="7.5"/>
<rect x="153.75" y="120.029" fill="#EDD69F" width="7.5" height="7.5"/>
<rect x="131.25" y="127.5" fill="#EDD69F" width="7.5" height="7.5"/>
<rect x="138.75" y="127.5" fill="#EDD69F" width="7.5" height="7.5"/>
<rect x="146.25" y="127.5" fill="#EDD69F" width="7.5" height="7.5"/>
<rect x="153.75" y="127.5" fill="#EDD69F" width="7.5" height="7.5"/>
<rect x="131.25" y="134.985" fill="#2F292B" width="7.5" height="7.5"/>
<rect x="138.75" y="134.985" fill="#FFFFFF" width="7.5" height="7.5"/>
<rect x="146.25" y="134.985" fill="#EDD69F" width="7.5" height="7.5"/>
<rect x="153.75" y="134.985" fill="#EDD69F" width="7.5" height="7.5"/>
<rect x="131.25" y="142.485" fill="#EDD69F" width="7.5" height="7.5"/>
<rect x="138.75" y="142.485" fill="#EDD69F" width="7.5" height="7.5"/>
<rect x="146.25" y="142.485" fill="#EDD69F" width="7.5" height="7.5"/>
<rect x="153.75" y="142.485" fill="#EDD69F" width="7.5" height="7.5"/>
<rect x="161.25" y="105.029" fill="#2F292B" width="7.5" height="7.5"/>
<rect x="168.75" y="105.029" fill="#2F292B" width="7.5" height="7.5"/>
<rect x="168.75" y="97.544" fill="#2F292B" width="7.5" height="7.5"/>
<rect x="123.75" y="82.544" fill="#2F292B" width="7.5" height="7.5"/>
<rect x="161.25" y="90.044" fill="#2F292B" width="7.5" height="7.5"/>
<rect x="153.75" y="82.544" fill="#2F292B" width="7.5" height="7.5"/>
<rect x="131.25" y="82.544" fill="#808083" width="7.5" height="7.5"/>
<rect x="131.25" y="75.044" fill="#2F292B" width="7.5" height="7.5"/>
<rect x="138.75" y="82.544" fill="#2F292B" width="7.5" height="7.5"/>
<rect x="176.25" y="105.029" fill="#2F292B" width="7.5" height="7.5"/>
<rect x="176.25" y="112.529" fill="#2F292B" width="7.5" height="7.5"/>
<rect x="176.328" y="120.029" fill="#2F292B" width="7.5" height="7.5"/>
<rect x="183.75" y="112.529" fill="#2F292B" width="7.5" height="7.5"/>
<rect x="183.75" y="105.029" fill="#2F292B" width="7.5" height="7.5"/>
<rect x="176.25" y="97.544" fill="#2F292B" width="7.5" height="7.5"/>
<rect x="168.75" y="90.044" fill="#2F292B" width="7.5" height="7.5"/>
<rect x="153.75" y="90.044" fill="#2F292B" width="7.5" height="7.5"/>
<rect x="116.25" y="97.544" fill="#808083" width="7.5" height="7.5"/>
<rect x="116.25" y="90.044" fill="#2F292B" width="7.5" height="7.5"/>
<rect x="123.75" y="97.544" fill="#2F292B" width="7.5" height="7.5"/>
<rect x="131.25" y="97.544" fill="#2F292B" width="7.5" height="7.5"/>
<rect x="138.75" y="97.544" fill="#2F292B" width="7.5" height="7.5"/>
<rect x="146.25" y="97.544" fill="#2F292B" width="7.5" height="7.5"/>
<rect x="153.75" y="97.544" fill="#808083" width="7.5" height="7.5"/>
<rect x="161.25" y="97.544" fill="#2F292B" width="7.5" height="7.5"/>
<rect x="161.25" y="112.529" fill="#2F292B" width="7.5" height="7.5"/>
<rect x="168.75" y="112.529" fill="#808083" width="7.5" height="7.5"/>
<rect x="161.25" y="120.029" fill="#2F292B" width="7.5" height="7.5"/>
<rect x="168.75" y="120.029" fill="#2F292B" width="7.5" height="7.5"/>
</svg>
