<?xml version="1.0" encoding="utf-8"?>
<!-- Generator: Adobe Illustrator 16.0.0, SVG Export Plug-In . SVG Version: 6.00 Build 0)  -->
<!DOCTYPE svg PUBLIC "-//W3C//DTD SVG 1.1//EN" "http://www.w3.org/Graphics/SVG/1.1/DTD/svg11.dtd">
<svg version="1.1" id="Layer_1" xmlns="http://www.w3.org/2000/svg" xmlns:xlink="http://www.w3.org/1999/xlink" x="0px" y="0px"
	 width="300px" height="300px" viewBox="0 0 300 300" enable-background="new 0 0 300 300" xml:space="preserve">
<g>
	<rect x="126" y="108.023" fill="#BE8961" width="6" height="6"/>
	<rect x="132" y="108.023" fill="#BE8961" width="6" height="6"/>
	<rect x="138" y="108.023" fill="#373737" width="6" height="6"/>
	<rect x="144" y="108.023" fill="#BE8961" width="6" height="6"/>
	<rect x="150" y="108.023" fill="#2F292B" width="6" height="6"/>
	<rect x="120" y="114.023" fill="#BE8961" width="6" height="6"/>
	<rect x="126" y="114.023" fill="#2F292B" width="6" height="6"/>
	<rect x="132" y="114.023" fill="#2F292B" width="6" height="6"/>
	<rect x="138" y="114.023" fill="#865F36" width="6" height="6"/>
	<rect x="144" y="114.023" fill="#BE8961" width="6" height="6"/>
	<rect x="150" y="114.023" fill="#2F292B" width="6" height="6"/>
	<rect x="120" y="120.023" fill="#BE8961" width="6" height="6"/>
	<rect x="126" y="120.023" fill="#BE8961" width="6" height="6"/>
	<rect x="120" y="126" fill="#BE8961" width="6" height="6"/>
	<rect x="126" y="126" fill="#BE8961" width="6" height="6"/>
	<rect x="120" y="131.988" fill="#BE8961" width="6" height="6"/>
	<rect x="126" y="131.988" fill="#BE8961" width="6" height="6"/>
	<rect x="120" y="138" fill="#BE8961" width="6" height="6"/>
	<rect x="126" y="138" fill="#BE8961" width="6" height="6"/>
	<rect x="120" y="143.988" fill="#2F292B" width="6" height="6"/>
	<rect x="114" y="138" fill="#BE8961" width="6" height="6"/>
	<rect x="114" y="132" fill="#BE8961" width="6" height="6"/>
	<rect x="126" y="143.988" fill="#2F292B" width="6" height="6"/>
	<rect x="138" y="143.988" fill="#2F292B" width="6" height="6"/>
	<rect x="132" y="143.988" fill="#2F292B" width="6" height="6"/>
	<rect x="144" y="143.988" fill="#2F292B" width="6" height="6"/>
	<rect x="156" y="143.988" fill="#2F292B" width="6" height="6"/>
	<rect x="150" y="143.988" fill="#2F292B" width="6" height="6"/>
	<rect x="138" y="149.977" fill="#FFFFFF" width="6" height="6"/>
	<rect x="132" y="149.977" fill="#FFFFFF" width="6" height="6"/>
	<rect x="144" y="149.977" fill="#FFFFFF" width="6" height="6"/>
	<rect x="150" y="149.977" fill="#BB807B" width="6" height="6"/>
	<rect x="138" y="155.965" fill="#2F292B" width="6" height="6"/>
	<rect x="132" y="155.965" fill="#2F292B" width="6" height="6"/>
	<rect x="144" y="155.965" fill="#2F292B" width="6" height="6"/>
	<rect x="150" y="155.965" fill="#2F292B" width="6" height="6"/>
	<rect x="138" y="161.965" fill="#2F292B" width="6" height="6"/>
	<rect x="132" y="161.965" fill="#2F292B" width="6" height="6"/>
	<rect x="144" y="161.965" fill="#2F292B" width="6" height="6"/>
	<rect x="144" y="173.965" fill="#865F36" width="6" height="6"/>
	<rect x="138" y="179.965" fill="#F8CF0A" width="6" height="6"/>
	<rect x="138" y="173.965" fill="#34A7D0" width="6" height="6"/>
	<rect x="132" y="173.965" fill="#1C6A9C" width="6" height="6"/>
	<rect x="144" y="179.965" fill="#BE8961" width="6" height="6"/>
	<rect x="150" y="173.965" fill="#BE8961" width="6" height="6"/>
	<rect x="150" y="161.965" fill="#2F292B" width="6" height="6"/>
	<rect x="156" y="161.965" fill="#865F36" width="6" height="6"/>
	<rect x="156" y="173.965" fill="#BE8961" width="6" height="6"/>
	<rect x="144" y="167.965" fill="#865F36" width="6" height="6"/>
	<rect x="150" y="167.965" fill="#865F36" width="6" height="6"/>
	<rect x="156" y="167.965" fill="#BE8961" width="6" height="6"/>
	<rect x="156" y="179.965" fill="#BE8961" width="6" height="6"/>
	<rect x="150" y="179.965" fill="#BE8961" width="6" height="6"/>
	<rect x="132" y="179.965" fill="#98937E" width="6" height="6"/>
	<rect x="126" y="179.965" fill="#B4AC93" width="6" height="6"/>
	<rect x="162" y="179.965" fill="#1C6A9C" width="6" height="6"/>
	<rect x="162" y="173.965" fill="#8A281C" width="6" height="6"/>
	<rect x="167.98" y="173.965" fill="#F8CF0A" width="6" height="6"/>
	<rect x="168" y="179.965" fill="#98937E" width="6" height="6"/>
	<rect x="174" y="179.965" fill="#B4AC93" width="6" height="6"/>
	<rect x="138" y="191.965" fill="#7D7967" width="6" height="6"/>
	<rect x="144" y="191.965" fill="#DBAC27" width="6" height="6"/>
	<rect x="156" y="191.965" fill="#8EC6DA" width="6" height="6"/>
	<rect x="150" y="191.965" fill="#F1D7C4" width="6" height="6"/>
	<rect x="132" y="191.965" fill="#98937E" width="6" height="6"/>
	<rect x="132" y="197.965" fill="#98937E" width="6" height="6"/>
	<rect x="126" y="191.965" fill="#98937E" width="6" height="6"/>
	<rect x="120" y="191.965" fill="#98937E" width="6" height="6"/>
	<rect x="162" y="191.965" fill="#7D7967" width="6" height="6"/>
	<rect x="168" y="191.965" fill="#98937E" width="6" height="6"/>
	<rect x="174" y="191.965" fill="#98937E" width="6" height="6"/>
	<rect x="180" y="191.965" fill="#98937E" width="6" height="6"/>
	<rect x="138" y="203.965" fill="#98937E" width="6" height="6"/>
	<rect x="144" y="203.965" fill="#98937E" width="6" height="6"/>
	<rect x="156" y="203.965" fill="#98937E" width="6" height="6"/>
	<rect x="150" y="203.965" fill="#98937E" width="6" height="6"/>
	<rect x="132" y="203.965" fill="#98937E" width="6" height="6"/>
	<rect x="126" y="203.965" fill="#7D7967" width="6" height="6"/>
	<rect x="120" y="203.965" fill="#98937E" width="6" height="6"/>
	<rect x="162" y="203.965" fill="#98937E" width="6" height="6"/>
	<rect x="168" y="203.965" fill="#7D7967" width="6" height="6"/>
	<rect x="174" y="203.965" fill="#98937E" width="6" height="6"/>
	<rect x="180" y="203.965" fill="#98937E" width="6" height="6"/>
	<rect x="138" y="185.965" fill="#F1D7C4" width="6" height="6"/>
	<rect x="144" y="185.965" fill="#8A281C" width="6" height="6"/>
	<rect x="156" y="185.965" fill="#8A281C" width="6" height="6"/>
	<rect x="150" y="185.965" fill="#BE8961" width="6" height="6"/>
	<rect x="132" y="185.965" fill="#98937E" width="6" height="6"/>
	<rect x="126" y="185.965" fill="#98937E" width="6" height="6"/>
	<rect x="120" y="185.965" fill="#B4AC93" width="6" height="6"/>
	<rect x="162" y="185.965" fill="#FFFFFF" width="6" height="6"/>
	<rect x="168" y="185.965" fill="#98937E" width="6" height="6"/>
	<rect x="174" y="185.965" fill="#98937E" width="6" height="6"/>
	<rect x="180" y="185.965" fill="#B4AC93" width="6" height="6"/>
	<rect x="138" y="197.965" fill="#98937E" width="6" height="6"/>
	<rect x="144" y="197.965" fill="#7D7967" width="6" height="6"/>
	<rect x="156" y="197.965" fill="#7D7967" width="6" height="6"/>
	<rect x="150" y="197.965" fill="#7D7967" width="6" height="6"/>
	<rect x="132" y="197.965" fill="#98937E" width="6" height="6"/>
	<rect x="126" y="197.965" fill="#7D7967" width="6" height="6"/>
	<rect x="120" y="197.965" fill="#98937E" width="6" height="6"/>
	<rect x="162" y="197.965" fill="#98937E" width="6" height="6"/>
	<rect x="168" y="197.965" fill="#7D7967" width="6" height="6"/>
	<rect x="174" y="197.965" fill="#98937E" width="6" height="6"/>
	<rect x="180" y="197.965" fill="#98937E" width="6" height="6"/>
	<rect x="162" y="143.988" fill="#865F36" width="6" height="6"/>
	<rect x="156" y="138" fill="#2F292B" width="6" height="6"/>
	<rect x="162" y="138" fill="#BE8961" width="6" height="6"/>
	<rect x="156" y="155.965" fill="#865F36" width="6" height="6"/>
	<rect x="156" y="149.977" fill="#2F292B" width="6" height="6"/>
	<rect x="162" y="149.977" fill="#2F292B" width="6" height="6"/>
	<rect x="167.98" y="138.008" fill="#373737" width="6" height="6"/>
	<rect x="167.98" y="143.996" fill="#2F292B" width="6" height="6"/>
	<rect x="156" y="131.988" fill="#2F292B" width="6" height="6"/>
	<rect x="162" y="131.988" fill="#865F36" width="6" height="6"/>
	<rect x="156" y="126" fill="#2F292B" width="6" height="6"/>
	<rect x="162" y="126" fill="#BE8961" width="6" height="6"/>
	<rect x="168" y="131.988" fill="#BE8961" width="6" height="6"/>
	<rect x="168" y="126" fill="#BE8961" width="6" height="6"/>
	<rect x="132" y="120.023" fill="#BE8961" width="6" height="6"/>
	<rect x="138" y="120.023" fill="#BE8961" width="6" height="6"/>
	<rect x="144" y="120.023" fill="#BE8961" width="6" height="6"/>
	<rect x="150" y="120.023" fill="#BE8961" width="6" height="6"/>
	<rect x="132" y="126" fill="#B7803B" width="6" height="6"/>
	<rect x="138" y="126" fill="#FFFFFF" width="6" height="6"/>
	<rect x="132" y="126" fill="#2F292B" width="6" height="6"/>
	<rect x="144" y="126" fill="#BE8961" width="6" height="6"/>
	<rect x="150" y="126" fill="#BE8961" width="6" height="6"/>
	<rect x="132" y="131.988" fill="#946A41" width="6" height="6"/>
	<rect x="138" y="131.988" fill="#BE8961" width="6" height="6"/>
	<rect x="144" y="131.988" fill="#BE8961" width="6" height="6"/>
	<rect x="150" y="131.988" fill="#BE8961" width="6" height="6"/>
	<rect x="132" y="137.988" fill="#BE8961" width="6" height="6"/>
	<rect x="138" y="137.988" fill="#BE8961" width="6" height="6"/>
	<rect x="144" y="137.988" fill="#BE8961" width="6" height="6"/>
	<rect x="150" y="137.988" fill="#BE8961" width="6" height="6"/>
	<rect x="156" y="108.023" fill="#2F292B" width="6" height="6"/>
	<rect x="162" y="108.023" fill="#2F292B" width="6" height="6"/>
	<rect x="126" y="102.035" fill="#BE8961" width="6" height="6"/>
	<rect x="120" y="108.023" fill="#BE8961" width="6" height="6"/>
	<rect x="120" y="102.035" fill="#BE8961" width="6" height="6"/>
	<rect x="120" y="96.035" fill="#2F292B" width="6" height="6"/>
	<rect x="114" y="102.035" fill="#2F292B" width="6" height="6"/>
	<rect x="132" y="102.035" fill="#2F292B" width="6" height="6"/>
	<rect x="138" y="102.035" fill="#BE8961" width="6" height="6"/>
	<rect x="144" y="102.035" fill="#2F292B" width="6" height="6"/>
	<rect x="150" y="102.035" fill="#2F292B" width="6" height="6"/>
	<rect x="126" y="96.035" fill="#2F292B" width="6" height="6"/>
	<rect x="132" y="96.035" fill="#2F292B" width="6" height="6"/>
	<rect x="138" y="96.035" fill="#2F292B" width="6" height="6"/>
	<rect x="144" y="96.035" fill="#2F292B" width="6" height="6"/>
	<rect x="150" y="96.035" fill="#2F292B" width="6" height="6"/>
	<rect x="156" y="102.035" fill="#2F292B" width="6" height="6"/>
	<rect x="156" y="96.035" fill="#2F292B" width="6" height="6"/>
	<rect x="126" y="90.035" fill="#2F292B" width="6" height="6"/>
	<rect x="132" y="90.035" fill="#2F292B" width="6" height="6"/>
	<rect x="138" y="90.035" fill="#2F292B" width="6" height="6"/>
	<rect x="144" y="90.035" fill="#2F292B" width="6" height="6"/>
	<rect x="150" y="90.035" fill="#2F292B" width="6" height="6"/>
	<rect x="162" y="102.035" fill="#373737" width="6" height="6"/>
	<rect x="162" y="96.035" fill="#2F292B" width="6" height="6"/>
	<rect x="156" y="114.023" fill="#2F292B" width="6" height="6"/>
	<rect x="162" y="114.023" fill="#373737" width="6" height="6"/>
	<rect x="156" y="120.023" fill="#2F292B" width="6" height="6"/>
	<rect x="162" y="120.023" fill="#2F292B" width="6" height="6"/>
	<rect x="168" y="108.023" fill="#2F292B" width="6" height="6"/>
	<rect x="168" y="102.035" fill="#2F292B" width="6" height="6"/>
	<rect x="168" y="114.023" fill="#2F292B" width="6" height="6"/>
	<rect x="168" y="120.023" fill="#2F292B" width="6" height="6"/>
	<rect x="174" y="114.023" fill="#2F292B" width="6" height="6"/>
	<rect x="174" y="120.023" fill="#373737" width="6" height="6"/>
	<rect x="174" y="126" fill="#2F292B" width="6" height="6"/>
	<rect x="174" y="132" fill="#2F292B" width="6" height="6"/>
	<rect x="174" y="138.008" fill="#2F292B" width="6" height="6"/>
	<rect x="174" y="144.008" fill="#2F292B" width="6" height="6"/>
	<rect x="167.98" y="149.973" fill="#373737" width="6" height="6"/>
	<rect x="174" y="149.984" fill="#2F292B" width="6" height="6"/>
	<rect x="161.973" y="155.961" fill="#2F292B" width="6" height="6"/>
	<rect x="167.988" y="155.973" fill="#2F292B" width="6" height="6"/>
	<rect x="180" y="126" fill="#2F292B" width="6" height="6"/>
	<rect x="180" y="132" fill="#2F292B" width="6" height="6"/>
	<rect x="180" y="138.008" fill="#373737" width="6" height="6"/>
	<rect x="180" y="144.008" fill="#2F292B" width="6" height="6"/>
</g>
</svg>
