<?xml version="1.0" encoding="utf-8"?>
<!-- Generator: Adobe Illustrator 16.0.0, SVG Export Plug-In . SVG Version: 6.00 Build 0)  -->
<!DOCTYPE svg PUBLIC "-//W3C//DTD SVG 1.1//EN" "http://www.w3.org/Graphics/SVG/1.1/DTD/svg11.dtd">
<svg version="1.1" id="Layer_1" xmlns="http://www.w3.org/2000/svg" xmlns:xlink="http://www.w3.org/1999/xlink" x="0px" y="0px"
	 width="300px" height="300px" viewBox="0 0 300 300" enable-background="new 0 0 300 300" xml:space="preserve">
<g>
	<rect x="168" y="144.031" fill="#EDD69F" width="6" height="6"/>
	<rect x="168" y="138.043" fill="#EDD69F" width="6" height="6"/>
	<rect x="120" y="96.105" fill="#4D301C" width="6" height="6"/>
	<rect x="120" y="90.047" fill="#734A1D" width="6" height="6"/>
	<rect x="126" y="96.105" fill="#734A1D" width="6" height="6"/>
	<rect x="132" y="96.105" fill="#4D301C" width="6" height="6"/>
	<rect x="120" y="108.094" fill="#4D301C" width="6" height="6"/>
	<rect x="126" y="108.094" fill="#734A1D" width="6" height="6"/>
	<rect x="132" y="108.094" fill="#4D301C" width="6" height="6"/>
	<rect x="138" y="108.094" fill="#734A1D" width="6" height="6"/>
	<rect x="144" y="108.094" fill="#CEA980" width="6" height="6"/>
	<rect x="150" y="108.094" fill="#CEA980" width="6" height="6"/>
	<rect x="120" y="114.094" fill="#EDD69F" width="6" height="6"/>
	<rect x="126" y="114.094" fill="#EDD69F" width="6" height="6"/>
	<rect x="132" y="114.094" fill="#EDD69F" width="6" height="6"/>
	<rect x="138" y="114.094" fill="#EDD69F" width="6" height="6"/>
	<rect x="144" y="114.094" fill="#734A1D" width="6" height="6"/>
	<rect x="150" y="114.094" fill="#4D301C" width="6" height="6"/>
	<rect x="120" y="120.094" fill="#EEE1BF" width="6" height="6"/>
	<rect x="126" y="120.094" fill="#EEE1BF" width="6" height="6"/>
	<rect x="120" y="126.07" fill="#D5CBAD" width="6" height="6"/>
	<rect x="126" y="126.07" fill="#D5CBAD" width="6" height="6"/>
	<rect x="120" y="138.031" fill="#EDD69F" width="6" height="6"/>
	<rect x="126" y="138.031" fill="#4C2F1C" width="6" height="6"/>
	<rect x="120" y="144.043" fill="#EDD69F" width="6" height="6"/>
	<rect x="126" y="144.043" fill="#EEE1BF" width="6" height="6"/>
	<rect x="120" y="150.031" fill="#2F292B" width="6" height="6"/>
	<rect x="114" y="144.043" fill="#EDD69F" width="6" height="6"/>
	<rect x="126" y="150.031" fill="#4D301C" width="6" height="6"/>
	<rect x="138" y="150.031" fill="#6E5D55" width="6" height="6"/>
	<rect x="132" y="150.031" fill="#6E5D55" width="6" height="6"/>
	<rect x="144" y="150.031" fill="#EBC297" width="6" height="6"/>
	<rect x="156" y="150.031" fill="#B4AC93" width="6" height="6"/>
	<rect x="150" y="150.031" fill="#EEE1BF" width="6" height="6"/>
	<rect x="138" y="156.02" fill="#FFFFFF" width="6" height="6"/>
	<rect x="132" y="156.02" fill="#FFFFFF" width="6" height="6"/>
	<rect x="144" y="156.02" fill="#BB807B" width="6" height="6"/>
	<rect x="150" y="156.02" fill="#EDD69F" width="6" height="6"/>
	<rect x="138" y="162.008" fill="#D28F8C" width="6" height="6"/>
	<rect x="132" y="162.008" fill="#D28F8C" width="6" height="6"/>
	<rect x="144" y="162.008" fill="#EEE1BF" width="6" height="6"/>
	<rect x="150" y="162.008" fill="#B4AC93" width="6" height="6"/>
	<rect x="138" y="168.008" fill="#84796C" width="6" height="6"/>
	<rect x="132" y="168.008" fill="#2F292B" width="6" height="6"/>
	<rect x="144" y="168.008" fill="#84796C" width="6" height="6"/>
	<rect x="138" y="174.008" fill="#B4AC93" width="6" height="6"/>
	<rect x="144" y="174.008" fill="#EDD69F" width="6" height="6"/>
	<rect x="150" y="174.008" fill="#EDD69F" width="6" height="6"/>
	<rect x="138" y="179.977" fill="#EEE1BF" width="6" height="6"/>
	<rect x="144" y="179.977" fill="#EDD69F" width="6" height="6"/>
	<rect x="150" y="179.977" fill="#EDD69F" width="6" height="6"/>
	<rect x="150" y="168.008" fill="#84796C" width="6" height="6"/>
	<rect x="162" y="150.031" fill="#EDD69F" width="6" height="6"/>
	<rect x="156" y="144.043" fill="#4D301C" width="6" height="6"/>
	<rect x="162" y="144.043" fill="#EDD69F" width="6" height="6"/>
	<rect x="156" y="162.008" fill="#84796C" width="6" height="6"/>
	<rect x="156" y="156.02" fill="#B4AC93" width="6" height="6"/>
	<rect x="156" y="138.031" fill="#4D301C" width="6" height="6"/>
	<rect x="162" y="138.031" fill="#EEE1BF" width="6" height="6"/>
	<rect x="156" y="126.07" fill="#734A1D" width="6" height="6"/>
	<rect x="162" y="126.07" fill="#B68D63" width="6" height="6"/>
	<rect x="132" y="120.094" fill="#EEE1BF" width="6" height="6"/>
	<rect x="138" y="120.094" fill="#EDD69F" width="6" height="6"/>
	<rect x="144" y="120.094" fill="#EDD69F" width="6" height="6"/>
	<rect x="150" y="120.094" fill="#734A1D" width="6" height="6"/>
	<rect x="132" y="126.07" fill="#EDD69F" width="6" height="6"/>
	<rect x="138" y="126.07" fill="#EDD69F" width="6" height="6"/>
	<rect x="144" y="126.07" fill="#EDD69F" width="6" height="6"/>
	<rect x="150" y="126.07" fill="#4D301C" width="6" height="6"/>
	<rect x="120" y="132.043" fill="#EDD69F" width="6" height="6"/>
	<rect x="126" y="132.043" fill="#84796C" width="6" height="6"/>
	<rect x="156" y="132.043" fill="#4D301C" width="6" height="6"/>
	<rect x="162" y="132.043" fill="#4D301C" width="6" height="6"/>
	<rect x="168" y="132.043" fill="#734A1D" width="6" height="6"/>
	<rect x="132" y="132.043" fill="#84796C" width="6" height="6"/>
	<rect x="138" y="132.043" fill="#84796C" width="6" height="6"/>
	<rect x="144" y="132.043" fill="#EDD69F" width="6" height="6"/>
	<rect x="150" y="132.043" fill="#734A1D" width="6" height="6"/>
	<rect x="132" y="138.031" fill="#FFFFFF" width="6" height="6"/>
	<rect x="138" y="138.031" fill="#EDD69F" width="6" height="6"/>
	<rect x="144" y="138.031" fill="#EDD69F" width="6" height="6"/>
	<rect x="150" y="138.031" fill="#EDD69F" width="6" height="6"/>
	<rect x="132" y="144.031" fill="#EDD69F" width="6" height="6"/>
	<rect x="138" y="144.031" fill="#F0D0B4" width="6" height="6"/>
	<rect x="144" y="144.031" fill="#EEE1BF" width="6" height="6"/>
	<rect x="150" y="144.031" fill="#EDD69F" width="6" height="6"/>
	<rect x="156" y="108.094" fill="#CEA980" width="6" height="6"/>
	<rect x="162" y="108.094" fill="#CEA980" width="6" height="6"/>
	<rect x="120" y="102.105" fill="#734A1D" width="6" height="6"/>
	<rect x="126" y="102.105" fill="#4D301C" width="6" height="6"/>
	<rect x="132" y="102.105" fill="#734A1D" width="6" height="6"/>
	<rect x="138" y="102.105" fill="#4D301C" width="6" height="6"/>
	<rect x="144" y="102.105" fill="#CEA980" width="6" height="6"/>
	<rect x="150" y="102.105" fill="#CEA980" width="6" height="6"/>
	<rect x="156" y="102.105" fill="#CEA980" width="6" height="6"/>
	<rect x="162" y="102.105" fill="#CEA980" width="6" height="6"/>
	<rect x="168" y="108.047" fill="#CEA980" width="6" height="6"/>
	<rect x="156" y="114.094" fill="#4D301C" width="6" height="6"/>
	<rect x="162" y="114.094" fill="#CEA980" width="6" height="6"/>
	<rect x="156" y="120.094" fill="#4D301C" width="6" height="6"/>
	<rect x="162" y="120.094" fill="#CEA980" width="6" height="6"/>
	<rect x="168" y="114.094" fill="#CEA980" width="6" height="6"/>
	<rect x="168" y="120.094" fill="#CEA980" width="6" height="6"/>
	<rect x="168" y="126.07" fill="#CEA980" width="6" height="6"/>
	<rect x="174" y="126.07" fill="#B68D63" width="6" height="6"/>
	<rect x="174" y="132.043" fill="#CEA980" width="6" height="6"/>
	<rect x="138" y="185.949" fill="#EDD69F" width="6" height="6"/>
	<rect x="144" y="185.949" fill="#EDD69F" width="6" height="6"/>
	<rect x="156" y="179.949" fill="#42607E" width="6" height="6"/>
	<rect x="156" y="173.949" fill="#42607E" width="6" height="6"/>
	<rect x="162" y="179.949" fill="#6D808E" width="6" height="6"/>
	<rect x="162" y="173.949" fill="#42607E" width="6" height="6"/>
	<rect x="168" y="179.949" fill="#6D808E" width="6" height="6"/>
	<rect x="168" y="173.949" fill="#7F95A5" width="6" height="6"/>
	<rect x="174" y="179.949" fill="#7F95A5" width="6" height="6"/>
	<rect x="156" y="185.949" fill="#42607E" width="6" height="6"/>
	<rect x="150" y="185.949" fill="#EDD69F" width="6" height="6"/>
	<rect x="132" y="185.949" fill="#42607E" width="6" height="6"/>
	<rect x="126" y="185.949" fill="#6D808E" width="6" height="6"/>
	<rect x="132" y="179.949" fill="#42607E" width="6" height="6"/>
	<rect x="126" y="179.949" fill="#6D808E" width="6" height="6"/>
	<rect x="126" y="173.949" fill="#42607E" width="6" height="6"/>
	<rect x="132" y="173.949" fill="#42607E" width="6" height="6"/>
	<rect x="120" y="179.977" fill="#6D808E" width="6" height="6"/>
	<rect x="114" y="179.977" fill="#7F95A5" width="6" height="6"/>
	<rect x="119.984" y="173.992" fill="#7F95A5" width="6" height="6"/>
	<rect x="162" y="185.949" fill="#6D808E" width="6" height="6"/>
	<rect x="138" y="197.949" fill="#865F36" width="6" height="6"/>
	<rect x="144" y="197.949" fill="#865F36" width="6" height="6"/>
	<rect x="156" y="197.949" fill="#7F95A5" width="6" height="6"/>
	<rect x="150" y="197.949" fill="#865F36" width="6" height="6"/>
	<rect x="132" y="197.949" fill="#7F95A5" width="6" height="6"/>
	<rect x="132" y="203.949" fill="#6D808E" width="6" height="6"/>
	<rect x="126" y="197.949" fill="#6D808E" width="6" height="6"/>
	<rect x="120" y="197.949" fill="#6D808E" width="6" height="6"/>
	<rect x="162" y="197.949" fill="#6D808E" width="6" height="6"/>
	<rect x="168" y="197.949" fill="#6D808E" width="6" height="6"/>
	<rect x="174" y="197.949" fill="#6D808E" width="6" height="6"/>
	<rect x="180" y="197.949" fill="#6D808E" width="6" height="6"/>
	<rect x="138" y="209.949" fill="#865F36" width="6" height="6"/>
	<rect x="144" y="209.949" fill="#D8CBB7" width="6" height="6"/>
	<rect x="156" y="209.949" fill="#7F95A5" width="6" height="6"/>
	<rect x="150" y="209.949" fill="#2F292B" width="6" height="6"/>
	<rect x="132" y="209.949" fill="#7F95A5" width="6" height="6"/>
	<rect x="126" y="209.949" fill="#6D808E" width="6" height="6"/>
	<rect x="120" y="209.949" fill="#42607E" width="6" height="6"/>
	<rect x="162" y="209.949" fill="#6D808E" width="6" height="6"/>
	<rect x="168" y="209.949" fill="#42607E" width="6" height="6"/>
	<rect x="174" y="209.949" fill="#6D808E" width="6" height="6"/>
	<rect x="180" y="209.949" fill="#9CB6C8" width="6" height="6"/>
	<rect x="138" y="191.949" fill="#865F36" width="6" height="6"/>
	<rect x="144" y="191.949" fill="#EDD69F" width="6" height="6"/>
	<rect x="156" y="191.949" fill="#7F95A5" width="6" height="6"/>
	<rect x="150" y="191.949" fill="#865F36" width="6" height="6"/>
	<rect x="132" y="191.949" fill="#7F95A5" width="6" height="6"/>
	<rect x="126" y="191.949" fill="#6D808E" width="6" height="6"/>
	<rect x="120" y="191.949" fill="#6D808E" width="6" height="6"/>
	<rect x="162" y="191.949" fill="#6D808E" width="6" height="6"/>
	<rect x="168" y="191.949" fill="#6D808E" width="6" height="6"/>
	<rect x="174" y="191.949" fill="#6D808E" width="6" height="6"/>
	<rect x="138" y="203.949" fill="#D8CBB7" width="6" height="6"/>
	<rect x="144" y="203.949" fill="#865F36" width="6" height="6"/>
	<rect x="156" y="203.949" fill="#7F95A5" width="6" height="6"/>
	<rect x="150" y="203.949" fill="#865F36" width="6" height="6"/>
	<rect x="132" y="203.949" fill="#7F95A5" width="6" height="6"/>
	<rect x="126" y="203.949" fill="#6D808E" width="6" height="6"/>
	<rect x="120" y="203.949" fill="#42607E" width="6" height="6"/>
	<rect x="114" y="197.949" fill="#6D808E" width="6" height="6"/>
	<rect x="114" y="209.949" fill="#6D808E" width="6" height="6"/>
	<rect x="114" y="203.949" fill="#6D808E" width="6" height="6"/>
	<rect x="162" y="203.949" fill="#6D808E" width="6" height="6"/>
	<rect x="168" y="203.949" fill="#42607E" width="6" height="6"/>
	<rect x="174" y="203.949" fill="#6D808E" width="6" height="6"/>
	<rect x="180" y="203.949" fill="#9CB6C8" width="6" height="6"/>
	<rect x="132" y="96.051" fill="#B68D63" width="6" height="6"/>
	<rect x="132" y="90.051" fill="#CEA980" width="6" height="6"/>
	<rect x="138" y="96.051" fill="#CEA980" width="6" height="6"/>
	<rect x="144" y="96.051" fill="#B68D63" width="6" height="6"/>
	<rect x="150" y="96.051" fill="#9B724E" width="6" height="6"/>
	<rect x="144" y="108.039" fill="#B68D63" width="6" height="6"/>
	<rect x="150" y="108.039" fill="#CEA980" width="6" height="6"/>
	<rect x="156" y="108.039" fill="#B68D63" width="6" height="6"/>
	<rect x="156" y="114.039" fill="#CEA980" width="6" height="6"/>
	<rect x="162" y="108.039" fill="#9B724E" width="6" height="6"/>
	<rect x="168" y="108.039" fill="#CEA980" width="6" height="6"/>
	<rect x="138" y="102.051" fill="#B68D63" width="6" height="6"/>
	<rect x="144" y="102.051" fill="#CEA980" width="6" height="6"/>
	<rect x="150" y="102.051" fill="#B68D63" width="6" height="6"/>
	<rect x="156" y="102.051" fill="#9B724E" width="6" height="6"/>
	<rect x="162" y="102.051" fill="#CEA980" width="6" height="6"/>
	<rect x="156" y="96.051" fill="#CEA980" width="6" height="6"/>
	<rect x="144" y="90.051" fill="#9B724E" width="6" height="6"/>
	<rect x="138" y="90.051" fill="#B68D63" width="6" height="6"/>
	<rect x="162" y="96.051" fill="#CEA980" width="6" height="6"/>
	<rect x="150" y="90.051" fill="#CEA980" width="6" height="6"/>
	<rect x="156" y="90.051" fill="#CEA980" width="6" height="6"/>
	<rect x="162" y="90.051" fill="#CEA980" width="6" height="6"/>
	<rect x="150" y="84.051" fill="#CEA980" width="6" height="6"/>
	<rect x="156" y="84.051" fill="#CEA980" width="6" height="6"/>
	<rect x="162" y="84.051" fill="#CEA980" width="6" height="6"/>
	<rect x="168" y="102.051" fill="#CEA980" width="6" height="6"/>
	<rect x="174" y="108.039" fill="#CEA980" width="6" height="6"/>
	<rect x="174" y="102.051" fill="#CEA980" width="6" height="6"/>
	<rect x="168" y="96.051" fill="#CEA980" width="6" height="6"/>
	<rect x="174" y="96.051" fill="#CEA980" width="6" height="6"/>
	<rect x="168" y="90.051" fill="#CEA980" width="6" height="6"/>
	<rect x="162" y="114.039" fill="#B68D63" width="6" height="6"/>
	<rect x="168" y="114.039" fill="#9B724E" width="6" height="6"/>
	<rect x="162" y="120.039" fill="#CEA980" width="6" height="6"/>
	<rect x="168" y="120.039" fill="#B68D63" width="6" height="6"/>
	<rect x="174" y="114.039" fill="#CEA980" width="6" height="6"/>
	<rect x="174" y="120.039" fill="#9B724E" width="6" height="6"/>
</g>
</svg>
