<?xml version="1.0" encoding="utf-8"?>
<!-- Generator: Adobe Illustrator 15.0.2, SVG Export Plug-In . SVG Version: 6.00 Build 0)  -->
<!DOCTYPE svg PUBLIC "-//W3C//DTD SVG 1.1//EN" "http://www.w3.org/Graphics/SVG/1.1/DTD/svg11.dtd">
<svg version="1.1" id="Layer_1" xmlns="http://www.w3.org/2000/svg" xmlns:xlink="http://www.w3.org/1999/xlink" x="0px" y="0px"
	 width="22.502px" height="28.484px" viewBox="0 0 22.502 28.484" enable-background="new 0 0 22.502 28.484" xml:space="preserve">
<g>
	<rect x="4.5" fill="#C2986B" width="1.5" height="1.5"/>
	<rect x="1.5" y="1.5" fill="#EADAB2" width="1.5" height="1.5"/>
	<rect x="6" fill="#3C2417" width="1.5" height="1.5"/>
	<rect x="7.5" fill="#764D2A" width="1.5" height="1.5"/>
	<rect x="9" fill="#EADAB2" width="1.5" height="1.5"/>
	<rect x="3" y="2.998" fill="#5A4A42" width="1.5" height="1.5"/>
	<rect x="4.5" y="2.998" fill="#E8CD8D" width="1.5" height="1.5"/>
	<rect x="6" y="2.998" fill="#E8CD8D" width="1.5" height="1.5"/>
	<rect x="7.5" y="2.998" fill="#5A4A42" width="1.5" height="1.5"/>
	<rect x="9" y="2.998" fill="#8A5F3C" width="1.5" height="1.5"/>
	<rect x="10.5" y="2.998" fill="#C2986B" width="1.5" height="1.5"/>
	<rect x="3" y="4.498" fill="#E8CD8D" width="1.5" height="1.5"/>
	<rect x="1.5" y="4.498" fill="#764D2A" width="1.5" height="1.5"/>
	<rect x="1.5" y="5.998" fill="#C2986B" width="1.5" height="1.5"/>
	<rect x="1.5" y="7.498" fill="#5F3A16" width="1.5" height="1.5"/>
	<rect y="4.498" fill="#EADAB2" width="1.5" height="1.5"/>
	<rect y="5.998" fill="#764D2A" width="1.5" height="1.5"/>
	<rect x="1.5" y="2.998" fill="#EADAB2" width="1.5" height="1.5"/>
	<rect x="4.5" y="4.498" fill="#E8CD8D" width="1.5" height="1.5"/>
	<rect x="6" y="4.498" fill="#E8CD8D" width="1.5" height="1.5"/>
	<rect x="7.5" y="4.498" fill="#8A5F3C" width="1.5" height="1.5"/>
	<rect x="9" y="4.498" fill="#EADAB2" width="1.5" height="1.5"/>
	<rect x="10.5" y="4.498" fill="#8A5F3C" width="1.5" height="1.5"/>
	<rect x="3" y="5.998" fill="#E8CD8D" width="1.5" height="1.5"/>
	<rect x="4.5" y="5.998" fill="#E8CD8D" width="1.5" height="1.5"/>
	<rect x="3" y="8.99" fill="#221F1F" width="1.5" height="1.5"/>
	<rect x="4.5" y="8.99" fill="#221F1F" width="1.5" height="1.5"/>
	<rect x="3" y="10.487" fill="#221F1F" width="1.5" height="1.5"/>
	<rect x="4.5" y="10.487" fill="#1E75BB" width="1.5" height="1.5"/>
	<rect x="3" y="11.99" fill="#E8CD8D" width="1.5" height="1.5"/>
	<rect x="4.5" y="11.99" fill="#221F1F" width="1.5" height="1.5"/>
	<rect x="3" y="13.487" fill="#E8CD8D" width="1.5" height="1.501"/>
	<rect x="1.5" y="11.987" fill="#E8CD8D" width="1.5" height="1.5"/>
	<rect y="11.987" fill="#E8CD8D" width="1.5" height="1.5"/>
	<rect x="1.5" y="10.487" fill="#E8CD8D" width="1.5" height="1.5"/>
	<rect x="4.5" y="13.487" fill="#E8CD8D" width="1.5" height="1.501"/>
	<rect x="4.5" y="14.984" fill="#FFFFFF" width="1.5" height="1.5"/>
	<rect x="7.5" y="13.487" fill="#E8CD8D" width="1.5" height="1.501"/>
	<rect x="6" y="13.487" fill="#E8CD8D" width="1.5" height="1.501"/>
	<rect x="9" y="13.487" fill="#9A8479" width="1.5" height="1.501"/>
	<rect x="12" y="13.487" fill="#E8CD8D" width="1.5" height="1.501"/>
	<rect x="10.5" y="13.487" fill="#E8CD8D" width="1.5" height="1.501"/>
	<rect x="7.5" y="14.984" fill="#FFFFFF" width="1.5" height="1.5"/>
	<rect x="6" y="14.984" fill="#FFFFFF" width="1.5" height="1.5"/>
	<rect x="9" y="14.984" fill="#FFFFFF" width="1.5" height="1.5"/>
	<rect x="10.5" y="14.984" fill="#C1B49A" width="1.5" height="1.5"/>
	<rect x="7.5" y="16.482" fill="#BD202E" width="1.5" height="1.5"/>
	<rect x="6" y="16.482" fill="#BD202E" width="1.5" height="1.5"/>
	<rect x="9" y="16.482" fill="#BD202E" width="1.5" height="1.5"/>
	<rect x="10.5" y="16.482" fill="#C1B49A" width="1.5" height="1.5"/>
	<rect x="7.5" y="17.982" fill="#E8CD8D" width="1.5" height="1.5"/>
	<rect x="6" y="17.982" fill="#E8CD8D" width="1.5" height="1.5"/>
	<rect x="4.5" y="17.982" fill="#E8CD8D" width="1.5" height="1.5"/>
	<rect x="6" y="19.482" fill="#E8CD8D" width="1.5" height="1.5"/>
	<rect x="9" y="17.982" fill="#E8CD8D" width="1.5" height="1.5"/>
	<rect x="7.5" y="19.482" fill="#E8CD8D" width="1.5" height="1.5"/>
	<rect x="9" y="19.482" fill="#C1B49A" width="1.5" height="1.5"/>
	<rect x="10.5" y="19.482" fill="#E8CD8D" width="1.5" height="1.5"/>
	<rect x="10.5" y="17.982" fill="#E8CD8D" width="1.5" height="1.5"/>
	<rect x="12" y="17.982" fill="#E8CD8D" width="1.5" height="1.5"/>
	<rect x="13.5" y="13.487" fill="#3C2417" width="1.5" height="1.501"/>
	<rect x="12" y="11.99" fill="#C2986B" width="1.5" height="1.5"/>
	<rect x="12" y="13.49" fill="#8A5F3C" width="1.5" height="1.5"/>
	<rect x="13.5" y="11.99" fill="#EADAB2" width="1.5" height="1.5"/>
	<rect x="12" y="16.482" fill="#E8CD8D" width="1.5" height="1.5"/>
	<rect x="13.5" y="16.482" fill="#EADAB2" width="1.5" height="1.5"/>
	<rect x="13.5" y="17.98" fill="#8A5F3C" width="1.5" height="1.5"/>
	<rect x="12" y="14.984" fill="#E8CD8D" width="1.5" height="1.5"/>
	<rect x="13.5" y="14.984" fill="#C2986B" width="1.5" height="1.5"/>
	<rect x="12" y="10.487" fill="#C2986B" width="1.5" height="1.5"/>
	<rect x="13.5" y="10.487" fill="#8A5F3C" width="1.5" height="1.5"/>
	<rect x="12" y="8.99" fill="#5F3A16" width="1.5" height="1.5"/>
	<rect x="13.5" y="8.99" fill="#5F3A16" width="1.5" height="1.5"/>
	<rect x="15" y="10.487" fill="#8A5F3C" width="1.5" height="1.5"/>
	<rect x="15" y="8.99" fill="#EADAB2" width="1.5" height="1.5"/>
	<rect x="6" y="5.998" fill="#E8CD8D" width="1.5" height="1.5"/>
	<rect x="7.5" y="5.998" fill="#E8CD8D" width="1.5" height="1.5"/>
	<rect x="9" y="5.998" fill="#C2986B" width="1.5" height="1.5"/>
	<rect x="7.5" y="7.498" fill="#E8CD8D" width="1.5" height="1.5"/>
	<rect x="9" y="7.498" fill="#E8CD8D" width="1.5" height="1.5"/>
	<rect x="4.5" y="7.498" fill="#8A5F3C" width="1.5" height="1.5"/>
	<rect x="3" y="7.498" fill="#E8CD8D" width="1.5" height="1.5"/>
	<rect x="6" y="7.498" fill="#8A5F3C" width="1.5" height="1.5"/>
	<rect x="10.5" y="5.998" fill="#EADAB2" width="1.5" height="1.5"/>
	<rect x="6" y="8.99" fill="#221F1F" width="1.5" height="1.5"/>
	<rect x="7.5" y="8.99" fill="#221F1F" width="1.5" height="1.5"/>
	<rect x="9" y="8.99" fill="#221F1F" width="1.5" height="1.5"/>
	<rect x="10.5" y="8.99" fill="#221F1F" width="1.5" height="1.5"/>
	<rect x="10.5" y="7.498" fill="#8A5F3C" width="1.5" height="1.5"/>
	<rect x="6" y="10.487" fill="#FFFFFF" width="1.5" height="1.5"/>
	<rect x="7.5" y="10.487" fill="#221F1F" width="1.5" height="1.5"/>
	<rect x="9" y="10.487" fill="#E8CD8D" width="1.5" height="1.5"/>
	<rect x="10.5" y="10.487" fill="#E8CD8D" width="1.5" height="1.5"/>
	<rect x="6" y="11.987" fill="#221F1F" width="1.5" height="1.5"/>
	<rect x="7.5" y="11.987" fill="#E8CD8D" width="1.5" height="1.5"/>
	<rect x="9" y="11.987" fill="#E8CD8D" width="1.5" height="1.5"/>
	<rect x="10.5" y="11.987" fill="#E8CD8D" width="1.5" height="1.5"/>
	<rect x="12" y="2.998" fill="#A87C51" width="1.5" height="1.5"/>
	<rect x="13.5" y="2.998" fill="#5F3A16" width="1.5" height="1.5"/>
	<rect x="3" y="1.5" fill="#C2986B" width="1.5" height="1.5"/>
	<rect x="4.5" y="1.5" fill="#5A4A42" width="1.5" height="1.5"/>
	<rect x="6" y="1.5" fill="#764D2A" width="1.5" height="1.5"/>
	<rect x="7.5" y="1.5" fill="#8A5F3C" width="1.5" height="1.5"/>
	<rect x="9" y="1.5" fill="#C2986B" width="1.5" height="1.5"/>
	<rect x="10.5" y="1.5" fill="#3C2417" width="1.5" height="1.5"/>
	<rect x="12" y="1.5" fill="#C2986B" width="1.5" height="1.5"/>
	<rect x="10.5" fill="#5F3A16" width="1.5" height="1.5"/>
	<rect x="13.5" y="1.5" fill="#EADAB2" width="1.5" height="1.5"/>
	<rect x="12" y="4.498" fill="#5F3A16" width="1.5" height="1.5"/>
	<rect x="13.5" y="4.498" fill="#A87C51" width="1.5" height="1.5"/>
	<rect x="12" y="5.998" fill="#8A5F3C" width="1.5" height="1.5"/>
	<rect x="13.5" y="5.998" fill="#C2986B" width="1.5" height="1.5"/>
	<rect x="15" y="2.998" fill="#5F3A16" width="1.5" height="1.5"/>
	<rect x="15" y="1.5" fill="#C2986B" width="1.5" height="1.5"/>
	<rect x="15" y="4.498" fill="#3C2417" width="1.5" height="1.5"/>
	<rect x="15" y="5.998" fill="#A87C51" width="1.5" height="1.5"/>
	<rect x="16.5" y="2.998" fill="#EADAB2" width="1.5" height="1.5"/>
	<rect x="16.5" y="4.498" fill="#3C2417" width="1.5" height="1.5"/>
	<rect x="16.5" y="5.998" fill="#5F3A16" width="1.5" height="1.5"/>
	<rect x="12" y="7.498" fill="#EADAB2" width="1.5" height="1.5"/>
	<rect x="13.5" y="7.498" fill="#8A5F3C" width="1.5" height="1.5"/>
	<rect x="15" y="7.498" fill="#5F3A16" width="1.5" height="1.5"/>
	<rect x="16.5" y="7.498" fill="#A87C51" width="1.5" height="1.5"/>
	<rect x="16.5" y="8.99" fill="#5F3A16" width="1.5" height="1.5"/>
	<rect x="19.502" y="8.99" fill="#5F3A16" width="1.5" height="1.5"/>
	<rect x="16.5" y="10.49" fill="#3C2417" width="1.5" height="1.5"/>
	<rect x="19.502" y="10.49" fill="#3C2417" width="1.5" height="1.5"/>
	<rect x="16.5" y="11.99" fill="#C2986B" width="1.5" height="1.5"/>
	<rect x="15" y="11.99" fill="#5F3A16" width="1.5" height="1.5"/>
	<rect x="15" y="13.49" fill="#EADAB2" width="1.5" height="1.5"/>
	<rect x="15" y="14.99" fill="#5F3A16" width="1.5" height="1.5"/>
	<rect x="16.5" y="13.49" fill="#3C2417" width="1.5" height="1.5"/>
	<rect x="18" y="14.99" fill="#3C2417" width="1.5" height="1.5"/>
	<rect x="18" y="16.484" fill="#EADAB2" width="1.5" height="1.5"/>
	<rect x="19.502" y="16.484" fill="#EADAB2" width="1.5" height="1.5"/>
	<rect x="18" y="11.993" fill="#C2986B" width="1.5" height="1.5"/>
	<rect x="18" y="10.487" fill="#C2986B" width="1.5" height="1.5"/>
	<rect x="19.502" y="7.498" fill="#C2986B" width="1.5" height="1.5"/>
	<rect x="18" y="13.486" fill="#C2986B" width="1.5" height="1.5"/>
	<rect x="19.502" y="17.982" fill="#C2986B" width="1.5" height="1.5"/>
	<rect x="21.002" y="17.982" fill="#C2986B" width="1.5" height="1.5"/>
	<rect x="18" y="5.998" fill="#C2986B" width="1.5" height="1.5"/>
	<rect x="18" y="7.498" fill="#EADAB2" width="1.5" height="1.5"/>
	<rect x="18" y="8.996" fill="#EADAB2" width="1.5" height="1.5"/>
	<rect x="16.5" y="14.99" fill="#EADAB2" width="1.5" height="1.5"/>
	<rect x="15" y="16.482" fill="#5F3A16" width="1.5" height="1.5"/>
	<rect x="15" y="17.98" fill="#EADAB2" width="1.5" height="1.5"/>
	<rect x="15" y="19.484" fill="#221F1F" width="1.5" height="1.5"/>
	<rect x="16.5" y="17.982" fill="#5F3A16" width="1.5" height="1.5"/>
	<rect x="18.002" y="19.484" fill="#5F3A16" width="1.5" height="1.5"/>
	<rect x="19.502" y="19.484" fill="#5F3A16" width="1.5" height="1.5"/>
	<rect x="18.002" y="17.982" fill="#5F3A16" width="1.5" height="1.5"/>
	<rect x="3.001" y="19.484" fill="#221F1F" width="1.5" height="1.5"/>
	<rect x="3.001" y="20.984" fill="#6D6E71" width="1.5" height="1.5"/>
	<rect x="1.5" y="19.484" fill="#221F1F" width="1.5" height="1.5"/>
	<rect x="4.501" y="19.484" fill="#221F1F" width="1.5" height="1.5"/>
	<rect x="16.5" y="19.48" fill="#EADAB2" width="1.5" height="1.5"/>
	<rect x="16.5" y="16.482" fill="#5F3A16" width="1.5" height="1.5"/>
	<rect x="7.5" y="20.984" fill="#C1B49A" width="1.5" height="1.5"/>
	<rect x="9" y="20.984" fill="#E8CD8D" width="1.5" height="1.5"/>
	<rect x="13.5" y="19.484" fill="#221F1F" width="1.5" height="1.5"/>
	<rect x="12" y="20.984" fill="#221F1F" width="1.5" height="1.5"/>
	<rect x="12" y="19.484" fill="#E8CD8D" width="1.5" height="1.5"/>
	<rect x="10.5" y="20.984" fill="#E8CD8D" width="1.5" height="1.5"/>
	<rect x="6" y="20.984" fill="#221F1F" width="1.5" height="1.5"/>
	<rect x="4.5" y="20.984" fill="#6D6E71" width="1.5" height="1.5"/>
	<rect x="13.5" y="20.984" fill="#221F1F" width="1.5" height="1.5"/>
	<rect x="15" y="20.984" fill="#808184" width="1.5" height="1.5"/>
	<rect x="16.5" y="20.984" fill="#59595C" width="1.5" height="1.5"/>
	<rect x="7.5" y="23.984" fill="#424143" width="1.5" height="1.5"/>
	<rect x="9" y="23.984" fill="#221F1F" width="1.5" height="1.5"/>
	<rect x="12" y="23.984" fill="#929497" width="1.5" height="1.5"/>
	<rect x="10.5" y="23.984" fill="#424143" width="1.5" height="1.5"/>
	<rect x="6" y="23.984" fill="#929497" width="1.5" height="1.5"/>
	<rect x="6" y="25.484" fill="#808184" width="1.5" height="1.5"/>
	<rect x="4.5" y="23.984" fill="#929497" width="1.5" height="1.5"/>
	<rect x="3" y="23.984" fill="#59595C" width="1.5" height="1.5"/>
	<rect x="13.5" y="23.984" fill="#929497" width="1.5" height="1.5"/>
	<rect x="15" y="23.984" fill="#59595C" width="1.5" height="1.5"/>
	<rect x="16.5" y="23.984" fill="#929497" width="1.5" height="1.5"/>
	<rect x="18" y="23.984" fill="#929497" width="1.5" height="1.5"/>
	<rect x="7.5" y="26.984" fill="#929497" width="1.5" height="1.5"/>
	<rect x="9" y="26.984" fill="#221F1F" width="1.5" height="1.5"/>
	<rect x="12" y="26.984" fill="#929497" width="1.5" height="1.5"/>
	<rect x="10.5" y="26.984" fill="#59595C" width="1.5" height="1.5"/>
	<rect x="6" y="26.984" fill="#929497" width="1.5" height="1.5"/>
	<rect x="4.5" y="26.984" fill="#231F20" width="1.5" height="1.5"/>
	<rect x="3" y="26.984" fill="#A7A8AB" width="1.5" height="1.5"/>
	<rect x="13.5" y="26.984" fill="#221F1F" width="1.5" height="1.5"/>
	<rect x="15" y="26.984" fill="#59595C" width="1.5" height="1.5"/>
	<rect x="16.5" y="26.984" fill="#929497" width="1.5" height="1.5"/>
	<rect x="18" y="26.984" fill="#59595C" width="1.5" height="1.5"/>
	<rect x="7.5" y="22.484" fill="#FFFFFF" width="1.5" height="1.5"/>
	<rect x="9" y="22.484" fill="#FFFFFF" width="1.5" height="1.5"/>
	<rect x="12" y="22.484" fill="#424143" width="1.5" height="1.5"/>
	<rect x="10.5" y="22.484" fill="#FFFFFF" width="1.5" height="1.5"/>
	<rect x="6" y="22.484" fill="#424143" width="1.5" height="1.5"/>
	<rect x="4.5" y="22.484" fill="#59595C" width="1.5" height="1.5"/>
	<rect x="3" y="22.484" fill="#808184" width="1.5" height="1.5"/>
	<rect x="13.5" y="22.484" fill="#59595C" width="1.5" height="1.5"/>
	<rect x="15" y="22.484" fill="#808184" width="1.5" height="1.5"/>
	<rect x="16.5" y="22.484" fill="#808184" width="1.5" height="1.5"/>
	<rect x="18" y="22.484" fill="#59595C" width="1.5" height="1.5"/>
	<rect x="7.5" y="25.484" fill="#808184" width="1.5" height="1.5"/>
	<rect x="9" y="25.484" fill="#221F1F" width="1.5" height="1.5"/>
	<rect x="12" y="25.484" fill="#59595C" width="1.5" height="1.5"/>
	<rect x="10.5" y="25.484" fill="#808184" width="1.5" height="1.5"/>
	<rect x="6" y="25.484" fill="#59595C" width="1.5" height="1.5"/>
	<rect x="4.5" y="25.484" fill="#231F20" width="1.5" height="1.5"/>
	<rect x="3" y="25.484" fill="#59595C" width="1.5" height="1.5"/>
	<rect x="1.5" y="23.984" fill="#929497" width="1.5" height="1.5"/>
	<rect x="1.5" y="26.984" fill="#59595C" width="1.5" height="1.5"/>
	<rect x="1.5" y="25.484" fill="#A7A8AB" width="1.5" height="1.5"/>
	<rect x="13.5" y="25.484" fill="#221F1F" width="1.5" height="1.5"/>
	<rect x="15" y="25.484" fill="#929497" width="1.5" height="1.5"/>
	<rect x="16.5" y="25.484" fill="#59595C" width="1.5" height="1.5"/>
	<rect x="18" y="25.484" fill="#929497" width="1.5" height="1.5"/>
</g>
</svg>
