<?xml version="1.0" encoding="utf-8"?>
<!-- Generator: Adobe Illustrator 16.0.0, SVG Export Plug-In . SVG Version: 6.00 Build 0)  -->
<!DOCTYPE svg PUBLIC "-//W3C//DTD SVG 1.1//EN" "http://www.w3.org/Graphics/SVG/1.1/DTD/svg11.dtd">
<svg version="1.1" id="Layer_1" xmlns="http://www.w3.org/2000/svg" xmlns:xlink="http://www.w3.org/1999/xlink" x="0px" y="0px"
	 width="300px" height="300px" viewBox="0 0 300 300" enable-background="new 0 0 300 300" xml:space="preserve">
<g>
	<rect x="112.5" y="93.823" fill="#231F20" width="7.5" height="7.5"/>
	<rect x="120" y="93.823" fill="#231F20" width="7.5" height="7.5"/>
	<rect x="127.5" y="93.823" fill="#414042" width="7.5" height="7.5"/>
	<rect x="142.5" y="93.823" fill="#231F20" width="7.5" height="7.5"/>
	<rect x="112.5" y="108.809" fill="#EEE1BF" width="7.5" height="7.5"/>
	<rect x="120" y="108.809" fill="#EDD69F" width="7.5" height="7.5"/>
	<rect x="127.5" y="108.809" fill="#EDD69F" width="7.5" height="7.5"/>
	<rect x="135" y="108.809" fill="#EDD69F" width="7.5" height="7.5"/>
	<rect x="142.5" y="108.809" fill="#EDD69F" width="7.5" height="7.5"/>
	<rect x="150" y="108.809" fill="#EDD69F" width="7.5" height="7.5"/>
	<rect x="112.5" y="116.309" fill="#EEE1BF" width="7.5" height="7.5"/>
	<rect x="120" y="116.309" fill="#EEE1BF" width="7.5" height="7.5"/>
	<rect x="112.5" y="123.779" fill="#EEE1BF" width="7.5" height="7.5"/>
	<rect x="120" y="123.779" fill="#414042" width="7.5" height="7.5"/>
	<rect x="112.5" y="138.73" fill="#EDD69F" width="7.5" height="7.5"/>
	<rect x="120" y="138.73" fill="#3B2314" width="7.5" height="7.5"/>
	<rect x="112.5" y="146.245" fill="#EDD69F" width="7.5" height="7.5"/>
	<rect x="120" y="146.245" fill="#EEE1BF" width="7.5" height="7.5"/>
	<rect x="112.5" y="153.73" fill="#EDD69F" width="7.5" height="7.5"/>
	<rect x="105" y="146.245" fill="#EDD69F" width="7.5" height="7.5"/>
	<rect x="120" y="153.73" fill="#EDD69F" width="7.5" height="7.5"/>
	<rect x="135" y="153.73" fill="#EDD69F" width="7.5" height="7.5"/>
	<rect x="127.5" y="153.73" fill="#EDD69F" width="7.5" height="7.5"/>
	<rect x="142.5" y="153.73" fill="#EEE1BF" width="7.5" height="7.5"/>
	<rect x="157.5" y="153.73" fill="#EDD69F" width="7.5" height="7.5"/>
	<rect x="150" y="153.73" fill="#EFC8A6" width="7.5" height="7.5"/>
	<rect x="135" y="161.216" fill="#FFFFFF" width="7.5" height="7.5"/>
	<rect x="127.5" y="161.216" fill="#FFFFFF" width="7.5" height="7.5"/>
	<rect x="142.5" y="161.216" fill="#FFFFFF" width="7.5" height="7.5"/>
	<rect x="150" y="161.216" fill="#BB807B" width="7.5" height="7.5"/>
	<rect x="135" y="168.701" fill="#D28F8C" width="7.5" height="7.5"/>
	<rect x="127.5" y="168.701" fill="#D28F8C" width="7.5" height="7.5"/>
	<rect x="142.5" y="168.701" fill="#BB807B" width="7.5" height="7.5"/>
	<rect x="150" y="168.701" fill="#EDD69F" width="7.5" height="7.5"/>
	<rect x="135" y="176.201" fill="#EDD69F" width="7.5" height="7.5"/>
	<rect x="127.5" y="176.201" fill="#EDD69F" width="7.5" height="7.5"/>
	<rect x="142.5" y="176.201" fill="#EDD69F" width="7.5" height="7.5"/>
	<rect x="135" y="183.701" fill="#D5CBAD" width="7.5" height="7.5"/>
	<rect x="142.5" y="183.701" fill="#D5CBAD" width="7.5" height="7.5"/>
	<rect x="150" y="183.701" fill="#D5CBAD" width="7.5" height="7.5"/>
	<rect x="135" y="191.162" fill="#D5CBAD" width="7.5" height="7.5"/>
	<rect x="142.5" y="191.162" fill="#EDD69F" width="7.5" height="7.5"/>
	<rect x="150" y="191.162" fill="#EDD69F" width="7.5" height="7.5"/>
	<rect x="150" y="176.201" fill="#EDD69F" width="7.5" height="7.5"/>
	<rect x="157.5" y="191.177" fill="#78B7AA" width="7.5" height="7.5"/>
	<rect x="127.5" y="191.177" fill="#78B7AA" width="7.5" height="7.5"/>
	<rect x="120" y="191.177" fill="#9BD4D4" width="7.5" height="7.5"/>
	<rect x="165" y="191.177" fill="#9BD4D4" width="7.5" height="7.5"/>
	<rect x="172.5" y="191.177" fill="#9BD4D4" width="7.5" height="7.5"/>
	<rect x="135" y="206.177" fill="#9BD4D4" width="7.5" height="7.5"/>
	<rect x="142.5" y="206.177" fill="#9BD4D4" width="7.5" height="7.5"/>
	<rect x="157.5" y="206.177" fill="#9BD4D4" width="7.5" height="7.5"/>
	<rect x="150" y="206.177" fill="#9BD4D4" width="7.5" height="7.5"/>
	<rect x="127.5" y="206.177" fill="#9BD4D4" width="7.5" height="7.5"/>
	<rect x="120" y="206.177" fill="#9BD4D4" width="7.5" height="7.5"/>
	<rect x="112.5" y="206.177" fill="#9BD4D4" width="7.5" height="7.5"/>
	<rect x="165" y="206.177" fill="#9BD4D4" width="7.5" height="7.5"/>
	<rect x="172.5" y="206.177" fill="#9BD4D4" width="7.5" height="7.5"/>
	<rect x="180" y="206.177" fill="#9BD4D4" width="7.5" height="7.5"/>
	<rect x="187.5" y="206.177" fill="#9BD4D4" width="7.5" height="7.5"/>
	<rect x="135" y="221.177" fill="#9BD4D4" width="7.5" height="7.5"/>
	<rect x="142.5" y="221.177" fill="#007A8F" width="7.5" height="7.5"/>
	<rect x="157.5" y="221.177" fill="#007A8F" width="7.5" height="7.5"/>
	<rect x="150" y="221.177" fill="#9BD4D4" width="7.5" height="7.5"/>
	<rect x="127.5" y="221.177" fill="#007A8F" width="7.5" height="7.5"/>
	<rect x="120" y="221.177" fill="#9BD4D4" width="7.5" height="7.5"/>
	<rect x="112.5" y="221.177" fill="#EDD69F" width="7.5" height="7.5"/>
	<rect x="165" y="221.177" fill="#9BD4D4" width="7.5" height="7.5"/>
	<rect x="172.5" y="221.177" fill="#EEE1BF" width="7.5" height="7.5"/>
	<rect x="180" y="221.177" fill="#EDD69F" width="7.5" height="7.5"/>
	<rect x="187.5" y="221.177" fill="#EDD69F" width="7.5" height="7.5"/>
	<rect x="135" y="198.677" fill="#78B7AA" width="7.5" height="7.5"/>
	<rect x="142.5" y="198.677" fill="#78B7AA" width="7.5" height="7.5"/>
	<rect x="157.5" y="198.677" fill="#9BD4D4" width="7.5" height="7.5"/>
	<rect x="150" y="198.677" fill="#78B7AA" width="7.5" height="7.5"/>
	<rect x="127.5" y="198.677" fill="#9BD4D4" width="7.5" height="7.5"/>
	<rect x="120" y="198.677" fill="#9BD4D4" width="7.5" height="7.5"/>
	<rect x="112.5" y="198.677" fill="#9BD4D4" width="7.5" height="7.5"/>
	<rect x="165" y="198.677" fill="#9BD4D4" width="7.5" height="7.5"/>
	<rect x="172.5" y="198.677" fill="#9BD4D4" width="7.5" height="7.5"/>
	<rect x="180" y="198.677" fill="#9BD4D4" width="7.5" height="7.5"/>
	<rect x="135" y="213.677" fill="#9BD4D4" width="7.5" height="7.5"/>
	<rect x="142.5" y="213.677" fill="#9BD4D4" width="7.5" height="7.5"/>
	<rect x="157.5" y="213.677" fill="#9BD4D4" width="7.5" height="7.5"/>
	<rect x="150" y="213.677" fill="#9BD4D4" width="7.5" height="7.5"/>
	<rect x="127.5" y="213.677" fill="#9BD4D4" width="7.5" height="7.5"/>
	<rect x="120" y="213.677" fill="#9BD4D4" width="7.5" height="7.5"/>
	<rect x="112.5" y="213.677" fill="#78B7AA" width="7.5" height="7.5"/>
	<rect x="105" y="206.177" fill="#9BD4D4" width="7.5" height="7.5"/>
	<rect x="105" y="221.177" fill="#EEE1BF" width="7.5" height="7.5"/>
	<rect x="105" y="213.677" fill="#78B7AA" width="7.5" height="7.5"/>
	<rect x="165" y="213.677" fill="#9BD4D4" width="7.5" height="7.5"/>
	<rect x="172.5" y="213.677" fill="#78B7AA" width="7.5" height="7.5"/>
	<rect x="180" y="213.677" fill="#78B7AA" width="7.5" height="7.5"/>
	<rect x="187.5" y="213.677" fill="#78B7AA" width="7.5" height="7.5"/>
	<rect x="165" y="153.73" fill="#EDD69F" width="7.5" height="7.5"/>
	<rect x="157.5" y="146.245" fill="#EDD69F" width="7.5" height="7.5"/>
	<rect x="165" y="146.245" fill="#EDD69F" width="7.5" height="7.5"/>
	<rect x="157.5" y="168.701" fill="#EDD69F" width="7.5" height="7.5"/>
	<rect x="157.5" y="161.216" fill="#EDD69F" width="7.5" height="7.5"/>
	<rect x="165" y="161.216" fill="#EDD69F" width="7.5" height="7.5"/>
	<rect x="157.5" y="176.196" fill="#EDD69F" width="7.5" height="7.5"/>
	<rect x="165" y="168.706" fill="#EDD69F" width="7.5" height="7.5"/>
	<rect x="157.5" y="138.73" fill="#EDD69F" width="7.5" height="7.5"/>
	<rect x="165" y="138.73" fill="#231F20" width="7.5" height="7.5"/>
	<rect x="157.5" y="123.779" fill="#231F20" width="7.5" height="7.5"/>
	<rect x="165" y="123.779" fill="#414042" width="7.5" height="7.5"/>
	<rect x="172.5" y="138.73" fill="#D5CBAD" width="7.5" height="7.5"/>
	<rect x="172.5" y="131.245" fill="#EDD69F" width="7.5" height="7.5"/>
	<rect x="127.5" y="116.309" fill="#EDD69F" width="7.5" height="7.5"/>
	<rect x="135" y="116.309" fill="#EDD69F" width="7.5" height="7.5"/>
	<rect x="142.5" y="116.309" fill="#EDD69F" width="7.5" height="7.5"/>
	<rect x="150" y="116.309" fill="#EDD69F" width="7.5" height="7.5"/>
	<rect x="127.5" y="123.779" fill="#414042" width="7.5" height="7.5"/>
	<rect x="135" y="123.779" fill="#EDD69F" width="7.5" height="7.5"/>
	<rect x="142.5" y="123.779" fill="#EDD69F" width="7.5" height="7.5"/>
	<rect x="150" y="123.779" fill="#EDD69F" width="7.5" height="7.5"/>
	<rect x="112.5" y="131.245" fill="#EDD69F" width="7.5" height="7.5"/>
	<rect x="120" y="131.245" fill="#EDD69F" width="7.5" height="7.5"/>
	<rect x="157.5" y="131.245" fill="#EDD69F" width="7.5" height="7.5"/>
	<rect x="165" y="131.245" fill="#231F20" width="7.5" height="7.5"/>
	<rect x="127.5" y="131.245" fill="#EDD69F" width="7.5" height="7.5"/>
	<rect x="135" y="131.245" fill="#EDD69F" width="7.5" height="7.5"/>
	<rect x="142.5" y="131.245" fill="#EDD69F" width="7.5" height="7.5"/>
	<rect x="150" y="131.245" fill="#EDD69F" width="7.5" height="7.5"/>
	<rect x="127.5" y="138.73" fill="#FFFFFF" width="7.5" height="7.5"/>
	<rect x="135" y="138.73" fill="#EDD69F" width="7.5" height="7.5"/>
	<rect x="142.5" y="138.73" fill="#EDD69F" width="7.5" height="7.5"/>
	<rect x="150" y="138.73" fill="#EDD69F" width="7.5" height="7.5"/>
	<rect x="127.5" y="146.23" fill="#EDD69F" width="7.5" height="7.5"/>
	<rect x="135" y="146.23" fill="#EEE1BF" width="7.5" height="7.5"/>
	<rect x="142.5" y="146.23" fill="#EFC8A6" width="7.5" height="7.5"/>
	<rect x="150" y="146.23" fill="#EDD69F" width="7.5" height="7.5"/>
	<rect x="112.5" y="101.323" fill="#EDD69F" width="7.5" height="7.5"/>
	<rect x="120" y="101.323" fill="#EDD69F" width="7.5" height="7.5"/>
	<rect x="127.5" y="101.323" fill="#231F20" width="7.5" height="7.5"/>
	<rect x="135" y="101.323" fill="#414042" width="7.5" height="7.5"/>
	<rect x="142.5" y="101.323" fill="#231F20" width="7.5" height="7.5"/>
	<rect x="150" y="101.323" fill="#EEE1BF" width="7.5" height="7.5"/>
	<rect x="157.5" y="101.323" fill="#EEE1BF" width="7.5" height="7.5"/>
	<rect x="150" y="93.823" fill="#231F20" width="7.5" height="7.5"/>
	<rect x="157.5" y="93.823" fill="#414042" width="7.5" height="7.5"/>
	<rect x="120" y="78.823" fill="#231F20" width="7.5" height="7.5"/>
	<rect x="127.5" y="78.823" fill="#414042" width="7.5" height="7.5"/>
	<rect x="127.5" y="71.323" fill="#414042" width="7.5" height="7.5"/>
	<rect x="142.5" y="78.823" fill="#414042" width="7.5" height="7.5"/>
	<rect x="135" y="93.823" fill="#231F20" width="7.5" height="7.5"/>
	<rect x="135" y="78.823" fill="#231F20" width="7.5" height="7.5"/>
	<rect x="150" y="78.823" fill="#231F20" width="7.5" height="7.5"/>
	<rect x="150" y="71.323" fill="#231F20" width="7.5" height="7.5"/>
	<rect x="157.5" y="78.823" fill="#231F20" width="7.5" height="7.5"/>
	<rect x="165" y="101.323" fill="#231F20" width="7.5" height="7.5"/>
	<rect x="165" y="93.823" fill="#231F20" width="7.5" height="7.5"/>
	<rect x="165" y="78.823" fill="#414042" width="7.5" height="7.5"/>
	<rect x="172.5" y="101.323" fill="#231F20" width="7.5" height="7.5"/>
	<rect x="172.5" y="93.823" fill="#414042" width="7.5" height="7.5"/>
	<rect x="157.5" y="108.809" fill="#EEE1BF" width="7.5" height="7.5"/>
	<rect x="165" y="108.809" fill="#414042" width="7.5" height="7.5"/>
	<rect x="157.5" y="116.309" fill="#414042" width="7.5" height="7.5"/>
	<rect x="165" y="116.309" fill="#231F20" width="7.5" height="7.5"/>
	<rect x="172.5" y="123.779" fill="#231F20" width="7.5" height="7.5"/>
	<rect x="172.5" y="108.809" fill="#231F20" width="7.5" height="7.5"/>
	<rect x="180" y="108.809" fill="#231F20" width="7.5" height="7.5"/>
	<rect x="180" y="93.823" fill="#231F20" width="7.5" height="7.5"/>
	<rect x="112.5" y="86.323" fill="#6D6F72" width="7.5" height="7.5"/>
	<rect x="120" y="86.323" fill="#231F20" width="7.5" height="7.5"/>
	<rect x="127.5" y="86.323" fill="#231F20" width="7.5" height="7.5"/>
	<rect x="142.5" y="86.323" fill="#414042" width="7.5" height="7.5"/>
	<rect x="150" y="86.323" fill="#231F20" width="7.5" height="7.5"/>
	<rect x="157.5" y="86.323" fill="#6D6F72" width="7.5" height="7.5"/>
	<rect x="135" y="86.323" fill="#231F20" width="7.5" height="7.5"/>
	<rect x="165" y="86.323" fill="#231F20" width="7.5" height="7.5"/>
	<rect x="172.5" y="86.323" fill="#231F20" width="7.5" height="7.5"/>
	<rect x="180" y="86.323" fill="#231F20" width="7.5" height="7.5"/>
	<rect x="180" y="101.323" fill="#6D6F72" width="7.5" height="7.5"/>
	<rect x="187.5" y="108.809" fill="#231F20" width="7.5" height="7.5"/>
	<rect x="187.5" y="101.323" fill="#231F20" width="7.5" height="7.5"/>
	<rect x="172.5" y="116.309" fill="#231F20" width="7.5" height="7.5"/>
	<rect x="180" y="138.765" fill="#EDD69F" width="7.5" height="7.5"/>
	<rect x="180" y="131.294" fill="#EEE1BF" width="7.5" height="7.5"/>
	<rect x="180" y="123.804" fill="#231F20" width="7.5" height="7.5"/>
	<rect x="180" y="116.304" fill="#414042" width="7.5" height="7.5"/>
	<rect x="187.5" y="116.304" fill="#231F20" width="7.5" height="7.5"/>
	<rect x="187.5" y="123.779" fill="#231F20" width="7.5" height="7.5"/>
	<rect x="187.5" y="131.304" fill="#414042" width="7.5" height="7.5"/>
	<rect x="187.5" y="138.779" fill="#231F20" width="7.5" height="7.5"/>
	<rect x="172.5" y="153.716" fill="#414042" width="7.5" height="7.5"/>
	<rect x="180" y="146.25" fill="#231F20" width="7.5" height="7.5"/>
	<rect x="172.5" y="146.245" fill="#EDD69F" width="7.5" height="7.5"/>
</g>
</svg>
