<?xml version="1.0" encoding="utf-8"?>
<!-- Generator: Adobe Illustrator 16.0.0, SVG Export Plug-In . SVG Version: 6.00 Build 0)  -->
<!DOCTYPE svg PUBLIC "-//W3C//DTD SVG 1.1//EN" "http://www.w3.org/Graphics/SVG/1.1/DTD/svg11.dtd">
<svg version="1.1" id="Layer_1" xmlns="http://www.w3.org/2000/svg" xmlns:xlink="http://www.w3.org/1999/xlink" x="0px" y="0px"
	 width="300px" height="300px" viewBox="0 0 300 300" enable-background="new 0 0 300 300" xml:space="preserve">
<g>
	<rect x="131.25" y="75.07" fill="#43251B" width="7.5" height="7.5"/>
	<rect x="138.75" y="75.07" fill="#231F20" width="7.5" height="7.5"/>
	<rect x="146.25" y="75.07" fill="#3E2D02" width="7.5" height="7.5"/>
	<rect x="116.25" y="90.056" fill="#231F20" width="7.5" height="7.5"/>
	<rect x="123.75" y="90.056" fill="#43251B" width="7.5" height="7.5"/>
	<rect x="131.25" y="90.056" fill="#3E2D02" width="7.5" height="7.5"/>
	<rect x="138.75" y="90.056" fill="#231F20" width="7.5" height="7.5"/>
	<rect x="146.25" y="90.056" fill="#3E2D02" width="7.5" height="7.5"/>
	<rect x="153.75" y="90.056" fill="#EDD69F" width="7.5" height="7.5"/>
	<rect x="116.25" y="97.556" fill="#43251B" width="7.5" height="7.5"/>
	<rect x="108.75" y="105.051" fill="#231F20" width="7.5" height="7.5"/>
	<rect x="123.75" y="97.556" fill="#231F20" width="7.5" height="7.5"/>
	<rect x="131.25" y="97.556" fill="#231F20" width="7.5" height="7.5"/>
	<rect x="138.75" y="97.556" fill="#EDD69F" width="7.5" height="7.5"/>
	<rect x="146.25" y="97.556" fill="#EDD69F" width="7.5" height="7.5"/>
	<rect x="153.75" y="97.556" fill="#231F20" width="7.5" height="7.5"/>
	<rect x="116.25" y="105.056" fill="#231F20" width="7.5" height="7.5"/>
	<rect x="123.75" y="105.056" fill="#EEE1BF" width="7.5" height="7.5"/>
	<rect x="116.25" y="112.526" fill="#EDD69F" width="7.5" height="7.5"/>
	<rect x="123.75" y="112.526" fill="#3E2D02" width="7.5" height="7.5"/>
	<rect x="116.25" y="127.478" fill="#EDD69F" width="7.5" height="7.5"/>
	<rect x="123.75" y="127.478" fill="#3B2314" width="7.5" height="7.5"/>
	<rect x="116.25" y="134.992" fill="#EDD69F" width="7.5" height="7.5"/>
	<rect x="123.75" y="134.992" fill="#EEE1BF" width="7.5" height="7.5"/>
	<rect x="116.25" y="142.478" fill="#EDD69F" width="7.5" height="7.5"/>
	<rect x="108.75" y="134.992" fill="#EDD69F" width="7.5" height="7.5"/>
	<rect x="101.25" y="134.992" fill="#EDD69F" width="7.5" height="7.5"/>
	<rect x="108.75" y="127.492" fill="#EEE1BF" width="7.5" height="7.5"/>
	<rect x="123.75" y="142.478" fill="#EDD69F" width="7.5" height="7.5"/>
	<rect x="138.75" y="142.478" fill="#EEE1BF" width="7.5" height="7.5"/>
	<rect x="131.25" y="142.478" fill="#EDD69F" width="7.5" height="7.5"/>
	<rect x="146.25" y="142.478" fill="#D5CBAD" width="7.5" height="7.5"/>
	<rect x="161.25" y="142.478" fill="#EDD69F" width="7.5" height="7.5"/>
	<rect x="153.75" y="142.478" fill="#EDD69F" width="7.5" height="7.5"/>
	<rect x="138.75" y="149.963" fill="#FFFFFF" width="7.5" height="7.5"/>
	<rect x="131.25" y="149.963" fill="#FFFFFF" width="7.5" height="7.5"/>
	<rect x="146.25" y="149.963" fill="#FFFFFF" width="7.5" height="7.5"/>
	<rect x="153.75" y="149.963" fill="#BB807B" width="7.5" height="7.5"/>
	<rect x="138.75" y="157.448" fill="#D28F8C" width="7.5" height="7.5"/>
	<rect x="131.25" y="157.448" fill="#D28F8C" width="7.5" height="7.5"/>
	<rect x="146.25" y="157.448" fill="#D28F8C" width="7.5" height="7.5"/>
	<rect x="153.75" y="157.448" fill="#EDD69F" width="7.5" height="7.5"/>
	<rect x="138.75" y="164.948" fill="#EDD69F" width="7.5" height="7.5"/>
	<rect x="131.25" y="164.948" fill="#EDD69F" width="7.5" height="7.5"/>
	<rect x="146.25" y="164.948" fill="#EDD69F" width="7.5" height="7.5"/>
	<rect x="138.75" y="179.958" fill="#EDD69F" width="7.5" height="7.5"/>
	<rect x="146.25" y="179.958" fill="#EEE1BF" width="7.5" height="7.5"/>
	<rect x="153.75" y="179.958" fill="#EDD69F" width="7.5" height="7.5"/>
	<rect x="138.75" y="172.448" fill="#EEE1BF" width="7.5" height="7.5"/>
	<rect x="146.25" y="172.448" fill="#EDD69F" width="7.5" height="7.5"/>
	<rect x="153.75" y="172.448" fill="#EDD69F" width="7.5" height="7.5"/>
	<rect x="138.75" y="187.419" fill="#D5CBAD" width="7.5" height="7.5"/>
	<rect x="146.25" y="187.419" fill="#EDD69F" width="7.5" height="7.5"/>
	<rect x="153.75" y="187.419" fill="#EDD69F" width="7.5" height="7.5"/>
	<rect x="153.75" y="164.948" fill="#EDD69F" width="7.5" height="7.5"/>
	<rect x="161.25" y="187.429" fill="#C3D2E0" width="7.5" height="7.5"/>
	<rect x="131.25" y="187.429" fill="#C3D2E0" width="7.5" height="7.5"/>
	<rect x="123.75" y="187.429" fill="#2E3192" width="7.5" height="7.5"/>
	<rect x="131.25" y="179.958" fill="#C3D2E0" width="7.5" height="7.5"/>
	<rect x="123.75" y="179.919" fill="#C3D2E0" width="7.5" height="7.5"/>
	<rect x="116.25" y="179.919" fill="#D7E4EB" width="7.5" height="7.5"/>
	<rect x="168.75" y="187.429" fill="#2E3192" width="7.5" height="7.5"/>
	<rect x="161.25" y="179.919" fill="#C3D2E0" width="7.5" height="7.5"/>
	<rect x="168.75" y="179.919" fill="#D7E4EB" width="7.5" height="7.5"/>
	<rect x="176.25" y="179.919" fill="#D7E4EB" width="7.5" height="7.5"/>
	<rect x="138.75" y="202.429" fill="#C3D2E0" width="7.5" height="7.5"/>
	<rect x="146.25" y="202.429" fill="#FFFFFF" width="7.5" height="7.5"/>
	<rect x="161.25" y="202.429" fill="#2E3192" width="7.5" height="7.5"/>
	<rect x="153.75" y="202.429" fill="#C3D2E0" width="7.5" height="7.5"/>
	<rect x="131.25" y="202.429" fill="#2E3192" width="7.5" height="7.5"/>
	<rect x="123.75" y="202.429" fill="#D7E4EB" width="7.5" height="7.5"/>
	<rect x="116.25" y="202.429" fill="#C3D2E0" width="7.5" height="7.5"/>
	<rect x="168.75" y="202.429" fill="#C3D2E0" width="7.5" height="7.5"/>
	<rect x="176.25" y="202.429" fill="#D7E4EB" width="7.5" height="7.5"/>
	<rect x="183.75" y="202.429" fill="#C3D2E0" width="7.5" height="7.5"/>
	<rect x="191.25" y="202.429" fill="#D7E4EB" width="7.5" height="7.5"/>
	<rect x="138.75" y="217.429" fill="#D7E4EB" width="7.5" height="7.5"/>
	<rect x="146.25" y="217.429" fill="#2E3192" width="7.5" height="7.5"/>
	<rect x="161.25" y="217.429" fill="#D7E4EB" width="7.5" height="7.5"/>
	<rect x="153.75" y="217.429" fill="#C3D2E0" width="7.5" height="7.5"/>
	<rect x="131.25" y="217.429" fill="#C3D2E0" width="7.5" height="7.5"/>
	<rect x="123.75" y="217.429" fill="#9CB6C8" width="7.5" height="7.5"/>
	<rect x="116.25" y="217.429" fill="#C3D2E0" width="7.5" height="7.5"/>
	<rect x="168.75" y="217.429" fill="#C3D2E0" width="7.5" height="7.5"/>
	<rect x="176.25" y="217.429" fill="#9CB6C8" width="7.5" height="7.5"/>
	<rect x="183.75" y="217.429" fill="#C3D2E0" width="7.5" height="7.5"/>
	<rect x="191.25" y="217.429" fill="#D7E4EB" width="7.5" height="7.5"/>
	<rect x="138.75" y="194.929" fill="#FFFFFF" width="7.5" height="7.5"/>
	<rect x="146.25" y="194.929" fill="#FFFFFF" width="7.5" height="7.5"/>
	<rect x="161.25" y="194.929" fill="#C3D2E0" width="7.5" height="7.5"/>
	<rect x="153.75" y="194.929" fill="#FFFFFF" width="7.5" height="7.5"/>
	<rect x="131.25" y="194.929" fill="#C3D2E0" width="7.5" height="7.5"/>
	<rect x="123.75" y="194.929" fill="#2E3192" width="7.5" height="7.5"/>
	<rect x="116.25" y="194.929" fill="#C3D2E0" width="7.5" height="7.5"/>
	<rect x="168.75" y="194.929" fill="#2E3192" width="7.5" height="7.5"/>
	<rect x="176.25" y="194.929" fill="#D7E4EB" width="7.5" height="7.5"/>
	<rect x="183.75" y="194.929" fill="#C3D2E0" width="7.5" height="7.5"/>
	<rect x="191.25" y="194.929" fill="#D7E4EB" width="7.5" height="7.5"/>
	<rect x="138.75" y="209.929" fill="#2E3192" width="7.5" height="7.5"/>
	<rect x="146.25" y="209.929" fill="#C3D2E0" width="7.5" height="7.5"/>
	<rect x="161.25" y="209.929" fill="#D7E4EB" width="7.5" height="7.5"/>
	<rect x="153.75" y="209.929" fill="#2E3192" width="7.5" height="7.5"/>
	<rect x="131.25" y="209.929" fill="#C3D2E0" width="7.5" height="7.5"/>
	<rect x="123.75" y="209.929" fill="#D7E4EB" width="7.5" height="7.5"/>
	<rect x="116.25" y="209.929" fill="#C3D2E0" width="7.5" height="7.5"/>
	<rect x="108.75" y="202.429" fill="#D7E4EB" width="7.5" height="7.5"/>
	<rect x="108.75" y="217.429" fill="#D7E4EB" width="7.5" height="7.5"/>
	<rect x="108.75" y="209.929" fill="#D7E4EB" width="7.5" height="7.5"/>
	<rect x="168.75" y="209.929" fill="#ED1C24" width="7.5" height="7.5"/>
	<rect x="176.25" y="209.929" fill="#D7E4EB" width="7.5" height="7.5"/>
	<rect x="183.75" y="209.929" fill="#C3D2E0" width="7.5" height="7.5"/>
	<rect x="191.25" y="209.929" fill="#D7E4EB" width="7.5" height="7.5"/>
	<rect x="168.75" y="142.478" fill="#EFC8A6" width="7.5" height="7.5"/>
	<rect x="161.25" y="134.992" fill="#231F20" width="7.5" height="7.5"/>
	<rect x="168.75" y="134.992" fill="#EDD69F" width="7.5" height="7.5"/>
	<rect x="161.25" y="157.448" fill="#EDD69F" width="7.5" height="7.5"/>
	<rect x="161.25" y="149.963" fill="#EDD69F" width="7.5" height="7.5"/>
	<rect x="168.75" y="149.963" fill="#EDD69F" width="7.5" height="7.5"/>
	<rect x="161.25" y="127.478" fill="#3E2D02" width="7.5" height="7.5"/>
	<rect x="168.75" y="127.478" fill="#EDD69F" width="7.5" height="7.5"/>
	<rect x="161.25" y="112.526" fill="#3E2D02" width="7.5" height="7.5"/>
	<rect x="168.75" y="112.526" fill="#3E2D02" width="7.5" height="7.5"/>
	<rect x="176.25" y="127.478" fill="#EDD69F" width="7.5" height="7.5"/>
	<rect x="176.25" y="119.992" fill="#3E2D02" width="7.5" height="7.5"/>
	<rect x="131.25" y="105.056" fill="#EDD69F" width="7.5" height="7.5"/>
	<rect x="138.75" y="105.056" fill="#EDD69F" width="7.5" height="7.5"/>
	<rect x="146.25" y="105.056" fill="#231F20" width="7.5" height="7.5"/>
	<rect x="153.75" y="105.056" fill="#3E2D02" width="7.5" height="7.5"/>
	<rect x="131.25" y="112.526" fill="#3E2D02" width="7.5" height="7.5"/>
	<rect x="138.75" y="112.526" fill="#EDD69F" width="7.5" height="7.5"/>
	<rect x="146.25" y="112.526" fill="#231F20" width="7.5" height="7.5"/>
	<rect x="153.75" y="112.526" fill="#3E2D02" width="7.5" height="7.5"/>
	<rect x="116.25" y="119.992" fill="#EEE1BF" width="7.5" height="7.5"/>
	<rect x="123.75" y="119.992" fill="#EDD69F" width="7.5" height="7.5"/>
	<rect x="161.25" y="119.992" fill="#3E2D02" width="7.5" height="7.5"/>
	<rect x="168.75" y="119.992" fill="#231F20" width="7.5" height="7.5"/>
	<rect x="131.25" y="119.992" fill="#EDD69F" width="7.5" height="7.5"/>
	<rect x="138.75" y="119.992" fill="#EDD69F" width="7.5" height="7.5"/>
	<rect x="146.25" y="119.992" fill="#EDD69F" width="7.5" height="7.5"/>
	<rect x="153.75" y="119.992" fill="#231F20" width="7.5" height="7.5"/>
	<rect x="131.25" y="127.478" fill="#FFFFFF" width="7.5" height="7.5"/>
	<rect x="138.75" y="127.478" fill="#EDD69F" width="7.5" height="7.5"/>
	<rect x="146.25" y="127.478" fill="#EDD69F" width="7.5" height="7.5"/>
	<rect x="153.75" y="127.478" fill="#231F20" width="7.5" height="7.5"/>
	<rect x="131.25" y="134.978" fill="#EDD69F" width="7.5" height="7.5"/>
	<rect x="138.75" y="134.978" fill="#D5CBAD" width="7.5" height="7.5"/>
	<rect x="146.25" y="134.978" fill="#EDD69F" width="7.5" height="7.5"/>
	<rect x="153.75" y="134.978" fill="#EDD69F" width="7.5" height="7.5"/>
	<rect x="161.25" y="90.056" fill="#3E2D02" width="7.5" height="7.5"/>
	<rect x="168.75" y="90.056" fill="#3E2D02" width="7.5" height="7.5"/>
	<rect x="123.75" y="82.57" fill="#231F20" width="7.5" height="7.5"/>
	<rect x="123.75" y="75.07" fill="#3E2D02" width="7.5" height="7.5"/>
	<rect x="116.25" y="82.57" fill="#3E2D02" width="7.5" height="7.5"/>
	<rect x="131.25" y="82.57" fill="#231F20" width="7.5" height="7.5"/>
	<rect x="138.75" y="82.57" fill="#3E2D02" width="7.5" height="7.5"/>
	<rect x="146.25" y="82.57" fill="#231F20" width="7.5" height="7.5"/>
	<rect x="153.75" y="82.57" fill="#3E2D02" width="7.5" height="7.5"/>
	<rect x="161.25" y="82.57" fill="#3E2D02" width="7.5" height="7.5"/>
	<rect x="153.75" y="75.07" fill="#3E2D02" width="7.5" height="7.5"/>
	<rect x="161.25" y="75.07" fill="#3E2D02" width="7.5" height="7.5"/>
	<rect x="168.75" y="82.57" fill="#3E2D02" width="7.5" height="7.5"/>
	<rect x="176.25" y="90.056" fill="#3E2D02" width="7.5" height="7.5"/>
	<rect x="176.25" y="82.57" fill="#3E2D02" width="7.5" height="7.5"/>
	<rect x="161.25" y="97.556" fill="#3C2415" width="7.5" height="7.5"/>
	<rect x="168.75" y="97.556" fill="#3E2D02" width="7.5" height="7.5"/>
	<rect x="161.25" y="105.056" fill="#231F20" width="7.5" height="7.5"/>
	<rect x="168.75" y="105.056" fill="#3C2415" width="7.5" height="7.5"/>
	<rect x="176.25" y="112.526" fill="#3C2415" width="7.5" height="7.5"/>
	<rect x="176.25" y="97.556" fill="#3E2D02" width="7.5" height="7.5"/>
	<rect x="183.75" y="97.556" fill="#3E2D02" width="7.5" height="7.5"/>
	<rect x="176.25" y="105.056" fill="#3E2D02" width="7.5" height="7.5"/>
	<rect x="183.75" y="127.512" fill="#3E2D02" width="7.5" height="7.5"/>
	<rect x="183.75" y="120.041" fill="#3E2D02" width="7.5" height="7.5"/>
	<rect x="183.75" y="112.551" fill="#3E2D02" width="7.5" height="7.5"/>
	<rect x="183.75" y="105.051" fill="#3E2D02" width="7.5" height="7.5"/>
	<rect x="176.25" y="142.463" fill="#3E2D02" width="7.5" height="7.5"/>
	<rect x="176.25" y="134.992" fill="#3E2D02" width="7.5" height="7.5"/>
</g>
</svg>
