<?xml version="1.0" encoding="utf-8"?>
<!-- Generator: Adobe Illustrator 16.0.0, SVG Export Plug-In . SVG Version: 6.00 Build 0)  -->
<!DOCTYPE svg PUBLIC "-//W3C//DTD SVG 1.1//EN" "http://www.w3.org/Graphics/SVG/1.1/DTD/svg11.dtd">
<svg version="1.1" id="Layer_1" xmlns="http://www.w3.org/2000/svg" xmlns:xlink="http://www.w3.org/1999/xlink" x="0px" y="0px"
	 width="300px" height="300px" viewBox="0 0 300 300" enable-background="new 0 0 300 300" xml:space="preserve">
<g>
	<rect x="123.75" y="75.083" fill="#D7BFAA" width="7.5" height="7.5"/>
	<rect x="131.25" y="75.083" fill="#D7BFAA" width="7.5" height="7.5"/>
	<rect x="138.75" y="75.083" fill="#D7BFAA" width="7.5" height="7.5"/>
	<rect x="146.25" y="75.083" fill="#D7BFAA" width="7.5" height="7.5"/>
	<rect x="116.25" y="90.073" fill="#F7E0CF" width="7.5" height="7.5"/>
	<rect x="123.75" y="90.073" fill="#EFD1B8" width="7.5" height="7.5"/>
	<rect x="131.25" y="90.073" fill="#EFD1B8" width="7.5" height="7.5"/>
	<rect x="138.75" y="90.073" fill="#EFD1B8" width="7.5" height="7.5"/>
	<rect x="146.25" y="90.073" fill="#EFD1B8" width="7.5" height="7.5"/>
	<rect x="153.75" y="90.073" fill="#F7E0CF" width="7.5" height="7.5"/>
	<rect x="116.25" y="97.573" fill="#F7E0CF" width="7.5" height="7.5"/>
	<rect x="123.75" y="97.573" fill="#F7E0CF" width="7.5" height="7.5"/>
	<rect x="131.25" y="97.573" fill="#EFD1B8" width="7.5" height="7.5"/>
	<rect x="138.75" y="97.573" fill="#EFD1B8" width="7.5" height="7.5"/>
	<rect x="146.25" y="97.573" fill="#EFD1B8" width="7.5" height="7.5"/>
	<rect x="153.75" y="97.573" fill="#EFD1B8" width="7.5" height="7.5"/>
	<rect x="116.25" y="105.073" fill="#F7E0CF" width="7.5" height="7.5"/>
	<rect x="123.75" y="105.073" fill="#EFD1B8" width="7.5" height="7.5"/>
	<rect x="116.25" y="112.544" fill="#F7E0CF" width="7.5" height="7.5"/>
	<rect x="123.75" y="112.544" fill="#F7E0CF" width="7.5" height="7.5"/>
	<rect x="116.25" y="127.495" fill="#231F20" width="7.5" height="7.5"/>
	<rect x="123.75" y="127.495" fill="#7F95A5" width="7.5" height="7.5"/>
	<rect x="116.25" y="135.005" fill="#EFD1B8" width="7.5" height="7.5"/>
	<rect x="123.75" y="135.005" fill="#231F20" width="7.5" height="7.5"/>
	<rect x="116.25" y="142.495" fill="#AD8D75" width="7.5" height="7.5"/>
	<rect x="108.75" y="135.005" fill="#EFD1B8" width="7.5" height="7.5"/>
	<rect x="101.25" y="135.005" fill="#F7E0CF" width="7.5" height="7.5"/>
	<rect x="108.75" y="127.495" fill="#EFD1B8" width="7.5" height="7.5"/>
	<rect x="123.75" y="142.495" fill="#AD8D75" width="7.5" height="7.5"/>
	<rect x="138.75" y="142.495" fill="#C2B59B" width="7.5" height="7.5"/>
	<rect x="131.25" y="142.495" fill="#AD8D75" width="7.5" height="7.5"/>
	<rect x="146.25" y="142.495" fill="#F7E0CF" width="7.5" height="7.5"/>
	<rect x="161.25" y="142.495" fill="#D7BFAA" width="7.5" height="7.5"/>
	<rect x="153.75" y="142.495" fill="#EFD1B8" width="7.5" height="7.5"/>
	<rect x="138.75" y="149.976" fill="#FFFFFF" width="7.5" height="7.5"/>
	<rect x="131.25" y="149.976" fill="#FFFFFF" width="7.5" height="7.5"/>
	<rect x="146.25" y="149.976" fill="#FFFFFF" width="7.5" height="7.5"/>
	<rect x="153.75" y="149.976" fill="#D28F8C" width="7.5" height="7.5"/>
	<rect x="138.75" y="157.466" fill="#D28F8C" width="7.5" height="7.5"/>
	<rect x="131.25" y="157.466" fill="#D28F8C" width="7.5" height="7.5"/>
	<rect x="146.25" y="157.466" fill="#D28F8C" width="7.5" height="7.5"/>
	<rect x="153.75" y="157.466" fill="#D7BFAA" width="7.5" height="7.5"/>
	<rect x="138.75" y="164.966" fill="#AD8D75" width="7.5" height="7.5"/>
	<rect x="131.25" y="164.966" fill="#726658" width="7.5" height="7.5"/>
	<rect x="146.25" y="164.966" fill="#C2B59B" width="7.5" height="7.5"/>
	<rect x="138.75" y="179.917" fill="#D7BFAA" width="7.5" height="7.5"/>
	<rect x="146.25" y="179.917" fill="#D7BFAA" width="7.5" height="7.5"/>
	<rect x="138.75" y="187.417" fill="#EFD1B8" width="7.5" height="7.5"/>
	<rect x="146.25" y="187.417" fill="#EFD1B8" width="7.5" height="7.5"/>
	<rect x="153.75" y="179.917" fill="#EFD1B8" width="7.5" height="7.5"/>
	<rect x="138.75" y="172.466" fill="#BAA993" width="7.5" height="7.5"/>
	<rect x="146.25" y="172.466" fill="#BAA993" width="7.5" height="7.5"/>
	<rect x="153.75" y="172.466" fill="#EFD1B8" width="7.5" height="7.5"/>
	<rect x="153.75" y="164.966" fill="#D7BFAA" width="7.5" height="7.5"/>
	<rect x="161.25" y="164.966" fill="#EFD1B8" width="7.5" height="7.5"/>
	<rect x="161.25" y="187.417" fill="#231F20" width="7.5" height="7.5"/>
	<rect x="153.75" y="187.417" fill="#EFD1B8" width="7.5" height="7.5"/>
	<rect x="131.25" y="187.417" fill="#231F20" width="7.5" height="7.5"/>
	<rect x="161.25" y="179.917" fill="#231F20" width="7.5" height="7.5"/>
	<rect x="131.25" y="179.917" fill="#231F20" width="7.5" height="7.5"/>
	<rect x="123.75" y="187.417" fill="#D36368" width="7.5" height="7.5"/>
	<rect x="168.75" y="187.417" fill="#D36368" width="7.5" height="7.5"/>
	<rect x="176.25" y="187.417" fill="#D36368" width="7.5" height="7.5"/>
	<rect x="183.75" y="187.417" fill="#D36368" width="7.5" height="7.5"/>
	<rect x="138.75" y="202.417" fill="#D36368" width="7.5" height="7.5"/>
	<rect x="146.25" y="202.417" fill="#D36368" width="7.5" height="7.5"/>
	<rect x="161.25" y="202.417" fill="#231F20" width="7.5" height="7.5"/>
	<rect x="153.75" y="202.417" fill="#D36368" width="7.5" height="7.5"/>
	<rect x="131.25" y="202.417" fill="#231F20" width="7.5" height="7.5"/>
	<rect x="123.75" y="202.417" fill="#231F20" width="7.5" height="7.5"/>
	<rect x="116.25" y="202.417" fill="#D36368" width="7.5" height="7.5"/>
	<rect x="168.75" y="202.417" fill="#231F20" width="7.5" height="7.5"/>
	<rect x="176.25" y="202.417" fill="#D36368" width="7.5" height="7.5"/>
	<rect x="183.75" y="202.417" fill="#D36368" width="7.5" height="7.5"/>
	<rect x="191.25" y="202.417" fill="#D36368" width="7.5" height="7.5"/>
	<rect x="138.75" y="217.417" fill="#D36368" width="7.5" height="7.5"/>
	<rect x="146.25" y="217.417" fill="#D36368" width="7.5" height="7.5"/>
	<rect x="161.25" y="217.417" fill="#D36368" width="7.5" height="7.5"/>
	<rect x="153.75" y="217.417" fill="#F7941E" width="7.5" height="7.5"/>
	<rect x="131.25" y="217.417" fill="#F7941E" width="7.5" height="7.5"/>
	<rect x="123.75" y="217.417" fill="#913844" width="7.5" height="7.5"/>
	<rect x="116.25" y="217.417" fill="#D36368" width="7.5" height="7.5"/>
	<rect x="168.75" y="217.417" fill="#D36368" width="7.5" height="7.5"/>
	<rect x="176.25" y="217.417" fill="#913844" width="7.5" height="7.5"/>
	<rect x="183.75" y="217.417" fill="#D36368" width="7.5" height="7.5"/>
	<rect x="191.25" y="217.417" fill="#D36368" width="7.5" height="7.5"/>
	<rect x="138.75" y="194.917" fill="#AD6A6D" width="7.5" height="7.5"/>
	<rect x="146.25" y="194.917" fill="#AD6A6D" width="7.5" height="7.5"/>
	<rect x="161.25" y="194.917" fill="#231F20" width="7.5" height="7.5"/>
	<rect x="153.75" y="194.917" fill="#AD6A6D" width="7.5" height="7.5"/>
	<rect x="131.25" y="194.917" fill="#231F20" width="7.5" height="7.5"/>
	<rect x="123.75" y="194.917" fill="#231F20" width="7.5" height="7.5"/>
	<rect x="116.25" y="194.917" fill="#D36368" width="7.5" height="7.5"/>
	<rect x="168.75" y="194.917" fill="#231F20" width="7.5" height="7.5"/>
	<rect x="176.25" y="194.917" fill="#D36368" width="7.5" height="7.5"/>
	<rect x="183.75" y="194.917" fill="#D36368" width="7.5" height="7.5"/>
	<rect x="191.25" y="194.917" fill="#D36368" width="7.5" height="7.5"/>
	<rect x="138.75" y="209.917" fill="#F7941E" width="7.5" height="7.5"/>
	<rect x="146.25" y="209.917" fill="#D36368" width="7.5" height="7.5"/>
	<rect x="161.25" y="209.917" fill="#231F20" width="7.5" height="7.5"/>
	<rect x="153.75" y="209.917" fill="#F7941E" width="7.5" height="7.5"/>
	<rect x="131.25" y="209.917" fill="#231F20" width="7.5" height="7.5"/>
	<rect x="123.75" y="209.917" fill="#D36368" width="7.5" height="7.5"/>
	<rect x="116.25" y="209.917" fill="#D36368" width="7.5" height="7.5"/>
	<rect x="168.75" y="209.917" fill="#F7941E" width="7.5" height="7.5"/>
	<rect x="176.25" y="209.917" fill="#913844" width="7.5" height="7.5"/>
	<rect x="183.75" y="209.917" fill="#D36368" width="7.5" height="7.5"/>
	<rect x="191.25" y="209.917" fill="#D36368" width="7.5" height="7.5"/>
	<rect x="168.75" y="142.495" fill="#414042" width="7.5" height="7.5"/>
	<rect x="161.25" y="135.005" fill="#D7BFAA" width="7.5" height="7.5"/>
	<rect x="168.75" y="135.005" fill="#EFD1B8" width="7.5" height="7.5"/>
	<rect x="161.25" y="157.466" fill="#D7BFAA" width="7.5" height="7.5"/>
	<rect x="168.75" y="157.466" fill="#EFD1B8" width="7.5" height="7.5"/>
	<rect x="161.25" y="149.976" fill="#D7BFAA" width="7.5" height="7.5"/>
	<rect x="168.75" y="149.976" fill="#EFD1B8" width="7.5" height="7.5"/>
	<rect x="161.25" y="127.495" fill="#D7BFAA" width="7.5" height="7.5"/>
	<rect x="168.75" y="127.495" fill="#EFD1B8" width="7.5" height="7.5"/>
	<rect x="161.25" y="112.544" fill="#BAA993" width="7.5" height="7.5"/>
	<rect x="168.75" y="112.544" fill="#BAA993" width="7.5" height="7.5"/>
	<rect x="176.25" y="127.495" fill="#EFD1B8" width="7.5" height="7.5"/>
	<rect x="176.25" y="120.005" fill="#F7E0CF" width="7.5" height="7.5"/>
	<rect x="131.25" y="105.073" fill="#EFD1B8" width="7.5" height="7.5"/>
	<rect x="138.75" y="105.073" fill="#EFD1B8" width="7.5" height="7.5"/>
	<rect x="146.25" y="105.073" fill="#EFD1B8" width="7.5" height="7.5"/>
	<rect x="153.75" y="105.073" fill="#EFD1B8" width="7.5" height="7.5"/>
	<rect x="131.25" y="112.544" fill="#F7E0CF" width="7.5" height="7.5"/>
	<rect x="138.75" y="112.544" fill="#EFD1B8" width="7.5" height="7.5"/>
	<rect x="146.25" y="112.544" fill="#EFD1B8" width="7.5" height="7.5"/>
	<rect x="153.75" y="112.544" fill="#EFD1B8" width="7.5" height="7.5"/>
	<rect x="116.25" y="120.005" fill="#913844" width="7.5" height="7.5"/>
	<rect x="123.75" y="120.005" fill="#231F20" width="7.5" height="7.5"/>
	<rect x="161.25" y="120.005" fill="#3C2415" width="7.5" height="7.5"/>
	<rect x="168.75" y="120.005" fill="#6D808E" width="7.5" height="7.5"/>
	<rect x="131.25" y="120.005" fill="#879260" width="7.5" height="7.5"/>
	<rect x="138.75" y="120.005" fill="#231F20" width="7.5" height="7.5"/>
	<rect x="146.25" y="120.005" fill="#D7E4EB" width="7.5" height="7.5"/>
	<rect x="153.75" y="120.005" fill="#231F20" width="7.5" height="7.5"/>
	<rect x="131.25" y="127.495" fill="#FFFFFF" width="7.5" height="7.5"/>
	<rect x="138.75" y="127.495" fill="#EFD1B8" width="7.5" height="7.5"/>
	<rect x="146.25" y="127.495" fill="#3C2415" width="7.5" height="7.5"/>
	<rect x="153.75" y="127.495" fill="#EFD1B8" width="7.5" height="7.5"/>
	<rect x="131.25" y="134.995" fill="#3C2415" width="7.5" height="7.5"/>
	<rect x="138.75" y="134.995" fill="#6D808E" width="7.5" height="7.5"/>
	<rect x="146.25" y="134.995" fill="#EFD1B8" width="7.5" height="7.5"/>
	<rect x="153.75" y="134.995" fill="#EFD1B8" width="7.5" height="7.5"/>
	<rect x="161.25" y="90.073" fill="#D7BFAA" width="7.5" height="7.5"/>
	<rect x="168.75" y="90.073" fill="#D7BFAA" width="7.5" height="7.5"/>
	<rect x="116.25" y="82.583" fill="#EFD1B8" width="7.5" height="7.5"/>
	<rect x="123.75" y="82.583" fill="#EFD1B8" width="7.5" height="7.5"/>
	<rect x="131.25" y="82.583" fill="#EFD1B8" width="7.5" height="7.5"/>
	<rect x="138.75" y="82.583" fill="#EFD1B8" width="7.5" height="7.5"/>
	<rect x="146.25" y="82.583" fill="#F7E0CF" width="7.5" height="7.5"/>
	<rect x="153.75" y="82.583" fill="#D7BFAA" width="7.5" height="7.5"/>
	<rect x="161.25" y="82.583" fill="#D7BFAA" width="7.5" height="7.5"/>
	<rect x="153.75" y="75.083" fill="#D7BFAA" width="7.5" height="7.5"/>
	<rect x="161.25" y="97.573" fill="#D7BFAA" width="7.5" height="7.5"/>
	<rect x="168.75" y="97.573" fill="#BAA993" width="7.5" height="7.5"/>
	<rect x="161.25" y="105.073" fill="#D7BFAA" width="7.5" height="7.5"/>
	<rect x="168.75" y="105.073" fill="#BAA993" width="7.5" height="7.5"/>
	<rect x="176.25" y="135.005" fill="#EFD1B8" width="7.5" height="7.5"/>
	<rect x="183.75" y="120.005" fill="#F7E0CF" width="7.5" height="7.5"/>
	<rect x="183.75" y="127.495" fill="#EFD1B8" width="7.5" height="7.5"/>
</g>
</svg>
