<?xml version="1.0" encoding="utf-8"?>
<!-- Generator: Adobe Illustrator 16.0.0, SVG Export Plug-In . SVG Version: 6.00 Build 0)  -->
<!DOCTYPE svg PUBLIC "-//W3C//DTD SVG 1.1//EN" "http://www.w3.org/Graphics/SVG/1.1/DTD/svg11.dtd">
<svg version="1.1" id="Layer_1" xmlns="http://www.w3.org/2000/svg" xmlns:xlink="http://www.w3.org/1999/xlink" x="0px" y="0px"
	 width="300px" height="300px" viewBox="0 0 300 300" enable-background="new 0 0 300 300" xml:space="preserve">
<g>
	<rect x="123.75" y="82.573" fill="#2F292B" width="7.5" height="7.5"/>
	<rect x="131.25" y="82.573" fill="#2F292B" width="7.5" height="7.5"/>
	<rect x="138.75" y="82.573" fill="#2F292B" width="7.5" height="7.5"/>
	<rect x="146.25" y="82.573" fill="#2F292B" width="7.5" height="7.5"/>
	<rect x="116.25" y="97.559" fill="#2F292B" width="7.5" height="7.5"/>
	<rect x="123.75" y="97.559" fill="#525255" width="7.5" height="7.5"/>
	<rect x="131.25" y="97.559" fill="#2F292B" width="7.5" height="7.5"/>
	<rect x="138.75" y="97.559" fill="#2F292B" width="7.5" height="7.5"/>
	<rect x="146.25" y="97.559" fill="#2F292B" width="7.5" height="7.5"/>
	<rect x="153.75" y="97.559" fill="#2F292B" width="7.5" height="7.5"/>
	<rect x="116.25" y="105.059" fill="#525255" width="7.5" height="7.5"/>
	<rect x="123.75" y="105.059" fill="#EDD69F" width="7.5" height="7.5"/>
	<rect x="131.25" y="105.059" fill="#2F292B" width="7.5" height="7.5"/>
	<rect x="138.75" y="105.059" fill="#EDD69F" width="7.5" height="7.5"/>
	<rect x="146.25" y="105.059" fill="#2F292B" width="7.5" height="7.5"/>
	<rect x="153.75" y="105.059" fill="#2F292B" width="7.5" height="7.5"/>
	<rect x="116.25" y="112.559" fill="#EEE1BF" width="7.5" height="7.5"/>
	<rect x="123.75" y="112.559" fill="#EEE1BF" width="7.5" height="7.5"/>
	<rect x="116.25" y="120.029" fill="#EDD69F" width="7.5" height="7.5"/>
	<rect x="123.75" y="120.029" fill="#525255" width="7.5" height="7.5"/>
	<rect x="116.25" y="134.98" fill="#EDD69F" width="7.5" height="7.5"/>
	<rect x="123.75" y="134.98" fill="#4C2F1C" width="7.5" height="7.5"/>
	<rect x="116.25" y="142.495" fill="#EDD69F" width="7.5" height="7.5"/>
	<rect x="123.75" y="142.495" fill="#EEE1BF" width="7.5" height="7.5"/>
	<rect x="116.25" y="149.98" fill="#C2B99F" width="7.5" height="7.5"/>
	<rect x="108.75" y="142.495" fill="#EDD69F" width="7.5" height="7.5"/>
	<rect x="101.25" y="142.495" fill="#EDD69F" width="7.5" height="7.5"/>
	<rect x="108.75" y="134.995" fill="#EDD69F" width="7.5" height="7.5"/>
	<rect x="123.75" y="149.98" fill="#D5CBAD" width="7.5" height="7.5"/>
	<rect x="138.75" y="149.98" fill="#D5CBAD" width="7.5" height="7.5"/>
	<rect x="131.25" y="149.98" fill="#D5CBAD" width="7.5" height="7.5"/>
	<rect x="146.25" y="149.98" fill="#EEE1BF" width="7.5" height="7.5"/>
	<rect x="161.25" y="149.98" fill="#D5CBAD" width="7.5" height="7.5"/>
	<rect x="153.75" y="149.98" fill="#D5CBAD" width="7.5" height="7.5"/>
	<rect x="138.75" y="157.466" fill="#FFFFFF" width="7.5" height="7.5"/>
	<rect x="131.25" y="157.466" fill="#FFFFFF" width="7.5" height="7.5"/>
	<rect x="146.25" y="157.466" fill="#FFFFFF" width="7.5" height="7.5"/>
	<rect x="153.75" y="157.466" fill="#BB807B" width="7.5" height="7.5"/>
	<rect x="138.75" y="164.951" fill="#D28F8C" width="7.5" height="7.5"/>
	<rect x="131.25" y="164.951" fill="#D28F8C" width="7.5" height="7.5"/>
	<rect x="146.25" y="164.951" fill="#BB807B" width="7.5" height="7.5"/>
	<rect x="153.75" y="164.951" fill="#D5CBAD" width="7.5" height="7.5"/>
	<rect x="138.75" y="172.451" fill="#D5CBAD" width="7.5" height="7.5"/>
	<rect x="131.25" y="172.451" fill="#C2B99F" width="7.5" height="7.5"/>
	<rect x="146.25" y="172.451" fill="#D5CBAD" width="7.5" height="7.5"/>
	<rect x="138.75" y="179.951" fill="#EEE1BF" width="7.5" height="7.5"/>
	<rect x="146.25" y="179.951" fill="#EDD69F" width="7.5" height="7.5"/>
	<rect x="153.75" y="179.951" fill="#EDD69F" width="7.5" height="7.5"/>
	<rect x="138.75" y="187.412" fill="#D5CBAD" width="7.5" height="7.5"/>
	<rect x="146.25" y="187.412" fill="#EDD69F" width="7.5" height="7.5"/>
	<rect x="153.75" y="187.412" fill="#EDD69F" width="7.5" height="7.5"/>
	<rect x="153.75" y="172.451" fill="#D5CBAD" width="7.5" height="7.5"/>
	<rect x="161.25" y="187.427" fill="#5F8AA2" width="7.5" height="7.5"/>
	<rect x="131.25" y="187.427" fill="#5F8AA2" width="7.5" height="7.5"/>
	<rect x="123.75" y="187.427" fill="#74A8C4" width="7.5" height="7.5"/>
	<rect x="168.75" y="187.427" fill="#74A8C4" width="7.5" height="7.5"/>
	<rect x="176.25" y="187.427" fill="#74A8C4" width="7.5" height="7.5"/>
	<rect x="138.75" y="202.427" fill="#5F8AA2" width="7.5" height="7.5"/>
	<rect x="146.25" y="202.427" fill="#5F8AA2" width="7.5" height="7.5"/>
	<rect x="161.25" y="202.427" fill="#74A8C4" width="7.5" height="7.5"/>
	<rect x="153.75" y="202.427" fill="#5F8AA2" width="7.5" height="7.5"/>
	<rect x="131.25" y="202.427" fill="#74A8C4" width="7.5" height="7.5"/>
	<rect x="123.75" y="202.427" fill="#74A8C4" width="7.5" height="7.5"/>
	<rect x="116.25" y="202.427" fill="#74A8C4" width="7.5" height="7.5"/>
	<rect x="168.75" y="202.427" fill="#74A8C4" width="7.5" height="7.5"/>
	<rect x="176.25" y="202.427" fill="#74A8C4" width="7.5" height="7.5"/>
	<rect x="183.75" y="202.427" fill="#74A8C4" width="7.5" height="7.5"/>
	<rect x="191.25" y="202.427" fill="#74A8C4" width="7.5" height="7.5"/>
	<rect x="138.75" y="217.427" fill="#74A8C4" width="7.5" height="7.5"/>
	<rect x="146.25" y="217.427" fill="#74A8C4" width="7.5" height="7.5"/>
	<rect x="161.25" y="217.427" fill="#74A8C4" width="7.5" height="7.5"/>
	<rect x="153.75" y="217.427" fill="#74A8C4" width="7.5" height="7.5"/>
	<rect x="131.25" y="217.427" fill="#74A8C4" width="7.5" height="7.5"/>
	<rect x="123.75" y="217.427" fill="#74A8C4" width="7.5" height="7.5"/>
	<rect x="116.25" y="217.427" fill="#EDD69F" width="7.5" height="7.5"/>
	<rect x="168.75" y="217.427" fill="#74A8C4" width="7.5" height="7.5"/>
	<rect x="176.25" y="217.427" fill="#EEE1BF" width="7.5" height="7.5"/>
	<rect x="183.75" y="217.427" fill="#EDD69F" width="7.5" height="7.5"/>
	<rect x="191.25" y="217.427" fill="#EDD69F" width="7.5" height="7.5"/>
	<rect x="138.75" y="194.927" fill="#2F292B" width="7.5" height="7.5"/>
	<rect x="146.25" y="194.927" fill="#2F292B" width="7.5" height="7.5"/>
	<rect x="161.25" y="194.927" fill="#5F8AA2" width="7.5" height="7.5"/>
	<rect x="153.75" y="194.927" fill="#2F292B" width="7.5" height="7.5"/>
	<rect x="131.25" y="194.927" fill="#5F8AA2" width="7.5" height="7.5"/>
	<rect x="123.75" y="194.927" fill="#74A8C4" width="7.5" height="7.5"/>
	<rect x="116.25" y="194.927" fill="#74A8C4" width="7.5" height="7.5"/>
	<rect x="168.75" y="194.927" fill="#74A8C4" width="7.5" height="7.5"/>
	<rect x="176.25" y="194.927" fill="#74A8C4" width="7.5" height="7.5"/>
	<rect x="183.75" y="194.927" fill="#74A8C4" width="7.5" height="7.5"/>
	<rect x="191.25" y="194.927" fill="#74A8C4" width="7.5" height="7.5"/>
	<rect x="138.75" y="209.927" fill="#74A8C4" width="7.5" height="7.5"/>
	<rect x="146.25" y="209.927" fill="#74A8C4" width="7.5" height="7.5"/>
	<rect x="161.25" y="209.927" fill="#74A8C4" width="7.5" height="7.5"/>
	<rect x="153.75" y="209.927" fill="#74A8C4" width="7.5" height="7.5"/>
	<rect x="131.25" y="209.927" fill="#74A8C4" width="7.5" height="7.5"/>
	<rect x="123.75" y="209.927" fill="#74A8C4" width="7.5" height="7.5"/>
	<rect x="116.25" y="209.927" fill="#5F8AA2" width="7.5" height="7.5"/>
	<rect x="108.75" y="202.427" fill="#74A8C4" width="7.5" height="7.5"/>
	<rect x="108.75" y="217.427" fill="#EEE1BF" width="7.5" height="7.5"/>
	<rect x="108.75" y="209.927" fill="#5F8AA2" width="7.5" height="7.5"/>
	<rect x="168.75" y="209.927" fill="#74A8C4" width="7.5" height="7.5"/>
	<rect x="176.25" y="209.927" fill="#5F8AA2" width="7.5" height="7.5"/>
	<rect x="183.75" y="209.927" fill="#5F8AA2" width="7.5" height="7.5"/>
	<rect x="191.25" y="209.927" fill="#5F8AA2" width="7.5" height="7.5"/>
	<rect x="168.75" y="149.98" fill="#EDD69F" width="7.5" height="7.5"/>
	<rect x="161.25" y="142.495" fill="#2F292B" width="7.5" height="7.5"/>
	<rect x="168.75" y="142.495" fill="#EDD69F" width="7.5" height="7.5"/>
	<rect x="161.25" y="164.951" fill="#D5CBAD" width="7.5" height="7.5"/>
	<rect x="161.25" y="157.466" fill="#D5CBAD" width="7.5" height="7.5"/>
	<rect x="168.75" y="157.466" fill="#EDD69F" width="7.5" height="7.5"/>
	<rect x="161.25" y="134.98" fill="#2F292B" width="7.5" height="7.5"/>
	<rect x="168.75" y="134.98" fill="#EDD69F" width="7.5" height="7.5"/>
	<rect x="161.25" y="120.029" fill="#2F292B" width="7.5" height="7.5"/>
	<rect x="168.75" y="120.029" fill="#2F292B" width="7.5" height="7.5"/>
	<rect x="176.25" y="134.98" fill="#EDD69F" width="7.5" height="7.5"/>
	<rect x="176.25" y="127.495" fill="#EDD69F" width="7.5" height="7.5"/>
	<rect x="131.25" y="112.559" fill="#EDD69F" width="7.5" height="7.5"/>
	<rect x="138.75" y="112.559" fill="#EDD69F" width="7.5" height="7.5"/>
	<rect x="146.25" y="112.559" fill="#EDD69F" width="7.5" height="7.5"/>
	<rect x="153.75" y="112.559" fill="#525255" width="7.5" height="7.5"/>
	<rect x="131.25" y="120.029" fill="#525255" width="7.5" height="7.5"/>
	<rect x="138.75" y="120.029" fill="#EDD69F" width="7.5" height="7.5"/>
	<rect x="146.25" y="120.029" fill="#EDD69F" width="7.5" height="7.5"/>
	<rect x="153.75" y="120.029" fill="#525255" width="7.5" height="7.5"/>
	<rect x="116.25" y="127.495" fill="#EDD69F" width="7.5" height="7.5"/>
	<rect x="123.75" y="127.495" fill="#EDD69F" width="7.5" height="7.5"/>
	<rect x="161.25" y="127.495" fill="#2F292B" width="7.5" height="7.5"/>
	<rect x="168.75" y="127.495" fill="#2F292B" width="7.5" height="7.5"/>
	<rect x="131.25" y="127.495" fill="#EDD69F" width="7.5" height="7.5"/>
	<rect x="138.75" y="127.495" fill="#EDD69F" width="7.5" height="7.5"/>
	<rect x="146.25" y="127.495" fill="#EDD69F" width="7.5" height="7.5"/>
	<rect x="153.75" y="127.495" fill="#2F292B" width="7.5" height="7.5"/>
	<rect x="131.25" y="134.98" fill="#FFFFFF" width="7.5" height="7.5"/>
	<rect x="138.75" y="134.98" fill="#EDD69F" width="7.5" height="7.5"/>
	<rect x="146.25" y="134.98" fill="#EDD69F" width="7.5" height="7.5"/>
	<rect x="153.75" y="134.98" fill="#2F292B" width="7.5" height="7.5"/>
	<rect x="131.25" y="142.48" fill="#EDD69F" width="7.5" height="7.5"/>
	<rect x="138.75" y="142.48" fill="#F0D0B4" width="7.5" height="7.5"/>
	<rect x="146.25" y="142.48" fill="#EEE1BF" width="7.5" height="7.5"/>
	<rect x="153.75" y="142.48" fill="#EDD69F" width="7.5" height="7.5"/>
	<rect x="161.25" y="97.559" fill="#2F292B" width="7.5" height="7.5"/>
	<rect x="168.75" y="97.559" fill="#2F292B" width="7.5" height="7.5"/>
	<rect x="116.25" y="90.073" fill="#525255" width="7.5" height="7.5"/>
	<rect x="123.75" y="90.073" fill="#2F292B" width="7.5" height="7.5"/>
	<rect x="131.25" y="90.073" fill="#2F292B" width="7.5" height="7.5"/>
	<rect x="138.75" y="90.073" fill="#525255" width="7.5" height="7.5"/>
	<rect x="146.25" y="90.073" fill="#2F292B" width="7.5" height="7.5"/>
	<rect x="153.75" y="90.073" fill="#2F292B" width="7.5" height="7.5"/>
	<rect x="161.25" y="90.073" fill="#2F292B" width="7.5" height="7.5"/>
	<rect x="153.75" y="82.573" fill="#2F292B" width="7.5" height="7.5"/>
	<rect x="161.25" y="82.573" fill="#525255" width="7.5" height="7.5"/>
	<rect x="131.25" y="75.073" fill="#2F292B" width="7.5" height="7.5"/>
	<rect x="138.75" y="75.073" fill="#525255" width="7.5" height="7.5"/>
	<rect x="146.25" y="75.073" fill="#2F292B" width="7.5" height="7.5"/>
	<rect x="153.75" y="75.073" fill="#2F292B" width="7.5" height="7.5"/>
	<rect x="161.25" y="75.073" fill="#2F292B" width="7.5" height="7.5"/>
	<rect x="168.75" y="90.073" fill="#2F292B" width="7.5" height="7.5"/>
	<rect x="168.75" y="82.573" fill="#2F292B" width="7.5" height="7.5"/>
	<rect x="168.75" y="75.073" fill="#2F292B" width="7.5" height="7.5"/>
	<rect x="176.25" y="97.559" fill="#2F292B" width="7.5" height="7.5"/>
	<rect x="176.25" y="90.073" fill="#2F292B" width="7.5" height="7.5"/>
	<rect x="176.25" y="82.573" fill="#2F292B" width="7.5" height="7.5"/>
	<rect x="161.25" y="105.059" fill="#2F292B" width="7.5" height="7.5"/>
	<rect x="168.75" y="105.059" fill="#525255" width="7.5" height="7.5"/>
	<rect x="161.25" y="112.559" fill="#2F292B" width="7.5" height="7.5"/>
	<rect x="168.75" y="112.559" fill="#2F292B" width="7.5" height="7.5"/>
	<rect x="176.25" y="120.029" fill="#F0D0B4" width="7.5" height="7.5"/>
	<rect x="176.25" y="105.059" fill="#2F292B" width="7.5" height="7.5"/>
	<rect x="183.75" y="97.559" fill="#2F292B" width="7.5" height="7.5"/>
	<rect x="183.75" y="105.059" fill="#2F292B" width="7.5" height="7.5"/>
	<rect x="183.75" y="82.573" fill="#2F292B" width="7.5" height="7.5"/>
	<rect x="183.75" y="90.073" fill="#525255" width="7.5" height="7.5"/>
	<rect x="191.25" y="97.559" fill="#2F292B" width="7.5" height="7.5"/>
	<rect x="191.25" y="105.059" fill="#2F292B" width="7.5" height="7.5"/>
	<rect x="176.25" y="112.559" fill="#2F292B" width="7.5" height="7.5"/>
	<rect x="183.75" y="135.015" fill="#EDD69F" width="7.5" height="7.5"/>
	<rect x="183.75" y="127.544" fill="#F0D0B4" width="7.5" height="7.5"/>
	<rect x="183.75" y="120.054" fill="#EEE1BF" width="7.5" height="7.5"/>
	<rect x="183.75" y="112.554" fill="#2F292B" width="7.5" height="7.5"/>
	<rect x="191.25" y="112.554" fill="#2F292B" width="7.5" height="7.5"/>
	<rect x="191.25" y="120.029" fill="#2F292B" width="7.5" height="7.5"/>
	<rect x="191.25" y="127.554" fill="#2F292B" width="7.5" height="7.5"/>
	<rect x="191.25" y="135.029" fill="#2F292B" width="7.5" height="7.5"/>
	<rect x="176.25" y="149.966" fill="#525255" width="7.5" height="7.5"/>
	<rect x="183.75" y="142.5" fill="#2F292B" width="7.5" height="7.5"/>
	<rect x="176.25" y="142.495" fill="#2F292B" width="7.5" height="7.5"/>
</g>
</svg>
