<?xml version="1.0" encoding="utf-8"?>
<!-- Generator: Adobe Illustrator 16.0.0, SVG Export Plug-In . SVG Version: 6.00 Build 0)  -->
<!DOCTYPE svg PUBLIC "-//W3C//DTD SVG 1.1//EN" "http://www.w3.org/Graphics/SVG/1.1/DTD/svg11.dtd">
<svg version="1.1" id="Layer_1" xmlns="http://www.w3.org/2000/svg" xmlns:xlink="http://www.w3.org/1999/xlink" x="0px" y="0px"
	 width="300px" height="300px" viewBox="0 0 300 300" enable-background="new 0 0 300 300" xml:space="preserve">
<g>
	<rect x="120" y="120.027" fill="#F3D9D0" width="6" height="6"/>
	<rect x="126" y="120.027" fill="#EFD1B8" width="6" height="6"/>
	<rect x="132" y="120.027" fill="#EFD1B8" width="6" height="6"/>
	<rect x="138" y="120.027" fill="#EFD1B8" width="6" height="6"/>
	<rect x="144" y="120.023" fill="#EFD1B8" width="6" height="6"/>
	<rect x="114" y="126.027" fill="#EFD1B8" width="6" height="6"/>
	<rect x="120" y="126.027" fill="#EFCFC0" width="6" height="6"/>
	<rect x="126" y="126.023" fill="#EFCFC0" width="6" height="6"/>
	<rect x="132" y="126.023" fill="#EFD1B8" width="6" height="6"/>
	<rect x="138" y="126.023" fill="#EFD1B8" width="6" height="6"/>
	<rect x="144" y="126.027" fill="#EFD1B8" width="6" height="6"/>
	<rect x="114" y="132.027" fill="#231F20" width="6" height="6"/>
	<rect x="120" y="132.027" fill="#231F20" width="6" height="6"/>
	<rect x="114" y="138.004" fill="#231F20" width="6" height="6"/>
	<rect x="120" y="138.004" fill="#422D20" width="6" height="6"/>
	<rect x="114" y="143.996" fill="#EFCFC0" width="6" height="6"/>
	<rect x="120" y="143.996" fill="#231F20" width="6" height="6"/>
	<rect x="114" y="150.004" fill="#EFD1B8" width="6" height="6"/>
	<rect x="120" y="150.004" fill="#EFD1B8" width="6" height="6"/>
	<rect x="114" y="155.988" fill="#EFD1B8" width="6" height="6"/>
	<rect x="108" y="143.988" fill="#EFCFC0" width="6" height="6"/>
	<rect x="108" y="137.988" fill="#EFCFC0" width="6" height="6"/>
	<rect x="120" y="155.988" fill="#EFD1B8" width="6" height="6"/>
	<rect x="132" y="155.988" fill="#EFCFC0" width="6" height="6"/>
	<rect x="126" y="155.988" fill="#EFD1B8" width="6" height="6"/>
	<rect x="138" y="155.988" fill="#E5B29B" width="6" height="6"/>
	<rect x="150" y="155.988" fill="#EFD1B8" width="6" height="6"/>
	<rect x="144" y="155.988" fill="#F3D9D0" width="6" height="6"/>
	<rect x="132" y="161.977" fill="#FFFFFF" width="6" height="6"/>
	<rect x="126" y="161.977" fill="#FFFFFF" width="6" height="6"/>
	<rect x="120" y="161.977" fill="#FFFFFF" width="6" height="6"/>
	<rect x="138" y="161.977" fill="#AD6A6D" width="6" height="6"/>
	<rect x="144" y="161.977" fill="#EFD1B8" width="6" height="6"/>
	<rect x="132" y="167.965" fill="#AD6A6D" width="6" height="6"/>
	<rect x="126" y="167.965" fill="#BB807B" width="6" height="6"/>
	<rect x="138" y="167.965" fill="#EFD1B8" width="6" height="6"/>
	<rect x="144" y="167.965" fill="#EFD1B8" width="6" height="6"/>
	<rect x="132" y="173.965" fill="#EFD1B8" width="6" height="6"/>
	<rect x="126" y="173.965" fill="#EFD1B8" width="6" height="6"/>
	<rect x="120" y="167.965" fill="#BB807B" width="6" height="6"/>
	<rect x="120" y="173.965" fill="#EFD1B8" width="6" height="6"/>
	<rect x="126" y="179.965" fill="#D7BFAA" width="6" height="6"/>
	<rect x="138" y="173.965" fill="#EFD1B8" width="6" height="6"/>
	<rect x="132" y="179.965" fill="#D7BFAA" width="6" height="6"/>
	<rect x="138" y="179.965" fill="#D7BFAA" width="6" height="6"/>
	<rect x="144" y="179.965" fill="#D7BFAA" width="6" height="6"/>
	<rect x="144" y="173.965" fill="#EFD1B8" width="6" height="6"/>
	<rect x="150" y="173.965" fill="#D7BFAA" width="6" height="6"/>
	<rect x="150" y="179.965" fill="#EFD1B8" width="6" height="6"/>
	<rect x="132" y="191.965" fill="#95989B" width="6" height="6"/>
	<rect x="138" y="191.965" fill="#EFD1B8" width="6" height="6"/>
	<rect x="150" y="191.965" fill="#ADAFB2" width="6" height="6"/>
	<rect x="144" y="191.965" fill="#95989B" width="6" height="6"/>
	<rect x="126" y="191.965" fill="#ADAFB2" width="6" height="6"/>
	<rect x="126" y="197.965" fill="#ADAFB2" width="6" height="6"/>
	<rect x="120" y="191.965" fill="#001B30" width="6" height="6"/>
	<rect x="114" y="191.965" fill="#001B30" width="6" height="6"/>
	<rect x="156" y="191.965" fill="#001B30" width="6" height="6"/>
	<rect x="168" y="191.965" fill="#001B30" width="6" height="6"/>
	<rect x="174" y="191.965" fill="#001B30" width="6" height="6"/>
	<rect x="180" y="191.965" fill="#001B30" width="6" height="6"/>
	<rect x="132" y="203.965" fill="#ADAFB2" width="6" height="6"/>
	<rect x="138" y="203.965" fill="#C66521" width="6" height="6"/>
	<rect x="150" y="203.965" fill="#ADAFB2" width="6" height="6"/>
	<rect x="144" y="203.965" fill="#C66521" width="6" height="6"/>
	<rect x="126" y="203.965" fill="#ADAFB2" width="6" height="6"/>
	<rect x="120" y="203.965" fill="#001B30" width="6" height="6"/>
	<rect x="114" y="203.965" fill="#00051D" width="6" height="6"/>
	<rect x="156" y="203.965" fill="#001B30" width="6" height="6"/>
	<rect x="168" y="203.965" fill="#00051D" width="6" height="6"/>
	<rect x="174" y="203.965" fill="#001B30" width="6" height="6"/>
	<rect x="180" y="203.965" fill="#001B30" width="6" height="6"/>
	<rect x="132" y="185.965" fill="#D7BFAA" width="6" height="6"/>
	<rect x="138" y="185.965" fill="#D7BFAA" width="6" height="6"/>
	<rect x="150" y="185.965" fill="#95989B" width="6" height="6"/>
	<rect x="144" y="185.965" fill="#EFD1B8" width="6" height="6"/>
	<rect x="126" y="185.965" fill="#95989B" width="6" height="6"/>
	<rect x="120" y="185.965" fill="#001B30" width="6" height="6"/>
	<rect x="120" y="179.965" fill="#D7BFAA" width="6" height="6"/>
	<rect x="114" y="179.965" fill="#001B30" width="6" height="6"/>
	<rect x="114" y="173.938" fill="#001B30" width="6" height="6"/>
	<rect x="108" y="173.938" fill="#001B30" width="6" height="6"/>
	<rect x="114" y="185.965" fill="#001B30" width="6" height="6"/>
	<rect x="156" y="185.965" fill="#001B30" width="6" height="6"/>
	<rect x="168" y="185.965" fill="#001B30" width="6" height="6"/>
	<rect x="174" y="185.965" fill="#001B30" width="6" height="6"/>
	<rect x="174" y="179.965" fill="#001B30" width="6" height="6"/>
	<rect x="180" y="185.965" fill="#001B30" width="6" height="6"/>
	<rect x="132" y="197.965" fill="#ADAFB2" width="6" height="6"/>
	<rect x="138" y="197.965" fill="#ADAFB2" width="6" height="6"/>
	<rect x="150" y="197.965" fill="#C66521" width="6" height="6"/>
	<rect x="144" y="197.965" fill="#ADAFB2" width="6" height="6"/>
	<rect x="126" y="197.965" fill="#C66521" width="6" height="6"/>
	<rect x="120" y="197.965" fill="#001B30" width="6" height="6"/>
	<rect x="114" y="197.965" fill="#001B30" width="6" height="6"/>
	<rect x="108" y="191.965" fill="#001B30" width="6" height="6"/>
	<rect x="108" y="185.965" fill="#1B455E" width="6" height="6"/>
	<rect x="108" y="203.965" fill="#001B30" width="6" height="6"/>
	<rect x="108" y="197.965" fill="#001B30" width="6" height="6"/>
	<rect x="102" y="191.965" fill="#1B455E" width="6" height="6"/>
	<rect x="102" y="203.965" fill="#001B30" width="6" height="6"/>
	<rect x="102" y="197.965" fill="#001B30" width="6" height="6"/>
	<rect x="156" y="197.965" fill="#00051D" width="6" height="6"/>
	<rect x="162" y="191.965" fill="#001B30" width="6" height="6"/>
	<rect x="162" y="203.965" fill="#001B30" width="6" height="6"/>
	<rect x="162" y="185.965" fill="#001B30" width="6" height="6"/>
	<rect x="162" y="179.965" fill="#001B30" width="6" height="6"/>
	<rect x="162" y="197.965" fill="#001B30" width="6" height="6"/>
	<rect x="168" y="197.965" fill="#00051D" width="6" height="6"/>
	<rect x="174" y="197.965" fill="#001B30" width="6" height="6"/>
	<rect x="180" y="197.965" fill="#001B30" width="6" height="6"/>
	<rect x="186" y="191.965" fill="#001B30" width="6" height="6"/>
	<rect x="186" y="185.965" fill="#1B455E" width="6" height="6"/>
	<rect x="186" y="203.965" fill="#001B30" width="6" height="6"/>
	<rect x="186" y="197.965" fill="#001B30" width="6" height="6"/>
	<rect x="192" y="197.965" fill="#001B30" width="6" height="6"/>
	<rect x="192" y="191.965" fill="#1B455E" width="6" height="6"/>
	<rect x="192" y="203.965" fill="#001B30" width="6" height="6"/>
	<rect x="156" y="155.988" fill="#EFD1B8" width="6" height="6"/>
	<rect x="150" y="150" fill="#EFD1B8" width="6" height="6"/>
	<rect x="156" y="150" fill="#EFD1B8" width="6" height="6"/>
	<rect x="150" y="167.965" fill="#EFD1B8" width="6" height="6"/>
	<rect x="156" y="167.965" fill="#D7BFAA" width="6" height="6"/>
	<rect x="150" y="161.977" fill="#EFD1B8" width="6" height="6"/>
	<rect x="156" y="161.977" fill="#EFD1B8" width="6" height="6"/>
	<rect x="162" y="155.988" fill="#EFD1B8" width="6" height="6"/>
	<rect x="162" y="150" fill="#EFD1B8" width="6" height="6"/>
	<rect x="162" y="167.965" fill="#EFD1B8" width="6" height="6"/>
	<rect x="168" y="167.965" fill="#EFD1B8" width="6" height="6"/>
	<rect x="156" y="173.965" fill="#EFD1B8" width="6" height="6"/>
	<rect x="156" y="179.965" fill="#EFD1B8" width="6" height="6"/>
	<rect x="162" y="173.965" fill="#EFD1B8" width="6" height="6"/>
	<rect x="168" y="179.965" fill="#001B30" width="6" height="6"/>
	<rect x="174" y="173.965" fill="#001B30" width="6" height="6"/>
	<rect x="180" y="173.965" fill="#001B30" width="6" height="6"/>
	<rect x="168" y="173.965" fill="#001B30" width="6" height="6"/>
	<rect x="162" y="161.977" fill="#EFD1B8" width="6" height="6"/>
	<rect x="150" y="143.988" fill="#EFD1B8" width="6" height="6"/>
	<rect x="156" y="143.988" fill="#EFD1B8" width="6" height="6"/>
	<rect x="150" y="138" fill="#EFD1B8" width="6" height="6"/>
	<rect x="156" y="138" fill="#464749" width="6" height="6"/>
	<rect x="162" y="143.988" fill="#EFD1B8" width="6" height="6"/>
	<rect x="162" y="138" fill="#EFD1B8" width="6" height="6"/>
	<rect x="126" y="132.027" fill="#231F20" width="6" height="6"/>
	<rect x="132" y="132.027" fill="#231F20" width="6" height="6"/>
	<rect x="138" y="132.027" fill="#231F20" width="6" height="6"/>
	<rect x="144" y="132.027" fill="#231F20" width="6" height="6"/>
	<rect x="126" y="138" fill="#AA6D2D" width="6" height="6"/>
	<rect x="132" y="138" fill="#231F20" width="6" height="6"/>
	<rect x="126" y="138" fill="#FFFFFF" width="6" height="6"/>
	<rect x="138" y="138.004" fill="#EFD1B8" width="6" height="6"/>
	<rect x="144" y="138.004" fill="#EFD1B8" width="6" height="6"/>
	<rect x="126" y="143.996" fill="#231F20" width="6" height="6"/>
	<rect x="132" y="143.996" fill="#EFCFC0" width="6" height="6"/>
	<rect x="138" y="143.996" fill="#EFCFC0" width="6" height="6"/>
	<rect x="144" y="143.988" fill="#EFD1B8" width="6" height="6"/>
	<rect x="126" y="149.988" fill="#EFCFC0" width="6" height="6"/>
	<rect x="132" y="149.988" fill="#E5B29B" width="6" height="6"/>
	<rect x="138" y="149.988" fill="#F3D9D0" width="6" height="6"/>
	<rect x="144" y="149.988" fill="#EFD1B8" width="6" height="6"/>
	<rect x="150" y="120.023" fill="#323133" width="6" height="6"/>
	<rect x="156" y="120.023" fill="#231F20" width="6" height="6"/>
	<rect x="114" y="120.027" fill="#F3D9D0" width="6" height="6"/>
	<rect x="114" y="114.039" fill="#EFD1B8" width="6" height="6.004"/>
	<rect x="114" y="108.035" fill="#9B8579" width="6" height="6"/>
	<rect x="120" y="114.035" fill="#EFD1B8" width="6" height="6"/>
	<rect x="126" y="114.039" fill="#EFD1B8" width="6" height="6.004"/>
	<rect x="132" y="114.039" fill="#EFD1B8" width="6" height="6.004"/>
	<rect x="138" y="114.039" fill="#EFD1B8" width="6" height="6.004"/>
	<rect x="144" y="114.035" fill="#EFD1B8" width="6" height="6"/>
	<rect x="150" y="114.035" fill="#231F20" width="6" height="6"/>
	<rect x="120" y="108.035" fill="#231F20" width="6" height="6"/>
	<rect x="120" y="102.035" fill="#464749" width="6" height="6"/>
	<rect x="114" y="102.035" fill="#231F20" width="6" height="6"/>
	<rect x="126" y="96.035" fill="#464749" width="6" height="6"/>
	<rect x="126" y="102.035" fill="#231F20" width="6" height="6"/>
	<rect x="132" y="102.035" fill="#464749" width="6" height="6"/>
	<rect x="138" y="102.035" fill="#29292A" width="6" height="6"/>
	<rect x="144" y="102.035" fill="#231F20" width="6" height="6"/>
	<rect x="150" y="108.035" fill="#231F20" width="6" height="6"/>
	<rect x="150" y="102.035" fill="#231F20" width="6" height="6"/>
	<rect x="132" y="96.035" fill="#231F20" width="6" height="6"/>
	<rect x="120" y="96.035" fill="#231F20" width="6" height="6"/>
	<rect x="138" y="96.035" fill="#231F20" width="6" height="6"/>
	<rect x="144" y="96.035" fill="#29292A" width="6" height="6"/>
	<rect x="150" y="96.035" fill="#231F20" width="6" height="6"/>
	<rect x="126" y="90.035" fill="#231F20" width="6" height="6"/>
	<rect x="132" y="90.035" fill="#231F20" width="6" height="6"/>
	<rect x="138" y="90.035" fill="#231F20" width="6" height="6"/>
	<rect x="144" y="90.035" fill="#29292A" width="6" height="6"/>
	<rect x="150" y="90.035" fill="#231F20" width="6" height="6"/>
	<rect x="168" y="102.035" fill="#231F20" width="6" height="6"/>
	<rect x="162" y="102.035" fill="#231F20" width="6" height="6"/>
	<rect x="156" y="108.035" fill="#231F20" width="6" height="6"/>
	<rect x="126" y="108.035" fill="#464749" width="6" height="6"/>
	<rect x="132" y="108.035" fill="#29292A" width="6" height="6"/>
	<rect x="138" y="108.035" fill="#231F20" width="6" height="6"/>
	<rect x="144" y="108.035" fill="#EFD1B8" width="6" height="6"/>
	<rect x="156" y="114.035" fill="#464749" width="6" height="6"/>
	<rect x="150" y="126.023" fill="#464749" width="6" height="6"/>
	<rect x="156" y="126.023" fill="#464749" width="6" height="6"/>
	<rect x="150" y="132.023" fill="#231F20" width="6" height="6"/>
	<rect x="156" y="132.023" fill="#231F20" width="6" height="6"/>
	<rect x="162" y="120.023" fill="#464749" width="6" height="6"/>
	<rect x="162" y="114.035" fill="#231F20" width="6" height="6"/>
	<rect x="162" y="108.035" fill="#231F20" width="6" height="6"/>
	<rect x="156" y="102.035" fill="#29292A" width="6" height="6"/>
	<rect x="162" y="96.035" fill="#231F20" width="6" height="6"/>
	<rect x="156" y="96.035" fill="#29292A" width="6" height="6"/>
	<rect x="162" y="126.023" fill="#464749" width="6" height="6"/>
	<rect x="168" y="120.023" fill="#231F20" width="6" height="6"/>
	<rect x="168" y="114.035" fill="#323133" width="6" height="6"/>
	<rect x="168" y="108.035" fill="#231F20" width="6" height="6"/>
	<rect x="168" y="126.023" fill="#464749" width="6" height="6"/>
	<rect x="174" y="120.023" fill="#464749" width="6" height="6"/>
	<rect x="174" y="138" fill="#464749" width="6" height="6"/>
	<rect x="174" y="132.012" fill="#464749" width="6" height="6"/>
	<rect x="174" y="126.027" fill="#464749" width="6" height="6"/>
	<rect x="174" y="114.035" fill="#231F20" width="6" height="6"/>
	<rect x="174" y="108.027" fill="#29292A" width="6" height="6"/>
	<rect x="174" y="144" fill="#5A5B5E" width="6" height="6"/>
	<rect x="168" y="155.98" fill="#5A5B5E" width="6" height="6"/>
	<rect x="168" y="149.992" fill="#464749" width="6" height="6"/>
	<rect x="168" y="161.98" fill="#9B8579" width="6" height="6"/>
	<rect x="162" y="132.023" fill="#EFD1B8" width="6" height="6"/>
	<rect x="168" y="143.988" fill="#EFD1B8" width="6" height="6"/>
	<rect x="168" y="138" fill="#EFD1B8" width="6" height="6"/>
	<rect x="168" y="132.023" fill="#EFD1B8" width="6" height="6"/>
</g>
</svg>
