<?xml version="1.0" encoding="utf-8"?>
<!-- Generator: Adobe Illustrator 16.0.0, SVG Export Plug-In . SVG Version: 6.00 Build 0)  -->
<!DOCTYPE svg PUBLIC "-//W3C//DTD SVG 1.1//EN" "http://www.w3.org/Graphics/SVG/1.1/DTD/svg11.dtd">
<svg version="1.1" id="Layer_1" xmlns="http://www.w3.org/2000/svg" xmlns:xlink="http://www.w3.org/1999/xlink" x="0px" y="0px"
	 width="300px" height="300px" viewBox="0 0 300 300" enable-background="new 0 0 300 300" xml:space="preserve">
<g>
	<rect x="131.25" y="183.713" fill="#EEE1BF" width="7.5" height="7.5"/>
	<rect x="138.75" y="183.713" fill="#EEE1BF" width="7.5" height="7.5"/>
	<rect x="153.75" y="183.713" fill="#EEE1BF" width="7.5" height="7.5"/>
	<rect x="146.25" y="183.713" fill="#EEE1BF" width="7.5" height="7.5"/>
	<rect x="123.75" y="183.713" fill="#EEE1BF" width="7.5" height="7.5"/>
	<rect x="116.25" y="183.713" fill="#FFFFFF" width="7.5" height="7.5"/>
	<rect x="161.25" y="183.713" fill="#808081" width="7.5" height="7.5"/>
	<rect x="168.75" y="183.713" fill="#EEE1BF" width="7.5" height="7.5"/>
	<rect x="131.25" y="191.213" fill="#EEE1BF" width="7.5" height="7.5"/>
	<rect x="138.75" y="191.213" fill="#EDD69F" width="7.5" height="7.5"/>
	<rect x="153.75" y="191.213" fill="#EEE1BF" width="7.5" height="7.5"/>
	<rect x="146.25" y="191.213" fill="#EEE1BF" width="7.5" height="7.5"/>
	<rect x="123.75" y="191.213" fill="#EEE1BF" width="7.5" height="7.5"/>
	<rect x="116.25" y="191.213" fill="#808081" width="7.5" height="7.5"/>
	<rect x="116.25" y="183.713" fill="#808081" width="7.5" height="7.5"/>
	<rect x="108.75" y="191.213" fill="#EEE1BF" width="7.5" height="7.5"/>
	<rect x="161.25" y="191.213" fill="#808081" width="7.5" height="7.5"/>
	<rect x="168.75" y="191.213" fill="#808081" width="7.5" height="7.5"/>
	<rect x="176.25" y="191.213" fill="#EEE1BF" width="7.5" height="7.5"/>
	<rect x="183.75" y="191.213" fill="#EEE1BF" width="7.5" height="7.5"/>
	<rect x="131.25" y="198.713" fill="#EEE1BF" width="7.5" height="7.5"/>
	<rect x="138.75" y="198.713" fill="#EDD69F" width="7.5" height="7.5"/>
	<rect x="153.75" y="198.713" fill="#808081" width="7.5" height="7.5"/>
	<rect x="146.25" y="198.713" fill="#EEE1BF" width="7.5" height="7.5"/>
	<rect x="123.75" y="198.713" fill="#808081" width="7.5" height="7.5"/>
	<rect x="116.25" y="198.713" fill="#FFFFFF" width="7.5" height="7.5"/>
	<rect x="108.75" y="198.713" fill="#EEE1BF" width="7.5" height="7.5"/>
	<rect x="161.25" y="198.713" fill="#FFFFFF" width="7.5" height="7.5"/>
	<rect x="168.75" y="198.713" fill="#FFFFFF" width="7.5" height="7.5"/>
	<rect x="176.25" y="198.713" fill="#EEE1BF" width="7.5" height="7.5"/>
	<rect x="183.75" y="198.713" fill="#EDD69F" width="7.5" height="7.5"/>
	<rect x="131.25" y="206.213" fill="#FFFFFF" width="7.5" height="7.5"/>
	<rect x="138.75" y="206.213" fill="#808081" width="7.5" height="7.5"/>
	<rect x="153.75" y="206.213" fill="#808081" width="7.5" height="7.5"/>
	<rect x="146.25" y="206.213" fill="#FFFFFF" width="7.5" height="7.5"/>
	<rect x="123.75" y="206.213" fill="#808081" width="7.5" height="7.5"/>
	<rect x="116.25" y="206.213" fill="#808081" width="7.5" height="7.5"/>
	<rect x="108.75" y="206.213" fill="#EDD69F" width="7.5" height="7.5"/>
	<rect x="101.25" y="191.213" fill="#C7293B" width="7.5" height="7.5"/>
	<rect x="101.25" y="198.713" fill="#007C48" width="7.5" height="7.5"/>
	<rect x="101.25" y="206.213" fill="#EEE1BF" width="7.5" height="7.5"/>
	<rect x="161.25" y="206.213" fill="#808081" width="7.5" height="7.5"/>
	<rect x="168.75" y="206.213" fill="#808081" width="7.5" height="7.5"/>
	<rect x="176.25" y="206.213" fill="#EEE1BF" width="7.5" height="7.5"/>
	<rect x="183.75" y="206.213" fill="#EDD69F" width="7.5" height="7.5"/>
	<rect x="108.75" y="101.287" fill="#FFF496" width="7.5" height="7.5"/>
	<rect x="116.25" y="101.287" fill="#FFF496" width="7.5" height="7.5"/>
	<rect x="123.75" y="101.287" fill="#F1789C" width="7.5" height="7.5"/>
	<rect x="131.25" y="101.287" fill="#F1789C" width="7.5" height="7.5"/>
	<rect x="138.75" y="101.287" fill="#F1789C" width="7.5" height="7.5"/>
	<rect x="146.25" y="101.287" fill="#FFF496" width="7.5" height="7.5"/>
	<rect x="116.25" y="108.787" fill="#FFF496" width="7.5" height="7.5"/>
	<rect x="123.75" y="108.787" fill="#EEE1BF" width="7.5" height="7.5"/>
	<rect x="131.25" y="108.787" fill="#D9C47D" width="7.5" height="7.5"/>
	<rect x="138.75" y="108.787" fill="#ED3B8C" width="7.5" height="7.5"/>
	<rect x="146.25" y="108.787" fill="#F1789C" width="7.5" height="7.5"/>
	<rect x="116.25" y="116.287" fill="#EEE1BF" width="7.5" height="7.5"/>
	<rect x="116.25" y="123.757" fill="#EEE1BF" width="7.5" height="7.5"/>
	<rect x="116.25" y="131.243" fill="#EEE1BF" width="7.5" height="7.5"/>
	<rect x="108.75" y="138.757" fill="#EEE1BF" width="7.5" height="7.5"/>
	<rect x="116.25" y="138.757" fill="#EEE1BF" width="7.5" height="7.5"/>
	<rect x="116.25" y="146.243" fill="#EEE1BF" width="7.5" height="7.5"/>
	<rect x="131.25" y="146.243" fill="#EEE1BF" width="7.5" height="7.5"/>
	<rect x="123.75" y="146.243" fill="#EEE1BF" width="7.5" height="7.5"/>
	<rect x="138.75" y="146.243" fill="#EEE1BF" width="7.5" height="7.5"/>
	<rect x="153.75" y="146.243" fill="#EEE1BF" width="7.5" height="7.5"/>
	<rect x="146.25" y="146.243" fill="#EEE1BF" width="7.5" height="7.5"/>
	<rect x="131.25" y="153.728" fill="#FFFFFF" width="7.5" height="7.5"/>
	<rect x="123.75" y="153.728" fill="#FFFFFF" width="7.5" height="7.5"/>
	<rect x="138.75" y="153.728" fill="#FFFFFF" width="7.5" height="7.5"/>
	<rect x="146.25" y="153.728" fill="#F6A6B1" width="7.5" height="7.5"/>
	<rect x="131.25" y="161.213" fill="#F6A6B1" width="7.5" height="7.5"/>
	<rect x="123.75" y="161.213" fill="#F6A6B1" width="7.5" height="7.5"/>
	<rect x="138.75" y="161.213" fill="#F6A6B1" width="7.5" height="7.5"/>
	<rect x="146.25" y="161.213" fill="#EEE1BF" width="7.5" height="7.5"/>
	<rect x="131.25" y="168.713" fill="#EEE1BF" width="7.5" height="7.5"/>
	<rect x="123.75" y="168.713" fill="#EEE1BF" width="7.5" height="7.5"/>
	<rect x="138.75" y="168.713" fill="#EEE1BF" width="7.5" height="7.5"/>
	<rect x="131.25" y="176.213" fill="#EDD69F" width="7.5" height="7.5"/>
	<rect x="138.75" y="176.213" fill="#EDD69F" width="7.5" height="7.5"/>
	<rect x="146.25" y="176.213" fill="#EDD69F" width="7.5" height="7.5"/>
	<rect x="146.25" y="168.713" fill="#EEE1BF" width="7.5" height="7.5"/>
	<rect x="153.75" y="168.713" fill="#EEE1BF" width="7.5" height="7.5"/>
	<rect x="153.75" y="138.757" fill="#EEE1BF" width="7.5" height="7.5"/>
	<rect x="161.25" y="138.757" fill="#D9C47D" width="7.5" height="7.5"/>
	<rect x="153.75" y="161.213" fill="#EEE1BF" width="7.5" height="7.5"/>
	<rect x="153.75" y="153.728" fill="#EEE1BF" width="7.5" height="7.5"/>
	<rect x="153.75" y="131.243" fill="#EDD69F" width="7.5" height="7.5"/>
	<rect x="161.25" y="131.243" fill="#F1789C" width="7.5" height="7.5"/>
	<rect x="153.75" y="123.757" fill="#EDD69F" width="7.5" height="7.5"/>
	<rect x="161.25" y="123.757" fill="#ED3B8C" width="7.5" height="7.5"/>
	<rect x="168.75" y="131.243" fill="#FCFADF" width="7.5" height="7.5"/>
	<rect x="168.75" y="123.757" fill="#FFF496" width="7.5" height="7.5"/>
	<rect x="123.75" y="116.287" fill="#FFF496" width="7.5" height="7.5"/>
	<rect x="131.25" y="116.287" fill="#99714C" width="7.5" height="7.5"/>
	<rect x="138.75" y="116.287" fill="#EEE1BF" width="7.5" height="7.5"/>
	<rect x="146.25" y="116.287" fill="#D9C47D" width="7.5" height="7.5"/>
	<rect x="123.75" y="123.757" fill="#EEE1BF" width="7.5" height="7.5"/>
	<rect x="131.25" y="123.743" fill="#EEE1BF" width="7.5" height="7.5"/>
	<rect x="138.75" y="123.757" fill="#EEE1BF" width="7.5" height="7.5"/>
	<rect x="146.25" y="123.757" fill="#FFF496" width="7.5" height="7.5"/>
	<rect x="123.75" y="131.243" fill="#6C7F55" width="7.5" height="7.5"/>
	<rect x="131.25" y="131.243" fill="#FFFFFF" width="7.5" height="7.5"/>
	<rect x="138.75" y="131.243" fill="#EEE1BF" width="7.5" height="7.5"/>
	<rect x="146.25" y="131.243" fill="#FFF496" width="7.5" height="7.5"/>
	<rect x="123.75" y="138.743" fill="#EEE1BF" width="7.5" height="7.5"/>
	<rect x="131.25" y="138.743" fill="#EEE1BF" width="7.5" height="7.5"/>
	<rect x="138.75" y="138.743" fill="#EEE1BF" width="7.5" height="7.5"/>
	<rect x="146.25" y="138.743" fill="#EEE1BF" width="7.5" height="7.5"/>
	<rect x="153.75" y="101.287" fill="#D9C47D" width="7.5" height="7.5"/>
	<rect x="161.25" y="101.287" fill="#FCFADF" width="7.5" height="7.5"/>
	<rect x="161.25" y="93.801" fill="#FFF496" width="7.5" height="7.5"/>
	<rect x="168.75" y="93.801" fill="#FCFADF" width="7.5" height="7.5"/>
	<rect x="116.25" y="93.801" fill="#F1789C" width="7.5" height="7.5"/>
	<rect x="123.75" y="93.801" fill="#ED3B8C" width="7.5" height="7.5"/>
	<rect x="131.25" y="93.801" fill="#F1789C" width="7.5" height="7.5"/>
	<rect x="138.75" y="93.801" fill="#FFF496" width="7.5" height="7.5"/>
	<rect x="146.25" y="93.801" fill="#FCFADF" width="7.5" height="7.5"/>
	<rect x="123.75" y="86.301" fill="#FFF496" width="7.5" height="7.5"/>
	<rect x="131.25" y="86.301" fill="#FCFADF" width="7.5" height="7.5"/>
	<rect x="138.75" y="86.301" fill="#FFF496" width="7.5" height="7.5"/>
	<rect x="146.25" y="86.301" fill="#FCFADF" width="7.5" height="7.5"/>
	<rect x="153.75" y="93.801" fill="#FCFADF" width="7.5" height="7.5"/>
	<rect x="153.75" y="86.287" fill="#FFF496" width="7.5" height="7.5"/>
	<rect x="161.25" y="86.287" fill="#FCFADF" width="7.5" height="7.5"/>
	<rect x="153.75" y="108.787" fill="#FCFADF" width="7.5" height="7.5"/>
	<rect x="153.75" y="123.757" fill="#D9C47D" width="7.5" height="7.5"/>
	<rect x="153.75" y="131.243" fill="#FCFADF" width="7.5" height="7.5"/>
	<rect x="161.25" y="108.787" fill="#D9C47D" width="7.5" height="7.5"/>
	<rect x="168.75" y="108.787" fill="#FFF496" width="7.5" height="7.5"/>
	<rect x="168.75" y="101.287" fill="#FFF496" width="7.5" height="7.5"/>
	<rect x="176.25" y="101.287" fill="#FCFADF" width="7.5" height="7.5"/>
	<rect x="168.75" y="116.287" fill="#FCFADF" width="7.5" height="7.5"/>
	<rect x="176.25" y="116.287" fill="#FFF496" width="7.5" height="7.5"/>
	<rect x="176.25" y="108.787" fill="#FCFADF" width="7.5" height="7.5"/>
	<rect x="176.25" y="123.787" fill="#FCFADF" width="7.5" height="7.5"/>
	<rect x="176.25" y="131.243" fill="#FFF496" width="7.5" height="7.5"/>
	<rect x="176.25" y="146.257" fill="#FFF496" width="7.5" height="7.5"/>
	<rect x="176.25" y="153.757" fill="#FCFADF" width="7.5" height="7.5"/>
	<rect x="168.75" y="146.257" fill="#82796C" width="7.5" height="7.5"/>
	<rect x="168.75" y="138.757" fill="#82796C" width="7.5" height="7.5"/>
	<rect x="176.25" y="138.757" fill="#82796C" width="7.5" height="7.5"/>
	<rect x="168.75" y="153.757" fill="#FFF496" width="7.5" height="7.5"/>
	<rect x="176.25" y="161.213" fill="#D9C47D" width="7.5" height="7.5"/>
	<rect x="183.75" y="153.757" fill="#FFF496" width="7.5" height="7.5"/>
	<rect x="191.25" y="161.208" fill="#FCFADF" width="7.5" height="7.5"/>
	<rect x="183.75" y="161.213" fill="#FFF496" width="7.5" height="7.5"/>
	<rect x="168.75" y="161.213" fill="#FCFADF" width="7.5" height="7.5"/>
	<rect x="176.25" y="168.713" fill="#FCFADF" width="7.5" height="7.5"/>
	<rect x="183.75" y="168.713" fill="#FFF496" width="7.5" height="7.5"/>
	<rect x="183.75" y="176.213" fill="#FFF496" width="7.5" height="7.5"/>
	<rect x="191.25" y="176.213" fill="#D9C47D" width="7.5" height="7.5"/>
	<rect x="183.75" y="146.223" fill="#FCFADF" width="7.5" height="7.5"/>
	<rect x="183.75" y="116.272" fill="#FCFADF" width="7.5" height="7.5"/>
	<rect x="168.75" y="168.713" fill="#FFF496" width="7.5" height="7.5"/>
	<rect x="153.75" y="116.287" fill="#F1789C" width="7.5" height="7.5"/>
	<rect x="161.25" y="116.287" fill="#FFF496" width="7.5" height="7.5"/>
</g>
</svg>
