<?xml version="1.0" encoding="utf-8"?>
<!-- Generator: Adobe Illustrator 16.0.0, SVG Export Plug-In . SVG Version: 6.00 Build 0)  -->
<!DOCTYPE svg PUBLIC "-//W3C//DTD SVG 1.1//EN" "http://www.w3.org/Graphics/SVG/1.1/DTD/svg11.dtd">
<svg version="1.1" id="Layer_1" xmlns="http://www.w3.org/2000/svg" xmlns:xlink="http://www.w3.org/1999/xlink" x="0px" y="0px"
	 width="300px" height="300px" viewBox="0 0 300 300" enable-background="new 0 0 300 300" xml:space="preserve">
<g>
	<rect x="127.507" y="176.245" fill="#EFD1B8" width="7.5" height="7.5"/>
	<rect x="135.007" y="176.245" fill="#D7BFAA" width="7.5" height="7.5"/>
	<rect x="142.507" y="176.245" fill="#EFD1B8" width="7.5" height="7.5"/>
	<rect x="150.002" y="176.245" fill="#EFD1B8" width="7.5" height="7.5"/>
	<rect x="120.002" y="78.779" fill="#3C2415" width="7.5" height="7.5"/>
	<rect x="127.502" y="78.779" fill="#43251B" width="7.5" height="7.5"/>
	<rect x="135.002" y="78.779" fill="#3C2415" width="7.5" height="7.5"/>
	<rect x="112.502" y="93.76" fill="#43251B" width="7.5" height="7.5"/>
	<rect x="120.002" y="93.76" fill="#594A42" width="7.5" height="7.5"/>
	<rect x="127.502" y="93.76" fill="#EFD1B8" width="7.5" height="7.5"/>
	<rect x="135.002" y="93.76" fill="#EFCFC0" width="7.5" height="7.5"/>
	<rect x="142.502" y="93.76" fill="#5F3529" width="7.5" height="7.5"/>
	<rect x="105.002" y="101.26" fill="#43251B" width="7.5" height="7.5"/>
	<rect x="112.502" y="101.26" fill="#E3C9B6" width="7.5" height="7.5"/>
	<rect x="120.002" y="101.26" fill="#E3C9B6" width="7.5" height="7.5"/>
	<rect x="127.502" y="101.26" fill="#EFD1B8" width="7.5" height="7.5"/>
	<rect x="135.002" y="101.26" fill="#EFD1B8" width="7.5" height="7.5"/>
	<rect x="142.502" y="101.26" fill="#3C2415" width="7.5" height="7.5"/>
	<rect x="105.002" y="108.76" fill="#EFD1B8" width="7.5" height="7.5"/>
	<rect x="112.502" y="108.76" fill="#EFD1B8" width="7.5" height="7.5"/>
	<rect x="105.002" y="116.23" fill="#EFD1B8" width="7.5" height="7.5"/>
	<rect x="112.502" y="116.23" fill="#231F20" width="7.5" height="7.5"/>
	<rect x="105.002" y="131.172" fill="#EFD1B8" width="7.5" height="7.5"/>
	<rect x="112.502" y="131.182" fill="#7F95A5" width="7.5" height="7.5"/>
	<rect x="105.002" y="138.701" fill="#EFD1B8" width="7.5" height="7.5"/>
	<rect x="112.502" y="138.682" fill="#EFD1B8" width="7.5" height="7.5"/>
	<rect x="105.002" y="146.182" fill="#EFD1B8" width="7.5" height="7.5"/>
	<rect x="97.502" y="138.682" fill="#EFD1B8" width="7.5" height="7.5"/>
	<rect x="112.502" y="146.182" fill="#EFD1B8" width="7.5" height="7.5"/>
	<rect x="127.502" y="146.182" fill="#EFD1B8" width="7.5" height="7.5"/>
	<rect x="120.002" y="146.182" fill="#EFD1B8" width="7.5" height="7.5"/>
	<rect x="135.002" y="146.182" fill="#EFCFC0" width="7.5" height="7.5"/>
	<rect x="157.502" y="146.182" fill="#EFD1B8" width="7.5" height="7.5"/>
	<rect x="142.502" y="146.182" fill="#EFD1B8" width="7.5" height="7.5"/>
	<rect x="127.502" y="153.672" fill="#FFFFFF" width="7.5" height="7.5"/>
	<rect x="120.002" y="153.672" fill="#FFFFFF" width="7.5" height="7.5"/>
	<rect x="135.002" y="153.672" fill="#D28F8C" width="7.5" height="7.5"/>
	<rect x="142.502" y="153.672" fill="#EFD1B8" width="7.5" height="7.5"/>
	<rect x="127.502" y="161.152" fill="#D28F8C" width="7.5" height="7.5"/>
	<rect x="120.002" y="161.152" fill="#D28F8C" width="7.5" height="7.5"/>
	<rect x="135.002" y="161.152" fill="#EFD1B8" width="7.5" height="7.5"/>
	<rect x="142.502" y="161.152" fill="#EFD1B8" width="7.5" height="7.5"/>
	<rect x="127.502" y="168.652" fill="#EFD1B8" width="7.5" height="7.5"/>
	<rect x="120.002" y="168.652" fill="#EFD1B8" width="7.5" height="7.5"/>
	<rect x="135.002" y="168.652" fill="#EFD1B8" width="7.5" height="7.5"/>
	<rect x="142.502" y="168.652" fill="#D7BFAA" width="7.5" height="7.5"/>
	<rect x="150.002" y="168.652" fill="#EFD1B8" width="7.5" height="7.5"/>
	<rect x="165.002" y="146.182" fill="#E3C9B6" width="7.5" height="7.5"/>
	<rect x="157.502" y="138.701" fill="#594A42" width="7.5" height="7.5"/>
	<rect x="157.502" y="161.152" fill="#EFD1B8" width="7.5" height="7.5"/>
	<rect x="157.502" y="153.672" fill="#EFD1B8" width="7.5" height="7.5"/>
	<rect x="157.507" y="168.652" fill="#EFD1B8" width="7.5" height="7.5"/>
	<rect x="157.502" y="131.182" fill="#43251B" width="7.5" height="7.5"/>
	<rect x="165.002" y="138.662" fill="#EFD1B8" width="7.5" height="7.5"/>
	<rect x="172.507" y="138.662" fill="#EFD1B8" width="7.5" height="7.5"/>
	<rect x="157.502" y="116.23" fill="#43251B" width="7.5" height="7.5"/>
	<rect x="165.002" y="123.711" fill="#F3D9D0" width="7.5" height="7.5"/>
	<rect x="120.002" y="108.76" fill="#EFD1B8" width="7.5" height="7.5"/>
	<rect x="127.502" y="108.76" fill="#E3C9B6" width="7.5" height="7.5"/>
	<rect x="135.002" y="108.76" fill="#43251B" width="7.5" height="7.5"/>
	<rect x="142.502" y="108.76" fill="#43251B" width="7.5" height="7.5"/>
	<rect x="120.002" y="116.23" fill="#414042" width="7.5" height="7.5"/>
	<rect x="127.502" y="116.23" fill="#EFD1B8" width="7.5" height="7.5"/>
	<rect x="135.002" y="116.23" fill="#EFD1B8" width="7.5" height="7.5"/>
	<rect x="142.502" y="116.23" fill="#43251B" width="7.5" height="7.5"/>
	<rect x="105.002" y="123.682" fill="#EFD1B8" width="7.5" height="7.5"/>
	<rect x="112.502" y="123.682" fill="#EFD1B8" width="7.5" height="7.5"/>
	<rect x="157.502" y="123.682" fill="#3C2415" width="7.5" height="7.5"/>
	<rect x="165.002" y="131.172" fill="#C2B59B" width="7.5" height="7.5"/>
	<rect x="172.507" y="123.711" fill="#EFD1B8" width="7.5" height="7.5"/>
	<rect x="172.507" y="131.172" fill="#EFD1B8" width="7.5" height="7.5"/>
	<rect x="120.002" y="123.682" fill="#EFD1B8" width="7.5" height="7.5"/>
	<rect x="127.502" y="123.682" fill="#EFD1B8" width="7.5" height="7.5"/>
	<rect x="135.002" y="123.682" fill="#EFD1B8" width="7.5" height="7.5"/>
	<rect x="142.502" y="123.682" fill="#EFD1B8" width="7.5" height="7.5"/>
	<rect x="120.002" y="131.182" fill="#FFFFFF" width="7.5" height="7.5"/>
	<rect x="127.502" y="131.182" fill="#EFD1B8" width="7.5" height="7.5"/>
	<rect x="135.002" y="131.182" fill="#EFD1B8" width="7.5" height="7.5"/>
	<rect x="142.502" y="131.182" fill="#EFD1B8" width="7.5" height="7.5"/>
	<rect x="120.002" y="138.682" fill="#EFD1B8" width="7.5" height="7.5"/>
	<rect x="127.502" y="138.682" fill="#EFCFC0" width="7.5" height="7.5"/>
	<rect x="135.002" y="138.682" fill="#EFD1B8" width="7.5" height="7.5"/>
	<rect x="142.502" y="138.682" fill="#EFD1B8" width="7.5" height="7.5"/>
	<rect x="157.502" y="93.76" fill="#3C2415" width="7.5" height="7.5"/>
	<rect x="165.002" y="93.76" fill="#3C2415" width="7.5" height="7.5"/>
	<rect x="112.502" y="86.279" fill="#3C2415" width="7.5" height="7.5"/>
	<rect x="105.002" y="93.877" fill="#3C2415" width="7.5" height="7.5"/>
	<rect x="120.002" y="86.279" fill="#43251B" width="7.5" height="7.5"/>
	<rect x="127.502" y="86.279" fill="#3C2415" width="7.5" height="7.5"/>
	<rect x="135.002" y="86.279" fill="#43251B" width="7.5" height="7.5"/>
	<rect x="142.502" y="86.279" fill="#231F20" width="7.5" height="7.5"/>
	<rect x="157.502" y="86.279" fill="#3C2415" width="7.5" height="7.5"/>
	<rect x="142.502" y="78.779" fill="#43251B" width="7.5" height="7.5"/>
	<rect x="157.502" y="101.26" fill="#3C2415" width="7.5" height="7.5"/>
	<rect x="165.002" y="101.26" fill="#43251B" width="7.5" height="7.5"/>
	<rect x="157.502" y="108.76" fill="#3C2415" width="7.5" height="7.5"/>
	<rect x="150.007" y="146.182" fill="#594A42" width="7.5" height="7.5"/>
	<rect x="150.007" y="138.701" fill="#43251B" width="7.5" height="7.5"/>
	<rect x="150.007" y="161.152" fill="#EFD1B8" width="7.5" height="7.5"/>
	<rect x="150.007" y="153.672" fill="#9B8579" width="7.5" height="7.5"/>
	<rect x="150.007" y="131.182" fill="#594A42" width="7.5" height="7.5"/>
	<rect x="150.007" y="116.23" fill="#3C2415" width="7.5" height="7.5"/>
	<rect x="150.007" y="123.682" fill="#3C2415" width="7.5" height="7.5"/>
	<rect x="150.007" y="93.76" fill="#3C2415" width="7.5" height="7.5"/>
	<rect x="150.007" y="86.279" fill="#5F3529" width="7.5" height="7.5"/>
	<rect x="150.007" y="78.779" fill="#231F20" width="7.5" height="7.5"/>
	<rect x="165.007" y="86.279" fill="#3C2415" width="7.5" height="7.5"/>
	<rect x="150.007" y="101.26" fill="#3C2415" width="7.5" height="7.5"/>
	<rect x="150.007" y="108.76" fill="#43251B" width="7.5" height="7.5"/>
	<rect x="165.002" y="108.76" fill="#3C2415" width="7.5" height="7.5"/>
	<rect x="172.507" y="93.76" fill="#3C2415" width="7.5" height="7.5"/>
	<rect x="172.507" y="101.26" fill="#3C2415" width="7.5" height="7.5"/>
	<rect x="172.507" y="108.76" fill="#323133" width="7.5" height="7.5"/>
	<rect x="165.002" y="116.23" fill="#3C2415" width="7.5" height="7.5"/>
	<rect x="172.507" y="116.23" fill="#3C2415" width="7.5" height="7.5"/>
	<rect x="157.507" y="176.245" fill="#EFD1B8" width="7.5" height="7.5"/>
	<rect x="164.998" y="153.633" fill="#EFD1B8" width="7.5" height="7.5"/>
	<rect x="164.998" y="168.672" fill="#1B455E" width="7.5" height="7.5"/>
	<rect x="165.002" y="161.133" fill="#EFD1B8" width="7.5" height="7.5"/>
	<rect x="164.998" y="176.221" fill="#1B455E" width="7.5" height="7.5"/>
	<rect x="172.498" y="176.221" fill="#42607E" width="7.5" height="7.5"/>
	<rect x="142.498" y="191.221" fill="#1B455E" width="7.5" height="7.5"/>
	<rect x="149.998" y="191.221" fill="#1B455E" width="7.5" height="7.5"/>
	<rect x="164.998" y="191.221" fill="#42607E" width="7.5" height="7.5"/>
	<rect x="157.498" y="191.221" fill="#1B455E" width="7.5" height="7.5"/>
	<rect x="120.002" y="191.221" fill="#42607E" width="7.5" height="7.5"/>
	<rect x="112.502" y="191.221" fill="#42607E" width="7.5" height="7.5"/>
	<rect x="105.002" y="191.221" fill="#42607E" width="7.5" height="7.5"/>
	<rect x="172.498" y="191.221" fill="#42607E" width="7.5" height="7.5"/>
	<rect x="179.998" y="191.221" fill="#42607E" width="7.5" height="7.5"/>
	<rect x="187.498" y="191.221" fill="#42607E" width="7.5" height="7.5"/>
	<rect x="194.998" y="191.221" fill="#42607E" width="7.5" height="7.5"/>
	<rect x="142.498" y="206.221" fill="#42607E" width="7.5" height="7.5"/>
	<rect x="149.998" y="206.221" fill="#AD6F29" width="7.5" height="7.5"/>
	<rect x="164.998" y="206.221" fill="#42607E" width="7.5" height="7.5"/>
	<rect x="157.498" y="206.221" fill="#42607E" width="7.5" height="7.5"/>
	<rect x="120.002" y="206.221" fill="#42607E" width="7.5" height="7.5"/>
	<rect x="112.502" y="206.221" fill="#42607E" width="7.5" height="7.5"/>
	<rect x="105.002" y="206.221" fill="#42607E" width="7.5" height="7.5"/>
	<rect x="172.498" y="206.221" fill="#42607E" width="7.5" height="7.5"/>
	<rect x="179.998" y="206.221" fill="#42607E" width="7.5" height="7.5"/>
	<rect x="187.498" y="206.221" fill="#42607E" width="7.5" height="7.5"/>
	<rect x="194.998" y="206.221" fill="#42607E" width="7.5" height="7.5"/>
	<rect x="142.498" y="183.721" fill="#EFD1B8" width="7.5" height="7.5"/>
	<rect x="149.998" y="183.721" fill="#EFD1B8" width="7.5" height="7.5"/>
	<rect x="127.502" y="183.721" fill="#1B455E" width="7.5" height="7.5"/>
	<rect x="135.002" y="183.721" fill="#EFD1B8" width="7.5" height="7.5"/>
	<rect x="164.998" y="183.721" fill="#1B455E" width="7.5" height="7.5"/>
	<rect x="157.498" y="183.721" fill="#1B455E" width="7.5" height="7.5"/>
	<rect x="120.002" y="183.721" fill="#1B455E" width="7.5" height="7.5"/>
	<rect x="112.502" y="183.721" fill="#42607E" width="7.5" height="7.5"/>
	<rect x="172.498" y="183.721" fill="#42607E" width="7.5" height="7.5"/>
	<rect x="179.998" y="183.721" fill="#42607E" width="7.5" height="7.5"/>
	<rect x="187.498" y="183.721" fill="#42607E" width="7.5" height="7.5"/>
	<rect x="142.498" y="198.721" fill="#42607E" width="7.5" height="7.5"/>
	<rect x="149.998" y="198.721" fill="#42607E" width="7.5" height="7.5"/>
	<rect x="127.507" y="191.221" fill="#1B455E" width="7.5" height="7.5"/>
	<rect x="135.007" y="191.221" fill="#1B455E" width="7.5" height="7.5"/>
	<rect x="127.507" y="206.221" fill="#AD6F29" width="7.5" height="7.5"/>
	<rect x="135.007" y="206.221" fill="#42607E" width="7.5" height="7.5"/>
	<rect x="127.507" y="198.721" fill="#42607E" width="7.5" height="7.5"/>
	<rect x="135.007" y="198.721" fill="#42607E" width="7.5" height="7.5"/>
	<rect x="164.998" y="198.721" fill="#42607E" width="7.5" height="7.5"/>
	<rect x="157.498" y="198.721" fill="#42607E" width="7.5" height="7.5"/>
	<rect x="120.002" y="198.721" fill="#42607E" width="7.5" height="7.5"/>
	<rect x="112.502" y="198.721" fill="#42607E" width="7.5" height="7.5"/>
	<rect x="105.002" y="198.721" fill="#42607E" width="7.5" height="7.5"/>
	<rect x="97.502" y="206.221" fill="#42607E" width="7.5" height="7.5"/>
	<rect x="142.498" y="213.721" fill="#42607E" width="7.5" height="7.5"/>
	<rect x="149.998" y="213.721" fill="#AD6F29" width="7.5" height="7.5"/>
	<rect x="164.998" y="213.721" fill="#42607E" width="7.5" height="7.5"/>
	<rect x="157.498" y="213.721" fill="#AD6F29" width="7.5" height="7.5"/>
	<rect x="120.002" y="213.721" fill="#AD6F29" width="7.5" height="7.5"/>
	<rect x="112.502" y="213.721" fill="#42607E" width="7.5" height="7.5"/>
	<rect x="105.002" y="213.721" fill="#1B455E" width="7.5" height="7.5"/>
	<rect x="172.498" y="213.721" fill="#42607E" width="7.5" height="7.5"/>
	<rect x="179.998" y="213.721" fill="#1B455E" width="7.5" height="7.5"/>
	<rect x="187.498" y="213.721" fill="#1B455E" width="7.5" height="7.5"/>
	<rect x="194.998" y="213.721" fill="#1B455E" width="7.5" height="7.5"/>
	<rect x="127.507" y="213.721" fill="#AD6F29" width="7.5" height="7.5"/>
	<rect x="135.007" y="213.721" fill="#AD6F29" width="7.5" height="7.5"/>
	<rect x="97.502" y="213.721" fill="#1B455E" width="7.5" height="7.5"/>
	<rect x="97.502" y="198.721" fill="#42607E" width="7.5" height="7.5"/>
	<rect x="172.498" y="198.721" fill="#42607E" width="7.5" height="7.5"/>
	<rect x="179.998" y="198.721" fill="#42607E" width="7.5" height="7.5"/>
	<rect x="187.498" y="198.721" fill="#42607E" width="7.5" height="7.5"/>
	<rect x="194.998" y="198.721" fill="#42607E" width="7.5" height="7.5"/>
</g>
</svg>
