<?xml version="1.0" encoding="utf-8"?>
<!-- Generator: Adobe Illustrator 16.0.0, SVG Export Plug-In . SVG Version: 6.00 Build 0)  -->
<!DOCTYPE svg PUBLIC "-//W3C//DTD SVG 1.1//EN" "http://www.w3.org/Graphics/SVG/1.1/DTD/svg11.dtd">
<svg version="1.1" id="Layer_1" xmlns="http://www.w3.org/2000/svg" xmlns:xlink="http://www.w3.org/1999/xlink" x="0px" y="0px"
	 width="300px" height="300px" viewBox="0 0 300 300" enable-background="new 0 0 300 300" xml:space="preserve">
<g>
	<rect x="105" y="131.311" fill="#EEE1BF" width="7.5" height="7.5"/>
	<rect x="97.5" y="131.311" fill="#EEE1BF" width="7.5" height="7.5"/>
	<rect x="105" y="123.811" fill="#EEE1BF" width="7.5" height="7.5"/>
	<rect x="135" y="206.213" fill="#00B3AB" width="7.5" height="7.5"/>
	<rect x="142.5" y="206.213" fill="#00B3AB" width="7.5" height="7.5"/>
	<rect x="157.5" y="206.213" fill="#4D301C" width="7.5" height="7.5"/>
	<rect x="150" y="206.213" fill="#00B3AB" width="7.5" height="7.5"/>
	<rect x="127.5" y="206.213" fill="#8AC2B6" width="7.5" height="7.5"/>
	<rect x="120" y="206.213" fill="#4D301C" width="7.5" height="7.5"/>
	<rect x="112.5" y="206.213" fill="#8AC2B6" width="7.5" height="7.5"/>
	<rect x="165" y="206.213" fill="#4D301C" width="7.5" height="7.5"/>
	<rect x="172.5" y="206.213" fill="#4D301C" width="7.5" height="7.5"/>
	<rect x="187.5" y="206.213" fill="#8AC2B6" width="7.5" height="7.5"/>
	<rect x="195" y="206.213" fill="#8AC2B6" width="7.5" height="7.5"/>
	<rect x="135" y="221.213" fill="#FFFFFF" width="7.5" height="7.5"/>
	<rect x="142.5" y="221.213" fill="#8AC2B6" width="7.5" height="7.5"/>
	<rect x="157.5" y="221.213" fill="#8AC2B6" width="7.5" height="7.5"/>
	<rect x="150" y="221.213" fill="#FFFFFF" width="7.5" height="7.5"/>
	<rect x="127.5" y="221.213" fill="#8AC2B6" width="7.5" height="7.5"/>
	<rect x="120" y="221.213" fill="#8AC2B6" width="7.5" height="7.5"/>
	<rect x="112.5" y="221.213" fill="#EEE1BF" width="7.5" height="7.5"/>
	<rect x="165" y="221.213" fill="#8AC2B6" width="7.5" height="7.5"/>
	<rect x="172.5" y="221.213" fill="#4D301C" width="7.5" height="7.5"/>
	<rect x="187.5" y="221.213" fill="#EEE1BF" width="7.5" height="7.5"/>
	<rect x="195" y="221.213" fill="#EEE1BF" width="7.5" height="7.5"/>
	<rect x="135" y="198.713" fill="#EEE1BF" width="7.5" height="7.5"/>
	<rect x="142.5" y="198.713" fill="#EEE1BF" width="7.5" height="7.5"/>
	<rect x="157.5" y="198.713" fill="#2F292B" width="7.5" height="7.5"/>
	<rect x="150" y="198.718" fill="#EEE1BF" width="7.5" height="7.5"/>
	<rect x="142.5" y="191.213" fill="#EEE1BF" width="7.5" height="7.5"/>
	<rect x="150" y="190.969" fill="#2F292B" width="7.5" height="7.5"/>
	<rect x="127.5" y="198.713" fill="#00B3AB" width="7.5" height="7.5"/>
	<rect x="112.5" y="198.713" fill="#8AC2B6" width="7.5" height="7.5"/>
	<rect x="165" y="198.713" fill="#42607E" width="7.5" height="7.5"/>
	<rect x="172.5" y="198.713" fill="#4D301C" width="7.5" height="7.5"/>
	<rect x="187.5" y="198.713" fill="#8AC2B6" width="7.5" height="7.5"/>
	<rect x="195" y="198.713" fill="#8AC2B6" width="7.5" height="7.5"/>
	<rect x="112.5" y="191.282" fill="#8AC2B6" width="7.5" height="7.5"/>
	<rect x="135" y="213.713" fill="#8AC2B6" width="7.5" height="7.5"/>
	<rect x="142.5" y="213.713" fill="#8AC2B6" width="7.5" height="7.5"/>
	<rect x="157.5" y="213.713" fill="#8AC2B6" width="7.5" height="7.5"/>
	<rect x="150" y="213.713" fill="#8AC2B6" width="7.5" height="7.5"/>
	<rect x="127.5" y="213.713" fill="#8AC2B6" width="7.5" height="7.5"/>
	<rect x="120" y="213.713" fill="#8AC2B6" width="7.5" height="7.5"/>
	<rect x="112.5" y="213.713" fill="#00B3AB" width="7.5" height="7.5"/>
	<rect x="105" y="206.213" fill="#8AC2B6" width="7.5" height="7.5"/>
	<rect x="105" y="221.213" fill="#EFCFC0" width="7.5" height="7.5"/>
	<rect x="105" y="198.713" fill="#8AC2B6" width="7.5" height="7.5"/>
	<rect x="105" y="213.713" fill="#00B3AB" width="7.5" height="7.5"/>
	<rect x="165" y="213.713" fill="#4D301C" width="7.5" height="7.5"/>
	<rect x="172.5" y="213.713" fill="#4D301C" width="7.5" height="7.5"/>
	<rect x="187.5" y="213.713" fill="#00B3AB" width="7.5" height="7.5"/>
	<rect x="195" y="213.713" fill="#00B3AB" width="7.5" height="7.5"/>
	<rect x="105" y="93.787" fill="#CE782A" width="7.5" height="7.5"/>
	<rect x="112.5" y="93.787" fill="#CE782A" width="7.5" height="7.5"/>
	<rect x="120" y="93.787" fill="#CE782A" width="7.5" height="7.5"/>
	<rect x="127.5" y="93.787" fill="#CE782A" width="7.5" height="7.5"/>
	<rect x="135" y="93.787" fill="#995925" width="7.5" height="7.5"/>
	<rect x="142.5" y="93.787" fill="#CE782A" width="7.5" height="7.5"/>
	<rect x="112.5" y="101.287" fill="#EEE1BF" width="7.5" height="7.5"/>
	<rect x="120" y="101.287" fill="#EEE1BF" width="7.5" height="7.5"/>
	<rect x="127.5" y="101.287" fill="#EEE1BF" width="7.5" height="7.5"/>
	<rect x="135" y="101.287" fill="#B4AC93" width="7.5" height="7.5"/>
	<rect x="142.5" y="101.287" fill="#C2B99F" width="7.5" height="7.5"/>
	<rect x="112.5" y="108.787" fill="#EEE1BF" width="7.5" height="7.5"/>
	<rect x="112.5" y="116.257" fill="#EEE1BF" width="7.5" height="7.5"/>
	<rect x="112.5" y="123.748" fill="#EEE1BF" width="7.5" height="7.5"/>
	<rect x="112.5" y="131.257" fill="#EEE1BF" width="7.5" height="7.5"/>
	<rect x="112.5" y="138.748" fill="#EEE1BF" width="7.5" height="7.5"/>
	<rect x="127.5" y="138.748" fill="#EEE1BF" width="7.5" height="7.5"/>
	<rect x="120" y="138.748" fill="#EEE1BF" width="7.5" height="7.5"/>
	<rect x="135" y="138.748" fill="#EFCFC0" width="7.5" height="7.5"/>
	<rect x="150" y="138.748" fill="#EEE1BF" width="7.5" height="7.5"/>
	<rect x="142.5" y="138.748" fill="#EFCFC0" width="7.5" height="7.5"/>
	<rect x="127.5" y="146.228" fill="#FFFFFF" width="7.5" height="7.5"/>
	<rect x="120" y="146.228" fill="#FFFFFF" width="7.5" height="7.5"/>
	<rect x="135" y="146.228" fill="#FFFFFF" width="7.5" height="7.5"/>
	<rect x="142.5" y="146.228" fill="#BB807B" width="7.5" height="7.5"/>
	<rect x="127.5" y="153.718" fill="#D28F8C" width="7.5" height="7.495"/>
	<rect x="120" y="153.718" fill="#D28F8C" width="7.5" height="7.495"/>
	<rect x="135" y="153.718" fill="#BB807B" width="7.5" height="7.495"/>
	<rect x="142.5" y="153.718" fill="#EEE1BF" width="7.5" height="7.495"/>
	<rect x="127.5" y="161.213" fill="#EEE1BF" width="7.5" height="7.5"/>
	<rect x="120" y="161.213" fill="#EEE1BF" width="7.5" height="7.5"/>
	<rect x="135" y="161.213" fill="#EEE1BF" width="7.5" height="7.5"/>
	<rect x="127.5" y="168.713" fill="#EEE1BF" width="7.5" height="7.5"/>
	<rect x="135" y="168.713" fill="#EEE1BF" width="7.5" height="7.5"/>
	<rect x="135" y="176.213" fill="#FCFADF" width="7.5" height="7.5"/>
	<rect x="142.5" y="168.713" fill="#D5CBAD" width="7.5" height="7.5"/>
	<rect x="142.5" y="161.213" fill="#EEE1BF" width="7.5" height="7.5"/>
	<rect x="150" y="161.213" fill="#EEE1BF" width="7.5" height="7.5"/>
	<rect x="142.5" y="176.213" fill="#FFFFFF" width="7.5" height="7.5"/>
	<rect x="157.5" y="176.213" fill="#734A1D" width="7.5" height="7.5"/>
	<rect x="150" y="176.213" fill="#4D301C" width="7.5" height="7.5"/>
	<rect x="142.5" y="176.213" fill="#EEE1BF" width="7.5" height="7.5"/>
	<rect x="142.5" y="183.713" fill="#EEE1BF" width="7.5" height="7.5"/>
	<rect x="150" y="183.713" fill="#4D301C" width="7.5" height="7.5"/>
	<rect x="165" y="176.213" fill="#2F292B" width="7.5" height="7.5"/>
	<rect x="135" y="183.713" fill="#EEE1BF" width="7.5" height="7.5"/>
	<rect x="157.5" y="183.713" fill="#9B724E" width="7.5" height="7.5"/>
	<rect x="157.5" y="191.213" fill="#4D301C" width="7.5" height="7.5"/>
	<rect x="135" y="191.213" fill="#EEE1BF" width="7.5" height="7.5"/>
	<rect x="157.5" y="138.748" fill="#4D301C" width="7.5" height="7.5"/>
	<rect x="150" y="131.257" fill="#4D301C" width="7.5" height="7.5"/>
	<rect x="157.5" y="131.257" fill="#4D301C" width="7.5" height="7.5"/>
	<rect x="150" y="153.718" fill="#EEE1BF" width="7.5" height="7.495"/>
	<rect x="157.5" y="153.718" fill="#4D301C" width="7.5" height="7.495"/>
	<rect x="150" y="146.228" fill="#EEE1BF" width="7.5" height="7.5"/>
	<rect x="157.5" y="146.228" fill="#4D301C" width="7.5" height="7.5"/>
	<rect x="150" y="123.748" fill="#EEE1BF" width="7.5" height="7.5"/>
	<rect x="157.5" y="123.748" fill="#B4AC93" width="7.5" height="7.5"/>
	<rect x="150" y="116.257" fill="#EEE1BF" width="7.5" height="7.5"/>
	<rect x="157.5" y="116.257" fill="#C2B99F" width="7.5" height="7.5"/>
	<rect x="165" y="123.748" fill="#C2B99F" width="7.5" height="7.5"/>
	<rect x="165" y="116.257" fill="#C2B99F" width="7.5" height="7.5"/>
	<rect x="120" y="108.777" fill="#C2B99F" width="7.5" height="7.5"/>
	<rect x="127.5" y="108.777" fill="#C2B99F" width="7.5" height="7.5"/>
	<rect x="135" y="108.757" fill="#EEE1BF" width="7.5" height="7.5"/>
	<rect x="142.5" y="108.787" fill="#B4AC93" width="7.5" height="7.5"/>
	<rect x="120" y="116.257" fill="#EEE1BF" width="7.5" height="7.5"/>
	<rect x="127.5" y="116.257" fill="#EEE1BF" width="7.5" height="7.5"/>
	<rect x="135" y="116.248" fill="#EEE1BF" width="7.5" height="7.5"/>
	<rect x="142.5" y="116.228" fill="#4D301C" width="7.5" height="7.5"/>
	<rect x="120" y="123.748" fill="#8D9C8E" width="7.5" height="7.5"/>
	<rect x="127.5" y="123.748" fill="#FFFFFF" width="7.5" height="7.5"/>
	<rect x="120" y="131.248" fill="#EEE1BF" width="7.5" height="7.5"/>
	<rect x="127.5" y="131.248" fill="#EEE1BF" width="7.5" height="7.5"/>
	<rect x="135" y="123.748" fill="#FCFADF" width="7.5" height="7.5"/>
	<rect x="142.5" y="123.748" fill="#EEE1BF" width="7.5" height="7.5"/>
	<rect x="135" y="131.248" fill="#EFCFC0" width="7.5" height="7.5"/>
	<rect x="142.5" y="131.248" fill="#EFCFC0" width="7.5" height="7.5"/>
	<rect x="150" y="93.787" fill="#CE782A" width="7.5" height="7.5"/>
	<rect x="157.5" y="93.787" fill="#CE782A" width="7.5" height="7.5"/>
	<rect x="150" y="78.806" fill="#CE782A" width="7.5" height="7.5"/>
	<rect x="157.5" y="78.806" fill="#CE782A" width="7.5" height="7.5"/>
	<rect x="157.5" y="86.306" fill="#CE782A" width="7.5" height="7.5"/>
	<rect x="165" y="86.306" fill="#CE782A" width="7.5" height="7.5"/>
	<rect x="165" y="78.806" fill="#CE782A" width="7.5" height="7.5"/>
	<rect x="112.5" y="86.306" fill="#CE782A" width="7.5" height="7.5"/>
	<rect x="120" y="86.306" fill="#CE782A" width="7.5" height="7.5"/>
	<rect x="127.5" y="86.306" fill="#995925" width="7.5" height="7.5"/>
	<rect x="135" y="86.306" fill="#B7752F" width="7.5" height="7.5"/>
	<rect x="142.5" y="86.306" fill="#CE782A" width="7.5" height="7.5"/>
	<rect x="120" y="78.806" fill="#995925" width="7.5" height="7.5"/>
	<rect x="127.5" y="78.806" fill="#B7752F" width="7.5" height="7.5"/>
	<rect x="135" y="78.806" fill="#B7752F" width="7.5" height="7.5"/>
	<rect x="142.5" y="78.806" fill="#B7752F" width="7.5" height="7.5"/>
	<rect x="127.5" y="71.287" fill="#B7752F" width="7.5" height="7.5"/>
	<rect x="135" y="71.287" fill="#B7752F" width="7.5" height="7.5"/>
	<rect x="142.5" y="71.287" fill="#B7752F" width="7.5" height="7.5"/>
	<rect x="150" y="71.287" fill="#B7752F" width="7.5" height="7.5"/>
	<rect x="150" y="86.306" fill="#CE782A" width="7.5" height="7.5"/>
	<rect x="150" y="101.287" fill="#CE782A" width="7.5" height="7.5"/>
	<rect x="150" y="116.257" fill="#B4AC93" width="7.5" height="7.5"/>
	<rect x="150" y="123.748" fill="#4D301C" width="7.5" height="7.5"/>
	<rect x="157.5" y="101.287" fill="#CE782A" width="7.5" height="7.5"/>
	<rect x="165" y="101.287" fill="#CE782A" width="7.5" height="7.5"/>
	<rect x="165" y="93.787" fill="#CE782A" width="7.5" height="7.5"/>
	<rect x="172.5" y="93.787" fill="#CE782A" width="7.5" height="7.5"/>
	<rect x="172.5" y="86.238" fill="#CE782A" width="7.5" height="7.5"/>
	<rect x="165" y="108.787" fill="#C2B99F" width="7.5" height="7.5"/>
	<rect x="172.5" y="108.787" fill="#CE782A" width="7.5" height="7.5"/>
	<rect x="172.5" y="101.287" fill="#CE782A" width="7.5" height="7.5"/>
	<rect x="172.5" y="116.287" fill="#C2B99F" width="7.5" height="7.5"/>
	<rect x="172.5" y="123.748" fill="#C2B99F" width="7.5" height="7.5"/>
	<rect x="172.5" y="138.757" fill="#734A1D" width="7.5" height="7.5"/>
	<rect x="172.5" y="131.257" fill="#4D301C" width="7.5" height="7.5"/>
	<rect x="172.5" y="146.257" fill="#4D301C" width="7.5" height="7.5"/>
	<rect x="180" y="116.287" fill="#CE782A" width="7.5" height="7.5"/>
	<rect x="180" y="123.748" fill="#4D301C" width="7.5" height="7.5"/>
	<rect x="180" y="108.835" fill="#CE782A" width="7.5" height="7.5"/>
	<rect x="180" y="101.292" fill="#CE782A" width="7.5" height="7.5"/>
	<rect x="180" y="131.257" fill="#4D301C" width="7.5" height="7.5"/>
	<rect x="180" y="138.757" fill="#4D301C" width="7.5" height="7.5"/>
	<rect x="180" y="146.257" fill="#4D301C" width="7.5" height="7.5"/>
	<rect x="165" y="138.757" fill="#9B724E" width="7.5" height="7.5"/>
	<rect x="165" y="131.257" fill="#B4AC93" width="7.5" height="7.5"/>
	<rect x="165" y="146.257" fill="#734A1D" width="7.5" height="7.5"/>
	<rect x="172.5" y="153.718" fill="#4D301C" width="7.5" height="7.495"/>
	<rect x="180" y="153.718" fill="#4D301C" width="7.5" height="7.495"/>
	<rect x="165" y="153.718" fill="#734A1D" width="7.5" height="7.495"/>
	<rect x="172.5" y="161.213" fill="#734A1D" width="7.5" height="7.5"/>
	<rect x="180" y="161.213" fill="#4D301C" width="7.5" height="7.5"/>
	<rect x="165" y="183.713" fill="#734A1D" width="7.5" height="7.5"/>
	<rect x="165" y="191.213" fill="#9B724E" width="7.5" height="7.5"/>
	<rect x="165" y="198.713" fill="#4D301C" width="7.5" height="7.5"/>
	<rect x="172.5" y="176.213" fill="#4D301C" width="7.5" height="7.5"/>
	<rect x="180" y="168.713" fill="#4D301C" width="7.5" height="7.5"/>
	<rect x="172.5" y="183.713" fill="#4D301C" width="7.5" height="7.5"/>
	<rect x="180" y="176.213" fill="#734A1D" width="7.5" height="7.5"/>
	<rect x="180" y="183.713" fill="#4D301C" width="7.5" height="7.5"/>
	<rect x="187.5" y="146.257" fill="#4D301C" width="7.5" height="7.5"/>
	<rect x="187.5" y="153.718" fill="#734A1D" width="7.5" height="7.495"/>
	<rect x="187.5" y="161.213" fill="#4D301C" width="7.5" height="7.5"/>
	<rect x="187.5" y="191.213" fill="#8AC2B6" width="7.5" height="7.5"/>
	<rect x="180" y="206.213" fill="#8AC2B6" width="7.5" height="7.5"/>
	<rect x="180" y="221.213" fill="#EFCFC0" width="7.5" height="7.5"/>
	<rect x="180" y="198.713" fill="#8AC2B6" width="7.5" height="7.5"/>
	<rect x="180" y="213.713" fill="#00B3AB" width="7.5" height="7.5"/>
	<rect x="180" y="191.213" fill="#8AC2B6" width="7.5" height="7.5"/>
	<rect x="172.5" y="191.213" fill="#734A1D" width="7.5" height="7.5"/>
	<rect x="127.5" y="176.213" fill="#4D301C" width="7.5" height="7.5"/>
	<rect x="127.5" y="183.713" fill="#4D301C" width="7.5" height="7.5"/>
	<rect x="120" y="191.213" fill="#4D301C" width="7.5" height="7.5"/>
	<rect x="120" y="176.213" fill="#734A1D" width="7.5" height="7.5"/>
	<rect x="120" y="168.665" fill="#4D301C" width="7.5" height="7.5"/>
	<rect x="120" y="183.713" fill="#734A1D" width="7.5" height="7.5"/>
	<rect x="127.5" y="191.213" fill="#734A1D" width="7.5" height="7.5"/>
	<rect x="120" y="198.713" fill="#4D301C" width="7.5" height="7.5"/>
	<rect x="165" y="161.213" fill="#4D301C" width="7.5" height="7.5"/>
	<rect x="172.5" y="168.713" fill="#4D301C" width="7.5" height="7.5"/>
	<rect x="165" y="168.713" fill="#4D301C" width="7.5" height="7.5"/>
	<rect x="157.5" y="161.213" fill="#4D301C" width="7.5" height="7.5"/>
	<rect x="157.5" y="168.713" fill="#734A1D" width="7.5" height="7.5"/>
	<rect x="150" y="168.713" fill="#4D301C" width="7.5" height="7.5"/>
	<rect x="165" y="176.213" fill="#4D301C" width="7.5" height="7.5"/>
	<rect x="150" y="108.787" fill="#C2B99F" width="7.5" height="7.5"/>
	<rect x="157.5" y="108.787" fill="#C2B99F" width="7.5" height="7.5"/>
</g>
</svg>
