<?xml version="1.0" encoding="utf-8"?>
<!-- Generator: Adobe Illustrator 16.0.0, SVG Export Plug-In . SVG Version: 6.00 Build 0)  -->
<!DOCTYPE svg PUBLIC "-//W3C//DTD SVG 1.1//EN" "http://www.w3.org/Graphics/SVG/1.1/DTD/svg11.dtd">
<svg version="1.1" id="Layer_1" xmlns="http://www.w3.org/2000/svg" xmlns:xlink="http://www.w3.org/1999/xlink" x="0px" y="0px"
	 width="300px" height="300px" viewBox="0 0 300 300" enable-background="new 0 0 300 300" xml:space="preserve">
<g>
	<rect x="111" y="114.016" fill="#AD8D75" width="6" height="6"/>
	<rect x="117" y="108.016" fill="#CEA96F" width="6" height="6"/>
	<rect x="123" y="108.016" fill="#AD8D75" width="6" height="6"/>
	<rect x="129" y="108.016" fill="#EFD1B8" width="6" height="6"/>
	<rect x="135" y="108.016" fill="#F3D9D0" width="6" height="6"/>
	<rect x="141" y="108.016" fill="#F3D9D0" width="6" height="6"/>
	<rect x="117" y="114.016" fill="#AD8D75" width="6" height="6"/>
	<rect x="123" y="114.016" fill="#EEBFA2" width="6" height="6"/>
	<rect x="129" y="114.016" fill="#EFD1B8" width="6" height="6"/>
	<rect x="135" y="114.016" fill="#EFD1B8" width="6" height="6"/>
	<rect x="141" y="114.016" fill="#F3D9D0" width="6" height="6"/>
	<rect x="117" y="120.016" fill="#F3D9D0" width="6" height="6"/>
	<rect x="117" y="125.992" fill="#EFD1B8" width="6" height="6"/>
	<rect x="117" y="131.98" fill="#F3D9D0" width="6" height="6"/>
	<rect x="111" y="137.992" fill="#EFD1B8" width="6" height="6"/>
	<rect x="117" y="137.992" fill="#EFD1B8" width="6" height="6"/>
	<rect x="117" y="143.98" fill="#EFD1B8" width="6" height="6"/>
	<rect x="129" y="143.98" fill="#E5B29B" width="6" height="6"/>
	<rect x="123" y="143.98" fill="#EFD1B8" width="6" height="6"/>
	<rect x="135" y="143.98" fill="#E5B29B" width="6" height="6"/>
	<rect x="147" y="143.98" fill="#EFD1B8" width="6" height="6"/>
	<rect x="141" y="143.98" fill="#EEE3E0" width="6" height="6"/>
	<rect x="129" y="149.969" fill="#FFFFFF" width="6" height="6"/>
	<rect x="123" y="149.969" fill="#FFFFFF" width="6" height="6"/>
	<rect x="135" y="149.969" fill="#D28F8C" width="6" height="6"/>
	<rect x="141" y="149.969" fill="#EFCFC0" width="6" height="6"/>
	<rect x="129" y="155.957" fill="#D36368" width="6" height="6"/>
	<rect x="123" y="155.957" fill="#D36368" width="6" height="6"/>
	<rect x="135" y="155.957" fill="#EFD1B8" width="6" height="6"/>
	<rect x="141" y="155.957" fill="#EFD1B8" width="6" height="6"/>
	<rect x="129" y="161.957" fill="#EFD1B8" width="6" height="6"/>
	<rect x="123" y="161.957" fill="#E5B29B" width="6" height="6"/>
	<rect x="129" y="167.957" fill="#EFD1B8" width="6" height="6"/>
	<rect x="135" y="161.957" fill="#EFD1B8" width="6" height="6"/>
	<rect x="135" y="167.957" fill="#EEBFA2" width="6" height="6"/>
	<rect x="135" y="173.957" fill="#EFD1B8" width="6" height="6"/>
	<rect x="141" y="167.957" fill="#E5B29B" width="6" height="6"/>
	<rect x="141" y="161.957" fill="#EFD1B8" width="6" height="6"/>
	<rect x="147.023" y="161.957" fill="#E5B29B" width="6" height="6"/>
	<rect x="141" y="173.957" fill="#FFFFFF" width="6" height="6"/>
	<rect x="147" y="173.957" fill="#EFD1B8" width="6" height="6"/>
	<rect x="141" y="173.957" fill="#EFD1B8" width="6" height="6"/>
	<rect x="153" y="143.98" fill="#EFD1B8" width="6" height="6"/>
	<rect x="147" y="137.992" fill="#EFD1B8" width="6" height="6"/>
	<rect x="153" y="137.992" fill="#9B8579" width="6" height="6"/>
	<rect x="147" y="155.957" fill="#EFD1B8" width="6" height="6"/>
	<rect x="153" y="155.957" fill="#E5B29B" width="6" height="6"/>
	<rect x="147" y="149.969" fill="#EFD1B8" width="6" height="6"/>
	<rect x="153" y="149.969" fill="#EEBFA2" width="6" height="6"/>
	<rect x="147" y="131.98" fill="#EEE1BF" width="6" height="6"/>
	<rect x="153" y="131.98" fill="#9B8579" width="6" height="6"/>
	<rect x="147" y="125.992" fill="#EEE1BF" width="6" height="6"/>
	<rect x="153" y="125.992" fill="#9B8579" width="6" height="6"/>
	<rect x="159" y="131.98" fill="#AD8D75" width="6" height="6"/>
	<rect x="159" y="125.992" fill="#E3C680" width="6" height="6"/>
	<rect x="123" y="120.004" fill="#9B8579" width="6" height="6"/>
	<rect x="129" y="120.004" fill="#C2B59B" width="6" height="6"/>
	<rect x="135" y="120.016" fill="#EFD1B8" width="6" height="6"/>
	<rect x="141" y="120.016" fill="#EFD1B8" width="6" height="6"/>
	<rect x="123" y="125.992" fill="#EFD1B8" width="6" height="6"/>
	<rect x="129" y="125.992" fill="#EFD1B8" width="6" height="6"/>
	<rect x="135" y="125.98" fill="#C2B59B" width="6" height="6"/>
	<rect x="141" y="125.992" fill="#EFD1B8" width="6" height="6"/>
	<rect x="123" y="131.98" fill="#7F95A5" width="6" height="6"/>
	<rect x="129" y="131.98" fill="#FFFFFF" width="6" height="6"/>
	<rect x="135" y="131.98" fill="#EFD1B8" width="6" height="6"/>
	<rect x="141" y="131.98" fill="#EFD1B8" width="6" height="6"/>
	<rect x="123" y="137.98" fill="#EEE3E0" width="6" height="6"/>
	<rect x="129" y="137.98" fill="#E5B29B" width="6" height="6"/>
	<rect x="135" y="137.98" fill="#EEE3E0" width="6" height="6"/>
	<rect x="141" y="137.98" fill="#EFD1B8" width="6" height="6"/>
	<rect x="147" y="108.016" fill="#9B8579" width="6" height="6"/>
	<rect x="153" y="108.016" fill="#CEA96F" width="6" height="6"/>
	<rect x="147" y="96.027" fill="#947B42" width="6" height="6"/>
	<rect x="153" y="96.027" fill="#E9D9A3" width="6" height="6"/>
	<rect x="153" y="102.027" fill="#CEA96F" width="6" height="6"/>
	<rect x="159" y="102.027" fill="#E9D9A3" width="6" height="6"/>
	<rect x="117" y="102.027" fill="#E9D9A3" width="6" height="6"/>
	<rect x="123" y="102.027" fill="#CEA96F" width="6" height="6"/>
	<rect x="129" y="102.027" fill="#E3C680" width="6" height="6"/>
	<rect x="135" y="102.027" fill="#947B42" width="6" height="6"/>
	<rect x="141" y="102.027" fill="#947B42" width="6" height="6"/>
	<rect x="123" y="96.027" fill="#E9D9A3" width="6" height="6"/>
	<rect x="129" y="96.027" fill="#CEA96F" width="6" height="6"/>
	<rect x="135" y="96.027" fill="#E8E2B8" width="6" height="6"/>
	<rect x="141" y="96.027" fill="#947B42" width="6" height="6"/>
	<rect x="147" y="102.027" fill="#CEA96F" width="6" height="6"/>
	<rect x="147" y="114.016" fill="#9B8579" width="6" height="6"/>
	<rect x="147" y="125.992" fill="#EFD1B8" width="6" height="6"/>
	<rect x="147" y="131.98" fill="#F3D9D0" width="6" height="6"/>
	<rect x="153" y="114.016" fill="#CEA96F" width="6" height="6"/>
	<rect x="159" y="114.016" fill="#CEA96F" width="6" height="6"/>
	<rect x="159" y="108.016" fill="#CEA96F" width="6" height="6"/>
	<rect x="165" y="108.016" fill="#E9D9A3" width="6" height="6"/>
	<rect x="159" y="120.016" fill="#E3C680" width="6" height="6"/>
	<rect x="165" y="120.016" fill="#CEA96F" width="6" height="6"/>
	<rect x="165" y="114.016" fill="#CEA96F" width="6" height="6"/>
	<rect x="165" y="126.016" fill="#CEA96F" width="6" height="6"/>
	<rect x="171" y="120.016" fill="#E9D9A3" width="6" height="6"/>
	<rect x="171" y="126.016" fill="#E9D9A3" width="6" height="6"/>
	<rect x="165" y="131.98" fill="#E3C680" width="6" height="6"/>
	<rect x="171" y="131.98" fill="#CEA96F" width="6" height="6"/>
	<rect x="171" y="143.992" fill="#E3C680" width="6" height="6"/>
	<rect x="165" y="137.992" fill="#AD8D75" width="6" height="6"/>
	<rect x="171" y="137.992" fill="#E3C680" width="6" height="6"/>
	<rect x="171" y="149.992" fill="#E3C680" width="6" height="6"/>
	<rect x="177" y="143.992" fill="#E9D9A3" width="6" height="6"/>
	<rect x="177" y="149.992" fill="#E9D9A3" width="6" height="6"/>
	<rect x="177" y="137.98" fill="#E9D9A3" width="6" height="6"/>
	<rect x="159" y="143.992" fill="#9B8579" width="6" height="6"/>
	<rect x="159" y="137.992" fill="#9B8579" width="6" height="6"/>
	<rect x="159" y="149.992" fill="#AD8D75" width="6" height="6"/>
	<rect x="171" y="155.957" fill="#CEA96F" width="6" height="6"/>
	<rect x="177" y="155.957" fill="#E9D9A3" width="6" height="6"/>
	<rect x="159" y="155.957" fill="#AD8D75" width="6" height="6"/>
	<rect x="171" y="161.957" fill="#CEA96F" width="6" height="6"/>
	<rect x="171" y="167.957" fill="#E3C680" width="6" height="6"/>
	<rect x="171" y="173.957" fill="#E3C680" width="6" height="6"/>
	<rect x="165" y="143.992" fill="#9B8579" width="6" height="6"/>
	<rect x="165" y="149.992" fill="#9B8579" width="6" height="6"/>
	<rect x="165" y="155.957" fill="#AD8D75" width="6" height="6"/>
	<rect x="165" y="161.957" fill="#AD8D75" width="6" height="6"/>
	<rect x="165" y="167.957" fill="#AD8D75" width="6" height="6"/>
	<rect x="165" y="173.957" fill="#CEA96F" width="6" height="6"/>
	<rect x="159" y="167.957" fill="#9B8579" width="6" height="6"/>
	<rect x="159" y="173.957" fill="#9B8579" width="6" height="6"/>
	<rect x="177" y="161.957" fill="#CEA96F" width="6" height="6"/>
	<rect x="177" y="167.957" fill="#CEA96F" width="6" height="6"/>
	<rect x="177" y="173.957" fill="#CEA96F" width="6" height="6"/>
	<rect x="159" y="161.957" fill="#9B8579" width="6" height="6"/>
	<rect x="153" y="161.957" fill="#EFD1B8" width="6" height="6"/>
	<rect x="153" y="167.957" fill="#EFD1B8" width="6" height="6"/>
	<rect x="153" y="173.957" fill="#EFCFC0" width="6" height="6"/>
	<rect x="147" y="167.957" fill="#EFD1B8" width="6" height="6"/>
	<rect x="147" y="120.016" fill="#EFD1B8" width="6" height="6"/>
	<rect x="153" y="120.016" fill="#9B8579" width="6" height="6"/>
	<rect x="135.012" y="185.973" fill="#E5B29B" width="6" height="6"/>
	<rect x="141.012" y="185.973" fill="#E5B29B" width="6" height="6"/>
	<rect x="152.996" y="185.973" fill="#E5B29B" width="6" height="6"/>
	<rect x="147.012" y="185.973" fill="#E5B29B" width="6" height="6"/>
	<rect x="128.984" y="185.973" fill="#323133" width="6" height="6"/>
	<rect x="122.973" y="185.973" fill="#323133" width="6" height="6"/>
	<rect x="116.996" y="185.973" fill="#AD8D75" width="6" height="6"/>
	<rect x="158.996" y="185.973" fill="#323133" width="6" height="6"/>
	<rect x="164.996" y="185.973" fill="#323133" width="6" height="6"/>
	<rect x="177.004" y="185.973" fill="#323133" width="6" height="6"/>
	<rect x="177.004" y="179.973" fill="#323133" width="6" height="6"/>
	<rect x="135.023" y="197.973" fill="#323133" width="6" height="6"/>
	<rect x="141.023" y="197.973" fill="#323133" width="6" height="6"/>
	<rect x="152.996" y="197.973" fill="#323133" width="6" height="6"/>
	<rect x="147.023" y="197.973" fill="#323133" width="6" height="6"/>
	<rect x="128.996" y="197.973" fill="#323133" width="6" height="6"/>
	<rect x="122.973" y="197.973" fill="#323133" width="6" height="6"/>
	<rect x="116.996" y="197.973" fill="#323133" width="6" height="6"/>
	<rect x="158.996" y="197.973" fill="#323133" width="6" height="6"/>
	<rect x="164.996" y="197.973" fill="#323133" width="6" height="6"/>
	<rect x="177.004" y="197.973" fill="#323133" width="6" height="6"/>
	<rect x="134.996" y="179.973" fill="#EFCFC0" width="6" height="6"/>
	<rect x="140.996" y="179.973" fill="#EFD1B8" width="6" height="6"/>
	<rect x="152.996" y="179.973" fill="#EFCFC0" width="6" height="6"/>
	<rect x="146.996" y="179.977" fill="#EFD1B8" width="6" height="6"/>
	<rect x="128.996" y="179.973" fill="#9B8579" width="6" height="6"/>
	<rect x="116.996" y="179.973" fill="#AD8D75" width="6" height="6"/>
	<rect x="158.996" y="179.973" fill="#42607E" width="6" height="6"/>
	<rect x="164.996" y="179.973" fill="#CEA96F" width="6" height="6"/>
	<rect x="135.012" y="191.973" fill="#323133" width="6" height="6"/>
	<rect x="141.012" y="191.973" fill="#323133" width="6" height="6"/>
	<rect x="152.996" y="191.973" fill="#323133" width="6" height="6"/>
	<rect x="147.012" y="191.973" fill="#323133" width="6" height="6"/>
	<rect x="128.984" y="191.973" fill="#323133" width="6" height="6"/>
	<rect x="122.973" y="191.973" fill="#323133" width="6" height="6"/>
	<rect x="116.996" y="191.973" fill="#323133" width="6" height="6"/>
	<rect x="110.996" y="197.973" fill="#323133" width="6" height="6"/>
	<rect x="110.996" y="191.973" fill="#323133" width="6" height="6"/>
	<rect x="158.996" y="191.973" fill="#323133" width="6" height="6"/>
	<rect x="164.996" y="191.973" fill="#323133" width="6" height="6"/>
	<rect x="177.004" y="191.973" fill="#323133" width="6" height="6"/>
	<rect x="183.004" y="185.973" fill="#323133" width="6" height="6"/>
	<rect x="183.004" y="197.973" fill="#323133" width="6" height="6"/>
	<rect x="183.004" y="191.973" fill="#323133" width="6" height="6"/>
	<rect x="158.996" y="179.973" fill="#EFD1B8" width="6" height="6"/>
	<rect x="170.988" y="185.988" fill="#CEA96F" width="6" height="6"/>
	<rect x="171.004" y="197.973" fill="#323133" width="6" height="6"/>
	<rect x="170.988" y="179.988" fill="#CEA96F" width="6" height="6"/>
	<rect x="171.004" y="191.973" fill="#323133" width="6" height="6"/>
	<rect x="122.973" y="173.957" fill="#AD8D75" width="6" height="6"/>
	<rect x="128.984" y="173.957" fill="#9B8579" width="6" height="6"/>
	<rect x="122.973" y="179.973" fill="#9B8579" width="6" height="6"/>
</g>
</svg>
