<?xml version="1.0" encoding="utf-8"?>
<!-- Generator: Adobe Illustrator 16.0.0, SVG Export Plug-In . SVG Version: 6.00 Build 0)  -->
<!DOCTYPE svg PUBLIC "-//W3C//DTD SVG 1.1//EN" "http://www.w3.org/Graphics/SVG/1.1/DTD/svg11.dtd">
<svg version="1.1" id="Layer_1" xmlns="http://www.w3.org/2000/svg" xmlns:xlink="http://www.w3.org/1999/xlink" x="0px" y="0px"
	 width="300px" height="300px" viewBox="0 0 300 300" enable-background="new 0 0 300 300" xml:space="preserve">
<g>
	<rect x="135.002" y="183.721" fill="#EFD1B8" width="7.5" height="7.5"/>
	<rect x="142.502" y="183.721" fill="#EFD1B8" width="7.5" height="7.5"/>
	<rect x="150.002" y="183.721" fill="#EFD1B8" width="7.5" height="7.5"/>
	<rect x="135.002" y="191.182" fill="#FFFFFF" width="7.5" height="7.5"/>
	<rect x="142.502" y="191.182" fill="#EFD1B8" width="7.5" height="7.5"/>
	<rect x="150.002" y="191.182" fill="#EFD1B8" width="7.5" height="7.5"/>
	<rect x="157.498" y="183.721" fill="#EFD1B8" width="7.5" height="7.5"/>
	<rect x="157.498" y="191.182" fill="#EFD1B8" width="7.5" height="7.5"/>
	<rect x="127.502" y="191.201" fill="#1A1818" width="7.5" height="7.5"/>
	<rect x="120.002" y="191.201" fill="#BE1E2D" width="7.5" height="7.5"/>
	<rect x="127.502" y="183.721" fill="#1A1818" width="7.5" height="7.5"/>
	<rect x="172.502" y="191.201" fill="#1A1818" width="7.5" height="7.5"/>
	<rect x="172.502" y="183.682" fill="#1A1818" width="7.5" height="7.5"/>
	<rect x="135.002" y="206.201" fill="#BE1E2D" width="7.5" height="7.5"/>
	<rect x="142.502" y="206.201" fill="#1A1818" width="7.5" height="7.5"/>
	<rect x="157.502" y="206.201" fill="#1A1818" width="7.5" height="7.5"/>
	<rect x="150.002" y="206.201" fill="#1A1818" width="7.5" height="7.5"/>
	<rect x="127.502" y="206.201" fill="#BE1E2D" width="7.5" height="7.5"/>
	<rect x="120.002" y="206.201" fill="#913844" width="7.5" height="7.5"/>
	<rect x="112.502" y="206.201" fill="#BE1E2D" width="7.5" height="7.5"/>
	<rect x="172.502" y="206.201" fill="#BE1E2D" width="7.5" height="7.5"/>
	<rect x="180.002" y="206.201" fill="#BE1E2D" width="7.5" height="7.5"/>
	<rect x="187.502" y="206.201" fill="#BE1E2D" width="7.5" height="7.5"/>
	<rect x="195.002" y="206.201" fill="#BE1E2D" width="7.5" height="7.5"/>
	<rect x="135.002" y="221.201" fill="#BE1E2D" width="7.5" height="7.5"/>
	<rect x="142.502" y="221.201" fill="#C7919B" width="7.5" height="7.5"/>
	<rect x="157.502" y="221.201" fill="#C7919B" width="7.5" height="7.5"/>
	<rect x="150.002" y="221.201" fill="#BE1E2D" width="7.5" height="7.5"/>
	<rect x="127.502" y="221.201" fill="#C7919B" width="7.5" height="7.5"/>
	<rect x="120.002" y="221.201" fill="#BE1E2D" width="7.5" height="7.5"/>
	<rect x="112.502" y="221.201" fill="#1A1818" width="7.5" height="7.5"/>
	<rect x="172.502" y="221.201" fill="#913844" width="7.5" height="7.5"/>
	<rect x="180.002" y="221.201" fill="#BE1E2D" width="7.5" height="7.5"/>
	<rect x="187.502" y="221.201" fill="#1A1818" width="7.5" height="7.5"/>
	<rect x="195.002" y="221.201" fill="#1A1818" width="7.5" height="7.5"/>
	<rect x="135.002" y="198.701" fill="#1A1818" width="7.5" height="7.5"/>
	<rect x="142.502" y="198.701" fill="#FFFFFF" width="7.5" height="7.5"/>
	<rect x="157.502" y="198.701" fill="#FFFFFF" width="7.5" height="7.5"/>
	<rect x="150.002" y="198.701" fill="#FFFFFF" width="7.5" height="7.5"/>
	<rect x="127.502" y="198.701" fill="#BE1E2D" width="7.5" height="7.5"/>
	<rect x="120.002" y="198.701" fill="#BE1E2D" width="7.5" height="7.5"/>
	<rect x="112.502" y="198.701" fill="#BE1E2D" width="7.5" height="7.5"/>
	<rect x="172.502" y="198.701" fill="#BE1E2D" width="7.5" height="7.5"/>
	<rect x="180.002" y="191.191" fill="#BE1E2D" width="7.5" height="7.5"/>
	<rect x="187.502" y="198.701" fill="#BE1E2D" width="7.5" height="7.5"/>
	<rect x="180.002" y="198.701" fill="#BE1E2D" width="7.5" height="7.5"/>
	<rect x="135.002" y="213.701" fill="#C7919B" width="7.5" height="7.5"/>
	<rect x="142.502" y="213.701" fill="#BE1E2D" width="7.5" height="7.5"/>
	<rect x="157.502" y="213.701" fill="#C7919B" width="7.5" height="7.5"/>
	<rect x="150.002" y="213.701" fill="#BE1E2D" width="7.5" height="7.5"/>
	<rect x="127.502" y="213.701" fill="#C7919B" width="7.5" height="7.5"/>
	<rect x="120.002" y="213.701" fill="#BE1E2D" width="7.5" height="7.5"/>
	<rect x="112.502" y="213.701" fill="#BE1E2D" width="7.5" height="7.5"/>
	<rect x="105.002" y="206.201" fill="#BE1E2D" width="7.5" height="7.5"/>
	<rect x="105.002" y="221.201" fill="#1A1818" width="7.5" height="7.5"/>
	<rect x="105.002" y="213.701" fill="#BE1E2D" width="7.5" height="7.5"/>
	<rect x="172.502" y="213.701" fill="#BE1E2D" width="7.5" height="7.5"/>
	<rect x="164.998" y="191.201" fill="#FFFFFF" width="7.5" height="7.5"/>
	<rect x="164.998" y="206.201" fill="#BE1E2D" width="7.5" height="7.5"/>
	<rect x="164.998" y="221.201" fill="#913844" width="7.5" height="7.5"/>
	<rect x="164.998" y="198.701" fill="#1A1818" width="7.5" height="7.5"/>
	<rect x="164.998" y="213.701" fill="#BE1E2D" width="7.5" height="7.5"/>
	<rect x="180.002" y="213.701" fill="#BE1E2D" width="7.5" height="7.5"/>
	<rect x="187.502" y="213.701" fill="#BE1E2D" width="7.5" height="7.5"/>
	<rect x="195.002" y="213.701" fill="#BE1E2D" width="7.5" height="7.5"/>
	<rect x="127.498" y="71.299" fill="#F3D9D0" width="7.5" height="7.5"/>
	<rect x="134.998" y="71.299" fill="#EED0C6" width="7.5" height="7.5"/>
	<rect x="142.498" y="71.299" fill="#EED0C6" width="7.5" height="7.5"/>
	<rect x="112.498" y="86.284" fill="#F3D9D0" width="7.5" height="7.5"/>
	<rect x="119.998" y="86.284" fill="#EEE3E0" width="7.5" height="7.5"/>
	<rect x="127.498" y="86.284" fill="#EFD1B8" width="7.5" height="7.5"/>
	<rect x="134.998" y="86.284" fill="#EFD1B8" width="7.5" height="7.5"/>
	<rect x="142.498" y="86.284" fill="#EEE3E0" width="7.5" height="7.5"/>
	<rect x="149.998" y="86.284" fill="#EED0C6" width="7.5" height="7.5"/>
	<rect x="112.498" y="93.784" fill="#EFD1B8" width="7.5" height="7.5"/>
	<rect x="119.998" y="93.784" fill="#EFD1B8" width="7.5" height="7.5"/>
	<rect x="127.498" y="93.784" fill="#EFD1B8" width="7.5" height="7.5"/>
	<rect x="134.998" y="93.784" fill="#EFD1B8" width="7.5" height="7.5"/>
	<rect x="142.498" y="93.784" fill="#EFD1B8" width="7.5" height="7.5"/>
	<rect x="149.998" y="93.784" fill="#EFD1B8" width="7.5" height="7.5"/>
	<rect x="112.498" y="101.284" fill="#EFD1B8" width="7.5" height="7.5"/>
	<rect x="119.998" y="101.284" fill="#F3D9D0" width="7.5" height="7.5"/>
	<rect x="112.498" y="108.755" fill="#EED0C6" width="7.5" height="7.5"/>
	<rect x="119.998" y="108.755" fill="#9B8579" width="7.5" height="7.5"/>
	<rect x="112.498" y="123.706" fill="#EFD1B8" width="7.5" height="7.5"/>
	<rect x="119.998" y="123.706" fill="#6D808E" width="7.5" height="7.5"/>
	<rect x="112.498" y="131.221" fill="#EFD1B8" width="7.5" height="7.5"/>
	<rect x="119.998" y="131.221" fill="#F3D9D0" width="7.5" height="7.5"/>
	<rect x="112.498" y="138.706" fill="#E3C9B6" width="7.5" height="7.5"/>
	<rect x="104.998" y="131.206" fill="#EFD1B8" width="7.5" height="7.5"/>
	<rect x="97.498" y="131.206" fill="#F3D9D0" width="7.5" height="7.5"/>
	<rect x="104.998" y="123.706" fill="#F3D9D0" width="7.5" height="7.5"/>
	<rect x="119.998" y="138.706" fill="#E3C9B6" width="7.5" height="7.5"/>
	<rect x="134.998" y="138.706" fill="#E3C9B6" width="7.5" height="7.5"/>
	<rect x="127.498" y="138.706" fill="#E3C9B6" width="7.5" height="7.5"/>
	<rect x="142.498" y="138.706" fill="#D7BFAA" width="7.5" height="7.5"/>
	<rect x="164.998" y="138.706" fill="#EFD1B8" width="7.5" height="7.5"/>
	<rect x="149.998" y="138.706" fill="#F3D9D0" width="7.5" height="7.5"/>
	<rect x="134.998" y="146.191" fill="#FFFFFF" width="7.5" height="7.5"/>
	<rect x="127.498" y="146.191" fill="#FFFFFF" width="7.5" height="7.5"/>
	<rect x="142.498" y="146.191" fill="#BB807B" width="7.5" height="7.5"/>
	<rect x="149.998" y="146.191" fill="#D7BFAA" width="7.5" height="7.5"/>
	<rect x="134.998" y="153.677" fill="#D28F8C" width="7.5" height="7.5"/>
	<rect x="127.498" y="153.677" fill="#D28F8C" width="7.5" height="7.5"/>
	<rect x="119.998" y="153.677" fill="#D28F8C" width="7.5" height="7.5"/>
	<rect x="142.498" y="153.677" fill="#EFD1B8" width="7.5" height="7.5"/>
	<rect x="149.998" y="153.677" fill="#E3C9B6" width="7.5" height="7.5"/>
	<rect x="134.998" y="161.177" fill="#E3C9B6" width="7.5" height="7.5"/>
	<rect x="127.498" y="161.177" fill="#D7BFAA" width="7.5" height="7.5"/>
	<rect x="142.498" y="161.177" fill="#E3C9B6" width="7.5" height="7.5"/>
	<rect x="149.998" y="161.177" fill="#EFD1B8" width="7.5" height="7.5"/>
	<rect x="157.498" y="161.177" fill="#D7BFAA" width="7.5" height="7.5"/>
	<rect x="172.498" y="138.706" fill="#E3C9B6" width="7.5" height="7.5"/>
	<rect x="164.998" y="131.221" fill="#EFD1B8" width="7.5" height="7.5"/>
	<rect x="164.998" y="153.677" fill="#D7BFAA" width="7.5" height="7.5"/>
	<rect x="164.998" y="146.191" fill="#EFD1B8" width="7.5" height="7.5"/>
	<rect x="165.002" y="161.177" fill="#EFD1B8" width="7.5" height="7.5"/>
	<rect x="172.498" y="146.191" fill="#E3C9B6" width="7.5" height="7.5"/>
	<rect x="164.998" y="123.706" fill="#EFD1B8" width="7.5" height="7.5"/>
	<rect x="164.998" y="108.755" fill="#B6A695" width="7.5" height="7.5"/>
	<rect x="172.498" y="123.706" fill="#F3D9D0" width="7.5" height="7.5"/>
	<rect x="127.498" y="101.284" fill="#F3D9D0" width="7.5" height="7.5"/>
	<rect x="134.998" y="101.284" fill="#EFD1B8" width="7.5" height="7.5"/>
	<rect x="142.498" y="101.284" fill="#EFD1B8" width="7.5" height="7.5"/>
	<rect x="149.998" y="101.284" fill="#EFD1B8" width="7.5" height="7.5"/>
	<rect x="127.498" y="108.755" fill="#C2B59B" width="7.5" height="7.5"/>
	<rect x="134.998" y="108.755" fill="#E3C9B6" width="7.5" height="7.5"/>
	<rect x="142.498" y="108.755" fill="#EFD1B8" width="7.5" height="7.5"/>
	<rect x="149.998" y="108.755" fill="#EFD1B8" width="7.5" height="7.5"/>
	<rect x="112.498" y="116.221" fill="#EFD1B8" width="7.5" height="7.5"/>
	<rect x="119.998" y="116.221" fill="#EED0C6" width="7.5" height="7.5"/>
	<rect x="164.998" y="116.221" fill="#B6A695" width="7.5" height="7.5"/>
	<rect x="172.498" y="131.172" fill="#EFD1B8" width="7.5" height="7.5"/>
	<rect x="180.002" y="123.706" fill="#EFD1B8" width="7.5" height="7.5"/>
	<rect x="180.002" y="131.172" fill="#EFD1B8" width="7.5" height="7.5"/>
	<rect x="127.498" y="116.221" fill="#EFD1B8" width="7.5" height="7.5"/>
	<rect x="134.998" y="116.221" fill="#C2B59B" width="7.5" height="7.5"/>
	<rect x="142.498" y="116.221" fill="#E3C9B6" width="7.5" height="7.5"/>
	<rect x="149.998" y="116.221" fill="#EFD1B8" width="7.5" height="7.5"/>
	<rect x="127.498" y="123.706" fill="#FFFFFF" width="7.5" height="7.5"/>
	<rect x="134.998" y="123.706" fill="#EFD1B8" width="7.5" height="7.5"/>
	<rect x="142.498" y="123.706" fill="#EFD1B8" width="7.5" height="7.5"/>
	<rect x="149.998" y="123.706" fill="#E3C9B6" width="7.5" height="7.5"/>
	<rect x="127.498" y="131.206" fill="#EFD1B8" width="7.5" height="7.5"/>
	<rect x="134.998" y="131.206" fill="#F3D9D0" width="7.5" height="7.5"/>
	<rect x="142.498" y="131.206" fill="#F3D9D0" width="7.5" height="7.5"/>
	<rect x="149.998" y="131.206" fill="#EFD1B8" width="7.5" height="7.5"/>
	<rect x="164.998" y="86.284" fill="#B6A695" width="7.5" height="7.5"/>
	<rect x="172.498" y="86.284" fill="#B6A695" width="7.5" height="7.5"/>
	<rect x="119.998" y="78.799" fill="#F3D9D0" width="7.5" height="7.5"/>
	<rect x="127.498" y="78.799" fill="#EFD1B8" width="7.5" height="7.5"/>
	<rect x="134.998" y="78.799" fill="#EEE3E0" width="7.5" height="7.5"/>
	<rect x="142.498" y="78.799" fill="#EEE3E0" width="7.5" height="7.5"/>
	<rect x="149.998" y="78.799" fill="#EED0C6" width="7.5" height="7.5"/>
	<rect x="164.998" y="78.799" fill="#B6A695" width="7.5" height="7.5"/>
	<rect x="149.998" y="71.299" fill="#D7BFAA" width="7.5" height="7.5"/>
	<rect x="164.998" y="93.784" fill="#B6A695" width="7.5" height="7.5"/>
	<rect x="172.498" y="93.784" fill="#B6A695" width="7.5" height="7.5"/>
	<rect x="164.998" y="101.284" fill="#B6A695" width="7.5" height="7.5"/>
	<rect x="157.502" y="138.706" fill="#EFD1B8" width="7.5" height="7.5"/>
	<rect x="157.502" y="131.221" fill="#EFD1B8" width="7.5" height="7.5"/>
	<rect x="157.502" y="153.677" fill="#EFD1B8" width="7.5" height="7.5"/>
	<rect x="157.502" y="146.191" fill="#EFD1B8" width="7.5" height="7.5"/>
	<rect x="157.502" y="123.706" fill="#EFD1B8" width="7.5" height="7.5"/>
	<rect x="157.502" y="108.755" fill="#D7BFAA" width="7.5" height="7.5"/>
	<rect x="157.502" y="116.221" fill="#EFD1B8" width="7.5" height="7.5"/>
	<rect x="157.502" y="86.284" fill="#B6A695" width="7.5" height="7.5"/>
	<rect x="157.502" y="78.799" fill="#B6A695" width="7.5" height="7.5"/>
	<rect x="157.502" y="71.299" fill="#B6A695" width="7.5" height="7.5"/>
	<rect x="157.502" y="93.784" fill="#D7BFAA" width="7.5" height="7.5"/>
	<rect x="157.502" y="101.284" fill="#D7BFAA" width="7.5" height="7.5"/>
	<rect x="172.498" y="101.284" fill="#B6A695" width="7.5" height="7.5"/>
	<rect x="172.498" y="108.755" fill="#B6A695" width="7.5" height="7.5"/>
	<rect x="172.498" y="116.23" fill="#F3D9D0" width="7.5" height="7.5"/>
	<rect x="180.002" y="116.23" fill="#F3D9D0" width="7.5" height="7.5"/>
	<rect x="135.002" y="176.182" fill="#D7BFAA" width="7.5" height="7.5"/>
	<rect x="142.502" y="176.182" fill="#E3C9B6" width="7.5" height="7.5"/>
	<rect x="150.002" y="176.182" fill="#D7BFAA" width="7.5" height="7.5"/>
	<rect x="157.502" y="176.182" fill="#EFD1B8" width="7.5" height="7.5"/>
	<rect x="165.002" y="183.721" fill="#EFD1B8" width="7.5" height="7.5"/>
	<rect x="165.007" y="176.182" fill="#EFD1B8" width="7.5" height="7.5"/>
	<rect x="135.002" y="168.677" fill="#EFD1B8" width="7.5" height="7.5"/>
	<rect x="127.488" y="168.677" fill="#EFD1B8" width="7.5" height="7.5"/>
	<rect x="120.002" y="161.177" fill="#E3C9B6" width="7.5" height="7.5"/>
	<rect x="142.502" y="168.677" fill="#EFD1B8" width="7.5" height="7.5"/>
	<rect x="150.002" y="168.677" fill="#EFD1B8" width="7.5" height="7.5"/>
	<rect x="157.502" y="168.677" fill="#EFD1B8" width="7.5" height="7.5"/>
	<rect x="165.007" y="168.677" fill="#EFD1B8" width="7.5" height="7.5"/>
</g>
</svg>
