<?xml version="1.0" encoding="utf-8"?>
<!-- Generator: Adobe Illustrator 16.0.0, SVG Export Plug-In . SVG Version: 6.00 Build 0)  -->
<!DOCTYPE svg PUBLIC "-//W3C//DTD SVG 1.1//EN" "http://www.w3.org/Graphics/SVG/1.1/DTD/svg11.dtd">
<svg version="1.1" id="Layer_1" xmlns="http://www.w3.org/2000/svg" xmlns:xlink="http://www.w3.org/1999/xlink" x="0px" y="0px"
	 width="300px" height="300px" viewBox="0 0 300 300" enable-background="new 0 0 300 300" xml:space="preserve">
<g>
	<rect x="131.25" y="202.456" fill="#47B983" width="7.5" height="7.5"/>
	<rect x="138.75" y="202.456" fill="#FFFFFF" width="7.5" height="7.5"/>
	<rect x="153.75" y="202.456" fill="#47B983" width="7.5" height="7.5"/>
	<rect x="146.25" y="202.456" fill="#47B983" width="7.5" height="7.5"/>
	<rect x="123.75" y="202.456" fill="#47B983" width="7.5" height="7.5"/>
	<rect x="116.25" y="202.456" fill="#47B983" width="7.5" height="7.5"/>
	<rect x="108.75" y="202.456" fill="#EEE1BF" width="7.5" height="7.5"/>
	<rect x="161.25" y="202.456" fill="#47B983" width="7.5" height="7.5"/>
	<rect x="168.75" y="202.456" fill="#47B983" width="7.5" height="7.5"/>
	<rect x="176.25" y="202.456" fill="#EEE1BF" width="7.5" height="7.5"/>
	<rect x="183.75" y="202.456" fill="#EEE1BF" width="7.5" height="7.5"/>
	<rect x="131.25" y="217.456" fill="#47B983" width="7.5" height="7.5"/>
	<rect x="138.75" y="217.456" fill="#47B983" width="7.5" height="7.5"/>
	<rect x="153.75" y="217.456" fill="#47B983" width="7.5" height="7.5"/>
	<rect x="146.25" y="217.456" fill="#00B3AB" width="7.5" height="7.5"/>
	<rect x="123.75" y="217.456" fill="#47B983" width="7.5" height="7.5"/>
	<rect x="116.25" y="217.456" fill="#00B3AB" width="7.5" height="7.5"/>
	<rect x="108.75" y="217.456" fill="#EEE1BF" width="7.5" height="7.5"/>
	<rect x="161.25" y="217.456" fill="#47B983" width="7.5" height="7.5"/>
	<rect x="168.75" y="217.456" fill="#47B983" width="7.5" height="7.5"/>
	<rect x="176.25" y="217.456" fill="#EEE1BF" width="7.5" height="7.5"/>
	<rect x="183.75" y="217.456" fill="#EEE1BF" width="7.5" height="7.5"/>
	<rect x="131.25" y="194.956" fill="#FFFFFF" width="7.5" height="7.5"/>
	<rect x="138.75" y="194.956" fill="#EEE1BF" width="7.5" height="7.5"/>
	<rect x="153.75" y="194.956" fill="#47B983" width="7.5" height="7.5"/>
	<rect x="146.25" y="194.956" fill="#FFFFFF" width="7.5" height="7.5"/>
	<rect x="138.75" y="187.456" fill="#EEE1BF" width="7.5" height="7.5"/>
	<rect x="146.25" y="187.207" fill="#EEE1BF" width="7.5" height="7.5"/>
	<rect x="123.75" y="194.956" fill="#47B983" width="7.5" height="7.5"/>
	<rect x="108.75" y="194.956" fill="#47B983" width="7.5" height="7.5"/>
	<rect x="161.25" y="194.956" fill="#42607E" width="7.5" height="7.5"/>
	<rect x="168.75" y="194.956" fill="#47B983" width="7.5" height="7.5"/>
	<rect x="176.25" y="194.956" fill="#47B983" width="7.5" height="7.5"/>
	<rect x="183.75" y="194.956" fill="#47B983" width="7.5" height="7.5"/>
	<rect x="191.25" y="187.456" fill="#47B983" width="7.5" height="7.5"/>
	<rect x="108.75" y="187.522" fill="#47B983" width="7.5" height="7.5"/>
	<rect x="101.25" y="187.522" fill="#47B983" width="7.5" height="7.5"/>
	<rect x="131.25" y="209.956" fill="#00B3AB" width="7.5" height="7.5"/>
	<rect x="138.75" y="209.956" fill="#47B983" width="7.5" height="7.5"/>
	<rect x="153.75" y="209.956" fill="#00B3AB" width="7.5" height="7.5"/>
	<rect x="146.25" y="209.956" fill="#47B983" width="7.5" height="7.5"/>
	<rect x="123.75" y="209.956" fill="#00B3AB" width="7.5" height="7.5"/>
	<rect x="116.25" y="209.956" fill="#47B983" width="7.5" height="7.5"/>
	<rect x="108.75" y="209.956" fill="#EEE1BF" width="7.5" height="7.5"/>
	<rect x="161.25" y="209.956" fill="#00B3AB" width="7.5" height="7.5"/>
	<rect x="168.75" y="209.956" fill="#47B983" width="7.5" height="7.5"/>
	<rect x="176.25" y="209.956" fill="#EEE1BF" width="7.5" height="7.5"/>
	<rect x="183.75" y="209.956" fill="#EEE1BF" width="7.5" height="7.5"/>
	<rect x="101.25" y="90.029" fill="#A04957" width="7.5" height="7.5"/>
	<rect x="101.25" y="97.529" fill="#691A31" width="7.5" height="7.5"/>
	<rect x="108.75" y="90.029" fill="#691A31" width="7.5" height="7.5"/>
	<rect x="116.25" y="90.029" fill="#691A31" width="7.5" height="7.5"/>
	<rect x="123.75" y="90.029" fill="#691A31" width="7.5" height="7.5"/>
	<rect x="131.25" y="90.029" fill="#F26D36" width="7.5" height="7.5"/>
	<rect x="138.75" y="90.029" fill="#A04957" width="7.5" height="7.5"/>
	<rect x="108.75" y="97.529" fill="#691A31" width="7.5" height="7.5"/>
	<rect x="116.25" y="97.529" fill="#691A31" width="7.5" height="7.5"/>
	<rect x="123.75" y="97.529" fill="#691A31" width="7.5" height="7.5"/>
	<rect x="131.25" y="97.529" fill="#691A31" width="7.5" height="7.5"/>
	<rect x="138.75" y="97.529" fill="#691A31" width="7.5" height="7.5"/>
	<rect x="108.75" y="105.029" fill="#EEE1BF" width="7.5" height="7.5"/>
	<rect x="108.75" y="112.5" fill="#EEE1BF" width="7.5" height="7.5"/>
	<rect x="108.75" y="119.985" fill="#EEE1BF" width="7.5" height="7.5"/>
	<rect x="101.25" y="127.5" fill="#EEE1BF" width="7.5" height="7.5"/>
	<rect x="108.75" y="127.5" fill="#EEE1BF" width="7.5" height="7.5"/>
	<rect x="108.75" y="134.985" fill="#EEE1BF" width="7.5" height="7.5"/>
	<rect x="123.75" y="134.985" fill="#EEE1BF" width="7.5" height="7.5"/>
	<rect x="116.25" y="134.985" fill="#EEE1BF" width="7.5" height="7.5"/>
	<rect x="131.25" y="134.985" fill="#EFCFC0" width="7.5" height="7.5"/>
	<rect x="146.25" y="134.985" fill="#EEE1BF" width="7.5" height="7.5"/>
	<rect x="138.75" y="134.985" fill="#EFCFC0" width="7.5" height="7.5"/>
	<rect x="123.75" y="142.471" fill="#FFFFFF" width="7.5" height="7.5"/>
	<rect x="116.25" y="142.471" fill="#FFFFFF" width="7.5" height="7.5"/>
	<rect x="131.25" y="142.471" fill="#CBC0A9" width="7.5" height="7.5"/>
	<rect x="138.75" y="142.471" fill="#EEE1BF" width="7.5" height="7.5"/>
	<rect x="123.75" y="149.956" fill="#C7293B" width="7.5" height="7.5"/>
	<rect x="116.25" y="149.956" fill="#C7293B" width="7.5" height="7.5"/>
	<rect x="131.25" y="149.956" fill="#EEE1BF" width="7.5" height="7.5"/>
	<rect x="138.75" y="149.956" fill="#EEE1BF" width="7.5" height="7.5"/>
	<rect x="123.75" y="157.456" fill="#EEE1BF" width="7.5" height="7.5"/>
	<rect x="116.25" y="157.456" fill="#EEE1BF" width="7.5" height="7.5"/>
	<rect x="131.25" y="157.456" fill="#EEE1BF" width="7.5" height="7.5"/>
	<rect x="123.75" y="164.956" fill="#EEE1BF" width="7.5" height="7.5"/>
	<rect x="131.25" y="164.956" fill="#EEE1BF" width="7.5" height="7.5"/>
	<rect x="131.25" y="172.456" fill="#EDD69F" width="7.5" height="7.5"/>
	<rect x="138.75" y="164.956" fill="#EEE1BF" width="7.5" height="7.5"/>
	<rect x="138.75" y="157.456" fill="#EEE1BF" width="7.5" height="7.5"/>
	<rect x="146.25" y="157.456" fill="#EEE1BF" width="7.5" height="7.5"/>
	<rect x="138.75" y="172.456" fill="#FFFFFF" width="7.5" height="7.5"/>
	<rect x="153.75" y="172.456" fill="#A04957" width="7.5" height="7.5"/>
	<rect x="146.25" y="172.456" fill="#691A31" width="7.5" height="7.5"/>
	<rect x="138.75" y="172.456" fill="#691A31" width="7.5" height="7.5"/>
	<rect x="138.75" y="179.956" fill="#691A31" width="7.5" height="7.5"/>
	<rect x="146.25" y="179.956" fill="#691A31" width="7.5" height="7.5"/>
	<rect x="161.25" y="172.456" fill="#A7948A" width="7.5" height="7.5"/>
	<rect x="131.25" y="179.956" fill="#EEE1BF" width="7.5" height="7.5"/>
	<rect x="153.75" y="179.956" fill="#A04957" width="7.5" height="7.5"/>
	<rect x="153.75" y="187.456" fill="#691A31" width="7.5" height="7.5"/>
	<rect x="131.25" y="187.456" fill="#EEE1BF" width="7.5" height="7.5"/>
	<rect x="153.75" y="134.985" fill="#691A31" width="7.5" height="7.5"/>
	<rect x="146.25" y="127.5" fill="#EEE1BF" width="7.5" height="7.5"/>
	<rect x="153.75" y="127.5" fill="#691A31" width="7.5" height="7.5"/>
	<rect x="146.25" y="149.956" fill="#EEE1BF" width="7.5" height="7.5"/>
	<rect x="153.75" y="149.956" fill="#691A31" width="7.5" height="7.5"/>
	<rect x="146.25" y="142.471" fill="#EEE1BF" width="7.5" height="7.5"/>
	<rect x="153.75" y="142.471" fill="#691A31" width="7.5" height="7.5"/>
	<rect x="146.25" y="119.985" fill="#EEE1BF" width="7.5" height="7.5"/>
	<rect x="153.75" y="119.985" fill="#691A31" width="7.5" height="7.5"/>
	<rect x="146.25" y="112.5" fill="#EEE1BF" width="7.5" height="7.5"/>
	<rect x="153.75" y="112.5" fill="#A93225" width="7.5" height="7.5"/>
	<rect x="161.25" y="119.985" fill="#691A31" width="7.5" height="7.5"/>
	<rect x="161.25" y="112.5" fill="#691A31" width="7.5" height="7.5"/>
	<rect x="116.25" y="105.015" fill="#A9958A" width="7.5" height="7.5"/>
	<rect x="123.75" y="105.015" fill="#A9958A" width="7.5" height="7.5"/>
	<rect x="131.25" y="105.029" fill="#EEE1BF" width="7.5" height="7.5"/>
	<rect x="138.75" y="105.029" fill="#EEE1BF" width="7.5" height="7.5"/>
	<rect x="116.25" y="112.5" fill="#EEE1BF" width="7.5" height="7.5"/>
	<rect x="123.75" y="112.5" fill="#EEE1BF" width="7.5" height="7.5"/>
	<rect x="131.25" y="112.485" fill="#A9958A" width="7.5" height="7.5"/>
	<rect x="138.75" y="112.5" fill="#EEE1BF" width="7.5" height="7.5"/>
	<rect x="116.25" y="119.985" fill="#979F73" width="7.5" height="7.5"/>
	<rect x="123.75" y="119.985" fill="#FFFFFF" width="7.5" height="7.5"/>
	<rect x="131.25" y="119.985" fill="#EEE1BF" width="7.5" height="7.5"/>
	<rect x="138.75" y="119.985" fill="#EEE1BF" width="7.5" height="7.5"/>
	<rect x="116.25" y="127.485" fill="#EEE1BF" width="7.5" height="7.5"/>
	<rect x="123.75" y="127.485" fill="#EEE1BF" width="7.5" height="7.5"/>
	<rect x="131.25" y="127.485" fill="#EFCFC0" width="7.5" height="7.5"/>
	<rect x="138.75" y="127.485" fill="#EFCFC0" width="7.5" height="7.5"/>
	<rect x="146.25" y="90.029" fill="#A04957" width="7.5" height="7.5"/>
	<rect x="153.75" y="90.029" fill="#A04957" width="7.5" height="7.5"/>
	<rect x="146.25" y="75.044" fill="#A04957" width="7.5" height="7.5"/>
	<rect x="153.75" y="75.044" fill="#A04957" width="7.5" height="7.5"/>
	<rect x="153.75" y="82.544" fill="#D88182" width="7.5" height="7.5"/>
	<rect x="161.25" y="82.544" fill="#D88182" width="7.5" height="7.5"/>
	<rect x="108.75" y="82.544" fill="#A04957" width="7.5" height="7.5"/>
	<rect x="116.25" y="82.544" fill="#A93225" width="7.5" height="7.5"/>
	<rect x="123.75" y="82.544" fill="#A04957" width="7.5" height="7.5"/>
	<rect x="131.25" y="82.544" fill="#A04957" width="7.5" height="7.5"/>
	<rect x="138.75" y="82.544" fill="#A04957" width="7.5" height="7.5"/>
	<rect x="116.25" y="75.044" fill="#A04957" width="7.5" height="7.5"/>
	<rect x="123.75" y="75.044" fill="#A04957" width="7.5" height="7.5"/>
	<rect x="131.25" y="75.044" fill="#D88182" width="7.5" height="7.5"/>
	<rect x="138.75" y="75.044" fill="#F26D36" width="7.5" height="7.5"/>
	<rect x="146.25" y="82.544" fill="#D88182" width="7.5" height="7.5"/>
	<rect x="146.25" y="97.529" fill="#691A31" width="7.5" height="7.5"/>
	<rect x="146.25" y="112.5" fill="#EEE1BF" width="7.5" height="7.5"/>
	<rect x="146.25" y="119.985" fill="#EEE1BF" width="7.5" height="7.5"/>
	<rect x="153.75" y="97.529" fill="#A04957" width="7.5" height="7.5"/>
	<rect x="161.25" y="97.529" fill="#A04957" width="7.5" height="7.5"/>
	<rect x="161.25" y="90.029" fill="#D88182" width="7.5" height="7.5"/>
	<rect x="168.75" y="90.029" fill="#D88182" width="7.5" height="7.5"/>
	<rect x="161.25" y="105.029" fill="#A93225" width="7.5" height="7.5"/>
	<rect x="168.75" y="105.029" fill="#A04957" width="7.5" height="7.5"/>
	<rect x="168.75" y="97.529" fill="#F26D36" width="7.5" height="7.5"/>
	<rect x="168.75" y="112.529" fill="#A93225" width="7.5" height="7.5"/>
	<rect x="168.75" y="119.985" fill="#A93225" width="7.5" height="7.5"/>
	<rect x="168.75" y="135" fill="#A04957" width="7.5" height="7.5"/>
	<rect x="168.75" y="127.5" fill="#A93225" width="7.5" height="7.5"/>
	<rect x="168.75" y="142.5" fill="#F26D36" width="7.5" height="7.5"/>
	<rect x="161.25" y="135" fill="#691A31" width="7.5" height="7.5"/>
	<rect x="161.25" y="127.5" fill="#691A31" width="7.5" height="7.5"/>
	<rect x="161.25" y="142.5" fill="#691A31" width="7.5" height="7.5"/>
	<rect x="168.75" y="149.956" fill="#691A31" width="7.5" height="7.5"/>
	<rect x="176.25" y="149.956" fill="#A04957" width="7.5" height="7.5"/>
	<rect x="161.25" y="149.956" fill="#D88182" width="7.5" height="7.5"/>
	<rect x="168.75" y="157.456" fill="#691A31" width="7.5" height="7.5"/>
	<rect x="176.25" y="157.456" fill="#A04957" width="7.5" height="7.5"/>
	<rect x="161.25" y="179.956" fill="#EF5446" width="7.5" height="7.5"/>
	<rect x="161.25" y="187.456" fill="#A04957" width="7.5" height="7.5"/>
	<rect x="161.25" y="194.956" fill="#691A31" width="7.5" height="7.5"/>
	<rect x="168.75" y="172.456" fill="#691A31" width="7.5" height="7.5"/>
	<rect x="176.25" y="164.956" fill="#691A31" width="7.5" height="7.5"/>
	<rect x="168.75" y="179.956" fill="#A04957" width="7.5" height="7.5"/>
	<rect x="176.25" y="172.456" fill="#691A31" width="7.5" height="7.5"/>
	<rect x="176.25" y="179.956" fill="#A04957" width="7.5" height="7.5"/>
	<rect x="183.75" y="172.456" fill="#EF5446" width="7.5" height="7.5"/>
	<rect x="183.75" y="179.956" fill="#A04957" width="7.5" height="7.5"/>
	<rect x="183.75" y="187.456" fill="#691A31" width="7.5" height="7.5"/>
	<rect x="176.25" y="187.456" fill="#EF5446" width="7.5" height="7.5"/>
	<rect x="168.75" y="187.456" fill="#A04957" width="7.5" height="7.5"/>
	<rect x="123.75" y="172.456" fill="#691A31" width="7.5" height="7.5"/>
	<rect x="123.75" y="179.956" fill="#691A31" width="7.5" height="7.5"/>
	<rect x="108.75" y="179.956" fill="#A04957" width="7.5" height="7.5"/>
	<rect x="116.25" y="172.456" fill="#691A31" width="7.5" height="7.5"/>
	<rect x="116.25" y="164.956" fill="#691A31" width="7.5" height="7.5"/>
	<rect x="116.25" y="179.956" fill="#C7293B" width="7.5" height="7.5"/>
	<rect x="116.25" y="187.456" fill="#C7293B" width="7.5" height="7.5"/>
	<rect x="123.75" y="187.456" fill="#C7293B" width="7.5" height="7.5"/>
	<rect x="116.25" y="194.956" fill="#C7293B" width="7.5" height="7.5"/>
	<rect x="161.25" y="157.456" fill="#A04957" width="7.5" height="7.5"/>
	<rect x="168.75" y="164.956" fill="#691A31" width="7.5" height="7.5"/>
	<rect x="161.25" y="164.956" fill="#691A31" width="7.5" height="7.5"/>
	<rect x="153.75" y="157.456" fill="#691A31" width="7.5" height="7.5"/>
	<rect x="153.75" y="164.956" fill="#A04957" width="7.5" height="7.5"/>
	<rect x="146.25" y="164.956" fill="#691A31" width="7.5" height="7.5"/>
	<rect x="161.25" y="172.456" fill="#691A31" width="7.5" height="7.5"/>
	<rect x="146.25" y="105.029" fill="#691A31" width="7.5" height="7.5"/>
	<rect x="153.75" y="105.029" fill="#691A31" width="7.5" height="7.5"/>
</g>
</svg>
