<?xml version="1.0" encoding="utf-8"?>
<!-- Generator: Adobe Illustrator 15.0.2, SVG Export Plug-In . SVG Version: 6.00 Build 0)  -->
<!DOCTYPE svg PUBLIC "-//W3C//DTD SVG 1.1//EN" "http://www.w3.org/Graphics/SVG/1.1/DTD/svg11.dtd">
<svg version="1.1" id="Layer_1" xmlns="http://www.w3.org/2000/svg" xmlns:xlink="http://www.w3.org/1999/xlink" x="0px" y="0px"
	 width="18px" height="26.977px" viewBox="0 0 18 26.977" enable-background="new 0 0 18 26.977" xml:space="preserve">
<g>
	<rect x="6" y="20.977" fill="#00A7C4" width="1.5" height="1.5"/>
	<rect x="7.5" y="20.977" fill="#00A7C4" width="1.5" height="1.5"/>
	<rect x="10.5" y="20.977" fill="#00A7C4" width="1.5" height="1.5"/>
	<rect x="10.5" y="19.479" fill="#00A7C4" width="1.5" height="1.5"/>
	<rect x="9" y="20.977" fill="#007A8F" width="1.5" height="1.5"/>
	<rect x="4.5" y="20.977" fill="#007A8F" width="1.5" height="1.5"/>
	<rect x="4.5" y="19.479" fill="#00A7C4" width="1.5" height="1.5"/>
	<rect x="3" y="20.977" fill="#603913" width="1.5" height="1.5"/>
	<rect x="12" y="20.977" fill="#603913" width="1.5" height="1.5"/>
	<rect x="12" y="19.479" fill="#603913" width="1.5" height="1.5"/>
	<rect x="13.5" y="20.977" fill="#603913" width="1.5" height="1.5"/>
	<rect x="6" y="22.477" fill="#007A8F" width="1.5" height="1.5"/>
	<rect x="7.5" y="22.477" fill="#00A7C4" width="1.5" height="1.5"/>
	<rect x="10.5" y="22.477" fill="#EADAB2" width="1.5" height="1.5"/>
	<rect x="9" y="22.477" fill="#00A7C4" width="1.5" height="1.5"/>
	<rect x="4.5" y="22.477" fill="#00A7C4" width="1.5" height="1.5"/>
	<rect x="3" y="22.477" fill="#3C2415" width="1.5" height="1.5"/>
	<rect x="3" y="20.977" fill="#3C2415" width="1.5" height="1.5"/>
	<rect x="1.5" y="22.477" fill="#603913" width="1.5" height="1.5"/>
	<rect x="12" y="22.477" fill="#603913" width="1.5" height="1.5"/>
	<rect x="13.5" y="22.477" fill="#603913" width="1.5" height="1.5"/>
	<rect x="15" y="22.477" fill="#603913" width="1.5" height="1.5"/>
	<rect x="16.5" y="22.477" fill="#603913" width="1.5" height="1.5"/>
	<rect x="6" y="23.977" fill="#EADAB2" width="1.5" height="1.5"/>
	<rect x="7.5" y="23.977" fill="#EADAB2" width="1.5" height="1.5"/>
	<rect x="10.5" y="23.977" fill="#FFFFFF" width="1.5" height="1.5"/>
	<rect x="9" y="23.977" fill="#EADAB2" width="1.5" height="1.5"/>
	<rect x="4.5" y="23.977" fill="#FFFFFF" width="1.5" height="1.5"/>
	<rect x="3" y="23.977" fill="#3C2415" width="1.5" height="1.5"/>
	<rect x="1.5" y="23.977" fill="#603913" width="1.5" height="1.5"/>
	<rect x="12" y="23.977" fill="#603913" width="1.5" height="1.5"/>
	<rect x="13.5" y="23.977" fill="#3C2415" width="1.5" height="1.5"/>
	<rect x="15" y="23.977" fill="#603913" width="1.5" height="1.5"/>
	<rect x="16.5" y="23.977" fill="#603913" width="1.5" height="1.5"/>
	<rect x="6" y="25.477" fill="#FFFFFF" width="1.5" height="1.5"/>
	<rect x="7.5" y="25.477" fill="#EADAB2" width="1.5" height="1.5"/>
	<rect x="10.5" y="25.477" fill="#FFFFFF" width="1.5" height="1.5"/>
	<rect x="9" y="25.477" fill="#FFFFFF" width="1.5" height="1.5"/>
	<rect x="4.5" y="25.477" fill="#FFFFFF" width="1.5" height="1.5"/>
	<rect x="3" y="25.477" fill="#3C2415" width="1.5" height="1.5"/>
	<rect x="1.5" y="25.477" fill="#603913" width="1.5" height="1.5"/>
	<rect y="23.977" fill="#603913" width="1.5" height="1.5"/>
	<rect y="25.477" fill="#603913" width="1.5" height="1.5"/>
	<rect x="12" y="25.477" fill="#603913" width="1.5" height="1.5"/>
	<rect x="13.5" y="25.477" fill="#3C2415" width="1.5" height="1.5"/>
	<rect x="15" y="25.477" fill="#603913" width="1.5" height="1.5"/>
	<rect x="16.5" y="25.477" fill="#603913" width="1.5" height="1.5"/>
	<rect x="3" y="3" fill="#D59E10" width="1.5" height="1.5"/>
	<rect x="4.5" y="3" fill="#EDCB8A" width="1.5" height="1.5"/>
	<rect x="6" y="3" fill="#FFFAD8" width="1.5" height="1.5"/>
	<rect x="7.5" y="3" fill="#FFFFFF" width="1.5" height="1.5"/>
	<rect x="9" y="3" fill="#FFFBD7" width="1.5" height="1.5"/>
	<rect x="3" y="4.5" fill="#EADAB2" width="1.5" height="1.5"/>
	<rect x="4.5" y="4.5" fill="#D59E10" width="1.5" height="1.5"/>
	<rect x="6" y="4.5" fill="#EDCB8A" width="1.5" height="1.5"/>
	<rect x="7.5" y="4.5" fill="#FFFAD8" width="1.5" height="1.5"/>
	<rect x="9" y="4.5" fill="#FFFFFF" width="1.5" height="1.5"/>
	<rect x="3" y="6" fill="#EADAB2" width="1.5" height="1.5"/>
	<rect x="3" y="7.494" fill="#EADAB2" width="1.5" height="1.5"/>
	<rect x="3" y="8.991" fill="#EADAB2" width="1.5" height="1.5"/>
	<rect x="1.5" y="10.494" fill="#EADAB2" width="1.5" height="1.5"/>
	<rect x="3" y="10.494" fill="#EADAB2" width="1.5" height="1.5"/>
	<rect x="3" y="11.991" fill="#EADAB2" width="1.5" height="1.5"/>
	<rect x="6" y="11.991" fill="#EADAB2" width="1.5" height="1.5"/>
	<rect x="4.5" y="11.991" fill="#EADAB2" width="1.5" height="1.5"/>
	<rect x="7.5" y="11.991" fill="#E8CD8D" width="1.5" height="1.5"/>
	<rect x="10.5" y="11.991" fill="#FFFAD8" width="1.5" height="1.5"/>
	<rect x="9" y="11.991" fill="#EADAB2" width="1.5" height="1.5"/>
	<rect x="6" y="13.488" fill="#FFFFFF" width="1.5" height="1.5"/>
	<rect x="4.5" y="13.488" fill="#FFFFFF" width="1.5" height="1.5"/>
	<rect x="7.5" y="13.488" fill="#FFFFFF" width="1.5" height="1.5"/>
	<rect x="9" y="13.488" fill="#C97D7A" width="1.5" height="1.5"/>
	<rect x="6" y="14.985" fill="#C97D7A" width="1.5" height="1.5"/>
	<rect x="4.5" y="14.985" fill="#C97D7A" width="1.5" height="1.5"/>
	<rect x="7.5" y="14.985" fill="#C97D7A" width="1.5" height="1.5"/>
	<rect x="9" y="14.985" fill="#EADAB2" width="1.5" height="1.5"/>
	<rect x="6" y="16.485" fill="#EADAB2" width="1.5" height="1.5"/>
	<rect x="4.5" y="16.485" fill="#EADAB2" width="1.5" height="1.5"/>
	<rect x="7.5" y="16.485" fill="#EADAB2" width="1.5" height="1.5"/>
	<rect x="6" y="17.985" fill="#E8CD8D" width="1.5" height="1.5"/>
	<rect x="7.5" y="17.985" fill="#E8CD8D" width="1.5" height="1.5"/>
	<rect x="9" y="17.985" fill="#FDF287" width="1.5" height="1.5"/>
	<rect x="6" y="19.479" fill="#E8CD8D" width="1.5" height="1.5"/>
	<rect x="7.5" y="19.479" fill="#E8CD8D" width="1.5" height="1.5"/>
	<rect x="9" y="19.479" fill="#E8CD8D" width="1.5" height="1.5"/>
	<rect x="9" y="16.485" fill="#EADAB2" width="1.5" height="1.5"/>
	<rect x="10.5" y="16.485" fill="#FDF287" width="1.5" height="1.5"/>
	<rect x="10.5" y="10.494" fill="#FDF287" width="1.5" height="1.5"/>
	<rect x="12" y="10.494" fill="#EDCB8A" width="1.5" height="1.5"/>
	<rect x="10.5" y="14.985" fill="#FFFFFF" width="1.5" height="1.5"/>
	<rect x="10.5" y="13.488" fill="#FDF287" width="1.5" height="1.5"/>
	<rect x="10.5" y="8.991" fill="#E8CD8D" width="1.5" height="1.5"/>
	<rect x="12" y="8.991" fill="#FFFAD8" width="1.5" height="1.5"/>
	<rect x="10.5" y="7.494" fill="#E8CD8D" width="1.5" height="1.5"/>
	<rect x="12" y="7.494" fill="#FFFFFF" width="1.5" height="1.5"/>
	<rect x="13.5" y="8.991" fill="#FFFAD8" width="1.5" height="1.5"/>
	<rect x="13.5" y="7.494" fill="#FFFFFF" width="1.5" height="1.5"/>
	<rect x="4.5" y="6" fill="#EADAB2" width="1.5" height="1.5"/>
	<rect x="6" y="6" fill="#EADAB2" width="1.5" height="1.5"/>
	<rect x="7.5" y="6" fill="#EADAB2" width="1.5" height="1.5"/>
	<rect x="9" y="6" fill="#EDCB8A" width="1.5" height="1.5"/>
	<rect x="4.5" y="7.494" fill="#EADAB2" width="1.5" height="1.5"/>
	<rect x="6" y="7.491" fill="#EADAB2" width="1.5" height="1.5"/>
	<rect x="7.5" y="7.494" fill="#EADAB2" width="1.5" height="1.5"/>
	<rect x="9" y="7.494" fill="#FDF287" width="1.5" height="1.5"/>
	<rect x="4.5" y="8.991" fill="#5A4A42" width="1.5" height="1.5"/>
	<rect x="6" y="8.991" fill="#FFFFFF" width="1.5" height="1.5"/>
	<rect x="7.5" y="8.991" fill="#EADAB2" width="1.5" height="1.5"/>
	<rect x="9" y="8.991" fill="#FDF287" width="1.5" height="1.5"/>
	<rect x="4.5" y="10.491" fill="#EADAB2" width="1.5" height="1.5"/>
	<rect x="6" y="10.491" fill="#EADAB2" width="1.5" height="1.5"/>
	<rect x="7.5" y="10.491" fill="#EADAB2" width="1.5" height="1.5"/>
	<rect x="9" y="10.491" fill="#FFFAD8" width="1.5" height="1.5"/>
	<rect x="10.5" y="3" fill="#EDCB8A" width="1.5" height="1.5"/>
	<rect x="12" y="3" fill="#FFFAD8" width="1.5" height="1.5"/>
	<rect x="12" y="1.503" fill="#FDF287" width="1.5" height="1.5"/>
	<rect x="13.5" y="1.503" fill="#FFFAD8" width="1.5" height="1.5"/>
	<rect x="3" y="1.503" fill="#EDCB8A" width="1.5" height="1.5"/>
	<rect x="4.5" y="1.503" fill="#FFFAD8" width="1.5" height="1.5"/>
	<rect x="6" y="1.503" fill="#FFFFFF" width="1.5" height="1.5"/>
	<rect x="7.5" y="1.503" fill="#FFFBD7" width="1.5" height="1.5"/>
	<rect x="9" y="1.503" fill="#FFFEF0" width="1.5" height="1.5"/>
	<rect x="4.5" y="0.003" fill="#FDF287" width="1.5" height="1.5"/>
	<rect x="6" y="0.003" fill="#FFFAD8" width="1.5" height="1.5"/>
	<rect x="7.5" y="0.003" fill="#FFFEF0" width="1.5" height="1.5"/>
	<rect x="9" y="0.003" fill="#FFFAD8" width="1.5" height="1.5"/>
	<rect x="10.5" y="1.503" fill="#FFFAD8" width="1.5" height="1.5"/>
	<rect x="10.5" fill="#FDF287" width="1.5" height="1.5"/>
	<rect x="12" fill="#FFFAD8" width="1.5" height="1.5"/>
	<rect x="10.5" y="4.5" fill="#FFFAD8" width="1.5" height="1.5"/>
	<rect x="10.5" y="7.494" fill="#EDCB8A" width="1.5" height="1.5"/>
	<rect x="10.5" y="8.991" fill="#FFFAD8" width="1.5" height="1.5"/>
	<rect x="12" y="4.5" fill="#FFFBD7" width="1.5" height="1.5"/>
	<rect x="13.5" y="4.5" fill="#FDF287" width="1.5" height="1.5"/>
	<rect x="13.5" y="3" fill="#FDF287" width="1.5" height="1.5"/>
	<rect x="15" y="3" fill="#FFFAD8" width="1.5" height="1.5"/>
	<rect x="13.5" y="6" fill="#FFFAD8" width="1.5" height="1.5"/>
	<rect x="15" y="6" fill="#FDF287" width="1.5" height="1.5"/>
	<rect x="15" y="4.5" fill="#FFFAD8" width="1.5" height="1.5"/>
	<rect x="15" y="7.5" fill="#FFFAD8" width="1.5" height="1.5"/>
	<rect x="15" y="8.991" fill="#FFFAD8" width="1.5" height="1.5"/>
	<rect x="15" y="11.994" fill="#FFFFFF" width="1.5" height="1.5"/>
	<rect x="15" y="13.494" fill="#FFFAD8" width="1.5" height="1.5"/>
	<rect x="13.5" y="11.994" fill="#FDF287" width="1.5" height="1.5"/>
	<rect x="13.5" y="10.494" fill="#FDF287" width="1.5" height="1.5"/>
	<rect x="12" y="13.494" fill="#FFFFFF" width="1.5" height="1.5"/>
	<rect x="12" y="14.985" fill="#FDF287" width="1.5" height="1.5"/>
	<rect x="12" y="16.485" fill="#FFFAD8" width="1.5" height="1.5"/>
	<rect x="12" y="17.985" fill="#FDF287" width="1.5" height="1.5"/>
	<rect x="12" y="11.994" fill="#FFFFFF" width="1.5" height="1.5"/>
	<rect x="15" y="10.494" fill="#FFFAD8" width="1.5" height="1.5"/>
	<rect x="13.5" y="13.494" fill="#FFFBD7" width="1.5" height="1.5"/>
	<rect x="15" y="14.985" fill="#EDCB8A" width="1.5" height="1.5"/>
	<rect x="16.5" y="13.494" fill="#FDF287" width="1.5" height="1.5"/>
	<rect x="16.5" y="10.494" fill="#FDF287" width="1.5" height="1.5"/>
	<rect x="16.5" y="7.5" fill="#FDF287" width="1.5" height="1.5"/>
	<rect x="16.5" y="9" fill="#FFFAD8" width="1.5" height="1.5"/>
	<rect x="13.5" y="14.985" fill="#FFFAD8" width="1.5" height="1.5"/>
	<rect x="15" y="16.485" fill="#FFFAD8" width="1.5" height="1.5"/>
	<rect x="16.5" y="11.987" fill="#FFFAD8" width="1.5" height="1.5"/>
	<rect x="16.5" y="5.997" fill="#FFFAD8" width="1.5" height="1.5"/>
	<rect x="13.5" y="16.485" fill="#FDF287" width="1.5" height="1.5"/>
	<rect x="10.5" y="6" fill="#FFFFFF" width="1.5" height="1.5"/>
	<rect x="12" y="6" fill="#FDF287" width="1.5" height="1.5"/>
</g>
</svg>
