<?xml version="1.0" encoding="utf-8"?>
<!-- Generator: Adobe Illustrator 16.0.0, SVG Export Plug-In . SVG Version: 6.00 Build 0)  -->
<!DOCTYPE svg PUBLIC "-//W3C//DTD SVG 1.1//EN" "http://www.w3.org/Graphics/SVG/1.1/DTD/svg11.dtd">
<svg version="1.1" id="Layer_1" xmlns="http://www.w3.org/2000/svg" xmlns:xlink="http://www.w3.org/1999/xlink" x="0px" y="0px"
	 width="300px" height="300px" viewBox="0 0 300 300" enable-background="new 0 0 300 300" xml:space="preserve">
<g>
	<rect x="129" y="90.066" fill="#D7BFAA" width="6" height="6"/>
	<rect x="135" y="90.066" fill="#D7BFAA" width="6" height="6"/>
	<rect x="141" y="90.066" fill="#D7BFAA" width="6" height="6"/>
	<rect x="147" y="90.066" fill="#D7BFAA" width="6" height="6"/>
	<rect x="123" y="102.059" fill="#F7E0CF" width="6" height="6"/>
	<rect x="129" y="102.059" fill="#EFD1B8" width="6" height="6"/>
	<rect x="135" y="102.059" fill="#EFD1B8" width="6" height="6"/>
	<rect x="141" y="102.059" fill="#EFD1B8" width="6" height="6"/>
	<rect x="147" y="102.059" fill="#EFD1B8" width="6" height="6"/>
	<rect x="153" y="102.059" fill="#F7E0CF" width="6" height="6"/>
	<rect x="123" y="108.059" fill="#F7E0CF" width="6" height="6"/>
	<rect x="129" y="108.059" fill="#F7E0CF" width="6" height="6"/>
	<rect x="135" y="108.059" fill="#EFD1B8" width="6" height="6"/>
	<rect x="141" y="108.059" fill="#EFD1B8" width="6" height="6"/>
	<rect x="147" y="108.059" fill="#EFD1B8" width="6" height="6"/>
	<rect x="153" y="108.059" fill="#EFD1B8" width="6" height="6"/>
	<rect x="123" y="114.059" fill="#F7E0CF" width="6" height="6"/>
	<rect x="129" y="114.059" fill="#EFD1B8" width="6" height="6"/>
	<rect x="123" y="120.035" fill="#F7E0CF" width="6" height="6"/>
	<rect x="129" y="120.035" fill="#F7E0CF" width="6" height="6"/>
	<rect x="123" y="131.996" fill="#231F20" width="6" height="6"/>
	<rect x="129" y="131.996" fill="#7F95A5" width="6" height="6"/>
	<rect x="123" y="138.004" fill="#EFD1B8" width="6" height="6"/>
	<rect x="129" y="138.004" fill="#231F20" width="6" height="6"/>
	<rect x="123" y="143.996" fill="#AD8D75" width="6" height="6"/>
	<rect x="117" y="138.004" fill="#EFD1B8" width="6" height="6"/>
	<rect x="111" y="138.004" fill="#F7E0CF" width="6" height="6"/>
	<rect x="117" y="131.996" fill="#EFD1B8" width="6" height="6"/>
	<rect x="129" y="143.996" fill="#AD8D75" width="6" height="6"/>
	<rect x="141" y="143.996" fill="#C2B59B" width="6" height="6"/>
	<rect x="135" y="143.996" fill="#AD8D75" width="6" height="6"/>
	<rect x="147" y="143.996" fill="#F7E0CF" width="6" height="6"/>
	<rect x="159" y="143.996" fill="#D7BFAA" width="6" height="6"/>
	<rect x="153" y="143.996" fill="#EFD1B8" width="6" height="6"/>
	<rect x="141" y="149.98" fill="#FFFFFF" width="6" height="6"/>
	<rect x="135" y="149.98" fill="#FFFFFF" width="6" height="6"/>
	<rect x="147" y="149.98" fill="#FFFFFF" width="6" height="6"/>
	<rect x="153" y="149.98" fill="#D28F8C" width="6" height="6"/>
	<rect x="141" y="155.973" fill="#D28F8C" width="6" height="6"/>
	<rect x="135" y="155.973" fill="#D28F8C" width="6" height="6"/>
	<rect x="147" y="155.973" fill="#D28F8C" width="6" height="6"/>
	<rect x="153" y="155.973" fill="#D7BFAA" width="6" height="6"/>
	<rect x="141" y="161.973" fill="#AD8D75" width="6" height="6"/>
	<rect x="135" y="161.973" fill="#726658" width="6" height="6"/>
	<rect x="147" y="161.973" fill="#C2B59B" width="6" height="6"/>
	<rect x="141" y="173.934" fill="#D7BFAA" width="6" height="6"/>
	<rect x="147" y="173.934" fill="#D7BFAA" width="6" height="6"/>
	<rect x="141" y="179.934" fill="#EFD1B8" width="6" height="6"/>
	<rect x="147" y="179.934" fill="#EFD1B8" width="6" height="6"/>
	<rect x="153" y="173.934" fill="#EFD1B8" width="6" height="6"/>
	<rect x="141" y="167.973" fill="#BAA993" width="6" height="6"/>
	<rect x="147" y="167.973" fill="#BAA993" width="6" height="6"/>
	<rect x="153" y="167.973" fill="#EFD1B8" width="6" height="6"/>
	<rect x="153" y="161.973" fill="#D7BFAA" width="6" height="6"/>
	<rect x="159" y="161.973" fill="#EFD1B8" width="6" height="6"/>
	<rect x="159" y="179.934" fill="#231F20" width="6" height="6"/>
	<rect x="153" y="179.934" fill="#EFD1B8" width="6" height="6"/>
	<rect x="135" y="179.934" fill="#231F20" width="6" height="6"/>
	<rect x="159" y="173.934" fill="#231F20" width="6" height="6"/>
	<rect x="135" y="173.934" fill="#231F20" width="6" height="6"/>
	<rect x="129" y="179.934" fill="#D36368" width="6" height="6"/>
	<rect x="165" y="179.934" fill="#D36368" width="6" height="6"/>
	<rect x="171" y="179.934" fill="#D36368" width="6" height="6"/>
	<rect x="177" y="179.934" fill="#D36368" width="6" height="6"/>
	<rect x="141" y="191.934" fill="#D36368" width="6" height="6"/>
	<rect x="147" y="191.934" fill="#D36368" width="6" height="6"/>
	<rect x="159" y="191.934" fill="#231F20" width="6" height="6"/>
	<rect x="153" y="191.934" fill="#D36368" width="6" height="6"/>
	<rect x="135" y="191.934" fill="#231F20" width="6" height="6"/>
	<rect x="129" y="191.934" fill="#231F20" width="6" height="6"/>
	<rect x="123" y="191.934" fill="#D36368" width="6" height="6"/>
	<rect x="165" y="191.934" fill="#231F20" width="6" height="6"/>
	<rect x="171" y="191.934" fill="#D36368" width="6" height="6"/>
	<rect x="177" y="191.934" fill="#D36368" width="6" height="6"/>
	<rect x="183" y="191.934" fill="#D36368" width="6" height="6"/>
	<rect x="141" y="203.934" fill="#D36368" width="6" height="6"/>
	<rect x="147" y="203.934" fill="#D36368" width="6" height="6"/>
	<rect x="159" y="203.934" fill="#D36368" width="6" height="6"/>
	<rect x="153" y="203.934" fill="#F7941E" width="6" height="6"/>
	<rect x="135" y="203.934" fill="#F7941E" width="6" height="6"/>
	<rect x="129" y="203.934" fill="#913844" width="6" height="6"/>
	<rect x="123" y="203.934" fill="#D36368" width="6" height="6"/>
	<rect x="165" y="203.934" fill="#D36368" width="6" height="6"/>
	<rect x="171" y="203.934" fill="#913844" width="6" height="6"/>
	<rect x="177" y="203.934" fill="#D36368" width="6" height="6"/>
	<rect x="183" y="203.934" fill="#D36368" width="6" height="6"/>
	<rect x="141" y="185.934" fill="#AD6A6D" width="6" height="6"/>
	<rect x="147" y="185.934" fill="#AD6A6D" width="6" height="6"/>
	<rect x="159" y="185.934" fill="#231F20" width="6" height="6"/>
	<rect x="153" y="185.934" fill="#AD6A6D" width="6" height="6"/>
	<rect x="135" y="185.934" fill="#231F20" width="6" height="6"/>
	<rect x="129" y="185.934" fill="#231F20" width="6" height="6"/>
	<rect x="123" y="185.934" fill="#D36368" width="6" height="6"/>
	<rect x="165" y="185.934" fill="#231F20" width="6" height="6"/>
	<rect x="171" y="185.934" fill="#D36368" width="6" height="6"/>
	<rect x="177" y="185.934" fill="#D36368" width="6" height="6"/>
	<rect x="183" y="185.934" fill="#D36368" width="6" height="6"/>
	<rect x="141" y="197.934" fill="#F7941E" width="6" height="6"/>
	<rect x="147" y="197.934" fill="#D36368" width="6" height="6"/>
	<rect x="159" y="197.934" fill="#231F20" width="6" height="6"/>
	<rect x="153" y="197.934" fill="#F7941E" width="6" height="6"/>
	<rect x="135" y="197.934" fill="#231F20" width="6" height="6"/>
	<rect x="129" y="197.934" fill="#D36368" width="6" height="6"/>
	<rect x="123" y="197.934" fill="#D36368" width="6" height="6"/>
	<rect x="165" y="197.934" fill="#F7941E" width="6" height="6"/>
	<rect x="171" y="197.934" fill="#913844" width="6" height="6"/>
	<rect x="177" y="197.934" fill="#D36368" width="6" height="6"/>
	<rect x="183" y="197.934" fill="#D36368" width="6" height="6"/>
	<rect x="165" y="143.996" fill="#414042" width="6" height="6"/>
	<rect x="159" y="138.004" fill="#D7BFAA" width="6" height="6"/>
	<rect x="165" y="138.004" fill="#EFD1B8" width="6" height="6"/>
	<rect x="159" y="155.973" fill="#D7BFAA" width="6" height="6"/>
	<rect x="165" y="155.973" fill="#EFD1B8" width="6" height="6"/>
	<rect x="159" y="149.98" fill="#D7BFAA" width="6" height="6"/>
	<rect x="165" y="149.98" fill="#EFD1B8" width="6" height="6"/>
	<rect x="159" y="131.996" fill="#D7BFAA" width="6" height="6"/>
	<rect x="165" y="131.996" fill="#EFD1B8" width="6" height="6"/>
	<rect x="159" y="120.035" fill="#BAA993" width="6" height="6"/>
	<rect x="165" y="120.035" fill="#BAA993" width="6" height="6"/>
	<rect x="171" y="131.996" fill="#EFD1B8" width="6" height="6"/>
	<rect x="171" y="126.004" fill="#F7E0CF" width="6" height="6"/>
	<rect x="135" y="114.059" fill="#EFD1B8" width="6" height="6"/>
	<rect x="141" y="114.059" fill="#EFD1B8" width="6" height="6"/>
	<rect x="147" y="114.059" fill="#EFD1B8" width="6" height="6"/>
	<rect x="153" y="114.059" fill="#EFD1B8" width="6" height="6"/>
	<rect x="135" y="120.035" fill="#F7E0CF" width="6" height="6"/>
	<rect x="141" y="120.035" fill="#EFD1B8" width="6" height="6"/>
	<rect x="147" y="120.035" fill="#EFD1B8" width="6" height="6"/>
	<rect x="153" y="120.035" fill="#EFD1B8" width="6" height="6"/>
	<rect x="123" y="126.004" fill="#913844" width="6" height="6"/>
	<rect x="129" y="126.004" fill="#231F20" width="6" height="6"/>
	<rect x="159" y="126.004" fill="#3C2415" width="6" height="6"/>
	<rect x="165" y="126.004" fill="#6D808E" width="6" height="6"/>
	<rect x="135" y="126.004" fill="#879260" width="6" height="6"/>
	<rect x="141" y="126.004" fill="#231F20" width="6" height="6"/>
	<rect x="147" y="126.004" fill="#D7E4EB" width="6" height="6"/>
	<rect x="153" y="126.004" fill="#231F20" width="6" height="6"/>
	<rect x="135" y="131.996" fill="#FFFFFF" width="6" height="6"/>
	<rect x="141" y="131.996" fill="#EFD1B8" width="6" height="6"/>
	<rect x="147" y="131.996" fill="#3C2415" width="6" height="6"/>
	<rect x="153" y="131.996" fill="#EFD1B8" width="6" height="6"/>
	<rect x="135" y="137.996" fill="#3C2415" width="6" height="6"/>
	<rect x="141" y="137.996" fill="#6D808E" width="6" height="6"/>
	<rect x="147" y="137.996" fill="#EFD1B8" width="6" height="6"/>
	<rect x="153" y="137.996" fill="#EFD1B8" width="6" height="6"/>
	<rect x="159" y="102.059" fill="#D7BFAA" width="6" height="6"/>
	<rect x="165" y="102.059" fill="#D7BFAA" width="6" height="6"/>
	<rect x="123" y="96.066" fill="#EFD1B8" width="6" height="6"/>
	<rect x="129" y="96.066" fill="#EFD1B8" width="6" height="6"/>
	<rect x="135" y="96.066" fill="#EFD1B8" width="6" height="6"/>
	<rect x="141" y="96.066" fill="#EFD1B8" width="6" height="6"/>
	<rect x="147" y="96.066" fill="#F7E0CF" width="6" height="6"/>
	<rect x="153" y="96.066" fill="#D7BFAA" width="6" height="6"/>
	<rect x="159" y="96.066" fill="#D7BFAA" width="6" height="6"/>
	<rect x="153" y="90.066" fill="#D7BFAA" width="6" height="6"/>
	<rect x="159" y="108.059" fill="#D7BFAA" width="6" height="6"/>
	<rect x="165" y="108.059" fill="#BAA993" width="6" height="6"/>
	<rect x="159" y="114.059" fill="#D7BFAA" width="6" height="6"/>
	<rect x="165" y="114.059" fill="#BAA993" width="6" height="6"/>
	<rect x="171" y="138.004" fill="#EFD1B8" width="6" height="6"/>
	<rect x="177" y="126.004" fill="#F7E0CF" width="6" height="6"/>
	<rect x="177" y="131.996" fill="#EFD1B8" width="6" height="6"/>
</g>
</svg>
