<?xml version="1.0" encoding="utf-8"?>
<!-- Generator: Adobe Illustrator 16.0.0, SVG Export Plug-In . SVG Version: 6.00 Build 0)  -->
<!DOCTYPE svg PUBLIC "-//W3C//DTD SVG 1.1//EN" "http://www.w3.org/Graphics/SVG/1.1/DTD/svg11.dtd">
<svg version="1.1" id="Layer_1" xmlns="http://www.w3.org/2000/svg" xmlns:xlink="http://www.w3.org/1999/xlink" x="0px" y="0px"
	 width="300px" height="300px" viewBox="0 0 300 300" enable-background="new 0 0 300 300" xml:space="preserve">
<g>
	<rect x="135" y="191.963" fill="#EEE1BF" width="6" height="6"/>
	<rect x="141" y="191.963" fill="#D5CBAD" width="6" height="6"/>
	<rect x="153" y="191.963" fill="#2F292B" width="6" height="6"/>
	<rect x="147" y="191.963" fill="#EEE1BF" width="6" height="6"/>
	<rect x="129" y="191.963" fill="#F8CF0A" width="6" height="6"/>
	<rect x="123" y="191.963" fill="#2F292B" width="6" height="6"/>
	<rect x="117" y="191.963" fill="#F8F0BD" width="6" height="6"/>
	<rect x="159" y="191.963" fill="#2F292B" width="6" height="6"/>
	<rect x="165" y="191.963" fill="#2F292B" width="6" height="6"/>
	<rect x="177" y="191.963" fill="#EEE1BF" width="6" height="6"/>
	<rect x="183" y="191.963" fill="#EEE1BF" width="6" height="6"/>
	<rect x="135" y="203.963" fill="#F8F0BD" width="6" height="6"/>
	<rect x="141" y="203.963" fill="#F8CF0A" width="6" height="6"/>
	<rect x="153" y="203.963" fill="#F8F0BD" width="6" height="6"/>
	<rect x="147" y="203.963" fill="#DDB64F" width="6" height="6"/>
	<rect x="129" y="203.963" fill="#F8F0BD" width="6" height="6"/>
	<rect x="123" y="203.963" fill="#F8F0BD" width="6" height="6"/>
	<rect x="117" y="203.963" fill="#E0D193" width="6" height="6"/>
	<rect x="159" y="203.963" fill="#F8F0BD" width="6" height="6"/>
	<rect x="165" y="203.963" fill="#2F292B" width="6" height="6"/>
	<rect x="177" y="203.963" fill="#F8F0BD" width="6" height="6"/>
	<rect x="183" y="203.963" fill="#E0D193" width="6" height="6"/>
	<rect x="135" y="185.963" fill="#EEE1BF" width="6" height="6"/>
	<rect x="141" y="185.963" fill="#EEE1BF" width="6" height="6"/>
	<rect x="153" y="185.963" fill="#525255" width="6" height="6"/>
	<rect x="147" y="185.967" fill="#EEE1BF" width="6" height="6"/>
	<rect x="141" y="179.963" fill="#EEE1BF" width="6" height="6"/>
	<rect x="147" y="179.768" fill="#525255" width="6" height="6"/>
	<rect x="129" y="185.963" fill="#EEE1BF" width="6" height="6"/>
	<rect x="117" y="185.963" fill="#DBAC27" width="6" height="6"/>
	<rect x="159" y="185.963" fill="#42607E" width="6" height="6"/>
	<rect x="165" y="185.963" fill="#2F292B" width="6" height="6"/>
	<rect x="177" y="185.963" fill="#EEE1BF" width="6" height="6"/>
	<rect x="183" y="185.963" fill="#FCFADF" width="6" height="6"/>
	<rect x="117" y="180.018" fill="#F8CF0A" width="6" height="6"/>
	<rect x="135" y="197.963" fill="#DDB64F" width="6" height="6"/>
	<rect x="141" y="197.963" fill="#F8F0BD" width="6" height="6"/>
	<rect x="153" y="197.963" fill="#F8CF0A" width="6" height="6"/>
	<rect x="147" y="197.963" fill="#F8F0BD" width="6" height="6"/>
	<rect x="129" y="197.963" fill="#F8F0BD" width="6" height="6"/>
	<rect x="123" y="197.963" fill="#F8F0BD" width="6" height="6"/>
	<rect x="117" y="197.963" fill="#F8F0BD" width="6" height="6"/>
	<rect x="111" y="191.963" fill="#F8F0BD" width="6" height="6"/>
	<rect x="111" y="203.963" fill="#F8F0BD" width="6" height="6"/>
	<rect x="111" y="185.963" fill="#F8F0BD" width="6" height="6"/>
	<rect x="111" y="197.963" fill="#F8F0BD" width="6" height="6"/>
	<rect x="159" y="197.963" fill="#2F292B" width="6" height="6"/>
	<rect x="165" y="197.963" fill="#2F292B" width="6" height="6"/>
	<rect x="177" y="197.963" fill="#E0D193" width="6" height="6"/>
	<rect x="183" y="197.963" fill="#EEE1BF" width="6" height="6"/>
	<rect x="111" y="102.021" fill="#2F292B" width="6" height="6"/>
	<rect x="111" y="108.021" fill="#2F292B" width="6" height="6"/>
	<rect x="117" y="102.021" fill="#2F292B" width="6" height="6"/>
	<rect x="123" y="102.021" fill="#2F292B" width="6" height="6"/>
	<rect x="129" y="102.021" fill="#2F292B" width="6" height="6"/>
	<rect x="135" y="102.021" fill="#2F292B" width="6" height="6"/>
	<rect x="141" y="102.021" fill="#2F292B" width="6" height="6"/>
	<rect x="117" y="108.021" fill="#EEE1BF" width="6" height="6"/>
	<rect x="123" y="108.021" fill="#525255" width="6" height="6"/>
	<rect x="129" y="108.021" fill="#525255" width="6" height="6"/>
	<rect x="135" y="108.021" fill="#2F292B" width="6" height="6"/>
	<rect x="141" y="108.021" fill="#2F292B" width="6" height="6"/>
	<rect x="117" y="114.021" fill="#EEE1BF" width="6" height="6"/>
	<rect x="117" y="119.998" fill="#EEE1BF" width="6" height="6"/>
	<rect x="117" y="125.99" fill="#EEE1BF" width="6" height="6"/>
	<rect x="111" y="131.998" fill="#EEE1BF" width="6" height="6"/>
	<rect x="117" y="131.998" fill="#EEE1BF" width="6" height="6"/>
	<rect x="117" y="137.99" fill="#EEE1BF" width="6" height="6"/>
	<rect x="129" y="137.99" fill="#EEE1BF" width="6" height="6"/>
	<rect x="123" y="137.99" fill="#EEE1BF" width="6" height="6"/>
	<rect x="135" y="137.99" fill="#EFCFC0" width="6" height="6"/>
	<rect x="147" y="137.99" fill="#525255" width="6" height="6"/>
	<rect x="141" y="137.99" fill="#EFCFC0" width="6" height="6"/>
	<rect x="129" y="143.975" fill="#FFFFFF" width="6" height="6"/>
	<rect x="123" y="143.975" fill="#FFFFFF" width="6" height="6"/>
	<rect x="135" y="143.975" fill="#FFFFFF" width="6" height="6"/>
	<rect x="141" y="143.975" fill="#EEE1BF" width="6" height="6"/>
	<rect x="129" y="149.967" fill="#C62C3D" width="6" height="5.996"/>
	<rect x="123" y="149.967" fill="#C62C3D" width="6" height="5.996"/>
	<rect x="135" y="149.967" fill="#D28F8C" width="6" height="5.996"/>
	<rect x="141" y="149.967" fill="#EEE1BF" width="6" height="5.996"/>
	<rect x="129" y="155.963" fill="#EEE1BF" width="6" height="6"/>
	<rect x="123" y="155.963" fill="#EEE1BF" width="6" height="6"/>
	<rect x="135" y="155.963" fill="#EEE1BF" width="6" height="6"/>
	<rect x="129" y="161.963" fill="#EEE1BF" width="6" height="6"/>
	<rect x="135" y="161.963" fill="#EEE1BF" width="6" height="6"/>
	<rect x="135" y="167.963" fill="#FCFADF" width="6" height="6"/>
	<rect x="141" y="161.963" fill="#D5CBAD" width="6" height="6"/>
	<rect x="141" y="155.963" fill="#EEE1BF" width="6" height="6"/>
	<rect x="147" y="155.963" fill="#EEE1BF" width="6" height="6"/>
	<rect x="141" y="167.963" fill="#FFFFFF" width="6" height="6"/>
	<rect x="153" y="167.963" fill="#525255" width="6" height="6"/>
	<rect x="147" y="167.963" fill="#2F292B" width="6" height="6"/>
	<rect x="141" y="167.963" fill="#EEE1BF" width="6" height="6"/>
	<rect x="141" y="173.963" fill="#EEE1BF" width="6" height="6"/>
	<rect x="147" y="173.963" fill="#2F292B" width="6" height="6"/>
	<rect x="159" y="167.963" fill="#2F292B" width="6" height="6"/>
	<rect x="135" y="173.963" fill="#EEE1BF" width="6" height="6"/>
	<rect x="153" y="173.963" fill="#2F292B" width="6" height="6"/>
	<rect x="153" y="179.963" fill="#2F292B" width="6" height="6"/>
	<rect x="135" y="179.963" fill="#EEE1BF" width="6" height="6"/>
	<rect x="153" y="137.99" fill="#2F292B" width="6" height="6"/>
	<rect x="147" y="131.998" fill="#6C6D70" width="6" height="6"/>
	<rect x="153" y="131.998" fill="#525255" width="6" height="6"/>
	<rect x="147" y="149.967" fill="#EEE1BF" width="6" height="5.996"/>
	<rect x="153" y="149.967" fill="#2F292B" width="6" height="5.996"/>
	<rect x="147" y="143.975" fill="#2F292B" width="6" height="6"/>
	<rect x="153" y="143.975" fill="#525255" width="6" height="6"/>
	<rect x="147" y="125.99" fill="#EEE1BF" width="6" height="6"/>
	<rect x="153" y="125.99" fill="#2F292B" width="6" height="6"/>
	<rect x="147" y="119.998" fill="#EEE1BF" width="6" height="6"/>
	<rect x="153" y="119.998" fill="#2F292B" width="6" height="6"/>
	<rect x="159" y="125.99" fill="#2F292B" width="6" height="6"/>
	<rect x="159" y="119.998" fill="#2F292B" width="6" height="6"/>
	<rect x="123" y="114.014" fill="#EEE1BF" width="6" height="6"/>
	<rect x="129" y="114.014" fill="#EEE1BF" width="6" height="6"/>
	<rect x="135" y="113.998" fill="#525255" width="6" height="6"/>
	<rect x="141" y="114.021" fill="#2F292B" width="6" height="6"/>
	<rect x="123" y="119.998" fill="#515253" width="6" height="6"/>
	<rect x="129" y="119.998" fill="#515253" width="6" height="6"/>
	<rect x="135" y="119.99" fill="#EEE1BF" width="6" height="6"/>
	<rect x="141" y="119.975" fill="#6C6D70" width="6" height="6"/>
	<rect x="123" y="125.99" fill="#8D9C8E" width="6" height="6"/>
	<rect x="129" y="125.99" fill="#FFFFFF" width="6" height="6"/>
	<rect x="123" y="131.99" fill="#EEE1BF" width="6" height="6"/>
	<rect x="129" y="131.99" fill="#EEE1BF" width="6" height="6"/>
	<rect x="135" y="125.99" fill="#FCFADF" width="6" height="6"/>
	<rect x="141" y="125.99" fill="#EEE1BF" width="6" height="6"/>
	<rect x="135" y="131.99" fill="#EFCFC0" width="6" height="6"/>
	<rect x="141" y="131.99" fill="#EFCFC0" width="6" height="6"/>
	<rect x="147" y="102.021" fill="#525255" width="6" height="6"/>
	<rect x="153" y="102.021" fill="#2F292B" width="6" height="6"/>
	<rect x="147" y="90.037" fill="#2F292B" width="6" height="6"/>
	<rect x="153" y="90.037" fill="#2F292B" width="6" height="6"/>
	<rect x="153" y="96.037" fill="#2F292B" width="6" height="6"/>
	<rect x="159" y="96.037" fill="#2F292B" width="6" height="6"/>
	<rect x="117" y="96.037" fill="#2F292B" width="6" height="6"/>
	<rect x="123" y="96.037" fill="#2F292B" width="6" height="6"/>
	<rect x="129" y="96.037" fill="#2F292B" width="6" height="6"/>
	<rect x="135" y="96.037" fill="#525255" width="6" height="6"/>
	<rect x="141" y="96.037" fill="#525255" width="6" height="6"/>
	<rect x="123" y="90.037" fill="#2F292B" width="6" height="6"/>
	<rect x="129" y="90.037" fill="#2F292B" width="6" height="6"/>
	<rect x="135" y="90.037" fill="#2F292B" width="6" height="6"/>
	<rect x="141" y="90.037" fill="#2F292B" width="6" height="6"/>
	<rect x="147" y="96.037" fill="#2F292B" width="6" height="6"/>
	<rect x="147" y="108.021" fill="#2F292B" width="6" height="6"/>
	<rect x="147" y="119.998" fill="#2F292B" width="6" height="6"/>
	<rect x="147" y="125.99" fill="#6C6D70" width="6" height="6"/>
	<rect x="153" y="108.021" fill="#525255" width="6" height="6"/>
	<rect x="159" y="108.021" fill="#2F292B" width="6" height="6"/>
	<rect x="159" y="102.021" fill="#2F292B" width="6" height="6"/>
	<rect x="165" y="102.021" fill="#2F292B" width="6" height="6"/>
	<rect x="159" y="114.021" fill="#2F292B" width="6" height="6"/>
	<rect x="165" y="114.021" fill="#2F292B" width="6" height="6"/>
	<rect x="165" y="108.021" fill="#2F292B" width="6" height="6"/>
	<rect x="165" y="120.021" fill="#2F292B" width="6" height="6"/>
	<rect x="165" y="125.99" fill="#2F292B" width="6" height="6"/>
	<rect x="165" y="137.998" fill="#525255" width="6" height="6"/>
	<rect x="165" y="131.998" fill="#2F292B" width="6" height="6"/>
	<rect x="165" y="143.998" fill="#2F292B" width="6" height="6"/>
	<rect x="171" y="120.021" fill="#2F292B" width="6" height="6"/>
	<rect x="171" y="114.061" fill="#2F292B" width="6" height="6"/>
	<rect x="171" y="108.025" fill="#2F292B" width="6" height="6"/>
	<rect x="171" y="131.998" fill="#2F292B" width="6" height="6"/>
	<rect x="171" y="137.998" fill="#2F292B" width="6" height="6"/>
	<rect x="171" y="143.998" fill="#2F292B" width="6" height="6"/>
	<rect x="159" y="137.998" fill="#2F292B" width="6" height="6"/>
	<rect x="159" y="131.998" fill="#525255" width="6" height="6"/>
	<rect x="159" y="143.998" fill="#2F292B" width="6" height="6"/>
	<rect x="165" y="149.967" fill="#2F292B" width="6" height="5.996"/>
	<rect x="171" y="149.967" fill="#2F292B" width="6" height="5.996"/>
	<rect x="159" y="149.967" fill="#525255" width="6" height="5.996"/>
	<rect x="165" y="155.963" fill="#525255" width="6" height="6"/>
	<rect x="171" y="155.963" fill="#2F292B" width="6" height="6"/>
	<rect x="159" y="173.963" fill="#525255" width="6" height="6"/>
	<rect x="159" y="179.963" fill="#2F292B" width="6" height="6"/>
	<rect x="159" y="185.963" fill="#2F292B" width="6" height="6"/>
	<rect x="165" y="167.963" fill="#2F292B" width="6" height="6"/>
	<rect x="171" y="161.963" fill="#2F292B" width="6" height="6"/>
	<rect x="165" y="173.963" fill="#2F292B" width="6" height="6"/>
	<rect x="171" y="167.963" fill="#2F292B" width="6" height="6"/>
	<rect x="171" y="173.963" fill="#2F292B" width="6" height="6"/>
	<rect x="177" y="137.998" fill="#2F292B" width="6" height="6"/>
	<rect x="177" y="143.998" fill="#2F292B" width="6" height="6"/>
	<rect x="177" y="149.967" fill="#2F292B" width="6" height="5.996"/>
	<rect x="177" y="155.963" fill="#2F292B" width="6" height="6"/>
	<rect x="177" y="161.963" fill="#2F292B" width="6" height="6"/>
	<rect x="177" y="167.963" fill="#2F292B" width="6" height="6"/>
	<rect x="177" y="173.963" fill="#2F292B" width="6" height="6"/>
	<rect x="177" y="179.963" fill="#FCFADF" width="6" height="6"/>
	<rect x="171" y="191.963" fill="#EEE1BF" width="6" height="6"/>
	<rect x="171" y="203.963" fill="#F8F0BD" width="6" height="6"/>
	<rect x="171" y="185.963" fill="#EEE1BF" width="6" height="6"/>
	<rect x="171" y="197.963" fill="#E0D193" width="6" height="6"/>
	<rect x="171" y="179.963" fill="#EEE1BF" width="6" height="6"/>
	<rect x="165" y="179.963" fill="#525255" width="6" height="6"/>
	<rect x="129" y="167.963" fill="#2F292B" width="6" height="6"/>
	<rect x="129" y="173.963" fill="#2F292B" width="6" height="6"/>
	<rect x="123" y="179.963" fill="#2F292B" width="6" height="6"/>
	<rect x="129" y="179.963" fill="#2F292B" width="6" height="6"/>
	<rect x="123" y="185.963" fill="#2F292B" width="6" height="6"/>
	<rect x="159" y="155.963" fill="#2F292B" width="6" height="6"/>
	<rect x="165" y="161.963" fill="#525255" width="6" height="6"/>
	<rect x="159" y="161.963" fill="#2F292B" width="6" height="6"/>
	<rect x="153" y="155.963" fill="#2F292B" width="6" height="6"/>
	<rect x="153" y="161.963" fill="#525255" width="6" height="6"/>
	<rect x="147" y="161.963" fill="#525255" width="6" height="6"/>
	<rect x="159" y="167.963" fill="#2F292B" width="6" height="6"/>
	<rect x="147" y="114.021" fill="#2F292B" width="6" height="6"/>
	<rect x="153" y="114.021" fill="#2F292B" width="6" height="6"/>
</g>
</svg>
