<?xml version="1.0" encoding="utf-8"?>
<!-- Generator: Adobe Illustrator 16.0.0, SVG Export Plug-In . SVG Version: 6.00 Build 0)  -->
<!DOCTYPE svg PUBLIC "-//W3C//DTD SVG 1.1//EN" "http://www.w3.org/Graphics/SVG/1.1/DTD/svg11.dtd">
<svg version="1.1" id="Layer_1" xmlns="http://www.w3.org/2000/svg" xmlns:xlink="http://www.w3.org/1999/xlink" x="0px" y="0px"
	 width="300px" height="300px" viewBox="0 0 300 300" enable-background="new 0 0 300 300" xml:space="preserve">
<g>
	<rect x="129" y="90.062" fill="#726658" width="6" height="6"/>
	<rect x="135" y="90.062" fill="#594A42" width="6" height="6"/>
	<rect x="141" y="90.062" fill="#726658" width="6" height="6"/>
	<rect x="147" y="90.062" fill="#594A42" width="6" height="6"/>
	<rect x="123" y="102.055" fill="#EFD1B8" width="6" height="6"/>
	<rect x="129" y="102.055" fill="#EFD1B8" width="6" height="6"/>
	<rect x="135" y="102.055" fill="#EFD1B8" width="6" height="6"/>
	<rect x="141" y="102.055" fill="#EFD1B8" width="6" height="6"/>
	<rect x="147" y="102.055" fill="#EFD1B8" width="6" height="6"/>
	<rect x="153" y="102.055" fill="#EFD1B8" width="6" height="6"/>
	<rect x="123" y="108.055" fill="#F7E0CF" width="6" height="6"/>
	<rect x="129" y="108.055" fill="#EFD1B8" width="6" height="6"/>
	<rect x="135" y="108.055" fill="#EFD1B8" width="6" height="6"/>
	<rect x="141" y="108.055" fill="#EFD1B8" width="6" height="6"/>
	<rect x="147" y="108.055" fill="#EFD1B8" width="6" height="6"/>
	<rect x="153" y="108.055" fill="#594A42" width="6" height="6"/>
	<rect x="123" y="114.055" fill="#F7E0CF" width="6" height="6"/>
	<rect x="129" y="114.055" fill="#F7E0CF" width="6" height="6"/>
	<rect x="123" y="120.031" fill="#EFD1B8" width="6" height="6"/>
	<rect x="129" y="120.031" fill="#9B8579" width="6" height="6"/>
	<rect x="123" y="131.992" fill="#D1D3D4" width="6" height="6"/>
	<rect x="129" y="131.992" fill="#3B2314" width="6" height="6"/>
	<rect x="123" y="138" fill="#EFD1B8" width="6" height="6"/>
	<rect x="129" y="138" fill="#D1D3D4" width="6" height="6"/>
	<rect x="123" y="143.992" fill="#D7BFAA" width="6" height="6"/>
	<rect x="117" y="138.016" fill="#EFD1B8" width="6" height="6"/>
	<rect x="111" y="138.016" fill="#EFD1B8" width="6" height="6"/>
	<rect x="117" y="132.016" fill="#F7E0CF" width="6" height="6"/>
	<rect x="129" y="143.992" fill="#D7BFAA" width="6" height="6"/>
	<rect x="141" y="143.992" fill="#D7BFAA" width="6" height="6"/>
	<rect x="135" y="143.992" fill="#D7BFAA" width="6" height="6"/>
	<rect x="147" y="143.992" fill="#EFCFC0" width="6" height="6"/>
	<rect x="159" y="143.992" fill="#EFD1B8" width="6" height="6"/>
	<rect x="153" y="143.992" fill="#F7E0CF" width="6" height="6"/>
	<rect x="141" y="149.977" fill="#FFFFFF" width="6" height="6"/>
	<rect x="135" y="149.977" fill="#FFFFFF" width="6" height="6"/>
	<rect x="147" y="149.977" fill="#FFFFFF" width="6" height="6"/>
	<rect x="153" y="149.977" fill="#BB807B" width="6" height="6"/>
	<rect x="141" y="155.969" fill="#D28F8C" width="6" height="6"/>
	<rect x="135" y="155.969" fill="#D28F8C" width="6" height="6"/>
	<rect x="147" y="155.969" fill="#BB807B" width="6" height="6"/>
	<rect x="153" y="155.969" fill="#D7BFAA" width="6" height="6"/>
	<rect x="141" y="161.969" fill="#D7BFAA" width="6" height="6"/>
	<rect x="135" y="161.969" fill="#D7BFAA" width="6" height="6"/>
	<rect x="147" y="161.969" fill="#D7BFAA" width="6" height="6"/>
	<rect x="141" y="167.969" fill="#BAA993" width="6" height="6"/>
	<rect x="147" y="167.969" fill="#BAA993" width="6" height="6"/>
	<rect x="141" y="179.938" fill="#EFD1B8" width="6" height="6"/>
	<rect x="147" y="179.938" fill="#EFD1B8" width="6" height="6"/>
	<rect x="153" y="167.969" fill="#EFD1B8" width="6" height="6"/>
	<rect x="141" y="173.938" fill="#EFD1B8" width="6" height="6"/>
	<rect x="147" y="173.938" fill="#EFD1B8" width="6" height="6"/>
	<rect x="153" y="173.938" fill="#EFD1B8" width="6" height="6"/>
	<rect x="153" y="161.969" fill="#EFD1B8" width="6" height="6"/>
	<rect x="159" y="161.969" fill="#EFD1B8" width="6" height="6"/>
	<rect x="159" y="173.938" fill="#757345" width="6" height="6"/>
	<rect x="165" y="173.938" fill="#757345" width="6" height="6"/>
	<rect x="159" y="179.938" fill="#757345" width="6" height="6"/>
	<rect x="153" y="179.938" fill="#EFD1B8" width="6" height="6"/>
	<rect x="135" y="179.938" fill="#757345" width="6" height="6"/>
	<rect x="129" y="179.938" fill="#757345" width="6" height="6"/>
	<rect x="135" y="173.938" fill="#757345" width="6" height="6"/>
	<rect x="129" y="173.938" fill="#757345" width="6" height="6"/>
	<rect x="165" y="179.938" fill="#757345" width="6" height="6"/>
	<rect x="171" y="179.938" fill="#C2B59B" width="6" height="6"/>
	<rect x="177" y="179.938" fill="#C2B59B" width="6" height="6"/>
	<rect x="141" y="191.938" fill="#757345" width="6" height="6"/>
	<rect x="147" y="191.938" fill="#FFFFFF" width="6" height="6"/>
	<rect x="159" y="191.938" fill="#C2B59B" width="6" height="6"/>
	<rect x="153" y="191.938" fill="#757345" width="6" height="6"/>
	<rect x="135" y="191.938" fill="#C2B59B" width="6" height="6"/>
	<rect x="129" y="191.938" fill="#C2B59B" width="6" height="6"/>
	<rect x="123" y="191.938" fill="#C2B59B" width="6" height="6"/>
	<rect x="165" y="191.938" fill="#C2B59B" width="6" height="6"/>
	<rect x="171" y="191.938" fill="#C2B59B" width="6" height="6"/>
	<rect x="177" y="191.938" fill="#C2B59B" width="6" height="6"/>
	<rect x="183" y="191.938" fill="#C2B59B" width="6" height="6"/>
	<rect x="141" y="203.938" fill="#C2B59B" width="6" height="6"/>
	<rect x="147" y="203.938" fill="#C2B59B" width="6" height="6"/>
	<rect x="159" y="203.938" fill="#C2B59B" width="6" height="6"/>
	<rect x="153" y="203.938" fill="#C2B59B" width="6" height="6"/>
	<rect x="135" y="203.938" fill="#C2B59B" width="6" height="6"/>
	<rect x="129" y="203.938" fill="#757345" width="6" height="6"/>
	<rect x="123" y="203.938" fill="#EFD1B8" width="6" height="6"/>
	<rect x="165" y="203.938" fill="#757345" width="6" height="6"/>
	<rect x="171" y="203.938" fill="#EFD1B8" width="6" height="6"/>
	<rect x="177" y="203.938" fill="#EFD1B8" width="6" height="6"/>
	<rect x="183" y="203.938" fill="#EFD1B8" width="6" height="6"/>
	<rect x="141" y="185.938" fill="#FFFFFF" width="6" height="6"/>
	<rect x="147" y="185.938" fill="#FFFFFF" width="6" height="6"/>
	<rect x="159" y="185.938" fill="#757345" width="6" height="6"/>
	<rect x="153" y="185.938" fill="#FFFFFF" width="6" height="6"/>
	<rect x="135" y="185.938" fill="#757345" width="6" height="6"/>
	<rect x="129" y="185.938" fill="#879260" width="6" height="6"/>
	<rect x="123" y="185.938" fill="#879260" width="6" height="6"/>
	<rect x="165" y="185.938" fill="#879260" width="6" height="6"/>
	<rect x="171" y="185.938" fill="#879260" width="6" height="6"/>
	<rect x="177" y="185.938" fill="#879260" width="6" height="6"/>
	<rect x="183" y="185.938" fill="#879260" width="6" height="6"/>
	<rect x="141" y="197.938" fill="#879260" width="6" height="6"/>
	<rect x="147" y="197.938" fill="#757345" width="6" height="6"/>
	<rect x="159" y="197.938" fill="#FAC805" width="6" height="6"/>
	<rect x="153" y="197.938" fill="#879260" width="6" height="6"/>
	<rect x="135" y="197.938" fill="#879260" width="6" height="6"/>
	<rect x="129" y="197.938" fill="#879260" width="6" height="6"/>
	<rect x="123" y="197.938" fill="#879260" width="6" height="6"/>
	<rect x="117" y="191.938" fill="#C2B59B" width="6" height="6"/>
	<rect x="117" y="203.938" fill="#EFD1B8" width="6" height="6"/>
	<rect x="117" y="197.938" fill="#879260" width="6" height="6"/>
	<rect x="165" y="197.938" fill="#879260" width="6" height="6"/>
	<rect x="171" y="197.938" fill="#879260" width="6" height="6"/>
	<rect x="177" y="197.938" fill="#879260" width="6" height="6"/>
	<rect x="183" y="197.938" fill="#879260" width="6" height="6"/>
	<rect x="165" y="143.992" fill="#EFD1B8" width="6" height="6"/>
	<rect x="159" y="138" fill="#EFD1B8" width="6" height="6"/>
	<rect x="165" y="138" fill="#EFD1B8" width="6" height="6"/>
	<rect x="159" y="155.969" fill="#EFD1B8" width="6" height="6"/>
	<rect x="165" y="155.969" fill="#EFD1B8" width="6" height="6"/>
	<rect x="159" y="149.977" fill="#F7E0CF" width="6" height="6"/>
	<rect x="165" y="149.977" fill="#EFD1B8" width="6" height="6"/>
	<rect x="159" y="131.992" fill="#EFD1B8" width="6" height="6"/>
	<rect x="165" y="131.992" fill="#EFD1B8" width="6" height="6"/>
	<rect x="159" y="120.031" fill="#594A42" width="6" height="6"/>
	<rect x="165" y="120.031" fill="#EFD1B8" width="6" height="6"/>
	<rect x="171" y="131.992" fill="#EFD1B8" width="6" height="6"/>
	<rect x="171" y="126" fill="#EFD1B8" width="6" height="6"/>
	<rect x="135" y="114.055" fill="#EFD1B8" width="6" height="6"/>
	<rect x="141" y="114.055" fill="#EFD1B8" width="6" height="6"/>
	<rect x="147" y="114.055" fill="#EFD1B8" width="6" height="6"/>
	<rect x="153" y="114.055" fill="#EFD1B8" width="6" height="6"/>
	<rect x="135" y="120.031" fill="#BAA993" width="6" height="6"/>
	<rect x="141" y="120.031" fill="#EFD1B8" width="6" height="6"/>
	<rect x="147" y="120.031" fill="#EFD1B8" width="6" height="6"/>
	<rect x="153" y="120.031" fill="#EFD1B8" width="6" height="6"/>
	<rect x="123" y="126" fill="#ADAFB2" width="6" height="6"/>
	<rect x="129" y="126" fill="#ADAFB2" width="6" height="6"/>
	<rect x="159" y="126" fill="#808285" width="6" height="6"/>
	<rect x="165" y="126" fill="#F7E0CF" width="6" height="6"/>
	<rect x="135" y="126" fill="#ADAFB2" width="6" height="6"/>
	<rect x="141" y="126" fill="#ADAFB2" width="6" height="6"/>
	<rect x="147" y="126" fill="#808285" width="6" height="6"/>
	<rect x="153" y="126" fill="#808285" width="6" height="6"/>
	<rect x="135" y="131.992" fill="#FFFFFF" width="6" height="6"/>
	<rect x="141" y="131.992" fill="#D1D3D4" width="6" height="6"/>
	<rect x="147" y="131.992" fill="#EFD1B8" width="6" height="6"/>
	<rect x="153" y="131.992" fill="#EFD1B8" width="6" height="6"/>
	<rect x="135" y="137.992" fill="#D1D3D4" width="6" height="6"/>
	<rect x="141" y="137.992" fill="#EFCFC0" width="6" height="6"/>
	<rect x="147" y="137.992" fill="#F7E0CF" width="6" height="6"/>
	<rect x="153" y="137.992" fill="#EFD1B8" width="6" height="6"/>
	<rect x="159" y="102.055" fill="#726658" width="6" height="6"/>
	<rect x="165" y="102.055" fill="#726658" width="6" height="6"/>
	<rect x="123" y="96.062" fill="#726658" width="6" height="6"/>
	<rect x="117" y="90.062" fill="#594A42" width="6" height="6"/>
	<rect x="129" y="96.062" fill="#594A42" width="6" height="6"/>
	<rect x="135" y="96.062" fill="#726658" width="6" height="6"/>
	<rect x="141" y="96.062" fill="#594A42" width="6" height="6"/>
	<rect x="147" y="96.062" fill="#726658" width="6" height="6"/>
	<rect x="153" y="96.062" fill="#726658" width="6" height="6"/>
	<rect x="159" y="96.062" fill="#594A42" width="6" height="6"/>
	<rect x="153" y="90.062" fill="#726658" width="6" height="6"/>
	<rect x="159" y="90.062" fill="#726658" width="6" height="6"/>
	<rect x="165" y="96.062" fill="#726658" width="6" height="6"/>
	<rect x="171" y="102.055" fill="#726658" width="6" height="6"/>
	<rect x="159" y="108.055" fill="#594A42" width="6" height="6"/>
	<rect x="165" y="108.055" fill="#594A42" width="6" height="6"/>
	<rect x="159" y="114.055" fill="#594A42" width="6" height="6"/>
	<rect x="165" y="114.055" fill="#594A42" width="6" height="6"/>
	<rect x="171" y="120.031" fill="#F7E0CF" width="6" height="6"/>
	<rect x="171" y="108.055" fill="#726658" width="6" height="6"/>
	<rect x="171" y="114.055" fill="#594A42" width="6" height="6"/>
	<rect x="171" y="138" fill="#726658" width="6" height="6"/>
</g>
</svg>
