<?xml version="1.0" encoding="utf-8"?>
<!-- Generator: Adobe Illustrator 16.0.0, SVG Export Plug-In . SVG Version: 6.00 Build 0)  -->
<!DOCTYPE svg PUBLIC "-//W3C//DTD SVG 1.1//EN" "http://www.w3.org/Graphics/SVG/1.1/DTD/svg11.dtd">
<svg version="1.1" id="Layer_1" xmlns="http://www.w3.org/2000/svg" xmlns:xlink="http://www.w3.org/1999/xlink" x="0px" y="0px"
	 width="300px" height="300px" viewBox="0 0 300 300" enable-background="new 0 0 300 300" xml:space="preserve">
<g>
	<rect x="138.012" y="191.961" fill="#EFD1B8" width="6" height="6"/>
	<rect x="144.012" y="191.961" fill="#EFD1B8" width="6" height="6"/>
	<rect x="155.996" y="191.961" fill="#EFD1B8" width="6" height="6"/>
	<rect x="150.012" y="191.961" fill="#EFD1B8" width="6" height="6"/>
	<rect x="131.984" y="191.961" fill="#EF4136" width="6" height="6"/>
	<rect x="125.973" y="191.961" fill="#EF4136" width="6" height="6"/>
	<rect x="119.996" y="191.961" fill="#EF4136" width="6" height="6"/>
	<rect x="161.996" y="191.961" fill="#EF4136" width="6" height="6"/>
	<rect x="167.996" y="191.961" fill="#EF4136" width="6" height="6"/>
	<rect x="180.004" y="191.961" fill="#EFD1B8" width="6" height="6"/>
	<rect x="180.004" y="185.961" fill="#EFCFC0" width="6" height="6"/>
	<rect x="138.023" y="203.961" fill="#EF4136" width="6" height="6"/>
	<rect x="144.023" y="203.961" fill="#EF4136" width="6" height="6"/>
	<rect x="155.996" y="203.961" fill="#EF4136" width="6" height="6"/>
	<rect x="150.023" y="203.961" fill="#EF4136" width="6" height="6"/>
	<rect x="131.996" y="203.961" fill="#EF4136" width="6" height="6"/>
	<rect x="125.973" y="203.961" fill="#EF4136" width="6" height="6"/>
	<rect x="119.996" y="203.961" fill="#EF4136" width="6" height="6"/>
	<rect x="161.996" y="203.961" fill="#EF4136" width="6" height="6"/>
	<rect x="167.996" y="203.961" fill="#EF4136" width="6" height="6"/>
	<rect x="180.004" y="203.961" fill="#EFD1B8" width="6" height="6"/>
	<rect x="137.996" y="185.961" fill="#EFCFC0" width="6" height="6"/>
	<rect x="143.996" y="185.961" fill="#ECEEEE" width="6" height="6"/>
	<rect x="155.996" y="185.961" fill="#EFCFC0" width="6" height="6"/>
	<rect x="149.996" y="185.969" fill="#E4E3D6" width="6" height="6"/>
	<rect x="143.996" y="179.961" fill="#EFD1B8" width="6" height="6"/>
	<rect x="149.996" y="179.961" fill="#EFD1B8" width="6" height="6"/>
	<rect x="131.996" y="185.961" fill="#FFFFFF" width="6" height="6"/>
	<rect x="119.996" y="185.961" fill="#FFFFFF" width="6" height="6"/>
	<rect x="161.996" y="185.961" fill="#42607E" width="6" height="6"/>
	<rect x="167.996" y="185.961" fill="#FFFFFF" width="6" height="6"/>
	<rect x="119.996" y="179.961" fill="#8B5E3C" width="6" height="6"/>
	<rect x="113.996" y="179.961" fill="#FDF287" width="6" height="6"/>
	<rect x="138.012" y="197.961" fill="#EF4136" width="6" height="6"/>
	<rect x="144.012" y="197.961" fill="#FFFFFF" width="6" height="6"/>
	<rect x="155.996" y="197.961" fill="#FFFFFF" width="6" height="6"/>
	<rect x="150.012" y="197.961" fill="#EF4136" width="6" height="6"/>
	<rect x="131.984" y="197.961" fill="#FFFFFF" width="6" height="6"/>
	<rect x="125.973" y="197.961" fill="#EF4136" width="6" height="6"/>
	<rect x="119.996" y="197.961" fill="#FFFFFF" width="6" height="6"/>
	<rect x="113.996" y="191.961" fill="#EFD1B8" width="6" height="6"/>
	<rect x="113.996" y="185.977" fill="#EFCFC0" width="6" height="6"/>
	<rect x="113.996" y="203.961" fill="#EFD1B8" width="6" height="6"/>
	<rect x="113.996" y="197.961" fill="#EFD1B8" width="6" height="6"/>
	<rect x="107.996" y="191.961" fill="#EFCFC0" width="6" height="6"/>
	<rect x="107.996" y="203.961" fill="#EFD1B8" width="6" height="6"/>
	<rect x="107.996" y="197.961" fill="#EFD1B8" width="6" height="6"/>
	<rect x="161.996" y="197.961" fill="#EF4136" width="6" height="6"/>
	<rect x="167.996" y="197.961" fill="#FFFFFF" width="6" height="6"/>
	<rect x="180.004" y="197.961" fill="#EFD1B8" width="6" height="6"/>
	<rect x="186.004" y="191.961" fill="#EFCFC0" width="6" height="6"/>
	<rect x="186.004" y="203.961" fill="#EFD1B8" width="6" height="6"/>
	<rect x="186.004" y="197.961" fill="#EFCFC0" width="6" height="6"/>
	<rect x="119.996" y="102.023" fill="#E8E2B8" width="6" height="6"/>
	<rect x="125.996" y="102.023" fill="#EFCFC0" width="6" height="6"/>
	<rect x="131.996" y="102.023" fill="#EFD1B8" width="6" height="6"/>
	<rect x="137.996" y="102.023" fill="#8B5E3C" width="6" height="6"/>
	<rect x="143.996" y="102.023" fill="#FDF287" width="6" height="6"/>
	<rect x="119.996" y="108.023" fill="#EFCFC0" width="6" height="6"/>
	<rect x="125.996" y="108.023" fill="#EFD1B8" width="6" height="6"/>
	<rect x="131.996" y="108.023" fill="#EFD1B8" width="6" height="6"/>
	<rect x="137.996" y="108.023" fill="#EFD1B8" width="6" height="6"/>
	<rect x="143.996" y="108.023" fill="#8B5E3C" width="6" height="6"/>
	<rect x="119.996" y="114.023" fill="#EFCFC0" width="6" height="6"/>
	<rect x="119.996" y="120" fill="#EFD1B8" width="6" height="6"/>
	<rect x="119.996" y="125.992" fill="#EFD1B8" width="6" height="6"/>
	<rect x="113.996" y="132" fill="#EFD1B8" width="6" height="6"/>
	<rect x="107.996" y="132" fill="#EFD1B8" width="6" height="6"/>
	<rect x="113.996" y="126.008" fill="#EFCFC0" width="6" height="6"/>
	<rect x="119.996" y="132" fill="#EFD1B8" width="6" height="6"/>
	<rect x="119.996" y="137.992" fill="#EFD1B8" width="6" height="6"/>
	<rect x="131.996" y="137.992" fill="#EFCFC0" width="6" height="6"/>
	<rect x="125.996" y="137.992" fill="#EFD1B8" width="6" height="6"/>
	<rect x="137.996" y="137.992" fill="#F3D9D0" width="6" height="6"/>
	<rect x="149.996" y="137.992" fill="#EFD1B8" width="6" height="6"/>
	<rect x="143.996" y="137.992" fill="#EFD1B8" width="6" height="6"/>
	<rect x="131.996" y="143.977" fill="#FFFFFF" width="6" height="6"/>
	<rect x="125.996" y="143.977" fill="#FFFFFF" width="6" height="6"/>
	<rect x="137.996" y="143.977" fill="#D36368" width="6" height="6"/>
	<rect x="143.996" y="143.977" fill="#F3D9D0" width="6" height="6"/>
	<rect x="131.996" y="149.969" fill="#D28F8C" width="6" height="5.992"/>
	<rect x="125.996" y="149.969" fill="#D28F8C" width="6" height="5.992"/>
	<rect x="137.996" y="149.969" fill="#EFD1B8" width="6" height="5.992"/>
	<rect x="143.996" y="149.969" fill="#EFD1B8" width="6" height="5.992"/>
	<rect x="131.996" y="155.961" fill="#EFD1B8" width="6" height="6"/>
	<rect x="125.996" y="155.961" fill="#EFCFC0" width="6" height="6"/>
	<rect x="137.996" y="155.961" fill="#EFD1B8" width="6" height="6"/>
	<rect x="131.996" y="161.961" fill="#EFCFC0" width="6" height="6"/>
	<rect x="137.996" y="161.961" fill="#EFD1B8" width="6" height="6"/>
	<rect x="137.996" y="167.961" fill="#E5B29B" width="6" height="6"/>
	<rect x="143.996" y="161.961" fill="#EFD1B8" width="6" height="6"/>
	<rect x="143.996" y="155.961" fill="#EFD1B8" width="6" height="6"/>
	<rect x="149.996" y="155.961" fill="#EFD1B8" width="6" height="6"/>
	<rect x="143.996" y="167.961" fill="#FFFFFF" width="6" height="6"/>
	<rect x="149.996" y="167.961" fill="#EFD1B8" width="6" height="6"/>
	<rect x="143.996" y="167.961" fill="#E5B29B" width="6" height="6"/>
	<rect x="143.996" y="173.961" fill="#EFD1B8" width="6" height="6"/>
	<rect x="138.023" y="173.961" fill="#EFD1B8" width="6" height="6"/>
	<rect x="149.996" y="173.961" fill="#EFD1B8" width="6" height="6"/>
	<rect x="161.996" y="167.961" fill="#FDF287" width="6" height="6"/>
	<rect x="155.996" y="179.961" fill="#ECEEEE" width="6" height="6"/>
	<rect x="137.996" y="179.961" fill="#E4E3D6" width="6" height="6"/>
	<rect x="155.996" y="137.992" fill="#FFFFFF" width="6" height="6"/>
	<rect x="149.996" y="132" fill="#EFD1B8" width="6" height="6"/>
	<rect x="155.996" y="132" fill="#FDF287" width="6" height="6"/>
	<rect x="149.996" y="149.969" fill="#EFD1B8" width="6" height="5.992"/>
	<rect x="155.996" y="149.969" fill="#947B42" width="6" height="5.992"/>
	<rect x="149.996" y="143.977" fill="#EFD1B8" width="6" height="6"/>
	<rect x="155.996" y="143.977" fill="#BDA880" width="6" height="6"/>
	<rect x="149.996" y="125.992" fill="#EEE1BF" width="6" height="6"/>
	<rect x="155.996" y="125.992" fill="#FFFAD8" width="6" height="6"/>
	<rect x="149.996" y="120" fill="#E4CA97" width="6" height="6"/>
	<rect x="155.996" y="120" fill="#8B5E3C" width="6" height="6"/>
	<rect x="161.996" y="125.992" fill="#BDA880" width="6" height="6"/>
	<rect x="161.996" y="120" fill="#E8E2B8" width="6" height="6"/>
	<rect x="125.996" y="114.016" fill="#BDA880" width="6" height="6"/>
	<rect x="131.996" y="114.016" fill="#E8E2B8" width="6" height="6"/>
	<rect x="137.996" y="114" fill="#EFD1B8" width="6" height="6"/>
	<rect x="143.996" y="114.023" fill="#FFFAD8" width="6" height="6"/>
	<rect x="125.996" y="120" fill="#EFD1B8" width="6" height="6"/>
	<rect x="131.996" y="120" fill="#EFD1B8" width="6" height="6"/>
	<rect x="137.996" y="119.992" fill="#EFD1B8" width="6" height="6"/>
	<rect x="143.996" y="119.977" fill="#EFD1B8" width="6" height="6"/>
	<rect x="125.996" y="125.992" fill="#7F95A5" width="6" height="6"/>
	<rect x="131.996" y="125.992" fill="#FFFFFF" width="6" height="6"/>
	<rect x="125.996" y="131.992" fill="#EFCFC0" width="6" height="6"/>
	<rect x="131.996" y="131.992" fill="#F3D9D0" width="6" height="6"/>
	<rect x="137.996" y="125.992" fill="#EFD1B8" width="6" height="6"/>
	<rect x="143.996" y="125.992" fill="#EFD1B8" width="6" height="6"/>
	<rect x="137.996" y="131.992" fill="#EFD1B8" width="6" height="6"/>
	<rect x="143.996" y="131.992" fill="#EFD1B8" width="6" height="6"/>
	<rect x="149.996" y="102.023" fill="#BDA880" width="6" height="6"/>
	<rect x="155.996" y="102.023" fill="#E8E2B8" width="6" height="6"/>
	<rect x="149.996" y="90.039" fill="#947B42" width="6" height="6"/>
	<rect x="155.996" y="96.039" fill="#E4CA97" width="6" height="6"/>
	<rect x="119.996" y="96.039" fill="#E4CA97" width="6" height="6"/>
	<rect x="113.996" y="108.023" fill="#E8E2B8" width="6" height="6"/>
	<rect x="125.996" y="96.039" fill="#E8E2B8" width="6" height="6"/>
	<rect x="131.996" y="96.039" fill="#FDF287" width="6" height="6"/>
	<rect x="137.996" y="96.039" fill="#BDA880" width="6" height="6"/>
	<rect x="143.996" y="96.039" fill="#947B42" width="6" height="6"/>
	<rect x="125.996" y="90.039" fill="#E4CA97" width="6" height="6"/>
	<rect x="131.996" y="90.039" fill="#E8E2B8" width="6" height="6"/>
	<rect x="137.996" y="90.039" fill="#FDF287" width="6" height="6"/>
	<rect x="143.996" y="90.039" fill="#BDA880" width="6" height="6"/>
	<rect x="149.996" y="96.039" fill="#E8E2B8" width="6" height="6"/>
	<rect x="149.996" y="108.023" fill="#FDF287" width="6" height="6"/>
	<rect x="149.996" y="120" fill="#FFFAD8" width="6" height="6"/>
	<rect x="149.996" y="125.992" fill="#FDF287" width="6" height="6"/>
	<rect x="155.996" y="108.023" fill="#BDA880" width="6" height="6"/>
	<rect x="161.996" y="108.023" fill="#E8E2B8" width="6" height="6"/>
	<rect x="161.996" y="102.023" fill="#E4CA97" width="6" height="6"/>
	<rect x="161.996" y="114.023" fill="#BDA880" width="6" height="6"/>
	<rect x="167.996" y="114.023" fill="#FDF287" width="6" height="6"/>
	<rect x="167.996" y="108.023" fill="#E4CA97" width="6" height="6"/>
	<rect x="155.996" y="90.039" fill="#E4CA97" width="6" height="6"/>
	<rect x="161.996" y="96.039" fill="#FFFAD8" width="6" height="6"/>
	<rect x="167.996" y="102.023" fill="#FFFAD8" width="6" height="6"/>
	<rect x="167.996" y="120.023" fill="#FDF287" width="6" height="6"/>
	<rect x="167.996" y="125.992" fill="#E8E2B8" width="6" height="6"/>
	<rect x="167.996" y="138" fill="#E8E2B8" width="6" height="6"/>
	<rect x="167.996" y="132" fill="#E8E2B8" width="6" height="6"/>
	<rect x="167.996" y="144" fill="#FDF287" width="6" height="6"/>
	<rect x="173.996" y="155.961" fill="#FDF287" width="6" height="6"/>
	<rect x="173.996" y="161.961" fill="#E4CA97" width="6" height="6"/>
	<rect x="173.996" y="167.961" fill="#E4CA97" width="6" height="6"/>
	<rect x="173.996" y="173.961" fill="#FFFAD8" width="6" height="6"/>
	<rect x="173.996" y="143.984" fill="#E8E2B8" width="6" height="6"/>
	<rect x="161.996" y="138" fill="#FDF287" width="6" height="6"/>
	<rect x="161.996" y="132" fill="#BDA880" width="6" height="6"/>
	<rect x="161.996" y="144" fill="#E4CA97" width="6" height="6"/>
	<rect x="167.996" y="149.969" fill="#FDF287" width="6" height="5.992"/>
	<rect x="173.996" y="149.953" fill="#E8E2B8" width="6" height="5.992"/>
	<rect x="180.004" y="155.961" fill="#E8E2B8" width="6" height="6"/>
	<rect x="180.004" y="161.961" fill="#FDF287" width="6" height="6"/>
	<rect x="180.004" y="167.961" fill="#E8E2B8" width="6" height="6"/>
	<rect x="180.004" y="173.961" fill="#E4CA97" width="6" height="6"/>
	<rect x="180.004" y="179.961" fill="#FFFAD8" width="6" height="6"/>
	<rect x="186.004" y="173.961" fill="#E4CA97" width="6" height="6"/>
	<rect x="186.004" y="179.961" fill="#FDF287" width="6" height="6"/>
	<rect x="180.004" y="149.953" fill="#E4CA97" width="6" height="5.992"/>
	<rect x="173.996" y="137.984" fill="#E4CA97" width="6" height="6"/>
	<rect x="173.996" y="126.008" fill="#FDF287" width="6" height="6"/>
	<rect x="173.996" y="131.977" fill="#E4CA97" width="6" height="5.992"/>
	<rect x="161.996" y="149.969" fill="#FFFAD8" width="6" height="5.992"/>
	<rect x="167.996" y="155.961" fill="#FFFAD8" width="6" height="6"/>
	<rect x="161.996" y="179.961" fill="#FFFAD8" width="6" height="6"/>
	<rect x="161.996" y="185.961" fill="#EF4136" width="6" height="6"/>
	<rect x="173.988" y="191.977" fill="#EF4136" width="6" height="6"/>
	<rect x="174.004" y="203.961" fill="#EF4136" width="6" height="6"/>
	<rect x="173.988" y="185.977" fill="#EF4136" width="6" height="6"/>
	<rect x="174.004" y="197.961" fill="#EF4136" width="6" height="6"/>
	<rect x="173.996" y="179.961" fill="#EF4136" width="6" height="6"/>
	<rect x="167.996" y="179.961" fill="#FDF287" width="6" height="6"/>
	<rect x="131.996" y="167.961" fill="#BDA880" width="6" height="6"/>
	<rect x="125.996" y="167.961" fill="#FDF287" width="6" height="6"/>
	<rect x="131.996" y="173.961" fill="#BDA880" width="6" height="6"/>
	<rect x="125.996" y="173.961" fill="#8B5E3C" width="6" height="6"/>
	<rect x="119.996" y="167.961" fill="#E4CA97" width="6" height="6"/>
	<rect x="119.996" y="173.961" fill="#FDF287" width="6" height="6"/>
	<rect x="125.973" y="161.961" fill="#BDA880" width="6" height="6"/>
	<rect x="125.973" y="179.961" fill="#E8E2B8" width="6" height="6"/>
	<rect x="131.996" y="179.961" fill="#EF4136" width="6" height="6"/>
	<rect x="125.973" y="185.961" fill="#E4CA97" width="6" height="6"/>
	<rect x="161.996" y="155.961" fill="#E4CA97" width="6" height="6"/>
	<rect x="167.996" y="161.961" fill="#FFFAD8" width="6" height="6"/>
	<rect x="167.996" y="167.961" fill="#FFFAD8" width="6" height="6"/>
	<rect x="167.996" y="173.961" fill="#E4CA97" width="6" height="6"/>
	<rect x="161.996" y="161.961" fill="#947B42" width="6" height="6"/>
	<rect x="155.996" y="155.961" fill="#947B42" width="6" height="6"/>
	<rect x="155.996" y="161.961" fill="#FFFBD7" width="6" height="6"/>
	<rect x="155.996" y="167.961" fill="#FFFBD7" width="6" height="6"/>
	<rect x="155.996" y="173.961" fill="#EFD1B8" width="6" height="6"/>
	<rect x="149.996" y="161.961" fill="#E5B29B" width="6" height="6"/>
	<rect x="161.996" y="173.961" fill="#FDF287" width="6" height="6"/>
	<rect x="149.996" y="114.023" fill="#8B5E3C" width="6" height="6"/>
	<rect x="155.996" y="114.023" fill="#E4CA97" width="6" height="6"/>
</g>
</svg>
