<?xml version="1.0" encoding="utf-8"?>
<!-- Generator: Adobe Illustrator 16.0.0, SVG Export Plug-In . SVG Version: 6.00 Build 0)  -->
<!DOCTYPE svg PUBLIC "-//W3C//DTD SVG 1.1//EN" "http://www.w3.org/Graphics/SVG/1.1/DTD/svg11.dtd">
<svg version="1.1" id="Layer_1" xmlns="http://www.w3.org/2000/svg" xmlns:xlink="http://www.w3.org/1999/xlink" x="0px" y="0px"
	 width="300px" height="300px" viewBox="0 0 300 300" enable-background="new 0 0 300 300" xml:space="preserve">
<g>
	<rect x="120" y="105.059" fill="#231F20" width="6" height="6"/>
	<rect x="126" y="105.059" fill="#231F20" width="6" height="6"/>
	<rect x="132" y="105.059" fill="#414042" width="6" height="6"/>
	<rect x="144" y="105.059" fill="#231F20" width="6" height="6"/>
	<rect x="120" y="117.047" fill="#EEE1BF" width="6" height="6"/>
	<rect x="126" y="117.047" fill="#EDD69F" width="6" height="6"/>
	<rect x="132" y="117.047" fill="#EDD69F" width="6" height="6"/>
	<rect x="138" y="117.047" fill="#EDD69F" width="6" height="6"/>
	<rect x="144" y="117.047" fill="#EDD69F" width="6" height="6"/>
	<rect x="150" y="117.047" fill="#EDD69F" width="6" height="6"/>
	<rect x="120" y="123.047" fill="#EEE1BF" width="6" height="6"/>
	<rect x="126" y="123.047" fill="#EEE1BF" width="6" height="6"/>
	<rect x="120" y="129.023" fill="#EEE1BF" width="6" height="6"/>
	<rect x="126" y="129.023" fill="#414042" width="6" height="6"/>
	<rect x="120" y="140.984" fill="#EDD69F" width="6" height="6"/>
	<rect x="126" y="140.984" fill="#3B2314" width="6" height="6"/>
	<rect x="120" y="146.996" fill="#EDD69F" width="6" height="6"/>
	<rect x="126" y="146.996" fill="#EEE1BF" width="6" height="6"/>
	<rect x="120" y="152.984" fill="#EDD69F" width="6" height="6"/>
	<rect x="114" y="146.996" fill="#EDD69F" width="6" height="6"/>
	<rect x="126" y="152.984" fill="#EDD69F" width="6" height="6"/>
	<rect x="138" y="152.984" fill="#EDD69F" width="6" height="6"/>
	<rect x="132" y="152.984" fill="#EDD69F" width="6" height="6"/>
	<rect x="144" y="152.984" fill="#EEE1BF" width="6" height="6"/>
	<rect x="156" y="152.984" fill="#EDD69F" width="6" height="6"/>
	<rect x="150" y="152.984" fill="#EFC8A6" width="6" height="6"/>
	<rect x="138" y="158.973" fill="#FFFFFF" width="6" height="6"/>
	<rect x="132" y="158.973" fill="#FFFFFF" width="6" height="6"/>
	<rect x="144" y="158.973" fill="#FFFFFF" width="6" height="6"/>
	<rect x="150" y="158.973" fill="#BB807B" width="6" height="6"/>
	<rect x="138" y="164.961" fill="#D28F8C" width="6" height="6"/>
	<rect x="132" y="164.961" fill="#D28F8C" width="6" height="6"/>
	<rect x="144" y="164.961" fill="#BB807B" width="6" height="6"/>
	<rect x="150" y="164.961" fill="#EDD69F" width="6" height="6"/>
	<rect x="138" y="170.961" fill="#EDD69F" width="6" height="6"/>
	<rect x="132" y="170.961" fill="#EDD69F" width="6" height="6"/>
	<rect x="144" y="170.961" fill="#EDD69F" width="6" height="6"/>
	<rect x="138" y="176.961" fill="#D5CBAD" width="6" height="6"/>
	<rect x="144" y="176.961" fill="#D5CBAD" width="6" height="6"/>
	<rect x="150" y="176.961" fill="#D5CBAD" width="6" height="6"/>
	<rect x="138" y="182.93" fill="#D5CBAD" width="6" height="6"/>
	<rect x="144" y="182.93" fill="#EDD69F" width="6" height="6"/>
	<rect x="150" y="182.93" fill="#EDD69F" width="6" height="6"/>
	<rect x="150" y="170.961" fill="#EDD69F" width="6" height="6"/>
	<rect x="156" y="182.941" fill="#78B7AA" width="6" height="6"/>
	<rect x="132" y="182.941" fill="#78B7AA" width="6" height="6"/>
	<rect x="126" y="182.941" fill="#9BD4D4" width="6" height="6"/>
	<rect x="162" y="182.941" fill="#9BD4D4" width="6" height="6"/>
	<rect x="168" y="182.941" fill="#9BD4D4" width="6" height="6"/>
	<rect x="138" y="194.941" fill="#9BD4D4" width="6" height="6"/>
	<rect x="144" y="194.941" fill="#9BD4D4" width="6" height="6"/>
	<rect x="156" y="194.941" fill="#9BD4D4" width="6" height="6"/>
	<rect x="150" y="194.941" fill="#9BD4D4" width="6" height="6"/>
	<rect x="132" y="194.941" fill="#9BD4D4" width="6" height="6"/>
	<rect x="126" y="194.941" fill="#9BD4D4" width="6" height="6"/>
	<rect x="120" y="194.941" fill="#9BD4D4" width="6" height="6"/>
	<rect x="162" y="194.941" fill="#9BD4D4" width="6" height="6"/>
	<rect x="168" y="194.941" fill="#9BD4D4" width="6" height="6"/>
	<rect x="174" y="194.941" fill="#9BD4D4" width="6" height="6"/>
	<rect x="180" y="194.941" fill="#9BD4D4" width="6" height="6"/>
	<rect x="138" y="206.941" fill="#9BD4D4" width="6" height="6"/>
	<rect x="144" y="206.941" fill="#007A8F" width="6" height="6"/>
	<rect x="156" y="206.941" fill="#007A8F" width="6" height="6"/>
	<rect x="150" y="206.941" fill="#9BD4D4" width="6" height="6"/>
	<rect x="132" y="206.941" fill="#007A8F" width="6" height="6"/>
	<rect x="126" y="206.941" fill="#9BD4D4" width="6" height="6"/>
	<rect x="120" y="206.941" fill="#EDD69F" width="6" height="6"/>
	<rect x="162" y="206.941" fill="#9BD4D4" width="6" height="6"/>
	<rect x="168" y="206.941" fill="#EEE1BF" width="6" height="6"/>
	<rect x="174" y="206.941" fill="#EDD69F" width="6" height="6"/>
	<rect x="180" y="206.941" fill="#EDD69F" width="6" height="6"/>
	<rect x="138" y="188.941" fill="#78B7AA" width="6" height="6"/>
	<rect x="144" y="188.941" fill="#78B7AA" width="6" height="6"/>
	<rect x="156" y="188.941" fill="#9BD4D4" width="6" height="6"/>
	<rect x="150" y="188.941" fill="#78B7AA" width="6" height="6"/>
	<rect x="132" y="188.941" fill="#9BD4D4" width="6" height="6"/>
	<rect x="126" y="188.941" fill="#9BD4D4" width="6" height="6"/>
	<rect x="120" y="188.941" fill="#9BD4D4" width="6" height="6"/>
	<rect x="162" y="188.941" fill="#9BD4D4" width="6" height="6"/>
	<rect x="168" y="188.941" fill="#9BD4D4" width="6" height="6"/>
	<rect x="174" y="188.941" fill="#9BD4D4" width="6" height="6"/>
	<rect x="138" y="200.941" fill="#9BD4D4" width="6" height="6"/>
	<rect x="144" y="200.941" fill="#9BD4D4" width="6" height="6"/>
	<rect x="156" y="200.941" fill="#9BD4D4" width="6" height="6"/>
	<rect x="150" y="200.941" fill="#9BD4D4" width="6" height="6"/>
	<rect x="132" y="200.941" fill="#9BD4D4" width="6" height="6"/>
	<rect x="126" y="200.941" fill="#9BD4D4" width="6" height="6"/>
	<rect x="120" y="200.941" fill="#78B7AA" width="6" height="6"/>
	<rect x="114" y="194.941" fill="#9BD4D4" width="6" height="6"/>
	<rect x="114" y="206.941" fill="#EEE1BF" width="6" height="6"/>
	<rect x="114" y="200.941" fill="#78B7AA" width="6" height="6"/>
	<rect x="162" y="200.941" fill="#9BD4D4" width="6" height="6"/>
	<rect x="168" y="200.941" fill="#78B7AA" width="6" height="6"/>
	<rect x="174" y="200.941" fill="#78B7AA" width="6" height="6"/>
	<rect x="180" y="200.941" fill="#78B7AA" width="6" height="6"/>
	<rect x="162" y="152.984" fill="#EDD69F" width="6" height="6"/>
	<rect x="156" y="146.996" fill="#EDD69F" width="6" height="6"/>
	<rect x="162" y="146.996" fill="#EDD69F" width="6" height="6"/>
	<rect x="156" y="164.961" fill="#EDD69F" width="6" height="6"/>
	<rect x="156" y="158.973" fill="#EDD69F" width="6" height="6"/>
	<rect x="162" y="158.973" fill="#EDD69F" width="6" height="6"/>
	<rect x="156" y="170.957" fill="#EDD69F" width="6" height="6"/>
	<rect x="162" y="164.965" fill="#EDD69F" width="6" height="6"/>
	<rect x="156" y="140.984" fill="#EDD69F" width="6" height="6"/>
	<rect x="162" y="140.984" fill="#231F20" width="6" height="6"/>
	<rect x="156" y="129.023" fill="#231F20" width="6" height="6"/>
	<rect x="162" y="129.023" fill="#414042" width="6" height="6"/>
	<rect x="168" y="140.984" fill="#D5CBAD" width="6" height="6"/>
	<rect x="168" y="134.996" fill="#EDD69F" width="6" height="6"/>
	<rect x="132" y="123.047" fill="#EDD69F" width="6" height="6"/>
	<rect x="138" y="123.047" fill="#EDD69F" width="6" height="6"/>
	<rect x="144" y="123.047" fill="#EDD69F" width="6" height="6"/>
	<rect x="150" y="123.047" fill="#EDD69F" width="6" height="6"/>
	<rect x="132" y="129.023" fill="#414042" width="6" height="6"/>
	<rect x="138" y="129.023" fill="#EDD69F" width="6" height="6"/>
	<rect x="144" y="129.023" fill="#EDD69F" width="6" height="6"/>
	<rect x="150" y="129.023" fill="#EDD69F" width="6" height="6"/>
	<rect x="120" y="134.996" fill="#EDD69F" width="6" height="6"/>
	<rect x="126" y="134.996" fill="#EDD69F" width="6" height="6"/>
	<rect x="156" y="134.996" fill="#EDD69F" width="6" height="6"/>
	<rect x="162" y="134.996" fill="#231F20" width="6" height="6"/>
	<rect x="132" y="134.996" fill="#EDD69F" width="6" height="6"/>
	<rect x="138" y="134.996" fill="#EDD69F" width="6" height="6"/>
	<rect x="144" y="134.996" fill="#EDD69F" width="6" height="6"/>
	<rect x="150" y="134.996" fill="#EDD69F" width="6" height="6"/>
	<rect x="132" y="140.984" fill="#FFFFFF" width="6" height="6"/>
	<rect x="138" y="140.984" fill="#EDD69F" width="6" height="6"/>
	<rect x="144" y="140.984" fill="#EDD69F" width="6" height="6"/>
	<rect x="150" y="140.984" fill="#EDD69F" width="6" height="6"/>
	<rect x="132" y="146.984" fill="#EDD69F" width="6" height="6"/>
	<rect x="138" y="146.984" fill="#EEE1BF" width="6" height="6"/>
	<rect x="144" y="146.984" fill="#EFC8A6" width="6" height="6"/>
	<rect x="150" y="146.984" fill="#EDD69F" width="6" height="6"/>
	<rect x="120" y="111.059" fill="#EDD69F" width="6" height="6"/>
	<rect x="126" y="111.059" fill="#EDD69F" width="6" height="6"/>
	<rect x="132" y="111.059" fill="#231F20" width="6" height="6"/>
	<rect x="138" y="111.059" fill="#414042" width="6" height="6"/>
	<rect x="144" y="111.059" fill="#231F20" width="6" height="6"/>
	<rect x="150" y="111.059" fill="#EEE1BF" width="6" height="6"/>
	<rect x="156" y="111.059" fill="#EEE1BF" width="6" height="6"/>
	<rect x="150" y="105.059" fill="#231F20" width="6" height="6"/>
	<rect x="156" y="105.059" fill="#414042" width="6" height="6"/>
	<rect x="126" y="93.059" fill="#231F20" width="6" height="6"/>
	<rect x="132" y="93.059" fill="#414042" width="6" height="6"/>
	<rect x="132" y="87.059" fill="#414042" width="6" height="6"/>
	<rect x="144" y="93.059" fill="#414042" width="6" height="6"/>
	<rect x="138" y="105.059" fill="#231F20" width="6" height="6"/>
	<rect x="138" y="93.059" fill="#231F20" width="6" height="6"/>
	<rect x="150" y="93.059" fill="#231F20" width="6" height="6"/>
	<rect x="150" y="87.059" fill="#231F20" width="6" height="6"/>
	<rect x="156" y="93.059" fill="#231F20" width="6" height="6"/>
	<rect x="162" y="111.059" fill="#231F20" width="6" height="6"/>
	<rect x="162" y="105.059" fill="#231F20" width="6" height="6"/>
	<rect x="162" y="93.059" fill="#414042" width="6" height="6"/>
	<rect x="168" y="111.059" fill="#231F20" width="6" height="6"/>
	<rect x="168" y="105.059" fill="#414042" width="6" height="6"/>
	<rect x="156" y="117.047" fill="#EEE1BF" width="6" height="6"/>
	<rect x="162" y="117.047" fill="#414042" width="6" height="6"/>
	<rect x="156" y="123.047" fill="#414042" width="6" height="6"/>
	<rect x="162" y="123.047" fill="#231F20" width="6" height="6"/>
	<rect x="168" y="129.023" fill="#231F20" width="6" height="6"/>
	<rect x="168" y="117.047" fill="#231F20" width="6" height="6"/>
	<rect x="174" y="117.047" fill="#231F20" width="6" height="6"/>
	<rect x="174" y="105.059" fill="#231F20" width="6" height="6"/>
	<rect x="120" y="99.059" fill="#6D6F72" width="6" height="6"/>
	<rect x="126" y="99.059" fill="#231F20" width="6" height="6"/>
	<rect x="132" y="99.059" fill="#231F20" width="6" height="6"/>
	<rect x="144" y="99.059" fill="#414042" width="6" height="6"/>
	<rect x="150" y="99.059" fill="#231F20" width="6" height="6"/>
	<rect x="156" y="99.059" fill="#6D6F72" width="6" height="6"/>
	<rect x="138" y="99.059" fill="#231F20" width="6" height="6"/>
	<rect x="162" y="99.059" fill="#231F20" width="6" height="6"/>
	<rect x="168" y="99.059" fill="#231F20" width="6" height="6"/>
	<rect x="174" y="99.059" fill="#231F20" width="6" height="6"/>
	<rect x="174" y="111.059" fill="#6D6F72" width="6" height="6"/>
	<rect x="180" y="117.047" fill="#231F20" width="6" height="6"/>
	<rect x="180" y="111.059" fill="#231F20" width="6" height="6"/>
	<rect x="168" y="123.047" fill="#231F20" width="6" height="6"/>
	<rect x="174" y="141.012" fill="#EDD69F" width="6" height="6"/>
	<rect x="174" y="135.035" fill="#EEE1BF" width="6" height="6"/>
	<rect x="174" y="129.043" fill="#231F20" width="6" height="6"/>
	<rect x="174" y="123.043" fill="#414042" width="6" height="6"/>
	<rect x="180" y="123.043" fill="#231F20" width="6" height="6"/>
	<rect x="180" y="129.023" fill="#231F20" width="6" height="6"/>
	<rect x="180" y="135.043" fill="#414042" width="6" height="6"/>
	<rect x="180" y="141.023" fill="#231F20" width="6" height="6"/>
	<rect x="168" y="152.973" fill="#414042" width="6" height="6"/>
	<rect x="174" y="147" fill="#231F20" width="6" height="6"/>
	<rect x="168" y="146.996" fill="#EDD69F" width="6" height="6"/>
</g>
</svg>
