<?xml version="1.0" encoding="utf-8"?>
<!-- Generator: Adobe Illustrator 16.0.0, SVG Export Plug-In . SVG Version: 6.00 Build 0)  -->
<!DOCTYPE svg PUBLIC "-//W3C//DTD SVG 1.1//EN" "http://www.w3.org/Graphics/SVG/1.1/DTD/svg11.dtd">
<svg version="1.1" id="Layer_1" xmlns="http://www.w3.org/2000/svg" xmlns:xlink="http://www.w3.org/1999/xlink" x="0px" y="0px"
	 width="300px" height="300px" viewBox="0 0 300 300" enable-background="new 0 0 300 300" xml:space="preserve">
<g>
	<rect x="120" y="120.016" fill="#EFD1B8" width="6" height="6"/>
	<rect x="126" y="120.016" fill="#9B8579" width="6" height="6"/>
	<rect x="132" y="120.016" fill="#EFC8A6" width="6" height="6"/>
	<rect x="138" y="120.016" fill="#EEBFA2" width="6" height="6"/>
	<rect x="144" y="120.012" fill="#AFAFA2" width="6" height="6"/>
	<rect x="114" y="126.016" fill="#E5B29B" width="6" height="6"/>
	<rect x="120" y="126.016" fill="#726658" width="6" height="6"/>
	<rect x="126" y="126.012" fill="#EFD1B8" width="6" height="6"/>
	<rect x="132" y="126.012" fill="#EFC8A6" width="6" height="6"/>
	<rect x="138" y="126.012" fill="#EFC8A6" width="6" height="6"/>
	<rect x="144" y="126.016" fill="#ADAFB2" width="6" height="6"/>
	<rect x="114" y="132.016" fill="#EFC8A6" width="6" height="6"/>
	<rect x="114" y="137.988" fill="#C6C8C9" width="6" height="6"/>
	<rect x="114" y="143.977" fill="#EFC8A6" width="6" height="6"/>
	<rect x="120" y="132.016" fill="#C6C8C9" width="6" height="6"/>
	<rect x="108" y="137.992" fill="#1B455E" width="6" height="6"/>
	<rect x="120" y="137.992" fill="#7F95A5" width="6" height="6"/>
	<rect x="108" y="143.984" fill="#1B455E" width="6" height="6"/>
	<rect x="120" y="143.984" fill="#EFC8A6" width="6" height="6"/>
	<rect x="114" y="149.992" fill="#EFC8A6" width="6" height="6"/>
	<rect x="120" y="149.992" fill="#EFC8A6" width="6" height="6"/>
	<rect x="102" y="143.992" fill="#EFC8A6" width="6" height="6"/>
	<rect x="132" y="155.988" fill="#E3A193" width="6" height="6"/>
	<rect x="126" y="155.988" fill="#FFFFFF" width="6" height="6"/>
	<rect x="120" y="155.988" fill="#FFFFFF" width="6" height="6"/>
	<rect x="138" y="155.988" fill="#E5B29B" width="6" height="6"/>
	<rect x="144" y="155.988" fill="#ADAFB2" width="6" height="6"/>
	<rect x="132" y="161.977" fill="#EFC8A6" width="6" height="6"/>
	<rect x="126" y="161.977" fill="#D28F8C" width="6" height="6"/>
	<rect x="138" y="161.977" fill="#E5B29B" width="6" height="6"/>
	<rect x="144" y="161.977" fill="#AFAFA2" width="6" height="6"/>
	<rect x="132" y="167.977" fill="#EFC8A6" width="6" height="6"/>
	<rect x="126" y="167.977" fill="#EFC8A6" width="6" height="6"/>
	<rect x="120" y="161.977" fill="#D28F8C" width="6" height="6"/>
	<rect x="120" y="167.977" fill="#E5B29B" width="6" height="6"/>
	<rect x="138" y="167.977" fill="#EFC8A6" width="6" height="6"/>
	<rect x="132" y="173.977" fill="#C79C89" width="6" height="6"/>
	<rect x="138" y="173.977" fill="#EFD1B8" width="6" height="6"/>
	<rect x="132" y="179.977" fill="#EFC8A6" width="6" height="6"/>
	<rect x="138" y="179.977" fill="#C79C89" width="6" height="6"/>
	<rect x="144" y="173.977" fill="#EFC8A6" width="6" height="6"/>
	<rect x="144" y="167.977" fill="#EFD1B8" width="6" height="6"/>
	<rect x="150" y="167.977" fill="#AFAFA2" width="6" height="6"/>
	<rect x="150" y="173.977" fill="#AFAFA2" width="6" height="6"/>
	<rect x="150" y="179.977" fill="#BCBEC0" width="6" height="6"/>
	<rect x="144" y="179.977" fill="#EFC8A6" width="6" height="6"/>
	<rect x="126" y="179.977" fill="#231F20" width="6" height="6"/>
	<rect x="120" y="179.977" fill="#323133" width="6" height="6"/>
	<rect x="156" y="179.977" fill="#C7C4BC" width="6" height="6"/>
	<rect x="162" y="179.977" fill="#323133" width="6" height="6"/>
	<rect x="168" y="179.977" fill="#BCBEC0" width="6" height="6"/>
	<rect x="132" y="191.977" fill="#EFC8A6" width="6" height="6"/>
	<rect x="138" y="191.977" fill="#726658" width="6" height="6"/>
	<rect x="150" y="191.977" fill="#DFE0E1" width="6" height="6"/>
	<rect x="144" y="191.977" fill="#726658" width="6" height="6"/>
	<rect x="126" y="191.977" fill="#323133" width="6" height="6"/>
	<rect x="126" y="197.977" fill="#323133" width="6" height="6"/>
	<rect x="120" y="191.977" fill="#323133" width="6" height="6"/>
	<rect x="114" y="191.977" fill="#323133" width="6" height="6"/>
	<rect x="156" y="191.977" fill="#BCBEC0" width="6" height="6"/>
	<rect x="162" y="191.977" fill="#C7C4BC" width="6" height="6"/>
	<rect x="168" y="191.977" fill="#323133" width="6" height="6"/>
	<rect x="174" y="191.977" fill="#323133" width="6" height="6"/>
	<rect x="132" y="203.977" fill="#323133" width="6" height="6"/>
	<rect x="138" y="203.977" fill="#323133" width="6" height="6"/>
	<rect x="150" y="203.977" fill="#323133" width="6" height="6"/>
	<rect x="144" y="203.977" fill="#323133" width="6" height="6"/>
	<rect x="126" y="203.977" fill="#323133" width="6" height="6"/>
	<rect x="120" y="203.977" fill="#323133" width="6" height="6"/>
	<rect x="114" y="203.977" fill="#231F20" width="6" height="6"/>
	<rect x="156" y="203.977" fill="#DFE0E1" width="6" height="6"/>
	<rect x="162" y="203.977" fill="#231F20" width="6" height="6"/>
	<rect x="168" y="203.977" fill="#323133" width="6" height="6"/>
	<rect x="174" y="203.977" fill="#323133" width="6" height="6"/>
	<rect x="132" y="185.977" fill="#726658" width="6" height="6"/>
	<rect x="138" y="185.977" fill="#EFC8A6" width="6" height="6"/>
	<rect x="150" y="185.977" fill="#BCBEC0" width="6" height="6"/>
	<rect x="144" y="185.977" fill="#EFC8A6" width="6" height="6"/>
	<rect x="126" y="185.977" fill="#231F20" width="6" height="6"/>
	<rect x="120" y="185.977" fill="#323133" width="6" height="6"/>
	<rect x="114" y="185.977" fill="#323133" width="6" height="6"/>
	<rect x="156" y="185.977" fill="#C7C4BC" width="6" height="6"/>
	<rect x="162" y="185.977" fill="#C7C4BC" width="6" height="6"/>
	<rect x="168" y="185.977" fill="#323133" width="6" height="6"/>
	<rect x="174" y="185.977" fill="#323133" width="6" height="6"/>
	<rect x="132" y="197.977" fill="#323133" width="6" height="6"/>
	<rect x="138" y="197.977" fill="#EFC8A6" width="6" height="6"/>
	<rect x="150" y="197.977" fill="#BCBEC0" width="6" height="6"/>
	<rect x="144" y="197.977" fill="#EFC8A6" width="6" height="6"/>
	<rect x="126" y="197.977" fill="#323133" width="6" height="6"/>
	<rect x="120" y="197.977" fill="#323133" width="6" height="6"/>
	<rect x="114" y="197.977" fill="#231F20" width="6" height="6"/>
	<rect x="108" y="191.977" fill="#323133" width="6" height="6"/>
	<rect x="108" y="185.977" fill="#323133" width="6" height="6"/>
	<rect x="108" y="203.977" fill="#323133" width="6" height="6"/>
	<rect x="108" y="197.977" fill="#323133" width="6" height="6"/>
	<rect x="102" y="191.977" fill="#323133" width="6" height="6"/>
	<rect x="102" y="203.977" fill="#323133" width="6" height="6"/>
	<rect x="102" y="197.977" fill="#323133" width="6" height="6"/>
	<rect x="156" y="197.977" fill="#DFE0E1" width="6" height="6"/>
	<rect x="162" y="197.977" fill="#231F20" width="6" height="6"/>
	<rect x="168" y="197.977" fill="#323133" width="6" height="6"/>
	<rect x="174" y="197.977" fill="#323133" width="6" height="6"/>
	<rect x="180" y="191.977" fill="#323133" width="6" height="6"/>
	<rect x="180" y="203.977" fill="#323133" width="6" height="6"/>
	<rect x="180" y="197.977" fill="#323133" width="6" height="6"/>
	<rect x="161.992" y="155.996" fill="#BCBEC0" width="6" height="6"/>
	<rect x="150" y="149.988" fill="#AFAFA2" width="6" height="6"/>
	<rect x="156" y="149.988" fill="#C6C8C9" width="6" height="6"/>
	<rect x="150" y="161.977" fill="#AFAFA2" width="6" height="6"/>
	<rect x="156" y="161.977" fill="#C6C8C9" width="6" height="6"/>
	<rect x="156" y="167.977" fill="#C6C8C9" width="6" height="6"/>
	<rect x="156" y="173.977" fill="#C6C8C9" width="6" height="6"/>
	<rect x="150" y="155.988" fill="#C6C8C9" width="6" height="6"/>
	<rect x="156" y="155.988" fill="#939598" width="6" height="6"/>
	<rect x="161.992" y="161.984" fill="#939598" width="6" height="6"/>
	<rect x="161.992" y="167.977" fill="#BCBEC0" width="6" height="6"/>
	<rect x="161.992" y="173.977" fill="#BCBEC0" width="6" height="6"/>
	<rect x="168" y="173.977" fill="#BCBEC0" width="6" height="6"/>
	<rect x="150" y="143.977" fill="#C6C8C9" width="6" height="6"/>
	<rect x="156" y="143.977" fill="#C7C4BC" width="6" height="6"/>
	<rect x="150" y="137.988" fill="#AFAFA2" width="6" height="6"/>
	<rect x="156" y="137.988" fill="#E6E7E8" width="6" height="6"/>
	<rect x="162" y="143.977" fill="#E6E7E8" width="6" height="6"/>
	<rect x="162" y="137.988" fill="#BCBEC0" width="6" height="6"/>
	<rect x="126" y="132.016" fill="#C6C8C9" width="6" height="6"/>
	<rect x="132" y="132.016" fill="#C6C8C9" width="6" height="6"/>
	<rect x="138" y="132.016" fill="#C6C8C9" width="6" height="6"/>
	<rect x="144" y="132.016" fill="#AFAFA2" width="6" height="6"/>
	<rect x="126" y="137.988" fill="#AA6D2D" width="6" height="6"/>
	<rect x="132" y="137.988" fill="#EFC8A6" width="6" height="6"/>
	<rect x="126" y="137.988" fill="#FFFFFF" width="6" height="6"/>
	<rect x="138" y="137.992" fill="#EFC8A6" width="6" height="6"/>
	<rect x="144" y="137.992" fill="#AFAFA2" width="6" height="6"/>
	<rect x="126" y="143.984" fill="#EFC8A6" width="6" height="6"/>
	<rect x="132" y="143.984" fill="#EFD1B8" width="6" height="6"/>
	<rect x="138" y="143.984" fill="#EFC8A6" width="6" height="6"/>
	<rect x="144" y="143.977" fill="#EFC8A6" width="6" height="6"/>
	<rect x="126" y="149.977" fill="#EFD1B8" width="6" height="6"/>
	<rect x="132" y="149.977" fill="#E5B29B" width="6" height="6"/>
	<rect x="138" y="149.977" fill="#EFC8A6" width="6" height="6"/>
	<rect x="144" y="149.977" fill="#ADAFB2" width="6" height="6"/>
	<rect x="150" y="120.012" fill="#A7A9AC" width="6" height="6"/>
	<rect x="156" y="120.012" fill="#E6E7E8" width="6" height="6"/>
	<rect x="114" y="120.016" fill="#EFD1B8" width="6" height="6"/>
	<rect x="114" y="114.027" fill="#C79C89" width="6" height="6.004"/>
	<rect x="114" y="108.023" fill="#EFD1B8" width="6" height="6"/>
	<rect x="120" y="114.023" fill="#E5B29B" width="6" height="6"/>
	<rect x="126" y="114.027" fill="#C79C89" width="6" height="6.004"/>
	<rect x="132" y="114.027" fill="#EFC8A6" width="6" height="6.004"/>
	<rect x="138" y="114.027" fill="#EFC8A6" width="6" height="6.004"/>
	<rect x="144" y="114.023" fill="#EEBFA2" width="6" height="6"/>
	<rect x="150" y="114.023" fill="#E6E7E8" width="6" height="6"/>
	<rect x="120" y="108.023" fill="#EFD1B8" width="6" height="6"/>
	<rect x="120" y="102.023" fill="#5A5B5E" width="6" height="6"/>
	<rect x="126" y="96.023" fill="#939598" width="6" height="6"/>
	<rect x="126" y="102.023" fill="#5A5B5E" width="6" height="6"/>
	<rect x="132" y="102.023" fill="#939598" width="6" height="6"/>
	<rect x="138" y="102.023" fill="#BCBEC0" width="6" height="6"/>
	<rect x="144" y="102.023" fill="#AFAFA2" width="6" height="6"/>
	<rect x="150" y="108.023" fill="#939598" width="6" height="6"/>
	<rect x="150" y="102.023" fill="#939598" width="6" height="6"/>
	<rect x="132" y="96.023" fill="#BCBEC0" width="6" height="6"/>
	<rect x="138" y="96.023" fill="#AFAFA2" width="6" height="6"/>
	<rect x="144" y="96.023" fill="#939598" width="6" height="6"/>
	<rect x="150.004" y="96.023" fill="#C7C4BC" width="6" height="6"/>
	<rect x="156" y="108.023" fill="#E6E7E8" width="6" height="6"/>
	<rect x="126" y="108.023" fill="#EFC8A6" width="6" height="6"/>
	<rect x="132" y="108.023" fill="#EFC8A6" width="6" height="6"/>
	<rect x="138" y="108.023" fill="#EFC8A6" width="6" height="6"/>
	<rect x="144" y="108.023" fill="#EFD1B8" width="6" height="6"/>
	<rect x="156" y="114.023" fill="#E6E7E8" width="6" height="6"/>
	<rect x="150" y="126.012" fill="#A7A9AC" width="6" height="6"/>
	<rect x="156" y="126.012" fill="#A7A9AC" width="6" height="6"/>
	<rect x="150" y="132.012" fill="#808285" width="6" height="6"/>
	<rect x="156" y="132.012" fill="#BCBEC0" width="6" height="6"/>
	<rect x="162" y="120.012" fill="#E6E7E8" width="6" height="6"/>
	<rect x="162" y="114.023" fill="#A7A9AC" width="6" height="6"/>
	<rect x="168" y="114.023" fill="#C7C4BC" width="6" height="6"/>
	<rect x="162" y="108.023" fill="#C7C4BC" width="6" height="6"/>
	<rect x="156" y="102.023" fill="#939598" width="6" height="6"/>
	<rect x="156" y="96.023" fill="#C7C4BC" width="6" height="6"/>
	<rect x="162" y="102.023" fill="#C7C4BC" width="6" height="6"/>
	<rect x="168" y="108.023" fill="#C7C4BC" width="6" height="6"/>
	<rect x="168" y="102.023" fill="#C7C4BC" width="6" height="6"/>
	<rect x="162" y="96.023" fill="#C7C4BC" width="6" height="6"/>
	<rect x="132" y="90.023" fill="#BCBEC0" width="6" height="6"/>
	<rect x="138" y="90.023" fill="#BCBEC0" width="6" height="6"/>
	<rect x="144" y="90.023" fill="#C7C4BC" width="6" height="6"/>
	<rect x="150.004" y="90.023" fill="#C7C4BC" width="6" height="6"/>
	<rect x="156" y="90.023" fill="#C7C4BC" width="6" height="6"/>
	<rect x="162" y="126.012" fill="#E6E7E8" width="6" height="6"/>
	<rect x="168" y="120.012" fill="#808285" width="6" height="6"/>
	<rect x="168" y="126.012" fill="#A7A9AC" width="6" height="6"/>
	<rect x="162" y="149.992" fill="#C7C4BC" width="6" height="6"/>
	<rect x="162" y="132.012" fill="#A7A9AC" width="6" height="6"/>
	<rect x="168" y="143.977" fill="#BCBEC0" width="6" height="6"/>
	<rect x="173.938" y="150.047" fill="#BCBEC0" width="6" height="6"/>
	<rect x="173.938" y="155.988" fill="#BCBEC0" width="6" height="6"/>
	<rect x="173.938" y="161.996" fill="#AFAFA2" width="6" height="6"/>
	<rect x="180" y="155.988" fill="#BCBEC0" width="6" height="6"/>
	<rect x="180" y="161.977" fill="#BCBEC0" width="6" height="6"/>
	<rect x="173.938" y="167.977" fill="#C7C4BC" width="6" height="6"/>
	<rect x="180" y="167.977" fill="#AFAFA2" width="6" height="6"/>
	<rect x="173.938" y="173.977" fill="#DFE0E1" width="6" height="6"/>
	<rect x="173.938" y="179.977" fill="#C7C4BC" width="6" height="6"/>
	<rect x="180" y="173.977" fill="#DFE0E1" width="6" height="6"/>
	<rect x="180" y="179.977" fill="#DFE0E1" width="6" height="6"/>
	<rect x="180" y="185.977" fill="#C7C4BC" width="6" height="6"/>
	<rect x="168" y="149.992" fill="#BCBEC0" width="6" height="6"/>
	<rect x="168" y="155.996" fill="#C7C4BC" width="6" height="6"/>
	<rect x="168" y="161.996" fill="#BCBEC0" width="6" height="6"/>
	<rect x="168" y="137.988" fill="#C7C4BC" width="6" height="6"/>
	<rect x="173.938" y="143.977" fill="#C7C4BC" width="6" height="6"/>
	<rect x="168" y="132.012" fill="#E6E7E8" width="6" height="6"/>
	<rect x="173.938" y="114.023" fill="#C7C4BC" width="6" height="6"/>
	<rect x="173.938" y="120.012" fill="#808285" width="6" height="6"/>
	<rect x="173.938" y="126.012" fill="#A7A9AC" width="6" height="6"/>
	<rect x="173.938" y="132.012" fill="#C7C4BC" width="6" height="6"/>
	<rect x="173.938" y="137.992" fill="#E6E7E8" width="6" height="6"/>
	<rect x="180" y="143.977" fill="#E6E7E8" width="6" height="6"/>
	<rect x="180" y="149.988" fill="#C7C4BC" width="6" height="6"/>
	<rect x="186" y="155.988" fill="#E6E7E8" width="6" height="6"/>
	<rect x="186" y="161.977" fill="#BCBEC0" width="6" height="6"/>
	<rect x="186" y="167.977" fill="#C7C4BC" width="6" height="6"/>
	<rect x="186" y="173.977" fill="#AFAFA2" width="6" height="6"/>
	<rect x="186" y="179.977" fill="#BCBEC0" width="6" height="6"/>
	<rect x="192" y="161.977" fill="#BCBEC0" width="6" height="6"/>
	<rect x="192" y="167.977" fill="#BCBEC0" width="6" height="6"/>
	<rect x="192" y="179.977" fill="#BCBEC0" width="6" height="6"/>
	<rect x="192" y="185.977" fill="#BCBEC0" width="6" height="6"/>
	<rect x="186" y="185.977" fill="#DFE0E1" width="6" height="6"/>
	<rect x="186" y="191.977" fill="#C7C4BC" width="6" height="6"/>
	<rect x="186" y="143.977" fill="#C7C4BC" width="6" height="6"/>
	<rect x="186" y="149.988" fill="#E6E7E8" width="6" height="6"/>
	<rect x="180" y="132.012" fill="#C7C4BC" width="6" height="6"/>
	<rect x="180" y="137.992" fill="#C7C4BC" width="6" height="6"/>
</g>
</svg>
