<?xml version="1.0" encoding="utf-8"?>
<!-- Generator: Adobe Illustrator 16.0.0, SVG Export Plug-In . SVG Version: 6.00 Build 0)  -->
<!DOCTYPE svg PUBLIC "-//W3C//DTD SVG 1.1//EN" "http://www.w3.org/Graphics/SVG/1.1/DTD/svg11.dtd">
<svg version="1.1" id="Layer_1" xmlns="http://www.w3.org/2000/svg" xmlns:xlink="http://www.w3.org/1999/xlink" x="0px" y="0px"
	 width="300px" height="300px" viewBox="0 0 300 300" enable-background="new 0 0 300 300" xml:space="preserve">
<g>
	<rect x="123.75" y="82.588" fill="#C2B59B" width="7.5" height="7.5"/>
	<rect x="131.25" y="82.588" fill="#726658" width="7.5" height="7.5"/>
	<rect x="138.75" y="82.588" fill="#C2B59B" width="7.5" height="7.5"/>
	<rect x="146.25" y="82.588" fill="#C2B59B" width="7.5" height="7.5"/>
	<rect x="116.25" y="97.568" fill="#3C2415" width="7.5" height="7.5"/>
	<rect x="123.75" y="97.568" fill="#603913" width="7.5" height="7.5"/>
	<rect x="131.25" y="97.568" fill="#9B8579" width="7.5" height="7.5"/>
	<rect x="138.75" y="97.568" fill="#C2B59B" width="7.5" height="7.5"/>
	<rect x="146.25" y="97.568" fill="#C2B59B" width="7.5" height="7.5"/>
	<rect x="153.75" y="97.568" fill="#726658" width="7.5" height="7.5"/>
	<rect x="116.25" y="105.068" fill="#EFD1B8" width="7.5" height="7.5"/>
	<rect x="123.75" y="105.068" fill="#AD8D75" width="7.5" height="7.5"/>
	<rect x="131.25" y="105.068" fill="#603913" width="7.5" height="7.5"/>
	<rect x="138.75" y="105.068" fill="#9B8579" width="7.5" height="7.5"/>
	<rect x="146.25" y="105.068" fill="#9B8579" width="7.5" height="7.5"/>
	<rect x="153.75" y="105.068" fill="#C2B59B" width="7.5" height="7.5"/>
	<rect x="116.25" y="112.568" fill="#EFD1B8" width="7.5" height="7.5"/>
	<rect x="123.75" y="112.568" fill="#EFD1B8" width="7.5" height="7.5"/>
	<rect x="116.25" y="120.039" fill="#F7E0CF" width="7.5" height="7.5"/>
	<rect x="123.75" y="120.039" fill="#F7E0CF" width="7.5" height="7.5"/>
	<rect x="116.25" y="134.99" fill="#231F20" width="7.5" height="7.5"/>
	<rect x="123.75" y="134.99" fill="#7F95A5" width="7.5" height="7.5"/>
	<rect x="116.25" y="142.51" fill="#EFD1B8" width="7.5" height="7.5"/>
	<rect x="123.75" y="142.51" fill="#231F20" width="7.5" height="7.5"/>
	<rect x="116.25" y="149.99" fill="#AD8D75" width="7.5" height="7.5"/>
	<rect x="108.75" y="142.51" fill="#EFD1B8" width="7.5" height="7.5"/>
	<rect x="101.25" y="142.51" fill="#EFD1B8" width="7.5" height="7.5"/>
	<rect x="108.75" y="134.99" fill="#EFD1B8" width="7.5" height="7.5"/>
	<rect x="123.75" y="149.99" fill="#AD8D75" width="7.5" height="7.5"/>
	<rect x="138.75" y="149.99" fill="#C2B59B" width="7.5" height="7.5"/>
	<rect x="131.25" y="149.99" fill="#AD8D75" width="7.5" height="7.5"/>
	<rect x="146.25" y="149.99" fill="#F7E0CF" width="7.5" height="7.5"/>
	<rect x="161.25" y="149.99" fill="#D7BFAA" width="7.5" height="7.5"/>
	<rect x="153.75" y="149.99" fill="#EFD1B8" width="7.5" height="7.5"/>
	<rect x="138.75" y="157.48" fill="#FFFFFF" width="7.5" height="7.5"/>
	<rect x="131.25" y="157.48" fill="#FFFFFF" width="7.5" height="7.5"/>
	<rect x="146.25" y="157.48" fill="#FFFFFF" width="7.5" height="7.5"/>
	<rect x="153.75" y="157.48" fill="#D28F8C" width="7.5" height="7.5"/>
	<rect x="138.75" y="164.961" fill="#D28F8C" width="7.5" height="7.5"/>
	<rect x="131.25" y="164.961" fill="#D28F8C" width="7.5" height="7.5"/>
	<rect x="146.25" y="164.961" fill="#D28F8C" width="7.5" height="7.5"/>
	<rect x="153.75" y="164.961" fill="#D7BFAA" width="7.5" height="7.5"/>
	<rect x="138.75" y="172.461" fill="#AD8D75" width="7.5" height="7.5"/>
	<rect x="131.25" y="172.461" fill="#AD8D75" width="7.5" height="7.5"/>
	<rect x="146.25" y="172.461" fill="#C2B59B" width="7.5" height="7.5"/>
	<rect x="138.75" y="187.412" fill="#D7BFAA" width="7.5" height="7.5"/>
	<rect x="146.25" y="187.412" fill="#D7BFAA" width="7.5" height="7.5"/>
	<rect x="138.75" y="194.912" fill="#EFD1B8" width="7.5" height="7.5"/>
	<rect x="146.25" y="194.912" fill="#EFD1B8" width="7.5" height="7.5"/>
	<rect x="153.75" y="187.412" fill="#EFD1B8" width="7.5" height="7.5"/>
	<rect x="138.75" y="179.961" fill="#D7BFAA" width="7.5" height="7.5"/>
	<rect x="146.25" y="179.961" fill="#D7BFAA" width="7.5" height="7.5"/>
	<rect x="153.75" y="179.961" fill="#EFD1B8" width="7.5" height="7.5"/>
	<rect x="153.75" y="172.461" fill="#D7BFAA" width="7.5" height="7.5"/>
	<rect x="161.25" y="172.461" fill="#EFD1B8" width="7.5" height="7.5"/>
	<rect x="161.25" y="194.912" fill="#939598" width="7.5" height="7.5"/>
	<rect x="153.75" y="194.912" fill="#EFD1B8" width="7.5" height="7.5"/>
	<rect x="131.25" y="194.912" fill="#939598" width="7.5" height="7.5"/>
	<rect x="161.25" y="187.412" fill="#EAB0B2" width="7.5" height="7.5"/>
	<rect x="168.75" y="187.412" fill="#C3D2E0" width="7.5" height="7.5"/>
	<rect x="131.25" y="187.412" fill="#EAB0B2" width="7.5" height="7.5"/>
	<rect x="123.75" y="187.412" fill="#C3D2E0" width="7.5" height="7.5"/>
	<rect x="123.75" y="194.912" fill="#323133" width="7.5" height="7.5"/>
	<rect x="168.75" y="194.912" fill="#323133" width="7.5" height="7.5"/>
	<rect x="176.25" y="194.912" fill="#323133" width="7.5" height="7.5"/>
	<rect x="183.75" y="194.912" fill="#323133" width="7.5" height="7.5"/>
	<rect x="138.75" y="209.912" fill="#939598" width="7.5" height="7.5"/>
	<rect x="146.25" y="209.912" fill="#665219" width="7.5" height="7.5"/>
	<rect x="161.25" y="209.912" fill="#C3D2E0" width="7.5" height="7.5"/>
	<rect x="153.75" y="209.912" fill="#939598" width="7.5" height="7.5"/>
	<rect x="131.25" y="209.912" fill="#C3D2E0" width="7.5" height="7.5"/>
	<rect x="123.75" y="209.912" fill="#323133" width="7.5" height="7.5"/>
	<rect x="116.25" y="209.912" fill="#323133" width="7.5" height="7.5"/>
	<rect x="168.75" y="209.912" fill="#323133" width="7.5" height="7.5"/>
	<rect x="176.25" y="209.912" fill="#323133" width="7.5" height="7.5"/>
	<rect x="183.75" y="209.912" fill="#323133" width="7.5" height="7.5"/>
	<rect x="191.25" y="209.912" fill="#323133" width="7.5" height="7.5"/>
	<rect x="138.75" y="224.912" fill="#939598" width="7.5" height="7.5"/>
	<rect x="146.25" y="224.912" fill="#665219" width="7.5" height="7.5"/>
	<rect x="161.25" y="224.912" fill="#C3D2E0" width="7.5" height="7.5"/>
	<rect x="153.75" y="224.912" fill="#939598" width="7.5" height="7.5"/>
	<rect x="131.25" y="224.912" fill="#C3D2E0" width="7.5" height="7.5"/>
	<rect x="123.75" y="224.912" fill="#1A1818" width="7.5" height="7.5"/>
	<rect x="116.25" y="224.912" fill="#323133" width="7.5" height="7.5"/>
	<rect x="168.75" y="224.912" fill="#323133" width="7.5" height="7.5"/>
	<rect x="176.25" y="224.912" fill="#1A1818" width="7.5" height="7.5"/>
	<rect x="183.75" y="224.912" fill="#323133" width="7.5" height="7.5"/>
	<rect x="191.25" y="224.912" fill="#323133" width="7.5" height="7.5"/>
	<rect x="138.75" y="202.412" fill="#C3D2E0" width="7.5" height="7.5"/>
	<rect x="146.25" y="202.412" fill="#95681C" width="7.5" height="7.5"/>
	<rect x="161.25" y="202.412" fill="#EAB0B2" width="7.5" height="7.5"/>
	<rect x="153.75" y="202.412" fill="#C3D2E0" width="7.5" height="7.5"/>
	<rect x="131.25" y="202.412" fill="#EAB0B2" width="7.5" height="7.5"/>
	<rect x="123.75" y="202.412" fill="#323133" width="7.5" height="7.5"/>
	<rect x="116.25" y="202.412" fill="#323133" width="7.5" height="7.5"/>
	<rect x="168.75" y="202.412" fill="#323133" width="7.5" height="7.5"/>
	<rect x="176.25" y="202.412" fill="#323133" width="7.5" height="7.5"/>
	<rect x="183.75" y="202.412" fill="#323133" width="7.5" height="7.5"/>
	<rect x="191.25" y="202.412" fill="#323133" width="7.5" height="7.5"/>
	<rect x="138.75" y="217.412" fill="#EAB0B2" width="7.5" height="7.5"/>
	<rect x="146.25" y="217.412" fill="#665219" width="7.5" height="7.5"/>
	<rect x="161.25" y="217.412" fill="#C3D2E0" width="7.5" height="7.5"/>
	<rect x="153.75" y="217.412" fill="#EAB0B2" width="7.5" height="7.5"/>
	<rect x="131.25" y="217.412" fill="#C3D2E0" width="7.5" height="7.5"/>
	<rect x="123.75" y="217.412" fill="#323133" width="7.5" height="7.5"/>
	<rect x="116.25" y="217.412" fill="#323133" width="7.5" height="7.5"/>
	<rect x="168.75" y="217.412" fill="#323133" width="7.5" height="7.5"/>
	<rect x="176.25" y="217.412" fill="#323133" width="7.5" height="7.5"/>
	<rect x="183.75" y="217.412" fill="#323133" width="7.5" height="7.5"/>
	<rect x="191.25" y="217.412" fill="#323133" width="7.5" height="7.5"/>
	<rect x="168.75" y="149.99" fill="#EFD1B8" width="7.5" height="7.5"/>
	<rect x="161.25" y="142.51" fill="#EFD1B8" width="7.5" height="7.5"/>
	<rect x="168.75" y="142.51" fill="#EFD1B8" width="7.5" height="7.5"/>
	<rect x="161.25" y="164.961" fill="#D7BFAA" width="7.5" height="7.5"/>
	<rect x="168.75" y="164.961" fill="#EFD1B8" width="7.5" height="7.5"/>
	<rect x="161.25" y="157.48" fill="#D7BFAA" width="7.5" height="7.5"/>
	<rect x="168.75" y="157.48" fill="#EFD1B8" width="7.5" height="7.5"/>
	<rect x="161.25" y="134.99" fill="#AD8D75" width="7.5" height="7.5"/>
	<rect x="168.75" y="134.99" fill="#EFD1B8" width="7.5" height="7.5"/>
	<rect x="161.25" y="120.039" fill="#9B8579" width="7.5" height="7.5"/>
	<rect x="168.75" y="120.039" fill="#9B8579" width="7.5" height="7.5"/>
	<rect x="176.25" y="134.99" fill="#EFD1B8" width="7.5" height="7.5"/>
	<rect x="176.25" y="127.51" fill="#9B8579" width="7.5" height="7.5"/>
	<rect x="131.25" y="112.568" fill="#AD8D75" width="7.5" height="7.5"/>
	<rect x="138.75" y="112.568" fill="#3C2415" width="7.5" height="7.5"/>
	<rect x="146.25" y="112.568" fill="#603913" width="7.5" height="7.5"/>
	<rect x="153.75" y="112.568" fill="#9B8579" width="7.5" height="7.5"/>
	<rect x="131.25" y="120.039" fill="#EFD1B8" width="7.5" height="7.5"/>
	<rect x="138.75" y="120.039" fill="#EFD1B8" width="7.5" height="7.5"/>
	<rect x="146.25" y="120.039" fill="#AD8D75" width="7.5" height="7.5"/>
	<rect x="153.75" y="120.039" fill="#603913" width="7.5" height="7.5"/>
	<rect x="116.25" y="127.51" fill="#231F20" width="7.5" height="7.5"/>
	<rect x="123.75" y="127.51" fill="#231F20" width="7.5" height="7.5"/>
	<rect x="161.25" y="127.51" fill="#3C2415" width="7.5" height="7.5"/>
	<rect x="168.75" y="127.51" fill="#231F20" width="7.5" height="7.5"/>
	<rect x="131.25" y="127.51" fill="#231F20" width="7.5" height="7.5"/>
	<rect x="138.75" y="127.51" fill="#231F20" width="7.5" height="7.5"/>
	<rect x="146.25" y="127.51" fill="#231F20" width="7.5" height="7.5"/>
	<rect x="153.75" y="127.51" fill="#231F20" width="7.5" height="7.5"/>
	<rect x="131.25" y="134.99" fill="#FFFFFF" width="7.5" height="7.5"/>
	<rect x="138.75" y="134.99" fill="#3C2415" width="7.5" height="7.5"/>
	<rect x="146.25" y="134.99" fill="#EFD1B8" width="7.5" height="7.5"/>
	<rect x="153.75" y="134.99" fill="#EFD1B8" width="7.5" height="7.5"/>
	<rect x="131.25" y="142.49" fill="#3C2415" width="7.5" height="7.5"/>
	<rect x="138.75" y="142.49" fill="#F7E0CF" width="7.5" height="7.5"/>
	<rect x="146.25" y="142.49" fill="#EFD1B8" width="7.5" height="7.5"/>
	<rect x="153.75" y="142.49" fill="#EFD1B8" width="7.5" height="7.5"/>
	<rect x="161.25" y="97.568" fill="#C2B59B" width="7.5" height="7.5"/>
	<rect x="168.75" y="97.568" fill="#C2B59B" width="7.5" height="7.5"/>
	<rect x="116.25" y="90.088" fill="#9B8579" width="7.5" height="7.5"/>
	<rect x="123.75" y="90.088" fill="#9B8579" width="7.5" height="7.5"/>
	<rect x="131.25" y="90.088" fill="#C2B59B" width="7.5" height="7.5"/>
	<rect x="138.75" y="90.088" fill="#726658" width="7.5" height="7.5"/>
	<rect x="146.25" y="90.088" fill="#726658" width="7.5" height="7.5"/>
	<rect x="153.75" y="90.088" fill="#C2B59B" width="7.5" height="7.5"/>
	<rect x="161.25" y="90.088" fill="#C2B59B" width="7.5" height="7.5"/>
	<rect x="153.75" y="82.588" fill="#C2B59B" width="7.5" height="7.5"/>
	<rect x="138.75" y="75.088" fill="#C2B59B" width="7.5" height="7.5"/>
	<rect x="161.25" y="82.588" fill="#C2B59B" width="7.5" height="7.5"/>
	<rect x="146.25" y="75.088" fill="#726658" width="7.5" height="7.5"/>
	<rect x="153.75" y="75.088" fill="#C2B59B" width="7.5" height="7.5"/>
	<rect x="161.25" y="75.088" fill="#C2B59B" width="7.5" height="7.5"/>
	<rect x="153.75" y="67.588" fill="#C2B59B" width="7.5" height="7.5"/>
	<rect x="161.25" y="67.588" fill="#C2B59B" width="7.5" height="7.5"/>
	<rect x="168.75" y="90.088" fill="#726658" width="7.5" height="7.5"/>
	<rect x="176.25" y="97.568" fill="#C2B59B" width="7.5" height="7.5"/>
	<rect x="176.25" y="90.088" fill="#726658" width="7.5" height="7.5"/>
	<rect x="168.75" y="82.588" fill="#C2B59B" width="7.5" height="7.5"/>
	<rect x="176.25" y="82.588" fill="#C2B59B" width="7.5" height="7.5"/>
	<rect x="168.75" y="75.088" fill="#C2B59B" width="7.5" height="7.5"/>
	<rect x="168.75" y="67.588" fill="#C2B59B" width="7.5" height="7.5"/>
	<rect x="176.25" y="75.088" fill="#C2B59B" width="7.5" height="7.5"/>
	<rect x="161.25" y="105.068" fill="#726658" width="7.5" height="7.5"/>
	<rect x="168.75" y="105.068" fill="#726658" width="7.5" height="7.5"/>
	<rect x="161.25" y="112.568" fill="#C2B59B" width="7.5" height="7.5"/>
	<rect x="168.75" y="112.568" fill="#C2B59B" width="7.5" height="7.5"/>
	<rect x="176.25" y="120.039" fill="#9B8579" width="7.5" height="7.5"/>
	<rect x="176.25" y="142.51" fill="#EFD1B8" width="7.5" height="7.5"/>
	<rect x="176.25" y="105.068" fill="#726658" width="7.5" height="7.5"/>
	<rect x="176.25" y="112.568" fill="#C2B59B" width="7.5" height="7.5"/>
	<rect x="183.75" y="97.568" fill="#C2B59B" width="7.5" height="7.5"/>
	<rect x="183.75" y="90.088" fill="#726658" width="7.5" height="7.5"/>
	<rect x="183.75" y="82.588" fill="#C2B59B" width="7.5" height="7.5"/>
	<rect x="183.75" y="105.068" fill="#726658" width="7.5" height="7.5"/>
	<rect x="183.75" y="112.568" fill="#C2B59B" width="7.5" height="7.5"/>
	<rect x="183.75" y="120.039" fill="#C2B59B" width="7.5" height="7.5"/>
	<rect x="183.75" y="127.51" fill="#9B8579" width="7.5" height="7.5"/>
	<rect x="183.75" y="134.99" fill="#9B8579" width="7.5" height="7.5"/>
</g>
</svg>
