<?xml version="1.0" encoding="utf-8"?>
<!-- Generator: Adobe Illustrator 16.0.0, SVG Export Plug-In . SVG Version: 6.00 Build 0)  -->
<!DOCTYPE svg PUBLIC "-//W3C//DTD SVG 1.1//EN" "http://www.w3.org/Graphics/SVG/1.1/DTD/svg11.dtd">
<svg version="1.1" id="Layer_1" xmlns="http://www.w3.org/2000/svg" xmlns:xlink="http://www.w3.org/1999/xlink" x="0px" y="0px"
	 width="300px" height="300px" viewBox="0 0 300 300" enable-background="new 0 0 300 300" xml:space="preserve">
<g>
	<rect x="112.656" y="100.513" fill="#9B724E" width="7.5" height="7.5"/>
	<rect x="105.156" y="100.513" fill="#4D301C" width="7.5" height="7.5"/>
	<rect x="105.156" y="108.013" fill="#734A1D" width="7.5" height="7.5"/>
	<rect x="120.156" y="100.513" fill="#4D301C" width="7.5" height="7.5"/>
	<rect x="127.656" y="100.513" fill="#4D301C" width="7.5" height="7.5"/>
	<rect x="135.156" y="100.513" fill="#4D301C" width="7.5" height="7.5"/>
	<rect x="142.656" y="100.513" fill="#734A1D" width="7.5" height="7.5"/>
	<rect x="150.156" y="100.513" fill="#4D301C" width="7.5" height="7.5"/>
	<rect x="112.656" y="108.013" fill="#EDD69F" width="7.5" height="7.5"/>
	<rect x="120.156" y="108.013" fill="#EDD69F" width="7.5" height="7.5"/>
	<rect x="127.656" y="108.013" fill="#EDD69F" width="7.5" height="7.5"/>
	<rect x="135.156" y="108.013" fill="#EDD69F" width="7.5" height="7.5"/>
	<rect x="142.656" y="108.013" fill="#734A1D" width="7.5" height="7.5"/>
	<rect x="112.656" y="115.513" fill="#EDD69F" width="7.5" height="7.5"/>
	<rect x="120.156" y="115.513" fill="#9B724E" width="7.5" height="7.5"/>
	<rect x="127.656" y="115.513" fill="#9B724E" width="7.5" height="7.5"/>
	<rect x="135.156" y="115.513" fill="#EDD69F" width="7.5" height="7.5"/>
	<rect x="142.656" y="115.513" fill="#EDD69F" width="7.5" height="7.5"/>
	<rect x="150.156" y="108.013" fill="#EDD69F" width="7.5" height="7.5"/>
	<rect x="112.5" y="123.013" fill="#EDD69F" width="7.5" height="7.5"/>
	<rect x="120" y="123.013" fill="#EDD69F" width="7.5" height="7.5"/>
	<rect x="112.5" y="130.483" fill="#EDD69F" width="7.5" height="7.5"/>
	<rect x="120" y="130.483" fill="#4D301C" width="7.5" height="7.5"/>
	<rect x="112.5" y="137.969" fill="#EDD69F" width="7.5" height="7.5"/>
	<rect x="120" y="137.969" fill="#EDD69F" width="7.5" height="7.5"/>
	<rect x="112.5" y="145.483" fill="#EDD69F" width="7.5" height="7.5"/>
	<rect x="120" y="145.483" fill="#EDD69F" width="7.5" height="7.5"/>
	<rect x="112.5" y="152.969" fill="#4D301C" width="7.5" height="7.5"/>
	<rect x="105" y="145.469" fill="#EDD69F" width="7.5" height="7.5"/>
	<rect x="105" y="137.969" fill="#EDD69F" width="7.5" height="7.5"/>
	<rect x="120" y="152.969" fill="#4D301C" width="7.5" height="7.5"/>
	<rect x="135" y="152.969" fill="#4D301C" width="7.5" height="7.5"/>
	<rect x="127.5" y="152.969" fill="#734A1D" width="7.5" height="7.5"/>
	<rect x="142.5" y="152.969" fill="#734A1D" width="7.5" height="7.5"/>
	<rect x="157.5" y="152.969" fill="#4D301C" width="7.5" height="7.5"/>
	<rect x="150" y="152.969" fill="#EDD69F" width="7.5" height="7.5"/>
	<rect x="135" y="160.454" fill="#FFFFFF" width="7.5" height="7.5"/>
	<rect x="127.5" y="160.454" fill="#FFFFFF" width="7.5" height="7.5"/>
	<rect x="142.5" y="160.454" fill="#FFFFFF" width="7.5" height="7.5"/>
	<rect x="150" y="160.454" fill="#A9958A" width="7.5" height="7.5"/>
	<rect x="135" y="167.939" fill="#C7293B" width="7.5" height="7.5"/>
	<rect x="127.5" y="167.939" fill="#C7293B" width="7.5" height="7.5"/>
	<rect x="142.5" y="167.939" fill="#C7293B" width="7.5" height="7.5"/>
	<rect x="150" y="167.939" fill="#4D301C" width="7.5" height="7.5"/>
	<rect x="135" y="175.439" fill="#4D301C" width="7.5" height="7.5"/>
	<rect x="127.5" y="175.439" fill="#4D301C" width="7.5" height="7.5"/>
	<rect x="142.5" y="175.439" fill="#4D301C" width="7.5" height="7.5"/>
	<rect x="135" y="182.939" fill="#EDD69F" width="7.5" height="7.5"/>
	<rect x="142.5" y="182.939" fill="#EDD69F" width="7.5" height="7.5"/>
	<rect x="135" y="190.439" fill="#EDD69F" width="7.5" height="7.5"/>
	<rect x="142.5" y="190.439" fill="#EDD69F" width="7.5" height="7.5"/>
	<rect x="150" y="182.939" fill="#EDD69F" width="7.5" height="7.5"/>
	<rect x="150" y="175.439" fill="#4D301C" width="7.5" height="7.5"/>
	<rect x="157.5" y="175.439" fill="#EDD69F" width="7.5" height="7.5"/>
	<rect x="157.5" y="182.939" fill="#2F292B" width="7.5" height="7.5"/>
	<rect x="165" y="182.939" fill="#8A281C" width="7.5" height="7.5"/>
	<rect x="165" y="175.439" fill="#525255" width="7.5" height="7.5"/>
	<rect x="172.656" y="175.439" fill="#C7293B" width="7.5" height="7.5"/>
	<rect x="180" y="175.439" fill="#2F292B" width="7.5" height="7.5"/>
	<rect x="172.5" y="182.939" fill="#2F292B" width="7.5" height="7.5"/>
	<rect x="157.5" y="190.439" fill="#C7293B" width="7.5" height="7.5"/>
	<rect x="150" y="190.439" fill="#EDD69F" width="7.5" height="7.5"/>
	<rect x="127.5" y="190.439" fill="#C7293B" width="7.5" height="7.5"/>
	<rect x="120" y="190.439" fill="#525255" width="7.5" height="7.5"/>
	<rect x="120" y="182.939" fill="#C7293B" width="7.5" height="7.5"/>
	<rect x="112.656" y="182.939" fill="#2F292B" width="7.5" height="7.5"/>
	<rect x="165" y="190.439" fill="#2F292B" width="7.5" height="7.5"/>
	<rect x="172.5" y="190.439" fill="#8A281C" width="7.5" height="7.5"/>
	<rect x="180" y="190.439" fill="#2F292B" width="7.5" height="7.5"/>
	<rect x="187.5" y="190.439" fill="#8A281C" width="7.5" height="7.5"/>
	<rect x="135" y="197.939" fill="#EDD69F" width="7.5" height="7.5"/>
	<rect x="142.5" y="197.939" fill="#EDD69F" width="7.5" height="7.5"/>
	<rect x="157.5" y="197.939" fill="#525255" width="7.5" height="7.5"/>
	<rect x="150" y="197.939" fill="#EDD69F" width="7.5" height="7.5"/>
	<rect x="127.5" y="197.939" fill="#2F292B" width="7.5" height="7.5"/>
	<rect x="120" y="197.939" fill="#8A281C" width="7.5" height="7.5"/>
	<rect x="112.5" y="197.939" fill="#2F292B" width="7.5" height="7.5"/>
	<rect x="165" y="197.939" fill="#8A281C" width="7.5" height="7.5"/>
	<rect x="172.5" y="197.939" fill="#2F292B" width="7.5" height="7.5"/>
	<rect x="180" y="197.939" fill="#8A281C" width="7.5" height="7.5"/>
	<rect x="187.5" y="197.939" fill="#2F292B" width="7.5" height="7.5"/>
	<rect x="135" y="205.439" fill="#F3F4F5" width="7.5" height="7.5"/>
	<rect x="142.5" y="205.439" fill="#EDD69F" width="7.5" height="7.5"/>
	<rect x="157.5" y="205.439" fill="#C7293B" width="7.5" height="7.5"/>
	<rect x="150" y="205.439" fill="#F3F4F5" width="7.5" height="7.5"/>
	<rect x="127.5" y="205.439" fill="#C7293B" width="7.5" height="7.5"/>
	<rect x="120" y="205.439" fill="#2F292B" width="7.5" height="7.5"/>
	<rect x="112.5" y="205.439" fill="#8A281C" width="7.5" height="7.5"/>
	<rect x="165" y="205.439" fill="#2F292B" width="7.5" height="7.5"/>
	<rect x="172.5" y="205.439" fill="#8A281C" width="7.5" height="7.5"/>
	<rect x="180" y="205.439" fill="#525255" width="7.5" height="7.5"/>
	<rect x="187.5" y="205.439" fill="#8A281C" width="7.5" height="7.5"/>
	<rect x="135" y="212.939" fill="#F3F4F5" width="7.5" height="7.5"/>
	<rect x="142.5" y="212.939" fill="#EDD69F" width="7.5" height="7.5"/>
	<rect x="157.5" y="212.939" fill="#2F292B" width="7.5" height="7.5"/>
	<rect x="150" y="212.939" fill="#F3F4F5" width="7.5" height="7.5"/>
	<rect x="127.5" y="212.939" fill="#525255" width="7.5" height="7.5"/>
	<rect x="120" y="212.939" fill="#8A281C" width="7.5" height="7.5"/>
	<rect x="112.5" y="212.939" fill="#525255" width="7.5" height="7.5"/>
	<rect x="165" y="212.939" fill="#8A281C" width="7.5" height="7.5"/>
	<rect x="172.5" y="212.939" fill="#2F292B" width="7.5" height="7.5"/>
	<rect x="180" y="212.939" fill="#8A281C" width="7.5" height="7.5"/>
	<rect x="187.5" y="212.939" fill="#2F292B" width="7.5" height="7.5"/>
	<rect x="135" y="220.439" fill="#F3F4F5" width="7.5" height="7.5"/>
	<rect x="142.5" y="220.439" fill="#F3F4F5" width="7.5" height="7.5"/>
	<rect x="157.5" y="220.439" fill="#C7293B" width="7.5" height="7.5"/>
	<rect x="150" y="220.439" fill="#F3F4F5" width="7.5" height="7.5"/>
	<rect x="127.5" y="220.439" fill="#C7293B" width="7.5" height="7.5"/>
	<rect x="120" y="220.439" fill="#2F292B" width="7.5" height="7.5"/>
	<rect x="112.5" y="220.439" fill="#8A281C" width="7.5" height="7.5"/>
	<rect x="165" y="220.439" fill="#525255" width="7.5" height="7.5"/>
	<rect x="172.5" y="220.439" fill="#8A281C" width="7.5" height="7.5"/>
	<rect x="180" y="220.439" fill="#2F292B" width="7.5" height="7.5"/>
	<rect x="187.5" y="220.439" fill="#8A281C" width="7.5" height="7.5"/>
	<rect x="165" y="152.969" fill="#EDD69F" width="7.5" height="7.5"/>
	<rect x="157.5" y="145.483" fill="#4D301C" width="7.5" height="7.5"/>
	<rect x="165" y="145.483" fill="#EDD69F" width="7.5" height="7.5"/>
	<rect x="157.5" y="167.939" fill="#EDD69F" width="7.5" height="7.5"/>
	<rect x="165" y="167.939" fill="#EDD69F" width="7.5" height="7.5"/>
	<rect x="157.5" y="160.454" fill="#4D301C" width="7.5" height="7.5"/>
	<rect x="165" y="160.454" fill="#EDD69F" width="7.5" height="7.5"/>
	<rect x="157.5" y="137.969" fill="#9B724E" width="7.5" height="7.5"/>
	<rect x="165" y="137.969" fill="#A9958A" width="7.5" height="7.5"/>
	<rect x="157.5" y="130.483" fill="#EDD69F" width="7.5" height="7.5"/>
	<rect x="165" y="130.483" fill="#EDD69F" width="7.5" height="7.5"/>
	<rect x="172.5" y="137.969" fill="#EDD69F" width="7.5" height="7.5"/>
	<rect x="172.5" y="145.483" fill="#EDD69F" width="7.5" height="7.5"/>
	<rect x="172.5" y="130.483" fill="#EDD69F" width="7.5" height="7.5"/>
	<rect x="127.5" y="123.013" fill="#EDD69F" width="7.5" height="7.5"/>
	<rect x="142.5" y="123.013" fill="#EDD69F" width="7.5" height="7.5"/>
	<rect x="135" y="123.013" fill="#EDD69F" width="7.5" height="7.5"/>
	<rect x="150" y="123.013" fill="#2F292B" width="7.5" height="7.5"/>
	<rect x="127.5" y="130.483" fill="#FFFFFF" width="7.5" height="7.5"/>
	<rect x="135" y="130.483" fill="#EDD69F" width="7.5" height="7.5"/>
	<rect x="142.5" y="130.483" fill="#EDD69F" width="7.5" height="7.5"/>
	<rect x="150" y="130.483" fill="#4D301C" width="7.5" height="7.5"/>
	<rect x="127.5" y="137.969" fill="#EDD69F" width="7.5" height="7.5"/>
	<rect x="135" y="137.969" fill="#EDD69F" width="7.5" height="7.5"/>
	<rect x="142.5" y="137.969" fill="#EDD69F" width="7.5" height="7.5"/>
	<rect x="150" y="137.969" fill="#EDD69F" width="7.5" height="7.5"/>
	<rect x="127.5" y="145.469" fill="#EDD69F" width="7.5" height="7.5"/>
	<rect x="135" y="145.469" fill="#EDD69F" width="7.5" height="7.5"/>
	<rect x="142.5" y="145.469" fill="#EDD69F" width="7.5" height="7.5"/>
	<rect x="150" y="145.469" fill="#EDD69F" width="7.5" height="7.5"/>
	<rect x="157.656" y="100.513" fill="#734A1D" width="7.5" height="7.5"/>
	<rect x="165.156" y="100.513" fill="#734A1D" width="7.5" height="7.5"/>
	<rect x="135.156" y="85.527" fill="#4D301C" width="7.5" height="7.5"/>
	<rect x="142.656" y="85.527" fill="#734A1D" width="7.5" height="7.5"/>
	<rect x="150" y="85.527" fill="#734A1D" width="7.5" height="7.5"/>
	<rect x="165" y="93.027" fill="#734A1D" width="7.5" height="7.5"/>
	<rect x="172.5" y="93.027" fill="#734A1D" width="7.5" height="7.5"/>
	<rect x="172.5" y="85.527" fill="#734A1D" width="7.5" height="7.5"/>
	<rect x="180" y="85.527" fill="#734A1D" width="7.5" height="7.5"/>
	<rect x="164.854" y="78.027" fill="#B68D63" width="7.5" height="7.5"/>
	<rect x="157.5" y="78.027" fill="#734A1D" width="7.5" height="7.5"/>
	<rect x="172.5" y="100.513" fill="#734A1D" width="7.5" height="7.5"/>
	<rect x="172.5" y="108.013" fill="#4D301C" width="7.5" height="7.5"/>
	<rect x="172.5" y="115.513" fill="#734A1D" width="7.5" height="7.5"/>
	<rect x="180" y="115.513" fill="#4D301C" width="7.5" height="7.5"/>
	<rect x="172.5" y="152.969" fill="#734A1D" width="7.5" height="7.5"/>
	<rect x="180" y="152.969" fill="#734A1D" width="7.5" height="7.5"/>
	<rect x="172.5" y="160.454" fill="#734A1D" width="7.5" height="7.5"/>
	<rect x="180" y="108.013" fill="#734A1D" width="7.5" height="7.5"/>
	<rect x="172.5" y="123.013" fill="#734A1D" width="7.5" height="7.5"/>
	<rect x="157.5" y="85.527" fill="#734A1D" width="7.5" height="7.5"/>
	<rect x="142.5" y="78.027" fill="#B68D63" width="7.5" height="7.5"/>
	<rect x="142.5" y="72.061" fill="#734A1D" width="7.5" height="7.5"/>
	<rect x="150.156" y="72.061" fill="#B68D63" width="7.5" height="7.5"/>
	<rect x="127.656" y="78.027" fill="#4D301C" width="7.5" height="7.5"/>
	<rect x="112.656" y="93.027" fill="#4D301C" width="7.5" height="7.5"/>
	<rect x="120.156" y="93.027" fill="#4D301C" width="7.5" height="7.5"/>
	<rect x="120.156" y="85.527" fill="#734A1D" width="7.5" height="7.5"/>
	<rect x="127.656" y="93.027" fill="#734A1D" width="7.5" height="7.5"/>
	<rect x="127.656" y="85.527" fill="#9B724E" width="7.5" height="7.5"/>
	<rect x="135.156" y="93.027" fill="#734A1D" width="7.5" height="7.5"/>
	<rect x="142.656" y="93.027" fill="#4D301C" width="7.5" height="7.5"/>
	<rect x="150.156" y="93.027" fill="#B68D63" width="7.5" height="7.5"/>
	<rect x="157.656" y="93.027" fill="#4D301C" width="7.5" height="7.5"/>
	<rect x="157.656" y="108.013" fill="#4D301C" width="7.5" height="7.5"/>
	<rect x="157.5" y="130.483" fill="#734A1D" width="7.5" height="7.5"/>
	<rect x="150.156" y="108.013" fill="#734A1D" width="7.5" height="7.5"/>
	<rect x="150.156" y="115.513" fill="#9B724E" width="7.5" height="7.5"/>
	<rect x="157.5" y="115.513" fill="#4D301C" width="7.5" height="7.5"/>
	<rect x="165" y="115.513" fill="#734A1D" width="7.5" height="7.5"/>
	<rect x="165.156" y="108.013" fill="#9B724E" width="7.5" height="7.5"/>
	<rect x="157.5" y="123.013" fill="#2F292B" width="7.5" height="7.5"/>
	<rect x="165" y="123.013" fill="#2F292B" width="7.5" height="7.5"/>
</g>
</svg>
