<?xml version="1.0" encoding="utf-8"?>
<!-- Generator: Adobe Illustrator 15.0.2, SVG Export Plug-In . SVG Version: 6.00 Build 0)  -->
<!DOCTYPE svg PUBLIC "-//W3C//DTD SVG 1.1//EN" "http://www.w3.org/Graphics/SVG/1.1/DTD/svg11.dtd">
<svg version="1.1" id="Layer_1" xmlns="http://www.w3.org/2000/svg" xmlns:xlink="http://www.w3.org/1999/xlink" x="0px" y="0px"
	 width="21px" height="31.485px" viewBox="0 0 21 31.485" enable-background="new 0 0 21 31.485" xml:space="preserve">
<g>
	<rect x="1.5" y="12.005" fill="#EADAB2" width="1.5" height="1.5"/>
	<rect y="12.005" fill="#EADAB2" width="1.5" height="1.5"/>
	<rect x="1.5" y="10.505" fill="#EADAB2" width="1.5" height="1.5"/>
	<rect x="7.5" y="26.985" fill="#00A79D" width="1.5" height="1.5"/>
	<rect x="9" y="26.985" fill="#00A79D" width="1.5" height="1.5"/>
	<rect x="12" y="26.985" fill="#3C2415" width="1.5" height="1.5"/>
	<rect x="10.5" y="26.985" fill="#00A79D" width="1.5" height="1.5"/>
	<rect x="6" y="26.985" fill="#78B7AA" width="1.5" height="1.5"/>
	<rect x="4.5" y="26.985" fill="#3C2415" width="1.5" height="1.5"/>
	<rect x="3" y="26.985" fill="#78B7AA" width="1.5" height="1.5"/>
	<rect x="13.5" y="26.985" fill="#3C2415" width="1.5" height="1.5"/>
	<rect x="15" y="26.985" fill="#3C2415" width="1.5" height="1.5"/>
	<rect x="18" y="26.985" fill="#78B7AA" width="1.5" height="1.5"/>
	<rect x="19.5" y="26.985" fill="#78B7AA" width="1.5" height="1.5"/>
	<rect x="7.5" y="29.985" fill="#FFFFFF" width="1.5" height="1.5"/>
	<rect x="9" y="29.985" fill="#78B7AA" width="1.5" height="1.5"/>
	<rect x="12" y="29.985" fill="#78B7AA" width="1.5" height="1.5"/>
	<rect x="10.5" y="29.985" fill="#FFFFFF" width="1.5" height="1.5"/>
	<rect x="6" y="29.985" fill="#78B7AA" width="1.5" height="1.5"/>
	<rect x="4.5" y="29.985" fill="#78B7AA" width="1.5" height="1.5"/>
	<rect x="3" y="29.985" fill="#EADAB2" width="1.5" height="1.5"/>
	<rect x="13.5" y="29.985" fill="#78B7AA" width="1.5" height="1.5"/>
	<rect x="15" y="29.985" fill="#3C2415" width="1.5" height="1.5"/>
	<rect x="18" y="29.985" fill="#EADAB2" width="1.5" height="1.5"/>
	<rect x="19.5" y="29.985" fill="#EADAB2" width="1.5" height="1.5"/>
	<rect x="7.5" y="25.485" fill="#EADAB2" width="1.5" height="1.5"/>
	<rect x="9" y="25.485" fill="#EADAB2" width="1.5" height="1.5"/>
	<rect x="12" y="25.485" fill="#231F20" width="1.5" height="1.5"/>
	<rect x="10.5" y="25.486" fill="#EADAB2" width="1.5" height="1.5"/>
	<rect x="9" y="23.985" fill="#EADAB2" width="1.5" height="1.5"/>
	<rect x="10.5" y="23.937" fill="#231F20" width="1.5" height="1.5"/>
	<rect x="6" y="25.485" fill="#00A79D" width="1.5" height="1.5"/>
	<rect x="3" y="25.485" fill="#78B7AA" width="1.5" height="1.5"/>
	<rect x="13.5" y="25.485" fill="#334D6B" width="1.5" height="1.5"/>
	<rect x="15" y="25.485" fill="#3C2415" width="1.5" height="1.5"/>
	<rect x="18" y="25.485" fill="#78B7AA" width="1.5" height="1.5"/>
	<rect x="19.5" y="25.485" fill="#78B7AA" width="1.5" height="1.5"/>
	<rect x="3" y="23.999" fill="#78B7AA" width="1.5" height="1.5"/>
	<rect x="7.5" y="28.485" fill="#78B7AA" width="1.5" height="1.5"/>
	<rect x="9" y="28.485" fill="#78B7AA" width="1.5" height="1.5"/>
	<rect x="12" y="28.485" fill="#78B7AA" width="1.5" height="1.5"/>
	<rect x="10.5" y="28.485" fill="#78B7AA" width="1.5" height="1.5"/>
	<rect x="6" y="28.485" fill="#78B7AA" width="1.5" height="1.5"/>
	<rect x="4.5" y="28.485" fill="#78B7AA" width="1.5" height="1.5"/>
	<rect x="3" y="28.485" fill="#00A79D" width="1.5" height="1.5"/>
	<rect x="1.5" y="26.985" fill="#78B7AA" width="1.5" height="1.5"/>
	<rect x="1.5" y="29.985" fill="#EAC4B2" width="1.5" height="1.5"/>
	<rect x="1.5" y="25.485" fill="#78B7AA" width="1.5" height="1.5"/>
	<rect x="1.5" y="28.485" fill="#00A79D" width="1.5" height="1.5"/>
	<rect x="13.5" y="28.485" fill="#3C2415" width="1.5" height="1.5"/>
	<rect x="15" y="28.485" fill="#3C2415" width="1.5" height="1.5"/>
	<rect x="18" y="28.485" fill="#00A79D" width="1.5" height="1.5"/>
	<rect x="19.5" y="28.485" fill="#00A79D" width="1.5" height="1.5"/>
	<rect x="1.5" y="4.5" fill="#C66521" width="1.5" height="1.5"/>
	<rect x="3" y="4.5" fill="#C66521" width="1.5" height="1.5"/>
	<rect x="4.5" y="4.5" fill="#C66521" width="1.5" height="1.5"/>
	<rect x="6" y="4.5" fill="#C66521" width="1.5" height="1.5"/>
	<rect x="7.5" y="4.5" fill="#89461B" width="1.5" height="1.5"/>
	<rect x="9" y="4.5" fill="#C66521" width="1.5" height="1.5"/>
	<rect x="3" y="6" fill="#EADAB2" width="1.5" height="1.5"/>
	<rect x="4.5" y="6" fill="#EADAB2" width="1.5" height="1.5"/>
	<rect x="6" y="6" fill="#EADAB2" width="1.5" height="1.5"/>
	<rect x="7.5" y="6" fill="#A49C80" width="1.5" height="1.5"/>
	<rect x="9" y="6" fill="#B5AA8C" width="1.5" height="1.5"/>
	<rect x="3" y="7.5" fill="#EADAB2" width="1.5" height="1.5"/>
	<rect x="3" y="8.994" fill="#EADAB2" width="1.5" height="1.5"/>
	<rect x="3" y="10.492" fill="#EADAB2" width="1.5" height="1.5"/>
	<rect x="3" y="11.994" fill="#EADAB2" width="1.5" height="1.5"/>
	<rect x="3" y="13.492" fill="#EADAB2" width="1.5" height="1.5"/>
	<rect x="6" y="13.492" fill="#EADAB2" width="1.5" height="1.5"/>
	<rect x="4.5" y="13.492" fill="#EADAB2" width="1.5" height="1.5"/>
	<rect x="7.5" y="13.492" fill="#EAC4B2" width="1.5" height="1.5"/>
	<rect x="10.5" y="13.492" fill="#EADAB2" width="1.5" height="1.5"/>
	<rect x="9" y="13.492" fill="#EAC4B2" width="1.5" height="1.5"/>
	<rect x="6" y="14.988" fill="#FFFFFF" width="1.5" height="1.5"/>
	<rect x="4.5" y="14.988" fill="#FFFFFF" width="1.5" height="1.5"/>
	<rect x="7.5" y="14.988" fill="#FFFFFF" width="1.5" height="1.5"/>
	<rect x="9" y="14.988" fill="#AD6D67" width="1.5" height="1.5"/>
	<rect x="6" y="16.486" fill="#C97D7A" width="1.5" height="1.499"/>
	<rect x="4.5" y="16.486" fill="#C97D7A" width="1.5" height="1.499"/>
	<rect x="7.5" y="16.486" fill="#AD6D67" width="1.5" height="1.499"/>
	<rect x="9" y="16.486" fill="#EADAB2" width="1.5" height="1.499"/>
	<rect x="6" y="17.985" fill="#EADAB2" width="1.5" height="1.5"/>
	<rect x="4.5" y="17.985" fill="#EADAB2" width="1.5" height="1.5"/>
	<rect x="7.5" y="17.985" fill="#EADAB2" width="1.5" height="1.5"/>
	<rect x="6" y="19.485" fill="#EADAB2" width="1.5" height="1.5"/>
	<rect x="7.5" y="19.485" fill="#EADAB2" width="1.5" height="1.5"/>
	<rect x="7.5" y="20.985" fill="#FFFBD7" width="1.5" height="1.5"/>
	<rect x="9" y="19.485" fill="#CDC09D" width="1.5" height="1.5"/>
	<rect x="9" y="17.985" fill="#EADAB2" width="1.5" height="1.5"/>
	<rect x="10.5" y="17.985" fill="#EADAB2" width="1.5" height="1.5"/>
	<rect x="9" y="20.985" fill="#FFFFFF" width="1.5" height="1.5"/>
	<rect x="12" y="20.985" fill="#603913" width="1.5" height="1.5"/>
	<rect x="10.5" y="20.985" fill="#3C2415" width="1.5" height="1.5"/>
	<rect x="9" y="20.985" fill="#EADAB2" width="1.5" height="1.5"/>
	<rect x="9" y="22.485" fill="#EADAB2" width="1.5" height="1.5"/>
	<rect x="10.5" y="22.485" fill="#3C2415" width="1.5" height="1.5"/>
	<rect x="13.5" y="20.985" fill="#231F20" width="1.5" height="1.5"/>
	<rect x="7.5" y="22.485" fill="#EADAB2" width="1.5" height="1.5"/>
	<rect x="12" y="22.485" fill="#8B5E3C" width="1.5" height="1.5"/>
	<rect x="12" y="23.985" fill="#3C2415" width="1.5" height="1.5"/>
	<rect x="7.5" y="23.985" fill="#EADAB2" width="1.5" height="1.5"/>
	<rect x="12" y="13.492" fill="#3C2415" width="1.5" height="1.5"/>
	<rect x="10.5" y="11.994" fill="#3C2415" width="1.5" height="1.5"/>
	<rect x="12" y="11.994" fill="#3C2415" width="1.5" height="1.5"/>
	<rect x="10.5" y="16.486" fill="#EADAB2" width="1.5" height="1.499"/>
	<rect x="12" y="16.486" fill="#3C2415" width="1.5" height="1.499"/>
	<rect x="10.5" y="14.988" fill="#EADAB2" width="1.5" height="1.5"/>
	<rect x="12" y="14.988" fill="#3C2415" width="1.5" height="1.5"/>
	<rect x="10.5" y="10.492" fill="#EADAB2" width="1.5" height="1.5"/>
	<rect x="12" y="10.492" fill="#A49C80" width="1.5" height="1.5"/>
	<rect x="10.5" y="8.994" fill="#EADAB2" width="1.5" height="1.5"/>
	<rect x="12" y="8.994" fill="#B5AA8C" width="1.5" height="1.5"/>
	<rect x="13.5" y="10.492" fill="#B5AA8C" width="1.5" height="1.5"/>
	<rect x="13.5" y="8.994" fill="#B5AA8C" width="1.5" height="1.5"/>
	<rect x="4.5" y="7.498" fill="#B5AA8C" width="1.5" height="1.5"/>
	<rect x="6" y="7.498" fill="#B5AA8C" width="1.5" height="1.5"/>
	<rect x="7.5" y="7.494" fill="#EADAB2" width="1.5" height="1.5"/>
	<rect x="9" y="7.5" fill="#A49C80" width="1.5" height="1.5"/>
	<rect x="4.5" y="8.994" fill="#EADAB2" width="1.5" height="1.5"/>
	<rect x="6" y="8.994" fill="#EADAB2" width="1.5" height="1.5"/>
	<rect x="7.5" y="8.992" fill="#EADAB2" width="1.5" height="1.5"/>
	<rect x="9" y="8.988" fill="#3C2415" width="1.5" height="1.5"/>
	<rect x="4.5" y="10.492" fill="#7E8D7E" width="1.5" height="1.5"/>
	<rect x="6" y="10.492" fill="#FFFFFF" width="1.5" height="1.5"/>
	<rect x="4.5" y="11.992" fill="#EADAB2" width="1.5" height="1.5"/>
	<rect x="6" y="11.992" fill="#EADAB2" width="1.5" height="1.5"/>
	<rect x="7.5" y="10.492" fill="#FFFBD7" width="1.5" height="1.5"/>
	<rect x="9" y="10.492" fill="#EADAB2" width="1.5" height="1.5"/>
	<rect x="7.5" y="11.992" fill="#EAC4B2" width="1.5" height="1.5"/>
	<rect x="9" y="11.992" fill="#EAC4B2" width="1.5" height="1.5"/>
	<rect x="10.5" y="4.5" fill="#C66521" width="1.5" height="1.5"/>
	<rect x="12" y="4.5" fill="#C66521" width="1.5" height="1.5"/>
	<rect x="10.5" y="1.504" fill="#C66521" width="1.5" height="1.5"/>
	<rect x="12" y="1.504" fill="#C66521" width="1.5" height="1.5"/>
	<rect x="12" y="3.004" fill="#C66521" width="1.5" height="1.5"/>
	<rect x="13.5" y="3.004" fill="#C66521" width="1.5" height="1.5"/>
	<rect x="13.5" y="1.504" fill="#C66521" width="1.5" height="1.5"/>
	<rect x="3" y="3.004" fill="#C66521" width="1.5" height="1.5"/>
	<rect x="4.5" y="3.004" fill="#C66521" width="1.5" height="1.5"/>
	<rect x="6" y="3.004" fill="#89461B" width="1.5" height="1.5"/>
	<rect x="7.5" y="3.004" fill="#AB6223" width="1.5" height="1.5"/>
	<rect x="9" y="3.004" fill="#C66521" width="1.5" height="1.5"/>
	<rect x="4.5" y="1.504" fill="#89461B" width="1.5" height="1.5"/>
	<rect x="6" y="1.504" fill="#AB6223" width="1.5" height="1.5"/>
	<rect x="7.5" y="1.504" fill="#AB6223" width="1.5" height="1.5"/>
	<rect x="9" y="1.504" fill="#AB6223" width="1.5" height="1.5"/>
	<rect x="6" fill="#AB6223" width="1.5" height="1.5"/>
	<rect x="7.5" fill="#AB6223" width="1.5" height="1.5"/>
	<rect x="9" fill="#AB6223" width="1.5" height="1.5"/>
	<rect x="10.5" fill="#AB6223" width="1.5" height="1.5"/>
	<rect x="10.5" y="3.004" fill="#C66521" width="1.5" height="1.5"/>
	<rect x="10.5" y="6" fill="#C66521" width="1.5" height="1.5"/>
	<rect x="10.5" y="8.994" fill="#A49C80" width="1.5" height="1.5"/>
	<rect x="10.5" y="10.492" fill="#3C2415" width="1.5" height="1.5"/>
	<rect x="12" y="6" fill="#C66521" width="1.5" height="1.5"/>
	<rect x="13.5" y="6" fill="#C66521" width="1.5" height="1.5"/>
	<rect x="13.5" y="4.5" fill="#C66521" width="1.5" height="1.5"/>
	<rect x="15" y="4.5" fill="#C66521" width="1.5" height="1.5"/>
	<rect x="15" y="2.99" fill="#C66521" width="1.5" height="1.5"/>
	<rect x="13.5" y="7.5" fill="#B5AA8C" width="1.5" height="1.5"/>
	<rect x="15" y="7.5" fill="#C66521" width="1.5" height="1.5"/>
	<rect x="15" y="6" fill="#C66521" width="1.5" height="1.5"/>
	<rect x="15" y="9" fill="#B5AA8C" width="1.5" height="1.5"/>
	<rect x="15" y="10.492" fill="#B5AA8C" width="1.5" height="1.5"/>
	<rect x="15" y="13.494" fill="#603913" width="1.5" height="1.5"/>
	<rect x="15" y="11.994" fill="#3C2415" width="1.5" height="1.5"/>
	<rect x="15" y="14.994" fill="#3C2415" width="1.5" height="1.5"/>
	<rect x="16.5" y="9" fill="#C66521" width="1.5" height="1.5"/>
	<rect x="16.5" y="10.492" fill="#3C2415" width="1.5" height="1.5"/>
	<rect x="16.5" y="7.51" fill="#C66521" width="1.5" height="1.5"/>
	<rect x="16.5" y="6.001" fill="#C66521" width="1.5" height="1.5"/>
	<rect x="16.5" y="11.994" fill="#3C2415" width="1.5" height="1.5"/>
	<rect x="16.5" y="13.494" fill="#3C2415" width="1.5" height="1.5"/>
	<rect x="16.5" y="14.994" fill="#3C2415" width="1.5" height="1.5"/>
	<rect x="13.5" y="13.494" fill="#8B5E3C" width="1.5" height="1.5"/>
	<rect x="13.5" y="11.994" fill="#A49C80" width="1.5" height="1.5"/>
	<rect x="13.5" y="14.994" fill="#603913" width="1.5" height="1.5"/>
	<rect x="15" y="16.486" fill="#3C2415" width="1.5" height="1.499"/>
	<rect x="16.5" y="16.486" fill="#3C2415" width="1.5" height="1.499"/>
	<rect x="13.5" y="16.486" fill="#603913" width="1.5" height="1.499"/>
	<rect x="15" y="17.985" fill="#603913" width="1.5" height="1.5"/>
	<rect x="16.5" y="17.985" fill="#3C2415" width="1.5" height="1.5"/>
	<rect x="13.5" y="22.485" fill="#603913" width="1.5" height="1.5"/>
	<rect x="13.5" y="23.985" fill="#8B5E3C" width="1.5" height="1.5"/>
	<rect x="13.5" y="25.485" fill="#3C2415" width="1.5" height="1.5"/>
	<rect x="15" y="20.985" fill="#3C2415" width="1.5" height="1.5"/>
	<rect x="16.5" y="19.485" fill="#3C2415" width="1.5" height="1.5"/>
	<rect x="15" y="22.485" fill="#3C2415" width="1.5" height="1.5"/>
	<rect x="16.5" y="20.985" fill="#603913" width="1.5" height="1.5"/>
	<rect x="16.5" y="22.485" fill="#3C2415" width="1.5" height="1.5"/>
	<rect x="18" y="14.994" fill="#3C2415" width="1.5" height="1.5"/>
	<rect x="18" y="16.486" fill="#603913" width="1.5" height="1.499"/>
	<rect x="18" y="17.985" fill="#3C2415" width="1.5" height="1.5"/>
	<rect x="18" y="23.985" fill="#78B7AA" width="1.5" height="1.5"/>
	<rect x="16.5" y="26.985" fill="#78B7AA" width="1.5" height="1.5"/>
	<rect x="16.5" y="29.985" fill="#EAC4B2" width="1.5" height="1.5"/>
	<rect x="16.5" y="25.485" fill="#78B7AA" width="1.5" height="1.5"/>
	<rect x="16.5" y="28.485" fill="#00A79D" width="1.5" height="1.5"/>
	<rect x="16.5" y="23.985" fill="#78B7AA" width="1.5" height="1.5"/>
	<rect x="15" y="23.985" fill="#603913" width="1.5" height="1.5"/>
	<rect x="6" y="20.985" fill="#3C2415" width="1.5" height="1.5"/>
	<rect x="6" y="22.485" fill="#3C2415" width="1.5" height="1.5"/>
	<rect x="4.5" y="23.985" fill="#3C2415" width="1.5" height="1.5"/>
	<rect x="4.5" y="20.985" fill="#603913" width="1.5" height="1.5"/>
	<rect x="4.5" y="19.476" fill="#3C2415" width="1.5" height="1.5"/>
	<rect x="4.5" y="22.485" fill="#603913" width="1.5" height="1.5"/>
	<rect x="6" y="23.985" fill="#603913" width="1.5" height="1.5"/>
	<rect x="4.5" y="25.485" fill="#3C2415" width="1.5" height="1.5"/>
	<rect x="13.5" y="17.985" fill="#3C2415" width="1.5" height="1.5"/>
	<rect x="15" y="19.485" fill="#3C2415" width="1.5" height="1.5"/>
	<rect x="13.5" y="19.485" fill="#3C2415" width="1.5" height="1.5"/>
	<rect x="12" y="17.985" fill="#3C2415" width="1.5" height="1.5"/>
	<rect x="12" y="19.485" fill="#603913" width="1.5" height="1.5"/>
	<rect x="10.5" y="19.485" fill="#3C2415" width="1.5" height="1.5"/>
	<rect x="13.5" y="20.985" fill="#3C2415" width="1.5" height="1.5"/>
	<rect x="10.5" y="7.5" fill="#B5AA8C" width="1.5" height="1.5"/>
	<rect x="12" y="7.5" fill="#B5AA8C" width="1.5" height="1.5"/>
</g>
</svg>
