<?xml version="1.0" encoding="utf-8"?>
<!-- Generator: Adobe Illustrator 16.0.0, SVG Export Plug-In . SVG Version: 6.00 Build 0)  -->
<!DOCTYPE svg PUBLIC "-//W3C//DTD SVG 1.1//EN" "http://www.w3.org/Graphics/SVG/1.1/DTD/svg11.dtd">
<svg version="1.1" id="Layer_1" xmlns="http://www.w3.org/2000/svg" xmlns:xlink="http://www.w3.org/1999/xlink" x="0px" y="0px"
	 width="300px" height="300px" viewBox="0 0 300 300" enable-background="new 0 0 300 300" xml:space="preserve">
<g>
	<rect x="112.5" y="112.52" fill="#EFD1B8" width="7.5" height="7.5"/>
	<rect x="120" y="112.52" fill="#9B8579" width="7.5" height="7.5"/>
	<rect x="127.5" y="112.52" fill="#EFC8A6" width="7.5" height="7.5"/>
	<rect x="135" y="112.52" fill="#EEBFA2" width="7.5" height="7.5"/>
	<rect x="142.5" y="112.515" fill="#AFAFA2" width="7.5" height="7.5"/>
	<rect x="105" y="120.02" fill="#E5B29B" width="7.5" height="7.5"/>
	<rect x="112.5" y="120.02" fill="#726658" width="7.5" height="7.5"/>
	<rect x="120" y="120.015" fill="#EFD1B8" width="7.5" height="7.5"/>
	<rect x="127.5" y="120.015" fill="#EFC8A6" width="7.5" height="7.5"/>
	<rect x="135" y="120.015" fill="#EFC8A6" width="7.5" height="7.5"/>
	<rect x="142.5" y="120.02" fill="#ADAFB2" width="7.5" height="7.5"/>
	<rect x="105" y="127.52" fill="#EFC8A6" width="7.5" height="7.5"/>
	<rect x="105" y="134.985" fill="#C6C8C9" width="7.5" height="7.5"/>
	<rect x="105" y="142.471" fill="#EFC8A6" width="7.5" height="7.5"/>
	<rect x="112.5" y="127.52" fill="#C6C8C9" width="7.5" height="7.5"/>
	<rect x="97.5" y="134.99" fill="#1B455E" width="7.5" height="7.5"/>
	<rect x="112.5" y="134.99" fill="#7F95A5" width="7.5" height="7.5"/>
	<rect x="97.5" y="142.48" fill="#1B455E" width="7.5" height="7.5"/>
	<rect x="112.5" y="142.48" fill="#EFC8A6" width="7.5" height="7.5"/>
	<rect x="105" y="149.99" fill="#EFC8A6" width="7.5" height="7.5"/>
	<rect x="112.5" y="149.99" fill="#EFC8A6" width="7.5" height="7.5"/>
	<rect x="90" y="142.49" fill="#EFC8A6" width="7.5" height="7.5"/>
	<rect x="127.5" y="157.485" fill="#E3A193" width="7.5" height="7.5"/>
	<rect x="120" y="157.485" fill="#FFFFFF" width="7.5" height="7.5"/>
	<rect x="112.5" y="157.485" fill="#FFFFFF" width="7.5" height="7.5"/>
	<rect x="135" y="157.485" fill="#E5B29B" width="7.5" height="7.5"/>
	<rect x="142.5" y="157.485" fill="#ADAFB2" width="7.5" height="7.5"/>
	<rect x="127.5" y="164.971" fill="#EFC8A6" width="7.5" height="7.5"/>
	<rect x="120" y="164.971" fill="#D28F8C" width="7.5" height="7.5"/>
	<rect x="135" y="164.971" fill="#E5B29B" width="7.5" height="7.5"/>
	<rect x="142.5" y="164.971" fill="#AFAFA2" width="7.5" height="7.5"/>
	<rect x="127.5" y="172.471" fill="#EFC8A6" width="7.5" height="7.5"/>
	<rect x="120" y="172.471" fill="#EFC8A6" width="7.5" height="7.5"/>
	<rect x="112.5" y="164.971" fill="#D28F8C" width="7.5" height="7.5"/>
	<rect x="112.5" y="172.471" fill="#E5B29B" width="7.5" height="7.5"/>
	<rect x="135" y="172.471" fill="#EFC8A6" width="7.5" height="7.5"/>
	<rect x="127.5" y="179.971" fill="#C79C89" width="7.5" height="7.5"/>
	<rect x="135" y="179.971" fill="#EFD1B8" width="7.5" height="7.5"/>
	<rect x="127.5" y="187.471" fill="#EFC8A6" width="7.5" height="7.5"/>
	<rect x="135" y="187.471" fill="#C79C89" width="7.5" height="7.5"/>
	<rect x="142.5" y="179.971" fill="#EFC8A6" width="7.5" height="7.5"/>
	<rect x="142.5" y="172.471" fill="#EFD1B8" width="7.5" height="7.5"/>
	<rect x="150" y="172.471" fill="#AFAFA2" width="7.5" height="7.5"/>
	<rect x="150" y="179.971" fill="#AFAFA2" width="7.5" height="7.5"/>
	<rect x="150" y="187.471" fill="#BCBEC0" width="7.5" height="7.5"/>
	<rect x="142.5" y="187.471" fill="#EFC8A6" width="7.5" height="7.5"/>
	<rect x="120" y="187.471" fill="#231F20" width="7.5" height="7.5"/>
	<rect x="112.5" y="187.471" fill="#323133" width="7.5" height="7.5"/>
	<rect x="157.5" y="187.471" fill="#C7C4BC" width="7.5" height="7.5"/>
	<rect x="165" y="187.471" fill="#323133" width="7.5" height="7.5"/>
	<rect x="172.5" y="187.471" fill="#BCBEC0" width="7.5" height="7.5"/>
	<rect x="127.5" y="202.471" fill="#EFC8A6" width="7.5" height="7.5"/>
	<rect x="135" y="202.471" fill="#726658" width="7.5" height="7.5"/>
	<rect x="150" y="202.471" fill="#DFE0E1" width="7.5" height="7.5"/>
	<rect x="142.5" y="202.471" fill="#726658" width="7.5" height="7.5"/>
	<rect x="120" y="202.471" fill="#323133" width="7.5" height="7.5"/>
	<rect x="120" y="209.971" fill="#323133" width="7.5" height="7.5"/>
	<rect x="112.5" y="202.471" fill="#323133" width="7.5" height="7.5"/>
	<rect x="105" y="202.471" fill="#323133" width="7.5" height="7.5"/>
	<rect x="157.5" y="202.471" fill="#BCBEC0" width="7.5" height="7.5"/>
	<rect x="165" y="202.471" fill="#C7C4BC" width="7.5" height="7.5"/>
	<rect x="172.5" y="202.471" fill="#323133" width="7.5" height="7.5"/>
	<rect x="180" y="202.471" fill="#323133" width="7.5" height="7.5"/>
	<rect x="127.5" y="217.471" fill="#323133" width="7.5" height="7.5"/>
	<rect x="135" y="217.471" fill="#323133" width="7.5" height="7.5"/>
	<rect x="150" y="217.471" fill="#323133" width="7.5" height="7.5"/>
	<rect x="142.5" y="217.471" fill="#323133" width="7.5" height="7.5"/>
	<rect x="120" y="217.471" fill="#323133" width="7.5" height="7.5"/>
	<rect x="112.5" y="217.471" fill="#323133" width="7.5" height="7.5"/>
	<rect x="105" y="217.471" fill="#231F20" width="7.5" height="7.5"/>
	<rect x="157.5" y="217.471" fill="#DFE0E1" width="7.5" height="7.5"/>
	<rect x="165" y="217.471" fill="#231F20" width="7.5" height="7.5"/>
	<rect x="172.5" y="217.471" fill="#323133" width="7.5" height="7.5"/>
	<rect x="180" y="217.471" fill="#323133" width="7.5" height="7.5"/>
	<rect x="127.5" y="194.971" fill="#726658" width="7.5" height="7.5"/>
	<rect x="135" y="194.971" fill="#EFC8A6" width="7.5" height="7.5"/>
	<rect x="150" y="194.971" fill="#BCBEC0" width="7.5" height="7.5"/>
	<rect x="142.5" y="194.971" fill="#EFC8A6" width="7.5" height="7.5"/>
	<rect x="120" y="194.971" fill="#231F20" width="7.5" height="7.5"/>
	<rect x="112.5" y="194.971" fill="#323133" width="7.5" height="7.5"/>
	<rect x="105" y="194.971" fill="#323133" width="7.5" height="7.5"/>
	<rect x="157.5" y="194.971" fill="#C7C4BC" width="7.5" height="7.5"/>
	<rect x="165" y="194.971" fill="#C7C4BC" width="7.5" height="7.5"/>
	<rect x="172.5" y="194.971" fill="#323133" width="7.5" height="7.5"/>
	<rect x="180" y="194.971" fill="#323133" width="7.5" height="7.5"/>
	<rect x="127.5" y="209.971" fill="#323133" width="7.5" height="7.5"/>
	<rect x="135" y="209.971" fill="#EFC8A6" width="7.5" height="7.5"/>
	<rect x="150" y="209.971" fill="#BCBEC0" width="7.5" height="7.5"/>
	<rect x="142.5" y="209.971" fill="#EFC8A6" width="7.5" height="7.5"/>
	<rect x="120" y="209.971" fill="#323133" width="7.5" height="7.5"/>
	<rect x="112.5" y="209.971" fill="#323133" width="7.5" height="7.5"/>
	<rect x="105" y="209.971" fill="#231F20" width="7.5" height="7.5"/>
	<rect x="97.5" y="202.471" fill="#323133" width="7.5" height="7.5"/>
	<rect x="97.5" y="194.971" fill="#323133" width="7.5" height="7.5"/>
	<rect x="97.5" y="217.471" fill="#323133" width="7.5" height="7.5"/>
	<rect x="97.5" y="209.971" fill="#323133" width="7.5" height="7.5"/>
	<rect x="90" y="202.471" fill="#323133" width="7.5" height="7.5"/>
	<rect x="90" y="217.471" fill="#323133" width="7.5" height="7.5"/>
	<rect x="90" y="209.971" fill="#323133" width="7.5" height="7.5"/>
	<rect x="157.5" y="209.971" fill="#DFE0E1" width="7.5" height="7.5"/>
	<rect x="165" y="209.971" fill="#231F20" width="7.5" height="7.5"/>
	<rect x="172.5" y="209.971" fill="#323133" width="7.5" height="7.5"/>
	<rect x="180" y="209.971" fill="#323133" width="7.5" height="7.5"/>
	<rect x="187.5" y="202.471" fill="#323133" width="7.5" height="7.5"/>
	<rect x="187.5" y="217.471" fill="#323133" width="7.5" height="7.5"/>
	<rect x="187.5" y="209.971" fill="#323133" width="7.5" height="7.5"/>
	<rect x="164.99" y="157.495" fill="#BCBEC0" width="7.5" height="7.5"/>
	<rect x="150" y="149.985" fill="#AFAFA2" width="7.5" height="7.5"/>
	<rect x="157.5" y="149.985" fill="#C6C8C9" width="7.5" height="7.5"/>
	<rect x="150" y="164.971" fill="#AFAFA2" width="7.5" height="7.5"/>
	<rect x="157.5" y="164.971" fill="#C6C8C9" width="7.5" height="7.5"/>
	<rect x="157.5" y="172.471" fill="#C6C8C9" width="7.5" height="7.5"/>
	<rect x="157.5" y="179.971" fill="#C6C8C9" width="7.5" height="7.5"/>
	<rect x="150" y="157.485" fill="#C6C8C9" width="7.5" height="7.5"/>
	<rect x="157.5" y="157.485" fill="#939598" width="7.5" height="7.5"/>
	<rect x="164.99" y="164.98" fill="#939598" width="7.5" height="7.5"/>
	<rect x="164.99" y="172.471" fill="#BCBEC0" width="7.5" height="7.5"/>
	<rect x="164.99" y="179.971" fill="#BCBEC0" width="7.5" height="7.5"/>
	<rect x="172.5" y="179.971" fill="#BCBEC0" width="7.5" height="7.5"/>
	<rect x="150" y="142.471" fill="#C6C8C9" width="7.5" height="7.5"/>
	<rect x="157.5" y="142.471" fill="#C7C4BC" width="7.5" height="7.5"/>
	<rect x="150" y="134.985" fill="#AFAFA2" width="7.5" height="7.5"/>
	<rect x="157.5" y="134.985" fill="#E6E7E8" width="7.5" height="7.5"/>
	<rect x="165" y="142.471" fill="#E6E7E8" width="7.5" height="7.5"/>
	<rect x="165" y="134.985" fill="#BCBEC0" width="7.5" height="7.5"/>
	<rect x="120" y="127.52" fill="#C6C8C9" width="7.5" height="7.5"/>
	<rect x="127.5" y="127.52" fill="#C6C8C9" width="7.5" height="7.5"/>
	<rect x="135" y="127.52" fill="#C6C8C9" width="7.5" height="7.5"/>
	<rect x="142.5" y="127.52" fill="#AFAFA2" width="7.5" height="7.5"/>
	<rect x="120" y="134.985" fill="#AA6D2D" width="7.5" height="7.5"/>
	<rect x="127.5" y="134.985" fill="#EFC8A6" width="7.5" height="7.5"/>
	<rect x="120" y="134.985" fill="#FFFFFF" width="7.5" height="7.5"/>
	<rect x="135" y="134.99" fill="#EFC8A6" width="7.5" height="7.5"/>
	<rect x="142.5" y="134.99" fill="#AFAFA2" width="7.5" height="7.5"/>
	<rect x="120" y="142.48" fill="#EFC8A6" width="7.5" height="7.5"/>
	<rect x="127.5" y="142.48" fill="#EFD1B8" width="7.5" height="7.5"/>
	<rect x="135" y="142.48" fill="#EFC8A6" width="7.5" height="7.5"/>
	<rect x="142.5" y="142.471" fill="#EFC8A6" width="7.5" height="7.5"/>
	<rect x="120" y="149.971" fill="#EFD1B8" width="7.5" height="7.5"/>
	<rect x="127.5" y="149.971" fill="#E5B29B" width="7.5" height="7.5"/>
	<rect x="135" y="149.971" fill="#EFC8A6" width="7.5" height="7.5"/>
	<rect x="142.5" y="149.971" fill="#ADAFB2" width="7.5" height="7.5"/>
	<rect x="150" y="112.515" fill="#A7A9AC" width="7.5" height="7.5"/>
	<rect x="157.5" y="112.515" fill="#E6E7E8" width="7.5" height="7.5"/>
	<rect x="105" y="112.52" fill="#EFD1B8" width="7.5" height="7.5"/>
	<rect x="105" y="105.034" fill="#C79C89" width="7.5" height="7.505"/>
	<rect x="105" y="97.529" fill="#EFD1B8" width="7.5" height="7.5"/>
	<rect x="112.5" y="105.029" fill="#E5B29B" width="7.5" height="7.5"/>
	<rect x="120" y="105.034" fill="#C79C89" width="7.5" height="7.505"/>
	<rect x="127.5" y="105.034" fill="#EFC8A6" width="7.5" height="7.505"/>
	<rect x="135" y="105.034" fill="#EFC8A6" width="7.5" height="7.505"/>
	<rect x="142.5" y="105.029" fill="#EEBFA2" width="7.5" height="7.5"/>
	<rect x="150" y="105.029" fill="#E6E7E8" width="7.5" height="7.5"/>
	<rect x="112.5" y="97.529" fill="#EFD1B8" width="7.5" height="7.5"/>
	<rect x="112.5" y="90.029" fill="#5A5B5E" width="7.5" height="7.5"/>
	<rect x="120" y="82.529" fill="#939598" width="7.5" height="7.5"/>
	<rect x="120" y="90.029" fill="#5A5B5E" width="7.5" height="7.5"/>
	<rect x="127.5" y="90.029" fill="#939598" width="7.5" height="7.5"/>
	<rect x="135" y="90.029" fill="#BCBEC0" width="7.5" height="7.5"/>
	<rect x="142.5" y="90.029" fill="#AFAFA2" width="7.5" height="7.5"/>
	<rect x="150" y="97.529" fill="#939598" width="7.5" height="7.5"/>
	<rect x="150" y="90.029" fill="#939598" width="7.5" height="7.5"/>
	<rect x="127.5" y="82.529" fill="#BCBEC0" width="7.5" height="7.5"/>
	<rect x="135" y="82.529" fill="#AFAFA2" width="7.5" height="7.5"/>
	<rect x="142.5" y="82.529" fill="#939598" width="7.5" height="7.5"/>
	<rect x="150.005" y="82.529" fill="#C7C4BC" width="7.5" height="7.5"/>
	<rect x="157.5" y="97.529" fill="#E6E7E8" width="7.5" height="7.5"/>
	<rect x="120" y="97.529" fill="#EFC8A6" width="7.5" height="7.5"/>
	<rect x="127.5" y="97.529" fill="#EFC8A6" width="7.5" height="7.5"/>
	<rect x="135" y="97.529" fill="#EFC8A6" width="7.5" height="7.5"/>
	<rect x="142.5" y="97.529" fill="#EFD1B8" width="7.5" height="7.5"/>
	<rect x="157.5" y="105.029" fill="#E6E7E8" width="7.5" height="7.5"/>
	<rect x="150" y="120.015" fill="#A7A9AC" width="7.5" height="7.5"/>
	<rect x="157.5" y="120.015" fill="#A7A9AC" width="7.5" height="7.5"/>
	<rect x="150" y="127.515" fill="#808285" width="7.5" height="7.5"/>
	<rect x="157.5" y="127.515" fill="#BCBEC0" width="7.5" height="7.5"/>
	<rect x="165" y="112.515" fill="#E6E7E8" width="7.5" height="7.5"/>
	<rect x="165" y="105.029" fill="#A7A9AC" width="7.5" height="7.5"/>
	<rect x="172.5" y="105.029" fill="#C7C4BC" width="7.5" height="7.5"/>
	<rect x="165" y="97.529" fill="#C7C4BC" width="7.5" height="7.5"/>
	<rect x="157.5" y="90.029" fill="#939598" width="7.5" height="7.5"/>
	<rect x="157.5" y="82.529" fill="#C7C4BC" width="7.5" height="7.5"/>
	<rect x="165" y="90.029" fill="#C7C4BC" width="7.5" height="7.5"/>
	<rect x="172.5" y="97.529" fill="#C7C4BC" width="7.5" height="7.5"/>
	<rect x="172.5" y="90.029" fill="#C7C4BC" width="7.5" height="7.5"/>
	<rect x="165" y="82.529" fill="#C7C4BC" width="7.5" height="7.5"/>
	<rect x="127.5" y="75.029" fill="#BCBEC0" width="7.5" height="7.5"/>
	<rect x="135" y="75.029" fill="#BCBEC0" width="7.5" height="7.5"/>
	<rect x="142.5" y="75.029" fill="#C7C4BC" width="7.5" height="7.5"/>
	<rect x="150.005" y="75.029" fill="#C7C4BC" width="7.5" height="7.5"/>
	<rect x="157.5" y="75.029" fill="#C7C4BC" width="7.5" height="7.5"/>
	<rect x="165" y="120.015" fill="#E6E7E8" width="7.5" height="7.5"/>
	<rect x="172.5" y="112.515" fill="#808285" width="7.5" height="7.5"/>
	<rect x="172.5" y="120.015" fill="#A7A9AC" width="7.5" height="7.5"/>
	<rect x="165" y="149.99" fill="#C7C4BC" width="7.5" height="7.5"/>
	<rect x="165" y="127.515" fill="#A7A9AC" width="7.5" height="7.5"/>
	<rect x="172.5" y="142.471" fill="#BCBEC0" width="7.5" height="7.5"/>
	<rect x="179.922" y="150.059" fill="#BCBEC0" width="7.5" height="7.5"/>
	<rect x="179.922" y="157.485" fill="#BCBEC0" width="7.5" height="7.5"/>
	<rect x="179.922" y="164.995" fill="#AFAFA2" width="7.5" height="7.5"/>
	<rect x="187.5" y="157.485" fill="#BCBEC0" width="7.5" height="7.5"/>
	<rect x="187.5" y="164.971" fill="#BCBEC0" width="7.5" height="7.5"/>
	<rect x="179.922" y="172.471" fill="#C7C4BC" width="7.5" height="7.5"/>
	<rect x="187.5" y="172.471" fill="#AFAFA2" width="7.5" height="7.5"/>
	<rect x="179.922" y="179.971" fill="#DFE0E1" width="7.5" height="7.5"/>
	<rect x="179.922" y="187.471" fill="#C7C4BC" width="7.5" height="7.5"/>
	<rect x="187.5" y="179.971" fill="#DFE0E1" width="7.5" height="7.5"/>
	<rect x="187.5" y="187.471" fill="#DFE0E1" width="7.5" height="7.5"/>
	<rect x="187.5" y="194.971" fill="#C7C4BC" width="7.5" height="7.5"/>
	<rect x="172.5" y="149.99" fill="#BCBEC0" width="7.5" height="7.5"/>
	<rect x="172.5" y="157.495" fill="#C7C4BC" width="7.5" height="7.5"/>
	<rect x="172.5" y="164.995" fill="#BCBEC0" width="7.5" height="7.5"/>
	<rect x="172.5" y="134.985" fill="#C7C4BC" width="7.5" height="7.5"/>
	<rect x="179.922" y="142.471" fill="#C7C4BC" width="7.5" height="7.5"/>
	<rect x="172.5" y="127.515" fill="#E6E7E8" width="7.5" height="7.5"/>
	<rect x="179.922" y="105.029" fill="#C7C4BC" width="7.5" height="7.5"/>
	<rect x="179.922" y="112.515" fill="#808285" width="7.5" height="7.5"/>
	<rect x="179.922" y="120.015" fill="#A7A9AC" width="7.5" height="7.5"/>
	<rect x="179.922" y="127.515" fill="#C7C4BC" width="7.5" height="7.5"/>
	<rect x="179.922" y="134.99" fill="#E6E7E8" width="7.5" height="7.5"/>
	<rect x="187.5" y="142.471" fill="#E6E7E8" width="7.5" height="7.5"/>
	<rect x="187.5" y="149.985" fill="#C7C4BC" width="7.5" height="7.5"/>
	<rect x="195" y="157.485" fill="#E6E7E8" width="7.5" height="7.5"/>
	<rect x="195" y="164.971" fill="#BCBEC0" width="7.5" height="7.5"/>
	<rect x="195" y="172.471" fill="#C7C4BC" width="7.5" height="7.5"/>
	<rect x="195" y="179.971" fill="#AFAFA2" width="7.5" height="7.5"/>
	<rect x="195" y="187.471" fill="#BCBEC0" width="7.5" height="7.5"/>
	<rect x="202.5" y="164.971" fill="#BCBEC0" width="7.5" height="7.5"/>
	<rect x="202.5" y="172.471" fill="#BCBEC0" width="7.5" height="7.5"/>
	<rect x="202.5" y="187.471" fill="#BCBEC0" width="7.5" height="7.5"/>
	<rect x="202.5" y="194.971" fill="#BCBEC0" width="7.5" height="7.5"/>
	<rect x="195" y="194.971" fill="#DFE0E1" width="7.5" height="7.5"/>
	<rect x="195" y="202.471" fill="#C7C4BC" width="7.5" height="7.5"/>
	<rect x="195" y="142.471" fill="#C7C4BC" width="7.5" height="7.5"/>
	<rect x="195" y="149.985" fill="#E6E7E8" width="7.5" height="7.5"/>
	<rect x="187.5" y="127.515" fill="#C7C4BC" width="7.5" height="7.5"/>
	<rect x="187.5" y="134.99" fill="#C7C4BC" width="7.5" height="7.5"/>
</g>
</svg>
