<?xml version="1.0" encoding="utf-8"?>
<!-- Generator: Adobe Illustrator 16.0.0, SVG Export Plug-In . SVG Version: 6.00 Build 0)  -->
<!DOCTYPE svg PUBLIC "-//W3C//DTD SVG 1.1//EN" "http://www.w3.org/Graphics/SVG/1.1/DTD/svg11.dtd">
<svg version="1.1" id="Layer_1" xmlns="http://www.w3.org/2000/svg" xmlns:xlink="http://www.w3.org/1999/xlink" x="0px" y="0px"
	 width="300px" height="300px" viewBox="0 0 300 300" enable-background="new 0 0 300 300" xml:space="preserve">
<g>
	<rect x="129" y="96.049" fill="#6C6D70" width="6" height="6"/>
	<rect x="123" y="90.049" fill="#6C6D70" width="6" height="6"/>
	<rect x="129" y="90.049" fill="#858F8C" width="6" height="6"/>
	<rect x="123" y="96.049" fill="#858F8C" width="6" height="6"/>
	<rect x="117" y="96.049" fill="#858F8C" width="6" height="6"/>
	<rect x="135" y="96.049" fill="#6C6D70" width="6" height="6"/>
	<rect x="141" y="96.049" fill="#858F8C" width="6" height="6"/>
	<rect x="147" y="96.049" fill="#858F8C" width="6" height="6"/>
	<rect x="123" y="108.037" fill="#2F292B" width="6" height="6"/>
	<rect x="129" y="108.037" fill="#2F292B" width="6" height="6"/>
	<rect x="135" y="108.037" fill="#2F292B" width="6" height="6"/>
	<rect x="141" y="108.037" fill="#858F8C" width="6" height="6"/>
	<rect x="147" y="108.037" fill="#6C6D70" width="6" height="6"/>
	<rect x="153" y="108.037" fill="#858F8C" width="6" height="6"/>
	<rect x="123" y="114.037" fill="#EDD69F" width="6" height="6"/>
	<rect x="117" y="114.037" fill="#2F292B" width="6" height="6"/>
	<rect x="117" y="108.037" fill="#2F292B" width="6" height="6"/>
	<rect x="129" y="114.037" fill="#2F292B" width="6" height="6"/>
	<rect x="135" y="114.037" fill="#2F292B" width="6" height="6"/>
	<rect x="141" y="114.037" fill="#2F292B" width="6" height="6"/>
	<rect x="147" y="114.037" fill="#2F292B" width="6" height="6"/>
	<rect x="153" y="114.037" fill="#858F8C" width="6" height="6"/>
	<rect x="123" y="120.037" fill="#EDD69F" width="6" height="6"/>
	<rect x="129" y="120.037" fill="#EDD69F" width="6" height="6"/>
	<rect x="123" y="126.014" fill="#2F292B" width="6" height="6"/>
	<rect x="129" y="126.014" fill="#2F292B" width="6" height="6"/>
	<rect x="123" y="137.975" fill="#EDD69F" width="6" height="6"/>
	<rect x="129" y="137.975" fill="#4C2F1C" width="6" height="6"/>
	<rect x="123" y="143.986" fill="#EDD69F" width="6" height="6"/>
	<rect x="129" y="143.986" fill="#EDD69F" width="6" height="6"/>
	<rect x="123" y="149.975" fill="#EDD69F" width="6" height="6"/>
	<rect x="117" y="145.475" fill="#EDD69F" width="6" height="6"/>
	<rect x="111" y="145.475" fill="#EDD69F" width="6" height="6"/>
	<rect x="117" y="139.475" fill="#EDD69F" width="6" height="6"/>
	<rect x="129" y="149.975" fill="#EDD69F" width="6" height="6"/>
	<rect x="141" y="149.975" fill="#EDD69F" width="6" height="6"/>
	<rect x="135" y="149.975" fill="#EDD69F" width="6" height="6"/>
	<rect x="147" y="149.975" fill="#EDD69F" width="6" height="6"/>
	<rect x="159" y="149.975" fill="#EDD69F" width="6" height="6"/>
	<rect x="153" y="149.975" fill="#EDD69F" width="6" height="6"/>
	<rect x="141" y="155.963" fill="#FFFFFF" width="6" height="6"/>
	<rect x="135" y="155.963" fill="#FFFFFF" width="6" height="6"/>
	<rect x="147" y="155.963" fill="#FFFFFF" width="6" height="6"/>
	<rect x="153" y="155.963" fill="#C62C3D" width="6" height="6"/>
	<rect x="141" y="161.951" fill="#C62C3D" width="6" height="6"/>
	<rect x="135" y="161.951" fill="#C62C3D" width="6" height="6"/>
	<rect x="147" y="161.951" fill="#C62C3D" width="6" height="6"/>
	<rect x="153" y="161.951" fill="#EDD69F" width="6" height="6"/>
	<rect x="141" y="167.951" fill="#EDD69F" width="6" height="6"/>
	<rect x="135" y="167.951" fill="#EDD69F" width="6" height="6"/>
	<rect x="147" y="167.951" fill="#EDD69F" width="6" height="6"/>
	<rect x="141" y="173.951" fill="#EDD69F" width="6" height="6"/>
	<rect x="147" y="173.951" fill="#EDD69F" width="6" height="6"/>
	<rect x="141" y="179.951" fill="#2F292B" width="6" height="6"/>
	<rect x="147" y="179.951" fill="#2F292B" width="6" height="6"/>
	<rect x="153" y="173.951" fill="#EDD69F" width="6" height="6"/>
	<rect x="153" y="167.951" fill="#EDD69F" width="6" height="6"/>
	<rect x="159" y="167.951" fill="#EDD69F" width="6" height="6"/>
	<rect x="159" y="173.951" fill="#42607E" width="6" height="6"/>
	<rect x="165" y="173.951" fill="#42607E" width="6" height="6"/>
	<rect x="165" y="167.951" fill="#42607E" width="6" height="6"/>
	<rect x="171" y="173.951" fill="#42607E" width="6" height="6"/>
	<rect x="159" y="179.951" fill="#42607E" width="6" height="6"/>
	<rect x="153" y="179.951" fill="#2F292B" width="6" height="6"/>
	<rect x="135" y="179.951" fill="#42607E" width="6" height="6"/>
	<rect x="135" y="173.951" fill="#42607E" width="6" height="6"/>
	<rect x="129" y="173.951" fill="#42607E" width="6" height="6"/>
	<rect x="123" y="173.951" fill="#42607E" width="6" height="6"/>
	<rect x="129" y="179.951" fill="#42607E" width="6" height="6"/>
	<rect x="165" y="179.951" fill="#42607E" width="6" height="6"/>
	<rect x="171" y="179.951" fill="#7F95A5" width="6" height="6"/>
	<rect x="177" y="179.951" fill="#42607E" width="6" height="6"/>
	<rect x="183" y="179.951" fill="#42607E" width="6" height="6"/>
	<rect x="141" y="191.951" fill="#2F292B" width="6" height="6"/>
	<rect x="147" y="191.951" fill="#2F292B" width="6" height="6"/>
	<rect x="159" y="191.951" fill="#42607E" width="6" height="6"/>
	<rect x="153" y="191.951" fill="#2F292B" width="6" height="6"/>
	<rect x="135" y="191.951" fill="#42607E" width="6" height="6"/>
	<rect x="129" y="191.951" fill="#7F95A5" width="6" height="6"/>
	<rect x="123" y="191.951" fill="#7F95A5" width="6" height="6"/>
	<rect x="165" y="191.951" fill="#42607E" width="6" height="6"/>
	<rect x="171" y="191.951" fill="#7F95A5" width="6" height="6"/>
	<rect x="177" y="191.951" fill="#7F95A5" width="6" height="6"/>
	<rect x="183" y="191.951" fill="#7F95A5" width="6" height="6"/>
	<rect x="141" y="203.951" fill="#42607E" width="6" height="6"/>
	<rect x="147" y="203.951" fill="#42607E" width="6" height="6"/>
	<rect x="159" y="203.951" fill="#1B455E" width="6" height="6"/>
	<rect x="153" y="203.951" fill="#42607E" width="6" height="6"/>
	<rect x="135" y="203.951" fill="#1B455E" width="6" height="6"/>
	<rect x="129" y="203.951" fill="#42607E" width="6" height="6"/>
	<rect x="123" y="203.951" fill="#7F95A5" width="6" height="6"/>
	<rect x="165" y="203.951" fill="#42607E" width="6" height="6"/>
	<rect x="171" y="203.951" fill="#7F95A5" width="6" height="6"/>
	<rect x="177" y="203.951" fill="#7F95A5" width="6" height="6"/>
	<rect x="183" y="203.951" fill="#7F95A5" width="6" height="6"/>
	<rect x="141" y="185.951" fill="#FFFFFF" width="6" height="6"/>
	<rect x="147" y="185.951" fill="#FFFFFF" width="6" height="6"/>
	<rect x="159" y="185.951" fill="#42607E" width="6" height="6"/>
	<rect x="153" y="185.951" fill="#FFFFFF" width="6" height="6"/>
	<rect x="135" y="185.951" fill="#42607E" width="6" height="6"/>
	<rect x="129" y="185.951" fill="#7F95A5" width="6" height="6"/>
	<rect x="123" y="185.951" fill="#42607E" width="6" height="6"/>
	<rect x="165" y="185.951" fill="#42607E" width="6" height="6"/>
	<rect x="171" y="185.951" fill="#7F95A5" width="6" height="6"/>
	<rect x="177" y="185.951" fill="#7F95A5" width="6" height="6"/>
	<rect x="183" y="185.951" fill="#7F95A5" width="6" height="6"/>
	<rect x="141" y="197.951" fill="#42607E" width="6" height="6"/>
	<rect x="147" y="197.951" fill="#FFFFFF" width="6" height="6"/>
	<rect x="159" y="197.951" fill="#1B455E" width="6" height="6"/>
	<rect x="153" y="197.951" fill="#42607E" width="6" height="6"/>
	<rect x="135" y="197.951" fill="#1B455E" width="6" height="6"/>
	<rect x="129" y="197.951" fill="#1B455E" width="6" height="6"/>
	<rect x="123" y="197.951" fill="#7F95A5" width="6" height="6"/>
	<rect x="165" y="197.951" fill="#1B455E" width="6" height="6"/>
	<rect x="171" y="197.951" fill="#7F95A5" width="6" height="6"/>
	<rect x="177" y="197.951" fill="#7F95A5" width="6" height="6"/>
	<rect x="183" y="197.951" fill="#7F95A5" width="6" height="6"/>
	<rect x="171" y="167.951" fill="#42607E" width="6" height="6"/>
	<rect x="177" y="167.951" fill="#42607E" width="6" height="6"/>
	<rect x="165" y="149.975" fill="#EDD69F" width="6" height="6"/>
	<rect x="159" y="143.986" fill="#EDD69F" width="6" height="6"/>
	<rect x="165" y="143.986" fill="#EDD69F" width="6" height="6"/>
	<rect x="159" y="161.951" fill="#EDD69F" width="6" height="6"/>
	<rect x="165" y="161.951" fill="#EDD69F" width="6" height="6"/>
	<rect x="159" y="155.963" fill="#EDD69F" width="6" height="6"/>
	<rect x="165" y="155.963" fill="#EDD69F" width="6" height="6"/>
	<rect x="159" y="137.975" fill="#2F292B" width="6" height="6"/>
	<rect x="165" y="137.975" fill="#EDD69F" width="6" height="6"/>
	<rect x="159" y="126.014" fill="#2F292B" width="6" height="6"/>
	<rect x="165" y="126.014" fill="#2F292B" width="6" height="6"/>
	<rect x="171" y="137.975" fill="#EDD69F" width="6" height="6"/>
	<rect x="171" y="131.986" fill="#EDD69F" width="6" height="6"/>
	<rect x="135" y="120.037" fill="#2F292B" width="6" height="6"/>
	<rect x="141" y="120.037" fill="#2F292B" width="6" height="6"/>
	<rect x="147" y="120.037" fill="#2F292B" width="6" height="6"/>
	<rect x="153" y="120.037" fill="#2F292B" width="6" height="6"/>
	<rect x="135" y="126.014" fill="#EDD69F" width="6" height="6"/>
	<rect x="141" y="126.014" fill="#EDD69F" width="6" height="6"/>
	<rect x="147" y="126.014" fill="#2F292B" width="6" height="6"/>
	<rect x="153" y="126.014" fill="#2F292B" width="6" height="6"/>
	<rect x="123" y="131.986" fill="#EDD69F" width="6" height="6"/>
	<rect x="129" y="131.986" fill="#EDD69F" width="6" height="6"/>
	<rect x="159" y="131.986" fill="#2F292B" width="6" height="6"/>
	<rect x="165" y="131.986" fill="#2F292B" width="6" height="6"/>
	<rect x="135" y="131.986" fill="#EDD69F" width="6" height="6"/>
	<rect x="141" y="131.986" fill="#EDD69F" width="6" height="6"/>
	<rect x="147" y="131.986" fill="#EDD69F" width="6" height="6"/>
	<rect x="153" y="131.986" fill="#EDD69F" width="6" height="6"/>
	<rect x="135" y="137.975" fill="#FFFFFF" width="6" height="6"/>
	<rect x="141" y="137.975" fill="#EDD69F" width="6" height="6"/>
	<rect x="147" y="137.975" fill="#EDD69F" width="6" height="6"/>
	<rect x="153" y="137.975" fill="#EDD69F" width="6" height="6"/>
	<rect x="135" y="143.975" fill="#EDD69F" width="6" height="6"/>
	<rect x="141" y="143.975" fill="#EDD69F" width="6" height="6"/>
	<rect x="147" y="143.975" fill="#EDD69F" width="6" height="6"/>
	<rect x="153" y="143.975" fill="#EDD69F" width="6" height="6"/>
	<rect x="159" y="108.037" fill="#858F8C" width="6" height="6"/>
	<rect x="165" y="108.037" fill="#A2A4A6" width="6" height="6"/>
	<rect x="123" y="102.049" fill="#2F292B" width="6" height="6"/>
	<rect x="129" y="102.049" fill="#2F292B" width="6" height="6"/>
	<rect x="135" y="102.049" fill="#858F8C" width="6" height="6"/>
	<rect x="141" y="102.049" fill="#6C6D70" width="6" height="6"/>
	<rect x="147" y="102.049" fill="#858F8C" width="6" height="6"/>
	<rect x="153" y="102.049" fill="#858F8C" width="6" height="6"/>
	<rect x="159" y="102.049" fill="#A2A4A6" width="6" height="6"/>
	<rect x="153" y="96.049" fill="#A2A4A6" width="6" height="6"/>
	<rect x="141" y="90.049" fill="#858F8C" width="6" height="6"/>
	<rect x="135" y="90.049" fill="#858F8C" width="6" height="6"/>
	<rect x="159" y="96.049" fill="#A2A4A6" width="6" height="6"/>
	<rect x="165" y="102.049" fill="#A2A4A6" width="6" height="6"/>
	<rect x="171" y="108.037" fill="#A2A4A6" width="6" height="6"/>
	<rect x="171" y="102.049" fill="#A2A4A6" width="6" height="6"/>
	<rect x="159" y="114.037" fill="#858F8C" width="6" height="6"/>
	<rect x="165" y="114.037" fill="#858F8C" width="6" height="6"/>
	<rect x="159" y="120.037" fill="#858F8C" width="6" height="6"/>
	<rect x="165" y="120.037" fill="#858F8C" width="6" height="6"/>
	<rect x="171" y="126.014" fill="#2F292B" width="6" height="6"/>
	<rect x="171" y="114.037" fill="#858F8C" width="6" height="6"/>
	<rect x="171" y="120.037" fill="#858F8C" width="6" height="6"/>
</g>
</svg>
