<?xml version="1.0" encoding="utf-8"?>
<!-- Generator: Adobe Illustrator 16.0.0, SVG Export Plug-In . SVG Version: 6.00 Build 0)  -->
<!DOCTYPE svg PUBLIC "-//W3C//DTD SVG 1.1//EN" "http://www.w3.org/Graphics/SVG/1.1/DTD/svg11.dtd">
<svg version="1.1" id="Layer_1" xmlns="http://www.w3.org/2000/svg" xmlns:xlink="http://www.w3.org/1999/xlink" x="0px" y="0px"
	 width="300px" height="300px" viewBox="0 0 300 300" enable-background="new 0 0 300 300" xml:space="preserve">
<g>
	<rect x="157.2" y="187.776" fill="#F8D666" width="3.6" height="3.601"/>
	<rect x="153.6" y="187.776" fill="#AA4421" width="3.6" height="3.601"/>
	<rect x="150" y="187.776" fill="#AA4421" width="3.6" height="3.601"/>
	<rect x="146.4" y="187.776" fill="#F8D666" width="3.6" height="3.601"/>
	<rect x="150" y="184.176" fill="#AA4421" width="3.6" height="3.601"/>
	<rect x="146.4" y="184.176" fill="#EEA738" width="3.6" height="3.601"/>
	<rect x="150" y="180.576" fill="#F8D666" width="3.6" height="3.6"/>
	<rect x="146.4" y="180.576" fill="#F8D666" width="3.6" height="3.6"/>
	<rect x="146.4" y="176.977" fill="#F8D666" width="3.6" height="3.6"/>
	<rect x="150" y="176.977" fill="#F8D666" width="3.6" height="3.6"/>
	<rect x="150" y="173.377" fill="#AA4421" width="3.6" height="3.6"/>
	<rect x="160.8" y="187.776" fill="#F8D666" width="3.6" height="3.601"/>
	<rect x="157.2" y="194.957" fill="#F8D666" width="3.6" height="3.601"/>
	<rect x="160.8" y="194.957" fill="#F8D666" width="3.6" height="3.601"/>
	<rect x="164.4" y="187.776" fill="#AA4421" width="3.6" height="3.601"/>
	<rect x="168" y="187.776" fill="#AA4421" width="3.6" height="3.601"/>
	<rect x="171.6" y="187.776" fill="#F8D666" width="3.6" height="3.601"/>
	<rect x="175.2" y="187.776" fill="#F8D666" width="3.6" height="3.601"/>
	<rect x="178.8" y="187.776" fill="#F8D666" width="3.6" height="3.601"/>
	<rect x="157.2" y="184.176" fill="#F8D666" width="3.6" height="3.601"/>
	<rect x="153.6" y="184.176" fill="#F8D666" width="3.6" height="3.601"/>
	<rect x="160.8" y="184.176" fill="#F8D666" width="3.6" height="3.601"/>
	<rect x="164.4" y="184.176" fill="#F8D666" width="3.6" height="3.601"/>
	<rect x="168" y="184.176" fill="#F8D666" width="3.6" height="3.601"/>
	<rect x="171.6" y="184.176" fill="#F8D666" width="3.6" height="3.601"/>
	<rect x="175.2" y="184.176" fill="#72060F" width="3.6" height="3.601"/>
	<rect x="157.2" y="180.576" fill="#F8D666" width="3.6" height="3.6"/>
	<rect x="153.6" y="180.576" fill="#F8D666" width="3.6" height="3.6"/>
	<rect x="160.8" y="180.576" fill="#F8D666" width="3.6" height="3.6"/>
	<rect x="164.4" y="180.576" fill="#AA4421" width="3.6" height="3.6"/>
	<rect x="168" y="180.576" fill="#AA4421" width="3.6" height="3.6"/>
	<rect x="171.6" y="180.576" fill="#F8D666" width="3.6" height="3.6"/>
	<rect x="157.2" y="176.977" fill="#F8D666" width="3.6" height="3.6"/>
	<rect x="153.6" y="176.977" fill="#AA4421" width="3.6" height="3.6"/>
	<rect x="160.8" y="176.977" fill="#72060F" width="3.6" height="3.6"/>
	<rect x="164.4" y="176.977" fill="#AA4421" width="3.6" height="3.6"/>
	<rect x="168" y="176.977" fill="#F8D666" width="3.6" height="3.6"/>
	<rect x="171.6" y="176.977" fill="#72060F" width="3.6" height="3.6"/>
	<rect x="157.2" y="173.377" fill="#F8D666" width="3.6" height="3.6"/>
	<rect x="153.6" y="173.377" fill="#72060F" width="3.6" height="3.6"/>
	<rect x="160.8" y="173.377" fill="#AA4421" width="3.6" height="3.6"/>
	<rect x="164.4" y="173.377" fill="#F8D666" width="3.6" height="3.6"/>
	<rect x="168" y="173.377" fill="#72060F" width="3.6" height="3.6"/>
	<rect x="157.2" y="169.776" fill="#F8D666" width="3.6" height="3.601"/>
	<rect x="153.6" y="169.776" fill="#AA4421" width="3.6" height="3.601"/>
	<rect x="160.8" y="169.776" fill="#F8D666" width="3.6" height="3.601"/>
	<rect x="164.4" y="169.776" fill="#F8D666" width="3.6" height="3.601"/>
	<rect x="157.2" y="166.176" fill="#AA4421" width="3.6" height="3.601"/>
	<rect x="153.6" y="166.176" fill="#F8D666" width="3.6" height="3.601"/>
	<rect x="160.8" y="166.176" fill="#F8D666" width="3.6" height="3.601"/>
	<rect x="164.4" y="166.176" fill="#72060F" width="3.6" height="3.601"/>
	<rect x="157.2" y="162.576" fill="#F8D666" width="3.6" height="3.6"/>
	<rect x="153.6" y="162.576" fill="#F8D666" width="3.6" height="3.6"/>
	<rect x="160.8" y="162.576" fill="#F8D666" width="3.6" height="3.6"/>
	<rect x="164.4" y="162.576" fill="#AA4421" width="3.6" height="3.6"/>
	<rect x="157.2" y="158.977" fill="#F8D666" width="3.6" height="3.6"/>
	<rect x="153.6" y="158.977" fill="#AA4421" width="3.6" height="3.6"/>
	<rect x="160.8" y="158.977" fill="#F8D666" width="3.6" height="3.6"/>
	<rect x="157.2" y="155.377" fill="#F8D666" width="3.6" height="3.6"/>
	<rect x="153.6" y="155.377" fill="#AA4421" width="3.6" height="3.6"/>
	<rect x="160.8" y="155.377" fill="#AA4421" width="3.6" height="3.6"/>
	<rect x="157.2" y="151.776" fill="#72060F" width="3.6" height="3.601"/>
	<rect x="160.8" y="151.776" fill="#72060F" width="3.6" height="3.601"/>
	<rect x="153.6" y="151.776" fill="#AA4421" width="3.6" height="3.601"/>
	<rect x="157.2" y="148.176" fill="#F8D666" width="3.6" height="3.601"/>
	<rect x="153.6" y="148.176" fill="#F8D666" width="3.6" height="3.601"/>
	<rect x="157.2" y="144.576" fill="#AA4421" width="3.6" height="3.6"/>
	<rect x="153.6" y="144.576" fill="#F8D666" width="3.6" height="3.6"/>
	<rect x="157.2" y="191.357" fill="#AA4421" width="3.6" height="3.6"/>
	<rect x="153.6" y="191.357" fill="#72060F" width="3.6" height="3.6"/>
	<rect x="150" y="191.357" fill="#AA4421" width="3.6" height="3.6"/>
	<rect x="146.4" y="191.357" fill="#EEA738" width="3.6" height="3.6"/>
	<rect x="160.8" y="191.357" fill="#F8D666" width="3.6" height="3.6"/>
	<rect x="164.4" y="191.357" fill="#72060F" width="3.6" height="3.6"/>
	<rect x="168" y="191.357" fill="#AA4421" width="3.6" height="3.6"/>
	<rect x="171.6" y="191.357" fill="#F8D666" width="3.6" height="3.6"/>
	<rect x="168" y="194.957" fill="#AA4421" width="3.6" height="3.601"/>
	<rect x="164.4" y="194.957" fill="#F8D666" width="3.6" height="3.601"/>
	<rect x="153.6" y="194.957" fill="#AA4421" width="3.6" height="3.601"/>
	<rect x="150" y="194.957" fill="#EEA738" width="3.6" height="3.601"/>
	<rect x="146.4" y="194.957" fill="#EEA738" width="3.6" height="3.601"/>
	<rect x="171.6" y="194.957" fill="#AA4421" width="3.6" height="3.601"/>
	<rect x="175.2" y="194.957" fill="#F8D666" width="3.6" height="3.601"/>
	<rect x="175.2" y="191.357" fill="#F8D666" width="3.6" height="3.6"/>
	<rect x="178.8" y="191.357" fill="#F8D666" width="3.6" height="3.6"/>
	<rect x="182.4" y="191.357" fill="#F8D666" width="3.6" height="3.6"/>
	<rect x="178.8" y="194.957" fill="#F8D666" width="3.6" height="3.601"/>
	<rect x="182.4" y="194.957" fill="#AA4421" width="3.6" height="3.601"/>
	<rect x="186" y="194.957" fill="#F8D666" width="3.6" height="3.601"/>
	<rect x="157.2" y="202.158" fill="#EEA738" width="3.6" height="3.6"/>
	<rect x="160.8" y="202.158" fill="#AA4421" width="3.6" height="3.6"/>
	<rect x="168" y="202.158" fill="#F8D666" width="3.6" height="3.6"/>
	<rect x="164.4" y="202.158" fill="#F8D666" width="3.6" height="3.6"/>
	<rect x="153.6" y="202.158" fill="#EEA738" width="3.6" height="3.6"/>
	<rect x="150" y="202.158" fill="#AA4421" width="3.6" height="3.6"/>
	<rect x="146.4" y="202.158" fill="#72060F" width="3.6" height="3.6"/>
	<rect x="171.6" y="202.158" fill="#F8D666" width="3.6" height="3.6"/>
	<rect x="175.2" y="202.158" fill="#F8D666" width="3.6" height="3.6"/>
	<rect x="178.8" y="202.158" fill="#F8D666" width="3.6" height="3.6"/>
	<rect x="182.4" y="202.158" fill="#AA4421" width="3.6" height="3.6"/>
	<rect x="186" y="202.158" fill="#AA4421" width="3.6" height="3.6"/>
	<rect x="189.6" y="202.158" fill="#F8D666" width="3.6" height="3.6"/>
	<rect x="193.2" y="202.158" fill="#72060F" width="3.6" height="3.6"/>
	<rect x="196.8" y="202.158" fill="#F8D666" width="3.6" height="3.6"/>
	<rect x="157.2" y="209.357" fill="#AA4421" width="3.6" height="3.6"/>
	<rect x="160.8" y="209.357" fill="#72060F" width="3.6" height="3.6"/>
	<rect x="168" y="209.357" fill="#AA4421" width="3.6" height="3.6"/>
	<rect x="164.4" y="209.357" fill="#EEA738" width="3.6" height="3.6"/>
	<rect x="153.6" y="209.357" fill="#AA4421" width="3.6" height="3.6"/>
	<rect x="150" y="209.357" fill="#EEA738" width="3.6" height="3.6"/>
	<rect x="171.6" y="209.357" fill="#72060F" width="3.6" height="3.6"/>
	<rect x="175.2" y="209.357" fill="#AA4421" width="3.6" height="3.6"/>
	<rect x="178.8" y="209.357" fill="#F8D666" width="3.6" height="3.6"/>
	<rect x="182.4" y="209.357" fill="#F8D666" width="3.6" height="3.6"/>
	<rect x="186" y="209.357" fill="#AA4421" width="3.6" height="3.6"/>
	<rect x="189.6" y="209.357" fill="#72060F" width="3.6" height="3.6"/>
	<rect x="193.2" y="209.357" fill="#F8D666" width="3.6" height="3.6"/>
	<rect x="196.8" y="209.357" fill="#72060F" width="3.6" height="3.6"/>
	<rect x="200.4" y="209.357" fill="#AA4421" width="3.6" height="3.6"/>
	<rect x="204" y="209.357" fill="#72060F" width="3.6" height="3.6"/>
	<rect x="157.2" y="198.558" fill="#F8D666" width="3.6" height="3.601"/>
	<rect x="160.8" y="198.558" fill="#F8D666" width="3.6" height="3.601"/>
	<rect x="168" y="198.558" fill="#AA4421" width="3.6" height="3.601"/>
	<rect x="164.4" y="198.558" fill="#F8D666" width="3.6" height="3.601"/>
	<rect x="153.6" y="198.558" fill="#EEA738" width="3.6" height="3.601"/>
	<rect x="150" y="198.558" fill="#F8D666" width="3.6" height="3.601"/>
	<rect x="146.4" y="198.558" fill="#AA4421" width="3.6" height="3.601"/>
	<rect x="142.8" y="198.558" fill="#AA4421" width="3.6" height="3.601"/>
	<rect x="142.8" y="194.957" fill="#72060F" width="3.6" height="3.601"/>
	<rect x="142.8" y="191.357" fill="#EEA738" width="3.6" height="3.6"/>
	<rect x="142.8" y="187.776" fill="#F8D666" width="3.6" height="3.601"/>
	<rect x="139.2" y="187.776" fill="#AA4421" width="3.6" height="3.601"/>
	<rect x="142.8" y="184.176" fill="#EEA738" width="3.6" height="3.601"/>
	<rect x="139.2" y="184.176" fill="#EEA738" width="3.6" height="3.601"/>
	<rect x="142.8" y="180.576" fill="#AA4421" width="3.6" height="3.6"/>
	<rect x="139.2" y="180.576" fill="#EEA738" width="3.6" height="3.6"/>
	<rect x="142.8" y="176.977" fill="#72060F" width="3.6" height="3.6"/>
	<rect x="139.2" y="176.977" fill="#F8D666" width="3.6" height="3.6"/>
	<rect x="146.4" y="173.377" fill="#F8D666" width="3.6" height="3.6"/>
	<rect x="142.8" y="173.377" fill="#72060F" width="3.6" height="3.6"/>
	<rect x="139.2" y="173.377" fill="#AA4421" width="3.6" height="3.6"/>
	<rect x="150" y="169.776" fill="#AA4421" width="3.6" height="3.601"/>
	<rect x="146.4" y="169.776" fill="#F8D666" width="3.6" height="3.601"/>
	<rect x="142.8" y="169.776" fill="#AA4421" width="3.6" height="3.601"/>
	<rect x="139.2" y="169.776" fill="#F8D666" width="3.6" height="3.601"/>
	<rect x="135.6" y="169.776" fill="#AA4421" width="3.6" height="3.601"/>
	<rect x="150" y="166.176" fill="#F8D666" width="3.6" height="3.601"/>
	<rect x="146.4" y="166.176" fill="#F8D666" width="3.6" height="3.601"/>
	<rect x="142.8" y="166.176" fill="#F8D666" width="3.6" height="3.601"/>
	<rect x="139.2" y="166.176" fill="#EEA738" width="3.6" height="3.601"/>
	<rect x="135.6" y="166.176" fill="#72060F" width="3.6" height="3.601"/>
	<rect x="150" y="162.576" fill="#F8D666" width="3.6" height="3.6"/>
	<rect x="146.4" y="162.576" fill="#F8D666" width="3.6" height="3.6"/>
	<rect x="142.8" y="162.576" fill="#AA4421" width="3.6" height="3.6"/>
	<rect x="139.2" y="162.576" fill="#F8D666" width="3.6" height="3.6"/>
	<rect x="135.6" y="162.576" fill="#EEA738" width="3.6" height="3.6"/>
	<rect x="150" y="158.977" fill="#F8D666" width="3.6" height="3.6"/>
	<rect x="146.4" y="158.977" fill="#F8D666" width="3.6" height="3.6"/>
	<rect x="142.8" y="158.977" fill="#72060F" width="3.6" height="3.6"/>
	<rect x="139.2" y="158.977" fill="#AA4421" width="3.6" height="3.6"/>
	<rect x="135.6" y="158.977" fill="#F8D666" width="3.6" height="3.6"/>
	<rect x="150" y="155.377" fill="#AA4421" width="3.6" height="3.6"/>
	<rect x="146.4" y="155.377" fill="#F8D666" width="3.6" height="3.6"/>
	<rect x="142.8" y="155.377" fill="#AA4421" width="3.6" height="3.6"/>
	<rect x="139.2" y="155.377" fill="#EEA738" width="3.6" height="3.6"/>
	<rect x="135.6" y="155.377" fill="#EEA738" width="3.6" height="3.6"/>
	<rect x="150" y="151.776" fill="#AA4421" width="3.6" height="3.601"/>
	<rect x="146.4" y="151.776" fill="#F8D666" width="3.6" height="3.601"/>
	<rect x="142.8" y="148.176" fill="#F8D666" width="3.6" height="3.601"/>
	<rect x="142.8" y="151.776" fill="#F8D666" width="3.6" height="3.601"/>
	<rect x="139.2" y="151.776" fill="#F8D666" width="3.6" height="3.601"/>
	<rect x="135.6" y="151.776" fill="#AA4421" width="3.6" height="3.601"/>
	<rect x="150" y="148.176" fill="#AA4421" width="3.6" height="3.601"/>
	<rect x="146.4" y="148.176" fill="#F8D666" width="3.6" height="3.601"/>
	<rect x="139.2" y="148.176" fill="#AA4421" width="3.6" height="3.601"/>
	<rect x="135.6" y="148.176" fill="#AA4421" width="3.6" height="3.601"/>
	<rect x="142.8" y="144.576" fill="#F8D666" width="3.6" height="3.6"/>
	<rect x="150" y="144.576" fill="#F8D666" width="3.6" height="3.6"/>
	<rect x="146.4" y="144.576" fill="#F8D666" width="3.6" height="3.6"/>
	<rect x="139.2" y="144.576" fill="#F8D666" width="3.6" height="3.6"/>
	<rect x="135.6" y="144.576" fill="#EEA738" width="3.6" height="3.6"/>
	<rect x="132" y="144.576" fill="#F8D666" width="3.6" height="3.6"/>
	<rect x="142.8" y="140.977" fill="#AA4421" width="3.6" height="3.6"/>
	<rect x="150" y="140.977" fill="#F8D666" width="3.6" height="3.6"/>
	<rect x="146.4" y="140.977" fill="#AA4421" width="3.6" height="3.6"/>
	<rect x="139.2" y="140.977" fill="#F8D666" width="3.6" height="3.6"/>
	<rect x="135.6" y="140.977" fill="#AA4421" width="3.6" height="3.6"/>
	<rect x="132" y="140.977" fill="#EEA738" width="3.6" height="3.6"/>
	<rect x="142.8" y="137.377" fill="#F8D666" width="3.6" height="3.6"/>
	<rect x="150" y="137.377" fill="#F8D666" width="3.6" height="3.6"/>
	<rect x="146.4" y="137.377" fill="#72060F" width="3.6" height="3.6"/>
	<rect x="139.2" y="137.377" fill="#F8D666" width="3.6" height="3.6"/>
	<rect x="135.6" y="137.377" fill="#72060F" width="3.6" height="3.6"/>
	<rect x="132" y="137.377" fill="#AA4421" width="3.6" height="3.6"/>
	<rect x="132" y="133.781" fill="#F8D666" width="3.6" height="3.6"/>
	<rect x="142.8" y="133.781" fill="#F8D666" width="3.6" height="3.6"/>
	<rect x="142.8" y="130.19" fill="#F8D666" width="3.6" height="3.601"/>
	<rect x="150" y="133.781" fill="#F8D666" width="3.6" height="3.6"/>
	<rect x="146.4" y="133.781" fill="#AA4421" width="3.6" height="3.6"/>
	<rect x="139.2" y="133.781" fill="#F8D666" width="3.6" height="3.6"/>
	<rect x="135.6" y="133.781" fill="#72060F" width="3.6" height="3.6"/>
	<rect x="132" y="130.19" fill="#AA4421" width="3.6" height="3.601"/>
	<rect x="139.2" y="130.19" fill="#AA4421" width="3.6" height="3.601"/>
	<rect x="135.6" y="130.19" fill="#AA4421" width="3.6" height="3.601"/>
	<rect x="142.8" y="126.59" fill="#F8D666" width="3.6" height="3.601"/>
	<rect x="132" y="126.59" fill="#72060F" width="3.6" height="3.601"/>
	<rect x="139.2" y="126.59" fill="#F8D666" width="3.6" height="3.601"/>
	<rect x="135.6" y="126.59" fill="#EEA738" width="3.6" height="3.601"/>
	<rect x="132" y="122.98" fill="#222020" width="3.6" height="3.601"/>
	<rect x="135.6" y="122.98" fill="#72060F" width="3.6" height="3.601"/>
	<rect x="132" y="119.381" fill="#F8D666" width="3.6" height="3.6"/>
	<rect x="128.4" y="119.381" fill="#72060F" width="3.6" height="3.6"/>
	<rect x="128.4" y="122.98" fill="#222020" width="3.6" height="3.601"/>
	<rect x="124.8" y="119.381" fill="#AA4421" width="3.6" height="3.6"/>
	<rect x="121.2" y="119.381" fill="#F8D666" width="3.6" height="3.6"/>
	<rect x="117.6" y="119.381" fill="#F8D666" width="3.6" height="3.6"/>
	<rect x="135.6" y="119.381" fill="#222020" width="3.6" height="3.6"/>
	<rect x="171.6" y="198.558" fill="#F8D666" width="3.6" height="3.601"/>
	<rect x="175.2" y="198.558" fill="#F8D666" width="3.6" height="3.601"/>
	<rect x="178.8" y="198.558" fill="#AA4421" width="3.6" height="3.601"/>
	<rect x="182.4" y="198.558" fill="#72060F" width="3.6" height="3.601"/>
	<rect x="186" y="198.558" fill="#F8D666" width="3.6" height="3.601"/>
	<rect x="189.6" y="198.558" fill="#F8D666" width="3.6" height="3.601"/>
	<rect x="157.2" y="205.758" fill="#72060F" width="3.6" height="3.6"/>
	<rect x="160.8" y="205.758" fill="#EEA738" width="3.6" height="3.6"/>
	<rect x="168" y="205.758" fill="#F8D666" width="3.6" height="3.6"/>
	<rect x="164.4" y="205.758" fill="#F8D666" width="3.6" height="3.6"/>
	<rect x="153.6" y="205.758" fill="#F8D666" width="3.6" height="3.6"/>
	<rect x="150" y="205.758" fill="#EEA738" width="3.6" height="3.6"/>
	<rect x="146.4" y="205.758" fill="#AA4421" width="3.6" height="3.6"/>
	<rect x="171.6" y="205.758" fill="#AA4421" width="3.6" height="3.6"/>
	<rect x="175.2" y="205.758" fill="#AA4421" width="3.6" height="3.6"/>
	<rect x="178.8" y="205.758" fill="#F8D666" width="3.6" height="3.6"/>
	<rect x="182.4" y="205.758" fill="#F8D666" width="3.6" height="3.6"/>
	<rect x="186" y="205.758" fill="#F8D666" width="3.6" height="3.6"/>
	<rect x="189.6" y="205.758" fill="#F8D666" width="3.6" height="3.6"/>
	<rect x="193.2" y="205.758" fill="#F8D666" width="3.6" height="3.6"/>
	<rect x="196.8" y="205.758" fill="#F8D666" width="3.6" height="3.6"/>
	<rect x="200.4" y="205.758" fill="#72060F" width="3.6" height="3.6"/>
	<rect x="146.4" y="97.818" fill="#FCF3C5" width="3.6" height="3.6"/>
	<rect x="150" y="97.818" fill="#F8D666" width="3.6" height="3.6"/>
	<rect x="146.4" y="101.418" fill="#F8D666" width="3.6" height="3.601"/>
	<rect x="146.4" y="108.613" fill="#FCF3C5" width="3.6" height="3.601"/>
	<rect x="142.8" y="108.613" fill="#AA4421" width="3.6" height="3.601"/>
	<rect x="139.2" y="108.613" fill="#F8D666" width="3.6" height="3.601"/>
	<rect x="135.6" y="108.613" fill="#FCF3C5" width="3.6" height="3.601"/>
	<rect x="132" y="108.613" fill="#FCF3C5" width="3.6" height="3.601"/>
	<rect x="150" y="108.613" fill="#AA4421" width="3.6" height="3.601"/>
	<rect x="146.4" y="112.199" fill="#F8D666" width="3.6" height="3.601"/>
	<rect x="150" y="112.199" fill="#72060F" width="3.6" height="3.601"/>
	<rect x="146.4" y="119.377" fill="#F8D666" width="3.6" height="3.6"/>
	<rect x="150" y="119.377" fill="#AA4421" width="3.6" height="3.6"/>
	<rect x="146.4" y="122.98" fill="#AA4421" width="3.6" height="3.601"/>
	<rect x="150" y="122.98" fill="#FCF3C5" width="3.6" height="3.601"/>
	<rect x="146.4" y="130.19" fill="#F8D666" width="3.6" height="3.601"/>
	<rect x="142.8" y="119.381" fill="#FCF3C5" width="3.6" height="3.6"/>
	<rect x="142.8" y="122.98" fill="#F8D666" width="3.6" height="3.601"/>
	<rect x="139.2" y="122.98" fill="#AA4421" width="3.6" height="3.601"/>
	<rect x="139.2" y="119.381" fill="#AA4421" width="3.6" height="3.6"/>
	<rect x="132" y="115.781" fill="#FCF3C5" width="3.6" height="3.6"/>
	<rect x="135.6" y="115.781" fill="#FCF3C5" width="3.6" height="3.6"/>
	<rect x="139.2" y="115.781" fill="#F8D666" width="3.6" height="3.6"/>
	<rect x="142.8" y="115.781" fill="#FCF3C5" width="3.6" height="3.6"/>
	<rect x="142.8" y="112.205" fill="#AA4421" width="3.6" height="3.6"/>
	<rect x="139.2" y="112.205" fill="#AA4421" width="3.6" height="3.6"/>
	<rect x="135.6" y="112.205" fill="#FCF3C5" width="3.6" height="3.6"/>
	<rect x="132" y="112.205" fill="#EEA738" width="3.6" height="3.6"/>
	<rect x="128.4" y="112.205" fill="#FCF3C5" width="3.6" height="3.6"/>
	<rect x="150" y="130.19" fill="#F8D666" width="3.6" height="3.601"/>
	<rect x="153.6" y="130.19" fill="#AA4421" width="3.6" height="3.601"/>
	<rect x="153.6" y="133.781" fill="#F8D666" width="3.6" height="3.6"/>
	<rect x="157.2" y="137.377" fill="#AA4421" width="3.6" height="3.6"/>
	<rect x="153.6" y="137.377" fill="#F8D666" width="3.6" height="3.6"/>
	<rect x="157.2" y="140.977" fill="#72060F" width="3.6" height="3.6"/>
	<rect x="153.6" y="140.977" fill="#F8D666" width="3.6" height="3.6"/>
	<rect x="146.4" y="115.781" fill="#FCF3C5" width="3.6" height="3.6"/>
	<rect x="150" y="115.781" fill="#72060F" width="3.6" height="3.6"/>
	<rect x="110.4" y="115.781" fill="#F8D666" width="3.6" height="3.6"/>
	<rect x="110.4" y="119.381" fill="#F8D666" width="3.6" height="3.6"/>
	<rect x="114" y="119.381" fill="#AA4421" width="3.6" height="3.6"/>
	<rect x="106.8" y="115.781" fill="#222020" width="3.6" height="3.6"/>
	<rect x="103.2" y="115.781" fill="#F8D666" width="3.6" height="3.6"/>
	<rect x="99.6" y="115.781" fill="#F8D666" width="3.6" height="3.6"/>
	<rect x="96" y="112.205" fill="#222020" width="3.6" height="3.6"/>
	<rect x="96" y="108.613" fill="#EEA738" width="3.6" height="3.601"/>
	<rect x="92.4" y="108.613" fill="#EEA738" width="3.6" height="3.601"/>
	<rect x="99.6" y="112.205" fill="#222020" width="3.6" height="3.6"/>
	<rect x="99.6" y="108.613" fill="#FCF3C5" width="3.6" height="3.601"/>
	<rect x="114" y="115.781" fill="#F8D666" width="3.6" height="3.6"/>
	<rect x="117.6" y="115.781" fill="#FCF3C5" width="3.6" height="3.6"/>
	<rect x="121.2" y="115.781" fill="#EEA738" width="3.6" height="3.6"/>
	<rect x="124.8" y="115.781" fill="#F8D666" width="3.6" height="3.6"/>
	<rect x="110.4" y="112.205" fill="#F8D666" width="3.6" height="3.6"/>
	<rect x="106.8" y="112.205" fill="#FCF3C5" width="3.6" height="3.6"/>
	<rect x="103.2" y="112.205" fill="#222020" width="3.6" height="3.6"/>
	<rect x="114" y="112.205" fill="#FCF3C5" width="3.6" height="3.6"/>
	<rect x="117.6" y="112.205" fill="#F8D666" width="3.6" height="3.6"/>
	<rect x="121.2" y="112.205" fill="#FCF3C5" width="3.6" height="3.6"/>
	<rect x="124.8" y="112.205" fill="#F8D666" width="3.6" height="3.6"/>
	<rect x="128.4" y="108.613" fill="#FCF3C5" width="3.6" height="3.601"/>
	<rect x="110.4" y="108.613" fill="#FCF3C5" width="3.6" height="3.601"/>
	<rect x="106.8" y="108.613" fill="#FCF3C5" width="3.6" height="3.601"/>
	<rect x="103.2" y="108.613" fill="#FCF3C5" width="3.6" height="3.601"/>
	<rect x="114" y="108.613" fill="#FCF3C5" width="3.6" height="3.601"/>
	<rect x="117.6" y="108.613" fill="#F8D666" width="3.6" height="3.601"/>
	<rect x="121.2" y="108.613" fill="#FCF3C5" width="3.6" height="3.601"/>
	<rect x="124.8" y="108.613" fill="#FCF3C5" width="3.6" height="3.601"/>
	<rect x="132" y="105.019" fill="#FCF3C5" width="3.6" height="3.601"/>
	<rect x="128.4" y="105.019" fill="#FCF3C5" width="3.6" height="3.601"/>
	<rect x="110.4" y="105.019" fill="#FCF3C5" width="3.6" height="3.601"/>
	<rect x="106.8" y="105.019" fill="#EEA738" width="3.6" height="3.601"/>
	<rect x="103.2" y="105.019" fill="#F8D666" width="3.6" height="3.601"/>
	<rect x="99.6" y="105.019" fill="#EEA738" width="3.6" height="3.601"/>
	<rect x="114" y="105.019" fill="#F8D666" width="3.6" height="3.601"/>
	<rect x="117.6" y="105.019" fill="#222020" width="3.6" height="3.601"/>
	<rect x="121.2" y="105.019" fill="#FFFFFF" width="3.6" height="3.601"/>
	<rect x="124.8" y="105.019" fill="#F8D666" width="3.6" height="3.601"/>
	<rect x="132" y="101.418" fill="#F8D666" width="3.6" height="3.601"/>
	<rect x="128.4" y="101.418" fill="#FCF3C5" width="3.6" height="3.601"/>
	<rect x="110.4" y="101.418" fill="#EEA738" width="3.6" height="3.601"/>
	<rect x="114" y="101.418" fill="#F8D666" width="3.6" height="3.601"/>
	<rect x="117.6" y="101.418" fill="#FCF3C5" width="3.6" height="3.601"/>
	<rect x="121.2" y="101.418" fill="#F8D666" width="3.6" height="3.601"/>
	<rect x="117.6" y="97.818" fill="#EEA738" width="3.6" height="3.6"/>
	<rect x="121.2" y="97.818" fill="#EEA738" width="3.6" height="3.6"/>
	<rect x="124.8" y="101.418" fill="#FCF3C5" width="3.6" height="3.601"/>
	<rect x="128.4" y="115.781" fill="#FCF3C5" width="3.6" height="3.6"/>
	<rect x="153.6" y="122.977" fill="#72060F" width="3.6" height="3.6"/>
	<rect x="146.4" y="126.59" fill="#AA4421" width="3.6" height="3.601"/>
	<rect x="150" y="126.59" fill="#AA4421" width="3.6" height="3.601"/>
	<rect x="153.6" y="126.581" fill="#F8D666" width="3.6" height="3.601"/>
	<rect x="146.4" y="94.223" fill="#222020" width="3.6" height="3.601"/>
	<rect x="142.8" y="94.223" fill="#F8D666" width="3.6" height="3.601"/>
	<rect x="139.2" y="94.223" fill="#F8D666" width="3.6" height="3.601"/>
	<rect x="142.8" y="97.818" fill="#222020" width="3.6" height="3.6"/>
	<rect x="139.2" y="97.818" fill="#F8D666" width="3.6" height="3.6"/>
	<rect x="139.2" y="101.418" fill="#FCF3C5" width="3.6" height="3.601"/>
	<rect x="135.6" y="97.818" fill="#EEA738" width="3.6" height="3.6"/>
	<rect x="132" y="97.818" fill="#F8D666" width="3.6" height="3.6"/>
	<rect x="128.4" y="97.818" fill="#FCF3C5" width="3.6" height="3.6"/>
	<rect x="128.4" y="94.207" fill="#F8D666" width="3.6" height="3.6"/>
	<rect x="124.8" y="94.207" fill="#EEA738" width="3.6" height="3.6"/>
	<rect x="124.8" y="97.818" fill="#F8D666" width="3.6" height="3.6"/>
	<rect x="124.8" y="90.637" fill="#AA4421" width="3.6" height="3.601"/>
	<rect x="132" y="94.207" fill="#EEA738" width="3.6" height="3.6"/>
	<rect x="132" y="90.637" fill="#AA4421" width="3.6" height="3.601"/>
	<rect x="135.6" y="87.042" fill="#72060F" width="3.6" height="3.601"/>
	<rect x="135.6" y="101.418" fill="#FCF3C5" width="3.6" height="3.601"/>
	<rect x="142.8" y="101.418" fill="#FCF3C5" width="3.6" height="3.601"/>
	<rect x="150" y="94.223" fill="#222020" width="3.6" height="3.601"/>
	<rect x="146.4" y="105.019" fill="#EEA738" width="3.6" height="3.601"/>
	<rect x="142.8" y="105.019" fill="#EEA738" width="3.6" height="3.601"/>
	<rect x="139.2" y="105.019" fill="#EEA738" width="3.6" height="3.601"/>
	<rect x="135.6" y="105.019" fill="#FCF3C5" width="3.6" height="3.601"/>
</g>
</svg>
