<?xml version="1.0" encoding="utf-8"?>
<!-- Generator: Adobe Illustrator 16.0.0, SVG Export Plug-In . SVG Version: 6.00 Build 0)  -->
<!DOCTYPE svg PUBLIC "-//W3C//DTD SVG 1.1//EN" "http://www.w3.org/Graphics/SVG/1.1/DTD/svg11.dtd">
<svg version="1.1" id="Layer_1" xmlns="http://www.w3.org/2000/svg" xmlns:xlink="http://www.w3.org/1999/xlink" x="0px" y="0px"
	 width="300px" height="300px" viewBox="0 0 300 300" enable-background="new 0 0 300 300" xml:space="preserve">
<g>
	<rect x="120" y="86.311" fill="#EF5446" width="7.5" height="7.5"/>
	<rect x="120" y="78.811" fill="#8A281C" width="7.5" height="7.5"/>
	<rect x="112.5" y="86.311" fill="#EF5446" width="7.5" height="7.5"/>
	<rect x="127.5" y="86.311" fill="#8A281C" width="7.5" height="7.5"/>
	<rect x="135" y="86.311" fill="#EF5446" width="7.5" height="7.5"/>
	<rect x="142.5" y="86.311" fill="#EF5446" width="7.5" height="7.5"/>
	<rect x="112.5" y="101.296" fill="#4D301C" width="7.5" height="7.5"/>
	<rect x="120" y="101.296" fill="#734A1D" width="7.5" height="7.5"/>
	<rect x="127.5" y="101.296" fill="#2F292B" width="7.5" height="7.5"/>
	<rect x="135" y="101.296" fill="#EF5446" width="7.5" height="7.5"/>
	<rect x="142.5" y="101.296" fill="#EF5446" width="7.5" height="7.5"/>
	<rect x="150" y="101.296" fill="#C7293B" width="7.5" height="7.5"/>
	<rect x="112.5" y="108.796" fill="#EDD69F" width="7.5" height="7.5"/>
	<rect x="120" y="108.796" fill="#2F292B" width="7.5" height="7.5"/>
	<rect x="127.5" y="108.796" fill="#734A1D" width="7.5" height="7.5"/>
	<rect x="135" y="108.796" fill="#4D301C" width="7.5" height="7.5"/>
	<rect x="142.5" y="108.796" fill="#734A1D" width="7.5" height="7.5"/>
	<rect x="150" y="108.796" fill="#EF5446" width="7.5" height="7.5"/>
	<rect x="112.5" y="116.296" fill="#EDD69F" width="7.5" height="7.5"/>
	<rect x="120" y="116.296" fill="#EDD69F" width="7.5" height="7.5"/>
	<rect x="112.5" y="123.767" fill="#EDD69F" width="7.5" height="7.5"/>
	<rect x="120" y="123.767" fill="#EDD69F" width="7.5" height="7.5"/>
	<rect x="112.5" y="138.718" fill="#2F292B" width="7.5" height="7.5"/>
	<rect x="120" y="138.718" fill="#7F95A5" width="7.5" height="7.5"/>
	<rect x="112.5" y="146.233" fill="#EDD69F" width="7.5" height="7.5"/>
	<rect x="120" y="146.233" fill="#2F292B" width="7.5" height="7.5"/>
	<rect x="112.5" y="153.718" fill="#CBC0A9" width="7.5" height="7.5"/>
	<rect x="105" y="146.233" fill="#EDD69F" width="7.5" height="7.5"/>
	<rect x="120" y="153.718" fill="#CBC0A9" width="7.5" height="7.5"/>
	<rect x="135" y="153.718" fill="#CBC0A9" width="7.5" height="7.5"/>
	<rect x="127.5" y="153.718" fill="#CBC0A9" width="7.5" height="7.5"/>
	<rect x="142.5" y="153.718" fill="#EDD69F" width="7.5" height="7.5"/>
	<rect x="157.5" y="153.718" fill="#EDD69F" width="7.5" height="7.5"/>
	<rect x="150" y="153.718" fill="#EDD69F" width="7.5" height="7.5"/>
	<rect x="135" y="161.204" fill="#FFFFFF" width="7.5" height="7.5"/>
	<rect x="127.5" y="161.204" fill="#FFFFFF" width="7.5" height="7.5"/>
	<rect x="142.5" y="161.204" fill="#FFFFFF" width="7.5" height="7.5"/>
	<rect x="150" y="161.204" fill="#C62C3D" width="7.5" height="7.5"/>
	<rect x="135" y="168.689" fill="#C62C3D" width="7.5" height="7.5"/>
	<rect x="127.5" y="168.689" fill="#C62C3D" width="7.5" height="7.5"/>
	<rect x="142.5" y="168.689" fill="#C62C3D" width="7.5" height="7.5"/>
	<rect x="150" y="168.689" fill="#EDD69F" width="7.5" height="7.5"/>
	<rect x="135" y="176.189" fill="#CBC0A9" width="7.5" height="7.5"/>
	<rect x="127.5" y="176.189" fill="#CBC0A9" width="7.5" height="7.5"/>
	<rect x="142.5" y="176.189" fill="#CBC0A9" width="7.5" height="7.5"/>
	<rect x="135" y="183.689" fill="#EDD69F" width="7.5" height="7.5"/>
	<rect x="142.5" y="183.689" fill="#EDD69F" width="7.5" height="7.5"/>
	<rect x="135" y="191.189" fill="#EDD69F" width="7.5" height="7.5"/>
	<rect x="142.5" y="191.189" fill="#EDD69F" width="7.5" height="7.5"/>
	<rect x="150" y="183.689" fill="#EDD69F" width="7.5" height="7.5"/>
	<rect x="150" y="176.189" fill="#EDD69F" width="7.5" height="7.5"/>
	<rect x="157.5" y="176.189" fill="#EDD69F" width="7.5" height="7.5"/>
	<rect x="157.5" y="191.189" fill="#808083" width="7.5" height="7.5"/>
	<rect x="150" y="191.189" fill="#EDD69F" width="7.5" height="7.5"/>
	<rect x="127.5" y="191.189" fill="#808083" width="7.5" height="7.5"/>
	<rect x="120" y="191.189" fill="#A2A4A6" width="7.5" height="7.5"/>
	<rect x="165" y="191.189" fill="#A2A4A6" width="7.5" height="7.5"/>
	<rect x="172.5" y="191.189" fill="#A2A4A6" width="7.5" height="7.5"/>
	<rect x="180" y="191.189" fill="#A2A4A6" width="7.5" height="7.5"/>
	<rect x="135" y="206.189" fill="#808083" width="7.5" height="7.5"/>
	<rect x="142.5" y="206.189" fill="#808083" width="7.5" height="7.5"/>
	<rect x="157.5" y="206.189" fill="#A2A4A6" width="7.5" height="7.5"/>
	<rect x="150" y="206.189" fill="#808083" width="7.5" height="7.5"/>
	<rect x="127.5" y="206.189" fill="#A2A4A6" width="7.5" height="7.5"/>
	<rect x="120" y="206.189" fill="#A2A4A6" width="7.5" height="7.5"/>
	<rect x="112.5" y="206.189" fill="#A2A4A6" width="7.5" height="7.5"/>
	<rect x="165" y="206.189" fill="#A2A4A6" width="7.5" height="7.5"/>
	<rect x="172.5" y="206.189" fill="#A2A4A6" width="7.5" height="7.5"/>
	<rect x="180" y="206.189" fill="#A2A4A6" width="7.5" height="7.5"/>
	<rect x="187.5" y="206.189" fill="#A2A4A6" width="7.5" height="7.5"/>
	<rect x="135" y="221.189" fill="#A2A4A6" width="7.5" height="7.5"/>
	<rect x="142.5" y="221.189" fill="#A2A4A6" width="7.5" height="7.5"/>
	<rect x="157.5" y="221.189" fill="#A2A4A6" width="7.5" height="7.5"/>
	<rect x="150" y="221.189" fill="#A2A4A6" width="7.5" height="7.5"/>
	<rect x="127.5" y="221.189" fill="#A2A4A6" width="7.5" height="7.5"/>
	<rect x="120" y="221.189" fill="#808083" width="7.5" height="7.5"/>
	<rect x="112.5" y="221.189" fill="#A2A4A6" width="7.5" height="7.5"/>
	<rect x="165" y="221.189" fill="#808083" width="7.5" height="7.5"/>
	<rect x="172.5" y="221.189" fill="#A2A4A6" width="7.5" height="7.5"/>
	<rect x="180" y="221.189" fill="#A2A4A6" width="7.5" height="7.5"/>
	<rect x="187.5" y="221.189" fill="#A2A4A6" width="7.5" height="7.5"/>
	<rect x="135" y="198.689" fill="#EDD69F" width="7.5" height="7.5"/>
	<rect x="142.5" y="198.689" fill="#EDD69F" width="7.5" height="7.5"/>
	<rect x="157.5" y="198.689" fill="#808083" width="7.5" height="7.5"/>
	<rect x="150" y="198.689" fill="#EDD69F" width="7.5" height="7.5"/>
	<rect x="127.5" y="198.689" fill="#808083" width="7.5" height="7.5"/>
	<rect x="120" y="198.689" fill="#A2A4A6" width="7.5" height="7.5"/>
	<rect x="112.5" y="198.689" fill="#A2A4A6" width="7.5" height="7.5"/>
	<rect x="165" y="198.689" fill="#A2A4A6" width="7.5" height="7.5"/>
	<rect x="172.5" y="198.689" fill="#A2A4A6" width="7.5" height="7.5"/>
	<rect x="180" y="198.689" fill="#A2A4A6" width="7.5" height="7.5"/>
	<rect x="187.5" y="198.689" fill="#A2A4A6" width="7.5" height="7.5"/>
	<rect x="135" y="213.689" fill="#A2A4A6" width="7.5" height="7.5"/>
	<rect x="142.5" y="213.689" fill="#A2A4A6" width="7.5" height="7.5"/>
	<rect x="157.5" y="213.689" fill="#A2A4A6" width="7.5" height="7.5"/>
	<rect x="150" y="213.689" fill="#A2A4A6" width="7.5" height="7.5"/>
	<rect x="127.5" y="213.689" fill="#A2A4A6" width="7.5" height="7.5"/>
	<rect x="120" y="213.689" fill="#808083" width="7.5" height="7.5"/>
	<rect x="112.5" y="213.689" fill="#A2A4A6" width="7.5" height="7.5"/>
	<rect x="165" y="213.689" fill="#808083" width="7.5" height="7.5"/>
	<rect x="172.5" y="213.689" fill="#A2A4A6" width="7.5" height="7.5"/>
	<rect x="180" y="213.689" fill="#A2A4A6" width="7.5" height="7.5"/>
	<rect x="187.5" y="213.689" fill="#A2A4A6" width="7.5" height="7.5"/>
	<rect x="165" y="153.718" fill="#EDD69F" width="7.5" height="7.5"/>
	<rect x="157.5" y="146.233" fill="#EDD69F" width="7.5" height="7.5"/>
	<rect x="165" y="146.233" fill="#EDD69F" width="7.5" height="7.5"/>
	<rect x="157.5" y="168.689" fill="#EDD69F" width="7.5" height="7.5"/>
	<rect x="165" y="168.689" fill="#EDD69F" width="7.5" height="7.5"/>
	<rect x="157.5" y="161.204" fill="#EDD69F" width="7.5" height="7.5"/>
	<rect x="165" y="161.204" fill="#EDD69F" width="7.5" height="7.5"/>
	<rect x="157.5" y="138.718" fill="#2F292B" width="7.5" height="7.5"/>
	<rect x="165" y="138.718" fill="#EDD69F" width="7.5" height="7.5"/>
	<rect x="157.5" y="123.767" fill="#2F292B" width="7.5" height="7.5"/>
	<rect x="165" y="123.767" fill="#4D301C" width="7.5" height="7.5"/>
	<rect x="172.5" y="138.718" fill="#EDD69F" width="7.5" height="7.5"/>
	<rect x="172.5" y="131.233" fill="#EDD69F" width="7.5" height="7.5"/>
	<rect x="127.5" y="116.296" fill="#4D301C" width="7.5" height="7.5"/>
	<rect x="135" y="116.296" fill="#4D301C" width="7.5" height="7.5"/>
	<rect x="142.5" y="116.296" fill="#2F292B" width="7.5" height="7.5"/>
	<rect x="150" y="116.296" fill="#734A1D" width="7.5" height="7.5"/>
	<rect x="127.5" y="123.767" fill="#EDD69F" width="7.5" height="7.5"/>
	<rect x="135" y="123.767" fill="#EDD69F" width="7.5" height="7.5"/>
	<rect x="142.5" y="123.767" fill="#734A1D" width="7.5" height="7.5"/>
	<rect x="150" y="123.767" fill="#2F292B" width="7.5" height="7.5"/>
	<rect x="112.5" y="131.233" fill="#2F292B" width="7.5" height="7.5"/>
	<rect x="120" y="131.233" fill="#2F292B" width="7.5" height="7.5"/>
	<rect x="157.5" y="131.233" fill="#4D301C" width="7.5" height="7.5"/>
	<rect x="165" y="131.233" fill="#2F292B" width="7.5" height="7.5"/>
	<rect x="127.5" y="131.233" fill="#2F292B" width="7.5" height="7.5"/>
	<rect x="135" y="131.233" fill="#2F292B" width="7.5" height="7.5"/>
	<rect x="142.5" y="131.233" fill="#2F292B" width="7.5" height="7.5"/>
	<rect x="150" y="131.233" fill="#2F292B" width="7.5" height="7.5"/>
	<rect x="127.5" y="138.718" fill="#FFFFFF" width="7.5" height="7.5"/>
	<rect x="135" y="138.718" fill="#4D301C" width="7.5" height="7.5"/>
	<rect x="142.5" y="138.718" fill="#EDD69F" width="7.5" height="7.5"/>
	<rect x="150" y="138.718" fill="#EDD69F" width="7.5" height="7.5"/>
	<rect x="127.5" y="146.218" fill="#4D301C" width="7.5" height="7.5"/>
	<rect x="135" y="146.218" fill="#EDD69F" width="7.5" height="7.5"/>
	<rect x="142.5" y="146.218" fill="#EDD69F" width="7.5" height="7.5"/>
	<rect x="150" y="146.218" fill="#EDD69F" width="7.5" height="7.5"/>
	<rect x="157.5" y="101.296" fill="#EF5446" width="7.5" height="7.5"/>
	<rect x="165" y="101.296" fill="#EF5446" width="7.5" height="7.5"/>
	<rect x="112.5" y="93.811" fill="#2F292B" width="7.5" height="7.5"/>
	<rect x="120" y="93.811" fill="#4D301C" width="7.5" height="7.5"/>
	<rect x="127.5" y="93.811" fill="#EF5446" width="7.5" height="7.5"/>
	<rect x="135" y="93.811" fill="#C7293B" width="7.5" height="7.5"/>
	<rect x="142.5" y="93.811" fill="#C7293B" width="7.5" height="7.5"/>
	<rect x="150" y="93.811" fill="#EF5446" width="7.5" height="7.5"/>
	<rect x="157.5" y="93.811" fill="#EF5446" width="7.5" height="7.5"/>
	<rect x="150" y="86.311" fill="#EF5446" width="7.5" height="7.5"/>
	<rect x="135" y="78.811" fill="#EF5446" width="7.5" height="7.5"/>
	<rect x="127.5" y="78.811" fill="#EF5446" width="7.5" height="7.5"/>
	<rect x="157.5" y="86.311" fill="#EF5446" width="7.5" height="7.5"/>
	<rect x="142.5" y="78.811" fill="#C7293B" width="7.5" height="7.5"/>
	<rect x="150" y="78.811" fill="#EF5446" width="7.5" height="7.5"/>
	<rect x="157.5" y="78.811" fill="#EF5446" width="7.5" height="7.5"/>
	<rect x="135" y="71.311" fill="#C7293B" width="7.5" height="7.5"/>
	<rect x="142.5" y="71.311" fill="#EF5446" width="7.5" height="7.5"/>
	<rect x="150" y="71.311" fill="#EF5446" width="7.5" height="7.5"/>
	<rect x="157.5" y="71.311" fill="#EF5446" width="7.5" height="7.5"/>
	<rect x="165" y="93.811" fill="#C7293B" width="7.5" height="7.5"/>
	<rect x="172.5" y="101.296" fill="#EF5446" width="7.5" height="7.5"/>
	<rect x="172.5" y="93.811" fill="#C7293B" width="7.5" height="7.5"/>
	<rect x="165" y="86.311" fill="#EF5446" width="7.5" height="7.5"/>
	<rect x="172.5" y="86.311" fill="#EF5446" width="7.5" height="7.5"/>
	<rect x="165" y="78.811" fill="#EF5446" width="7.5" height="7.5"/>
	<rect x="165" y="71.311" fill="#EF5446" width="7.5" height="7.5"/>
	<rect x="172.5" y="78.811" fill="#EF5446" width="7.5" height="7.5"/>
	<rect x="157.5" y="108.796" fill="#8A281C" width="7.5" height="7.5"/>
	<rect x="165" y="108.796" fill="#8A281C" width="7.5" height="7.5"/>
	<rect x="157.5" y="116.296" fill="#EF5446" width="7.5" height="7.5"/>
	<rect x="165" y="116.296" fill="#EF5446" width="7.5" height="7.5"/>
	<rect x="172.5" y="123.767" fill="#2F292B" width="7.5" height="7.5"/>
	<rect x="172.5" y="146.233" fill="#2F292B" width="7.5" height="7.5"/>
	<rect x="172.5" y="108.796" fill="#8A281C" width="7.5" height="7.5"/>
	<rect x="172.5" y="116.296" fill="#EF5446" width="7.5" height="7.5"/>
</g>
</svg>
