<?xml version="1.0" encoding="utf-8"?>
<!-- Generator: Adobe Illustrator 16.0.0, SVG Export Plug-In . SVG Version: 6.00 Build 0)  -->
<!DOCTYPE svg PUBLIC "-//W3C//DTD SVG 1.1//EN" "http://www.w3.org/Graphics/SVG/1.1/DTD/svg11.dtd">
<svg version="1.1" id="Layer_1" xmlns="http://www.w3.org/2000/svg" xmlns:xlink="http://www.w3.org/1999/xlink" x="0px" y="0px"
	 width="300px" height="300px" viewBox="0 0 300 300" enable-background="new 0 0 300 300" xml:space="preserve">
<g>
	<rect x="135" y="187.441" fill="#0CB4CD" width="7.5" height="7.5"/>
	<rect x="142.5" y="187.441" fill="#0CB4CD" width="7.5" height="7.5"/>
	<rect x="157.5" y="187.441" fill="#0CB4CD" width="7.5" height="7.5"/>
	<rect x="157.5" y="179.951" fill="#0CB4CD" width="7.5" height="7.5"/>
	<rect x="150" y="187.441" fill="#078B9E" width="7.5" height="7.5"/>
	<rect x="127.5" y="187.441" fill="#078B9E" width="7.5" height="7.5"/>
	<rect x="127.5" y="179.951" fill="#0CB4CD" width="7.5" height="7.5"/>
	<rect x="120" y="187.441" fill="#734A1D" width="7.5" height="7.5"/>
	<rect x="165" y="187.441" fill="#734A1D" width="7.5" height="7.5"/>
	<rect x="165" y="179.951" fill="#734A1D" width="7.5" height="7.5"/>
	<rect x="172.5" y="187.441" fill="#734A1D" width="7.5" height="7.5"/>
	<rect x="135" y="194.941" fill="#078B9E" width="7.5" height="7.5"/>
	<rect x="142.5" y="194.941" fill="#0CB4CD" width="7.5" height="7.5"/>
	<rect x="157.5" y="194.941" fill="#EEE1BF" width="7.5" height="7.5"/>
	<rect x="150" y="194.941" fill="#0CB4CD" width="7.5" height="7.5"/>
	<rect x="127.5" y="194.941" fill="#0CB4CD" width="7.5" height="7.5"/>
	<rect x="120" y="194.941" fill="#4D301C" width="7.5" height="7.5"/>
	<rect x="120" y="187.441" fill="#4D301C" width="7.5" height="7.5"/>
	<rect x="112.5" y="194.941" fill="#734A1D" width="7.5" height="7.5"/>
	<rect x="165" y="194.941" fill="#734A1D" width="7.5" height="7.5"/>
	<rect x="172.5" y="194.941" fill="#734A1D" width="7.5" height="7.5"/>
	<rect x="180" y="194.941" fill="#734A1D" width="7.5" height="7.5"/>
	<rect x="187.5" y="194.941" fill="#734A1D" width="7.5" height="7.5"/>
	<rect x="135" y="202.441" fill="#EEE1BF" width="7.5" height="7.5"/>
	<rect x="142.5" y="202.441" fill="#EEE1BF" width="7.5" height="7.5"/>
	<rect x="157.5" y="202.441" fill="#FFFFFF" width="7.5" height="7.5"/>
	<rect x="150" y="202.441" fill="#EEE1BF" width="7.5" height="7.5"/>
	<rect x="127.5" y="202.441" fill="#FFFFFF" width="7.5" height="7.5"/>
	<rect x="120" y="202.441" fill="#4D301C" width="7.5" height="7.5"/>
	<rect x="112.5" y="202.441" fill="#734A1D" width="7.5" height="7.5"/>
	<rect x="165" y="202.441" fill="#734A1D" width="7.5" height="7.5"/>
	<rect x="172.5" y="202.441" fill="#4D301C" width="7.5" height="7.5"/>
	<rect x="180" y="202.441" fill="#734A1D" width="7.5" height="7.5"/>
	<rect x="187.5" y="202.441" fill="#734A1D" width="7.5" height="7.5"/>
	<rect x="135" y="209.941" fill="#FFFFFF" width="7.5" height="7.5"/>
	<rect x="142.5" y="209.941" fill="#EEE1BF" width="7.5" height="7.5"/>
	<rect x="157.5" y="209.941" fill="#FFFFFF" width="7.5" height="7.5"/>
	<rect x="150" y="209.941" fill="#FFFFFF" width="7.5" height="7.5"/>
	<rect x="127.5" y="209.941" fill="#FFFFFF" width="7.5" height="7.5"/>
	<rect x="120" y="209.941" fill="#4D301C" width="7.5" height="7.5"/>
	<rect x="112.5" y="209.941" fill="#734A1D" width="7.5" height="7.5"/>
	<rect x="105" y="202.441" fill="#734A1D" width="7.5" height="7.5"/>
	<rect x="105" y="209.941" fill="#734A1D" width="7.5" height="7.5"/>
	<rect x="165" y="209.941" fill="#734A1D" width="7.5" height="7.5"/>
	<rect x="172.5" y="209.941" fill="#4D301C" width="7.5" height="7.5"/>
	<rect x="180" y="209.941" fill="#734A1D" width="7.5" height="7.5"/>
	<rect x="187.5" y="209.941" fill="#734A1D" width="7.5" height="7.5"/>
	<rect x="120" y="97.559" fill="#DBAC27" width="7.5" height="7.5"/>
	<rect x="127.5" y="97.559" fill="#EED29A" width="7.5" height="7.5"/>
	<rect x="135" y="97.559" fill="#FCFAE1" width="7.5" height="7.5"/>
	<rect x="142.5" y="97.559" fill="#FFFFFF" width="7.5" height="7.5"/>
	<rect x="150" y="97.559" fill="#FCFADF" width="7.5" height="7.5"/>
	<rect x="120" y="105.059" fill="#EEE1BF" width="7.5" height="7.5"/>
	<rect x="127.5" y="105.059" fill="#DBAC27" width="7.5" height="7.5"/>
	<rect x="135" y="105.059" fill="#EED29A" width="7.5" height="7.5"/>
	<rect x="142.5" y="105.059" fill="#FCFAE1" width="7.5" height="7.5"/>
	<rect x="150" y="105.059" fill="#FFFFFF" width="7.5" height="7.5"/>
	<rect x="120" y="112.559" fill="#EEE1BF" width="7.5" height="7.5"/>
	<rect x="120" y="120.029" fill="#EEE1BF" width="7.5" height="7.5"/>
	<rect x="120" y="127.515" fill="#EEE1BF" width="7.5" height="7.5"/>
	<rect x="112.5" y="135.029" fill="#EEE1BF" width="7.5" height="7.5"/>
	<rect x="120" y="135.029" fill="#EEE1BF" width="7.5" height="7.5"/>
	<rect x="120" y="142.515" fill="#EEE1BF" width="7.5" height="7.5"/>
	<rect x="135" y="142.515" fill="#EEE1BF" width="7.5" height="7.5"/>
	<rect x="127.5" y="142.515" fill="#EEE1BF" width="7.5" height="7.5"/>
	<rect x="142.5" y="142.515" fill="#EDD69F" width="7.5" height="7.5"/>
	<rect x="157.5" y="142.515" fill="#FCFAE1" width="7.5" height="7.5"/>
	<rect x="150" y="142.515" fill="#EEE1BF" width="7.5" height="7.5"/>
	<rect x="135" y="150" fill="#FFFFFF" width="7.5" height="7.5"/>
	<rect x="127.5" y="150" fill="#FFFFFF" width="7.5" height="7.5"/>
	<rect x="142.5" y="150" fill="#FFFFFF" width="7.5" height="7.5"/>
	<rect x="150" y="150" fill="#D28F8C" width="7.5" height="7.5"/>
	<rect x="135" y="157.485" fill="#D28F8C" width="7.5" height="7.5"/>
	<rect x="127.5" y="157.485" fill="#D28F8C" width="7.5" height="7.5"/>
	<rect x="142.5" y="157.485" fill="#D28F8C" width="7.5" height="7.5"/>
	<rect x="150" y="157.485" fill="#EEE1BF" width="7.5" height="7.5"/>
	<rect x="135" y="164.985" fill="#EEE1BF" width="7.5" height="7.5"/>
	<rect x="127.5" y="164.985" fill="#EEE1BF" width="7.5" height="7.5"/>
	<rect x="142.5" y="164.985" fill="#EEE1BF" width="7.5" height="7.5"/>
	<rect x="135" y="172.485" fill="#EDD69F" width="7.5" height="7.5"/>
	<rect x="142.5" y="172.485" fill="#EDD69F" width="7.5" height="7.5"/>
	<rect x="150" y="172.485" fill="#FAF399" width="7.5" height="7.5"/>
	<rect x="135" y="179.951" fill="#EDD69F" width="7.5" height="7.5"/>
	<rect x="142.5" y="179.951" fill="#EDD69F" width="7.5" height="7.5"/>
	<rect x="150" y="179.951" fill="#EDD69F" width="7.5" height="7.5"/>
	<rect x="150" y="164.985" fill="#EEE1BF" width="7.5" height="7.5"/>
	<rect x="157.5" y="164.985" fill="#FAF399" width="7.5" height="7.5"/>
	<rect x="157.5" y="135.029" fill="#FAF399" width="7.5" height="7.5"/>
	<rect x="165" y="135.029" fill="#EED29A" width="7.5" height="7.5"/>
	<rect x="157.5" y="157.485" fill="#FFFFFF" width="7.5" height="7.5"/>
	<rect x="157.5" y="150" fill="#FAF399" width="7.5" height="7.5"/>
	<rect x="157.5" y="127.515" fill="#EDD69F" width="7.5" height="7.5"/>
	<rect x="165" y="127.515" fill="#FCFAE1" width="7.5" height="7.5"/>
	<rect x="157.5" y="120.029" fill="#EDD69F" width="7.5" height="7.5"/>
	<rect x="165" y="120.029" fill="#FFFFFF" width="7.5" height="7.5"/>
	<rect x="172.5" y="127.515" fill="#FCFAE1" width="7.5" height="7.5"/>
	<rect x="172.5" y="120.029" fill="#FFFFFF" width="7.5" height="7.5"/>
	<rect x="127.5" y="112.559" fill="#EEE1BF" width="7.5" height="7.5"/>
	<rect x="135" y="112.559" fill="#EEE1BF" width="7.5" height="7.5"/>
	<rect x="142.5" y="112.559" fill="#EEE1BF" width="7.5" height="7.5"/>
	<rect x="150" y="112.559" fill="#EED29A" width="7.5" height="7.5"/>
	<rect x="127.5" y="120.029" fill="#EEE1BF" width="7.5" height="7.5"/>
	<rect x="135" y="120.015" fill="#EEE1BF" width="7.5" height="7.5"/>
	<rect x="142.5" y="120.029" fill="#EEE1BF" width="7.5" height="7.5"/>
	<rect x="150" y="120.029" fill="#FAF399" width="7.5" height="7.5"/>
	<rect x="127.5" y="127.515" fill="#6E5D55" width="7.5" height="7.5"/>
	<rect x="135" y="127.515" fill="#FFFFFF" width="7.5" height="7.5"/>
	<rect x="142.5" y="127.515" fill="#EEE1BF" width="7.5" height="7.5"/>
	<rect x="150" y="127.515" fill="#FAF399" width="7.5" height="7.5"/>
	<rect x="127.5" y="135.015" fill="#EEE1BF" width="7.5" height="7.5"/>
	<rect x="135" y="135.015" fill="#EEE1BF" width="7.5" height="7.5"/>
	<rect x="142.5" y="135.015" fill="#EEE1BF" width="7.5" height="7.5"/>
	<rect x="150" y="135.015" fill="#FCFAE1" width="7.5" height="7.5"/>
	<rect x="157.5" y="97.559" fill="#EED29A" width="7.5" height="7.5"/>
	<rect x="165" y="97.559" fill="#FCFAE1" width="7.5" height="7.5"/>
	<rect x="165" y="90.073" fill="#FAF399" width="7.5" height="7.5"/>
	<rect x="172.5" y="90.073" fill="#FCFAE1" width="7.5" height="7.5"/>
	<rect x="120" y="90.073" fill="#EED29A" width="7.5" height="7.5"/>
	<rect x="127.5" y="90.073" fill="#FCFAE1" width="7.5" height="7.5"/>
	<rect x="135" y="90.073" fill="#FFFFFF" width="7.5" height="7.5"/>
	<rect x="142.5" y="90.073" fill="#FCFADF" width="7.5" height="7.5"/>
	<rect x="150" y="90.073" fill="#FFFDF3" width="7.5" height="7.5"/>
	<rect x="127.5" y="82.573" fill="#FAF399" width="7.5" height="7.5"/>
	<rect x="135" y="82.573" fill="#FCFAE1" width="7.5" height="7.5"/>
	<rect x="142.5" y="82.573" fill="#FFFDF3" width="7.5" height="7.5"/>
	<rect x="150" y="82.573" fill="#FCFAE1" width="7.5" height="7.5"/>
	<rect x="157.5" y="90.073" fill="#FCFAE1" width="7.5" height="7.5"/>
	<rect x="157.5" y="82.559" fill="#FAF399" width="7.5" height="7.5"/>
	<rect x="165" y="82.559" fill="#FCFAE1" width="7.5" height="7.5"/>
	<rect x="157.5" y="105.059" fill="#FCFAE1" width="7.5" height="7.5"/>
	<rect x="157.5" y="120.029" fill="#EED29A" width="7.5" height="7.5"/>
	<rect x="157.5" y="127.515" fill="#FCFAE1" width="7.5" height="7.5"/>
	<rect x="165" y="105.059" fill="#FCFADF" width="7.5" height="7.5"/>
	<rect x="172.5" y="105.059" fill="#FAF399" width="7.5" height="7.5"/>
	<rect x="172.5" y="97.559" fill="#FAF399" width="7.5" height="7.5"/>
	<rect x="180" y="97.559" fill="#FCFAE1" width="7.5" height="7.5"/>
	<rect x="172.5" y="112.559" fill="#FCFAE1" width="7.5" height="7.5"/>
	<rect x="180" y="112.559" fill="#FAF399" width="7.5" height="7.5"/>
	<rect x="180" y="105.059" fill="#FCFAE1" width="7.5" height="7.5"/>
	<rect x="180" y="120.059" fill="#FCFAE1" width="7.5" height="7.5"/>
	<rect x="180" y="127.515" fill="#FCFAE1" width="7.5" height="7.5"/>
	<rect x="180" y="142.529" fill="#FFFFFF" width="7.5" height="7.5"/>
	<rect x="180" y="150.029" fill="#FCFAE1" width="7.5" height="7.5"/>
	<rect x="172.5" y="142.529" fill="#FAF399" width="7.5" height="7.5"/>
	<rect x="172.5" y="135.029" fill="#FAF399" width="7.5" height="7.5"/>
	<rect x="165" y="150.029" fill="#FFFFFF" width="7.5" height="7.5"/>
	<rect x="165" y="157.485" fill="#FAF399" width="7.5" height="7.5"/>
	<rect x="165" y="164.985" fill="#FCFAE1" width="7.5" height="7.5"/>
	<rect x="165" y="172.485" fill="#FAF399" width="7.5" height="7.5"/>
	<rect x="165" y="142.529" fill="#FFFFFF" width="7.5" height="7.5"/>
	<rect x="180" y="135.029" fill="#FCFAE1" width="7.5" height="7.5"/>
	<rect x="172.5" y="150.029" fill="#FCFADF" width="7.5" height="7.5"/>
	<rect x="180" y="157.485" fill="#EED29A" width="7.5" height="7.5"/>
	<rect x="187.5" y="150.029" fill="#FAF399" width="7.5" height="7.5"/>
	<rect x="187.5" y="135.029" fill="#FAF399" width="7.5" height="7.5"/>
	<rect x="187.5" y="120.059" fill="#FAF399" width="7.5" height="7.5"/>
	<rect x="187.5" y="127.559" fill="#FCFAE1" width="7.5" height="7.5"/>
	<rect x="172.5" y="157.485" fill="#FCFAE1" width="7.5" height="7.5"/>
	<rect x="180" y="164.985" fill="#FCFAE1" width="7.5" height="7.5"/>
	<rect x="187.5" y="142.495" fill="#FCFAE1" width="7.5" height="7.5"/>
	<rect x="187.5" y="112.544" fill="#FCFAE1" width="7.5" height="7.5"/>
	<rect x="172.5" y="164.985" fill="#FAF399" width="7.5" height="7.5"/>
	<rect x="157.5" y="112.559" fill="#FFFFFF" width="7.5" height="7.5"/>
	<rect x="165" y="112.559" fill="#FAF399" width="7.5" height="7.5"/>
</g>
</svg>
