<?xml version="1.0" encoding="utf-8"?>
<!-- Generator: Adobe Illustrator 16.0.0, SVG Export Plug-In . SVG Version: 6.00 Build 0)  -->
<!DOCTYPE svg PUBLIC "-//W3C//DTD SVG 1.1//EN" "http://www.w3.org/Graphics/SVG/1.1/DTD/svg11.dtd">
<svg version="1.1" id="Layer_1" xmlns="http://www.w3.org/2000/svg" xmlns:xlink="http://www.w3.org/1999/xlink" x="0px" y="0px"
	 width="300px" height="300px" viewBox="0 0 300 300" enable-background="new 0 0 300 300" xml:space="preserve">
<g>
	<rect x="126" y="90.098" fill="#231F20" width="6" height="6"/>
	<rect x="132" y="90.098" fill="#231F20" width="6" height="6"/>
	<rect x="138" y="90.098" fill="#231F20" width="6" height="6"/>
	<rect x="144" y="90.098" fill="#231F20" width="6" height="6"/>
	<rect x="120" y="102.09" fill="#DCB397" width="6" height="6"/>
	<rect x="126" y="102.09" fill="#DCB397" width="6" height="6"/>
	<rect x="132" y="102.09" fill="#EAC4B2" width="6" height="6"/>
	<rect x="138" y="102.09" fill="#EAC4B2" width="6" height="6"/>
	<rect x="144" y="102.09" fill="#414042" width="6" height="6"/>
	<rect x="150" y="102.09" fill="#231F20" width="6" height="6"/>
	<rect x="120" y="108.09" fill="#DBB6A0" width="6" height="6"/>
	<rect x="126" y="108.09" fill="#DCB397" width="6" height="6"/>
	<rect x="132" y="108.09" fill="#DCB397" width="6" height="6"/>
	<rect x="138" y="108.09" fill="#DBB6A0" width="6" height="6"/>
	<rect x="144" y="108.09" fill="#EAC4B2" width="6" height="6"/>
	<rect x="150" y="108.09" fill="#414042" width="6" height="6"/>
	<rect x="120" y="114.09" fill="#DBB6A0" width="6" height="6"/>
	<rect x="126" y="114.09" fill="#EAC4B2" width="6" height="6"/>
	<rect x="120" y="120.066" fill="#DCB397" width="6" height="6"/>
	<rect x="126" y="120.066" fill="#414042" width="6" height="6"/>
	<rect x="120" y="132.027" fill="#DBB6A0" width="6" height="6"/>
	<rect x="126" y="132.027" fill="#3B2314" width="6" height="6"/>
	<rect x="120" y="138.035" fill="#DCB397" width="6" height="6"/>
	<rect x="126" y="138.035" fill="#DBB6A0" width="6" height="6"/>
	<rect x="120" y="144.027" fill="#AA8C76" width="6" height="6"/>
	<rect x="114" y="138.035" fill="#DCB397" width="6" height="6"/>
	<rect x="126" y="144.027" fill="#B99881" width="6" height="6"/>
	<rect x="138" y="144.027" fill="#EAC4B2" width="6" height="6"/>
	<rect x="132" y="144.027" fill="#B99881" width="6" height="6"/>
	<rect x="144" y="144.027" fill="#C09385" width="6" height="6"/>
	<rect x="156" y="144.027" fill="#B99881" width="6" height="6"/>
	<rect x="150" y="144.027" fill="#DCB397" width="6" height="6"/>
	<rect x="138" y="150.012" fill="#FFFFFF" width="6" height="6"/>
	<rect x="132" y="150.012" fill="#FFFFFF" width="6" height="6"/>
	<rect x="144" y="150.012" fill="#AD6D67" width="6" height="6"/>
	<rect x="150" y="150.012" fill="#DCB397" width="6" height="6"/>
	<rect x="138" y="156.004" fill="#C97D7A" width="6" height="6"/>
	<rect x="132" y="156.004" fill="#C97D7A" width="6" height="6"/>
	<rect x="144" y="156.004" fill="#DCB397" width="6" height="6"/>
	<rect x="150" y="156.004" fill="#B99881" width="6" height="6"/>
	<rect x="138" y="162.004" fill="#B99881" width="6" height="6"/>
	<rect x="132" y="162.004" fill="#B99881" width="6" height="6"/>
	<rect x="144" y="162.004" fill="#B99881" width="6" height="6"/>
	<rect x="138" y="168.004" fill="#AA8C76" width="6" height="6"/>
	<rect x="144" y="168.004" fill="#DCB397" width="6" height="6"/>
	<rect x="150" y="168.004" fill="#DCB397" width="6" height="6"/>
	<rect x="150" y="162.004" fill="#B99881" width="6" height="6"/>
	<rect x="162" y="144.027" fill="#DCB397" width="6" height="6"/>
	<rect x="156" y="138.035" fill="#B99881" width="6" height="6"/>
	<rect x="162" y="138.035" fill="#DCB397" width="6" height="6"/>
	<rect x="156" y="156.004" fill="#B99881" width="6" height="6"/>
	<rect x="156" y="162.004" fill="#DCB397" width="6" height="6"/>
	<rect x="156" y="150.012" fill="#B99881" width="6" height="6"/>
	<rect x="156" y="132.027" fill="#B99881" width="6" height="6"/>
	<rect x="162" y="132.027" fill="#C09385" width="6" height="6"/>
	<rect x="156" y="120.066" fill="#414042" width="6" height="6"/>
	<rect x="162" y="120.066" fill="#231F20" width="6" height="6"/>
	<rect x="168" y="137.996" fill="#DCB397" width="6" height="6"/>
	<rect x="168" y="132.012" fill="#EAC4B2" width="6" height="6"/>
	<rect x="132" y="114.09" fill="#EAC4B2" width="6" height="6"/>
	<rect x="138" y="114.09" fill="#DCB397" width="6" height="6"/>
	<rect x="144" y="114.09" fill="#DCB397" width="6" height="6"/>
	<rect x="150" y="114.09" fill="#414042" width="6" height="6"/>
	<rect x="132" y="120.066" fill="#414042" width="6" height="6"/>
	<rect x="138" y="120.066" fill="#EAC4B2" width="6" height="6"/>
	<rect x="144" y="120.066" fill="#DCB397" width="6" height="6"/>
	<rect x="150" y="120.066" fill="#231F20" width="6" height="6"/>
	<rect x="120" y="126.035" fill="#DBB6A0" width="6" height="6"/>
	<rect x="126" y="126.035" fill="#B99881" width="6" height="6"/>
	<rect x="156" y="126.035" fill="#231F20" width="6" height="6"/>
	<rect x="162" y="126.035" fill="#EAC4B2" width="6" height="6"/>
	<rect x="132" y="126.035" fill="#B99881" width="6" height="6"/>
	<rect x="138" y="126.035" fill="#DCB397" width="6" height="6"/>
	<rect x="144" y="126.035" fill="#DCB397" width="6" height="6"/>
	<rect x="150" y="126.035" fill="#DCB397" width="6" height="6"/>
	<rect x="132" y="132.027" fill="#FFFFFF" width="6" height="6"/>
	<rect x="138" y="132.027" fill="#DCB397" width="6" height="6"/>
	<rect x="144" y="132.027" fill="#DCB397" width="6" height="6"/>
	<rect x="150" y="132.027" fill="#DCB397" width="6" height="6"/>
	<rect x="132" y="138.027" fill="#EAC4B2" width="6" height="6"/>
	<rect x="138" y="138.027" fill="#C09385" width="6" height="6"/>
	<rect x="144" y="138.027" fill="#DCB397" width="6" height="6"/>
	<rect x="150" y="138.027" fill="#DCB397" width="6" height="6"/>
	<rect x="156" y="102.09" fill="#231F20" width="6" height="6"/>
	<rect x="162" y="102.09" fill="#231F20" width="6" height="6"/>
	<rect x="120" y="96.098" fill="#414042" width="6" height="6"/>
	<rect x="126" y="96.098" fill="#231F20" width="6" height="6"/>
	<rect x="132" y="96.098" fill="#231F20" width="6" height="6"/>
	<rect x="138" y="96.098" fill="#414042" width="6" height="6"/>
	<rect x="144" y="96.098" fill="#231F20" width="6" height="6"/>
	<rect x="150" y="96.098" fill="#231F20" width="6" height="6"/>
	<rect x="156" y="96.098" fill="#231F20" width="6" height="6"/>
	<rect x="150" y="90.098" fill="#231F20" width="6" height="6"/>
	<rect x="156" y="90.098" fill="#414042" width="6" height="6"/>
	<rect x="162" y="96.098" fill="#231F20" width="6" height="6"/>
	<rect x="168" y="102.09" fill="#231F20" width="6" height="6"/>
	<rect x="156" y="108.09" fill="#231F20" width="6" height="6"/>
	<rect x="162" y="108.09" fill="#414042" width="6" height="6"/>
	<rect x="156" y="114.09" fill="#231F20" width="6" height="6"/>
	<rect x="162" y="114.09" fill="#231F20" width="6" height="6"/>
	<rect x="168" y="126.035" fill="#EAC4B2" width="6" height="6"/>
	<rect x="168" y="108.09" fill="#231F20" width="6" height="6"/>
	<rect x="168" y="114.09" fill="#231F20" width="6" height="6"/>
	<rect x="168" y="120.066" fill="#231F20" width="6" height="6"/>
	<rect x="138" y="174.02" fill="#DCB397" width="6" height="6"/>
	<rect x="143.969" y="173.988" fill="#B99881" width="6" height="6"/>
	<rect x="150" y="174.02" fill="#DCB397" width="6" height="6"/>
	<rect x="138" y="179.918" fill="#DCB397" width="6" height="6"/>
	<rect x="143.969" y="179.887" fill="#DCB397" width="6" height="6"/>
	<rect x="150" y="179.918" fill="#DCB397" width="6" height="6"/>
	<rect x="156" y="179.902" fill="#939598" width="6" height="6"/>
	<rect x="132" y="179.902" fill="#939598" width="6" height="6"/>
	<rect x="156" y="173.902" fill="#561324" width="6" height="6"/>
	<rect x="162" y="173.902" fill="#334D6B" width="6" height="6"/>
	<rect x="132" y="173.902" fill="#561324" width="6" height="6"/>
	<rect x="126" y="173.902" fill="#334D6B" width="6" height="6"/>
	<rect x="126" y="179.902" fill="#323133" width="6" height="6"/>
	<rect x="162" y="179.902" fill="#DFE0E1" width="6" height="6"/>
	<rect x="168" y="179.902" fill="#323133" width="6" height="6"/>
	<rect x="174" y="179.902" fill="#334D6B" width="6" height="6"/>
	<rect x="138" y="191.902" fill="#939598" width="6" height="6"/>
	<rect x="144" y="191.902" fill="#DCB397" width="6" height="6"/>
	<rect x="156" y="191.902" fill="#334D6B" width="6" height="6"/>
	<rect x="150" y="191.902" fill="#939598" width="6" height="6"/>
	<rect x="132" y="191.902" fill="#334D6B" width="6" height="6"/>
	<rect x="126" y="191.902" fill="#323133" width="6" height="6"/>
	<rect x="120" y="191.902" fill="#939598" width="6" height="6"/>
	<rect x="162" y="191.902" fill="#DFE0E1" width="6" height="6"/>
	<rect x="168" y="191.902" fill="#323133" width="6" height="6"/>
	<rect x="174" y="191.902" fill="#561324" width="6" height="6"/>
	<rect x="180" y="191.902" fill="#334D6B" width="6" height="6"/>
	<rect x="138" y="203.902" fill="#939598" width="6" height="6"/>
	<rect x="144" y="203.902" fill="#323133" width="6" height="6"/>
	<rect x="156" y="203.902" fill="#561324" width="6" height="6"/>
	<rect x="150" y="203.902" fill="#939598" width="6" height="6"/>
	<rect x="132" y="203.902" fill="#334D6B" width="6" height="6"/>
	<rect x="126" y="203.902" fill="#1A1818" width="6" height="6"/>
	<rect x="120" y="203.902" fill="#DFE0E1" width="6" height="6"/>
	<rect x="162" y="203.902" fill="#323133" width="6" height="6"/>
	<rect x="168" y="203.902" fill="#1A1818" width="6" height="6"/>
	<rect x="174" y="203.902" fill="#323133" width="6" height="6"/>
	<rect x="180" y="203.902" fill="#334D6B" width="6" height="6"/>
	<rect x="138" y="185.902" fill="#334D6B" width="6" height="6"/>
	<rect x="144" y="185.902" fill="#DCB397" width="6" height="6"/>
	<rect x="156" y="185.902" fill="#561324" width="6" height="6"/>
	<rect x="150" y="185.902" fill="#334D6B" width="6" height="6"/>
	<rect x="132" y="185.902" fill="#561324" width="6" height="6"/>
	<rect x="126" y="185.902" fill="#DFE0E1" width="6" height="6"/>
	<rect x="120" y="185.902" fill="#561324" width="6" height="6"/>
	<rect x="162" y="185.902" fill="#323133" width="6" height="6"/>
	<rect x="168" y="185.902" fill="#939598" width="6" height="6"/>
	<rect x="174" y="185.902" fill="#323133" width="6" height="6"/>
	<rect x="180" y="185.902" fill="#939598" width="6" height="6"/>
	<rect x="138" y="197.902" fill="#561324" width="6" height="6"/>
	<rect x="144" y="197.902" fill="#DFE0E1" width="6" height="6"/>
	<rect x="156" y="197.902" fill="#334D6B" width="6" height="6"/>
	<rect x="150" y="197.902" fill="#561324" width="6" height="6"/>
	<rect x="132" y="197.902" fill="#DFE0E1" width="6" height="6"/>
	<rect x="126" y="197.902" fill="#561324" width="6" height="6"/>
	<rect x="120" y="197.902" fill="#323133" width="6" height="6"/>
	<rect x="162" y="197.902" fill="#561324" width="6" height="6"/>
	<rect x="168" y="197.902" fill="#334D6B" width="6" height="6"/>
	<rect x="174" y="197.902" fill="#DFE0E1" width="6" height="6"/>
	<rect x="180" y="197.902" fill="#323133" width="6" height="6"/>
</g>
</svg>
