<?xml version="1.0" encoding="utf-8"?>
<!-- Generator: Adobe Illustrator 16.0.0, SVG Export Plug-In . SVG Version: 6.00 Build 0)  -->
<!DOCTYPE svg PUBLIC "-//W3C//DTD SVG 1.1//EN" "http://www.w3.org/Graphics/SVG/1.1/DTD/svg11.dtd">
<svg version="1.1" id="Layer_1" xmlns="http://www.w3.org/2000/svg" xmlns:xlink="http://www.w3.org/1999/xlink" x="0px" y="0px"
	 width="300px" height="300px" viewBox="0 0 300 300" enable-background="new 0 0 300 300" xml:space="preserve">
<g>
	<rect x="135" y="191.965" fill="#231F20" width="6" height="6"/>
	<rect x="141" y="191.965" fill="#EADAB2" width="6" height="6"/>
	<rect x="153" y="191.965" fill="#ECEEEE" width="6" height="6"/>
	<rect x="147" y="191.965" fill="#231F20" width="6" height="6"/>
	<rect x="129" y="191.965" fill="#ECEEEE" width="6" height="6"/>
	<rect x="123" y="191.965" fill="#231F20" width="6" height="6"/>
	<rect x="117" y="191.965" fill="#231F20" width="6" height="6"/>
	<rect x="159" y="191.965" fill="#231F20" width="6" height="6"/>
	<rect x="165" y="191.965" fill="#FFFFFF" width="6" height="6"/>
	<rect x="171" y="191.965" fill="#ECEEEE" width="6" height="6"/>
	<rect x="177" y="191.965" fill="#ECEEEE" width="6" height="6"/>
	<rect x="135" y="203.965" fill="#231F20" width="6" height="6"/>
	<rect x="141" y="203.965" fill="#231F20" width="6" height="6"/>
	<rect x="153" y="203.965" fill="#FFFFFF" width="6" height="6"/>
	<rect x="147" y="203.965" fill="#231F20" width="6" height="6"/>
	<rect x="129" y="203.965" fill="#FFFFFF" width="6" height="6"/>
	<rect x="123" y="203.965" fill="#C6C8C9" width="6" height="6"/>
	<rect x="117" y="203.965" fill="#ECEEEE" width="6" height="6"/>
	<rect x="159" y="203.965" fill="#ECEEEE" width="6" height="6"/>
	<rect x="165" y="203.965" fill="#C6C8C9" width="6" height="6"/>
	<rect x="171" y="203.965" fill="#ECEEEE" width="6" height="6"/>
	<rect x="177" y="203.965" fill="#ECEEEE" width="6" height="6"/>
	<rect x="135" y="185.965" fill="#EADAB2" width="6" height="6"/>
	<rect x="141" y="185.965" fill="#EADAB2" width="6" height="6"/>
	<rect x="153" y="185.965" fill="#231F20" width="6" height="6"/>
	<rect x="147" y="185.965" fill="#EADAB2" width="6" height="6"/>
	<rect x="141" y="179.965" fill="#EADAB2" width="6" height="6"/>
	<rect x="147" y="180.02" fill="#231F20" width="6" height="6"/>
	<rect x="129" y="185.965" fill="#ECEEEE" width="6" height="6"/>
	<rect x="117" y="185.965" fill="#FFFFFF" width="6" height="6"/>
	<rect x="159" y="185.965" fill="#334D6B" width="6" height="6"/>
	<rect x="165" y="185.965" fill="#231F20" width="6" height="6"/>
	<rect x="171" y="185.965" fill="#231F20" width="6" height="6"/>
	<rect x="177" y="185.965" fill="#ECEEEE" width="6" height="6"/>
	<rect x="117" y="180.02" fill="#ECEEEE" width="6" height="6"/>
	<rect x="135" y="197.965" fill="#231F20" width="6" height="6"/>
	<rect x="141" y="197.965" fill="#231F20" width="6" height="6"/>
	<rect x="153" y="197.965" fill="#ECEEEE" width="6" height="6"/>
	<rect x="147" y="197.965" fill="#231F20" width="6" height="6"/>
	<rect x="129" y="197.965" fill="#ECEEEE" width="6" height="6"/>
	<rect x="123" y="197.965" fill="#FFFFFF" width="6" height="6"/>
	<rect x="117" y="197.965" fill="#ECEEEE" width="6" height="6"/>
	<rect x="111" y="191.965" fill="#ECEEEE" width="6" height="6"/>
	<rect x="111" y="203.965" fill="#ECEEEE" width="6" height="6"/>
	<rect x="111" y="185.965" fill="#ECEEEE" width="6" height="6"/>
	<rect x="111" y="197.965" fill="#ECEEEE" width="6" height="6"/>
	<rect x="159" y="197.965" fill="#231F20" width="6" height="6"/>
	<rect x="165" y="197.965" fill="#231F20" width="6" height="6"/>
	<rect x="171" y="197.965" fill="#ECEEEE" width="6" height="6"/>
	<rect x="177" y="197.965" fill="#ECEEEE" width="6" height="6"/>
	<rect x="183" y="191.965" fill="#ECEEEE" width="6" height="6"/>
	<rect x="183" y="203.965" fill="#ECEEEE" width="6" height="6"/>
	<rect x="183" y="185.965" fill="#ECEEEE" width="6" height="6"/>
	<rect x="183" y="197.965" fill="#ECEEEE" width="6" height="6"/>
	<rect x="111" y="102.027" fill="#231F20" width="6" height="6"/>
	<rect x="111" y="108.027" fill="#231F20" width="6" height="6"/>
	<rect x="117" y="102.027" fill="#231F20" width="6" height="6"/>
	<rect x="123" y="102.027" fill="#231F20" width="6" height="6"/>
	<rect x="129" y="102.027" fill="#231F20" width="6" height="6"/>
	<rect x="135" y="102.027" fill="#231F20" width="6" height="6"/>
	<rect x="141" y="102.027" fill="#231F20" width="6" height="6"/>
	<rect x="117" y="108.027" fill="#231F20" width="6" height="6"/>
	<rect x="123" y="108.027" fill="#231F20" width="6" height="6"/>
	<rect x="129" y="108.027" fill="#231F20" width="6" height="6"/>
	<rect x="135" y="108.027" fill="#231F20" width="6" height="6"/>
	<rect x="141" y="108.027" fill="#323133" width="6" height="6"/>
	<rect x="117" y="114.027" fill="#EADAB2" width="6" height="6"/>
	<rect x="117" y="120.004" fill="#EADAB2" width="6" height="6"/>
	<rect x="117" y="125.988" fill="#EADAB2" width="6" height="6"/>
	<rect x="111" y="132.004" fill="#EADAB2" width="6" height="6"/>
	<rect x="117" y="132.004" fill="#EADAB2" width="6" height="6"/>
	<rect x="117" y="137.988" fill="#EADAB2" width="6" height="6"/>
	<rect x="129" y="137.988" fill="#EADAB2" width="6" height="6"/>
	<rect x="123" y="137.988" fill="#EADAB2" width="6" height="6"/>
	<rect x="135" y="137.988" fill="#EAC4B2" width="6" height="6"/>
	<rect x="147" y="137.988" fill="#231F20" width="6" height="6"/>
	<rect x="141" y="137.988" fill="#EAC4B2" width="6" height="6"/>
	<rect x="129" y="143.98" fill="#FFFFFF" width="6" height="6"/>
	<rect x="123" y="143.98" fill="#FFFFFF" width="6" height="6"/>
	<rect x="135" y="143.98" fill="#C2B59B" width="6" height="6"/>
	<rect x="141" y="143.98" fill="#EADAB2" width="6" height="6"/>
	<rect x="129" y="149.965" fill="#BE1E2D" width="6" height="6"/>
	<rect x="123" y="149.965" fill="#BE1E2D" width="6" height="6"/>
	<rect x="135" y="149.965" fill="#EADAB2" width="6" height="6"/>
	<rect x="141" y="149.965" fill="#EADAB2" width="6" height="6"/>
	<rect x="129" y="155.965" fill="#EADAB2" width="6" height="6"/>
	<rect x="123" y="155.965" fill="#EADAB2" width="6" height="6"/>
	<rect x="135" y="155.965" fill="#EADAB2" width="6" height="6"/>
	<rect x="129" y="161.965" fill="#231F20" width="6" height="6"/>
	<rect x="135" y="161.965" fill="#D8CFB1" width="6" height="6"/>
	<rect x="135" y="167.965" fill="#E8CD8D" width="6" height="6"/>
	<rect x="141" y="161.965" fill="#EADAB2" width="6" height="6"/>
	<rect x="141" y="155.965" fill="#D8CFB1" width="6" height="6"/>
	<rect x="147" y="155.965" fill="#323133" width="6" height="6"/>
	<rect x="141" y="167.965" fill="#FFFFFF" width="6" height="6"/>
	<rect x="153" y="167.965" fill="#231F20" width="6" height="6"/>
	<rect x="147" y="167.965" fill="#464749" width="6" height="6"/>
	<rect x="141" y="167.965" fill="#EADAB2" width="6" height="6"/>
	<rect x="141" y="173.965" fill="#EADAB2" width="6" height="6"/>
	<rect x="147" y="173.965" fill="#231F20" width="6" height="6"/>
	<rect x="159" y="167.965" fill="#231F20" width="6" height="6"/>
	<rect x="135" y="173.965" fill="#EADAB2" width="6" height="6"/>
	<rect x="153" y="173.965" fill="#231F20" width="6" height="6"/>
	<rect x="153" y="179.965" fill="#231F20" width="6" height="6"/>
	<rect x="135" y="179.965" fill="#EADAB2" width="6" height="6"/>
	<rect x="153" y="137.988" fill="#231F20" width="6" height="6"/>
	<rect x="147" y="132.004" fill="#231F20" width="6" height="6"/>
	<rect x="153" y="132.004" fill="#231F20" width="6" height="6"/>
	<rect x="147" y="149.965" fill="#323133" width="6" height="6"/>
	<rect x="153" y="149.965" fill="#231F20" width="6" height="6"/>
	<rect x="147" y="143.98" fill="#323133" width="6" height="6"/>
	<rect x="153" y="143.98" fill="#231F20" width="6" height="6"/>
	<rect x="147" y="125.988" fill="#EADAB2" width="6" height="6"/>
	<rect x="153" y="125.988" fill="#231F20" width="6" height="6"/>
	<rect x="147" y="120.004" fill="#EADAB2" width="6" height="6"/>
	<rect x="153" y="120.004" fill="#231F20" width="6" height="6"/>
	<rect x="159" y="125.988" fill="#323133" width="6" height="6"/>
	<rect x="159" y="120.004" fill="#323133" width="6" height="6"/>
	<rect x="123" y="114.012" fill="#726658" width="6" height="6"/>
	<rect x="129" y="114.012" fill="#B5AA8C" width="6" height="6"/>
	<rect x="135" y="114.027" fill="#EADAB2" width="6" height="6"/>
	<rect x="141" y="114.027" fill="#EADAB2" width="6" height="6"/>
	<rect x="123" y="120.004" fill="#EADAB2" width="6" height="6"/>
	<rect x="129" y="120.004" fill="#EADAB2" width="6" height="6"/>
	<rect x="135" y="119.988" fill="#CDC09D" width="6" height="6"/>
	<rect x="141" y="120.004" fill="#EADAB2" width="6" height="6"/>
	<rect x="123" y="125.988" fill="#6C8394" width="6" height="6"/>
	<rect x="129" y="125.988" fill="#FFFFFF" width="6" height="6"/>
	<rect x="135" y="125.988" fill="#EADAB2" width="6" height="6"/>
	<rect x="141" y="125.988" fill="#EADAB2" width="6" height="6"/>
	<rect x="123" y="131.988" fill="#EADAB2" width="6" height="6"/>
	<rect x="129" y="131.988" fill="#EADAB2" width="6" height="6"/>
	<rect x="135" y="131.988" fill="#EAC4B2" width="6" height="6"/>
	<rect x="141" y="131.988" fill="#F7E0CF" width="6" height="6"/>
	<rect x="147" y="102.027" fill="#323133" width="6" height="6"/>
	<rect x="153" y="102.027" fill="#DFE0E1" width="6" height="6"/>
	<rect x="147" y="90.035" fill="#231F20" width="6" height="6"/>
	<rect x="153" y="90.035" fill="#231F20" width="6" height="6"/>
	<rect x="153" y="96.035" fill="#464749" width="6" height="6"/>
	<rect x="159" y="96.035" fill="#231F20" width="6" height="6"/>
	<rect x="117" y="96.035" fill="#231F20" width="6" height="6"/>
	<rect x="123" y="96.035" fill="#231F20" width="6" height="6"/>
	<rect x="129" y="96.035" fill="#231F20" width="6" height="6"/>
	<rect x="135" y="96.035" fill="#231F20" width="6" height="6"/>
	<rect x="141" y="96.035" fill="#231F20" width="6" height="6"/>
	<rect x="123" y="90.035" fill="#231F20" width="6" height="6"/>
	<rect x="129" y="90.035" fill="#231F20" width="6" height="6"/>
	<rect x="135" y="90.035" fill="#231F20" width="6" height="6"/>
	<rect x="141" y="90.035" fill="#231F20" width="6" height="6"/>
	<rect x="147" y="96.035" fill="#231F20" width="6" height="6"/>
	<rect x="147" y="108.027" fill="#231F20" width="6" height="6"/>
	<rect x="147" y="120.004" fill="#231F20" width="6" height="6"/>
	<rect x="147" y="125.988" fill="#231F20" width="6" height="6"/>
	<rect x="153" y="108.027" fill="#231F20" width="6" height="6"/>
	<rect x="159" y="108.027" fill="#231F20" width="6" height="6"/>
	<rect x="159" y="102.027" fill="#231F20" width="6" height="6"/>
	<rect x="165" y="102.027" fill="#231F20" width="6" height="6"/>
	<rect x="159" y="114.027" fill="#323133" width="6" height="6"/>
	<rect x="165" y="114.027" fill="#231F20" width="6" height="6"/>
	<rect x="165" y="108.027" fill="#231F20" width="6" height="6"/>
	<rect x="165" y="120.027" fill="#231F20" width="6" height="6"/>
	<rect x="165" y="125.988" fill="#231F20" width="6" height="6"/>
	<rect x="165" y="138.004" fill="#231F20" width="6" height="6"/>
	<rect x="165" y="132.004" fill="#231F20" width="6" height="6"/>
	<rect x="165" y="144.004" fill="#231F20" width="6" height="6"/>
	<rect x="159" y="138.004" fill="#464749" width="6" height="6"/>
	<rect x="159" y="132.004" fill="#464749" width="6" height="6"/>
	<rect x="159" y="144.004" fill="#231F20" width="6" height="6"/>
	<rect x="165" y="149.965" fill="#231F20" width="6" height="6"/>
	<rect x="159" y="149.965" fill="#231F20" width="6" height="6"/>
	<rect x="165" y="155.965" fill="#231F20" width="6" height="6"/>
	<rect x="159" y="173.965" fill="#231F20" width="6" height="6"/>
	<rect x="159" y="179.965" fill="#231F20" width="6" height="6"/>
	<rect x="159" y="185.965" fill="#231F20" width="6" height="6"/>
	<rect x="165" y="167.965" fill="#231F20" width="6" height="6"/>
	<rect x="165" y="173.965" fill="#231F20" width="6" height="6"/>
	<rect x="171" y="173.965" fill="#ECEEEE" width="6" height="6"/>
	<rect x="177" y="179.965" fill="#ECEEEE" width="6" height="6"/>
	<rect x="171" y="179.965" fill="#FFFFFF" width="6" height="6"/>
	<rect x="165" y="179.965" fill="#231F20" width="6" height="6"/>
	<rect x="129" y="167.965" fill="#231F20" width="6" height="6"/>
	<rect x="129" y="173.965" fill="#231F20" width="6" height="6"/>
	<rect x="123" y="167.965" fill="#231F20" width="6" height="6"/>
	<rect x="123" y="161.965" fill="#231F20" width="6" height="6"/>
	<rect x="123" y="173.965" fill="#231F20" width="6" height="6"/>
	<rect x="123" y="179.965" fill="#231F20" width="6" height="6"/>
	<rect x="129" y="179.965" fill="#231F20" width="6" height="6"/>
	<rect x="123" y="185.965" fill="#231F20" width="6" height="6"/>
	<rect x="159" y="155.965" fill="#231F20" width="6" height="6"/>
	<rect x="165" y="161.965" fill="#231F20" width="6" height="6"/>
	<rect x="159" y="161.965" fill="#231F20" width="6" height="6"/>
	<rect x="153" y="155.965" fill="#231F20" width="6" height="6"/>
	<rect x="153" y="161.965" fill="#231F20" width="6" height="6"/>
	<rect x="147" y="161.965" fill="#323133" width="6" height="6"/>
	<rect x="159" y="167.965" fill="#231F20" width="6" height="6"/>
	<rect x="147" y="114.027" fill="#231F20" width="6" height="6"/>
	<rect x="153" y="114.027" fill="#231F20" width="6" height="6"/>
</g>
</svg>
