<?xml version="1.0" encoding="utf-8"?>
<!-- Generator: Adobe Illustrator 16.0.0, SVG Export Plug-In . SVG Version: 6.00 Build 0)  -->
<!DOCTYPE svg PUBLIC "-//W3C//DTD SVG 1.1//EN" "http://www.w3.org/Graphics/SVG/1.1/DTD/svg11.dtd">
<svg version="1.1" id="Layer_1" xmlns="http://www.w3.org/2000/svg" xmlns:xlink="http://www.w3.org/1999/xlink" x="0px" y="0px"
	 width="300px" height="300px" viewBox="0 0 300 300" enable-background="new 0 0 300 300" xml:space="preserve">
<g>
	<rect x="101.25" y="105.02" fill="#AD8D75" width="7.5" height="7.5"/>
	<rect x="108.75" y="97.52" fill="#CEA96F" width="7.5" height="7.5"/>
	<rect x="116.25" y="97.52" fill="#AD8D75" width="7.5" height="7.5"/>
	<rect x="123.75" y="97.52" fill="#EFD1B8" width="7.5" height="7.5"/>
	<rect x="131.25" y="97.52" fill="#F3D9D0" width="7.5" height="7.5"/>
	<rect x="138.75" y="97.52" fill="#F3D9D0" width="7.5" height="7.5"/>
	<rect x="108.75" y="105.02" fill="#AD8D75" width="7.5" height="7.5"/>
	<rect x="116.25" y="105.02" fill="#EEBFA2" width="7.5" height="7.5"/>
	<rect x="123.75" y="105.02" fill="#EFD1B8" width="7.5" height="7.5"/>
	<rect x="131.25" y="105.02" fill="#EFD1B8" width="7.5" height="7.5"/>
	<rect x="138.75" y="105.02" fill="#F3D9D0" width="7.5" height="7.5"/>
	<rect x="108.75" y="112.52" fill="#F3D9D0" width="7.5" height="7.5"/>
	<rect x="108.75" y="119.99" fill="#EFD1B8" width="7.5" height="7.5"/>
	<rect x="108.75" y="127.476" fill="#F3D9D0" width="7.5" height="7.5"/>
	<rect x="101.25" y="134.99" fill="#EFD1B8" width="7.5" height="7.5"/>
	<rect x="108.75" y="134.99" fill="#EFD1B8" width="7.5" height="7.5"/>
	<rect x="108.75" y="142.476" fill="#EFD1B8" width="7.5" height="7.5"/>
	<rect x="123.75" y="142.476" fill="#E5B29B" width="7.5" height="7.5"/>
	<rect x="116.25" y="142.476" fill="#EFD1B8" width="7.5" height="7.5"/>
	<rect x="131.25" y="142.476" fill="#E5B29B" width="7.5" height="7.5"/>
	<rect x="146.25" y="142.476" fill="#EFD1B8" width="7.5" height="7.5"/>
	<rect x="138.75" y="142.476" fill="#EEE3E0" width="7.5" height="7.5"/>
	<rect x="123.75" y="149.961" fill="#FFFFFF" width="7.5" height="7.5"/>
	<rect x="116.25" y="149.961" fill="#FFFFFF" width="7.5" height="7.5"/>
	<rect x="131.25" y="149.961" fill="#D28F8C" width="7.5" height="7.5"/>
	<rect x="138.75" y="149.961" fill="#EFCFC0" width="7.5" height="7.5"/>
	<rect x="123.75" y="157.446" fill="#D36368" width="7.5" height="7.5"/>
	<rect x="116.25" y="157.446" fill="#D36368" width="7.5" height="7.5"/>
	<rect x="131.25" y="157.446" fill="#EFD1B8" width="7.5" height="7.5"/>
	<rect x="138.75" y="157.446" fill="#EFD1B8" width="7.5" height="7.5"/>
	<rect x="123.75" y="164.946" fill="#EFD1B8" width="7.5" height="7.5"/>
	<rect x="116.25" y="164.946" fill="#E5B29B" width="7.5" height="7.5"/>
	<rect x="123.75" y="172.446" fill="#EFD1B8" width="7.5" height="7.5"/>
	<rect x="131.25" y="164.946" fill="#EFD1B8" width="7.5" height="7.5"/>
	<rect x="131.25" y="172.446" fill="#EEBFA2" width="7.5" height="7.5"/>
	<rect x="131.25" y="179.946" fill="#EFD1B8" width="7.5" height="7.5"/>
	<rect x="138.75" y="172.446" fill="#E5B29B" width="7.5" height="7.5"/>
	<rect x="138.75" y="164.946" fill="#EFD1B8" width="7.5" height="7.5"/>
	<rect x="146.279" y="164.946" fill="#E5B29B" width="7.5" height="7.5"/>
	<rect x="138.75" y="179.946" fill="#FFFFFF" width="7.5" height="7.5"/>
	<rect x="146.25" y="179.946" fill="#EFD1B8" width="7.5" height="7.5"/>
	<rect x="138.75" y="179.946" fill="#EFD1B8" width="7.5" height="7.5"/>
	<rect x="153.75" y="142.476" fill="#EFD1B8" width="7.5" height="7.5"/>
	<rect x="146.25" y="134.99" fill="#EFD1B8" width="7.5" height="7.5"/>
	<rect x="153.75" y="134.99" fill="#9B8579" width="7.5" height="7.5"/>
	<rect x="146.25" y="157.446" fill="#EFD1B8" width="7.5" height="7.5"/>
	<rect x="153.75" y="157.446" fill="#E5B29B" width="7.5" height="7.5"/>
	<rect x="146.25" y="149.961" fill="#EFD1B8" width="7.5" height="7.5"/>
	<rect x="153.75" y="149.961" fill="#EEBFA2" width="7.5" height="7.5"/>
	<rect x="146.25" y="127.476" fill="#EEE1BF" width="7.5" height="7.5"/>
	<rect x="153.75" y="127.476" fill="#9B8579" width="7.5" height="7.5"/>
	<rect x="146.25" y="119.99" fill="#EEE1BF" width="7.5" height="7.5"/>
	<rect x="153.75" y="119.99" fill="#9B8579" width="7.5" height="7.5"/>
	<rect x="161.25" y="127.476" fill="#AD8D75" width="7.5" height="7.5"/>
	<rect x="161.25" y="119.99" fill="#E3C680" width="7.5" height="7.5"/>
	<rect x="116.25" y="112.505" fill="#9B8579" width="7.5" height="7.5"/>
	<rect x="123.75" y="112.505" fill="#C2B59B" width="7.5" height="7.5"/>
	<rect x="131.25" y="112.52" fill="#EFD1B8" width="7.5" height="7.5"/>
	<rect x="138.75" y="112.52" fill="#EFD1B8" width="7.5" height="7.5"/>
	<rect x="116.25" y="119.99" fill="#EFD1B8" width="7.5" height="7.5"/>
	<rect x="123.75" y="119.99" fill="#EFD1B8" width="7.5" height="7.5"/>
	<rect x="131.25" y="119.976" fill="#C2B59B" width="7.5" height="7.5"/>
	<rect x="138.75" y="119.99" fill="#EFD1B8" width="7.5" height="7.5"/>
	<rect x="116.25" y="127.476" fill="#7F95A5" width="7.5" height="7.5"/>
	<rect x="123.75" y="127.476" fill="#FFFFFF" width="7.5" height="7.5"/>
	<rect x="131.25" y="127.476" fill="#EFD1B8" width="7.5" height="7.5"/>
	<rect x="138.75" y="127.476" fill="#EFD1B8" width="7.5" height="7.5"/>
	<rect x="116.25" y="134.976" fill="#EEE3E0" width="7.5" height="7.5"/>
	<rect x="123.75" y="134.976" fill="#E5B29B" width="7.5" height="7.5"/>
	<rect x="131.25" y="134.976" fill="#EEE3E0" width="7.5" height="7.5"/>
	<rect x="138.75" y="134.976" fill="#EFD1B8" width="7.5" height="7.5"/>
	<rect x="146.25" y="97.52" fill="#9B8579" width="7.5" height="7.5"/>
	<rect x="153.75" y="97.52" fill="#CEA96F" width="7.5" height="7.5"/>
	<rect x="146.25" y="82.534" fill="#947B42" width="7.5" height="7.5"/>
	<rect x="153.75" y="82.534" fill="#E9D9A3" width="7.5" height="7.5"/>
	<rect x="153.75" y="90.034" fill="#CEA96F" width="7.5" height="7.5"/>
	<rect x="161.25" y="90.034" fill="#E9D9A3" width="7.5" height="7.5"/>
	<rect x="108.75" y="90.034" fill="#E9D9A3" width="7.5" height="7.5"/>
	<rect x="116.25" y="90.034" fill="#CEA96F" width="7.5" height="7.5"/>
	<rect x="123.75" y="90.034" fill="#E3C680" width="7.5" height="7.5"/>
	<rect x="131.25" y="90.034" fill="#947B42" width="7.5" height="7.5"/>
	<rect x="138.75" y="90.034" fill="#947B42" width="7.5" height="7.5"/>
	<rect x="116.25" y="82.534" fill="#E9D9A3" width="7.5" height="7.5"/>
	<rect x="123.75" y="82.534" fill="#CEA96F" width="7.5" height="7.5"/>
	<rect x="131.25" y="82.534" fill="#E8E2B8" width="7.5" height="7.5"/>
	<rect x="138.75" y="82.534" fill="#947B42" width="7.5" height="7.5"/>
	<rect x="146.25" y="90.034" fill="#CEA96F" width="7.5" height="7.5"/>
	<rect x="146.25" y="105.02" fill="#9B8579" width="7.5" height="7.5"/>
	<rect x="146.25" y="119.99" fill="#EFD1B8" width="7.5" height="7.5"/>
	<rect x="146.25" y="127.476" fill="#F3D9D0" width="7.5" height="7.5"/>
	<rect x="153.75" y="105.02" fill="#CEA96F" width="7.5" height="7.5"/>
	<rect x="161.25" y="105.02" fill="#CEA96F" width="7.5" height="7.5"/>
	<rect x="161.25" y="97.52" fill="#CEA96F" width="7.5" height="7.5"/>
	<rect x="168.75" y="97.52" fill="#E9D9A3" width="7.5" height="7.5"/>
	<rect x="161.25" y="112.52" fill="#E3C680" width="7.5" height="7.5"/>
	<rect x="168.75" y="112.52" fill="#CEA96F" width="7.5" height="7.5"/>
	<rect x="168.75" y="105.02" fill="#CEA96F" width="7.5" height="7.5"/>
	<rect x="168.75" y="120.02" fill="#CEA96F" width="7.5" height="7.5"/>
	<rect x="176.25" y="112.52" fill="#E9D9A3" width="7.5" height="7.5"/>
	<rect x="176.25" y="120.02" fill="#E9D9A3" width="7.5" height="7.5"/>
	<rect x="168.75" y="127.476" fill="#E3C680" width="7.5" height="7.5"/>
	<rect x="176.25" y="127.476" fill="#CEA96F" width="7.5" height="7.5"/>
	<rect x="176.25" y="142.49" fill="#E3C680" width="7.5" height="7.5"/>
	<rect x="168.75" y="134.99" fill="#AD8D75" width="7.5" height="7.5"/>
	<rect x="176.25" y="134.99" fill="#E3C680" width="7.5" height="7.5"/>
	<rect x="176.25" y="149.99" fill="#E3C680" width="7.5" height="7.5"/>
	<rect x="183.75" y="142.49" fill="#E9D9A3" width="7.5" height="7.5"/>
	<rect x="183.75" y="149.99" fill="#E9D9A3" width="7.5" height="7.5"/>
	<rect x="183.75" y="134.976" fill="#E9D9A3" width="7.5" height="7.5"/>
	<rect x="161.25" y="142.49" fill="#9B8579" width="7.5" height="7.5"/>
	<rect x="161.25" y="134.99" fill="#9B8579" width="7.5" height="7.5"/>
	<rect x="161.25" y="149.99" fill="#AD8D75" width="7.5" height="7.5"/>
	<rect x="176.25" y="157.446" fill="#CEA96F" width="7.5" height="7.5"/>
	<rect x="183.75" y="157.446" fill="#E9D9A3" width="7.5" height="7.5"/>
	<rect x="161.25" y="157.446" fill="#AD8D75" width="7.5" height="7.5"/>
	<rect x="176.25" y="164.946" fill="#CEA96F" width="7.5" height="7.5"/>
	<rect x="176.25" y="172.446" fill="#E3C680" width="7.5" height="7.5"/>
	<rect x="176.25" y="179.946" fill="#E3C680" width="7.5" height="7.5"/>
	<rect x="168.75" y="142.49" fill="#9B8579" width="7.5" height="7.5"/>
	<rect x="168.75" y="149.99" fill="#9B8579" width="7.5" height="7.5"/>
	<rect x="168.75" y="157.446" fill="#AD8D75" width="7.5" height="7.5"/>
	<rect x="168.75" y="164.946" fill="#AD8D75" width="7.5" height="7.5"/>
	<rect x="168.75" y="172.446" fill="#AD8D75" width="7.5" height="7.5"/>
	<rect x="168.75" y="179.946" fill="#CEA96F" width="7.5" height="7.5"/>
	<rect x="161.25" y="172.446" fill="#9B8579" width="7.5" height="7.5"/>
	<rect x="161.25" y="179.946" fill="#9B8579" width="7.5" height="7.5"/>
	<rect x="183.75" y="164.946" fill="#CEA96F" width="7.5" height="7.5"/>
	<rect x="183.75" y="172.446" fill="#CEA96F" width="7.5" height="7.5"/>
	<rect x="183.75" y="179.946" fill="#CEA96F" width="7.5" height="7.5"/>
	<rect x="161.25" y="164.946" fill="#9B8579" width="7.5" height="7.5"/>
	<rect x="153.75" y="164.946" fill="#EFD1B8" width="7.5" height="7.5"/>
	<rect x="153.75" y="172.446" fill="#EFD1B8" width="7.5" height="7.5"/>
	<rect x="153.75" y="179.946" fill="#EFCFC0" width="7.5" height="7.5"/>
	<rect x="146.25" y="172.446" fill="#EFD1B8" width="7.5" height="7.5"/>
	<rect x="146.25" y="112.52" fill="#EFD1B8" width="7.5" height="7.5"/>
	<rect x="153.75" y="112.52" fill="#9B8579" width="7.5" height="7.5"/>
	<rect x="131.265" y="194.966" fill="#E5B29B" width="7.5" height="7.5"/>
	<rect x="138.765" y="194.966" fill="#E5B29B" width="7.5" height="7.5"/>
	<rect x="153.745" y="194.966" fill="#E5B29B" width="7.5" height="7.5"/>
	<rect x="146.265" y="194.966" fill="#E5B29B" width="7.5" height="7.5"/>
	<rect x="123.73" y="194.966" fill="#323133" width="7.5" height="7.5"/>
	<rect x="116.216" y="194.966" fill="#323133" width="7.5" height="7.5"/>
	<rect x="108.745" y="194.966" fill="#AD8D75" width="7.5" height="7.5"/>
	<rect x="161.245" y="194.966" fill="#323133" width="7.5" height="7.5"/>
	<rect x="168.745" y="194.966" fill="#323133" width="7.5" height="7.5"/>
	<rect x="183.755" y="194.966" fill="#323133" width="7.5" height="7.5"/>
	<rect x="183.755" y="187.466" fill="#323133" width="7.5" height="7.5"/>
	<rect x="131.279" y="209.966" fill="#323133" width="7.5" height="7.5"/>
	<rect x="138.779" y="209.966" fill="#323133" width="7.5" height="7.5"/>
	<rect x="153.745" y="209.966" fill="#323133" width="7.5" height="7.5"/>
	<rect x="146.279" y="209.966" fill="#323133" width="7.5" height="7.5"/>
	<rect x="123.745" y="209.966" fill="#323133" width="7.5" height="7.5"/>
	<rect x="116.216" y="209.966" fill="#323133" width="7.5" height="7.5"/>
	<rect x="108.745" y="209.966" fill="#323133" width="7.5" height="7.5"/>
	<rect x="161.245" y="209.966" fill="#323133" width="7.5" height="7.5"/>
	<rect x="168.745" y="209.966" fill="#323133" width="7.5" height="7.5"/>
	<rect x="183.755" y="209.966" fill="#323133" width="7.5" height="7.5"/>
	<rect x="131.245" y="187.466" fill="#EFCFC0" width="7.5" height="7.5"/>
	<rect x="138.745" y="187.466" fill="#EFD1B8" width="7.5" height="7.5"/>
	<rect x="153.745" y="187.466" fill="#EFCFC0" width="7.5" height="7.5"/>
	<rect x="146.245" y="187.471" fill="#EFD1B8" width="7.5" height="7.5"/>
	<rect x="123.745" y="187.466" fill="#9B8579" width="7.5" height="7.5"/>
	<rect x="108.745" y="187.466" fill="#AD8D75" width="7.5" height="7.5"/>
	<rect x="161.245" y="187.466" fill="#42607E" width="7.5" height="7.5"/>
	<rect x="168.745" y="187.466" fill="#CEA96F" width="7.5" height="7.5"/>
	<rect x="131.265" y="202.466" fill="#323133" width="7.5" height="7.5"/>
	<rect x="138.765" y="202.466" fill="#323133" width="7.5" height="7.5"/>
	<rect x="153.745" y="202.466" fill="#323133" width="7.5" height="7.5"/>
	<rect x="146.265" y="202.466" fill="#323133" width="7.5" height="7.5"/>
	<rect x="123.73" y="202.466" fill="#323133" width="7.5" height="7.5"/>
	<rect x="116.216" y="202.466" fill="#323133" width="7.5" height="7.5"/>
	<rect x="108.745" y="202.466" fill="#323133" width="7.5" height="7.5"/>
	<rect x="101.245" y="209.966" fill="#323133" width="7.5" height="7.5"/>
	<rect x="101.245" y="202.466" fill="#323133" width="7.5" height="7.5"/>
	<rect x="161.245" y="202.466" fill="#323133" width="7.5" height="7.5"/>
	<rect x="168.745" y="202.466" fill="#323133" width="7.5" height="7.5"/>
	<rect x="183.755" y="202.466" fill="#323133" width="7.5" height="7.5"/>
	<rect x="191.255" y="194.966" fill="#323133" width="7.5" height="7.5"/>
	<rect x="191.255" y="209.966" fill="#323133" width="7.5" height="7.5"/>
	<rect x="191.255" y="202.466" fill="#323133" width="7.5" height="7.5"/>
	<rect x="161.245" y="187.466" fill="#EFD1B8" width="7.5" height="7.5"/>
	<rect x="176.235" y="194.985" fill="#CEA96F" width="7.5" height="7.5"/>
	<rect x="176.255" y="209.966" fill="#323133" width="7.5" height="7.5"/>
	<rect x="176.235" y="187.485" fill="#CEA96F" width="7.5" height="7.5"/>
	<rect x="176.255" y="202.466" fill="#323133" width="7.5" height="7.5"/>
	<rect x="116.216" y="179.946" fill="#AD8D75" width="7.5" height="7.5"/>
	<rect x="123.73" y="179.946" fill="#9B8579" width="7.5" height="7.5"/>
	<rect x="116.216" y="187.466" fill="#9B8579" width="7.5" height="7.5"/>
</g>
</svg>
