<?xml version="1.0" encoding="utf-8"?>
<!-- Generator: Adobe Illustrator 16.0.0, SVG Export Plug-In . SVG Version: 6.00 Build 0)  -->
<!DOCTYPE svg PUBLIC "-//W3C//DTD SVG 1.1//EN" "http://www.w3.org/Graphics/SVG/1.1/DTD/svg11.dtd">
<svg version="1.1" id="Layer_1" xmlns="http://www.w3.org/2000/svg" xmlns:xlink="http://www.w3.org/1999/xlink" x="0px" y="0px"
	 width="300px" height="300px" viewBox="0 0 300 300" enable-background="new 0 0 300 300" xml:space="preserve">
<g>
	<rect x="135" y="191.961" fill="#FAC805" width="6" height="6"/>
	<rect x="141" y="191.961" fill="#FAC805" width="6" height="6"/>
	<rect x="153" y="191.961" fill="#3C2415" width="6" height="6"/>
	<rect x="147" y="191.961" fill="#FAC805" width="6" height="6"/>
	<rect x="129" y="191.961" fill="#FAC805" width="6" height="6"/>
	<rect x="123" y="191.961" fill="#FAC805" width="6" height="6"/>
	<rect x="117" y="191.961" fill="#FAC805" width="6" height="6"/>
	<rect x="159" y="191.961" fill="#231F20" width="6" height="6"/>
	<rect x="165" y="191.961" fill="#3C2415" width="6" height="6"/>
	<rect x="177" y="191.961" fill="#F7E0CF" width="6" height="6"/>
	<rect x="183" y="191.961" fill="#F7E0CF" width="6" height="6"/>
	<rect x="135" y="203.961" fill="#FAC805" width="6" height="6"/>
	<rect x="141" y="203.961" fill="#FAC805" width="6" height="6"/>
	<rect x="153" y="203.961" fill="#FAC805" width="6" height="6"/>
	<rect x="147" y="203.961" fill="#FAC805" width="6" height="6"/>
	<rect x="129" y="203.961" fill="#FAC805" width="6" height="6"/>
	<rect x="123" y="203.961" fill="#FAC805" width="6" height="6"/>
	<rect x="117" y="203.961" fill="#F7E0CF" width="6" height="6"/>
	<rect x="159" y="203.961" fill="#FAC805" width="6" height="6"/>
	<rect x="165" y="203.961" fill="#FAC805" width="6" height="6"/>
	<rect x="177" y="203.961" fill="#F7E0CF" width="6" height="6"/>
	<rect x="183" y="203.961" fill="#F7E0CF" width="6" height="6"/>
	<rect x="135" y="185.961" fill="#F7E0CF" width="6" height="6"/>
	<rect x="141" y="185.961" fill="#E3C680" width="6" height="6"/>
	<rect x="153" y="185.961" fill="#231F20" width="6" height="6"/>
	<rect x="147" y="185.969" fill="#F7E0CF" width="6" height="6"/>
	<rect x="141" y="179.961" fill="#F7E0CF" width="6" height="6"/>
	<rect x="147" y="179.766" fill="#E3C680" width="6" height="6"/>
	<rect x="129" y="185.961" fill="#F7E0CF" width="6" height="6"/>
	<rect x="117" y="185.961" fill="#FAC805" width="6" height="6"/>
	<rect x="159" y="185.961" fill="#42607E" width="6" height="6"/>
	<rect x="165" y="185.961" fill="#3C2415" width="6" height="6"/>
	<rect x="177" y="185.961" fill="#FAC805" width="6" height="6"/>
	<rect x="183" y="185.961" fill="#EEE3E0" width="6" height="6"/>
	<rect x="117" y="180.016" fill="#FAC805" width="6" height="6"/>
	<rect x="135" y="197.961" fill="#FAC805" width="6" height="6"/>
	<rect x="141" y="197.961" fill="#FAC805" width="6" height="6"/>
	<rect x="153" y="197.961" fill="#FAC805" width="6" height="6"/>
	<rect x="147" y="197.961" fill="#FAC805" width="6" height="6"/>
	<rect x="129" y="197.961" fill="#FAC805" width="6" height="6"/>
	<rect x="123" y="197.961" fill="#FAC805" width="6" height="6"/>
	<rect x="117" y="197.961" fill="#F7E0CF" width="6" height="6"/>
	<rect x="111" y="191.961" fill="#F7E0CF" width="6" height="6"/>
	<rect x="111" y="203.961" fill="#F7E0CF" width="6" height="6"/>
	<rect x="111" y="185.961" fill="#EEE3E0" width="6" height="6"/>
	<rect x="111" y="179.961" fill="#EEE3E0" width="6" height="6"/>
	<rect x="111" y="197.961" fill="#F7E0CF" width="6" height="6"/>
	<rect x="159" y="197.961" fill="#231F20" width="6" height="6"/>
	<rect x="165" y="197.961" fill="#5F3529" width="6" height="6"/>
	<rect x="177" y="197.961" fill="#F7E0CF" width="6" height="6"/>
	<rect x="183" y="197.961" fill="#F7E0CF" width="6" height="6"/>
	<rect x="111" y="102.023" fill="#3C2415" width="6" height="6"/>
	<rect x="111" y="108.023" fill="#3C2415" width="6" height="6"/>
	<rect x="117" y="102.023" fill="#231F20" width="6" height="6"/>
	<rect x="123" y="102.023" fill="#231F20" width="6" height="6"/>
	<rect x="129" y="102.023" fill="#F7E0CF" width="6" height="6"/>
	<rect x="135" y="102.023" fill="#F7E0CF" width="6" height="6"/>
	<rect x="141" y="102.023" fill="#3C2415" width="6" height="6"/>
	<rect x="117" y="108.023" fill="#EEE3E0" width="6" height="6"/>
	<rect x="123" y="108.023" fill="#F7E0CF" width="6" height="6"/>
	<rect x="129" y="108.023" fill="#F7E0CF" width="6" height="6"/>
	<rect x="135" y="108.023" fill="#F7E0CF" width="6" height="6"/>
	<rect x="141" y="108.023" fill="#231F20" width="6" height="6"/>
	<rect x="117" y="114.023" fill="#EEE3E0" width="6" height="6"/>
	<rect x="117" y="120" fill="#F7E0CF" width="6" height="6"/>
	<rect x="117" y="125.992" fill="#F7E0CF" width="6" height="6"/>
	<rect x="111" y="132" fill="#F7E0CF" width="6" height="6"/>
	<rect x="117" y="132" fill="#F7E0CF" width="6" height="6"/>
	<rect x="117" y="137.992" fill="#F7E0CF" width="6" height="6"/>
	<rect x="129" y="137.992" fill="#F7E0CF" width="6" height="6"/>
	<rect x="123" y="137.992" fill="#F7E0CF" width="6" height="6"/>
	<rect x="135" y="137.992" fill="#EEE3E0" width="6" height="6"/>
	<rect x="147" y="137.992" fill="#F7E0CF" width="6" height="6"/>
	<rect x="141" y="137.992" fill="#EFCFC0" width="6" height="6"/>
	<rect x="129" y="143.977" fill="#FFFFFF" width="6" height="6"/>
	<rect x="123" y="143.977" fill="#FFFFFF" width="6" height="6"/>
	<rect x="135" y="143.977" fill="#BB807B" width="6" height="6"/>
	<rect x="141" y="143.977" fill="#F7E0CF" width="6" height="6"/>
	<rect x="129" y="149.969" fill="#D28F8C" width="6" height="5.992"/>
	<rect x="123" y="149.969" fill="#D28F8C" width="6" height="5.992"/>
	<rect x="135" y="149.969" fill="#F7E0CF" width="6" height="5.992"/>
	<rect x="141" y="149.969" fill="#F7E0CF" width="6" height="5.992"/>
	<rect x="129" y="155.961" fill="#F7E0CF" width="6" height="6"/>
	<rect x="123" y="155.961" fill="#F7E0CF" width="6" height="6"/>
	<rect x="135" y="155.961" fill="#F7E0CF" width="6" height="6"/>
	<rect x="129" y="161.961" fill="#E3C7B1" width="6" height="6"/>
	<rect x="135" y="161.961" fill="#E3C7B1" width="6" height="6"/>
	<rect x="135" y="167.961" fill="#EEE3E0" width="6" height="6"/>
	<rect x="141" y="161.961" fill="#E3C7B1" width="6" height="6"/>
	<rect x="141" y="155.961" fill="#F7E0CF" width="6" height="6"/>
	<rect x="147" y="155.961" fill="#E3C7B1" width="6" height="6"/>
	<rect x="141" y="167.961" fill="#FFFFFF" width="6" height="6"/>
	<rect x="153" y="167.961" fill="#231F20" width="6" height="6"/>
	<rect x="147" y="167.961" fill="#F7E0CF" width="6" height="6"/>
	<rect x="141" y="167.961" fill="#F7E0CF" width="6" height="6"/>
	<rect x="141" y="173.961" fill="#F7E0CF" width="6" height="6"/>
	<rect x="147" y="173.961" fill="#231F20" width="6" height="6"/>
	<rect x="159" y="167.961" fill="#3C2415" width="6" height="6"/>
	<rect x="135" y="173.961" fill="#EEE3E0" width="6" height="6"/>
	<rect x="153" y="173.961" fill="#3C2415" width="6" height="6"/>
	<rect x="153" y="179.961" fill="#3C2415" width="6" height="6"/>
	<rect x="135" y="179.961" fill="#E3C680" width="6" height="6"/>
	<rect x="153" y="137.992" fill="#3C2415" width="6" height="6"/>
	<rect x="147" y="132" fill="#F7E0CF" width="6" height="6"/>
	<rect x="153" y="132" fill="#231F20" width="6" height="6"/>
	<rect x="147" y="149.969" fill="#F7E0CF" width="6" height="5.992"/>
	<rect x="153" y="149.969" fill="#3C2415" width="6" height="5.992"/>
	<rect x="147" y="143.977" fill="#F7E0CF" width="6" height="6"/>
	<rect x="153" y="143.977" fill="#231F20" width="6" height="6"/>
	<rect x="147" y="125.992" fill="#F7E0CF" width="6" height="6"/>
	<rect x="153" y="125.992" fill="#5F3529" width="6" height="6"/>
	<rect x="147" y="120" fill="#F7E0CF" width="6" height="6"/>
	<rect x="153" y="120" fill="#231F20" width="6" height="6"/>
	<rect x="159" y="125.992" fill="#231F20" width="6" height="6"/>
	<rect x="159" y="120" fill="#3C2415" width="6" height="6"/>
	<rect x="123" y="114.016" fill="#231F20" width="6" height="6"/>
	<rect x="129" y="114.016" fill="#9B8579" width="6" height="6"/>
	<rect x="135" y="114" fill="#F7E0CF" width="6" height="6"/>
	<rect x="141" y="114.023" fill="#F7E0CF" width="6" height="6"/>
	<rect x="123" y="120" fill="#F7E0CF" width="6" height="6"/>
	<rect x="129" y="120" fill="#F7E0CF" width="6" height="6"/>
	<rect x="135" y="119.992" fill="#E3C7B1" width="6" height="6"/>
	<rect x="141" y="119.977" fill="#F7E0CF" width="6" height="6"/>
	<rect x="123" y="125.992" fill="#7F95A5" width="6" height="6"/>
	<rect x="129" y="125.992" fill="#FFFFFF" width="6" height="6"/>
	<rect x="123" y="131.992" fill="#F7E0CF" width="6" height="6"/>
	<rect x="129" y="131.992" fill="#EFCFC0" width="6" height="6"/>
	<rect x="135" y="125.992" fill="#F7E0CF" width="6" height="6"/>
	<rect x="141" y="125.992" fill="#F7E0CF" width="6" height="6"/>
	<rect x="135" y="131.992" fill="#EFCFC0" width="6" height="6"/>
	<rect x="141" y="131.992" fill="#F7E0CF" width="6" height="6"/>
	<rect x="147" y="102.023" fill="#231F20" width="6" height="6"/>
	<rect x="153" y="102.023" fill="#5F3529" width="6" height="6"/>
	<rect x="147" y="90.039" fill="#231F20" width="6" height="6"/>
	<rect x="153" y="90.039" fill="#3C2415" width="6" height="6"/>
	<rect x="153" y="96.039" fill="#3C2415" width="6" height="6"/>
	<rect x="159" y="96.039" fill="#3C2415" width="6" height="6"/>
	<rect x="117" y="96.039" fill="#3C2415" width="6" height="6"/>
	<rect x="123" y="96.039" fill="#3C2415" width="6" height="6"/>
	<rect x="129" y="96.039" fill="#231F20" width="6" height="6"/>
	<rect x="135" y="96.039" fill="#231F20" width="6" height="6"/>
	<rect x="141" y="96.039" fill="#231F20" width="6" height="6"/>
	<rect x="123" y="90.039" fill="#3C2415" width="6" height="6"/>
	<rect x="129" y="90.039" fill="#3C2415" width="6" height="6"/>
	<rect x="135" y="90.039" fill="#3C2415" width="6" height="6"/>
	<rect x="141" y="90.039" fill="#3C2415" width="6" height="6"/>
	<rect x="147" y="96.039" fill="#3C2415" width="6" height="6"/>
	<rect x="147" y="108.023" fill="#3C2415" width="6" height="6"/>
	<rect x="147" y="120" fill="#F7E0CF" width="6" height="6"/>
	<rect x="147" y="125.992" fill="#F7E0CF" width="6" height="6"/>
	<rect x="153" y="108.023" fill="#231F20" width="6" height="6"/>
	<rect x="159" y="108.023" fill="#5F3529" width="6" height="6"/>
	<rect x="159" y="102.023" fill="#3C2415" width="6" height="6"/>
	<rect x="165" y="102.023" fill="#3C2415" width="6" height="6"/>
	<rect x="159" y="114.023" fill="#231F20" width="6" height="6"/>
	<rect x="165" y="114.023" fill="#5F3529" width="6" height="6"/>
	<rect x="165" y="108.023" fill="#3C2415" width="6" height="6"/>
	<rect x="165" y="120.023" fill="#231F20" width="6" height="6"/>
	<rect x="165" y="125.992" fill="#3C2415" width="6" height="6"/>
	<rect x="165" y="138" fill="#231F20" width="6" height="6"/>
	<rect x="165" y="132" fill="#231F20" width="6" height="6"/>
	<rect x="165" y="144" fill="#5F3529" width="6" height="6"/>
	<rect x="171" y="120.023" fill="#3C2415" width="6" height="6"/>
	<rect x="171" y="125.992" fill="#3C2415" width="6" height="6"/>
	<rect x="177" y="120.023" fill="#3C2415" width="6" height="6"/>
	<rect x="171" y="114.062" fill="#3C2415" width="6" height="6"/>
	<rect x="171" y="108.023" fill="#3C2415" width="6" height="6"/>
	<rect x="171" y="132" fill="#3C2415" width="6" height="6"/>
	<rect x="171" y="138" fill="#231F20" width="6" height="6"/>
	<rect x="171" y="144" fill="#231F20" width="6" height="6"/>
	<rect x="159" y="138" fill="#F7E0CF" width="6" height="6"/>
	<rect x="159" y="132" fill="#EEE3E0" width="6" height="6"/>
	<rect x="159" y="144" fill="#3C2415" width="6" height="6"/>
	<rect x="165" y="149.969" fill="#3C2415" width="6" height="5.992"/>
	<rect x="171" y="149.969" fill="#5F3529" width="6" height="5.992"/>
	<rect x="159" y="149.969" fill="#231F20" width="6" height="5.992"/>
	<rect x="165" y="155.961" fill="#231F20" width="6" height="6"/>
	<rect x="171" y="155.961" fill="#3C2415" width="6" height="6"/>
	<rect x="159" y="173.961" fill="#231F20" width="6" height="6"/>
	<rect x="159" y="179.961" fill="#231F20" width="6" height="6"/>
	<rect x="159" y="185.961" fill="#3C2415" width="6" height="6"/>
	<rect x="165" y="167.961" fill="#6E3E31" width="6" height="6"/>
	<rect x="171" y="161.961" fill="#3C2415" width="6" height="6"/>
	<rect x="165" y="173.961" fill="#3C2415" width="6" height="6"/>
	<rect x="171" y="167.961" fill="#231F20" width="6" height="6"/>
	<rect x="171" y="173.961" fill="#3C2415" width="6" height="6"/>
	<rect x="177" y="138" fill="#3C2415" width="6" height="6"/>
	<rect x="183" y="144" fill="#3C2415" width="6" height="6"/>
	<rect x="183" y="149.961" fill="#3C2415" width="6" height="6"/>
	<rect x="183" y="167.961" fill="#5F3529" width="6" height="6"/>
	<rect x="177" y="144" fill="#3C2415" width="6" height="6"/>
	<rect x="177" y="155.961" fill="#231F20" width="6" height="6"/>
	<rect x="177" y="161.961" fill="#3C2415" width="6" height="6"/>
	<rect x="177" y="167.961" fill="#3C2415" width="6" height="6"/>
	<rect x="177" y="173.961" fill="#231F20" width="6" height="6"/>
	<rect x="183" y="173.961" fill="#231F20" width="6" height="6"/>
	<rect x="183" y="179.766" fill="#3C2415" width="6" height="6"/>
	<rect x="177" y="179.961" fill="#FAC805" width="6" height="6"/>
	<rect x="171" y="191.961" fill="#FAC805" width="6" height="6"/>
	<rect x="171" y="203.961" fill="#FAC805" width="6" height="6"/>
	<rect x="171" y="185.961" fill="#231F20" width="6" height="6"/>
	<rect x="171" y="197.961" fill="#FAC805" width="6" height="6"/>
	<rect x="171" y="179.961" fill="#231F20" width="6" height="6"/>
	<rect x="165" y="179.961" fill="#231F20" width="6" height="6"/>
	<rect x="129" y="167.961" fill="#3C2415" width="6" height="6"/>
	<rect x="129" y="173.961" fill="#3C2415" width="6" height="6"/>
	<rect x="123" y="167.961" fill="#231F20" width="6" height="6"/>
	<rect x="123" y="161.961" fill="#3C2415" width="6" height="6"/>
	<rect x="123" y="173.961" fill="#231F20" width="6" height="6"/>
	<rect x="117" y="167.961" fill="#5F3529" width="6" height="6"/>
	<rect x="117" y="173.961" fill="#3C2415" width="6" height="6"/>
	<rect x="123" y="179.961" fill="#3C2415" width="6" height="6"/>
	<rect x="129" y="179.961" fill="#231F20" width="6" height="6"/>
	<rect x="123" y="185.961" fill="#3C2415" width="6" height="6"/>
	<rect x="159" y="155.961" fill="#3C2415" width="6" height="6"/>
	<rect x="165" y="161.961" fill="#231F20" width="6" height="6"/>
	<rect x="159" y="161.961" fill="#5F3529" width="6" height="6"/>
	<rect x="153" y="155.961" fill="#5F3529" width="6" height="6"/>
	<rect x="153" y="161.961" fill="#231F20" width="6" height="6"/>
	<rect x="147" y="161.961" fill="#F7E0CF" width="6" height="6"/>
	<rect x="159" y="167.961" fill="#3C2415" width="6" height="6"/>
	<rect x="147" y="114.023" fill="#231F20" width="6" height="6"/>
	<rect x="153" y="114.023" fill="#3C2415" width="6" height="6"/>
</g>
</svg>
