<?xml version="1.0" encoding="utf-8"?>
<!-- Generator: Adobe Illustrator 16.0.0, SVG Export Plug-In . SVG Version: 6.00 Build 0)  -->
<!DOCTYPE svg PUBLIC "-//W3C//DTD SVG 1.1//EN" "http://www.w3.org/Graphics/SVG/1.1/DTD/svg11.dtd">
<svg version="1.1" id="Layer_1" xmlns="http://www.w3.org/2000/svg" xmlns:xlink="http://www.w3.org/1999/xlink" x="0px" y="0px"
	 width="300px" height="300px" viewBox="0 0 300 300" enable-background="new 0 0 300 300" xml:space="preserve">
<g>
	<rect x="108.75" y="97.529" fill="#4D301C" width="7.5" height="7.5"/>
	<rect x="108.75" y="105.029" fill="#4D301C" width="7.5" height="7.5"/>
	<rect x="108.75" y="112.529" fill="#4D301C" width="7.5" height="7.5"/>
	<rect x="116.25" y="97.529" fill="#4D301C" width="7.5" height="7.5"/>
	<rect x="123.75" y="97.529" fill="#4D301C" width="7.5" height="7.5"/>
	<rect x="131.25" y="97.529" fill="#4D301C" width="7.5" height="7.5"/>
	<rect x="138.75" y="97.529" fill="#734A1D" width="7.5" height="7.5"/>
	<rect x="146.25" y="97.529" fill="#4D301C" width="7.5" height="7.5"/>
	<rect x="116.25" y="105.029" fill="#EDD69F" width="7.5" height="7.5"/>
	<rect x="123.75" y="105.029" fill="#EDD69F" width="7.5" height="7.5"/>
	<rect x="131.25" y="105.029" fill="#4D301C" width="7.5" height="7.5"/>
	<rect x="138.75" y="105.029" fill="#4D301C" width="7.5" height="7.5"/>
	<rect x="146.25" y="105.029" fill="#4D301C" width="7.5" height="7.5"/>
	<rect x="116.25" y="112.529" fill="#EDD69F" width="7.5" height="7.5"/>
	<rect x="116.25" y="120" fill="#EDD69F" width="7.5" height="7.5"/>
	<rect x="116.25" y="127.485" fill="#EDD69F" width="7.5" height="7.5"/>
	<rect x="108.75" y="135" fill="#EDD69F" width="7.5" height="7.5"/>
	<rect x="116.25" y="135" fill="#EDD69F" width="7.5" height="7.5"/>
	<rect x="116.25" y="142.485" fill="#EDD69F" width="7.5" height="7.5"/>
	<rect x="131.25" y="142.485" fill="#EDD69F" width="7.5" height="7.5"/>
	<rect x="123.75" y="142.485" fill="#EDD69F" width="7.5" height="7.5"/>
	<rect x="138.75" y="142.485" fill="#EDD69F" width="7.5" height="7.5"/>
	<rect x="153.75" y="142.485" fill="#EDD69F" width="7.5" height="7.5"/>
	<rect x="146.25" y="142.485" fill="#EDD69F" width="7.5" height="7.5"/>
	<rect x="131.25" y="149.971" fill="#FFFFFF" width="7.5" height="7.5"/>
	<rect x="123.75" y="149.971" fill="#FFFFFF" width="7.5" height="7.5"/>
	<rect x="138.75" y="149.971" fill="#FFFFFF" width="7.5" height="7.5"/>
	<rect x="146.25" y="149.971" fill="#D9787C" width="7.5" height="7.5"/>
	<rect x="131.25" y="157.456" fill="#D9787C" width="7.5" height="7.5"/>
	<rect x="123.75" y="157.456" fill="#D9787C" width="7.5" height="7.5"/>
	<rect x="138.75" y="157.456" fill="#D9787C" width="7.5" height="7.5"/>
	<rect x="146.25" y="157.456" fill="#EDD69F" width="7.5" height="7.5"/>
	<rect x="131.25" y="164.956" fill="#EDD69F" width="7.5" height="7.5"/>
	<rect x="123.75" y="164.956" fill="#EDD69F" width="7.5" height="7.5"/>
	<rect x="138.75" y="164.956" fill="#EDD69F" width="7.5" height="7.5"/>
	<rect x="131.25" y="172.456" fill="#EDD69F" width="7.5" height="7.5"/>
	<rect x="138.75" y="172.456" fill="#EDD69F" width="7.5" height="7.5"/>
	<rect x="131.25" y="179.956" fill="#FFFFFF" width="7.5" height="7.5"/>
	<rect x="138.75" y="179.956" fill="#EDD69F" width="7.5" height="7.5"/>
	<rect x="146.25" y="172.456" fill="#EDD69F" width="7.5" height="7.5"/>
	<rect x="146.25" y="164.956" fill="#EDD69F" width="7.5" height="7.5"/>
	<rect x="153.75" y="164.956" fill="#EDD69F" width="7.5" height="7.5"/>
	<rect x="153.75" y="172.456" fill="#0394C4" width="7.5" height="7.5"/>
	<rect x="153.75" y="179.956" fill="#0394C4" width="7.5" height="7.5"/>
	<rect x="146.25" y="179.956" fill="#FFFFFF" width="7.5" height="7.5"/>
	<rect x="123.75" y="179.956" fill="#0394C4" width="7.5" height="7.5"/>
	<rect x="161.25" y="179.956" fill="#4D301C" width="7.5" height="7.5"/>
	<rect x="168.75" y="179.956" fill="#A9958A" width="7.5" height="7.5"/>
	<rect x="131.25" y="187.456" fill="#FFFFFF" width="7.5" height="7.5"/>
	<rect x="138.75" y="187.456" fill="#EDD69F" width="7.5" height="7.5"/>
	<rect x="153.75" y="187.456" fill="#0394C4" width="7.5" height="7.5"/>
	<rect x="146.25" y="187.456" fill="#FFFFFF" width="7.5" height="7.5"/>
	<rect x="123.75" y="187.456" fill="#0394C4" width="7.5" height="7.5"/>
	<rect x="116.25" y="187.456" fill="#0778A5" width="7.5" height="7.5"/>
	<rect x="161.25" y="187.456" fill="#4D301C" width="7.5" height="7.5"/>
	<rect x="168.75" y="187.456" fill="#0778A5" width="7.5" height="7.5"/>
	<rect x="176.25" y="187.456" fill="#0778A5" width="7.5" height="7.5"/>
	<rect x="183.75" y="187.456" fill="#0778A5" width="7.5" height="7.5"/>
	<rect x="131.25" y="194.956" fill="#FFFFFF" width="7.5" height="7.5"/>
	<rect x="138.75" y="194.956" fill="#EEE1BF" width="7.5" height="7.5"/>
	<rect x="153.75" y="194.956" fill="#0394C4" width="7.5" height="7.5"/>
	<rect x="146.25" y="194.956" fill="#FFFFFF" width="7.5" height="7.5"/>
	<rect x="123.75" y="194.956" fill="#0394C4" width="7.5" height="7.5"/>
	<rect x="116.25" y="194.956" fill="#0778A5" width="7.5" height="7.5"/>
	<rect x="108.75" y="194.956" fill="#0778A5" width="7.5" height="7.5"/>
	<rect x="161.25" y="194.956" fill="#0394C4" width="7.5" height="7.5"/>
	<rect x="168.75" y="194.956" fill="#0778A5" width="7.5" height="7.5"/>
	<rect x="176.25" y="194.956" fill="#0778A5" width="7.5" height="7.5"/>
	<rect x="183.75" y="194.956" fill="#0778A5" width="7.5" height="7.5"/>
	<rect x="131.25" y="202.456" fill="#0394C4" width="7.5" height="7.5"/>
	<rect x="138.75" y="202.456" fill="#0394C4" width="7.5" height="7.5"/>
	<rect x="153.75" y="202.456" fill="#0394C4" width="7.5" height="7.5"/>
	<rect x="146.25" y="202.456" fill="#0394C4" width="7.5" height="7.5"/>
	<rect x="123.75" y="202.456" fill="#0394C4" width="7.5" height="7.5"/>
	<rect x="116.25" y="202.456" fill="#0394C4" width="7.5" height="7.5"/>
	<rect x="108.75" y="202.456" fill="#0778A5" width="7.5" height="7.5"/>
	<rect x="161.25" y="202.456" fill="#0394C4" width="7.5" height="7.5"/>
	<rect x="168.75" y="202.456" fill="#0394C4" width="7.5" height="7.5"/>
	<rect x="176.25" y="202.456" fill="#0778A5" width="7.5" height="7.5"/>
	<rect x="183.75" y="202.456" fill="#0778A5" width="7.5" height="7.5"/>
	<rect x="131.25" y="209.956" fill="#0394C4" width="7.5" height="7.5"/>
	<rect x="138.75" y="209.956" fill="#0778A5" width="7.5" height="7.5"/>
	<rect x="153.75" y="209.956" fill="#0394C4" width="7.5" height="7.5"/>
	<rect x="146.25" y="209.956" fill="#0394C4" width="7.5" height="7.5"/>
	<rect x="123.75" y="209.956" fill="#0394C4" width="7.5" height="7.5"/>
	<rect x="116.25" y="209.956" fill="#0394C4" width="7.5" height="7.5"/>
	<rect x="108.75" y="209.956" fill="#0778A5" width="7.5" height="7.5"/>
	<rect x="161.25" y="209.956" fill="#0394C4" width="7.5" height="7.5"/>
	<rect x="168.75" y="209.956" fill="#0394C4" width="7.5" height="7.5"/>
	<rect x="176.25" y="209.956" fill="#0778A5" width="7.5" height="7.5"/>
	<rect x="183.75" y="209.956" fill="#0778A5" width="7.5" height="7.5"/>
	<rect x="161.25" y="142.485" fill="#4D301C" width="7.5" height="7.5"/>
	<rect x="153.75" y="135" fill="#4D301C" width="7.5" height="7.5"/>
	<rect x="161.25" y="135" fill="#EDD69F" width="7.5" height="7.5"/>
	<rect x="153.75" y="157.456" fill="#EDD69F" width="7.5" height="7.5"/>
	<rect x="161.25" y="157.456" fill="#4D301C" width="7.5" height="7.5"/>
	<rect x="153.75" y="149.971" fill="#EDD69F" width="7.5" height="7.5"/>
	<rect x="161.25" y="149.971" fill="#4D301C" width="7.5" height="7.5"/>
	<rect x="153.75" y="127.485" fill="#EDD69F" width="7.5" height="7.5"/>
	<rect x="161.25" y="127.485" fill="#EDD69F" width="7.5" height="7.5"/>
	<rect x="153.75" y="120" fill="#EDD69F" width="7.5" height="7.5"/>
	<rect x="161.25" y="120" fill="#4D301C" width="7.5" height="7.5"/>
	<rect x="168.75" y="127.485" fill="#4D301C" width="7.5" height="7.5"/>
	<rect x="168.75" y="120" fill="#4D301C" width="7.5" height="7.5"/>
	<rect x="123.75" y="112.529" fill="#EDD69F" width="7.5" height="7.5"/>
	<rect x="131.25" y="112.529" fill="#EDD69F" width="7.5" height="7.5"/>
	<rect x="138.75" y="112.529" fill="#4D301C" width="7.5" height="7.5"/>
	<rect x="146.25" y="112.529" fill="#4D301C" width="7.5" height="7.5"/>
	<rect x="123.75" y="120" fill="#EDD69F" width="7.5" height="7.5"/>
	<rect x="131.25" y="120" fill="#EDD69F" width="7.5" height="7.5"/>
	<rect x="138.75" y="120" fill="#EDD69F" width="7.5" height="7.5"/>
	<rect x="146.25" y="120" fill="#EDD69F" width="7.5" height="7.5"/>
	<rect x="123.75" y="127.485" fill="#6C7F55" width="7.5" height="7.5"/>
	<rect x="131.25" y="127.485" fill="#FFFFFF" width="7.5" height="7.5"/>
	<rect x="138.75" y="127.485" fill="#EDD69F" width="7.5" height="7.5"/>
	<rect x="146.25" y="127.485" fill="#EDD69F" width="7.5" height="7.5"/>
	<rect x="123.75" y="134.985" fill="#EDD69F" width="7.5" height="7.5"/>
	<rect x="131.25" y="134.985" fill="#EDD69F" width="7.5" height="7.5"/>
	<rect x="138.75" y="134.985" fill="#EDD69F" width="7.5" height="7.5"/>
	<rect x="146.25" y="134.985" fill="#EDD69F" width="7.5" height="7.5"/>
	<rect x="153.75" y="97.529" fill="#4D301C" width="7.5" height="7.5"/>
	<rect x="161.25" y="97.529" fill="#4D301C" width="7.5" height="7.5"/>
	<rect x="161.25" y="90.044" fill="#4D301C" width="7.5" height="7.5"/>
	<rect x="168.75" y="90.044" fill="#4D301C" width="7.5" height="7.5"/>
	<rect x="116.25" y="90.044" fill="#4D301C" width="7.5" height="7.5"/>
	<rect x="123.75" y="90.044" fill="#734A1D" width="7.5" height="7.5"/>
	<rect x="131.25" y="90.044" fill="#4D301C" width="7.5" height="7.5"/>
	<rect x="138.75" y="90.044" fill="#4D301C" width="7.5" height="7.5"/>
	<rect x="146.25" y="90.044" fill="#4D301C" width="7.5" height="7.5"/>
	<rect x="123.75" y="82.544" fill="#4D301C" width="7.5" height="7.5"/>
	<rect x="131.25" y="82.544" fill="#4D301C" width="7.5" height="7.5"/>
	<rect x="138.75" y="82.544" fill="#4D301C" width="7.5" height="7.5"/>
	<rect x="146.25" y="82.544" fill="#734A1D" width="7.5" height="7.5"/>
	<rect x="153.75" y="90.044" fill="#4D301C" width="7.5" height="7.5"/>
	<rect x="153.75" y="105.029" fill="#4D301C" width="7.5" height="7.5"/>
	<rect x="153.75" y="120" fill="#4D301C" width="7.5" height="7.5"/>
	<rect x="153.75" y="127.485" fill="#4D301C" width="7.5" height="7.5"/>
	<rect x="161.25" y="105.029" fill="#734A1D" width="7.5" height="7.5"/>
	<rect x="168.75" y="105.029" fill="#4D301C" width="7.5" height="7.5"/>
	<rect x="168.75" y="97.529" fill="#4D301C" width="7.5" height="7.5"/>
	<rect x="176.25" y="97.529" fill="#4D301C" width="7.5" height="7.5"/>
	<rect x="168.75" y="112.529" fill="#4D301C" width="7.5" height="7.5"/>
	<rect x="176.25" y="112.529" fill="#4D301C" width="7.5" height="7.5"/>
	<rect x="176.25" y="105.029" fill="#734A1D" width="7.5" height="7.5"/>
	<rect x="176.25" y="120.029" fill="#4D301C" width="7.5" height="7.5"/>
	<rect x="176.25" y="127.485" fill="#4D301C" width="7.5" height="7.5"/>
	<rect x="176.25" y="142.5" fill="#4D301C" width="7.5" height="7.5"/>
	<rect x="176.25" y="135" fill="#4D301C" width="7.5" height="7.5"/>
	<rect x="176.25" y="150" fill="#4D301C" width="7.5" height="7.5"/>
	<rect x="168.75" y="142.5" fill="#4D301C" width="7.5" height="7.5"/>
	<rect x="168.75" y="135" fill="#4D301C" width="7.5" height="7.5"/>
	<rect x="168.75" y="150" fill="#4D301C" width="7.5" height="7.5"/>
	<rect x="176.25" y="157.456" fill="#734A1D" width="7.5" height="7.5"/>
	<rect x="183.75" y="150" fill="#4D301C" width="7.5" height="7.5"/>
	<rect x="183.75" y="157.456" fill="#4D301C" width="7.5" height="7.5"/>
	<rect x="168.75" y="157.456" fill="#4D301C" width="7.5" height="7.5"/>
	<rect x="176.25" y="164.956" fill="#4D301C" width="7.5" height="7.5"/>
	<rect x="183.75" y="164.956" fill="#4D301C" width="7.5" height="7.5"/>
	<rect x="183.75" y="127.515" fill="#4D301C" width="7.5" height="7.5"/>
	<rect x="183.75" y="134.971" fill="#4D301C" width="7.5" height="7.5"/>
	<rect x="183.75" y="142.466" fill="#4D301C" width="7.5" height="7.5"/>
	<rect x="183.75" y="112.515" fill="#4D301C" width="7.5" height="7.5"/>
	<rect x="183.75" y="120.005" fill="#4D301C" width="7.5" height="7.5"/>
	<rect x="116.25" y="164.956" fill="#4D301C" width="7.5" height="7.5"/>
	<rect x="123.75" y="172.456" fill="#4D301C" width="7.5" height="7.5"/>
	<rect x="116.25" y="172.456" fill="#4D301C" width="7.5" height="7.5"/>
	<rect x="108.75" y="172.456" fill="#4D301C" width="7.5" height="7.5"/>
	<rect x="168.75" y="164.956" fill="#4D301C" width="7.5" height="7.5"/>
	<rect x="176.25" y="172.456" fill="#4D301C" width="7.5" height="7.5"/>
	<rect x="168.75" y="172.456" fill="#4D301C" width="7.5" height="7.5"/>
	<rect x="161.25" y="164.956" fill="#4D301C" width="7.5" height="7.5"/>
	<rect x="161.25" y="172.456" fill="#4D301C" width="7.5" height="7.5"/>
	<rect x="168.75" y="179.956" fill="#4D301C" width="7.5" height="7.5"/>
	<rect x="153.75" y="112.529" fill="#734A1D" width="7.5" height="7.5"/>
	<rect x="161.25" y="112.529" fill="#4D301C" width="7.5" height="7.5"/>
</g>
</svg>
