<?xml version="1.0" encoding="utf-8"?>
<!-- Generator: Adobe Illustrator 16.0.0, SVG Export Plug-In . SVG Version: 6.00 Build 0)  -->
<!DOCTYPE svg PUBLIC "-//W3C//DTD SVG 1.1//EN" "http://www.w3.org/Graphics/SVG/1.1/DTD/svg11.dtd">
<svg version="1.1" id="Layer_1" xmlns="http://www.w3.org/2000/svg" xmlns:xlink="http://www.w3.org/1999/xlink" x="0px" y="0px"
	 width="300px" height="300px" viewBox="0 0 300 300" enable-background="new 0 0 300 300" xml:space="preserve">
<rect x="129" y="102.035" fill="#2F292B" width="6" height="6"/>
<rect x="135" y="102.035" fill="#2F292B" width="6" height="6"/>
<rect x="141" y="102.035" fill="#2F292B" width="6" height="6"/>
<rect x="147" y="102.035" fill="#2F292B" width="6" height="6"/>
<rect x="123" y="114.023" fill="#2F292B" width="6" height="6"/>
<rect x="129" y="114.023" fill="#2F292B" width="6" height="6"/>
<rect x="135" y="114.023" fill="#2F292B" width="6" height="6"/>
<rect x="141" y="114.023" fill="#2F292B" width="6" height="6"/>
<rect x="147" y="114.023" fill="#2F292B" width="6" height="6"/>
<rect x="153" y="114.023" fill="#2F292B" width="6" height="6"/>
<rect x="123" y="120.023" fill="#2F292B" width="6" height="6"/>
<rect x="117" y="120.023" fill="#2F292B" width="6" height="6"/>
<rect x="117" y="114.023" fill="#2F292B" width="6" height="6"/>
<rect x="117" y="108.035" fill="#2F292B" width="6" height="6"/>
<rect x="111" y="114.023" fill="#2F292B" width="6" height="6"/>
<rect x="129" y="120.023" fill="#EDD69F" width="6" height="6"/>
<rect x="135" y="120.023" fill="#EDD69F" width="6" height="6"/>
<rect x="141" y="120.023" fill="#EDD69F" width="6" height="6"/>
<rect x="147" y="120.023" fill="#EDD69F" width="6" height="6"/>
<rect x="153" y="120.023" fill="#EDD69F" width="6" height="6"/>
<rect x="123" y="126.023" fill="#EDD69F" width="6" height="6"/>
<rect x="129" y="126.023" fill="#EDD69F" width="6" height="6"/>
<rect x="123" y="132" fill="#EDD69F" width="6" height="6"/>
<rect x="129" y="132" fill="#EDD69F" width="6" height="6"/>
<rect x="123" y="137.988" fill="#EDD69F" width="6" height="6"/>
<rect x="129" y="137.988" fill="#EDD69F" width="6" height="6"/>
<rect x="123" y="144" fill="#EDD69F" width="6" height="6"/>
<rect x="129" y="144" fill="#EDD69F" width="6" height="6"/>
<rect x="123" y="149.988" fill="#BAAE9C" width="6" height="6"/>
<rect x="117" y="144" fill="#EDD69F" width="6" height="6"/>
<rect x="111" y="144" fill="#EDD69F" width="6" height="6"/>
<rect x="117" y="138" fill="#EDD69F" width="6" height="6"/>
<rect x="129" y="149.988" fill="#BAAE9C" width="6" height="6"/>
<rect x="141" y="149.988" fill="#BAAE9C" width="6" height="6"/>
<rect x="135" y="149.988" fill="#BAAE9C" width="6" height="6"/>
<rect x="147" y="149.988" fill="#BAAE9C" width="6" height="6"/>
<rect x="159" y="149.988" fill="#BAAE9C" width="6" height="6"/>
<rect x="153" y="149.988" fill="#BAAE9C" width="6" height="6"/>
<rect x="141" y="155.977" fill="#FFFFFF" width="6" height="6"/>
<rect x="135" y="155.977" fill="#FFFFFF" width="6" height="6"/>
<rect x="147" y="155.977" fill="#FFFFFF" width="6" height="6"/>
<rect x="153" y="155.977" fill="#C7293B" width="6" height="6"/>
<rect x="141" y="161.965" fill="#ED2A32" width="6" height="6"/>
<rect x="135" y="161.965" fill="#ED2A32" width="6" height="6"/>
<rect x="147" y="161.965" fill="#ED2A32" width="6" height="6"/>
<rect x="153" y="161.965" fill="#BAAE9C" width="6" height="6"/>
<rect x="141" y="167.965" fill="#BAAE9C" width="6" height="6"/>
<rect x="135" y="167.965" fill="#BAAE9C" width="6" height="6"/>
<rect x="147" y="167.965" fill="#BAAE9C" width="6" height="6"/>
<rect x="141" y="173.965" fill="#EDD69F" width="6" height="6"/>
<rect x="147" y="173.965" fill="#EDD69F" width="6" height="6"/>
<rect x="141" y="179.965" fill="#FFFFFF" width="6" height="6"/>
<rect x="147" y="179.965" fill="#FFFFFF" width="6" height="6"/>
<rect x="153" y="173.965" fill="#EDD69F" width="6" height="6"/>
<rect x="153" y="167.965" fill="#BAAE9C" width="6" height="6"/>
<rect x="159" y="167.965" fill="#EDD69F" width="6" height="6"/>
<rect x="159" y="173.965" fill="#C7293B" width="6" height="6"/>
<rect x="165" y="173.965" fill="#C7293B" width="6" height="6"/>
<rect x="165" y="167.965" fill="#C7293B" width="6" height="6"/>
<rect x="171" y="173.965" fill="#ED2A32" width="6" height="6"/>
<rect x="159" y="179.965" fill="#C7293B" width="6" height="6"/>
<rect x="153" y="179.965" fill="#FFFFFF" width="6" height="6"/>
<rect x="135" y="179.965" fill="#C7293B" width="6" height="6"/>
<rect x="135" y="173.965" fill="#C7293B" width="6" height="6"/>
<rect x="129" y="179.965" fill="#C7293B" width="6" height="6"/>
<rect x="165" y="179.965" fill="#C7293B" width="6" height="6"/>
<rect x="171" y="179.965" fill="#ED2A32" width="6" height="6"/>
<rect x="177" y="173.965" fill="#ED2A32" width="6" height="6"/>
<rect x="177" y="179.965" fill="#ED2A32" width="6" height="6"/>
<rect x="183" y="179.965" fill="#ED2A32" width="6" height="6"/>
<rect x="141" y="191.965" fill="#FFFFFF" width="6" height="6"/>
<rect x="147" y="191.965" fill="#C7293B" width="6" height="6"/>
<rect x="159" y="191.965" fill="#FFFFFF" width="6" height="6"/>
<rect x="153" y="191.965" fill="#C7293B" width="6" height="6"/>
<rect x="135" y="191.965" fill="#FFFFFF" width="6" height="6"/>
<rect x="129" y="191.965" fill="#C7293B" width="6" height="6"/>
<rect x="123" y="191.965" fill="#ED2A32" width="6" height="6"/>
<rect x="165" y="191.965" fill="#C7293B" width="6" height="6"/>
<rect x="171" y="191.965" fill="#ED2A32" width="6" height="6"/>
<rect x="177" y="191.965" fill="#ED2A32" width="6" height="6"/>
<rect x="183" y="191.965" fill="#ED2A32" width="6" height="6"/>
<rect x="141" y="203.965" fill="#C7293B" width="6" height="6"/>
<rect x="147" y="203.965" fill="#C7293B" width="6" height="6"/>
<rect x="159" y="203.965" fill="#FFFFFF" width="6" height="6"/>
<rect x="153" y="203.965" fill="#FFFFFF" width="6" height="6"/>
<rect x="135" y="203.965" fill="#FFFFFF" width="6" height="6"/>
<rect x="129" y="203.965" fill="#C7293B" width="6" height="6"/>
<rect x="123" y="203.965" fill="#EDD69F" width="6" height="6"/>
<rect x="165" y="203.965" fill="#C7293B" width="6" height="6"/>
<rect x="171" y="203.965" fill="#EDD69F" width="6" height="6"/>
<rect x="177" y="203.965" fill="#EDD69F" width="6" height="6"/>
<rect x="183" y="203.965" fill="#EDD69F" width="6" height="6"/>
<rect x="141" y="185.965" fill="#C7293B" width="6" height="6"/>
<rect x="147" y="185.965" fill="#C7293B" width="6" height="6"/>
<rect x="159" y="185.965" fill="#C7293B" width="6" height="6"/>
<rect x="153" y="185.965" fill="#C7293B" width="6" height="6"/>
<rect x="135" y="185.965" fill="#C7293B" width="6" height="6"/>
<rect x="129" y="185.965" fill="#C7293B" width="6" height="6"/>
<rect x="123" y="185.965" fill="#EF5446" width="6" height="6"/>
<rect x="165" y="185.965" fill="#C7293B" width="6" height="6"/>
<rect x="171" y="185.965" fill="#EF5446" width="6" height="6"/>
<rect x="177" y="185.965" fill="#EF5446" width="6" height="6"/>
<rect x="183" y="185.965" fill="#EF5446" width="6" height="6"/>
<rect x="141" y="197.965" fill="#C7293B" width="6" height="6"/>
<rect x="147" y="197.965" fill="#FFFFFF" width="6" height="6"/>
<rect x="159" y="197.965" fill="#FFFFFF" width="6" height="6"/>
<rect x="153" y="197.965" fill="#C7293B" width="6" height="6"/>
<rect x="135" y="197.965" fill="#FFFFFF" width="6" height="6"/>
<rect x="129" y="197.965" fill="#C7293B" width="6" height="6"/>
<rect x="123" y="197.965" fill="#EF5446" width="6" height="6"/>
<rect x="165" y="197.965" fill="#C7293B" width="6" height="6"/>
<rect x="171" y="197.965" fill="#EF5446" width="6" height="6"/>
<rect x="177" y="197.965" fill="#EF5446" width="6" height="6"/>
<rect x="183" y="197.965" fill="#EF5446" width="6" height="6"/>
<rect x="171" y="167.965" fill="#C7293B" width="6" height="6"/>
<rect x="165" y="149.988" fill="#EDD69F" width="6" height="6"/>
<rect x="159" y="144" fill="#EDD69F" width="6" height="6"/>
<rect x="165" y="144" fill="#EDD69F" width="6" height="6"/>
<rect x="159" y="161.965" fill="#BAAE9C" width="6" height="6"/>
<rect x="165" y="161.965" fill="#EDD69F" width="6" height="6"/>
<rect x="159" y="155.977" fill="#BAAE9C" width="6" height="6"/>
<rect x="165" y="155.977" fill="#EDD69F" width="6" height="6"/>
<rect x="159" y="137.988" fill="#2F292B" width="6" height="6"/>
<rect x="165" y="137.988" fill="#EDD69F" width="6" height="6"/>
<rect x="159" y="132" fill="#2F292B" width="6" height="6"/>
<rect x="165" y="132" fill="#2F292B" width="6" height="6"/>
<rect x="171" y="137.988" fill="#EDD69F" width="6" height="6"/>
<rect x="171" y="132" fill="#EDD69F" width="6" height="6"/>
<rect x="135" y="126.023" fill="#2F292B" width="6" height="6"/>
<rect x="141" y="126.023" fill="#2F292B" width="6" height="6"/>
<rect x="147" y="126.023" fill="#EDD69F" width="6" height="6"/>
<rect x="153" y="126.023" fill="#EDD69F" width="6" height="6"/>
<rect x="135" y="132" fill="#EDD69F" width="6" height="6"/>
<rect x="141" y="132" fill="#EDD69F" width="6" height="6"/>
<rect x="147" y="132" fill="#EDD69F" width="6" height="6"/>
<rect x="153" y="132" fill="#EDD69F" width="6" height="6"/>
<rect x="135" y="137.988" fill="#2F292B" width="6" height="6"/>
<rect x="141" y="137.988" fill="#FFFFFF" width="6" height="6"/>
<rect x="147" y="137.988" fill="#EDD69F" width="6" height="6"/>
<rect x="153" y="137.988" fill="#EDD69F" width="6" height="6"/>
<rect x="135" y="143.988" fill="#EDD69F" width="6" height="6"/>
<rect x="141" y="143.988" fill="#EDD69F" width="6" height="6"/>
<rect x="147" y="143.988" fill="#EDD69F" width="6" height="6"/>
<rect x="153" y="143.988" fill="#EDD69F" width="6" height="6"/>
<rect x="159" y="114.023" fill="#2F292B" width="6" height="6"/>
<rect x="165" y="114.023" fill="#2F292B" width="6" height="6"/>
<rect x="165" y="108.035" fill="#2F292B" width="6" height="6"/>
<rect x="129" y="96.035" fill="#2F292B" width="6" height="6"/>
<rect x="159" y="102.035" fill="#2F292B" width="6" height="6"/>
<rect x="153" y="96.035" fill="#2F292B" width="6" height="6"/>
<rect x="135" y="96.035" fill="#808083" width="6" height="6"/>
<rect x="135" y="90.035" fill="#2F292B" width="6" height="6"/>
<rect x="141" y="96.035" fill="#2F292B" width="6" height="6"/>
<rect x="171" y="114.023" fill="#2F292B" width="6" height="6"/>
<rect x="171" y="120.023" fill="#2F292B" width="6" height="6"/>
<rect x="171.062" y="126.023" fill="#2F292B" width="6" height="6"/>
<rect x="177" y="120.023" fill="#2F292B" width="6" height="6"/>
<rect x="177" y="114.023" fill="#2F292B" width="6" height="6"/>
<rect x="171" y="108.035" fill="#2F292B" width="6" height="6"/>
<rect x="165" y="102.035" fill="#2F292B" width="6" height="6"/>
<rect x="153" y="102.035" fill="#2F292B" width="6" height="6"/>
<rect x="123" y="108.035" fill="#808083" width="6" height="6"/>
<rect x="123" y="102.035" fill="#2F292B" width="6" height="6"/>
<rect x="129" y="108.035" fill="#2F292B" width="6" height="6"/>
<rect x="135" y="108.035" fill="#2F292B" width="6" height="6"/>
<rect x="141" y="108.035" fill="#2F292B" width="6" height="6"/>
<rect x="147" y="108.035" fill="#2F292B" width="6" height="6"/>
<rect x="153" y="108.035" fill="#808083" width="6" height="6"/>
<rect x="159" y="108.035" fill="#2F292B" width="6" height="6"/>
<rect x="159" y="120.023" fill="#2F292B" width="6" height="6"/>
<rect x="165" y="120.023" fill="#808083" width="6" height="6"/>
<rect x="159" y="126.023" fill="#2F292B" width="6" height="6"/>
<rect x="165" y="126.023" fill="#2F292B" width="6" height="6"/>
</svg>
