<?xml version="1.0" encoding="utf-8"?>
<!-- Generator: Adobe Illustrator 16.0.0, SVG Export Plug-In . SVG Version: 6.00 Build 0)  -->
<!DOCTYPE svg PUBLIC "-//W3C//DTD SVG 1.1//EN" "http://www.w3.org/Graphics/SVG/1.1/DTD/svg11.dtd">
<svg version="1.1" id="Layer_1" xmlns="http://www.w3.org/2000/svg" xmlns:xlink="http://www.w3.org/1999/xlink" x="0px" y="0px"
	 width="300px" height="300px" viewBox="0 0 300 300" enable-background="new 0 0 300 300" xml:space="preserve">
<g>
	<rect x="131.25" y="202.454" fill="#EEE1BF" width="7.5" height="7.5"/>
	<rect x="138.75" y="202.454" fill="#DBAC27" width="7.5" height="7.5"/>
	<rect x="153.75" y="202.454" fill="#ED2A32" width="7.5" height="7.5"/>
	<rect x="146.25" y="202.454" fill="#EEE1BF" width="7.5" height="7.5"/>
	<rect x="123.75" y="202.454" fill="#EED29A" width="7.5" height="7.5"/>
	<rect x="116.25" y="202.454" fill="#ED2A32" width="7.5" height="7.5"/>
	<rect x="108.75" y="202.454" fill="#ED2A32" width="7.5" height="7.5"/>
	<rect x="161.25" y="202.454" fill="#2F292B" width="7.5" height="7.5"/>
	<rect x="168.75" y="202.454" fill="#2F292B" width="7.5" height="7.5"/>
	<rect x="183.75" y="202.454" fill="#ED2A32" width="7.5" height="7.5"/>
	<rect x="191.25" y="202.454" fill="#ED2A32" width="7.5" height="7.5"/>
	<rect x="131.25" y="217.454" fill="#808083" width="7.5" height="7.5"/>
	<rect x="138.75" y="217.454" fill="#808083" width="7.5" height="7.5"/>
	<rect x="153.75" y="217.454" fill="#ED2A32" width="7.5" height="7.5"/>
	<rect x="146.25" y="217.454" fill="#808083" width="7.5" height="7.5"/>
	<rect x="123.75" y="217.454" fill="#ED2A32" width="7.5" height="7.5"/>
	<rect x="116.25" y="217.454" fill="#ED2A32" width="7.5" height="7.5"/>
	<rect x="108.75" y="217.454" fill="#C7293B" width="7.5" height="7.5"/>
	<rect x="161.25" y="217.454" fill="#ED2A32" width="7.5" height="7.5"/>
	<rect x="168.75" y="217.454" fill="#C7293B" width="7.5" height="7.5"/>
	<rect x="183.75" y="217.454" fill="#ED2A32" width="7.5" height="7.5"/>
	<rect x="191.25" y="217.454" fill="#ED2A32" width="7.5" height="7.5"/>
	<rect x="131.25" y="194.954" fill="#C7802A" width="7.5" height="7.5"/>
	<rect x="138.75" y="194.954" fill="#EDD69F" width="7.5" height="7.5"/>
	<rect x="153.75" y="194.954" fill="#ED2A32" width="7.5" height="7.5"/>
	<rect x="146.25" y="194.954" fill="#C7802A" width="7.5" height="7.5"/>
	<rect x="138.75" y="187.454" fill="#2F292B" width="7.5" height="7.5"/>
	<rect x="146.25" y="187.454" fill="#2F292B" width="7.5" height="7.5"/>
	<rect x="123.75" y="194.954" fill="#EEE1BF" width="7.5" height="7.5"/>
	<rect x="108.75" y="194.954" fill="#ED2A32" width="7.5" height="7.5"/>
	<rect x="161.25" y="194.954" fill="#ED2A32" width="7.5" height="7.5"/>
	<rect x="168.75" y="194.954" fill="#2F292B" width="7.5" height="7.5"/>
	<rect x="183.75" y="194.954" fill="#ED2A32" width="7.5" height="7.5"/>
	<rect x="191.25" y="194.954" fill="#ED2A32" width="7.5" height="7.5"/>
	<rect x="108.75" y="187.522" fill="#ED2A32" width="7.5" height="7.5"/>
	<rect x="131.25" y="209.954" fill="#808083" width="7.5" height="7.5"/>
	<rect x="138.75" y="209.954" fill="#919295" width="7.5" height="7.5"/>
	<rect x="153.75" y="209.954" fill="#ED2A32" width="7.5" height="7.5"/>
	<rect x="146.25" y="209.954" fill="#808083" width="7.5" height="7.5"/>
	<rect x="123.75" y="209.954" fill="#ED2A32" width="7.5" height="7.5"/>
	<rect x="116.25" y="209.954" fill="#ED2A32" width="7.5" height="7.5"/>
	<rect x="108.75" y="209.954" fill="#C7293B" width="7.5" height="7.5"/>
	<rect x="101.25" y="202.454" fill="#ED2A32" width="7.5" height="7.5"/>
	<rect x="101.25" y="217.454" fill="#ED2A32" width="7.5" height="7.5"/>
	<rect x="101.25" y="194.954" fill="#ED2A32" width="7.5" height="7.5"/>
	<rect x="101.25" y="209.954" fill="#ED2A32" width="7.5" height="7.5"/>
	<rect x="161.25" y="209.954" fill="#2F292B" width="7.5" height="7.5"/>
	<rect x="168.75" y="209.954" fill="#C7293B" width="7.5" height="7.5"/>
	<rect x="183.75" y="209.954" fill="#ED2A32" width="7.5" height="7.5"/>
	<rect x="191.25" y="209.954" fill="#ED2A32" width="7.5" height="7.5"/>
	<rect x="108.75" y="90.027" fill="#F5DBB4" width="7.5" height="7.5"/>
	<rect x="116.25" y="90.027" fill="#525255" width="7.5" height="7.5"/>
	<rect x="123.75" y="90.027" fill="#2F292B" width="7.5" height="7.5"/>
	<rect x="131.25" y="90.027" fill="#2F292B" width="7.5" height="7.5"/>
	<rect x="138.75" y="90.027" fill="#2F292B" width="7.5" height="7.5"/>
	<rect x="108.75" y="97.527" fill="#F5DBB4" width="7.5" height="7.5"/>
	<rect x="116.25" y="97.527" fill="#F5DBB4" width="7.5" height="7.5"/>
	<rect x="123.75" y="97.527" fill="#F5DBB4" width="7.5" height="7.5"/>
	<rect x="131.25" y="97.527" fill="#2F292B" width="7.5" height="7.5"/>
	<rect x="138.75" y="97.527" fill="#2F292B" width="7.5" height="7.5"/>
	<rect x="108.75" y="105.027" fill="#EED29A" width="7.5" height="7.5"/>
	<rect x="108.75" y="112.498" fill="#EDD69F" width="7.5" height="7.5"/>
	<rect x="108.75" y="119.988" fill="#EDD69F" width="7.5" height="7.5"/>
	<rect x="101.25" y="127.498" fill="#EDD69F" width="7.5" height="7.5"/>
	<rect x="108.75" y="127.498" fill="#EDD69F" width="7.5" height="7.5"/>
	<rect x="108.75" y="134.988" fill="#EDD69F" width="7.5" height="7.5"/>
	<rect x="123.75" y="134.988" fill="#F5DBB4" width="7.5" height="7.5"/>
	<rect x="116.25" y="134.988" fill="#EDD69F" width="7.5" height="7.5"/>
	<rect x="131.25" y="134.988" fill="#EBC297" width="7.5" height="7.5"/>
	<rect x="146.25" y="134.988" fill="#EDD69F" width="7.5" height="7.5"/>
	<rect x="138.75" y="134.988" fill="#EED29A" width="7.5" height="7.5"/>
	<rect x="123.75" y="142.468" fill="#FFFFFF" width="7.5" height="7.5"/>
	<rect x="116.25" y="142.468" fill="#FFFFFF" width="7.5" height="7.5"/>
	<rect x="131.25" y="142.468" fill="#FFFFFF" width="7.5" height="7.5"/>
	<rect x="138.75" y="142.468" fill="#EBC297" width="7.5" height="7.5"/>
	<rect x="123.75" y="149.958" fill="#C62C3D" width="7.5" height="7.495"/>
	<rect x="116.25" y="149.958" fill="#C62C3D" width="7.5" height="7.495"/>
	<rect x="131.25" y="149.958" fill="#D28F8C" width="7.5" height="7.495"/>
	<rect x="138.75" y="149.958" fill="#EDD69F" width="7.5" height="7.495"/>
	<rect x="123.75" y="157.454" fill="#EDD69F" width="7.5" height="7.5"/>
	<rect x="116.25" y="157.454" fill="#EDD69F" width="7.5" height="7.5"/>
	<rect x="131.25" y="157.454" fill="#EDD69F" width="7.5" height="7.5"/>
	<rect x="123.75" y="164.954" fill="#EDD69F" width="7.5" height="7.5"/>
	<rect x="131.25" y="164.954" fill="#EDD69F" width="7.5" height="7.5"/>
	<rect x="131.25" y="172.454" fill="#EBC297" width="7.5" height="7.5"/>
	<rect x="138.75" y="164.954" fill="#EED29A" width="7.5" height="7.5"/>
	<rect x="138.75" y="157.454" fill="#EDD69F" width="7.5" height="7.5"/>
	<rect x="146.25" y="157.454" fill="#EDD69F" width="7.5" height="7.5"/>
	<rect x="138.75" y="172.454" fill="#EDD69F" width="7.5" height="7.5"/>
	<rect x="153.75" y="172.454" fill="#525255" width="7.5" height="7.5"/>
	<rect x="146.25" y="172.454" fill="#2F292B" width="7.5" height="7.5"/>
	<rect x="136.318" y="172.454" fill="#EBC297" width="7.5" height="7.5"/>
	<rect x="138.75" y="179.954" fill="#EBC297" width="7.5" height="7.5"/>
	<rect x="146.25" y="179.954" fill="#2F292B" width="7.5" height="7.5"/>
	<rect x="161.25" y="172.454" fill="#2F292B" width="7.5" height="7.5"/>
	<rect x="131.25" y="179.954" fill="#EDD69F" width="7.5" height="7.5"/>
	<rect x="153.75" y="179.954" fill="#2F292B" width="7.5" height="7.5"/>
	<rect x="153.75" y="187.454" fill="#C7802A" width="7.5" height="7.5"/>
	<rect x="131.25" y="187.454" fill="#EDD69F" width="7.5" height="7.5"/>
	<rect x="153.75" y="134.988" fill="#DBAC27" width="7.5" height="7.5"/>
	<rect x="146.25" y="127.498" fill="#EBC297" width="7.5" height="7.5"/>
	<rect x="153.75" y="127.498" fill="#EDD69F" width="7.5" height="7.5"/>
	<rect x="146.25" y="149.958" fill="#EDD69F" width="7.5" height="7.495"/>
	<rect x="153.75" y="149.958" fill="#1EBAED" width="7.5" height="7.495"/>
	<rect x="146.25" y="142.468" fill="#34A7D0" width="7.5" height="7.5"/>
	<rect x="153.75" y="142.468" fill="#1EBAED" width="7.5" height="7.5"/>
	<rect x="146.25" y="119.988" fill="#EEE1BF" width="7.5" height="7.5"/>
	<rect x="153.75" y="119.988" fill="#EDD69F" width="7.5" height="7.5"/>
	<rect x="146.25" y="112.498" fill="#EEE1BF" width="7.5" height="7.5"/>
	<rect x="153.75" y="112.498" fill="#EDD69F" width="7.5" height="7.5"/>
	<rect x="161.25" y="119.988" fill="#EDD69F" width="7.5" height="7.5"/>
	<rect x="161.25" y="112.498" fill="#F5DBB4" width="7.5" height="7.5"/>
	<rect x="116.25" y="105.017" fill="#2F292B" width="7.5" height="7.5"/>
	<rect x="123.75" y="105.017" fill="#525255" width="7.5" height="7.5"/>
	<rect x="131.25" y="104.998" fill="#EDD69F" width="7.5" height="7.5"/>
	<rect x="138.75" y="105.027" fill="#2F292B" width="7.5" height="7.5"/>
	<rect x="116.25" y="112.498" fill="#EDD69F" width="7.5" height="7.5"/>
	<rect x="123.75" y="112.498" fill="#EDD69F" width="7.5" height="7.5"/>
	<rect x="131.25" y="112.488" fill="#EDD69F" width="7.5" height="7.5"/>
	<rect x="138.75" y="112.468" fill="#EDD69F" width="7.5" height="7.5"/>
	<rect x="116.25" y="119.988" fill="#8D9C8E" width="7.5" height="7.5"/>
	<rect x="123.75" y="119.988" fill="#FFFFFF" width="7.5" height="7.5"/>
	<rect x="116.25" y="127.488" fill="#EDD69F" width="7.5" height="7.5"/>
	<rect x="123.75" y="127.488" fill="#F5DBB4" width="7.5" height="7.5"/>
	<rect x="131.25" y="119.988" fill="#EDD69F" width="7.5" height="7.5"/>
	<rect x="138.75" y="119.988" fill="#EDD69F" width="7.5" height="7.5"/>
	<rect x="131.25" y="127.488" fill="#EED29A" width="7.5" height="7.5"/>
	<rect x="138.75" y="127.488" fill="#EED29A" width="7.5" height="7.5"/>
	<rect x="146.25" y="90.027" fill="#525255" width="7.5" height="7.5"/>
	<rect x="153.75" y="90.027" fill="#2F292B" width="7.5" height="7.5"/>
	<rect x="146.25" y="75.046" fill="#2F292B" width="7.5" height="7.5"/>
	<rect x="153.75" y="75.046" fill="#2F292B" width="7.5" height="7.5"/>
	<rect x="153.75" y="82.546" fill="#2F292B" width="7.5" height="7.5"/>
	<rect x="161.25" y="82.546" fill="#2F292B" width="7.5" height="7.5"/>
	<rect x="108.75" y="82.546" fill="#2F292B" width="7.5" height="7.5"/>
	<rect x="116.25" y="82.546" fill="#2F292B" width="7.5" height="7.5"/>
	<rect x="123.75" y="82.546" fill="#525255" width="7.5" height="7.5"/>
	<rect x="131.25" y="82.546" fill="#525255" width="7.5" height="7.5"/>
	<rect x="138.75" y="82.546" fill="#525255" width="7.5" height="7.5"/>
	<rect x="116.25" y="75.046" fill="#2F292B" width="7.5" height="7.5"/>
	<rect x="123.75" y="75.046" fill="#2F292B" width="7.5" height="7.5"/>
	<rect x="131.25" y="75.046" fill="#2F292B" width="7.5" height="7.5"/>
	<rect x="138.75" y="75.046" fill="#2F292B" width="7.5" height="7.5"/>
	<rect x="146.25" y="82.546" fill="#2F292B" width="7.5" height="7.5"/>
	<rect x="146.25" y="97.527" fill="#2F292B" width="7.5" height="7.5"/>
	<rect x="146.25" y="112.498" fill="#2F292B" width="7.5" height="7.5"/>
	<rect x="146.25" y="119.988" fill="#2F292B" width="7.5" height="7.5"/>
	<rect x="153.75" y="97.527" fill="#525255" width="7.5" height="7.5"/>
	<rect x="161.25" y="97.527" fill="#2F292B" width="7.5" height="7.5"/>
	<rect x="161.25" y="90.027" fill="#2F292B" width="7.5" height="7.5"/>
	<rect x="168.75" y="90.027" fill="#2F292B" width="7.5" height="7.5"/>
	<rect x="161.25" y="105.027" fill="#2F292B" width="7.5" height="7.5"/>
	<rect x="168.75" y="105.027" fill="#2F292B" width="7.5" height="7.5"/>
	<rect x="168.75" y="97.527" fill="#2F292B" width="7.5" height="7.5"/>
	<rect x="168.75" y="112.527" fill="#2F292B" width="7.5" height="7.5"/>
	<rect x="168.75" y="119.988" fill="#2F292B" width="7.5" height="7.5"/>
	<rect x="176.25" y="119.988" fill="#A04957" width="7.5" height="7.5"/>
	<rect x="176.25" y="112.468" fill="#A04957" width="7.5" height="7.5"/>
	<rect x="168.75" y="134.998" fill="#525255" width="7.5" height="7.5"/>
	<rect x="168.75" y="127.498" fill="#2F292B" width="7.5" height="7.5"/>
	<rect x="168.75" y="142.498" fill="#2F292B" width="7.5" height="7.5"/>
	<rect x="176.25" y="105.076" fill="#2F292B" width="7.5" height="7.5"/>
	<rect x="176.25" y="127.498" fill="#2F292B" width="7.5" height="7.5"/>
	<rect x="176.25" y="134.998" fill="#2F292B" width="7.5" height="7.5"/>
	<rect x="176.25" y="142.498" fill="#2F292B" width="7.5" height="7.5"/>
	<rect x="161.25" y="134.998" fill="#2F292B" width="7.5" height="7.5"/>
	<rect x="161.25" y="127.498" fill="#2F292B" width="7.5" height="7.5"/>
	<rect x="161.25" y="142.498" fill="#34A7D0" width="7.5" height="7.5"/>
	<rect x="168.75" y="149.958" fill="#2F292B" width="7.5" height="7.495"/>
	<rect x="176.25" y="149.958" fill="#2F292B" width="7.5" height="7.495"/>
	<rect x="161.25" y="149.958" fill="#525255" width="7.5" height="7.495"/>
	<rect x="168.75" y="157.454" fill="#525255" width="7.5" height="7.5"/>
	<rect x="176.25" y="157.454" fill="#2F292B" width="7.5" height="7.5"/>
	<rect x="161.25" y="179.954" fill="#525255" width="7.5" height="7.5"/>
	<rect x="161.25" y="187.454" fill="#2F292B" width="7.5" height="7.5"/>
	<rect x="161.25" y="194.954" fill="#ED2A32" width="7.5" height="7.5"/>
	<rect x="168.75" y="172.454" fill="#2F292B" width="7.5" height="7.5"/>
	<rect x="176.25" y="164.954" fill="#2F292B" width="7.5" height="7.5"/>
	<rect x="168.75" y="179.954" fill="#2F292B" width="7.5" height="7.5"/>
	<rect x="176.25" y="172.454" fill="#2F292B" width="7.5" height="7.5"/>
	<rect x="176.25" y="179.954" fill="#2F292B" width="7.5" height="7.5"/>
	<rect x="183.75" y="134.998" fill="#2F292B" width="7.5" height="7.5"/>
	<rect x="183.75" y="142.498" fill="#2F292B" width="7.5" height="7.5"/>
	<rect x="183.75" y="149.958" fill="#2F292B" width="7.5" height="7.495"/>
	<rect x="183.75" y="157.454" fill="#2F292B" width="7.5" height="7.5"/>
	<rect x="183.75" y="164.954" fill="#2F292B" width="7.5" height="7.5"/>
	<rect x="183.75" y="172.454" fill="#2F292B" width="7.5" height="7.5"/>
	<rect x="183.75" y="187.454" fill="#ED2A32" width="7.5" height="7.5"/>
	<rect x="176.25" y="202.454" fill="#ED2A32" width="7.5" height="7.5"/>
	<rect x="176.25" y="217.454" fill="#ED2A32" width="7.5" height="7.5"/>
	<rect x="176.25" y="194.954" fill="#2F292B" width="7.5" height="7.5"/>
	<rect x="176.25" y="209.954" fill="#ED2A32" width="7.5" height="7.5"/>
	<rect x="176.25" y="187.454" fill="#2F292B" width="7.5" height="7.5"/>
	<rect x="168.75" y="187.454" fill="#2F292B" width="7.5" height="7.5"/>
	<rect x="116.25" y="187.454" fill="#ED2A32" width="7.5" height="7.5"/>
	<rect x="123.75" y="187.454" fill="#C7802A" width="7.5" height="7.5"/>
	<rect x="116.25" y="194.954" fill="#ED2A32" width="7.5" height="7.5"/>
	<rect x="161.25" y="157.454" fill="#2F292B" width="7.5" height="7.5"/>
	<rect x="168.75" y="164.954" fill="#525255" width="7.5" height="7.5"/>
	<rect x="161.25" y="164.954" fill="#2F292B" width="7.5" height="7.5"/>
	<rect x="153.75" y="157.454" fill="#2F292B" width="7.5" height="7.5"/>
	<rect x="153.75" y="164.954" fill="#525255" width="7.5" height="7.5"/>
	<rect x="146.25" y="164.954" fill="#525255" width="7.5" height="7.5"/>
	<rect x="161.25" y="172.454" fill="#2F292B" width="7.5" height="7.5"/>
	<rect x="146.25" y="105.027" fill="#2F292B" width="7.5" height="7.5"/>
	<rect x="153.75" y="105.027" fill="#2F292B" width="7.5" height="7.5"/>
</g>
</svg>
