<?xml version="1.0" encoding="utf-8"?>
<!-- Generator: Adobe Illustrator 16.0.0, SVG Export Plug-In . SVG Version: 6.00 Build 0)  -->
<!DOCTYPE svg PUBLIC "-//W3C//DTD SVG 1.1//EN" "http://www.w3.org/Graphics/SVG/1.1/DTD/svg11.dtd">
<svg version="1.1" id="Layer_1" xmlns="http://www.w3.org/2000/svg" xmlns:xlink="http://www.w3.org/1999/xlink" x="0px" y="0px"
	 width="300px" height="300px" viewBox="0 0 300 300" enable-background="new 0 0 300 300" xml:space="preserve">
<g>
	<rect x="126.141" y="90.039" fill="#231F20" width="6" height="6"/>
	<rect x="132.141" y="90.039" fill="#231F20" width="6" height="6"/>
	<rect x="138.141" y="90.039" fill="#231F20" width="6" height="6"/>
	<rect x="144.141" y="90.039" fill="#231F20" width="6" height="6"/>
	<rect x="120.141" y="102.027" fill="#EFD1B8" width="6" height="6"/>
	<rect x="126.141" y="102.027" fill="#EFD1B8" width="6" height="6"/>
	<rect x="132.141" y="102.027" fill="#231F20" width="6" height="6"/>
	<rect x="138.141" y="102.027" fill="#EFD1B8" width="6" height="6"/>
	<rect x="144.141" y="102.027" fill="#EED0C6" width="6" height="6"/>
	<rect x="150.141" y="102.027" fill="#231F20" width="6" height="6"/>
	<rect x="120.141" y="108.027" fill="#F7E0CF" width="6" height="6"/>
	<rect x="126.141" y="108.027" fill="#231F20" width="6" height="6"/>
	<rect x="132.141" y="108.027" fill="#EFD1B8" width="6" height="6"/>
	<rect x="138.141" y="108.027" fill="#EFD1B8" width="6" height="6"/>
	<rect x="144.141" y="108.027" fill="#231F20" width="6" height="6"/>
	<rect x="150.141" y="108.027" fill="#EED0C6" width="6" height="6"/>
	<rect x="120.141" y="114.027" fill="#F7E0CF" width="6" height="6"/>
	<rect x="126.141" y="114.027" fill="#F7E0CF" width="6" height="6"/>
	<rect x="120.141" y="120.004" fill="#EFD1B8" width="6" height="6"/>
	<rect x="126.141" y="120.004" fill="#414042" width="6" height="6"/>
	<rect x="120.141" y="131.965" fill="#F7E0CF" width="6" height="6"/>
	<rect x="126.141" y="131.965" fill="#3B2314" width="6" height="6"/>
	<rect x="120.141" y="137.977" fill="#EFD1B8" width="6" height="6"/>
	<rect x="126.141" y="137.977" fill="#EFCFC0" width="6" height="6"/>
	<rect x="120.141" y="143.965" fill="#D7BFAA" width="6" height="6"/>
	<rect x="114.141" y="137.977" fill="#EFD1B8" width="6" height="6"/>
	<rect x="126.141" y="143.965" fill="#D7BFAA" width="6" height="6"/>
	<rect x="138.141" y="143.965" fill="#D7BFAA" width="6" height="6"/>
	<rect x="132.141" y="143.965" fill="#D7BFAA" width="6" height="6"/>
	<rect x="144.141" y="143.965" fill="#EFCFC0" width="6" height="6"/>
	<rect x="156.141" y="143.965" fill="#D7BFAA" width="6" height="6"/>
	<rect x="150.141" y="143.965" fill="#EFD1B8" width="6" height="6"/>
	<rect x="138.141" y="149.953" fill="#FFFFFF" width="6" height="6"/>
	<rect x="132.141" y="149.953" fill="#FFFFFF" width="6" height="6"/>
	<rect x="144.141" y="149.953" fill="#BB807B" width="6" height="6"/>
	<rect x="150.141" y="149.953" fill="#EFD1B8" width="6" height="6"/>
	<rect x="138.141" y="155.941" fill="#D28F8C" width="6" height="6"/>
	<rect x="132.141" y="155.941" fill="#D28F8C" width="6" height="6"/>
	<rect x="144.141" y="155.941" fill="#EFD1B8" width="6" height="6"/>
	<rect x="150.141" y="155.941" fill="#D7BFAA" width="6" height="6"/>
	<rect x="138.141" y="161.941" fill="#D7BFAA" width="6" height="6"/>
	<rect x="132.141" y="161.941" fill="#D7BFAA" width="6" height="6"/>
	<rect x="144.141" y="161.941" fill="#D7BFAA" width="6" height="6"/>
	<rect x="138.141" y="167.941" fill="#BAA993" width="6" height="6"/>
	<rect x="144.141" y="167.941" fill="#EFD1B8" width="6" height="6"/>
	<rect x="150.141" y="167.941" fill="#EFD1B8" width="6" height="6"/>
	<rect x="150.141" y="161.941" fill="#EFD1B8" width="6" height="6"/>
	<rect x="162.141" y="143.965" fill="#EFD1B8" width="6" height="6"/>
	<rect x="162.141" y="149.953" fill="#EFD1B8" width="6" height="6"/>
	<rect x="156.141" y="137.977" fill="#D7BFAA" width="6" height="6"/>
	<rect x="162.141" y="137.977" fill="#EFD1B8" width="6" height="6"/>
	<rect x="156.141" y="155.941" fill="#EFD1B8" width="6" height="6"/>
	<rect x="156.141" y="161.941" fill="#EFD1B8" width="6" height="6"/>
	<rect x="156.141" y="149.953" fill="#D7BFAA" width="6" height="6"/>
	<rect x="156.141" y="131.965" fill="#726658" width="6" height="6"/>
	<rect x="162.141" y="131.965" fill="#D7BFAA" width="6" height="6"/>
	<rect x="156.141" y="120.004" fill="#414042" width="6" height="6"/>
	<rect x="162.141" y="120.004" fill="#231F20" width="6" height="6"/>
	<rect x="168.141" y="137.938" fill="#EFD1B8" width="6" height="6"/>
	<rect x="168.141" y="131.949" fill="#EFCFC0" width="6" height="6"/>
	<rect x="132.141" y="114.027" fill="#EFD1B8" width="6" height="6"/>
	<rect x="138.141" y="114.027" fill="#EFD1B8" width="6" height="6"/>
	<rect x="144.141" y="114.027" fill="#EFD1B8" width="6" height="6"/>
	<rect x="150.141" y="114.027" fill="#414042" width="6" height="6"/>
	<rect x="132.141" y="120.004" fill="#594A42" width="6" height="6"/>
	<rect x="138.141" y="120.004" fill="#EFD1B8" width="6" height="6"/>
	<rect x="144.141" y="120.004" fill="#EFD1B8" width="6" height="6"/>
	<rect x="150.141" y="120.004" fill="#231F20" width="6" height="6"/>
	<rect x="120.141" y="125.977" fill="#F7E0CF" width="6" height="6"/>
	<rect x="126.141" y="125.977" fill="#EFD1B8" width="6" height="6"/>
	<rect x="156.141" y="125.977" fill="#231F20" width="6" height="6"/>
	<rect x="162.141" y="125.977" fill="#EFCFC0" width="6" height="6"/>
	<rect x="132.141" y="125.977" fill="#EFD1B8" width="6" height="6"/>
	<rect x="138.141" y="125.977" fill="#EFD1B8" width="6" height="6"/>
	<rect x="144.141" y="125.977" fill="#EFD1B8" width="6" height="6"/>
	<rect x="150.141" y="125.977" fill="#EFD1B8" width="6" height="6"/>
	<rect x="132.141" y="131.965" fill="#FFFFFF" width="6" height="6"/>
	<rect x="138.141" y="131.965" fill="#EFD1B8" width="6" height="6"/>
	<rect x="144.141" y="131.965" fill="#EFD1B8" width="6" height="6"/>
	<rect x="150.141" y="131.965" fill="#EFD1B8" width="6" height="6"/>
	<rect x="132.141" y="137.965" fill="#EED0C6" width="6" height="6"/>
	<rect x="138.141" y="137.965" fill="#EFCFC0" width="6" height="6"/>
	<rect x="144.141" y="137.965" fill="#EFD1B8" width="6" height="6"/>
	<rect x="150.141" y="137.965" fill="#EFD1B8" width="6" height="6"/>
	<rect x="156.141" y="102.027" fill="#726658" width="6" height="6"/>
	<rect x="162.141" y="102.027" fill="#231F20" width="6" height="6"/>
	<rect x="120.141" y="96.039" fill="#414042" width="6" height="6"/>
	<rect x="126.141" y="96.039" fill="#231F20" width="6" height="6"/>
	<rect x="132.141" y="96.039" fill="#231F20" width="6" height="6"/>
	<rect x="138.141" y="96.039" fill="#414042" width="6" height="6"/>
	<rect x="144.141" y="96.039" fill="#231F20" width="6" height="6"/>
	<rect x="150.141" y="96.039" fill="#231F20" width="6" height="6"/>
	<rect x="156.141" y="96.039" fill="#231F20" width="6" height="6"/>
	<rect x="150.141" y="90.039" fill="#231F20" width="6" height="6"/>
	<rect x="156.141" y="90.039" fill="#414042" width="6" height="6"/>
	<rect x="162.141" y="96.039" fill="#231F20" width="6" height="6"/>
	<rect x="168.141" y="102.027" fill="#231F20" width="6" height="6"/>
	<rect x="156.141" y="108.027" fill="#231F20" width="6" height="6"/>
	<rect x="162.141" y="108.027" fill="#414042" width="6" height="6"/>
	<rect x="156.141" y="114.027" fill="#231F20" width="6" height="6"/>
	<rect x="162.141" y="114.027" fill="#231F20" width="6" height="6"/>
	<rect x="168.141" y="125.977" fill="#EFCFC0" width="6" height="6"/>
	<rect x="168.141" y="108.027" fill="#231F20" width="6" height="6"/>
	<rect x="168.141" y="114.027" fill="#231F20" width="6" height="6"/>
	<rect x="168.141" y="120.004" fill="#231F20" width="6" height="6"/>
	<rect x="137.859" y="173.961" fill="#EFD1B8" width="6" height="6"/>
	<rect x="143.859" y="173.961" fill="#D7BFAA" width="6" height="6"/>
	<rect x="137.859" y="179.961" fill="#EFD1B8" width="6" height="6"/>
	<rect x="143.859" y="179.961" fill="#EFD1B8" width="6" height="6"/>
	<rect x="149.859" y="173.961" fill="#EFD1B8" width="6" height="6"/>
	<rect x="155.859" y="179.961" fill="#323133" width="6" height="6"/>
	<rect x="149.859" y="179.961" fill="#EFD1B8" width="6" height="6"/>
	<rect x="131.859" y="179.961" fill="#323133" width="6" height="6"/>
	<rect x="155.859" y="173.961" fill="#323133" width="6" height="6"/>
	<rect x="161.859" y="173.961" fill="#323133" width="6" height="6"/>
	<rect x="131.859" y="173.961" fill="#323133" width="6" height="6"/>
	<rect x="125.859" y="179.961" fill="#323133" width="6" height="6"/>
	<rect x="161.859" y="179.961" fill="#323133" width="6" height="6"/>
	<rect x="167.859" y="179.961" fill="#323133" width="6" height="6"/>
	<rect x="173.859" y="179.961" fill="#1A1818" width="6" height="6"/>
	<rect x="137.859" y="191.961" fill="#DFE0E1" width="6" height="6"/>
	<rect x="143.859" y="191.961" fill="#DFE0E1" width="6" height="6"/>
	<rect x="155.859" y="191.961" fill="#323133" width="6" height="6"/>
	<rect x="149.859" y="191.961" fill="#DFE0E1" width="6" height="6"/>
	<rect x="131.859" y="191.961" fill="#1A1818" width="6" height="6"/>
	<rect x="125.859" y="191.961" fill="#323133" width="6" height="6"/>
	<rect x="119.859" y="191.961" fill="#323133" width="6" height="6"/>
	<rect x="161.859" y="191.961" fill="#1A1818" width="6" height="6"/>
	<rect x="167.859" y="191.961" fill="#323133" width="6" height="6"/>
	<rect x="173.859" y="191.961" fill="#323133" width="6" height="6"/>
	<rect x="179.859" y="191.961" fill="#323133" width="6" height="6"/>
	<rect x="137.859" y="203.961" fill="#7BBCD4" width="6" height="6"/>
	<rect x="143.859" y="203.961" fill="#DFE0E1" width="6" height="6"/>
	<rect x="155.859" y="203.961" fill="#1A1818" width="6" height="6"/>
	<rect x="149.859" y="203.961" fill="#DFE0E1" width="6" height="6"/>
	<rect x="131.859" y="203.961" fill="#1A1818" width="6" height="6"/>
	<rect x="125.859" y="203.961" fill="#1A1818" width="6" height="6"/>
	<rect x="119.859" y="203.961" fill="#323133" width="6" height="6"/>
	<rect x="161.859" y="203.961" fill="#323133" width="6" height="6"/>
	<rect x="167.859" y="203.961" fill="#1A1818" width="6" height="6"/>
	<rect x="173.859" y="203.961" fill="#323133" width="6" height="6"/>
	<rect x="179.859" y="203.961" fill="#323133" width="6" height="6"/>
	<rect x="137.859" y="185.961" fill="#DFE0E1" width="6" height="6"/>
	<rect x="143.859" y="185.961" fill="#DFE0E1" width="6" height="6"/>
	<rect x="155.859" y="185.961" fill="#323133" width="6" height="6"/>
	<rect x="149.859" y="185.961" fill="#DFE0E1" width="6" height="6"/>
	<rect x="131.859" y="185.961" fill="#323133" width="6" height="6"/>
	<rect x="125.859" y="185.961" fill="#1A1818" width="6" height="6"/>
	<rect x="119.859" y="185.961" fill="#323133" width="6" height="6"/>
	<rect x="161.859" y="185.961" fill="#323133" width="6" height="6"/>
	<rect x="167.859" y="185.961" fill="#1A1818" width="6" height="6"/>
	<rect x="173.859" y="185.961" fill="#323133" width="6" height="6"/>
	<rect x="179.859" y="185.961" fill="#323133" width="6" height="6"/>
	<rect x="137.859" y="197.961" fill="#7BBCD4" width="6" height="6"/>
	<rect x="143.859" y="197.961" fill="#7BBCD4" width="6" height="6"/>
	<rect x="155.859" y="197.961" fill="#1A1818" width="6" height="6"/>
	<rect x="149.859" y="197.961" fill="#FFF200" width="6" height="6"/>
	<rect x="131.859" y="197.961" fill="#1A1818" width="6" height="6"/>
	<rect x="125.859" y="197.961" fill="#323133" width="6" height="6"/>
	<rect x="119.859" y="197.961" fill="#323133" width="6" height="6"/>
	<rect x="161.859" y="197.961" fill="#323133" width="6" height="6"/>
	<rect x="167.859" y="197.961" fill="#323133" width="6" height="6"/>
	<rect x="173.859" y="197.961" fill="#323133" width="6" height="6"/>
	<rect x="179.859" y="197.961" fill="#323133" width="6" height="6"/>
</g>
</svg>
