<?xml version="1.0" encoding="utf-8"?>
<!-- Generator: Adobe Illustrator 16.0.0, SVG Export Plug-In . SVG Version: 6.00 Build 0)  -->
<!DOCTYPE svg PUBLIC "-//W3C//DTD SVG 1.1//EN" "http://www.w3.org/Graphics/SVG/1.1/DTD/svg11.dtd">
<svg version="1.1" id="Layer_1" xmlns="http://www.w3.org/2000/svg" xmlns:xlink="http://www.w3.org/1999/xlink" x="0px" y="0px"
	 width="300px" height="300px" viewBox="0 0 300 300" enable-background="new 0 0 300 300" xml:space="preserve">
<g>
	<rect x="120" y="97.529" fill="#BE8961" width="7.5" height="7.5"/>
	<rect x="127.5" y="97.529" fill="#BE8961" width="7.5" height="7.5"/>
	<rect x="135" y="97.529" fill="#373737" width="7.5" height="7.5"/>
	<rect x="142.5" y="97.529" fill="#BE8961" width="7.5" height="7.5"/>
	<rect x="150" y="97.529" fill="#2F292B" width="7.5" height="7.5"/>
	<rect x="112.5" y="105.029" fill="#BE8961" width="7.5" height="7.5"/>
	<rect x="120" y="105.029" fill="#2F292B" width="7.5" height="7.5"/>
	<rect x="127.5" y="105.029" fill="#2F292B" width="7.5" height="7.5"/>
	<rect x="135" y="105.029" fill="#865F36" width="7.5" height="7.5"/>
	<rect x="142.5" y="105.029" fill="#BE8961" width="7.5" height="7.5"/>
	<rect x="150" y="105.029" fill="#2F292B" width="7.5" height="7.5"/>
	<rect x="112.5" y="112.529" fill="#BE8961" width="7.5" height="7.5"/>
	<rect x="120" y="112.529" fill="#BE8961" width="7.5" height="7.5"/>
	<rect x="112.5" y="120" fill="#BE8961" width="7.5" height="7.5"/>
	<rect x="120" y="120" fill="#BE8961" width="7.5" height="7.5"/>
	<rect x="112.5" y="127.485" fill="#BE8961" width="7.5" height="7.5"/>
	<rect x="120" y="127.485" fill="#BE8961" width="7.5" height="7.5"/>
	<rect x="112.5" y="135" fill="#BE8961" width="7.5" height="7.5"/>
	<rect x="120" y="135" fill="#BE8961" width="7.5" height="7.5"/>
	<rect x="112.5" y="142.485" fill="#2F292B" width="7.5" height="7.5"/>
	<rect x="105" y="135" fill="#BE8961" width="7.5" height="7.5"/>
	<rect x="105" y="127.5" fill="#BE8961" width="7.5" height="7.5"/>
	<rect x="120" y="142.485" fill="#2F292B" width="7.5" height="7.5"/>
	<rect x="135" y="142.485" fill="#2F292B" width="7.5" height="7.5"/>
	<rect x="127.5" y="142.485" fill="#2F292B" width="7.5" height="7.5"/>
	<rect x="142.5" y="142.485" fill="#2F292B" width="7.5" height="7.5"/>
	<rect x="157.5" y="142.485" fill="#2F292B" width="7.5" height="7.5"/>
	<rect x="150" y="142.485" fill="#2F292B" width="7.5" height="7.5"/>
	<rect x="135" y="149.971" fill="#FFFFFF" width="7.5" height="7.5"/>
	<rect x="127.5" y="149.971" fill="#FFFFFF" width="7.5" height="7.5"/>
	<rect x="142.5" y="149.971" fill="#FFFFFF" width="7.5" height="7.5"/>
	<rect x="150" y="149.971" fill="#BB807B" width="7.5" height="7.5"/>
	<rect x="135" y="157.456" fill="#2F292B" width="7.5" height="7.5"/>
	<rect x="127.5" y="157.456" fill="#2F292B" width="7.5" height="7.5"/>
	<rect x="142.5" y="157.456" fill="#2F292B" width="7.5" height="7.5"/>
	<rect x="150" y="157.456" fill="#2F292B" width="7.5" height="7.5"/>
	<rect x="135" y="164.956" fill="#2F292B" width="7.5" height="7.5"/>
	<rect x="127.5" y="164.956" fill="#2F292B" width="7.5" height="7.5"/>
	<rect x="142.5" y="164.956" fill="#2F292B" width="7.5" height="7.5"/>
	<rect x="142.5" y="179.956" fill="#865F36" width="7.5" height="7.5"/>
	<rect x="135" y="187.456" fill="#F8CF0A" width="7.5" height="7.5"/>
	<rect x="135" y="179.956" fill="#34A7D0" width="7.5" height="7.5"/>
	<rect x="127.5" y="179.956" fill="#1C6A9C" width="7.5" height="7.5"/>
	<rect x="142.5" y="187.456" fill="#BE8961" width="7.5" height="7.5"/>
	<rect x="150" y="179.956" fill="#BE8961" width="7.5" height="7.5"/>
	<rect x="150" y="164.956" fill="#2F292B" width="7.5" height="7.5"/>
	<rect x="157.5" y="164.956" fill="#865F36" width="7.5" height="7.5"/>
	<rect x="157.5" y="179.956" fill="#BE8961" width="7.5" height="7.5"/>
	<rect x="142.5" y="172.456" fill="#865F36" width="7.5" height="7.5"/>
	<rect x="150" y="172.456" fill="#865F36" width="7.5" height="7.5"/>
	<rect x="157.5" y="172.456" fill="#BE8961" width="7.5" height="7.5"/>
	<rect x="157.5" y="187.456" fill="#BE8961" width="7.5" height="7.5"/>
	<rect x="150" y="187.456" fill="#BE8961" width="7.5" height="7.5"/>
	<rect x="127.5" y="187.456" fill="#98937E" width="7.5" height="7.5"/>
	<rect x="120" y="187.456" fill="#B4AC93" width="7.5" height="7.5"/>
	<rect x="165" y="187.456" fill="#1C6A9C" width="7.5" height="7.5"/>
	<rect x="165" y="179.956" fill="#8A281C" width="7.5" height="7.5"/>
	<rect x="172.476" y="179.956" fill="#F8CF0A" width="7.5" height="7.5"/>
	<rect x="172.5" y="187.456" fill="#98937E" width="7.5" height="7.5"/>
	<rect x="180" y="187.456" fill="#B4AC93" width="7.5" height="7.5"/>
	<rect x="135" y="202.456" fill="#7D7967" width="7.5" height="7.5"/>
	<rect x="142.5" y="202.456" fill="#DBAC27" width="7.5" height="7.5"/>
	<rect x="157.5" y="202.456" fill="#8EC6DA" width="7.5" height="7.5"/>
	<rect x="150" y="202.456" fill="#F1D7C4" width="7.5" height="7.5"/>
	<rect x="127.5" y="202.456" fill="#98937E" width="7.5" height="7.5"/>
	<rect x="127.5" y="209.956" fill="#98937E" width="7.5" height="7.5"/>
	<rect x="120" y="202.456" fill="#98937E" width="7.5" height="7.5"/>
	<rect x="112.5" y="202.456" fill="#98937E" width="7.5" height="7.5"/>
	<rect x="165" y="202.456" fill="#7D7967" width="7.5" height="7.5"/>
	<rect x="172.5" y="202.456" fill="#98937E" width="7.5" height="7.5"/>
	<rect x="180" y="202.456" fill="#98937E" width="7.5" height="7.5"/>
	<rect x="187.5" y="202.456" fill="#98937E" width="7.5" height="7.5"/>
	<rect x="135" y="217.456" fill="#98937E" width="7.5" height="7.5"/>
	<rect x="142.5" y="217.456" fill="#98937E" width="7.5" height="7.5"/>
	<rect x="157.5" y="217.456" fill="#98937E" width="7.5" height="7.5"/>
	<rect x="150" y="217.456" fill="#98937E" width="7.5" height="7.5"/>
	<rect x="127.5" y="217.456" fill="#98937E" width="7.5" height="7.5"/>
	<rect x="120" y="217.456" fill="#7D7967" width="7.5" height="7.5"/>
	<rect x="112.5" y="217.456" fill="#98937E" width="7.5" height="7.5"/>
	<rect x="165" y="217.456" fill="#98937E" width="7.5" height="7.5"/>
	<rect x="172.5" y="217.456" fill="#7D7967" width="7.5" height="7.5"/>
	<rect x="180" y="217.456" fill="#98937E" width="7.5" height="7.5"/>
	<rect x="187.5" y="217.456" fill="#98937E" width="7.5" height="7.5"/>
	<rect x="135" y="194.956" fill="#F1D7C4" width="7.5" height="7.5"/>
	<rect x="142.5" y="194.956" fill="#8A281C" width="7.5" height="7.5"/>
	<rect x="157.5" y="194.956" fill="#8A281C" width="7.5" height="7.5"/>
	<rect x="150" y="194.956" fill="#BE8961" width="7.5" height="7.5"/>
	<rect x="127.5" y="194.956" fill="#98937E" width="7.5" height="7.5"/>
	<rect x="120" y="194.956" fill="#98937E" width="7.5" height="7.5"/>
	<rect x="112.5" y="194.956" fill="#B4AC93" width="7.5" height="7.5"/>
	<rect x="165" y="194.956" fill="#FFFFFF" width="7.5" height="7.5"/>
	<rect x="172.5" y="194.956" fill="#98937E" width="7.5" height="7.5"/>
	<rect x="180" y="194.956" fill="#98937E" width="7.5" height="7.5"/>
	<rect x="187.5" y="194.956" fill="#B4AC93" width="7.5" height="7.5"/>
	<rect x="135" y="209.956" fill="#98937E" width="7.5" height="7.5"/>
	<rect x="142.5" y="209.956" fill="#7D7967" width="7.5" height="7.5"/>
	<rect x="157.5" y="209.956" fill="#7D7967" width="7.5" height="7.5"/>
	<rect x="150" y="209.956" fill="#7D7967" width="7.5" height="7.5"/>
	<rect x="127.5" y="209.956" fill="#98937E" width="7.5" height="7.5"/>
	<rect x="120" y="209.956" fill="#7D7967" width="7.5" height="7.5"/>
	<rect x="112.5" y="209.956" fill="#98937E" width="7.5" height="7.5"/>
	<rect x="165" y="209.956" fill="#98937E" width="7.5" height="7.5"/>
	<rect x="172.5" y="209.956" fill="#7D7967" width="7.5" height="7.5"/>
	<rect x="180" y="209.956" fill="#98937E" width="7.5" height="7.5"/>
	<rect x="187.5" y="209.956" fill="#98937E" width="7.5" height="7.5"/>
	<rect x="165" y="142.485" fill="#865F36" width="7.5" height="7.5"/>
	<rect x="157.5" y="135" fill="#2F292B" width="7.5" height="7.5"/>
	<rect x="165" y="135" fill="#BE8961" width="7.5" height="7.5"/>
	<rect x="157.5" y="157.456" fill="#865F36" width="7.5" height="7.5"/>
	<rect x="157.5" y="149.971" fill="#2F292B" width="7.5" height="7.5"/>
	<rect x="165" y="149.971" fill="#2F292B" width="7.5" height="7.5"/>
	<rect x="172.476" y="135.01" fill="#373737" width="7.5" height="7.5"/>
	<rect x="172.476" y="142.495" fill="#2F292B" width="7.5" height="7.5"/>
	<rect x="157.5" y="127.485" fill="#2F292B" width="7.5" height="7.5"/>
	<rect x="165" y="127.485" fill="#865F36" width="7.5" height="7.5"/>
	<rect x="157.5" y="120" fill="#2F292B" width="7.5" height="7.5"/>
	<rect x="165" y="120" fill="#BE8961" width="7.5" height="7.5"/>
	<rect x="172.5" y="127.485" fill="#BE8961" width="7.5" height="7.5"/>
	<rect x="172.5" y="120" fill="#BE8961" width="7.5" height="7.5"/>
	<rect x="127.5" y="112.529" fill="#BE8961" width="7.5" height="7.5"/>
	<rect x="135" y="112.529" fill="#BE8961" width="7.5" height="7.5"/>
	<rect x="142.5" y="112.529" fill="#BE8961" width="7.5" height="7.5"/>
	<rect x="150" y="112.529" fill="#BE8961" width="7.5" height="7.5"/>
	<rect x="127.5" y="120" fill="#B7803B" width="7.5" height="7.5"/>
	<rect x="135" y="120" fill="#FFFFFF" width="7.5" height="7.5"/>
	<rect x="127.5" y="120" fill="#2F292B" width="7.5" height="7.5"/>
	<rect x="142.5" y="120" fill="#BE8961" width="7.5" height="7.5"/>
	<rect x="150" y="120" fill="#BE8961" width="7.5" height="7.5"/>
	<rect x="127.5" y="127.485" fill="#946A41" width="7.5" height="7.5"/>
	<rect x="135" y="127.485" fill="#BE8961" width="7.5" height="7.5"/>
	<rect x="142.5" y="127.485" fill="#BE8961" width="7.5" height="7.5"/>
	<rect x="150" y="127.485" fill="#BE8961" width="7.5" height="7.5"/>
	<rect x="127.5" y="134.985" fill="#BE8961" width="7.5" height="7.5"/>
	<rect x="135" y="134.985" fill="#BE8961" width="7.5" height="7.5"/>
	<rect x="142.5" y="134.985" fill="#BE8961" width="7.5" height="7.5"/>
	<rect x="150" y="134.985" fill="#BE8961" width="7.5" height="7.5"/>
	<rect x="157.5" y="97.529" fill="#2F292B" width="7.5" height="7.5"/>
	<rect x="165" y="97.529" fill="#2F292B" width="7.5" height="7.5"/>
	<rect x="120" y="90.044" fill="#BE8961" width="7.5" height="7.5"/>
	<rect x="112.5" y="97.529" fill="#BE8961" width="7.5" height="7.5"/>
	<rect x="112.5" y="90.044" fill="#BE8961" width="7.5" height="7.5"/>
	<rect x="112.5" y="82.544" fill="#2F292B" width="7.5" height="7.5"/>
	<rect x="105" y="90.044" fill="#2F292B" width="7.5" height="7.5"/>
	<rect x="127.5" y="90.044" fill="#2F292B" width="7.5" height="7.5"/>
	<rect x="135" y="90.044" fill="#BE8961" width="7.5" height="7.5"/>
	<rect x="142.5" y="90.044" fill="#2F292B" width="7.5" height="7.5"/>
	<rect x="150" y="90.044" fill="#2F292B" width="7.5" height="7.5"/>
	<rect x="120" y="82.544" fill="#2F292B" width="7.5" height="7.5"/>
	<rect x="127.5" y="82.544" fill="#2F292B" width="7.5" height="7.5"/>
	<rect x="135" y="82.544" fill="#2F292B" width="7.5" height="7.5"/>
	<rect x="142.5" y="82.544" fill="#2F292B" width="7.5" height="7.5"/>
	<rect x="150" y="82.544" fill="#2F292B" width="7.5" height="7.5"/>
	<rect x="157.5" y="90.044" fill="#2F292B" width="7.5" height="7.5"/>
	<rect x="157.5" y="82.544" fill="#2F292B" width="7.5" height="7.5"/>
	<rect x="120" y="75.044" fill="#2F292B" width="7.5" height="7.5"/>
	<rect x="127.5" y="75.044" fill="#2F292B" width="7.5" height="7.5"/>
	<rect x="135" y="75.044" fill="#2F292B" width="7.5" height="7.5"/>
	<rect x="142.5" y="75.044" fill="#2F292B" width="7.5" height="7.5"/>
	<rect x="150" y="75.044" fill="#2F292B" width="7.5" height="7.5"/>
	<rect x="165" y="90.044" fill="#373737" width="7.5" height="7.5"/>
	<rect x="165" y="82.544" fill="#2F292B" width="7.5" height="7.5"/>
	<rect x="157.5" y="105.029" fill="#2F292B" width="7.5" height="7.5"/>
	<rect x="165" y="105.029" fill="#373737" width="7.5" height="7.5"/>
	<rect x="157.5" y="112.529" fill="#2F292B" width="7.5" height="7.5"/>
	<rect x="165" y="112.529" fill="#2F292B" width="7.5" height="7.5"/>
	<rect x="172.5" y="97.529" fill="#2F292B" width="7.5" height="7.5"/>
	<rect x="172.5" y="90.044" fill="#2F292B" width="7.5" height="7.5"/>
	<rect x="172.5" y="105.029" fill="#2F292B" width="7.5" height="7.5"/>
	<rect x="172.5" y="112.529" fill="#2F292B" width="7.5" height="7.5"/>
	<rect x="180" y="105.029" fill="#2F292B" width="7.5" height="7.5"/>
	<rect x="180" y="112.529" fill="#373737" width="7.5" height="7.5"/>
	<rect x="180" y="120" fill="#2F292B" width="7.5" height="7.5"/>
	<rect x="180" y="127.5" fill="#2F292B" width="7.5" height="7.5"/>
	<rect x="180" y="135.01" fill="#2F292B" width="7.5" height="7.5"/>
	<rect x="180" y="142.51" fill="#2F292B" width="7.5" height="7.5"/>
	<rect x="172.476" y="149.966" fill="#373737" width="7.5" height="7.5"/>
	<rect x="180" y="149.98" fill="#2F292B" width="7.5" height="7.5"/>
	<rect x="164.966" y="157.451" fill="#2F292B" width="7.5" height="7.5"/>
	<rect x="172.485" y="157.466" fill="#2F292B" width="7.5" height="7.5"/>
	<rect x="187.5" y="120" fill="#2F292B" width="7.5" height="7.5"/>
	<rect x="187.5" y="127.5" fill="#2F292B" width="7.5" height="7.5"/>
	<rect x="187.5" y="135.01" fill="#373737" width="7.5" height="7.5"/>
	<rect x="187.5" y="142.51" fill="#2F292B" width="7.5" height="7.5"/>
</g>
</svg>
