<?xml version="1.0" encoding="utf-8"?>
<!-- Generator: Adobe Illustrator 16.0.0, SVG Export Plug-In . SVG Version: 6.00 Build 0)  -->
<!DOCTYPE svg PUBLIC "-//W3C//DTD SVG 1.1//EN" "http://www.w3.org/Graphics/SVG/1.1/DTD/svg11.dtd">
<svg version="1.1" id="Layer_1" xmlns="http://www.w3.org/2000/svg" xmlns:xlink="http://www.w3.org/1999/xlink" x="0px" y="0px"
	 width="300px" height="300px" viewBox="0 0 300 300" enable-background="new 0 0 300 300" xml:space="preserve">
<g>
	<rect x="131.248" y="183.706" fill="#E5B29B" width="7.5" height="7.5"/>
	<rect x="138.748" y="183.706" fill="#E5B29B" width="7.5" height="7.5"/>
	<rect x="146.248" y="183.706" fill="#E5B29B" width="7.5" height="7.5"/>
	<rect x="161.248" y="183.706" fill="#EFD1B8" width="7.5" height="7.5"/>
	<rect x="131.248" y="191.206" fill="#EFD1B8" width="7.5" height="7.5"/>
	<rect x="138.748" y="191.206" fill="#EFD1B8" width="7.5" height="7.5"/>
	<rect x="168.748" y="183.706" fill="#1B455E" width="7.5" height="7.5"/>
	<rect x="161.248" y="191.206" fill="#C3D2E0" width="7.5" height="7.5"/>
	<rect x="146.248" y="191.206" fill="#EFD1B8" width="7.5" height="7.5"/>
	<rect x="123.748" y="191.206" fill="#C3D2E0" width="7.5" height="7.5"/>
	<rect x="116.248" y="191.206" fill="#1B455E" width="7.5" height="7.5"/>
	<rect x="123.748" y="183.706" fill="#1B455E" width="7.5" height="7.5"/>
	<rect x="116.248" y="183.706" fill="#1B455E" width="7.5" height="7.5"/>
	<rect x="168.748" y="191.206" fill="#1B455E" width="7.5" height="7.5"/>
	<rect x="176.248" y="191.206" fill="#1B455E" width="7.5" height="7.5"/>
	<rect x="176.248" y="183.706" fill="#1B455E" width="7.5" height="7.5"/>
	<rect x="183.748" y="191.206" fill="#1B455E" width="7.5" height="7.5"/>
	<rect x="131.248" y="206.206" fill="#C7E1F5" width="7.5" height="7.5"/>
	<rect x="138.748" y="206.206" fill="#913844" width="7.5" height="7.5"/>
	<rect x="161.248" y="206.206" fill="#C3D2E0" width="7.5" height="7.5"/>
	<rect x="146.248" y="206.206" fill="#C7E1F5" width="7.5" height="7.5"/>
	<rect x="123.748" y="206.206" fill="#1B455E" width="7.5" height="7.5"/>
	<rect x="123.748" y="213.706" fill="#001B30" width="7.5" height="7.5"/>
	<rect x="116.248" y="206.206" fill="#001B30" width="7.5" height="7.5"/>
	<rect x="108.748" y="206.206" fill="#1B455E" width="7.5" height="7.5"/>
	<rect x="168.748" y="206.206" fill="#1B455E" width="7.5" height="7.5"/>
	<rect x="176.248" y="206.206" fill="#001B30" width="7.5" height="7.5"/>
	<rect x="183.748" y="206.206" fill="#1B455E" width="7.5" height="7.5"/>
	<rect x="191.248" y="206.206" fill="#1B455E" width="7.5" height="7.5"/>
	<rect x="131.248" y="221.206" fill="#C7E1F5" width="7.5" height="7.5"/>
	<rect x="138.748" y="221.206" fill="#913844" width="7.5" height="7.5"/>
	<rect x="161.248" y="221.206" fill="#1B455E" width="7.5" height="7.5"/>
	<rect x="146.248" y="221.206" fill="#C7E1F5" width="7.5" height="7.5"/>
	<rect x="123.748" y="221.206" fill="#1B455E" width="7.5" height="7.5"/>
	<rect x="116.248" y="221.206" fill="#1B455E" width="7.5" height="7.5"/>
	<rect x="108.748" y="221.206" fill="#001B30" width="7.5" height="7.5"/>
	<rect x="168.748" y="221.206" fill="#1B455E" width="7.5" height="7.5"/>
	<rect x="176.248" y="221.206" fill="#001B30" width="7.5" height="7.5"/>
	<rect x="183.748" y="221.206" fill="#1B455E" width="7.5" height="7.5"/>
	<rect x="191.248" y="221.206" fill="#1B455E" width="7.5" height="7.5"/>
	<rect x="131.248" y="198.706" fill="#913844" width="7.5" height="7.5"/>
	<rect x="138.748" y="198.706" fill="#913844" width="7.5" height="7.5"/>
	<rect x="161.248" y="198.706" fill="#C3D2E0" width="7.5" height="7.5"/>
	<rect x="146.248" y="198.706" fill="#913844" width="7.5" height="7.5"/>
	<rect x="123.748" y="198.706" fill="#C3D2E0" width="7.5" height="7.5"/>
	<rect x="116.248" y="198.706" fill="#1B455E" width="7.5" height="7.5"/>
	<rect x="108.748" y="198.706" fill="#001B30" width="7.5" height="7.5"/>
	<rect x="108.748" y="191.206" fill="#1B455E" width="7.5" height="7.5"/>
	<rect x="168.748" y="198.706" fill="#1B455E" width="7.5" height="7.5"/>
	<rect x="176.248" y="198.706" fill="#1B455E" width="7.5" height="7.5"/>
	<rect x="183.748" y="198.706" fill="#001B30" width="7.5" height="7.5"/>
	<rect x="191.248" y="198.706" fill="#1B455E" width="7.5" height="7.5"/>
	<rect x="131.248" y="213.706" fill="#C7E1F5" width="7.5" height="7.5"/>
	<rect x="138.748" y="213.706" fill="#913844" width="7.5" height="7.5"/>
	<rect x="161.248" y="213.706" fill="#1B455E" width="7.5" height="7.5"/>
	<rect x="153.748" y="183.706" fill="#E5B29B" width="7.5" height="7.5"/>
	<rect x="153.748" y="191.206" fill="#EFD1B8" width="7.5" height="7.5"/>
	<rect x="153.748" y="206.206" fill="#C7E1F5" width="7.5" height="7.5"/>
	<rect x="153.748" y="221.206" fill="#1B455E" width="7.5" height="7.5"/>
	<rect x="153.748" y="198.706" fill="#C3D2E0" width="7.5" height="7.5"/>
	<rect x="153.748" y="213.706" fill="#C7E1F5" width="7.5" height="7.5"/>
	<rect x="146.248" y="213.706" fill="#C7E1F5" width="7.5" height="7.5"/>
	<rect x="116.248" y="213.706" fill="#1B455E" width="7.5" height="7.5"/>
	<rect x="108.748" y="213.706" fill="#1B455E" width="7.5" height="7.5"/>
	<rect x="101.248" y="206.206" fill="#1B455E" width="7.5" height="7.5"/>
	<rect x="101.248" y="198.706" fill="#1B455E" width="7.5" height="7.5"/>
	<rect x="101.248" y="221.206" fill="#1B455E" width="7.5" height="7.5"/>
	<rect x="101.248" y="213.706" fill="#1B455E" width="7.5" height="7.5"/>
	<rect x="93.752" y="221.206" fill="#1B455E" width="7.5" height="7.5"/>
	<rect x="93.752" y="213.706" fill="#1B455E" width="7.5" height="7.5"/>
	<rect x="93.752" y="206.206" fill="#1B455E" width="7.5" height="7.5"/>
	<rect x="168.748" y="213.706" fill="#001B30" width="7.5" height="7.5"/>
	<rect x="176.248" y="213.706" fill="#1B455E" width="7.5" height="7.5"/>
	<rect x="183.748" y="213.706" fill="#1B455E" width="7.5" height="7.5"/>
	<rect x="191.248" y="213.706" fill="#1B455E" width="7.5" height="7.5"/>
	<rect x="198.748" y="206.206" fill="#1B455E" width="7.5" height="7.5"/>
	<rect x="198.748" y="221.206" fill="#1B455E" width="7.5" height="7.5"/>
	<rect x="198.748" y="213.706" fill="#1B455E" width="7.5" height="7.5"/>
	<rect x="108.748" y="78.804" fill="#3E2D02" width="7.5" height="7.5"/>
	<rect x="108.748" y="93.809" fill="#414042" width="7.5" height="7.5"/>
	<rect x="101.248" y="78.804" fill="#231F20" width="7.5" height="7.5"/>
	<rect x="101.248" y="93.809" fill="#3E2D02" width="7.5" height="7.5"/>
	<rect x="116.248" y="93.809" fill="#231F20" width="7.5" height="7.5"/>
	<rect x="116.248" y="78.799" fill="#231F20" width="7.5" height="7.5"/>
	<rect x="123.748" y="93.809" fill="#58595B" width="7.5" height="7.5"/>
	<rect x="131.248" y="93.809" fill="#F7E0CF" width="7.5" height="7.5"/>
	<rect x="138.748" y="93.809" fill="#F7E0CF" width="7.5" height="7.5"/>
	<rect x="146.248" y="93.809" fill="#F7E0CF" width="7.5" height="7.5"/>
	<rect x="108.748" y="108.789" fill="#F7E0CF" width="7.5" height="7.5"/>
	<rect x="116.248" y="108.789" fill="#E5B29B" width="7.5" height="7.5"/>
	<rect x="123.748" y="108.789" fill="#E5B29B" width="7.5" height="7.5"/>
	<rect x="131.248" y="108.789" fill="#F7E0CF" width="7.5" height="7.5"/>
	<rect x="138.748" y="108.789" fill="#E5B29B" width="7.5" height="7.5"/>
	<rect x="146.248" y="108.789" fill="#231F20" width="7.5" height="7.5"/>
	<rect x="108.748" y="116.289" fill="#EFD1B8" width="7.5" height="7.5"/>
	<rect x="116.248" y="116.289" fill="#231F20" width="7.5" height="7.5"/>
	<rect x="123.748" y="116.289" fill="#231F20" width="7.5" height="7.5"/>
	<rect x="131.248" y="116.289" fill="#EFD1B8" width="7.5" height="7.5"/>
	<rect x="138.748" y="116.289" fill="#EFD1B8" width="7.5" height="7.5"/>
	<rect x="146.248" y="116.289" fill="#EFD1B8" width="7.5" height="7.5"/>
	<rect x="108.748" y="123.789" fill="#EFD1B8" width="7.5" height="7.5"/>
	<rect x="116.248" y="123.789" fill="#EFD1B8" width="7.5" height="7.5"/>
	<rect x="108.748" y="131.26" fill="#D8CBB7" width="7.5" height="7.5"/>
	<rect x="116.248" y="131.26" fill="#603913" width="7.5" height="7.5"/>
	<rect x="108.748" y="138.75" fill="#D8CBB7" width="7.5" height="7.5"/>
	<rect x="116.248" y="138.75" fill="#D8CBB7" width="7.5" height="7.5"/>
	<rect x="108.748" y="146.26" fill="#F7E0CF" width="7.5" height="7.5"/>
	<rect x="116.248" y="146.26" fill="#EFD1B8" width="7.5" height="7.5"/>
	<rect x="108.748" y="153.75" fill="#726658" width="7.5" height="7.5"/>
	<rect x="116.248" y="153.75" fill="#726658" width="7.5" height="7.5"/>
	<rect x="131.248" y="153.75" fill="#BAA993" width="7.5" height="7.5"/>
	<rect x="123.748" y="153.75" fill="#726658" width="7.5" height="7.5"/>
	<rect x="138.748" y="153.75" fill="#F7E0CF" width="7.5" height="7.5"/>
	<rect x="153.748" y="153.75" fill="#D7BFAA" width="7.5" height="7.5"/>
	<rect x="146.248" y="153.75" fill="#D7BFAA" width="7.5" height="7.5"/>
	<rect x="131.248" y="161.23" fill="#FFFFFF" width="7.5" height="7.5"/>
	<rect x="123.748" y="161.23" fill="#FFFFFF" width="7.5" height="7.5"/>
	<rect x="138.748" y="161.23" fill="#BB807B" width="7.5" height="7.5"/>
	<rect x="146.248" y="161.23" fill="#D7BFAA" width="7.5" height="7.5"/>
	<rect x="131.248" y="168.721" fill="#BB807B" width="7.5" height="7.5"/>
	<rect x="123.748" y="168.721" fill="#BB807B" width="7.5" height="7.5"/>
	<rect x="138.748" y="168.721" fill="#D7BFAA" width="7.5" height="7.5"/>
	<rect x="146.248" y="168.721" fill="#BAA993" width="7.5" height="7.5"/>
	<rect x="131.248" y="176.221" fill="#726658" width="7.5" height="7.5"/>
	<rect x="123.748" y="176.221" fill="#726658" width="7.5" height="7.5"/>
	<rect x="138.748" y="176.221" fill="#BAA993" width="7.5" height="7.5"/>
	<rect x="146.248" y="176.221" fill="#BAA993" width="7.5" height="7.5"/>
	<rect x="153.748" y="176.221" fill="#EFD1B8" width="7.5" height="7.5"/>
	<rect x="161.248" y="176.221" fill="#F7E0CF" width="7.5" height="7.5"/>
	<rect x="161.248" y="153.75" fill="#D7BFAA" width="7.5" height="7.5"/>
	<rect x="153.748" y="146.26" fill="#D7BFAA" width="7.5" height="7.5"/>
	<rect x="161.248" y="146.26" fill="#EFD1B8" width="7.5" height="7.5"/>
	<rect x="153.748" y="168.721" fill="#BAA993" width="7.5" height="7.5"/>
	<rect x="161.248" y="168.721" fill="#EFD1B8" width="7.5" height="7.5"/>
	<rect x="153.748" y="161.23" fill="#BAA993" width="7.5" height="7.5"/>
	<rect x="161.248" y="161.23" fill="#EFD1B8" width="7.5" height="7.5"/>
	<rect x="153.748" y="138.75" fill="#726658" width="7.5" height="7.5"/>
	<rect x="161.248" y="138.75" fill="#EFD1B8" width="7.5" height="7.5"/>
	<rect x="153.748" y="131.26" fill="#EFD1B8" width="7.5" height="7.5"/>
	<rect x="161.248" y="131.26" fill="#E5B29B" width="7.5" height="7.5"/>
	<rect x="168.748" y="138.75" fill="#EFD1B8" width="7.5" height="7.5"/>
	<rect x="168.748" y="131.26" fill="#EFD1B8" width="7.5" height="7.5"/>
	<rect x="123.748" y="123.789" fill="#EFD1B8" width="7.5" height="7.5"/>
	<rect x="131.248" y="123.789" fill="#231F20" width="7.5" height="7.5"/>
	<rect x="138.748" y="123.789" fill="#EFD1B8" width="7.5" height="7.5"/>
	<rect x="146.248" y="123.789" fill="#3E2D02" width="7.5" height="7.5"/>
	<rect x="123.748" y="131.26" fill="#FFFFFF" width="7.5" height="7.5"/>
	<rect x="131.248" y="131.26" fill="#EFD1B8" width="7.5" height="7.5"/>
	<rect x="138.748" y="131.26" fill="#EFD1B8" width="7.5" height="7.5"/>
	<rect x="146.248" y="131.26" fill="#EFD1B8" width="7.5" height="7.5"/>
	<rect x="123.748" y="138.75" fill="#E5B29B" width="7.5" height="7.5"/>
	<rect x="131.248" y="138.75" fill="#F7E0CF" width="7.5" height="7.5"/>
	<rect x="138.748" y="138.75" fill="#EFD1B8" width="7.5" height="7.5"/>
	<rect x="146.248" y="138.75" fill="#EFD1B8" width="7.5" height="7.5"/>
	<rect x="123.748" y="146.25" fill="#EFD1B8" width="7.5" height="7.5"/>
	<rect x="131.248" y="146.25" fill="#E5B29B" width="7.5" height="7.5"/>
	<rect x="138.748" y="146.25" fill="#F7E0CF" width="7.5" height="7.5"/>
	<rect x="146.248" y="146.25" fill="#EFD1B8" width="7.5" height="7.5"/>
	<rect x="153.748" y="108.789" fill="#3E2D02" width="7.5" height="7.5"/>
	<rect x="161.248" y="108.789" fill="#231F20" width="7.5" height="7.5"/>
	<rect x="108.748" y="101.309" fill="#3E2D02" width="7.5" height="7.5"/>
	<rect x="116.248" y="71.294" fill="#3E2D02" width="7.5" height="7.5"/>
	<rect x="108.748" y="71.294" fill="#231F20" width="7.5" height="7.5"/>
	<rect x="123.748" y="71.294" fill="#231F20" width="7.5" height="7.5"/>
	<rect x="131.248" y="71.294" fill="#231F20" width="7.5" height="7.5"/>
	<rect x="138.748" y="71.294" fill="#231F20" width="7.5" height="7.5"/>
	<rect x="116.248" y="101.309" fill="#F7E0CF" width="7.5" height="7.5"/>
	<rect x="123.748" y="101.309" fill="#F7E0CF" width="7.5" height="7.5"/>
	<rect x="131.248" y="101.309" fill="#F7E0CF" width="7.5" height="7.5"/>
	<rect x="138.748" y="101.309" fill="#E5B29B" width="7.5" height="7.5"/>
	<rect x="146.248" y="101.309" fill="#E5B29B" width="7.5" height="7.5"/>
	<rect x="153.748" y="101.309" fill="#231F20" width="7.5" height="7.5"/>
	<rect x="153.748" y="93.809" fill="#231F20" width="7.5" height="7.5"/>
	<rect x="161.248" y="101.309" fill="#3E2D02" width="7.5" height="7.5"/>
	<rect x="161.248" y="93.809" fill="#231F20" width="7.5" height="7.5"/>
	<rect x="161.248" y="78.799" fill="#3E2D02" width="7.5" height="7.5"/>
	<rect x="168.748" y="101.309" fill="#231F20" width="7.5" height="7.5"/>
	<rect x="168.748" y="93.809" fill="#3E2D02" width="7.5" height="7.5"/>
	<rect x="123.748" y="78.804" fill="#3E2D02" width="7.5" height="7.5"/>
	<rect x="131.248" y="78.804" fill="#231F20" width="7.5" height="7.5"/>
	<rect x="138.748" y="78.804" fill="#231F20" width="7.5" height="7.5"/>
	<rect x="146.248" y="78.804" fill="#231F20" width="7.5" height="7.5"/>
	<rect x="153.748" y="78.804" fill="#58595B" width="7.5" height="7.5"/>
	<rect x="108.748" y="86.353" fill="#231F20" width="7.5" height="7.5"/>
	<rect x="101.248" y="86.353" fill="#231F20" width="7.5" height="7.5"/>
	<rect x="116.248" y="86.348" fill="#3E2D02" width="7.5" height="7.5"/>
	<rect x="161.248" y="86.348" fill="#231F20" width="7.5" height="7.5"/>
	<rect x="123.748" y="86.353" fill="#231F20" width="7.5" height="7.5"/>
	<rect x="131.248" y="86.353" fill="#3E2D02" width="7.5" height="7.5"/>
	<rect x="138.748" y="86.353" fill="#231F20" width="7.5" height="7.5"/>
	<rect x="146.248" y="86.353" fill="#231F20" width="7.5" height="7.5"/>
	<rect x="153.748" y="86.353" fill="#3E2D02" width="7.5" height="7.5"/>
	<rect x="153.748" y="116.289" fill="#231F20" width="7.5" height="7.5"/>
	<rect x="146.248" y="116.289" fill="#231F20" width="7.5" height="7.5"/>
	<rect x="153.748" y="131.26" fill="#726658" width="7.5" height="7.5"/>
	<rect x="161.248" y="116.289" fill="#3E2D02" width="7.5" height="7.5"/>
	<rect x="153.748" y="123.789" fill="#3E2D02" width="7.5" height="7.5"/>
	<rect x="161.248" y="123.789" fill="#F7E0CF" width="7.5" height="7.5"/>
	<rect x="168.748" y="108.789" fill="#3E2D02" width="7.5" height="7.5"/>
	<rect x="168.748" y="116.289" fill="#231F20" width="7.5" height="7.5"/>
	<rect x="168.748" y="146.289" fill="#3E2D02" width="7.5" height="7.5"/>
	<rect x="168.748" y="153.789" fill="#726658" width="7.5" height="7.5"/>
	<rect x="168.748" y="123.789" fill="#F7E0CF" width="7.5" height="7.5"/>
	<rect x="176.248" y="131.26" fill="#EFD1B8" width="7.5" height="7.5"/>
	<rect x="176.248" y="123.789" fill="#F7E0CF" width="7.5" height="7.5"/>
	<rect x="101.248" y="146.226" fill="#EFD1B8" width="7.5" height="7.5"/>
	<rect x="93.752" y="146.226" fill="#EFD1B8" width="7.495" height="7.5"/>
	<rect x="101.248" y="138.726" fill="#EFD1B8" width="7.5" height="7.5"/>
	<rect x="101.248" y="131.26" fill="#EFD1B8" width="7.5" height="7.5"/>
</g>
</svg>
