<?xml version="1.0" encoding="utf-8"?>
<!-- Generator: Adobe Illustrator 16.0.0, SVG Export Plug-In . SVG Version: 6.00 Build 0)  -->
<!DOCTYPE svg PUBLIC "-//W3C//DTD SVG 1.1//EN" "http://www.w3.org/Graphics/SVG/1.1/DTD/svg11.dtd">
<svg version="1.1" id="Layer_1" xmlns="http://www.w3.org/2000/svg" xmlns:xlink="http://www.w3.org/1999/xlink" x="0px" y="0px"
	 width="300px" height="300px" viewBox="0 0 300 300" enable-background="new 0 0 300 300" xml:space="preserve">
<g>
	<rect x="125.305" y="191.961" fill="#ECEEEE" width="6" height="6"/>
	<rect x="119.305" y="191.961" fill="#DFE0E1" width="6" height="6"/>
	<rect x="125.305" y="203.961" fill="#A6822B" width="6" height="6"/>
	<rect x="119.305" y="203.961" fill="#95681C" width="6" height="6"/>
	<rect x="125.305" y="197.961" fill="#95681C" width="6" height="6"/>
	<rect x="119.305" y="197.961" fill="#A6822B" width="6" height="6"/>
	<rect x="113.305" y="191.961" fill="#ECEEEE" width="6" height="6"/>
	<rect x="113.305" y="203.961" fill="#A6822B" width="6" height="6"/>
	<rect x="113.305" y="197.961" fill="#95681C" width="6" height="6"/>
	<g>
		<rect x="98.344" y="191.961" fill="#C7C4BC" width="6" height="6"/>
		<rect x="92.344" y="191.961" fill="#C7C4BC" width="6" height="6"/>
		<rect x="98.344" y="203.961" fill="#A6822B" width="6" height="6"/>
		<rect x="92.344" y="203.961" fill="#95681C" width="6" height="6"/>
		<rect x="98.344" y="197.961" fill="#C7C4BC" width="6" height="6"/>
		<rect x="92.344" y="197.961" fill="#C7C4BC" width="6" height="6"/>
		<rect x="86.344" y="191.961" fill="#95681C" width="6" height="6"/>
		<rect x="98.344" y="185.961" fill="#231F20" width="6" height="6"/>
		<rect x="92.344" y="185.961" fill="#C7C4BC" width="6" height="6"/>
		<rect x="86.344" y="185.961" fill="#A6822B" width="6" height="6"/>
		<rect x="98.344" y="179.961" fill="#C7C4BC" width="6" height="6"/>
		<rect x="92.344" y="179.961" fill="#C7C4BC" width="6" height="6"/>
		<rect x="86.344" y="179.961" fill="#95681C" width="6" height="6"/>
		<rect x="98.344" y="173.93" fill="#95681C" width="6" height="6"/>
		<rect x="92.344" y="173.93" fill="#95681C" width="6" height="6"/>
		<rect x="86.344" y="173.93" fill="#A6822B" width="6" height="6"/>
		<rect x="92.344" y="167.941" fill="#95681C" width="6" height="6"/>
		<rect x="92.344" y="161.941" fill="#A6822B" width="6" height="6"/>
		<rect x="92.344" y="155.941" fill="#231F20" width="6" height="6"/>
		<rect x="86.344" y="203.961" fill="#95681C" width="6" height="6"/>
		<rect x="86.344" y="197.961" fill="#A6822B" width="6" height="6"/>
	</g>
	<g>
		<rect x="153.656" y="90.039" fill="#231F20" width="6" height="6"/>
		<rect x="159.656" y="90.039" fill="#231F20" width="6" height="6"/>
		<rect x="165.656" y="90.039" fill="#231F20" width="6" height="6"/>
		<rect x="171.656" y="90.039" fill="#231F20" width="6" height="6"/>
		<rect x="147.656" y="102.027" fill="#DCB397" width="6" height="6"/>
		<rect x="153.656" y="102.027" fill="#DCB397" width="6" height="6"/>
		<rect x="159.656" y="102.027" fill="#EAC4B2" width="6" height="6"/>
		<rect x="165.656" y="102.027" fill="#EAC4B2" width="6" height="6"/>
		<rect x="171.656" y="102.027" fill="#414042" width="6" height="6"/>
		<rect x="177.656" y="102.027" fill="#231F20" width="6" height="6"/>
		<rect x="147.656" y="108.027" fill="#DBB6A0" width="6" height="6"/>
		<rect x="153.656" y="108.027" fill="#DCB397" width="6" height="6"/>
		<rect x="159.656" y="108.027" fill="#DCB397" width="6" height="6"/>
		<rect x="165.656" y="108.027" fill="#DBB6A0" width="6" height="6"/>
		<rect x="171.656" y="108.027" fill="#EAC4B2" width="6" height="6"/>
		<rect x="177.656" y="108.027" fill="#414042" width="6" height="6"/>
		<rect x="147.656" y="114.027" fill="#DBB6A0" width="6" height="6"/>
		<rect x="153.656" y="114.027" fill="#EAC4B2" width="6" height="6"/>
		<rect x="147.656" y="120.004" fill="#DCB397" width="6" height="6"/>
		<rect x="153.656" y="120.004" fill="#414042" width="6" height="6"/>
		<rect x="147.656" y="131.965" fill="#231F20" width="6" height="6"/>
		<rect x="153.656" y="131.965" fill="#3B2314" width="6" height="6"/>
		<rect x="147.656" y="137.977" fill="#DCB397" width="6" height="6"/>
		<rect x="153.656" y="137.977" fill="#231F20" width="6" height="6"/>
		<rect x="147.656" y="143.965" fill="#AA8C76" width="6" height="6"/>
		<rect x="141.656" y="137.977" fill="#DCB397" width="6" height="6"/>
		<rect x="153.656" y="143.965" fill="#B99881" width="6" height="6"/>
		<rect x="165.656" y="143.965" fill="#EAC4B2" width="6" height="6"/>
		<rect x="159.656" y="143.965" fill="#B99881" width="6" height="6"/>
		<rect x="171.656" y="143.965" fill="#C09385" width="6" height="6"/>
		<rect x="183.656" y="143.965" fill="#B99881" width="6" height="6"/>
		<rect x="177.656" y="143.965" fill="#DCB397" width="6" height="6"/>
		<rect x="165.656" y="149.953" fill="#FFFFFF" width="6" height="6"/>
		<rect x="159.656" y="149.953" fill="#FFFFFF" width="6" height="6"/>
		<rect x="171.656" y="149.953" fill="#AD6D67" width="6" height="6"/>
		<rect x="177.656" y="149.953" fill="#DCB397" width="6" height="6"/>
		<rect x="165.656" y="155.941" fill="#C97D7A" width="6" height="6"/>
		<rect x="159.656" y="155.941" fill="#C97D7A" width="6" height="6"/>
		<rect x="171.656" y="155.941" fill="#DCB397" width="6" height="6"/>
		<rect x="177.656" y="155.941" fill="#B99881" width="6" height="6"/>
		<rect x="165.656" y="161.941" fill="#B99881" width="6" height="6"/>
		<rect x="159.656" y="161.941" fill="#B99881" width="6" height="6"/>
		<rect x="171.656" y="161.941" fill="#B99881" width="6" height="6"/>
		<rect x="165.656" y="167.941" fill="#AA8C76" width="6" height="6"/>
		<rect x="171.656" y="167.941" fill="#DCB397" width="6" height="6"/>
		<rect x="177.656" y="167.941" fill="#DCB397" width="6" height="6"/>
		<rect x="177.656" y="161.941" fill="#B99881" width="6" height="6"/>
		<rect x="189.656" y="143.965" fill="#DCB397" width="6" height="6"/>
		<rect x="183.656" y="137.977" fill="#B99881" width="6" height="6"/>
		<rect x="189.656" y="137.977" fill="#DCB397" width="6" height="6"/>
		<rect x="183.656" y="155.941" fill="#B99881" width="6" height="6"/>
		<rect x="183.656" y="161.941" fill="#DCB397" width="6" height="6"/>
		<rect x="183.656" y="149.953" fill="#B99881" width="6" height="6"/>
		<rect x="183.656" y="131.965" fill="#B99881" width="6" height="6"/>
		<rect x="189.656" y="131.965" fill="#C09385" width="6" height="6"/>
		<rect x="183.656" y="120.004" fill="#414042" width="6" height="6"/>
		<rect x="189.656" y="120.004" fill="#231F20" width="6" height="6"/>
		<rect x="195.656" y="137.938" fill="#DCB397" width="6" height="6"/>
		<rect x="195.656" y="131.949" fill="#EAC4B2" width="6" height="6"/>
		<rect x="159.656" y="114.027" fill="#EAC4B2" width="6" height="6"/>
		<rect x="165.656" y="114.027" fill="#DCB397" width="6" height="6"/>
		<rect x="171.656" y="114.027" fill="#DCB397" width="6" height="6"/>
		<rect x="177.656" y="114.027" fill="#414042" width="6" height="6"/>
		<rect x="159.656" y="120.004" fill="#414042" width="6" height="6"/>
		<rect x="165.656" y="120.004" fill="#EAC4B2" width="6" height="6"/>
		<rect x="171.656" y="120.004" fill="#DCB397" width="6" height="6"/>
		<rect x="177.656" y="120.004" fill="#231F20" width="6" height="6"/>
		<rect x="147.656" y="125.977" fill="#231F20" width="6" height="6"/>
		<rect x="153.656" y="125.977" fill="#231F20" width="6" height="6"/>
		<rect x="183.656" y="125.977" fill="#231F20" width="6" height="6"/>
		<rect x="189.656" y="125.977" fill="#EAC4B2" width="6" height="6"/>
		<rect x="159.656" y="125.977" fill="#231F20" width="6" height="6"/>
		<rect x="165.656" y="125.977" fill="#231F20" width="6" height="6"/>
		<rect x="171.656" y="125.977" fill="#231F20" width="6" height="6"/>
		<rect x="177.656" y="125.977" fill="#231F20" width="6" height="6"/>
		<rect x="159.656" y="131.965" fill="#FFFFFF" width="6" height="6"/>
		<rect x="165.656" y="131.965" fill="#231F20" width="6" height="6"/>
		<rect x="171.656" y="131.965" fill="#DCB397" width="6" height="6"/>
		<rect x="177.656" y="131.965" fill="#DCB397" width="6" height="6"/>
		<rect x="159.656" y="137.965" fill="#231F20" width="6" height="6"/>
		<rect x="165.656" y="137.965" fill="#C09385" width="6" height="6"/>
		<rect x="171.656" y="137.965" fill="#DCB397" width="6" height="6"/>
		<rect x="177.656" y="137.965" fill="#DCB397" width="6" height="6"/>
		<rect x="183.656" y="102.027" fill="#231F20" width="6" height="6"/>
		<rect x="189.656" y="102.027" fill="#231F20" width="6" height="6"/>
		<rect x="147.656" y="96.039" fill="#414042" width="6" height="6"/>
		<rect x="153.656" y="96.039" fill="#231F20" width="6" height="6"/>
		<rect x="159.656" y="96.039" fill="#231F20" width="6" height="6"/>
		<rect x="165.656" y="96.039" fill="#414042" width="6" height="6"/>
		<rect x="171.656" y="96.039" fill="#231F20" width="6" height="6"/>
		<rect x="177.656" y="96.039" fill="#231F20" width="6" height="6"/>
		<rect x="183.656" y="96.039" fill="#231F20" width="6" height="6"/>
		<rect x="177.656" y="90.039" fill="#231F20" width="6" height="6"/>
		<rect x="183.656" y="90.039" fill="#414042" width="6" height="6"/>
		<rect x="189.656" y="96.039" fill="#231F20" width="6" height="6"/>
		<rect x="195.656" y="102.027" fill="#231F20" width="6" height="6"/>
		<rect x="183.656" y="108.027" fill="#231F20" width="6" height="6"/>
		<rect x="189.656" y="108.027" fill="#414042" width="6" height="6"/>
		<rect x="183.656" y="114.027" fill="#231F20" width="6" height="6"/>
		<rect x="189.656" y="114.027" fill="#231F20" width="6" height="6"/>
		<rect x="195.656" y="125.977" fill="#EAC4B2" width="6" height="6"/>
		<rect x="195.656" y="108.027" fill="#231F20" width="6" height="6"/>
		<rect x="195.656" y="114.027" fill="#231F20" width="6" height="6"/>
		<rect x="195.656" y="120.004" fill="#231F20" width="6" height="6"/>
		<rect x="165.656" y="173.961" fill="#DCB397" width="6" height="6"/>
		<rect x="171.625" y="173.93" fill="#B99881" width="6" height="6"/>
		<rect x="165.656" y="179.961" fill="#DCB397" width="6" height="6"/>
		<rect x="171.656" y="179.961" fill="#DCB397" width="6" height="6"/>
		<rect x="177.656" y="173.961" fill="#DCB397" width="6" height="6"/>
		<rect x="183.656" y="179.961" fill="#8AA7BC" width="6" height="6"/>
		<rect x="177.656" y="179.961" fill="#DCB397" width="6" height="6"/>
		<rect x="159.656" y="179.961" fill="#8AA7BC" width="6" height="6"/>
		<rect x="183.656" y="173.961" fill="#8AA7BC" width="6" height="6"/>
		<rect x="189.656" y="173.961" fill="#8AA7BC" width="6" height="6"/>
		<rect x="159.656" y="173.961" fill="#8AA7BC" width="6" height="6"/>
		<rect x="153.656" y="173.961" fill="#8AA7BC" width="6" height="6"/>
		<rect x="153.656" y="179.961" fill="#14354C" width="6" height="6"/>
		<rect x="189.656" y="179.961" fill="#14354C" width="6" height="6"/>
		<rect x="195.656" y="179.961" fill="#334D6B" width="6" height="6"/>
		<rect x="165.656" y="191.961" fill="#8AA7BC" width="6" height="6"/>
		<rect x="171.656" y="191.961" fill="#8AA7BC" width="6" height="6"/>
		<rect x="183.656" y="191.961" fill="#8AA7BC" width="6" height="6"/>
		<rect x="177.656" y="191.961" fill="#8AA7BC" width="6" height="6"/>
		<rect x="159.656" y="191.961" fill="#8AA7BC" width="6" height="6"/>
		<rect x="153.656" y="191.961" fill="#14354C" width="6" height="6"/>
		<rect x="147.656" y="191.961" fill="#14354C" width="6" height="6"/>
		<rect x="189.656" y="191.961" fill="#14354C" width="6" height="6"/>
		<rect x="195.656" y="191.961" fill="#14354C" width="6" height="6"/>
		<rect x="201.656" y="191.961" fill="#14354C" width="6" height="6"/>
		<rect x="165.656" y="203.961" fill="#8AA7BC" width="6" height="6"/>
		<rect x="171.656" y="203.961" fill="#8AA7BC" width="6" height="6"/>
		<rect x="183.656" y="203.961" fill="#14354C" width="6" height="6"/>
		<rect x="177.656" y="203.961" fill="#8AA7BC" width="6" height="6"/>
		<rect x="159.656" y="203.961" fill="#14354C" width="6" height="6"/>
		<rect x="153.656" y="203.961" fill="#001B30" width="6" height="6"/>
		<rect x="147.656" y="203.961" fill="#14354C" width="6" height="6"/>
		<rect x="189.656" y="203.961" fill="#14354C" width="6" height="6"/>
		<rect x="195.656" y="203.961" fill="#001B30" width="6" height="6"/>
		<rect x="201.656" y="203.961" fill="#14354C" width="6" height="6"/>
		<rect x="165.656" y="185.961" fill="#8AA7BC" width="6" height="6"/>
		<rect x="171.656" y="185.961" fill="#DCB397" width="6" height="6"/>
		<rect x="183.656" y="185.961" fill="#8AA7BC" width="6" height="6"/>
		<rect x="177.656" y="185.961" fill="#8AA7BC" width="6" height="6"/>
		<rect x="159.656" y="185.961" fill="#8AA7BC" width="6" height="6"/>
		<rect x="153.656" y="185.961" fill="#14354C" width="6" height="6"/>
		<rect x="147.656" y="185.961" fill="#334D6B" width="6" height="6"/>
		<rect x="189.656" y="185.961" fill="#14354C" width="6" height="6"/>
		<rect x="195.656" y="185.961" fill="#14354C" width="6" height="6"/>
		<rect x="201.656" y="185.961" fill="#334D6B" width="6" height="6"/>
		<rect x="165.656" y="197.961" fill="#8AA7BC" width="6" height="6"/>
		<rect x="171.656" y="197.961" fill="#E4E3D6" width="6" height="6"/>
		<rect x="183.656" y="197.961" fill="#14354C" width="6" height="6"/>
		<rect x="177.656" y="197.961" fill="#8AA7BC" width="6" height="6"/>
		<rect x="159.656" y="197.961" fill="#14354C" width="6" height="6"/>
		<rect x="153.656" y="197.961" fill="#14354C" width="6" height="6"/>
		<rect x="147.656" y="197.961" fill="#14354C" width="6" height="6"/>
		<rect x="141.656" y="191.961" fill="#334D6B" width="6" height="6"/>
		<rect x="141.656" y="203.961" fill="#14354C" width="6" height="6"/>
		<rect x="141.656" y="197.961" fill="#14354C" width="6" height="6"/>
		<rect x="189.656" y="197.961" fill="#14354C" width="6" height="6"/>
		<rect x="195.656" y="197.961" fill="#14354C" width="6" height="6"/>
		<rect x="201.656" y="197.961" fill="#14354C" width="6" height="6"/>
		<rect x="207.656" y="191.961" fill="#334D6B" width="6" height="6"/>
		<rect x="207.656" y="203.961" fill="#14354C" width="6" height="6"/>
		<rect x="207.656" y="197.961" fill="#14354C" width="6" height="6"/>
	</g>
</g>
</svg>
