<?xml version="1.0" encoding="utf-8"?>
<!-- Generator: Adobe Illustrator 16.0.0, SVG Export Plug-In . SVG Version: 6.00 Build 0)  -->
<!DOCTYPE svg PUBLIC "-//W3C//DTD SVG 1.1//EN" "http://www.w3.org/Graphics/SVG/1.1/DTD/svg11.dtd">
<svg version="1.1" id="Layer_1" xmlns="http://www.w3.org/2000/svg" xmlns:xlink="http://www.w3.org/1999/xlink" x="0px" y="0px"
	 width="300px" height="300px" viewBox="0 0 300 300" enable-background="new 0 0 300 300" xml:space="preserve">
<g>
	<rect x="116.25" y="93.821" fill="#A37C2D" width="7.5" height="7.5"/>
	<rect x="123.75" y="93.821" fill="#A37C2D" width="7.5" height="7.5"/>
	<rect x="131.25" y="93.821" fill="#A37C2D" width="7.5" height="7.5"/>
	<rect x="138.75" y="93.821" fill="#CA962B" width="7.5" height="7.5"/>
	<rect x="146.25" y="93.821" fill="#A37C2D" width="7.5" height="7.5"/>
	<rect x="153.75" y="93.821" fill="#CA962B" width="7.5" height="7.5"/>
	<rect x="116.25" y="101.321" fill="#EEE1BF" width="7.5" height="7.5"/>
	<rect x="108.75" y="93.821" fill="#CA962B" width="7.5" height="7.5"/>
	<rect x="123.75" y="101.321" fill="#EDD69F" width="7.5" height="7.5"/>
	<rect x="131.25" y="101.321" fill="#EDD69F" width="7.5" height="7.5"/>
	<rect x="138.75" y="101.321" fill="#EDD69F" width="7.5" height="7.5"/>
	<rect x="146.25" y="101.321" fill="#EDD69F" width="7.5" height="7.5"/>
	<rect x="153.75" y="101.321" fill="#CA962B" width="7.5" height="7.5"/>
	<rect x="116.25" y="108.821" fill="#EEE1BF" width="7.5" height="7.5"/>
	<rect x="123.75" y="108.821" fill="#EDD69F" width="7.5" height="7.5"/>
	<rect x="116.25" y="116.292" fill="#A37C2D" width="7.5" height="7.5"/>
	<rect x="123.75" y="116.292" fill="#A37C2D" width="7.5" height="7.5"/>
	<rect x="116.25" y="131.243" fill="#EDD69F" width="7.5" height="7.5"/>
	<rect x="123.75" y="131.243" fill="#4C2F1C" width="7.5" height="7.5"/>
	<rect x="116.25" y="138.757" fill="#EDD69F" width="7.5" height="7.5"/>
	<rect x="123.75" y="138.757" fill="#EDD69F" width="7.5" height="7.5"/>
	<rect x="116.25" y="146.243" fill="#A37C2D" width="7.5" height="7.5"/>
	<rect x="108.75" y="138.469" fill="#EDD69F" width="7.5" height="7.5"/>
	<rect x="101.25" y="138.469" fill="#EDD69F" width="7.5" height="7.5"/>
	<rect x="108.75" y="130.969" fill="#EDD69F" width="7.5" height="7.5"/>
	<rect x="123.75" y="146.243" fill="#A37C2D" width="7.5" height="7.5"/>
	<rect x="138.75" y="146.243" fill="#CA962B" width="7.5" height="7.5"/>
	<rect x="131.25" y="146.243" fill="#CA962B" width="7.5" height="7.5"/>
	<rect x="146.25" y="146.243" fill="#CA962B" width="7.5" height="7.5"/>
	<rect x="161.25" y="146.243" fill="#CA962B" width="7.5" height="7.5"/>
	<rect x="153.75" y="146.243" fill="#EDD69F" width="7.5" height="7.5"/>
	<rect x="138.75" y="153.728" fill="#FFFFFF" width="7.5" height="7.5"/>
	<rect x="131.25" y="153.728" fill="#FFFFFF" width="7.5" height="7.5"/>
	<rect x="146.25" y="153.728" fill="#FFFFFF" width="7.5" height="7.5"/>
	<rect x="153.75" y="153.728" fill="#C7293B" width="7.5" height="7.5"/>
	<rect x="138.75" y="161.213" fill="#C62C3D" width="7.5" height="7.5"/>
	<rect x="131.25" y="161.213" fill="#C62C3D" width="7.5" height="7.5"/>
	<rect x="146.25" y="161.213" fill="#C62C3D" width="7.5" height="7.5"/>
	<rect x="153.75" y="161.213" fill="#CA962B" width="7.5" height="7.5"/>
	<rect x="138.75" y="168.713" fill="#A37C2D" width="7.5" height="7.5"/>
	<rect x="131.25" y="168.713" fill="#A37C2D" width="7.5" height="7.5"/>
	<rect x="146.25" y="168.713" fill="#CA962B" width="7.5" height="7.5"/>
	<rect x="138.75" y="176.213" fill="#EDD69F" width="7.5" height="7.5"/>
	<rect x="146.25" y="176.213" fill="#EDD69F" width="7.5" height="7.5"/>
	<rect x="138.75" y="183.713" fill="#F26D36" width="7.5" height="7.5"/>
	<rect x="146.25" y="183.713" fill="#F26D36" width="7.5" height="7.5"/>
	<rect x="153.75" y="176.213" fill="#EDD69F" width="7.5" height="7.5"/>
	<rect x="153.75" y="168.713" fill="#EDD69F" width="7.5" height="7.5"/>
	<rect x="161.25" y="168.713" fill="#EDD69F" width="7.5" height="7.5"/>
	<rect x="161.25" y="176.213" fill="#F3F4F5" width="7.5" height="7.5"/>
	<rect x="168.75" y="176.213" fill="#9CB6C8" width="7.5" height="7.5"/>
	<rect x="176.25" y="176.213" fill="#E9E9EB" width="7.5" height="7.5"/>
	<rect x="161.25" y="183.713" fill="#9CB6C8" width="7.5" height="7.5"/>
	<rect x="153.75" y="183.713" fill="#F26D36" width="7.5" height="7.5"/>
	<rect x="131.25" y="183.713" fill="#9CB6C8" width="7.5" height="7.5"/>
	<rect x="131.25" y="176.213" fill="#F3F4F5" width="7.5" height="7.5"/>
	<rect x="123.75" y="176.213" fill="#9CB6C8" width="7.5" height="7.5"/>
	<rect x="116.25" y="176.213" fill="#F3F4F5" width="7.5" height="7.5"/>
	<rect x="123.75" y="183.713" fill="#F3F4F5" width="7.5" height="7.5"/>
	<rect x="168.75" y="183.713" fill="#C2A966" width="7.5" height="7.5"/>
	<rect x="176.25" y="183.713" fill="#955323" width="7.5" height="7.5"/>
	<rect x="183.75" y="183.713" fill="#955323" width="7.5" height="7.5"/>
	<rect x="191.25" y="183.713" fill="#955323" width="7.5" height="7.5"/>
	<rect x="138.75" y="198.713" fill="#9CB6C8" width="7.5" height="7.5"/>
	<rect x="146.25" y="198.713" fill="#F26D36" width="7.5" height="7.5"/>
	<rect x="161.25" y="198.713" fill="#9CB6C8" width="7.5" height="7.5"/>
	<rect x="153.75" y="198.713" fill="#9CB6C8" width="7.5" height="7.5"/>
	<rect x="131.25" y="198.713" fill="#9CB6C8" width="7.5" height="7.5"/>
	<rect x="123.75" y="198.713" fill="#955323" width="7.5" height="7.5"/>
	<rect x="116.25" y="198.713" fill="#C2A966" width="7.5" height="7.5"/>
	<rect x="168.75" y="198.713" fill="#C2A966" width="7.5" height="7.5"/>
	<rect x="176.25" y="198.713" fill="#C2A966" width="7.5" height="7.5"/>
	<rect x="183.75" y="198.713" fill="#C2A966" width="7.5" height="7.5"/>
	<rect x="191.25" y="198.713" fill="#C2A966" width="7.5" height="7.5"/>
	<rect x="138.75" y="213.713" fill="#C2A966" width="7.5" height="7.5"/>
	<rect x="146.25" y="213.713" fill="#C2A966" width="7.5" height="7.5"/>
	<rect x="161.25" y="213.713" fill="#C2A966" width="7.5" height="7.5"/>
	<rect x="153.75" y="213.713" fill="#C2A966" width="7.5" height="7.5"/>
	<rect x="131.25" y="213.713" fill="#C2A966" width="7.5" height="7.5"/>
	<rect x="123.75" y="213.713" fill="#84796C" width="7.5" height="7.5"/>
	<rect x="116.25" y="213.713" fill="#C2A966" width="7.5" height="7.5"/>
	<rect x="168.75" y="213.713" fill="#C2A966" width="7.5" height="7.5"/>
	<rect x="176.25" y="213.713" fill="#84796C" width="7.5" height="7.5"/>
	<rect x="183.75" y="213.713" fill="#C2A966" width="7.5" height="7.5"/>
	<rect x="191.25" y="213.713" fill="#C2A966" width="7.5" height="7.5"/>
	<rect x="138.75" y="191.213" fill="#F3F4F5" width="7.5" height="7.5"/>
	<rect x="146.25" y="191.213" fill="#F26D36" width="7.5" height="7.5"/>
	<rect x="161.25" y="191.213" fill="#F3F4F5" width="7.5" height="7.5"/>
	<rect x="153.75" y="191.213" fill="#F3F4F5" width="7.5" height="7.5"/>
	<rect x="131.25" y="191.213" fill="#F3F4F5" width="7.5" height="7.5"/>
	<rect x="123.75" y="191.213" fill="#955323" width="7.5" height="7.5"/>
	<rect x="116.25" y="191.213" fill="#955323" width="7.5" height="7.5"/>
	<rect x="168.75" y="191.213" fill="#C2A966" width="7.5" height="7.5"/>
	<rect x="176.25" y="191.213" fill="#C2A966" width="7.5" height="7.5"/>
	<rect x="183.75" y="191.213" fill="#955323" width="7.5" height="7.5"/>
	<rect x="191.25" y="191.213" fill="#C2A966" width="7.5" height="7.5"/>
	<rect x="138.75" y="206.213" fill="#F3F4F5" width="7.5" height="7.5"/>
	<rect x="146.25" y="206.213" fill="#F26D36" width="7.5" height="7.5"/>
	<rect x="161.25" y="206.213" fill="#C2A966" width="7.5" height="7.5"/>
	<rect x="153.75" y="206.213" fill="#F3F4F5" width="7.5" height="7.5"/>
	<rect x="131.25" y="206.213" fill="#C2A966" width="7.5" height="7.5"/>
	<rect x="123.75" y="206.213" fill="#C2A966" width="7.5" height="7.5"/>
	<rect x="116.25" y="206.213" fill="#C2A966" width="7.5" height="7.5"/>
	<rect x="168.75" y="206.213" fill="#C2A966" width="7.5" height="7.5"/>
	<rect x="176.25" y="206.213" fill="#84796C" width="7.5" height="7.5"/>
	<rect x="183.75" y="206.213" fill="#C2A966" width="7.5" height="7.5"/>
	<rect x="191.25" y="206.213" fill="#C2A966" width="7.5" height="7.5"/>
	<rect x="168.75" y="146.243" fill="#EDD69F" width="7.5" height="7.5"/>
	<rect x="161.25" y="138.757" fill="#CA962B" width="7.5" height="7.5"/>
	<rect x="168.75" y="138.757" fill="#EDD69F" width="7.5" height="7.5"/>
	<rect x="161.25" y="161.213" fill="#EDD69F" width="7.5" height="7.5"/>
	<rect x="161.25" y="153.728" fill="#CA962B" width="7.5" height="7.5"/>
	<rect x="168.75" y="153.728" fill="#EDD69F" width="7.5" height="7.5"/>
	<rect x="161.25" y="131.243" fill="#A37C2D" width="7.5" height="7.5"/>
	<rect x="168.75" y="131.243" fill="#EDD69F" width="7.5" height="7.5"/>
	<rect x="161.25" y="116.292" fill="#A37C2D" width="7.5" height="7.5"/>
	<rect x="168.75" y="116.292" fill="#CA962B" width="7.5" height="7.5"/>
	<rect x="176.25" y="131.243" fill="#EDD69F" width="7.5" height="7.5"/>
	<rect x="176.25" y="123.757" fill="#EEE1BF" width="7.5" height="7.5"/>
	<rect x="131.25" y="108.821" fill="#EDD69F" width="7.5" height="7.5"/>
	<rect x="138.75" y="108.821" fill="#EDD69F" width="7.5" height="7.5"/>
	<rect x="146.25" y="108.821" fill="#EDD69F" width="7.5" height="7.5"/>
	<rect x="153.75" y="108.821" fill="#A37C2D" width="7.5" height="7.5"/>
	<rect x="131.25" y="116.292" fill="#EDD69F" width="7.5" height="7.5"/>
	<rect x="138.75" y="116.292" fill="#EDD69F" width="7.5" height="7.5"/>
	<rect x="146.25" y="116.292" fill="#EDD69F" width="7.5" height="7.5"/>
	<rect x="153.75" y="116.292" fill="#A37C2D" width="7.5" height="7.5"/>
	<rect x="116.25" y="123.757" fill="#EDD69F" width="7.5" height="7.5"/>
	<rect x="123.75" y="123.757" fill="#EDD69F" width="7.5" height="7.5"/>
	<rect x="161.25" y="123.757" fill="#A37C2D" width="7.5" height="7.5"/>
	<rect x="168.75" y="123.757" fill="#EEE1BF" width="7.5" height="7.5"/>
	<rect x="131.25" y="123.757" fill="#EDD69F" width="7.5" height="7.5"/>
	<rect x="138.75" y="123.757" fill="#EDD69F" width="7.5" height="7.5"/>
	<rect x="146.25" y="123.757" fill="#EDD69F" width="7.5" height="7.5"/>
	<rect x="153.75" y="123.757" fill="#EDD69F" width="7.5" height="7.5"/>
	<rect x="131.25" y="131.243" fill="#FFFFFF" width="7.5" height="7.5"/>
	<rect x="138.75" y="131.243" fill="#EDD69F" width="7.5" height="7.5"/>
	<rect x="146.25" y="131.243" fill="#EEE1BF" width="7.5" height="7.5"/>
	<rect x="153.75" y="131.243" fill="#EBC297" width="7.5" height="7.5"/>
	<rect x="131.25" y="138.743" fill="#EDD69F" width="7.5" height="7.5"/>
	<rect x="138.75" y="138.743" fill="#EEE1BF" width="7.5" height="7.5"/>
	<rect x="146.25" y="138.743" fill="#EBC297" width="7.5" height="7.5"/>
	<rect x="153.75" y="138.743" fill="#EBC297" width="7.5" height="7.5"/>
	<rect x="161.25" y="93.821" fill="#A37C2D" width="7.5" height="7.5"/>
	<rect x="168.75" y="93.821" fill="#CA962B" width="7.5" height="7.5"/>
	<rect x="176.25" y="93.821" fill="#F8BB51" width="7.5" height="7.5"/>
	<rect x="168.75" y="86.287" fill="#CA962B" width="7.5" height="7.5"/>
	<rect x="116.25" y="86.335" fill="#CA962B" width="7.5" height="7.5"/>
	<rect x="123.75" y="86.335" fill="#CA962B" width="7.5" height="7.5"/>
	<rect x="131.25" y="86.335" fill="#CA962B" width="7.5" height="7.5"/>
	<rect x="131.25" y="78.835" fill="#F8BB51" width="7.5" height="7.5"/>
	<rect x="138.75" y="86.335" fill="#CA962B" width="7.5" height="7.5"/>
	<rect x="138.75" y="78.835" fill="#CA962B" width="7.5" height="7.5"/>
	<rect x="146.25" y="86.335" fill="#CA962B" width="7.5" height="7.5"/>
	<rect x="146.25" y="78.787" fill="#CA962B" width="7.5" height="7.5"/>
	<rect x="153.75" y="86.335" fill="#A37C2D" width="7.5" height="7.5"/>
	<rect x="161.25" y="86.335" fill="#CA962B" width="7.5" height="7.5"/>
	<rect x="161.25" y="78.835" fill="#F8BB51" width="7.5" height="7.5"/>
	<rect x="161.25" y="101.321" fill="#A37C2D" width="7.5" height="7.5"/>
	<rect x="168.75" y="101.321" fill="#CA962B" width="7.5" height="7.5"/>
	<rect x="161.25" y="108.821" fill="#CA962B" width="7.5" height="7.5"/>
	<rect x="168.75" y="108.821" fill="#CA962B" width="7.5" height="7.5"/>
	<rect x="176.25" y="116.292" fill="#A37C2D" width="7.5" height="7.5"/>
	<rect x="176.25" y="108.821" fill="#CA962B" width="7.5" height="7.5"/>
</g>
</svg>
