<?xml version="1.0" encoding="utf-8"?>
<!-- Generator: Adobe Illustrator 16.0.0, SVG Export Plug-In . SVG Version: 6.00 Build 0)  -->
<!DOCTYPE svg PUBLIC "-//W3C//DTD SVG 1.1//EN" "http://www.w3.org/Graphics/SVG/1.1/DTD/svg11.dtd">
<svg version="1.1" id="Layer_1" xmlns="http://www.w3.org/2000/svg" xmlns:xlink="http://www.w3.org/1999/xlink" x="0px" y="0px"
	 width="300px" height="300px" viewBox="0 0 300 300" enable-background="new 0 0 300 300" xml:space="preserve">
<g>
	<rect x="132.006" y="170.996" fill="#EFD1B8" width="6" height="6"/>
	<rect x="138.006" y="170.996" fill="#D7BFAA" width="6" height="6"/>
	<rect x="144.006" y="170.996" fill="#EFD1B8" width="6" height="6"/>
	<rect x="150.002" y="170.996" fill="#EFD1B8" width="6" height="6"/>
	<rect x="126.002" y="93.023" fill="#3C2415" width="6" height="6"/>
	<rect x="132.002" y="93.023" fill="#43251B" width="6" height="6"/>
	<rect x="138.002" y="93.023" fill="#3C2415" width="6" height="6"/>
	<rect x="120.002" y="105.008" fill="#43251B" width="6" height="6"/>
	<rect x="126.002" y="105.008" fill="#594A42" width="6" height="6"/>
	<rect x="132.002" y="105.008" fill="#EFD1B8" width="6" height="6"/>
	<rect x="138.002" y="105.008" fill="#EFCFC0" width="6" height="6"/>
	<rect x="144.002" y="105.008" fill="#5F3529" width="6" height="6"/>
	<rect x="114.002" y="111.008" fill="#43251B" width="6" height="6"/>
	<rect x="120.002" y="111.008" fill="#E3C9B6" width="6" height="6"/>
	<rect x="126.002" y="111.008" fill="#E3C9B6" width="6" height="6"/>
	<rect x="132.002" y="111.008" fill="#EFD1B8" width="6" height="6"/>
	<rect x="138.002" y="111.008" fill="#EFD1B8" width="6" height="6"/>
	<rect x="144.002" y="111.008" fill="#3C2415" width="6" height="6"/>
	<rect x="114.002" y="117.008" fill="#EFD1B8" width="6" height="6"/>
	<rect x="120.002" y="117.008" fill="#EFD1B8" width="6" height="6"/>
	<rect x="114.002" y="122.984" fill="#EFD1B8" width="6" height="6"/>
	<rect x="120.002" y="122.984" fill="#231F20" width="6" height="6"/>
	<rect x="114.002" y="134.938" fill="#EFD1B8" width="6" height="6"/>
	<rect x="120.002" y="134.945" fill="#7F95A5" width="6" height="6"/>
	<rect x="114.002" y="140.961" fill="#EFD1B8" width="6" height="6"/>
	<rect x="120.002" y="140.945" fill="#EFD1B8" width="6" height="6"/>
	<rect x="114.002" y="146.945" fill="#EFD1B8" width="6" height="6"/>
	<rect x="108.002" y="140.945" fill="#EFD1B8" width="6" height="6"/>
	<rect x="120.002" y="146.945" fill="#EFD1B8" width="6" height="6"/>
	<rect x="132.002" y="146.945" fill="#EFD1B8" width="6" height="6"/>
	<rect x="126.002" y="146.945" fill="#EFD1B8" width="6" height="6"/>
	<rect x="138.002" y="146.945" fill="#EFCFC0" width="6" height="6"/>
	<rect x="156.002" y="146.945" fill="#EFD1B8" width="6" height="6"/>
	<rect x="144.002" y="146.945" fill="#EFD1B8" width="6" height="6"/>
	<rect x="132.002" y="152.938" fill="#FFFFFF" width="6" height="6"/>
	<rect x="126.002" y="152.938" fill="#FFFFFF" width="6" height="6"/>
	<rect x="138.002" y="152.938" fill="#D28F8C" width="6" height="6"/>
	<rect x="144.002" y="152.938" fill="#EFD1B8" width="6" height="6"/>
	<rect x="132.002" y="158.922" fill="#D28F8C" width="6" height="6"/>
	<rect x="126.002" y="158.922" fill="#D28F8C" width="6" height="6"/>
	<rect x="138.002" y="158.922" fill="#EFD1B8" width="6" height="6"/>
	<rect x="144.002" y="158.922" fill="#EFD1B8" width="6" height="6"/>
	<rect x="132.002" y="164.922" fill="#EFD1B8" width="6" height="6"/>
	<rect x="126.002" y="164.922" fill="#EFD1B8" width="6" height="6"/>
	<rect x="138.002" y="164.922" fill="#EFD1B8" width="6" height="6"/>
	<rect x="144.002" y="164.922" fill="#D7BFAA" width="6" height="6"/>
	<rect x="150.002" y="164.922" fill="#EFD1B8" width="6" height="6"/>
	<rect x="162.002" y="146.945" fill="#E3C9B6" width="6" height="6"/>
	<rect x="156.002" y="140.961" fill="#594A42" width="6" height="6"/>
	<rect x="156.002" y="158.922" fill="#EFD1B8" width="6" height="6"/>
	<rect x="156.002" y="152.938" fill="#EFD1B8" width="6" height="6"/>
	<rect x="156.006" y="164.922" fill="#EFD1B8" width="6" height="6"/>
	<rect x="156.002" y="134.945" fill="#43251B" width="6" height="6"/>
	<rect x="162.002" y="140.93" fill="#EFD1B8" width="6" height="6"/>
	<rect x="168.006" y="140.93" fill="#EFD1B8" width="6" height="6"/>
	<rect x="156.002" y="122.984" fill="#43251B" width="6" height="6"/>
	<rect x="162.002" y="128.969" fill="#F3D9D0" width="6" height="6"/>
	<rect x="126.002" y="117.008" fill="#EFD1B8" width="6" height="6"/>
	<rect x="132.002" y="117.008" fill="#E3C9B6" width="6" height="6"/>
	<rect x="138.002" y="117.008" fill="#43251B" width="6" height="6"/>
	<rect x="144.002" y="117.008" fill="#43251B" width="6" height="6"/>
	<rect x="126.002" y="122.984" fill="#414042" width="6" height="6"/>
	<rect x="132.002" y="122.984" fill="#EFD1B8" width="6" height="6"/>
	<rect x="138.002" y="122.984" fill="#EFD1B8" width="6" height="6"/>
	<rect x="144.002" y="122.984" fill="#43251B" width="6" height="6"/>
	<rect x="114.002" y="128.945" fill="#EFD1B8" width="6" height="6"/>
	<rect x="120.002" y="128.945" fill="#EFD1B8" width="6" height="6"/>
	<rect x="156.002" y="128.945" fill="#3C2415" width="6" height="6"/>
	<rect x="162.002" y="134.938" fill="#C2B59B" width="6" height="6"/>
	<rect x="168.006" y="128.969" fill="#EFD1B8" width="6" height="6"/>
	<rect x="168.006" y="134.938" fill="#EFD1B8" width="6" height="6"/>
	<rect x="126.002" y="128.945" fill="#EFD1B8" width="6" height="6"/>
	<rect x="132.002" y="128.945" fill="#EFD1B8" width="6" height="6"/>
	<rect x="138.002" y="128.945" fill="#EFD1B8" width="6" height="6"/>
	<rect x="144.002" y="128.945" fill="#EFD1B8" width="6" height="6"/>
	<rect x="126.002" y="134.945" fill="#FFFFFF" width="6" height="6"/>
	<rect x="132.002" y="134.945" fill="#EFD1B8" width="6" height="6"/>
	<rect x="138.002" y="134.945" fill="#EFD1B8" width="6" height="6"/>
	<rect x="144.002" y="134.945" fill="#EFD1B8" width="6" height="6"/>
	<rect x="126.002" y="140.945" fill="#EFD1B8" width="6" height="6"/>
	<rect x="132.002" y="140.945" fill="#EFCFC0" width="6" height="6"/>
	<rect x="138.002" y="140.945" fill="#EFD1B8" width="6" height="6"/>
	<rect x="144.002" y="140.945" fill="#EFD1B8" width="6" height="6"/>
	<rect x="156.002" y="105.008" fill="#3C2415" width="6" height="6"/>
	<rect x="162.002" y="105.008" fill="#3C2415" width="6" height="6"/>
	<rect x="120.002" y="99.023" fill="#3C2415" width="6" height="6"/>
	<rect x="114.002" y="105.102" fill="#3C2415" width="6" height="6"/>
	<rect x="126.002" y="99.023" fill="#43251B" width="6" height="6"/>
	<rect x="132.002" y="99.023" fill="#3C2415" width="6" height="6"/>
	<rect x="138.002" y="99.023" fill="#43251B" width="6" height="6"/>
	<rect x="144.002" y="99.023" fill="#231F20" width="6" height="6"/>
	<rect x="156.002" y="99.023" fill="#3C2415" width="6" height="6"/>
	<rect x="144.002" y="93.023" fill="#43251B" width="6" height="6"/>
	<rect x="156.002" y="111.008" fill="#3C2415" width="6" height="6"/>
	<rect x="162.002" y="111.008" fill="#43251B" width="6" height="6"/>
	<rect x="156.002" y="117.008" fill="#3C2415" width="6" height="6"/>
	<rect x="150.006" y="146.945" fill="#594A42" width="6" height="6"/>
	<rect x="150.006" y="140.961" fill="#43251B" width="6" height="6"/>
	<rect x="150.006" y="158.922" fill="#EFD1B8" width="6" height="6"/>
	<rect x="150.006" y="152.938" fill="#9B8579" width="6" height="6"/>
	<rect x="150.006" y="134.945" fill="#594A42" width="6" height="6"/>
	<rect x="150.006" y="122.984" fill="#3C2415" width="6" height="6"/>
	<rect x="150.006" y="128.945" fill="#3C2415" width="6" height="6"/>
	<rect x="150.006" y="105.008" fill="#3C2415" width="6" height="6"/>
	<rect x="150.006" y="99.023" fill="#5F3529" width="6" height="6"/>
	<rect x="150.006" y="93.023" fill="#231F20" width="6" height="6"/>
	<rect x="162.006" y="99.023" fill="#3C2415" width="6" height="6"/>
	<rect x="150.006" y="111.008" fill="#3C2415" width="6" height="6"/>
	<rect x="150.006" y="117.008" fill="#43251B" width="6" height="6"/>
	<rect x="162.002" y="117.008" fill="#3C2415" width="6" height="6"/>
	<rect x="168.006" y="105.008" fill="#3C2415" width="6" height="6"/>
	<rect x="168.006" y="111.008" fill="#3C2415" width="6" height="6"/>
	<rect x="168.006" y="117.008" fill="#323133" width="6" height="6"/>
	<rect x="162.002" y="122.984" fill="#3C2415" width="6" height="6"/>
	<rect x="168.006" y="122.984" fill="#3C2415" width="6" height="6"/>
	<rect x="156.006" y="170.996" fill="#EFD1B8" width="6" height="6"/>
	<rect x="161.998" y="152.906" fill="#EFD1B8" width="6" height="6"/>
	<rect x="161.998" y="164.938" fill="#1B455E" width="6" height="6"/>
	<rect x="162.002" y="158.906" fill="#EFD1B8" width="6" height="6"/>
	<rect x="161.998" y="170.977" fill="#1B455E" width="6" height="6"/>
	<rect x="167.998" y="170.977" fill="#42607E" width="6" height="6"/>
	<rect x="143.998" y="182.977" fill="#1B455E" width="6" height="6"/>
	<rect x="149.998" y="182.977" fill="#1B455E" width="6" height="6"/>
	<rect x="161.998" y="182.977" fill="#42607E" width="6" height="6"/>
	<rect x="155.998" y="182.977" fill="#1B455E" width="6" height="6"/>
	<rect x="126.002" y="182.977" fill="#42607E" width="6" height="6"/>
	<rect x="120.002" y="182.977" fill="#42607E" width="6" height="6"/>
	<rect x="114.002" y="182.977" fill="#42607E" width="6" height="6"/>
	<rect x="167.998" y="182.977" fill="#42607E" width="6" height="6"/>
	<rect x="173.998" y="182.977" fill="#42607E" width="6" height="6"/>
	<rect x="179.998" y="182.977" fill="#42607E" width="6" height="6"/>
	<rect x="185.998" y="182.977" fill="#42607E" width="6" height="6"/>
	<rect x="143.998" y="194.977" fill="#42607E" width="6" height="6"/>
	<rect x="149.998" y="194.977" fill="#AD6F29" width="6" height="6"/>
	<rect x="161.998" y="194.977" fill="#42607E" width="6" height="6"/>
	<rect x="155.998" y="194.977" fill="#42607E" width="6" height="6"/>
	<rect x="126.002" y="194.977" fill="#42607E" width="6" height="6"/>
	<rect x="120.002" y="194.977" fill="#42607E" width="6" height="6"/>
	<rect x="114.002" y="194.977" fill="#42607E" width="6" height="6"/>
	<rect x="167.998" y="194.977" fill="#42607E" width="6" height="6"/>
	<rect x="173.998" y="194.977" fill="#42607E" width="6" height="6"/>
	<rect x="179.998" y="194.977" fill="#42607E" width="6" height="6"/>
	<rect x="185.998" y="194.977" fill="#42607E" width="6" height="6"/>
	<rect x="143.998" y="176.977" fill="#EFD1B8" width="6" height="6"/>
	<rect x="149.998" y="176.977" fill="#EFD1B8" width="6" height="6"/>
	<rect x="132.002" y="176.977" fill="#1B455E" width="6" height="6"/>
	<rect x="138.002" y="176.977" fill="#EFD1B8" width="6" height="6"/>
	<rect x="161.998" y="176.977" fill="#1B455E" width="6" height="6"/>
	<rect x="155.998" y="176.977" fill="#1B455E" width="6" height="6"/>
	<rect x="126.002" y="176.977" fill="#1B455E" width="6" height="6"/>
	<rect x="120.002" y="176.977" fill="#42607E" width="6" height="6"/>
	<rect x="167.998" y="176.977" fill="#42607E" width="6" height="6"/>
	<rect x="173.998" y="176.977" fill="#42607E" width="6" height="6"/>
	<rect x="179.998" y="176.977" fill="#42607E" width="6" height="6"/>
	<rect x="143.998" y="188.977" fill="#42607E" width="6" height="6"/>
	<rect x="149.998" y="188.977" fill="#42607E" width="6" height="6"/>
	<rect x="132.006" y="182.977" fill="#1B455E" width="6" height="6"/>
	<rect x="138.006" y="182.977" fill="#1B455E" width="6" height="6"/>
	<rect x="132.006" y="194.977" fill="#AD6F29" width="6" height="6"/>
	<rect x="138.006" y="194.977" fill="#42607E" width="6" height="6"/>
	<rect x="132.006" y="188.977" fill="#42607E" width="6" height="6"/>
	<rect x="138.006" y="188.977" fill="#42607E" width="6" height="6"/>
	<rect x="161.998" y="188.977" fill="#42607E" width="6" height="6"/>
	<rect x="155.998" y="188.977" fill="#42607E" width="6" height="6"/>
	<rect x="126.002" y="188.977" fill="#42607E" width="6" height="6"/>
	<rect x="120.002" y="188.977" fill="#42607E" width="6" height="6"/>
	<rect x="114.002" y="188.977" fill="#42607E" width="6" height="6"/>
	<rect x="108.002" y="194.977" fill="#42607E" width="6" height="6"/>
	<rect x="143.998" y="200.977" fill="#42607E" width="6" height="6"/>
	<rect x="149.998" y="200.977" fill="#AD6F29" width="6" height="6"/>
	<rect x="161.998" y="200.977" fill="#42607E" width="6" height="6"/>
	<rect x="155.998" y="200.977" fill="#AD6F29" width="6" height="6"/>
	<rect x="126.002" y="200.977" fill="#AD6F29" width="6" height="6"/>
	<rect x="120.002" y="200.977" fill="#42607E" width="6" height="6"/>
	<rect x="114.002" y="200.977" fill="#1B455E" width="6" height="6"/>
	<rect x="167.998" y="200.977" fill="#42607E" width="6" height="6"/>
	<rect x="173.998" y="200.977" fill="#1B455E" width="6" height="6"/>
	<rect x="179.998" y="200.977" fill="#1B455E" width="6" height="6"/>
	<rect x="185.998" y="200.977" fill="#1B455E" width="6" height="6"/>
	<rect x="132.006" y="200.977" fill="#AD6F29" width="6" height="6"/>
	<rect x="138.006" y="200.977" fill="#AD6F29" width="6" height="6"/>
	<rect x="108.002" y="200.977" fill="#1B455E" width="6" height="6"/>
	<rect x="108.002" y="188.977" fill="#42607E" width="6" height="6"/>
	<rect x="167.998" y="188.977" fill="#42607E" width="6" height="6"/>
	<rect x="173.998" y="188.977" fill="#42607E" width="6" height="6"/>
	<rect x="179.998" y="188.977" fill="#42607E" width="6" height="6"/>
	<rect x="185.998" y="188.977" fill="#42607E" width="6" height="6"/>
</g>
</svg>
