<?xml version="1.0" encoding="utf-8"?>
<!-- Generator: Adobe Illustrator 16.0.0, SVG Export Plug-In . SVG Version: 6.00 Build 0)  -->
<!DOCTYPE svg PUBLIC "-//W3C//DTD SVG 1.1//EN" "http://www.w3.org/Graphics/SVG/1.1/DTD/svg11.dtd">
<svg version="1.1" id="Layer_1" xmlns="http://www.w3.org/2000/svg" xmlns:xlink="http://www.w3.org/1999/xlink" x="0px" y="0px"
	 width="300px" height="300px" viewBox="0 0 300 300" enable-background="new 0 0 300 300" xml:space="preserve">
<g>
	<rect x="172.502" y="176.191" fill="#6D6F72" width="7.5" height="7.5"/>
	<rect x="120.002" y="183.691" fill="#6D6F72" width="7.5" height="7.5"/>
	<rect x="165.002" y="183.691" fill="#FFFFFF" width="7.5" height="7.5"/>
	<rect x="172.502" y="183.691" fill="#6D6F72" width="7.5" height="7.5"/>
	<rect x="180.002" y="183.691" fill="#6D6F72" width="7.5" height="7.5"/>
	<rect x="135.002" y="198.691" fill="#C3D2E0" width="7.5" height="7.5"/>
	<rect x="142.502" y="198.691" fill="#4C7993" width="7.5" height="7.5"/>
	<rect x="157.502" y="198.691" fill="#FFFFFF" width="7.5" height="7.5"/>
	<rect x="150.002" y="198.691" fill="#C3D2E0" width="7.5" height="7.5"/>
	<rect x="127.502" y="198.691" fill="#FFFFFF" width="7.5" height="7.5"/>
	<rect x="127.502" y="206.191" fill="#FFFFFF" width="7.5" height="7.5"/>
	<rect x="120.002" y="198.691" fill="#6D6F72" width="7.5" height="7.5"/>
	<rect x="112.502" y="198.691" fill="#464749" width="7.5" height="7.5"/>
	<rect x="165.002" y="198.691" fill="#FFFFFF" width="7.5" height="7.5"/>
	<rect x="172.502" y="198.691" fill="#464749" width="7.5" height="7.5"/>
	<rect x="180.002" y="198.691" fill="#6D6F72" width="7.5" height="7.5"/>
	<rect x="187.502" y="198.691" fill="#6D6F72" width="7.5" height="7.5"/>
	<rect x="135.002" y="213.691" fill="#ECEEEE" width="7.5" height="7.5"/>
	<rect x="142.502" y="213.691" fill="#4C7993" width="7.5" height="7.5"/>
	<rect x="157.502" y="213.691" fill="#ECEEEE" width="7.5" height="7.5"/>
	<rect x="150.002" y="213.691" fill="#ECEEEE" width="7.5" height="7.5"/>
	<rect x="127.502" y="213.691" fill="#464749" width="7.5" height="7.5"/>
	<rect x="120.002" y="213.691" fill="#6D6F72" width="7.5" height="7.5"/>
	<rect x="112.502" y="213.691" fill="#6D6F72" width="7.5" height="7.5"/>
	<rect x="165.002" y="213.691" fill="#464749" width="7.5" height="7.5"/>
	<rect x="172.502" y="213.691" fill="#6D6F72" width="7.5" height="7.5"/>
	<rect x="180.002" y="213.691" fill="#464749" width="7.5" height="7.5"/>
	<rect x="187.502" y="213.691" fill="#6D6F72" width="7.5" height="7.5"/>
	<rect x="135.002" y="191.191" fill="#EFD1B8" width="7.5" height="7.5"/>
	<rect x="142.502" y="191.191" fill="#D7BFAA" width="7.5" height="7.5"/>
	<rect x="150.002" y="191.191" fill="#EFD1B8" width="7.5" height="7.5"/>
	<rect x="127.502" y="191.191" fill="#FFFFFF" width="7.5" height="7.5"/>
	<rect x="120.002" y="191.191" fill="#6D6F72" width="7.5" height="7.5"/>
	<rect x="112.502" y="191.191" fill="#6D6F72" width="7.5" height="7.5"/>
	<rect x="165.002" y="191.191" fill="#FFFFFF" width="7.5" height="7.5"/>
	<rect x="172.502" y="191.191" fill="#6D6F72" width="7.5" height="7.5"/>
	<rect x="180.002" y="191.191" fill="#464749" width="7.5" height="7.5"/>
	<rect x="187.502" y="191.191" fill="#6D6F72" width="7.5" height="7.5"/>
	<rect x="135.002" y="206.191" fill="#ECEEEE" width="7.5" height="7.5"/>
	<rect x="142.502" y="206.191" fill="#C3D2E0" width="7.5" height="7.5"/>
	<rect x="157.502" y="206.191" fill="#FFFFFF" width="7.5" height="7.5"/>
	<rect x="150.002" y="206.191" fill="#ECEEEE" width="7.5" height="7.5"/>
	<rect x="120.002" y="206.191" fill="#464749" width="7.5" height="7.5"/>
	<rect x="112.502" y="206.191" fill="#6D6F72" width="7.5" height="7.5"/>
	<rect x="105.002" y="198.691" fill="#6D6F72" width="7.5" height="7.5"/>
	<rect x="105.002" y="191.191" fill="#464749" width="7.5" height="7.5"/>
	<rect x="105.002" y="213.691" fill="#464749" width="7.5" height="7.5"/>
	<rect x="105.002" y="206.191" fill="#6D6F72" width="7.5" height="7.5"/>
	<rect x="97.502" y="198.691" fill="#6D6F72" width="7.5" height="7.5"/>
	<rect x="97.502" y="213.691" fill="#6D6F72" width="7.5" height="7.5"/>
	<rect x="97.502" y="206.191" fill="#6D6F72" width="7.5" height="7.5"/>
	<rect x="89.998" y="213.691" fill="#6D6F72" width="7.5" height="7.5"/>
	<rect x="89.998" y="206.191" fill="#6D6F72" width="7.5" height="7.5"/>
	<rect x="165.002" y="206.191" fill="#464749" width="7.5" height="7.5"/>
	<rect x="172.502" y="206.191" fill="#6D6F72" width="7.5" height="7.5"/>
	<rect x="180.002" y="206.191" fill="#6D6F72" width="7.5" height="7.5"/>
	<rect x="187.502" y="206.191" fill="#6D6F72" width="7.5" height="7.5"/>
	<rect x="195.002" y="198.691" fill="#6D6F72" width="7.5" height="7.5"/>
	<rect x="195.002" y="191.191" fill="#6D6F72" width="7.5" height="7.5"/>
	<rect x="195.002" y="213.691" fill="#6D6F72" width="7.5" height="7.5"/>
	<rect x="195.002" y="206.191" fill="#6D6F72" width="7.5" height="7.5"/>
	<rect x="202.502" y="198.691" fill="#6D6F72" width="7.5" height="7.5"/>
	<rect x="202.502" y="213.691" fill="#6D6F72" width="7.5" height="7.5"/>
	<rect x="202.502" y="206.191" fill="#6D6F72" width="7.5" height="7.5"/>
	<rect x="127.502" y="183.73" fill="#E3C9B6" width="7.5" height="7.5"/>
	<rect x="135.002" y="183.73" fill="#E3C9B6" width="7.5" height="7.5"/>
	<rect x="142.502" y="183.73" fill="#E3C9B6" width="7.5" height="7.5"/>
	<rect x="149.998" y="183.73" fill="#D7BFAA" width="7.5" height="7.5"/>
	<rect x="157.498" y="191.191" fill="#FFFFFF" width="7.5" height="7.5"/>
	<rect x="119.998" y="78.809" fill="#E3C9B6" width="7.5" height="7.5"/>
	<rect x="127.498" y="78.809" fill="#E3C9B6" width="7.5" height="7.5"/>
	<rect x="134.998" y="78.809" fill="#E3C9B6" width="7.5" height="7.5"/>
	<rect x="104.998" y="93.799" fill="#F3D9D0" width="7.5" height="7.5"/>
	<rect x="112.498" y="93.799" fill="#EFD1B8" width="7.5" height="7.5"/>
	<rect x="119.998" y="93.799" fill="#EFD1B8" width="7.5" height="7.5"/>
	<rect x="127.498" y="93.799" fill="#EFD1B8" width="7.5" height="7.5"/>
	<rect x="134.998" y="93.799" fill="#EFD1B8" width="7.5" height="7.5"/>
	<rect x="142.498" y="93.799" fill="#F3D9D0" width="7.5" height="7.5"/>
	<rect x="104.998" y="101.299" fill="#EFD1B8" width="7.5" height="7.5"/>
	<rect x="112.498" y="101.299" fill="#EFD1B8" width="7.5" height="7.5"/>
	<rect x="119.998" y="101.299" fill="#EFD1B8" width="7.5" height="7.5"/>
	<rect x="127.498" y="101.299" fill="#EFD1B8" width="7.5" height="7.5"/>
	<rect x="134.998" y="101.299" fill="#EFD1B8" width="7.5" height="7.5"/>
	<rect x="142.498" y="101.299" fill="#EFD1B8" width="7.5" height="7.5"/>
	<rect x="104.998" y="108.799" fill="#F3D9D0" width="7.5" height="7.5"/>
	<rect x="112.498" y="108.799" fill="#F3D9D0" width="7.5" height="7.5"/>
	<rect x="104.998" y="116.27" fill="#EEE3E0" width="7.5" height="7.5"/>
	<rect x="112.498" y="116.27" fill="#414042" width="7.5" height="7.5"/>
	<rect x="104.998" y="131.201" fill="#EFD1B8" width="7.5" height="7.5"/>
	<rect x="112.498" y="131.221" fill="#7F95A5" width="7.5" height="7.5"/>
	<rect x="104.998" y="138.73" fill="#EFD1B8" width="7.5" height="7.5"/>
	<rect x="112.498" y="138.721" fill="#EFD1B8" width="7.5" height="7.5"/>
	<rect x="104.998" y="146.221" fill="#D7BFAA" width="7.5" height="7.5"/>
	<rect x="97.498" y="138.721" fill="#EFD1B8" width="7.5" height="7.5"/>
	<rect x="89.998" y="138.721" fill="#F3D9D0" width="7.5" height="7.5"/>
	<rect x="97.498" y="131.221" fill="#F3D9D0" width="7.5" height="7.5"/>
	<rect x="112.498" y="146.221" fill="#D7BFAA" width="7.5" height="7.5"/>
	<rect x="127.498" y="146.221" fill="#D7BFAA" width="7.5" height="7.5"/>
	<rect x="119.998" y="146.221" fill="#D7BFAA" width="7.5" height="7.5"/>
	<rect x="134.998" y="146.221" fill="#E5B29B" width="7.5" height="7.5"/>
	<rect x="157.498" y="146.221" fill="#D7BFAA" width="7.5" height="7.5"/>
	<rect x="142.498" y="146.221" fill="#F3D9D0" width="7.5" height="7.5"/>
	<rect x="127.498" y="153.701" fill="#FFFFFF" width="7.5" height="7.5"/>
	<rect x="119.998" y="153.701" fill="#FFFFFF" width="7.5" height="7.5"/>
	<rect x="134.998" y="153.701" fill="#FFFFFF" width="7.5" height="7.5"/>
	<rect x="142.498" y="153.701" fill="#BB807B" width="7.5" height="7.5"/>
	<rect x="127.498" y="161.191" fill="#D28F8C" width="7.5" height="7.5"/>
	<rect x="119.998" y="161.191" fill="#D28F8C" width="7.5" height="7.5"/>
	<rect x="134.998" y="161.191" fill="#BB807B" width="7.5" height="7.5"/>
	<rect x="142.498" y="161.191" fill="#E3C9B6" width="7.5" height="7.5"/>
	<rect x="127.498" y="168.691" fill="#E3C9B6" width="7.5" height="7.5"/>
	<rect x="119.998" y="168.691" fill="#D7BFAA" width="7.5" height="7.5"/>
	<rect x="134.998" y="168.691" fill="#E3C9B6" width="7.5" height="7.5"/>
	<rect x="142.498" y="168.691" fill="#D7BFAA" width="7.5" height="7.5"/>
	<rect x="149.998" y="168.691" fill="#D7BFAA" width="7.5" height="7.5"/>
	<rect x="164.998" y="146.221" fill="#EFD1B8" width="7.5" height="7.5"/>
	<rect x="157.498" y="138.73" fill="#D7BFAA" width="7.5" height="7.5"/>
	<rect x="157.498" y="161.191" fill="#D7BFAA" width="7.5" height="7.5"/>
	<rect x="157.498" y="153.701" fill="#D7BFAA" width="7.5" height="7.5"/>
	<rect x="157.502" y="168.691" fill="#E3C9B6" width="7.5" height="7.5"/>
	<rect x="157.498" y="131.221" fill="#D7BFAA" width="7.5" height="7.5"/>
	<rect x="164.998" y="138.691" fill="#EFD1B8" width="7.5" height="7.5"/>
	<rect x="172.502" y="138.691" fill="#EFD1B8" width="7.5" height="7.5"/>
	<rect x="157.498" y="116.27" fill="#726658" width="7.5" height="7.5"/>
	<rect x="164.998" y="123.74" fill="#EFD1B8" width="7.5" height="7.5"/>
	<rect x="119.998" y="108.799" fill="#F3D9D0" width="7.5" height="7.5"/>
	<rect x="127.498" y="108.799" fill="#EFD1B8" width="7.5" height="7.5"/>
	<rect x="134.998" y="108.799" fill="#EFD1B8" width="7.5" height="7.5"/>
	<rect x="142.498" y="108.799" fill="#EFD1B8" width="7.5" height="7.5"/>
	<rect x="119.998" y="116.27" fill="#414042" width="7.5" height="7.5"/>
	<rect x="127.498" y="116.27" fill="#EFD1B8" width="7.5" height="7.5"/>
	<rect x="134.998" y="116.27" fill="#EFD1B8" width="7.5" height="7.5"/>
	<rect x="142.498" y="116.27" fill="#EFD1B8" width="7.5" height="7.5"/>
	<rect x="104.998" y="123.721" fill="#EFD1B8" width="7.5" height="7.5"/>
	<rect x="112.498" y="123.721" fill="#EFD1B8" width="7.5" height="7.5"/>
	<rect x="157.498" y="123.721" fill="#9B8579" width="7.5" height="7.5"/>
	<rect x="164.998" y="131.211" fill="#EFD1B8" width="7.5" height="7.5"/>
	<rect x="172.502" y="123.74" fill="#EFD1B8" width="7.5" height="7.5"/>
	<rect x="172.502" y="131.211" fill="#EFD1B8" width="7.5" height="7.5"/>
	<rect x="119.998" y="123.721" fill="#EFD1B8" width="7.5" height="7.5"/>
	<rect x="127.498" y="123.721" fill="#9B8579" width="7.5" height="7.5"/>
	<rect x="134.998" y="123.721" fill="#EFD1B8" width="7.5" height="7.5"/>
	<rect x="142.498" y="123.721" fill="#EFD1B8" width="7.5" height="7.5"/>
	<rect x="119.998" y="131.221" fill="#FFFFFF" width="7.5" height="7.5"/>
	<rect x="127.498" y="131.221" fill="#EFD1B8" width="7.5" height="7.5"/>
	<rect x="134.998" y="131.221" fill="#EFD1B8" width="7.5" height="7.5"/>
	<rect x="142.498" y="131.221" fill="#E3C9B6" width="7.5" height="7.5"/>
	<rect x="119.998" y="138.721" fill="#EFD1B8" width="7.5" height="7.5"/>
	<rect x="127.498" y="138.721" fill="#E5B29B" width="7.5" height="7.5"/>
	<rect x="134.998" y="138.721" fill="#F3D9D0" width="7.5" height="7.5"/>
	<rect x="142.498" y="138.721" fill="#EFD1B8" width="7.5" height="7.5"/>
	<rect x="157.498" y="93.799" fill="#9B8579" width="7.5" height="7.5"/>
	<rect x="164.998" y="93.799" fill="#726658" width="7.5" height="7.5"/>
	<rect x="112.498" y="86.309" fill="#E3C9B6" width="7.5" height="7.5"/>
	<rect x="119.998" y="86.309" fill="#F3D9D0" width="7.5" height="7.5"/>
	<rect x="127.498" y="86.309" fill="#F3D9D0" width="7.5" height="7.5"/>
	<rect x="134.998" y="86.309" fill="#F3D9D0" width="7.5" height="7.5"/>
	<rect x="142.498" y="86.309" fill="#D7BFAA" width="7.5" height="7.5"/>
	<rect x="157.498" y="86.309" fill="#726658" width="7.5" height="7.5"/>
	<rect x="142.498" y="78.809" fill="#D7BFAA" width="7.5" height="7.5"/>
	<rect x="157.498" y="101.299" fill="#AE9D85" width="7.5" height="7.5"/>
	<rect x="164.998" y="101.299" fill="#9B8579" width="7.5" height="7.5"/>
	<rect x="157.498" y="108.799" fill="#9B8579" width="7.5" height="7.5"/>
	<rect x="150.002" y="146.221" fill="#EFD1B8" width="7.5" height="7.5"/>
	<rect x="150.002" y="138.73" fill="#EFD1B8" width="7.5" height="7.5"/>
	<rect x="150.002" y="161.191" fill="#D7BFAA" width="7.5" height="7.5"/>
	<rect x="150.002" y="153.701" fill="#D7BFAA" width="7.5" height="7.5"/>
	<rect x="150.002" y="131.221" fill="#EFD1B8" width="7.5" height="7.5"/>
	<rect x="150.002" y="116.27" fill="#D7BFAA" width="7.5" height="7.5"/>
	<rect x="150.002" y="123.721" fill="#EFD1B8" width="7.5" height="7.5"/>
	<rect x="150.002" y="93.799" fill="#D7BFAA" width="7.5" height="7.5"/>
	<rect x="150.002" y="86.309" fill="#9B8579" width="7.5" height="7.5"/>
	<rect x="150.002" y="78.809" fill="#726658" width="7.5" height="7.5"/>
	<rect x="165.002" y="86.309" fill="#594A42" width="7.5" height="7.5"/>
	<rect x="157.507" y="78.809" fill="#594A42" width="7.5" height="7.5"/>
	<rect x="150.002" y="101.299" fill="#D7BFAA" width="7.5" height="7.5"/>
	<rect x="150.002" y="108.799" fill="#D7BFAA" width="7.5" height="7.5"/>
	<rect x="164.998" y="108.799" fill="#726658" width="7.5" height="7.5"/>
	<rect x="172.502" y="93.799" fill="#594A42" width="7.5" height="7.5"/>
	<rect x="172.502" y="101.299" fill="#726658" width="7.5" height="7.5"/>
	<rect x="172.502" y="108.799" fill="#594A42" width="7.5" height="7.5"/>
	<rect x="164.998" y="116.27" fill="#9B8579" width="7.5" height="7.5"/>
	<rect x="172.502" y="116.27" fill="#594A42" width="7.5" height="7.5"/>
	<rect x="127.502" y="176.191" fill="#D7BFAA" width="7.5" height="7.5"/>
	<rect x="135.002" y="176.191" fill="#D7BFAA" width="7.5" height="7.5"/>
	<rect x="142.502" y="176.191" fill="#D7BFAA" width="7.5" height="7.5"/>
	<rect x="150.002" y="176.191" fill="#E3C9B6" width="7.5" height="7.5"/>
	<rect x="157.502" y="183.73" fill="#EFD1B8" width="7.5" height="7.5"/>
	<rect x="157.507" y="176.191" fill="#D7BFAA" width="7.5" height="7.5"/>
	<rect x="164.993" y="153.672" fill="#D7BFAA" width="7.5" height="7.5"/>
	<rect x="164.993" y="168.711" fill="#EFD1B8" width="7.5" height="7.5"/>
	<rect x="164.993" y="176.191" fill="#EFD1B8" width="7.5" height="7.5"/>
	<rect x="164.998" y="161.172" fill="#D7BFAA" width="7.5" height="7.5"/>
</g>
</svg>
