<?xml version="1.0" encoding="utf-8"?>
<!-- Generator: Adobe Illustrator 16.0.0, SVG Export Plug-In . SVG Version: 6.00 Build 0)  -->
<!DOCTYPE svg PUBLIC "-//W3C//DTD SVG 1.1//EN" "http://www.w3.org/Graphics/SVG/1.1/DTD/svg11.dtd">
<svg version="1.1" id="Layer_1" xmlns="http://www.w3.org/2000/svg" xmlns:xlink="http://www.w3.org/1999/xlink" x="0px" y="0px"
	 width="300px" height="300px" viewBox="0 0 300 300" enable-background="new 0 0 300 300" xml:space="preserve">
<g>
	<rect x="172.5" y="176.172" fill="#323133" width="7.5" height="7.5"/>
	<rect x="165" y="176.172" fill="#323133" width="7.5" height="7.5"/>
	<rect x="127.5" y="183.672" fill="#ECEEEE" width="7.5" height="7.5"/>
	<rect x="120" y="183.672" fill="#323133" width="7.5" height="7.5"/>
	<rect x="127.5" y="176.211" fill="#323133" width="7.5" height="7.5"/>
	<rect x="165" y="183.672" fill="#ECEEEE" width="7.5" height="7.5"/>
	<rect x="172.5" y="183.672" fill="#323133" width="7.5" height="7.5"/>
	<rect x="180" y="183.672" fill="#323133" width="7.5" height="7.5"/>
	<rect x="135" y="198.672" fill="#FFFFFF" width="7.5" height="7.5"/>
	<rect x="142.5" y="198.672" fill="#FFFFFF" width="7.5" height="7.5"/>
	<rect x="150" y="198.672" fill="#FFFFFF" width="7.5" height="7.5"/>
	<rect x="157.5" y="198.672" fill="#FFFFFF" width="7.5" height="7.5"/>
	<rect x="127.5" y="198.672" fill="#323133" width="7.5" height="7.5"/>
	<rect x="127.5" y="206.172" fill="#231F20" width="7.5" height="7.5"/>
	<rect x="120" y="198.672" fill="#323133" width="7.5" height="7.5"/>
	<rect x="112.5" y="198.672" fill="#464749" width="7.5" height="7.5"/>
	<rect x="165" y="198.672" fill="#323133" width="7.5" height="7.5"/>
	<rect x="172.5" y="198.672" fill="#464749" width="7.5" height="7.5"/>
	<rect x="180" y="198.672" fill="#323133" width="7.5" height="7.5"/>
	<rect x="187.5" y="198.672" fill="#323133" width="7.5" height="7.5"/>
	<rect x="135" y="213.672" fill="#323133" width="7.5" height="7.5"/>
	<rect x="142.5" y="213.672" fill="#ECEEEE" width="7.5" height="7.5"/>
	<rect x="157.5" y="213.672" fill="#323133" width="7.5" height="7.5"/>
	<rect x="150" y="213.672" fill="#ECEEEE" width="7.5" height="7.5"/>
	<rect x="127.5" y="213.672" fill="#464749" width="7.5" height="7.5"/>
	<rect x="120" y="213.672" fill="#323133" width="7.5" height="7.5"/>
	<rect x="112.5" y="213.672" fill="#323133" width="7.5" height="7.5"/>
	<rect x="165" y="213.672" fill="#464749" width="7.5" height="7.5"/>
	<rect x="172.5" y="213.672" fill="#323133" width="7.5" height="7.5"/>
	<rect x="180" y="213.672" fill="#323133" width="7.5" height="7.5"/>
	<rect x="187.5" y="213.672" fill="#231F20" width="7.5" height="7.5"/>
	<rect x="127.5" y="191.172" fill="#ECEEEE" width="7.5" height="7.5"/>
	<rect x="120" y="191.172" fill="#323133" width="7.5" height="7.5"/>
	<rect x="112.5" y="191.172" fill="#323133" width="7.5" height="7.5"/>
	<rect x="165" y="191.172" fill="#ECEEEE" width="7.5" height="7.5"/>
	<rect x="172.5" y="191.172" fill="#323133" width="7.5" height="7.5"/>
	<rect x="180" y="191.172" fill="#464749" width="7.5" height="7.5"/>
	<rect x="187.5" y="191.172" fill="#323133" width="7.5" height="7.5"/>
	<rect x="135" y="206.172" fill="#323133" width="7.5" height="7.5"/>
	<rect x="142.5" y="206.172" fill="#FFFFFF" width="7.5" height="7.5"/>
	<rect x="157.5" y="206.172" fill="#323133" width="7.5" height="7.5"/>
	<rect x="150" y="206.172" fill="#FFFFFF" width="7.5" height="7.5"/>
	<rect x="127.5" y="206.172" fill="#323133" width="7.5" height="7.5"/>
	<rect x="120" y="206.172" fill="#464749" width="7.5" height="7.5"/>
	<rect x="112.5" y="206.172" fill="#323133" width="7.5" height="7.5"/>
	<rect x="105" y="198.672" fill="#323133" width="7.5" height="7.5"/>
	<rect x="105" y="191.172" fill="#464749" width="7.5" height="7.5"/>
	<rect x="105" y="213.672" fill="#231F20" width="7.5" height="7.5"/>
	<rect x="105" y="206.172" fill="#323133" width="7.5" height="7.5"/>
	<rect x="97.5" y="198.672" fill="#323133" width="7.5" height="7.5"/>
	<rect x="97.5" y="213.672" fill="#323133" width="7.5" height="7.5"/>
	<rect x="97.5" y="206.172" fill="#323133" width="7.5" height="7.5"/>
	<rect x="165" y="206.172" fill="#464749" width="7.5" height="7.5"/>
	<rect x="172.5" y="206.172" fill="#323133" width="7.5" height="7.5"/>
	<rect x="180" y="206.172" fill="#323133" width="7.5" height="7.5"/>
	<rect x="187.5" y="206.172" fill="#323133" width="7.5" height="7.5"/>
	<rect x="195" y="198.672" fill="#323133" width="7.5" height="7.5"/>
	<rect x="195" y="213.672" fill="#323133" width="7.5" height="7.5"/>
	<rect x="195" y="206.172" fill="#323133" width="7.5" height="7.5"/>
	<rect x="120" y="78.828" fill="#808285" width="7.5" height="7.5"/>
	<rect x="127.5" y="78.828" fill="#AFAFA2" width="7.5" height="7.5"/>
	<rect x="135" y="78.828" fill="#726658" width="7.5" height="7.5"/>
	<rect x="142.5" y="78.828" fill="#808285" width="7.5" height="7.5"/>
	<rect x="112.5" y="93.818" fill="#594A42" width="7.5" height="7.5"/>
	<rect x="120" y="93.818" fill="#594A42" width="7.5" height="7.5"/>
	<rect x="127.5" y="93.818" fill="#D8CFB1" width="7.5" height="7.5"/>
	<rect x="135" y="93.818" fill="#AFAFA2" width="7.5" height="7.5"/>
	<rect x="142.5" y="93.818" fill="#DFE0E1" width="7.5" height="7.5"/>
	<rect x="150" y="93.818" fill="#DFE0E1" width="7.5" height="7.5"/>
	<rect x="112.5" y="101.318" fill="#F3D9D0" width="7.5" height="7.5"/>
	<rect x="105" y="101.318" fill="#AFAFA2" width="7.5" height="7.5"/>
	<rect x="105" y="93.818" fill="#DFE0E1" width="7.5" height="7.5"/>
	<rect x="120" y="101.318" fill="#D8CFB1" width="7.5" height="7.5"/>
	<rect x="127.5" y="101.318" fill="#EFD1B8" width="7.5" height="7.5"/>
	<rect x="135" y="101.318" fill="#726658" width="7.5" height="7.5"/>
	<rect x="142.5" y="101.318" fill="#AFAFA2" width="7.5" height="7.5"/>
	<rect x="150" y="101.318" fill="#AFAFA2" width="7.5" height="7.5"/>
	<rect x="112.5" y="108.818" fill="#EFCFC0" width="7.5" height="7.5"/>
	<rect x="120" y="108.818" fill="#EFCFC0" width="7.5" height="7.5"/>
	<rect x="112.5" y="116.289" fill="#F3D9D0" width="7.5" height="7.5"/>
	<rect x="120" y="116.289" fill="#98937E" width="7.5" height="7.5"/>
	<rect x="112.5" y="131.24" fill="#43251B" width="7.5" height="7.5"/>
	<rect x="120" y="131.24" fill="#7D7967" width="7.5" height="7.5"/>
	<rect x="112.5" y="138.75" fill="#EFD1B8" width="7.5" height="7.5"/>
	<rect x="120" y="138.75" fill="#43251B" width="7.5" height="7.5"/>
	<rect x="112.5" y="146.24" fill="#EFD1B8" width="7.5" height="7.5"/>
	<rect x="105" y="138.77" fill="#EFD1B8" width="7.5" height="7.5"/>
	<rect x="97.5" y="138.77" fill="#EFD1B8" width="7.5" height="7.5"/>
	<rect x="105" y="131.27" fill="#EFCFC0" width="7.5" height="7.5"/>
	<rect x="120" y="146.24" fill="#EFD1B8" width="7.5" height="7.5"/>
	<rect x="135" y="146.24" fill="#F3D9D0" width="7.5" height="7.5"/>
	<rect x="127.5" y="146.24" fill="#EFD1B8" width="7.5" height="7.5"/>
	<rect x="142.5" y="146.24" fill="#F3D9D0" width="7.5" height="7.5"/>
	<rect x="157.5" y="146.24" fill="#EFD1B8" width="7.5" height="7.5"/>
	<rect x="150" y="146.24" fill="#EFCFC0" width="7.5" height="7.5"/>
	<rect x="135" y="153.721" fill="#FFFFFF" width="7.5" height="7.5"/>
	<rect x="127.5" y="153.721" fill="#FFFFFF" width="7.5" height="7.5"/>
	<rect x="142.5" y="153.721" fill="#BB807B" width="7.5" height="7.5"/>
	<rect x="150" y="153.721" fill="#EFD1B8" width="7.5" height="7.5"/>
	<rect x="135" y="161.211" fill="#D28F8C" width="7.5" height="7.5"/>
	<rect x="127.5" y="161.211" fill="#D28F8C" width="7.5" height="7.5"/>
	<rect x="142.5" y="161.211" fill="#EFCFC0" width="7.5" height="7.5"/>
	<rect x="150" y="161.211" fill="#EFD1B8" width="7.5" height="7.5"/>
	<rect x="135" y="168.711" fill="#EFD1B8" width="7.5" height="7.5"/>
	<rect x="127.5" y="168.711" fill="#EFD1B8" width="7.5" height="7.5"/>
	<rect x="142.5" y="168.711" fill="#EFD1B8" width="7.5" height="7.5"/>
	<rect x="135" y="176.211" fill="#D7BFAA" width="7.5" height="7.5"/>
	<rect x="142.5" y="176.211" fill="#D7BFAA" width="7.5" height="7.5"/>
	<rect x="135" y="191.172" fill="#FFFFFF" width="7.5" height="7.5"/>
	<rect x="142.5" y="191.172" fill="#EFD1B8" width="7.5" height="7.5"/>
	<rect x="150" y="176.211" fill="#EFD1B8" width="7.5" height="7.5"/>
	<rect x="135" y="183.672" fill="#D7BFAA" width="7.5" height="7.5"/>
	<rect x="142.5" y="183.672" fill="#EFD1B8" width="7.5" height="7.5"/>
	<rect x="150" y="183.672" fill="#EFD1B8" width="7.5" height="7.5"/>
	<rect x="150" y="168.711" fill="#EFD1B8" width="7.5" height="7.5"/>
	<rect x="157.5" y="168.711" fill="#D7BFAA" width="7.5" height="7.5"/>
	<rect x="157.5" y="176.211" fill="#EFD1B8" width="7.5" height="7.5"/>
	<rect x="157.5" y="183.672" fill="#EFD1B8" width="7.5" height="7.5"/>
	<rect x="157.5" y="191.172" fill="#FFFFFF" width="7.5" height="7.5"/>
	<rect x="150" y="191.172" fill="#EFD1B8" width="7.5" height="7.5"/>
	<rect x="165" y="146.24" fill="#EFD1B8" width="7.5" height="7.5"/>
	<rect x="157.5" y="138.75" fill="#DFE0E1" width="7.5" height="7.5"/>
	<rect x="165" y="138.75" fill="#EFD1B8" width="7.5" height="7.5"/>
	<rect x="157.5" y="161.211" fill="#EFD1B8" width="7.5" height="7.5"/>
	<rect x="165" y="161.211" fill="#EFD1B8" width="7.5" height="7.5"/>
	<rect x="157.5" y="153.721" fill="#EFCFC0" width="7.5" height="7.5"/>
	<rect x="165" y="153.721" fill="#EFD1B8" width="7.5" height="7.5"/>
	<rect x="157.5" y="131.24" fill="#939598" width="7.5" height="7.5"/>
	<rect x="165" y="131.24" fill="#EFD1B8" width="7.5" height="7.5"/>
	<rect x="157.5" y="116.289" fill="#ECEEEE" width="7.5" height="7.5"/>
	<rect x="165" y="116.289" fill="#AFAFA2" width="7.5" height="7.5"/>
	<rect x="172.5" y="131.24" fill="#EFD1B8" width="7.5" height="7.5"/>
	<rect x="172.5" y="123.75" fill="#EFD1B8" width="7.5" height="7.5"/>
	<rect x="127.5" y="108.818" fill="#EFD1B8" width="7.5" height="7.5"/>
	<rect x="135" y="108.818" fill="#ECEEEE" width="7.5" height="7.5"/>
	<rect x="142.5" y="108.818" fill="#FFFFFF" width="7.5" height="7.5"/>
	<rect x="150" y="108.818" fill="#DFE0E1" width="7.5" height="7.5"/>
	<rect x="127.5" y="116.289" fill="#D8CFB1" width="7.5" height="7.5"/>
	<rect x="135" y="116.289" fill="#EFD1B8" width="7.5" height="7.5"/>
	<rect x="142.5" y="116.289" fill="#ECEEEE" width="7.5" height="7.5"/>
	<rect x="150" y="116.289" fill="#FFFFFF" width="7.5" height="7.5"/>
	<rect x="112.5" y="123.75" fill="#43251B" width="7.5" height="7.5"/>
	<rect x="120" y="123.75" fill="#43251B" width="7.5" height="7.5"/>
	<rect x="157.5" y="123.75" fill="#DFE0E1" width="7.5" height="7.5"/>
	<rect x="165" y="123.75" fill="#EFCFC0" width="7.5" height="7.5"/>
	<rect x="127.5" y="123.75" fill="#43251B" width="7.5" height="7.5"/>
	<rect x="135" y="123.75" fill="#43251B" width="7.5" height="7.5"/>
	<rect x="142.5" y="123.75" fill="#43251B" width="7.5" height="7.5"/>
	<rect x="150" y="123.75" fill="#43251B" width="7.5" height="7.5"/>
	<rect x="127.5" y="131.24" fill="#FFFFFF" width="7.5" height="7.5"/>
	<rect x="135" y="131.24" fill="#43251B" width="7.5" height="7.5"/>
	<rect x="142.5" y="131.24" fill="#EFD1B8" width="7.5" height="7.5"/>
	<rect x="150" y="131.24" fill="#F3D9D0" width="7.5" height="7.5"/>
	<rect x="127.5" y="138.74" fill="#43251B" width="7.5" height="7.5"/>
	<rect x="135" y="138.74" fill="#EFCFC0" width="7.5" height="7.5"/>
	<rect x="142.5" y="138.74" fill="#EFD1B8" width="7.5" height="7.5"/>
	<rect x="150" y="138.74" fill="#EFD1B8" width="7.5" height="7.5"/>
	<rect x="157.5" y="93.818" fill="#726658" width="7.5" height="7.5"/>
	<rect x="165" y="93.818" fill="#D8CFB1" width="7.5" height="7.5"/>
	<rect x="112.5" y="86.328" fill="#DFE0E1" width="7.5" height="7.5"/>
	<rect x="120" y="86.328" fill="#AFAFA2" width="7.5" height="7.5"/>
	<rect x="127.5" y="86.328" fill="#808285" width="7.5" height="7.5"/>
	<rect x="135" y="86.328" fill="#D8CFB1" width="7.5" height="7.5"/>
	<rect x="142.5" y="86.328" fill="#D8CFB1" width="7.5" height="7.5"/>
	<rect x="150" y="86.328" fill="#808285" width="7.5" height="7.5"/>
	<rect x="157.5" y="86.328" fill="#DFE0E1" width="7.5" height="7.5"/>
	<rect x="150" y="78.828" fill="#DFE0E1" width="7.5" height="7.5"/>
	<rect x="157.5" y="78.828" fill="#726658" width="7.5" height="7.5"/>
	<rect x="165" y="86.328" fill="#808285" width="7.5" height="7.5"/>
	<rect x="172.5" y="93.818" fill="#808285" width="7.5" height="7.5"/>
	<rect x="172.5" y="86.328" fill="#D8CFB1" width="7.5" height="7.5"/>
	<rect x="157.5" y="101.318" fill="#DFE0E1" width="7.5" height="7.5"/>
	<rect x="165" y="101.318" fill="#FFFFFF" width="7.5" height="7.5"/>
	<rect x="157.5" y="108.818" fill="#AFAFA2" width="7.5" height="7.5"/>
	<rect x="165" y="108.818" fill="#ECEEEE" width="7.5" height="7.5"/>
	<rect x="172.5" y="116.289" fill="#EFD1B8" width="7.5" height="7.5"/>
	<rect x="172.5" y="101.318" fill="#D8CFB1" width="7.5" height="7.5"/>
	<rect x="180" y="93.818" fill="#D8CFB1" width="7.5" height="7.5"/>
	<rect x="180" y="101.318" fill="#726658" width="7.5" height="7.5"/>
	<rect x="172.5" y="108.818" fill="#ECEEEE" width="7.5" height="7.5"/>
	<rect x="180" y="131.27" fill="#AFAFA2" width="7.5" height="7.5"/>
	<rect x="180" y="123.799" fill="#DFE0E1" width="7.5" height="7.5"/>
	<rect x="180" y="116.309" fill="#AFAFA2" width="7.5" height="7.5"/>
	<rect x="180" y="108.809" fill="#594A42" width="7.5" height="7.5"/>
	<rect x="172.5" y="146.221" fill="#C6C8C9" width="7.5" height="7.5"/>
	<rect x="172.5" y="153.73" fill="#594A42" width="7.5" height="7.5"/>
	<rect x="180" y="153.73" fill="#ECEEEE" width="7.5" height="7.5"/>
	<rect x="172.51" y="161.221" fill="#C6C8C9" width="7.5" height="7.5"/>
	<rect x="180" y="138.76" fill="#C6C8C9" width="7.5" height="7.5"/>
	<rect x="172.5" y="138.75" fill="#98937E" width="7.5" height="7.5"/>
</g>
</svg>
