<?xml version="1.0" encoding="utf-8"?>
<!-- Generator: Adobe Illustrator 16.0.0, SVG Export Plug-In . SVG Version: 6.00 Build 0)  -->
<!DOCTYPE svg PUBLIC "-//W3C//DTD SVG 1.1//EN" "http://www.w3.org/Graphics/SVG/1.1/DTD/svg11.dtd">
<svg version="1.1" id="Layer_1" xmlns="http://www.w3.org/2000/svg" xmlns:xlink="http://www.w3.org/1999/xlink" x="0px" y="0px"
	 width="300px" height="300px" viewBox="0 0 300 300" enable-background="new 0 0 300 300" xml:space="preserve">
<g>
	<rect x="116.25" y="86.294" fill="#525255" width="7.5" height="7.5"/>
	<rect x="123.75" y="86.294" fill="#2F292B" width="7.5" height="7.5"/>
	<rect x="108.75" y="86.294" fill="#2F292B" width="7.5" height="7.5"/>
	<rect x="131.25" y="86.294" fill="#525255" width="7.5" height="7.5"/>
	<rect x="138.75" y="86.294" fill="#2F292B" width="7.5" height="7.5"/>
	<rect x="146.25" y="86.294" fill="#2F292B" width="7.5" height="7.5"/>
	<rect x="153.75" y="86.294" fill="#2F292B" width="7.5" height="7.5"/>
	<rect x="123.75" y="78.794" fill="#525255" width="7.5" height="7.5"/>
	<rect x="131.25" y="78.794" fill="#2F292B" width="7.5" height="7.5"/>
	<rect x="138.75" y="78.794" fill="#2F292B" width="7.5" height="7.5"/>
	<rect x="146.25" y="78.794" fill="#2F292B" width="7.5" height="7.5"/>
	<rect x="153.75" y="78.794" fill="#2F292B" width="7.5" height="7.5"/>
	<rect x="116.25" y="101.279" fill="#EDD69F" width="7.5" height="7.5"/>
	<rect x="123.75" y="101.279" fill="#525255" width="7.5" height="7.5"/>
	<rect x="131.25" y="101.279" fill="#2F292B" width="7.5" height="7.5"/>
	<rect x="138.75" y="101.279" fill="#2F292B" width="7.5" height="7.5"/>
	<rect x="146.25" y="101.279" fill="#2F292B" width="7.5" height="7.5"/>
	<rect x="153.75" y="101.279" fill="#2F292B" width="7.5" height="7.5"/>
	<rect x="116.25" y="108.779" fill="#EDD69F" width="7.5" height="7.5"/>
	<rect x="123.75" y="108.779" fill="#EDD69F" width="7.5" height="7.5"/>
	<rect x="131.25" y="108.779" fill="#EDD69F" width="7.5" height="7.5"/>
	<rect x="138.75" y="108.779" fill="#EDD69F" width="7.5" height="7.5"/>
	<rect x="146.25" y="108.779" fill="#EDD69F" width="7.5" height="7.5"/>
	<rect x="153.75" y="108.779" fill="#2F292B" width="7.5" height="7.5"/>
	<rect x="116.25" y="116.279" fill="#2F292B" width="7.5" height="7.5"/>
	<rect x="123.75" y="116.279" fill="#4D301C" width="7.5" height="7.5"/>
	<rect x="116.25" y="123.75" fill="#2F292B" width="7.5" height="7.5"/>
	<rect x="123.75" y="123.75" fill="#9B724E" width="7.5" height="7.5"/>
	<rect x="116.25" y="131.235" fill="#2F292B" width="7.5" height="7.5"/>
	<rect x="123.75" y="131.235" fill="#2F292B" width="7.5" height="7.5"/>
	<rect x="116.25" y="138.75" fill="#EDD69F" width="7.5" height="7.5"/>
	<rect x="123.75" y="138.75" fill="#EDD69F" width="7.5" height="7.5"/>
	<rect x="116.25" y="146.235" fill="#D5CBAD" width="7.5" height="7.5"/>
	<rect x="108.75" y="138.75" fill="#EDD69F" width="7.5" height="7.5"/>
	<rect x="108.75" y="131.235" fill="#EDD69F" width="7.5" height="7.5"/>
	<rect x="123.75" y="146.235" fill="#D5CBAD" width="7.5" height="7.5"/>
	<rect x="138.75" y="146.235" fill="#D5CBAD" width="7.5" height="7.5"/>
	<rect x="131.25" y="146.235" fill="#D5CBAD" width="7.5" height="7.5"/>
	<rect x="146.25" y="146.235" fill="#D5CBAD" width="7.5" height="7.5"/>
	<rect x="161.25" y="146.235" fill="#EDD69F" width="7.5" height="7.5"/>
	<rect x="153.75" y="146.235" fill="#D5CBAD" width="7.5" height="7.5"/>
	<rect x="138.75" y="153.721" fill="#FFFFFF" width="7.5" height="7.5"/>
	<rect x="131.25" y="153.721" fill="#FFFFFF" width="7.5" height="7.5"/>
	<rect x="146.25" y="153.721" fill="#FFFFFF" width="7.5" height="7.5"/>
	<rect x="153.75" y="153.721" fill="#C7293B" width="7.5" height="7.5"/>
	<rect x="138.75" y="161.206" fill="#C7293B" width="7.5" height="7.5"/>
	<rect x="131.25" y="161.206" fill="#C7293B" width="7.5" height="7.5"/>
	<rect x="146.25" y="161.206" fill="#C7293B" width="7.5" height="7.5"/>
	<rect x="153.75" y="161.206" fill="#D5CBAD" width="7.5" height="7.5"/>
	<rect x="138.75" y="168.706" fill="#D5CBAD" width="7.5" height="7.5"/>
	<rect x="131.25" y="168.706" fill="#D5CBAD" width="7.5" height="7.5"/>
	<rect x="146.25" y="168.706" fill="#D5CBAD" width="7.5" height="7.5"/>
	<rect x="138.75" y="176.206" fill="#EDD69F" width="7.5" height="7.5"/>
	<rect x="146.25" y="176.206" fill="#EDD69F" width="7.5" height="7.5"/>
	<rect x="138.75" y="183.706" fill="#EDD69F" width="7.5" height="7.5"/>
	<rect x="146.25" y="183.706" fill="#EDD69F" width="7.5" height="7.5"/>
	<rect x="153.75" y="176.206" fill="#EDD69F" width="7.5" height="7.5"/>
	<rect x="153.75" y="168.706" fill="#EDD69F" width="7.5" height="7.5"/>
	<rect x="161.25" y="168.706" fill="#EDD69F" width="7.5" height="7.5"/>
	<rect x="161.25" y="176.206" fill="#D8DADA" width="7.5" height="7.5"/>
	<rect x="168.75" y="176.206" fill="#919295" width="7.5" height="7.5"/>
	<rect x="168.75" y="168.706" fill="#D8DADA" width="7.5" height="7.5"/>
	<rect x="176.25" y="168.706" fill="#919295" width="7.5" height="7.5"/>
	<rect x="161.25" y="183.706" fill="#919295" width="7.5" height="7.5"/>
	<rect x="153.75" y="183.706" fill="#D8DADA" width="7.5" height="7.5"/>
	<rect x="131.25" y="183.706" fill="#D8DADA" width="7.5" height="7.5"/>
	<rect x="123.75" y="183.706" fill="#A2A4A6" width="7.5" height="7.5"/>
	<rect x="123.75" y="176.206" fill="#D8DADA" width="7.5" height="7.5"/>
	<rect x="116.25" y="176.206" fill="#A2A4A6" width="7.5" height="7.5"/>
	<rect x="168.75" y="183.706" fill="#D8DADA" width="7.5" height="7.5"/>
	<rect x="176.25" y="183.706" fill="#D8DADA" width="7.5" height="7.5"/>
	<rect x="183.75" y="183.706" fill="#D8DADA" width="7.5" height="7.5"/>
	<rect x="138.75" y="191.206" fill="#D8DADA" width="7.5" height="7.5"/>
	<rect x="146.25" y="191.206" fill="#EDD69F" width="7.5" height="7.5"/>
	<rect x="161.25" y="191.206" fill="#B5B7B9" width="7.5" height="7.5"/>
	<rect x="153.75" y="191.206" fill="#D8DADA" width="7.5" height="7.5"/>
	<rect x="131.25" y="191.206" fill="#A2A4A6" width="7.5" height="7.5"/>
	<rect x="123.75" y="191.206" fill="#D8DADA" width="7.5" height="7.5"/>
	<rect x="116.25" y="191.206" fill="#B5B7B9" width="7.5" height="7.5"/>
	<rect x="168.75" y="191.206" fill="#D8DADA" width="7.5" height="7.5"/>
	<rect x="176.25" y="191.206" fill="#B5B7B9" width="7.5" height="7.5"/>
	<rect x="183.75" y="191.206" fill="#D8DADA" width="7.5" height="7.5"/>
	<rect x="191.25" y="191.206" fill="#C6C8CA" width="7.5" height="7.5"/>
	<rect x="138.75" y="198.706" fill="#D8DADA" width="7.5" height="7.5"/>
	<rect x="146.25" y="198.706" fill="#A2A4A6" width="7.5" height="7.5"/>
	<rect x="161.25" y="198.706" fill="#B5B7B9" width="7.5" height="7.5"/>
	<rect x="153.75" y="198.706" fill="#D8DADA" width="7.5" height="7.5"/>
	<rect x="131.25" y="198.706" fill="#B5B7B9" width="7.5" height="7.5"/>
	<rect x="123.75" y="198.706" fill="#D8DADA" width="7.5" height="7.5"/>
	<rect x="116.25" y="198.706" fill="#B5B7B9" width="7.5" height="7.5"/>
	<rect x="168.75" y="198.706" fill="#D8DADA" width="7.5" height="7.5"/>
	<rect x="176.25" y="198.706" fill="#B5B7B9" width="7.5" height="7.5"/>
	<rect x="183.75" y="198.706" fill="#D8DADA" width="7.5" height="7.5"/>
	<rect x="191.25" y="198.706" fill="#C6C8CA" width="7.5" height="7.5"/>
	<rect x="138.75" y="206.206" fill="#D8DADA" width="7.5" height="7.5"/>
	<rect x="146.25" y="206.206" fill="#525255" width="7.5" height="7.5"/>
	<rect x="161.25" y="206.206" fill="#B5B7B9" width="7.5" height="7.5"/>
	<rect x="153.75" y="206.206" fill="#D8DADA" width="7.5" height="7.5"/>
	<rect x="131.25" y="206.206" fill="#808083" width="7.5" height="7.5"/>
	<rect x="123.75" y="206.206" fill="#D8DADA" width="7.5" height="7.5"/>
	<rect x="116.25" y="206.206" fill="#B5B7B9" width="7.5" height="7.5"/>
	<rect x="168.75" y="206.206" fill="#C6C8CA" width="7.5" height="7.5"/>
	<rect x="176.25" y="206.206" fill="#B5B7B9" width="7.5" height="7.5"/>
	<rect x="183.75" y="206.206" fill="#D8DADA" width="7.5" height="7.5"/>
	<rect x="191.25" y="206.206" fill="#C6C8CA" width="7.5" height="7.5"/>
	<rect x="138.75" y="213.706" fill="#D8DADA" width="7.5" height="7.5"/>
	<rect x="146.25" y="213.706" fill="#A2A4A6" width="7.5" height="7.5"/>
	<rect x="161.25" y="213.706" fill="#B5B7B9" width="7.5" height="7.5"/>
	<rect x="153.75" y="213.706" fill="#D8DADA" width="7.5" height="7.5"/>
	<rect x="131.25" y="213.706" fill="#808083" width="7.5" height="7.5"/>
	<rect x="123.75" y="213.706" fill="#D8DADA" width="7.5" height="7.5"/>
	<rect x="116.25" y="213.706" fill="#B5B7B9" width="7.5" height="7.5"/>
	<rect x="168.75" y="213.706" fill="#C6C8CA" width="7.5" height="7.5"/>
	<rect x="176.25" y="213.706" fill="#B5B7B9" width="7.5" height="7.5"/>
	<rect x="183.75" y="213.706" fill="#D8DADA" width="7.5" height="7.5"/>
	<rect x="191.25" y="213.706" fill="#C6C8CA" width="7.5" height="7.5"/>
	<rect x="168.75" y="146.235" fill="#4D301C" width="7.5" height="7.5"/>
	<rect x="161.25" y="138.75" fill="#EDD69F" width="7.5" height="7.5"/>
	<rect x="168.75" y="138.75" fill="#4D301C" width="7.5" height="7.5"/>
	<rect x="161.25" y="161.206" fill="#EDD69F" width="7.5" height="7.5"/>
	<rect x="168.75" y="161.206" fill="#EDD69F" width="7.5" height="7.5"/>
	<rect x="161.25" y="153.721" fill="#EDD69F" width="7.5" height="7.5"/>
	<rect x="168.75" y="153.721" fill="#EDD69F" width="7.5" height="7.5"/>
	<rect x="161.25" y="131.235" fill="#EDD69F" width="7.5" height="7.5"/>
	<rect x="168.75" y="131.235" fill="#EDD69F" width="7.5" height="7.5"/>
	<rect x="161.25" y="123.75" fill="#EDD69F" width="7.5" height="7.5"/>
	<rect x="168.75" y="123.75" fill="#EDD69F" width="7.5" height="7.5"/>
	<rect x="176.25" y="131.235" fill="#EDD69F" width="7.5" height="7.5"/>
	<rect x="176.25" y="123.75" fill="#EDD69F" width="7.5" height="7.5"/>
	<rect x="131.25" y="116.279" fill="#4D301C" width="7.5" height="7.5"/>
	<rect x="138.75" y="116.279" fill="#4D301C" width="7.5" height="7.5"/>
	<rect x="146.25" y="116.279" fill="#C1BB51" width="7.5" height="7.5"/>
	<rect x="153.75" y="116.279" fill="#C1BB51" width="7.5" height="7.5"/>
	<rect x="131.25" y="123.75" fill="#FFFFFF" width="7.5" height="7.5"/>
	<rect x="138.75" y="123.75" fill="#4D301C" width="7.5" height="7.5"/>
	<rect x="146.25" y="123.75" fill="#EDD69F" width="7.5" height="7.5"/>
	<rect x="153.75" y="123.75" fill="#EDD69F" width="7.5" height="7.5"/>
	<rect x="131.25" y="131.235" fill="#4D301C" width="7.5" height="7.5"/>
	<rect x="138.75" y="131.235" fill="#4D301C" width="7.5" height="7.5"/>
	<rect x="146.25" y="131.235" fill="#EDD69F" width="7.5" height="7.5"/>
	<rect x="153.75" y="131.235" fill="#EDD69F" width="7.5" height="7.5"/>
	<rect x="131.25" y="138.735" fill="#EDD69F" width="7.5" height="7.5"/>
	<rect x="138.75" y="138.735" fill="#EDD69F" width="7.5" height="7.5"/>
	<rect x="146.25" y="138.735" fill="#EDD69F" width="7.5" height="7.5"/>
	<rect x="153.75" y="138.735" fill="#EDD69F" width="7.5" height="7.5"/>
	<rect x="161.25" y="101.279" fill="#2F292B" width="7.5" height="7.5"/>
	<rect x="168.75" y="101.279" fill="#2F292B" width="7.5" height="7.5"/>
	<rect x="116.25" y="93.794" fill="#2F292B" width="7.5" height="7.5"/>
	<rect x="108.75" y="93.794" fill="#2F292B" width="7.5" height="7.5"/>
	<rect x="101.25" y="93.794" fill="#525255" width="7.5" height="7.5"/>
	<rect x="123.75" y="93.794" fill="#2F292B" width="7.5" height="7.5"/>
	<rect x="131.25" y="93.794" fill="#2F292B" width="7.5" height="7.5"/>
	<rect x="138.75" y="93.794" fill="#525255" width="7.5" height="7.5"/>
	<rect x="146.25" y="93.794" fill="#2F292B" width="7.5" height="7.5"/>
	<rect x="153.75" y="93.794" fill="#525255" width="7.5" height="7.5"/>
	<rect x="161.25" y="93.794" fill="#2F292B" width="7.5" height="7.5"/>
	<rect x="161.25" y="86.294" fill="#2F292B" width="7.5" height="7.5"/>
	<rect x="168.75" y="93.794" fill="#2F292B" width="7.5" height="7.5"/>
	<rect x="161.25" y="108.779" fill="#525255" width="7.5" height="7.5"/>
	<rect x="161.25" y="123.75" fill="#525255" width="7.5" height="7.5"/>
	<rect x="168.75" y="108.779" fill="#525255" width="7.5" height="7.5"/>
	<rect x="161.25" y="116.279" fill="#2F292B" width="7.5" height="7.5"/>
	<rect x="168.75" y="116.279" fill="#2F292B" width="7.5" height="7.5"/>
</g>
</svg>
