<?xml version="1.0" encoding="utf-8"?>
<!-- Generator: Adobe Illustrator 16.0.0, SVG Export Plug-In . SVG Version: 6.00 Build 0)  -->
<!DOCTYPE svg PUBLIC "-//W3C//DTD SVG 1.1//EN" "http://www.w3.org/Graphics/SVG/1.1/DTD/svg11.dtd">
<svg version="1.1" id="Layer_1" xmlns="http://www.w3.org/2000/svg" xmlns:xlink="http://www.w3.org/1999/xlink" x="0px" y="0px"
	 width="300px" height="300px" viewBox="0 0 300 300" enable-background="new 0 0 300 300" xml:space="preserve">
<g>
	<rect x="135" y="176.971" fill="#EEE1BF" width="6" height="6"/>
	<rect x="141" y="176.971" fill="#EEE1BF" width="6" height="6"/>
	<rect x="153" y="176.971" fill="#EEE1BF" width="6" height="6"/>
	<rect x="147" y="176.971" fill="#EEE1BF" width="6" height="6"/>
	<rect x="129" y="176.971" fill="#EEE1BF" width="6" height="6"/>
	<rect x="123" y="176.971" fill="#FFFFFF" width="6" height="6"/>
	<rect x="159" y="176.971" fill="#808081" width="6" height="6"/>
	<rect x="165" y="176.971" fill="#EEE1BF" width="6" height="6"/>
	<rect x="135" y="182.971" fill="#EEE1BF" width="6" height="6"/>
	<rect x="141" y="182.971" fill="#EDD69F" width="6" height="6"/>
	<rect x="153" y="182.971" fill="#EEE1BF" width="6" height="6"/>
	<rect x="147" y="182.971" fill="#EEE1BF" width="6" height="6"/>
	<rect x="129" y="182.971" fill="#EEE1BF" width="6" height="6"/>
	<rect x="123" y="182.971" fill="#808081" width="6" height="6"/>
	<rect x="123" y="176.971" fill="#808081" width="6" height="6"/>
	<rect x="117" y="182.971" fill="#EEE1BF" width="6" height="6"/>
	<rect x="159" y="182.971" fill="#808081" width="6" height="6"/>
	<rect x="165" y="182.971" fill="#808081" width="6" height="6"/>
	<rect x="171" y="182.971" fill="#EEE1BF" width="6" height="6"/>
	<rect x="177" y="182.971" fill="#EEE1BF" width="6" height="6"/>
	<rect x="135" y="188.971" fill="#EEE1BF" width="6" height="6"/>
	<rect x="141" y="188.971" fill="#EDD69F" width="6" height="6"/>
	<rect x="153" y="188.971" fill="#808081" width="6" height="6"/>
	<rect x="147" y="188.971" fill="#EEE1BF" width="6" height="6"/>
	<rect x="129" y="188.971" fill="#808081" width="6" height="6"/>
	<rect x="123" y="188.971" fill="#FFFFFF" width="6" height="6"/>
	<rect x="117" y="188.971" fill="#EEE1BF" width="6" height="6"/>
	<rect x="159" y="188.971" fill="#FFFFFF" width="6" height="6"/>
	<rect x="165" y="188.971" fill="#FFFFFF" width="6" height="6"/>
	<rect x="171" y="188.971" fill="#EEE1BF" width="6" height="6"/>
	<rect x="177" y="188.971" fill="#EDD69F" width="6" height="6"/>
	<rect x="135" y="194.971" fill="#FFFFFF" width="6" height="6"/>
	<rect x="141" y="194.971" fill="#808081" width="6" height="6"/>
	<rect x="153" y="194.971" fill="#808081" width="6" height="6"/>
	<rect x="147" y="194.971" fill="#FFFFFF" width="6" height="6"/>
	<rect x="129" y="194.971" fill="#808081" width="6" height="6"/>
	<rect x="123" y="194.971" fill="#808081" width="6" height="6"/>
	<rect x="117" y="194.971" fill="#EDD69F" width="6" height="6"/>
	<rect x="111" y="182.971" fill="#C7293B" width="6" height="6"/>
	<rect x="111" y="188.971" fill="#007C48" width="6" height="6"/>
	<rect x="111" y="194.971" fill="#EEE1BF" width="6" height="6"/>
	<rect x="159" y="194.971" fill="#808081" width="6" height="6"/>
	<rect x="165" y="194.971" fill="#808081" width="6" height="6"/>
	<rect x="171" y="194.971" fill="#EEE1BF" width="6" height="6"/>
	<rect x="177" y="194.971" fill="#EDD69F" width="6" height="6"/>
	<rect x="117" y="111.029" fill="#FFF496" width="6" height="6"/>
	<rect x="123" y="111.029" fill="#FFF496" width="6" height="6"/>
	<rect x="129" y="111.029" fill="#F1789C" width="6" height="6"/>
	<rect x="135" y="111.029" fill="#F1789C" width="6" height="6"/>
	<rect x="141" y="111.029" fill="#F1789C" width="6" height="6"/>
	<rect x="147" y="111.029" fill="#FFF496" width="6" height="6"/>
	<rect x="123" y="117.029" fill="#FFF496" width="6" height="6"/>
	<rect x="129" y="117.029" fill="#EEE1BF" width="6" height="6"/>
	<rect x="135" y="117.029" fill="#D9C47D" width="6" height="6"/>
	<rect x="141" y="117.029" fill="#ED3B8C" width="6" height="6"/>
	<rect x="147" y="117.029" fill="#F1789C" width="6" height="6"/>
	<rect x="123" y="123.029" fill="#EEE1BF" width="6" height="6"/>
	<rect x="123" y="129.006" fill="#EEE1BF" width="6" height="6"/>
	<rect x="123" y="134.994" fill="#EEE1BF" width="6" height="6"/>
	<rect x="117" y="141.006" fill="#EEE1BF" width="6" height="6"/>
	<rect x="123" y="141.006" fill="#EEE1BF" width="6" height="6"/>
	<rect x="123" y="146.994" fill="#EEE1BF" width="6" height="6"/>
	<rect x="135" y="146.994" fill="#EEE1BF" width="6" height="6"/>
	<rect x="129" y="146.994" fill="#EEE1BF" width="6" height="6"/>
	<rect x="141" y="146.994" fill="#EEE1BF" width="6" height="6"/>
	<rect x="153" y="146.994" fill="#EEE1BF" width="6" height="6"/>
	<rect x="147" y="146.994" fill="#EEE1BF" width="6" height="6"/>
	<rect x="135" y="152.982" fill="#FFFFFF" width="6" height="6"/>
	<rect x="129" y="152.982" fill="#FFFFFF" width="6" height="6"/>
	<rect x="141" y="152.982" fill="#FFFFFF" width="6" height="6"/>
	<rect x="147" y="152.982" fill="#F6A6B1" width="6" height="6"/>
	<rect x="135" y="158.971" fill="#F6A6B1" width="6" height="6"/>
	<rect x="129" y="158.971" fill="#F6A6B1" width="6" height="6"/>
	<rect x="141" y="158.971" fill="#F6A6B1" width="6" height="6"/>
	<rect x="147" y="158.971" fill="#EEE1BF" width="6" height="6"/>
	<rect x="135" y="164.971" fill="#EEE1BF" width="6" height="6"/>
	<rect x="129" y="164.971" fill="#EEE1BF" width="6" height="6"/>
	<rect x="141" y="164.971" fill="#EEE1BF" width="6" height="6"/>
	<rect x="135" y="170.971" fill="#EDD69F" width="6" height="6"/>
	<rect x="141" y="170.971" fill="#EDD69F" width="6" height="6"/>
	<rect x="147" y="170.971" fill="#EDD69F" width="6" height="6"/>
	<rect x="147" y="164.971" fill="#EEE1BF" width="6" height="6"/>
	<rect x="153" y="164.971" fill="#EEE1BF" width="6" height="6"/>
	<rect x="153" y="141.006" fill="#EEE1BF" width="6" height="6"/>
	<rect x="159" y="141.006" fill="#D9C47D" width="6" height="6"/>
	<rect x="153" y="158.971" fill="#EEE1BF" width="6" height="6"/>
	<rect x="153" y="152.982" fill="#EEE1BF" width="6" height="6"/>
	<rect x="153" y="134.994" fill="#EDD69F" width="6" height="6"/>
	<rect x="159" y="134.994" fill="#F1789C" width="6" height="6"/>
	<rect x="153" y="129.006" fill="#EDD69F" width="6" height="6"/>
	<rect x="159" y="129.006" fill="#ED3B8C" width="6" height="6"/>
	<rect x="165" y="134.994" fill="#FCFADF" width="6" height="6"/>
	<rect x="165" y="129.006" fill="#FFF496" width="6" height="6"/>
	<rect x="129" y="123.029" fill="#FFF496" width="6" height="6"/>
	<rect x="135" y="123.029" fill="#99714C" width="6" height="6"/>
	<rect x="141" y="123.029" fill="#EEE1BF" width="6" height="6"/>
	<rect x="147" y="123.029" fill="#D9C47D" width="6" height="6"/>
	<rect x="129" y="129.006" fill="#EEE1BF" width="6" height="6"/>
	<rect x="135" y="128.994" fill="#EEE1BF" width="6" height="6"/>
	<rect x="141" y="129.006" fill="#EEE1BF" width="6" height="6"/>
	<rect x="147" y="129.006" fill="#FFF496" width="6" height="6"/>
	<rect x="129" y="134.994" fill="#6C7F55" width="6" height="6"/>
	<rect x="135" y="134.994" fill="#FFFFFF" width="6" height="6"/>
	<rect x="141" y="134.994" fill="#EEE1BF" width="6" height="6"/>
	<rect x="147" y="134.994" fill="#FFF496" width="6" height="6"/>
	<rect x="129" y="140.994" fill="#EEE1BF" width="6" height="6"/>
	<rect x="135" y="140.994" fill="#EEE1BF" width="6" height="6"/>
	<rect x="141" y="140.994" fill="#EEE1BF" width="6" height="6"/>
	<rect x="147" y="140.994" fill="#EEE1BF" width="6" height="6"/>
	<rect x="153" y="111.029" fill="#D9C47D" width="6" height="6"/>
	<rect x="159" y="111.029" fill="#FCFADF" width="6" height="6"/>
	<rect x="159" y="105.041" fill="#FFF496" width="6" height="6"/>
	<rect x="165" y="105.041" fill="#FCFADF" width="6" height="6"/>
	<rect x="123" y="105.041" fill="#F1789C" width="6" height="6"/>
	<rect x="129" y="105.041" fill="#ED3B8C" width="6" height="6"/>
	<rect x="135" y="105.041" fill="#F1789C" width="6" height="6"/>
	<rect x="141" y="105.041" fill="#FFF496" width="6" height="6"/>
	<rect x="147" y="105.041" fill="#FCFADF" width="6" height="6"/>
	<rect x="129" y="99.041" fill="#FFF496" width="6" height="6"/>
	<rect x="135" y="99.041" fill="#FCFADF" width="6" height="6"/>
	<rect x="141" y="99.041" fill="#FFF496" width="6" height="6"/>
	<rect x="147" y="99.041" fill="#FCFADF" width="6" height="6"/>
	<rect x="153" y="105.041" fill="#FCFADF" width="6" height="6"/>
	<rect x="153" y="99.029" fill="#FFF496" width="6" height="6"/>
	<rect x="159" y="99.029" fill="#FCFADF" width="6" height="6"/>
	<rect x="153" y="117.029" fill="#FCFADF" width="6" height="6"/>
	<rect x="153" y="129.006" fill="#D9C47D" width="6" height="6"/>
	<rect x="153" y="134.994" fill="#FCFADF" width="6" height="6"/>
	<rect x="159" y="117.029" fill="#D9C47D" width="6" height="6"/>
	<rect x="165" y="117.029" fill="#FFF496" width="6" height="6"/>
	<rect x="165" y="111.029" fill="#FFF496" width="6" height="6"/>
	<rect x="171" y="111.029" fill="#FCFADF" width="6" height="6"/>
	<rect x="165" y="123.029" fill="#FCFADF" width="6" height="6"/>
	<rect x="171" y="123.029" fill="#FFF496" width="6" height="6"/>
	<rect x="171" y="117.029" fill="#FCFADF" width="6" height="6"/>
	<rect x="171" y="129.029" fill="#FCFADF" width="6" height="6"/>
	<rect x="171" y="134.994" fill="#FFF496" width="6" height="6"/>
	<rect x="171" y="147.006" fill="#FFF496" width="6" height="6"/>
	<rect x="171" y="153.006" fill="#FCFADF" width="6" height="6"/>
	<rect x="165" y="147.006" fill="#82796C" width="6" height="6"/>
	<rect x="165" y="141.006" fill="#82796C" width="6" height="6"/>
	<rect x="171" y="141.006" fill="#82796C" width="6" height="6"/>
	<rect x="165" y="153.006" fill="#FFF496" width="6" height="6"/>
	<rect x="171" y="158.971" fill="#D9C47D" width="6" height="6"/>
	<rect x="177" y="153.006" fill="#FFF496" width="6" height="6"/>
	<rect x="183" y="158.967" fill="#FCFADF" width="6" height="6"/>
	<rect x="177" y="158.971" fill="#FFF496" width="6" height="6"/>
	<rect x="165" y="158.971" fill="#FCFADF" width="6" height="6"/>
	<rect x="171" y="164.971" fill="#FCFADF" width="6" height="6"/>
	<rect x="177" y="164.971" fill="#FFF496" width="6" height="6"/>
	<rect x="177" y="170.971" fill="#FFF496" width="6" height="6"/>
	<rect x="183" y="170.971" fill="#D9C47D" width="6" height="6"/>
	<rect x="177" y="146.979" fill="#FCFADF" width="6" height="6"/>
	<rect x="177" y="123.018" fill="#FCFADF" width="6" height="6"/>
	<rect x="165" y="164.971" fill="#FFF496" width="6" height="6"/>
	<rect x="153" y="123.029" fill="#F1789C" width="6" height="6"/>
	<rect x="159" y="123.029" fill="#FFF496" width="6" height="6"/>
</g>
</svg>
