<?xml version="1.0" encoding="utf-8"?>
<!-- Generator: Adobe Illustrator 16.0.0, SVG Export Plug-In . SVG Version: 6.00 Build 0)  -->
<!DOCTYPE svg PUBLIC "-//W3C//DTD SVG 1.1//EN" "http://www.w3.org/Graphics/SVG/1.1/DTD/svg11.dtd">
<svg version="1.1" id="Layer_1" xmlns="http://www.w3.org/2000/svg" xmlns:xlink="http://www.w3.org/1999/xlink" x="0px" y="0px"
	 width="300px" height="300px" viewBox="0 0 300 300" enable-background="new 0 0 300 300" xml:space="preserve">
<g>
	<rect x="135" y="179.957" fill="#472731" width="6" height="6"/>
	<rect x="129" y="179.957" fill="#613A45" width="6" height="6"/>
	<rect x="165" y="179.957" fill="#472731" width="6" height="6"/>
	<rect x="159" y="179.945" fill="#EFD1B8" width="6" height="6"/>
	<rect x="141" y="191.957" fill="#613A45" width="6" height="6"/>
	<rect x="147" y="191.957" fill="#472731" width="6" height="6"/>
	<rect x="159" y="191.957" fill="#613A45" width="6" height="6"/>
	<rect x="153" y="191.957" fill="#472731" width="6" height="6"/>
	<rect x="135" y="191.957" fill="#613A45" width="6" height="6"/>
	<rect x="129" y="191.957" fill="#613A45" width="6" height="6"/>
	<rect x="123" y="191.957" fill="#613A45" width="6" height="6"/>
	<rect x="165" y="191.957" fill="#613A45" width="6" height="6"/>
	<rect x="171" y="191.957" fill="#613A45" width="6" height="6"/>
	<rect x="177" y="191.957" fill="#613A45" width="6" height="6"/>
	<rect x="183" y="191.957" fill="#613A45" width="6" height="6"/>
	<rect x="141" y="203.957" fill="#613A45" width="6" height="6"/>
	<rect x="147" y="203.957" fill="#613A45" width="6" height="6"/>
	<rect x="159" y="203.957" fill="#613A45" width="6" height="6"/>
	<rect x="153" y="203.957" fill="#613A45" width="6" height="6"/>
	<rect x="135" y="203.957" fill="#613A45" width="6" height="6"/>
	<rect x="129" y="203.957" fill="#472731" width="6" height="6"/>
	<rect x="123" y="203.957" fill="#613A45" width="6" height="6"/>
	<rect x="165" y="203.957" fill="#472731" width="6" height="6"/>
	<rect x="171" y="203.957" fill="#613A45" width="6" height="6"/>
	<rect x="177" y="203.957" fill="#613A45" width="6" height="6"/>
	<rect x="183" y="203.957" fill="#613A45" width="6" height="6"/>
	<rect x="141" y="185.957" fill="#472731" width="6" height="6"/>
	<rect x="147" y="185.957" fill="#EFD1B8" width="6" height="6"/>
	<rect x="159" y="185.957" fill="#472731" width="6" height="6"/>
	<rect x="153" y="185.957" fill="#EFD1B8" width="6" height="6"/>
	<rect x="135" y="185.957" fill="#613A45" width="6" height="6"/>
	<rect x="129" y="185.957" fill="#613A45" width="6" height="6"/>
	<rect x="123" y="185.957" fill="#613A45" width="6" height="6"/>
	<rect x="165" y="185.957" fill="#613A45" width="6" height="6"/>
	<rect x="171" y="185.949" fill="#613A45" width="6" height="6"/>
	<rect x="177" y="185.957" fill="#613A45" width="6" height="6"/>
	<rect x="141" y="197.957" fill="#613A45" width="6" height="6"/>
	<rect x="147" y="197.957" fill="#613A45" width="6" height="6"/>
	<rect x="159" y="197.957" fill="#613A45" width="6" height="6"/>
	<rect x="153" y="197.957" fill="#613A45" width="6" height="6"/>
	<rect x="135" y="197.957" fill="#613A45" width="6" height="6"/>
	<rect x="129" y="197.957" fill="#613A45" width="6" height="6"/>
	<rect x="123" y="197.957" fill="#613A45" width="6" height="6"/>
	<rect x="117" y="191.957" fill="#613A45" width="6" height="6"/>
	<rect x="117" y="203.957" fill="#613A45" width="6" height="6"/>
	<rect x="117" y="197.957" fill="#613A45" width="6" height="6"/>
	<rect x="165" y="197.957" fill="#613A45" width="6" height="6"/>
	<rect x="171" y="197.957" fill="#613A45" width="6" height="6"/>
	<rect x="177" y="197.957" fill="#613A45" width="6" height="6"/>
	<rect x="183" y="197.957" fill="#613A45" width="6" height="6"/>
	<rect x="129" y="96.043" fill="#3C2415" width="6" height="6"/>
	<rect x="135" y="96.043" fill="#3E2D02" width="6" height="6"/>
	<rect x="129" y="90.043" fill="#603913" width="6" height="6"/>
	<rect x="135" y="90.043" fill="#3E2D02" width="6" height="6"/>
	<rect x="141" y="90.043" fill="#603913" width="6" height="6"/>
	<rect x="147" y="90.043" fill="#3E2D02" width="6" height="6"/>
	<rect x="123" y="96.043" fill="#3C2415" width="6" height="6"/>
	<rect x="141" y="96.043" fill="#3C2415" width="6" height="6"/>
	<rect x="147" y="96.043" fill="#3E2D02" width="6" height="6"/>
	<rect x="123" y="108.031" fill="#231F20" width="6" height="6"/>
	<rect x="129" y="108.031" fill="#231F20" width="6" height="6"/>
	<rect x="135" y="108.031" fill="#3E2D02" width="6" height="6"/>
	<rect x="141" y="108.031" fill="#3C2415" width="6" height="6"/>
	<rect x="147" y="108.031" fill="#231F20" width="6" height="6"/>
	<rect x="153" y="108.031" fill="#231F20" width="6" height="6"/>
	<rect x="123" y="114.031" fill="#D7BFAA" width="6" height="6"/>
	<rect x="129" y="114.031" fill="#EFD1B8" width="6" height="6"/>
	<rect x="135" y="114.031" fill="#EFD1B8" width="6" height="6"/>
	<rect x="141" y="114.031" fill="#EFD1B8" width="6" height="6"/>
	<rect x="147" y="114.031" fill="#EED0C6" width="6" height="6"/>
	<rect x="153" y="114.031" fill="#EED0C6" width="6" height="6"/>
	<rect x="123" y="120.031" fill="#F7E0CF" width="6" height="6"/>
	<rect x="129" y="120.031" fill="#D7BFAA" width="6" height="6"/>
	<rect x="123" y="126.008" fill="#EFD1B8" width="6" height="6"/>
	<rect x="129" y="126.008" fill="#5F3529" width="6" height="6"/>
	<rect x="123" y="137.969" fill="#EFD1B8" width="6" height="6"/>
	<rect x="129" y="137.969" fill="#3B2314" width="6" height="6"/>
	<rect x="123" y="143.98" fill="#EFD1B8" width="6" height="6"/>
	<rect x="129" y="143.98" fill="#EFCFC0" width="6" height="6"/>
	<rect x="123" y="149.969" fill="#634B1C" width="6" height="6"/>
	<rect x="117" y="143.98" fill="#EFD1B8" width="6" height="6"/>
	<rect x="111" y="143.98" fill="#EED0C6" width="6" height="6"/>
	<rect x="117" y="137.98" fill="#EED0C6" width="6" height="6"/>
	<rect x="129" y="149.969" fill="#8B5E3C" width="6" height="6"/>
	<rect x="141" y="149.969" fill="#8B5E3C" width="6" height="6"/>
	<rect x="135" y="149.969" fill="#A97C50" width="6" height="6"/>
	<rect x="147" y="149.969" fill="#A97C50" width="6" height="6"/>
	<rect x="159" y="149.969" fill="#C49A6C" width="6" height="6"/>
	<rect x="153" y="149.969" fill="#A97C50" width="6" height="6"/>
	<rect x="141" y="155.957" fill="#FFFFFF" width="6" height="6"/>
	<rect x="135" y="155.957" fill="#FFFFFF" width="6" height="6"/>
	<rect x="147" y="155.957" fill="#FFFFFF" width="6" height="6"/>
	<rect x="153" y="155.957" fill="#BB807B" width="6" height="6"/>
	<rect x="141" y="161.945" fill="#D28F8C" width="6" height="6"/>
	<rect x="135" y="161.945" fill="#D28F8C" width="6" height="6"/>
	<rect x="147" y="161.945" fill="#BB807B" width="6" height="6"/>
	<rect x="153" y="161.945" fill="#8B5E3C" width="6" height="6"/>
	<rect x="141" y="167.945" fill="#8B5E3C" width="6" height="6"/>
	<rect x="135" y="167.945" fill="#634B1C" width="6" height="6"/>
	<rect x="147" y="167.945" fill="#8B5E3C" width="6" height="6"/>
	<rect x="141" y="173.945" fill="#C49A6C" width="6" height="6"/>
	<rect x="147" y="173.945" fill="#C49A6C" width="6" height="6"/>
	<rect x="153" y="173.945" fill="#D7BFAA" width="6" height="6"/>
	<rect x="141" y="179.914" fill="#D7BFAA" width="6" height="6"/>
	<rect x="147" y="179.914" fill="#D7BFAA" width="6" height="6"/>
	<rect x="153" y="179.914" fill="#EFD1B8" width="6" height="6"/>
	<rect x="159" y="168.051" fill="#D7BFAA" width="6" height="6"/>
	<rect x="159" y="174.02" fill="#EFD1B8" width="6" height="6"/>
	<rect x="153" y="167.945" fill="#C49A6C" width="6" height="6"/>
	<rect x="165" y="149.969" fill="#EFD1B8" width="6" height="6"/>
	<rect x="159" y="143.98" fill="#C49A6C" width="6" height="6"/>
	<rect x="165" y="143.98" fill="#EFD1B8" width="6" height="6"/>
	<rect x="159" y="161.945" fill="#C49A6C" width="6" height="6"/>
	<rect x="159" y="155.957" fill="#C49A6C" width="6" height="6"/>
	<rect x="159" y="137.969" fill="#3E2D02" width="6" height="6"/>
	<rect x="165" y="137.969" fill="#E5B29B" width="6" height="6"/>
	<rect x="159" y="126.008" fill="#231F20" width="6" height="6"/>
	<rect x="165" y="126.008" fill="#231F20" width="6" height="6"/>
	<rect x="171" y="143.941" fill="#EFD1B8" width="6" height="6"/>
	<rect x="171" y="137.953" fill="#EFD1B8" width="6" height="6"/>
	<rect x="135" y="120.031" fill="#D7BFAA" width="6" height="6"/>
	<rect x="141" y="120.031" fill="#EFD1B8" width="6" height="6"/>
	<rect x="147" y="120.031" fill="#EED0C6" width="6" height="6"/>
	<rect x="153" y="120.031" fill="#231F20" width="6" height="6"/>
	<rect x="135" y="126.008" fill="#6E3E31" width="6" height="6"/>
	<rect x="141" y="126.008" fill="#EFD1B8" width="6" height="6"/>
	<rect x="147" y="126.008" fill="#EFD1B8" width="6" height="6"/>
	<rect x="153" y="126.008" fill="#231F20" width="6" height="6"/>
	<rect x="123" y="131.98" fill="#EFD1B8" width="6" height="6"/>
	<rect x="129" y="131.98" fill="#EFD1B8" width="6" height="6"/>
	<rect x="159" y="131.98" fill="#231F20" width="6" height="6"/>
	<rect x="165" y="131.98" fill="#3E2D02" width="6" height="6"/>
	<rect x="135" y="131.98" fill="#EFD1B8" width="6" height="6"/>
	<rect x="141" y="131.98" fill="#EFD1B8" width="6" height="6"/>
	<rect x="147" y="131.98" fill="#EFD1B8" width="6" height="6"/>
	<rect x="153" y="131.98" fill="#EFD1B8" width="6" height="6"/>
	<rect x="135" y="137.969" fill="#FFFFFF" width="6" height="6"/>
	<rect x="141" y="137.969" fill="#EFD1B8" width="6" height="6"/>
	<rect x="147" y="137.969" fill="#EFD1B8" width="6" height="6"/>
	<rect x="153" y="137.969" fill="#EFD1B8" width="6" height="6"/>
	<rect x="135" y="143.969" fill="#EED0C6" width="6" height="6"/>
	<rect x="141" y="143.969" fill="#EFCFC0" width="6" height="6"/>
	<rect x="147" y="143.969" fill="#EFD1B8" width="6" height="6"/>
	<rect x="153" y="143.969" fill="#D7BFAA" width="6" height="6"/>
	<rect x="159" y="108.031" fill="#3C2415" width="6" height="6"/>
	<rect x="165" y="108.031" fill="#3E2D02" width="6" height="6"/>
	<rect x="123" y="102.043" fill="#3C2415" width="6" height="6"/>
	<rect x="129" y="102.043" fill="#231F20" width="6" height="6"/>
	<rect x="135" y="102.043" fill="#3C2415" width="6" height="6"/>
	<rect x="141" y="102.043" fill="#3E2D02" width="6" height="6"/>
	<rect x="147" y="102.043" fill="#3C2415" width="6" height="6"/>
	<rect x="153" y="102.043" fill="#3E2D02" width="6" height="6"/>
	<rect x="159" y="102.043" fill="#3C2415" width="6" height="6"/>
	<rect x="153" y="96.043" fill="#3C2415" width="6" height="6"/>
	<rect x="153" y="90.043" fill="#603913" width="6" height="6"/>
	<rect x="159" y="96.043" fill="#603913" width="6" height="6"/>
	<rect x="165" y="102.043" fill="#603913" width="6" height="6"/>
	<rect x="171" y="108.031" fill="#603913" width="6" height="6"/>
	<rect x="159" y="114.031" fill="#231F20" width="6" height="6"/>
	<rect x="165" y="114.031" fill="#3C2415" width="6" height="6"/>
	<rect x="159" y="120.031" fill="#231F20" width="6" height="6"/>
	<rect x="165" y="120.031" fill="#3E2D02" width="6" height="6"/>
	<rect x="171" y="131.98" fill="#EFD1B8" width="6" height="6"/>
	<rect x="171" y="114.031" fill="#3E2D02" width="6" height="6"/>
	<rect x="171" y="120.031" fill="#231F20" width="6" height="6"/>
	<rect x="171" y="126.008" fill="#3E2D02" width="6" height="6"/>
</g>
</svg>
