<?xml version="1.0" encoding="utf-8"?>
<!-- Generator: Adobe Illustrator 16.0.0, SVG Export Plug-In . SVG Version: 6.00 Build 0)  -->
<!DOCTYPE svg PUBLIC "-//W3C//DTD SVG 1.1//EN" "http://www.w3.org/Graphics/SVG/1.1/DTD/svg11.dtd">
<svg version="1.1" id="Layer_1" xmlns="http://www.w3.org/2000/svg" xmlns:xlink="http://www.w3.org/1999/xlink" x="0px" y="0px"
	 width="300px" height="300px" viewBox="0 0 300 300" enable-background="new 0 0 300 300" xml:space="preserve">
<g>
	<rect x="126" y="114.027" fill="#EFD1B8" width="6" height="6"/>
	<rect x="132" y="114.027" fill="#EFD1B8" width="6" height="6"/>
	<rect x="138" y="114.027" fill="#EFD1B8" width="6" height="6"/>
	<rect x="144" y="114.027" fill="#EED0C6" width="6" height="6"/>
	<rect x="150" y="114.027" fill="#D7BFAA" width="6" height="6"/>
	<rect x="120" y="120.027" fill="#EED0C6" width="6" height="6"/>
	<rect x="126" y="120.027" fill="#3C2415" width="6" height="6"/>
	<rect x="132" y="120.027" fill="#9B8579" width="6" height="6"/>
	<rect x="138" y="120.027" fill="#EFD1B8" width="6" height="6"/>
	<rect x="144" y="120.027" fill="#EFD1B8" width="6" height="6"/>
	<rect x="150" y="120.027" fill="#EFD1B8" width="6" height="6"/>
	<rect x="120" y="126.027" fill="#561324" width="6" height="6"/>
	<rect x="126" y="126.027" fill="#561324" width="6" height="6"/>
	<rect x="120" y="132.004" fill="#561324" width="6" height="6"/>
	<rect x="126" y="132.004" fill="#7F95A5" width="6" height="6"/>
	<rect x="120" y="137.996" fill="#EFD1B8" width="6" height="6"/>
	<rect x="126" y="137.996" fill="#561324" width="6" height="6"/>
	<rect x="120" y="144.004" fill="#EFD1B8" width="6" height="6"/>
	<rect x="126" y="144.004" fill="#EFD1B8" width="6" height="6"/>
	<rect x="120" y="149.988" fill="#5F3529" width="6" height="6"/>
	<rect x="114" y="143.98" fill="#EFD1B8" width="6" height="6"/>
	<rect x="114" y="137.98" fill="#EED0C6" width="6" height="6"/>
	<rect x="108" y="143.98" fill="#EFD1B8" width="6" height="6"/>
	<rect x="126" y="149.988" fill="#8B5E3C" width="6" height="6"/>
	<rect x="138" y="149.988" fill="#8B5E3C" width="6" height="6"/>
	<rect x="132" y="149.988" fill="#8B5E3C" width="6" height="6"/>
	<rect x="144" y="149.988" fill="#EFCFC0" width="6" height="6"/>
	<rect x="156" y="149.988" fill="#D7BFAA" width="6" height="6"/>
	<rect x="150" y="149.988" fill="#EFD1B8" width="6" height="6"/>
	<rect x="138" y="155.98" fill="#FFFFFF" width="6" height="6"/>
	<rect x="132" y="155.98" fill="#FFFFFF" width="6" height="6"/>
	<rect x="126" y="155.98" fill="#FFFFFF" width="6" height="6"/>
	<rect x="144" y="155.98" fill="#8B5E3C" width="6" height="6"/>
	<rect x="150" y="155.98" fill="#EFCFC0" width="6" height="6"/>
	<rect x="138" y="161.965" fill="#D28F8C" width="6" height="6"/>
	<rect x="132" y="161.965" fill="#D28F8C" width="6" height="6"/>
	<rect x="144" y="161.965" fill="#8B5E3C" width="6" height="6"/>
	<rect x="150" y="161.965" fill="#EFCFC0" width="6" height="6"/>
	<rect x="138" y="167.965" fill="#95681C" width="6" height="6"/>
	<rect x="132" y="167.965" fill="#906B22" width="6" height="6"/>
	<rect x="126" y="161.965" fill="#D28F8C" width="6" height="6"/>
	<rect x="126" y="167.965" fill="#603913" width="6" height="6"/>
	<rect x="144" y="167.965" fill="#D7BFAA" width="6" height="6"/>
	<rect x="138" y="173.965" fill="#D7BFAA" width="6" height="6"/>
	<rect x="144" y="173.965" fill="#D7BFAA" width="6" height="6"/>
	<rect x="150" y="173.965" fill="#EEBFA2" width="6" height="6"/>
	<rect x="150" y="167.965" fill="#D7BFAA" width="6" height="6"/>
	<rect x="156" y="167.965" fill="#D7BFAA" width="6" height="6"/>
	<rect x="156" y="173.965" fill="#EEBFA2" width="6" height="6"/>
	<rect x="162" y="173.965" fill="#FFFFFF" width="6" height="6"/>
	<rect x="162" y="167.965" fill="#EEBFA2" width="6" height="6"/>
	<rect x="132" y="173.965" fill="#D7BFAA" width="6" height="6"/>
	<rect x="168" y="173.965" fill="#774060" width="6" height="6"/>
	<rect x="174" y="173.965" fill="#633760" width="6" height="6"/>
	<rect x="168" y="167.965" fill="#FFFFFF" width="6" height="6"/>
	<rect x="174" y="167.965" fill="#774060" width="6" height="6"/>
	<rect x="180" y="167.965" fill="#774060" width="6" height="6"/>
	<rect x="138" y="185.965" fill="#774060" width="6" height="6"/>
	<rect x="144" y="185.965" fill="#FFFFFF" width="6" height="6"/>
	<rect x="156" y="185.965" fill="#FFFFFF" width="6" height="6"/>
	<rect x="150" y="185.965" fill="#FFFFFF" width="6" height="6"/>
	<rect x="138" y="179.965" fill="#FFFFFF" width="6" height="6"/>
	<rect x="150" y="179.965" fill="#EFD1B8" width="6" height="6"/>
	<rect x="144" y="179.965" fill="#EEBFA2" width="6" height="6"/>
	<rect x="162" y="179.965" fill="#FFFFFF" width="6" height="6"/>
	<rect x="156" y="179.965" fill="#EFD1B8" width="6" height="6"/>
	<rect x="132" y="185.965" fill="#633760" width="6" height="6"/>
	<rect x="132" y="191.965" fill="#774060" width="6" height="6"/>
	<rect x="126" y="185.965" fill="#774E6F" width="6" height="6"/>
	<rect x="120" y="185.965" fill="#774060" width="6" height="6"/>
	<rect x="162" y="185.965" fill="#774060" width="6" height="6"/>
	<rect x="168" y="185.965" fill="#633760" width="6" height="6"/>
	<rect x="174" y="185.965" fill="#774E6F" width="6" height="6"/>
	<rect x="180" y="185.965" fill="#774060" width="6" height="6"/>
	<rect x="138" y="197.965" fill="#774E6F" width="6" height="6"/>
	<rect x="144" y="197.965" fill="#633760" width="6" height="6"/>
	<rect x="156" y="197.965" fill="#633760" width="6" height="6"/>
	<rect x="150" y="197.965" fill="#774060" width="6" height="6"/>
	<rect x="132" y="197.965" fill="#774060" width="6" height="6"/>
	<rect x="126" y="197.965" fill="#774E6F" width="6" height="6"/>
	<rect x="120" y="197.965" fill="#561324" width="6" height="6"/>
	<rect x="162" y="197.965" fill="#774E6F" width="6" height="6"/>
	<rect x="168" y="197.965" fill="#561324" width="6" height="6"/>
	<rect x="174" y="197.965" fill="#774E6F" width="6" height="6"/>
	<rect x="180" y="197.965" fill="#774060" width="6" height="6"/>
	<rect x="132" y="179.965" fill="#774060" width="6" height="6"/>
	<rect x="126" y="179.965" fill="#633760" width="6" height="6"/>
	<rect x="126" y="173.965" fill="#774060" width="6" height="6"/>
	<rect x="120.5" y="174.547" fill="#774060" width="6" height="6"/>
	<rect x="120" y="179.965" fill="#633760" width="6" height="6"/>
	<rect x="168" y="179.965" fill="#774060" width="6" height="6"/>
	<rect x="174" y="179.965" fill="#633760" width="6" height="6"/>
	<rect x="180" y="179.965" fill="#774060" width="6" height="6"/>
	<rect x="138" y="191.965" fill="#633760" width="6" height="6"/>
	<rect x="144" y="191.965" fill="#774060" width="6" height="6"/>
	<rect x="156" y="191.965" fill="#774060" width="6" height="6"/>
	<rect x="150" y="191.965" fill="#FFFFFF" width="6" height="6"/>
	<rect x="132" y="191.965" fill="#774060" width="6" height="6"/>
	<rect x="126" y="191.965" fill="#774E6F" width="6" height="6"/>
	<rect x="120" y="191.965" fill="#774060" width="6" height="6"/>
	<rect x="114" y="185.965" fill="#774E6F" width="6" height="6"/>
	<rect x="114" y="179.965" fill="#774E6F" width="6" height="6"/>
	<rect x="114" y="197.965" fill="#774E6F" width="6" height="6"/>
	<rect x="114" y="191.965" fill="#774E6F" width="6" height="6"/>
	<rect x="108" y="185.965" fill="#774060" width="6" height="6"/>
	<rect x="108" y="197.965" fill="#774060" width="6" height="6"/>
	<rect x="108" y="191.965" fill="#774060" width="6" height="6"/>
	<rect x="162" y="191.965" fill="#633760" width="6" height="6"/>
	<rect x="168" y="191.965" fill="#774060" width="6" height="6"/>
	<rect x="174" y="191.965" fill="#774E6F" width="6" height="6"/>
	<rect x="180" y="191.965" fill="#774060" width="6" height="6"/>
	<rect x="186" y="185.965" fill="#774E6F" width="6" height="6"/>
	<rect x="186" y="197.965" fill="#774E6F" width="6" height="6"/>
	<rect x="186" y="191.965" fill="#774E6F" width="6" height="6"/>
	<rect x="162" y="149.988" fill="#D7BFAA" width="6" height="6"/>
	<rect x="156" y="144.004" fill="#D7BFAA" width="6" height="6"/>
	<rect x="162" y="144.004" fill="#D7BFAA" width="6" height="6"/>
	<rect x="156" y="161.965" fill="#D7BFAA" width="6" height="6"/>
	<rect x="162" y="161.965" fill="#D7BFAA" width="6" height="6"/>
	<rect x="156" y="155.98" fill="#D7BFAA" width="6" height="6"/>
	<rect x="162" y="155.98" fill="#D7BFAA" width="6" height="6"/>
	<rect x="168" y="149.988" fill="#D7BFAA" width="6" height="6"/>
	<rect x="168" y="161.965" fill="#D7BFAA" width="6" height="6"/>
	<rect x="168" y="155.98" fill="#D7BFAA" width="6" height="6"/>
	<rect x="156" y="137.988" fill="#EFD1B8" width="6" height="6"/>
	<rect x="162" y="137.988" fill="#D7BFAA" width="6" height="6"/>
	<rect x="156" y="132.004" fill="#EFD1B8" width="6" height="6"/>
	<rect x="162" y="132.004" fill="#D7BFAA" width="6" height="6"/>
	<rect x="168" y="143.98" fill="#EFD1B8" width="6" height="6"/>
	<rect x="168" y="137.992" fill="#EEBFA2" width="6" height="6"/>
	<rect x="132" y="126.027" fill="#561324" width="6" height="6"/>
	<rect x="138" y="126.027" fill="#561324" width="6" height="6"/>
	<rect x="144" y="126.027" fill="#B69C53" width="6" height="6"/>
	<rect x="150" y="126.027" fill="#561324" width="6" height="6"/>
	<rect x="132" y="132.004" fill="#AA6D2D" width="6" height="6"/>
	<rect x="138" y="132.004" fill="#43251B" width="6" height="6"/>
	<rect x="132" y="132.004" fill="#FFFFFF" width="6" height="6"/>
	<rect x="144" y="132.004" fill="#EFD1B8" width="6" height="6"/>
	<rect x="150" y="132.004" fill="#EFD1B8" width="6" height="6"/>
	<rect x="132" y="137.996" fill="#561324" width="6" height="6"/>
	<rect x="138" y="137.996" fill="#EFD1B8" width="6" height="6"/>
	<rect x="144" y="137.996" fill="#EED0C6" width="6" height="6"/>
	<rect x="150" y="137.988" fill="#EED0C6" width="6" height="6"/>
	<rect x="132" y="143.988" fill="#EFD1B8" width="6" height="6"/>
	<rect x="138" y="143.988" fill="#EEE3E0" width="6" height="6"/>
	<rect x="144" y="143.988" fill="#EED0C6" width="6" height="6"/>
	<rect x="150" y="143.988" fill="#EFD1B8" width="6" height="6"/>
	<rect x="156" y="114.027" fill="#D7BFAA" width="6" height="6"/>
	<rect x="162" y="114.027" fill="#D7BFAA" width="6" height="6"/>
	<rect x="120" y="114.027" fill="#EFD1B8" width="6" height="6"/>
	<rect x="120" y="108.035" fill="#EFD1B8" width="6" height="6"/>
	<polygon fill="#EFD1B8" points="126,114.16 132,114.035 132,108.035 126,108.16 	"/>
	<rect x="126" y="102.035" fill="#EFD1B8" width="6" height="6"/>
	<rect x="132" y="96.035" fill="#EFD1B8" width="6" height="6"/>
	<rect x="132" y="102.035" fill="#EFD1B8" width="6" height="6"/>
	<rect x="138" y="102.035" fill="#EFD1B8" width="6" height="6"/>
	<rect x="144" y="102.035" fill="#EFD1B8" width="6" height="6"/>
	<rect x="150" y="102.035" fill="#EFD1B8" width="6" height="6"/>
	<rect x="156" y="108.035" fill="#D7BFAA" width="6" height="6"/>
	<rect x="156" y="102.035" fill="#EFD1B8" width="6" height="6"/>
	<rect x="138" y="96.035" fill="#EFD1B8" width="6" height="6"/>
	<rect x="144" y="96.035" fill="#EFD1B8" width="6" height="6"/>
	<rect x="150" y="96.035" fill="#EFD1B8" width="6" height="6"/>
	<rect x="156.004" y="96.035" fill="#EFD1B8" width="6" height="6"/>
	<rect x="162" y="108.035" fill="#D7BFAA" width="6" height="6"/>
	<rect x="132" y="108.035" fill="#EFD1B8" width="6" height="6"/>
	<rect x="138" y="108.035" fill="#EED0C6" width="6" height="6"/>
	<rect x="144" y="108.035" fill="#EEE3E0" width="6" height="6"/>
	<rect x="150" y="108.035" fill="#EFD1B8" width="6" height="6"/>
	<rect x="156" y="120.027" fill="#D7BFAA" width="6" height="6"/>
	<rect x="162" y="120.027" fill="#D7BFAA" width="6" height="6"/>
	<rect x="156" y="126.027" fill="#561324" width="6" height="6"/>
	<rect x="162" y="126.027" fill="#561324" width="6" height="6"/>
	<rect x="168" y="126.027" fill="#561324" width="6" height="6"/>
	<rect x="168" y="114.027" fill="#D7BFAA" width="6" height="6"/>
	<rect x="168" y="108.035" fill="#D7BFAA" width="6" height="6"/>
	<rect x="162" y="102.035" fill="#D7BFAA" width="6" height="6"/>
	<rect x="168" y="120.027" fill="#D7BFAA" width="6" height="6"/>
	<rect x="168" y="132.016" fill="#EFD1B8" width="6" height="6"/>
	<rect x="174" y="137.992" fill="#EFD1B8" width="6" height="6"/>
	<rect x="174" y="132.016" fill="#EEBFA2" width="6" height="6"/>
</g>
</svg>
