<?xml version="1.0" encoding="utf-8"?>
<!-- Generator: Adobe Illustrator 16.0.0, SVG Export Plug-In . SVG Version: 6.00 Build 0)  -->
<!DOCTYPE svg PUBLIC "-//W3C//DTD SVG 1.1//EN" "http://www.w3.org/Graphics/SVG/1.1/DTD/svg11.dtd">
<svg version="1.1" id="Layer_1" xmlns="http://www.w3.org/2000/svg" xmlns:xlink="http://www.w3.org/1999/xlink" x="0px" y="0px"
	 width="300px" height="300px" viewBox="0 0 300 300" enable-background="new 0 0 300 300" xml:space="preserve">
<g>
	<rect x="138.75" y="194.927" fill="#EFD1B8" width="7.5" height="7.5"/>
	<rect x="146.25" y="194.927" fill="#EFD1B8" width="7.5" height="7.5"/>
	<rect x="161.25" y="194.927" fill="#F7E0CF" width="7.5" height="7.5"/>
	<rect x="153.75" y="194.927" fill="#EFD1B8" width="7.5" height="7.5"/>
	<rect x="131.25" y="194.927" fill="#F7E0CF" width="7.5" height="7.5"/>
	<rect x="123.75" y="194.927" fill="#2E3192" width="7.5" height="7.5"/>
	<rect x="168.75" y="194.927" fill="#2E3192" width="7.5" height="7.5"/>
	<rect x="176.25" y="194.927" fill="#2E3192" width="7.5" height="7.5"/>
	<rect x="138.75" y="202.427" fill="#F7E0CF" width="7.5" height="7.5"/>
	<rect x="146.25" y="202.427" fill="#EFD1B8" width="7.5" height="7.5"/>
	<rect x="161.25" y="202.427" fill="#EFD1B8" width="7.5" height="7.5"/>
	<rect x="153.75" y="202.427" fill="#F7E0CF" width="7.5" height="7.5"/>
	<rect x="131.25" y="202.427" fill="#EFD1B8" width="7.5" height="7.5"/>
	<rect x="123.75" y="202.427" fill="#2E3192" width="7.5" height="7.5"/>
	<rect x="123.75" y="194.927" fill="#2E3192" width="7.5" height="7.5"/>
	<rect x="116.25" y="202.427" fill="#2E3192" width="7.5" height="7.5"/>
	<rect x="168.75" y="202.427" fill="#2E3192" width="7.5" height="7.5"/>
	<rect x="176.25" y="202.427" fill="#2E3192" width="7.5" height="7.5"/>
	<rect x="183.75" y="202.427" fill="#2E3192" width="7.5" height="7.5"/>
	<rect x="138.75" y="209.927" fill="#EFD1B8" width="7.5" height="7.5"/>
	<rect x="146.25" y="209.927" fill="#EFD1B8" width="7.5" height="7.5"/>
	<rect x="161.25" y="209.927" fill="#2E3192" width="7.5" height="7.5"/>
	<rect x="153.75" y="209.927" fill="#EFD1B8" width="7.5" height="7.5"/>
	<rect x="131.25" y="209.927" fill="#2E3192" width="7.5" height="7.5"/>
	<rect x="123.75" y="209.927" fill="#2E3192" width="7.5" height="7.5"/>
	<rect x="116.25" y="209.927" fill="#2E3192" width="7.5" height="7.5"/>
	<rect x="168.75" y="209.927" fill="#2E3192" width="7.5" height="7.5"/>
	<rect x="176.25" y="209.927" fill="#2E3192" width="7.5" height="7.5"/>
	<rect x="183.75" y="209.927" fill="#2E3192" width="7.5" height="7.5"/>
	<rect x="191.25" y="209.927" fill="#2E3192" width="7.5" height="7.5"/>
	<rect x="138.75" y="217.427" fill="#2E3192" width="7.5" height="7.49"/>
	<rect x="146.25" y="217.427" fill="#2E3192" width="7.5" height="7.49"/>
	<rect x="161.25" y="217.427" fill="#2E3192" width="7.5" height="7.49"/>
	<rect x="153.75" y="217.427" fill="#2E3192" width="7.5" height="7.49"/>
	<rect x="131.25" y="217.427" fill="#2E3192" width="7.5" height="7.49"/>
	<rect x="123.75" y="217.427" fill="#2E3192" width="7.5" height="7.49"/>
	<rect x="116.25" y="217.427" fill="#262262" width="7.5" height="7.49"/>
	<rect x="108.75" y="209.927" fill="#2E3192" width="7.5" height="7.5"/>
	<rect x="108.75" y="217.427" fill="#2E3192" width="7.5" height="7.49"/>
	<rect x="168.75" y="217.427" fill="#2E3192" width="7.5" height="7.49"/>
	<rect x="176.25" y="217.427" fill="#262262" width="7.5" height="7.49"/>
	<rect x="183.75" y="217.427" fill="#2E3192" width="7.5" height="7.49"/>
	<rect x="191.25" y="217.427" fill="#2E3192" width="7.5" height="7.49"/>
	<rect x="123.75" y="82.583" fill="#E8E2B8" width="7.5" height="7.5"/>
	<rect x="131.25" y="82.583" fill="#FFFEF0" width="7.5" height="7.5"/>
	<rect x="138.75" y="82.583" fill="#FFFAD8" width="7.5" height="7.5"/>
	<rect x="146.25" y="82.583" fill="#FFFAD8" width="7.5" height="7.5"/>
	<rect x="116.25" y="97.573" fill="#E8E2B8" width="7.5" height="7.5"/>
	<rect x="123.75" y="97.573" fill="#EFD1B8" width="7.5" height="7.5"/>
	<rect x="131.25" y="97.573" fill="#EFD1B8" width="7.5" height="7.5"/>
	<rect x="138.75" y="97.573" fill="#EFD1B8" width="7.5" height="7.5"/>
	<rect x="146.25" y="97.573" fill="#FFFAD8" width="7.5" height="7.5"/>
	<rect x="153.75" y="97.573" fill="#FFFEF0" width="7.5" height="7.5"/>
	<rect x="116.25" y="105.073" fill="#F7E0CF" width="7.5" height="7.5"/>
	<rect x="108.75" y="97.573" fill="#FFFAD8" width="7.5" height="7.5"/>
	<rect x="123.75" y="105.073" fill="#EFD1B8" width="7.5" height="7.5"/>
	<rect x="131.25" y="105.073" fill="#EFD1B8" width="7.5" height="7.5"/>
	<rect x="138.75" y="105.073" fill="#EFD1B8" width="7.5" height="7.5"/>
	<rect x="146.25" y="105.073" fill="#FFFEF0" width="7.5" height="7.5"/>
	<rect x="153.75" y="105.073" fill="#FFFAD8" width="7.5" height="7.5"/>
	<rect x="116.25" y="112.573" fill="#EFD1B8" width="7.5" height="7.5"/>
	<rect x="123.75" y="112.573" fill="#F7E0CF" width="7.5" height="7.5"/>
	<rect x="116.25" y="120.044" fill="#EFD1B8" width="7.5" height="7.5"/>
	<rect x="123.75" y="120.044" fill="#FFFAD8" width="7.5" height="7.5"/>
	<rect x="116.25" y="134.995" fill="#EFD1B8" width="7.5" height="7.5"/>
	<rect x="123.75" y="134.995" fill="#3B2314" width="7.5" height="7.5"/>
	<rect x="116.25" y="142.505" fill="#EFD1B8" width="7.5" height="7.5"/>
	<rect x="123.75" y="142.505" fill="#F7E0CF" width="7.5" height="7.5"/>
	<rect x="116.25" y="149.995" fill="#EFD1B8" width="7.5" height="7.5"/>
	<rect x="108.75" y="142.505" fill="#EFD1B8" width="7.5" height="7.5"/>
	<rect x="101.25" y="142.505" fill="#EFD1B8" width="7.5" height="7.5"/>
	<rect x="108.75" y="135.005" fill="#F7E0CF" width="7.5" height="7.5"/>
	<rect x="123.75" y="149.995" fill="#EFD1B8" width="7.5" height="7.5"/>
	<rect x="138.75" y="149.995" fill="#EFD1B8" width="7.5" height="7.5"/>
	<rect x="131.25" y="149.995" fill="#EFD1B8" width="7.5" height="7.5"/>
	<rect x="146.25" y="149.995" fill="#F7E0CF" width="7.5" height="7.5"/>
	<rect x="161.25" y="149.995" fill="#EFD1B8" width="7.5" height="7.5"/>
	<rect x="153.75" y="149.995" fill="#EFD1B8" width="7.5" height="7.5"/>
	<rect x="138.75" y="157.476" fill="#FFFFFF" width="7.5" height="7.5"/>
	<rect x="131.25" y="157.476" fill="#FFFFFF" width="7.5" height="7.5"/>
	<rect x="146.25" y="157.476" fill="#D28F8C" width="7.5" height="7.5"/>
	<rect x="153.75" y="157.476" fill="#EFD1B8" width="7.5" height="7.5"/>
	<rect x="138.75" y="164.966" fill="#E5B29B" width="7.5" height="7.5"/>
	<rect x="131.25" y="164.966" fill="#E5B29B" width="7.5" height="7.5"/>
	<rect x="146.25" y="164.966" fill="#EFD1B8" width="7.5" height="7.5"/>
	<rect x="153.75" y="164.966" fill="#EFD1B8" width="7.5" height="7.5"/>
	<rect x="138.75" y="172.466" fill="#EFD1B8" width="7.5" height="7.5"/>
	<rect x="131.25" y="172.466" fill="#EFD1B8" width="7.5" height="7.5"/>
	<rect x="146.25" y="172.466" fill="#EFD1B8" width="7.5" height="7.5"/>
	<rect x="138.75" y="179.966" fill="#D7BFAA" width="7.5" height="7.5"/>
	<rect x="146.25" y="179.966" fill="#D7BFAA" width="7.5" height="7.5"/>
	<rect x="153.75" y="179.966" fill="#EFD1B8" width="7.5" height="7.5"/>
	<rect x="138.75" y="187.427" fill="#EFD1B8" width="7.5" height="7.5"/>
	<rect x="146.25" y="187.427" fill="#EFD1B8" width="7.5" height="7.5"/>
	<rect x="153.75" y="187.427" fill="#EFD1B8" width="7.5" height="7.5"/>
	<rect x="153.75" y="172.466" fill="#D7BFAA" width="7.5" height="7.5"/>
	<rect x="161.25" y="142.505" fill="#EFD1B8" width="7.5" height="7.5"/>
	<rect x="168.75" y="142.505" fill="#FFFFFF" width="7.5" height="7.5"/>
	<rect x="161.25" y="164.966" fill="#EFD1B8" width="7.5" height="7.5"/>
	<rect x="161.25" y="157.476" fill="#EFD1B8" width="7.5" height="7.5"/>
	<rect x="161.25" y="134.995" fill="#FFFEF0" width="7.5" height="7.5"/>
	<rect x="168.75" y="134.995" fill="#EFD1B8" width="7.5" height="7.5"/>
	<rect x="161.25" y="120.044" fill="#FFFEF0" width="7.5" height="7.5"/>
	<rect x="168.75" y="120.044" fill="#EFD1B8" width="7.5" height="7.5"/>
	<rect x="176.25" y="134.995" fill="#FFFAD8" width="7.5" height="7.5"/>
	<rect x="176.25" y="127.505" fill="#EFD1B8" width="7.5" height="7.5"/>
	<rect x="131.25" y="112.573" fill="#EFD1B8" width="7.5" height="7.5"/>
	<rect x="138.75" y="112.573" fill="#EFD1B8" width="7.5" height="7.5"/>
	<rect x="146.25" y="112.573" fill="#EFD1B8" width="7.5" height="7.5"/>
	<rect x="153.75" y="112.573" fill="#E8E2B8" width="7.5" height="7.5"/>
	<rect x="131.25" y="120.044" fill="#E8E2B8" width="7.5" height="7.5"/>
	<rect x="138.75" y="120.044" fill="#EFD1B8" width="7.5" height="7.5"/>
	<rect x="146.25" y="120.044" fill="#EFD1B8" width="7.5" height="7.5"/>
	<rect x="153.75" y="120.044" fill="#FFFAD8" width="7.5" height="7.5"/>
	<rect x="116.25" y="127.505" fill="#EFD1B8" width="7.5" height="7.5"/>
	<rect x="123.75" y="127.505" fill="#EFD1B8" width="7.5" height="7.5"/>
	<rect x="161.25" y="127.505" fill="#FFFAD8" width="7.5" height="7.5"/>
	<rect x="168.75" y="127.505" fill="#FFFEF0" width="7.5" height="7.5"/>
	<rect x="131.25" y="127.505" fill="#EFD1B8" width="7.5" height="7.5"/>
	<rect x="138.75" y="127.505" fill="#EFD1B8" width="7.5" height="7.5"/>
	<rect x="146.25" y="127.505" fill="#FFFAD8" width="7.5" height="7.5"/>
	<rect x="153.75" y="127.505" fill="#EFD1B8" width="7.5" height="7.5"/>
	<rect x="131.25" y="134.995" fill="#FFFFFF" width="7.5" height="7.5"/>
	<rect x="138.75" y="134.995" fill="#EFD1B8" width="7.5" height="7.5"/>
	<rect x="146.25" y="134.995" fill="#EFD1B8" width="7.5" height="7.5"/>
	<rect x="153.75" y="134.995" fill="#EFD1B8" width="7.5" height="7.5"/>
	<rect x="131.25" y="142.495" fill="#EFD1B8" width="7.5" height="7.5"/>
	<rect x="138.75" y="142.495" fill="#F7E0CF" width="7.5" height="7.5"/>
	<rect x="146.25" y="142.495" fill="#EFD1B8" width="7.5" height="7.5"/>
	<rect x="153.75" y="142.495" fill="#FFFAD8" width="7.5" height="7.5"/>
	<rect x="161.25" y="97.573" fill="#E8E2B8" width="7.5" height="7.5"/>
	<rect x="168.75" y="97.573" fill="#FFFAD8" width="7.5" height="7.5"/>
	<rect x="116.25" y="90.083" fill="#FFFAD8" width="7.5" height="7.5"/>
	<rect x="123.75" y="90.083" fill="#FFFEF0" width="7.5" height="7.5"/>
	<rect x="131.25" y="90.083" fill="#FFFAD8" width="7.5" height="7.5"/>
	<rect x="138.75" y="90.083" fill="#FFFAD8" width="7.5" height="7.5"/>
	<rect x="146.25" y="90.083" fill="#E8E2B8" width="7.5" height="7.5"/>
	<rect x="153.75" y="90.083" fill="#FFFAD8" width="7.5" height="7.5"/>
	<rect x="161.25" y="90.083" fill="#FFFAD8" width="7.5" height="7.5"/>
	<rect x="153.75" y="82.583" fill="#E8E2B8" width="7.5" height="7.5"/>
	<rect x="161.25" y="82.583" fill="#FFFAD8" width="7.5" height="7.5"/>
	<rect x="168.75" y="75.083" fill="#FFFAD8" width="7.5" height="7.5"/>
	<rect x="168.75" y="90.083" fill="#FFFAD8" width="7.5" height="7.5"/>
	<rect x="176.25" y="97.573" fill="#E8E2B8" width="7.5" height="7.5"/>
	<rect x="176.25" y="90.083" fill="#FFFAD8" width="7.5" height="7.5"/>
	<rect x="183.75" y="82.583" fill="#FFFAD8" width="7.5" height="7.5"/>
	<rect x="161.25" y="105.073" fill="#FFFAD8" width="7.5" height="7.5"/>
	<rect x="168.75" y="105.073" fill="#E8E2B8" width="7.5" height="7.5"/>
	<rect x="161.25" y="112.573" fill="#FFFAD8" width="7.5" height="7.5"/>
	<rect x="168.75" y="112.573" fill="#FFFEF0" width="7.5" height="7.5"/>
	<rect x="176.25" y="120.044" fill="#EFD1B8" width="7.5" height="7.5"/>
	<rect x="176.25" y="105.073" fill="#FFFAD8" width="7.5" height="7.5"/>
	<rect x="183.75" y="97.573" fill="#FFFAD8" width="7.5" height="7.5"/>
	<rect x="183.75" y="105.073" fill="#E8E2B8" width="7.5" height="7.5"/>
	<rect x="176.25" y="112.573" fill="#FFFAD8" width="7.5" height="7.5"/>
	<rect x="183.75" y="135.024" fill="#E8E2B8" width="7.5" height="7.5"/>
	<rect x="183.75" y="127.554" fill="#FFFAD8" width="7.5" height="7.5"/>
	<rect x="183.75" y="120.063" fill="#FFFAD8" width="7.5" height="7.5"/>
	<rect x="183.75" y="112.563" fill="#FFFAD8" width="7.5" height="7.5"/>
	<rect x="176.25" y="149.976" fill="#FFFAD8" width="7.5" height="7.5"/>
	<rect x="168.75" y="149.976" fill="#FFFAD8" width="7.5" height="7.5"/>
	<rect x="168.75" y="157.485" fill="#E8E2B8" width="7.5" height="7.5"/>
	<rect x="183.75" y="142.515" fill="#E8E2B8" width="7.5" height="7.5"/>
	<rect x="176.25" y="142.505" fill="#FFFAD8" width="7.5" height="7.5"/>
</g>
</svg>
