<?xml version="1.0" encoding="utf-8"?>
<!-- Generator: Adobe Illustrator 16.0.0, SVG Export Plug-In . SVG Version: 6.00 Build 0)  -->
<!DOCTYPE svg PUBLIC "-//W3C//DTD SVG 1.1//EN" "http://www.w3.org/Graphics/SVG/1.1/DTD/svg11.dtd">
<svg version="1.1" id="Layer_1" xmlns="http://www.w3.org/2000/svg" xmlns:xlink="http://www.w3.org/1999/xlink" x="0px" y="0px"
	 width="300px" height="300px" viewBox="0 0 300 300" enable-background="new 0 0 300 300" xml:space="preserve">
<g>
	<rect x="159" y="179.957" fill="#1C75BC" width="6" height="6"/>
	<rect x="135" y="179.957" fill="#1C75BC" width="6" height="6"/>
	<rect x="129" y="179.957" fill="#12558B" width="6" height="6"/>
	<rect x="135" y="173.973" fill="#1C75BC" width="6" height="6"/>
	<rect x="129" y="173.941" fill="#1C75BC" width="6" height="6"/>
	<rect x="123" y="173.941" fill="#1C75BC" width="6" height="6"/>
	<rect x="165" y="179.957" fill="#12558B" width="6" height="6"/>
	<rect x="159" y="173.941" fill="#1C75BC" width="6" height="6"/>
	<rect x="165" y="173.941" fill="#1C75BC" width="6" height="6"/>
	<rect x="171" y="173.941" fill="#1C75BC" width="6" height="6"/>
	<rect x="141" y="191.957" fill="#12558B" width="6" height="6"/>
	<rect x="147" y="191.957" fill="#1C75BC" width="6" height="6"/>
	<rect x="159" y="191.957" fill="#1C75BC" width="6" height="6"/>
	<rect x="153" y="191.957" fill="#12558B" width="6" height="6"/>
	<rect x="135" y="191.957" fill="#1C75BC" width="6" height="6"/>
	<rect x="129" y="191.957" fill="#1C75BC" width="6" height="6"/>
	<rect x="123" y="191.957" fill="#1C75BC" width="6" height="6"/>
	<rect x="165" y="191.957" fill="#1C75BC" width="6" height="6"/>
	<rect x="171" y="191.957" fill="#1C75BC" width="6" height="6"/>
	<rect x="177" y="191.957" fill="#1C75BC" width="6" height="6"/>
	<rect x="183" y="191.957" fill="#1C75BC" width="6" height="6"/>
	<rect x="141" y="203.957" fill="#1C75BC" width="6" height="6"/>
	<rect x="147" y="203.957" fill="#1C75BC" width="6" height="6"/>
	<rect x="159" y="203.957" fill="#1C75BC" width="6" height="6"/>
	<rect x="153" y="203.957" fill="#1C75BC" width="6" height="6"/>
	<rect x="135" y="203.957" fill="#1C75BC" width="6" height="6"/>
	<rect x="129" y="203.957" fill="#12558B" width="6" height="6"/>
	<rect x="123" y="203.957" fill="#AF865A" width="6" height="6"/>
	<rect x="165" y="203.957" fill="#12558B" width="6" height="6"/>
	<rect x="171" y="203.957" fill="#AF865A" width="6" height="6"/>
	<rect x="177" y="203.957" fill="#AF865A" width="6" height="6"/>
	<rect x="183" y="203.957" fill="#AF865A" width="6" height="6"/>
	<rect x="141" y="185.957" fill="#1C75BC" width="6" height="6"/>
	<rect x="147" y="185.957" fill="#AF865A" width="6" height="6"/>
	<rect x="159" y="185.957" fill="#12558B" width="6" height="6"/>
	<rect x="153" y="185.957" fill="#1C75BC" width="6" height="6"/>
	<rect x="135" y="185.957" fill="#12558B" width="6" height="6"/>
	<rect x="129" y="185.957" fill="#1C75BC" width="6" height="6"/>
	<rect x="123" y="185.957" fill="#1C75BC" width="6" height="6"/>
	<rect x="165" y="185.957" fill="#1C75BC" width="6" height="6"/>
	<rect x="171" y="185.949" fill="#1C75BC" width="6" height="6"/>
	<rect x="177" y="185.957" fill="#1C75BC" width="6" height="6"/>
	<rect x="141" y="197.957" fill="#1C75BC" width="6" height="6"/>
	<rect x="147" y="197.957" fill="#12558B" width="6" height="6"/>
	<rect x="159" y="197.957" fill="#FFFFFF" width="6" height="6"/>
	<rect x="153" y="197.957" fill="#1C75BC" width="6" height="6"/>
	<rect x="135" y="197.957" fill="#1C75BC" width="6" height="6"/>
	<rect x="129" y="197.957" fill="#1C75BC" width="6" height="6"/>
	<rect x="123" y="197.957" fill="#1C75BC" width="6" height="6"/>
	<rect x="117" y="191.957" fill="#1C75BC" width="6" height="6"/>
	<rect x="117" y="203.957" fill="#AF865A" width="6" height="6"/>
	<rect x="117" y="197.957" fill="#1C75BC" width="6" height="6"/>
	<rect x="165" y="197.957" fill="#00A651" width="6" height="6"/>
	<rect x="171" y="197.957" fill="#1C75BC" width="6" height="6"/>
	<rect x="177" y="197.957" fill="#1C75BC" width="6" height="6"/>
	<rect x="183" y="197.957" fill="#1C75BC" width="6" height="6"/>
	<rect x="129" y="90.043" fill="#231F20" width="6" height="6"/>
	<rect x="135" y="90.043" fill="#231F20" width="6" height="6"/>
	<rect x="141" y="90.043" fill="#231F20" width="6" height="6"/>
	<rect x="147" y="90.043" fill="#231F20" width="6" height="6"/>
	<rect x="123" y="102.027" fill="#AF865A" width="6" height="6"/>
	<rect x="129" y="102.027" fill="#AF865A" width="6" height="6"/>
	<rect x="135" y="102.027" fill="#AF865A" width="6" height="6"/>
	<rect x="141" y="102.027" fill="#AF865A" width="6" height="6"/>
	<rect x="147" y="102.027" fill="#AF865A" width="6" height="6"/>
	<rect x="153" y="102.027" fill="#231F20" width="6" height="6"/>
	<rect x="123" y="108.027" fill="#AF865A" width="6" height="6"/>
	<rect x="129" y="108.027" fill="#AF865A" width="6" height="6"/>
	<rect x="135" y="108.027" fill="#AF865A" width="6" height="6"/>
	<rect x="141" y="108.027" fill="#AF865A" width="6" height="6"/>
	<rect x="147" y="108.027" fill="#AF865A" width="6" height="6"/>
	<rect x="153" y="108.027" fill="#231F20" width="6" height="6"/>
	<rect x="123" y="114.027" fill="#B7976C" width="6" height="6"/>
	<rect x="129" y="114.027" fill="#B7976C" width="6" height="6"/>
	<rect x="123" y="120.004" fill="#AF865A" width="6" height="6"/>
	<rect x="129" y="120.004" fill="#231F20" width="6" height="6"/>
	<rect x="123" y="131.965" fill="#AF865A" width="6" height="6"/>
	<rect x="129" y="131.965" fill="#3B2314" width="6" height="6"/>
	<rect x="123" y="137.98" fill="#AF865A" width="6" height="6"/>
	<rect x="129" y="137.98" fill="#AF865A" width="6" height="6"/>
	<rect x="123" y="143.965" fill="#7C5C3C" width="6" height="6"/>
	<rect x="117" y="137.98" fill="#AF865A" width="6" height="6"/>
	<rect x="111" y="137.98" fill="#AF865A" width="6" height="6"/>
	<rect x="117" y="131.98" fill="#AF865A" width="6" height="6"/>
	<rect x="129" y="143.965" fill="#7C5C3C" width="6" height="6"/>
	<rect x="141" y="143.965" fill="#99694A" width="6" height="6"/>
	<rect x="135" y="143.965" fill="#7C5C3C" width="6" height="6"/>
	<rect x="147" y="143.965" fill="#B7976C" width="6" height="6"/>
	<rect x="159" y="143.965" fill="#AF865A" width="6" height="6"/>
	<rect x="153" y="143.965" fill="#AF865A" width="6" height="6"/>
	<rect x="141" y="149.957" fill="#FFFFFF" width="6" height="6"/>
	<rect x="135" y="149.957" fill="#FFFFFF" width="6" height="6"/>
	<rect x="147" y="149.957" fill="#FFFFFF" width="6" height="6"/>
	<rect x="153" y="149.957" fill="#AD6D67" width="6" height="6"/>
	<rect x="141" y="155.941" fill="#9D575A" width="6" height="6"/>
	<rect x="135" y="155.941" fill="#9D575A" width="6" height="6"/>
	<rect x="147" y="155.941" fill="#AD6D67" width="6" height="6"/>
	<rect x="153" y="155.941" fill="#AF865A" width="6" height="6"/>
	<rect x="141" y="161.941" fill="#7C5C3C" width="6" height="6"/>
	<rect x="135" y="161.941" fill="#7C5C3C" width="6" height="6"/>
	<rect x="147" y="161.941" fill="#7C5C3C" width="6" height="6"/>
	<rect x="141" y="167.941" fill="#B7976C" width="6" height="6"/>
	<rect x="147" y="167.941" fill="#AF865A" width="6" height="6"/>
	<rect x="153" y="167.941" fill="#AF865A" width="6" height="6"/>
	<rect x="141" y="173.91" fill="#AF865A" width="6" height="6"/>
	<rect x="147" y="173.91" fill="#AF865A" width="6" height="6"/>
	<rect x="153" y="173.91" fill="#AF865A" width="6" height="6"/>
	<rect x="141" y="179.957" fill="#AF865A" width="6" height="6"/>
	<rect x="147" y="179.957" fill="#AF865A" width="6" height="6"/>
	<rect x="153" y="179.957" fill="#AF865A" width="6" height="6"/>
	<rect x="153" y="161.941" fill="#AF865A" width="6" height="6"/>
	<rect x="165" y="143.965" fill="#AF865A" width="6" height="6"/>
	<rect x="165" y="149.957" fill="#AF865A" width="6" height="6"/>
	<rect x="159" y="137.98" fill="#AF865A" width="6" height="6"/>
	<rect x="165" y="137.98" fill="#AF865A" width="6" height="6"/>
	<rect x="159" y="155.941" fill="#AF865A" width="6" height="6"/>
	<rect x="159" y="149.957" fill="#AF865A" width="6" height="6"/>
	<rect x="159" y="131.965" fill="#414042" width="6" height="6"/>
	<rect x="165" y="131.965" fill="#AF865A" width="6" height="6"/>
	<rect x="159" y="120.004" fill="#414042" width="6" height="6"/>
	<rect x="165" y="120.004" fill="#231F20" width="6" height="6"/>
	<rect x="171" y="137.941" fill="#AF865A" width="6" height="6"/>
	<rect x="171" y="131.949" fill="#AF865A" width="6" height="6"/>
	<rect x="135" y="114.027" fill="#AF865A" width="6" height="6"/>
	<rect x="141" y="114.027" fill="#AF865A" width="6" height="6"/>
	<rect x="147" y="114.027" fill="#AF865A" width="6" height="6"/>
	<rect x="153" y="114.027" fill="#414042" width="6" height="6"/>
	<rect x="135" y="120.004" fill="#231F20" width="6" height="6"/>
	<rect x="141" y="120.004" fill="#594A42" width="6" height="6"/>
	<rect x="147" y="120.004" fill="#AF865A" width="6" height="6"/>
	<rect x="153" y="120.004" fill="#231F20" width="6" height="6"/>
	<rect x="123" y="125.98" fill="#AF865A" width="6" height="6"/>
	<rect x="129" y="125.98" fill="#AF865A" width="6" height="6"/>
	<rect x="159" y="125.98" fill="#231F20" width="6" height="6"/>
	<rect x="165" y="125.98" fill="#414042" width="6" height="6"/>
	<rect x="135" y="125.98" fill="#AF865A" width="6" height="6"/>
	<rect x="141" y="125.98" fill="#AF865A" width="6" height="6"/>
	<rect x="147" y="125.98" fill="#AF865A" width="6" height="6"/>
	<rect x="153" y="125.98" fill="#AF865A" width="6" height="6"/>
	<rect x="135" y="131.965" fill="#FFFFFF" width="6" height="6"/>
	<rect x="141" y="131.965" fill="#AF865A" width="6" height="6"/>
	<rect x="147" y="131.965" fill="#AF865A" width="6" height="6"/>
	<rect x="153" y="131.965" fill="#AF865A" width="6" height="6"/>
	<rect x="135" y="137.965" fill="#99694A" width="6" height="6"/>
	<rect x="141" y="137.965" fill="#B7976C" width="6" height="6"/>
	<rect x="147" y="137.965" fill="#AF865A" width="6" height="6"/>
	<rect x="153" y="137.965" fill="#AF865A" width="6" height="6"/>
	<rect x="159" y="102.027" fill="#414042" width="6" height="6"/>
	<rect x="165" y="102.027" fill="#231F20" width="6" height="6"/>
	<rect x="123" y="96.043" fill="#414042" width="6" height="6"/>
	<rect x="129" y="96.043" fill="#231F20" width="6" height="6"/>
	<rect x="135" y="96.043" fill="#231F20" width="6" height="6"/>
	<rect x="141" y="96.043" fill="#414042" width="6" height="6"/>
	<rect x="147" y="96.043" fill="#231F20" width="6" height="6"/>
	<rect x="153" y="96.043" fill="#231F20" width="6" height="6"/>
	<rect x="159" y="96.043" fill="#231F20" width="6" height="6"/>
	<rect x="153" y="90.043" fill="#231F20" width="6" height="6"/>
	<rect x="159" y="90.043" fill="#231F20" width="6" height="6"/>
	<rect x="165" y="96.043" fill="#231F20" width="6" height="6"/>
	<rect x="171" y="102.027" fill="#231F20" width="6" height="6"/>
	<rect x="159" y="108.027" fill="#231F20" width="6" height="6"/>
	<rect x="165" y="108.027" fill="#414042" width="6" height="6"/>
	<rect x="159" y="114.027" fill="#231F20" width="6" height="6"/>
	<rect x="165" y="114.027" fill="#231F20" width="6" height="6"/>
	<rect x="171" y="125.98" fill="#B7976C" width="6" height="6"/>
	<rect x="171" y="108.027" fill="#231F20" width="6" height="6"/>
	<rect x="171" y="114.027" fill="#231F20" width="6" height="6"/>
	<rect x="171" y="120.004" fill="#231F20" width="6" height="6"/>
	<rect x="177" y="131.988" fill="#AF865A" width="6" height="6"/>
	<rect x="177" y="125.996" fill="#B7976C" width="6" height="6"/>
</g>
</svg>
