<?xml version="1.0" encoding="utf-8"?>
<!-- Generator: Adobe Illustrator 16.0.0, SVG Export Plug-In . SVG Version: 6.00 Build 0)  -->
<!DOCTYPE svg PUBLIC "-//W3C//DTD SVG 1.1//EN" "http://www.w3.org/Graphics/SVG/1.1/DTD/svg11.dtd">
<svg version="1.1" id="Layer_1" xmlns="http://www.w3.org/2000/svg" xmlns:xlink="http://www.w3.org/1999/xlink" x="0px" y="0px"
	 width="300px" height="300px" viewBox="0 0 300 300" enable-background="new 0 0 300 300" xml:space="preserve">
<g>
	<rect x="114" y="105.023" fill="#E9D9A3" width="6" height="6"/>
	<rect x="114" y="111.023" fill="#FDF287" width="6" height="6"/>
	<rect x="108" y="111.023" fill="#FDF287" width="6" height="6"/>
	<rect x="120" y="105.023" fill="#FDF287" width="6" height="6"/>
	<rect x="126" y="105.023" fill="#E3C680" width="6" height="6"/>
	<rect x="132" y="105.023" fill="#EFD1B8" width="6" height="6"/>
	<rect x="138" y="105.023" fill="#EFCFC0" width="6" height="6"/>
	<rect x="144" y="105.023" fill="#EFCFC0" width="6" height="6"/>
	<rect x="120" y="111.023" fill="#EEBFA2" width="6" height="6"/>
	<rect x="126" y="111.023" fill="#EEBFA2" width="6" height="6"/>
	<rect x="132" y="111.023" fill="#EFD1B8" width="6" height="6"/>
	<rect x="138" y="111.023" fill="#EFD1B8" width="6" height="6"/>
	<rect x="144" y="111.023" fill="#EFCFC0" width="6" height="6"/>
	<rect x="120" y="117.023" fill="#EEBFA2" width="6" height="6"/>
	<rect x="120" y="123" fill="#EFD1B8" width="6" height="6"/>
	<rect x="120" y="128.988" fill="#EFD1B8" width="6" height="6"/>
	<rect x="114" y="135" fill="#EFD1B8" width="6" height="6"/>
	<rect x="120" y="135" fill="#EFD1B8" width="6" height="6"/>
	<rect x="120" y="140.988" fill="#EFD1B8" width="6" height="6"/>
	<rect x="132" y="140.988" fill="#F3D9D0" width="6" height="6"/>
	<rect x="126" y="140.988" fill="#EFD1B8" width="6" height="6"/>
	<rect x="138" y="140.988" fill="#E5B29B" width="6" height="6"/>
	<rect x="150" y="140.988" fill="#E3C680" width="6" height="6"/>
	<rect x="144" y="140.988" fill="#EEBFA2" width="6" height="6"/>
	<rect x="132" y="146.977" fill="#FFFFFF" width="6" height="6"/>
	<rect x="126" y="146.977" fill="#FFFFFF" width="6" height="6"/>
	<rect x="138" y="146.977" fill="#D28F8C" width="6" height="6"/>
	<rect x="144" y="146.977" fill="#EFD1B8" width="6" height="6"/>
	<rect x="132" y="152.965" fill="#D36368" width="6" height="6"/>
	<rect x="126" y="152.965" fill="#D36368" width="6" height="6"/>
	<rect x="138" y="152.965" fill="#EFD1B8" width="6" height="6"/>
	<rect x="144" y="152.965" fill="#EFD1B8" width="6" height="6"/>
	<rect x="132" y="158.965" fill="#EFD1B8" width="6" height="6"/>
	<rect x="126" y="158.965" fill="#EEBFA2" width="6" height="6"/>
	<rect x="132" y="164.965" fill="#EEBFA2" width="6" height="6"/>
	<rect x="138" y="158.965" fill="#EFD1B8" width="6" height="6"/>
	<rect x="138" y="164.965" fill="#E5B29B" width="6" height="6"/>
	<rect x="138" y="170.965" fill="#EFD1B8" width="6" height="6"/>
	<rect x="144" y="164.965" fill="#E5B29B" width="6" height="6"/>
	<rect x="144" y="158.965" fill="#EFD1B8" width="6" height="6"/>
	<rect x="150" y="158.965" fill="#FDF287" width="6" height="6"/>
	<rect x="144" y="170.965" fill="#FFFFFF" width="6" height="6"/>
	<rect x="150" y="170.965" fill="#EFD1B8" width="6" height="6"/>
	<rect x="144" y="170.965" fill="#EFD1B8" width="6" height="6"/>
	<rect x="156" y="140.988" fill="#ECEEEE" width="6" height="6"/>
	<rect x="150" y="135" fill="#FDF287" width="6" height="6"/>
	<rect x="156" y="135" fill="#FDF287" width="6" height="6"/>
	<rect x="150" y="152.965" fill="#FDF287" width="6" height="6"/>
	<rect x="156" y="152.965" fill="#FDF287" width="6" height="6"/>
	<rect x="150" y="146.977" fill="#EFD1B8" width="6" height="6"/>
	<rect x="156" y="146.977" fill="#E8E2B8" width="6" height="6"/>
	<rect x="150" y="128.988" fill="#EEE1BF" width="6" height="6"/>
	<rect x="156" y="128.988" fill="#947B42" width="6" height="6"/>
	<rect x="150" y="123" fill="#EEE1BF" width="6" height="6"/>
	<rect x="156" y="123" fill="#FFFAD8" width="6" height="6"/>
	<rect x="162" y="128.988" fill="#FDF287" width="6" height="6"/>
	<rect x="162" y="123" fill="#E8E2B8" width="6" height="6"/>
	<rect x="126" y="117.012" fill="#9B8579" width="6" height="6"/>
	<rect x="132" y="117.012" fill="#C2B59B" width="6" height="6"/>
	<rect x="138" y="117.023" fill="#EFD1B8" width="6" height="6"/>
	<rect x="144" y="117.023" fill="#CEA96F" width="6" height="6"/>
	<rect x="126" y="123" fill="#EFD1B8" width="6" height="6"/>
	<rect x="132" y="123" fill="#EFD1B8" width="6" height="6"/>
	<rect x="138" y="122.988" fill="#EFD1B8" width="6" height="6"/>
	<rect x="144" y="123" fill="#CEA96F" width="6" height="6"/>
	<rect x="126" y="128.988" fill="#7F95A5" width="6" height="6"/>
	<rect x="132" y="128.988" fill="#FFFFFF" width="6" height="6"/>
	<rect x="138" y="128.988" fill="#EFD1B8" width="6" height="6"/>
	<rect x="144" y="128.988" fill="#CEA96F" width="6" height="6"/>
	<rect x="126" y="134.988" fill="#EFD1B8" width="6" height="6"/>
	<rect x="132" y="134.988" fill="#E5B29B" width="6" height="6"/>
	<rect x="138" y="134.988" fill="#EEBFA2" width="6" height="6"/>
	<rect x="144" y="134.988" fill="#E3C680" width="6" height="6"/>
	<rect x="150" y="105.023" fill="#FFFAD8" width="6" height="6"/>
	<rect x="156" y="105.023" fill="#FDF287" width="6" height="6"/>
	<rect x="150" y="93.035" fill="#FDF287" width="6" height="6"/>
	<rect x="156" y="93.035" fill="#E9D9A3" width="6" height="6"/>
	<rect x="156" y="99.035" fill="#FDF287" width="6" height="6"/>
	<rect x="162" y="99.035" fill="#E9D9A3" width="6" height="6"/>
	<rect x="120" y="99.035" fill="#E9D9A3" width="6" height="6"/>
	<rect x="126" y="99.035" fill="#E8E2B8" width="6" height="6"/>
	<rect x="132" y="99.035" fill="#E3C680" width="6" height="6"/>
	<rect x="138" y="99.035" fill="#947B42" width="6" height="6"/>
	<rect x="144" y="99.035" fill="#FFFAD8" width="6" height="6"/>
	<rect x="126" y="93.035" fill="#E9D9A3" width="6" height="6"/>
	<rect x="132" y="93.035" fill="#E8E2B8" width="6" height="6"/>
	<rect x="138" y="93.035" fill="#E8E2B8" width="6" height="6"/>
	<rect x="144" y="93.035" fill="#947B42" width="6" height="6"/>
	<rect x="150" y="99.035" fill="#FFFAD8" width="6" height="6"/>
	<rect x="150" y="111.023" fill="#FDF287" width="6" height="6"/>
	<rect x="150" y="123" fill="#FDF287" width="6" height="6"/>
	<rect x="150" y="128.988" fill="#FDF287" width="6" height="6"/>
	<rect x="156" y="111.023" fill="#FFFAD8" width="6" height="6"/>
	<rect x="162" y="111.023" fill="#FDF287" width="6" height="6"/>
	<rect x="162" y="105.023" fill="#FFFAD8" width="6" height="6"/>
	<rect x="168" y="105.023" fill="#E9D9A3" width="6" height="6"/>
	<rect x="162" y="117.023" fill="#E8E2B8" width="6" height="6"/>
	<rect x="168" y="117.023" fill="#FFFAD8" width="6" height="6"/>
	<rect x="168" y="111.023" fill="#FFFAD8" width="6" height="6"/>
	<rect x="168" y="123.023" fill="#FFFAD8" width="6" height="6"/>
	<rect x="174" y="117.023" fill="#E9D9A3" width="6" height="6"/>
	<rect x="174" y="123.023" fill="#E9D9A3" width="6" height="6"/>
	<rect x="168" y="128.988" fill="#FFFAD8" width="6" height="6"/>
	<rect x="174" y="128.988" fill="#FFFAD8" width="6" height="6"/>
	<rect x="174" y="141" fill="#FFFAD8" width="6" height="6"/>
	<rect x="168" y="135" fill="#FFFAD8" width="6" height="6"/>
	<rect x="174" y="135" fill="#FDF287" width="6" height="6"/>
	<rect x="174" y="147" fill="#FFFAD8" width="6" height="6"/>
	<rect x="180" y="141" fill="#FDF287" width="6" height="6"/>
	<rect x="180" y="147" fill="#FDF287" width="6" height="6"/>
	<rect x="180" y="134.988" fill="#FDF287" width="6" height="6"/>
	<rect x="186" y="147" fill="#FDF287" width="6" height="6"/>
	<rect x="162" y="141" fill="#E8E2B8" width="6" height="6"/>
	<rect x="162" y="135" fill="#FDF287" width="6" height="6"/>
	<rect x="162" y="147" fill="#FDF287" width="6" height="6"/>
	<rect x="174" y="152.965" fill="#FDF287" width="6" height="6"/>
	<rect x="180" y="152.965" fill="#E8E2B8" width="6" height="6"/>
	<rect x="162" y="152.965" fill="#E8E2B8" width="6" height="6"/>
	<rect x="174" y="158.965" fill="#FDF287" width="6" height="6"/>
	<rect x="174" y="164.965" fill="#E8E2B8" width="6" height="6"/>
	<rect x="174" y="170.965" fill="#E8E2B8" width="6" height="6"/>
	<rect x="168" y="141" fill="#947B42" width="6" height="6"/>
	<rect x="168" y="147" fill="#947B42" width="6" height="6"/>
	<rect x="168" y="152.965" fill="#FFFAD8" width="6" height="6"/>
	<rect x="168" y="158.965" fill="#E8E2B8" width="6" height="6"/>
	<rect x="168" y="164.965" fill="#E8E2B8" width="6" height="6"/>
	<rect x="168" y="170.965" fill="#FDF287" width="6" height="6"/>
	<rect x="162" y="164.965" fill="#FDF287" width="6" height="6"/>
	<rect x="162" y="170.965" fill="#FDF287" width="6" height="6"/>
	<rect x="180" y="158.965" fill="#FDF287" width="6" height="6"/>
	<rect x="180" y="164.965" fill="#FDF287" width="6" height="6"/>
	<rect x="162" y="158.965" fill="#FFFAD8" width="6" height="6"/>
	<rect x="156" y="158.965" fill="#CEA96F" width="6" height="6"/>
	<rect x="156" y="164.965" fill="#CEA96F" width="6" height="6"/>
	<rect x="156" y="170.965" fill="#CEA96F" width="6" height="6"/>
	<rect x="150" y="164.965" fill="#EFD1B8" width="6" height="6"/>
	<rect x="150" y="117.023" fill="#FDF287" width="6" height="6"/>
	<rect x="156" y="117.023" fill="#FFFAD8" width="6" height="6"/>
	<rect x="138.012" y="188.965" fill="#E5B29B" width="6" height="6"/>
	<rect x="144.012" y="188.965" fill="#E5B29B" width="6" height="6"/>
	<rect x="155.996" y="188.965" fill="#E5B29B" width="6" height="6"/>
	<rect x="150.012" y="188.965" fill="#E5B29B" width="6" height="6"/>
	<rect x="131.984" y="188.965" fill="#323133" width="6" height="6"/>
	<rect x="125.973" y="188.965" fill="#323133" width="6" height="6"/>
	<rect x="119.996" y="188.965" fill="#FDF287" width="6" height="6"/>
	<rect x="161.996" y="188.965" fill="#323133" width="6" height="6"/>
	<rect x="167.996" y="188.965" fill="#323133" width="6" height="6"/>
	<rect x="180.004" y="188.965" fill="#323133" width="6" height="6"/>
	<rect x="180.004" y="182.965" fill="#323133" width="6" height="6"/>
	<rect x="138.023" y="200.965" fill="#323133" width="6" height="6"/>
	<rect x="144.023" y="200.965" fill="#5A5B5E" width="6" height="6"/>
	<rect x="155.996" y="200.965" fill="#323133" width="6" height="6"/>
	<rect x="150.023" y="200.965" fill="#95989B" width="6" height="6"/>
	<rect x="131.996" y="200.965" fill="#C6C8C9" width="6" height="6"/>
	<rect x="125.973" y="200.965" fill="#323133" width="6" height="6"/>
	<rect x="119.996" y="200.965" fill="#323133" width="6" height="6"/>
	<rect x="161.996" y="200.965" fill="#C6C8C9" width="6" height="6"/>
	<rect x="167.996" y="200.965" fill="#323133" width="6" height="6"/>
	<rect x="180.004" y="200.965" fill="#EFD1B8" width="6" height="6"/>
	<rect x="137.996" y="182.965" fill="#EFCFC0" width="6" height="6"/>
	<rect x="143.996" y="182.965" fill="#EFD1B8" width="6" height="6"/>
	<rect x="155.996" y="182.965" fill="#EFCFC0" width="6" height="6"/>
	<rect x="149.996" y="182.969" fill="#EFD1B8" width="6" height="6"/>
	<rect x="143.996" y="176.965" fill="#EFD1B8" width="6" height="6"/>
	<rect x="149.996" y="176.965" fill="#EFD1B8" width="6" height="6"/>
	<rect x="131.996" y="182.965" fill="#947B42" width="6" height="6"/>
	<rect x="119.996" y="182.965" fill="#FFFAD8" width="6" height="6"/>
	<rect x="161.996" y="182.965" fill="#42607E" width="6" height="6"/>
	<rect x="167.996" y="182.965" fill="#FDF287" width="6" height="6"/>
	<rect x="119.996" y="176.965" fill="#CEA96F" width="6" height="6"/>
	<rect x="113.996" y="176.965" fill="#FDF287" width="6" height="6"/>
	<rect x="138.012" y="194.965" fill="#323133" width="6" height="6"/>
	<rect x="144.012" y="194.965" fill="#95989B" width="6" height="6"/>
	<rect x="155.996" y="194.965" fill="#323133" width="6" height="6"/>
	<rect x="150.012" y="194.965" fill="#5A5B5E" width="6" height="6"/>
	<rect x="131.984" y="194.965" fill="#323133" width="6" height="6"/>
	<rect x="125.973" y="194.965" fill="#C6C8C9" width="6" height="6"/>
	<rect x="119.996" y="194.965" fill="#323133" width="6" height="6"/>
	<rect x="113.996" y="188.965" fill="#FDF287" width="6" height="6"/>
	<rect x="113.996" y="182.98" fill="#FFFAD8" width="6" height="6"/>
	<rect x="113.996" y="200.965" fill="#EFD1B8" width="6" height="6"/>
	<rect x="113.996" y="194.965" fill="#FDF287" width="6" height="6"/>
	<rect x="107.996" y="188.965" fill="#E5B29B" width="6" height="6"/>
	<rect x="107.996" y="200.965" fill="#EFD1B8" width="6" height="6"/>
	<rect x="107.996" y="194.965" fill="#EFD1B8" width="6" height="6"/>
	<rect x="161.996" y="194.965" fill="#323133" width="6" height="6"/>
	<rect x="167.996" y="194.965" fill="#C6C8C9" width="6" height="6"/>
	<rect x="180.004" y="194.965" fill="#323133" width="6" height="6"/>
	<rect x="186.004" y="188.965" fill="#E5B29B" width="6" height="6"/>
	<rect x="186.004" y="200.965" fill="#EFD1B8" width="6" height="6"/>
	<rect x="186.004" y="194.965" fill="#EFCFC0" width="6" height="6"/>
	<rect x="155.996" y="176.965" fill="#EFD1B8" width="6" height="6"/>
	<rect x="137.996" y="176.965" fill="#EFD1B8" width="6" height="6"/>
	<rect x="180.004" y="176.965" fill="#E8E2B8" width="6" height="6"/>
	<rect x="186.004" y="176.965" fill="#E8E2B8" width="6" height="6"/>
	<rect x="161.996" y="176.965" fill="#CEA96F" width="6" height="6"/>
	<rect x="161.996" y="182.965" fill="#EFD1B8" width="6" height="6"/>
	<rect x="173.988" y="188.98" fill="#FDF287" width="6" height="6"/>
	<rect x="174.004" y="200.965" fill="#323133" width="6" height="6"/>
	<rect x="173.988" y="182.98" fill="#FDF287" width="6" height="6"/>
	<rect x="174.004" y="194.965" fill="#323133" width="6" height="6"/>
	<rect x="173.996" y="176.965" fill="#E8E2B8" width="6" height="6"/>
	<rect x="167.996" y="176.965" fill="#FDF287" width="6" height="6"/>
	<rect x="125.973" y="176.965" fill="#CEA96F" width="6" height="6"/>
	<rect x="125.973" y="170.965" fill="#CEA96F" width="6" height="6"/>
	<rect x="131.984" y="170.965" fill="#947B42" width="6" height="6"/>
	<rect x="119.996" y="170.965" fill="#FFFAD8" width="6" height="6"/>
	<rect x="114" y="170.965" fill="#FDF287" width="6" height="6"/>
	<rect x="108.188" y="176.965" fill="#FDF287" width="6" height="6"/>
	<rect x="119.996" y="164.965" fill="#FDF287" width="6" height="6"/>
	<rect x="119.996" y="158.965" fill="#FDF287" width="6" height="6"/>
	<rect x="125.973" y="164.965" fill="#FFFAD8" width="6" height="6"/>
	<rect x="131.996" y="176.965" fill="#947B42" width="6" height="6"/>
	<rect x="125.973" y="182.965" fill="#947B42" width="6" height="6"/>
</g>
</svg>
