<?xml version="1.0" encoding="utf-8"?>
<!-- Generator: Adobe Illustrator 16.0.0, SVG Export Plug-In . SVG Version: 6.00 Build 0)  -->
<!DOCTYPE svg PUBLIC "-//W3C//DTD SVG 1.1//EN" "http://www.w3.org/Graphics/SVG/1.1/DTD/svg11.dtd">
<svg version="1.1" id="Layer_1" xmlns="http://www.w3.org/2000/svg" xmlns:xlink="http://www.w3.org/1999/xlink" x="0px" y="0px"
	 width="300px" height="300px" viewBox="0 0 300 300" enable-background="new 0 0 300 300" xml:space="preserve">
<g>
	<rect x="129.748" y="100.048" fill="#2F292B" width="6" height="6"/>
	<rect x="135.748" y="100.048" fill="#888F48" width="6" height="6"/>
	<rect x="141.748" y="100.048" fill="#2F292B" width="6" height="6"/>
	<rect x="135.748" y="94.048" fill="#2F292B" width="6" height="6"/>
	<rect x="147.748" y="100.048" fill="#AEB762" width="6" height="6"/>
	<rect x="129.748" y="112.032" fill="#AEB762" width="6" height="6"/>
	<rect x="135.748" y="112.032" fill="#AEB762" width="6" height="6"/>
	<rect x="141.748" y="112.032" fill="#AEB762" width="6" height="6"/>
	<rect x="147.748" y="112.032" fill="#EE2730" width="6" height="6"/>
	<rect x="153.748" y="112.032" fill="#C7293B" width="6" height="6"/>
	<rect x="123.748" y="118.032" fill="#AEB762" width="6" height="6"/>
	<rect x="129.748" y="118.032" fill="#AEB762" width="6" height="6"/>
	<rect x="135.748" y="118.032" fill="#AEB762" width="6" height="6"/>
	<rect x="141.748" y="118.032" fill="#AEB762" width="6" height="6"/>
	<rect x="147.748" y="118.032" fill="#AEB762" width="6" height="6"/>
	<rect x="153.748" y="118.032" fill="#EE2730" width="6" height="6"/>
	<rect x="123.748" y="124.032" fill="#AEB762" width="6" height="6"/>
	<rect x="129.748" y="124.032" fill="#AEB762" width="6" height="6"/>
	<rect x="123.748" y="130.009" fill="#AEB762" width="6" height="6"/>
	<rect x="129.748" y="130.009" fill="#AEB762" width="6" height="6"/>
	<rect x="123.748" y="136.001" fill="#AEB762" width="6" height="6"/>
	<rect x="129.748" y="136.001" fill="#AEB762" width="6" height="6"/>
	<rect x="123.748" y="142.009" fill="#AEB762" width="6" height="6"/>
	<rect x="129.748" y="142.009" fill="#AEB762" width="6" height="6"/>
	<rect x="123.748" y="148.001" fill="#AEB762" width="6" height="6"/>
	<rect x="117.748" y="143.501" fill="#AEB762" width="6" height="6"/>
	<rect x="117.748" y="137.501" fill="#AEB762" width="6" height="6"/>
	<rect x="129.748" y="148.001" fill="#AEB762" width="6" height="6"/>
	<rect x="141.748" y="148.001" fill="#AEB762" width="6" height="6"/>
	<rect x="135.748" y="148.001" fill="#AEB762" width="6" height="6"/>
	<rect x="147.748" y="148.001" fill="#AEB762" width="6" height="6"/>
	<rect x="159.748" y="148.001" fill="#AEB762" width="6" height="6"/>
	<rect x="153.748" y="148.001" fill="#AEB762" width="6" height="6"/>
	<rect x="141.748" y="153.985" fill="#FFFFFF" width="6" height="6"/>
	<rect x="135.748" y="153.985" fill="#FFFFFF" width="6" height="6"/>
	<rect x="147.748" y="153.985" fill="#FFFFFF" width="6" height="6"/>
	<rect x="153.748" y="153.985" fill="#C7293B" width="6" height="6"/>
	<rect x="141.748" y="159.978" fill="#EE2730" width="6" height="6"/>
	<rect x="135.748" y="159.978" fill="#EE2730" width="6" height="6"/>
	<rect x="147.748" y="159.978" fill="#EE2730" width="6" height="6"/>
	<rect x="153.748" y="159.978" fill="#AEB762" width="6" height="6"/>
	<rect x="141.748" y="165.978" fill="#AEB762" width="6" height="6"/>
	<rect x="135.748" y="165.978" fill="#AEB762" width="6" height="6"/>
	<rect x="147.748" y="165.978" fill="#C7293B" width="6" height="6"/>
	<rect x="141.748" y="171.978" fill="#AEB762" width="6" height="6"/>
	<rect x="147.748" y="171.978" fill="#AEB762" width="6" height="6"/>
	<rect x="141.748" y="177.978" fill="#888F48" width="6" height="6"/>
	<rect x="147.748" y="177.978" fill="#888F48" width="6" height="6"/>
	<rect x="153.748" y="171.978" fill="#AEB762" width="6" height="6"/>
	<rect x="153.748" y="165.978" fill="#AEB762" width="6" height="6"/>
	<rect x="159.748" y="165.978" fill="#AEB762" width="6" height="6"/>
	<rect x="159.748" y="171.978" fill="#FFFFFF" width="6" height="6"/>
	<rect x="165.748" y="171.978" fill="#FFFFFF" width="6" height="6"/>
	<rect x="165.748" y="165.978" fill="#FFFFFF" width="6" height="6"/>
	<rect x="171.748" y="171.978" fill="#FFFFFF" width="6" height="6"/>
	<rect x="159.748" y="177.978" fill="#FFFFFF" width="6" height="6"/>
	<rect x="153.748" y="177.978" fill="#888F48" width="6" height="6"/>
	<rect x="135.748" y="177.978" fill="#FFFFFF" width="6" height="6"/>
	<rect x="135.748" y="171.978" fill="#FFFFFF" width="6" height="6"/>
	<rect x="129.748" y="177.978" fill="#FFFFFF" width="6" height="6"/>
	<rect x="165.748" y="177.978" fill="#FFFFFF" width="6" height="6"/>
	<rect x="171.748" y="177.978" fill="#AEB762" width="6" height="6"/>
	<rect x="177.748" y="171.978" fill="#FFFFFF" width="6" height="6"/>
	<rect x="177.748" y="177.978" fill="#FFFFFF" width="6" height="6"/>
	<rect x="183.748" y="177.978" fill="#FFFFFF" width="6" height="6"/>
	<rect x="141.748" y="189.978" fill="#FFFFFF" width="6" height="6"/>
	<rect x="147.748" y="189.978" fill="#FFFFFF" width="6" height="6"/>
	<rect x="159.748" y="189.978" fill="#FFFFFF" width="6" height="6"/>
	<rect x="153.748" y="189.978" fill="#F1F1F0" width="6" height="6"/>
	<rect x="135.748" y="189.978" fill="#FFFFFF" width="6" height="6"/>
	<rect x="129.748" y="189.978" fill="#F1F1F0" width="6" height="6"/>
	<rect x="123.748" y="189.978" fill="#FFFFFF" width="6" height="6"/>
	<rect x="165.748" y="189.978" fill="#FFFFFF" width="6" height="6"/>
	<rect x="171.748" y="189.978" fill="#FFFFFF" width="6" height="6"/>
	<rect x="177.748" y="189.978" fill="#AEB762" width="6" height="6"/>
	<rect x="183.748" y="189.978" fill="#FFFFFF" width="6" height="6"/>
	<rect x="141.748" y="201.978" fill="#FFFFFF" width="6" height="6"/>
	<rect x="147.748" y="201.978" fill="#FFFFFF" width="6" height="6"/>
	<rect x="159.748" y="201.978" fill="#FFFFFF" width="6" height="6"/>
	<rect x="153.748" y="201.978" fill="#FFFFFF" width="6" height="6"/>
	<rect x="135.748" y="201.978" fill="#FFFFFF" width="6" height="6"/>
	<rect x="129.748" y="201.978" fill="#F1F1F0" width="6" height="6"/>
	<rect x="123.748" y="201.978" fill="#888F48" width="6" height="6"/>
	<rect x="165.748" y="201.978" fill="#FFFFFF" width="6" height="6"/>
	<rect x="171.748" y="201.978" fill="#888F48" width="6" height="6"/>
	<rect x="177.748" y="201.978" fill="#AEB762" width="6" height="6"/>
	<rect x="183.748" y="201.978" fill="#AEB762" width="6" height="6"/>
	<rect x="141.748" y="183.978" fill="#FFFFFF" width="6" height="6"/>
	<rect x="147.748" y="183.978" fill="#888F48" width="6" height="6"/>
	<rect x="159.748" y="183.978" fill="#FFFFFF" width="6" height="6"/>
	<rect x="153.748" y="183.978" fill="#888F48" width="6" height="6"/>
	<rect x="135.748" y="183.978" fill="#FFFFFF" width="6" height="6"/>
	<rect x="129.748" y="183.978" fill="#FFFFFF" width="6" height="6"/>
	<rect x="123.748" y="183.978" fill="#FFFFFF" width="6" height="6"/>
	<rect x="165.748" y="183.978" fill="#F1F1F0" width="6" height="6"/>
	<rect x="171.748" y="183.978" fill="#FFFFFF" width="6" height="6"/>
	<rect x="177.748" y="183.978" fill="#AEB762" width="6" height="6"/>
	<rect x="183.748" y="183.978" fill="#AEB762" width="6" height="6"/>
	<rect x="141.748" y="195.978" fill="#FFFFFF" width="6" height="6"/>
	<rect x="147.748" y="195.978" fill="#FFFFFF" width="6" height="6"/>
	<rect x="159.748" y="195.978" fill="#FFFFFF" width="6" height="6"/>
	<rect x="153.748" y="195.978" fill="#FFFFFF" width="6" height="6"/>
	<rect x="135.748" y="195.978" fill="#FFFFFF" width="6" height="6"/>
	<rect x="129.748" y="195.978" fill="#FFFFFF" width="6" height="6"/>
	<rect x="123.748" y="195.978" fill="#FFFFFF" width="6" height="6"/>
	<rect x="165.748" y="195.978" fill="#F1F1F0" width="6" height="6"/>
	<rect x="171.748" y="195.978" fill="#FFFFFF" width="6" height="6"/>
	<rect x="177.748" y="195.978" fill="#FFFFFF" width="6" height="6"/>
	<rect x="183.748" y="195.978" fill="#FFFFFF" width="6" height="6"/>
	<rect x="171.748" y="165.978" fill="#FFFFFF" width="6" height="6"/>
	<rect x="165.748" y="148.001" fill="#AEB762" width="6" height="6"/>
	<rect x="159.748" y="142.009" fill="#AEB762" width="6" height="6"/>
	<rect x="165.748" y="142.009" fill="#AEB762" width="6" height="6"/>
	<rect x="159.748" y="159.978" fill="#B8AE9B" width="6" height="6"/>
	<rect x="165.748" y="159.978" fill="#AEB762" width="6" height="6"/>
	<rect x="159.748" y="153.985" fill="#AEB762" width="6" height="6"/>
	<rect x="165.748" y="153.985" fill="#AEB762" width="6" height="6"/>
	<rect x="159.748" y="136.001" fill="#888F48" width="6" height="6"/>
	<rect x="165.748" y="136.001" fill="#AEB762" width="6" height="6"/>
	<rect x="159.748" y="130.009" fill="#888F48" width="6" height="6"/>
	<rect x="165.748" y="130.009" fill="#AEB762" width="6" height="6"/>
	<rect x="171.748" y="130.009" fill="#AEB762" width="6" height="6"/>
	<rect x="135.748" y="124.032" fill="#2F292B" width="6" height="6"/>
	<rect x="141.748" y="124.032" fill="#2F292B" width="6" height="6"/>
	<rect x="147.748" y="124.032" fill="#AEB762" width="6" height="6"/>
	<rect x="153.748" y="124.032" fill="#AEB762" width="6" height="6"/>
	<rect x="135.748" y="130.009" fill="#AEB762" width="6" height="6"/>
	<rect x="141.748" y="130.009" fill="#AEB762" width="6" height="6"/>
	<rect x="147.748" y="130.009" fill="#AEB762" width="6" height="6"/>
	<rect x="153.748" y="130.009" fill="#AEB762" width="6" height="6"/>
	<rect x="135.748" y="136.001" fill="#AEB762" width="6" height="6"/>
	<rect x="141.748" y="136.001" fill="#FBF246" width="6" height="6"/>
	<rect x="147.748" y="136.001" fill="#AEB762" width="6" height="6"/>
	<rect x="153.748" y="136.001" fill="#AEB762" width="6" height="6"/>
	<rect x="135.748" y="142.001" fill="#AEB762" width="6" height="6"/>
	<rect x="141.748" y="142.001" fill="#AEB762" width="6" height="6"/>
	<rect x="147.748" y="142.001" fill="#AEB762" width="6" height="6"/>
	<rect x="153.748" y="142.001" fill="#888F48" width="6" height="6"/>
	<rect x="159.748" y="112.032" fill="#AEB762" width="6" height="6"/>
	<rect x="165.748" y="112.032" fill="#2F292B" width="6" height="6"/>
	<rect x="165.748" y="106.048" fill="#AEB762" width="6" height="6"/>
	<rect x="159.748" y="100.048" fill="#2F292B" width="6" height="6"/>
	<rect x="153.748" y="94.048" fill="#2F292B" width="6" height="6"/>
	<rect x="159.748" y="88.048" fill="#2F292B" width="6" height="6"/>
	<rect x="147.748" y="94.048" fill="#2F292B" width="6" height="6"/>
	<rect x="171.81" y="124.032" fill="#AEB762" width="6" height="6"/>
	<rect x="171.748" y="106.048" fill="#2F292B" width="6" height="6"/>
	<rect x="153.748" y="100.048" fill="#2F292B" width="6" height="6"/>
	<rect x="123.748" y="112.032" fill="#888F48" width="6" height="6"/>
	<rect x="129.748" y="106.048" fill="#888F48" width="6" height="6"/>
	<rect x="135.748" y="106.048" fill="#AEB762" width="6" height="6"/>
	<rect x="141.748" y="106.048" fill="#EE2730" width="6" height="6"/>
	<rect x="147.748" y="106.048" fill="#2F292B" width="6" height="6"/>
	<rect x="153.748" y="106.048" fill="#AEB762" width="6" height="6"/>
	<rect x="159.748" y="106.048" fill="#2F292B" width="6" height="6"/>
	<rect x="159.748" y="118.032" fill="#AEB762" width="6" height="6"/>
	<rect x="165.748" y="118.032" fill="#AEB762" width="6" height="6"/>
	<rect x="159.748" y="124.032" fill="#AEB762" width="6" height="6"/>
	<rect x="165.748" y="124.032" fill="#AEB762" width="6" height="6"/>
</g>
</svg>
