<?xml version="1.0" encoding="utf-8"?>
<!-- Generator: Adobe Illustrator 16.0.0, SVG Export Plug-In . SVG Version: 6.00 Build 0)  -->
<!DOCTYPE svg PUBLIC "-//W3C//DTD SVG 1.1//EN" "http://www.w3.org/Graphics/SVG/1.1/DTD/svg11.dtd">
<svg version="1.1" id="Layer_1" xmlns="http://www.w3.org/2000/svg" xmlns:xlink="http://www.w3.org/1999/xlink" x="0px" y="0px"
	 width="300px" height="300px" viewBox="0 0 300 300" enable-background="new 0 0 300 300" xml:space="preserve">
<g>
	<rect x="129" y="96.043" fill="#EFD1B8" width="6" height="6"/>
	<rect x="135" y="96.043" fill="#EFD1B8" width="6" height="6"/>
	<rect x="141" y="96.043" fill="#EFC8A6" width="6" height="6"/>
	<rect x="147" y="96.043" fill="#EFC8A6" width="6" height="6"/>
	<rect x="123" y="108.031" fill="#EFD1B8" width="6" height="6"/>
	<rect x="129" y="108.031" fill="#EFC8A6" width="6" height="6"/>
	<rect x="135" y="108.031" fill="#EFC8A6" width="6" height="6"/>
	<rect x="141" y="108.031" fill="#EED0C6" width="6" height="6"/>
	<rect x="147" y="108.031" fill="#EFC8A6" width="6" height="6"/>
	<rect x="153" y="108.031" fill="#EFC8A6" width="6" height="6"/>
	<rect x="123" y="114.031" fill="#EFD1B8" width="6" height="6"/>
	<rect x="129" y="114.031" fill="#EFD1B8" width="6" height="6"/>
	<rect x="135" y="114.031" fill="#EFC8A6" width="6" height="6"/>
	<rect x="141" y="114.031" fill="#EFC8A6" width="6" height="6"/>
	<rect x="147" y="114.031" fill="#EFC8A6" width="6" height="6"/>
	<rect x="153" y="114.031" fill="#EFC8A6" width="6" height="6"/>
	<rect x="123" y="120.031" fill="#EFD1B8" width="6" height="6"/>
	<rect x="129" y="120.031" fill="#726658" width="6" height="6"/>
	<rect x="123" y="126.008" fill="#EFD1B8" width="6" height="6"/>
	<rect x="129" y="126.008" fill="#EFD1B8" width="6" height="6"/>
	<rect x="123" y="131.996" fill="#EFC8A6" width="6" height="6"/>
	<rect x="129" y="131.996" fill="#EFC8A6" width="6" height="6"/>
	<rect x="123" y="138.008" fill="#EFC8A6" width="6" height="6"/>
	<rect x="129" y="138.008" fill="#EFC8A6" width="6" height="6"/>
	<rect x="123" y="143.996" fill="#EFC8A6" width="6" height="6"/>
	<rect x="117" y="131.99" fill="#EFD1B8" width="6" height="6"/>
	<rect x="117" y="137.996" fill="#EFC8A6" width="6" height="6"/>
	<rect x="111" y="137.996" fill="#EFC8A6" width="6" height="6"/>
	<rect x="129" y="143.996" fill="#EFC8A6" width="6" height="6"/>
	<rect x="141" y="143.996" fill="#EFC8A6" width="6" height="6"/>
	<rect x="135" y="143.996" fill="#EFC8A6" width="6" height="6"/>
	<rect x="147" y="143.996" fill="#E5B29B" width="6" height="6"/>
	<rect x="165" y="143.996" fill="#EFD1B8" width="6" height="6"/>
	<rect x="153" y="143.996" fill="#EFC8A6" width="6" height="6"/>
	<rect x="135" y="149.984" fill="#FFFFFF" width="6" height="6"/>
	<rect x="129" y="149.984" fill="#FFFFFF" width="6" height="6"/>
	<rect x="141" y="149.984" fill="#FFFFFF" width="6" height="6"/>
	<rect x="147" y="149.984" fill="#D7BFAA" width="6" height="6"/>
	<rect x="153" y="149.984" fill="#EFC8A6" width="6" height="6"/>
	<rect x="135" y="155.973" fill="#D36368" width="6" height="6"/>
	<rect x="129" y="155.973" fill="#D36368" width="6" height="6"/>
	<rect x="141" y="155.973" fill="#BB807B" width="6" height="6"/>
	<rect x="153" y="155.973" fill="#EFC8A6" width="6" height="6"/>
	<rect x="135" y="161.973" fill="#EFC8A6" width="6" height="6"/>
	<rect x="129" y="161.973" fill="#EFC8A6" width="6" height="6"/>
	<rect x="141" y="161.973" fill="#EFC8A6" width="6" height="6"/>
	<rect x="141" y="167.973" fill="#C2B59B" width="6" height="6"/>
	<rect x="147" y="167.973" fill="#C2B59B" width="6" height="6"/>
	<rect x="153" y="167.973" fill="#EFC8A6" width="6" height="6"/>
	<rect x="153" y="161.973" fill="#AE9D85" width="6" height="6"/>
	<rect x="147" y="155.973" fill="#EFC8A6" width="6" height="6"/>
	<rect x="147" y="161.973" fill="#C2B59B" width="6" height="6"/>
	<rect x="171" y="143.996" fill="#AE9D85" width="6" height="6"/>
	<rect x="165" y="138.008" fill="#EFC8A6" width="6" height="6"/>
	<rect x="171" y="138.008" fill="#AE9D85" width="6" height="6"/>
	<rect x="159" y="155.973" fill="#AE9D85" width="6" height="6"/>
	<rect x="159" y="149.984" fill="#EFC8A6" width="6" height="6"/>
	<rect x="165" y="149.984" fill="#BAA993" width="6" height="6"/>
	<rect x="165" y="131.996" fill="#BAA993" width="6" height="6"/>
	<rect x="171" y="131.996" fill="#EFC8A6" width="6" height="6"/>
	<rect x="165" y="126.008" fill="#BAA993" width="6" height="6"/>
	<rect x="171" y="126.008" fill="#EFC8A6" width="6" height="6"/>
	<rect x="177" y="131.99" fill="#EFC8A6" width="6" height="6"/>
	<rect x="177" y="126.002" fill="#EED0C6" width="6" height="6"/>
	<rect x="135" y="120.031" fill="#9B8579" width="6" height="6"/>
	<rect x="141" y="120.031" fill="#EFD1B8" width="6" height="6"/>
	<rect x="147" y="120.031" fill="#EFC8A6" width="6" height="6"/>
	<rect x="153" y="120.031" fill="#EFC8A6" width="6" height="6"/>
	<rect x="135" y="126.008" fill="#EFC8A6" width="6" height="6"/>
	<rect x="141" y="126.008" fill="#EFC8A6" width="6" height="6"/>
	<rect x="147" y="126.008" fill="#EFC8A6" width="6" height="6"/>
	<rect x="153" y="126.008" fill="#EFC8A6" width="6" height="6"/>
	<rect x="135" y="131.996" fill="#7F95A5" width="6" height="6"/>
	<rect x="141" y="131.996" fill="#FFFFFF" width="6" height="6"/>
	<rect x="147" y="131.996" fill="#EFC8A6" width="6" height="6"/>
	<rect x="153" y="131.996" fill="#EFC8A6" width="6" height="6"/>
	<rect x="135" y="137.996" fill="#EFD1B8" width="6" height="6"/>
	<rect x="141" y="137.996" fill="#E5B29B" width="6" height="6"/>
	<rect x="147" y="137.996" fill="#EFC8A6" width="6" height="6"/>
	<rect x="153" y="137.996" fill="#EFC8A6" width="6" height="6"/>
	<rect x="159" y="108.031" fill="#EFC8A6" width="6" height="6"/>
	<rect x="159" y="114.031" fill="#EFC8A6" width="6" height="6"/>
	<rect x="159" y="143.996" fill="#EFC8A6" width="6" height="6"/>
	<rect x="159" y="120.031" fill="#EFC8A6" width="6" height="6"/>
	<rect x="159" y="126.008" fill="#EFC8A6" width="6" height="6"/>
	<rect x="159" y="131.996" fill="#EFC8A6" width="6" height="6"/>
	<rect x="159" y="137.996" fill="#EFC8A6" width="6" height="6"/>
	<rect x="165" y="108.031" fill="#BAA993" width="6" height="6"/>
	<rect x="171" y="108.031" fill="#BAA993" width="6" height="6"/>
	<rect x="123" y="102.043" fill="#EFD1B8" width="6" height="6"/>
	<rect x="129" y="102.043" fill="#EFD1B8" width="6" height="6"/>
	<rect x="135" y="102.043" fill="#EED0C6" width="6" height="6"/>
	<rect x="141" y="102.043" fill="#EFD1B8" width="6" height="6"/>
	<rect x="147" y="102.043" fill="#EFC8A6" width="6" height="6"/>
	<rect x="153" y="102.043" fill="#EFC8A6" width="6" height="6"/>
	<rect x="159" y="102.043" fill="#BAA993" width="6" height="6"/>
	<rect x="153" y="96.043" fill="#EFC8A6" width="6" height="6"/>
	<rect x="165" y="102.043" fill="#BAA993" width="6" height="6"/>
	<rect x="159" y="96.043" fill="#C2B59B" width="6" height="6"/>
	<rect x="165" y="114.031" fill="#C2B59B" width="6" height="6"/>
	<rect x="171" y="114.031" fill="#C2B59B" width="6" height="6"/>
	<rect x="165" y="120.031" fill="#BAA993" width="6" height="6"/>
	<rect x="171" y="120.031" fill="#BAA993" width="6" height="6"/>
	<rect x="141" y="173.973" fill="#6D6F72" width="6" height="6"/>
	<rect x="147" y="173.973" fill="#EFC8A6" width="6" height="6"/>
	<rect x="153" y="173.973" fill="#6D6F72" width="6" height="6"/>
	<rect x="135" y="173.973" fill="#FFFFFF" width="6" height="6"/>
	<rect x="159" y="167.957" fill="#1B455E" width="6" height="6"/>
	<rect x="165" y="167.957" fill="#42607E" width="6" height="6"/>
	<rect x="171" y="161.988" fill="#42607E" width="6" height="6"/>
	<rect x="171" y="167.957" fill="#42607E" width="6" height="6"/>
	<rect x="171" y="155.988" fill="#1B455E" width="6" height="6"/>
	<rect x="177" y="161.988" fill="#42607E" width="6" height="6"/>
	<rect x="177" y="155.988" fill="#42607E" width="6" height="6"/>
	<rect x="165" y="155.988" fill="#1B455E" width="6" height="6"/>
	<rect x="159" y="161.988" fill="#EFC8A6" width="6" height="6"/>
	<rect x="165" y="161.988" fill="#1B455E" width="6" height="6"/>
	<rect x="159" y="173.957" fill="#5A5B5E" width="6" height="6"/>
	<rect x="135" y="173.957" fill="#42607E" width="6" height="6"/>
	<rect x="129" y="173.957" fill="#42607E" width="6" height="6"/>
	<rect x="165" y="173.957" fill="#F1F2F2" width="6" height="6"/>
	<rect x="171" y="173.957" fill="#42607E" width="6" height="6"/>
	<rect x="177" y="173.957" fill="#42607E" width="6" height="6"/>
	<rect x="141" y="185.957" fill="#42607E" width="6" height="6"/>
	<rect x="147" y="185.957" fill="#5A5B5E" width="6" height="6"/>
	<rect x="159" y="185.957" fill="#42607E" width="6" height="6"/>
	<rect x="153" y="185.957" fill="#42607E" width="6" height="6"/>
	<rect x="135" y="185.957" fill="#F1F2F2" width="6" height="6"/>
	<rect x="129" y="185.957" fill="#42607E" width="6" height="6"/>
	<rect x="123" y="185.957" fill="#42607E" width="6" height="6"/>
	<rect x="165" y="185.957" fill="#F1F2F2" width="6" height="6"/>
	<rect x="171" y="185.957" fill="#42607E" width="6" height="6"/>
	<rect x="177" y="185.957" fill="#42607E" width="6" height="6"/>
	<rect x="183" y="185.957" fill="#42607E" width="6" height="6"/>
	<rect x="141" y="197.957" fill="#42607E" width="6" height="6"/>
	<rect x="147" y="197.957" fill="#1B455E" width="6" height="6"/>
	<rect x="159" y="197.957" fill="#42607E" width="6" height="6"/>
	<rect x="153" y="197.957" fill="#42607E" width="6" height="6"/>
	<rect x="135" y="197.957" fill="#42607E" width="6" height="6"/>
	<rect x="129" y="197.957" fill="#1B455E" width="6" height="6"/>
	<rect x="123" y="197.957" fill="#42607E" width="6" height="6"/>
	<rect x="165" y="197.957" fill="#42607E" width="6" height="6"/>
	<rect x="171" y="197.957" fill="#1B455E" width="6" height="6"/>
	<rect x="177" y="197.957" fill="#42607E" width="6" height="6"/>
	<rect x="183" y="197.957" fill="#42607E" width="6" height="6"/>
	<rect x="141" y="179.957" fill="#6D6F72" width="6" height="6"/>
	<rect x="147" y="179.957" fill="#6D6F72" width="6" height="6"/>
	<rect x="159" y="179.957" fill="#42607E" width="6" height="6"/>
	<rect x="153" y="179.957" fill="#6D6F72" width="6" height="6"/>
	<rect x="135" y="179.957" fill="#F1F2F2" width="6" height="6"/>
	<rect x="129" y="179.957" fill="#42607E" width="6" height="6"/>
	<rect x="123" y="179.957" fill="#42607E" width="6" height="6"/>
	<rect x="165" y="179.957" fill="#F1F2F2" width="6" height="6"/>
	<rect x="171" y="179.957" fill="#42607E" width="6" height="6"/>
	<rect x="177" y="179.957" fill="#42607E" width="6" height="6"/>
	<rect x="183" y="179.957" fill="#42607E" width="6" height="6"/>
	<rect x="141" y="191.957" fill="#42607E" width="6" height="6"/>
	<rect x="147" y="191.957" fill="#1B455E" width="6" height="6"/>
	<rect x="159" y="191.957" fill="#42607E" width="6" height="6"/>
	<rect x="153" y="191.957" fill="#42607E" width="6" height="6"/>
	<rect x="135" y="191.957" fill="#F1F2F2" width="6" height="6"/>
	<rect x="129" y="191.957" fill="#42607E" width="6" height="6"/>
	<rect x="123" y="191.957" fill="#42607E" width="6" height="6"/>
	<rect x="117" y="185.957" fill="#42607E" width="6" height="6"/>
	<rect x="117" y="197.957" fill="#42607E" width="6" height="6"/>
	<rect x="117" y="191.957" fill="#42607E" width="6" height="6"/>
	<rect x="165" y="191.957" fill="#F1F2F2" width="6" height="6"/>
	<rect x="171" y="191.957" fill="#42607E" width="6" height="6"/>
	<rect x="177" y="191.957" fill="#42607E" width="6" height="6"/>
	<rect x="183" y="191.957" fill="#42607E" width="6" height="6"/>
</g>
</svg>
