<?xml version="1.0" encoding="utf-8"?>
<!-- Generator: Adobe Illustrator 16.0.0, SVG Export Plug-In . SVG Version: 6.00 Build 0)  -->
<!DOCTYPE svg PUBLIC "-//W3C//DTD SVG 1.1//EN" "http://www.w3.org/Graphics/SVG/1.1/DTD/svg11.dtd">
<svg version="1.1" id="Layer_1" xmlns="http://www.w3.org/2000/svg" xmlns:xlink="http://www.w3.org/1999/xlink" x="0px" y="0px"
	 width="300px" height="300px" viewBox="0 0 300 300" enable-background="new 0 0 300 300" xml:space="preserve">
<g>
	<rect x="123.062" y="108.023" fill="#734A1D" width="6" height="6"/>
	<rect x="117.062" y="108.023" fill="#4D301C" width="6" height="6"/>
	<rect x="117.062" y="114.023" fill="#734A1D" width="6" height="6"/>
	<rect x="111.062" y="114.023" fill="#4D301C" width="6" height="6"/>
	<rect x="129.062" y="108.023" fill="#4D301C" width="6" height="6"/>
	<rect x="135.062" y="108.023" fill="#4D301C" width="6" height="6"/>
	<rect x="141.062" y="108.023" fill="#4D301C" width="6" height="6"/>
	<rect x="147.062" y="108.023" fill="#734A1D" width="6" height="6"/>
	<rect x="153.062" y="108.023" fill="#4D301C" width="6" height="6"/>
	<rect x="123.062" y="114.023" fill="#EDD69F" width="6" height="6"/>
	<rect x="129.062" y="114.023" fill="#734A1D" width="6" height="6"/>
	<rect x="135.062" y="114.023" fill="#EDD69F" width="6" height="6"/>
	<rect x="141.062" y="114.023" fill="#EDD69F" width="6" height="6"/>
	<rect x="147.062" y="114.023" fill="#734A1D" width="6" height="6"/>
	<rect x="123.062" y="120.023" fill="#734A1D" width="6" height="6"/>
	<rect x="129.062" y="120.023" fill="#EDD69F" width="6" height="6"/>
	<rect x="135.062" y="120.023" fill="#734A1D" width="6" height="6"/>
	<rect x="141.062" y="120.023" fill="#EDD69F" width="6" height="6"/>
	<rect x="147.062" y="120.023" fill="#EDD69F" width="6" height="6"/>
	<rect x="153.062" y="114.023" fill="#EDD69F" width="6" height="6"/>
	<rect x="122.938" y="126.023" fill="#2F292B" width="6" height="6"/>
	<rect x="128.938" y="126.023" fill="#2F292B" width="6" height="6"/>
	<rect x="122.938" y="132" fill="#2F292B" width="6" height="6"/>
	<rect x="128.938" y="132" fill="#00A456" width="6" height="6"/>
	<rect x="122.938" y="137.988" fill="#2F292B" width="6" height="6"/>
	<rect x="128.938" y="137.988" fill="#2F292B" width="6" height="6"/>
	<rect x="122.938" y="144" fill="#EDD69F" width="6" height="6"/>
	<rect x="128.938" y="144" fill="#EDD69F" width="6" height="6"/>
	<rect x="122.938" y="149.988" fill="#EDD69F" width="6" height="6"/>
	<rect x="116.938" y="143.988" fill="#EDD69F" width="6" height="6"/>
	<rect x="116.938" y="137.988" fill="#CBC0A9" width="6" height="6"/>
	<rect x="128.938" y="149.988" fill="#EDD69F" width="6" height="6"/>
	<rect x="140.938" y="149.988" fill="#EDD69F" width="6" height="6"/>
	<rect x="134.938" y="149.988" fill="#EDD69F" width="6" height="6"/>
	<rect x="146.938" y="149.988" fill="#EDD69F" width="6" height="6"/>
	<rect x="158.938" y="149.988" fill="#EDD69F" width="6" height="6"/>
	<rect x="152.938" y="149.988" fill="#EDD69F" width="6" height="6"/>
	<rect x="140.938" y="155.977" fill="#FFFFFF" width="6" height="6"/>
	<rect x="134.938" y="155.977" fill="#FFFFFF" width="6" height="6"/>
	<rect x="146.938" y="155.977" fill="#FFFFFF" width="6" height="6"/>
	<rect x="152.938" y="155.977" fill="#C7293B" width="6" height="6"/>
	<rect x="140.938" y="161.965" fill="#C7293B" width="6" height="6"/>
	<rect x="134.938" y="161.965" fill="#C7293B" width="6" height="6"/>
	<rect x="146.938" y="161.965" fill="#C7293B" width="6" height="6"/>
	<rect x="152.938" y="161.965" fill="#EDD69F" width="6" height="6"/>
	<rect x="140.938" y="167.965" fill="#EDD69F" width="6" height="6"/>
	<rect x="134.938" y="167.965" fill="#EDD69F" width="6" height="6"/>
	<rect x="146.938" y="167.965" fill="#EDD69F" width="6" height="6"/>
	<rect x="140.938" y="173.965" fill="#EDD69F" width="6" height="6"/>
	<rect x="146.938" y="173.965" fill="#EDD69F" width="6" height="6"/>
	<rect x="140.938" y="179.965" fill="#EDD69F" width="6" height="6"/>
	<rect x="146.938" y="179.965" fill="#EDD69F" width="6" height="6"/>
	<rect x="152.938" y="173.965" fill="#EDD69F" width="6" height="6"/>
	<rect x="152.938" y="167.965" fill="#EDD69F" width="6" height="6"/>
	<rect x="158.938" y="167.965" fill="#EDD69F" width="6" height="6"/>
	<rect x="158.938" y="173.965" fill="#4D301C" width="6" height="6"/>
	<rect x="164.938" y="173.965" fill="#4D301C" width="6" height="6"/>
	<rect x="164.938" y="167.965" fill="#4D301C" width="6" height="6"/>
	<rect x="170.938" y="173.965" fill="#4D301C" width="6" height="6"/>
	<rect x="158.938" y="179.965" fill="#4D301C" width="6" height="6"/>
	<rect x="152.938" y="179.965" fill="#EDD69F" width="6" height="6"/>
	<rect x="134.938" y="179.965" fill="#4D301C" width="6" height="6"/>
	<rect x="128.938" y="179.965" fill="#4D301C" width="6" height="6"/>
	<rect x="164.938" y="179.965" fill="#4D301C" width="6" height="6"/>
	<rect x="170.938" y="179.965" fill="#B5B7B9" width="6" height="6"/>
	<rect x="176.938" y="173.965" fill="#4D301C" width="6" height="6"/>
	<rect x="176.938" y="179.965" fill="#919295" width="6" height="6"/>
	<rect x="182.938" y="179.965" fill="#B5B7B9" width="6" height="6"/>
	<rect x="140.938" y="185.965" fill="#B68D63" width="6" height="6"/>
	<rect x="146.938" y="185.965" fill="#EDD69F" width="6" height="6"/>
	<rect x="158.938" y="185.965" fill="#4D301C" width="6" height="6"/>
	<rect x="152.938" y="185.965" fill="#B68D63" width="6" height="6"/>
	<rect x="134.938" y="185.965" fill="#4D301C" width="6" height="6"/>
	<rect x="128.938" y="185.965" fill="#4D301C" width="6" height="6"/>
	<rect x="122.938" y="185.965" fill="#B5B7B9" width="6" height="6"/>
	<rect x="164.938" y="185.965" fill="#4D301C" width="6" height="6"/>
	<rect x="170.938" y="185.965" fill="#919295" width="6" height="6"/>
	<rect x="176.938" y="185.965" fill="#B5B7B9" width="6" height="6"/>
	<rect x="182.938" y="185.965" fill="#919295" width="6" height="6"/>
	<rect x="140.938" y="191.965" fill="#919295" width="6" height="6"/>
	<rect x="146.938" y="191.965" fill="#F6EC45" width="6" height="6"/>
	<rect x="158.938" y="191.965" fill="#4D301C" width="6" height="6"/>
	<rect x="152.938" y="191.965" fill="#919295" width="6" height="6"/>
	<rect x="134.938" y="191.965" fill="#4D301C" width="6" height="6"/>
	<rect x="128.938" y="191.965" fill="#4D301C" width="6" height="6"/>
	<rect x="122.938" y="191.965" fill="#B5B7B9" width="6" height="6"/>
	<rect x="164.938" y="191.965" fill="#4D301C" width="6" height="6"/>
	<rect x="170.938" y="191.965" fill="#B5B7B9" width="6" height="6"/>
	<rect x="176.938" y="191.965" fill="#919295" width="6" height="6"/>
	<rect x="182.938" y="191.965" fill="#B5B7B9" width="6" height="6"/>
	<rect x="140.938" y="197.965" fill="#4D301C" width="6" height="6"/>
	<rect x="146.938" y="197.965" fill="#919295" width="6" height="6"/>
	<rect x="158.938" y="197.965" fill="#4D301C" width="6" height="6"/>
	<rect x="152.938" y="197.965" fill="#4D301C" width="6" height="6"/>
	<rect x="134.938" y="197.965" fill="#4D301C" width="6" height="6"/>
	<rect x="128.938" y="197.965" fill="#4D301C" width="6" height="6"/>
	<rect x="122.938" y="197.965" fill="#6C6D70" width="6" height="6"/>
	<rect x="164.938" y="197.965" fill="#4D301C" width="6" height="6"/>
	<rect x="170.938" y="197.965" fill="#6C6D70" width="6" height="6"/>
	<rect x="176.938" y="197.965" fill="#6C6D70" width="6" height="6"/>
	<rect x="182.938" y="197.965" fill="#6C6D70" width="6" height="6"/>
	<rect x="140.938" y="203.965" fill="#4D301C" width="6" height="6"/>
	<rect x="146.938" y="203.965" fill="#4D301C" width="6" height="6"/>
	<rect x="158.938" y="203.965" fill="#4D301C" width="6" height="6"/>
	<rect x="152.938" y="203.965" fill="#4D301C" width="6" height="6"/>
	<rect x="134.938" y="203.965" fill="#4D301C" width="6" height="6"/>
	<rect x="128.938" y="203.965" fill="#4D301C" width="6" height="6"/>
	<rect x="122.938" y="203.965" fill="#EDD69F" width="6" height="6"/>
	<rect x="164.938" y="203.965" fill="#4D301C" width="6" height="6"/>
	<rect x="170.938" y="203.965" fill="#EDD69F" width="6" height="6"/>
	<rect x="176.938" y="203.965" fill="#EDD69F" width="6" height="6"/>
	<rect x="182.938" y="203.965" fill="#EDD69F" width="6" height="6"/>
	<rect x="164.938" y="149.988" fill="#EDD69F" width="6" height="6"/>
	<rect x="158.938" y="144" fill="#EDD69F" width="6" height="6"/>
	<rect x="164.938" y="144" fill="#EDD69F" width="6" height="6"/>
	<rect x="158.938" y="161.965" fill="#EDD69F" width="6" height="6"/>
	<rect x="164.938" y="161.965" fill="#EDD69F" width="6" height="6"/>
	<rect x="158.938" y="155.977" fill="#EDD69F" width="6" height="6"/>
	<rect x="164.938" y="155.977" fill="#EDD69F" width="6" height="6"/>
	<rect x="158.938" y="137.988" fill="#734A1D" width="6" height="6"/>
	<rect x="164.938" y="137.988" fill="#A9958A" width="6" height="6"/>
	<rect x="158.938" y="132" fill="#EDD69F" width="6" height="6"/>
	<rect x="164.938" y="132" fill="#EDD69F" width="6" height="6"/>
	<rect x="170.938" y="137.988" fill="#EDD69F" width="6" height="6"/>
	<rect x="170.938" y="144" fill="#EDD69F" width="6" height="6"/>
	<rect x="170.938" y="132" fill="#EDD69F" width="6" height="6"/>
	<rect x="134.938" y="126.023" fill="#2F292B" width="6" height="6"/>
	<rect x="146.938" y="126.023" fill="#2F292B" width="6" height="6"/>
	<rect x="140.938" y="126.023" fill="#2F292B" width="6" height="6"/>
	<rect x="152.938" y="126.023" fill="#2F292B" width="6" height="6"/>
	<rect x="134.938" y="132" fill="#FFFFFF" width="6" height="6"/>
	<rect x="140.938" y="132" fill="#2F292B" width="6" height="6"/>
	<rect x="146.938" y="132" fill="#EDD69F" width="6" height="6"/>
	<rect x="152.938" y="132" fill="#4D301C" width="6" height="6"/>
	<rect x="134.938" y="137.988" fill="#2F292B" width="6" height="6"/>
	<rect x="140.938" y="137.988" fill="#2F292B" width="6" height="6"/>
	<rect x="146.938" y="137.988" fill="#EDD69F" width="6" height="6"/>
	<rect x="152.938" y="137.988" fill="#EDD69F" width="6" height="6"/>
	<rect x="134.938" y="143.988" fill="#EDD69F" width="6" height="6"/>
	<rect x="140.938" y="143.988" fill="#EDD69F" width="6" height="6"/>
	<rect x="146.938" y="143.988" fill="#EDD69F" width="6" height="6"/>
	<rect x="152.938" y="143.988" fill="#EDD69F" width="6" height="6"/>
	<rect x="159.062" y="108.023" fill="#734A1D" width="6" height="6"/>
	<rect x="165.062" y="108.023" fill="#734A1D" width="6" height="6"/>
	<rect x="141.062" y="96.035" fill="#4D301C" width="6" height="6"/>
	<rect x="147.062" y="96.035" fill="#734A1D" width="6" height="6"/>
	<rect x="152.938" y="96.035" fill="#734A1D" width="6" height="6"/>
	<rect x="164.938" y="102.035" fill="#734A1D" width="6" height="6"/>
	<rect x="164.82" y="90.035" fill="#4D301C" width="6" height="6"/>
	<rect x="158.938" y="90.035" fill="#734A1D" width="6" height="6"/>
	<rect x="170.938" y="108.023" fill="#734A1D" width="6" height="6"/>
	<rect x="170.938" y="114.023" fill="#4D301C" width="6" height="6"/>
	<rect x="170.938" y="120.023" fill="#734A1D" width="6" height="6"/>
	<rect x="176.938" y="120.023" fill="#4D301C" width="6" height="6"/>
	<rect x="170.938" y="149.988" fill="#734A1D" width="6" height="6"/>
	<rect x="176.938" y="149.988" fill="#734A1D" width="6" height="6"/>
	<rect x="170.938" y="155.977" fill="#734A1D" width="6" height="6"/>
	<rect x="176.938" y="114.023" fill="#734A1D" width="6" height="6"/>
	<rect x="170.938" y="126.023" fill="#734A1D" width="6" height="6"/>
	<rect x="158.938" y="96.035" fill="#734A1D" width="6" height="6"/>
	<rect x="146.938" y="90.035" fill="#734A1D" width="6" height="6"/>
	<rect x="141.062" y="90.035" fill="#734A1D" width="6" height="6"/>
	<rect x="135.062" y="90.035" fill="#4D301C" width="6" height="6"/>
	<rect x="129.062" y="90.035" fill="#734A1D" width="6" height="6"/>
	<rect x="123.062" y="102.035" fill="#4D301C" width="6" height="6"/>
	<rect x="129.062" y="102.035" fill="#4D301C" width="6" height="6"/>
	<rect x="129.062" y="96.035" fill="#734A1D" width="6" height="6"/>
	<rect x="135.062" y="102.035" fill="#734A1D" width="6" height="6"/>
	<rect x="135.062" y="96.035" fill="#734A1D" width="6" height="6"/>
	<rect x="141.062" y="102.035" fill="#734A1D" width="6" height="6"/>
	<rect x="147.062" y="102.035" fill="#4D301C" width="6" height="6"/>
	<rect x="153.062" y="102.035" fill="#734A1D" width="6" height="6"/>
	<rect x="159.062" y="102.035" fill="#4D301C" width="6" height="6"/>
	<rect x="159.062" y="114.023" fill="#4D301C" width="6" height="6"/>
	<rect x="158.938" y="132" fill="#734A1D" width="6" height="6"/>
	<rect x="153.062" y="114.023" fill="#734A1D" width="6" height="6"/>
	<rect x="153.062" y="120.023" fill="#734A1D" width="6" height="6"/>
	<rect x="158.938" y="120.023" fill="#4D301C" width="6" height="6"/>
	<rect x="164.938" y="120.023" fill="#734A1D" width="6" height="6"/>
	<rect x="165.062" y="114.023" fill="#734A1D" width="6" height="6"/>
	<rect x="158.938" y="126.023" fill="#2F292B" width="6" height="6"/>
	<rect x="164.938" y="126.023" fill="#2F292B" width="6" height="6"/>
</g>
</svg>
