<?xml version="1.0" encoding="utf-8"?>
<!-- Generator: Adobe Illustrator 16.0.0, SVG Export Plug-In . SVG Version: 6.00 Build 0)  -->
<!DOCTYPE svg PUBLIC "-//W3C//DTD SVG 1.1//EN" "http://www.w3.org/Graphics/SVG/1.1/DTD/svg11.dtd">
<svg version="1.1" id="Layer_1" xmlns="http://www.w3.org/2000/svg" xmlns:xlink="http://www.w3.org/1999/xlink" x="0px" y="0px"
	 width="300px" height="300px" viewBox="0 0 300 300" enable-background="new 0 0 300 300" xml:space="preserve">
<g>
	<rect x="116.984" y="90.023" fill="#231F20" width="6" height="6"/>
	<rect x="116.984" y="102.016" fill="#231F20" width="6" height="6"/>
	<rect x="122.984" y="102.016" fill="#231F20" width="6" height="6"/>
	<rect x="128.984" y="102.016" fill="#231F20" width="6" height="6"/>
	<rect x="134.984" y="102.016" fill="#231F20" width="6" height="6"/>
	<rect x="140.984" y="102.016" fill="#231F20" width="6" height="6"/>
	<rect x="146.984" y="102.016" fill="#231F20" width="6" height="6"/>
	<rect x="116.984" y="114.016" fill="#231F20" width="6" height="6"/>
	<rect x="122.984" y="114.016" fill="#231F20" width="6" height="6"/>
	<rect x="128.984" y="114.016" fill="#464749" width="6" height="6"/>
	<rect x="134.984" y="114.016" fill="#EFD1B8" width="6" height="6"/>
	<rect x="140.984" y="114.016" fill="#EFD1B8" width="6" height="6"/>
	<rect x="146.984" y="114.016" fill="#231F20" width="6" height="6"/>
	<rect x="116.984" y="120.016" fill="#EFCFC0" width="6" height="6"/>
	<rect x="122.984" y="120.016" fill="#EFCFC0" width="6" height="6"/>
	<rect x="116.984" y="125.992" fill="#231F20" width="6" height="6"/>
	<rect x="122.984" y="125.992" fill="#231F20" width="6" height="6"/>
	<rect x="116.984" y="131.984" fill="#231F20" width="6" height="6"/>
	<rect x="122.984" y="131.984" fill="#603913" width="6" height="6"/>
	<rect x="116.984" y="137.992" fill="#EFD1B8" width="6" height="6"/>
	<rect x="122.984" y="137.992" fill="#231F20" width="6" height="6"/>
	<rect x="116.984" y="143.984" fill="#BAA993" width="6" height="6"/>
	<rect x="110.984" y="137.992" fill="#EFD1B8" width="6" height="6"/>
	<rect x="122.984" y="143.984" fill="#BAA993" width="6" height="6"/>
	<rect x="134.984" y="143.984" fill="#D7BFAA" width="6" height="6"/>
	<rect x="128.984" y="143.984" fill="#D7BFAA" width="6" height="6"/>
	<rect x="140.984" y="143.984" fill="#EFCFC0" width="6" height="6"/>
	<rect x="152.984" y="143.984" fill="#EFD1B8" width="6" height="6"/>
	<rect x="146.984" y="143.984" fill="#EFCFC0" width="6" height="6"/>
	<rect x="134.984" y="149.969" fill="#FFFFFF" width="6" height="6"/>
	<rect x="128.984" y="149.969" fill="#FFFFFF" width="6" height="6"/>
	<rect x="140.984" y="149.969" fill="#FFFFFF" width="6" height="6"/>
	<rect x="146.984" y="149.969" fill="#EFD1B8" width="6" height="6"/>
	<rect x="134.984" y="155.961" fill="#D28F8C" width="6" height="6"/>
	<rect x="128.984" y="155.961" fill="#D28F8C" width="6" height="6"/>
	<rect x="140.984" y="155.961" fill="#BB807B" width="6" height="6"/>
	<rect x="146.984" y="155.961" fill="#EFD1B8" width="6" height="6"/>
	<rect x="134.984" y="161.961" fill="#EFCFC0" width="6" height="6"/>
	<rect x="128.984" y="161.961" fill="#EFCFC0" width="6" height="6"/>
	<rect x="128.984" y="168.004" fill="#EFD1B8" width="6" height="6"/>
	<rect x="140.984" y="161.961" fill="#EFD1B8" width="6" height="6"/>
	<rect x="146.984" y="161.961" fill="#EFD1B8" width="6" height="6"/>
	<rect x="152.984" y="161.961" fill="#EFCFC0" width="6" height="6"/>
	<rect x="158.984" y="143.984" fill="#EFD1B8" width="6" height="6"/>
	<rect x="152.984" y="137.992" fill="#5A5B5E" width="6" height="6"/>
	<rect x="158.984" y="137.992" fill="#EFD1B8" width="6" height="6"/>
	<rect x="152.984" y="155.961" fill="#EFD1B8" width="6" height="6"/>
	<rect x="158.984" y="155.961" fill="#EFD1B8" width="6" height="6"/>
	<rect x="158.984" y="161.961" fill="#EFD1B8" width="6" height="6"/>
	<rect x="152.984" y="149.969" fill="#EFD1B8" width="6" height="6"/>
	<rect x="158.984" y="149.969" fill="#EFCFC0" width="6" height="6"/>
	<rect x="152.984" y="131.984" fill="#231F20" width="6" height="6"/>
	<rect x="158.984" y="131.984" fill="#EFD1B8" width="6" height="6"/>
	<rect x="152.984" y="125.992" fill="#EDD69F" width="6" height="6"/>
	<rect x="158.984" y="125.992" fill="#231F20" width="6" height="6"/>
	<rect x="164.984" y="131.984" fill="#EFD1B8" width="6" height="6"/>
	<rect x="164.984" y="137.992" fill="#EFD1B8" width="6" height="6"/>
	<rect x="164.984" y="125.992" fill="#231F20" width="6" height="6"/>
	<rect x="128.984" y="120.016" fill="#EFD1B8" width="6" height="6"/>
	<rect x="134.984" y="120.016" fill="#EFD1B8" width="6" height="6"/>
	<rect x="140.984" y="120.016" fill="#EFD1B8" width="6" height="6"/>
	<rect x="146.984" y="120.016" fill="#323133" width="6" height="6"/>
	<rect x="128.984" y="125.992" fill="#231F20" width="6" height="6"/>
	<rect x="134.984" y="125.992" fill="#231F20" width="6" height="6"/>
	<rect x="140.984" y="125.992" fill="#231F20" width="6" height="6"/>
	<rect x="146.984" y="125.992" fill="#231F20" width="6" height="6"/>
	<rect x="128.984" y="131.984" fill="#FFFFFF" width="6" height="6"/>
	<rect x="134.984" y="131.984" fill="#231F20" width="6" height="6"/>
	<rect x="140.984" y="131.984" fill="#EFD1B8" width="6" height="6"/>
	<rect x="146.984" y="131.984" fill="#EFD1B8" width="6" height="6"/>
	<rect x="128.984" y="137.984" fill="#231F20" width="6" height="6"/>
	<rect x="134.984" y="137.984" fill="#EFD1B8" width="6" height="6"/>
	<rect x="140.984" y="137.984" fill="#EFCFC0" width="6" height="6"/>
	<rect x="146.984" y="137.984" fill="#EFD1B8" width="6" height="6"/>
	<rect x="152.984" y="102.016" fill="#231F20" width="6" height="6"/>
	<rect x="158.984" y="102.016" fill="#323133" width="6" height="6"/>
	<rect x="116.984" y="96.023" fill="#231F20" width="6" height="6"/>
	<rect x="111.016" y="96.023" fill="#231F20" width="6" height="6"/>
	<rect x="122.984" y="96.023" fill="#231F20" width="6" height="6"/>
	<rect x="128.984" y="96.023" fill="#231F20" width="6" height="6"/>
	<rect x="134.984" y="96.023" fill="#231F20" width="6" height="6"/>
	<rect x="140.984" y="96.023" fill="#231F20" width="6" height="6"/>
	<rect x="146.984" y="96.023" fill="#231F20" width="6" height="6"/>
	<rect x="152.984" y="96.023" fill="#323133" width="6" height="6"/>
	<rect x="152.984" y="114.016" fill="#323133" width="6" height="6"/>
	<rect x="152.984" y="125.992" fill="#231F20" width="6" height="6"/>
	<rect x="158.984" y="114.016" fill="#231F20" width="6" height="6"/>
	<rect x="164.984" y="114.016" fill="#231F20" width="6" height="6"/>
	<rect x="116.984" y="108.016" fill="#EFCFC0" width="6" height="6"/>
	<rect x="122.984" y="108.016" fill="#EFD1B8" width="6" height="6"/>
	<rect x="128.984" y="108.016" fill="#EFD1B8" width="6" height="6"/>
	<rect x="134.984" y="108.016" fill="#EFD1B8" width="6" height="6"/>
	<rect x="140.984" y="108.016" fill="#EFD1B8" width="6" height="6"/>
	<rect x="146.984" y="108.016" fill="#EFD1B8" width="6" height="6"/>
	<rect x="152.984" y="108.016" fill="#231F20" width="6" height="6"/>
	<rect x="158.984" y="108.016" fill="#231F20" width="6" height="6"/>
	<rect x="164.984" y="108.016" fill="#231F20" width="6" height="6"/>
	<rect x="164.984" y="120.016" fill="#231F20" width="6" height="6"/>
	<rect x="164.984" y="143.984" fill="#231F20" width="6" height="6"/>
	<rect x="164.984" y="149.969" fill="#231F20" width="6" height="6"/>
	<rect x="152.984" y="120.016" fill="#323133" width="6" height="6"/>
	<rect x="158.984" y="120.016" fill="#323133" width="6" height="6"/>
	<rect x="134.984" y="167.961" fill="#EFD1B8" width="6" height="6"/>
	<rect x="140.984" y="167.961" fill="#EFD1B8" width="6" height="6"/>
	<rect x="146.984" y="167.961" fill="#EFCFC0" width="6" height="6"/>
	<rect x="152.984" y="167.961" fill="#EFD1B8" width="6" height="6"/>
	<rect x="141.016" y="179.973" fill="#12558B" width="6" height="6"/>
	<rect x="147.016" y="179.973" fill="#12558B" width="6" height="6"/>
	<rect x="141.016" y="173.973" fill="#EFCFC0" width="6" height="6"/>
	<rect x="147.016" y="173.973" fill="#EFD1B8" width="6" height="6"/>
	<rect x="153.016" y="173.973" fill="#EFD1B8" width="6" height="6"/>
	<rect x="159.016" y="173.973" fill="#12558B" width="6" height="6"/>
	<rect x="165.016" y="173.973" fill="#808285" width="6" height="6"/>
	<rect x="171.016" y="168.004" fill="#808285" width="6" height="6"/>
	<rect x="171.016" y="173.973" fill="#808285" width="6" height="6"/>
	<rect x="171.016" y="162.004" fill="#464749" width="6" height="6"/>
	<rect x="177.016" y="168.004" fill="#808285" width="6" height="6"/>
	<rect x="177.016" y="162.004" fill="#808285" width="6" height="6"/>
	<rect x="165.016" y="162.004" fill="#464749" width="6" height="6"/>
	<rect x="159.016" y="168.004" fill="#EFD1B8" width="6" height="6"/>
	<rect x="165.016" y="168.004" fill="#464749" width="6" height="6"/>
	<rect x="159.016" y="179.973" fill="#12558B" width="6" height="6"/>
	<rect x="153.016" y="179.973" fill="#12558B" width="6" height="6"/>
	<rect x="135.016" y="179.973" fill="#12558B" width="6" height="6"/>
	<rect x="123.016" y="179.973" fill="#808285" width="6" height="6"/>
	<rect x="128.984" y="173.973" fill="#464749" width="6" height="6"/>
	<rect x="135.016" y="173.973" fill="#EFCFC0" width="6" height="6"/>
	<rect x="165.016" y="179.973" fill="#F1F2F2" width="6" height="6"/>
	<rect x="171.016" y="179.973" fill="#808285" width="6" height="6"/>
	<rect x="177.016" y="179.973" fill="#808285" width="6" height="6"/>
	<rect x="141.016" y="191.973" fill="#C3D2E0" width="6" height="6"/>
	<rect x="147.016" y="191.973" fill="#12558B" width="6" height="6"/>
	<rect x="159.016" y="191.973" fill="#808285" width="6" height="6"/>
	<rect x="153.016" y="191.973" fill="#ECEEEE" width="6" height="6"/>
	<rect x="135.016" y="191.973" fill="#808285" width="6" height="6"/>
	<rect x="123.016" y="191.973" fill="#F1F2F2" width="6" height="6"/>
	<rect x="117.016" y="191.973" fill="#808285" width="6" height="6"/>
	<rect x="165.016" y="191.973" fill="#F1F2F2" width="6" height="6"/>
	<rect x="171.016" y="191.973" fill="#808285" width="6" height="6"/>
	<rect x="177.016" y="191.973" fill="#808285" width="6" height="6"/>
	<rect x="183.016" y="191.973" fill="#808285" width="6" height="6"/>
	<rect x="141.016" y="203.977" fill="#12558B" width="6" height="6"/>
	<rect x="147.016" y="203.977" fill="#12558B" width="6" height="6"/>
	<rect x="159.016" y="203.977" fill="#808285" width="6" height="6"/>
	<rect x="153.016" y="203.977" fill="#12558B" width="6" height="6"/>
	<rect x="135.016" y="203.977" fill="#808285" width="6" height="6"/>
	<rect x="123.016" y="203.977" fill="#808285" width="6" height="6"/>
	<rect x="117.016" y="203.977" fill="#808285" width="6" height="6"/>
	<rect x="165.016" y="203.977" fill="#808285" width="6" height="6"/>
	<rect x="171.016" y="203.977" fill="#808285" width="6" height="6"/>
	<rect x="177.016" y="203.977" fill="#808285" width="6" height="6"/>
	<rect x="183.016" y="203.977" fill="#808285" width="6" height="6"/>
	<rect x="141.016" y="185.973" fill="#ECEEEE" width="6" height="6"/>
	<rect x="147.016" y="185.973" fill="#12558B" width="6" height="6"/>
	<rect x="159.016" y="185.973" fill="#12558B" width="6" height="6"/>
	<rect x="153.016" y="185.973" fill="#C3D2E0" width="6" height="6"/>
	<rect x="135.016" y="185.973" fill="#12558B" width="6" height="6"/>
	<rect x="123.016" y="185.973" fill="#F1F2F2" width="6" height="6"/>
	<rect x="117.016" y="185.973" fill="#808285" width="6" height="6"/>
	<rect x="165.016" y="185.973" fill="#F1F2F2" width="6" height="6"/>
	<rect x="171.016" y="185.973" fill="#808285" width="6" height="6"/>
	<rect x="177.016" y="185.973" fill="#808285" width="6" height="6"/>
	<rect x="183.016" y="185.973" fill="#808285" width="6" height="6"/>
	<rect x="141.016" y="197.973" fill="#12558B" width="6" height="6.004"/>
	<rect x="147.016" y="197.973" fill="#C3D2E0" width="6" height="6.004"/>
	<rect x="159.016" y="197.973" fill="#808285" width="6" height="6.004"/>
	<rect x="153.016" y="197.973" fill="#12558B" width="6" height="6.004"/>
	<rect x="135.016" y="197.973" fill="#808285" width="6" height="6.004"/>
	<rect x="123.016" y="197.973" fill="#F1F2F2" width="6" height="6.004"/>
	<rect x="117.016" y="197.973" fill="#808285" width="6" height="6.004"/>
	<rect x="111.016" y="191.973" fill="#808285" width="6" height="6"/>
	<rect x="111.016" y="203.977" fill="#808285" width="6" height="6"/>
	<rect x="111.016" y="197.973" fill="#808285" width="6" height="6.004"/>
	<rect x="165.016" y="197.973" fill="#323133" width="6" height="6.004"/>
	<rect x="171.016" y="197.973" fill="#323133" width="6" height="6.004"/>
	<rect x="128.984" y="179.973" fill="#808285" width="6" height="6"/>
	<rect x="128.984" y="191.973" fill="#808285" width="6" height="6"/>
	<rect x="128.984" y="203.977" fill="#808285" width="6" height="6"/>
	<rect x="128.984" y="185.973" fill="#808285" width="6" height="6"/>
	<rect x="128.984" y="197.973" fill="#808285" width="6" height="6.004"/>
	<rect x="177.016" y="197.973" fill="#323133" width="6" height="6.004"/>
	<rect x="183.016" y="197.973" fill="#808285" width="6" height="6.004"/>
</g>
</svg>
