<?xml version="1.0" encoding="utf-8"?>
<!-- Generator: Adobe Illustrator 16.0.0, SVG Export Plug-In . SVG Version: 6.00 Build 0)  -->
<!DOCTYPE svg PUBLIC "-//W3C//DTD SVG 1.1//EN" "http://www.w3.org/Graphics/SVG/1.1/DTD/svg11.dtd">
<svg version="1.1" id="Layer_1" xmlns="http://www.w3.org/2000/svg" xmlns:xlink="http://www.w3.org/1999/xlink" x="0px" y="0px"
	 width="300px" height="300px" viewBox="0 0 300 300" enable-background="new 0 0 300 300" xml:space="preserve">
<g>
	<rect x="116.25" y="112.502" fill="#EDD69F" width="7.5" height="7.5"/>
	<rect x="123.75" y="112.502" fill="#EDD69F" width="7.5" height="7.5"/>
	<rect x="116.25" y="119.973" fill="#2F292B" width="7.5" height="7.5"/>
	<rect x="123.75" y="119.973" fill="#2F292B" width="7.5" height="7.5"/>
	<rect x="116.25" y="134.924" fill="#EDD69F" width="7.5" height="7.5"/>
	<rect x="123.75" y="134.924" fill="#4C2F1C" width="7.5" height="7.5"/>
	<rect x="116.25" y="142.439" fill="#EDD69F" width="7.5" height="7.5"/>
	<rect x="123.75" y="142.439" fill="#EDD69F" width="7.5" height="7.5"/>
	<rect x="116.25" y="149.924" fill="#CBC0A9" width="7.5" height="7.5"/>
	<rect x="108.75" y="144.299" fill="#EDD69F" width="7.5" height="7.5"/>
	<rect x="123.75" y="149.924" fill="#CBC0A9" width="7.5" height="7.5"/>
	<rect x="138.75" y="149.924" fill="#CBC0A9" width="7.5" height="7.5"/>
	<rect x="131.25" y="149.924" fill="#CBC0A9" width="7.5" height="7.5"/>
	<rect x="146.25" y="149.924" fill="#EDD69F" width="7.5" height="7.5"/>
	<rect x="161.25" y="149.924" fill="#EDD69F" width="7.5" height="7.5"/>
	<rect x="153.75" y="149.924" fill="#EDD69F" width="7.5" height="7.5"/>
	<rect x="138.75" y="157.41" fill="#FFFFFF" width="7.5" height="7.5"/>
	<rect x="131.25" y="157.41" fill="#FFFFFF" width="7.5" height="7.5"/>
	<rect x="146.25" y="157.41" fill="#FFFFFF" width="7.5" height="7.5"/>
	<rect x="153.75" y="157.41" fill="#C62C3D" width="7.5" height="7.5"/>
	<rect x="138.75" y="164.895" fill="#C62C3D" width="7.5" height="7.5"/>
	<rect x="131.25" y="164.895" fill="#C62C3D" width="7.5" height="7.5"/>
	<rect x="146.25" y="164.895" fill="#C62C3D" width="7.5" height="7.5"/>
	<rect x="153.75" y="164.895" fill="#CBC0A9" width="7.5" height="7.5"/>
	<rect x="138.75" y="172.395" fill="#CBC0A9" width="7.5" height="7.5"/>
	<rect x="131.25" y="172.395" fill="#CBC0A9" width="7.5" height="7.5"/>
	<rect x="146.25" y="172.395" fill="#CBC0A9" width="7.5" height="7.5"/>
	<rect x="138.75" y="179.895" fill="#EDD69F" width="7.5" height="7.5"/>
	<rect x="146.25" y="179.895" fill="#EDD69F" width="7.5" height="7.5"/>
	<rect x="138.75" y="187.395" fill="#EDD69F" width="7.5" height="7.5"/>
	<rect x="146.25" y="187.395" fill="#EDD69F" width="7.5" height="7.5"/>
	<rect x="153.75" y="179.895" fill="#EDD69F" width="7.5" height="7.5"/>
	<rect x="153.75" y="172.395" fill="#EDD69F" width="7.5" height="7.5"/>
	<rect x="161.25" y="172.395" fill="#EDD69F" width="7.5" height="7.5"/>
	<rect x="161.25" y="179.895" fill="#C6C8CA" width="7.5" height="7.5"/>
	<rect x="168.75" y="179.895" fill="#C6C8CA" width="7.5" height="7.5"/>
	<rect x="176.25" y="179.895" fill="#C6C8CA" width="7.5" height="7.5"/>
	<rect x="176.25" y="172.395" fill="#919295" width="7.5" height="7.5"/>
	<rect x="168.75" y="172.395" fill="#919295" width="7.5" height="7.5"/>
	<rect x="183.75" y="172.395" fill="#C6C8CA" width="7.5" height="7.5"/>
	<rect x="183.75" y="164.895" fill="#919295" width="7.5" height="7.5"/>
	<rect x="176.25" y="164.895" fill="#919295" width="7.5" height="7.5"/>
	<rect x="191.25" y="164.895" fill="#C6C8CA" width="7.5" height="7.5"/>
	<rect x="183.75" y="157.41" fill="#919295" width="7.5" height="7.5"/>
	<rect x="191.25" y="157.41" fill="#C6C8CA" width="7.5" height="7.5"/>
	<rect x="191.25" y="172.395" fill="#C6C8CA" width="7.5" height="7.5"/>
	<rect x="183.75" y="179.895" fill="#C6C8CA" width="7.5" height="7.5"/>
	<rect x="161.25" y="187.395" fill="#6C6D70" width="7.5" height="7.5"/>
	<rect x="153.75" y="187.395" fill="#EDD69F" width="7.5" height="7.5"/>
	<rect x="131.25" y="187.395" fill="#C6C8CA" width="7.5" height="7.5"/>
	<rect x="123.75" y="187.395" fill="#C6C8CA" width="7.5" height="7.5"/>
	<rect x="168.75" y="187.395" fill="#F3F4F5" width="7.5" height="7.5"/>
	<rect x="176.25" y="187.395" fill="#C6C8CA" width="7.5" height="7.5"/>
	<rect x="183.75" y="187.395" fill="#C6C8CA" width="7.5" height="7.5"/>
	<rect x="191.25" y="187.395" fill="#C6C8CA" width="7.5" height="7.5"/>
	<rect x="138.75" y="202.395" fill="#6C6D70" width="7.5" height="7.5"/>
	<rect x="146.25" y="202.395" fill="#6C6D70" width="7.5" height="7.5"/>
	<rect x="161.25" y="202.395" fill="#6C6D70" width="7.5" height="7.5"/>
	<rect x="153.75" y="202.395" fill="#6C6D70" width="7.5" height="7.5"/>
	<rect x="131.25" y="202.395" fill="#6C6D70" width="7.5" height="7.5"/>
	<rect x="123.75" y="202.395" fill="#E9E9EB" width="7.5" height="7.5"/>
	<rect x="116.25" y="202.395" fill="#C6C8CA" width="7.5" height="7.5"/>
	<rect x="168.75" y="202.395" fill="#F3F4F5" width="7.5" height="7.5"/>
	<rect x="176.25" y="202.395" fill="#C6C8CA" width="7.5" height="7.5"/>
	<rect x="183.75" y="202.395" fill="#C6C8CA" width="7.5" height="7.5"/>
	<rect x="191.25" y="202.395" fill="#C6C8CA" width="7.5" height="7.5"/>
	<rect x="138.75" y="217.395" fill="#00B3AB" width="7.5" height="7.5"/>
	<rect x="146.25" y="217.395" fill="#F8BB51" width="7.5" height="7.5"/>
	<rect x="161.25" y="217.395" fill="#6C6D70" width="7.5" height="7.5"/>
	<rect x="153.75" y="217.395" fill="#00B3AB" width="7.5" height="7.5"/>
	<rect x="131.25" y="217.395" fill="#6C6D70" width="7.5" height="7.5"/>
	<rect x="123.75" y="217.395" fill="#C6C8CA" width="7.5" height="7.5"/>
	<rect x="116.25" y="217.395" fill="#C6C8CA" width="7.5" height="7.5"/>
	<rect x="168.75" y="217.395" fill="#C6C8CA" width="7.5" height="7.5"/>
	<rect x="176.25" y="217.395" fill="#C6C8CA" width="7.5" height="7.5"/>
	<rect x="183.75" y="217.395" fill="#C6C8CA" width="7.5" height="7.5"/>
	<rect x="191.25" y="217.395" fill="#C6C8CA" width="7.5" height="7.5"/>
	<rect x="138.75" y="194.895" fill="#6C6D70" width="7.5" height="7.5"/>
	<rect x="146.25" y="194.895" fill="#EDD69F" width="7.5" height="7.5"/>
	<rect x="161.25" y="194.895" fill="#6C6D70" width="7.5" height="7.5"/>
	<rect x="153.75" y="194.895" fill="#6C6D70" width="7.5" height="7.5"/>
	<rect x="131.25" y="194.895" fill="#6C6D70" width="7.5" height="7.5"/>
	<rect x="123.75" y="194.895" fill="#E9E9EB" width="7.5" height="7.5"/>
	<rect x="116.25" y="194.895" fill="#C6C8CA" width="7.5" height="7.5"/>
	<rect x="168.75" y="194.895" fill="#F3F4F5" width="7.5" height="7.5"/>
	<rect x="176.25" y="194.895" fill="#C6C8CA" width="7.5" height="7.5"/>
	<rect x="183.75" y="194.895" fill="#C6C8CA" width="7.5" height="7.5"/>
	<rect x="191.25" y="194.895" fill="#C6C8CA" width="7.5" height="7.5"/>
	<rect x="138.75" y="209.895" fill="#8AC2B6" width="7.5" height="7.5"/>
	<rect x="146.25" y="209.895" fill="#00B3AB" width="7.5" height="7.5"/>
	<rect x="161.25" y="209.895" fill="#6C6D70" width="7.5" height="7.5"/>
	<rect x="153.75" y="209.895" fill="#8AC2B6" width="7.5" height="7.5"/>
	<rect x="131.25" y="209.895" fill="#6C6D70" width="7.5" height="7.5"/>
	<rect x="123.75" y="209.895" fill="#C6C8CA" width="7.5" height="7.5"/>
	<rect x="116.25" y="209.895" fill="#C6C8CA" width="7.5" height="7.5"/>
	<rect x="168.75" y="209.895" fill="#C6C8CA" width="7.5" height="7.5"/>
	<rect x="176.25" y="209.895" fill="#C6C8CA" width="7.5" height="7.5"/>
	<rect x="183.75" y="209.895" fill="#C6C8CA" width="7.5" height="7.5"/>
	<rect x="191.25" y="209.895" fill="#C6C8CA" width="7.5" height="7.5"/>
	<rect x="168.75" y="149.924" fill="#EDD69F" width="7.5" height="7.5"/>
	<rect x="161.25" y="142.439" fill="#EDD69F" width="7.5" height="7.5"/>
	<rect x="168.75" y="142.439" fill="#2F292B" width="7.5" height="7.5"/>
	<rect x="161.25" y="164.895" fill="#EDD69F" width="7.5" height="7.5"/>
	<rect x="168.75" y="164.895" fill="#EDD69F" width="7.5" height="7.5"/>
	<rect x="161.25" y="157.41" fill="#EDD69F" width="7.5" height="7.5"/>
	<rect x="168.75" y="157.41" fill="#EDD69F" width="7.5" height="7.5"/>
	<rect x="161.25" y="134.924" fill="#2F292B" width="7.5" height="7.5"/>
	<rect x="168.75" y="134.924" fill="#EDD69F" width="7.5" height="7.5"/>
	<rect x="161.25" y="119.973" fill="#2F292B" width="7.5" height="7.5"/>
	<rect x="168.75" y="119.973" fill="#2F292B" width="7.5" height="7.5"/>
	<rect x="176.25" y="134.924" fill="#EDD69F" width="7.5" height="7.5"/>
	<rect x="176.25" y="127.439" fill="#EDD69F" width="7.5" height="7.5"/>
	<rect x="131.25" y="112.502" fill="#2F292B" width="7.5" height="7.5"/>
	<rect x="138.75" y="112.502" fill="#4D301C" width="7.5" height="7.5"/>
	<rect x="146.25" y="112.502" fill="#2F292B" width="7.5" height="7.5"/>
	<rect x="153.75" y="112.502" fill="#734A1D" width="7.5" height="7.5"/>
	<rect x="131.25" y="119.973" fill="#EDD69F" width="7.5" height="7.5"/>
	<rect x="138.75" y="119.973" fill="#EDD69F" width="7.5" height="7.5"/>
	<rect x="146.25" y="119.973" fill="#2F292B" width="7.5" height="7.5"/>
	<rect x="153.75" y="119.973" fill="#4D301C" width="7.5" height="7.5"/>
	<rect x="116.25" y="127.439" fill="#EDD69F" width="7.5" height="7.5"/>
	<rect x="123.75" y="127.439" fill="#EDD69F" width="7.5" height="7.5"/>
	<rect x="161.25" y="127.439" fill="#4D301C" width="7.5" height="7.5"/>
	<rect x="168.75" y="127.439" fill="#2F292B" width="7.5" height="7.5"/>
	<rect x="131.25" y="127.439" fill="#EDD69F" width="7.5" height="7.5"/>
	<rect x="138.75" y="127.439" fill="#EDD69F" width="7.5" height="7.5"/>
	<rect x="146.25" y="127.439" fill="#2F292B" width="7.5" height="7.5"/>
	<rect x="153.75" y="127.439" fill="#EDD69F" width="7.5" height="7.5"/>
	<rect x="131.25" y="134.924" fill="#FFFFFF" width="7.5" height="7.5"/>
	<rect x="138.75" y="134.924" fill="#EDD69F" width="7.5" height="7.5"/>
	<rect x="146.25" y="134.924" fill="#2F292B" width="7.5" height="7.5"/>
	<rect x="153.75" y="134.924" fill="#EDD69F" width="7.5" height="7.5"/>
	<rect x="131.25" y="142.424" fill="#EDD69F" width="7.5" height="7.5"/>
	<rect x="138.75" y="142.424" fill="#EDD69F" width="7.5" height="7.5"/>
	<rect x="146.25" y="142.424" fill="#EDD69F" width="7.5" height="7.5"/>
	<rect x="153.75" y="142.424" fill="#EDD69F" width="7.5" height="7.5"/>
	<rect x="161.25" y="112.502" fill="#2F292B" width="7.5" height="7.5"/>
	<rect x="168.75" y="112.502" fill="#4D301C" width="7.5" height="7.5"/>
	<rect x="176.25" y="119.973" fill="#734A1D" width="7.5" height="7.5"/>
	<rect x="176.25" y="112.502" fill="#2F292B" width="7.5" height="7.5"/>
	<rect x="183.75" y="134.956" fill="#865F36" width="7.5" height="7.5"/>
	<rect x="183.75" y="127.485" fill="#2F292B" width="7.5" height="7.5"/>
	<rect x="183.75" y="120" fill="#2F292B" width="7.5" height="7.5"/>
	<rect x="183.75" y="112.5" fill="#2F292B" width="7.5" height="7.5"/>
	<rect x="176.25" y="149.91" fill="#2F292B" width="7.5" height="7.5"/>
	<rect x="176.25" y="157.41" fill="#2F292B" width="7.5" height="7.5"/>
	<rect x="176.25" y="142.439" fill="#2F292B" width="7.5" height="7.5"/>
	<rect x="123.75" y="105.09" fill="#7F95A5" width="7.5" height="7.5"/>
	<rect x="131.25" y="105.09" fill="#7F95A5" width="7.5" height="7.5"/>
	<rect x="138.75" y="105.09" fill="#7F95A5" width="7.5" height="7.5"/>
	<rect x="146.25" y="105.09" fill="#7F95A5" width="7.5" height="7.5"/>
	<rect x="153.75" y="105.09" fill="#7F95A5" width="7.5" height="7.5"/>
	<rect x="161.25" y="105.09" fill="#7F95A5" width="7.5" height="7.5"/>
	<rect x="168.75" y="105.09" fill="#7F95A5" width="7.5" height="7.5"/>
	<rect x="123.75" y="97.605" fill="#9CB6C8" width="7.5" height="7.5"/>
	<rect x="116.25" y="105.09" fill="#7F95A5" width="7.5" height="7.5"/>
	<rect x="108.75" y="105.09" fill="#7F95A5" width="7.5" height="7.5"/>
	<rect x="101.25" y="105.09" fill="#7F95A5" width="7.5" height="7.5"/>
	<rect x="116.25" y="97.605" fill="#9CB6C8" width="7.5" height="7.5"/>
	<rect x="116.25" y="90.105" fill="#2F292B" width="7.5" height="7.5"/>
	<rect x="116.25" y="82.605" fill="#7F95A5" width="7.5" height="7.5"/>
	<rect x="131.25" y="97.605" fill="#9CB6C8" width="7.5" height="7.5"/>
	<rect x="138.75" y="97.605" fill="#7F95A5" width="7.5" height="7.5"/>
	<rect x="146.25" y="97.605" fill="#7F95A5" width="7.5" height="7.5"/>
	<rect x="153.75" y="97.605" fill="#7F95A5" width="7.5" height="7.5"/>
	<rect x="123.75" y="90.105" fill="#2F292B" width="7.5" height="7.5"/>
	<rect x="131.25" y="90.105" fill="#2F292B" width="7.5" height="7.5"/>
	<rect x="138.75" y="90.105" fill="#7F95A5" width="7.5" height="7.5"/>
	<rect x="146.25" y="90.105" fill="#7F95A5" width="7.5" height="7.5"/>
	<rect x="153.75" y="90.105" fill="#7F95A5" width="7.5" height="7.5"/>
	<rect x="161.25" y="97.605" fill="#7F95A5" width="7.5" height="7.5"/>
	<rect x="161.25" y="90.105" fill="#7F95A5" width="7.5" height="7.5"/>
	<rect x="123.75" y="82.605" fill="#7F95A5" width="7.5" height="7.5"/>
	<rect x="131.25" y="82.605" fill="#7F95A5" width="7.5" height="7.5"/>
	<rect x="138.75" y="82.605" fill="#7F95A5" width="7.5" height="7.5"/>
	<rect x="146.25" y="82.605" fill="#7F95A5" width="7.5" height="7.5"/>
	<rect x="153.75" y="82.605" fill="#7F95A5" width="7.5" height="7.5"/>
	<rect x="123.75" y="75.105" fill="#7F95A5" width="7.5" height="7.5"/>
	<rect x="131.25" y="75.105" fill="#7F95A5" width="7.5" height="7.5"/>
	<rect x="138.75" y="75.105" fill="#7F95A5" width="7.5" height="7.5"/>
	<rect x="146.25" y="75.105" fill="#7F95A5" width="7.5" height="7.5"/>
	<rect x="153.75" y="75.105" fill="#7F95A5" width="7.5" height="7.5"/>
	<rect x="161.25" y="75.105" fill="#7F95A5" width="7.5" height="7.5"/>
	<rect x="161.25" y="82.605" fill="#7F95A5" width="7.5" height="7.5"/>
	<rect x="168.75" y="75.105" fill="#7F95A5" width="7.5" height="7.5"/>
	<rect x="176.25" y="82.605" fill="#7F95A5" width="7.5" height="7.5"/>
	<rect x="168.75" y="82.605" fill="#7F95A5" width="7.5" height="7.5"/>
	<rect x="168.75" y="97.605" fill="#7F95A5" width="7.5" height="7.5"/>
	<rect x="168.75" y="90.105" fill="#7F95A5" width="7.5" height="7.5"/>
	<rect x="176.25" y="105.09" fill="#7F95A5" width="7.5" height="7.5"/>
	<rect x="176.25" y="97.605" fill="#7F95A5" width="7.5" height="7.5"/>
	<rect x="176.25" y="90.105" fill="#7F95A5" width="7.5" height="7.5"/>
</g>
</svg>
