<?xml version="1.0" encoding="utf-8"?>
<!-- Generator: Adobe Illustrator 16.0.0, SVG Export Plug-In . SVG Version: 6.00 Build 0)  -->
<!DOCTYPE svg PUBLIC "-//W3C//DTD SVG 1.1//EN" "http://www.w3.org/Graphics/SVG/1.1/DTD/svg11.dtd">
<svg version="1.1" id="Layer_1" xmlns="http://www.w3.org/2000/svg" xmlns:xlink="http://www.w3.org/1999/xlink" x="0px" y="0px"
	 width="300px" height="300px" viewBox="0 0 300 300" enable-background="new 0 0 300 300" xml:space="preserve">
<g>
	<rect x="141" y="170.961" fill="#E7B890" width="6" height="6"/>
	<rect x="147" y="170.961" fill="#E7B890" width="6" height="6"/>
	<rect x="141" y="176.961" fill="#F0D0B4" width="6" height="6"/>
	<rect x="147" y="176.961" fill="#F0D0B4" width="6" height="6"/>
	<rect x="153" y="170.961" fill="#F0D0B4" width="6" height="6"/>
	<rect x="159" y="176.961" fill="#6C6D70" width="6" height="6"/>
	<rect x="153" y="176.961" fill="#F0D0B4" width="6" height="6"/>
	<rect x="135" y="176.961" fill="#6C6D70" width="6" height="6"/>
	<rect x="129" y="176.961" fill="#525255" width="6" height="6"/>
	<rect x="165" y="176.961" fill="#525255" width="6" height="6"/>
	<rect x="171" y="176.961" fill="#525255" width="6" height="6"/>
	<rect x="141" y="188.961" fill="#6C6D70" width="6" height="6"/>
	<rect x="147" y="188.961" fill="#6C6D70" width="6" height="6"/>
	<rect x="159" y="188.961" fill="#525255" width="6" height="6"/>
	<rect x="153" y="188.961" fill="#6C6D70" width="6" height="6"/>
	<rect x="135" y="188.961" fill="#525255" width="6" height="6"/>
	<rect x="129" y="188.961" fill="#525255" width="6" height="6"/>
	<rect x="123" y="188.961" fill="#525255" width="6" height="6"/>
	<rect x="165" y="188.961" fill="#525255" width="6" height="6"/>
	<rect x="171" y="188.961" fill="#525255" width="6" height="6"/>
	<rect x="177" y="188.961" fill="#525255" width="6" height="6"/>
	<rect x="183" y="188.961" fill="#525255" width="6" height="6"/>
	<rect x="141" y="200.961" fill="#525255" width="6" height="6"/>
	<rect x="147" y="200.961" fill="#525255" width="6" height="6"/>
	<rect x="159" y="200.961" fill="#525255" width="6" height="6"/>
	<rect x="153" y="200.961" fill="#525255" width="6" height="6"/>
	<rect x="135" y="200.961" fill="#525255" width="6" height="6"/>
	<rect x="129" y="200.961" fill="#2F292B" width="6" height="6"/>
	<rect x="123" y="200.961" fill="#525255" width="6" height="6"/>
	<rect x="165" y="200.961" fill="#525255" width="6" height="6"/>
	<rect x="171" y="200.961" fill="#2F292B" width="6" height="6"/>
	<rect x="177" y="200.961" fill="#525255" width="6" height="6"/>
	<rect x="183" y="200.961" fill="#525255" width="6" height="6"/>
	<rect x="141" y="182.961" fill="#F0D0B4" width="6" height="6"/>
	<rect x="147" y="182.961" fill="#F0D0B4" width="6" height="6"/>
	<rect x="159" y="182.961" fill="#6C6D70" width="6" height="6"/>
	<rect x="153" y="182.961" fill="#F0D0B4" width="6" height="6"/>
	<rect x="135" y="182.961" fill="#6C6D70" width="6" height="6"/>
	<rect x="129" y="182.961" fill="#2F292B" width="6" height="6"/>
	<rect x="123" y="182.961" fill="#2F292B" width="6" height="6"/>
	<rect x="165" y="182.961" fill="#2F292B" width="6" height="6"/>
	<rect x="171" y="182.961" fill="#2F292B" width="6" height="6"/>
	<rect x="177" y="182.961" fill="#2F292B" width="6" height="6"/>
	<rect x="183" y="182.961" fill="#2F292B" width="6" height="6"/>
	<rect x="141" y="194.961" fill="#2F292B" width="6" height="6"/>
	<rect x="147" y="194.961" fill="#2F292B" width="6" height="6"/>
	<rect x="159" y="194.961" fill="#2F292B" width="6" height="6"/>
	<rect x="153" y="194.961" fill="#2F292B" width="6" height="6"/>
	<rect x="135" y="194.961" fill="#2F292B" width="6" height="6"/>
	<rect x="129" y="194.961" fill="#2F292B" width="6" height="6"/>
	<rect x="123" y="194.961" fill="#2F292B" width="6" height="6"/>
	<rect x="165" y="194.961" fill="#2F292B" width="6" height="6"/>
	<rect x="171" y="194.961" fill="#2F292B" width="6" height="6"/>
	<rect x="177" y="194.961" fill="#2F292B" width="6" height="6"/>
	<rect x="183" y="194.961" fill="#2F292B" width="6" height="6"/>
	<rect x="117" y="140.965" fill="#F0D0B4" width="6" height="6"/>
	<rect x="111" y="140.965" fill="#EBC297" width="6" height="6"/>
	<rect x="117" y="134.965" fill="#EBC297" width="6" height="6"/>
	<rect x="135" y="93.039" fill="#805041" width="6" height="6"/>
	<rect x="141" y="93.039" fill="#734637" width="6" height="6"/>
	<rect x="147" y="93.039" fill="#734637" width="6" height="6"/>
	<rect x="123" y="105.027" fill="#805041" width="6" height="6"/>
	<rect x="129" y="105.027" fill="#734637" width="6" height="6"/>
	<rect x="135" y="105.027" fill="#805041" width="6" height="6"/>
	<rect x="141" y="105.027" fill="#734637" width="6" height="6"/>
	<rect x="147" y="105.027" fill="#EFCFC0" width="6" height="6"/>
	<rect x="153" y="105.027" fill="#EFCFC0" width="6" height="6"/>
	<rect x="129" y="111.027" fill="#805041" width="6" height="6"/>
	<rect x="123" y="111.027" fill="#734637" width="6" height="6"/>
	<rect x="135" y="111.027" fill="#F0D0B4" width="6" height="6"/>
	<rect x="141" y="111.027" fill="#734637" width="6" height="6"/>
	<rect x="147" y="111.027" fill="#F0D0B4" width="6" height="6"/>
	<rect x="153" y="111.027" fill="#EFCFC0" width="6" height="6"/>
	<rect x="123" y="117.027" fill="#805041" width="6" height="6"/>
	<rect x="129" y="117.027" fill="#F0D0B4" width="6" height="6"/>
	<rect x="123" y="123.004" fill="#EFCFC0" width="6" height="6"/>
	<rect x="129" y="123.004" fill="#B68D63" width="6" height="6"/>
	<rect x="123" y="134.965" fill="#F0D0B4" width="6" height="6"/>
	<rect x="123" y="140.977" fill="#F0D0B4" width="6" height="6"/>
	<rect x="129" y="140.977" fill="#E7B890" width="6" height="6"/>
	<rect x="123" y="146.965" fill="#F0D0B4" width="6" height="6"/>
	<rect x="129" y="146.965" fill="#F0D0B4" width="6" height="6"/>
	<rect x="141" y="146.965" fill="#F0D0B4" width="6" height="6"/>
	<rect x="135" y="146.965" fill="#F0D0B4" width="6" height="6"/>
	<rect x="147" y="146.965" fill="#F0D0B4" width="6" height="6"/>
	<rect x="159" y="146.965" fill="#F0D0B4" width="6" height="6"/>
	<rect x="153" y="146.965" fill="#E7B890" width="6" height="6"/>
	<rect x="141" y="152.953" fill="#FFFFFF" width="6" height="6"/>
	<rect x="135" y="152.953" fill="#FFFFFF" width="6" height="6"/>
	<rect x="147" y="152.953" fill="#FFFFFF" width="6" height="6"/>
	<rect x="153" y="152.953" fill="#BB807B" width="6" height="6"/>
	<rect x="141" y="158.941" fill="#D28F8C" width="6" height="6"/>
	<rect x="135" y="158.941" fill="#D28F8C" width="6" height="6"/>
	<rect x="147" y="158.941" fill="#D28F8C" width="6" height="6"/>
	<rect x="153" y="158.941" fill="#F0D0B4" width="6" height="6"/>
	<rect x="141" y="164.941" fill="#F0D0B4" width="6" height="6"/>
	<rect x="135" y="164.941" fill="#F0D0B4" width="6" height="6"/>
	<rect x="147" y="164.941" fill="#F0D0B4" width="6" height="6"/>
	<rect x="153" y="164.941" fill="#F0D0B4" width="6" height="6"/>
	<rect x="159" y="164.941" fill="#F0D0B4" width="6" height="6"/>
	<rect x="165" y="146.965" fill="#F0D0B4" width="6" height="6"/>
	<rect x="159" y="140.977" fill="#F0D0B4" width="6" height="6"/>
	<rect x="165" y="140.977" fill="#F0D0B4" width="6" height="6"/>
	<rect x="159" y="158.941" fill="#F0D0B4" width="6" height="6"/>
	<rect x="165" y="158.941" fill="#F0D0B4" width="6" height="6"/>
	<rect x="159" y="152.953" fill="#F0D0B4" width="6" height="6"/>
	<rect x="165" y="152.953" fill="#F0D0B4" width="6" height="6"/>
	<rect x="159" y="134.965" fill="#553125" width="6" height="6"/>
	<rect x="165" y="134.965" fill="#F0D0B4" width="6" height="6"/>
	<rect x="159" y="123.004" fill="#734637" width="6" height="6"/>
	<rect x="165" y="123.004" fill="#734637" width="6" height="6"/>
	<rect x="171" y="134.965" fill="#F0D0B4" width="6" height="6"/>
	<rect x="171" y="128.977" fill="#F0D0B4" width="6" height="6"/>
	<rect x="135" y="117.027" fill="#F0D0B4" width="6" height="6"/>
	<rect x="141" y="117.027" fill="#F0D0B4" width="6" height="6"/>
	<rect x="147" y="117.027" fill="#F0D0B4" width="6" height="6"/>
	<rect x="153" y="117.027" fill="#734637" width="6" height="6"/>
	<rect x="135" y="123.004" fill="#B68D63" width="6" height="6"/>
	<rect x="141" y="123.004" fill="#F0D0B4" width="6" height="6"/>
	<rect x="147" y="123.004" fill="#F0D0B4" width="6" height="6"/>
	<rect x="153" y="123.004" fill="#734637" width="6" height="6"/>
	<rect x="123" y="128.977" fill="#EFCFC0" width="6" height="6"/>
	<rect x="129" y="128.977" fill="#F0D0B4" width="6" height="6"/>
	<rect x="159" y="128.977" fill="#734637" width="6" height="6"/>
	<rect x="165" y="128.977" fill="#553125" width="6" height="6"/>
	<rect x="135" y="128.977" fill="#F0D0B4" width="6" height="6"/>
	<rect x="141" y="128.977" fill="#F0D0B4" width="6" height="6"/>
	<rect x="147" y="128.977" fill="#F0D0B4" width="6" height="6"/>
	<rect x="153" y="128.977" fill="#734637" width="6" height="6"/>
	<rect x="141" y="134.965" fill="#F0D0B4" width="6" height="6"/>
	<rect x="147" y="134.965" fill="#F0D0B4" width="6" height="6"/>
	<rect x="153" y="134.965" fill="#F0D0B4" width="6" height="6"/>
	<rect x="135" y="140.965" fill="#F0D0B4" width="6" height="6"/>
	<rect x="141" y="140.965" fill="#F0D0B4" width="6" height="6"/>
	<rect x="147" y="140.965" fill="#E7B890" width="6" height="6"/>
	<rect x="153" y="140.965" fill="#F0D0B4" width="6" height="6"/>
	<rect x="159" y="105.027" fill="#734637" width="6" height="6"/>
	<rect x="165" y="105.027" fill="#734637" width="6" height="6"/>
	<rect x="129" y="99.039" fill="#805041" width="6" height="6"/>
	<rect x="135" y="99.039" fill="#734637" width="6" height="6"/>
	<rect x="141" y="99.039" fill="#805041" width="6" height="6"/>
	<rect x="147" y="99.039" fill="#734637" width="6" height="6"/>
	<rect x="153" y="99.039" fill="#734637" width="6" height="6"/>
	<rect x="159" y="99.039" fill="#734637" width="6" height="6"/>
	<rect x="153" y="93.039" fill="#734637" width="6" height="6"/>
	<rect x="159" y="93.039" fill="#734637" width="6" height="6"/>
	<rect x="165" y="99.039" fill="#734637" width="6" height="6"/>
	<rect x="171" y="105.027" fill="#734637" width="6" height="6"/>
	<rect x="171" y="99.039" fill="#734637" width="6" height="6"/>
	<rect x="171" y="93.039" fill="#734637" width="6" height="6"/>
	<rect x="177" y="105.027" fill="#734637" width="6" height="6"/>
	<rect x="159" y="111.027" fill="#805041" width="6" height="6"/>
	<rect x="165" y="111.027" fill="#734637" width="6" height="6"/>
	<rect x="159" y="117.027" fill="#734637" width="6" height="6"/>
	<rect x="165" y="117.027" fill="#805041" width="6" height="6"/>
	<rect x="171" y="123.004" fill="#805041" width="6" height="6"/>
	<rect x="171" y="111.027" fill="#734637" width="6" height="6"/>
	<rect x="177" y="111.027" fill="#734637" width="6" height="6"/>
	<rect x="171" y="117.027" fill="#734637" width="6" height="6"/>
	<rect x="177" y="134.988" fill="#734637" width="6" height="6"/>
	<rect x="177" y="140.977" fill="#734637" width="6" height="6"/>
	<rect x="177" y="129.012" fill="#734637" width="6" height="6"/>
	<rect x="177" y="123.027" fill="#734637" width="6" height="6"/>
	<rect x="177" y="117.027" fill="#734637" width="6" height="6"/>
	<rect x="171" y="146.953" fill="#553125" width="6" height="6"/>
	<rect x="171" y="140.977" fill="#553125" width="6" height="6"/>
	<rect x="129" y="134.965" fill="#4C2F1C" width="6" height="6"/>
	<rect x="135" y="134.965" fill="#F7F0ED" width="6" height="6"/>
</g>
</svg>
