<?xml version="1.0" encoding="utf-8"?>
<!-- Generator: Adobe Illustrator 16.0.0, SVG Export Plug-In . SVG Version: 6.00 Build 0)  -->
<!DOCTYPE svg PUBLIC "-//W3C//DTD SVG 1.1//EN" "http://www.w3.org/Graphics/SVG/1.1/DTD/svg11.dtd">
<svg version="1.1" id="Layer_1" xmlns="http://www.w3.org/2000/svg" xmlns:xlink="http://www.w3.org/1999/xlink" x="0px" y="0px"
	 width="300px" height="300px" viewBox="0 0 300 300" enable-background="new 0 0 300 300" xml:space="preserve">
<g>
	<rect x="108.75" y="112.549" fill="#F7E0CF" width="7.5" height="7.5"/>
	<rect x="116.25" y="112.549" fill="#EFD1B8" width="7.5" height="7.5"/>
	<rect x="108.75" y="120.02" fill="#3C2415" width="7.5" height="7.5"/>
	<rect x="116.25" y="120.02" fill="#603913" width="7.5" height="7.5"/>
	<rect x="108.75" y="134.971" fill="#EFD1B8" width="7.5" height="7.5"/>
	<rect x="116.25" y="134.971" fill="#7D7967" width="7.5" height="7.5"/>
	<rect x="108.75" y="142.48" fill="#EFD1B8" width="7.5" height="7.5"/>
	<rect x="116.25" y="142.48" fill="#EFD1B8" width="7.5" height="7.5"/>
	<rect x="108.75" y="149.971" fill="#3C2415" width="7.5" height="7.5"/>
	<rect x="101.25" y="142.48" fill="#EFD1B8" width="7.5" height="7.5"/>
	<rect x="101.25" y="134.98" fill="#EFCFC0" width="7.5" height="7.5"/>
	<rect x="116.25" y="149.971" fill="#603913" width="7.5" height="7.5"/>
	<rect x="131.25" y="149.971" fill="#9B8579" width="7.5" height="7.5"/>
	<rect x="123.75" y="149.971" fill="#726658" width="7.5" height="7.5"/>
	<rect x="138.75" y="149.971" fill="#EFCFC0" width="7.5" height="7.5"/>
	<rect x="153.75" y="149.971" fill="#D7BFAA" width="7.5" height="7.5"/>
	<rect x="146.25" y="149.971" fill="#EFD1B8" width="7.5" height="7.5"/>
	<rect x="131.25" y="157.451" fill="#FFFFFF" width="7.5" height="7.5"/>
	<rect x="123.75" y="157.451" fill="#FFFFFF" width="7.5" height="7.5"/>
	<rect x="138.75" y="157.451" fill="#BB807B" width="7.5" height="7.5"/>
	<rect x="146.25" y="157.451" fill="#D7BFAA" width="7.5" height="7.5"/>
	<rect x="131.25" y="164.941" fill="#D28F8C" width="7.5" height="7.5"/>
	<rect x="123.75" y="164.941" fill="#D28F8C" width="7.5" height="7.5"/>
	<rect x="138.75" y="164.941" fill="#EFD1B8" width="7.5" height="7.5"/>
	<rect x="146.25" y="164.941" fill="#D7BFAA" width="7.5" height="7.5"/>
	<rect x="131.25" y="172.441" fill="#603913" width="7.5" height="7.5"/>
	<rect x="123.75" y="172.441" fill="#3C2415" width="7.5" height="7.5"/>
	<rect x="138.75" y="172.441" fill="#3C2415" width="7.5" height="7.5"/>
	<rect x="131.25" y="179.941" fill="#9B8579" width="7.5" height="7.5"/>
	<rect x="138.75" y="179.941" fill="#9B8579" width="7.5" height="7.5"/>
	<rect x="131.25" y="187.441" fill="#D7BFAA" width="7.5" height="7.5"/>
	<rect x="138.75" y="187.441" fill="#D7BFAA" width="7.5" height="7.5"/>
	<rect x="146.25" y="179.941" fill="#9B8579" width="7.5" height="7.5"/>
	<rect x="146.25" y="172.441" fill="#603913" width="7.5" height="7.5"/>
	<rect x="153.75" y="172.441" fill="#D7BFAA" width="7.5" height="7.5"/>
	<rect x="153.75" y="179.941" fill="#D7BFAA" width="7.5" height="7.5"/>
	<rect x="161.25" y="179.941" fill="#231F20" width="7.5" height="7.5"/>
	<rect x="168.75" y="179.941" fill="#323133" width="7.5" height="7.5"/>
	<rect x="161.25" y="172.441" fill="#EFD1B8" width="7.5" height="7.5"/>
	<rect x="153.75" y="187.441" fill="#231F20" width="7.5" height="7.5"/>
	<rect x="146.25" y="187.441" fill="#D7BFAA" width="7.5" height="7.5"/>
	<rect x="123.75" y="187.441" fill="#231F20" width="7.5" height="7.5"/>
	<rect x="108.75" y="187.441" fill="#323133" width="7.5" height="7.5"/>
	<rect x="161.25" y="187.441" fill="#323133" width="7.5" height="7.5"/>
	<rect x="168.75" y="187.441" fill="#323133" width="7.5" height="7.5"/>
	<rect x="176.25" y="187.441" fill="#323133" width="7.5" height="7.5"/>
	<rect x="131.25" y="202.441" fill="#231F20" width="7.5" height="7.5"/>
	<rect x="138.75" y="202.441" fill="#231F20" width="7.5" height="7.5"/>
	<rect x="153.75" y="202.441" fill="#323133" width="7.5" height="7.5"/>
	<rect x="146.25" y="202.441" fill="#231F20" width="7.5" height="7.5"/>
	<rect x="123.75" y="202.441" fill="#323133" width="7.5" height="7.5"/>
	<rect x="108.75" y="202.441" fill="#323133" width="7.5" height="7.5"/>
	<rect x="101.25" y="202.441" fill="#323133" width="7.5" height="7.5"/>
	<rect x="161.25" y="202.441" fill="#323133" width="7.5" height="7.5"/>
	<rect x="168.75" y="202.441" fill="#323133" width="7.5" height="7.5"/>
	<rect x="176.25" y="202.441" fill="#323133" width="7.5" height="7.5"/>
	<rect x="183.75" y="202.441" fill="#323133" width="7.5" height="7.5"/>
	<rect x="131.25" y="217.441" fill="#323133" width="7.5" height="7.5"/>
	<rect x="138.75" y="217.441" fill="#D7DF23" width="7.5" height="7.5"/>
	<rect x="153.75" y="217.441" fill="#D7DF23" width="7.5" height="7.5"/>
	<rect x="146.25" y="217.441" fill="#323133" width="7.5" height="7.5"/>
	<rect x="123.75" y="217.441" fill="#D7DF23" width="7.5" height="7.5"/>
	<rect x="108.75" y="217.441" fill="#EFD1B8" width="7.5" height="7.5"/>
	<rect x="101.25" y="217.441" fill="#EFD1B8" width="7.5" height="7.5"/>
	<rect x="161.25" y="217.441" fill="#231F20" width="7.5" height="7.5"/>
	<rect x="168.75" y="217.441" fill="#EFD1B8" width="7.5" height="7.5"/>
	<rect x="176.25" y="217.441" fill="#EFD1B8" width="7.5" height="7.5"/>
	<rect x="183.75" y="217.441" fill="#EFD1B8" width="7.5" height="7.5"/>
	<rect x="131.25" y="194.941" fill="#ECEEEE" width="7.5" height="7.5"/>
	<rect x="138.75" y="194.941" fill="#ECEEEE" width="7.5" height="7.5"/>
	<rect x="153.75" y="194.941" fill="#231F20" width="7.5" height="7.5"/>
	<rect x="146.25" y="194.941" fill="#ECEEEE" width="7.5" height="7.5"/>
	<rect x="123.75" y="194.941" fill="#231F20" width="7.5" height="7.5"/>
	<rect x="108.75" y="194.941" fill="#323133" width="7.5" height="7.5"/>
	<rect x="101.25" y="194.941" fill="#323133" width="7.5" height="7.5"/>
	<rect x="161.25" y="194.941" fill="#323133" width="7.5" height="7.5"/>
	<rect x="168.75" y="194.941" fill="#323133" width="7.5" height="7.5"/>
	<rect x="176.25" y="194.941" fill="#323133" width="7.5" height="7.5"/>
	<rect x="183.75" y="194.941" fill="#323133" width="7.5" height="7.5"/>
	<rect x="131.25" y="209.941" fill="#323133" width="7.5" height="7.5"/>
	<rect x="138.75" y="209.941" fill="#D7DF23" width="7.5" height="7.5"/>
	<rect x="153.75" y="209.941" fill="#323133" width="7.5" height="7.5"/>
	<rect x="146.25" y="209.941" fill="#323133" width="7.5" height="7.5"/>
	<rect x="123.75" y="209.941" fill="#323133" width="7.5" height="7.5"/>
	<rect x="108.75" y="209.941" fill="#323133" width="7.5" height="7.5"/>
	<rect x="116.25" y="187.441" fill="#323133" width="7.5" height="7.5"/>
	<rect x="116.25" y="202.441" fill="#323133" width="7.5" height="7.5"/>
	<rect x="116.25" y="217.441" fill="#231F20" width="7.5" height="7.5"/>
	<rect x="116.25" y="194.941" fill="#323133" width="7.5" height="7.5"/>
	<rect x="116.25" y="209.941" fill="#323133" width="7.5" height="7.5"/>
	<rect x="101.25" y="209.941" fill="#323133" width="7.5" height="7.5"/>
	<rect x="161.25" y="209.941" fill="#323133" width="7.5" height="7.5"/>
	<rect x="168.75" y="209.941" fill="#323133" width="7.5" height="7.5"/>
	<rect x="176.25" y="209.941" fill="#323133" width="7.5" height="7.5"/>
	<rect x="183.75" y="209.941" fill="#323133" width="7.5" height="7.5"/>
	<rect x="161.25" y="149.971" fill="#D7BFAA" width="7.5" height="7.5"/>
	<rect x="153.75" y="142.48" fill="#D7BFAA" width="7.5" height="7.5"/>
	<rect x="161.25" y="142.48" fill="#EFD1B8" width="7.5" height="7.5"/>
	<rect x="153.75" y="164.941" fill="#594A42" width="7.5" height="7.5"/>
	<rect x="161.25" y="164.941" fill="#EFD1B8" width="7.5" height="7.5"/>
	<rect x="153.75" y="157.451" fill="#9B8579" width="7.5" height="7.5"/>
	<rect x="161.25" y="157.451" fill="#EFD1B8" width="7.5" height="7.5"/>
	<rect x="153.75" y="134.971" fill="#9B8579" width="7.5" height="7.5"/>
	<rect x="161.25" y="134.971" fill="#EFD1B8" width="7.5" height="7.5"/>
	<rect x="153.75" y="120.02" fill="#3C2415" width="7.5" height="7.5"/>
	<rect x="161.25" y="120.02" fill="#EFD1B8" width="7.5" height="7.5"/>
	<rect x="168.75" y="134.971" fill="#EFD1B8" width="7.5" height="7.5"/>
	<rect x="168.75" y="127.48" fill="#EFD1B8" width="7.5" height="7.5"/>
	<rect x="123.75" y="112.549" fill="#603913" width="7.5" height="7.5"/>
	<rect x="131.25" y="112.549" fill="#3C2415" width="7.5" height="7.5"/>
	<rect x="138.75" y="112.549" fill="#603913" width="7.5" height="7.5"/>
	<rect x="146.25" y="112.549" fill="#3C2415" width="7.5" height="7.5"/>
	<rect x="123.75" y="120.02" fill="#EFD1B8" width="7.5" height="7.5"/>
	<rect x="131.25" y="120.02" fill="#EFD1B8" width="7.5" height="7.5"/>
	<rect x="138.75" y="120.02" fill="#231F20" width="7.5" height="7.5"/>
	<rect x="146.25" y="120.02" fill="#8B5E3C" width="7.5" height="7.5"/>
	<rect x="108.75" y="127.48" fill="#EFD1B8" width="7.5" height="7.5"/>
	<rect x="116.25" y="127.48" fill="#EFD1B8" width="7.5" height="7.5"/>
	<rect x="153.75" y="127.48" fill="#3C2415" width="7.5" height="7.5"/>
	<rect x="161.25" y="127.48" fill="#D5CBAD" width="7.5" height="7.5"/>
	<rect x="123.75" y="127.48" fill="#D7BFAA" width="7.5" height="7.5"/>
	<rect x="131.25" y="127.48" fill="#EFD1B8" width="7.5" height="7.5"/>
	<rect x="138.75" y="127.48" fill="#EFD1B8" width="7.5" height="7.5"/>
	<rect x="146.25" y="127.48" fill="#EFD1B8" width="7.5" height="7.5"/>
	<rect x="123.75" y="134.971" fill="#FFFFFF" width="7.5" height="7.5"/>
	<rect x="131.25" y="134.971" fill="#F7E0CF" width="7.5" height="7.5"/>
	<rect x="138.75" y="134.971" fill="#EFD1B8" width="7.5" height="7.5"/>
	<rect x="146.25" y="134.971" fill="#EFD1B8" width="7.5" height="7.5"/>
	<rect x="123.75" y="142.471" fill="#F7E0CF" width="7.5" height="7.5"/>
	<rect x="131.25" y="142.471" fill="#EFCFC0" width="7.5" height="7.5"/>
	<rect x="138.75" y="142.471" fill="#EFD1B8" width="7.5" height="7.5"/>
	<rect x="146.25" y="142.471" fill="#EFD1B8" width="7.5" height="7.5"/>
	<rect x="153.75" y="112.549" fill="#603913" width="7.5" height="7.5"/>
	<rect x="161.25" y="112.549" fill="#BE1E2D" width="7.5" height="7.5"/>
	<rect x="168.75" y="120.02" fill="#EFD1B8" width="7.5" height="7.5"/>
	<rect x="168.75" y="112.549" fill="#BE1E2D" width="7.5" height="7.5"/>
	<rect x="116.25" y="105.049" fill="#BE1E2D" width="7.5" height="7.5"/>
	<rect x="123.75" y="105.049" fill="#BE1E2D" width="7.5" height="7.5"/>
	<rect x="131.25" y="105.049" fill="#BE1E2D" width="7.5" height="7.5"/>
	<rect x="138.75" y="105.049" fill="#BE1E2D" width="7.5" height="7.5"/>
	<rect x="146.25" y="105.049" fill="#BE1E2D" width="7.5" height="7.5"/>
	<rect x="153.75" y="105.049" fill="#BE1E2D" width="7.5" height="7.5"/>
	<rect x="161.25" y="105.049" fill="#BE1E2D" width="7.5" height="7.5"/>
	<rect x="116.25" y="97.559" fill="#911C24" width="7.5" height="7.5"/>
	<rect x="108.75" y="105.049" fill="#BE1E2D" width="7.5" height="7.5"/>
	<rect x="183.75" y="112.549" fill="#BE1E2D" width="7.5" height="7.5"/>
	<rect x="191.25" y="112.549" fill="#BE1E2D" width="7.5" height="7.5"/>
	<rect x="176.25" y="112.549" fill="#BE1E2D" width="7.5" height="7.5"/>
	<rect x="108.75" y="97.559" fill="#BE1E2D" width="7.5" height="7.5"/>
	<rect x="108.75" y="90.059" fill="#911C24" width="7.5" height="7.5"/>
	<rect x="108.75" y="82.559" fill="#BE1E2D" width="7.5" height="7.5"/>
	<rect x="123.75" y="97.559" fill="#BE1E2D" width="7.5" height="7.5"/>
	<rect x="131.25" y="97.559" fill="#BE1E2D" width="7.5" height="7.5"/>
	<rect x="138.75" y="97.559" fill="#BE1E2D" width="7.5" height="7.5"/>
	<rect x="146.25" y="97.559" fill="#BE1E2D" width="7.5" height="7.5"/>
	<rect x="116.25" y="90.059" fill="#911C24" width="7.5" height="7.5"/>
	<rect x="123.75" y="90.059" fill="#911C24" width="7.5" height="7.5"/>
	<rect x="131.25" y="90.059" fill="#BE1E2D" width="7.5" height="7.5"/>
	<rect x="138.75" y="90.059" fill="#BE1E2D" width="7.5" height="7.5"/>
	<rect x="146.25" y="90.059" fill="#BE1E2D" width="7.5" height="7.5"/>
	<rect x="153.75" y="97.559" fill="#BE1E2D" width="7.5" height="7.5"/>
	<rect x="153.75" y="90.059" fill="#BE1E2D" width="7.5" height="7.5"/>
	<rect x="116.25" y="82.559" fill="#F7941E" width="7.5" height="7.5"/>
	<rect x="123.75" y="82.559" fill="#BE1E2D" width="7.5" height="7.5"/>
	<rect x="131.25" y="82.559" fill="#BE1E2D" width="7.5" height="7.5"/>
	<rect x="138.75" y="82.559" fill="#BE1E2D" width="7.5" height="7.5"/>
	<rect x="146.25" y="82.559" fill="#BE1E2D" width="7.5" height="7.5"/>
	<rect x="116.25" y="75.059" fill="#BE1E2D" width="7.5" height="7.5"/>
	<rect x="123.75" y="75.059" fill="#BE1E2D" width="7.5" height="7.5"/>
	<rect x="131.25" y="75.059" fill="#BE1E2D" width="7.5" height="7.5"/>
	<rect x="138.75" y="75.059" fill="#BE1E2D" width="7.5" height="7.5"/>
	<rect x="146.25" y="75.059" fill="#911C24" width="7.5" height="7.5"/>
	<rect x="153.75" y="75.059" fill="#BE1E2D" width="7.5" height="7.5"/>
	<rect x="153.75" y="82.559" fill="#BE1E2D" width="7.5" height="7.5"/>
	<rect x="161.25" y="75.059" fill="#BE1E2D" width="7.5" height="7.5"/>
	<rect x="168.75" y="82.559" fill="#BE1E2D" width="7.5" height="7.5"/>
	<rect x="161.25" y="82.559" fill="#BE1E2D" width="7.5" height="7.5"/>
	<rect x="161.25" y="97.559" fill="#BE1E2D" width="7.5" height="7.5"/>
	<rect x="161.25" y="90.059" fill="#BE1E2D" width="7.5" height="7.5"/>
	<rect x="168.75" y="105.049" fill="#BE1E2D" width="7.5" height="7.5"/>
	<rect x="168.75" y="97.559" fill="#BE1E2D" width="7.5" height="7.5"/>
	<rect x="168.75" y="90.059" fill="#BE1E2D" width="7.5" height="7.5"/>
</g>
</svg>
