<?xml version="1.0" encoding="utf-8"?>
<!-- Generator: Adobe Illustrator 16.0.0, SVG Export Plug-In . SVG Version: 6.00 Build 0)  -->
<!DOCTYPE svg PUBLIC "-//W3C//DTD SVG 1.1//EN" "http://www.w3.org/Graphics/SVG/1.1/DTD/svg11.dtd">
<svg version="1.1" id="Layer_1" xmlns="http://www.w3.org/2000/svg" xmlns:xlink="http://www.w3.org/1999/xlink" x="0px" y="0px"
	 width="300px" height="300px" viewBox="0 0 300 300" enable-background="new 0 0 300 300" xml:space="preserve">
<g>
	<rect x="117" y="111.023" fill="#F6EC45" width="6" height="6"/>
	<rect x="117" y="117.023" fill="#F8CF0A" width="6" height="6"/>
	<rect x="117" y="123.023" fill="#F8CF0A" width="6" height="6"/>
	<rect x="123" y="105.023" fill="#F8CF0A" width="6" height="6"/>
	<rect x="129" y="105.023" fill="#F6EC45" width="6" height="6"/>
	<rect x="135" y="105.023" fill="#F8CF0A" width="6" height="6"/>
	<rect x="141" y="105.023" fill="#DBAC27" width="6" height="6"/>
	<rect x="147" y="105.023" fill="#F6EC45" width="6" height="6"/>
	<rect x="123" y="111.023" fill="#DBAC27" width="6" height="6"/>
	<rect x="129" y="111.023" fill="#F8CF0A" width="6" height="6"/>
	<rect x="135" y="111.023" fill="#F8CF0A" width="6" height="6"/>
	<rect x="141" y="111.023" fill="#DBAC27" width="6" height="6"/>
	<rect x="147" y="111.023" fill="#F8CF0A" width="6" height="6"/>
	<rect x="123" y="117.023" fill="#DBAC27" width="6" height="6"/>
	<rect x="123" y="123" fill="#EEE1BF" width="6" height="6"/>
	<rect x="123" y="128.988" fill="#EEE1BF" width="6" height="6"/>
	<rect x="117" y="135.715" fill="#EDD69F" width="6" height="6"/>
	<rect x="123" y="135" fill="#EEE1BF" width="6" height="6"/>
	<rect x="123" y="140.988" fill="#EEE1BF" width="6" height="6"/>
	<rect x="135" y="140.988" fill="#EEE1BF" width="6" height="6"/>
	<rect x="129" y="140.988" fill="#EEE1BF" width="6" height="6"/>
	<rect x="141" y="140.988" fill="#EEE1BF" width="6" height="6"/>
	<rect x="153" y="140.988" fill="#EEE1BF" width="6" height="6"/>
	<rect x="147" y="140.988" fill="#EEE1BF" width="6" height="6"/>
	<rect x="135" y="146.977" fill="#FFFFFF" width="6" height="6"/>
	<rect x="129" y="146.977" fill="#FFFFFF" width="6" height="6"/>
	<rect x="141" y="146.977" fill="#FFFFFF" width="6" height="6"/>
	<rect x="147" y="146.977" fill="#C8314A" width="6" height="6"/>
	<rect x="135" y="152.965" fill="#C8314A" width="6" height="6"/>
	<rect x="129" y="152.965" fill="#C8314A" width="6" height="6"/>
	<rect x="141" y="152.965" fill="#C8314A" width="6" height="6"/>
	<rect x="147" y="152.965" fill="#EEE1BF" width="6" height="6"/>
	<rect x="135" y="158.965" fill="#EEE1BF" width="6" height="6"/>
	<rect x="129" y="158.965" fill="#EEE1BF" width="6" height="6"/>
	<rect x="141" y="158.965" fill="#EEE1BF" width="6" height="6"/>
	<rect x="135" y="164.965" fill="#CBC0A9" width="6" height="6"/>
	<rect x="141" y="164.965" fill="#CBC0A9" width="6" height="6"/>
	<rect x="135" y="170.965" fill="#EEE1BF" width="6" height="6"/>
	<rect x="141" y="170.965" fill="#EEE1BF" width="6" height="6"/>
	<rect x="147" y="164.965" fill="#CBC0A9" width="6" height="6"/>
	<rect x="147" y="158.965" fill="#EEE1BF" width="6" height="6"/>
	<rect x="153" y="158.965" fill="#EEE1BF" width="6" height="6"/>
	<rect x="147" y="170.965" fill="#EEE1BF" width="6" height="6"/>
	<rect x="135" y="176.965" fill="#EEE1BF" width="6" height="6"/>
	<rect x="141" y="176.965" fill="#EEE1BF" width="6" height="6"/>
	<rect x="153" y="176.965" fill="#EEE1BF" width="6" height="6"/>
	<rect x="147" y="176.965" fill="#EEE1BF" width="6" height="6"/>
	<rect x="129" y="176.965" fill="#EEE1BF" width="6" height="6"/>
	<rect x="123" y="176.965" fill="#FFFFFF" width="6" height="6"/>
	<rect x="159" y="176.965" fill="#D9787C" width="6" height="6"/>
	<rect x="165" y="176.965" fill="#FFFFFF" width="6" height="6"/>
	<rect x="171" y="176.965" fill="#EEE1BF" width="6" height="6"/>
	<rect x="135" y="182.965" fill="#EEE1BF" width="6" height="6"/>
	<rect x="141" y="182.965" fill="#EDD69F" width="6" height="6"/>
	<rect x="153" y="182.965" fill="#EEE1BF" width="6" height="6"/>
	<rect x="147" y="182.965" fill="#EEE1BF" width="6" height="6"/>
	<rect x="129" y="182.965" fill="#EEE1BF" width="6" height="6"/>
	<rect x="123" y="182.965" fill="#D9787C" width="6" height="6"/>
	<rect x="117" y="182.965" fill="#EEE1BF" width="6" height="6"/>
	<rect x="159" y="182.965" fill="#1B455E" width="6" height="6"/>
	<rect x="165" y="182.965" fill="#D9787C" width="6" height="6"/>
	<rect x="171" y="182.965" fill="#EEE1BF" width="6" height="6"/>
	<rect x="177" y="182.965" fill="#EEE1BF" width="6" height="6"/>
	<rect x="135" y="188.965" fill="#D9787C" width="6" height="6"/>
	<rect x="141" y="188.965" fill="#D9787C" width="6" height="6"/>
	<rect x="153" y="188.965" fill="#1B455E" width="6" height="6"/>
	<rect x="147" y="188.965" fill="#D9787C" width="6" height="6"/>
	<rect x="129" y="188.965" fill="#D9787C" width="6" height="6"/>
	<rect x="123" y="188.965" fill="#FFFFFF" width="6" height="6"/>
	<rect x="117" y="188.965" fill="#EDD69F" width="6" height="6"/>
	<rect x="159" y="188.965" fill="#39B8E4" width="6" height="6"/>
	<rect x="165" y="188.965" fill="#ABDDDC" width="6" height="6"/>
	<rect x="171" y="188.965" fill="#EEE1BF" width="6" height="6"/>
	<rect x="177" y="188.965" fill="#EDD69F" width="6" height="6"/>
	<rect x="135" y="194.965" fill="#FFFFFF" width="6" height="6"/>
	<rect x="141" y="194.965" fill="#D9787C" width="6" height="6"/>
	<rect x="153" y="194.965" fill="#D9787C" width="6" height="6"/>
	<rect x="147" y="194.965" fill="#FFFFFF" width="6" height="6"/>
	<rect x="129" y="194.965" fill="#D9787C" width="6" height="6"/>
	<rect x="123" y="194.965" fill="#D9787C" width="6" height="6"/>
	<rect x="117" y="194.965" fill="#EDD69F" width="6" height="6"/>
	<rect x="159" y="194.965" fill="#ABDDDC" width="6" height="6"/>
	<rect x="165" y="194.965" fill="#D9787C" width="6" height="6"/>
	<rect x="171" y="194.965" fill="#EEE1BF" width="6" height="6"/>
	<rect x="177" y="194.965" fill="#EDD69F" width="6" height="6"/>
	<rect x="159" y="140.988" fill="#784298" width="6" height="6"/>
	<rect x="153" y="135" fill="#EEE1BF" width="6" height="6"/>
	<rect x="159" y="135" fill="#EEE1BF" width="6" height="6"/>
	<rect x="153" y="152.965" fill="#EEE1BF" width="6" height="6"/>
	<rect x="159" y="152.965" fill="#DBAC27" width="6" height="6"/>
	<rect x="153" y="146.977" fill="#EEE1BF" width="6" height="6"/>
	<rect x="159" y="146.977" fill="#DBAC27" width="6" height="6"/>
	<rect x="153" y="128.988" fill="#EDD69F" width="6" height="6"/>
	<rect x="159" y="128.988" fill="#EEE1BF" width="6" height="6"/>
	<rect x="153" y="123" fill="#EDD69F" width="6" height="6"/>
	<rect x="159" y="123" fill="#F8CF0A" width="6" height="6"/>
	<rect x="165" y="128.988" fill="#DBAC27" width="6" height="6"/>
	<rect x="165" y="123" fill="#F8CF0A" width="6" height="6"/>
	<rect x="129" y="117.023" fill="#F8CF0A" width="6" height="6"/>
	<rect x="135" y="117.023" fill="#EEE1BF" width="6" height="6"/>
	<rect x="141" y="117.023" fill="#DBAC27" width="6" height="6"/>
	<rect x="147" y="117.023" fill="#F8CF0A" width="6" height="6"/>
	<rect x="129" y="123" fill="#EEE1BF" width="6" height="6"/>
	<rect x="135" y="123" fill="#EEE1BF" width="6" height="6"/>
	<rect x="141" y="123" fill="#EEE1BF" width="6" height="6"/>
	<rect x="147" y="123" fill="#EEE1BF" width="6" height="6"/>
	<rect x="129" y="128.988" fill="#EEE1BF" width="6" height="6"/>
	<rect x="135" y="128.988" fill="#39B8E4" width="6" height="6"/>
	<rect x="141" y="128.988" fill="#FFFFFF" width="6" height="6"/>
	<rect x="147" y="128.988" fill="#EEE1BF" width="6" height="6"/>
	<rect x="129" y="134.988" fill="#EEE1BF" width="6" height="6"/>
	<rect x="135" y="134.988" fill="#EEE1BF" width="6" height="6"/>
	<rect x="141" y="134.988" fill="#EEE1BF" width="6" height="6"/>
	<rect x="147" y="134.988" fill="#EEE1BF" width="6" height="6"/>
	<rect x="153" y="105.023" fill="#DBAC27" width="6" height="6"/>
	<rect x="159" y="105.023" fill="#F8CF0A" width="6" height="6"/>
	<rect x="129" y="99.035" fill="#F8CF0A" width="6" height="6"/>
	<rect x="135" y="99.035" fill="#F8CF0A" width="6" height="6"/>
	<rect x="141" y="99.035" fill="#F8CF0A" width="6" height="6"/>
	<rect x="147" y="99.035" fill="#F8CF0A" width="6" height="6"/>
	<rect x="153" y="99.035" fill="#F8CF0A" width="6" height="6"/>
	<rect x="153" y="111.023" fill="#F8CF0A" width="6" height="6"/>
	<rect x="153" y="123" fill="#F8CF0A" width="6" height="6"/>
	<rect x="153" y="128.988" fill="#F8CF0A" width="6" height="6"/>
	<rect x="159" y="111.023" fill="#DBAC27" width="6" height="6"/>
	<rect x="165" y="111.023" fill="#F8CF0A" width="6" height="6"/>
	<rect x="165" y="117.023" fill="#F8CF0A" width="6" height="6"/>
	<rect x="171" y="123.023" fill="#F8CF0A" width="6" height="6"/>
	<rect x="171" y="128.988" fill="#F8CF0A" width="6" height="6"/>
	<rect x="171" y="141" fill="#F8CF0A" width="6" height="6"/>
	<rect x="171" y="135" fill="#F8CF0A" width="6" height="6"/>
	<rect x="171" y="147" fill="#F8CF0A" width="6" height="6"/>
	<rect x="165" y="141" fill="#DBAC27" width="6" height="6"/>
	<rect x="165" y="135" fill="#DBAC27" width="6" height="6"/>
	<rect x="165" y="147" fill="#DBAC27" width="6" height="6"/>
	<rect x="171" y="152.965" fill="#F8CF0A" width="6" height="6"/>
	<rect x="177" y="128.988" fill="#F8CF0A" width="6" height="6"/>
	<rect x="177" y="141" fill="#F8CF0A" width="6" height="6"/>
	<rect x="177" y="135" fill="#F8CF0A" width="6" height="6"/>
	<rect x="177" y="147" fill="#F8CF0A" width="6" height="6"/>
	<rect x="177" y="152.965" fill="#F8CF0A" width="6" height="6"/>
	<rect x="165" y="152.965" fill="#DBAC27" width="6" height="6"/>
	<rect x="171" y="158.965" fill="#F8CF0A" width="6" height="6"/>
	<rect x="123" y="158.965" fill="#DBAC27" width="6" height="6"/>
	<rect x="129" y="164.965" fill="#DBAC27" width="6" height="6"/>
	<rect x="123" y="164.965" fill="#DBAC27" width="6" height="6"/>
	<rect x="123" y="153" fill="#DBAC27" width="6" height="6"/>
	<rect x="117" y="158.965" fill="#F8CF0A" width="6" height="6"/>
	<rect x="117" y="164.965" fill="#FBED21" width="6" height="6"/>
	<rect x="165" y="158.965" fill="#FBED21" width="6" height="6"/>
	<rect x="171" y="164.965" fill="#F8CF0A" width="6" height="6"/>
	<rect x="165" y="164.965" fill="#F8CF0A" width="6" height="6"/>
	<rect x="165" y="170.965" fill="#F8CF0A" width="6" height="6"/>
	<rect x="159" y="170.965" fill="#F8CF0A" width="6" height="6"/>
	<rect x="159" y="158.965" fill="#DBAC27" width="6" height="6"/>
	<rect x="159" y="164.965" fill="#F8CF0A" width="6" height="6"/>
	<rect x="153" y="164.965" fill="#F8CF0A" width="6" height="6"/>
	<rect x="153" y="117.023" fill="#F8CF0A" width="6" height="6"/>
	<rect x="159" y="117.023" fill="#DBAC27" width="6" height="6"/>
</g>
</svg>
