<?xml version="1.0" encoding="utf-8"?>
<!-- Generator: Adobe Illustrator 16.0.0, SVG Export Plug-In . SVG Version: 6.00 Build 0)  -->
<!DOCTYPE svg PUBLIC "-//W3C//DTD SVG 1.1//EN" "http://www.w3.org/Graphics/SVG/1.1/DTD/svg11.dtd">
<svg version="1.1" id="Layer_1" xmlns="http://www.w3.org/2000/svg" xmlns:xlink="http://www.w3.org/1999/xlink" x="0px" y="0px"
	 width="300px" height="300px" viewBox="0 0 300 300" enable-background="new 0 0 300 300" xml:space="preserve">
<g>
	<rect x="135.025" y="164.902" fill="#E5B29B" width="6" height="6"/>
	<rect x="141.025" y="164.902" fill="#D7BFAA" width="6" height="6"/>
	<rect x="147.025" y="164.902" fill="#EFD1B8" width="6" height="6"/>
	<rect x="153.021" y="164.902" fill="#EFD1B8" width="6" height="6"/>
	<rect x="129.018" y="93.125" fill="#464749" width="6" height="6"/>
	<rect x="135.018" y="93.125" fill="#231F20" width="6" height="6"/>
	<rect x="141.018" y="93.125" fill="#231F20" width="6" height="6"/>
	<rect x="123.018" y="105.109" fill="#F3D9D0" width="6" height="6"/>
	<rect x="129.018" y="105.109" fill="#EFD1B8" width="6" height="6"/>
	<rect x="135.018" y="105.109" fill="#EFD1B8" width="6" height="6"/>
	<rect x="141.018" y="105.109" fill="#464749" width="6" height="6"/>
	<rect x="147.018" y="105.109" fill="#231F20" width="6" height="6"/>
	<rect x="117.018" y="111.164" fill="#F3D9D0" width="6" height="6"/>
	<rect x="123.018" y="111.164" fill="#EFD1B8" width="6" height="6"/>
	<rect x="117.018" y="117.141" fill="#EFD1B8" width="6" height="6"/>
	<rect x="123.018" y="117.141" fill="#231F20" width="6" height="6"/>
	<rect x="117.018" y="129.094" fill="#EFCFC0" width="6" height="6"/>
	<rect x="123.018" y="129.102" fill="#6D808E" width="6" height="6"/>
	<rect x="117.018" y="135.117" fill="#EFD1B8" width="6" height="6"/>
	<rect x="123.018" y="135.102" fill="#EFCFC0" width="6" height="6"/>
	<rect x="117.018" y="141.102" fill="#E3C9B6" width="6" height="6"/>
	<rect x="111.018" y="135.102" fill="#EFD1B8" width="6" height="6"/>
	<rect x="123.018" y="141.102" fill="#E3C9B6" width="6" height="6"/>
	<rect x="135.018" y="141.102" fill="#EFCFC0" width="6" height="6"/>
	<rect x="129.018" y="141.102" fill="#BAA993" width="6" height="6"/>
	<rect x="141.018" y="141.102" fill="#EFCFC0" width="6" height="6"/>
	<rect x="159.018" y="141.102" fill="#EFD1B8" width="6" height="6"/>
	<rect x="147.018" y="141.102" fill="#EFD1B8" width="6" height="6"/>
	<rect x="135.018" y="147.094" fill="#AD6A6D" width="6" height="6"/>
	<rect x="129.018" y="147.094" fill="#FFFFFF" width="6" height="6"/>
	<rect x="123.018" y="147.094" fill="#FFFFFF" width="6" height="6"/>
	<rect x="141.018" y="147.094" fill="#EFD1B8" width="6" height="6"/>
	<rect x="147.018" y="147.094" fill="#E3C9B6" width="6" height="6"/>
	<rect x="135.018" y="153.078" fill="#EFD1B8" width="6" height="6"/>
	<rect x="129.018" y="153.078" fill="#D28F8C" width="6" height="6"/>
	<rect x="141.018" y="153.078" fill="#E3C9B6" width="6" height="6"/>
	<rect x="147.018" y="153.078" fill="#E5B29B" width="6" height="6"/>
	<rect x="135.018" y="159.078" fill="#EFD1B8" width="6" height="6"/>
	<rect x="129.018" y="159.078" fill="#EFCFC0" width="6" height="6"/>
	<rect x="123.018" y="153.078" fill="#E3A193" width="6" height="6"/>
	<rect x="123.018" y="159.078" fill="#EFCFC0" width="6" height="6"/>
	<rect x="129.021" y="164.902" fill="#BAA993" width="6" height="6"/>
	<rect x="123.018" y="164.902" fill="#BAA993" width="6" height="6"/>
	<rect x="141.018" y="159.078" fill="#E5B29B" width="6" height="6"/>
	<rect x="147.018" y="159.078" fill="#E3C9B6" width="6" height="6"/>
	<rect x="153.018" y="159.078" fill="#E3C9B6" width="6" height="6"/>
	<rect x="165.018" y="141.102" fill="#EFD1B8" width="6" height="6"/>
	<rect x="159.018" y="135.117" fill="#5A5B5E" width="6" height="6"/>
	<rect x="159.018" y="153.078" fill="#EFD1B8" width="6" height="6"/>
	<rect x="159.018" y="147.094" fill="#EFD1B8" width="6" height="6"/>
	<rect x="159.021" y="159.078" fill="#EFD1B8" width="6" height="6"/>
	<rect x="159.018" y="129.102" fill="#231F20" width="6" height="6"/>
	<rect x="165.018" y="135.086" fill="#EFD1B8" width="6" height="6"/>
	<rect x="171.021" y="135.086" fill="#EFD1B8" width="6" height="6"/>
	<rect x="159.018" y="117.141" fill="#323133" width="6" height="6"/>
	<rect x="165.018" y="123.125" fill="#F3D9D0" width="6" height="6"/>
	<rect x="129.018" y="111.164" fill="#EFD1B8" width="6" height="6"/>
	<rect x="135.018" y="111.164" fill="#E3C9B6" width="6" height="6"/>
	<rect x="141.018" y="111.164" fill="#EFD1B8" width="6" height="6"/>
	<rect x="147.018" y="111.164" fill="#464749" width="6" height="6"/>
	<rect x="129.018" y="117.141" fill="#414042" width="6" height="6"/>
	<rect x="135.018" y="117.141" fill="#EFD1B8" width="6" height="6"/>
	<rect x="141.018" y="117.141" fill="#EFD1B8" width="6" height="6"/>
	<rect x="147.018" y="117.141" fill="#323133" width="6" height="6"/>
	<rect x="117.018" y="123.102" fill="#EFD1B8" width="6" height="6"/>
	<rect x="123.018" y="123.102" fill="#EFD1B8" width="6" height="6"/>
	<rect x="159.018" y="123.102" fill="#5A5B5E" width="6" height="6"/>
	<rect x="165.018" y="129.094" fill="#E5B29B" width="6" height="6"/>
	<rect x="171.021" y="123.125" fill="#EFD1B8" width="6" height="6"/>
	<rect x="171.021" y="129.094" fill="#EFD1B8" width="6" height="6"/>
	<rect x="129.018" y="123.102" fill="#EFD1B8" width="6" height="6"/>
	<rect x="135.018" y="123.102" fill="#D7BFAA" width="6" height="6"/>
	<rect x="141.018" y="123.102" fill="#EFD1B8" width="6" height="6"/>
	<rect x="147.018" y="123.102" fill="#323133" width="6" height="6"/>
	<rect x="129.018" y="129.102" fill="#FFFFFF" width="6" height="6"/>
	<rect x="135.018" y="129.102" fill="#EFD1B8" width="6" height="6"/>
	<rect x="141.018" y="129.102" fill="#EFD1B8" width="6" height="6"/>
	<rect x="147.018" y="129.102" fill="#EFD1B8" width="6" height="6"/>
	<rect x="129.018" y="135.102" fill="#EFCFC0" width="6" height="6"/>
	<rect x="135.018" y="135.102" fill="#EFCFC0" width="6" height="6"/>
	<rect x="141.018" y="135.102" fill="#EFD1B8" width="6" height="6"/>
	<rect x="147.018" y="135.102" fill="#EFD1B8" width="6" height="6"/>
	<rect x="159.018" y="105.109" fill="#464749" width="6" height="6"/>
	<rect x="165.018" y="105.109" fill="#231F20" width="6" height="6"/>
	<rect x="123.018" y="99.125" fill="#231F20" width="6" height="6"/>
	<rect x="117.018" y="93.125" fill="#231F20" width="6" height="6"/>
	<rect x="117.018" y="105.203" fill="#F3D9D0" width="6" height="6"/>
	<rect x="117.018" y="99.164" fill="#464749" width="6" height="6"/>
	<rect x="110.979" y="99.164" fill="#231F20" width="6" height="6"/>
	<rect x="129.018" y="99.125" fill="#231F20" width="6" height="6"/>
	<rect x="135.018" y="99.125" fill="#464749" width="6" height="6"/>
	<rect x="141.018" y="99.125" fill="#231F20" width="6" height="6"/>
	<rect x="147.018" y="99.125" fill="#231F20" width="6" height="6"/>
	<rect x="159.018" y="99.125" fill="#231F20" width="6" height="6"/>
	<rect x="147.018" y="93.125" fill="#231F20" width="6" height="6"/>
	<rect x="159.018" y="111.164" fill="#231F20" width="6" height="6"/>
	<rect x="153.021" y="141.102" fill="#323133" width="6" height="6"/>
	<rect x="153.021" y="135.117" fill="#5A5B5E" width="6" height="6"/>
	<rect x="153.021" y="153.078" fill="#E3C9B6" width="6" height="6"/>
	<rect x="153.021" y="147.094" fill="#5A5B5E" width="6" height="6"/>
	<rect x="153.021" y="129.102" fill="#5A5B5E" width="6" height="6"/>
	<rect x="153.021" y="117.141" fill="#231F20" width="6" height="6"/>
	<rect x="153.021" y="123.102" fill="#323133" width="6" height="6"/>
	<rect x="153.021" y="105.109" fill="#464749" width="6" height="6"/>
	<rect x="153.021" y="99.125" fill="#231F20" width="6" height="6"/>
	<rect x="153.021" y="93.125" fill="#231F20" width="6" height="6"/>
	<rect x="153.021" y="111.164" fill="#231F20" width="6" height="6"/>
	<rect x="165.018" y="111.164" fill="#323133" width="6" height="6"/>
	<rect x="165.018" y="117.141" fill="#231F20" width="6" height="6"/>
	<rect x="129.021" y="170.902" fill="#D7BFAA" width="6" height="6"/>
	<rect x="135.021" y="170.906" fill="#D7BFAA" width="6" height="6"/>
	<rect x="141.021" y="170.906" fill="#EFD1B8" width="6" height="6"/>
	<rect x="129.021" y="176.875" fill="#FFFFFF" width="6" height="6"/>
	<rect x="135.021" y="176.875" fill="#EFD1B8" width="6" height="6"/>
	<rect x="141.021" y="176.875" fill="#EFD1B8" width="6" height="6"/>
	<rect x="147.018" y="170.906" fill="#EFD1B8" width="6" height="6"/>
	<rect x="147.018" y="176.875" fill="#EFD1B8" width="6" height="6"/>
	<rect x="141.021" y="188.875" fill="#231F20" width="6" height="6"/>
	<rect x="135.021" y="182.875" fill="#231F20" width="6" height="6"/>
	<rect x="147.021" y="182.875" fill="#231F20" width="6" height="6"/>
	<rect x="141.021" y="182.875" fill="#231F20" width="6" height="6"/>
	<rect x="153.018" y="176.871" fill="#231F20" width="6" height="6"/>
	<rect x="153.018" y="182.875" fill="#323133" width="6" height="6"/>
	<rect x="153.021" y="170.906" fill="#EFD1B8" width="6" height="6"/>
	<rect x="129.018" y="176.875" fill="#231F20" width="6" height="6"/>
	<rect x="123.018" y="176.875" fill="#5A5B5E" width="6" height="6"/>
	<rect x="123.018" y="170.902" fill="#323133" width="6" height="6"/>
	<rect x="117.143" y="170.902" fill="#5A5B5E" width="6" height="6"/>
	<rect x="129.018" y="182.875" fill="#323133" width="6" height="6"/>
	<rect x="123.018" y="182.875" fill="#231F20" width="6" height="6"/>
	<rect x="117.018" y="182.875" fill="#42607E" width="6" height="6"/>
	<rect x="129.018" y="188.875" fill="#5A5B5E" width="6" height="6"/>
	<rect x="123.018" y="188.875" fill="#323133" width="6" height="6"/>
	<rect x="117.018" y="188.875" fill="#5A5B5E" width="6" height="6"/>
	<rect x="129.018" y="194.875" fill="#42607E" width="6" height="6"/>
	<rect x="123.018" y="194.875" fill="#323133" width="6" height="6"/>
	<rect x="117.018" y="194.875" fill="#5A5B5E" width="6" height="6"/>
	<rect x="129.018" y="200.875" fill="#5A5B5E" width="6" height="6"/>
	<rect x="135.018" y="188.875" fill="#231F20" width="6" height="6"/>
	<rect x="135.018" y="194.875" fill="#231F20" width="6" height="6"/>
	<rect x="135.018" y="200.875" fill="#323133" width="6" height="6"/>
	<rect x="141.018" y="194.875" fill="#231F20" width="6" height="6"/>
	<rect x="141.018" y="200.875" fill="#231F20" width="6" height="6"/>
	<rect x="123.018" y="200.875" fill="#323133" width="6" height="6"/>
	<rect x="117.018" y="200.875" fill="#231F20" width="6" height="6"/>
	<rect x="111.018" y="188.875" fill="#323133" width="6" height="6"/>
	<rect x="111.018" y="194.875" fill="#323133" width="6" height="6"/>
	<rect x="111.018" y="200.875" fill="#323133" width="6" height="6"/>
	<rect x="159.021" y="170.902" fill="#5A5B5E" width="6" height="6"/>
	<rect x="165.021" y="170.875" fill="#323133" width="6" height="6"/>
	<rect x="159.021" y="164.875" fill="#5A5B5E" width="6" height="6"/>
	<rect x="165.021" y="164.875" fill="#323133" width="6" height="6"/>
	<rect x="171.021" y="164.875" fill="#5A5B5E" width="6" height="6"/>
	<rect x="159.021" y="176.875" fill="#323133" width="6" height="6"/>
	<rect x="165.021" y="176.875" fill="#231F20" width="6" height="6"/>
	<rect x="171.021" y="176.875" fill="#323133" width="6" height="6"/>
	<rect x="177.021" y="176.875" fill="#323133" width="6" height="6"/>
	<rect x="159.021" y="182.875" fill="#231F20" width="6" height="6"/>
	<rect x="165.021" y="182.875" fill="#323133" width="6" height="6"/>
	<rect x="171.021" y="182.875" fill="#323133" width="6" height="6"/>
	<rect x="177.021" y="182.875" fill="#42607E" width="6" height="6"/>
	<rect x="183.021" y="182.875" fill="#323133" width="6" height="6"/>
	<rect x="159.021" y="188.875" fill="#323133" width="6" height="6"/>
	<rect x="165.021" y="188.875" fill="#42607E" width="6" height="6"/>
	<rect x="171.021" y="188.875" fill="#323133" width="6" height="6"/>
	<rect x="177.021" y="188.875" fill="#5A5B5E" width="6" height="6"/>
	<rect x="183.021" y="188.875" fill="#323133" width="6" height="6"/>
	<rect x="159.021" y="194.875" fill="#323133" width="6" height="6"/>
	<rect x="165.021" y="194.875" fill="#5A5B5E" width="6" height="6"/>
	<rect x="171.021" y="194.875" fill="#323133" width="6" height="6"/>
	<rect x="177.021" y="194.875" fill="#42607E" width="6" height="6"/>
	<rect x="183.021" y="194.875" fill="#323133" width="6" height="6"/>
	<rect x="159.021" y="200.875" fill="#323133" width="6" height="6"/>
	<rect x="153.025" y="188.875" fill="#5A5B5E" width="6" height="6"/>
	<rect x="147.021" y="188.875" fill="#231F20" width="6" height="6"/>
	<rect x="153.025" y="194.875" fill="#42607E" width="6" height="6"/>
	<rect x="153.025" y="200.875" fill="#5A5B5E" width="6" height="6"/>
	<rect x="147.018" y="194.875" fill="#231F20" width="6" height="6"/>
	<rect x="147.018" y="200.875" fill="#323133" width="6" height="6"/>
	<rect x="165.021" y="200.875" fill="#231F20" width="6" height="6"/>
	<rect x="171.021" y="200.875" fill="#323133" width="6" height="6"/>
	<rect x="177.021" y="200.875" fill="#5A5B5E" width="6" height="6"/>
	<rect x="183.021" y="200.875" fill="#323133" width="6" height="6"/>
</g>
</svg>
