<?xml version="1.0" encoding="utf-8"?>
<!-- Generator: Adobe Illustrator 16.0.0, SVG Export Plug-In . SVG Version: 6.00 Build 0)  -->
<!DOCTYPE svg PUBLIC "-//W3C//DTD SVG 1.1//EN" "http://www.w3.org/Graphics/SVG/1.1/DTD/svg11.dtd">
<svg version="1.1" id="Layer_1" xmlns="http://www.w3.org/2000/svg" xmlns:xlink="http://www.w3.org/1999/xlink" x="0px" y="0px"
	 width="300px" height="300px" viewBox="0 0 300 300" enable-background="new 0 0 300 300" xml:space="preserve">
<g>
	<rect x="133.199" y="99.645" fill="#2F292B" width="4.801" height="4.8"/>
	<rect x="128.4" y="99.645" fill="#4E3D15" width="4.799" height="4.8"/>
	<rect x="138" y="99.645" fill="#4E3D15" width="4.8" height="4.8"/>
	<rect x="142.8" y="99.645" fill="#2F292B" width="4.8" height="4.8"/>
	<rect x="147.6" y="99.645" fill="#2F292B" width="4.801" height="4.8"/>
	<rect x="128.4" y="109.236" fill="#2F292B" width="4.799" height="4.8"/>
	<rect x="133.199" y="109.236" fill="#2F292B" width="4.801" height="4.8"/>
	<rect x="138" y="109.236" fill="#2F292B" width="4.8" height="4.8"/>
	<rect x="142.8" y="109.236" fill="#2F292B" width="4.8" height="4.8"/>
	<rect x="147.6" y="109.236" fill="#2F292B" width="4.801" height="4.8"/>
	<rect x="152.4" y="109.236" fill="#2F292B" width="4.799" height="4.8"/>
	<rect x="128.4" y="114.036" fill="#EEE1BF" width="4.799" height="4.8"/>
	<rect x="133.199" y="114.036" fill="#EEE1BF" width="4.801" height="4.8"/>
	<rect x="138" y="114.036" fill="#EEE1BF" width="4.8" height="4.8"/>
	<rect x="142.8" y="114.036" fill="#EBC297" width="4.8" height="4.8"/>
	<rect x="147.6" y="114.036" fill="#EBC297" width="4.801" height="4.8"/>
	<rect x="152.4" y="114.036" fill="#2F292B" width="4.799" height="4.8"/>
	<rect x="128.4" y="123.629" fill="#EEE1BF" width="4.799" height="4.8"/>
	<rect x="133.199" y="123.629" fill="#6E5D55" width="4.801" height="4.8"/>
	<rect x="128.4" y="128.411" fill="#EDD69F" width="4.799" height="4.8"/>
	<rect x="133.199" y="128.411" fill="#EDD69F" width="4.801" height="4.8"/>
	<rect x="128.4" y="137.979" fill="#EDD69F" width="4.799" height="4.8"/>
	<rect x="133.199" y="137.979" fill="#EDD69F" width="4.801" height="4.8"/>
	<rect x="128.4" y="142.789" fill="#EEE1BF" width="4.799" height="4.8"/>
	<rect x="133.199" y="142.789" fill="#EDD69F" width="4.801" height="4.8"/>
	<rect x="128.4" y="152.398" fill="#4E3D15" width="4.799" height="4.8"/>
	<rect x="123.6" y="137.989" fill="#EDD69F" width="4.801" height="4.8"/>
	<rect x="123.6" y="142.789" fill="#EBC297" width="4.801" height="4.8"/>
	<rect x="118.8" y="142.789" fill="#EDD69F" width="4.8" height="4.8"/>
	<rect x="123.6" y="133.189" fill="#EDD69F" width="4.801" height="4.8"/>
	<rect x="123.6" y="128.42" fill="#EEE1BF" width="4.801" height="4.8"/>
	<rect x="133.199" y="152.398" fill="#4E3D15" width="4.801" height="4.8"/>
	<rect x="142.8" y="152.398" fill="#775D26" width="4.8" height="4.8"/>
	<rect x="138" y="152.398" fill="#6E5D55" width="4.8" height="4.8"/>
	<rect x="147.6" y="152.398" fill="#A48B54" width="4.801" height="4.8"/>
	<rect x="157.199" y="152.398" fill="#775D26" width="4.801" height="4.8"/>
	<rect x="152.4" y="152.398" fill="#9F7E2D" width="4.799" height="4.8"/>
	<rect x="142.8" y="157.189" fill="#FFFFFF" width="4.8" height="4.8"/>
	<rect x="138" y="157.189" fill="#FFFFFF" width="4.8" height="4.8"/>
	<rect x="147.6" y="157.189" fill="#FFFFFF" width="4.801" height="4.8"/>
	<rect x="152.4" y="157.189" fill="#C62C3D" width="4.799" height="4.8"/>
	<rect x="142.8" y="161.979" fill="#C62C3D" width="4.8" height="4.8"/>
	<rect x="138" y="161.979" fill="#C62C3D" width="4.8" height="4.8"/>
	<rect x="147.6" y="161.979" fill="#C62C3D" width="4.801" height="4.8"/>
	<rect x="152.4" y="161.979" fill="#4E3D15" width="4.799" height="4.8"/>
	<rect x="142.8" y="166.78" fill="#775D26" width="4.8" height="4.8"/>
	<rect x="138" y="166.78" fill="#775D26" width="4.8" height="4.8"/>
	<rect x="147.6" y="166.78" fill="#4E3D15" width="4.801" height="4.8"/>
	<rect x="142.8" y="171.58" fill="#4E3D15" width="4.8" height="4.8"/>
	<rect x="138" y="171.58" fill="#4E3D15" width="4.8" height="4.8"/>
	<rect x="133.199" y="166.78" fill="#4E3D15" width="4.801" height="4.8"/>
	<rect x="133.199" y="161.979" fill="#C62C3D" width="4.801" height="4.8"/>
	<rect x="147.6" y="171.58" fill="#EDD69F" width="4.801" height="4.8"/>
	<rect x="142.8" y="181.155" fill="#EDD69F" width="4.8" height="4.8"/>
	<rect x="147.6" y="181.155" fill="#EDD69F" width="4.801" height="4.8"/>
	<rect x="152.4" y="171.58" fill="#EDD69F" width="4.799" height="4.8"/>
	<rect x="142.8" y="176.354" fill="#EEE1BF" width="4.8" height="4.8"/>
	<rect x="147.6" y="176.354" fill="#EDD69F" width="4.801" height="4.8"/>
	<rect x="152.4" y="176.354" fill="#EDD69F" width="4.799" height="4.8"/>
	<rect x="152.4" y="166.78" fill="#4E3D15" width="4.799" height="4.8"/>
	<rect x="157.199" y="166.78" fill="#4E3D15" width="4.801" height="4.8"/>
	<rect x="157.199" y="181.155" fill="#9CB6C8" width="4.801" height="4.8"/>
	<rect x="152.4" y="181.155" fill="#EDD69F" width="4.799" height="4.8"/>
	<rect x="138" y="181.155" fill="#9CB6C8" width="4.8" height="4.8"/>
	<rect x="133.199" y="181.155" fill="#7F95A5" width="4.801" height="4.8"/>
	<rect x="162" y="181.155" fill="#7F95A5" width="4.8" height="4.8"/>
	<rect x="166.8" y="181.155" fill="#7F95A5" width="4.8" height="4.8"/>
	<rect x="142.8" y="190.754" fill="#7F95A5" width="4.8" height="4.8"/>
	<rect x="147.6" y="190.754" fill="#7F95A5" width="4.801" height="4.8"/>
	<rect x="157.199" y="190.754" fill="#7F95A5" width="4.801" height="4.8"/>
	<rect x="152.4" y="190.754" fill="#7F95A5" width="4.799" height="4.8"/>
	<rect x="138" y="190.754" fill="#7F95A5" width="4.8" height="4.8"/>
	<rect x="133.199" y="190.754" fill="#7F95A5" width="4.801" height="4.8"/>
	<rect x="128.4" y="190.754" fill="#7F95A5" width="4.799" height="4.8"/>
	<rect x="162" y="190.754" fill="#7F95A5" width="4.8" height="4.8"/>
	<rect x="166.8" y="190.754" fill="#7F95A5" width="4.8" height="4.8"/>
	<rect x="171.6" y="190.754" fill="#7F95A5" width="4.801" height="4.8"/>
	<rect x="176.4" y="190.754" fill="#8A9EAD" width="4.799" height="4.8"/>
	<rect x="142.8" y="200.354" fill="#7F95A5" width="4.8" height="4.8"/>
	<rect x="147.6" y="200.354" fill="#7F95A5" width="4.801" height="4.8"/>
	<rect x="157.199" y="200.354" fill="#7F95A5" width="4.801" height="4.8"/>
	<rect x="152.4" y="200.354" fill="#7F95A5" width="4.799" height="4.8"/>
	<rect x="138" y="200.354" fill="#7F95A5" width="4.8" height="4.8"/>
	<rect x="133.199" y="200.354" fill="#6D808E" width="4.801" height="4.8"/>
	<rect x="128.4" y="200.354" fill="#7F95A5" width="4.799" height="4.8"/>
	<rect x="162" y="200.354" fill="#6D808E" width="4.8" height="4.8"/>
	<rect x="166.8" y="200.354" fill="#7F95A5" width="4.8" height="4.8"/>
	<rect x="171.6" y="200.354" fill="#7F95A5" width="4.801" height="4.8"/>
	<rect x="176.4" y="200.354" fill="#7F95A5" width="4.799" height="4.8"/>
	<rect x="142.8" y="185.955" fill="#9CB6C8" width="4.8" height="4.8"/>
	<rect x="147.6" y="185.955" fill="#9CB6C8" width="4.801" height="4.8"/>
	<rect x="157.199" y="185.955" fill="#9CB6C8" width="4.801" height="4.8"/>
	<rect x="152.4" y="185.955" fill="#9CB6C8" width="4.799" height="4.8"/>
	<rect x="138" y="185.955" fill="#9CB6C8" width="4.8" height="4.8"/>
	<rect x="133.199" y="185.955" fill="#7F95A5" width="4.801" height="4.8"/>
	<rect x="128.4" y="185.955" fill="#7F95A5" width="4.799" height="4.8"/>
	<rect x="162" y="185.955" fill="#7F95A5" width="4.8" height="4.8"/>
	<rect x="166.8" y="185.955" fill="#7F95A5" width="4.8" height="4.8"/>
	<rect x="171.6" y="185.955" fill="#8A9EAD" width="4.801" height="4.8"/>
	<rect x="176.4" y="185.955" fill="#8A9EAD" width="4.799" height="4.8"/>
	<rect x="142.8" y="195.555" fill="#7F95A5" width="4.8" height="4.8"/>
	<rect x="147.6" y="195.555" fill="#7F95A5" width="4.801" height="4.8"/>
	<rect x="157.199" y="195.555" fill="#7F95A5" width="4.801" height="4.8"/>
	<rect x="152.4" y="195.555" fill="#7F95A5" width="4.799" height="4.8"/>
	<rect x="138" y="195.555" fill="#7F95A5" width="4.8" height="4.8"/>
	<rect x="133.199" y="195.555" fill="#6D808E" width="4.801" height="4.8"/>
	<rect x="128.4" y="195.555" fill="#7F95A5" width="4.799" height="4.8"/>
	<rect x="123.6" y="190.754" fill="#7F95A5" width="4.801" height="4.8"/>
	<rect x="123.6" y="200.354" fill="#7F95A5" width="4.801" height="4.8"/>
	<rect x="123.6" y="195.555" fill="#7F95A5" width="4.801" height="4.8"/>
	<rect x="162" y="195.555" fill="#6D808E" width="4.8" height="4.8"/>
	<rect x="166.8" y="195.555" fill="#7F95A5" width="4.8" height="4.8"/>
	<rect x="171.6" y="195.555" fill="#7F95A5" width="4.801" height="4.8"/>
	<rect x="176.4" y="195.555" fill="#8A9EAD" width="4.799" height="4.8"/>
	<rect x="162" y="152.398" fill="#4E3D15" width="4.8" height="4.8"/>
	<rect x="157.199" y="142.789" fill="#775D26" width="4.801" height="4.8"/>
	<rect x="162" y="142.789" fill="#4E3D15" width="4.8" height="4.8"/>
	<rect x="157.199" y="161.979" fill="#4E3D15" width="4.801" height="4.8"/>
	<rect x="162" y="161.979" fill="#4E3D15" width="4.8" height="4.8"/>
	<rect x="157.199" y="157.189" fill="#4E3D15" width="4.801" height="4.8"/>
	<rect x="162" y="157.189" fill="#4E3D15" width="4.8" height="4.8"/>
	<rect x="157.199" y="137.979" fill="#EDD69F" width="4.801" height="4.8"/>
	<rect x="162" y="137.979" fill="#2F292B" width="4.8" height="4.8"/>
	<rect x="157.199" y="128.411" fill="#2F292B" width="4.801" height="4.8"/>
	<rect x="162" y="128.411" fill="#2F292B" width="4.8" height="4.8"/>
	<rect x="166.8" y="137.979" fill="#EDD69F" width="4.8" height="4.8"/>
	<rect x="166.8" y="133.189" fill="#C2B99F" width="4.8" height="4.8"/>
	<rect x="138" y="123.629" fill="#6E5D55" width="4.8" height="4.8"/>
	<rect x="142.8" y="123.629" fill="#EDD69F" width="4.8" height="4.8"/>
	<rect x="147.6" y="123.629" fill="#EDD69F" width="4.801" height="4.8"/>
	<rect x="152.4" y="123.629" fill="#EBC297" width="4.799" height="4.8"/>
	<rect x="138" y="128.411" fill="#EDD69F" width="4.8" height="4.8"/>
	<rect x="142.8" y="128.411" fill="#6E5D55" width="4.8" height="4.8"/>
	<rect x="147.6" y="128.411" fill="#EDD69F" width="4.801" height="4.8"/>
	<rect x="152.4" y="128.411" fill="#EDD69F" width="4.799" height="4.8"/>
	<rect x="128.4" y="133.189" fill="#EDD69F" width="4.799" height="4.8"/>
	<rect x="133.199" y="133.189" fill="#4C2F1C" width="4.801" height="4.8"/>
	<rect x="157.199" y="133.189" fill="#EDD69F" width="4.801" height="4.8"/>
	<rect x="162" y="133.189" fill="#2F292B" width="4.8" height="4.8"/>
	<rect x="138" y="133.189" fill="#FFFFFF" width="4.8" height="4.8"/>
	<rect x="142.8" y="133.189" fill="#EDD69F" width="4.8" height="4.8"/>
	<rect x="147.6" y="133.189" fill="#EDD69F" width="4.801" height="4.8"/>
	<rect x="152.4" y="133.189" fill="#EDD69F" width="4.799" height="4.8"/>
	<rect x="138" y="137.979" fill="#EDD69F" width="4.8" height="4.8"/>
	<rect x="142.8" y="137.979" fill="#EDD69F" width="4.8" height="4.8"/>
	<rect x="147.6" y="137.979" fill="#EDD69F" width="4.801" height="4.8"/>
	<rect x="152.4" y="137.979" fill="#EDD69F" width="4.799" height="4.8"/>
	<rect x="138" y="142.78" fill="#EDD69F" width="4.8" height="4.8"/>
	<rect x="142.8" y="142.78" fill="#EBC297" width="4.8" height="4.8"/>
	<rect x="147.6" y="142.78" fill="#EBC297" width="4.801" height="4.8"/>
	<rect x="152.4" y="142.78" fill="#EDD69F" width="4.799" height="4.8"/>
	<rect x="128.4" y="147.598" fill="#4E3D15" width="4.799" height="4.8"/>
	<rect x="133.199" y="147.598" fill="#4E3D15" width="4.801" height="4.8"/>
	<rect x="157.199" y="147.598" fill="#775D26" width="4.801" height="4.8"/>
	<rect x="162" y="147.598" fill="#4E3D15" width="4.8" height="4.8"/>
	<rect x="138" y="147.589" fill="#EDD69F" width="4.8" height="4.8"/>
	<rect x="142.8" y="147.589" fill="#EDD69F" width="4.8" height="4.8"/>
	<rect x="147.6" y="147.589" fill="#EBC297" width="4.801" height="4.8"/>
	<rect x="152.4" y="147.589" fill="#EBC297" width="4.799" height="4.8"/>
	<rect x="157.199" y="109.236" fill="#2F292B" width="4.801" height="4.8"/>
	<rect x="162" y="109.236" fill="#4E3D15" width="4.8" height="4.8"/>
	<rect x="128.4" y="104.445" fill="#2F292B" width="4.799" height="4.8"/>
	<rect x="123.6" y="104.445" fill="#2F292B" width="4.801" height="4.8"/>
	<rect x="123.6" y="99.645" fill="#2F292B" width="4.801" height="4.8"/>
	<rect x="133.199" y="104.445" fill="#4E3D15" width="4.801" height="4.8"/>
	<rect x="138" y="104.445" fill="#2F292B" width="4.8" height="4.8"/>
	<rect x="142.8" y="104.445" fill="#4E3D15" width="4.8" height="4.8"/>
	<rect x="147.6" y="104.445" fill="#2F292B" width="4.801" height="4.8"/>
	<rect x="152.4" y="104.445" fill="#2F292B" width="4.799" height="4.8"/>
	<rect x="157.199" y="104.445" fill="#2F292B" width="4.801" height="4.8"/>
	<rect x="152.4" y="99.645" fill="#2F292B" width="4.799" height="4.8"/>
	<rect x="133.199" y="94.845" fill="#4E3D15" width="4.801" height="4.8"/>
	<rect x="128.4" y="94.845" fill="#2F292B" width="4.799" height="4.8"/>
	<rect x="138" y="94.845" fill="#2F292B" width="4.8" height="4.8"/>
	<rect x="142.8" y="94.845" fill="#2F292B" width="4.8" height="4.8"/>
	<rect x="147.6" y="94.845" fill="#4E3D15" width="4.801" height="4.8"/>
	<rect x="152.4" y="94.845" fill="#4E3D15" width="4.799" height="4.8"/>
	<rect x="157.199" y="99.645" fill="#2F292B" width="4.801" height="4.8"/>
	<rect x="162" y="104.445" fill="#2F292B" width="4.8" height="4.8"/>
	<rect x="162" y="99.645" fill="#4E3D15" width="4.8" height="4.8"/>
	<rect x="166.8" y="109.236" fill="#2F292B" width="4.8" height="4.8"/>
	<rect x="166.8" y="104.445" fill="#4E3D15" width="4.8" height="4.8"/>
	<rect x="157.199" y="114.036" fill="#4E3D15" width="4.801" height="4.8"/>
	<rect x="162" y="114.036" fill="#2F292B" width="4.8" height="4.8"/>
	<rect x="157.199" y="123.629" fill="#4E3D15" width="4.801" height="4.8"/>
	<rect x="162" y="123.629" fill="#2F292B" width="4.8" height="4.8"/>
	<rect x="166.8" y="128.411" fill="#EBC297" width="4.8" height="4.8"/>
	<rect x="166.8" y="114.036" fill="#4E3D15" width="4.8" height="4.8"/>
	<rect x="171.6" y="109.236" fill="#2F292B" width="4.801" height="4.8"/>
	<rect x="171.6" y="114.036" fill="#2F292B" width="4.801" height="4.8"/>
	<rect x="128.4" y="118.836" fill="#EBC297" width="4.799" height="4.8"/>
	<rect x="133.199" y="118.836" fill="#EBC297" width="4.801" height="4.8"/>
	<rect x="138" y="118.836" fill="#EDD69F" width="4.8" height="4.8"/>
	<rect x="142.8" y="118.836" fill="#EDD69F" width="4.8" height="4.8"/>
	<rect x="147.6" y="118.836" fill="#EBC297" width="4.801" height="4.8"/>
	<rect x="152.4" y="118.836" fill="#2F292B" width="4.799" height="4.8"/>
	<rect x="157.199" y="118.836" fill="#2F292B" width="4.801" height="4.8"/>
	<rect x="162" y="118.836" fill="#4E3D15" width="4.8" height="4.8"/>
	<rect x="166.8" y="118.836" fill="#2F292B" width="4.8" height="4.8"/>
	<rect x="171.6" y="118.836" fill="#2F292B" width="4.801" height="4.8"/>
	<rect x="166.8" y="123.629" fill="#2F292B" width="4.8" height="4.8"/>
	<rect x="171.6" y="138.001" fill="#EDD69F" width="4.801" height="4.8"/>
	<rect x="171.6" y="133.22" fill="#EBC297" width="4.801" height="4.8"/>
	<rect x="171.6" y="128.426" fill="#EBC297" width="4.801" height="4.8"/>
	<rect x="171.6" y="123.626" fill="#2F292B" width="4.801" height="4.8"/>
	<rect x="166.8" y="142.789" fill="#EDD69F" width="4.8" height="4.8"/>
</g>
</svg>
