<?xml version="1.0" encoding="utf-8"?>
<!-- Generator: Adobe Illustrator 16.0.0, SVG Export Plug-In . SVG Version: 6.00 Build 0)  -->
<!DOCTYPE svg PUBLIC "-//W3C//DTD SVG 1.1//EN" "http://www.w3.org/Graphics/SVG/1.1/DTD/svg11.dtd">
<svg version="1.1" id="Layer_1" xmlns="http://www.w3.org/2000/svg" xmlns:xlink="http://www.w3.org/1999/xlink" x="0px" y="0px"
	 width="300px" height="300px" viewBox="0 0 300 300" enable-background="new 0 0 300 300" xml:space="preserve">
<g>
	<rect x="97.5" y="134.98" fill="#838888" width="7.5" height="7.5"/>
	<rect x="112.5" y="82.539" fill="#212020" width="7.5" height="7.5"/>
	<rect x="120" y="82.539" fill="#9EA8A5" width="7.5" height="7.5"/>
	<rect x="127.5" y="82.539" fill="#9EA8A5" width="7.5" height="7.5"/>
	<rect x="135" y="82.539" fill="#646566" width="7.5" height="7.5"/>
	<rect x="105" y="97.524" fill="#212020" width="7.5" height="7.5"/>
	<rect x="112.5" y="97.524" fill="#9EA8A5" width="7.5" height="7.5"/>
	<rect x="120" y="97.524" fill="#212020" width="7.5" height="7.5"/>
	<rect x="127.5" y="97.524" fill="#646566" width="7.5" height="7.5"/>
	<rect x="135" y="97.524" fill="#646566" width="7.5" height="7.5"/>
	<rect x="142.5" y="97.524" fill="#212020" width="7.5" height="7.5"/>
	<rect x="105" y="105.024" fill="#646566" width="7.5" height="7.5"/>
	<rect x="97.5" y="105.024" fill="#212020" width="7.5" height="7.5"/>
	<rect x="97.5" y="112.524" fill="#212020" width="7.5" height="7.5"/>
	<rect x="112.5" y="105.024" fill="#9EA8A5" width="7.5" height="7.5"/>
	<rect x="120" y="105.024" fill="#646566" width="7.5" height="7.5"/>
	<rect x="127.5" y="105.024" fill="#212020" width="7.5" height="7.5"/>
	<rect x="135" y="105.024" fill="#414042" width="7.5" height="7.5"/>
	<rect x="142.5" y="105.024" fill="#212020" width="7.5" height="7.5"/>
	<rect x="105" y="112.524" fill="#646566" width="7.5" height="7.5"/>
	<rect x="112.5" y="112.524" fill="#414042" width="7.5" height="7.5"/>
	<rect x="105" y="127.49" fill="#212020" width="7.5" height="7.5"/>
	<rect x="112.5" y="127.49" fill="#212020" width="7.5" height="7.5"/>
	<rect x="105" y="134.98" fill="#838888" width="7.5" height="7.5"/>
	<rect x="112.5" y="134.98" fill="#838888" width="7.5" height="7.5"/>
	<rect x="105" y="142.49" fill="#212020" width="7.5" height="7.5"/>
	<rect x="112.5" y="142.49" fill="#212020" width="7.5" height="7.5"/>
	<rect x="105" y="149.98" fill="#9EA8A5" width="7.5" height="7.5"/>
	<rect x="97.5" y="142.48" fill="#212020" width="7.5" height="7.5"/>
	<rect x="90" y="142.48" fill="#838888" width="7.5" height="7.5"/>
	<rect x="97.5" y="149.98" fill="#414042" width="7.5" height="7.5"/>
	<rect x="112.5" y="149.98" fill="#838888" width="7.5" height="7.5"/>
	<rect x="112.5" y="157.461" fill="#9EA8A5" width="7.5" height="7.5"/>
	<rect x="105" y="157.461" fill="#414042" width="7.5" height="7.5"/>
	<rect x="127.5" y="149.98" fill="#212020" width="7.5" height="7.5"/>
	<rect x="120" y="149.98" fill="#414042" width="7.5" height="7.5"/>
	<rect x="135" y="149.98" fill="#212020" width="7.5" height="7.5"/>
	<rect x="150" y="149.98" fill="#212020" width="7.505" height="7.5"/>
	<rect x="142.5" y="149.98" fill="#414042" width="7.5" height="7.5"/>
	<rect x="127.5" y="157.461" fill="#414042" width="7.5" height="7.5"/>
	<rect x="120" y="157.461" fill="#212020" width="7.5" height="7.5"/>
	<rect x="135" y="157.461" fill="#414042" width="7.5" height="7.5"/>
	<rect x="142.5" y="157.461" fill="#212020" width="7.5" height="7.5"/>
	<rect x="127.5" y="164.951" fill="#212020" width="7.5" height="7.5"/>
	<rect x="120" y="164.951" fill="#212020" width="7.5" height="7.5"/>
	<rect x="112.5" y="164.951" fill="#212020" width="7.5" height="7.5"/>
	<rect x="135" y="164.951" fill="#414042" width="7.5" height="7.5"/>
	<rect x="142.5" y="164.951" fill="#414042" width="7.5" height="7.5"/>
	<rect x="127.5" y="172.451" fill="#212020" width="7.5" height="7.5"/>
	<rect x="120" y="172.451" fill="#212020" width="7.5" height="7.5"/>
	<rect x="120" y="179.951" fill="#212020" width="7.5" height="7.5"/>
	<rect x="135" y="172.451" fill="#212020" width="7.5" height="7.5"/>
	<rect x="127.5" y="179.951" fill="#212020" width="7.5" height="7.5"/>
	<rect x="135" y="179.951" fill="#414042" width="7.5" height="7.5"/>
	<rect x="142.5" y="179.951" fill="#212020" width="7.5" height="7.5"/>
	<rect x="142.5" y="172.451" fill="#212020" width="7.5" height="7.5"/>
	<rect x="150" y="172.451" fill="#212020" width="7.505" height="7.5"/>
	<rect x="157.505" y="149.98" fill="#212020" width="7.5" height="7.5"/>
	<rect x="150" y="142.49" fill="#212020" width="7.505" height="7.5"/>
	<rect x="150" y="149.99" fill="#838888" width="7.505" height="7.5"/>
	<rect x="157.505" y="142.49" fill="#212020" width="7.5" height="7.5"/>
	<rect x="150" y="164.951" fill="#212020" width="7.505" height="7.5"/>
	<rect x="157.505" y="164.951" fill="#212020" width="7.5" height="7.5"/>
	<rect x="150" y="157.461" fill="#646566" width="7.505" height="7.5"/>
	<rect x="157.505" y="157.461" fill="#838888" width="7.5" height="7.5"/>
	<rect x="150" y="134.98" fill="#212020" width="7.505" height="7.5"/>
	<rect x="157.505" y="134.98" fill="#414042" width="7.5" height="7.5"/>
	<rect x="150" y="127.49" fill="#212020" width="7.505" height="7.5"/>
	<rect x="157.505" y="127.49" fill="#212020" width="7.5" height="7.5"/>
	<rect x="165.005" y="134.98" fill="#414042" width="7.5" height="7.5"/>
	<rect x="165.005" y="127.49" fill="#414042" width="7.5" height="7.5"/>
	<rect x="120" y="112.524" fill="#646566" width="7.5" height="7.5"/>
	<rect x="127.5" y="112.524" fill="#646566" width="7.5" height="7.5"/>
	<rect x="135" y="112.524" fill="#212020" width="7.5" height="7.5"/>
	<rect x="127.5" y="120.024" fill="#9EA8A5" width="7.5" height="7.505"/>
	<rect x="135" y="120.024" fill="#646566" width="7.5" height="7.505"/>
	<rect x="112.5" y="120.024" fill="#212020" width="7.5" height="7.505"/>
	<rect x="105" y="120.024" fill="#212020" width="7.5" height="7.505"/>
	<rect x="120" y="120.024" fill="#212020" width="7.5" height="7.505"/>
	<rect x="142.5" y="112.524" fill="#212020" width="7.5" height="7.5"/>
	<rect x="120" y="127.49" fill="#212020" width="7.5" height="7.5"/>
	<rect x="127.5" y="127.49" fill="#414042" width="7.5" height="7.5"/>
	<rect x="135" y="127.49" fill="#838888" width="7.5" height="7.5"/>
	<rect x="142.5" y="127.49" fill="#212020" width="7.5" height="7.5"/>
	<rect x="142.5" y="120.024" fill="#212020" width="7.5" height="7.505"/>
	<rect x="120" y="134.98" fill="#838888" width="7.5" height="7.5"/>
	<rect x="127.5" y="134.98" fill="#414042" width="7.5" height="7.5"/>
	<rect x="135" y="134.98" fill="#212020" width="7.5" height="7.5"/>
	<rect x="142.5" y="134.98" fill="#212020" width="7.5" height="7.5"/>
	<rect x="120" y="142.48" fill="#414042" width="7.5" height="7.5"/>
	<rect x="127.5" y="142.48" fill="#212020" width="7.5" height="7.5"/>
	<rect x="135" y="142.48" fill="#212020" width="7.5" height="7.5"/>
	<rect x="142.5" y="142.48" fill="#838888" width="7.5" height="7.5"/>
	<rect x="150" y="97.524" fill="#646566" width="7.505" height="7.5"/>
	<rect x="157.505" y="97.524" fill="#212020" width="7.5" height="7.5"/>
	<rect x="105" y="90.039" fill="#212020" width="7.5" height="7.5"/>
	<rect x="112.5" y="90.039" fill="#646566" width="7.5" height="7.5"/>
	<rect x="120" y="90.039" fill="#9EA8A5" width="7.5" height="7.5"/>
	<rect x="127.5" y="90.039" fill="#646566" width="7.5" height="7.5"/>
	<rect x="135" y="90.039" fill="#646566" width="7.5" height="7.5"/>
	<rect x="142.5" y="90.039" fill="#212020" width="7.5" height="7.5"/>
	<rect x="150" y="90.039" fill="#646566" width="7.505" height="7.5"/>
	<rect x="142.5" y="82.539" fill="#212020" width="7.5" height="7.5"/>
	<rect x="150" y="82.539" fill="#9EA8A5" width="7.505" height="7.5"/>
	<rect x="157.505" y="82.539" fill="#212020" width="7.5" height="7.5"/>
	<rect x="127.5" y="75.039" fill="#212020" width="7.5" height="7.5"/>
	<rect x="120" y="75.039" fill="#212020" width="7.5" height="7.5"/>
	<rect x="135" y="75.039" fill="#212020" width="7.5" height="7.5"/>
	<rect x="142.5" y="75.039" fill="#212020" width="7.5" height="7.5"/>
	<rect x="150" y="75.039" fill="#212020" width="7.505" height="7.5"/>
	<rect x="157.505" y="90.039" fill="#646566" width="7.5" height="7.5"/>
	<rect x="150" y="105.024" fill="#646566" width="7.505" height="7.5"/>
	<rect x="157.505" y="105.024" fill="#646566" width="7.5" height="7.5"/>
	<rect x="150" y="112.524" fill="#646566" width="7.505" height="7.5"/>
	<rect x="157.505" y="112.524" fill="#414042" width="7.5" height="7.5"/>
	<rect x="165.005" y="97.524" fill="#212020" width="7.5" height="7.5"/>
	<rect x="165.005" y="97.524" fill="#212020" width="7.5" height="7.5"/>
	<rect x="165.005" y="90.039" fill="#212020" width="7.5" height="7.5"/>
	<rect x="165.005" y="105.024" fill="#212020" width="7.5" height="7.5"/>
	<rect x="165.005" y="112.524" fill="#414042" width="7.5" height="7.5"/>
	<rect x="172.505" y="112.524" fill="#212020" width="7.5" height="7.5"/>
	<rect x="172.505" y="105.024" fill="#212020" width="7.5" height="7.5"/>
	<rect x="150" y="120.024" fill="#212020" width="7.505" height="7.505"/>
	<rect x="157.505" y="120.024" fill="#414042" width="7.5" height="7.505"/>
	<rect x="165.005" y="120.024" fill="#414042" width="7.5" height="7.505"/>
	<rect x="172.505" y="120.024" fill="#212020" width="7.5" height="7.505"/>
	<rect x="172.505" y="127.49" fill="#212020" width="7.5" height="7.5"/>
	<rect x="172.505" y="134.99" fill="#414042" width="7.5" height="7.5"/>
	<rect x="180.005" y="134.99" fill="#212020" width="7.5" height="7.5"/>
	<rect x="172.505" y="142.49" fill="#414042" width="7.5" height="7.5"/>
	<rect x="165.005" y="142.49" fill="#414042" width="7.5" height="7.5"/>
	<rect x="165.005" y="149.99" fill="#414042" width="7.5" height="7.5"/>
	<rect x="165.005" y="157.49" fill="#646566" width="7.5" height="7.5"/>
	<rect x="172.505" y="149.99" fill="#414042" width="7.5" height="7.5"/>
	<rect x="180.005" y="157.49" fill="#646566" width="7.5" height="7.5"/>
	<rect x="187.505" y="157.49" fill="#646566" width="7.495" height="7.5"/>
	<rect x="180.005" y="149.99" fill="#414042" width="7.5" height="7.5"/>
	<rect x="187.505" y="149.99" fill="#414042" width="7.495" height="7.5"/>
	<rect x="195" y="157.49" fill="#212020" width="7.5" height="7.5"/>
	<rect x="195" y="149.99" fill="#212020" width="7.5" height="7.5"/>
	<rect x="202.5" y="157.49" fill="#212020" width="7.5" height="7.5"/>
	<rect x="180.005" y="142.51" fill="#414042" width="7.5" height="7.5"/>
	<rect x="187.505" y="142.51" fill="#212020" width="7.495" height="7.5"/>
	<rect x="172.505" y="157.49" fill="#646566" width="7.5" height="7.5"/>
	<rect x="165.005" y="164.951" fill="#212020" width="7.5" height="7.5"/>
	<rect x="172.505" y="164.951" fill="#212020" width="7.5" height="7.5"/>
	<rect x="180.005" y="164.951" fill="#414042" width="7.5" height="7.5"/>
	<rect x="127.5" y="187.461" fill="#212020" width="7.5" height="7.5"/>
	<rect x="135" y="187.461" fill="#212020" width="7.5" height="7.5"/>
	<rect x="157.505" y="179.956" fill="#212020" width="7.5" height="7.505"/>
	<rect x="157.505" y="172.461" fill="#212020" width="7.5" height="7.495"/>
	<rect x="165.005" y="179.956" fill="#212020" width="7.5" height="7.505"/>
	<rect x="165.005" y="172.461" fill="#212020" width="7.5" height="7.495"/>
	<rect x="172.505" y="172.461" fill="#212020" width="7.5" height="7.495"/>
	<rect x="150" y="187.461" fill="#212020" width="7.505" height="7.5"/>
	<rect x="150" y="179.956" fill="#414042" width="7.505" height="7.505"/>
	<rect x="142.5" y="187.461" fill="#414042" width="7.5" height="7.5"/>
	<rect x="120" y="187.461" fill="#414042" width="7.5" height="7.5"/>
	<rect x="112.5" y="187.461" fill="#212020" width="7.5" height="7.5"/>
	<rect x="112.5" y="179.956" fill="#212020" width="7.5" height="7.505"/>
	<rect x="105" y="179.956" fill="#212020" width="7.5" height="7.505"/>
	<rect x="157.505" y="187.461" fill="#414042" width="7.5" height="7.5"/>
	<rect x="165.005" y="187.461" fill="#212020" width="7.5" height="7.5"/>
	<rect x="172.505" y="187.461" fill="#212020" width="7.5" height="7.5"/>
	<rect x="127.5" y="202.461" fill="#212020" width="7.5" height="7.5"/>
	<rect x="135" y="202.461" fill="#212020" width="7.5" height="7.5"/>
	<rect x="150" y="202.461" fill="#212020" width="7.505" height="7.5"/>
	<rect x="142.5" y="202.461" fill="#212020" width="7.5" height="7.5"/>
	<rect x="120" y="202.461" fill="#212020" width="7.5" height="7.5"/>
	<rect x="120" y="209.961" fill="#212020" width="7.5" height="7.5"/>
	<rect x="112.5" y="202.461" fill="#414042" width="7.5" height="7.5"/>
	<rect x="105" y="202.461" fill="#212020" width="7.5" height="7.5"/>
	<rect x="157.505" y="202.461" fill="#212020" width="7.5" height="7.5"/>
	<rect x="165.005" y="202.461" fill="#414042" width="7.5" height="7.5"/>
	<rect x="172.505" y="202.461" fill="#212020" width="7.5" height="7.5"/>
	<rect x="180.005" y="202.461" fill="#212020" width="7.5" height="7.5"/>
	<rect x="127.5" y="217.461" fill="#212020" width="7.5" height="7.5"/>
	<rect x="135" y="217.461" fill="#212020" width="7.5" height="7.5"/>
	<rect x="150" y="217.461" fill="#212020" width="7.505" height="7.5"/>
	<rect x="142.5" y="217.461" fill="#212020" width="7.5" height="7.5"/>
	<rect x="120" y="217.461" fill="#212020" width="7.5" height="7.5"/>
	<rect x="112.5" y="217.461" fill="#414042" width="7.5" height="7.5"/>
	<rect x="105" y="217.461" fill="#212020" width="7.5" height="7.5"/>
	<rect x="157.505" y="217.461" fill="#212020" width="7.5" height="7.5"/>
	<rect x="165.005" y="217.461" fill="#414042" width="7.5" height="7.5"/>
	<rect x="172.505" y="217.461" fill="#212020" width="7.5" height="7.5"/>
	<rect x="180.005" y="217.461" fill="#212020" width="7.5" height="7.5"/>
	<rect x="127.5" y="194.961" fill="#9EA8A5" width="7.5" height="7.5"/>
	<rect x="135" y="194.961" fill="#9EA8A5" width="7.5" height="7.5"/>
	<rect x="150" y="194.961" fill="#3554A3" width="7.505" height="7.5"/>
	<rect x="142.5" y="194.961" fill="#212020" width="7.5" height="7.5"/>
	<rect x="120" y="194.961" fill="#212020" width="7.5" height="7.5"/>
	<rect x="112.5" y="194.961" fill="#414042" width="7.5" height="7.5"/>
	<rect x="105" y="194.961" fill="#212020" width="7.5" height="7.5"/>
	<rect x="157.505" y="194.961" fill="#212020" width="7.5" height="7.5"/>
	<rect x="165.005" y="194.961" fill="#414042" width="7.5" height="7.5"/>
	<rect x="172.505" y="194.961" fill="#212020" width="7.5" height="7.5"/>
	<rect x="180.005" y="194.961" fill="#212020" width="7.5" height="7.5"/>
	<rect x="127.5" y="209.961" fill="#9EA8A5" width="7.5" height="7.5"/>
	<rect x="135" y="209.961" fill="#9EA8A5" width="7.5" height="7.5"/>
	<rect x="150" y="209.961" fill="#C7283B" width="7.505" height="7.5"/>
	<rect x="142.5" y="209.961" fill="#212020" width="7.5" height="7.5"/>
	<rect x="120" y="209.961" fill="#212020" width="7.5" height="7.5"/>
	<rect x="112.5" y="209.961" fill="#414042" width="7.5" height="7.5"/>
	<rect x="105" y="209.961" fill="#414042" width="7.5" height="7.5"/>
	<rect x="97.5" y="202.461" fill="#212020" width="7.5" height="7.5"/>
	<rect x="97.5" y="217.461" fill="#212020" width="7.5" height="7.5"/>
	<rect x="97.5" y="209.961" fill="#212020" width="7.5" height="7.5"/>
	<rect x="157.505" y="209.961" fill="#212020" width="7.5" height="7.5"/>
	<rect x="165.005" y="209.961" fill="#414042" width="7.5" height="7.5"/>
	<rect x="172.505" y="209.961" fill="#414042" width="7.5" height="7.5"/>
	<rect x="180.005" y="209.961" fill="#212020" width="7.5" height="7.5"/>
</g>
</svg>
