<?xml version="1.0" encoding="utf-8"?>
<!-- Generator: Adobe Illustrator 16.0.0, SVG Export Plug-In . SVG Version: 6.00 Build 0)  -->
<!DOCTYPE svg PUBLIC "-//W3C//DTD SVG 1.1//EN" "http://www.w3.org/Graphics/SVG/1.1/DTD/svg11.dtd">
<svg version="1.1" id="Layer_1" xmlns="http://www.w3.org/2000/svg" xmlns:xlink="http://www.w3.org/1999/xlink" x="0px" y="0px"
	 width="300px" height="300px" viewBox="0 0 300 300" enable-background="new 0 0 300 300" xml:space="preserve">
<g>
	<rect x="131.25" y="187.446" fill="#472731" width="7.5" height="7.5"/>
	<rect x="123.75" y="187.446" fill="#613A45" width="7.5" height="7.5"/>
	<rect x="168.75" y="187.446" fill="#472731" width="7.5" height="7.5"/>
	<rect x="161.25" y="187.432" fill="#EFD1B8" width="7.5" height="7.5"/>
	<rect x="138.75" y="202.446" fill="#613A45" width="7.5" height="7.5"/>
	<rect x="146.25" y="202.446" fill="#472731" width="7.5" height="7.5"/>
	<rect x="161.25" y="202.446" fill="#613A45" width="7.5" height="7.5"/>
	<rect x="153.75" y="202.446" fill="#472731" width="7.5" height="7.5"/>
	<rect x="131.25" y="202.446" fill="#613A45" width="7.5" height="7.5"/>
	<rect x="123.75" y="202.446" fill="#613A45" width="7.5" height="7.5"/>
	<rect x="116.25" y="202.446" fill="#613A45" width="7.5" height="7.5"/>
	<rect x="168.75" y="202.446" fill="#613A45" width="7.5" height="7.5"/>
	<rect x="176.25" y="202.446" fill="#613A45" width="7.5" height="7.5"/>
	<rect x="183.75" y="202.446" fill="#613A45" width="7.5" height="7.5"/>
	<rect x="191.25" y="202.446" fill="#613A45" width="7.5" height="7.5"/>
	<rect x="138.75" y="217.446" fill="#613A45" width="7.5" height="7.5"/>
	<rect x="146.25" y="217.446" fill="#613A45" width="7.5" height="7.5"/>
	<rect x="161.25" y="217.446" fill="#613A45" width="7.5" height="7.5"/>
	<rect x="153.75" y="217.446" fill="#613A45" width="7.5" height="7.5"/>
	<rect x="131.25" y="217.446" fill="#613A45" width="7.5" height="7.5"/>
	<rect x="123.75" y="217.446" fill="#472731" width="7.5" height="7.5"/>
	<rect x="116.25" y="217.446" fill="#613A45" width="7.5" height="7.5"/>
	<rect x="168.75" y="217.446" fill="#472731" width="7.5" height="7.5"/>
	<rect x="176.25" y="217.446" fill="#613A45" width="7.5" height="7.5"/>
	<rect x="183.75" y="217.446" fill="#613A45" width="7.5" height="7.5"/>
	<rect x="191.25" y="217.446" fill="#613A45" width="7.5" height="7.5"/>
	<rect x="138.75" y="194.946" fill="#472731" width="7.5" height="7.5"/>
	<rect x="146.25" y="194.946" fill="#EFD1B8" width="7.5" height="7.5"/>
	<rect x="161.25" y="194.946" fill="#472731" width="7.5" height="7.5"/>
	<rect x="153.75" y="194.946" fill="#EFD1B8" width="7.5" height="7.5"/>
	<rect x="131.25" y="194.946" fill="#613A45" width="7.5" height="7.5"/>
	<rect x="123.75" y="194.946" fill="#613A45" width="7.5" height="7.5"/>
	<rect x="116.25" y="194.946" fill="#613A45" width="7.5" height="7.5"/>
	<rect x="168.75" y="194.946" fill="#613A45" width="7.5" height="7.5"/>
	<rect x="176.25" y="194.937" fill="#613A45" width="7.5" height="7.5"/>
	<rect x="183.75" y="194.946" fill="#613A45" width="7.5" height="7.5"/>
	<rect x="138.75" y="209.946" fill="#613A45" width="7.5" height="7.5"/>
	<rect x="146.25" y="209.946" fill="#613A45" width="7.5" height="7.5"/>
	<rect x="161.25" y="209.946" fill="#613A45" width="7.5" height="7.5"/>
	<rect x="153.75" y="209.946" fill="#613A45" width="7.5" height="7.5"/>
	<rect x="131.25" y="209.946" fill="#613A45" width="7.5" height="7.5"/>
	<rect x="123.75" y="209.946" fill="#613A45" width="7.5" height="7.5"/>
	<rect x="116.25" y="209.946" fill="#613A45" width="7.5" height="7.5"/>
	<rect x="108.75" y="202.446" fill="#613A45" width="7.5" height="7.5"/>
	<rect x="108.75" y="217.446" fill="#613A45" width="7.5" height="7.5"/>
	<rect x="108.75" y="209.946" fill="#613A45" width="7.5" height="7.5"/>
	<rect x="168.75" y="209.946" fill="#613A45" width="7.5" height="7.5"/>
	<rect x="176.25" y="209.946" fill="#613A45" width="7.5" height="7.5"/>
	<rect x="183.75" y="209.946" fill="#613A45" width="7.5" height="7.5"/>
	<rect x="191.25" y="209.946" fill="#613A45" width="7.5" height="7.5"/>
	<rect x="123.75" y="82.554" fill="#3C2415" width="7.5" height="7.5"/>
	<rect x="131.25" y="82.554" fill="#3E2D02" width="7.5" height="7.5"/>
	<rect x="123.75" y="75.054" fill="#603913" width="7.5" height="7.5"/>
	<rect x="131.25" y="75.054" fill="#3E2D02" width="7.5" height="7.5"/>
	<rect x="138.75" y="75.054" fill="#603913" width="7.5" height="7.5"/>
	<rect x="146.25" y="75.054" fill="#3E2D02" width="7.5" height="7.5"/>
	<rect x="116.25" y="82.554" fill="#3C2415" width="7.5" height="7.5"/>
	<rect x="138.75" y="82.554" fill="#3C2415" width="7.5" height="7.5"/>
	<rect x="146.25" y="82.554" fill="#3E2D02" width="7.5" height="7.5"/>
	<rect x="116.25" y="97.539" fill="#231F20" width="7.5" height="7.5"/>
	<rect x="123.75" y="97.539" fill="#231F20" width="7.5" height="7.5"/>
	<rect x="131.25" y="97.539" fill="#3E2D02" width="7.5" height="7.5"/>
	<rect x="138.75" y="97.539" fill="#3C2415" width="7.5" height="7.5"/>
	<rect x="146.25" y="97.539" fill="#231F20" width="7.5" height="7.5"/>
	<rect x="153.75" y="97.539" fill="#231F20" width="7.5" height="7.5"/>
	<rect x="116.25" y="105.039" fill="#D7BFAA" width="7.5" height="7.5"/>
	<rect x="123.75" y="105.039" fill="#EFD1B8" width="7.5" height="7.5"/>
	<rect x="131.25" y="105.039" fill="#EFD1B8" width="7.5" height="7.5"/>
	<rect x="138.75" y="105.039" fill="#EFD1B8" width="7.5" height="7.5"/>
	<rect x="146.25" y="105.039" fill="#EED0C6" width="7.5" height="7.5"/>
	<rect x="153.75" y="105.039" fill="#EED0C6" width="7.5" height="7.5"/>
	<rect x="116.25" y="112.539" fill="#F7E0CF" width="7.5" height="7.5"/>
	<rect x="123.75" y="112.539" fill="#D7BFAA" width="7.5" height="7.5"/>
	<rect x="116.25" y="120.01" fill="#EFD1B8" width="7.5" height="7.5"/>
	<rect x="123.75" y="120.01" fill="#5F3529" width="7.5" height="7.5"/>
	<rect x="116.25" y="134.961" fill="#EFD1B8" width="7.5" height="7.5"/>
	<rect x="123.75" y="134.961" fill="#3B2314" width="7.5" height="7.5"/>
	<rect x="116.25" y="142.476" fill="#EFD1B8" width="7.5" height="7.5"/>
	<rect x="123.75" y="142.476" fill="#EFCFC0" width="7.5" height="7.5"/>
	<rect x="116.25" y="149.961" fill="#634B1C" width="7.5" height="7.5"/>
	<rect x="108.75" y="142.476" fill="#EFD1B8" width="7.5" height="7.5"/>
	<rect x="101.25" y="142.476" fill="#EED0C6" width="7.5" height="7.5"/>
	<rect x="108.75" y="134.976" fill="#EED0C6" width="7.5" height="7.5"/>
	<rect x="123.75" y="149.961" fill="#8B5E3C" width="7.5" height="7.5"/>
	<rect x="138.75" y="149.961" fill="#8B5E3C" width="7.5" height="7.5"/>
	<rect x="131.25" y="149.961" fill="#A97C50" width="7.5" height="7.5"/>
	<rect x="146.25" y="149.961" fill="#A97C50" width="7.5" height="7.5"/>
	<rect x="161.25" y="149.961" fill="#C49A6C" width="7.5" height="7.5"/>
	<rect x="153.75" y="149.961" fill="#A97C50" width="7.5" height="7.5"/>
	<rect x="138.75" y="157.446" fill="#FFFFFF" width="7.5" height="7.5"/>
	<rect x="131.25" y="157.446" fill="#FFFFFF" width="7.5" height="7.5"/>
	<rect x="146.25" y="157.446" fill="#FFFFFF" width="7.5" height="7.5"/>
	<rect x="153.75" y="157.446" fill="#BB807B" width="7.5" height="7.5"/>
	<rect x="138.75" y="164.932" fill="#D28F8C" width="7.5" height="7.5"/>
	<rect x="131.25" y="164.932" fill="#D28F8C" width="7.5" height="7.5"/>
	<rect x="146.25" y="164.932" fill="#BB807B" width="7.5" height="7.5"/>
	<rect x="153.75" y="164.932" fill="#8B5E3C" width="7.5" height="7.5"/>
	<rect x="138.75" y="172.432" fill="#8B5E3C" width="7.5" height="7.5"/>
	<rect x="131.25" y="172.432" fill="#634B1C" width="7.5" height="7.5"/>
	<rect x="146.25" y="172.432" fill="#8B5E3C" width="7.5" height="7.5"/>
	<rect x="138.75" y="179.932" fill="#C49A6C" width="7.5" height="7.5"/>
	<rect x="146.25" y="179.932" fill="#C49A6C" width="7.5" height="7.5"/>
	<rect x="153.75" y="179.932" fill="#D7BFAA" width="7.5" height="7.5"/>
	<rect x="138.75" y="187.393" fill="#D7BFAA" width="7.5" height="7.5"/>
	<rect x="146.25" y="187.393" fill="#D7BFAA" width="7.5" height="7.5"/>
	<rect x="153.75" y="187.393" fill="#EFD1B8" width="7.5" height="7.5"/>
	<rect x="161.25" y="172.563" fill="#D7BFAA" width="7.5" height="7.5"/>
	<rect x="161.25" y="180.024" fill="#EFD1B8" width="7.5" height="7.5"/>
	<rect x="153.75" y="172.432" fill="#C49A6C" width="7.5" height="7.5"/>
	<rect x="168.75" y="149.961" fill="#EFD1B8" width="7.5" height="7.5"/>
	<rect x="161.25" y="142.476" fill="#C49A6C" width="7.5" height="7.5"/>
	<rect x="168.75" y="142.476" fill="#EFD1B8" width="7.5" height="7.5"/>
	<rect x="161.25" y="164.932" fill="#C49A6C" width="7.5" height="7.5"/>
	<rect x="161.25" y="157.446" fill="#C49A6C" width="7.5" height="7.5"/>
	<rect x="161.25" y="134.961" fill="#3E2D02" width="7.5" height="7.5"/>
	<rect x="168.75" y="134.961" fill="#E5B29B" width="7.5" height="7.5"/>
	<rect x="161.25" y="120.01" fill="#231F20" width="7.5" height="7.5"/>
	<rect x="168.75" y="120.01" fill="#231F20" width="7.5" height="7.5"/>
	<rect x="176.25" y="142.427" fill="#EFD1B8" width="7.5" height="7.5"/>
	<rect x="176.25" y="134.941" fill="#EFD1B8" width="7.5" height="7.5"/>
	<rect x="131.25" y="112.539" fill="#D7BFAA" width="7.5" height="7.5"/>
	<rect x="138.75" y="112.539" fill="#EFD1B8" width="7.5" height="7.5"/>
	<rect x="146.25" y="112.539" fill="#EED0C6" width="7.5" height="7.5"/>
	<rect x="153.75" y="112.539" fill="#231F20" width="7.5" height="7.5"/>
	<rect x="131.25" y="120.01" fill="#6E3E31" width="7.5" height="7.5"/>
	<rect x="138.75" y="120.01" fill="#EFD1B8" width="7.5" height="7.5"/>
	<rect x="146.25" y="120.01" fill="#EFD1B8" width="7.5" height="7.5"/>
	<rect x="153.75" y="120.01" fill="#231F20" width="7.5" height="7.5"/>
	<rect x="116.25" y="127.476" fill="#EFD1B8" width="7.5" height="7.5"/>
	<rect x="123.75" y="127.476" fill="#EFD1B8" width="7.5" height="7.5"/>
	<rect x="161.25" y="127.476" fill="#231F20" width="7.5" height="7.5"/>
	<rect x="168.75" y="127.476" fill="#3E2D02" width="7.5" height="7.5"/>
	<rect x="131.25" y="127.476" fill="#EFD1B8" width="7.5" height="7.5"/>
	<rect x="138.75" y="127.476" fill="#EFD1B8" width="7.5" height="7.5"/>
	<rect x="146.25" y="127.476" fill="#EFD1B8" width="7.5" height="7.5"/>
	<rect x="153.75" y="127.476" fill="#EFD1B8" width="7.5" height="7.5"/>
	<rect x="131.25" y="134.961" fill="#FFFFFF" width="7.5" height="7.5"/>
	<rect x="138.75" y="134.961" fill="#EFD1B8" width="7.5" height="7.5"/>
	<rect x="146.25" y="134.961" fill="#EFD1B8" width="7.5" height="7.5"/>
	<rect x="153.75" y="134.961" fill="#EFD1B8" width="7.5" height="7.5"/>
	<rect x="131.25" y="142.461" fill="#EED0C6" width="7.5" height="7.5"/>
	<rect x="138.75" y="142.461" fill="#EFCFC0" width="7.5" height="7.5"/>
	<rect x="146.25" y="142.461" fill="#EFD1B8" width="7.5" height="7.5"/>
	<rect x="153.75" y="142.461" fill="#D7BFAA" width="7.5" height="7.5"/>
	<rect x="161.25" y="97.539" fill="#3C2415" width="7.5" height="7.5"/>
	<rect x="168.75" y="97.539" fill="#3E2D02" width="7.5" height="7.5"/>
	<rect x="116.25" y="90.054" fill="#3C2415" width="7.5" height="7.5"/>
	<rect x="123.75" y="90.054" fill="#231F20" width="7.5" height="7.5"/>
	<rect x="131.25" y="90.054" fill="#3C2415" width="7.5" height="7.5"/>
	<rect x="138.75" y="90.054" fill="#3E2D02" width="7.5" height="7.5"/>
	<rect x="146.25" y="90.054" fill="#3C2415" width="7.5" height="7.5"/>
	<rect x="153.75" y="90.054" fill="#3E2D02" width="7.5" height="7.5"/>
	<rect x="161.25" y="90.054" fill="#3C2415" width="7.5" height="7.5"/>
	<rect x="153.75" y="82.554" fill="#3C2415" width="7.5" height="7.5"/>
	<rect x="153.75" y="75.054" fill="#603913" width="7.5" height="7.5"/>
	<rect x="161.25" y="82.554" fill="#603913" width="7.5" height="7.5"/>
	<rect x="168.75" y="90.054" fill="#603913" width="7.5" height="7.5"/>
	<rect x="176.25" y="97.539" fill="#603913" width="7.5" height="7.5"/>
	<rect x="161.25" y="105.039" fill="#231F20" width="7.5" height="7.5"/>
	<rect x="168.75" y="105.039" fill="#3C2415" width="7.5" height="7.5"/>
	<rect x="161.25" y="112.539" fill="#231F20" width="7.5" height="7.5"/>
	<rect x="168.75" y="112.539" fill="#3E2D02" width="7.5" height="7.5"/>
	<rect x="176.25" y="127.476" fill="#EFD1B8" width="7.5" height="7.5"/>
	<rect x="176.25" y="105.039" fill="#3E2D02" width="7.5" height="7.5"/>
	<rect x="176.25" y="112.539" fill="#231F20" width="7.5" height="7.5"/>
	<rect x="176.25" y="120.01" fill="#3E2D02" width="7.5" height="7.5"/>
</g>
</svg>
