<?xml version="1.0" encoding="utf-8"?>
<!-- Generator: Adobe Illustrator 15.0.2, SVG Export Plug-In  -->
<!DOCTYPE svg PUBLIC "-//W3C//DTD SVG 1.1//EN" "http://www.w3.org/Graphics/SVG/1.1/DTD/svg11.dtd" [
	<!ENTITY ns_flows "http://ns.adobe.com/Flows/1.0/">
]>
<svg version="1.1"
	 xmlns="http://www.w3.org/2000/svg" xmlns:xlink="http://www.w3.org/1999/xlink" xmlns:a="http://ns.adobe.com/AdobeSVGViewerExtensions/3.0/"
	 x="0px" y="0px" width="20px" height="28px" viewBox="0 0 20 28" enable-background="new 0 0 20 28" xml:space="preserve">
<defs>
</defs>
<rect x="7.5" y="19.476" fill="#FAD7E2" width="1.5" height="1.5"/>
<rect x="9" y="19.476" fill="#FAD7E2" width="1.5" height="1.5"/>
<rect x="10.5" y="19.476" fill="#FAD7E2" width="1.5" height="1.5"/>
<rect x="10.5" y="17.976" fill="#FAD7E2" width="1.5" height="1.5"/>
<rect x="12" y="19.476" fill="#FAD7E2" width="1.5" height="1.5"/>
<rect x="12" y="17.976" fill="#FAD7E2" width="1.5" height="1.5"/>
<rect x="12" y="16.479" fill="#EFEFEE" width="1.5" height="1.5"/>
<rect x="13.5" y="14.981" fill="#EFEFEE" width="1.5" height="1.5"/>
<rect x="13.5" y="16.479" fill="#FFFFFF" width="1.5" height="1.5"/>
<rect x="7.5" y="20.968" fill="#FAD7E2" width="1.5" height="1.5"/>
<rect x="9" y="20.968" fill="#FAD7E2" width="1.5" height="1.5"/>
<rect x="10.5" y="20.968" fill="#FAD7E2" width="1.5" height="1.5"/>
<rect x="12" y="20.971" fill="#FAD7E2" width="1.5" height="1.5"/>
<rect x="6" y="20.971" fill="#E3477B" width="1.5" height="1.5"/>
<rect x="4.5" y="20.971" fill="#E3477B" width="1.5" height="1.5"/>
<rect x="13.5" y="20.971" fill="#E3477B" width="1.5" height="1.5"/>
<rect x="15" y="20.971" fill="#D87EA7" width="1.5" height="1.5"/>
<rect x="7.5" y="23.971" fill="#FFFFFF" width="1.5" height="1.5"/>
<rect x="9" y="23.971" fill="#FFFFFF" width="1.5" height="1.5"/>
<rect x="12" y="23.971" fill="#E3477B" width="1.5" height="1.5"/>
<rect x="10.5" y="23.971" fill="#FFFFFF" width="1.5" height="1.5"/>
<rect x="6" y="23.971" fill="#D87EA7" width="1.5" height="1.5"/>
<rect x="4.5" y="23.971" fill="#FFFFFF" width="1.5" height="1.5"/>
<rect x="3" y="23.971" fill="#E3477B" width="1.5" height="1.5"/>
<rect x="13.5" y="23.971" fill="#E3477B" width="1.5" height="1.5"/>
<rect x="15" y="23.971" fill="#FFFFFF" width="1.5" height="1.5"/>
<rect x="16.5" y="23.971" fill="#D87EA7" width="1.5" height="1.5"/>
<rect x="18" y="23.971" fill="#E3477B" width="1.5" height="1.5"/>
<rect x="7.5" y="26.971" fill="#FFFFFF" width="1.5" height="1.5"/>
<rect x="9" y="26.971" fill="#FFFFFF" width="1.5" height="1.5"/>
<rect x="12" y="26.971" fill="#E3477B" width="1.5" height="1.5"/>
<rect x="10.5" y="26.971" fill="#FFFFFF" width="1.5" height="1.5"/>
<rect x="6" y="26.971" fill="#E3477B" width="1.5" height="1.5"/>
<rect x="4.5" y="26.971" fill="#FFFFFF" width="1.5" height="1.5"/>
<rect x="3" y="26.971" fill="#E3477B" width="1.5" height="1.5"/>
<rect x="13.5" y="26.971" fill="#E3477B" width="1.5" height="1.5"/>
<rect x="15" y="26.971" fill="#FFFFFF" width="1.5" height="1.5"/>
<rect x="16.5" y="26.971" fill="#D87EA7" width="1.5" height="1.5"/>
<rect x="18" y="26.971" fill="#E3477B" width="1.5" height="1.5"/>
<rect x="7.5" y="22.471" fill="#E3477B" width="1.5" height="1.5"/>
<rect x="9" y="22.471" fill="#FFFFFF" width="1.5" height="1.5"/>
<rect x="12" y="22.471" fill="#E3477B" width="1.5" height="1.5"/>
<rect x="10.5" y="22.471" fill="#E3477B" width="1.5" height="1.5"/>
<rect x="6" y="22.471" fill="#E3477B" width="1.5" height="1.5"/>
<rect x="4.5" y="22.471" fill="#E3477B" width="1.5" height="1.5"/>
<rect x="3" y="22.471" fill="#FFFFFF" width="1.5" height="1.5"/>
<rect x="13.5" y="22.471" fill="#E3477B" width="1.5" height="1.5"/>
<rect x="15" y="22.471" fill="#E3477B" width="1.5" height="1.5"/>
<rect x="16.5" y="22.471" fill="#FFFFFF" width="1.5" height="1.5"/>
<rect x="18" y="22.471" fill="#E3477B" width="1.5" height="1.5"/>
<rect x="7.5" y="25.471" fill="#FFFFFF" width="1.5" height="1.5"/>
<rect x="9" y="25.471" fill="#FFFFFF" width="1.5" height="1.5"/>
<rect x="12" y="25.471" fill="#FFFFFF" width="1.5" height="1.5"/>
<rect x="10.5" y="25.471" fill="#FFFFFF" width="1.5" height="1.5"/>
<rect x="6" y="25.471" fill="#FFFFFF" width="1.5" height="1.5"/>
<rect x="4.5" y="25.471" fill="#E3477B" width="1.5" height="1.5"/>
<rect x="3" y="25.471" fill="#D87EA7" width="1.5" height="1.5"/>
<rect x="1.5" y="23.971" fill="#E3477B" width="1.5" height="1.5"/>
<rect x="1.5" y="26.971" fill="#E3477B" width="1.5" height="1.5"/>
<rect x="1.5" y="25.471" fill="#E3477B" width="1.5" height="1.5"/>
<rect x="13.5" y="25.471" fill="#FFFFFF" width="1.5" height="1.5"/>
<rect x="15" y="25.471" fill="#D87EA7" width="1.5" height="1.5"/>
<rect x="16.5" y="25.471" fill="#E3477B" width="1.5" height="1.5"/>
<rect x="18" y="25.471" fill="#E3477B" width="1.5" height="1.5"/>
<rect x="4.5" y="1.5" fill="#E3477B" width="1.5" height="1.5"/>
<rect x="6" y="1.5" fill="#FFFFFF" width="1.5" height="1.5"/>
<rect x="7.5" y="1.5" fill="#FFFFFF" width="1.5" height="1.5"/>
<rect x="9" y="1.5" fill="#FFFFFF" width="1.5" height="1.5"/>
<rect x="3" y="4.497" fill="#E3477B" width="1.5" height="1.5"/>
<rect x="4.5" y="4.497" fill="#E3477B" width="1.5" height="1.5"/>
<rect x="6" y="4.497" fill="#D87EA7" width="1.5" height="1.5"/>
<rect x="7.5" y="4.497" fill="#E3477B" width="1.5" height="1.5"/>
<rect x="9" y="4.497" fill="#E3477B" width="1.5" height="1.5"/>
<rect x="10.5" y="4.497" fill="#E3477B" width="1.5" height="1.5"/>
<rect x="3" y="5.997" fill="#231F20" width="1.5" height="1.5"/>
<rect x="4.5" y="5.997" fill="#231F20" width="1.5" height="1.5"/>
<rect x="6" y="5.997" fill="#FFFFFF" width="1.5" height="1.5"/>
<rect x="7.5" y="5.997" fill="#D87EA7" width="1.5" height="1.5"/>
<rect x="9" y="5.997" fill="#E3477B" width="1.5" height="1.5"/>
<rect x="10.5" y="5.997" fill="#E3477B" width="1.5" height="1.5"/>
<rect x="3" y="7.497" fill="#231F20" width="1.5" height="1.5"/>
<rect x="4.5" y="7.497" fill="#231F20" width="1.5" height="1.5"/>
<rect x="3" y="8.991" fill="#231F20" width="1.5" height="1.5"/>
<rect x="4.5" y="8.991" fill="#231F20" width="1.5" height="1.5"/>
<rect x="3" y="11.981" fill="#E3477B" width="1.5" height="1.5"/>
<rect x="1.5" y="11.981" fill="#231F20" width="1.5" height="1.5"/>
<rect x="4.5" y="11.981" fill="#E3477B" width="1.5" height="1.5"/>
<rect x="3" y="13.484" fill="#E3477B" width="1.5" height="1.5"/>
<rect x="4.5" y="13.484" fill="#E3477B" width="1.5" height="1.5"/>
<rect x="4.5" y="14.981" fill="#D3D5D5" width="1.5" height="1.5"/>
<rect x="7.5" y="14.981" fill="#FFFFFF" width="1.5" height="1.5"/>
<rect x="6" y="14.981" fill="#D3D5D5" width="1.5" height="1.5"/>
<rect x="9" y="14.981" fill="#FFFFFF" width="1.5" height="1.5"/>
<rect x="12" y="14.981" fill="#FFFFFF" width="1.5" height="1.5"/>
<rect x="10.5" y="14.981" fill="#FFFFFF" width="1.5" height="1.5"/>
<rect x="7.5" y="16.479" fill="#FFFFFF" width="1.5" height="1.5"/>
<rect x="6" y="16.479" fill="#D3D5D5" width="1.5" height="1.5"/>
<rect x="9" y="16.479" fill="#FFFFFF" width="1.5" height="1.5"/>
<rect x="10.5" y="16.479" fill="#FFFFFF" width="1.5" height="1.5"/>
<rect x="7.5" y="17.976" fill="#FFFFFF" width="1.5" height="1.5"/>
<rect x="6" y="17.976" fill="#D3D5D5" width="1.5" height="1.5"/>
<rect x="9" y="17.976" fill="#FFFFFF" width="1.5" height="1.5"/>
<rect x="12" y="13.484" fill="#FFFFFF" width="1.5" height="1.5"/>
<rect x="13.5" y="13.484" fill="#FFFFFF" width="1.5" height="1.5"/>
<rect x="12" y="11.981" fill="#FFFFFF" width="1.5" height="1.5"/>
<rect x="13.5" y="11.981" fill="#FFFFFF" width="1.5" height="1.5"/>
<rect x="12" y="8.991" fill="#E3477B" width="1.5" height="1.5"/>
<rect x="13.5" y="8.991" fill="#FFFFFF" width="1.5" height="1.5"/>
<rect x="15" y="11.981" fill="#FFFFFF" width="1.5" height="1.5"/>
<rect x="15" y="10.484" fill="#FFFFFF" width="1.5" height="1.5"/>
<rect x="6" y="7.497" fill="#231F20" width="1.5" height="1.5"/>
<rect x="7.5" y="7.497" fill="#E3477B" width="1.5" height="1.5"/>
<rect x="9" y="7.497" fill="#E3477B" width="1.5" height="1.5"/>
<rect x="10.5" y="7.497" fill="#E3477B" width="1.5" height="1.5"/>
<rect x="6" y="8.991" fill="#231F20" width="1.5" height="1.5"/>
<rect x="7.5" y="8.991" fill="#D87EA7" width="1.5" height="1.5"/>
<rect x="9" y="8.991" fill="#E3477B" width="1.5" height="1.5"/>
<rect x="10.5" y="8.991" fill="#E3477B" width="1.5" height="1.5"/>
<rect x="3" y="10.484" fill="#231F20" width="1.5" height="1.5"/>
<rect x="1.5" y="10.484" fill="#231F20" width="1.5" height="1.5"/>
<rect x="1.5" y="5.997" fill="#E3477B" width="1.5" height="1.5"/>
<rect x="1.5" y="4.497" fill="#E3477B" width="1.5" height="1.5"/>
<rect x="1.5" y="3" fill="#E3477B" width="1.5" height="1.5"/>
<rect x="1.5" y="7.497" fill="#231F20" width="1.5" height="1.5"/>
<rect x="1.5" y="8.991" fill="#231F20" width="1.5" height="1.5"/>
<rect y="5.997" fill="#E3477B" width="1.5" height="1.5"/>
<rect y="4.497" fill="#E3477B" width="1.5" height="1.5"/>
<rect y="7.497" fill="#E3477B" width="1.5" height="1.5"/>
<rect y="8.991" fill="#E3477B" width="1.5" height="1.5"/>
<rect x="4.5" y="10.484" fill="#231F20" width="1.5" height="1.5"/>
<rect x="12" y="10.484" fill="#FFFFFF" width="1.5" height="1.5"/>
<rect x="13.5" y="10.484" fill="#FFFFFF" width="1.5" height="1.5"/>
<rect x="6" y="10.484" fill="#E3477B" width="1.5" height="1.5"/>
<rect x="7.5" y="10.484" fill="#E3477B" width="1.5" height="1.5"/>
<rect x="9" y="10.484" fill="#E3477B" width="1.5" height="1.5"/>
<rect x="10.5" y="10.484" fill="#FFFFFF" width="1.5" height="1.5"/>
<rect x="6" y="11.981" fill="#E3477B" width="1.5" height="1.5"/>
<rect x="7.5" y="11.981" fill="#E3477B" width="1.5" height="1.5"/>
<rect x="9" y="11.981" fill="#FFFFFF" width="1.5" height="1.5"/>
<rect x="10.5" y="11.981" fill="#FFFFFF" width="1.5" height="1.5"/>
<rect x="6" y="13.481" fill="#E3477B" width="1.5" height="1.5"/>
<rect x="7.5" y="13.481" fill="#FFFFFF" width="1.5" height="1.5"/>
<rect x="9" y="13.481" fill="#FFFFFF" width="1.5" height="1.5"/>
<rect x="10.5" y="13.481" fill="#FFFFFF" width="1.5" height="1.5"/>
<rect x="12" y="4.497" fill="#E3477B" width="1.5" height="1.5"/>
<rect x="13.5" y="4.497" fill="#E3477B" width="1.5" height="1.5"/>
<rect x="3" y="3" fill="#E3477B" width="1.5" height="1.5"/>
<rect x="3" y="1.5" fill="#E3477B" width="1.5" height="1.5"/>
<rect x="4.5" y="3" fill="#E3477B" width="1.5" height="1.5"/>
<rect x="6" y="3" fill="#E3477B" width="1.5" height="1.5"/>
<rect x="7.5" y="3" fill="#E3477B" width="1.5" height="1.5"/>
<rect x="9" y="3" fill="#E3477B" width="1.5" height="1.5"/>
<rect x="10.5" y="3" fill="#E3477B" width="1.5" height="1.5"/>
<rect x="12" y="3" fill="#E3477B" width="1.5" height="1.5"/>
<rect x="10.5" y="1.5" fill="#FFFFFF" width="1.5" height="1.5"/>
<rect x="12" y="1.5" fill="#FFFFFF" width="1.5" height="1.5"/>
<rect x="6" fill="#E3477B" width="1.5" height="1.5"/>
<rect x="7.5" fill="#EFEFEE" width="1.5" height="1.5"/>
<rect x="9" fill="#EFEFEE" width="1.5" height="1.5"/>
<rect x="10.5" fill="#FFFFFF" width="1.5" height="1.5"/>
<rect x="12" fill="#FFFFFF" width="1.5" height="1.5"/>
<rect x="13.5" y="3" fill="#E3477B" width="1.5" height="1.5"/>
<rect x="13.5" y="1.5" fill="#FFFFFF" width="1.5" height="1.5"/>
<rect x="13.5" fill="#FFFFFF" width="1.5" height="1.5"/>
<rect x="15" y="4.497" fill="#E3477B" width="1.5" height="1.5"/>
<rect x="15" y="3" fill="#FFFFFF" width="1.5" height="1.5"/>
<rect x="15" y="1.5" fill="#EFEFEE" width="1.5" height="1.5"/>
<rect x="12" y="5.997" fill="#E3477B" width="1.5" height="1.5"/>
<rect x="13.5" y="5.997" fill="#D87EA7" width="1.5" height="1.5"/>
<rect x="12" y="7.497" fill="#E3477B" width="1.5" height="1.5"/>
<rect x="13.5" y="7.497" fill="#E3477B" width="1.5" height="1.5"/>
<rect x="15" y="8.991" fill="#FFFFFF" width="1.5" height="1.5"/>
<rect x="15" y="5.997" fill="#E3477B" width="1.5" height="1.5"/>
<rect x="16.5" y="4.497" fill="#E3477B" width="1.5" height="1.5"/>
<rect x="16.5" y="5.997" fill="#E3477B" width="1.5" height="1.5"/>
<rect x="16.5" y="1.5" fill="#FFFFFF" width="1.5" height="1.5"/>
<rect x="16.5" y="3" fill="#D3D4D6" width="1.5" height="1.5"/>
<rect x="18" y="4.497" fill="#E3477B" width="1.5" height="1.5"/>
<rect x="18" y="5.997" fill="#E3477B" width="1.5" height="1.5"/>
<rect x="15" y="7.497" fill="#D87EA7" width="1.5" height="1.5"/>
<rect x="16.5" y="11.988" fill="#FFFFFF" width="1.5" height="1.5"/>
<rect x="16.5" y="10.494" fill="#EFEFEE" width="1.5" height="1.5"/>
<rect x="16.5" y="8.996" fill="#FFFFFF" width="1.5" height="1.5"/>
<rect x="16.5" y="7.496" fill="#FFFFFF" width="1.5" height="1.5"/>
<rect x="18" y="7.496" fill="#D3D4D6" width="1.5" height="1.5"/>
<rect x="18" y="8.991" fill="#D3D4D6" width="1.5" height="1.5"/>
<rect x="18" y="10.494" fill="#FFFFFF" width="1.5" height="1.5"/>
<rect x="15" y="13.484" fill="#FFFFFF" width="1.5" height="1.5"/>
<rect x="16.5" y="13.484" fill="#FFFFFF" width="1.5" height="1.5"/>
</svg>
