<?xml version="1.0" encoding="utf-8"?>
<!-- Generator: Adobe Illustrator 16.0.0, SVG Export Plug-In . SVG Version: 6.00 Build 0)  -->
<!DOCTYPE svg PUBLIC "-//W3C//DTD SVG 1.1//EN" "http://www.w3.org/Graphics/SVG/1.1/DTD/svg11.dtd">
<svg version="1.1" id="Layer_1" xmlns="http://www.w3.org/2000/svg" xmlns:xlink="http://www.w3.org/1999/xlink" x="0px" y="0px"
	 width="300px" height="300px" viewBox="0 0 300 300" enable-background="new 0 0 300 300" xml:space="preserve">
<g>
	<rect x="126" y="99.049" fill="#EF5446" width="6" height="6"/>
	<rect x="126" y="93.049" fill="#8A281C" width="6" height="6"/>
	<rect x="120" y="99.049" fill="#EF5446" width="6" height="6"/>
	<rect x="132" y="99.049" fill="#8A281C" width="6" height="6"/>
	<rect x="138" y="99.049" fill="#EF5446" width="6" height="6"/>
	<rect x="144" y="99.049" fill="#EF5446" width="6" height="6"/>
	<rect x="120" y="111.037" fill="#4D301C" width="6" height="6"/>
	<rect x="126" y="111.037" fill="#734A1D" width="6" height="6"/>
	<rect x="132" y="111.037" fill="#2F292B" width="6" height="6"/>
	<rect x="138" y="111.037" fill="#EF5446" width="6" height="6"/>
	<rect x="144" y="111.037" fill="#EF5446" width="6" height="6"/>
	<rect x="150" y="111.037" fill="#C7293B" width="6" height="6"/>
	<rect x="120" y="117.037" fill="#EDD69F" width="6" height="6"/>
	<rect x="126" y="117.037" fill="#2F292B" width="6" height="6"/>
	<rect x="132" y="117.037" fill="#734A1D" width="6" height="6"/>
	<rect x="138" y="117.037" fill="#4D301C" width="6" height="6"/>
	<rect x="144" y="117.037" fill="#734A1D" width="6" height="6"/>
	<rect x="150" y="117.037" fill="#EF5446" width="6" height="6"/>
	<rect x="120" y="123.037" fill="#EDD69F" width="6" height="6"/>
	<rect x="126" y="123.037" fill="#EDD69F" width="6" height="6"/>
	<rect x="120" y="129.014" fill="#EDD69F" width="6" height="6"/>
	<rect x="126" y="129.014" fill="#EDD69F" width="6" height="6"/>
	<rect x="120" y="140.975" fill="#2F292B" width="6" height="6"/>
	<rect x="126" y="140.975" fill="#7F95A5" width="6" height="6"/>
	<rect x="120" y="146.986" fill="#EDD69F" width="6" height="6"/>
	<rect x="126" y="146.986" fill="#2F292B" width="6" height="6"/>
	<rect x="120" y="152.975" fill="#CBC0A9" width="6" height="6"/>
	<rect x="114" y="146.986" fill="#EDD69F" width="6" height="6"/>
	<rect x="126" y="152.975" fill="#CBC0A9" width="6" height="6"/>
	<rect x="138" y="152.975" fill="#CBC0A9" width="6" height="6"/>
	<rect x="132" y="152.975" fill="#CBC0A9" width="6" height="6"/>
	<rect x="144" y="152.975" fill="#EDD69F" width="6" height="6"/>
	<rect x="156" y="152.975" fill="#EDD69F" width="6" height="6"/>
	<rect x="150" y="152.975" fill="#EDD69F" width="6" height="6"/>
	<rect x="138" y="158.963" fill="#FFFFFF" width="6" height="6"/>
	<rect x="132" y="158.963" fill="#FFFFFF" width="6" height="6"/>
	<rect x="144" y="158.963" fill="#FFFFFF" width="6" height="6"/>
	<rect x="150" y="158.963" fill="#C62C3D" width="6" height="6"/>
	<rect x="138" y="164.951" fill="#C62C3D" width="6" height="6"/>
	<rect x="132" y="164.951" fill="#C62C3D" width="6" height="6"/>
	<rect x="144" y="164.951" fill="#C62C3D" width="6" height="6"/>
	<rect x="150" y="164.951" fill="#EDD69F" width="6" height="6"/>
	<rect x="138" y="170.951" fill="#CBC0A9" width="6" height="6"/>
	<rect x="132" y="170.951" fill="#CBC0A9" width="6" height="6"/>
	<rect x="144" y="170.951" fill="#CBC0A9" width="6" height="6"/>
	<rect x="138" y="176.951" fill="#EDD69F" width="6" height="6"/>
	<rect x="144" y="176.951" fill="#EDD69F" width="6" height="6"/>
	<rect x="138" y="182.951" fill="#EDD69F" width="6" height="6"/>
	<rect x="144" y="182.951" fill="#EDD69F" width="6" height="6"/>
	<rect x="150" y="176.951" fill="#EDD69F" width="6" height="6"/>
	<rect x="150" y="170.951" fill="#EDD69F" width="6" height="6"/>
	<rect x="156" y="170.951" fill="#EDD69F" width="6" height="6"/>
	<rect x="156" y="182.951" fill="#808083" width="6" height="6"/>
	<rect x="150" y="182.951" fill="#EDD69F" width="6" height="6"/>
	<rect x="132" y="182.951" fill="#808083" width="6" height="6"/>
	<rect x="126" y="182.951" fill="#A2A4A6" width="6" height="6"/>
	<rect x="162" y="182.951" fill="#A2A4A6" width="6" height="6"/>
	<rect x="168" y="182.951" fill="#A2A4A6" width="6" height="6"/>
	<rect x="174" y="182.951" fill="#A2A4A6" width="6" height="6"/>
	<rect x="138" y="194.951" fill="#808083" width="6" height="6"/>
	<rect x="144" y="194.951" fill="#808083" width="6" height="6"/>
	<rect x="156" y="194.951" fill="#A2A4A6" width="6" height="6"/>
	<rect x="150" y="194.951" fill="#808083" width="6" height="6"/>
	<rect x="132" y="194.951" fill="#A2A4A6" width="6" height="6"/>
	<rect x="126" y="194.951" fill="#A2A4A6" width="6" height="6"/>
	<rect x="120" y="194.951" fill="#A2A4A6" width="6" height="6"/>
	<rect x="162" y="194.951" fill="#A2A4A6" width="6" height="6"/>
	<rect x="168" y="194.951" fill="#A2A4A6" width="6" height="6"/>
	<rect x="174" y="194.951" fill="#A2A4A6" width="6" height="6"/>
	<rect x="180" y="194.951" fill="#A2A4A6" width="6" height="6"/>
	<rect x="138" y="206.951" fill="#A2A4A6" width="6" height="6"/>
	<rect x="144" y="206.951" fill="#A2A4A6" width="6" height="6"/>
	<rect x="156" y="206.951" fill="#A2A4A6" width="6" height="6"/>
	<rect x="150" y="206.951" fill="#A2A4A6" width="6" height="6"/>
	<rect x="132" y="206.951" fill="#A2A4A6" width="6" height="6"/>
	<rect x="126" y="206.951" fill="#808083" width="6" height="6"/>
	<rect x="120" y="206.951" fill="#A2A4A6" width="6" height="6"/>
	<rect x="162" y="206.951" fill="#808083" width="6" height="6"/>
	<rect x="168" y="206.951" fill="#A2A4A6" width="6" height="6"/>
	<rect x="174" y="206.951" fill="#A2A4A6" width="6" height="6"/>
	<rect x="180" y="206.951" fill="#A2A4A6" width="6" height="6"/>
	<rect x="138" y="188.951" fill="#EDD69F" width="6" height="6"/>
	<rect x="144" y="188.951" fill="#EDD69F" width="6" height="6"/>
	<rect x="156" y="188.951" fill="#808083" width="6" height="6"/>
	<rect x="150" y="188.951" fill="#EDD69F" width="6" height="6"/>
	<rect x="132" y="188.951" fill="#808083" width="6" height="6"/>
	<rect x="126" y="188.951" fill="#A2A4A6" width="6" height="6"/>
	<rect x="120" y="188.951" fill="#A2A4A6" width="6" height="6"/>
	<rect x="162" y="188.951" fill="#A2A4A6" width="6" height="6"/>
	<rect x="168" y="188.951" fill="#A2A4A6" width="6" height="6"/>
	<rect x="174" y="188.951" fill="#A2A4A6" width="6" height="6"/>
	<rect x="180" y="188.951" fill="#A2A4A6" width="6" height="6"/>
	<rect x="138" y="200.951" fill="#A2A4A6" width="6" height="6"/>
	<rect x="144" y="200.951" fill="#A2A4A6" width="6" height="6"/>
	<rect x="156" y="200.951" fill="#A2A4A6" width="6" height="6"/>
	<rect x="150" y="200.951" fill="#A2A4A6" width="6" height="6"/>
	<rect x="132" y="200.951" fill="#A2A4A6" width="6" height="6"/>
	<rect x="126" y="200.951" fill="#808083" width="6" height="6"/>
	<rect x="120" y="200.951" fill="#A2A4A6" width="6" height="6"/>
	<rect x="162" y="200.951" fill="#808083" width="6" height="6"/>
	<rect x="168" y="200.951" fill="#A2A4A6" width="6" height="6"/>
	<rect x="174" y="200.951" fill="#A2A4A6" width="6" height="6"/>
	<rect x="180" y="200.951" fill="#A2A4A6" width="6" height="6"/>
	<rect x="162" y="152.975" fill="#EDD69F" width="6" height="6"/>
	<rect x="156" y="146.986" fill="#EDD69F" width="6" height="6"/>
	<rect x="162" y="146.986" fill="#EDD69F" width="6" height="6"/>
	<rect x="156" y="164.951" fill="#EDD69F" width="6" height="6"/>
	<rect x="162" y="164.951" fill="#EDD69F" width="6" height="6"/>
	<rect x="156" y="158.963" fill="#EDD69F" width="6" height="6"/>
	<rect x="162" y="158.963" fill="#EDD69F" width="6" height="6"/>
	<rect x="156" y="140.975" fill="#2F292B" width="6" height="6"/>
	<rect x="162" y="140.975" fill="#EDD69F" width="6" height="6"/>
	<rect x="156" y="129.014" fill="#2F292B" width="6" height="6"/>
	<rect x="162" y="129.014" fill="#4D301C" width="6" height="6"/>
	<rect x="168" y="140.975" fill="#EDD69F" width="6" height="6"/>
	<rect x="168" y="134.986" fill="#EDD69F" width="6" height="6"/>
	<rect x="132" y="123.037" fill="#4D301C" width="6" height="6"/>
	<rect x="138" y="123.037" fill="#4D301C" width="6" height="6"/>
	<rect x="144" y="123.037" fill="#2F292B" width="6" height="6"/>
	<rect x="150" y="123.037" fill="#734A1D" width="6" height="6"/>
	<rect x="132" y="129.014" fill="#EDD69F" width="6" height="6"/>
	<rect x="138" y="129.014" fill="#EDD69F" width="6" height="6"/>
	<rect x="144" y="129.014" fill="#734A1D" width="6" height="6"/>
	<rect x="150" y="129.014" fill="#2F292B" width="6" height="6"/>
	<rect x="120" y="134.986" fill="#2F292B" width="6" height="6"/>
	<rect x="126" y="134.986" fill="#2F292B" width="6" height="6"/>
	<rect x="156" y="134.986" fill="#4D301C" width="6" height="6"/>
	<rect x="162" y="134.986" fill="#2F292B" width="6" height="6"/>
	<rect x="132" y="134.986" fill="#2F292B" width="6" height="6"/>
	<rect x="138" y="134.986" fill="#2F292B" width="6" height="6"/>
	<rect x="144" y="134.986" fill="#2F292B" width="6" height="6"/>
	<rect x="150" y="134.986" fill="#2F292B" width="6" height="6"/>
	<rect x="132" y="140.975" fill="#FFFFFF" width="6" height="6"/>
	<rect x="138" y="140.975" fill="#4D301C" width="6" height="6"/>
	<rect x="144" y="140.975" fill="#EDD69F" width="6" height="6"/>
	<rect x="150" y="140.975" fill="#EDD69F" width="6" height="6"/>
	<rect x="132" y="146.975" fill="#4D301C" width="6" height="6"/>
	<rect x="138" y="146.975" fill="#EDD69F" width="6" height="6"/>
	<rect x="144" y="146.975" fill="#EDD69F" width="6" height="6"/>
	<rect x="150" y="146.975" fill="#EDD69F" width="6" height="6"/>
	<rect x="156" y="111.037" fill="#EF5446" width="6" height="6"/>
	<rect x="162" y="111.037" fill="#EF5446" width="6" height="6"/>
	<rect x="120" y="105.049" fill="#2F292B" width="6" height="6"/>
	<rect x="126" y="105.049" fill="#4D301C" width="6" height="6"/>
	<rect x="132" y="105.049" fill="#EF5446" width="6" height="6"/>
	<rect x="138" y="105.049" fill="#C7293B" width="6" height="6"/>
	<rect x="144" y="105.049" fill="#C7293B" width="6" height="6"/>
	<rect x="150" y="105.049" fill="#EF5446" width="6" height="6"/>
	<rect x="156" y="105.049" fill="#EF5446" width="6" height="6"/>
	<rect x="150" y="99.049" fill="#EF5446" width="6" height="6"/>
	<rect x="138" y="93.049" fill="#EF5446" width="6" height="6"/>
	<rect x="132" y="93.049" fill="#EF5446" width="6" height="6"/>
	<rect x="156" y="99.049" fill="#EF5446" width="6" height="6"/>
	<rect x="144" y="93.049" fill="#C7293B" width="6" height="6"/>
	<rect x="150" y="93.049" fill="#EF5446" width="6" height="6"/>
	<rect x="156" y="93.049" fill="#EF5446" width="6" height="6"/>
	<rect x="138" y="87.049" fill="#C7293B" width="6" height="6"/>
	<rect x="144" y="87.049" fill="#EF5446" width="6" height="6"/>
	<rect x="150" y="87.049" fill="#EF5446" width="6" height="6"/>
	<rect x="156" y="87.049" fill="#EF5446" width="6" height="6"/>
	<rect x="162" y="105.049" fill="#C7293B" width="6" height="6"/>
	<rect x="168" y="111.037" fill="#EF5446" width="6" height="6"/>
	<rect x="168" y="105.049" fill="#C7293B" width="6" height="6"/>
	<rect x="162" y="99.049" fill="#EF5446" width="6" height="6"/>
	<rect x="168" y="99.049" fill="#EF5446" width="6" height="6"/>
	<rect x="162" y="93.049" fill="#EF5446" width="6" height="6"/>
	<rect x="162" y="87.049" fill="#EF5446" width="6" height="6"/>
	<rect x="168" y="93.049" fill="#EF5446" width="6" height="6"/>
	<rect x="156" y="117.037" fill="#8A281C" width="6" height="6"/>
	<rect x="162" y="117.037" fill="#8A281C" width="6" height="6"/>
	<rect x="156" y="123.037" fill="#EF5446" width="6" height="6"/>
	<rect x="162" y="123.037" fill="#EF5446" width="6" height="6"/>
	<rect x="168" y="129.014" fill="#2F292B" width="6" height="6"/>
	<rect x="168" y="146.986" fill="#2F292B" width="6" height="6"/>
	<rect x="168" y="117.037" fill="#8A281C" width="6" height="6"/>
	<rect x="168" y="123.037" fill="#EF5446" width="6" height="6"/>
</g>
</svg>
