<?xml version="1.0" encoding="utf-8"?>
<!-- Generator: Adobe Illustrator 16.0.0, SVG Export Plug-In . SVG Version: 6.00 Build 0)  -->
<!DOCTYPE svg PUBLIC "-//W3C//DTD SVG 1.1//EN" "http://www.w3.org/Graphics/SVG/1.1/DTD/svg11.dtd">
<svg version="1.1" id="Layer_1" xmlns="http://www.w3.org/2000/svg" xmlns:xlink="http://www.w3.org/1999/xlink" x="0px" y="0px"
	 width="300px" height="300px" viewBox="0 0 300 300" enable-background="new 0 0 300 300" xml:space="preserve">
<g>
	<rect x="120" y="105.034" fill="#EFD1B8" width="7.5" height="7.5"/>
	<rect x="127.5" y="105.034" fill="#EFD1B8" width="7.5" height="7.5"/>
	<rect x="135" y="105.034" fill="#C79C89" width="7.5" height="7.5"/>
	<rect x="142.5" y="105.034" fill="#EEBFA2" width="7.5" height="7.5"/>
	<rect x="150" y="105.029" fill="#EFC8A6" width="7.5" height="7.5"/>
	<rect x="112.5" y="112.534" fill="#E5B29B" width="7.5" height="7.5"/>
	<rect x="120" y="112.534" fill="#AE9D85" width="7.5" height="7.5"/>
	<rect x="127.5" y="112.529" fill="#AE9D85" width="7.5" height="7.5"/>
	<rect x="135" y="112.529" fill="#EFC8A6" width="7.5" height="7.5"/>
	<rect x="142.5" y="112.529" fill="#EFC8A6" width="7.5" height="7.5"/>
	<rect x="150" y="112.534" fill="#EFC8A6" width="7.5" height="7.5"/>
	<rect x="112.5" y="120.034" fill="#EFC8A6" width="7.5" height="7.5"/>
	<rect x="120" y="120.034" fill="#E5B29B" width="7.5" height="7.5"/>
	<rect x="112.5" y="127.505" fill="#EFC8A6" width="7.5" height="7.5"/>
	<rect x="120" y="127.505" fill="#7F95A5" width="7.5" height="7.5"/>
	<rect x="112.5" y="134.995" fill="#EFC8A6" width="7.5" height="7.5"/>
	<rect x="120" y="134.995" fill="#EFD1B8" width="7.5" height="7.5"/>
	<rect x="112.5" y="142.505" fill="#EFC8A6" width="7.5" height="7.5"/>
	<rect x="120" y="142.505" fill="#EFC8A6" width="7.5" height="7.5"/>
	<rect x="112.5" y="149.985" fill="#EFC8A6" width="7.5" height="7.5"/>
	<rect x="105" y="142.505" fill="#EFC8A6" width="7.5" height="7.5"/>
	<rect x="105" y="135.005" fill="#E5B29B" width="7.5" height="7.5"/>
	<rect x="120" y="149.985" fill="#EFC8A6" width="7.5" height="7.5"/>
	<rect x="135" y="149.985" fill="#EFC8A6" width="7.5" height="7.5"/>
	<rect x="127.5" y="149.985" fill="#EFC8A6" width="7.5" height="7.5"/>
	<rect x="142.5" y="149.985" fill="#E5B29B" width="7.5" height="7.5"/>
	<rect x="157.5" y="149.985" fill="#EFC8A6" width="7.5" height="7.5"/>
	<rect x="150" y="149.985" fill="#EFC8A6" width="7.5" height="7.5"/>
	<rect x="135" y="157.471" fill="#FFFFFF" width="7.5" height="7.5"/>
	<rect x="127.5" y="157.471" fill="#FFFFFF" width="7.5" height="7.5"/>
	<rect x="120" y="157.471" fill="#FFFFFF" width="7.5" height="7.5"/>
	<rect x="142.5" y="157.471" fill="#BB807B" width="7.5" height="7.5"/>
	<rect x="150" y="157.471" fill="#EFC8A6" width="7.5" height="7.5"/>
	<rect x="135" y="164.956" fill="#BB807B" width="7.5" height="7.5"/>
	<rect x="127.5" y="164.956" fill="#BB807B" width="7.5" height="7.5"/>
	<rect x="142.5" y="164.956" fill="#E5B29B" width="7.5" height="7.5"/>
	<rect x="150" y="164.956" fill="#EFC8A6" width="7.5" height="7.5"/>
	<rect x="135" y="172.456" fill="#EFC8A6" width="7.5" height="7.5"/>
	<rect x="127.5" y="172.456" fill="#EFC8A6" width="7.5" height="7.5"/>
	<rect x="127.5" y="179.956" fill="#C79C89" width="7.5" height="7.5"/>
	<rect x="120" y="164.956" fill="#BB807B" width="7.5" height="7.5"/>
	<rect x="120" y="172.456" fill="#EFC8A6" width="7.5" height="7.5"/>
	<rect x="142.5" y="172.456" fill="#EFC8A6" width="7.5" height="7.5"/>
	<rect x="135" y="179.956" fill="#EFC8A6" width="7.5" height="7.5"/>
	<rect x="142.5" y="179.956" fill="#EFC8A6" width="7.5" height="7.5"/>
	<rect x="135" y="187.456" fill="#EFC8A6" width="7.5" height="7.5"/>
	<rect x="142.5" y="187.456" fill="#C79C89" width="7.5" height="7.5"/>
	<rect x="150" y="179.956" fill="#E5B29B" width="7.5" height="7.5"/>
	<rect x="150" y="172.456" fill="#EFC8A6" width="7.5" height="7.5"/>
	<rect x="157.5" y="172.456" fill="#E5B29B" width="7.5" height="7.5"/>
	<rect x="157.5" y="179.956" fill="#EFC8A6" width="7.5" height="7.5"/>
	<rect x="165" y="179.956" fill="#C2B59B" width="7.5" height="7.5"/>
	<rect x="172.5" y="179.956" fill="#C2B59B" width="7.5" height="7.5"/>
	<rect x="157.5" y="187.456" fill="#EFC8A6" width="7.5" height="7.5"/>
	<rect x="150" y="187.456" fill="#EFC8A6" width="7.5" height="7.5"/>
	<rect x="127.5" y="187.456" fill="#6D808E" width="7.5" height="7.5"/>
	<rect x="120" y="187.456" fill="#C2B59B" width="7.5" height="7.5"/>
	<rect x="165" y="187.456" fill="#7F95A5" width="7.5" height="7.5"/>
	<rect x="172.5" y="187.456" fill="#C2B59B" width="7.5" height="7.5"/>
	<rect x="180" y="187.456" fill="#C2B59B" width="7.5" height="7.5"/>
	<rect x="135" y="202.456" fill="#6D808E" width="7.5" height="7.5"/>
	<rect x="142.5" y="202.456" fill="#EFC8A6" width="7.5" height="7.5"/>
	<rect x="157.5" y="202.456" fill="#ECEEEE" width="7.5" height="7.5"/>
	<rect x="150" y="202.456" fill="#6D808E" width="7.5" height="7.5"/>
	<rect x="127.5" y="202.456" fill="#7F95A5" width="7.5" height="7.5"/>
	<rect x="127.5" y="209.956" fill="#6D808E" width="7.5" height="7.5"/>
	<rect x="120" y="202.456" fill="#C2B59B" width="7.5" height="7.5"/>
	<rect x="112.5" y="202.456" fill="#AE9D85" width="7.5" height="7.5"/>
	<rect x="165" y="202.456" fill="#6D808E" width="7.5" height="7.5"/>
	<rect x="172.5" y="202.456" fill="#C2B59B" width="7.5" height="7.5"/>
	<rect x="180" y="202.456" fill="#AE9D85" width="7.5" height="7.5"/>
	<rect x="187.5" y="202.456" fill="#C2B59B" width="7.5" height="7.5"/>
	<rect x="135" y="217.456" fill="#6D808E" width="7.5" height="7.5"/>
	<rect x="142.5" y="217.456" fill="#7F95A5" width="7.5" height="7.5"/>
	<rect x="157.5" y="217.456" fill="#6D808E" width="7.5" height="7.5"/>
	<rect x="150" y="217.456" fill="#ECEEEE" width="7.5" height="7.5"/>
	<rect x="127.5" y="217.456" fill="#C2B59B" width="7.5" height="7.5"/>
	<rect x="120" y="217.456" fill="#AE9D85" width="7.5" height="7.5"/>
	<rect x="112.5" y="217.456" fill="#C2B59B" width="7.5" height="7.5"/>
	<rect x="165" y="217.456" fill="#C2B59B" width="7.5" height="7.5"/>
	<rect x="172.5" y="217.456" fill="#AE9D85" width="7.5" height="7.5"/>
	<rect x="180" y="217.456" fill="#9B8579" width="7.5" height="7.5"/>
	<rect x="187.5" y="217.456" fill="#C2B59B" width="7.5" height="7.5"/>
	<rect x="135" y="194.956" fill="#EFC8A6" width="7.5" height="7.5"/>
	<rect x="142.5" y="194.956" fill="#EFC8A6" width="7.5" height="7.5"/>
	<rect x="157.5" y="194.956" fill="#6D808E" width="7.5" height="7.5"/>
	<rect x="150" y="194.956" fill="#EFC8A6" width="7.5" height="7.5"/>
	<rect x="127.5" y="194.956" fill="#ECEEEE" width="7.5" height="7.5"/>
	<rect x="120" y="194.956" fill="#C2B59B" width="7.5" height="7.5"/>
	<rect x="112.5" y="194.956" fill="#C2B59B" width="7.5" height="7.5"/>
	<rect x="112.5" y="187.456" fill="#C2B59B" width="7.5" height="7.5"/>
	<rect x="165" y="194.956" fill="#ECEEEE" width="7.5" height="7.5"/>
	<rect x="172.5" y="194.956" fill="#C2B59B" width="7.5" height="7.5"/>
	<rect x="180" y="194.956" fill="#C2B59B" width="7.5" height="7.5"/>
	<rect x="187.5" y="194.956" fill="#AE9D85" width="7.5" height="7.5"/>
	<rect x="135" y="209.956" fill="#ECEEEE" width="7.5" height="7.5"/>
	<rect x="142.5" y="209.956" fill="#6D808E" width="7.5" height="7.5"/>
	<rect x="157.5" y="209.956" fill="#6D808E" width="7.5" height="7.5"/>
	<rect x="150" y="209.956" fill="#7F95A5" width="7.5" height="7.5"/>
	<rect x="127.5" y="209.956" fill="#6D808E" width="7.5" height="7.5"/>
	<rect x="120" y="209.956" fill="#AE9D85" width="7.5" height="7.5"/>
	<rect x="112.5" y="209.956" fill="#C2B59B" width="7.5" height="7.5"/>
	<rect x="105" y="202.456" fill="#C2B59B" width="7.5" height="7.5"/>
	<rect x="105" y="194.956" fill="#AE9D85" width="7.5" height="7.5"/>
	<rect x="105" y="217.456" fill="#9B8579" width="7.5" height="7.5"/>
	<rect x="105" y="209.956" fill="#C2B59B" width="7.5" height="7.5"/>
	<rect x="97.5" y="202.456" fill="#C2B59B" width="7.5" height="7.5"/>
	<rect x="97.5" y="217.456" fill="#C2B59B" width="7.5" height="7.5"/>
	<rect x="97.5" y="209.956" fill="#C2B59B" width="7.5" height="7.5"/>
	<rect x="97.5" y="194.956" fill="#C2B59B" width="7.5" height="7.5"/>
	<rect x="90" y="202.456" fill="#C2B59B" width="7.5" height="7.5"/>
	<rect x="90" y="217.456" fill="#C2B59B" width="7.5" height="7.5"/>
	<rect x="90" y="209.956" fill="#C2B59B" width="7.5" height="7.5"/>
	<rect x="165" y="209.956" fill="#6D808E" width="7.5" height="7.5"/>
	<rect x="172.5" y="209.956" fill="#C2B59B" width="7.5" height="7.5"/>
	<rect x="180" y="209.956" fill="#AE9D85" width="7.5" height="7.5"/>
	<rect x="187.5" y="209.956" fill="#C2B59B" width="7.5" height="7.5"/>
	<rect x="195" y="202.456" fill="#C2B59B" width="7.5" height="7.5"/>
	<rect x="180" y="179.956" fill="#C2B59B" width="7.5" height="7.5"/>
	<rect x="187.5" y="187.456" fill="#C2B59B" width="7.5" height="7.5"/>
	<rect x="195" y="194.956" fill="#C2B59B" width="7.5" height="7.5"/>
	<rect x="195" y="217.456" fill="#C2B59B" width="7.5" height="7.5"/>
	<rect x="195" y="209.956" fill="#C2B59B" width="7.5" height="7.5"/>
	<rect x="202.5" y="202.456" fill="#C2B59B" width="7.5" height="7.5"/>
	<rect x="202.5" y="217.456" fill="#C2B59B" width="7.5" height="7.5"/>
	<rect x="202.5" y="209.956" fill="#C2B59B" width="7.5" height="7.5"/>
	<rect x="165" y="149.985" fill="#C79C89" width="7.5" height="7.5"/>
	<rect x="157.5" y="142.5" fill="#C79C89" width="7.5" height="7.5"/>
	<rect x="165" y="142.5" fill="#EFC8A6" width="7.5" height="7.5"/>
	<rect x="157.5" y="164.956" fill="#EFC8A6" width="7.5" height="7.5"/>
	<rect x="165" y="164.956" fill="#E5B29B" width="7.5" height="7.5"/>
	<rect x="157.5" y="157.471" fill="#EFC8A6" width="7.5" height="7.5"/>
	<rect x="165" y="157.471" fill="#E5B29B" width="7.5" height="7.5"/>
	<rect x="157.5" y="134.985" fill="#EFC8A6" width="7.5" height="7.5"/>
	<rect x="165" y="134.985" fill="#EFC8A6" width="7.5" height="7.5"/>
	<rect x="157.5" y="127.5" fill="#AE9D85" width="7.5" height="7.5"/>
	<rect x="165" y="127.5" fill="#C79C89" width="7.5" height="7.5"/>
	<rect x="172.5" y="134.985" fill="#EFC8A6" width="7.5" height="7.5"/>
	<rect x="172.5" y="127.5" fill="#EFC8A6" width="7.5" height="7.5"/>
	<rect x="127.5" y="120.034" fill="#E5B29B" width="7.5" height="7.5"/>
	<rect x="135" y="120.034" fill="#BAA993" width="7.5" height="7.5"/>
	<rect x="142.5" y="120.034" fill="#EFC8A6" width="7.5" height="7.5"/>
	<rect x="150" y="120.034" fill="#EFC8A6" width="7.5" height="7.5"/>
	<rect x="127.5" y="127.5" fill="#AA6D2D" width="7.5" height="7.5"/>
	<rect x="135" y="127.5" fill="#EFC8A6" width="7.5" height="7.5"/>
	<rect x="127.5" y="127.5" fill="#FFFFFF" width="7.5" height="7.5"/>
	<rect x="142.5" y="127.505" fill="#EFC8A6" width="7.5" height="7.5"/>
	<rect x="150" y="127.505" fill="#EFC8A6" width="7.5" height="7.5"/>
	<rect x="127.5" y="134.995" fill="#E5B29B" width="7.5" height="7.5"/>
	<rect x="135" y="134.995" fill="#EFD1B8" width="7.5" height="7.5"/>
	<rect x="142.5" y="134.995" fill="#EFC8A6" width="7.5" height="7.5"/>
	<rect x="150" y="134.985" fill="#EFC8A6" width="7.5" height="7.5"/>
	<rect x="127.5" y="142.485" fill="#E5B29B" width="7.5" height="7.5"/>
	<rect x="135" y="142.485" fill="#E5B29B" width="7.5" height="7.5"/>
	<rect x="142.5" y="142.485" fill="#EFC8A6" width="7.5" height="7.5"/>
	<rect x="150" y="142.485" fill="#EFC8A6" width="7.5" height="7.5"/>
	<rect x="157.5" y="105.029" fill="#C2B59B" width="7.5" height="7.5"/>
	<rect x="165" y="105.029" fill="#453308" width="7.5" height="7.5"/>
	<rect x="112.5" y="105.034" fill="#EFD1B8" width="7.5" height="7.5"/>
	<rect x="112.5" y="97.549" fill="#C79C89" width="7.5" height="7.505"/>
	<rect x="112.5" y="90.044" fill="#EFD1B8" width="7.5" height="7.5"/>
	<rect x="120" y="97.544" fill="#E5B29B" width="7.5" height="7.5"/>
	<rect x="127.5" y="97.549" fill="#C79C89" width="7.5" height="7.505"/>
	<rect x="135" y="97.549" fill="#EFC8A6" width="7.5" height="7.505"/>
	<rect x="142.5" y="97.549" fill="#EEBFA2" width="7.5" height="7.505"/>
	<rect x="150" y="97.544" fill="#EFC8A6" width="7.5" height="7.5"/>
	<rect x="157.5" y="97.544" fill="#453308" width="7.5" height="7.5"/>
	<rect x="120" y="90.044" fill="#EFD1B8" width="7.5" height="7.5"/>
	<rect x="120" y="82.544" fill="#453308" width="7.5" height="7.5"/>
	<rect x="127.5" y="75.044" fill="#453308" width="7.5" height="7.5"/>
	<rect x="112.5" y="82.544" fill="#634B1C" width="7.5" height="7.5"/>
	<rect x="105" y="90.044" fill="#634B1C" width="7.5" height="7.5"/>
	<rect x="120" y="75.044" fill="#453308" width="7.5" height="7.5"/>
	<rect x="127.5" y="82.544" fill="#634B1C" width="7.5" height="7.5"/>
	<rect x="135" y="82.544" fill="#453308" width="7.5" height="7.5"/>
	<rect x="142.5" y="82.544" fill="#634B1C" width="7.5" height="7.5"/>
	<rect x="150" y="82.544" fill="#453308" width="7.5" height="7.5"/>
	<rect x="157.5" y="90.044" fill="#453308" width="7.5" height="7.5"/>
	<rect x="157.5" y="82.544" fill="#8B5E3C" width="7.5" height="7.5"/>
	<rect x="135" y="75.044" fill="#634B1C" width="7.5" height="7.5"/>
	<rect x="142.5" y="75.044" fill="#453308" width="7.5" height="7.5"/>
	<rect x="150" y="75.044" fill="#8B5E3C" width="7.5" height="7.5"/>
	<rect x="165" y="90.044" fill="#8B5E3C" width="7.5" height="7.5"/>
	<rect x="127.5" y="90.044" fill="#EFC8A6" width="7.5" height="7.5"/>
	<rect x="135" y="90.044" fill="#634B1C" width="7.5" height="7.5"/>
	<rect x="142.5" y="90.044" fill="#453308" width="7.5" height="7.5"/>
	<rect x="150" y="90.044" fill="#634B1C" width="7.5" height="7.5"/>
	<rect x="165" y="97.544" fill="#453308" width="7.5" height="7.5"/>
	<rect x="157.5" y="112.529" fill="#AE9D85" width="7.5" height="7.5"/>
	<rect x="165" y="112.529" fill="#9B8579" width="7.5" height="7.5"/>
	<rect x="157.5" y="120.029" fill="#9B8579" width="7.5" height="7.5"/>
	<rect x="165" y="120.029" fill="#EEBFA2" width="7.5" height="7.5"/>
	<rect x="172.5" y="105.029" fill="#AE9D85" width="7.5" height="7.5"/>
	<rect x="172.5" y="97.544" fill="#8B5E3C" width="7.5" height="7.5"/>
	<rect x="180" y="97.544" fill="#453308" width="7.5" height="7.5"/>
	<rect x="172.5" y="90.044" fill="#453308" width="7.5" height="7.5"/>
	<rect x="165" y="82.544" fill="#453308" width="7.5" height="7.5"/>
	<rect x="172.5" y="112.529" fill="#AE9D85" width="7.5" height="7.5"/>
	<rect x="180" y="105.029" fill="#8B5E3C" width="7.5" height="7.5"/>
	<rect x="180" y="112.529" fill="#C2B59B" width="7.5" height="7.5"/>
	<rect x="172.5" y="142.505" fill="#AE9D85" width="7.5" height="7.5"/>
	<rect x="172.5" y="150.005" fill="#C2B59B" width="7.5" height="7.5"/>
	<rect x="172.5" y="120.029" fill="#EFD1B8" width="7.5" height="7.5"/>
	<rect x="180" y="134.985" fill="#C2B59B" width="7.5" height="7.5"/>
	<rect x="180" y="127.5" fill="#AE9D85" width="7.5" height="7.5"/>
	<rect x="180" y="120.029" fill="#AE9D85" width="7.5" height="7.5"/>
</g>
</svg>
