<?xml version="1.0" encoding="utf-8"?>
<!-- Generator: Adobe Illustrator 16.0.0, SVG Export Plug-In . SVG Version: 6.00 Build 0)  -->
<!DOCTYPE svg PUBLIC "-//W3C//DTD SVG 1.1//EN" "http://www.w3.org/Graphics/SVG/1.1/DTD/svg11.dtd">
<svg version="1.1" id="Layer_1" xmlns="http://www.w3.org/2000/svg" xmlns:xlink="http://www.w3.org/1999/xlink" x="0px" y="0px"
	 width="300px" height="300px" viewBox="0 0 300 300" enable-background="new 0 0 300 300" xml:space="preserve">
<g>
	<rect x="122.996" y="93.031" fill="#CCA87F" width="6" height="6"/>
	<rect x="110.996" y="99.031" fill="#EEE1BF" width="6" height="6"/>
	<rect x="128.996" y="93.031" fill="#4D301F" width="6" height="6"/>
	<rect x="134.996" y="93.031" fill="#876038" width="6" height="6"/>
	<rect x="140.996" y="93.031" fill="#EEE1BF" width="6" height="6"/>
	<rect x="116.996" y="105.023" fill="#6E5D55" width="6" height="6"/>
	<rect x="122.996" y="105.023" fill="#EDD69F" width="6" height="6"/>
	<rect x="128.996" y="105.023" fill="#EDD69F" width="6" height="6"/>
	<rect x="134.996" y="105.023" fill="#6E5D55" width="6" height="6"/>
	<rect x="140.996" y="105.023" fill="#9A734E" width="6" height="6"/>
	<rect x="146.996" y="105.023" fill="#CCA87F" width="6" height="6"/>
	<rect x="116.996" y="111.023" fill="#EDD69F" width="6" height="6"/>
	<rect x="110.996" y="111.023" fill="#876038" width="6" height="6"/>
	<rect x="110.996" y="117.023" fill="#CCA87F" width="6" height="6"/>
	<rect x="110.996" y="123.023" fill="#724B1E" width="6" height="6"/>
	<rect x="104.996" y="111.023" fill="#EEE1BF" width="6" height="6"/>
	<rect x="104.996" y="117.023" fill="#876038" width="6" height="6"/>
	<rect x="110.996" y="105.023" fill="#EEE1BF" width="6" height="6"/>
	<rect x="122.996" y="111.023" fill="#EDD69F" width="6" height="6"/>
	<rect x="128.996" y="111.023" fill="#EDD69F" width="6" height="6"/>
	<rect x="134.996" y="111.023" fill="#9A734E" width="6" height="6"/>
	<rect x="140.996" y="111.023" fill="#EEE1BF" width="6" height="6"/>
	<rect x="146.996" y="111.023" fill="#9A734E" width="6" height="6"/>
	<rect x="116.996" y="117.023" fill="#EDD69F" width="6" height="6"/>
	<rect x="122.996" y="117.023" fill="#EDD69F" width="6" height="6"/>
	<rect x="116.996" y="128.992" fill="#2E2929" width="6" height="6"/>
	<rect x="122.996" y="128.992" fill="#2E2929" width="6" height="6"/>
	<rect x="116.996" y="134.98" fill="#2E2929" width="6" height="6"/>
	<rect x="122.996" y="134.98" fill="#2B87C5" width="6" height="6"/>
	<rect x="116.996" y="140.992" fill="#EDD69F" width="6" height="6"/>
	<rect x="122.996" y="140.992" fill="#2E2929" width="6" height="6"/>
	<rect x="116.996" y="146.98" fill="#EDD69F" width="6" height="6.004"/>
	<rect x="110.996" y="140.98" fill="#EDD69F" width="6" height="6"/>
	<rect x="104.996" y="140.98" fill="#EDD69F" width="6" height="6"/>
	<rect x="110.996" y="134.98" fill="#EDD69F" width="6" height="6"/>
	<rect x="122.996" y="146.98" fill="#EDD69F" width="6" height="6.004"/>
	<rect x="122.996" y="152.969" fill="#FFFFFF" width="6" height="6"/>
	<rect x="134.996" y="146.98" fill="#EDD69F" width="6" height="6.004"/>
	<rect x="128.996" y="146.98" fill="#EDD69F" width="6" height="6.004"/>
	<rect x="140.996" y="146.98" fill="#A7948A" width="6" height="6.004"/>
	<rect x="152.996" y="146.98" fill="#EDD69F" width="6" height="6.004"/>
	<rect x="146.996" y="146.98" fill="#EDD69F" width="6" height="6.004"/>
	<rect x="134.996" y="152.969" fill="#FFFFFF" width="6" height="6"/>
	<rect x="128.996" y="152.969" fill="#FFFFFF" width="6" height="6"/>
	<rect x="140.996" y="152.969" fill="#FFFFFF" width="6" height="6"/>
	<rect x="146.996" y="152.969" fill="#CABFA9" width="6" height="6"/>
	<rect x="134.996" y="158.961" fill="#C62C3D" width="6" height="6"/>
	<rect x="128.996" y="158.961" fill="#C62C3D" width="6" height="6"/>
	<rect x="140.996" y="158.961" fill="#C62C3D" width="6" height="6"/>
	<rect x="146.996" y="158.961" fill="#CABFA9" width="6" height="6"/>
	<rect x="134.996" y="164.961" fill="#EDD69F" width="6" height="6"/>
	<rect x="128.996" y="164.961" fill="#EDD69F" width="6" height="6"/>
	<rect x="122.996" y="164.961" fill="#EDD69F" width="6" height="6"/>
	<rect x="128.996" y="170.961" fill="#EDD69F" width="6" height="6"/>
	<rect x="140.996" y="164.961" fill="#EDD69F" width="6" height="6"/>
	<rect x="134.996" y="170.961" fill="#EDD69F" width="6" height="6"/>
	<rect x="140.996" y="170.961" fill="#CABFA9" width="6" height="6"/>
	<rect x="146.996" y="170.961" fill="#EDD69F" width="6" height="6"/>
	<rect x="146.996" y="164.961" fill="#EDD69F" width="6" height="6"/>
	<rect x="152.996" y="164.961" fill="#EDD69F" width="6" height="6"/>
	<rect x="158.996" y="146.98" fill="#4D301F" width="6" height="6.004"/>
	<rect x="152.996" y="140.992" fill="#CCA87F" width="6" height="6"/>
	<rect x="152.996" y="146.992" fill="#9A734E" width="6" height="6"/>
	<rect x="158.996" y="140.992" fill="#EEE1BF" width="6" height="6"/>
	<rect x="152.996" y="158.961" fill="#EDD69F" width="6" height="6"/>
	<rect x="158.996" y="158.961" fill="#EEE1BF" width="6" height="6"/>
	<rect x="158.996" y="164.953" fill="#9A734E" width="6" height="6"/>
	<rect x="152.996" y="152.969" fill="#EDD69F" width="6" height="6"/>
	<rect x="158.996" y="152.969" fill="#CCA87F" width="6" height="6"/>
	<rect x="152.996" y="134.98" fill="#CCA87F" width="6" height="6"/>
	<rect x="158.996" y="134.98" fill="#9A734E" width="6" height="6"/>
	<rect x="152.996" y="128.992" fill="#724B1E" width="6" height="6"/>
	<rect x="158.996" y="128.992" fill="#724B1E" width="6" height="6"/>
	<rect x="164.996" y="134.98" fill="#9A734E" width="6" height="6"/>
	<rect x="164.996" y="128.992" fill="#EEE1BF" width="6" height="6"/>
	<rect x="128.996" y="117.023" fill="#EDD69F" width="6" height="6"/>
	<rect x="134.996" y="117.023" fill="#EDD69F" width="6" height="6"/>
	<rect x="140.996" y="117.023" fill="#CCA87F" width="6" height="6"/>
	<rect x="134.996" y="123.023" fill="#EDD69F" width="6" height="6"/>
	<rect x="140.996" y="123.023" fill="#EDD69F" width="6" height="6"/>
	<rect x="122.996" y="123.023" fill="#9A734E" width="6" height="6"/>
	<rect x="116.996" y="123.023" fill="#EDD69F" width="6" height="6"/>
	<rect x="128.996" y="123.023" fill="#9A734E" width="6" height="6"/>
	<rect x="146.996" y="117.023" fill="#EEE1BF" width="6" height="6"/>
	<rect x="128.996" y="128.992" fill="#2E2929" width="6" height="6"/>
	<rect x="134.996" y="128.992" fill="#2E2929" width="6" height="6"/>
	<rect x="140.996" y="128.992" fill="#2E2929" width="6" height="6"/>
	<rect x="146.996" y="128.992" fill="#2E2929" width="6" height="6"/>
	<rect x="146.996" y="123.023" fill="#9A734E" width="6" height="6"/>
	<rect x="128.996" y="134.98" fill="#FFFFFF" width="6" height="6"/>
	<rect x="134.996" y="134.98" fill="#2E2929" width="6" height="6"/>
	<rect x="140.996" y="134.98" fill="#EDD69F" width="6" height="6"/>
	<rect x="146.996" y="134.98" fill="#EDD69F" width="6" height="6"/>
	<rect x="128.996" y="140.98" fill="#2E2929" width="6" height="6"/>
	<rect x="134.996" y="140.98" fill="#EDD69F" width="6" height="6"/>
	<rect x="140.996" y="140.98" fill="#EDD69F" width="6" height="6"/>
	<rect x="146.996" y="140.98" fill="#EDD69F" width="6" height="6"/>
	<rect x="152.996" y="105.023" fill="#B48C63" width="6" height="6"/>
	<rect x="158.996" y="105.023" fill="#724B1E" width="6" height="6"/>
	<rect x="116.996" y="99.031" fill="#CCA87F" width="6" height="6"/>
	<rect x="122.996" y="99.031" fill="#6E5D55" width="6" height="6"/>
	<rect x="128.996" y="99.031" fill="#876038" width="6" height="6"/>
	<rect x="134.996" y="99.031" fill="#9A734E" width="6" height="6"/>
	<rect x="140.996" y="99.031" fill="#CCA87F" width="6" height="6"/>
	<rect x="146.996" y="99.031" fill="#4D301F" width="6" height="6"/>
	<rect x="152.996" y="99.031" fill="#CCA87F" width="6" height="6"/>
	<rect x="146.996" y="93.031" fill="#724B1E" width="6" height="6"/>
	<rect x="158.996" y="99.031" fill="#EEE1BF" width="6" height="6"/>
	<rect x="152.996" y="111.023" fill="#724B1E" width="6" height="6"/>
	<rect x="158.996" y="111.023" fill="#B48C63" width="6" height="6"/>
	<rect x="152.996" y="117.023" fill="#9A734E" width="6" height="6"/>
	<rect x="158.996" y="117.023" fill="#CCA87F" width="6" height="6"/>
	<rect x="164.996" y="105.023" fill="#724B1E" width="6" height="6"/>
	<rect x="164.996" y="99.031" fill="#CCA87F" width="6" height="6"/>
	<rect x="164.996" y="111.023" fill="#4D301F" width="6" height="6"/>
	<rect x="164.996" y="117.023" fill="#B48C63" width="6" height="6"/>
	<rect x="170.996" y="105.023" fill="#EEE1BF" width="6" height="6"/>
	<rect x="170.996" y="111.023" fill="#4D301F" width="6" height="6"/>
	<rect x="170.996" y="117.023" fill="#724B1E" width="6" height="6"/>
	<rect x="152.996" y="123.023" fill="#EEE1BF" width="6" height="6"/>
	<rect x="158.996" y="123.023" fill="#9A734E" width="6" height="6"/>
	<rect x="164.996" y="123.023" fill="#724B1E" width="6" height="6"/>
	<rect x="170.996" y="123.023" fill="#B48C63" width="6" height="6"/>
	<rect x="170.996" y="128.992" fill="#724B1E" width="6" height="6"/>
	<rect x="183.004" y="128.992" fill="#724B1E" width="6" height="6"/>
	<rect x="170.996" y="134.992" fill="#4D301F" width="6" height="6"/>
	<rect x="183.004" y="134.992" fill="#4D301F" width="6" height="6"/>
	<rect x="170.996" y="140.992" fill="#CCA87F" width="6" height="6"/>
	<rect x="164.996" y="140.992" fill="#724B1E" width="6" height="6"/>
	<rect x="164.996" y="146.992" fill="#EEE1BF" width="6" height="6"/>
	<rect x="164.996" y="152.992" fill="#724B1E" width="6" height="6"/>
	<rect x="170.996" y="146.992" fill="#4D301F" width="6" height="6"/>
	<rect x="176.996" y="152.992" fill="#4D301F" width="6" height="6"/>
	<rect x="176.996" y="158.969" fill="#EEE1BF" width="6" height="6"/>
	<rect x="183.004" y="158.969" fill="#EEE1BF" width="6" height="6"/>
	<rect x="176.996" y="141.004" fill="#CCA87F" width="6" height="6"/>
	<rect x="176.996" y="134.98" fill="#CCA87F" width="6" height="6"/>
	<rect x="183.004" y="123.023" fill="#CCA87F" width="6" height="6"/>
	<rect x="176.996" y="146.977" fill="#CCA87F" width="6" height="6"/>
	<rect x="183.004" y="164.961" fill="#CCA87F" width="6" height="6"/>
	<rect x="189.004" y="164.961" fill="#CCA87F" width="6" height="6"/>
	<rect x="176.996" y="117.023" fill="#CCA87F" width="6" height="6"/>
	<rect x="176.996" y="123.023" fill="#EEE1BF" width="6" height="6"/>
	<rect x="176.996" y="129.016" fill="#EEE1BF" width="6" height="6"/>
	<rect x="170.996" y="152.992" fill="#EEE1BF" width="6" height="6"/>
	<rect x="164.996" y="158.961" fill="#724B1E" width="6" height="6"/>
	<rect x="164.996" y="164.953" fill="#EEE1BF" width="6" height="6"/>
	<rect x="164.996" y="170.969" fill="#2E2929" width="6" height="6"/>
	<rect x="170.996" y="164.961" fill="#724B1E" width="6" height="6"/>
	<rect x="177.004" y="170.969" fill="#724B1E" width="6" height="6"/>
	<rect x="183.004" y="170.969" fill="#724B1E" width="6" height="6"/>
	<rect x="177.004" y="164.961" fill="#724B1E" width="6" height="6"/>
	<rect x="117" y="170.969" fill="#2E2929" width="6" height="6"/>
	<rect x="117" y="176.969" fill="#808083" width="6" height="6"/>
	<rect x="110.996" y="170.969" fill="#2E2929" width="6" height="6"/>
	<rect x="123" y="170.969" fill="#2E2929" width="6" height="6"/>
	<rect x="170.996" y="170.953" fill="#EEE1BF" width="6" height="6"/>
	<rect x="170.996" y="158.961" fill="#724B1E" width="6" height="6"/>
	<rect x="134.996" y="176.969" fill="#CABFA9" width="6" height="6"/>
	<rect x="140.996" y="176.969" fill="#EDD69F" width="6" height="6"/>
	<rect x="158.996" y="170.969" fill="#2E2929" width="6" height="6"/>
	<rect x="152.996" y="176.969" fill="#2E2929" width="6" height="6"/>
	<rect x="152.996" y="170.969" fill="#EDD69F" width="6" height="6"/>
	<rect x="146.996" y="176.969" fill="#EDD69F" width="6" height="6"/>
	<rect x="128.996" y="176.969" fill="#2E2929" width="6" height="6"/>
	<rect x="122.996" y="176.969" fill="#808083" width="6" height="6"/>
	<rect x="158.996" y="176.969" fill="#2E2929" width="6" height="6"/>
	<rect x="164.996" y="176.969" fill="#919194" width="6" height="6"/>
	<rect x="170.996" y="176.969" fill="#6D6D6F" width="6" height="6"/>
	<rect x="134.996" y="188.969" fill="#545356" width="6" height="6"/>
	<rect x="140.996" y="188.969" fill="#2E2929" width="6" height="6"/>
	<rect x="152.996" y="188.969" fill="#A1A3A6" width="6" height="6"/>
	<rect x="146.996" y="188.969" fill="#545356" width="6" height="6"/>
	<rect x="128.996" y="188.969" fill="#A1A3A6" width="6" height="6"/>
	<rect x="128.996" y="194.969" fill="#919194" width="6" height="6"/>
	<rect x="122.996" y="188.969" fill="#A1A3A6" width="6" height="6"/>
	<rect x="116.996" y="188.969" fill="#6D6D6F" width="6" height="6"/>
	<rect x="158.996" y="188.969" fill="#A1A3A6" width="6" height="6"/>
	<rect x="164.996" y="188.969" fill="#6D6D6F" width="6" height="6"/>
	<rect x="170.996" y="188.969" fill="#A1A3A6" width="6" height="6"/>
	<rect x="176.996" y="188.969" fill="#A1A3A6" width="6" height="6"/>
	<rect x="134.996" y="200.969" fill="#A1A3A6" width="6" height="6"/>
	<rect x="140.996" y="200.969" fill="#2E2929" width="6" height="6"/>
	<rect x="152.996" y="200.969" fill="#A1A3A6" width="6" height="6"/>
	<rect x="146.996" y="200.969" fill="#6D6D6F" width="6" height="6"/>
	<rect x="128.996" y="200.969" fill="#A1A3A6" width="6" height="6"/>
	<rect x="122.996" y="200.969" fill="#2F292B" width="6" height="6"/>
	<rect x="116.996" y="200.969" fill="#B5B5B8" width="6" height="6"/>
	<rect x="158.996" y="200.969" fill="#2E2929" width="6" height="6"/>
	<rect x="164.996" y="200.969" fill="#6D6D6F" width="6" height="6"/>
	<rect x="170.996" y="200.969" fill="#A1A3A6" width="6" height="6"/>
	<rect x="176.996" y="200.969" fill="#6D6D6F" width="6" height="6"/>
	<rect x="134.996" y="182.969" fill="#FFFFFF" width="6" height="6"/>
	<rect x="140.996" y="182.969" fill="#FFFFFF" width="6" height="6"/>
	<rect x="152.996" y="182.969" fill="#545356" width="6" height="6"/>
	<rect x="146.996" y="182.969" fill="#FFFFFF" width="6" height="6"/>
	<rect x="128.996" y="182.969" fill="#545356" width="6" height="6"/>
	<rect x="122.996" y="182.969" fill="#6D6D6F" width="6" height="6"/>
	<rect x="116.996" y="182.969" fill="#919194" width="6" height="6"/>
	<rect x="158.996" y="182.969" fill="#6D6D6F" width="6" height="6"/>
	<rect x="164.996" y="182.969" fill="#919194" width="6" height="6"/>
	<rect x="170.996" y="182.969" fill="#919194" width="6" height="6"/>
	<rect x="176.996" y="182.969" fill="#6D6D6F" width="6" height="6"/>
	<rect x="134.996" y="194.969" fill="#919194" width="6" height="6"/>
	<rect x="140.996" y="194.969" fill="#2E2929" width="6" height="6"/>
	<rect x="152.996" y="194.969" fill="#6D6D6F" width="6" height="6"/>
	<rect x="146.996" y="194.969" fill="#919194" width="6" height="6"/>
	<rect x="128.996" y="194.969" fill="#6D6D6F" width="6" height="6"/>
	<rect x="122.996" y="194.969" fill="#2F292B" width="6" height="6"/>
	<rect x="116.996" y="194.969" fill="#6D6D6F" width="6" height="6"/>
	<rect x="110.996" y="188.969" fill="#A1A3A6" width="6" height="6"/>
	<rect x="110.996" y="200.969" fill="#6D6D6F" width="6" height="6"/>
	<rect x="110.996" y="194.969" fill="#B5B5B8" width="6" height="6"/>
	<rect x="158.996" y="194.969" fill="#2E2929" width="6" height="6"/>
	<rect x="164.996" y="194.969" fill="#A1A3A6" width="6" height="6"/>
	<rect x="170.996" y="194.969" fill="#6D6D6F" width="6" height="6"/>
	<rect x="176.996" y="194.969" fill="#A1A3A6" width="6" height="6"/>
</g>
</svg>
