<?xml version="1.0" encoding="utf-8"?>
<!-- Generator: Adobe Illustrator 16.0.0, SVG Export Plug-In . SVG Version: 6.00 Build 0)  -->
<!DOCTYPE svg PUBLIC "-//W3C//DTD SVG 1.1//EN" "http://www.w3.org/Graphics/SVG/1.1/DTD/svg11.dtd">
<svg version="1.1" id="Layer_1" xmlns="http://www.w3.org/2000/svg" xmlns:xlink="http://www.w3.org/1999/xlink" x="0px" y="0px"
	 width="300px" height="300px" viewBox="0 0 300 300" enable-background="new 0 0 300 300" xml:space="preserve">
<g>
	<rect x="108.75" y="101.279" fill="#F6EC45" width="7.5" height="7.5"/>
	<rect x="108.75" y="108.779" fill="#F8CF0A" width="7.5" height="7.5"/>
	<rect x="108.75" y="116.279" fill="#F8CF0A" width="7.5" height="7.5"/>
	<rect x="116.25" y="93.779" fill="#F8CF0A" width="7.5" height="7.5"/>
	<rect x="123.75" y="93.779" fill="#F6EC45" width="7.5" height="7.5"/>
	<rect x="131.25" y="93.779" fill="#F8CF0A" width="7.5" height="7.5"/>
	<rect x="138.75" y="93.779" fill="#DBAC27" width="7.5" height="7.5"/>
	<rect x="146.25" y="93.779" fill="#F6EC45" width="7.5" height="7.5"/>
	<rect x="116.25" y="101.279" fill="#DBAC27" width="7.5" height="7.5"/>
	<rect x="123.75" y="101.279" fill="#F8CF0A" width="7.5" height="7.5"/>
	<rect x="131.25" y="101.279" fill="#F8CF0A" width="7.5" height="7.5"/>
	<rect x="138.75" y="101.279" fill="#DBAC27" width="7.5" height="7.5"/>
	<rect x="146.25" y="101.279" fill="#F8CF0A" width="7.5" height="7.5"/>
	<rect x="116.25" y="108.779" fill="#DBAC27" width="7.5" height="7.5"/>
	<rect x="116.25" y="116.25" fill="#EEE1BF" width="7.5" height="7.5"/>
	<rect x="116.25" y="123.735" fill="#EEE1BF" width="7.5" height="7.5"/>
	<rect x="108.75" y="132.144" fill="#EDD69F" width="7.5" height="7.5"/>
	<rect x="116.25" y="131.25" fill="#EEE1BF" width="7.5" height="7.5"/>
	<rect x="116.25" y="138.735" fill="#EEE1BF" width="7.5" height="7.5"/>
	<rect x="131.25" y="138.735" fill="#EEE1BF" width="7.5" height="7.5"/>
	<rect x="123.75" y="138.735" fill="#EEE1BF" width="7.5" height="7.5"/>
	<rect x="138.75" y="138.735" fill="#EEE1BF" width="7.5" height="7.5"/>
	<rect x="153.75" y="138.735" fill="#EEE1BF" width="7.5" height="7.5"/>
	<rect x="146.25" y="138.735" fill="#EEE1BF" width="7.5" height="7.5"/>
	<rect x="131.25" y="146.221" fill="#FFFFFF" width="7.5" height="7.5"/>
	<rect x="123.75" y="146.221" fill="#FFFFFF" width="7.5" height="7.5"/>
	<rect x="138.75" y="146.221" fill="#FFFFFF" width="7.5" height="7.5"/>
	<rect x="146.25" y="146.221" fill="#C8314A" width="7.5" height="7.5"/>
	<rect x="131.25" y="153.706" fill="#C8314A" width="7.5" height="7.5"/>
	<rect x="123.75" y="153.706" fill="#C8314A" width="7.5" height="7.5"/>
	<rect x="138.75" y="153.706" fill="#C8314A" width="7.5" height="7.5"/>
	<rect x="146.25" y="153.706" fill="#EEE1BF" width="7.5" height="7.5"/>
	<rect x="131.25" y="161.206" fill="#EEE1BF" width="7.5" height="7.5"/>
	<rect x="123.75" y="161.206" fill="#EEE1BF" width="7.5" height="7.5"/>
	<rect x="138.75" y="161.206" fill="#EEE1BF" width="7.5" height="7.5"/>
	<rect x="131.25" y="168.706" fill="#CBC0A9" width="7.5" height="7.5"/>
	<rect x="138.75" y="168.706" fill="#CBC0A9" width="7.5" height="7.5"/>
	<rect x="131.25" y="176.206" fill="#EEE1BF" width="7.5" height="7.5"/>
	<rect x="138.75" y="176.206" fill="#EEE1BF" width="7.5" height="7.5"/>
	<rect x="146.25" y="168.706" fill="#CBC0A9" width="7.5" height="7.5"/>
	<rect x="146.25" y="161.206" fill="#EEE1BF" width="7.5" height="7.5"/>
	<rect x="153.75" y="161.206" fill="#EEE1BF" width="7.5" height="7.5"/>
	<rect x="146.25" y="176.206" fill="#EEE1BF" width="7.5" height="7.5"/>
	<rect x="131.25" y="183.706" fill="#EEE1BF" width="7.5" height="7.5"/>
	<rect x="138.75" y="183.706" fill="#EEE1BF" width="7.5" height="7.5"/>
	<rect x="153.75" y="183.706" fill="#EEE1BF" width="7.5" height="7.5"/>
	<rect x="146.25" y="183.706" fill="#EEE1BF" width="7.5" height="7.5"/>
	<rect x="123.75" y="183.706" fill="#EEE1BF" width="7.5" height="7.5"/>
	<rect x="116.25" y="183.706" fill="#FFFFFF" width="7.5" height="7.5"/>
	<rect x="161.25" y="183.706" fill="#D9787C" width="7.5" height="7.5"/>
	<rect x="168.75" y="183.706" fill="#FFFFFF" width="7.5" height="7.5"/>
	<rect x="176.25" y="183.706" fill="#EEE1BF" width="7.5" height="7.5"/>
	<rect x="131.25" y="191.206" fill="#EEE1BF" width="7.5" height="7.5"/>
	<rect x="138.75" y="191.206" fill="#EDD69F" width="7.5" height="7.5"/>
	<rect x="153.75" y="191.206" fill="#EEE1BF" width="7.5" height="7.5"/>
	<rect x="146.25" y="191.206" fill="#EEE1BF" width="7.5" height="7.5"/>
	<rect x="123.75" y="191.206" fill="#EEE1BF" width="7.5" height="7.5"/>
	<rect x="116.25" y="191.206" fill="#D9787C" width="7.5" height="7.5"/>
	<rect x="108.75" y="191.206" fill="#EEE1BF" width="7.5" height="7.5"/>
	<rect x="161.25" y="191.206" fill="#1B455E" width="7.5" height="7.5"/>
	<rect x="168.75" y="191.206" fill="#D9787C" width="7.5" height="7.5"/>
	<rect x="176.25" y="191.206" fill="#EEE1BF" width="7.5" height="7.5"/>
	<rect x="183.75" y="191.206" fill="#EEE1BF" width="7.5" height="7.5"/>
	<rect x="131.25" y="198.706" fill="#D9787C" width="7.5" height="7.5"/>
	<rect x="138.75" y="198.706" fill="#D9787C" width="7.5" height="7.5"/>
	<rect x="153.75" y="198.706" fill="#1B455E" width="7.5" height="7.5"/>
	<rect x="146.25" y="198.706" fill="#D9787C" width="7.5" height="7.5"/>
	<rect x="123.75" y="198.706" fill="#D9787C" width="7.5" height="7.5"/>
	<rect x="116.25" y="198.706" fill="#FFFFFF" width="7.5" height="7.5"/>
	<rect x="108.75" y="198.706" fill="#EDD69F" width="7.5" height="7.5"/>
	<rect x="161.25" y="198.706" fill="#39B8E4" width="7.5" height="7.5"/>
	<rect x="168.75" y="198.706" fill="#ABDDDC" width="7.5" height="7.5"/>
	<rect x="176.25" y="198.706" fill="#EEE1BF" width="7.5" height="7.5"/>
	<rect x="183.75" y="198.706" fill="#EDD69F" width="7.5" height="7.5"/>
	<rect x="131.25" y="206.206" fill="#FFFFFF" width="7.5" height="7.5"/>
	<rect x="138.75" y="206.206" fill="#D9787C" width="7.5" height="7.5"/>
	<rect x="153.75" y="206.206" fill="#D9787C" width="7.5" height="7.5"/>
	<rect x="146.25" y="206.206" fill="#FFFFFF" width="7.5" height="7.5"/>
	<rect x="123.75" y="206.206" fill="#D9787C" width="7.5" height="7.5"/>
	<rect x="116.25" y="206.206" fill="#D9787C" width="7.5" height="7.5"/>
	<rect x="108.75" y="206.206" fill="#EDD69F" width="7.5" height="7.5"/>
	<rect x="161.25" y="206.206" fill="#ABDDDC" width="7.5" height="7.5"/>
	<rect x="168.75" y="206.206" fill="#D9787C" width="7.5" height="7.5"/>
	<rect x="176.25" y="206.206" fill="#EEE1BF" width="7.5" height="7.5"/>
	<rect x="183.75" y="206.206" fill="#EDD69F" width="7.5" height="7.5"/>
	<rect x="161.25" y="138.735" fill="#784298" width="7.5" height="7.5"/>
	<rect x="153.75" y="131.25" fill="#EEE1BF" width="7.5" height="7.5"/>
	<rect x="161.25" y="131.25" fill="#EEE1BF" width="7.5" height="7.5"/>
	<rect x="153.75" y="153.706" fill="#EEE1BF" width="7.5" height="7.5"/>
	<rect x="161.25" y="153.706" fill="#DBAC27" width="7.5" height="7.5"/>
	<rect x="153.75" y="146.221" fill="#EEE1BF" width="7.5" height="7.5"/>
	<rect x="161.25" y="146.221" fill="#DBAC27" width="7.5" height="7.5"/>
	<rect x="153.75" y="123.735" fill="#EDD69F" width="7.5" height="7.5"/>
	<rect x="161.25" y="123.735" fill="#EEE1BF" width="7.5" height="7.5"/>
	<rect x="153.75" y="116.25" fill="#EDD69F" width="7.5" height="7.5"/>
	<rect x="161.25" y="116.25" fill="#F8CF0A" width="7.5" height="7.5"/>
	<rect x="168.75" y="123.735" fill="#DBAC27" width="7.5" height="7.5"/>
	<rect x="168.75" y="116.25" fill="#F8CF0A" width="7.5" height="7.5"/>
	<rect x="123.75" y="108.779" fill="#F8CF0A" width="7.5" height="7.5"/>
	<rect x="131.25" y="108.779" fill="#EEE1BF" width="7.5" height="7.5"/>
	<rect x="138.75" y="108.779" fill="#DBAC27" width="7.5" height="7.5"/>
	<rect x="146.25" y="108.779" fill="#F8CF0A" width="7.5" height="7.5"/>
	<rect x="123.75" y="116.25" fill="#EEE1BF" width="7.5" height="7.5"/>
	<rect x="131.25" y="116.25" fill="#EEE1BF" width="7.5" height="7.5"/>
	<rect x="138.75" y="116.25" fill="#EEE1BF" width="7.5" height="7.5"/>
	<rect x="146.25" y="116.25" fill="#EEE1BF" width="7.5" height="7.5"/>
	<rect x="123.75" y="123.735" fill="#EEE1BF" width="7.5" height="7.5"/>
	<rect x="131.25" y="123.735" fill="#39B8E4" width="7.5" height="7.5"/>
	<rect x="138.75" y="123.735" fill="#FFFFFF" width="7.5" height="7.5"/>
	<rect x="146.25" y="123.735" fill="#EEE1BF" width="7.5" height="7.5"/>
	<rect x="123.75" y="131.235" fill="#EEE1BF" width="7.5" height="7.5"/>
	<rect x="131.25" y="131.235" fill="#EEE1BF" width="7.5" height="7.5"/>
	<rect x="138.75" y="131.235" fill="#EEE1BF" width="7.5" height="7.5"/>
	<rect x="146.25" y="131.235" fill="#EEE1BF" width="7.5" height="7.5"/>
	<rect x="153.75" y="93.779" fill="#DBAC27" width="7.5" height="7.5"/>
	<rect x="161.25" y="93.779" fill="#F8CF0A" width="7.5" height="7.5"/>
	<rect x="123.75" y="86.294" fill="#F8CF0A" width="7.5" height="7.5"/>
	<rect x="131.25" y="86.294" fill="#F8CF0A" width="7.5" height="7.5"/>
	<rect x="138.75" y="86.294" fill="#F8CF0A" width="7.5" height="7.5"/>
	<rect x="146.25" y="86.294" fill="#F8CF0A" width="7.5" height="7.5"/>
	<rect x="153.75" y="86.294" fill="#F8CF0A" width="7.5" height="7.5"/>
	<rect x="153.75" y="101.279" fill="#F8CF0A" width="7.5" height="7.5"/>
	<rect x="153.75" y="116.25" fill="#F8CF0A" width="7.5" height="7.5"/>
	<rect x="153.75" y="123.735" fill="#F8CF0A" width="7.5" height="7.5"/>
	<rect x="161.25" y="101.279" fill="#DBAC27" width="7.5" height="7.5"/>
	<rect x="168.75" y="101.279" fill="#F8CF0A" width="7.5" height="7.5"/>
	<rect x="168.75" y="108.779" fill="#F8CF0A" width="7.5" height="7.5"/>
	<rect x="176.25" y="116.279" fill="#F8CF0A" width="7.5" height="7.5"/>
	<rect x="176.25" y="123.735" fill="#F8CF0A" width="7.5" height="7.5"/>
	<rect x="176.25" y="138.75" fill="#F8CF0A" width="7.5" height="7.5"/>
	<rect x="176.25" y="131.25" fill="#F8CF0A" width="7.5" height="7.5"/>
	<rect x="176.25" y="146.25" fill="#F8CF0A" width="7.5" height="7.5"/>
	<rect x="168.75" y="138.75" fill="#DBAC27" width="7.5" height="7.5"/>
	<rect x="168.75" y="131.25" fill="#DBAC27" width="7.5" height="7.5"/>
	<rect x="168.75" y="146.25" fill="#DBAC27" width="7.5" height="7.5"/>
	<rect x="176.25" y="153.706" fill="#F8CF0A" width="7.5" height="7.5"/>
	<rect x="183.75" y="123.735" fill="#F8CF0A" width="7.5" height="7.5"/>
	<rect x="183.75" y="138.75" fill="#F8CF0A" width="7.5" height="7.5"/>
	<rect x="183.75" y="131.25" fill="#F8CF0A" width="7.5" height="7.5"/>
	<rect x="183.75" y="146.25" fill="#F8CF0A" width="7.5" height="7.5"/>
	<rect x="183.75" y="153.706" fill="#F8CF0A" width="7.5" height="7.5"/>
	<rect x="168.75" y="153.706" fill="#DBAC27" width="7.5" height="7.5"/>
	<rect x="176.25" y="161.206" fill="#F8CF0A" width="7.5" height="7.5"/>
	<rect x="116.25" y="161.206" fill="#DBAC27" width="7.5" height="7.5"/>
	<rect x="123.75" y="168.706" fill="#DBAC27" width="7.5" height="7.5"/>
	<rect x="116.25" y="168.706" fill="#DBAC27" width="7.5" height="7.5"/>
	<rect x="116.25" y="153.75" fill="#DBAC27" width="7.5" height="7.5"/>
	<rect x="108.75" y="161.206" fill="#F8CF0A" width="7.5" height="7.5"/>
	<rect x="108.75" y="168.706" fill="#FBED21" width="7.5" height="7.5"/>
	<rect x="168.75" y="161.206" fill="#FBED21" width="7.5" height="7.5"/>
	<rect x="176.25" y="168.706" fill="#F8CF0A" width="7.5" height="7.5"/>
	<rect x="168.75" y="168.706" fill="#F8CF0A" width="7.5" height="7.5"/>
	<rect x="168.75" y="176.206" fill="#F8CF0A" width="7.5" height="7.5"/>
	<rect x="161.25" y="176.206" fill="#F8CF0A" width="7.5" height="7.5"/>
	<rect x="161.25" y="161.206" fill="#DBAC27" width="7.5" height="7.5"/>
	<rect x="161.25" y="168.706" fill="#F8CF0A" width="7.5" height="7.5"/>
	<rect x="153.75" y="168.706" fill="#F8CF0A" width="7.5" height="7.5"/>
	<rect x="153.75" y="108.779" fill="#F8CF0A" width="7.5" height="7.5"/>
	<rect x="161.25" y="108.779" fill="#DBAC27" width="7.5" height="7.5"/>
</g>
</svg>
