<?xml version="1.0" encoding="utf-8"?>
<!-- Generator: Adobe Illustrator 16.0.0, SVG Export Plug-In . SVG Version: 6.00 Build 0)  -->
<!DOCTYPE svg PUBLIC "-//W3C//DTD SVG 1.1//EN" "http://www.w3.org/Graphics/SVG/1.1/DTD/svg11.dtd">
<svg version="1.1" id="Layer_1" xmlns="http://www.w3.org/2000/svg" xmlns:xlink="http://www.w3.org/1999/xlink" x="0px" y="0px"
	 width="300px" height="300px" viewBox="0 0 300 300" enable-background="new 0 0 300 300" xml:space="preserve">
<g>
	<rect x="112.5" y="90.044" fill="#6D6F72" width="7.5" height="7.5"/>
	<rect x="120" y="90.044" fill="#231F20" width="7.5" height="7.5"/>
	<rect x="127.5" y="90.044" fill="#414042" width="7.5" height="7.5"/>
	<rect x="135" y="90.044" fill="#231F20" width="7.5" height="7.5"/>
	<rect x="142.5" y="90.044" fill="#EFD1B8" width="7.5" height="7.5"/>
	<rect x="150" y="90.044" fill="#231F20" width="7.5" height="7.5"/>
	<rect x="120" y="82.544" fill="#808285" width="7.5" height="7.5"/>
	<rect x="127.5" y="82.544" fill="#231F20" width="7.5" height="7.5"/>
	<rect x="135" y="82.544" fill="#231F20" width="7.5" height="7.5"/>
	<rect x="142.5" y="82.544" fill="#231F20" width="7.5" height="7.5"/>
	<rect x="150" y="82.544" fill="#231F20" width="7.5" height="7.5"/>
	<rect x="112.5" y="105.029" fill="#E3C9B6" width="7.5" height="7.5"/>
	<rect x="120" y="105.029" fill="#E3C9B6" width="7.5" height="7.5"/>
	<rect x="127.5" y="105.029" fill="#EFD1B8" width="7.5" height="7.5"/>
	<rect x="135" y="105.029" fill="#D7BFAA" width="7.5" height="7.5"/>
	<rect x="142.5" y="105.029" fill="#F3D9D0" width="7.5" height="7.5"/>
	<rect x="150" y="105.029" fill="#9B8579" width="7.5" height="7.5"/>
	<rect x="112.5" y="112.529" fill="#EFD1B8" width="7.5" height="7.5"/>
	<rect x="120" y="112.529" fill="#EFD1B8" width="7.5" height="7.5"/>
	<rect x="127.5" y="112.529" fill="#EFD1B8" width="7.5" height="7.5"/>
	<rect x="135" y="112.529" fill="#EFD1B8" width="7.5" height="7.5"/>
	<rect x="142.5" y="112.529" fill="#D7BFAA" width="7.5" height="7.5"/>
	<rect x="150" y="112.529" fill="#9B8579" width="7.5" height="7.5"/>
	<rect x="112.5" y="120.029" fill="#231F20" width="7.5" height="7.5"/>
	<rect x="120" y="120.029" fill="#231F20" width="7.5" height="7.5"/>
	<rect x="112.5" y="127.5" fill="#231F20" width="7.5" height="7.5"/>
	<rect x="120" y="127.5" fill="#98937E" width="7.5" height="7.5"/>
	<rect x="112.5" y="134.985" fill="#231F20" width="7.5" height="7.5"/>
	<rect x="120" y="134.985" fill="#231F20" width="7.5" height="7.5"/>
	<rect x="112.5" y="142.5" fill="#EFD1B8" width="7.5" height="7.5"/>
	<rect x="120" y="142.5" fill="#EFD1B8" width="7.5" height="7.5"/>
	<rect x="112.5" y="149.985" fill="#D7BFAA" width="7.5" height="7.5"/>
	<rect x="105" y="142.5" fill="#EFD1B8" width="7.5" height="7.5"/>
	<rect x="105" y="134.985" fill="#F3D9D0" width="7.5" height="7.5"/>
	<rect x="120" y="149.985" fill="#D7BFAA" width="7.5" height="7.5"/>
	<rect x="135" y="149.985" fill="#D7BFAA" width="7.5" height="7.5"/>
	<rect x="127.5" y="149.985" fill="#D7BFAA" width="7.5" height="7.5"/>
	<rect x="142.5" y="149.985" fill="#D7BFAA" width="7.5" height="7.5"/>
	<rect x="157.5" y="149.985" fill="#EFD1B8" width="7.5" height="7.5"/>
	<rect x="150" y="149.985" fill="#D7BFAA" width="7.5" height="7.5"/>
	<rect x="135" y="157.471" fill="#FFFFFF" width="7.5" height="7.5"/>
	<rect x="127.5" y="157.471" fill="#FFFFFF" width="7.5" height="7.5"/>
	<rect x="142.5" y="157.471" fill="#BB807B" width="7.5" height="7.5"/>
	<rect x="150" y="157.471" fill="#D7BFAA" width="7.5" height="7.5"/>
	<rect x="135" y="164.956" fill="#D28F8C" width="7.5" height="7.5"/>
	<rect x="127.5" y="164.956" fill="#D28F8C" width="7.5" height="7.5"/>
	<rect x="142.5" y="164.956" fill="#D7BFAA" width="7.5" height="7.5"/>
	<rect x="150" y="164.956" fill="#EFD1B8" width="7.5" height="7.5"/>
	<rect x="135" y="172.456" fill="#D7BFAA" width="7.5" height="7.5"/>
	<rect x="127.5" y="172.456" fill="#D7BFAA" width="7.5" height="7.5"/>
	<rect x="142.5" y="172.456" fill="#D7BFAA" width="7.5" height="7.5"/>
	<rect x="135" y="179.956" fill="#EFD1B8" width="7.5" height="7.5"/>
	<rect x="142.5" y="179.956" fill="#EFD1B8" width="7.5" height="7.5"/>
	<rect x="150" y="172.456" fill="#EFD1B8" width="7.5" height="7.5"/>
	<rect x="157.5" y="172.456" fill="#E3C9B6" width="7.5" height="7.5"/>
	<rect x="157.5" y="179.956" fill="#EFD1B8" width="7.5" height="7.5"/>
	<rect x="150" y="179.956" fill="#EFD1B8" width="7.5" height="7.5"/>
	<rect x="127.5" y="179.956" fill="#323133" width="7.5" height="7.5"/>
	<rect x="165" y="179.956" fill="#323133" width="7.5" height="7.5"/>
	<rect x="172.5" y="179.956" fill="#231F20" width="7.5" height="7.5"/>
	<rect x="135" y="187.456" fill="#FFFFFF" width="7.5" height="7.5"/>
	<rect x="142.5" y="187.456" fill="#EFD1B8" width="7.5" height="7.5"/>
	<rect x="157.5" y="187.456" fill="#FFFFFF" width="7.5" height="7.5"/>
	<rect x="150" y="187.456" fill="#EFD1B8" width="7.5" height="7.5"/>
	<rect x="127.5" y="187.456" fill="#323133" width="7.5" height="7.5"/>
	<rect x="120" y="187.456" fill="#231F20" width="7.5" height="7.5"/>
	<rect x="165" y="187.456" fill="#323133" width="7.5" height="7.5"/>
	<rect x="172.5" y="187.456" fill="#231F20" width="7.5" height="7.5"/>
	<rect x="180" y="187.456" fill="#323133" width="7.5" height="7.5"/>
	<rect x="135" y="194.956" fill="#323133" width="7.5" height="7.5"/>
	<rect x="142.5" y="194.956" fill="#FFFFFF" width="7.5" height="7.5"/>
	<rect x="157.5" y="194.956" fill="#323133" width="7.5" height="7.5"/>
	<rect x="150" y="194.956" fill="#FFFFFF" width="7.5" height="7.5"/>
	<rect x="127.5" y="194.956" fill="#231F20" width="7.5" height="7.5"/>
	<rect x="120" y="194.956" fill="#323133" width="7.5" height="7.5"/>
	<rect x="112.5" y="194.956" fill="#323133" width="7.5" height="7.5"/>
	<rect x="165" y="194.956" fill="#323133" width="7.5" height="7.5"/>
	<rect x="172.5" y="194.956" fill="#231F20" width="7.5" height="7.5"/>
	<rect x="180" y="194.956" fill="#323133" width="7.5" height="7.5"/>
	<rect x="187.5" y="194.956" fill="#323133" width="7.5" height="7.5"/>
	<rect x="135" y="202.456" fill="#323133" width="7.5" height="7.5"/>
	<rect x="142.5" y="202.456" fill="#FFFFFF" width="7.5" height="7.5"/>
	<rect x="157.5" y="202.456" fill="#323133" width="7.5" height="7.5"/>
	<rect x="150" y="202.456" fill="#323133" width="7.5" height="7.5"/>
	<rect x="127.5" y="202.456" fill="#231F20" width="7.5" height="7.5"/>
	<rect x="120" y="202.456" fill="#323133" width="7.5" height="7.5"/>
	<rect x="112.5" y="202.456" fill="#323133" width="7.5" height="7.5"/>
	<rect x="165" y="202.456" fill="#231F20" width="7.5" height="7.5"/>
	<rect x="172.5" y="202.456" fill="#323133" width="7.5" height="7.5"/>
	<rect x="180" y="202.456" fill="#323133" width="7.5" height="7.5"/>
	<rect x="187.5" y="202.456" fill="#323133" width="7.5" height="7.5"/>
	<rect x="135" y="209.956" fill="#231F20" width="7.5" height="7.5"/>
	<rect x="142.5" y="209.956" fill="#323133" width="7.5" height="7.5"/>
	<rect x="157.5" y="209.956" fill="#231F20" width="7.5" height="7.5"/>
	<rect x="150" y="209.956" fill="#323133" width="7.5" height="7.5"/>
	<rect x="127.5" y="209.956" fill="#323133" width="7.5" height="7.5"/>
	<rect x="120" y="209.956" fill="#323133" width="7.5" height="7.5"/>
	<rect x="112.5" y="209.956" fill="#323133" width="7.5" height="7.5"/>
	<rect x="165" y="209.956" fill="#323133" width="7.5" height="7.5"/>
	<rect x="172.5" y="209.956" fill="#323133" width="7.5" height="7.5"/>
	<rect x="180" y="209.956" fill="#323133" width="7.5" height="7.5"/>
	<rect x="187.5" y="209.956" fill="#323133" width="7.5" height="7.5"/>
	<rect x="165" y="149.985" fill="#EFD1B8" width="7.5" height="7.5"/>
	<rect x="157.5" y="142.5" fill="#EFD1B8" width="7.5" height="7.5"/>
	<rect x="165" y="142.5" fill="#9B8579" width="7.5" height="7.5"/>
	<rect x="157.5" y="164.956" fill="#EFD1B8" width="7.5" height="7.5"/>
	<rect x="165" y="164.956" fill="#EFD1B8" width="7.5" height="7.5"/>
	<rect x="165" y="172.456" fill="#EFD1B8" width="7.5" height="7.5"/>
	<rect x="157.5" y="157.471" fill="#EFD1B8" width="7.5" height="7.5"/>
	<rect x="165" y="157.471" fill="#EFD1B8" width="7.5" height="7.5"/>
	<rect x="157.5" y="134.985" fill="#EFD1B8" width="7.5" height="7.5"/>
	<rect x="165" y="134.985" fill="#EFD1B8" width="7.5" height="7.5"/>
	<rect x="157.5" y="127.5" fill="#EFD1B8" width="7.5" height="7.5"/>
	<rect x="165" y="127.5" fill="#E3C9B6" width="7.5" height="7.5"/>
	<rect x="172.5" y="134.985" fill="#EFD1B8" width="7.5" height="7.5"/>
	<rect x="172.5" y="127.5" fill="#EFD1B8" width="7.5" height="7.5"/>
	<rect x="127.5" y="120.029" fill="#231F20" width="7.5" height="7.5"/>
	<rect x="135" y="120.029" fill="#231F20" width="7.5" height="7.5"/>
	<rect x="142.5" y="120.029" fill="#231F20" width="7.5" height="7.5"/>
	<rect x="150" y="120.029" fill="#231F20" width="7.5" height="7.5"/>
	<rect x="127.5" y="127.5" fill="#FFFFFF" width="7.5" height="7.5"/>
	<rect x="135" y="127.5" fill="#3C2415" width="7.5" height="7.5"/>
	<rect x="142.5" y="127.5" fill="#EFD1B8" width="7.5" height="7.5"/>
	<rect x="150" y="127.5" fill="#EFD1B8" width="7.5" height="7.5"/>
	<rect x="127.5" y="134.985" fill="#3C2415" width="7.5" height="7.5"/>
	<rect x="135" y="134.985" fill="#E3C9B6" width="7.5" height="7.5"/>
	<rect x="142.5" y="134.985" fill="#EFD1B8" width="7.5" height="7.5"/>
	<rect x="150" y="134.985" fill="#EFD1B8" width="7.5" height="7.5"/>
	<rect x="127.5" y="142.485" fill="#EFD1B8" width="7.5" height="7.5"/>
	<rect x="135" y="142.485" fill="#EFD1B8" width="7.5" height="7.5"/>
	<rect x="142.5" y="142.485" fill="#E3C9B6" width="7.5" height="7.5"/>
	<rect x="150" y="142.485" fill="#EFD1B8" width="7.5" height="7.5"/>
	<rect x="157.5" y="105.029" fill="#231F20" width="7.5" height="7.5"/>
	<rect x="165" y="105.029" fill="#231F20" width="7.5" height="7.5"/>
	<rect x="112.5" y="97.544" fill="#EFD1B8" width="7.5" height="7.5"/>
	<rect x="105" y="82.544" fill="#AFAFA2" width="7.5" height="7.5"/>
	<rect x="120" y="97.544" fill="#EFD1B8" width="7.5" height="7.5"/>
	<rect x="127.5" y="97.544" fill="#EFD1B8" width="7.5" height="7.5"/>
	<rect x="135" y="97.544" fill="#EFD1B8" width="7.5" height="7.5"/>
	<rect x="142.5" y="97.544" fill="#EFD1B8" width="7.5" height="7.5"/>
	<rect x="150" y="97.544" fill="#EFD1B8" width="7.5" height="7.5"/>
	<rect x="157.5" y="97.544" fill="#231F20" width="7.5" height="7.5"/>
	<rect x="157.5" y="90.044" fill="#231F20" width="7.5" height="7.5"/>
	<rect x="157.393" y="82.544" fill="#414042" width="7.5" height="7.5"/>
	<rect x="165" y="97.544" fill="#231F20" width="7.5" height="7.5"/>
	<rect x="157.5" y="112.529" fill="#414042" width="7.5" height="7.5"/>
	<rect x="157.5" y="127.5" fill="#9B8579" width="7.5" height="7.5"/>
	<rect x="165" y="112.529" fill="#414042" width="7.5" height="7.5"/>
	<rect x="157.5" y="120.029" fill="#231F20" width="7.5" height="7.5"/>
	<rect x="165" y="120.029" fill="#F3D9D0" width="7.5" height="7.5"/>
	<rect x="172.5" y="120.029" fill="#F3D9D0" width="7.5" height="7.5"/>
</g>
</svg>
