<?xml version="1.0" encoding="utf-8"?>
<!-- Generator: Adobe Illustrator 15.0.2, SVG Export Plug-In . SVG Version: 6.00 Build 0)  -->
<!DOCTYPE svg PUBLIC "-//W3C//DTD SVG 1.1//EN" "http://www.w3.org/Graphics/SVG/1.1/DTD/svg11.dtd">
<svg version="1.1" id="Layer_1" xmlns="http://www.w3.org/2000/svg" xmlns:xlink="http://www.w3.org/1999/xlink" x="0px" y="0px"
	 width="19.5px" height="29.981px" viewBox="0 0 19.5 29.981" enable-background="new 0 0 19.5 29.981" xml:space="preserve">
<g>
	<rect x="6" y="25.481" fill="#EADAB2" width="1.5" height="1.5"/>
	<rect x="7.5" y="25.481" fill="#D59E10" width="1.5" height="1.5"/>
	<rect x="10.5" y="25.481" fill="#ED1C24" width="1.5" height="1.5"/>
	<rect x="9" y="25.481" fill="#EADAB2" width="1.5" height="1.5"/>
	<rect x="4.5" y="25.481" fill="#EDCB8A" width="1.5" height="1.5"/>
	<rect x="3" y="25.481" fill="#ED1C24" width="1.5" height="1.5"/>
	<rect x="1.5" y="25.481" fill="#ED1C24" width="1.5" height="1.5"/>
	<rect x="12" y="25.481" fill="#231F20" width="1.5" height="1.5"/>
	<rect x="13.5" y="25.481" fill="#231F20" width="1.5" height="1.5"/>
	<rect x="16.5" y="25.481" fill="#ED1C24" width="1.5" height="1.5"/>
	<rect x="18" y="25.481" fill="#ED1C24" width="1.5" height="1.5"/>
	<rect x="6" y="28.481" fill="#6D6E71" width="1.5" height="1.5"/>
	<rect x="7.5" y="28.481" fill="#6D6E71" width="1.5" height="1.5"/>
	<rect x="10.5" y="28.481" fill="#ED1C24" width="1.5" height="1.5"/>
	<rect x="9" y="28.481" fill="#6D6E71" width="1.5" height="1.5"/>
	<rect x="4.5" y="28.481" fill="#ED1C24" width="1.5" height="1.5"/>
	<rect x="3" y="28.481" fill="#ED1C24" width="1.5" height="1.5"/>
	<rect x="1.5" y="28.481" fill="#BE1E2D" width="1.5" height="1.5"/>
	<rect x="12" y="28.481" fill="#ED1C24" width="1.5" height="1.5"/>
	<rect x="13.5" y="28.481" fill="#BE1E2D" width="1.5" height="1.5"/>
	<rect x="16.5" y="28.481" fill="#ED1C24" width="1.5" height="1.5"/>
	<rect x="18" y="28.481" fill="#ED1C24" width="1.5" height="1.5"/>
	<rect x="6" y="23.981" fill="#BD6D14" width="1.5" height="1.5"/>
	<rect x="7.5" y="23.981" fill="#E8CD8D" width="1.5" height="1.5"/>
	<rect x="10.5" y="23.981" fill="#ED1C24" width="1.5" height="1.5"/>
	<rect x="9" y="23.981" fill="#BD6D14" width="1.5" height="1.5"/>
	<rect x="7.5" y="22.481" fill="#231F20" width="1.5" height="1.5"/>
	<rect x="9" y="22.481" fill="#231F20" width="1.5" height="1.5"/>
	<rect x="4.5" y="23.981" fill="#EADAB2" width="1.5" height="1.5"/>
	<rect x="1.5" y="23.981" fill="#ED1C24" width="1.5" height="1.5"/>
	<rect x="12" y="23.981" fill="#ED1C24" width="1.5" height="1.5"/>
	<rect x="13.5" y="23.981" fill="#231F20" width="1.5" height="1.5"/>
	<rect x="16.5" y="23.981" fill="#ED1C24" width="1.5" height="1.5"/>
	<rect x="18" y="23.981" fill="#ED1C24" width="1.5" height="1.5"/>
	<rect x="1.5" y="22.495" fill="#ED1C24" width="1.5" height="1.5"/>
	<rect x="6" y="26.981" fill="#6D6E71" width="1.5" height="1.5"/>
	<rect x="7.5" y="26.981" fill="#808285" width="1.5" height="1.5"/>
	<rect x="10.5" y="26.981" fill="#ED1C24" width="1.5" height="1.5"/>
	<rect x="9" y="26.981" fill="#6D6E71" width="1.5" height="1.5"/>
	<rect x="4.5" y="26.981" fill="#ED1C24" width="1.5" height="1.5"/>
	<rect x="3" y="26.981" fill="#ED1C24" width="1.5" height="1.5"/>
	<rect x="1.5" y="26.981" fill="#BE1E2D" width="1.5" height="1.5"/>
	<rect y="25.481" fill="#ED1C24" width="1.5" height="1.5"/>
	<rect y="28.481" fill="#ED1C24" width="1.5" height="1.5"/>
	<rect y="23.981" fill="#ED1C24" width="1.5" height="1.5"/>
	<rect y="26.981" fill="#ED1C24" width="1.5" height="1.5"/>
	<rect x="12" y="26.981" fill="#231F20" width="1.5" height="1.5"/>
	<rect x="13.5" y="26.981" fill="#BE1E2D" width="1.5" height="1.5"/>
	<rect x="16.5" y="26.981" fill="#ED1C24" width="1.5" height="1.5"/>
	<rect x="18" y="26.981" fill="#ED1C24" width="1.5" height="1.5"/>
	<rect x="1.5" y="2.996" fill="#F6D5A7" width="1.5" height="1.5"/>
	<rect x="3" y="2.996" fill="#414042" width="1.5" height="1.5"/>
	<rect x="4.5" y="2.996" fill="#231F20" width="1.5" height="1.5"/>
	<rect x="6" y="2.996" fill="#231F20" width="1.5" height="1.5"/>
	<rect x="7.5" y="2.996" fill="#231F20" width="1.5" height="1.5"/>
	<rect x="1.5" y="4.496" fill="#F6D5A7" width="1.5" height="1.5"/>
	<rect x="3" y="4.496" fill="#F6D5A7" width="1.5" height="1.5"/>
	<rect x="4.5" y="4.496" fill="#F6D5A7" width="1.5" height="1.5"/>
	<rect x="6" y="4.496" fill="#231F20" width="1.5" height="1.5"/>
	<rect x="7.5" y="4.496" fill="#231F20" width="1.5" height="1.5"/>
	<rect x="1.5" y="5.996" fill="#EDCB8A" width="1.5" height="1.5"/>
	<rect x="1.5" y="7.49" fill="#E8CD8D" width="1.5" height="1.5"/>
	<rect x="1.5" y="8.988" fill="#E8CD8D" width="1.5" height="1.5"/>
	<rect y="10.49" fill="#E8CD8D" width="1.5" height="1.5"/>
	<rect x="1.5" y="10.49" fill="#E8CD8D" width="1.5" height="1.5"/>
	<rect x="1.5" y="11.988" fill="#E8CD8D" width="1.5" height="1.5"/>
	<rect x="4.5" y="11.988" fill="#F6D5A7" width="1.5" height="1.5"/>
	<rect x="3" y="11.988" fill="#E8CD8D" width="1.5" height="1.5"/>
	<rect x="6" y="11.988" fill="#E7B685" width="1.5" height="1.5"/>
	<rect x="9" y="11.988" fill="#E8CD8D" width="1.5" height="1.5"/>
	<rect x="7.5" y="11.988" fill="#EDCB8A" width="1.5" height="1.5"/>
	<rect x="4.5" y="13.484" fill="#FFFFFF" width="1.5" height="1.5"/>
	<rect x="3" y="13.484" fill="#FFFFFF" width="1.5" height="1.5"/>
	<rect x="6" y="13.484" fill="#FFFFFF" width="1.5" height="1.5"/>
	<rect x="7.5" y="13.484" fill="#E7B685" width="1.5" height="1.5"/>
	<rect x="4.5" y="14.982" fill="#BD202E" width="1.5" height="1.499"/>
	<rect x="3" y="14.982" fill="#BD202E" width="1.5" height="1.499"/>
	<rect x="6" y="14.982" fill="#C97D7A" width="1.5" height="1.499"/>
	<rect x="7.5" y="14.982" fill="#E8CD8D" width="1.5" height="1.499"/>
	<rect x="4.5" y="16.481" fill="#E8CD8D" width="1.5" height="1.5"/>
	<rect x="3" y="16.481" fill="#E8CD8D" width="1.5" height="1.5"/>
	<rect x="6" y="16.481" fill="#E8CD8D" width="1.5" height="1.5"/>
	<rect x="4.5" y="17.981" fill="#E8CD8D" width="1.5" height="1.5"/>
	<rect x="6" y="17.981" fill="#E8CD8D" width="1.5" height="1.5"/>
	<rect x="6" y="19.481" fill="#E7B685" width="1.5" height="1.5"/>
	<rect x="7.5" y="17.981" fill="#EDCB8A" width="1.5" height="1.5"/>
	<rect x="7.5" y="16.481" fill="#E8CD8D" width="1.5" height="1.5"/>
	<rect x="9" y="16.481" fill="#E8CD8D" width="1.5" height="1.5"/>
	<rect x="7.5" y="19.481" fill="#E8CD8D" width="1.5" height="1.5"/>
	<rect x="10.5" y="19.481" fill="#414042" width="1.5" height="1.5"/>
	<rect x="9" y="19.481" fill="#231F20" width="1.5" height="1.5"/>
	<rect x="7.014" y="19.481" fill="#E7B685" width="1.5" height="1.5"/>
	<rect x="7.5" y="20.981" fill="#E7B685" width="1.5" height="1.5"/>
	<rect x="9" y="20.981" fill="#231F20" width="1.5" height="1.5"/>
	<rect x="12" y="19.481" fill="#231F20" width="1.5" height="1.5"/>
	<rect x="6" y="20.981" fill="#E8CD8D" width="1.5" height="1.5"/>
	<rect x="10.5" y="20.981" fill="#231F20" width="1.5" height="1.5"/>
	<rect x="10.5" y="22.481" fill="#BD6D14" width="1.5" height="1.5"/>
	<rect x="6" y="22.481" fill="#E8CD8D" width="1.5" height="1.5"/>
	<rect x="10.5" y="11.988" fill="#D59E10" width="1.5" height="1.5"/>
	<rect x="9" y="10.49" fill="#E7B685" width="1.5" height="1.5"/>
	<rect x="10.5" y="10.49" fill="#E8CD8D" width="1.5" height="1.5"/>
	<rect x="9" y="14.982" fill="#E8CD8D" width="1.5" height="1.499"/>
	<rect x="10.5" y="14.982" fill="#00AEEF" width="1.5" height="1.499"/>
	<rect x="9" y="13.484" fill="#2798C8" width="1.5" height="1.5"/>
	<rect x="10.5" y="13.484" fill="#00AEEF" width="1.5" height="1.5"/>
	<rect x="9" y="8.988" fill="#EADAB2" width="1.5" height="1.5"/>
	<rect x="10.5" y="8.988" fill="#E8CD8D" width="1.5" height="1.5"/>
	<rect x="9" y="7.49" fill="#EADAB2" width="1.5" height="1.5"/>
	<rect x="10.5" y="7.49" fill="#E8CD8D" width="1.5" height="1.5"/>
	<rect x="12" y="8.988" fill="#E8CD8D" width="1.5" height="1.5"/>
	<rect x="12" y="7.49" fill="#F6D5A7" width="1.5" height="1.5"/>
	<rect x="3" y="5.994" fill="#231F20" width="1.5" height="1.5"/>
	<rect x="4.5" y="5.994" fill="#414042" width="1.5" height="1.5"/>
	<rect x="6" y="5.99" fill="#E8CD8D" width="1.5" height="1.5"/>
	<rect x="7.5" y="5.996" fill="#231F20" width="1.5" height="1.5"/>
	<rect x="3" y="7.49" fill="#E8CD8D" width="1.5" height="1.5"/>
	<rect x="4.5" y="7.49" fill="#E8CD8D" width="1.5" height="1.5"/>
	<rect x="6" y="7.488" fill="#E8CD8D" width="1.5" height="1.5"/>
	<rect x="7.5" y="7.484" fill="#E8CD8D" width="1.5" height="1.5"/>
	<rect x="3" y="8.988" fill="#7E8D7E" width="1.5" height="1.5"/>
	<rect x="4.5" y="8.988" fill="#FFFFFF" width="1.5" height="1.5"/>
	<rect x="3" y="10.488" fill="#E8CD8D" width="1.5" height="1.5"/>
	<rect x="4.5" y="10.488" fill="#F6D5A7" width="1.5" height="1.5"/>
	<rect x="6" y="8.988" fill="#E8CD8D" width="1.5" height="1.5"/>
	<rect x="7.5" y="8.988" fill="#E8CD8D" width="1.5" height="1.5"/>
	<rect x="6" y="10.488" fill="#EDCB8A" width="1.5" height="1.5"/>
	<rect x="7.5" y="10.488" fill="#EDCB8A" width="1.5" height="1.5"/>
	<rect x="9" y="2.996" fill="#414042" width="1.5" height="1.5"/>
	<rect x="10.5" y="2.996" fill="#231F20" width="1.5" height="1.5"/>
	<rect x="9" fill="#231F20" width="1.5" height="1.5"/>
	<rect x="10.5" fill="#231F20" width="1.5" height="1.5"/>
	<rect x="10.5" y="1.5" fill="#231F20" width="1.5" height="1.5"/>
	<rect x="12" y="1.5" fill="#231F20" width="1.5" height="1.5"/>
	<rect x="1.5" y="1.5" fill="#231F20" width="1.5" height="1.5"/>
	<rect x="3" y="1.5" fill="#231F20" width="1.5" height="1.5"/>
	<rect x="4.5" y="1.5" fill="#414042" width="1.5" height="1.5"/>
	<rect x="6" y="1.5" fill="#414042" width="1.5" height="1.5"/>
	<rect x="7.5" y="1.5" fill="#414042" width="1.5" height="1.5"/>
	<rect x="3" fill="#231F20" width="1.5" height="1.5"/>
	<rect x="4.5" fill="#231F20" width="1.5" height="1.5"/>
	<rect x="6" fill="#231F20" width="1.5" height="1.5"/>
	<rect x="7.5" fill="#231F20" width="1.5" height="1.5"/>
	<rect x="9" y="1.5" fill="#231F20" width="1.5" height="1.5"/>
	<rect x="9" y="4.496" fill="#231F20" width="1.5" height="1.5"/>
	<rect x="9" y="7.49" fill="#231F20" width="1.5" height="1.5"/>
	<rect x="9" y="8.988" fill="#231F20" width="1.5" height="1.5"/>
	<rect x="10.5" y="4.496" fill="#414042" width="1.5" height="1.5"/>
	<rect x="12" y="4.496" fill="#231F20" width="1.5" height="1.5"/>
	<rect x="12" y="2.996" fill="#231F20" width="1.5" height="1.5"/>
	<rect x="13.5" y="2.996" fill="#231F20" width="1.5" height="1.5"/>
	<rect x="12" y="5.996" fill="#231F20" width="1.5" height="1.5"/>
	<rect x="13.5" y="5.996" fill="#231F20" width="1.5" height="1.5"/>
	<rect x="13.5" y="4.496" fill="#231F20" width="1.5" height="1.5"/>
	<rect x="13.5" y="7.496" fill="#231F20" width="1.5" height="1.5"/>
	<rect x="13.5" y="8.988" fill="#231F20" width="1.5" height="1.5"/>
	<rect x="15" y="8.988" fill="#913844" width="1.5" height="1.5"/>
	<rect x="15" y="7.484" fill="#913844" width="1.5" height="1.5"/>
	<rect x="13.5" y="11.99" fill="#414042" width="1.5" height="1.5"/>
	<rect x="13.5" y="10.49" fill="#231F20" width="1.5" height="1.5"/>
	<rect x="13.5" y="13.49" fill="#231F20" width="1.5" height="1.5"/>
	<rect x="15" y="6.006" fill="#231F20" width="1.5" height="1.5"/>
	<rect x="15" y="10.49" fill="#231F20" width="1.5" height="1.5"/>
	<rect x="15" y="11.99" fill="#231F20" width="1.5" height="1.5"/>
	<rect x="15" y="13.49" fill="#231F20" width="1.5" height="1.5"/>
	<rect x="12" y="11.99" fill="#231F20" width="1.5" height="1.5"/>
	<rect x="12" y="10.49" fill="#231F20" width="1.5" height="1.5"/>
	<rect x="12" y="13.49" fill="#2798C8" width="1.5" height="1.5"/>
	<rect x="13.5" y="14.982" fill="#231F20" width="1.5" height="1.499"/>
	<rect x="15" y="14.982" fill="#231F20" width="1.5" height="1.499"/>
	<rect x="12" y="14.982" fill="#414042" width="1.5" height="1.499"/>
	<rect x="13.5" y="16.481" fill="#414042" width="1.5" height="1.5"/>
	<rect x="15" y="16.481" fill="#231F20" width="1.5" height="1.5"/>
	<rect x="12" y="20.981" fill="#414042" width="1.5" height="1.5"/>
	<rect x="12" y="22.481" fill="#231F20" width="1.5" height="1.5"/>
	<rect x="12" y="23.981" fill="#ED1C24" width="1.5" height="1.5"/>
	<rect x="13.5" y="19.481" fill="#231F20" width="1.5" height="1.5"/>
	<rect x="15" y="17.981" fill="#231F20" width="1.5" height="1.5"/>
	<rect x="13.5" y="20.981" fill="#231F20" width="1.5" height="1.5"/>
	<rect x="15" y="19.481" fill="#231F20" width="1.5" height="1.5"/>
	<rect x="15" y="20.981" fill="#231F20" width="1.5" height="1.5"/>
	<rect x="16.5" y="11.99" fill="#231F20" width="1.5" height="1.5"/>
	<rect x="16.5" y="13.49" fill="#231F20" width="1.5" height="1.5"/>
	<rect x="16.5" y="14.982" fill="#231F20" width="1.5" height="1.499"/>
	<rect x="16.5" y="16.481" fill="#231F20" width="1.5" height="1.5"/>
	<rect x="16.5" y="17.981" fill="#231F20" width="1.5" height="1.5"/>
	<rect x="16.5" y="19.481" fill="#231F20" width="1.5" height="1.5"/>
	<rect x="16.5" y="22.481" fill="#ED1C24" width="1.5" height="1.5"/>
	<rect x="15" y="25.481" fill="#ED1C24" width="1.5" height="1.5"/>
	<rect x="15" y="28.481" fill="#ED1C24" width="1.5" height="1.5"/>
	<rect x="15" y="23.981" fill="#231F20" width="1.5" height="1.5"/>
	<rect x="15" y="26.981" fill="#ED1C24" width="1.5" height="1.5"/>
	<rect x="15" y="22.481" fill="#231F20" width="1.5" height="1.5"/>
	<rect x="13.5" y="22.481" fill="#231F20" width="1.5" height="1.5"/>
	<rect x="3" y="22.481" fill="#ED1C24" width="1.5" height="1.5"/>
	<rect x="4.5" y="22.481" fill="#BD6D14" width="1.5" height="1.5"/>
	<rect x="3" y="23.981" fill="#ED1C24" width="1.5" height="1.5"/>
	<rect x="12" y="16.481" fill="#231F20" width="1.5" height="1.5"/>
	<rect x="13.5" y="17.981" fill="#414042" width="1.5" height="1.5"/>
	<rect x="12" y="17.981" fill="#231F20" width="1.5" height="1.5"/>
	<rect x="10.5" y="16.481" fill="#231F20" width="1.5" height="1.5"/>
	<rect x="10.5" y="17.981" fill="#414042" width="1.5" height="1.5"/>
	<rect x="9" y="17.981" fill="#414042" width="1.5" height="1.5"/>
	<rect x="12" y="19.481" fill="#231F20" width="1.5" height="1.5"/>
	<rect x="9" y="5.996" fill="#231F20" width="1.5" height="1.5"/>
	<rect x="10.5" y="5.996" fill="#231F20" width="1.5" height="1.5"/>
</g>
</svg>
