<?xml version="1.0" encoding="utf-8"?>
<!-- Generator: Adobe Illustrator 16.0.0, SVG Export Plug-In . SVG Version: 6.00 Build 0)  -->
<!DOCTYPE svg PUBLIC "-//W3C//DTD SVG 1.1//EN" "http://www.w3.org/Graphics/SVG/1.1/DTD/svg11.dtd">
<svg version="1.1" id="Layer_1" xmlns="http://www.w3.org/2000/svg" xmlns:xlink="http://www.w3.org/1999/xlink" x="0px" y="0px"
	 width="300px" height="300px" viewBox="0 0 300 300" enable-background="new 0 0 300 300" xml:space="preserve">
<g>
	<rect x="123" y="99.035" fill="#525255" width="6" height="6"/>
	<rect x="129" y="99.035" fill="#2F292B" width="6" height="6"/>
	<rect x="117" y="99.035" fill="#2F292B" width="6" height="6"/>
	<rect x="135" y="99.035" fill="#525255" width="6" height="6"/>
	<rect x="141" y="99.035" fill="#2F292B" width="6" height="6"/>
	<rect x="147" y="99.035" fill="#2F292B" width="6" height="6"/>
	<rect x="153" y="99.035" fill="#2F292B" width="6" height="6"/>
	<rect x="129" y="93.035" fill="#525255" width="6" height="6"/>
	<rect x="135" y="93.035" fill="#2F292B" width="6" height="6"/>
	<rect x="141" y="93.035" fill="#2F292B" width="6" height="6"/>
	<rect x="147" y="93.035" fill="#2F292B" width="6" height="6"/>
	<rect x="153" y="93.035" fill="#2F292B" width="6" height="6"/>
	<rect x="123" y="111.023" fill="#EDD69F" width="6" height="6"/>
	<rect x="129" y="111.023" fill="#525255" width="6" height="6"/>
	<rect x="135" y="111.023" fill="#2F292B" width="6" height="6"/>
	<rect x="141" y="111.023" fill="#2F292B" width="6" height="6"/>
	<rect x="147" y="111.023" fill="#2F292B" width="6" height="6"/>
	<rect x="153" y="111.023" fill="#2F292B" width="6" height="6"/>
	<rect x="123" y="117.023" fill="#EDD69F" width="6" height="6"/>
	<rect x="129" y="117.023" fill="#EDD69F" width="6" height="6"/>
	<rect x="135" y="117.023" fill="#EDD69F" width="6" height="6"/>
	<rect x="141" y="117.023" fill="#EDD69F" width="6" height="6"/>
	<rect x="147" y="117.023" fill="#EDD69F" width="6" height="6"/>
	<rect x="153" y="117.023" fill="#2F292B" width="6" height="6"/>
	<rect x="123" y="123.023" fill="#2F292B" width="6" height="6"/>
	<rect x="129" y="123.023" fill="#4D301C" width="6" height="6"/>
	<rect x="123" y="129" fill="#2F292B" width="6" height="6"/>
	<rect x="129" y="129" fill="#9B724E" width="6" height="6"/>
	<rect x="123" y="134.988" fill="#2F292B" width="6" height="6"/>
	<rect x="129" y="134.988" fill="#2F292B" width="6" height="6"/>
	<rect x="123" y="141" fill="#EDD69F" width="6" height="6"/>
	<rect x="129" y="141" fill="#EDD69F" width="6" height="6"/>
	<rect x="123" y="146.988" fill="#D5CBAD" width="6" height="6"/>
	<rect x="117" y="141" fill="#EDD69F" width="6" height="6"/>
	<rect x="117" y="134.988" fill="#EDD69F" width="6" height="6"/>
	<rect x="129" y="146.988" fill="#D5CBAD" width="6" height="6"/>
	<rect x="141" y="146.988" fill="#D5CBAD" width="6" height="6"/>
	<rect x="135" y="146.988" fill="#D5CBAD" width="6" height="6"/>
	<rect x="147" y="146.988" fill="#D5CBAD" width="6" height="6"/>
	<rect x="159" y="146.988" fill="#EDD69F" width="6" height="6"/>
	<rect x="153" y="146.988" fill="#D5CBAD" width="6" height="6"/>
	<rect x="141" y="152.977" fill="#FFFFFF" width="6" height="6"/>
	<rect x="135" y="152.977" fill="#FFFFFF" width="6" height="6"/>
	<rect x="147" y="152.977" fill="#FFFFFF" width="6" height="6"/>
	<rect x="153" y="152.977" fill="#C7293B" width="6" height="6"/>
	<rect x="141" y="158.965" fill="#C7293B" width="6" height="6"/>
	<rect x="135" y="158.965" fill="#C7293B" width="6" height="6"/>
	<rect x="147" y="158.965" fill="#C7293B" width="6" height="6"/>
	<rect x="153" y="158.965" fill="#D5CBAD" width="6" height="6"/>
	<rect x="141" y="164.965" fill="#D5CBAD" width="6" height="6"/>
	<rect x="135" y="164.965" fill="#D5CBAD" width="6" height="6"/>
	<rect x="147" y="164.965" fill="#D5CBAD" width="6" height="6"/>
	<rect x="141" y="170.965" fill="#EDD69F" width="6" height="6"/>
	<rect x="147" y="170.965" fill="#EDD69F" width="6" height="6"/>
	<rect x="141" y="176.965" fill="#EDD69F" width="6" height="6"/>
	<rect x="147" y="176.965" fill="#EDD69F" width="6" height="6"/>
	<rect x="153" y="170.965" fill="#EDD69F" width="6" height="6"/>
	<rect x="153" y="164.965" fill="#EDD69F" width="6" height="6"/>
	<rect x="159" y="164.965" fill="#EDD69F" width="6" height="6"/>
	<rect x="159" y="170.965" fill="#D8DADA" width="6" height="6"/>
	<rect x="165" y="170.965" fill="#919295" width="6" height="6"/>
	<rect x="165" y="164.965" fill="#D8DADA" width="6" height="6"/>
	<rect x="171" y="164.965" fill="#919295" width="6" height="6"/>
	<rect x="159" y="176.965" fill="#919295" width="6" height="6"/>
	<rect x="153" y="176.965" fill="#D8DADA" width="6" height="6"/>
	<rect x="135" y="176.965" fill="#D8DADA" width="6" height="6"/>
	<rect x="129" y="176.965" fill="#A2A4A6" width="6" height="6"/>
	<rect x="129" y="170.965" fill="#D8DADA" width="6" height="6"/>
	<rect x="123" y="170.965" fill="#A2A4A6" width="6" height="6"/>
	<rect x="165" y="176.965" fill="#D8DADA" width="6" height="6"/>
	<rect x="171" y="176.965" fill="#D8DADA" width="6" height="6"/>
	<rect x="177" y="176.965" fill="#D8DADA" width="6" height="6"/>
	<rect x="141" y="182.965" fill="#D8DADA" width="6" height="6"/>
	<rect x="147" y="182.965" fill="#EDD69F" width="6" height="6"/>
	<rect x="159" y="182.965" fill="#B5B7B9" width="6" height="6"/>
	<rect x="153" y="182.965" fill="#D8DADA" width="6" height="6"/>
	<rect x="135" y="182.965" fill="#A2A4A6" width="6" height="6"/>
	<rect x="129" y="182.965" fill="#D8DADA" width="6" height="6"/>
	<rect x="123" y="182.965" fill="#B5B7B9" width="6" height="6"/>
	<rect x="165" y="182.965" fill="#D8DADA" width="6" height="6"/>
	<rect x="171" y="182.965" fill="#B5B7B9" width="6" height="6"/>
	<rect x="177" y="182.965" fill="#D8DADA" width="6" height="6"/>
	<rect x="183" y="182.965" fill="#C6C8CA" width="6" height="6"/>
	<rect x="141" y="188.965" fill="#D8DADA" width="6" height="6"/>
	<rect x="147" y="188.965" fill="#A2A4A6" width="6" height="6"/>
	<rect x="159" y="188.965" fill="#B5B7B9" width="6" height="6"/>
	<rect x="153" y="188.965" fill="#D8DADA" width="6" height="6"/>
	<rect x="135" y="188.965" fill="#B5B7B9" width="6" height="6"/>
	<rect x="129" y="188.965" fill="#D8DADA" width="6" height="6"/>
	<rect x="123" y="188.965" fill="#B5B7B9" width="6" height="6"/>
	<rect x="165" y="188.965" fill="#D8DADA" width="6" height="6"/>
	<rect x="171" y="188.965" fill="#B5B7B9" width="6" height="6"/>
	<rect x="177" y="188.965" fill="#D8DADA" width="6" height="6"/>
	<rect x="183" y="188.965" fill="#C6C8CA" width="6" height="6"/>
	<rect x="141" y="194.965" fill="#D8DADA" width="6" height="6"/>
	<rect x="147" y="194.965" fill="#525255" width="6" height="6"/>
	<rect x="159" y="194.965" fill="#B5B7B9" width="6" height="6"/>
	<rect x="153" y="194.965" fill="#D8DADA" width="6" height="6"/>
	<rect x="135" y="194.965" fill="#808083" width="6" height="6"/>
	<rect x="129" y="194.965" fill="#D8DADA" width="6" height="6"/>
	<rect x="123" y="194.965" fill="#B5B7B9" width="6" height="6"/>
	<rect x="165" y="194.965" fill="#C6C8CA" width="6" height="6"/>
	<rect x="171" y="194.965" fill="#B5B7B9" width="6" height="6"/>
	<rect x="177" y="194.965" fill="#D8DADA" width="6" height="6"/>
	<rect x="183" y="194.965" fill="#C6C8CA" width="6" height="6"/>
	<rect x="141" y="200.965" fill="#D8DADA" width="6" height="6"/>
	<rect x="147" y="200.965" fill="#A2A4A6" width="6" height="6"/>
	<rect x="159" y="200.965" fill="#B5B7B9" width="6" height="6"/>
	<rect x="153" y="200.965" fill="#D8DADA" width="6" height="6"/>
	<rect x="135" y="200.965" fill="#808083" width="6" height="6"/>
	<rect x="129" y="200.965" fill="#D8DADA" width="6" height="6"/>
	<rect x="123" y="200.965" fill="#B5B7B9" width="6" height="6"/>
	<rect x="165" y="200.965" fill="#C6C8CA" width="6" height="6"/>
	<rect x="171" y="200.965" fill="#B5B7B9" width="6" height="6"/>
	<rect x="177" y="200.965" fill="#D8DADA" width="6" height="6"/>
	<rect x="183" y="200.965" fill="#C6C8CA" width="6" height="6"/>
	<rect x="165" y="146.988" fill="#4D301C" width="6" height="6"/>
	<rect x="159" y="141" fill="#EDD69F" width="6" height="6"/>
	<rect x="165" y="141" fill="#4D301C" width="6" height="6"/>
	<rect x="159" y="158.965" fill="#EDD69F" width="6" height="6"/>
	<rect x="165" y="158.965" fill="#EDD69F" width="6" height="6"/>
	<rect x="159" y="152.977" fill="#EDD69F" width="6" height="6"/>
	<rect x="165" y="152.977" fill="#EDD69F" width="6" height="6"/>
	<rect x="159" y="134.988" fill="#EDD69F" width="6" height="6"/>
	<rect x="165" y="134.988" fill="#EDD69F" width="6" height="6"/>
	<rect x="159" y="129" fill="#EDD69F" width="6" height="6"/>
	<rect x="165" y="129" fill="#EDD69F" width="6" height="6"/>
	<rect x="171" y="134.988" fill="#EDD69F" width="6" height="6"/>
	<rect x="171" y="129" fill="#EDD69F" width="6" height="6"/>
	<rect x="135" y="123.023" fill="#4D301C" width="6" height="6"/>
	<rect x="141" y="123.023" fill="#4D301C" width="6" height="6"/>
	<rect x="147" y="123.023" fill="#C1BB51" width="6" height="6"/>
	<rect x="153" y="123.023" fill="#C1BB51" width="6" height="6"/>
	<rect x="135" y="129" fill="#FFFFFF" width="6" height="6"/>
	<rect x="141" y="129" fill="#4D301C" width="6" height="6"/>
	<rect x="147" y="129" fill="#EDD69F" width="6" height="6"/>
	<rect x="153" y="129" fill="#EDD69F" width="6" height="6"/>
	<rect x="135" y="134.988" fill="#4D301C" width="6" height="6"/>
	<rect x="141" y="134.988" fill="#4D301C" width="6" height="6"/>
	<rect x="147" y="134.988" fill="#EDD69F" width="6" height="6"/>
	<rect x="153" y="134.988" fill="#EDD69F" width="6" height="6"/>
	<rect x="135" y="140.988" fill="#EDD69F" width="6" height="6"/>
	<rect x="141" y="140.988" fill="#EDD69F" width="6" height="6"/>
	<rect x="147" y="140.988" fill="#EDD69F" width="6" height="6"/>
	<rect x="153" y="140.988" fill="#EDD69F" width="6" height="6"/>
	<rect x="159" y="111.023" fill="#2F292B" width="6" height="6"/>
	<rect x="165" y="111.023" fill="#2F292B" width="6" height="6"/>
	<rect x="123" y="105.035" fill="#2F292B" width="6" height="6"/>
	<rect x="117" y="105.035" fill="#2F292B" width="6" height="6"/>
	<rect x="111" y="105.035" fill="#525255" width="6" height="6"/>
	<rect x="129" y="105.035" fill="#2F292B" width="6" height="6"/>
	<rect x="135" y="105.035" fill="#2F292B" width="6" height="6"/>
	<rect x="141" y="105.035" fill="#525255" width="6" height="6"/>
	<rect x="147" y="105.035" fill="#2F292B" width="6" height="6"/>
	<rect x="153" y="105.035" fill="#525255" width="6" height="6"/>
	<rect x="159" y="105.035" fill="#2F292B" width="6" height="6"/>
	<rect x="159" y="99.035" fill="#2F292B" width="6" height="6"/>
	<rect x="165" y="105.035" fill="#2F292B" width="6" height="6"/>
	<rect x="159" y="117.023" fill="#525255" width="6" height="6"/>
	<rect x="159" y="129" fill="#525255" width="6" height="6"/>
	<rect x="165" y="117.023" fill="#525255" width="6" height="6"/>
	<rect x="159" y="123.023" fill="#2F292B" width="6" height="6"/>
	<rect x="165" y="123.023" fill="#2F292B" width="6" height="6"/>
</g>
</svg>
