<?xml version="1.0" encoding="utf-8"?>
<!-- Generator: Adobe Illustrator 16.0.0, SVG Export Plug-In . SVG Version: 6.00 Build 0)  -->
<!DOCTYPE svg PUBLIC "-//W3C//DTD SVG 1.1//EN" "http://www.w3.org/Graphics/SVG/1.1/DTD/svg11.dtd">
<svg version="1.1" id="Layer_1" xmlns="http://www.w3.org/2000/svg" xmlns:xlink="http://www.w3.org/1999/xlink" x="0px" y="0px"
	 width="300px" height="300px" viewBox="0 0 300 300" enable-background="new 0 0 300 300" xml:space="preserve">
<g>
	<rect x="135" y="191.965" fill="#47B983" width="6" height="6"/>
	<rect x="141" y="191.965" fill="#FFFFFF" width="6" height="6"/>
	<rect x="153" y="191.965" fill="#47B983" width="6" height="6"/>
	<rect x="147" y="191.965" fill="#47B983" width="6" height="6"/>
	<rect x="129" y="191.965" fill="#47B983" width="6" height="6"/>
	<rect x="123" y="191.965" fill="#47B983" width="6" height="6"/>
	<rect x="117" y="191.965" fill="#EEE1BF" width="6" height="6"/>
	<rect x="159" y="191.965" fill="#47B983" width="6" height="6"/>
	<rect x="165" y="191.965" fill="#47B983" width="6" height="6"/>
	<rect x="171" y="191.965" fill="#EEE1BF" width="6" height="6"/>
	<rect x="177" y="191.965" fill="#EEE1BF" width="6" height="6"/>
	<rect x="135" y="203.965" fill="#47B983" width="6" height="6"/>
	<rect x="141" y="203.965" fill="#47B983" width="6" height="6"/>
	<rect x="153" y="203.965" fill="#47B983" width="6" height="6"/>
	<rect x="147" y="203.965" fill="#00B3AB" width="6" height="6"/>
	<rect x="129" y="203.965" fill="#47B983" width="6" height="6"/>
	<rect x="123" y="203.965" fill="#00B3AB" width="6" height="6"/>
	<rect x="117" y="203.965" fill="#EEE1BF" width="6" height="6"/>
	<rect x="159" y="203.965" fill="#47B983" width="6" height="6"/>
	<rect x="165" y="203.965" fill="#47B983" width="6" height="6"/>
	<rect x="171" y="203.965" fill="#EEE1BF" width="6" height="6"/>
	<rect x="177" y="203.965" fill="#EEE1BF" width="6" height="6"/>
	<rect x="135" y="185.965" fill="#FFFFFF" width="6" height="6"/>
	<rect x="141" y="185.965" fill="#EEE1BF" width="6" height="6"/>
	<rect x="153" y="185.965" fill="#47B983" width="6" height="6"/>
	<rect x="147" y="185.965" fill="#FFFFFF" width="6" height="6"/>
	<rect x="141" y="179.965" fill="#EEE1BF" width="6" height="6"/>
	<rect x="147" y="179.766" fill="#EEE1BF" width="6" height="6"/>
	<rect x="129" y="185.965" fill="#47B983" width="6" height="6"/>
	<rect x="117" y="185.965" fill="#47B983" width="6" height="6"/>
	<rect x="159" y="185.965" fill="#42607E" width="6" height="6"/>
	<rect x="165" y="185.965" fill="#47B983" width="6" height="6"/>
	<rect x="171" y="185.965" fill="#47B983" width="6" height="6"/>
	<rect x="177" y="185.965" fill="#47B983" width="6" height="6"/>
	<rect x="183" y="179.965" fill="#47B983" width="6" height="6"/>
	<rect x="117" y="180.018" fill="#47B983" width="6" height="6"/>
	<rect x="111" y="180.018" fill="#47B983" width="6" height="6"/>
	<rect x="135" y="197.965" fill="#00B3AB" width="6" height="6"/>
	<rect x="141" y="197.965" fill="#47B983" width="6" height="6"/>
	<rect x="153" y="197.965" fill="#00B3AB" width="6" height="6"/>
	<rect x="147" y="197.965" fill="#47B983" width="6" height="6"/>
	<rect x="129" y="197.965" fill="#00B3AB" width="6" height="6"/>
	<rect x="123" y="197.965" fill="#47B983" width="6" height="6"/>
	<rect x="117" y="197.965" fill="#EEE1BF" width="6" height="6"/>
	<rect x="159" y="197.965" fill="#00B3AB" width="6" height="6"/>
	<rect x="165" y="197.965" fill="#47B983" width="6" height="6"/>
	<rect x="171" y="197.965" fill="#EEE1BF" width="6" height="6"/>
	<rect x="177" y="197.965" fill="#EEE1BF" width="6" height="6"/>
	<rect x="111" y="102.023" fill="#A04957" width="6" height="6"/>
	<rect x="111" y="108.023" fill="#691A31" width="6" height="6"/>
	<rect x="117" y="102.023" fill="#691A31" width="6" height="6"/>
	<rect x="123" y="102.023" fill="#691A31" width="6" height="6"/>
	<rect x="129" y="102.023" fill="#691A31" width="6" height="6"/>
	<rect x="135" y="102.023" fill="#F26D36" width="6" height="6"/>
	<rect x="141" y="102.023" fill="#A04957" width="6" height="6"/>
	<rect x="117" y="108.023" fill="#691A31" width="6" height="6"/>
	<rect x="123" y="108.023" fill="#691A31" width="6" height="6"/>
	<rect x="129" y="108.023" fill="#691A31" width="6" height="6"/>
	<rect x="135" y="108.023" fill="#691A31" width="6" height="6"/>
	<rect x="141" y="108.023" fill="#691A31" width="6" height="6"/>
	<rect x="117" y="114.023" fill="#EEE1BF" width="6" height="6"/>
	<rect x="117" y="120" fill="#EEE1BF" width="6" height="6"/>
	<rect x="117" y="125.988" fill="#EEE1BF" width="6" height="6"/>
	<rect x="111" y="132" fill="#EEE1BF" width="6" height="6"/>
	<rect x="117" y="132" fill="#EEE1BF" width="6" height="6"/>
	<rect x="117" y="137.988" fill="#EEE1BF" width="6" height="6"/>
	<rect x="129" y="137.988" fill="#EEE1BF" width="6" height="6"/>
	<rect x="123" y="137.988" fill="#EEE1BF" width="6" height="6"/>
	<rect x="135" y="137.988" fill="#EFCFC0" width="6" height="6"/>
	<rect x="147" y="137.988" fill="#EEE1BF" width="6" height="6"/>
	<rect x="141" y="137.988" fill="#EFCFC0" width="6" height="6"/>
	<rect x="129" y="143.977" fill="#FFFFFF" width="6" height="6"/>
	<rect x="123" y="143.977" fill="#FFFFFF" width="6" height="6"/>
	<rect x="135" y="143.977" fill="#CBC0A9" width="6" height="6"/>
	<rect x="141" y="143.977" fill="#EEE1BF" width="6" height="6"/>
	<rect x="129" y="149.965" fill="#C7293B" width="6" height="6"/>
	<rect x="123" y="149.965" fill="#C7293B" width="6" height="6"/>
	<rect x="135" y="149.965" fill="#EEE1BF" width="6" height="6"/>
	<rect x="141" y="149.965" fill="#EEE1BF" width="6" height="6"/>
	<rect x="129" y="155.965" fill="#EEE1BF" width="6" height="6"/>
	<rect x="123" y="155.965" fill="#EEE1BF" width="6" height="6"/>
	<rect x="135" y="155.965" fill="#EEE1BF" width="6" height="6"/>
	<rect x="129" y="161.965" fill="#EEE1BF" width="6" height="6"/>
	<rect x="135" y="161.965" fill="#EEE1BF" width="6" height="6"/>
	<rect x="135" y="167.965" fill="#EDD69F" width="6" height="6"/>
	<rect x="141" y="161.965" fill="#EEE1BF" width="6" height="6"/>
	<rect x="141" y="155.965" fill="#EEE1BF" width="6" height="6"/>
	<rect x="147" y="155.965" fill="#EEE1BF" width="6" height="6"/>
	<rect x="141" y="167.965" fill="#FFFFFF" width="6" height="6"/>
	<rect x="153" y="167.965" fill="#A04957" width="6" height="6"/>
	<rect x="147" y="167.965" fill="#691A31" width="6" height="6"/>
	<rect x="141" y="167.965" fill="#691A31" width="6" height="6"/>
	<rect x="141" y="173.965" fill="#691A31" width="6" height="6"/>
	<rect x="147" y="173.965" fill="#691A31" width="6" height="6"/>
	<rect x="159" y="167.965" fill="#A7948A" width="6" height="6"/>
	<rect x="135" y="173.965" fill="#EEE1BF" width="6" height="6"/>
	<rect x="153" y="173.965" fill="#A04957" width="6" height="6"/>
	<rect x="153" y="179.965" fill="#691A31" width="6" height="6"/>
	<rect x="135" y="179.965" fill="#EEE1BF" width="6" height="6"/>
	<rect x="153" y="137.988" fill="#691A31" width="6" height="6"/>
	<rect x="147" y="132" fill="#EEE1BF" width="6" height="6"/>
	<rect x="153" y="132" fill="#691A31" width="6" height="6"/>
	<rect x="147" y="149.965" fill="#EEE1BF" width="6" height="6"/>
	<rect x="153" y="149.965" fill="#691A31" width="6" height="6"/>
	<rect x="147" y="143.977" fill="#EEE1BF" width="6" height="6"/>
	<rect x="153" y="143.977" fill="#691A31" width="6" height="6"/>
	<rect x="147" y="125.988" fill="#EEE1BF" width="6" height="6"/>
	<rect x="153" y="125.988" fill="#691A31" width="6" height="6"/>
	<rect x="147" y="120" fill="#EEE1BF" width="6" height="6"/>
	<rect x="153" y="120" fill="#A93225" width="6" height="6"/>
	<rect x="159" y="125.988" fill="#691A31" width="6" height="6"/>
	<rect x="159" y="120" fill="#691A31" width="6" height="6"/>
	<rect x="123" y="114.012" fill="#A9958A" width="6" height="6"/>
	<rect x="129" y="114.012" fill="#A9958A" width="6" height="6"/>
	<rect x="135" y="114.023" fill="#EEE1BF" width="6" height="6"/>
	<rect x="141" y="114.023" fill="#EEE1BF" width="6" height="6"/>
	<rect x="123" y="120" fill="#EEE1BF" width="6" height="6"/>
	<rect x="129" y="120" fill="#EEE1BF" width="6" height="6"/>
	<rect x="135" y="119.988" fill="#A9958A" width="6" height="6"/>
	<rect x="141" y="120" fill="#EEE1BF" width="6" height="6"/>
	<rect x="123" y="125.988" fill="#979F73" width="6" height="6"/>
	<rect x="129" y="125.988" fill="#FFFFFF" width="6" height="6"/>
	<rect x="135" y="125.988" fill="#EEE1BF" width="6" height="6"/>
	<rect x="141" y="125.988" fill="#EEE1BF" width="6" height="6"/>
	<rect x="123" y="131.988" fill="#EEE1BF" width="6" height="6"/>
	<rect x="129" y="131.988" fill="#EEE1BF" width="6" height="6"/>
	<rect x="135" y="131.988" fill="#EFCFC0" width="6" height="6"/>
	<rect x="141" y="131.988" fill="#EFCFC0" width="6" height="6"/>
	<rect x="147" y="102.023" fill="#A04957" width="6" height="6"/>
	<rect x="153" y="102.023" fill="#A04957" width="6" height="6"/>
	<rect x="147" y="90.035" fill="#A04957" width="6" height="6"/>
	<rect x="153" y="90.035" fill="#A04957" width="6" height="6"/>
	<rect x="153" y="96.035" fill="#D88182" width="6" height="6"/>
	<rect x="159" y="96.035" fill="#D88182" width="6" height="6"/>
	<rect x="117" y="96.035" fill="#A04957" width="6" height="6"/>
	<rect x="123" y="96.035" fill="#A93225" width="6" height="6"/>
	<rect x="129" y="96.035" fill="#A04957" width="6" height="6"/>
	<rect x="135" y="96.035" fill="#A04957" width="6" height="6"/>
	<rect x="141" y="96.035" fill="#A04957" width="6" height="6"/>
	<rect x="123" y="90.035" fill="#A04957" width="6" height="6"/>
	<rect x="129" y="90.035" fill="#A04957" width="6" height="6"/>
	<rect x="135" y="90.035" fill="#D88182" width="6" height="6"/>
	<rect x="141" y="90.035" fill="#F26D36" width="6" height="6"/>
	<rect x="147" y="96.035" fill="#D88182" width="6" height="6"/>
	<rect x="147" y="108.023" fill="#691A31" width="6" height="6"/>
	<rect x="147" y="120" fill="#EEE1BF" width="6" height="6"/>
	<rect x="147" y="125.988" fill="#EEE1BF" width="6" height="6"/>
	<rect x="153" y="108.023" fill="#A04957" width="6" height="6"/>
	<rect x="159" y="108.023" fill="#A04957" width="6" height="6"/>
	<rect x="159" y="102.023" fill="#D88182" width="6" height="6"/>
	<rect x="165" y="102.023" fill="#D88182" width="6" height="6"/>
	<rect x="159" y="114.023" fill="#A93225" width="6" height="6"/>
	<rect x="165" y="114.023" fill="#A04957" width="6" height="6"/>
	<rect x="165" y="108.023" fill="#F26D36" width="6" height="6"/>
	<rect x="165" y="120.023" fill="#A93225" width="6" height="6"/>
	<rect x="165" y="125.988" fill="#A93225" width="6" height="6"/>
	<rect x="165" y="138" fill="#A04957" width="6" height="6"/>
	<rect x="165" y="132" fill="#A93225" width="6" height="6"/>
	<rect x="165" y="144" fill="#F26D36" width="6" height="6"/>
	<rect x="159" y="138" fill="#691A31" width="6" height="6"/>
	<rect x="159" y="132" fill="#691A31" width="6" height="6"/>
	<rect x="159" y="144" fill="#691A31" width="6" height="6"/>
	<rect x="165" y="149.965" fill="#691A31" width="6" height="6"/>
	<rect x="171" y="149.965" fill="#A04957" width="6" height="6"/>
	<rect x="159" y="149.965" fill="#D88182" width="6" height="6"/>
	<rect x="165" y="155.965" fill="#691A31" width="6" height="6"/>
	<rect x="171" y="155.965" fill="#A04957" width="6" height="6"/>
	<rect x="159" y="173.965" fill="#EF5446" width="6" height="6"/>
	<rect x="159" y="179.965" fill="#A04957" width="6" height="6"/>
	<rect x="159" y="185.965" fill="#691A31" width="6" height="6"/>
	<rect x="165" y="167.965" fill="#691A31" width="6" height="6"/>
	<rect x="171" y="161.965" fill="#691A31" width="6" height="6"/>
	<rect x="165" y="173.965" fill="#A04957" width="6" height="6"/>
	<rect x="171" y="167.965" fill="#691A31" width="6" height="6"/>
	<rect x="171" y="173.965" fill="#A04957" width="6" height="6"/>
	<rect x="177" y="167.965" fill="#EF5446" width="6" height="6"/>
	<rect x="177" y="173.965" fill="#A04957" width="6" height="6"/>
	<rect x="177" y="179.965" fill="#691A31" width="6" height="6"/>
	<rect x="171" y="179.965" fill="#EF5446" width="6" height="6"/>
	<rect x="165" y="179.965" fill="#A04957" width="6" height="6"/>
	<rect x="129" y="167.965" fill="#691A31" width="6" height="6"/>
	<rect x="129" y="173.965" fill="#691A31" width="6" height="6"/>
	<rect x="117" y="173.965" fill="#A04957" width="6" height="6"/>
	<rect x="123" y="167.965" fill="#691A31" width="6" height="6"/>
	<rect x="123" y="161.965" fill="#691A31" width="6" height="6"/>
	<rect x="123" y="173.965" fill="#C7293B" width="6" height="6"/>
	<rect x="123" y="179.965" fill="#C7293B" width="6" height="6"/>
	<rect x="129" y="179.965" fill="#C7293B" width="6" height="6"/>
	<rect x="123" y="185.965" fill="#C7293B" width="6" height="6"/>
	<rect x="159" y="155.965" fill="#A04957" width="6" height="6"/>
	<rect x="165" y="161.965" fill="#691A31" width="6" height="6"/>
	<rect x="159" y="161.965" fill="#691A31" width="6" height="6"/>
	<rect x="153" y="155.965" fill="#691A31" width="6" height="6"/>
	<rect x="153" y="161.965" fill="#A04957" width="6" height="6"/>
	<rect x="147" y="161.965" fill="#691A31" width="6" height="6"/>
	<rect x="159" y="167.965" fill="#691A31" width="6" height="6"/>
	<rect x="147" y="114.023" fill="#691A31" width="6" height="6"/>
	<rect x="153" y="114.023" fill="#691A31" width="6" height="6"/>
</g>
</svg>
