<?xml version="1.0" encoding="utf-8"?>
<!-- Generator: Adobe Illustrator 16.0.0, SVG Export Plug-In . SVG Version: 6.00 Build 0)  -->
<!DOCTYPE svg PUBLIC "-//W3C//DTD SVG 1.1//EN" "http://www.w3.org/Graphics/SVG/1.1/DTD/svg11.dtd">
<svg version="1.1" id="Layer_1" xmlns="http://www.w3.org/2000/svg" xmlns:xlink="http://www.w3.org/1999/xlink" x="0px" y="0px"
	 width="300px" height="300px" viewBox="0 0 300 300" enable-background="new 0 0 300 300" xml:space="preserve">
<g>
	<rect x="126" y="117.031" fill="#EFD1B8" width="6" height="6"/>
	<rect x="132" y="117.031" fill="#EFD1B8" width="6" height="6"/>
	<rect x="138" y="117.031" fill="#EFC8A6" width="6" height="6"/>
	<rect x="144" y="117.031" fill="#EEBFA2" width="6" height="6"/>
	<rect x="150" y="117.023" fill="#5A5B5E" width="6" height="6"/>
	<rect x="120" y="123.031" fill="#E5B29B" width="6" height="6"/>
	<rect x="126" y="123.031" fill="#6D6E71" width="6" height="6"/>
	<rect x="132" y="123.023" fill="#808285" width="6" height="6"/>
	<rect x="138" y="123.023" fill="#EFC8A6" width="6" height="6"/>
	<rect x="144" y="123.023" fill="#EFC8A6" width="6" height="6"/>
	<rect x="150" y="123.031" fill="#808285" width="6" height="6"/>
	<rect x="120" y="129.031" fill="#ADAFB2" width="6" height="6"/>
	<rect x="126" y="129.031" fill="#ADAFB2" width="6" height="6"/>
	<rect x="120" y="135.008" fill="#AFAFA2" width="6" height="6"/>
	<rect x="126" y="135.008" fill="#7F95A5" width="6" height="6"/>
	<rect x="120" y="141" fill="#EFC8A6" width="6" height="6"/>
	<rect x="126" y="141" fill="#AFAFA2" width="6" height="6"/>
	<rect x="120" y="147.008" fill="#EFC8A6" width="6" height="6"/>
	<rect x="126" y="147.008" fill="#EFC8A6" width="6" height="6"/>
	<rect x="120" y="152.992" fill="#EFD1B8" width="6" height="6"/>
	<rect x="114" y="147.008" fill="#EFC8A6" width="6" height="6"/>
	<rect x="114" y="141.008" fill="#EFC8A6" width="6" height="6"/>
	<rect x="126" y="152.992" fill="#EFD1B8" width="6" height="6"/>
	<rect x="138" y="152.992" fill="#C79C89" width="6" height="6"/>
	<rect x="132" y="152.992" fill="#EFC8A6" width="6" height="6"/>
	<rect x="144" y="152.992" fill="#E5B29B" width="6" height="6"/>
	<rect x="156" y="152.992" fill="#F1F2F2" width="6" height="6"/>
	<rect x="150" y="152.992" fill="#EFC8A6" width="6" height="6"/>
	<rect x="138" y="158.977" fill="#FFFFFF" width="6" height="6"/>
	<rect x="132" y="158.977" fill="#FFFFFF" width="6" height="6"/>
	<rect x="126" y="158.977" fill="#FFFFFF" width="6" height="6"/>
	<rect x="144" y="158.977" fill="#C79C89" width="6" height="6"/>
	<rect x="150" y="158.977" fill="#EFC8A6" width="6" height="6"/>
	<rect x="138" y="164.969" fill="#E3A193" width="6" height="6"/>
	<rect x="132" y="164.969" fill="#E3A193" width="6" height="6"/>
	<rect x="144" y="164.969" fill="#EFC8A6" width="6" height="6"/>
	<rect x="150" y="164.969" fill="#E5B29B" width="6" height="6"/>
	<rect x="138" y="170.969" fill="#EFC8A6" width="6" height="6"/>
	<rect x="132" y="170.969" fill="#EFC8A6" width="6" height="6"/>
	<rect x="126" y="164.969" fill="#E3A193" width="6" height="6"/>
	<rect x="126" y="170.969" fill="#E5B29B" width="6" height="6"/>
	<rect x="144" y="170.969" fill="#EFC8A6" width="6" height="6"/>
	<rect x="138" y="176.969" fill="#C79C89" width="6" height="6"/>
	<rect x="144" y="176.969" fill="#EFC8A6" width="6" height="6"/>
	<rect x="138" y="182.969" fill="#EFC8A6" width="6" height="6"/>
	<rect x="144" y="182.969" fill="#C79C89" width="6" height="6"/>
	<rect x="150" y="176.969" fill="#EFC8A6" width="6" height="6"/>
	<rect x="150" y="170.969" fill="#EFC8A6" width="6" height="6"/>
	<rect x="156" y="170.969" fill="#EFD1B8" width="6" height="6"/>
	<rect x="156" y="176.969" fill="#EFC8A6" width="6" height="6"/>
	<rect x="156" y="182.969" fill="#EFC8A6" width="6" height="6"/>
	<rect x="150" y="182.969" fill="#EFC8A6" width="6" height="6"/>
	<rect x="132" y="182.969" fill="#231F20" width="6" height="6"/>
	<rect x="126" y="182.969" fill="#323133" width="6" height="6"/>
	<rect x="162" y="182.969" fill="#231F20" width="6" height="6"/>
	<rect x="168" y="182.969" fill="#323133" width="6" height="6"/>
	<rect x="174" y="182.969" fill="#323133" width="6" height="6"/>
	<rect x="138" y="194.969" fill="#231F20" width="6" height="6"/>
	<rect x="144" y="194.969" fill="#231F20" width="6" height="6"/>
	<rect x="156" y="194.969" fill="#231F20" width="6" height="6"/>
	<rect x="150" y="194.969" fill="#231F20" width="6" height="6"/>
	<rect x="132" y="194.969" fill="#323133" width="6" height="6"/>
	<rect x="132" y="200.969" fill="#323133" width="6" height="6"/>
	<rect x="126" y="194.969" fill="#323133" width="6" height="6"/>
	<rect x="120" y="194.969" fill="#323133" width="6" height="6"/>
	<rect x="162" y="194.969" fill="#323133" width="6" height="6"/>
	<rect x="168" y="194.969" fill="#323133" width="6" height="6"/>
	<rect x="174" y="194.969" fill="#323133" width="6" height="6"/>
	<rect x="180" y="194.969" fill="#323133" width="6" height="6"/>
	<rect x="138" y="206.969" fill="#323133" width="6" height="6"/>
	<rect x="144" y="206.969" fill="#323133" width="6" height="6"/>
	<rect x="156" y="206.969" fill="#323133" width="6" height="6"/>
	<rect x="150" y="206.969" fill="#323133" width="6" height="6"/>
	<rect x="132" y="206.969" fill="#323133" width="6" height="6"/>
	<rect x="126" y="206.969" fill="#323133" width="6" height="6"/>
	<rect x="120" y="206.969" fill="#231F20" width="6" height="6"/>
	<rect x="162" y="206.969" fill="#323133" width="6" height="6"/>
	<rect x="168" y="206.969" fill="#231F20" width="6" height="6"/>
	<rect x="174" y="206.969" fill="#EFC8A6" width="6" height="6"/>
	<rect x="180" y="206.969" fill="#EFC8A6" width="6" height="6"/>
	<rect x="138" y="188.969" fill="#EFC8A6" width="6" height="6"/>
	<rect x="144" y="188.969" fill="#EFC8A6" width="6" height="6"/>
	<rect x="156" y="188.969" fill="#EFC8A6" width="6" height="6"/>
	<rect x="150" y="188.969" fill="#EFC8A6" width="6" height="6"/>
	<rect x="132" y="188.969" fill="#231F20" width="6" height="6"/>
	<rect x="126" y="188.969" fill="#323133" width="6" height="6"/>
	<rect x="120" y="188.969" fill="#323133" width="6" height="6"/>
	<rect x="162" y="188.969" fill="#231F20" width="6" height="6"/>
	<rect x="168" y="188.969" fill="#323133" width="6" height="6"/>
	<rect x="174" y="188.969" fill="#323133" width="6" height="6"/>
	<rect x="180" y="188.969" fill="#323133" width="6" height="6"/>
	<rect x="138" y="200.969" fill="#323133" width="6" height="6"/>
	<rect x="144" y="200.969" fill="#323133" width="6" height="6"/>
	<rect x="156" y="200.969" fill="#323133" width="6" height="6"/>
	<rect x="150" y="200.969" fill="#323133" width="6" height="6"/>
	<rect x="132" y="200.969" fill="#323133" width="6" height="6"/>
	<rect x="126" y="200.969" fill="#323133" width="6" height="6"/>
	<rect x="120" y="200.969" fill="#231F20" width="6" height="6"/>
	<rect x="114" y="194.969" fill="#323133" width="6" height="6"/>
	<rect x="114" y="188.969" fill="#323133" width="6" height="6"/>
	<rect x="114" y="206.969" fill="#EFD1B8" width="6" height="6"/>
	<rect x="114" y="200.969" fill="#323133" width="6" height="6"/>
	<rect x="108" y="194.969" fill="#323133" width="6" height="6"/>
	<rect x="108" y="206.969" fill="#EFD1B8" width="6" height="6"/>
	<rect x="108" y="200.969" fill="#323133" width="6" height="6"/>
	<rect x="162" y="200.969" fill="#323133" width="6" height="6"/>
	<rect x="168" y="200.969" fill="#231F20" width="6" height="6"/>
	<rect x="174" y="200.969" fill="#323133" width="6" height="6"/>
	<rect x="180" y="200.969" fill="#323133" width="6" height="6"/>
	<rect x="186" y="194.969" fill="#323133" width="6" height="6"/>
	<rect x="186" y="206.969" fill="#EFC8A6" width="6" height="6"/>
	<rect x="186" y="200.969" fill="#323133" width="6" height="6"/>
	<rect x="162" y="152.992" fill="#BCBEC0" width="6" height="6"/>
	<rect x="167.992" y="158.984" fill="#BCBEC0" width="6" height="6"/>
	<rect x="156" y="147" fill="#939598" width="6" height="6"/>
	<rect x="162" y="147" fill="#ECEEEE" width="6" height="6"/>
	<rect x="156" y="164.969" fill="#BCBEC0" width="6" height="6"/>
	<rect x="162" y="164.969" fill="#F1F2F2" width="6" height="6"/>
	<rect x="156" y="158.977" fill="#E6E7E8" width="6" height="6"/>
	<rect x="162" y="158.977" fill="#939598" width="6" height="6"/>
	<rect x="167.992" y="164.977" fill="#939598" width="6" height="6"/>
	<rect x="167.992" y="170.969" fill="#BCBEC0" width="6" height="6"/>
	<rect x="174" y="176.969" fill="#BCBEC0" width="6" height="6"/>
	<rect x="156" y="140.992" fill="#ECEEEE" width="6" height="6"/>
	<rect x="162" y="140.992" fill="#DFE0E1" width="6" height="6"/>
	<rect x="156" y="135" fill="#808285" width="6" height="6"/>
	<rect x="162" y="135" fill="#E6E7E8" width="6" height="6"/>
	<rect x="168" y="140.992" fill="#E6E7E8" width="6" height="6"/>
	<rect x="168" y="135" fill="#BCBEC0" width="6" height="6"/>
	<rect x="132" y="129.031" fill="#ADAFB2" width="6" height="6"/>
	<rect x="138" y="129.031" fill="#ADAFB2" width="6" height="6"/>
	<rect x="144" y="129.031" fill="#95989B" width="6" height="6"/>
	<rect x="150" y="129.031" fill="#95989B" width="6" height="6"/>
	<rect x="132" y="135" fill="#AA6D2D" width="6" height="6"/>
	<rect x="138" y="135" fill="#AFAFA2" width="6" height="6"/>
	<rect x="132" y="135" fill="#EEE3E0" width="6" height="6"/>
	<rect x="144" y="135.008" fill="#EFC8A6" width="6" height="6"/>
	<rect x="150" y="135.008" fill="#EFC8A6" width="6" height="6"/>
	<rect x="132" y="141" fill="#AFAFA2" width="6" height="6"/>
	<rect x="138" y="141" fill="#EFD1B8" width="6" height="6"/>
	<rect x="144" y="141" fill="#EFC8A6" width="6" height="6"/>
	<rect x="150" y="140.992" fill="#EFC8A6" width="6" height="6"/>
	<rect x="132" y="146.992" fill="#EFD1B8" width="6" height="6"/>
	<rect x="138" y="146.992" fill="#E5B29B" width="6" height="6"/>
	<rect x="144" y="146.992" fill="#EFC8A6" width="6" height="6"/>
	<rect x="150" y="146.992" fill="#EFC8A6" width="6" height="6"/>
	<rect x="156" y="117.023" fill="#F1F2F2" width="6" height="6"/>
	<rect x="162" y="117.023" fill="#5A5B5E" width="6" height="6"/>
	<rect x="120" y="117.031" fill="#EFD1B8" width="6" height="6"/>
	<rect x="120" y="111.039" fill="#C79C89" width="6" height="6.008"/>
	<rect x="120" y="105.039" fill="#EFD1B8" width="6" height="6"/>
	<rect x="126" y="111.039" fill="#E5B29B" width="6" height="6"/>
	<rect x="132" y="111.039" fill="#C79C89" width="6" height="6.008"/>
	<rect x="138" y="111.039" fill="#EFC8A6" width="6" height="6.008"/>
	<rect x="144" y="111.039" fill="#EFC8A6" width="6" height="6.008"/>
	<rect x="150" y="111.039" fill="#EEBFA2" width="6" height="6"/>
	<rect x="156" y="111.039" fill="#5A5B5E" width="6" height="6"/>
	<rect x="126" y="105.039" fill="#EFD1B8" width="6" height="6"/>
	<rect x="126" y="99.039" fill="#EEE3E0" width="6" height="6"/>
	<rect x="132" y="93.039" fill="#EEE3E0" width="6" height="6"/>
	<rect x="132" y="99.039" fill="#EFD1B8" width="6" height="6"/>
	<rect x="138" y="99.039" fill="#EFD1B8" width="6" height="6"/>
	<rect x="144" y="99.039" fill="#EFD1B8" width="6" height="6"/>
	<rect x="150" y="99.039" fill="#808285" width="6" height="6"/>
	<rect x="156" y="105.039" fill="#5A5B5E" width="6" height="6"/>
	<rect x="156" y="99.039" fill="#5A5B5E" width="6" height="6"/>
	<rect x="138" y="93.039" fill="#EFD1B8" width="6" height="6"/>
	<rect x="144" y="93.039" fill="#808285" width="6" height="6"/>
	<rect x="150" y="93.039" fill="#5A5B5E" width="6" height="6"/>
	<rect x="156.004" y="87.031" fill="#808285" width="6" height="6"/>
	<rect x="162" y="105.039" fill="#5A5B5E" width="6" height="6"/>
	<rect x="132" y="105.039" fill="#EFC8A6" width="6" height="6"/>
	<rect x="138" y="105.039" fill="#EFC8A6" width="6" height="6"/>
	<rect x="144" y="105.039" fill="#EFC8A6" width="6" height="6"/>
	<rect x="150" y="105.039" fill="#EFD1B8" width="6" height="6"/>
	<rect x="162" y="111.039" fill="#939598" width="6" height="6"/>
	<rect x="156" y="123.023" fill="#A7A9AC" width="6" height="6"/>
	<rect x="162" y="123.023" fill="#F1F2F2" width="6" height="6"/>
	<rect x="156" y="129.023" fill="#808285" width="6" height="6"/>
	<rect x="162" y="129.023" fill="#BCBEC0" width="6" height="6"/>
	<rect x="168" y="117.023" fill="#A7A9AC" width="6" height="6"/>
	<rect x="168" y="111.039" fill="#A7A9AC" width="6" height="6"/>
	<rect x="174" y="111.039" fill="#E6E7E8" width="6" height="6"/>
	<rect x="168" y="105.039" fill="#E6E7E8" width="6" height="6"/>
	<rect x="162" y="99.039" fill="#5A5B5E" width="6" height="6"/>
	<rect x="168" y="93.039" fill="#5A5B5E" width="6" height="6"/>
	<rect x="168" y="123.023" fill="#E6E7E8" width="6" height="6"/>
	<rect x="174" y="117.023" fill="#808285" width="6" height="6"/>
	<rect x="174" y="123.023" fill="#A7A9AC" width="6" height="6"/>
	<rect x="168" y="147.008" fill="#DFE0E1" width="6" height="6"/>
	<rect x="168" y="153.008" fill="#ECEEEE" width="6" height="6"/>
	<rect x="168" y="129.023" fill="#F1F2F2" width="6" height="6"/>
	<rect x="174" y="140.992" fill="#BCBEC0" width="6" height="6"/>
	<rect x="179.938" y="147.062" fill="#BCBEC0" width="6" height="6"/>
	<rect x="179.938" y="158.977" fill="#BCBEC0" width="6" height="6"/>
	<rect x="179.938" y="164.984" fill="#ECEEEE" width="6" height="6"/>
	<rect x="186" y="158.977" fill="#BCBEC0" width="6" height="6"/>
	<rect x="179.938" y="170.969" fill="#ECEEEE" width="6" height="6"/>
	<rect x="186" y="170.969" fill="#ECEEEE" width="6" height="6"/>
	<rect x="174" y="147.008" fill="#BCBEC0" width="6" height="6"/>
	<rect x="174" y="153.008" fill="#BCBEC0" width="6" height="6"/>
	<rect x="174" y="158.984" fill="#ECEEEE" width="6" height="6"/>
	<rect x="174" y="164.984" fill="#BCBEC0" width="6" height="6"/>
	<rect x="174" y="135" fill="#E6E7E8" width="6" height="6"/>
	<rect x="179.938" y="140.992" fill="#E6E7E8" width="6" height="6"/>
	<rect x="174" y="129.023" fill="#E6E7E8" width="6" height="6"/>
</g>
</svg>
