<?xml version="1.0" encoding="utf-8"?>
<!-- Generator: Adobe Illustrator 16.0.0, SVG Export Plug-In . SVG Version: 6.00 Build 0)  -->
<!DOCTYPE svg PUBLIC "-//W3C//DTD SVG 1.1//EN" "http://www.w3.org/Graphics/SVG/1.1/DTD/svg11.dtd">
<svg version="1.1" id="Layer_1" xmlns="http://www.w3.org/2000/svg" xmlns:xlink="http://www.w3.org/1999/xlink" x="0px" y="0px"
	 width="300px" height="300px" viewBox="0 0 300 300" enable-background="new 0 0 300 300" xml:space="preserve">
<g>
	<rect x="120" y="102.043" fill="#EFD1B8" width="6" height="6"/>
	<rect x="126" y="102.039" fill="#EFD1B8" width="6" height="6"/>
	<rect x="132" y="102.039" fill="#EFD1B8" width="6" height="6"/>
	<rect x="138" y="102.039" fill="#F3D9D0" width="6" height="6"/>
	<rect x="144" y="102.039" fill="#F3D9D0" width="6" height="6"/>
	<rect x="150" y="102.039" fill="#F3D9D0" width="6" height="6"/>
	<rect x="126" y="96.039" fill="#EFD1B8" width="6" height="6"/>
	<rect x="132" y="96.039" fill="#F3D9D0" width="6" height="6"/>
	<rect x="138" y="96.039" fill="#464749" width="6" height="6"/>
	<rect x="144" y="96.039" fill="#594A42" width="6" height="6"/>
	<rect x="150" y="96.039" fill="#808285" width="6" height="6"/>
	<rect x="132" y="90.043" fill="#362906" width="6" height="6"/>
	<rect x="138" y="90.043" fill="#594A42" width="6" height="6"/>
	<rect x="144" y="90.043" fill="#808285" width="6" height="6"/>
	<rect x="150" y="90.043" fill="#453308" width="6" height="6"/>
	<rect x="120" y="114.027" fill="#F3D9D0" width="6" height="6"/>
	<rect x="126" y="114.027" fill="#F3D9D0" width="6" height="6"/>
	<rect x="132" y="114.027" fill="#F3D9D0" width="6" height="6"/>
	<rect x="138" y="114.027" fill="#EFD1B8" width="6" height="6"/>
	<rect x="144" y="114.027" fill="#EFD1B8" width="6" height="6"/>
	<rect x="150" y="114.027" fill="#EFD1B8" width="6" height="6"/>
	<rect x="120" y="120.027" fill="#EFCFC0" width="6" height="6"/>
	<rect x="126" y="120.027" fill="#726658" width="6" height="6"/>
	<rect x="132" y="120.027" fill="#808285" width="6" height="6"/>
	<rect x="138" y="120.027" fill="#F3D9D0" width="6" height="6"/>
	<rect x="144" y="120.027" fill="#EFD1B8" width="6" height="6"/>
	<rect x="150" y="120.027" fill="#EFD1B8" width="6" height="6"/>
	<rect x="120" y="126.027" fill="#EFD1B8" width="6" height="6"/>
	<rect x="126" y="126.027" fill="#EFD1B8" width="6" height="6"/>
	<rect x="120" y="132.004" fill="#E3C7B1" width="6" height="6"/>
	<rect x="126" y="132.004" fill="#594A42" width="6" height="6"/>
	<rect x="120" y="137.992" fill="#EFD1B8" width="6" height="6"/>
	<rect x="126" y="137.992" fill="#D7BFAA" width="6" height="6"/>
	<rect x="120" y="144.004" fill="#EFD1B8" width="6" height="6"/>
	<rect x="126" y="144.004" fill="#EFD1B8" width="6" height="6"/>
	<rect x="120" y="149.992" fill="#D7BFAA" width="6" height="6"/>
	<rect x="114" y="144.004" fill="#EFD1B8" width="6" height="6"/>
	<rect x="114" y="137.992" fill="#EFCFC0" width="6" height="6"/>
	<rect x="126" y="149.992" fill="#D7BFAA" width="6" height="6"/>
	<rect x="138" y="149.992" fill="#EFCFC0" width="6" height="6"/>
	<rect x="132" y="149.992" fill="#E3C7B1" width="6" height="6"/>
	<rect x="144" y="149.992" fill="#EFCFC0" width="6" height="6"/>
	<rect x="156" y="149.992" fill="#EFD1B8" width="6" height="6"/>
	<rect x="150" y="149.992" fill="#EFD1B8" width="6" height="6"/>
	<rect x="138" y="155.98" fill="#FFFFFF" width="6" height="6"/>
	<rect x="132" y="155.98" fill="#FFFFFF" width="6" height="6"/>
	<rect x="144" y="155.98" fill="#D28F8C" width="6" height="6"/>
	<rect x="150" y="155.98" fill="#EFD1B8" width="6" height="6"/>
	<rect x="138" y="161.969" fill="#D28F8C" width="6" height="6"/>
	<rect x="132" y="161.969" fill="#D28F8C" width="6" height="6"/>
	<rect x="144" y="161.969" fill="#E3C7B1" width="6" height="6"/>
	<rect x="150" y="161.969" fill="#EFD1B8" width="6" height="6"/>
	<rect x="138" y="167.969" fill="#E3C7B1" width="6" height="6"/>
	<rect x="132" y="167.969" fill="#D7BFAA" width="6" height="6"/>
	<rect x="144" y="167.969" fill="#D7BFAA" width="6" height="6"/>
	<rect x="138" y="173.969" fill="#EFD1B8" width="6" height="6"/>
	<rect x="132" y="173.969" fill="#EFD1B8" width="6" height="6"/>
	<rect x="144" y="173.969" fill="#EFD1B8" width="6" height="6"/>
	<rect x="150" y="173.969" fill="#D7BFAA" width="6" height="6"/>
	<rect x="150" y="167.969" fill="#EFD1B8" width="6" height="6"/>
	<rect x="156" y="167.969" fill="#D7BFAA" width="6" height="6"/>
	<rect x="162" y="149.992" fill="#EFD1B8" width="6" height="6"/>
	<rect x="156" y="144.004" fill="#EFD1B8" width="6" height="6"/>
	<rect x="162" y="144.004" fill="#EFD1B8" width="6" height="6"/>
	<rect x="156" y="161.969" fill="#EFD1B8" width="6" height="6"/>
	<rect x="162" y="161.969" fill="#EFD1B8" width="6" height="6"/>
	<rect x="162" y="167.969" fill="#EFD1B8" width="6" height="6"/>
	<rect x="156" y="155.98" fill="#EFD1B8" width="6" height="6"/>
	<rect x="162" y="155.98" fill="#EFD1B8" width="6" height="6"/>
	<rect x="156" y="137.992" fill="#E3C7B1" width="6" height="6"/>
	<rect x="162" y="137.992" fill="#E3C7B1" width="6" height="6"/>
	<rect x="156" y="132.004" fill="#EDD69F" width="6" height="6"/>
	<rect x="162" y="132.004" fill="#808285" width="6" height="6"/>
	<rect x="168" y="137.992" fill="#EFD1B8" width="6" height="6"/>
	<rect x="168" y="144.004" fill="#EFD1B8" width="6" height="6"/>
	<rect x="168" y="132.004" fill="#EFCFC0" width="6" height="6"/>
	<rect x="132" y="126.027" fill="#EFD1B8" width="6" height="6"/>
	<rect x="138" y="126.027" fill="#EFD1B8" width="6" height="6"/>
	<rect x="144" y="126.027" fill="#EFD1B8" width="6" height="6"/>
	<rect x="150" y="126.027" fill="#EFD1B8" width="6" height="6"/>
	<rect x="132" y="132.004" fill="#FFFFFF" width="6" height="6"/>
	<rect x="138" y="132.004" fill="#EFD1B8" width="6" height="6"/>
	<rect x="144" y="132.004" fill="#EFD1B8" width="6" height="6"/>
	<rect x="150" y="132.004" fill="#EFD1B8" width="6" height="6"/>
	<rect x="132" y="137.992" fill="#EFCFC0" width="6" height="6"/>
	<rect x="138" y="137.992" fill="#F3D9D0" width="6" height="6"/>
	<rect x="144" y="137.992" fill="#EFD1B8" width="6" height="6"/>
	<rect x="150" y="137.992" fill="#EFD1B8" width="6" height="6"/>
	<rect x="132" y="143.992" fill="#EFCFC0" width="6" height="6"/>
	<rect x="138" y="143.992" fill="#F3D9D0" width="6" height="6"/>
	<rect x="144" y="143.992" fill="#F3D9D0" width="6" height="6"/>
	<rect x="150" y="143.992" fill="#EFD1B8" width="6" height="6"/>
	<rect x="156" y="114.027" fill="#D7BFAA" width="6" height="6"/>
	<rect x="162" y="114.027" fill="#594A42" width="6" height="6"/>
	<rect x="120" y="108.039" fill="#F3D9D0" width="6" height="6"/>
	<rect x="126" y="108.039" fill="#F3D9D0" width="6" height="6"/>
	<rect x="132" y="108.039" fill="#EFD1B8" width="6" height="6"/>
	<rect x="138" y="108.039" fill="#EFD1B8" width="6" height="6"/>
	<rect x="144" y="108.039" fill="#EFD1B8" width="6" height="6"/>
	<rect x="150" y="108.039" fill="#EFD1B8" width="6" height="6"/>
	<rect x="156" y="108.039" fill="#F3D9D0" width="6" height="6"/>
	<rect x="156" y="102.039" fill="#F3D9D0" width="6" height="6"/>
	<rect x="162" y="108.039" fill="#808285" width="6" height="6"/>
	<rect x="156" y="120.027" fill="#D7BFAA" width="6" height="6"/>
	<rect x="156" y="132.004" fill="#E3C7B1" width="6" height="6"/>
	<rect x="162" y="120.027" fill="#808285" width="6" height="6"/>
	<rect x="168" y="114.027" fill="#808285" width="6" height="6"/>
	<rect x="156" y="96.043" fill="#362906" width="6" height="6"/>
	<rect x="162" y="102.043" fill="#594A42" width="6" height="6"/>
	<rect x="168" y="108.035" fill="#362906" width="6" height="6"/>
	<rect x="156" y="90.051" fill="#594A42" width="6" height="6"/>
	<rect x="162" y="96.051" fill="#464749" width="6" height="6"/>
	<rect x="168" y="102.039" fill="#808285" width="6" height="6"/>
	<rect x="162" y="90.051" fill="#808285" width="6" height="6"/>
	<rect x="168" y="96.051" fill="#464749" width="6" height="6"/>
	<rect x="174" y="102.039" fill="#808285" width="6" height="6"/>
	<rect x="168" y="120.027" fill="#5A5B5E" width="6" height="6"/>
	<rect x="174" y="114.027" fill="#808285" width="6" height="6"/>
	<rect x="180" y="114.027" fill="#808285" width="6" height="6"/>
	<rect x="180" y="120.027" fill="#808285" width="6" height="6"/>
	<rect x="180" y="126.027" fill="#808285" width="6" height="6"/>
	<rect x="174" y="108.035" fill="#464749" width="6" height="6"/>
	<rect x="174" y="120.027" fill="#464749" width="6" height="6"/>
	<rect x="168" y="149.992" fill="#808285" width="6" height="6"/>
	<rect x="168" y="126.027" fill="#F3D9D0" width="6" height="6"/>
	<rect x="174" y="132.004" fill="#F3D9D0" width="6" height="6"/>
	<rect x="174" y="137.992" fill="#EFD1B8" width="6" height="6"/>
	<rect x="174" y="126.027" fill="#F3D9D0" width="6" height="6"/>
	<rect x="156" y="126.027" fill="#D7BFAA" width="6" height="6"/>
	<rect x="162" y="126.027" fill="#464749" width="6" height="6"/>
	<rect x="144" y="179.969" fill="#EFD1B8" width="6" height="6"/>
	<rect x="138" y="179.957" fill="#D7BFAA" width="6" height="6"/>
	<rect x="162" y="173.957" fill="#EFD1B8" width="6" height="6"/>
	<rect x="168" y="173.957" fill="#9BD4D4" width="6" height="6"/>
	<rect x="150" y="179.957" fill="#EFC8A6" width="6" height="6"/>
	<rect x="156" y="173.969" fill="#EFD1B8" width="6" height="6"/>
	<rect x="156" y="179.957" fill="#EFD1B8" width="6" height="6"/>
	<rect x="132" y="179.957" fill="#9BD4D4" width="6" height="6"/>
	<rect x="126" y="179.957" fill="#9BD4D4" width="6" height="6"/>
	<rect x="162" y="179.957" fill="#9BD4D4" width="6" height="6"/>
	<rect x="168" y="179.957" fill="#9BD4D4" width="6" height="6"/>
	<rect x="174" y="179.957" fill="#82B8BB" width="6" height="6"/>
	<rect x="138" y="191.957" fill="#9BD4D4" width="6" height="6"/>
	<rect x="144" y="191.957" fill="#EFD1B8" width="6" height="6"/>
	<rect x="156" y="191.957" fill="#9BD4D4" width="6" height="6"/>
	<rect x="150" y="191.957" fill="#EFD1B8" width="6" height="6"/>
	<rect x="132" y="191.957" fill="#82B8BB" width="6" height="6"/>
	<rect x="132" y="197.957" fill="#9BD4D4" width="6" height="6"/>
	<rect x="126" y="191.957" fill="#82B8BB" width="6" height="6"/>
	<rect x="120" y="191.957" fill="#AFDAD4" width="6" height="6"/>
	<rect x="162" y="191.957" fill="#82B8BB" width="6" height="6"/>
	<rect x="168" y="191.957" fill="#AFDAD4" width="6" height="6"/>
	<rect x="174" y="191.957" fill="#AFDAD4" width="6" height="6"/>
	<rect x="180" y="191.957" fill="#AFDAD4" width="6" height="6"/>
	<rect x="138" y="203.957" fill="#82B8BB" width="6" height="6"/>
	<rect x="144" y="203.957" fill="#9BD4D4" width="6" height="6"/>
	<rect x="156" y="203.957" fill="#82B8BB" width="6" height="6"/>
	<rect x="150" y="203.957" fill="#9BD4D4" width="6" height="6"/>
	<rect x="132" y="203.957" fill="#82B8BB" width="6" height="6"/>
	<rect x="126" y="203.957" fill="#9BD4D4" width="6" height="6"/>
	<rect x="120" y="203.957" fill="#82B8BB" width="6" height="6"/>
	<rect x="162" y="203.957" fill="#82B8BB" width="6" height="6"/>
	<rect x="168" y="203.957" fill="#9BD4D4" width="6" height="6"/>
	<rect x="174" y="203.957" fill="#82B8BB" width="6" height="6"/>
	<rect x="180" y="203.957" fill="#9BD4D4" width="6" height="6"/>
	<rect x="138" y="185.957" fill="#EFD1B8" width="6" height="6"/>
	<rect x="144" y="185.957" fill="#D7BFAA" width="6" height="6"/>
	<rect x="156" y="185.957" fill="#EFD1B8" width="6" height="6"/>
	<rect x="150" y="185.957" fill="#EFD1B8" width="6" height="6"/>
	<rect x="132" y="185.957" fill="#9BD4D4" width="6" height="6"/>
	<rect x="126" y="185.957" fill="#9BD4D4" width="6" height="6"/>
	<rect x="120" y="185.957" fill="#82B8BB" width="6" height="6"/>
	<rect x="162" y="185.957" fill="#9BD4D4" width="6" height="6"/>
	<rect x="168" y="185.957" fill="#82B8BB" width="6" height="6"/>
	<rect x="174" y="185.957" fill="#9BD4D4" width="6" height="6"/>
	<rect x="180" y="185.957" fill="#9BD4D4" width="6" height="6"/>
	<rect x="138" y="197.957" fill="#9BD4D4" width="6" height="6"/>
	<rect x="144" y="197.957" fill="#EFD1B8" width="6" height="6"/>
	<rect x="156" y="197.957" fill="#9BD4D4" width="6" height="6"/>
	<rect x="150" y="197.957" fill="#EFD1B8" width="6" height="6"/>
	<rect x="132" y="197.957" fill="#82B8BB" width="6" height="6"/>
	<rect x="126" y="197.957" fill="#9BD4D4" width="6" height="6"/>
	<rect x="120" y="197.957" fill="#9BD4D4" width="6" height="6"/>
	<rect x="114" y="191.957" fill="#AFDAD4" width="6" height="6"/>
	<rect x="114" y="185.957" fill="#9BD4D4" width="6" height="6"/>
	<rect x="114" y="203.957" fill="#9BD4D4" width="6" height="6"/>
	<rect x="114" y="197.957" fill="#9BD4D4" width="6" height="6"/>
	<rect x="108" y="191.957" fill="#AFDAD4" width="6" height="6"/>
	<rect x="108" y="203.957" fill="#9BD4D4" width="6" height="6"/>
	<rect x="108" y="197.957" fill="#9BD4D4" width="6" height="6"/>
	<rect x="162" y="197.957" fill="#82B8BB" width="6" height="6"/>
	<rect x="168" y="197.957" fill="#9BD4D4" width="6" height="6"/>
	<rect x="174" y="197.957" fill="#9BD4D4" width="6" height="6"/>
	<rect x="180" y="197.957" fill="#9BD4D4" width="6" height="6"/>
	<rect x="186" y="191.957" fill="#AFDAD4" width="6" height="6"/>
	<rect x="186" y="203.957" fill="#9BD4D4" width="6" height="6"/>
	<rect x="186" y="197.957" fill="#9BD4D4" width="6" height="6"/>
</g>
</svg>
