<?xml version="1.0" encoding="utf-8"?>
<!-- Generator: Adobe Illustrator 16.0.0, SVG Export Plug-In . SVG Version: 6.00 Build 0)  -->
<!DOCTYPE svg PUBLIC "-//W3C//DTD SVG 1.1//EN" "http://www.w3.org/Graphics/SVG/1.1/DTD/svg11.dtd">
<svg version="1.1" id="Layer_1" xmlns="http://www.w3.org/2000/svg" xmlns:xlink="http://www.w3.org/1999/xlink" x="0px" y="0px"
	 width="300px" height="300px" viewBox="0 0 300 300" enable-background="new 0 0 300 300" xml:space="preserve">
<g>
	<rect x="131.252" y="179.971" fill="#EFD1B8" width="7.5" height="7.5"/>
	<rect x="138.752" y="179.971" fill="#D7BFAA" width="7.5" height="7.5"/>
	<rect x="146.252" y="179.971" fill="#D7BFAA" width="7.5" height="7.5"/>
	<rect x="131.252" y="187.432" fill="#FFFFFF" width="7.5" height="7.5"/>
	<rect x="138.752" y="187.432" fill="#EFD1B8" width="7.5" height="7.5"/>
	<rect x="146.252" y="187.432" fill="#EFD1B8" width="7.5" height="7.5"/>
	<rect x="153.748" y="179.971" fill="#D7BFAA" width="7.5" height="7.5"/>
	<rect x="153.748" y="187.432" fill="#EFD1B8" width="7.5" height="7.5"/>
	<rect x="146.252" y="202.446" fill="#FFFFFF" width="7.5" height="7.5"/>
	<rect x="138.752" y="194.946" fill="#FFFFFF" width="7.5" height="7.5"/>
	<rect x="153.752" y="194.946" fill="#FFFFFF" width="7.5" height="7.5"/>
	<rect x="146.252" y="194.946" fill="#FFFFFF" width="7.5" height="7.5"/>
	<rect x="161.248" y="187.446" fill="#FFFFFF" width="7.5" height="7.5"/>
	<rect x="161.248" y="194.946" fill="#7F95A5" width="7.5" height="7.5"/>
	<rect x="123.748" y="75.054" fill="#AE9D85" width="7.5" height="7.5"/>
	<rect x="131.248" y="75.054" fill="#726658" width="7.5" height="7.5"/>
	<rect x="138.748" y="75.054" fill="#9B8579" width="7.5" height="7.5"/>
	<rect x="108.748" y="90.039" fill="#F3D9D0" width="7.5" height="7.5"/>
	<rect x="116.248" y="90.039" fill="#EEE3E0" width="7.5" height="7.5"/>
	<rect x="123.748" y="90.039" fill="#EFD1B8" width="7.5" height="7.5"/>
	<rect x="131.248" y="90.039" fill="#EFD1B8" width="7.5" height="7.5"/>
	<rect x="138.748" y="90.039" fill="#EFD1B8" width="7.5" height="7.5"/>
	<rect x="146.248" y="90.039" fill="#D7BFAA" width="7.5" height="7.5"/>
	<rect x="108.748" y="97.539" fill="#EFD1B8" width="7.5" height="7.5"/>
	<rect x="116.248" y="97.539" fill="#EFD1B8" width="7.5" height="7.5"/>
	<rect x="123.748" y="97.539" fill="#EFD1B8" width="7.5" height="7.5"/>
	<rect x="131.248" y="97.539" fill="#EFD1B8" width="7.5" height="7.5"/>
	<rect x="138.748" y="97.539" fill="#EFD1B8" width="7.5" height="7.5"/>
	<rect x="146.248" y="97.539" fill="#EFD1B8" width="7.5" height="7.5"/>
	<rect x="108.748" y="105.039" fill="#F3D9D0" width="7.5" height="7.5"/>
	<rect x="116.248" y="105.039" fill="#F3D9D0" width="7.5" height="7.5"/>
	<rect x="108.748" y="112.51" fill="#634B1C" width="7.5" height="7.5"/>
	<rect x="116.248" y="112.51" fill="#9B8579" width="7.5" height="7.5"/>
	<rect x="108.748" y="127.446" fill="#1A1818" width="7.5" height="7.5"/>
	<rect x="116.248" y="127.461" fill="#7F95A5" width="7.5" height="7.5"/>
	<rect x="108.748" y="134.976" fill="#EFD1B8" width="7.5" height="7.5"/>
	<rect x="116.248" y="134.961" fill="#1A1818" width="7.5" height="7.5"/>
	<rect x="108.748" y="142.461" fill="#726658" width="7.5" height="7.5"/>
	<rect x="101.248" y="134.961" fill="#EFD1B8" width="7.5" height="7.5"/>
	<rect x="93.748" y="134.961" fill="#F3D9D0" width="7.5" height="7.5"/>
	<rect x="101.248" y="127.461" fill="#F3D9D0" width="7.5" height="7.5"/>
	<rect x="116.248" y="142.461" fill="#726658" width="7.5" height="7.5"/>
	<rect x="131.248" y="142.461" fill="#C2B59B" width="7.5" height="7.5"/>
	<rect x="123.748" y="142.461" fill="#9B8579" width="7.5" height="7.5"/>
	<rect x="138.748" y="142.461" fill="#C2B59B" width="7.5" height="7.5"/>
	<rect x="161.248" y="142.461" fill="#9B8579" width="7.5" height="7.5"/>
	<rect x="146.248" y="142.461" fill="#F3D9D0" width="7.5" height="7.5"/>
	<rect x="131.248" y="149.946" fill="#FFFFFF" width="7.5" height="7.5"/>
	<rect x="123.748" y="149.946" fill="#FFFFFF" width="7.5" height="7.5"/>
	<rect x="138.748" y="149.946" fill="#FFFFFF" width="7.5" height="7.5"/>
	<rect x="146.248" y="149.946" fill="#BB807B" width="7.5" height="7.5"/>
	<rect x="131.248" y="157.432" fill="#D28F8C" width="7.5" height="7.5"/>
	<rect x="123.748" y="157.432" fill="#D28F8C" width="7.5" height="7.5"/>
	<rect x="138.748" y="157.432" fill="#BB807B" width="7.5" height="7.5"/>
	<rect x="146.248" y="157.432" fill="#E3C9B6" width="7.5" height="7.5"/>
	<rect x="131.248" y="164.932" fill="#E3C9B6" width="7.5" height="7.5"/>
	<rect x="123.748" y="164.932" fill="#9B8579" width="7.5" height="7.5"/>
	<rect x="138.748" y="164.932" fill="#E3C9B6" width="7.5" height="7.5"/>
	<rect x="146.248" y="164.932" fill="#9B8579" width="7.5" height="7.5"/>
	<rect x="153.748" y="164.932" fill="#9B8579" width="7.5" height="7.5"/>
	<rect x="168.748" y="142.461" fill="#E3C9B6" width="7.5" height="7.5"/>
	<rect x="161.248" y="134.976" fill="#9B8579" width="7.5" height="7.5"/>
	<rect x="161.248" y="157.432" fill="#9B8579" width="7.5" height="7.5"/>
	<rect x="161.248" y="149.946" fill="#9B8579" width="7.5" height="7.5"/>
	<rect x="161.252" y="164.932" fill="#EFD1B8" width="7.5" height="7.5"/>
	<rect x="161.248" y="127.461" fill="#726658" width="7.5" height="7.5"/>
	<rect x="168.748" y="134.937" fill="#EFD1B8" width="7.5" height="7.5"/>
	<rect x="176.252" y="134.937" fill="#EFD1B8" width="7.5" height="7.5"/>
	<rect x="161.248" y="112.51" fill="#726658" width="7.5" height="7.5"/>
	<rect x="168.748" y="119.985" fill="#F3D9D0" width="7.5" height="7.5"/>
	<rect x="123.748" y="105.039" fill="#F3D9D0" width="7.5" height="7.5"/>
	<rect x="131.248" y="105.039" fill="#EFD1B8" width="7.5" height="7.5"/>
	<rect x="138.748" y="105.039" fill="#EFD1B8" width="7.5" height="7.5"/>
	<rect x="146.248" y="105.039" fill="#EFD1B8" width="7.5" height="7.5"/>
	<rect x="123.748" y="112.51" fill="#EFD1B8" width="7.5" height="7.5"/>
	<rect x="131.248" y="112.51" fill="#EFD1B8" width="7.5" height="7.5"/>
	<rect x="138.748" y="112.51" fill="#EFD1B8" width="7.5" height="7.5"/>
	<rect x="146.248" y="112.51" fill="#EFD1B8" width="7.5" height="7.5"/>
	<rect x="108.748" y="119.961" fill="#1A1818" width="7.5" height="7.5"/>
	<rect x="116.248" y="119.961" fill="#1A1818" width="7.5" height="7.5"/>
	<rect x="161.248" y="119.961" fill="#1A1818" width="7.5" height="7.5"/>
	<rect x="168.748" y="127.451" fill="#C2B59B" width="7.5" height="7.5"/>
	<rect x="176.252" y="119.985" fill="#EFD1B8" width="7.5" height="7.5"/>
	<rect x="176.252" y="127.451" fill="#EFD1B8" width="7.5" height="7.5"/>
	<rect x="123.748" y="119.961" fill="#1A1818" width="7.5" height="7.5"/>
	<rect x="131.248" y="119.961" fill="#464749" width="7.5" height="7.5"/>
	<rect x="138.748" y="119.961" fill="#1A1818" width="7.5" height="7.5"/>
	<rect x="146.248" y="119.961" fill="#1A1818" width="7.5" height="7.5"/>
	<rect x="123.748" y="127.461" fill="#FFFFFF" width="7.5" height="7.5"/>
	<rect x="131.248" y="127.461" fill="#1A1818" width="7.5" height="7.5"/>
	<rect x="138.748" y="127.461" fill="#EFD1B8" width="7.5" height="7.5"/>
	<rect x="146.248" y="127.461" fill="#E3C9B6" width="7.5" height="7.5"/>
	<rect x="123.748" y="134.961" fill="#1A1818" width="7.5" height="7.5"/>
	<rect x="131.248" y="134.961" fill="#F3D9D0" width="7.5" height="7.5"/>
	<rect x="138.748" y="134.961" fill="#F3D9D0" width="7.5" height="7.5"/>
	<rect x="146.248" y="134.961" fill="#EFD1B8" width="7.5" height="7.5"/>
	<rect x="161.248" y="90.039" fill="#9B8579" width="7.5" height="7.5"/>
	<rect x="168.748" y="90.039" fill="#726658" width="7.5" height="7.5"/>
	<rect x="116.248" y="82.554" fill="#AE9D85" width="7.5" height="7.5"/>
	<rect x="123.748" y="82.554" fill="#9B8579" width="7.5" height="7.5"/>
	<rect x="131.248" y="82.554" fill="#D7BFAA" width="7.5" height="7.5"/>
	<rect x="138.748" y="82.554" fill="#D7BFAA" width="7.5" height="7.5"/>
	<rect x="146.248" y="82.554" fill="#726658" width="7.5" height="7.5"/>
	<rect x="161.248" y="82.554" fill="#726658" width="7.5" height="7.5"/>
	<rect x="146.248" y="75.054" fill="#726658" width="7.5" height="7.5"/>
	<rect x="161.248" y="97.539" fill="#AE9D85" width="7.5" height="7.5"/>
	<rect x="168.748" y="97.539" fill="#9B8579" width="7.5" height="7.5"/>
	<rect x="161.248" y="105.039" fill="#9B8579" width="7.5" height="7.5"/>
	<rect x="153.752" y="142.461" fill="#EFD1B8" width="7.5" height="7.5"/>
	<rect x="153.752" y="134.976" fill="#EFD1B8" width="7.5" height="7.5"/>
	<rect x="153.752" y="157.432" fill="#9B8579" width="7.5" height="7.5"/>
	<rect x="153.752" y="149.946" fill="#9B8579" width="7.5" height="7.5"/>
	<rect x="153.752" y="127.461" fill="#EFD1B8" width="7.5" height="7.5"/>
	<rect x="153.752" y="112.51" fill="#D7BFAA" width="7.5" height="7.5"/>
	<rect x="153.752" y="119.961" fill="#1A1818" width="7.5" height="7.5"/>
	<rect x="153.752" y="90.039" fill="#D7BFAA" width="7.5" height="7.5"/>
	<rect x="153.752" y="82.554" fill="#9B8579" width="7.5" height="7.5"/>
	<rect x="153.752" y="75.054" fill="#726658" width="7.5" height="7.5"/>
	<rect x="168.752" y="82.554" fill="#594A42" width="7.5" height="7.5"/>
	<rect x="161.257" y="75.054" fill="#594A42" width="7.5" height="7.5"/>
	<rect x="153.752" y="97.539" fill="#D7BFAA" width="7.5" height="7.5"/>
	<rect x="153.752" y="105.039" fill="#D7BFAA" width="7.5" height="7.5"/>
	<rect x="168.748" y="105.039" fill="#726658" width="7.5" height="7.5"/>
	<rect x="176.252" y="90.039" fill="#594A42" width="7.5" height="7.5"/>
	<rect x="176.252" y="97.539" fill="#726658" width="7.5" height="7.5"/>
	<rect x="176.252" y="105.039" fill="#726658" width="7.5" height="7.5"/>
	<rect x="168.748" y="112.51" fill="#9B8579" width="7.5" height="7.5"/>
	<rect x="176.252" y="112.51" fill="#726658" width="7.5" height="7.5"/>
	<rect x="131.252" y="172.432" fill="#9B8579" width="7.5" height="7.5"/>
	<rect x="138.752" y="172.432" fill="#9B8579" width="7.5" height="7.5"/>
	<rect x="146.252" y="172.432" fill="#9B8579" width="7.5" height="7.5"/>
	<rect x="153.752" y="172.432" fill="#EFD1B8" width="7.5" height="7.5"/>
	<rect x="161.252" y="179.971" fill="#EFD1B8" width="7.5" height="7.5"/>
	<rect x="161.257" y="172.432" fill="#D7BFAA" width="7.5" height="7.5"/>
	<rect x="168.743" y="149.912" fill="#D7BFAA" width="7.5" height="7.5"/>
	<rect x="168.743" y="164.951" fill="#EFD1B8" width="7.5" height="7.5"/>
	<rect x="168.743" y="172.432" fill="#EFD1B8" width="7.5" height="7.5"/>
	<rect x="168.748" y="157.412" fill="#D7BFAA" width="7.5" height="7.5"/>
	<rect x="131.248" y="187.446" fill="#FFFFFF" width="7.5" height="7.5"/>
	<rect x="123.748" y="187.446" fill="#C7919B" width="7.5" height="7.5"/>
	<rect x="123.748" y="179.946" fill="#7F95A5" width="7.5" height="7.5"/>
	<rect x="116.404" y="179.946" fill="#C7919B" width="7.5" height="7.5"/>
	<rect x="131.248" y="194.946" fill="#AB7384" width="7.5" height="7.5"/>
	<rect x="123.748" y="194.946" fill="#7F95A5" width="7.5" height="7.5"/>
	<rect x="116.248" y="194.946" fill="#C7919B" width="7.5" height="7.5"/>
	<rect x="131.248" y="202.446" fill="#D8CBB7" width="7.5" height="7.5"/>
	<rect x="123.748" y="202.446" fill="#AB7384" width="7.5" height="7.5"/>
	<rect x="116.248" y="202.446" fill="#D8CBB7" width="7.5" height="7.5"/>
	<rect x="131.248" y="209.946" fill="#C7919B" width="7.5" height="7.5"/>
	<rect x="123.748" y="209.946" fill="#7F95A5" width="7.5" height="7.5"/>
	<rect x="116.248" y="209.946" fill="#C7919B" width="7.5" height="7.5"/>
	<rect x="131.248" y="217.446" fill="#D8CBB7" width="7.5" height="7.5"/>
	<rect x="138.748" y="202.446" fill="#C7919B" width="7.5" height="7.5"/>
	<rect x="138.748" y="209.946" fill="#D8CBB7" width="7.5" height="7.5"/>
	<rect x="138.748" y="217.446" fill="#AB7384" width="7.5" height="7.5"/>
	<rect x="146.248" y="209.946" fill="#C7919B" width="7.5" height="7.5"/>
	<rect x="146.248" y="217.446" fill="#7F95A5" width="7.5" height="7.5"/>
	<rect x="123.748" y="217.446" fill="#C7919B" width="7.5" height="7.5"/>
	<rect x="116.248" y="217.446" fill="#D8CBB7" width="7.5" height="7.5"/>
	<rect x="108.748" y="202.446" fill="#C7919B" width="7.5" height="7.5"/>
	<rect x="108.748" y="209.946" fill="#AB7384" width="7.5" height="7.5"/>
	<rect x="108.748" y="217.446" fill="#7F95A5" width="7.5" height="7.5"/>
	<rect x="168.752" y="179.946" fill="#C7919B" width="7.5" height="7.5"/>
	<rect x="176.252" y="179.946" fill="#AB7384" width="7.5" height="7.5"/>
	<rect x="176.252" y="172.446" fill="#AB7384" width="7.5" height="7.5"/>
	<rect x="183.752" y="172.446" fill="#7F95A5" width="7.5" height="7.5"/>
	<rect x="191.252" y="172.446" fill="#C7919B" width="7.5" height="7.5"/>
	<rect x="183.752" y="179.946" fill="#C7919B" width="7.5" height="7.5"/>
	<rect x="168.752" y="187.446" fill="#7F95A5" width="7.5" height="7.5"/>
	<rect x="176.252" y="187.446" fill="#C7919B" width="7.5" height="7.5"/>
	<rect x="183.752" y="187.446" fill="#7F95A5" width="7.5" height="7.5"/>
	<rect x="191.252" y="187.446" fill="#C7919B" width="7.5" height="7.5"/>
	<rect x="168.752" y="194.946" fill="#C7919B" width="7.5" height="7.5"/>
	<rect x="176.252" y="194.946" fill="#D8CBB7" width="7.5" height="7.5"/>
	<rect x="183.752" y="194.946" fill="#C7919B" width="7.5" height="7.5"/>
	<rect x="191.252" y="194.946" fill="#AB7384" width="7.5" height="7.5"/>
	<rect x="198.752" y="194.946" fill="#7F95A5" width="7.5" height="7.5"/>
	<rect x="168.752" y="202.446" fill="#D8CBB7" width="7.5" height="7.5"/>
	<rect x="176.252" y="202.446" fill="#AB7384" width="7.5" height="7.5"/>
	<rect x="183.752" y="202.446" fill="#D8CBB7" width="7.5" height="7.5"/>
	<rect x="191.252" y="202.446" fill="#C7919B" width="7.5" height="7.5"/>
	<rect x="198.752" y="202.446" fill="#D8CBB7" width="7.5" height="7.5"/>
	<rect x="168.752" y="209.946" fill="#C7919B" width="7.5" height="7.5"/>
	<rect x="176.252" y="209.946" fill="#7F95A5" width="7.5" height="7.5"/>
	<rect x="183.752" y="209.946" fill="#C7919B" width="7.5" height="7.5"/>
	<rect x="191.252" y="209.946" fill="#AB7384" width="7.5" height="7.5"/>
	<rect x="198.752" y="209.946" fill="#C7919B" width="7.5" height="7.5"/>
	<rect x="168.752" y="217.446" fill="#AB7384" width="7.5" height="7.5"/>
	<rect x="161.257" y="202.446" fill="#C7919B" width="7.5" height="7.5"/>
	<rect x="153.752" y="202.446" fill="#AB7384" width="7.5" height="7.5"/>
	<rect x="161.257" y="209.946" fill="#AB7384" width="7.5" height="7.5"/>
	<rect x="161.257" y="217.446" fill="#C7919B" width="7.5" height="7.5"/>
	<rect x="153.748" y="209.946" fill="#7F95A5" width="7.5" height="7.5"/>
	<rect x="153.748" y="217.446" fill="#D8CBB7" width="7.5" height="7.5"/>
	<rect x="176.252" y="217.446" fill="#C7919B" width="7.5" height="7.5"/>
	<rect x="183.752" y="217.446" fill="#D8CBB7" width="7.5" height="7.5"/>
	<rect x="191.252" y="217.446" fill="#C7919B" width="7.5" height="7.5"/>
	<rect x="198.752" y="217.446" fill="#7F95A5" width="7.5" height="7.5"/>
</g>
</svg>
