<?xml version="1.0" encoding="utf-8"?>
<!-- Generator: Adobe Illustrator 16.0.0, SVG Export Plug-In . SVG Version: 6.00 Build 0)  -->
<!DOCTYPE svg PUBLIC "-//W3C//DTD SVG 1.1//EN" "http://www.w3.org/Graphics/SVG/1.1/DTD/svg11.dtd">
<svg version="1.1" id="Layer_1" xmlns="http://www.w3.org/2000/svg" xmlns:xlink="http://www.w3.org/1999/xlink" x="0px" y="0px"
	 width="300px" height="300px" viewBox="0 0 300 300" enable-background="new 0 0 300 300" xml:space="preserve">
<g>
	<rect x="138" y="179.953" fill="#EFD1B8" width="6" height="6"/>
	<rect x="144" y="179.953" fill="#EFD1B8" width="6" height="6"/>
	<rect x="156" y="179.953" fill="#EAC4B2" width="6" height="6"/>
	<rect x="150" y="179.953" fill="#EFD1B8" width="6" height="6"/>
	<rect x="132" y="179.953" fill="#EAC4B2" width="6" height="6"/>
	<rect x="126" y="179.953" fill="#A6822B" width="6" height="6"/>
	<rect x="162" y="179.953" fill="#A6822B" width="6" height="6"/>
	<rect x="168" y="179.953" fill="#323133" width="6" height="6"/>
	<rect x="138" y="185.953" fill="#EAC4B2" width="6" height="6"/>
	<rect x="144" y="185.953" fill="#EFD1B8" width="6" height="6"/>
	<rect x="156" y="185.953" fill="#947B42" width="6" height="6"/>
	<rect x="150" y="185.953" fill="#EAC4B2" width="6" height="6"/>
	<rect x="132" y="185.953" fill="#947B42" width="6" height="6"/>
	<rect x="126" y="185.953" fill="#323133" width="6" height="6"/>
	<rect x="120" y="185.953" fill="#323133" width="6" height="6"/>
	<rect x="162" y="185.953" fill="#323133" width="6" height="6"/>
	<rect x="168" y="185.953" fill="#323133" width="6" height="6"/>
	<rect x="174" y="185.953" fill="#323133" width="6" height="6"/>
	<rect x="138" y="191.953" fill="#A6822B" width="6" height="6"/>
	<rect x="144" y="191.953" fill="#323133" width="6" height="6"/>
	<rect x="156" y="191.953" fill="#323133" width="6" height="6"/>
	<rect x="150" y="191.953" fill="#A6822B" width="6" height="6"/>
	<rect x="132" y="191.953" fill="#323133" width="6" height="6"/>
	<rect x="126" y="191.953" fill="#323133" width="6" height="6"/>
	<rect x="120" y="191.953" fill="#323133" width="6" height="6"/>
	<rect x="162" y="191.953" fill="#323133" width="6" height="6"/>
	<rect x="168" y="191.953" fill="#323133" width="6" height="6"/>
	<rect x="174" y="191.953" fill="#323133" width="6" height="6"/>
	<rect x="180" y="191.953" fill="#323133" width="6" height="6"/>
	<rect x="138" y="197.953" fill="#323133" width="6" height="6"/>
	<rect x="144" y="197.953" fill="#947B42" width="6" height="6"/>
	<rect x="156" y="197.953" fill="#323133" width="6" height="6"/>
	<rect x="150" y="197.953" fill="#323133" width="6" height="6"/>
	<rect x="132" y="197.953" fill="#323133" width="6" height="6"/>
	<rect x="126" y="197.953" fill="#1A1818" width="6" height="6"/>
	<rect x="120" y="197.953" fill="#323133" width="6" height="6"/>
	<rect x="114" y="191.953" fill="#323133" width="6" height="6"/>
	<rect x="114" y="197.953" fill="#323133" width="6" height="6"/>
	<rect x="162" y="197.953" fill="#323133" width="6" height="6"/>
	<rect x="168" y="197.953" fill="#1A1818" width="6" height="6"/>
	<rect x="174" y="197.953" fill="#323133" width="6" height="6"/>
	<rect x="180" y="197.953" fill="#323133" width="6" height="6"/>
	<rect x="126" y="108.047" fill="#E3C680" width="6" height="6"/>
	<rect x="132" y="108.047" fill="#947B42" width="6" height="6"/>
	<rect x="138" y="108.047" fill="#E3C680" width="6" height="6"/>
	<rect x="144" y="108.047" fill="#FFFAD8" width="6" height="6"/>
	<rect x="150" y="108.047" fill="#947B42" width="6" height="6"/>
	<rect x="126" y="114.047" fill="#E3C680" width="6" height="6"/>
	<rect x="132" y="114.047" fill="#947B42" width="6" height="6"/>
	<rect x="138" y="114.047" fill="#E3C680" width="6" height="6"/>
	<rect x="144" y="114.047" fill="#FFFAD8" width="6" height="6"/>
	<rect x="150" y="114.047" fill="#F7E0CF" width="6" height="6"/>
	<rect x="126" y="120.047" fill="#E3C680" width="6" height="6"/>
	<rect x="126" y="126.023" fill="#F7E0CF" width="6" height="6"/>
	<rect x="126" y="132.016" fill="#EAC4B2" width="6" height="6"/>
	<rect x="120" y="138.023" fill="#EFD1B8" width="6" height="6"/>
	<rect x="126" y="138.023" fill="#EFD1B8" width="6" height="6"/>
	<rect x="126" y="144.016" fill="#EFD1B8" width="6" height="6"/>
	<rect x="138" y="144.016" fill="#EEE3E0" width="6" height="6"/>
	<rect x="132" y="144.016" fill="#EFD1B8" width="6" height="6"/>
	<rect x="144" y="144.016" fill="#EAC4B2" width="6" height="6"/>
	<rect x="156" y="144.016" fill="#947B42" width="6" height="6"/>
	<rect x="150" y="144.016" fill="#EFD1B8" width="6" height="6"/>
	<rect x="138" y="150" fill="#FFFFFF" width="6" height="6"/>
	<rect x="132" y="150" fill="#FFFFFF" width="6" height="6"/>
	<rect x="144" y="150" fill="#9D575A" width="6" height="6"/>
	<rect x="150" y="150" fill="#EEE3E0" width="6" height="6"/>
	<rect x="138" y="155.992" fill="#D36368" width="6" height="6"/>
	<rect x="132" y="155.992" fill="#D36368" width="6" height="6"/>
	<rect x="144" y="155.992" fill="#EFD1B8" width="6" height="6"/>
	<rect x="150" y="155.992" fill="#EFD1B8" width="6" height="6"/>
	<rect x="138" y="161.992" fill="#EFD1B8" width="6" height="6"/>
	<rect x="132" y="161.992" fill="#EFD1B8" width="6" height="6"/>
	<rect x="144" y="161.992" fill="#EFD1B8" width="6" height="6"/>
	<rect x="138" y="167.992" fill="#C79C89" width="6" height="6"/>
	<rect x="144" y="167.992" fill="#E5B29B" width="6" height="6"/>
	<rect x="150" y="167.992" fill="#EFD1B8" width="6" height="6"/>
	<rect x="138" y="173.961" fill="#F7E0CF" width="6" height="6"/>
	<rect x="144" y="173.961" fill="#C79C89" width="6" height="6"/>
	<rect x="150" y="173.961" fill="#EFD1B8" width="6" height="6"/>
	<rect x="150" y="161.992" fill="#E5B29B" width="6" height="6"/>
	<rect x="156" y="161.992" fill="#947B42" width="6" height="6"/>
	<rect x="156" y="168.008" fill="#947B42" width="6" height="6"/>
	<rect x="156" y="174.008" fill="#947B42" width="6" height="6"/>
	<rect x="156" y="138.023" fill="#947B42" width="6" height="6"/>
	<rect x="162" y="138.023" fill="#E9D9A3" width="6" height="6"/>
	<rect x="156" y="155.992" fill="#947B42" width="6" height="6"/>
	<rect x="156" y="150" fill="#947B42" width="6" height="6"/>
	<rect x="156" y="132.016" fill="#E8CD8D" width="6" height="6"/>
	<rect x="162" y="132.016" fill="#E9D9A3" width="6" height="6"/>
	<rect x="156" y="126.023" fill="#E8CD8D" width="6" height="6"/>
	<rect x="162" y="126.023" fill="#E9D9A3" width="6" height="6"/>
	<rect x="168" y="132.016" fill="#E3C680" width="6" height="6"/>
	<rect x="168" y="126.023" fill="#E3C680" width="6" height="6"/>
	<rect x="132" y="120.047" fill="#947B42" width="6" height="6"/>
	<rect x="138" y="120.047" fill="#E3C680" width="6" height="6"/>
	<rect x="144" y="120.047" fill="#EFD1B8" width="6" height="6"/>
	<rect x="150" y="120.047" fill="#EEBFA2" width="6" height="6"/>
	<rect x="132" y="126.023" fill="#F7E0CF" width="6" height="6"/>
	<rect x="138" y="126.016" fill="#EFD1B8" width="6" height="6"/>
	<rect x="144" y="126.023" fill="#C8B19B" width="6" height="6"/>
	<rect x="150" y="126.023" fill="#EFD1B8" width="6" height="6"/>
	<rect x="132" y="132.016" fill="#5A4A42" width="6" height="6"/>
	<rect x="138" y="132.016" fill="#FFFFFF" width="6" height="6"/>
	<rect x="144" y="132.016" fill="#EFD1B8" width="6" height="6"/>
	<rect x="150" y="132.016" fill="#EFD1B8" width="6" height="6"/>
	<rect x="132" y="138.016" fill="#E5B29B" width="6" height="6"/>
	<rect x="138" y="138.016" fill="#F7E0CF" width="6" height="6"/>
	<rect x="144" y="138.016" fill="#EAC4B2" width="6" height="6"/>
	<rect x="150" y="138.016" fill="#EAC4B2" width="6" height="6"/>
	<rect x="156" y="108.047" fill="#EDCB8A" width="6" height="6"/>
	<rect x="162" y="108.047" fill="#E9D9A3" width="6" height="6"/>
	<rect x="162" y="102.062" fill="#E3C680" width="6" height="6"/>
	<rect x="168" y="102.062" fill="#FFFAD8" width="6" height="6"/>
	<rect x="126" y="102.062" fill="#E3C680" width="6" height="6"/>
	<rect x="132" y="102.062" fill="#947B42" width="6" height="6"/>
	<rect x="138" y="102.062" fill="#E3C680" width="6" height="6"/>
	<rect x="144" y="102.062" fill="#947B42" width="6" height="6"/>
	<rect x="150" y="102.062" fill="#EDCB8A" width="6" height="6"/>
	<rect x="132" y="96.062" fill="#FFFAD8" width="6" height="6"/>
	<rect x="138" y="96.062" fill="#947B42" width="6" height="6"/>
	<rect x="144" y="96.062" fill="#947B42" width="6" height="6"/>
	<rect x="150" y="96.062" fill="#E9D9A3" width="6" height="6"/>
	<rect x="156" y="102.062" fill="#E9D9A3" width="6" height="6"/>
	<rect x="156" y="96.047" fill="#E3C680" width="6" height="6"/>
	<rect x="162" y="96.047" fill="#FFFAD8" width="6" height="6"/>
	<rect x="156" y="114.047" fill="#947B42" width="6" height="6"/>
	<rect x="156" y="126.023" fill="#947B42" width="6" height="6"/>
	<rect x="156" y="132.016" fill="#947B42" width="6" height="6"/>
	<rect x="162" y="114.047" fill="#E9D9A3" width="6" height="6"/>
	<rect x="168" y="114.047" fill="#E3C680" width="6" height="6"/>
	<rect x="168" y="108.047" fill="#E3C680" width="6" height="6"/>
	<rect x="174" y="108.047" fill="#FFFAD8" width="6" height="6"/>
	<rect x="168" y="120.047" fill="#E3C680" width="6" height="6"/>
	<rect x="174" y="120.047" fill="#FFFAD8" width="6" height="6"/>
	<rect x="174" y="114.047" fill="#E9D9A3" width="6" height="6"/>
	<rect x="174" y="126.047" fill="#FFFAD8" width="6" height="6"/>
	<rect x="174" y="132.016" fill="#FFFAD8" width="6" height="6"/>
	<rect x="174" y="144.023" fill="#FFFAD8" width="6" height="6"/>
	<rect x="174" y="150.023" fill="#FFFAD8" width="6" height="6"/>
	<rect x="168" y="144.023" fill="#E3C680" width="6" height="6"/>
	<rect x="168" y="138.023" fill="#E3C680" width="6" height="6"/>
	<rect x="162" y="150.023" fill="#FFFAD8" width="6" height="6"/>
	<rect x="162" y="155.992" fill="#FFFAD8" width="6" height="6"/>
	<rect x="162" y="161.992" fill="#FFFAD8" width="6" height="6"/>
	<rect x="162" y="167.992" fill="#E9D9A3" width="6" height="6"/>
	<rect x="162" y="144.023" fill="#FFFAD8" width="6" height="6"/>
	<rect x="174" y="138.023" fill="#FFFAD8" width="6" height="6"/>
	<rect x="168" y="150.023" fill="#E3C680" width="6" height="6"/>
	<rect x="174" y="155.992" fill="#FFFAD8" width="6" height="6"/>
	<rect x="180" y="150.023" fill="#E9D9A3" width="6" height="6"/>
	<rect x="180" y="138.023" fill="#E9D9A3" width="6" height="6"/>
	<rect x="180" y="126.047" fill="#E9D9A3" width="6" height="6"/>
	<rect x="180" y="132.047" fill="#E9D9A3" width="6" height="6"/>
	<rect x="168" y="155.992" fill="#E3C680" width="6" height="6"/>
	<rect x="174" y="161.992" fill="#FFFAD8" width="6" height="6"/>
	<rect x="180" y="144" fill="#E9D9A3" width="6" height="6"/>
	<rect x="180" y="120.039" fill="#E9D9A3" width="6" height="6"/>
	<rect x="168" y="161.992" fill="#E3C680" width="6" height="6"/>
	<rect x="156" y="120.047" fill="#947B42" width="6" height="6"/>
	<rect x="162" y="120.047" fill="#E9D9A3" width="6" height="6"/>
</g>
</svg>
