<?xml version="1.0" encoding="utf-8"?>
<!-- Generator: Adobe Illustrator 16.0.0, SVG Export Plug-In . SVG Version: 6.00 Build 0)  -->
<!DOCTYPE svg PUBLIC "-//W3C//DTD SVG 1.1//EN" "http://www.w3.org/Graphics/SVG/1.1/DTD/svg11.dtd">
<svg version="1.1" id="Layer_1" xmlns="http://www.w3.org/2000/svg" xmlns:xlink="http://www.w3.org/1999/xlink" x="0px" y="0px"
	 width="300px" height="300px" viewBox="0 0 300 300" enable-background="new 0 0 300 300" xml:space="preserve">
<g>
	<rect x="117" y="108.072" fill="#947B42" width="6" height="6"/>
	<rect x="123" y="108.072" fill="#726658" width="6" height="6"/>
	<rect x="129" y="108.072" fill="#726658" width="6" height="6"/>
	<rect x="135" y="108.072" fill="#7359A3" width="6" height="6"/>
	<rect x="111" y="120.061" fill="#594A42" width="6" height="6"/>
	<rect x="117" y="120.061" fill="#594A42" width="6" height="6"/>
	<rect x="123" y="120.061" fill="#594A42" width="6" height="6"/>
	<rect x="129" y="120.061" fill="#947B42" width="6" height="6"/>
	<rect x="135" y="120.061" fill="#594A42" width="6" height="6"/>
	<rect x="141" y="120.061" fill="#594A42" width="6" height="6"/>
	<rect x="111" y="126.061" fill="#E8CD8D" width="6" height="6"/>
	<rect x="105" y="126.061" fill="#726658" width="6" height="6"/>
	<rect x="105" y="120.061" fill="#726658" width="6" height="6"/>
	<rect x="117" y="126.061" fill="#E8CD8D" width="6" height="6"/>
	<rect x="123" y="126.061" fill="#939598" width="6" height="6"/>
	<rect x="129" y="126.061" fill="#726658" width="6" height="6"/>
	<rect x="135" y="126.061" fill="#726658" width="6" height="6"/>
	<rect x="141" y="126.061" fill="#594A42" width="6" height="6"/>
	<rect x="111" y="132.061" fill="#E8CD8D" width="6" height="6"/>
	<rect x="117" y="132.061" fill="#EADAB2" width="6" height="6"/>
	<rect x="111" y="138.037" fill="#E8CD8D" width="6" height="6"/>
	<rect x="117" y="138.037" fill="#9B8579" width="6" height="6"/>
	<rect x="111" y="149.998" fill="#E8CD8D" width="6" height="6"/>
	<rect x="117" y="149.998" fill="#3B2314" width="6" height="6"/>
	<rect x="111" y="156.01" fill="#E8CD8D" width="6" height="6"/>
	<rect x="117" y="156.01" fill="#E8CD8D" width="6" height="6"/>
	<rect x="111" y="161.998" fill="#CDC09D" width="6" height="6"/>
	<rect x="105" y="156.025" fill="#E8CD8D" width="6" height="6"/>
	<rect x="99" y="156.025" fill="#E8CD8D" width="6" height="6"/>
	<rect x="105" y="150.025" fill="#EADAB2" width="6" height="6"/>
	<rect x="117" y="161.998" fill="#CDC09D" width="6" height="6"/>
	<rect x="129" y="161.998" fill="#CDC09D" width="6" height="6"/>
	<rect x="123" y="161.998" fill="#CDC09D" width="6" height="6"/>
	<rect x="135" y="161.998" fill="#E8CD8D" width="6" height="6"/>
	<rect x="147" y="161.998" fill="#E8CD8D" width="6" height="6"/>
	<rect x="141" y="161.998" fill="#EADAB2" width="6" height="6"/>
	<rect x="129" y="167.986" fill="#FFFFFF" width="6" height="6"/>
	<rect x="123" y="167.986" fill="#FFFFFF" width="6" height="6"/>
	<rect x="135" y="167.986" fill="#FFFFFF" width="6" height="6"/>
	<rect x="141" y="167.986" fill="#AD6D67" width="6" height="6"/>
	<rect x="129" y="173.975" fill="#C97D7A" width="6" height="6"/>
	<rect x="123" y="173.975" fill="#C97D7A" width="6" height="6"/>
	<rect x="135" y="173.975" fill="#AD6D67" width="6" height="6"/>
	<rect x="141" y="173.975" fill="#E8CD8D" width="6" height="6"/>
	<rect x="129" y="179.975" fill="#CDC09D" width="6" height="6"/>
	<rect x="123" y="179.975" fill="#CDC09D" width="6" height="6"/>
	<rect x="135" y="179.975" fill="#E8CD8D" width="6" height="6"/>
	<rect x="129" y="185.975" fill="#B5AA8C" width="6" height="6"/>
	<rect x="135" y="185.975" fill="#CDC09D" width="6" height="6"/>
	<rect x="129" y="197.943" fill="#E8CD8D" width="6" height="6"/>
	<rect x="135" y="197.943" fill="#E8CD8D" width="6" height="6"/>
	<rect x="141" y="185.975" fill="#E8CD8D" width="6" height="6"/>
	<rect x="129" y="191.943" fill="#CDC09D" width="6" height="6"/>
	<rect x="135" y="191.943" fill="#CDC09D" width="6" height="6"/>
	<rect x="141" y="191.943" fill="#E8CD8D" width="6" height="6"/>
	<rect x="141" y="179.975" fill="#E8CD8D" width="6" height="6"/>
	<rect x="147" y="179.975" fill="#E8CD8D" width="6" height="6"/>
	<rect x="147" y="191.943" fill="#006838" width="6" height="6"/>
	<rect x="153" y="191.943" fill="#2BB673" width="6" height="6"/>
	<rect x="159" y="185.975" fill="#2BB673" width="6" height="6"/>
	<rect x="159" y="191.943" fill="#2BB673" width="6" height="6"/>
	<rect x="159" y="179.975" fill="#2BB673" width="6" height="6"/>
	<rect x="165" y="185.975" fill="#2BB673" width="6" height="6"/>
	<rect x="165" y="179.975" fill="#2BB673" width="6" height="6"/>
	<rect x="165" y="173.928" fill="#78B7AA" width="6" height="6"/>
	<rect x="171" y="185.975" fill="#78B7AA" width="6" height="6"/>
	<rect x="171" y="179.975" fill="#78B7AA" width="6" height="6"/>
	<rect x="159" y="179.975" fill="#006838" width="6" height="6"/>
	<rect x="159" y="173.975" fill="#006838" width="6" height="6"/>
	<rect x="153" y="179.975" fill="#006838" width="6" height="6"/>
	<rect x="153" y="185.975" fill="#006838" width="6" height="6"/>
	<rect x="147" y="185.975" fill="#006838" width="6" height="6"/>
	<rect x="147" y="197.943" fill="#006838" width="6" height="6"/>
	<rect x="147" y="203.943" fill="#006838" width="6" height="6"/>
	<rect x="141" y="197.943" fill="#E8CD8D" width="6" height="6"/>
	<rect x="123" y="197.943" fill="#2BB673" width="6" height="6"/>
	<rect x="117" y="197.943" fill="#006838" width="6" height="6"/>
	<rect x="123" y="191.943" fill="#78B7AA" width="6" height="6"/>
	<rect x="153" y="197.943" fill="#2BB673" width="6" height="6"/>
	<rect x="159" y="197.943" fill="#006838" width="6" height="6"/>
	<rect x="165" y="197.943" fill="#2BB673" width="6" height="6"/>
	<rect x="129" y="209.943" fill="#006838" width="6" height="6"/>
	<rect x="135" y="209.943" fill="#2BB673" width="6" height="6"/>
	<rect x="147" y="209.943" fill="#2BB673" width="6" height="6"/>
	<rect x="141" y="209.943" fill="#2BB673" width="6" height="6"/>
	<rect x="123" y="209.943" fill="#006838" width="6" height="6"/>
	<rect x="117" y="209.943" fill="#2BB673" width="6" height="6"/>
	<rect x="111" y="209.943" fill="#006838" width="6" height="6"/>
	<rect x="153" y="209.943" fill="#006838" width="6" height="6"/>
	<rect x="159" y="209.943" fill="#2BB673" width="6" height="6"/>
	<rect x="165" y="209.943" fill="#2BB673" width="6" height="6"/>
	<rect x="171" y="209.943" fill="#006838" width="6" height="6"/>
	<rect x="129" y="221.943" fill="#006838" width="6" height="6"/>
	<rect x="135" y="221.943" fill="#2BB673" width="6" height="6"/>
	<rect x="147" y="221.943" fill="#2BB673" width="6" height="6"/>
	<rect x="141" y="221.943" fill="#006838" width="6" height="6"/>
	<rect x="123" y="221.943" fill="#2BB673" width="6" height="6"/>
	<rect x="117" y="221.943" fill="#006838" width="6" height="6"/>
	<rect x="111" y="221.943" fill="#2BB673" width="6" height="6"/>
	<rect x="153" y="221.943" fill="#006838" width="6" height="6"/>
	<rect x="159" y="221.943" fill="#2BB673" width="6" height="6"/>
	<rect x="165" y="221.943" fill="#006838" width="6" height="6"/>
	<rect x="171" y="221.943" fill="#2BB673" width="6" height="6"/>
	<rect x="129" y="203.943" fill="#006838" width="6" height="6"/>
	<rect x="135" y="203.943" fill="#006838" width="6" height="6"/>
	<rect x="141" y="203.943" fill="#006838" width="6" height="6"/>
	<rect x="123" y="203.943" fill="#2BB673" width="6" height="6"/>
	<rect x="117" y="203.943" fill="#006838" width="6" height="6"/>
	<rect x="111" y="203.943" fill="#78B7AA" width="6" height="6"/>
	<rect x="153" y="203.943" fill="#2BB673" width="6" height="6"/>
	<rect x="159" y="203.943" fill="#006838" width="6" height="6"/>
	<rect x="165" y="203.943" fill="#78B7AA" width="6" height="6"/>
	<rect x="171" y="203.943" fill="#78B7AA" width="6" height="6"/>
	<rect x="129" y="215.943" fill="#006838" width="6" height="6"/>
	<rect x="135" y="215.943" fill="#2BB673" width="6" height="6"/>
	<rect x="147" y="215.943" fill="#2BB673" width="6" height="6"/>
	<rect x="141" y="215.943" fill="#006838" width="6" height="6"/>
	<rect x="123" y="215.943" fill="#2BB673" width="6" height="6"/>
	<rect x="117" y="215.943" fill="#006838" width="6" height="6"/>
	<rect x="111" y="215.943" fill="#2BB673" width="6" height="6"/>
	<rect x="105" y="209.943" fill="#2BB673" width="6" height="6"/>
	<rect x="105" y="221.943" fill="#006838" width="6" height="6"/>
	<rect x="105" y="215.943" fill="#2BB673" width="6" height="6"/>
	<rect x="153" y="215.943" fill="#006838" width="6" height="6"/>
	<rect x="159" y="215.943" fill="#2BB673" width="6" height="6"/>
	<rect x="165" y="215.943" fill="#006838" width="6" height="6"/>
	<rect x="171" y="215.943" fill="#2BB673" width="6" height="6"/>
	<rect x="153" y="161.998" fill="#E8CD8D" width="6" height="6"/>
	<rect x="147" y="156.01" fill="#E8CD8D" width="6" height="6"/>
	<rect x="153" y="156.01" fill="#E8CD8D" width="6" height="6"/>
	<rect x="147" y="173.975" fill="#E8CD8D" width="6" height="6"/>
	<rect x="153" y="173.975" fill="#E8CD8D" width="6" height="6"/>
	<rect x="147" y="167.986" fill="#EADAB2" width="6" height="6"/>
	<rect x="153" y="167.986" fill="#E8CD8D" width="6" height="6"/>
	<rect x="147" y="149.998" fill="#939598" width="6" height="6"/>
	<rect x="153" y="149.998" fill="#E8CD8D" width="6" height="6"/>
	<rect x="147" y="138.037" fill="#947B42" width="6" height="6"/>
	<rect x="153" y="138.037" fill="#939598" width="6" height="6"/>
	<rect x="159" y="149.998" fill="#E8CD8D" width="6" height="6"/>
	<rect x="159" y="144.01" fill="#E8CD8D" width="6" height="6"/>
	<rect x="123" y="132.061" fill="#E8CD8D" width="6" height="6"/>
	<rect x="129" y="132.061" fill="#E8CD8D" width="6" height="6"/>
	<rect x="135" y="132.061" fill="#939598" width="6" height="6"/>
	<rect x="141" y="132.061" fill="#726658" width="6" height="6"/>
	<rect x="123" y="138.037" fill="#B69C53" width="6" height="6"/>
	<rect x="129" y="138.037" fill="#E8CD8D" width="6" height="6"/>
	<rect x="135" y="138.037" fill="#E8CD8D" width="6" height="6"/>
	<rect x="141" y="138.037" fill="#E8CD8D" width="6" height="6"/>
	<rect x="111" y="144.01" fill="#E8CD8D" width="6" height="6"/>
	<rect x="117" y="144.01" fill="#E8CD8D" width="6" height="6"/>
	<rect x="147" y="144.01" fill="#726658" width="6" height="6"/>
	<rect x="153" y="144.01" fill="#EADAB2" width="6" height="6"/>
	<rect x="123" y="144.01" fill="#E8CD8D" width="6" height="6"/>
	<rect x="129" y="144.01" fill="#E8CD8D" width="6" height="6"/>
	<rect x="135" y="144.01" fill="#E8CD8D" width="6" height="6"/>
	<rect x="141" y="144.01" fill="#808285" width="6" height="6"/>
	<rect x="123" y="149.998" fill="#FFFFFF" width="6" height="6"/>
	<rect x="129" y="149.998" fill="#E8CD8D" width="6" height="6"/>
	<rect x="135" y="149.998" fill="#E8CD8D" width="6" height="6"/>
	<rect x="141" y="149.998" fill="#726658" width="6" height="6"/>
	<rect x="123" y="155.998" fill="#E8CD8D" width="6" height="6"/>
	<rect x="129" y="155.998" fill="#E8CD8D" width="6" height="6"/>
	<rect x="135" y="155.998" fill="#E8CD8D" width="6" height="6"/>
	<rect x="141" y="155.998" fill="#E8CD8D" width="6" height="6"/>
	<rect x="147" y="120.061" fill="#662D91" width="6" height="6"/>
	<rect x="153" y="120.061" fill="#662D91" width="6" height="6"/>
	<rect x="111" y="114.072" fill="#726658" width="6" height="6"/>
	<rect x="117" y="114.072" fill="#594A42" width="6" height="6"/>
	<rect x="123" y="114.072" fill="#808285" width="6" height="6"/>
	<rect x="129" y="114.072" fill="#594A42" width="6" height="6"/>
	<rect x="135" y="114.072" fill="#726658" width="6" height="6"/>
	<rect x="141" y="114.072" fill="#7359A3" width="6" height="6"/>
	<rect x="147" y="114.072" fill="#662D91" width="6" height="6"/>
	<rect x="141" y="108.072" fill="#662D91" width="6" height="6"/>
	<rect x="135" y="102.072" fill="#662D91" width="6" height="6"/>
	<rect x="129" y="102.072" fill="#7359A3" width="6" height="6"/>
	<rect x="129" y="96.072" fill="#662D91" width="6" height="6"/>
	<rect x="123" y="96.072" fill="#7359A3" width="6" height="6"/>
	<rect x="141" y="102.072" fill="#262262" width="6" height="6"/>
	<rect x="147" y="108.072" fill="#262262" width="6" height="6"/>
	<rect x="153" y="114.072" fill="#262262" width="6" height="6"/>
	<rect x="159" y="120.061" fill="#262262" width="6" height="6"/>
	<rect x="159" y="114.072" fill="#262262" width="6" height="6"/>
	<rect x="147" y="126.061" fill="#947B42" width="6" height="6"/>
	<rect x="153" y="126.061" fill="#662D91" width="6" height="6"/>
	<rect x="147" y="132.061" fill="#939598" width="6" height="6"/>
	<rect x="153" y="132.061" fill="#726658" width="6" height="6"/>
	<rect x="159" y="138.037" fill="#E8CD8D" width="6" height="6"/>
	<rect x="159" y="126.061" fill="#662D91" width="6" height="6"/>
	<rect x="165" y="108.068" fill="#662D91" width="6" height="6"/>
	<rect x="165" y="114.068" fill="#662D91" width="6" height="6"/>
	<rect x="159" y="102.08" fill="#662D91" width="6" height="6"/>
	<rect x="159" y="108.08" fill="#662D91" width="6" height="6"/>
	<rect x="153" y="102.08" fill="#662D91" width="6" height="6"/>
	<rect x="153" y="108.08" fill="#262262" width="6" height="6"/>
	<rect x="147" y="102.08" fill="#262262" width="6" height="6"/>
	<rect x="159" y="96.072" fill="#FAC805" width="6" height="6"/>
	<rect x="159" y="90.072" fill="#662D91" width="6" height="6"/>
	<rect x="159" y="84.064" fill="#7359A3" width="6" height="6"/>
	<rect x="165" y="90.068" fill="#662D91" width="6" height="6"/>
	<rect x="165" y="84.061" fill="#FAC805" width="6" height="6"/>
	<rect x="171" y="90.072" fill="#662D91" width="6" height="6"/>
	<rect x="171" y="84.064" fill="#7359A3" width="6" height="6"/>
	<rect x="177" y="90.068" fill="#7359A3" width="6" height="6"/>
	<rect x="177" y="84.061" fill="#662D91" width="6" height="6"/>
	<rect x="165" y="102.076" fill="#7359A3" width="6" height="6"/>
	<rect x="171" y="108.068" fill="#FAC805" width="6" height="6"/>
	<rect x="171" y="102.076" fill="#662D91" width="6" height="6"/>
	<rect x="165" y="96.068" fill="#7359A3" width="6" height="6"/>
	<rect x="171" y="96.068" fill="#662D91" width="6" height="6"/>
	<rect x="153" y="96.072" fill="#7359A3" width="6" height="6"/>
	<rect x="147" y="96.072" fill="#7359A3" width="6" height="6"/>
	<rect x="171" y="114.068" fill="#662D91" width="6" height="6"/>
	<rect x="177" y="108.068" fill="#662D91" width="6" height="6"/>
	<rect x="177" y="102.076" fill="#662D91" width="6" height="6"/>
	<rect x="177" y="96.072" fill="#662D91" width="6" height="6"/>
	<rect x="183" y="90.068" fill="#662D91" width="6" height="6"/>
	<rect x="183" y="84.061" fill="#FAC805" width="6" height="6"/>
	<rect x="177" y="78.064" fill="#662D91" width="6" height="6"/>
	<rect x="177" y="72.057" fill="#7359A3" width="6" height="6"/>
	<rect x="183" y="78.064" fill="#662D91" width="6" height="6"/>
	<rect x="183" y="72.057" fill="#7359A3" width="6" height="6"/>
	<rect x="189" y="78.064" fill="#662D91" width="6" height="6"/>
	<rect x="195" y="78.064" fill="#662D91" width="6" height="6"/>
	<rect x="189" y="72.057" fill="#A595A9" width="6" height="6"/>
	<rect x="183" y="96.072" fill="#FAC805" width="6" height="6"/>
	<rect x="177" y="114.068" fill="#662D91" width="6" height="6"/>
	<rect x="171" y="120.061" fill="#662D91" width="6" height="6"/>
	<rect x="171" y="126.061" fill="#662D91" width="6" height="6"/>
	<rect x="165" y="120.061" fill="#262262" width="6" height="6"/>
	<rect x="165" y="126.061" fill="#262262" width="6" height="6"/>
	<rect x="159" y="132.061" fill="#662D91" width="6" height="6"/>
	<rect x="165" y="150.025" fill="#726658" width="6" height="6"/>
	<rect x="165" y="144.049" fill="#726658" width="6" height="6"/>
	<rect x="165" y="138.057" fill="#662D91" width="6" height="6"/>
	<rect x="165" y="132.057" fill="#662D91" width="6" height="6"/>
	<rect x="171" y="138.057" fill="#662D91" width="6" height="6"/>
	<rect x="177" y="144.049" fill="#662D91" width="6" height="6"/>
	<rect x="171" y="132.057" fill="#262262" width="6" height="6"/>
	<rect x="159" y="161.986" fill="#6D6E71" width="6" height="6"/>
	<rect x="159" y="167.994" fill="#594A42" width="6" height="6"/>
	<rect x="165" y="156.014" fill="#726658" width="6" height="6"/>
	<rect x="159" y="156.01" fill="#726658" width="6" height="6"/>
</g>
</svg>
