<?xml version="1.0" encoding="utf-8"?>
<!-- Generator: Adobe Illustrator 16.0.0, SVG Export Plug-In . SVG Version: 6.00 Build 0)  -->
<!DOCTYPE svg PUBLIC "-//W3C//DTD SVG 1.1//EN" "http://www.w3.org/Graphics/SVG/1.1/DTD/svg11.dtd">
<svg version="1.1" id="Layer_1" xmlns="http://www.w3.org/2000/svg" xmlns:xlink="http://www.w3.org/1999/xlink" x="0px" y="0px"
	 width="300px" height="300px" viewBox="0 0 300 300" enable-background="new 0 0 300 300" xml:space="preserve">
<g>
	<rect x="123.75" y="82.554" fill="#EFD1B8" width="7.5" height="7.5"/>
	<rect x="131.25" y="82.554" fill="#EFD1B8" width="7.5" height="7.5"/>
	<rect x="138.75" y="82.554" fill="#EFC8A6" width="7.5" height="7.5"/>
	<rect x="146.25" y="82.554" fill="#EFC8A6" width="7.5" height="7.5"/>
	<rect x="116.25" y="97.539" fill="#EFD1B8" width="7.5" height="7.5"/>
	<rect x="123.75" y="97.539" fill="#EFC8A6" width="7.5" height="7.5"/>
	<rect x="131.25" y="97.539" fill="#EFC8A6" width="7.5" height="7.5"/>
	<rect x="138.75" y="97.539" fill="#EED0C6" width="7.5" height="7.5"/>
	<rect x="146.25" y="97.539" fill="#EFC8A6" width="7.5" height="7.5"/>
	<rect x="153.75" y="97.539" fill="#EFC8A6" width="7.5" height="7.5"/>
	<rect x="116.25" y="105.039" fill="#EFD1B8" width="7.5" height="7.5"/>
	<rect x="123.75" y="105.039" fill="#EFD1B8" width="7.5" height="7.5"/>
	<rect x="131.25" y="105.039" fill="#EFC8A6" width="7.5" height="7.5"/>
	<rect x="138.75" y="105.039" fill="#EFC8A6" width="7.5" height="7.5"/>
	<rect x="146.25" y="105.039" fill="#EFC8A6" width="7.5" height="7.5"/>
	<rect x="153.75" y="105.039" fill="#EFC8A6" width="7.5" height="7.5"/>
	<rect x="116.25" y="112.539" fill="#EFD1B8" width="7.5" height="7.5"/>
	<rect x="123.75" y="112.539" fill="#726658" width="7.5" height="7.5"/>
	<rect x="116.25" y="120.01" fill="#EFD1B8" width="7.5" height="7.5"/>
	<rect x="123.75" y="120.01" fill="#EFD1B8" width="7.5" height="7.5"/>
	<rect x="116.25" y="127.495" fill="#EFC8A6" width="7.5" height="7.5"/>
	<rect x="123.75" y="127.495" fill="#EFC8A6" width="7.5" height="7.5"/>
	<rect x="116.25" y="135.01" fill="#EFC8A6" width="7.5" height="7.5"/>
	<rect x="123.75" y="135.01" fill="#EFC8A6" width="7.5" height="7.5"/>
	<rect x="116.25" y="142.495" fill="#EFC8A6" width="7.5" height="7.5"/>
	<rect x="108.75" y="127.488" fill="#EFD1B8" width="7.5" height="7.5"/>
	<rect x="108.75" y="134.995" fill="#EFC8A6" width="7.5" height="7.5"/>
	<rect x="101.25" y="134.995" fill="#EFC8A6" width="7.5" height="7.5"/>
	<rect x="123.75" y="142.495" fill="#EFC8A6" width="7.5" height="7.5"/>
	<rect x="138.75" y="142.495" fill="#EFC8A6" width="7.5" height="7.5"/>
	<rect x="131.25" y="142.495" fill="#EFC8A6" width="7.5" height="7.5"/>
	<rect x="146.25" y="142.495" fill="#E5B29B" width="7.5" height="7.5"/>
	<rect x="168.75" y="142.495" fill="#EFD1B8" width="7.5" height="7.5"/>
	<rect x="153.75" y="142.495" fill="#EFC8A6" width="7.5" height="7.5"/>
	<rect x="131.25" y="149.98" fill="#FFFFFF" width="7.5" height="7.5"/>
	<rect x="123.75" y="149.98" fill="#FFFFFF" width="7.5" height="7.5"/>
	<rect x="138.75" y="149.98" fill="#FFFFFF" width="7.5" height="7.5"/>
	<rect x="146.25" y="149.98" fill="#D7BFAA" width="7.5" height="7.5"/>
	<rect x="153.75" y="149.98" fill="#EFC8A6" width="7.5" height="7.5"/>
	<rect x="131.25" y="157.466" fill="#D36368" width="7.5" height="7.5"/>
	<rect x="123.75" y="157.466" fill="#D36368" width="7.5" height="7.5"/>
	<rect x="138.75" y="157.466" fill="#BB807B" width="7.5" height="7.5"/>
	<rect x="153.75" y="157.466" fill="#EFC8A6" width="7.5" height="7.5"/>
	<rect x="131.25" y="164.966" fill="#EFC8A6" width="7.5" height="7.5"/>
	<rect x="123.75" y="164.966" fill="#EFC8A6" width="7.5" height="7.5"/>
	<rect x="138.75" y="164.966" fill="#EFC8A6" width="7.5" height="7.5"/>
	<rect x="138.75" y="172.466" fill="#C2B59B" width="7.5" height="7.5"/>
	<rect x="146.25" y="172.466" fill="#C2B59B" width="7.5" height="7.5"/>
	<rect x="153.75" y="172.466" fill="#EFC8A6" width="7.5" height="7.5"/>
	<rect x="153.75" y="164.966" fill="#AE9D85" width="7.5" height="7.5"/>
	<rect x="146.25" y="157.466" fill="#EFC8A6" width="7.5" height="7.5"/>
	<rect x="146.25" y="164.966" fill="#C2B59B" width="7.5" height="7.5"/>
	<rect x="176.25" y="142.495" fill="#AE9D85" width="7.5" height="7.5"/>
	<rect x="168.75" y="135.01" fill="#EFC8A6" width="7.5" height="7.5"/>
	<rect x="176.25" y="135.01" fill="#AE9D85" width="7.5" height="7.5"/>
	<rect x="161.25" y="157.466" fill="#AE9D85" width="7.5" height="7.5"/>
	<rect x="161.25" y="149.98" fill="#EFC8A6" width="7.5" height="7.5"/>
	<rect x="168.75" y="149.98" fill="#BAA993" width="7.5" height="7.5"/>
	<rect x="168.75" y="127.495" fill="#BAA993" width="7.5" height="7.5"/>
	<rect x="176.25" y="127.495" fill="#EFC8A6" width="7.5" height="7.5"/>
	<rect x="168.75" y="120.01" fill="#BAA993" width="7.5" height="7.5"/>
	<rect x="176.25" y="120.01" fill="#EFC8A6" width="7.5" height="7.5"/>
	<rect x="183.75" y="127.488" fill="#EFC8A6" width="7.5" height="7.5"/>
	<rect x="183.75" y="120.002" fill="#EED0C6" width="7.5" height="7.5"/>
	<rect x="131.25" y="112.539" fill="#9B8579" width="7.5" height="7.5"/>
	<rect x="138.75" y="112.539" fill="#EFD1B8" width="7.5" height="7.5"/>
	<rect x="146.25" y="112.539" fill="#EFC8A6" width="7.5" height="7.5"/>
	<rect x="153.75" y="112.539" fill="#EFC8A6" width="7.5" height="7.5"/>
	<rect x="131.25" y="120.01" fill="#EFC8A6" width="7.5" height="7.5"/>
	<rect x="138.75" y="120.01" fill="#EFC8A6" width="7.5" height="7.5"/>
	<rect x="146.25" y="120.01" fill="#EFC8A6" width="7.5" height="7.5"/>
	<rect x="153.75" y="120.01" fill="#EFC8A6" width="7.5" height="7.5"/>
	<rect x="131.25" y="127.495" fill="#7F95A5" width="7.5" height="7.5"/>
	<rect x="138.75" y="127.495" fill="#FFFFFF" width="7.5" height="7.5"/>
	<rect x="146.25" y="127.495" fill="#EFC8A6" width="7.5" height="7.5"/>
	<rect x="153.75" y="127.495" fill="#EFC8A6" width="7.5" height="7.5"/>
	<rect x="131.25" y="134.995" fill="#EFD1B8" width="7.5" height="7.5"/>
	<rect x="138.75" y="134.995" fill="#E5B29B" width="7.5" height="7.5"/>
	<rect x="146.25" y="134.995" fill="#EFC8A6" width="7.5" height="7.5"/>
	<rect x="153.75" y="134.995" fill="#EFC8A6" width="7.5" height="7.5"/>
	<rect x="161.25" y="97.539" fill="#EFC8A6" width="7.5" height="7.5"/>
	<rect x="161.25" y="105.039" fill="#EFC8A6" width="7.5" height="7.5"/>
	<rect x="161.25" y="142.495" fill="#EFC8A6" width="7.5" height="7.5"/>
	<rect x="161.25" y="112.539" fill="#EFC8A6" width="7.5" height="7.5"/>
	<rect x="161.25" y="120.01" fill="#EFC8A6" width="7.5" height="7.5"/>
	<rect x="161.25" y="127.495" fill="#EFC8A6" width="7.5" height="7.5"/>
	<rect x="161.25" y="134.995" fill="#EFC8A6" width="7.5" height="7.5"/>
	<rect x="168.75" y="97.539" fill="#BAA993" width="7.5" height="7.5"/>
	<rect x="176.25" y="97.539" fill="#BAA993" width="7.5" height="7.5"/>
	<rect x="116.25" y="90.054" fill="#EFD1B8" width="7.5" height="7.5"/>
	<rect x="123.75" y="90.054" fill="#EFD1B8" width="7.5" height="7.5"/>
	<rect x="131.25" y="90.054" fill="#EED0C6" width="7.5" height="7.5"/>
	<rect x="138.75" y="90.054" fill="#EFD1B8" width="7.5" height="7.5"/>
	<rect x="146.25" y="90.054" fill="#EFC8A6" width="7.5" height="7.5"/>
	<rect x="153.75" y="90.054" fill="#EFC8A6" width="7.5" height="7.5"/>
	<rect x="161.25" y="90.054" fill="#BAA993" width="7.5" height="7.5"/>
	<rect x="153.75" y="82.554" fill="#EFC8A6" width="7.5" height="7.5"/>
	<rect x="168.75" y="90.054" fill="#BAA993" width="7.5" height="7.5"/>
	<rect x="161.25" y="82.554" fill="#C2B59B" width="7.5" height="7.5"/>
	<rect x="168.75" y="105.039" fill="#C2B59B" width="7.5" height="7.5"/>
	<rect x="176.25" y="105.039" fill="#C2B59B" width="7.5" height="7.5"/>
	<rect x="168.75" y="112.539" fill="#BAA993" width="7.5" height="7.5"/>
	<rect x="176.25" y="112.539" fill="#BAA993" width="7.5" height="7.5"/>
	<rect x="138.75" y="179.966" fill="#6D6F72" width="7.5" height="7.5"/>
	<rect x="146.25" y="179.966" fill="#EFC8A6" width="7.5" height="7.5"/>
	<rect x="153.75" y="179.966" fill="#6D6F72" width="7.5" height="7.5"/>
	<rect x="131.25" y="179.966" fill="#FFFFFF" width="7.5" height="7.5"/>
	<rect x="161.25" y="172.446" fill="#1B455E" width="7.5" height="7.5"/>
	<rect x="168.75" y="172.446" fill="#42607E" width="7.5" height="7.5"/>
	<rect x="176.25" y="164.985" fill="#42607E" width="7.5" height="7.5"/>
	<rect x="176.25" y="172.446" fill="#42607E" width="7.5" height="7.5"/>
	<rect x="176.25" y="157.485" fill="#1B455E" width="7.5" height="7.5"/>
	<rect x="183.75" y="164.985" fill="#42607E" width="7.5" height="7.5"/>
	<rect x="183.75" y="157.485" fill="#42607E" width="7.5" height="7.5"/>
	<rect x="168.75" y="157.485" fill="#1B455E" width="7.5" height="7.5"/>
	<rect x="161.25" y="164.985" fill="#EFC8A6" width="7.5" height="7.5"/>
	<rect x="168.75" y="164.985" fill="#1B455E" width="7.5" height="7.5"/>
	<rect x="161.25" y="179.946" fill="#5A5B5E" width="7.5" height="7.5"/>
	<rect x="131.25" y="179.946" fill="#42607E" width="7.5" height="7.5"/>
	<rect x="123.75" y="179.946" fill="#42607E" width="7.5" height="7.5"/>
	<rect x="168.75" y="179.946" fill="#F1F2F2" width="7.5" height="7.5"/>
	<rect x="176.25" y="179.946" fill="#42607E" width="7.5" height="7.5"/>
	<rect x="183.75" y="179.946" fill="#42607E" width="7.5" height="7.5"/>
	<rect x="138.75" y="194.946" fill="#42607E" width="7.5" height="7.5"/>
	<rect x="146.25" y="194.946" fill="#5A5B5E" width="7.5" height="7.5"/>
	<rect x="161.25" y="194.946" fill="#42607E" width="7.5" height="7.5"/>
	<rect x="153.75" y="194.946" fill="#42607E" width="7.5" height="7.5"/>
	<rect x="131.25" y="194.946" fill="#F1F2F2" width="7.5" height="7.5"/>
	<rect x="123.75" y="194.946" fill="#42607E" width="7.5" height="7.5"/>
	<rect x="116.25" y="194.946" fill="#42607E" width="7.5" height="7.5"/>
	<rect x="168.75" y="194.946" fill="#F1F2F2" width="7.5" height="7.5"/>
	<rect x="176.25" y="194.946" fill="#42607E" width="7.5" height="7.5"/>
	<rect x="183.75" y="194.946" fill="#42607E" width="7.5" height="7.5"/>
	<rect x="191.25" y="194.946" fill="#42607E" width="7.5" height="7.5"/>
	<rect x="138.75" y="209.946" fill="#42607E" width="7.5" height="7.5"/>
	<rect x="146.25" y="209.946" fill="#1B455E" width="7.5" height="7.5"/>
	<rect x="161.25" y="209.946" fill="#42607E" width="7.5" height="7.5"/>
	<rect x="153.75" y="209.946" fill="#42607E" width="7.5" height="7.5"/>
	<rect x="131.25" y="209.946" fill="#42607E" width="7.5" height="7.5"/>
	<rect x="123.75" y="209.946" fill="#1B455E" width="7.5" height="7.5"/>
	<rect x="116.25" y="209.946" fill="#42607E" width="7.5" height="7.5"/>
	<rect x="168.75" y="209.946" fill="#42607E" width="7.5" height="7.5"/>
	<rect x="176.25" y="209.946" fill="#1B455E" width="7.5" height="7.5"/>
	<rect x="183.75" y="209.946" fill="#42607E" width="7.5" height="7.5"/>
	<rect x="191.25" y="209.946" fill="#42607E" width="7.5" height="7.5"/>
	<rect x="138.75" y="187.446" fill="#6D6F72" width="7.5" height="7.5"/>
	<rect x="146.25" y="187.446" fill="#6D6F72" width="7.5" height="7.5"/>
	<rect x="161.25" y="187.446" fill="#42607E" width="7.5" height="7.5"/>
	<rect x="153.75" y="187.446" fill="#6D6F72" width="7.5" height="7.5"/>
	<rect x="131.25" y="187.446" fill="#F1F2F2" width="7.5" height="7.5"/>
	<rect x="123.75" y="187.446" fill="#42607E" width="7.5" height="7.5"/>
	<rect x="116.25" y="187.446" fill="#42607E" width="7.5" height="7.5"/>
	<rect x="168.75" y="187.446" fill="#F1F2F2" width="7.5" height="7.5"/>
	<rect x="176.25" y="187.446" fill="#42607E" width="7.5" height="7.5"/>
	<rect x="183.75" y="187.446" fill="#42607E" width="7.5" height="7.5"/>
	<rect x="191.25" y="187.446" fill="#42607E" width="7.5" height="7.5"/>
	<rect x="138.75" y="202.446" fill="#42607E" width="7.5" height="7.5"/>
	<rect x="146.25" y="202.446" fill="#1B455E" width="7.5" height="7.5"/>
	<rect x="161.25" y="202.446" fill="#42607E" width="7.5" height="7.5"/>
	<rect x="153.75" y="202.446" fill="#42607E" width="7.5" height="7.5"/>
	<rect x="131.25" y="202.446" fill="#F1F2F2" width="7.5" height="7.5"/>
	<rect x="123.75" y="202.446" fill="#42607E" width="7.5" height="7.5"/>
	<rect x="116.25" y="202.446" fill="#42607E" width="7.5" height="7.5"/>
	<rect x="108.75" y="194.946" fill="#42607E" width="7.5" height="7.5"/>
	<rect x="108.75" y="209.946" fill="#42607E" width="7.5" height="7.5"/>
	<rect x="108.75" y="202.446" fill="#42607E" width="7.5" height="7.5"/>
	<rect x="168.75" y="202.446" fill="#F1F2F2" width="7.5" height="7.5"/>
	<rect x="176.25" y="202.446" fill="#42607E" width="7.5" height="7.5"/>
	<rect x="183.75" y="202.446" fill="#42607E" width="7.5" height="7.5"/>
	<rect x="191.25" y="202.446" fill="#42607E" width="7.5" height="7.5"/>
</g>
</svg>
