<?xml version="1.0" encoding="utf-8"?>
<!-- Generator: Adobe Illustrator 16.0.0, SVG Export Plug-In . SVG Version: 6.00 Build 0)  -->
<!DOCTYPE svg PUBLIC "-//W3C//DTD SVG 1.1//EN" "http://www.w3.org/Graphics/SVG/1.1/DTD/svg11.dtd">
<svg version="1.1" id="Layer_1" xmlns="http://www.w3.org/2000/svg" xmlns:xlink="http://www.w3.org/1999/xlink" x="0px" y="0px"
	 width="300px" height="300px" viewBox="0 0 300 300" enable-background="new 0 0 300 300" xml:space="preserve">
<g>
	<rect x="112.739" y="78.816" fill="#2F292B" width="7.5" height="7.5"/>
	<rect x="112.739" y="86.316" fill="#525255" width="7.5" height="7.5"/>
	<rect x="105.239" y="78.816" fill="#2F292B" width="7.5" height="7.5"/>
	<rect x="105.239" y="86.316" fill="#525255" width="7.5" height="7.5"/>
	<rect x="120.239" y="86.316" fill="#2F292B" width="7.5" height="7.5"/>
	<rect x="120.239" y="78.811" fill="#2F292B" width="7.5" height="7.5"/>
	<rect x="127.739" y="86.316" fill="#6C6D70" width="7.5" height="7.5"/>
	<rect x="135.239" y="86.316" fill="#2F292B" width="7.5" height="7.5"/>
	<rect x="142.739" y="86.316" fill="#2F292B" width="7.5" height="7.5"/>
	<rect x="150.239" y="86.316" fill="#2F292B" width="7.5" height="7.5"/>
	<rect x="112.739" y="101.296" fill="#EEE1BF" width="7.5" height="7.5"/>
	<rect x="120.239" y="101.296" fill="#EEE1BF" width="7.5" height="7.5"/>
	<rect x="127.739" y="101.296" fill="#EEE1BF" width="7.5" height="7.5"/>
	<rect x="135.239" y="101.296" fill="#EEE1BF" width="7.5" height="7.5"/>
	<rect x="142.739" y="101.296" fill="#EDD69F" width="7.5" height="7.5"/>
	<rect x="150.239" y="101.296" fill="#6C6D70" width="7.5" height="7.5"/>
	<rect x="112.739" y="108.796" fill="#6E5D55" width="7.5" height="7.5"/>
	<rect x="120.239" y="108.796" fill="#2F292B" width="7.5" height="7.5"/>
	<rect x="127.739" y="108.796" fill="#2F292B" width="7.5" height="7.5"/>
	<rect x="135.239" y="108.796" fill="#EDD69F" width="7.5" height="7.5"/>
	<rect x="142.739" y="108.796" fill="#EDD69F" width="7.5" height="7.5"/>
	<rect x="150.239" y="108.796" fill="#EDD69F" width="7.5" height="7.5"/>
	<rect x="112.739" y="116.296" fill="#EDD69F" width="7.5" height="7.5"/>
	<rect x="120.239" y="116.296" fill="#EDD69F" width="7.5" height="7.5"/>
	<rect x="112.739" y="123.767" fill="#D8CBB7" width="7.5" height="7.5"/>
	<rect x="120.239" y="123.767" fill="#734A1D" width="7.5" height="7.5"/>
	<rect x="112.739" y="131.257" fill="#D8CBB7" width="7.5" height="7.5"/>
	<rect x="120.239" y="131.257" fill="#EDD69F" width="7.5" height="7.5"/>
	<rect x="112.739" y="138.767" fill="#EEE1BF" width="7.5" height="7.5"/>
	<rect x="120.239" y="138.767" fill="#EDD69F" width="7.5" height="7.5"/>
	<rect x="112.739" y="146.257" fill="#D5CBAD" width="7.5" height="7.5"/>
	<rect x="120.239" y="146.257" fill="#D5CBAD" width="7.5" height="7.5"/>
	<rect x="135.239" y="146.257" fill="#D5CBAD" width="7.5" height="7.5"/>
	<rect x="127.739" y="146.257" fill="#D5CBAD" width="7.5" height="7.5"/>
	<rect x="142.739" y="146.257" fill="#D5CBAD" width="7.5" height="7.5"/>
	<rect x="157.739" y="146.257" fill="#EDD69F" width="7.5" height="7.5"/>
	<rect x="150.239" y="146.257" fill="#EEE1BF" width="7.5" height="7.5"/>
	<rect x="135.239" y="153.738" fill="#FFFFFF" width="7.5" height="7.5"/>
	<rect x="127.739" y="153.738" fill="#FFFFFF" width="7.5" height="7.5"/>
	<rect x="142.739" y="153.738" fill="#FFFFFF" width="7.5" height="7.5"/>
	<rect x="150.239" y="153.738" fill="#C7293B" width="7.5" height="7.5"/>
	<rect x="135.239" y="161.228" fill="#C7293B" width="7.5" height="7.5"/>
	<rect x="127.739" y="161.228" fill="#C7293B" width="7.5" height="7.5"/>
	<rect x="142.739" y="161.228" fill="#C7293B" width="7.5" height="7.5"/>
	<rect x="150.239" y="161.228" fill="#D5CBAD" width="7.5" height="7.5"/>
	<rect x="135.239" y="168.728" fill="#D5CBAD" width="7.5" height="7.5"/>
	<rect x="127.739" y="168.728" fill="#C2B99F" width="7.5" height="7.5"/>
	<rect x="142.739" y="168.728" fill="#D5CBAD" width="7.5" height="7.5"/>
	<rect x="150.239" y="168.728" fill="#D5CBAD" width="7.5" height="7.5"/>
	<rect x="157.739" y="168.728" fill="#EDD69F" width="7.5" height="7.5"/>
	<rect x="142.739" y="176.194" fill="#EEE1BF" width="7.5" height="7.5"/>
	<rect x="150.239" y="176.194" fill="#EDD69F" width="7.5" height="7.5"/>
	<rect x="157.739" y="176.194" fill="#EDD69F" width="7.5" height="7.5"/>
	<rect x="165.239" y="168.728" fill="#EEE1BF" width="7.5" height="7.5"/>
	<rect x="165.239" y="176.194" fill="#EEE1BF" width="7.5" height="7.5"/>
	<rect x="165.239" y="146.257" fill="#D5CBAD" width="7.5" height="7.5"/>
	<rect x="157.739" y="138.767" fill="#EDD69F" width="7.5" height="7.5"/>
	<rect x="165.239" y="138.767" fill="#EDD69F" width="7.5" height="7.5"/>
	<rect x="157.739" y="161.228" fill="#EDD69F" width="7.5" height="7.5"/>
	<rect x="165.239" y="161.228" fill="#D5CBAD" width="7.5" height="7.5"/>
	<rect x="157.739" y="153.738" fill="#EDD69F" width="7.5" height="7.5"/>
	<rect x="165.239" y="153.738" fill="#D5CBAD" width="7.5" height="7.5"/>
	<rect x="157.739" y="131.257" fill="#2F292B" width="7.5" height="7.5"/>
	<rect x="165.239" y="131.257" fill="#EDD69F" width="7.5" height="7.5"/>
	<rect x="157.739" y="123.767" fill="#EDD69F" width="7.5" height="7.5"/>
	<rect x="165.239" y="123.767" fill="#C2B99F" width="7.5" height="7.5"/>
	<rect x="172.739" y="131.257" fill="#EDD69F" width="7.5" height="7.5"/>
	<rect x="172.739" y="123.767" fill="#EDD69F" width="7.5" height="7.5"/>
	<rect x="127.739" y="116.296" fill="#EDD69F" width="7.5" height="7.5"/>
	<rect x="135.239" y="116.296" fill="#2F292B" width="7.5" height="7.5"/>
	<rect x="142.739" y="116.296" fill="#EDD69F" width="7.5" height="7.5"/>
	<rect x="150.239" y="116.296" fill="#2F292B" width="7.5" height="7.5"/>
	<rect x="127.739" y="123.767" fill="#FFFFFF" width="7.5" height="7.5"/>
	<rect x="135.239" y="123.767" fill="#EDD69F" width="7.5" height="7.5"/>
	<rect x="142.739" y="123.767" fill="#EDD69F" width="7.5" height="7.5"/>
	<rect x="150.239" y="123.767" fill="#EDD69F" width="7.5" height="7.5"/>
	<rect x="127.739" y="131.257" fill="#EDD69F" width="7.5" height="7.5"/>
	<rect x="135.239" y="131.257" fill="#EDD69F" width="7.5" height="7.5"/>
	<rect x="142.739" y="131.257" fill="#EDD69F" width="7.5" height="7.5"/>
	<rect x="150.239" y="131.257" fill="#EDD69F" width="7.5" height="7.5"/>
	<rect x="127.739" y="138.757" fill="#EDD69F" width="7.5" height="7.5"/>
	<rect x="135.239" y="138.757" fill="#EEE1BF" width="7.5" height="7.5"/>
	<rect x="142.739" y="138.757" fill="#EEE1BF" width="7.5" height="7.5"/>
	<rect x="150.239" y="138.757" fill="#EDD69F" width="7.5" height="7.5"/>
	<rect x="157.739" y="101.296" fill="#2F292B" width="7.5" height="7.5"/>
	<rect x="165.239" y="101.296" fill="#2F292B" width="7.5" height="7.5"/>
	<rect x="112.739" y="93.816" fill="#EEE1BF" width="7.5" height="7.5"/>
	<rect x="112.739" y="71.311" fill="#2F292B" width="7.5" height="7.5"/>
	<rect x="120.239" y="71.306" fill="#2F292B" width="7.5" height="7.5"/>
	<rect x="127.739" y="71.306" fill="#2F292B" width="7.5" height="7.5"/>
	<rect x="120.239" y="93.816" fill="#EEE1BF" width="7.5" height="7.5"/>
	<rect x="127.739" y="93.816" fill="#EEE1BF" width="7.5" height="7.5"/>
	<rect x="135.239" y="93.816" fill="#EEE1BF" width="7.5" height="7.5"/>
	<rect x="142.739" y="93.816" fill="#EEE1BF" width="7.5" height="7.5"/>
	<rect x="150.239" y="93.816" fill="#EDD69F" width="7.5" height="7.5"/>
	<rect x="157.739" y="93.816" fill="#2F292B" width="7.5" height="7.5"/>
	<rect x="157.739" y="86.316" fill="#2F292B" width="7.5" height="7.5"/>
	<rect x="165.239" y="93.816" fill="#2F292B" width="7.5" height="7.5"/>
	<rect x="165.239" y="86.316" fill="#2F292B" width="7.5" height="7.5"/>
	<rect x="165.239" y="78.811" fill="#2F292B" width="7.5" height="7.5"/>
	<rect x="172.261" y="93.816" fill="#2F292B" width="7.5" height="7.5"/>
	<rect x="172.261" y="86.316" fill="#2F292B" width="7.5" height="7.5"/>
	<rect x="127.739" y="78.816" fill="#2F292B" width="7.5" height="7.5"/>
	<rect x="135.239" y="78.816" fill="#2F292B" width="7.5" height="7.5"/>
	<rect x="142.739" y="78.816" fill="#2F292B" width="7.5" height="7.5"/>
	<rect x="150.239" y="78.816" fill="#2F292B" width="7.5" height="7.5"/>
	<rect x="157.739" y="78.816" fill="#6C6D70" width="7.5" height="7.5"/>
	<rect x="157.739" y="108.796" fill="#2F292B" width="7.5" height="7.5"/>
	<rect x="150.239" y="108.796" fill="#6C6D70" width="7.5" height="7.5"/>
	<rect x="157.739" y="123.767" fill="#2F292B" width="7.5" height="7.5"/>
	<rect x="165.239" y="108.796" fill="#2F292B" width="7.5" height="7.5"/>
	<rect x="157.739" y="116.296" fill="#2F292B" width="7.5" height="7.5"/>
	<rect x="165.239" y="116.296" fill="#EEE1BF" width="7.5" height="7.5"/>
	<rect x="172.739" y="101.296" fill="#6C6D70" width="7.5" height="7.5"/>
	<rect x="172.739" y="108.796" fill="#2F292B" width="7.5" height="7.5"/>
	<rect x="172.739" y="116.296" fill="#EEE1BF" width="7.5" height="7.5"/>
	<rect x="105.239" y="138.733" fill="#EDD69F" width="7.5" height="7.5"/>
	<rect x="97.739" y="138.733" fill="#EDD69F" width="7.5" height="7.5"/>
	<rect x="105.239" y="131.233" fill="#EDD69F" width="7.5" height="7.5"/>
	<rect x="105.239" y="123.767" fill="#EDD69F" width="7.5" height="7.5"/>
	<rect x="142.261" y="183.679" fill="#EDD69F" width="7.5" height="7.5"/>
	<rect x="149.761" y="183.679" fill="#EEE1BF" width="7.5" height="7.5"/>
	<rect x="157.261" y="183.679" fill="#EDD69F" width="7.5" height="7.5"/>
	<rect x="142.261" y="191.194" fill="#EDD69F" width="7.5" height="7.5"/>
	<rect x="149.761" y="191.194" fill="#EDD69F" width="7.5" height="7.5"/>
	<rect x="172.261" y="183.694" fill="#D7E4EB" width="7.5" height="7.5"/>
	<rect x="172.261" y="176.194" fill="#D7E4EB" width="7.5" height="7.5"/>
	<rect x="179.761" y="183.694" fill="#9CB6C8" width="7.5" height="7.5"/>
	<rect x="179.761" y="176.194" fill="#D7E4EB" width="7.5" height="7.5"/>
	<rect x="187.261" y="176.194" fill="#C3D2E0" width="7.5" height="7.5"/>
	<rect x="164.761" y="191.194" fill="#D7E4EB" width="7.5" height="7.5"/>
	<rect x="164.761" y="183.694" fill="#EDD69F" width="7.5" height="7.5"/>
	<rect x="157.261" y="191.194" fill="#EDD69F" width="7.5" height="7.5"/>
	<rect x="134.761" y="191.194" fill="#D7E4EB" width="7.5" height="7.5"/>
	<rect x="127.261" y="191.194" fill="#9CB6C8" width="7.5" height="7.5"/>
	<rect x="127.261" y="183.694" fill="#D7E4EB" width="7.5" height="7.5"/>
	<rect x="134.761" y="183.694" fill="#D7E4EB" width="7.5" height="7.5"/>
	<rect x="119.761" y="183.694" fill="#C3D2E0" width="7.5" height="7.5"/>
	<rect x="172.261" y="191.194" fill="#9CB6C8" width="7.5" height="7.5"/>
	<rect x="179.761" y="191.194" fill="#C3D2E0" width="7.5" height="7.5"/>
	<rect x="187.261" y="191.194" fill="#C3D2E0" width="7.5" height="7.5"/>
	<rect x="142.261" y="206.194" fill="#FFFFFF" width="7.5" height="7.5"/>
	<rect x="149.761" y="206.194" fill="#FFFFFF" width="7.5" height="7.5"/>
	<rect x="164.761" y="206.194" fill="#D7E4EB" width="7.5" height="7.5"/>
	<rect x="157.261" y="206.194" fill="#FFFFFF" width="7.5" height="7.5"/>
	<rect x="134.761" y="206.194" fill="#D7E4EB" width="7.5" height="7.5"/>
	<rect x="134.761" y="213.694" fill="#C3D2E0" width="7.5" height="7.5"/>
	<rect x="127.261" y="206.194" fill="#9CB6C8" width="7.5" height="7.5"/>
	<rect x="119.761" y="206.194" fill="#C3D2E0" width="7.5" height="7.5"/>
	<rect x="172.261" y="206.194" fill="#9CB6C8" width="7.5" height="7.5"/>
	<rect x="179.761" y="206.194" fill="#C3D2E0" width="7.5" height="7.5"/>
	<rect x="187.261" y="206.194" fill="#C3D2E0" width="7.5" height="7.5"/>
	<rect x="194.761" y="206.194" fill="#C3D2E0" width="7.5" height="7.5"/>
	<rect x="142.261" y="221.194" fill="#C3D2E0" width="7.5" height="7.5"/>
	<rect x="149.761" y="221.194" fill="#D7E4EB" width="7.5" height="7.5"/>
	<rect x="164.761" y="221.194" fill="#C3D2E0" width="7.5" height="7.5"/>
	<rect x="157.261" y="221.194" fill="#C3D2E0" width="7.5" height="7.5"/>
	<rect x="134.761" y="221.194" fill="#C3D2E0" width="7.5" height="7.5"/>
	<rect x="127.261" y="221.194" fill="#C3D2E0" width="7.5" height="7.5"/>
	<rect x="119.761" y="221.194" fill="#C3D2E0" width="7.5" height="7.5"/>
	<rect x="172.261" y="221.194" fill="#C3D2E0" width="7.5" height="7.5"/>
	<rect x="179.761" y="221.194" fill="#C3D2E0" width="7.5" height="7.5"/>
	<rect x="187.261" y="221.194" fill="#C3D2E0" width="7.5" height="7.5"/>
	<rect x="194.761" y="221.194" fill="#C3D2E0" width="7.5" height="7.5"/>
	<rect x="142.261" y="198.694" fill="#FFFFFF" width="7.5" height="7.5"/>
	<rect x="149.761" y="198.694" fill="#EDD69F" width="7.5" height="7.5"/>
	<rect x="164.761" y="198.694" fill="#D7E4EB" width="7.5" height="7.5"/>
	<rect x="157.261" y="198.694" fill="#FFFFFF" width="7.5" height="7.5"/>
	<rect x="134.761" y="198.694" fill="#D7E4EB" width="7.5" height="7.5"/>
	<rect x="127.261" y="198.694" fill="#9CB6C8" width="7.5" height="7.5"/>
	<rect x="119.761" y="198.694" fill="#C3D2E0" width="7.5" height="7.5"/>
	<rect x="172.261" y="198.694" fill="#9CB6C8" width="7.5" height="7.5"/>
	<rect x="179.761" y="198.694" fill="#C3D2E0" width="7.5" height="7.5"/>
	<rect x="187.261" y="198.694" fill="#C3D2E0" width="7.5" height="7.5"/>
	<rect x="194.761" y="198.694" fill="#C3D2E0" width="7.5" height="7.5"/>
	<rect x="142.261" y="213.694" fill="#D7E4EB" width="7.5" height="7.5"/>
	<rect x="149.761" y="213.694" fill="#D7E4EB" width="7.5" height="7.5"/>
	<rect x="164.761" y="213.694" fill="#9CB6C8" width="7.5" height="7.5"/>
	<rect x="157.261" y="213.694" fill="#D7E4EB" width="7.5" height="7.5"/>
	<rect x="134.761" y="213.694" fill="#9CB6C8" width="7.5" height="7.5"/>
	<rect x="127.261" y="213.694" fill="#C3D2E0" width="7.5" height="7.5"/>
	<rect x="119.761" y="213.694" fill="#C3D2E0" width="7.5" height="7.5"/>
	<rect x="112.261" y="206.194" fill="#C3D2E0" width="7.5" height="7.5"/>
	<rect x="112.261" y="221.194" fill="#C3D2E0" width="7.5" height="7.5"/>
	<rect x="112.261" y="213.694" fill="#C3D2E0" width="7.5" height="7.5"/>
	<rect x="172.261" y="213.694" fill="#C3D2E0" width="7.5" height="7.5"/>
	<rect x="179.761" y="213.694" fill="#C3D2E0" width="7.5" height="7.5"/>
	<rect x="187.261" y="213.694" fill="#C3D2E0" width="7.5" height="7.5"/>
	<rect x="194.761" y="213.694" fill="#C3D2E0" width="7.5" height="7.5"/>
</g>
</svg>
