<?xml version="1.0" encoding="utf-8"?>
<!-- Generator: Adobe Illustrator 15.0.2, SVG Export Plug-In . SVG Version: 6.00 Build 0)  -->
<!DOCTYPE svg PUBLIC "-//W3C//DTD SVG 1.1//EN" "http://www.w3.org/Graphics/SVG/1.1/DTD/svg11.dtd">
<svg version="1.1" id="Layer_1" xmlns="http://www.w3.org/2000/svg" xmlns:xlink="http://www.w3.org/1999/xlink" x="0px" y="0px"
	 width="16.5px" height="25.482px" viewBox="0 0 16.5 25.482" enable-background="new 0 0 16.5 25.482" xml:space="preserve">
<g>
	<rect y="2.997" fill="#F9ED32" width="1.5" height="1.5"/>
	<rect y="4.497" fill="#FAC805" width="1.5" height="1.5"/>
	<rect y="5.997" fill="#FAC805" width="1.5" height="1.5"/>
	<rect x="1.5" y="1.497" fill="#FAC805" width="1.5" height="1.5"/>
	<rect x="3" y="1.497" fill="#F9ED32" width="1.5" height="1.5"/>
	<rect x="4.5" y="1.497" fill="#FAC805" width="1.5" height="1.5"/>
	<rect x="6" y="1.497" fill="#D59E10" width="1.5" height="1.5"/>
	<rect x="7.5" y="1.497" fill="#F9ED32" width="1.5" height="1.5"/>
	<rect x="1.5" y="2.997" fill="#D59E10" width="1.5" height="1.5"/>
	<rect x="3" y="2.997" fill="#FAC805" width="1.5" height="1.5"/>
	<rect x="4.5" y="2.997" fill="#FAC805" width="1.5" height="1.5"/>
	<rect x="6" y="2.997" fill="#D59E10" width="1.5" height="1.5"/>
	<rect x="7.5" y="2.997" fill="#FAC805" width="1.5" height="1.5"/>
	<rect x="1.5" y="4.497" fill="#D59E10" width="1.5" height="1.5"/>
	<rect x="1.5" y="5.991" fill="#EADAB2" width="1.5" height="1.5"/>
	<rect x="1.5" y="7.488" fill="#EADAB2" width="1.5" height="1.5"/>
	<rect y="9.17" fill="#E8CD8D" width="1.5" height="1.5"/>
	<rect x="1.5" y="8.991" fill="#EADAB2" width="1.5" height="1.5"/>
	<rect x="1.5" y="10.488" fill="#EADAB2" width="1.5" height="1.5"/>
	<rect x="4.5" y="10.488" fill="#EADAB2" width="1.5" height="1.5"/>
	<rect x="3" y="10.488" fill="#EADAB2" width="1.5" height="1.5"/>
	<rect x="6" y="10.488" fill="#EADAB2" width="1.5" height="1.5"/>
	<rect x="9" y="10.488" fill="#EADAB2" width="1.5" height="1.5"/>
	<rect x="7.5" y="10.488" fill="#EADAB2" width="1.5" height="1.5"/>
	<rect x="4.5" y="11.985" fill="#FFFFFF" width="1.5" height="1.5"/>
	<rect x="3" y="11.985" fill="#FFFFFF" width="1.5" height="1.5"/>
	<rect x="6" y="11.985" fill="#FFFFFF" width="1.5" height="1.5"/>
	<rect x="7.5" y="11.985" fill="#BD2339" width="1.5" height="1.5"/>
	<rect x="4.5" y="13.482" fill="#BD2339" width="1.5" height="1.5"/>
	<rect x="3" y="13.482" fill="#BD2339" width="1.5" height="1.5"/>
	<rect x="6" y="13.482" fill="#BD2339" width="1.5" height="1.5"/>
	<rect x="7.5" y="13.482" fill="#EADAB2" width="1.5" height="1.5"/>
	<rect x="4.5" y="14.982" fill="#EADAB2" width="1.5" height="1.5"/>
	<rect x="3" y="14.982" fill="#EADAB2" width="1.5" height="1.5"/>
	<rect x="6" y="14.982" fill="#EADAB2" width="1.5" height="1.5"/>
	<rect x="4.5" y="16.482" fill="#C2B59B" width="1.5" height="1.5"/>
	<rect x="6" y="16.482" fill="#C2B59B" width="1.5" height="1.5"/>
	<rect x="4.5" y="17.982" fill="#EADAB2" width="1.5" height="1.5"/>
	<rect x="6" y="17.982" fill="#EADAB2" width="1.5" height="1.5"/>
	<rect x="7.5" y="16.482" fill="#C2B59B" width="1.5" height="1.5"/>
	<rect x="7.5" y="14.982" fill="#EADAB2" width="1.5" height="1.5"/>
	<rect x="9" y="14.982" fill="#EADAB2" width="1.5" height="1.5"/>
	<rect x="7.5" y="17.982" fill="#EADAB2" width="1.5" height="1.5"/>
	<rect x="4.5" y="19.482" fill="#EADAB2" width="1.5" height="1.5"/>
	<rect x="6" y="19.482" fill="#EADAB2" width="1.5" height="1.5"/>
	<rect x="9" y="19.482" fill="#EADAB2" width="1.5" height="1.5"/>
	<rect x="7.5" y="19.482" fill="#EADAB2" width="1.5" height="1.5"/>
	<rect x="3" y="19.482" fill="#EADAB2" width="1.5" height="1.5"/>
	<rect x="1.5" y="19.482" fill="#FFFFFF" width="1.5" height="1.5"/>
	<rect x="10.5" y="19.482" fill="#D36368" width="1.5" height="1.5"/>
	<rect x="12" y="19.482" fill="#FFFFFF" width="1.5" height="1.5"/>
	<rect x="13.5" y="19.482" fill="#EADAB2" width="1.5" height="1.5"/>
	<rect x="4.5" y="20.982" fill="#EADAB2" width="1.5" height="1.5"/>
	<rect x="6" y="20.982" fill="#E8CD8D" width="1.5" height="1.5"/>
	<rect x="9" y="20.982" fill="#EADAB2" width="1.5" height="1.5"/>
	<rect x="7.5" y="20.982" fill="#EADAB2" width="1.5" height="1.5"/>
	<rect x="3" y="20.982" fill="#EADAB2" width="1.5" height="1.5"/>
	<rect x="1.5" y="20.982" fill="#D36368" width="1.5" height="1.5"/>
	<rect y="20.982" fill="#EADAB2" width="1.5" height="1.5"/>
	<rect x="10.5" y="20.982" fill="#14354C" width="1.5" height="1.5"/>
	<rect x="12" y="20.982" fill="#D36368" width="1.5" height="1.5"/>
	<rect x="13.5" y="20.982" fill="#EADAB2" width="1.5" height="1.5"/>
	<rect x="15" y="20.982" fill="#EADAB2" width="1.5" height="1.5"/>
	<rect x="4.5" y="22.482" fill="#D36368" width="1.5" height="1.5"/>
	<rect x="6" y="22.482" fill="#D36368" width="1.5" height="1.5"/>
	<rect x="9" y="22.482" fill="#14354C" width="1.5" height="1.5"/>
	<rect x="7.5" y="22.482" fill="#D36368" width="1.5" height="1.5"/>
	<rect x="3" y="22.482" fill="#D36368" width="1.5" height="1.5"/>
	<rect x="1.5" y="22.482" fill="#FFFFFF" width="1.5" height="1.5"/>
	<rect y="22.482" fill="#E8CD8D" width="1.5" height="1.5"/>
	<rect x="10.5" y="22.482" fill="#27AAE1" width="1.5" height="1.5"/>
	<rect x="12" y="22.482" fill="#9BD4D4" width="1.5" height="1.5"/>
	<rect x="13.5" y="22.482" fill="#EADAB2" width="1.5" height="1.5"/>
	<rect x="15" y="22.482" fill="#E8CD8D" width="1.5" height="1.5"/>
	<rect x="4.5" y="23.982" fill="#FFFFFF" width="1.5" height="1.5"/>
	<rect x="6" y="23.982" fill="#D36368" width="1.5" height="1.5"/>
	<rect x="9" y="23.982" fill="#D36368" width="1.5" height="1.5"/>
	<rect x="7.5" y="23.982" fill="#FFFFFF" width="1.5" height="1.5"/>
	<rect x="3" y="23.982" fill="#D36368" width="1.5" height="1.5"/>
	<rect x="1.5" y="23.982" fill="#D36368" width="1.5" height="1.5"/>
	<rect y="23.982" fill="#E8CD8D" width="1.5" height="1.5"/>
	<rect x="10.5" y="23.982" fill="#9BD4D4" width="1.5" height="1.5"/>
	<rect x="12" y="23.982" fill="#D36368" width="1.5" height="1.5"/>
	<rect x="13.5" y="23.982" fill="#EADAB2" width="1.5" height="1.5"/>
	<rect x="15" y="23.982" fill="#E8CD8D" width="1.5" height="1.5"/>
	<rect x="10.5" y="10.488" fill="#662D91" width="1.5" height="1.5"/>
	<rect x="9" y="8.991" fill="#EADAB2" width="1.5" height="1.5"/>
	<rect x="10.5" y="8.991" fill="#EADAB2" width="1.5" height="1.5"/>
	<rect x="9" y="13.482" fill="#EADAB2" width="1.5" height="1.5"/>
	<rect x="10.5" y="13.482" fill="#D59E10" width="1.5" height="1.5"/>
	<rect x="9" y="11.985" fill="#EADAB2" width="1.5" height="1.5"/>
	<rect x="10.5" y="11.985" fill="#D59E10" width="1.5" height="1.5"/>
	<rect x="9" y="7.488" fill="#E8CD8D" width="1.5" height="1.5"/>
	<rect x="10.5" y="7.488" fill="#EADAB2" width="1.5" height="1.5"/>
	<rect x="9" y="5.991" fill="#E8CD8D" width="1.5" height="1.5"/>
	<rect x="10.5" y="5.991" fill="#FAC805" width="1.5" height="1.5"/>
	<rect x="12" y="7.488" fill="#D59E10" width="1.5" height="1.5"/>
	<rect x="12" y="5.991" fill="#FAC805" width="1.5" height="1.5"/>
	<rect x="3" y="4.497" fill="#FAC805" width="1.5" height="1.5"/>
	<rect x="4.5" y="4.497" fill="#EADAB2" width="1.5" height="1.5"/>
	<rect x="6" y="4.497" fill="#D59E10" width="1.5" height="1.5"/>
	<rect x="7.5" y="4.497" fill="#FAC805" width="1.5" height="1.5"/>
	<rect x="3" y="5.991" fill="#EADAB2" width="1.5" height="1.5"/>
	<rect x="4.5" y="5.991" fill="#EADAB2" width="1.5" height="1.5"/>
	<rect x="6" y="5.991" fill="#EADAB2" width="1.5" height="1.5"/>
	<rect x="7.5" y="5.991" fill="#EADAB2" width="1.5" height="1.5"/>
	<rect x="3" y="7.488" fill="#EADAB2" width="1.5" height="1.5"/>
	<rect x="4.5" y="7.488" fill="#27AAE1" width="1.5" height="1.5"/>
	<rect x="6" y="7.488" fill="#FFFFFF" width="1.5" height="1.5"/>
	<rect x="7.5" y="7.488" fill="#EADAB2" width="1.5" height="1.5"/>
	<rect x="3" y="8.988" fill="#EADAB2" width="1.5" height="1.5"/>
	<rect x="4.5" y="8.988" fill="#EADAB2" width="1.5" height="1.5"/>
	<rect x="6" y="8.988" fill="#EADAB2" width="1.5" height="1.5"/>
	<rect x="7.5" y="8.988" fill="#EADAB2" width="1.5" height="1.5"/>
	<rect x="9" y="1.497" fill="#D59E10" width="1.5" height="1.5"/>
	<rect x="10.5" y="1.497" fill="#FAC805" width="1.5" height="1.5"/>
	<rect x="3" fill="#FAC805" width="1.5" height="1.5"/>
	<rect x="4.5" fill="#FAC805" width="1.5" height="1.5"/>
	<rect x="6" fill="#FAC805" width="1.5" height="1.5"/>
	<rect x="7.5" fill="#FAC805" width="1.5" height="1.5"/>
	<rect x="9" fill="#FAC805" width="1.5" height="1.5"/>
	<rect x="9" y="2.997" fill="#FAC805" width="1.5" height="1.5"/>
	<rect x="9" y="5.991" fill="#FAC805" width="1.5" height="1.5"/>
	<rect x="9" y="7.488" fill="#FAC805" width="1.5" height="1.5"/>
	<rect x="10.5" y="2.997" fill="#D59E10" width="1.5" height="1.5"/>
	<rect x="12" y="2.997" fill="#FAC805" width="1.5" height="1.5"/>
	<rect x="12" y="4.497" fill="#FAC805" width="1.5" height="1.5"/>
	<rect x="13.5" y="5.997" fill="#FAC805" width="1.5" height="1.5"/>
	<rect x="13.5" y="7.488" fill="#FAC805" width="1.5" height="1.5"/>
	<rect x="13.5" y="10.491" fill="#FAC805" width="1.5" height="1.5"/>
	<rect x="13.5" y="8.991" fill="#FAC805" width="1.5" height="1.5"/>
	<rect x="13.5" y="11.991" fill="#FAC805" width="1.5" height="1.5"/>
	<rect x="12" y="10.491" fill="#D59E10" width="1.5" height="1.5"/>
	<rect x="12" y="8.991" fill="#D59E10" width="1.5" height="1.5"/>
	<rect x="12" y="11.991" fill="#D59E10" width="1.5" height="1.5"/>
	<rect x="13.5" y="13.482" fill="#FAC805" width="1.5" height="1.5"/>
	<rect x="15" y="7.488" fill="#FAC805" width="1.5" height="1.5"/>
	<rect x="15" y="10.491" fill="#FAC805" width="1.5" height="1.5"/>
	<rect x="15" y="8.991" fill="#FAC805" width="1.5" height="1.5"/>
	<rect x="15" y="11.991" fill="#FAC805" width="1.5" height="1.5"/>
	<rect x="15" y="13.482" fill="#FAC805" width="1.5" height="1.5"/>
	<rect x="12" y="13.482" fill="#D59E10" width="1.5" height="1.5"/>
	<rect x="13.5" y="14.982" fill="#FAC805" width="1.5" height="1.5"/>
	<rect x="1.5" y="14.982" fill="#D59E10" width="1.5" height="1.5"/>
	<rect x="3" y="16.482" fill="#D59E10" width="1.5" height="1.5"/>
	<rect x="1.5" y="16.482" fill="#D59E10" width="1.5" height="1.5"/>
	<rect x="1.5" y="13.491" fill="#D59E10" width="1.5" height="1.5"/>
	<rect y="14.982" fill="#FAC805" width="1.5" height="1.5"/>
	<rect y="16.482" fill="#FFF200" width="1.5" height="1.5"/>
	<rect x="12" y="14.982" fill="#FFF200" width="1.5" height="1.5"/>
	<rect x="13.5" y="16.482" fill="#FAC805" width="1.5" height="1.5"/>
	<rect x="12" y="16.482" fill="#FAC805" width="1.5" height="1.5"/>
	<rect x="12" y="17.982" fill="#FAC805" width="1.5" height="1.5"/>
	<rect x="10.5" y="17.982" fill="#FAC805" width="1.5" height="1.5"/>
	<rect x="10.5" y="14.982" fill="#D59E10" width="1.5" height="1.5"/>
	<rect x="10.5" y="16.482" fill="#FAC805" width="1.5" height="1.5"/>
	<rect x="9" y="16.482" fill="#FAC805" width="1.5" height="1.5"/>
	<rect x="9" y="4.497" fill="#FAC805" width="1.5" height="1.5"/>
	<rect x="10.5" y="4.497" fill="#D59E10" width="1.5" height="1.5"/>
</g>
</svg>
