<?xml version="1.0" encoding="utf-8"?>
<!-- Generator: Adobe Illustrator 15.0.2, SVG Export Plug-In  -->
<!DOCTYPE svg PUBLIC "-//W3C//DTD SVG 1.1//EN" "http://www.w3.org/Graphics/SVG/1.1/DTD/svg11.dtd" [
	<!ENTITY ns_flows "http://ns.adobe.com/Flows/1.0/">
]>
<svg version="1.1"
	 xmlns="http://www.w3.org/2000/svg" xmlns:xlink="http://www.w3.org/1999/xlink" xmlns:a="http://ns.adobe.com/AdobeSVGViewerExtensions/3.0/"
	 x="0px" y="0px" width="48px" height="52px" viewBox="0 0 48 52" enable-background="new 0 0 48 52" xml:space="preserve">
<defs>
</defs>
<rect x="27" y="41.972" fill="#F8CF53" width="1.5" height="1.5"/>
<rect x="25.5" y="41.972" fill="#9B3419" width="1.5" height="1.5"/>
<rect x="24" y="41.972" fill="#9B3419" width="1.5" height="1.5"/>
<rect x="22.5" y="41.972" fill="#F8CF53" width="1.5" height="1.5"/>
<rect x="24" y="40.472" fill="#9B3419" width="1.5" height="1.5"/>
<rect x="22.5" y="40.472" fill="#EB982A" width="1.5" height="1.5"/>
<rect x="24" y="38.972" fill="#F8CF53" width="1.5" height="1.5"/>
<rect x="22.5" y="38.972" fill="#F8CF53" width="1.5" height="1.5"/>
<rect x="22.5" y="37.472" fill="#F8CF53" width="1.5" height="1.5"/>
<rect x="24" y="37.472" fill="#F8CF53" width="1.5" height="1.5"/>
<rect x="24" y="35.972" fill="#9B3419" width="1.5" height="1.5"/>
<rect x="28.5" y="41.972" fill="#F8CF53" width="1.5" height="1.5"/>
<rect x="27" y="44.964" fill="#F8CF53" width="1.5" height="1.5"/>
<rect x="28.5" y="44.964" fill="#F8CF53" width="1.5" height="1.5"/>
<rect x="30" y="41.972" fill="#9B3419" width="1.5" height="1.5"/>
<rect x="31.5" y="41.972" fill="#9B3419" width="1.5" height="1.5"/>
<rect x="33" y="41.972" fill="#F8CF53" width="1.5" height="1.5"/>
<rect x="34.5" y="41.972" fill="#F8CF53" width="1.5" height="1.5"/>
<rect x="36" y="41.972" fill="#F8CF53" width="1.5" height="1.5"/>
<rect x="27" y="40.472" fill="#F8CF53" width="1.5" height="1.5"/>
<rect x="25.5" y="40.472" fill="#F8CF53" width="1.5" height="1.5"/>
<rect x="28.5" y="40.472" fill="#F8CF53" width="1.5" height="1.5"/>
<rect x="30" y="40.472" fill="#F8CF53" width="1.5" height="1.5"/>
<rect x="31.5" y="40.472" fill="#F8CF53" width="1.5" height="1.5"/>
<rect x="33" y="40.472" fill="#F8CF53" width="1.5" height="1.5"/>
<rect x="34.5" y="40.472" fill="#5F070D" width="1.5" height="1.5"/>
<rect x="27" y="38.972" fill="#F8CF53" width="1.5" height="1.5"/>
<rect x="25.5" y="38.972" fill="#F8CF53" width="1.5" height="1.5"/>
<rect x="28.5" y="38.972" fill="#F8CF53" width="1.5" height="1.5"/>
<rect x="30" y="38.972" fill="#9B3419" width="1.5" height="1.5"/>
<rect x="31.5" y="38.972" fill="#9B3419" width="1.5" height="1.5"/>
<rect x="33" y="38.972" fill="#F8CF53" width="1.5" height="1.5"/>
<rect x="27" y="37.472" fill="#F8CF53" width="1.5" height="1.5"/>
<rect x="25.5" y="37.472" fill="#9B3419" width="1.5" height="1.5"/>
<rect x="28.5" y="37.472" fill="#5F070D" width="1.5" height="1.5"/>
<rect x="30" y="37.472" fill="#9B3419" width="1.5" height="1.5"/>
<rect x="31.5" y="37.472" fill="#F8CF53" width="1.5" height="1.5"/>
<rect x="33" y="37.472" fill="#5F070D" width="1.5" height="1.5"/>
<rect x="27" y="35.972" fill="#F8CF53" width="1.5" height="1.5"/>
<rect x="25.5" y="35.972" fill="#5F070D" width="1.5" height="1.5"/>
<rect x="28.5" y="35.972" fill="#9B3419" width="1.5" height="1.5"/>
<rect x="30" y="35.972" fill="#F8CF53" width="1.5" height="1.5"/>
<rect x="31.5" y="35.972" fill="#5F070D" width="1.5" height="1.5"/>
<rect x="27" y="34.472" fill="#F8CF53" width="1.5" height="1.5"/>
<rect x="25.5" y="34.472" fill="#9B3419" width="1.5" height="1.5"/>
<rect x="28.5" y="34.472" fill="#F8CF53" width="1.5" height="1.5"/>
<rect x="30" y="34.472" fill="#F8CF53" width="1.5" height="1.5"/>
<rect x="27" y="32.972" fill="#9B3419" width="1.5" height="1.5"/>
<rect x="25.5" y="32.972" fill="#F8CF53" width="1.5" height="1.5"/>
<rect x="28.5" y="32.972" fill="#F8CF53" width="1.5" height="1.5"/>
<rect x="30" y="32.972" fill="#5F070D" width="1.5" height="1.5"/>
<rect x="27" y="31.472" fill="#F8CF53" width="1.5" height="1.5"/>
<rect x="25.5" y="31.472" fill="#F8CF53" width="1.5" height="1.5"/>
<rect x="28.5" y="31.472" fill="#F8CF53" width="1.5" height="1.5"/>
<rect x="30" y="31.472" fill="#9B3419" width="1.5" height="1.5"/>
<rect x="27" y="29.972" fill="#F8CF53" width="1.5" height="1.5"/>
<rect x="25.5" y="29.972" fill="#9B3419" width="1.5" height="1.5"/>
<rect x="28.5" y="29.972" fill="#F8CF53" width="1.5" height="1.5"/>
<rect x="27" y="28.472" fill="#F8CF53" width="1.5" height="1.5"/>
<rect x="25.5" y="28.472" fill="#9B3419" width="1.5" height="1.5"/>
<rect x="28.5" y="28.472" fill="#9B3419" width="1.5" height="1.5"/>
<rect x="27" y="26.972" fill="#5F070D" width="1.5" height="1.5"/>
<rect x="28.5" y="26.972" fill="#5F070D" width="1.5" height="1.5"/>
<rect x="25.5" y="26.972" fill="#9B3419" width="1.5" height="1.5"/>
<rect x="27" y="25.472" fill="#F8CF53" width="1.5" height="1.5"/>
<rect x="25.5" y="25.472" fill="#F8CF53" width="1.5" height="1.5"/>
<rect x="27" y="23.972" fill="#9B3419" width="1.5" height="1.5"/>
<rect x="25.5" y="23.972" fill="#F8CF53" width="1.5" height="1.5"/>
<rect x="27" y="43.464" fill="#9B3419" width="1.5" height="1.5"/>
<rect x="25.5" y="43.464" fill="#5F070D" width="1.5" height="1.5"/>
<rect x="24" y="43.464" fill="#9B3419" width="1.5" height="1.5"/>
<rect x="22.5" y="43.464" fill="#EB982A" width="1.5" height="1.5"/>
<rect x="28.5" y="43.464" fill="#F8CF53" width="1.5" height="1.5"/>
<rect x="30" y="43.464" fill="#5F070D" width="1.5" height="1.5"/>
<rect x="31.5" y="43.464" fill="#9B3419" width="1.5" height="1.5"/>
<rect x="33" y="43.464" fill="#F8CF53" width="1.5" height="1.5"/>
<rect x="31.5" y="44.964" fill="#9B3419" width="1.5" height="1.5"/>
<rect x="30" y="44.964" fill="#F8CF53" width="1.5" height="1.5"/>
<rect x="25.5" y="44.964" fill="#9B3419" width="1.5" height="1.5"/>
<rect x="24" y="44.964" fill="#EB982A" width="1.5" height="1.5"/>
<rect x="22.5" y="44.964" fill="#EB982A" width="1.5" height="1.5"/>
<rect x="33" y="44.964" fill="#9B3419" width="1.5" height="1.5"/>
<rect x="34.5" y="44.964" fill="#F8CF53" width="1.5" height="1.5"/>
<rect x="34.5" y="43.464" fill="#F8CF53" width="1.5" height="1.5"/>
<rect x="36" y="43.464" fill="#F8CF53" width="1.5" height="1.5"/>
<rect x="37.5" y="43.464" fill="#F8CF53" width="1.5" height="1.5"/>
<rect x="36" y="44.964" fill="#F8CF53" width="1.5" height="1.5"/>
<rect x="37.5" y="44.964" fill="#9B3419" width="1.5" height="1.5"/>
<rect x="39" y="44.964" fill="#F8CF53" width="1.5" height="1.5"/>
<rect x="27" y="47.964" fill="#EB982A" width="1.5" height="1.5"/>
<rect x="28.5" y="47.964" fill="#9B3419" width="1.5" height="1.5"/>
<rect x="31.5" y="47.964" fill="#F8CF53" width="1.5" height="1.5"/>
<rect x="30" y="47.964" fill="#F8CF53" width="1.5" height="1.5"/>
<rect x="25.5" y="47.964" fill="#EB982A" width="1.5" height="1.5"/>
<rect x="24" y="47.964" fill="#9B3419" width="1.5" height="1.5"/>
<rect x="22.5" y="47.964" fill="#5F070D" width="1.5" height="1.5"/>
<rect x="33" y="47.964" fill="#F8CF53" width="1.5" height="1.5"/>
<rect x="34.5" y="47.964" fill="#F8CF53" width="1.5" height="1.5"/>
<rect x="36" y="47.964" fill="#F8CF53" width="1.5" height="1.5"/>
<rect x="37.5" y="47.964" fill="#9B3419" width="1.5" height="1.5"/>
<rect x="39" y="47.964" fill="#9B3419" width="1.5" height="1.5"/>
<rect x="40.5" y="47.964" fill="#F8CF53" width="1.5" height="1.5"/>
<rect x="42" y="47.964" fill="#5F070D" width="1.5" height="1.5"/>
<rect x="43.5" y="47.964" fill="#F8CF53" width="1.5" height="1.5"/>
<rect x="27" y="50.964" fill="#9B3419" width="1.5" height="1.5"/>
<rect x="28.5" y="50.964" fill="#5F070D" width="1.5" height="1.5"/>
<rect x="31.5" y="50.964" fill="#9B3419" width="1.5" height="1.5"/>
<rect x="30" y="50.964" fill="#EB982A" width="1.5" height="1.5"/>
<rect x="25.5" y="50.964" fill="#9B3419" width="1.5" height="1.5"/>
<rect x="24" y="50.964" fill="#EB982A" width="1.5" height="1.5"/>
<rect x="33" y="50.964" fill="#5F070D" width="1.5" height="1.5"/>
<rect x="34.5" y="50.964" fill="#9B3419" width="1.5" height="1.5"/>
<rect x="36" y="50.964" fill="#F8CF53" width="1.5" height="1.5"/>
<rect x="37.5" y="50.964" fill="#F8CF53" width="1.5" height="1.5"/>
<rect x="39" y="50.964" fill="#9B3419" width="1.5" height="1.5"/>
<rect x="40.5" y="50.964" fill="#5F070D" width="1.5" height="1.5"/>
<rect x="42" y="50.964" fill="#F8CF53" width="1.5" height="1.5"/>
<rect x="43.5" y="50.964" fill="#5F070D" width="1.5" height="1.5"/>
<rect x="45" y="50.964" fill="#9B3419" width="1.5" height="1.5"/>
<rect x="46.5" y="50.964" fill="#5F070D" width="1.5" height="1.5"/>
<rect x="27" y="46.464" fill="#F8CF53" width="1.5" height="1.5"/>
<rect x="28.5" y="46.464" fill="#F8CF53" width="1.5" height="1.5"/>
<rect x="31.5" y="46.464" fill="#9B3419" width="1.5" height="1.5"/>
<rect x="30" y="46.464" fill="#F8CF53" width="1.5" height="1.5"/>
<rect x="25.5" y="46.464" fill="#EB982A" width="1.5" height="1.5"/>
<rect x="24" y="46.464" fill="#F8CF53" width="1.5" height="1.5"/>
<rect x="22.5" y="46.464" fill="#9B3419" width="1.5" height="1.5"/>
<rect x="21" y="46.464" fill="#9B3419" width="1.5" height="1.5"/>
<rect x="21" y="44.964" fill="#5F070D" width="1.5" height="1.5"/>
<rect x="21" y="43.464" fill="#EB982A" width="1.5" height="1.5"/>
<rect x="21" y="41.972" fill="#F8CF53" width="1.5" height="1.5"/>
<rect x="19.5" y="41.972" fill="#9B3419" width="1.5" height="1.5"/>
<rect x="21" y="40.472" fill="#EB982A" width="1.5" height="1.5"/>
<rect x="19.5" y="40.472" fill="#EB982A" width="1.5" height="1.5"/>
<rect x="21" y="38.972" fill="#9B3419" width="1.5" height="1.5"/>
<rect x="19.5" y="38.972" fill="#EB982A" width="1.5" height="1.5"/>
<rect x="21" y="37.472" fill="#5F070D" width="1.5" height="1.5"/>
<rect x="19.5" y="37.472" fill="#F8CF53" width="1.5" height="1.5"/>
<rect x="22.5" y="35.972" fill="#F8CF53" width="1.5" height="1.5"/>
<rect x="21" y="35.972" fill="#5F070D" width="1.5" height="1.5"/>
<rect x="19.5" y="35.972" fill="#9B3419" width="1.5" height="1.5"/>
<rect x="24" y="34.472" fill="#9B3419" width="1.5" height="1.5"/>
<rect x="22.5" y="34.472" fill="#F8CF53" width="1.5" height="1.5"/>
<rect x="21" y="34.472" fill="#9B3419" width="1.5" height="1.5"/>
<rect x="19.5" y="34.472" fill="#F8CF53" width="1.5" height="1.5"/>
<rect x="18" y="34.472" fill="#9B3419" width="1.5" height="1.5"/>
<rect x="24" y="32.972" fill="#F8CF53" width="1.5" height="1.5"/>
<rect x="22.5" y="32.972" fill="#F8CF53" width="1.5" height="1.5"/>
<rect x="21" y="32.972" fill="#F8CF53" width="1.5" height="1.5"/>
<rect x="19.5" y="32.972" fill="#EB982A" width="1.5" height="1.5"/>
<rect x="18" y="32.972" fill="#5F070D" width="1.5" height="1.5"/>
<rect x="24" y="31.472" fill="#F8CF53" width="1.5" height="1.5"/>
<rect x="22.5" y="31.472" fill="#F8CF53" width="1.5" height="1.5"/>
<rect x="21" y="31.472" fill="#9B3419" width="1.5" height="1.5"/>
<rect x="19.5" y="31.472" fill="#F8CF53" width="1.5" height="1.5"/>
<rect x="18" y="31.472" fill="#EB982A" width="1.5" height="1.5"/>
<rect x="24" y="29.972" fill="#F8CF53" width="1.5" height="1.5"/>
<rect x="22.5" y="29.972" fill="#F8CF53" width="1.5" height="1.5"/>
<rect x="21" y="29.972" fill="#5F070D" width="1.5" height="1.5"/>
<rect x="19.5" y="29.972" fill="#9B3419" width="1.5" height="1.5"/>
<rect x="18" y="29.972" fill="#F8CF53" width="1.5" height="1.5"/>
<rect x="24" y="28.472" fill="#9B3419" width="1.5" height="1.5"/>
<rect x="22.5" y="28.472" fill="#F8CF53" width="1.5" height="1.5"/>
<rect x="21" y="28.472" fill="#9B3419" width="1.5" height="1.5"/>
<rect x="19.5" y="28.472" fill="#EB982A" width="1.5" height="1.5"/>
<rect x="18" y="28.472" fill="#EB982A" width="1.5" height="1.5"/>
<rect x="24" y="26.972" fill="#9B3419" width="1.5" height="1.5"/>
<rect x="22.5" y="26.972" fill="#F8CF53" width="1.5" height="1.5"/>
<rect x="21" y="25.472" fill="#F8CF53" width="1.5" height="1.5"/>
<rect x="21" y="26.972" fill="#F8CF53" width="1.5" height="1.5"/>
<rect x="19.5" y="26.972" fill="#F8CF53" width="1.5" height="1.5"/>
<rect x="18" y="26.972" fill="#9B3419" width="1.5" height="1.5"/>
<rect x="24" y="25.472" fill="#9B3419" width="1.5" height="1.5"/>
<rect x="22.5" y="25.472" fill="#F8CF53" width="1.5" height="1.5"/>
<rect x="19.5" y="25.472" fill="#9B3419" width="1.5" height="1.5"/>
<rect x="18" y="25.472" fill="#9B3419" width="1.5" height="1.5"/>
<rect x="21" y="23.972" fill="#F8CF53" width="1.5" height="1.5"/>
<rect x="24" y="23.972" fill="#F8CF53" width="1.5" height="1.5"/>
<rect x="22.5" y="23.972" fill="#F8CF53" width="1.5" height="1.5"/>
<rect x="19.5" y="23.972" fill="#F8CF53" width="1.5" height="1.5"/>
<rect x="18" y="23.972" fill="#EB982A" width="1.5" height="1.5"/>
<rect x="16.5" y="23.972" fill="#F8CF53" width="1.5" height="1.5"/>
<rect x="21" y="22.472" fill="#9B3419" width="1.5" height="1.5"/>
<rect x="24" y="22.472" fill="#F8CF53" width="1.5" height="1.5"/>
<rect x="22.5" y="22.472" fill="#9B3419" width="1.5" height="1.5"/>
<rect x="19.5" y="22.472" fill="#F8CF53" width="1.5" height="1.5"/>
<rect x="18" y="22.472" fill="#9B3419" width="1.5" height="1.5"/>
<rect x="16.5" y="22.472" fill="#EB982A" width="1.5" height="1.5"/>
<rect x="21" y="20.972" fill="#F8CF53" width="1.5" height="1.5"/>
<rect x="24" y="20.972" fill="#F8CF53" width="1.5" height="1.5"/>
<rect x="22.5" y="20.972" fill="#5F070D" width="1.5" height="1.5"/>
<rect x="19.5" y="20.972" fill="#F8CF53" width="1.5" height="1.5"/>
<rect x="18" y="20.972" fill="#5F070D" width="1.5" height="1.5"/>
<rect x="16.5" y="20.972" fill="#9B3419" width="1.5" height="1.5"/>
<rect x="16.5" y="19.475" fill="#F8CF53" width="1.5" height="1.5"/>
<rect x="21" y="19.475" fill="#F8CF53" width="1.5" height="1.5"/>
<rect x="21" y="17.978" fill="#F8CF53" width="1.5" height="1.5"/>
<rect x="24" y="19.475" fill="#F8CF53" width="1.5" height="1.5"/>
<rect x="22.5" y="19.475" fill="#9B3419" width="1.5" height="1.5"/>
<rect x="19.5" y="19.475" fill="#F8CF53" width="1.5" height="1.5"/>
<rect x="18" y="19.475" fill="#5F070D" width="1.5" height="1.5"/>
<rect x="16.5" y="17.978" fill="#9B3419" width="1.5" height="1.5"/>
<rect x="19.5" y="17.978" fill="#9B3419" width="1.5" height="1.5"/>
<rect x="18" y="17.978" fill="#9B3419" width="1.5" height="1.5"/>
<rect x="21" y="16.478" fill="#F8CF53" width="1.5" height="1.5"/>
<rect x="16.5" y="16.478" fill="#5F070D" width="1.5" height="1.5"/>
<rect x="19.5" y="16.478" fill="#F8CF53" width="1.5" height="1.5"/>
<rect x="18" y="16.478" fill="#EB982A" width="1.5" height="1.5"/>
<rect x="16.5" y="14.975" fill="#1A1818" width="1.5" height="1.5"/>
<rect x="18" y="14.975" fill="#5F070D" width="1.5" height="1.5"/>
<rect x="16.5" y="13.475" fill="#F8CF53" width="1.5" height="1.5"/>
<rect x="15" y="13.475" fill="#5F070D" width="1.5" height="1.5"/>
<rect x="15" y="14.975" fill="#1A1818" width="1.5" height="1.5"/>
<rect x="13.5" y="13.475" fill="#9B3419" width="1.5" height="1.5"/>
<rect x="12" y="13.475" fill="#F8CF53" width="1.5" height="1.5"/>
<rect x="10.5" y="13.475" fill="#F8CF53" width="1.5" height="1.5"/>
<rect x="18" y="13.475" fill="#1A1818" width="1.5" height="1.5"/>
<rect x="33" y="46.464" fill="#F8CF53" width="1.5" height="1.5"/>
<rect x="34.5" y="46.464" fill="#F8CF53" width="1.5" height="1.5"/>
<rect x="36" y="46.464" fill="#9B3419" width="1.5" height="1.5"/>
<rect x="37.5" y="46.464" fill="#5F070D" width="1.5" height="1.5"/>
<rect x="39" y="46.464" fill="#F8CF53" width="1.5" height="1.5"/>
<rect x="40.5" y="46.464" fill="#F8CF53" width="1.5" height="1.5"/>
<rect x="27" y="49.464" fill="#5F070D" width="1.5" height="1.5"/>
<rect x="28.5" y="49.464" fill="#EB982A" width="1.5" height="1.5"/>
<rect x="31.5" y="49.464" fill="#F8CF53" width="1.5" height="1.5"/>
<rect x="30" y="49.464" fill="#F8CF53" width="1.5" height="1.5"/>
<rect x="25.5" y="49.464" fill="#F8CF53" width="1.5" height="1.5"/>
<rect x="24" y="49.464" fill="#EB982A" width="1.5" height="1.5"/>
<rect x="22.5" y="49.464" fill="#9B3419" width="1.5" height="1.5"/>
<rect x="33" y="49.464" fill="#9B3419" width="1.5" height="1.5"/>
<rect x="34.5" y="49.464" fill="#9B3419" width="1.5" height="1.5"/>
<rect x="36" y="49.464" fill="#F8CF53" width="1.5" height="1.5"/>
<rect x="37.5" y="49.464" fill="#F8CF53" width="1.5" height="1.5"/>
<rect x="39" y="49.464" fill="#F8CF53" width="1.5" height="1.5"/>
<rect x="40.5" y="49.464" fill="#F8CF53" width="1.5" height="1.5"/>
<rect x="42" y="49.464" fill="#F8CF53" width="1.5" height="1.5"/>
<rect x="43.5" y="49.464" fill="#F8CF53" width="1.5" height="1.5"/>
<rect x="45" y="49.464" fill="#5F070D" width="1.5" height="1.5"/>
<rect x="22.5" y="4.49" fill="#FDF2BA" width="1.5" height="1.5"/>
<rect x="24" y="4.49" fill="#F8CF53" width="1.5" height="1.5"/>
<rect x="22.5" y="5.99" fill="#F8CF53" width="1.5" height="1.5"/>
<rect x="22.5" y="8.988" fill="#FDF2BA" width="1.5" height="1.5"/>
<rect x="21" y="8.988" fill="#9B3419" width="1.5" height="1.5"/>
<rect x="19.5" y="8.988" fill="#F8CF53" width="1.5" height="1.5"/>
<rect x="18" y="8.988" fill="#FDF2BA" width="1.5" height="1.5"/>
<rect x="16.5" y="8.988" fill="#FDF2BA" width="1.5" height="1.5"/>
<rect x="24" y="8.988" fill="#9B3419" width="1.5" height="1.5"/>
<rect x="22.5" y="10.482" fill="#F8CF53" width="1.5" height="1.5"/>
<rect x="24" y="10.482" fill="#5F070D" width="1.5" height="1.5"/>
<rect x="22.5" y="13.472" fill="#F8CF53" width="1.5" height="1.5"/>
<rect x="24" y="13.472" fill="#9B3419" width="1.5" height="1.5"/>
<rect x="22.5" y="14.975" fill="#9B3419" width="1.5" height="1.5"/>
<rect x="24" y="14.975" fill="#FDF2BA" width="1.5" height="1.5"/>
<rect x="22.5" y="17.978" fill="#F8CF53" width="1.5" height="1.5"/>
<rect x="21" y="13.475" fill="#FDF2BA" width="1.5" height="1.5"/>
<rect x="21" y="14.975" fill="#F8CF53" width="1.5" height="1.5"/>
<rect x="19.5" y="14.975" fill="#9B3419" width="1.5" height="1.5"/>
<rect x="19.5" y="13.475" fill="#9B3419" width="1.5" height="1.5"/>
<rect x="16.5" y="11.975" fill="#FDF2BA" width="1.5" height="1.5"/>
<rect x="18" y="11.975" fill="#FDF2BA" width="1.5" height="1.5"/>
<rect x="19.5" y="11.975" fill="#F8CF53" width="1.5" height="1.5"/>
<rect x="21" y="11.975" fill="#FDF2BA" width="1.5" height="1.5"/>
<rect x="21" y="10.485" fill="#9B3419" width="1.5" height="1.5"/>
<rect x="19.5" y="10.485" fill="#9B3419" width="1.5" height="1.5"/>
<rect x="18" y="10.485" fill="#FDF2BA" width="1.5" height="1.5"/>
<rect x="16.5" y="10.485" fill="#EB982A" width="1.5" height="1.5"/>
<rect x="15" y="10.485" fill="#FDF2BA" width="1.5" height="1.5"/>
<rect x="24" y="17.978" fill="#F8CF53" width="1.5" height="1.5"/>
<rect x="25.5" y="17.978" fill="#9B3419" width="1.5" height="1.5"/>
<rect x="25.5" y="19.475" fill="#F8CF53" width="1.5" height="1.5"/>
<rect x="27" y="20.972" fill="#9B3419" width="1.5" height="1.5"/>
<rect x="25.5" y="20.972" fill="#F8CF53" width="1.5" height="1.5"/>
<rect x="27" y="22.472" fill="#5F070D" width="1.5" height="1.5"/>
<rect x="25.5" y="22.472" fill="#F8CF53" width="1.5" height="1.5"/>
<rect x="22.5" y="11.975" fill="#FDF2BA" width="1.5" height="1.5"/>
<rect x="24" y="11.975" fill="#5F070D" width="1.5" height="1.5"/>
<rect x="7.5" y="11.975" fill="#F8CF53" width="1.5" height="1.5"/>
<rect x="7.5" y="13.475" fill="#F8CF53" width="1.5" height="1.5"/>
<rect x="9" y="13.475" fill="#9B3419" width="1.5" height="1.5"/>
<rect x="6" y="11.975" fill="#1A1818" width="1.5" height="1.5"/>
<rect x="4.5" y="11.975" fill="#F8CF53" width="1.5" height="1.5"/>
<rect x="3" y="11.975" fill="#F8CF53" width="1.5" height="1.5"/>
<rect x="1.5" y="10.485" fill="#1A1818" width="1.5" height="1.5"/>
<rect x="1.5" y="8.988" fill="#EB982A" width="1.5" height="1.5"/>
<rect y="8.988" fill="#EB982A" width="1.5" height="1.5"/>
<rect x="3" y="10.485" fill="#1A1818" width="1.5" height="1.5"/>
<rect x="3" y="8.988" fill="#FDF2BA" width="1.5" height="1.5"/>
<rect x="9" y="11.975" fill="#F8CF53" width="1.5" height="1.5"/>
<rect x="10.5" y="11.975" fill="#FDF2BA" width="1.5" height="1.5"/>
<rect x="12" y="11.975" fill="#EB982A" width="1.5" height="1.5"/>
<rect x="13.5" y="11.975" fill="#F8CF53" width="1.5" height="1.5"/>
<rect x="7.5" y="10.485" fill="#F8CF53" width="1.5" height="1.5"/>
<rect x="6" y="10.485" fill="#FDF2BA" width="1.5" height="1.5"/>
<rect x="4.5" y="10.485" fill="#1A1818" width="1.5" height="1.5"/>
<rect x="9" y="10.485" fill="#FDF2BA" width="1.5" height="1.5"/>
<rect x="10.5" y="10.485" fill="#F8CF53" width="1.5" height="1.5"/>
<rect x="12" y="10.485" fill="#FDF2BA" width="1.5" height="1.5"/>
<rect x="13.5" y="10.485" fill="#F8CF53" width="1.5" height="1.5"/>
<rect x="15" y="8.988" fill="#FDF2BA" width="1.5" height="1.5"/>
<rect x="7.5" y="8.988" fill="#FDF2BA" width="1.5" height="1.5"/>
<rect x="6" y="8.988" fill="#FDF2BA" width="1.5" height="1.5"/>
<rect x="4.5" y="8.988" fill="#FDF2BA" width="1.5" height="1.5"/>
<rect x="9" y="8.988" fill="#FDF2BA" width="1.5" height="1.5"/>
<rect x="10.5" y="8.988" fill="#F8CF53" width="1.5" height="1.5"/>
<rect x="12" y="8.988" fill="#FDF2BA" width="1.5" height="1.5"/>
<rect x="13.5" y="8.988" fill="#FDF2BA" width="1.5" height="1.5"/>
<rect x="16.5" y="7.49" fill="#FDF2BA" width="1.5" height="1.5"/>
<rect x="15" y="7.49" fill="#FDF2BA" width="1.5" height="1.5"/>
<rect x="7.5" y="7.49" fill="#FDF2BA" width="1.5" height="1.5"/>
<rect x="6" y="7.49" fill="#EB982A" width="1.5" height="1.5"/>
<rect x="4.5" y="7.49" fill="#F8CF53" width="1.5" height="1.5"/>
<rect x="3" y="7.49" fill="#EB982A" width="1.5" height="1.5"/>
<rect x="9" y="7.49" fill="#F8CF53" width="1.5" height="1.5"/>
<rect x="10.5" y="7.49" fill="#1A1818" width="1.5" height="1.5"/>
<rect x="12" y="7.49" fill="#FFFFFF" width="1.5" height="1.5"/>
<rect x="13.5" y="7.49" fill="#F8CF53" width="1.5" height="1.5"/>
<rect x="16.5" y="5.99" fill="#F8CF53" width="1.5" height="1.5"/>
<rect x="15" y="5.99" fill="#FDF2BA" width="1.5" height="1.5"/>
<rect x="7.5" y="5.99" fill="#EB982A" width="1.5" height="1.5"/>
<rect x="9" y="5.99" fill="#F8CF53" width="1.5" height="1.5"/>
<rect x="10.5" y="5.99" fill="#FDF2BA" width="1.5" height="1.5"/>
<rect x="12" y="5.99" fill="#F8CF53" width="1.5" height="1.5"/>
<rect x="10.5" y="4.49" fill="#EB982A" width="1.5" height="1.5"/>
<rect x="12" y="4.49" fill="#EB982A" width="1.5" height="1.5"/>
<rect x="13.5" y="5.99" fill="#FDF2BA" width="1.5" height="1.5"/>
<rect x="15" y="11.975" fill="#FDF2BA" width="1.5" height="1.5"/>
<rect x="25.5" y="14.972" fill="#5F070D" width="1.5" height="1.5"/>
<rect x="22.5" y="16.478" fill="#9B3419" width="1.5" height="1.5"/>
<rect x="24" y="16.478" fill="#9B3419" width="1.5" height="1.5"/>
<rect x="25.5" y="16.475" fill="#F8CF53" width="1.5" height="1.5"/>
<rect x="22.5" y="2.993" fill="#1A1818" width="1.5" height="1.5"/>
<rect x="21" y="2.993" fill="#F8CF53" width="1.5" height="1.5"/>
<rect x="19.5" y="2.993" fill="#F8CF53" width="1.5" height="1.5"/>
<rect x="21" y="4.49" fill="#1A1818" width="1.5" height="1.5"/>
<rect x="19.5" y="4.49" fill="#F8CF53" width="1.5" height="1.5"/>
<rect x="19.5" y="5.99" fill="#FDF2BA" width="1.5" height="1.5"/>
<rect x="18" y="4.49" fill="#EB982A" width="1.5" height="1.5"/>
<rect x="16.5" y="4.49" fill="#F8CF53" width="1.5" height="1.5"/>
<rect x="15" y="4.49" fill="#FDF2BA" width="1.5" height="1.5"/>
<rect x="15" y="2.985" fill="#F8CF53" width="1.5" height="1.5"/>
<rect x="13.5" y="2.985" fill="#EB982A" width="1.5" height="1.5"/>
<rect x="13.5" y="4.49" fill="#F8CF53" width="1.5" height="1.5"/>
<rect x="13.5" y="1.498" fill="#9B3419" width="1.5" height="1.5"/>
<rect x="16.5" y="2.985" fill="#EB982A" width="1.5" height="1.5"/>
<rect x="16.5" y="1.498" fill="#9B3419" width="1.5" height="1.5"/>
<rect x="18" fill="#5F070D" width="1.5" height="1.5"/>
<rect x="18" y="5.99" fill="#FDF2BA" width="1.5" height="1.5"/>
<rect x="21" y="5.99" fill="#FDF2BA" width="1.5" height="1.5"/>
<rect x="24" y="2.993" fill="#1A1818" width="1.5" height="1.5"/>
<rect x="22.5" y="7.49" fill="#EB982A" width="1.5" height="1.5"/>
<rect x="21" y="7.49" fill="#EB982A" width="1.5" height="1.5"/>
<rect x="19.5" y="7.49" fill="#EB982A" width="1.5" height="1.5"/>
<rect x="18" y="7.49" fill="#FDF2BA" width="1.5" height="1.5"/>
</svg>
