<?xml version="1.0" encoding="utf-8"?>
<!-- Generator: Adobe Illustrator 15.0.2, SVG Export Plug-In . SVG Version: 6.00 Build 0)  -->
<!DOCTYPE svg PUBLIC "-//W3C//DTD SVG 1.1//EN" "http://www.w3.org/Graphics/SVG/1.1/DTD/svg11.dtd">
<svg version="1.1" id="Layer_1" xmlns="http://www.w3.org/2000/svg" xmlns:xlink="http://www.w3.org/1999/xlink" x="0px" y="0px"
	 width="19.5px" height="29.968px" viewBox="0 0 19.5 29.968" enable-background="new 0 0 19.5 29.968" xml:space="preserve">
<g>
	<rect x="4.5" fill="#231F20" width="1.5" height="1.5"/>
	<rect x="6" fill="#231F20" width="1.5" height="1.5"/>
	<rect x="7.5" fill="#231F20" width="1.5" height="1.5"/>
	<rect x="9" fill="#231F20" width="1.5" height="1.5"/>
	<rect x="3" y="2.997" fill="#231F20" width="1.5" height="1.5"/>
	<rect x="4.5" y="2.997" fill="#414042" width="1.5" height="1.5"/>
	<rect x="6" y="2.997" fill="#231F20" width="1.5" height="1.5"/>
	<rect x="7.5" y="2.997" fill="#EADAB2" width="1.5" height="1.5"/>
	<rect x="9" y="2.997" fill="#EADAB2" width="1.5" height="1.5"/>
	<rect x="10.5" y="2.997" fill="#EADAB2" width="1.5" height="1.5"/>
	<rect x="3" y="4.497" fill="#E8CD8D" width="1.5" height="1.5"/>
	<rect x="4.5" y="4.497" fill="#E8CD8D" width="1.5" height="1.5"/>
	<rect x="6" y="4.497" fill="#E8CD8D" width="1.5" height="1.5"/>
	<rect x="7.5" y="4.497" fill="#E8CD8D" width="1.5" height="1.5"/>
	<rect x="9" y="4.497" fill="#E8CD8D" width="1.5" height="1.5"/>
	<rect x="10.5" y="4.497" fill="#E8CD8D" width="1.5" height="1.5"/>
	<rect x="3" y="5.997" fill="#EADAB2" width="1.5" height="1.5"/>
	<rect x="4.5" y="5.997" fill="#EADAB2" width="1.5" height="1.5"/>
	<rect x="3" y="7.491" fill="#231F20" width="1.5" height="1.5"/>
	<rect x="4.5" y="7.491" fill="#414042" width="1.5" height="1.5"/>
	<rect x="3" y="10.481" fill="#E8CD8D" width="1.5" height="1.5"/>
	<rect x="4.5" y="10.481" fill="#3B2314" width="1.5" height="1.5"/>
	<rect x="3" y="11.984" fill="#E8CD8D" width="1.5" height="1.5"/>
	<rect x="4.5" y="11.984" fill="#E8CD8D" width="1.5" height="1.5"/>
	<rect x="3" y="13.481" fill="#B5AA8C" width="1.5" height="1.5"/>
	<rect x="1.5" y="11.984" fill="#E8CD8D" width="1.5" height="1.5"/>
	<rect y="11.984" fill="#E8CD8D" width="1.5" height="1.5"/>
	<rect x="1.5" y="10.484" fill="#E8CD8D" width="1.5" height="1.5"/>
	<rect x="4.5" y="13.481" fill="#CDC09D" width="1.5" height="1.5"/>
	<rect x="7.5" y="13.481" fill="#CDC09D" width="1.5" height="1.5"/>
	<rect x="6" y="13.481" fill="#CDC09D" width="1.5" height="1.5"/>
	<rect x="9" y="13.481" fill="#EADAB2" width="1.5" height="1.5"/>
	<rect x="12" y="13.481" fill="#E8CD8D" width="1.5" height="1.5"/>
	<rect x="10.5" y="13.481" fill="#EADAB2" width="1.5" height="1.5"/>
	<rect x="7.5" y="14.979" fill="#FFFFFF" width="1.5" height="1.5"/>
	<rect x="6" y="14.979" fill="#FFFFFF" width="1.5" height="1.5"/>
	<rect x="9" y="14.979" fill="#FFFFFF" width="1.5" height="1.5"/>
	<rect x="10.5" y="14.979" fill="#AD6D67" width="1.5" height="1.5"/>
	<rect x="7.5" y="16.476" fill="#C97D7A" width="1.5" height="1.5"/>
	<rect x="6" y="16.476" fill="#C97D7A" width="1.5" height="1.5"/>
	<rect x="9" y="16.476" fill="#AD6D67" width="1.5" height="1.5"/>
	<rect x="10.5" y="16.476" fill="#E8CD8D" width="1.5" height="1.5"/>
	<rect x="7.5" y="17.976" fill="#CDC09D" width="1.5" height="1.5"/>
	<rect x="6" y="17.976" fill="#B5AA8C" width="1.5" height="1.5"/>
	<rect x="9" y="17.976" fill="#E8CD8D" width="1.5" height="1.5"/>
	<rect x="7.5" y="19.476" fill="#E8CD8D" width="1.5" height="1.5"/>
	<rect x="9" y="19.476" fill="#E8CD8D" width="1.5" height="1.5"/>
	<rect x="7.5" y="22.468" fill="#E8CD8D" width="1.5" height="1.5"/>
	<rect x="9" y="22.468" fill="#E8CD8D" width="1.5" height="1.5"/>
	<rect x="10.5" y="19.476" fill="#E8CD8D" width="1.5" height="1.5"/>
	<rect x="7.5" y="20.968" fill="#EADAB2" width="1.5" height="1.5"/>
	<rect x="9" y="20.968" fill="#E8CD8D" width="1.5" height="1.5"/>
	<rect x="10.5" y="20.968" fill="#E8CD8D" width="1.5" height="1.5"/>
	<rect x="10.5" y="17.976" fill="#E8CD8D" width="1.5" height="1.5"/>
	<rect x="12" y="17.976" fill="#E8CD8D" width="1.5" height="1.5"/>
	<rect x="12" y="22.468" fill="#7A1D0F" width="1.5" height="1.5"/>
	<rect x="10.5" y="22.468" fill="#E8CD8D" width="1.5" height="1.5"/>
	<rect x="6" y="22.468" fill="#7A1D0F" width="1.5" height="1.5"/>
	<rect x="4.5" y="22.468" fill="#009444" width="1.5" height="1.5"/>
	<rect x="13.5" y="22.468" fill="#006838" width="1.5" height="1.5"/>
	<rect x="15" y="22.468" fill="#009444" width="1.5" height="1.5"/>
	<rect x="7.5" y="25.468" fill="#006838" width="1.5" height="1.5"/>
	<rect x="9" y="25.468" fill="#BE1E2D" width="1.5" height="1.5"/>
	<rect x="12" y="25.468" fill="#006838" width="1.5" height="1.5"/>
	<rect x="10.5" y="25.468" fill="#009444" width="1.5" height="1.5"/>
	<rect x="6" y="25.468" fill="#006838" width="1.5" height="1.5"/>
	<rect x="4.5" y="25.468" fill="#006838" width="1.5" height="1.5"/>
	<rect x="3" y="25.468" fill="#006838" width="1.5" height="1.5"/>
	<rect x="13.5" y="25.468" fill="#006838" width="1.5" height="1.5"/>
	<rect x="15" y="25.468" fill="#006838" width="1.5" height="1.5"/>
	<rect x="16.5" y="25.468" fill="#006838" width="1.5" height="1.5"/>
	<rect x="18" y="25.468" fill="#006838" width="1.5" height="1.5"/>
	<rect x="7.5" y="28.468" fill="#009444" width="1.5" height="1.5"/>
	<rect x="9" y="28.468" fill="#006838" width="1.5" height="1.5"/>
	<rect x="12" y="28.468" fill="#006838" width="1.5" height="1.5"/>
	<rect x="10.5" y="28.468" fill="#FFFFFF" width="1.5" height="1.5"/>
	<rect x="6" y="28.468" fill="#006838" width="1.5" height="1.5"/>
	<rect x="4.5" y="28.468" fill="#006838" width="1.5" height="1.5"/>
	<rect x="3" y="28.468" fill="#E8CD8D" width="1.5" height="1.5"/>
	<rect x="13.5" y="28.468" fill="#FFFFFF" width="1.5" height="1.5"/>
	<rect x="15" y="28.468" fill="#CDC09D" width="1.5" height="1.5"/>
	<rect x="16.5" y="28.468" fill="#E8CD8D" width="1.5" height="1.5"/>
	<rect x="18" y="28.468" fill="#E8CD8D" width="1.5" height="1.5"/>
	<rect x="7.5" y="23.968" fill="#7A1D0F" width="1.5" height="1.5"/>
	<rect x="9" y="23.968" fill="#7A1D0F" width="1.5" height="1.5"/>
	<rect x="12" y="23.968" fill="#009444" width="1.5" height="1.5"/>
	<rect x="10.5" y="23.968" fill="#7A1D0F" width="1.5" height="1.5"/>
	<rect x="6" y="23.968" fill="#006838" width="1.5" height="1.5"/>
	<rect x="4.5" y="23.968" fill="#006838" width="1.5" height="1.5"/>
	<rect x="3" y="23.968" fill="#009444" width="1.5" height="1.5"/>
	<rect x="13.5" y="23.968" fill="#006838" width="1.5" height="1.5"/>
	<rect x="15" y="23.968" fill="#006838" width="1.5" height="1.5"/>
	<rect x="16.5" y="23.968" fill="#006838" width="1.5" height="1.5"/>
	<rect x="18" y="23.968" fill="#009444" width="1.5" height="1.5"/>
	<rect x="7.5" y="26.968" fill="#006838" width="1.5" height="1.5"/>
	<rect x="9" y="26.968" fill="#009444" width="1.5" height="1.5"/>
	<rect x="12" y="26.968" fill="#FFFFFF" width="1.5" height="1.5"/>
	<rect x="10.5" y="26.968" fill="#006838" width="1.5" height="1.5"/>
	<rect x="6" y="26.968" fill="#FFFFFF" width="1.5" height="1.5"/>
	<rect x="4.5" y="26.968" fill="#006838" width="1.5" height="1.5"/>
	<rect x="3" y="26.968" fill="#7A1D0F" width="1.5" height="1.5"/>
	<rect x="1.5" y="25.468" fill="#006838" width="1.5" height="1.5"/>
	<rect x="1.5" y="28.468" fill="#E8CD8D" width="1.5" height="1.5"/>
	<rect x="1.5" y="26.968" fill="#7A1D0F" width="1.5" height="1.5"/>
	<rect x="13.5" y="26.968" fill="#006838" width="1.5" height="1.5"/>
	<rect x="15" y="26.968" fill="#7A1D0F" width="1.5" height="1.5"/>
	<rect x="16.5" y="26.968" fill="#7A1D0F" width="1.5" height="1.5"/>
	<rect x="18" y="26.968" fill="#7A1D0F" width="1.5" height="1.5"/>
	<rect x="13.5" y="13.481" fill="#E8CD8D" width="1.5" height="1.5"/>
	<rect x="12" y="11.984" fill="#231F20" width="1.5" height="1.5"/>
	<rect x="13.5" y="11.984" fill="#E8CD8D" width="1.5" height="1.5"/>
	<rect x="12" y="16.476" fill="#E8CD8D" width="1.5" height="1.5"/>
	<rect x="13.5" y="16.476" fill="#E8CD8D" width="1.5" height="1.5"/>
	<rect x="12" y="14.979" fill="#EADAB2" width="1.5" height="1.5"/>
	<rect x="13.5" y="14.979" fill="#E8CD8D" width="1.5" height="1.5"/>
	<rect x="12" y="10.481" fill="#231F20" width="1.5" height="1.5"/>
	<rect x="13.5" y="10.481" fill="#E8CD8D" width="1.5" height="1.5"/>
	<rect x="12" y="7.491" fill="#231F20" width="1.5" height="1.5"/>
	<rect x="13.5" y="7.491" fill="#231F20" width="1.5" height="1.5"/>
	<rect x="15" y="10.481" fill="#E8CD8D" width="1.5" height="1.5"/>
	<rect x="15" y="8.984" fill="#E8CD8D" width="1.5" height="1.5"/>
	<rect x="6" y="5.997" fill="#E8CD8D" width="1.5" height="1.5"/>
	<rect x="7.5" y="5.997" fill="#E8CD8D" width="1.5" height="1.5"/>
	<rect x="9" y="5.997" fill="#E8CD8D" width="1.5" height="1.5"/>
	<rect x="10.5" y="5.997" fill="#414042" width="1.5" height="1.5"/>
	<rect x="6" y="7.491" fill="#E8CD8D" width="1.5" height="1.5"/>
	<rect x="7.5" y="7.491" fill="#E8CD8D" width="1.5" height="1.5"/>
	<rect x="9" y="7.491" fill="#E8CD8D" width="1.5" height="1.5"/>
	<rect x="10.5" y="7.491" fill="#414042" width="1.5" height="1.5"/>
	<rect x="3" y="8.984" fill="#E8CD8D" width="1.5" height="1.5"/>
	<rect x="4.5" y="8.984" fill="#E8CD8D" width="1.5" height="1.5"/>
	<rect x="12" y="8.984" fill="#231F20" width="1.5" height="1.5"/>
	<rect x="13.5" y="8.984" fill="#231F20" width="1.5" height="1.5"/>
	<rect x="6" y="8.984" fill="#E8CD8D" width="1.5" height="1.5"/>
	<rect x="7.5" y="8.984" fill="#E8CD8D" width="1.5" height="1.5"/>
	<rect x="9" y="8.984" fill="#E8CD8D" width="1.5" height="1.5"/>
	<rect x="10.5" y="8.984" fill="#E8CD8D" width="1.5" height="1.5"/>
	<rect x="6" y="10.481" fill="#FFFFFF" width="1.5" height="1.5"/>
	<rect x="7.5" y="10.481" fill="#E8CD8D" width="1.5" height="1.5"/>
	<rect x="9" y="10.481" fill="#E8CD8D" width="1.5" height="1.5"/>
	<rect x="10.5" y="10.481" fill="#E8CD8D" width="1.5" height="1.5"/>
	<rect x="6" y="11.981" fill="#E8CD8D" width="1.5" height="1.5"/>
	<rect x="7.5" y="11.981" fill="#EADAB2" width="1.5" height="1.5"/>
	<rect x="9" y="11.981" fill="#EADAB2" width="1.5" height="1.5"/>
	<rect x="10.5" y="11.981" fill="#E8CD8D" width="1.5" height="1.5"/>
	<rect x="12" y="2.997" fill="#231F20" width="1.5" height="1.5"/>
	<rect x="13.5" y="2.997" fill="#231F20" width="1.5" height="1.5"/>
	<rect x="3" y="1.5" fill="#414042" width="1.5" height="1.5"/>
	<rect x="4.5" y="1.5" fill="#231F20" width="1.5" height="1.5"/>
	<rect x="6" y="1.5" fill="#231F20" width="1.5" height="1.5"/>
	<rect x="7.5" y="1.5" fill="#414042" width="1.5" height="1.5"/>
	<rect x="9" y="1.5" fill="#231F20" width="1.5" height="1.5"/>
	<rect x="10.5" y="1.5" fill="#231F20" width="1.5" height="1.5"/>
	<rect x="12" y="1.5" fill="#231F20" width="1.5" height="1.5"/>
	<rect x="10.5" fill="#231F20" width="1.5" height="1.5"/>
	<rect x="12" fill="#231F20" width="1.5" height="1.5"/>
	<rect x="13.5" y="1.5" fill="#231F20" width="1.5" height="1.5"/>
	<rect x="13.5" fill="#231F20" width="1.5" height="1.5"/>
	<rect x="15" y="2.997" fill="#231F20" width="1.5" height="1.5"/>
	<rect x="15" y="1.5" fill="#231F20" width="1.5" height="1.5"/>
	<rect x="12" y="4.497" fill="#231F20" width="1.5" height="1.5"/>
	<rect x="13.5" y="4.497" fill="#414042" width="1.5" height="1.5"/>
	<rect x="12" y="5.997" fill="#231F20" width="1.5" height="1.5"/>
	<rect x="13.5" y="5.997" fill="#231F20" width="1.5" height="1.5"/>
	<rect x="15" y="7.491" fill="#E8CD8D" width="1.5" height="1.5"/>
	<rect x="15" y="4.497" fill="#231F20" width="1.5" height="1.5"/>
	<rect x="16.5" y="2.997" fill="#231F20" width="1.5" height="1.5"/>
	<rect x="16.5" y="4.497" fill="#231F20" width="1.5" height="1.5"/>
	<rect x="15" y="5.997" fill="#231F20" width="1.5" height="1.5"/>
	<rect x="16.5" y="10.488" fill="#E8CD8D" width="1.5" height="1.5"/>
	<rect x="16.5" y="8.994" fill="#E8CD8D" width="1.5" height="1.5"/>
	<rect x="16.5" y="7.496" fill="#EADAB2" width="1.5" height="1.5"/>
	<rect x="16.5" y="5.996" fill="#231F20" width="1.5" height="1.5"/>
	<rect x="15" y="13.479" fill="#231F20" width="1.5" height="1.5"/>
	<rect x="16.5" y="11.985" fill="#231F20" width="1.5" height="1.5"/>
	<rect x="15" y="11.984" fill="#231F20" width="1.5" height="1.5"/>
</g>
</svg>
