<?xml version="1.0" encoding="utf-8"?>
<!-- Generator: Adobe Illustrator 15.0.2, SVG Export Plug-In . SVG Version: 6.00 Build 0)  -->
<!DOCTYPE svg PUBLIC "-//W3C//DTD SVG 1.1//EN" "http://www.w3.org/Graphics/SVG/1.1/DTD/svg11.dtd">
<svg version="1.1" id="Layer_1" xmlns="http://www.w3.org/2000/svg" xmlns:xlink="http://www.w3.org/1999/xlink" x="0px" y="0px"
	 width="19.5px" height="31.482px" viewBox="0 0 19.5 31.482" enable-background="new 0 0 19.5 31.482" xml:space="preserve">
<g>
	<rect x="4.5" y="7.498" fill="#E8CD8D" width="1.5" height="1.5"/>
	<rect x="6" y="7.498" fill="#E8CD8D" width="1.5" height="1.5"/>
	<rect x="7.5" y="7.498" fill="#E8CD8D" width="1.5" height="1.5"/>
	<rect x="9" y="7.498" fill="#E8CD8D" width="1.5" height="1.5"/>
	<rect x="10.5" y="7.497" fill="#3C2415" width="1.5" height="1.5"/>
	<rect x="3" y="8.998" fill="#E8CD8D" width="1.5" height="1.5"/>
	<rect x="4.5" y="8.998" fill="#8B5E3C" width="1.5" height="1.5"/>
	<rect x="6" y="8.997" fill="#A97C50" width="1.5" height="1.5"/>
	<rect x="7.5" y="8.997" fill="#A97C50" width="1.5" height="1.5"/>
	<rect x="9" y="8.997" fill="#E8CD8D" width="1.5" height="1.5"/>
	<rect x="10.5" y="8.998" fill="#E8CD8D" width="1.5" height="1.5"/>
	<rect x="3" y="10.498" fill="#E8CD8D" width="1.5" height="1.5"/>
	<rect x="4.5" y="10.498" fill="#E8CD8D" width="1.5" height="1.5"/>
	<rect x="3" y="11.992" fill="#E8CD8D" width="1.5" height="1.5"/>
	<rect x="4.5" y="11.992" fill="#E8CD8D" width="1.5" height="1.5"/>
	<rect x="3" y="13.49" fill="#E8CD8D" width="1.5" height="1.5"/>
	<rect x="4.5" y="13.49" fill="#E8CD8D" width="1.5" height="1.5"/>
	<rect x="3" y="14.992" fill="#E8CD8D" width="1.5" height="1.5"/>
	<rect x="4.5" y="14.992" fill="#E8CD8D" width="1.5" height="1.5"/>
	<rect x="3" y="16.488" fill="#E8CD8D" width="1.5" height="1.5"/>
	<rect x="1.5" y="14.992" fill="#EADAB2" width="1.5" height="1.5"/>
	<rect x="1.5" y="13.492" fill="#E8CD8D" width="1.5" height="1.5"/>
	<rect y="14.992" fill="#E8CD8D" width="1.5" height="1.5"/>
	<rect y="13.492" fill="#E8CD8D" width="1.5" height="1.5"/>
	<rect y="11.991" fill="#E8CD8D" width="1.5" height="1.5"/>
	<rect x="1.5" y="11.992" fill="#E8CD8D" width="1.5" height="1.5"/>
	<rect x="4.5" y="16.488" fill="#E8CD8D" width="1.5" height="1.5"/>
	<rect x="7.5" y="16.488" fill="#E8CD8D" width="1.5" height="1.5"/>
	<rect x="6" y="16.488" fill="#E8CD8D" width="1.5" height="1.5"/>
	<rect x="9" y="16.488" fill="#E8CD8D" width="1.5" height="1.5"/>
	<rect x="12" y="16.488" fill="#E8CD8D" width="1.5" height="1.5"/>
	<rect x="10.5" y="16.488" fill="#E8CD8D" width="1.5" height="1.5"/>
	<rect x="7.5" y="17.985" fill="#FFFFFF" width="1.5" height="1.5"/>
	<rect x="6" y="17.985" fill="#FFFFFF" width="1.5" height="1.5"/>
	<rect x="9" y="17.985" fill="#BE1E2D" width="1.5" height="1.5"/>
	<rect x="10.5" y="17.985" fill="#E8CD8D" width="1.5" height="1.5"/>
	<rect x="7.5" y="19.482" fill="#BE1E2D" width="1.5" height="1.5"/>
	<rect x="6" y="19.482" fill="#BE1E2D" width="1.5" height="1.5"/>
	<rect x="9" y="19.482" fill="#E8CD8D" width="1.5" height="1.5"/>
	<rect x="10.5" y="19.482" fill="#E8CD8D" width="1.5" height="1.5"/>
	<rect x="7.5" y="20.982" fill="#E8CD8D" width="1.5" height="1.5"/>
	<rect x="6" y="20.982" fill="#E8CD8D" width="1.5" height="1.5"/>
	<rect x="4.5" y="19.482" fill="#BE1E2D" width="1.5" height="1.5"/>
	<rect x="4.5" y="20.982" fill="#E8CD8D" width="1.5" height="1.5"/>
	<rect x="9" y="20.982" fill="#E8CD8D" width="1.5" height="1.5"/>
	<rect x="7.5" y="22.482" fill="#CDC09D" width="1.5" height="1.5"/>
	<rect x="6" y="22.482" fill="#CDC09D" width="1.5" height="1.5"/>
	<rect x="9" y="22.482" fill="#CDC09D" width="1.5" height="1.5"/>
	<rect x="7.5" y="23.982" fill="#E8CD8D" width="1.5" height="1.5"/>
	<rect x="9" y="23.982" fill="#E8CD8D" width="1.5" height="1.5"/>
	<rect x="10.5" y="22.482" fill="#E8CD8D" width="1.5" height="1.5"/>
	<rect x="10.5" y="20.982" fill="#CDC09D" width="1.5" height="1.5"/>
	<rect x="12" y="20.982" fill="#E8CD8D" width="1.5" height="1.5"/>
	<rect x="12" y="22.482" fill="#E8CD8D" width="1.5" height="1.5"/>
	<rect x="13.5" y="22.482" fill="#6099BB" width="1.5" height="1.5"/>
	<rect x="13.5" y="20.982" fill="#6099BB" width="1.5" height="1.5"/>
	<rect x="15" y="22.482" fill="#6099BB" width="1.5" height="1.5"/>
	<rect x="15" y="20.982" fill="#6099BB" width="1.5" height="1.5"/>
	<rect x="16.5" y="20.982" fill="#6099BB" width="1.5" height="1.5"/>
	<rect x="12" y="23.982" fill="#E8CD8D" width="1.5" height="1.5"/>
	<rect x="10.5" y="23.982" fill="#E8CD8D" width="1.5" height="1.5"/>
	<rect x="6" y="23.982" fill="#6099BB" width="1.5" height="1.5"/>
	<rect x="4.5" y="23.982" fill="#6099BB" width="1.5" height="1.5"/>
	<rect x="4.5" y="22.482" fill="#6099BB" width="1.5" height="1.5"/>
	<rect x="3" y="22.482" fill="#6099BB" width="1.5" height="1.5"/>
	<rect x="13.5" y="23.982" fill="#6099BB" width="1.5" height="1.5"/>
	<rect x="15" y="23.982" fill="#6099BB" width="1.5" height="1.5"/>
	<rect x="16.5" y="23.982" fill="#6099BB" width="1.5" height="1.5"/>
	<rect x="7.5" y="26.982" fill="#231F20" width="1.5" height="1.5"/>
	<rect x="9" y="26.982" fill="#231F20" width="1.5" height="1.5"/>
	<rect x="12" y="26.982" fill="#6099BB" width="1.5" height="1.5"/>
	<rect x="10.5" y="26.982" fill="#231F20" width="1.5" height="1.5"/>
	<rect x="6" y="26.982" fill="#6099BB" width="1.5" height="1.5"/>
	<rect x="6" y="28.482" fill="#6099BB" width="1.5" height="1.5"/>
	<rect x="4.5" y="26.982" fill="#6099BB" width="1.5" height="1.5"/>
	<rect x="3" y="26.982" fill="#6099BB" width="1.5" height="1.5"/>
	<rect x="13.5" y="26.982" fill="#6099BB" width="1.5" height="1.5"/>
	<rect x="15" y="26.982" fill="#334D6B" width="1.5" height="1.5"/>
	<rect x="16.5" y="26.982" fill="#6099BB" width="1.5" height="1.5"/>
	<rect x="18" y="26.982" fill="#6099BB" width="1.5" height="1.5"/>
	<rect x="7.5" y="29.982" fill="#6099BB" width="1.5" height="1.5"/>
	<rect x="9" y="29.982" fill="#6099BB" width="1.5" height="1.5"/>
	<rect x="12" y="29.982" fill="#6099BB" width="1.5" height="1.5"/>
	<rect x="10.5" y="29.982" fill="#6099BB" width="1.5" height="1.5"/>
	<rect x="6" y="29.982" fill="#6099BB" width="1.5" height="1.5"/>
	<rect x="4.5" y="29.982" fill="#6099BB" width="1.5" height="1.5"/>
	<rect x="3" y="29.982" fill="#EADAB2" width="1.5" height="1.5"/>
	<rect x="13.5" y="29.982" fill="#6099BB" width="1.5" height="1.5"/>
	<rect x="15" y="29.982" fill="#E8CD8D" width="1.5" height="1.5"/>
	<rect x="16.5" y="29.982" fill="#E8CD8D" width="1.5" height="1.5"/>
	<rect x="18" y="29.982" fill="#E8CD8D" width="1.5" height="1.5"/>
	<rect x="7.5" y="25.482" fill="#231F20" width="1.5" height="1.5"/>
	<rect x="9" y="25.482" fill="#231F20" width="1.5" height="1.5"/>
	<rect x="12" y="25.482" fill="#6099BB" width="1.5" height="1.5"/>
	<rect x="10.5" y="25.482" fill="#231F20" width="1.5" height="1.5"/>
	<rect x="6" y="25.482" fill="#6099BB" width="1.5" height="1.5"/>
	<rect x="4.5" y="25.482" fill="#6099BB" width="1.5" height="1.5"/>
	<rect x="3" y="25.482" fill="#6099BB" width="1.5" height="1.5"/>
	<rect x="13.5" y="25.482" fill="#6099BB" width="1.5" height="1.5"/>
	<rect x="15" y="25.482" fill="#6099BB" width="1.5" height="1.5"/>
	<rect x="16.5" y="25.482" fill="#6099BB" width="1.5" height="1.5"/>
	<rect x="18" y="25.482" fill="#6099BB" width="1.5" height="1.5"/>
	<rect x="7.5" y="28.482" fill="#6099BB" width="1.5" height="1.5"/>
	<rect x="9" y="28.482" fill="#231F20" width="1.5" height="1.5"/>
	<rect x="12" y="28.482" fill="#6099BB" width="1.5" height="1.5"/>
	<rect x="10.5" y="28.482" fill="#6099BB" width="1.5" height="1.5"/>
	<rect x="6" y="28.482" fill="#6099BB" width="1.5" height="1.5"/>
	<rect x="4.5" y="28.482" fill="#6099BB" width="1.5" height="1.5"/>
	<rect x="3" y="28.482" fill="#334D6B" width="1.5" height="1.5"/>
	<rect x="1.5" y="26.982" fill="#6099BB" width="1.5" height="1.5"/>
	<rect x="1.5" y="29.982" fill="#EADAB2" width="1.5" height="1.5"/>
	<rect x="1.5" y="28.482" fill="#6099BB" width="1.5" height="1.5"/>
	<rect x="13.5" y="28.482" fill="#6099BB" width="1.5" height="1.5"/>
	<rect x="15" y="28.482" fill="#334D6B" width="1.5" height="1.5"/>
	<rect x="16.5" y="28.482" fill="#6099BB" width="1.5" height="1.5"/>
	<rect x="18" y="28.482" fill="#6099BB" width="1.5" height="1.5"/>
	<rect x="13.5" y="16.488" fill="#E8CD8D" width="1.5" height="1.5"/>
	<rect x="12" y="14.991" fill="#E8CD8D" width="1.5" height="1.5"/>
	<rect x="13.5" y="14.991" fill="#E8CD8D" width="1.5" height="1.5"/>
	<rect x="12" y="19.482" fill="#E8CD8D" width="1.5" height="1.5"/>
	<rect x="13.5" y="19.482" fill="#E8CD8D" width="1.5" height="1.5"/>
	<rect x="12" y="17.985" fill="#E8CD8D" width="1.5" height="1.5"/>
	<rect x="13.5" y="17.985" fill="#E8CD8D" width="1.5" height="1.5"/>
	<rect x="12" y="13.488" fill="#E8CD8D" width="1.5" height="1.5"/>
	<rect x="13.5" y="13.488" fill="#E8CD8D" width="1.5" height="1.5"/>
	<rect x="12" y="11.991" fill="#603913" width="1.5" height="1.5"/>
	<rect x="13.5" y="11.991" fill="#EADAB2" width="1.5" height="1.5"/>
	<rect x="15" y="13.488" fill="#E8CD8D" width="1.5" height="1.5"/>
	<rect x="15" y="11.991" fill="#E8CD8D" width="1.5" height="1.5"/>
	<rect x="6" y="10.498" fill="#E8CD8D" width="1.5" height="1.5"/>
	<rect x="7.5" y="10.498" fill="#E8CD8D" width="1.5" height="1.5"/>
	<rect x="9" y="10.498" fill="#E8CD8D" width="1.5" height="1.5"/>
	<rect x="10.5" y="10.498" fill="#E8CD8D" width="1.5" height="1.5"/>
	<rect x="6" y="11.991" fill="#AA6D2D" width="1.5" height="1.5"/>
	<rect x="7.5" y="11.991" fill="#FFFFFF" width="1.5" height="1.5"/>
	<rect x="6" y="11.991" fill="#231F20" width="1.5" height="1.5"/>
	<rect x="9" y="11.992" fill="#E8CD8D" width="1.5" height="1.5"/>
	<rect x="10.5" y="11.992" fill="#E8CD8D" width="1.5" height="1.5"/>
	<rect x="6" y="13.49" fill="#E8CD8D" width="1.5" height="1.5"/>
	<rect x="7.5" y="13.49" fill="#E8CD8D" width="1.5" height="1.5"/>
	<rect x="9" y="13.49" fill="#E8CD8D" width="1.5" height="1.5"/>
	<rect x="10.5" y="13.488" fill="#E8CD8D" width="1.5" height="1.5"/>
	<rect x="6" y="14.988" fill="#E8CD8D" width="1.5" height="1.5"/>
	<rect x="7.5" y="14.988" fill="#E8CD8D" width="1.5" height="1.5"/>
	<rect x="9" y="14.988" fill="#E8CD8D" width="1.5" height="1.5"/>
	<rect x="10.5" y="14.988" fill="#E8CD8D" width="1.5" height="1.5"/>
	<rect x="12" y="7.497" fill="#594A42" width="1.5" height="1.5"/>
	<rect x="13.5" y="7.497" fill="#754C29" width="1.5" height="1.5"/>
	<rect x="4.5" y="6.002" fill="#E8CD8D" width="1.5" height="1.5"/>
	<rect x="3" y="7.498" fill="#E8CD8D" width="1.5" height="1.5"/>
	<rect x="3" y="6.002" fill="#E8CD8D" width="1.5" height="1.5"/>
	<rect x="3" y="4.502" fill="#3C2415" width="1.5" height="1.5"/>
	<rect x="3" y="3" fill="#B5AA8C" width="1.5" height="1.5"/>
	<rect x="6" y="6.002" fill="#E8CD8D" width="1.5" height="1.5"/>
	<rect x="7.5" y="6.002" fill="#E8CD8D" width="1.5" height="1.5"/>
	<rect x="9" y="6.002" fill="#E8CD8D" width="1.5" height="1.5"/>
	<rect x="10.5" y="6.002" fill="#726658" width="1.5" height="1.5"/>
	<rect x="4.5" y="4.5" fill="#E8CD8D" width="1.5" height="1.5"/>
	<rect x="6" y="4.502" fill="#E8CD8D" width="1.5" height="1.5"/>
	<rect x="7.5" y="4.502" fill="#E8CD8D" width="1.5" height="1.5"/>
	<rect x="9" y="4.502" fill="#E8CD8D" width="1.5" height="1.5"/>
	<rect x="10.5" y="4.5" fill="#E8CD8D" width="1.5" height="1.5"/>
	<rect x="12" y="6.002" fill="#726658" width="1.5" height="1.5"/>
	<rect x="12" y="4.5" fill="#726658" width="1.5" height="1.5"/>
	<rect x="4.5" y="3" fill="#8B5E3C" width="1.5" height="1.5"/>
	<rect x="4.5" y="1.5" fill="#B5AA8C" width="1.5" height="1.5"/>
	<rect x="3" y="1.5" fill="#726658" width="1.5" height="1.5"/>
	<rect x="4.5" fill="#754C29" width="1.5" height="1.5"/>
	<rect x="6" fill="#B5AA8C" width="1.5" height="1.5"/>
	<rect x="6" y="1.5" fill="#594A42" width="1.5" height="1.5"/>
	<rect x="1.5" y="1.5" fill="#3C2415" width="1.5" height="1.5"/>
	<rect x="7.5" y="1.5" fill="#594A42" width="1.5" height="1.5"/>
	<rect x="9" y="1.5" fill="#594A42" width="1.5" height="1.5"/>
	<rect x="10.5" y="1.5" fill="#3C2415" width="1.5" height="1.5"/>
	<rect x="12" y="3" fill="#3C2415" width="1.5" height="1.5"/>
	<rect x="12" y="1.5" fill="#3C2415" width="1.5" height="1.5"/>
	<rect x="7.5" fill="#594A42" width="1.5" height="1.5"/>
	<rect x="9" fill="#594A42" width="1.5" height="1.5"/>
	<rect x="10.5" fill="#C49A6C" width="1.5" height="1.5"/>
	<rect x="12" fill="#3C2415" width="1.5" height="1.5"/>
	<rect x="13.5" y="3" fill="#726658" width="1.5" height="1.5"/>
	<rect x="6" y="3" fill="#594A42" width="1.5" height="1.5"/>
	<rect x="1.5" y="3" fill="#726658" width="1.5" height="1.5"/>
	<rect x="7.5" y="3" fill="#3C2415" width="1.5" height="1.5"/>
	<rect x="9" y="3" fill="#754C29" width="1.5" height="1.5"/>
	<rect x="10.5" y="3" fill="#C49A6C" width="1.5" height="1.5"/>
	<rect x="13.5" y="6" fill="#594A42" width="1.5" height="1.5"/>
	<rect x="13.5" y="4.5" fill="#3C2415" width="1.5" height="1.5"/>
	<rect x="12" y="8.997" fill="#3C2415" width="1.5" height="1.5"/>
	<rect x="13.5" y="8.997" fill="#3C2415" width="1.5" height="1.5"/>
	<rect x="12" y="10.497" fill="#3C2415" width="1.5" height="1.5"/>
	<rect x="13.5" y="10.497" fill="#E8CD8D" width="1.5" height="1.5"/>
	<rect x="15" y="7.497" fill="#3C2415" width="1.5" height="1.5"/>
	<rect x="15" y="6" fill="#594A42" width="1.5" height="1.5"/>
	<rect x="15" y="4.5" fill="#C49A6C" width="1.5" height="1.5"/>
	<rect x="15" y="3" fill="#C49A6C" width="1.5" height="1.5"/>
	<rect x="13.5" y="1.5" fill="#3C2415" width="1.5" height="1.5"/>
	<rect x="16.5" y="3" fill="#726658" width="1.5" height="1.5"/>
	<rect x="16.5" y="1.5" fill="#3C2415" width="1.5" height="1.5"/>
	<rect x="13.5" fill="#3C2415" width="1.5" height="1.5"/>
	<rect x="15" y="1.5" fill="#3C2415" width="1.5" height="1.5"/>
	<rect x="15" fill="#3C2415" width="1.5" height="1.5"/>
	<rect x="16.5" y="7.497" fill="#3C2415" width="1.5" height="1.5"/>
	<rect x="16.5" y="6" fill="#3C2415" width="1.5" height="1.5"/>
	<rect x="16.5" y="4.5" fill="#3C2415" width="1.5" height="1.5"/>
	<rect x="15" y="8.997" fill="#3C2415" width="1.5" height="1.5"/>
	<rect x="15" y="10.497" fill="#E8CD8D" width="1.5" height="1.5"/>
</g>
</svg>
