<?xml version="1.0" encoding="utf-8"?>
<!-- Generator: Adobe Illustrator 15.0.2, SVG Export Plug-In . SVG Version: 6.00 Build 0)  -->
<!DOCTYPE svg PUBLIC "-//W3C//DTD SVG 1.1//EN" "http://www.w3.org/Graphics/SVG/1.1/DTD/svg11.dtd">
<svg version="1.1" id="Layer_1" xmlns="http://www.w3.org/2000/svg" xmlns:xlink="http://www.w3.org/1999/xlink" x="0px" y="0px"
	 width="21px" height="29.982px" viewBox="0 0 21 29.982" enable-background="new 0 0 21 29.982" xml:space="preserve">
<g>
	<rect x="4.5" y="5.998" fill="#EADAB2" width="1.5" height="1.5"/>
	<rect x="6" y="5.998" fill="#EADAB2" width="1.5" height="1.5"/>
	<rect x="7.5" y="5.998" fill="#EADAB2" width="1.5" height="1.5"/>
	<rect x="9" y="5.998" fill="#EADAB2" width="1.5" height="1.5"/>
	<rect x="10.5" y="5.997" fill="#E8CD8D" width="1.5" height="1.5"/>
	<rect x="3" y="7.498" fill="#906B22" width="1.5" height="1.5"/>
	<rect x="4.5" y="7.498" fill="#906B22" width="1.5" height="1.5"/>
	<rect x="6" y="7.497" fill="#B5AA8C" width="1.5" height="1.5"/>
	<rect x="7.5" y="7.497" fill="#E8CD8D" width="1.5" height="1.5"/>
	<rect x="9" y="7.497" fill="#E8CD8D" width="1.5" height="1.5"/>
	<rect x="10.5" y="7.498" fill="#E8CD8D" width="1.5" height="1.5"/>
	<rect x="3" y="8.998" fill="#E8CD8D" width="1.5" height="1.5"/>
	<rect x="4.5" y="8.998" fill="#E8CD8D" width="1.5" height="1.5"/>
	<rect x="3" y="10.492" fill="#E8CD8D" width="1.5" height="1.5"/>
	<rect x="4.5" y="10.492" fill="#E8CD8D" width="1.5" height="1.5"/>
	<rect x="3" y="11.99" fill="#E8CD8D" width="1.5" height="1.5"/>
	<rect x="4.5" y="11.99" fill="#E8CD8D" width="1.5" height="1.5"/>
	<rect x="3" y="13.492" fill="#C2B59B" width="1.5" height="1.5"/>
	<rect x="4.5" y="13.492" fill="#C2B59B" width="1.5" height="1.5"/>
	<rect x="3" y="14.988" fill="#634B1C" width="1.5" height="1.5"/>
	<rect x="1.5" y="11.988" fill="#E8CD8D" width="1.5" height="1.5"/>
	<rect x="1.5" y="10.488" fill="#E8CD8D" width="1.5" height="1.5"/>
	<rect y="11.988" fill="#E8CD8D" width="1.5" height="1.5"/>
	<rect y="10.488" fill="#E8CD8D" width="1.5" height="1.5"/>
	<rect x="4.5" y="14.988" fill="#634B1C" width="1.5" height="1.5"/>
	<rect x="7.5" y="14.988" fill="#906B22" width="1.5" height="1.5"/>
	<rect x="6" y="14.988" fill="#906B22" width="1.5" height="1.5"/>
	<rect x="9" y="14.988" fill="#B5AA8C" width="1.5" height="1.5"/>
	<rect x="12" y="14.988" fill="#634B1C" width="1.5" height="1.5"/>
	<rect x="10.5" y="14.988" fill="#B5AA8C" width="1.5" height="1.5"/>
	<rect x="7.5" y="16.485" fill="#FFFFFF" width="1.5" height="1.5"/>
	<rect x="6" y="16.485" fill="#FFFFFF" width="1.5" height="1.5"/>
	<rect x="4.5" y="16.485" fill="#FFFFFF" width="1.5" height="1.5"/>
	<rect x="9" y="16.485" fill="#AD6D67" width="1.5" height="1.5"/>
	<rect x="10.5" y="16.485" fill="#906B22" width="1.5" height="1.5"/>
	<rect x="7.5" y="17.982" fill="#634B1C" width="1.5" height="1.5"/>
	<rect x="6" y="17.982" fill="#634B1C" width="1.5" height="1.5"/>
	<rect x="9" y="17.982" fill="#95681C" width="1.5" height="1.5"/>
	<rect x="10.5" y="17.982" fill="#634B1C" width="1.5" height="1.5"/>
	<rect x="7.5" y="19.482" fill="#634B1C" width="1.5" height="1.5"/>
	<rect x="6" y="19.482" fill="#634B1C" width="1.5" height="1.5"/>
	<rect x="4.5" y="17.982" fill="#634B1C" width="1.5" height="1.5"/>
	<rect x="4.5" y="19.482" fill="#634B1C" width="1.5" height="1.5"/>
	<rect x="9" y="19.482" fill="#634B1C" width="1.5" height="1.5"/>
	<rect x="7.5" y="20.982" fill="#E8CD8D" width="1.5" height="1.5"/>
	<rect x="9" y="20.982" fill="#E8CD8D" width="1.5" height="1.5"/>
	<rect x="7.5" y="22.482" fill="#E8CD8D" width="1.5" height="1.5"/>
	<rect x="9" y="22.482" fill="#E8CD8D" width="1.5" height="1.5"/>
	<rect x="10.5" y="20.982" fill="#E8CD8D" width="1.5" height="1.5"/>
	<rect x="10.5" y="19.482" fill="#634B1C" width="1.5" height="1.5"/>
	<rect x="12" y="19.482" fill="#E7B685" width="1.5" height="1.5"/>
	<rect x="12" y="20.982" fill="#E8CD8D" width="1.5" height="1.5"/>
	<rect x="13.5" y="20.982" fill="#E6E7E8" width="1.5" height="1.5"/>
	<rect x="13.5" y="19.482" fill="#E6E7E8" width="1.5" height="1.5"/>
	<rect x="15" y="20.982" fill="#A7A9AC" width="1.5" height="1.5"/>
	<rect x="15" y="19.482" fill="#E6E7E8" width="1.5" height="1.5"/>
	<rect x="16.5" y="19.482" fill="#E6E7E8" width="1.5" height="1.5"/>
	<rect x="12" y="22.482" fill="#E8CD8D" width="1.5" height="1.5"/>
	<rect x="10.5" y="22.482" fill="#E8CD8D" width="1.5" height="1.5"/>
	<rect x="6" y="22.482" fill="#58595B" width="1.5" height="1.5"/>
	<rect x="4.5" y="22.482" fill="#A7A9AC" width="1.5" height="1.5"/>
	<rect x="4.5" y="20.982" fill="#E6E7E8" width="1.5" height="1.5"/>
	<rect x="6" y="20.982" fill="#E6E7E8" width="1.5" height="1.5"/>
	<rect x="3" y="20.982" fill="#E6E7E8" width="1.5" height="1.5"/>
	<rect x="13.5" y="22.482" fill="#E6E7E8" width="1.5" height="1.5"/>
	<rect x="15" y="22.482" fill="#A7A9AC" width="1.5" height="1.5"/>
	<rect x="16.5" y="22.482" fill="#E6E7E8" width="1.5" height="1.5"/>
	<rect x="7.5" y="25.482" fill="#E6E7E8" width="1.5" height="1.5"/>
	<rect x="9" y="25.482" fill="#6D6E71" width="1.5" height="1.5"/>
	<rect x="12" y="25.482" fill="#E6E7E8" width="1.5" height="1.5"/>
	<rect x="10.5" y="25.482" fill="#E6E7E8" width="1.5" height="1.5"/>
	<rect x="6" y="25.482" fill="#E6E7E8" width="1.5" height="1.5"/>
	<rect x="6" y="26.982" fill="#E6E7E8" width="1.5" height="1.5"/>
	<rect x="4.5" y="25.482" fill="#E6E7E8" width="1.5" height="1.5"/>
	<rect x="3" y="25.482" fill="#E6E7E8" width="1.5" height="1.5"/>
	<rect x="13.5" y="25.482" fill="#E6E7E8" width="1.5" height="1.5"/>
	<rect x="15" y="25.482" fill="#E6E7E8" width="1.5" height="1.5"/>
	<rect x="16.5" y="25.482" fill="#E6E7E8" width="1.5" height="1.5"/>
	<rect x="18" y="25.482" fill="#E6E7E8" width="1.5" height="1.5"/>
	<rect x="7.5" y="28.482" fill="#E6E7E8" width="1.5" height="1.5"/>
	<rect x="9" y="28.482" fill="#6D6E71" width="1.5" height="1.5"/>
	<rect x="12" y="28.482" fill="#B6C8D8" width="1.5" height="1.5"/>
	<rect x="10.5" y="28.482" fill="#E6E7E8" width="1.5" height="1.5"/>
	<rect x="6" y="28.482" fill="#B6C8D8" width="1.5" height="1.5"/>
	<rect x="4.5" y="28.482" fill="#FFFFFF" width="1.5" height="1.5"/>
	<rect x="3" y="28.482" fill="#B6C8D8" width="1.5" height="1.5"/>
	<rect x="13.5" y="28.482" fill="#FFFFFF" width="1.5" height="1.5"/>
	<rect x="15" y="28.482" fill="#B6C8D8" width="1.5" height="1.5"/>
	<rect x="16.5" y="28.482" fill="#B6C8D8" width="1.5" height="1.5"/>
	<rect x="18" y="28.482" fill="#E6E7E8" width="1.5" height="1.5"/>
	<rect x="7.5" y="23.982" fill="#58595B" width="1.5" height="1.5"/>
	<rect x="9" y="23.982" fill="#58595B" width="1.5" height="1.5"/>
	<rect x="12" y="23.982" fill="#E6E7E8" width="1.5" height="1.5"/>
	<rect x="10.5" y="23.982" fill="#58595B" width="1.5" height="1.5"/>
	<rect x="6" y="23.982" fill="#A7A9AC" width="1.5" height="1.5"/>
	<rect x="4.5" y="23.982" fill="#E6E7E8" width="1.5" height="1.5"/>
	<rect x="3" y="23.982" fill="#E6E7E8" width="1.5" height="1.5"/>
	<rect x="13.5" y="23.982" fill="#A7A9AC" width="1.5" height="1.5"/>
	<rect x="15" y="23.982" fill="#E6E7E8" width="1.5" height="1.5"/>
	<rect x="16.5" y="23.982" fill="#E6E7E8" width="1.5" height="1.5"/>
	<rect x="18" y="23.982" fill="#E6E7E8" width="1.5" height="1.5"/>
	<rect x="7.5" y="26.982" fill="#E6E7E8" width="1.5" height="1.5"/>
	<rect x="9" y="26.982" fill="#58595B" width="1.5" height="1.5"/>
	<rect x="12" y="26.982" fill="#FFFFFF" width="1.5" height="1.5"/>
	<rect x="10.5" y="26.982" fill="#E6E7E8" width="1.5" height="1.5"/>
	<rect x="6" y="26.982" fill="#FFFFFF" width="1.5" height="1.5"/>
	<rect x="4.5" y="26.982" fill="#FFFFFF" width="1.5" height="1.5"/>
	<rect x="3" y="26.982" fill="#FFFFFF" width="1.5" height="1.5"/>
	<rect x="1.5" y="25.482" fill="#E6E7E8" width="1.5" height="1.5"/>
	<rect x="1.5" y="23.982" fill="#E6E7E8" width="1.5" height="1.5"/>
	<rect x="1.5" y="28.482" fill="#E6E7E8" width="1.5" height="1.5"/>
	<rect x="1.5" y="26.982" fill="#E6E7E8" width="1.5" height="1.5"/>
	<rect y="25.482" fill="#E6E7E8" width="1.5" height="1.5"/>
	<rect y="28.482" fill="#E6E7E8" width="1.5" height="1.5"/>
	<rect y="26.982" fill="#E6E7E8" width="1.5" height="1.5"/>
	<rect x="13.5" y="26.982" fill="#FFFFFF" width="1.5" height="1.5"/>
	<rect x="15" y="26.982" fill="#FFFFFF" width="1.5" height="1.5"/>
	<rect x="16.5" y="26.982" fill="#FFFFFF" width="1.5" height="1.5"/>
	<rect x="18" y="26.982" fill="#E6E7E8" width="1.5" height="1.5"/>
	<rect x="19.5" y="25.482" fill="#E6E7E8" width="1.5" height="1.5"/>
	<rect x="19.5" y="28.482" fill="#E6E7E8" width="1.5" height="1.5"/>
	<rect x="19.5" y="26.982" fill="#E6E7E8" width="1.5" height="1.5"/>
	<rect x="13.5" y="14.988" fill="#E7B685" width="1.5" height="1.5"/>
	<rect x="12" y="13.491" fill="#B5AA8C" width="1.5" height="1.5"/>
	<rect x="13.5" y="13.491" fill="#E8CD8D" width="1.5" height="1.5"/>
	<rect x="12" y="17.982" fill="#634B1C" width="1.5" height="1.5"/>
	<rect x="13.5" y="17.982" fill="#E7B685" width="1.5" height="1.5"/>
	<rect x="12" y="16.485" fill="#634B1C" width="1.5" height="1.5"/>
	<rect x="13.5" y="16.485" fill="#E7B685" width="1.5" height="1.5"/>
	<rect x="12" y="11.988" fill="#B5AA8C" width="1.5" height="1.5"/>
	<rect x="13.5" y="11.988" fill="#E8CD8D" width="1.5" height="1.5"/>
	<rect x="12" y="10.491" fill="#B5AA8C" width="1.5" height="1.5"/>
	<rect x="13.5" y="10.491" fill="#E8CD8D" width="1.5" height="1.5"/>
	<rect x="15" y="11.988" fill="#E8CD8D" width="1.5" height="1.5"/>
	<rect x="15" y="10.491" fill="#E8CD8D" width="1.5" height="1.5"/>
	<rect x="6" y="8.998" fill="#E8CD8D" width="1.5" height="1.5"/>
	<rect x="7.5" y="8.998" fill="#E8CD8D" width="1.5" height="1.5"/>
	<rect x="9" y="8.998" fill="#E8CD8D" width="1.5" height="1.5"/>
	<rect x="10.5" y="8.998" fill="#E8CD8D" width="1.5" height="1.5"/>
	<rect x="6" y="10.491" fill="#AA6D2D" width="1.5" height="1.5"/>
	<rect x="7.5" y="10.491" fill="#FFFFFF" width="1.5" height="1.5"/>
	<rect x="6" y="10.491" fill="#231F20" width="1.5" height="1.5"/>
	<rect x="9" y="10.492" fill="#E8CD8D" width="1.5" height="1.5"/>
	<rect x="10.5" y="10.492" fill="#E8CD8D" width="1.5" height="1.5"/>
	<rect x="6" y="11.99" fill="#E8CD8D" width="1.5" height="1.5"/>
	<rect x="7.5" y="11.99" fill="#E8CD8D" width="1.5" height="1.5"/>
	<rect x="9" y="11.99" fill="#E8CD8D" width="1.5" height="1.5"/>
	<rect x="10.5" y="11.988" fill="#E8CD8D" width="1.5" height="1.5"/>
	<rect x="6" y="13.488" fill="#E8CD8D" width="1.5" height="1.5"/>
	<rect x="7.5" y="13.488" fill="#E8CD8D" width="1.5" height="1.5"/>
	<rect x="9" y="13.488" fill="#E8CD8D" width="1.5" height="1.5"/>
	<rect x="10.5" y="13.488" fill="#C2B59B" width="1.5" height="1.5"/>
	<rect x="12" y="5.997" fill="#E8CD8D" width="1.5" height="1.5"/>
	<rect x="13.5" y="5.997" fill="#E8CD8D" width="1.5" height="1.5"/>
	<rect x="3" y="5.998" fill="#EADAB2" width="1.5" height="1.5"/>
	<rect x="3" y="4.501" fill="#E8CD8D" width="1.5" height="1.501"/>
	<rect x="3" y="3" fill="#EADAB2" width="1.5" height="1.5"/>
	<rect x="4.5" y="4.5" fill="#E8CD8D" width="1.5" height="1.5"/>
	<rect x="6" y="4.501" fill="#E8CD8D" width="1.5" height="1.501"/>
	<rect x="7.5" y="4.501" fill="#E8CD8D" width="1.5" height="1.501"/>
	<rect x="9" y="4.501" fill="#E8CD8D" width="1.5" height="1.501"/>
	<rect x="10.5" y="4.5" fill="#E8CD8D" width="1.5" height="1.5"/>
	<rect x="12" y="4.5" fill="#E8CD8D" width="1.5" height="1.5"/>
	<rect x="4.5" y="3" fill="#EADAB2" width="1.5" height="1.5"/>
	<rect x="4.5" y="1.5" fill="#EADAB2" width="1.5" height="1.5"/>
	<rect x="6" fill="#EADAB2" width="1.5" height="1.5"/>
	<rect x="6" y="1.5" fill="#E8CD8D" width="1.5" height="1.5"/>
	<rect x="7.5" y="1.5" fill="#E8CD8D" width="1.5" height="1.5"/>
	<rect x="9" y="1.5" fill="#E8CD8D" width="1.5" height="1.5"/>
	<rect x="10.5" y="1.5" fill="#E8CD8D" width="1.5" height="1.5"/>
	<rect x="12" y="3" fill="#E8CD8D" width="1.5" height="1.5"/>
	<rect x="12" y="1.5" fill="#EADAB2" width="1.5" height="1.5"/>
	<rect x="7.5" fill="#EADAB2" width="1.5" height="1.5"/>
	<rect x="9" fill="#EADAB2" width="1.5" height="1.5"/>
	<rect x="10.5" fill="#EADAB2" width="1.5" height="1.5"/>
	<rect x="13.5" y="3" fill="#E8CD8D" width="1.5" height="1.5"/>
	<rect x="6" y="3" fill="#E8CD8D" width="1.5" height="1.5"/>
	<rect x="7.5" y="3" fill="#E8CD8D" width="1.5" height="1.5"/>
	<rect x="9" y="3" fill="#E8CD8D" width="1.5" height="1.5"/>
	<rect x="10.5" y="3" fill="#E8CD8D" width="1.5" height="1.5"/>
	<rect x="13.5" y="4.5" fill="#E8CD8D" width="1.5" height="1.5"/>
	<rect x="12" y="7.497" fill="#E8CD8D" width="1.5" height="1.5"/>
	<rect x="13.5" y="7.497" fill="#E7B685" width="1.5" height="1.5"/>
	<rect x="12" y="8.997" fill="#B5AA8C" width="1.5" height="1.5"/>
	<rect x="13.5" y="8.997" fill="#E8CD8D" width="1.5" height="1.5"/>
	<rect x="15" y="5.997" fill="#E8CD8D" width="1.5" height="1.5"/>
	<rect x="15" y="4.5" fill="#E7B685" width="1.5" height="1.5"/>
	<rect x="15" y="3" fill="#E7B685" width="1.5" height="1.5"/>
	<rect x="13.5" y="1.5" fill="#EADAB2" width="1.5" height="1.5"/>
	<rect x="15" y="7.497" fill="#E7B685" width="1.5" height="1.5"/>
	<rect x="15" y="8.997" fill="#EADAB2" width="1.5" height="1.5"/>
	<rect x="16.5" y="11.988" fill="#E8CD8D" width="1.5" height="1.5"/>
	<rect x="16.5" y="10.491" fill="#E8CD8D" width="1.5" height="1.5"/>
	<rect x="16.5" y="8.997" fill="#EADAB2" width="1.5" height="1.5"/>
</g>
</svg>
