<?xml version="1.0" encoding="utf-8"?>
<!-- Generator: Adobe Illustrator 15.0.2, SVG Export Plug-In . SVG Version: 6.00 Build 0)  -->
<!DOCTYPE svg PUBLIC "-//W3C//DTD SVG 1.1//EN" "http://www.w3.org/Graphics/SVG/1.1/DTD/svg11.dtd">
<svg version="1.1" id="Layer_1" xmlns="http://www.w3.org/2000/svg" xmlns:xlink="http://www.w3.org/1999/xlink" x="0px" y="0px"
	 width="19.5px" height="28.48px" viewBox="0 0 19.5 28.48" enable-background="new 0 0 19.5 28.48" xml:space="preserve">
<g>
	<rect x="7.5" y="19.48" fill="#E5AC81" width="1.5" height="1.5"/>
	<rect x="9" y="19.48" fill="#E5AC81" width="1.5" height="1.5"/>
	<rect x="7.5" y="20.98" fill="#EFC8A6" width="1.5" height="1.5"/>
	<rect x="9" y="20.98" fill="#EFC8A6" width="1.5" height="1.5"/>
	<rect x="10.5" y="19.48" fill="#EFC8A6" width="1.5" height="1.5"/>
	<rect x="12" y="20.98" fill="#58595B" width="1.5" height="1.5"/>
	<rect x="10.5" y="20.98" fill="#EFC8A6" width="1.5" height="1.5"/>
	<rect x="6" y="20.98" fill="#58595B" width="1.5" height="1.5"/>
	<rect x="4.5" y="20.98" fill="#414042" width="1.5" height="1.5"/>
	<rect x="13.5" y="20.98" fill="#414042" width="1.5" height="1.5"/>
	<rect x="15" y="20.98" fill="#414042" width="1.5" height="1.5"/>
	<rect x="7.5" y="23.98" fill="#58595B" width="1.5" height="1.5"/>
	<rect x="9" y="23.98" fill="#58595B" width="1.5" height="1.5"/>
	<rect x="12" y="23.98" fill="#414042" width="1.5" height="1.5"/>
	<rect x="10.5" y="23.98" fill="#58595B" width="1.5" height="1.5"/>
	<rect x="6" y="23.98" fill="#414042" width="1.5" height="1.5"/>
	<rect x="4.5" y="23.98" fill="#414042" width="1.5" height="1.5"/>
	<rect x="3" y="23.98" fill="#414042" width="1.5" height="1.5"/>
	<rect x="13.5" y="23.98" fill="#414042" width="1.5" height="1.5"/>
	<rect x="15" y="23.98" fill="#414042" width="1.5" height="1.5"/>
	<rect x="16.5" y="23.98" fill="#414042" width="1.5" height="1.5"/>
	<rect x="18" y="23.98" fill="#414042" width="1.5" height="1.5"/>
	<rect x="7.5" y="26.98" fill="#414042" width="1.5" height="1.5"/>
	<rect x="9" y="26.98" fill="#414042" width="1.5" height="1.5"/>
	<rect x="12" y="26.98" fill="#414042" width="1.5" height="1.5"/>
	<rect x="10.5" y="26.98" fill="#414042" width="1.5" height="1.5"/>
	<rect x="6" y="26.98" fill="#414042" width="1.5" height="1.5"/>
	<rect x="4.5" y="26.98" fill="#231F20" width="1.5" height="1.5"/>
	<rect x="3" y="26.98" fill="#414042" width="1.5" height="1.5"/>
	<rect x="13.5" y="26.98" fill="#414042" width="1.5" height="1.5"/>
	<rect x="15" y="26.98" fill="#231F20" width="1.5" height="1.5"/>
	<rect x="16.5" y="26.98" fill="#414042" width="1.5" height="1.5"/>
	<rect x="18" y="26.98" fill="#414042" width="1.5" height="1.5"/>
	<rect x="7.5" y="22.48" fill="#EFC8A6" width="1.5" height="1.5"/>
	<rect x="9" y="22.48" fill="#EFC8A6" width="1.5" height="1.5"/>
	<rect x="12" y="22.48" fill="#58595B" width="1.5" height="1.5"/>
	<rect x="10.5" y="22.48" fill="#EFC8A6" width="1.5" height="1.5"/>
	<rect x="6" y="22.48" fill="#58595B" width="1.5" height="1.5"/>
	<rect x="4.5" y="22.48" fill="#231F20" width="1.5" height="1.5"/>
	<rect x="3" y="22.48" fill="#231F20" width="1.5" height="1.5"/>
	<rect x="13.5" y="22.48" fill="#231F20" width="1.5" height="1.5"/>
	<rect x="15" y="22.48" fill="#231F20" width="1.5" height="1.5"/>
	<rect x="16.5" y="22.48" fill="#231F20" width="1.5" height="1.5"/>
	<rect x="18" y="22.48" fill="#231F20" width="1.5" height="1.5"/>
	<rect x="7.5" y="25.48" fill="#231F20" width="1.5" height="1.5"/>
	<rect x="9" y="25.48" fill="#231F20" width="1.5" height="1.5"/>
	<rect x="12" y="25.48" fill="#231F20" width="1.5" height="1.5"/>
	<rect x="10.5" y="25.48" fill="#231F20" width="1.5" height="1.5"/>
	<rect x="6" y="25.48" fill="#231F20" width="1.5" height="1.5"/>
	<rect x="4.5" y="25.48" fill="#231F20" width="1.5" height="1.5"/>
	<rect x="3" y="25.48" fill="#231F20" width="1.5" height="1.5"/>
	<rect x="13.5" y="25.48" fill="#231F20" width="1.5" height="1.5"/>
	<rect x="15" y="25.48" fill="#231F20" width="1.5" height="1.5"/>
	<rect x="16.5" y="25.48" fill="#231F20" width="1.5" height="1.5"/>
	<rect x="18" y="25.48" fill="#231F20" width="1.5" height="1.5"/>
	<rect x="1.5" y="11.981" fill="#EFC8A6" width="1.5" height="1.5"/>
	<rect y="11.981" fill="#E7B685" width="1.5" height="1.5"/>
	<rect x="1.5" y="10.481" fill="#E7B685" width="1.5" height="1.5"/>
	<rect x="6" fill="#6E3E31" width="1.5" height="1.5"/>
	<rect x="7.5" fill="#5F3529" width="1.5" height="1.5"/>
	<rect x="9" fill="#5F3529" width="1.5" height="1.5"/>
	<rect x="3" y="2.997" fill="#6E3E31" width="1.5" height="1.5"/>
	<rect x="4.5" y="2.997" fill="#5F3529" width="1.5" height="1.5"/>
	<rect x="6" y="2.997" fill="#6E3E31" width="1.5" height="1.5"/>
	<rect x="7.5" y="2.997" fill="#5F3529" width="1.5" height="1.5"/>
	<rect x="9" y="2.997" fill="#EAC4B2" width="1.5" height="1.5"/>
	<rect x="10.5" y="2.997" fill="#EAC4B2" width="1.5" height="1.5"/>
	<rect x="4.5" y="4.497" fill="#6E3E31" width="1.5" height="1.5"/>
	<rect x="3" y="4.497" fill="#5F3529" width="1.5" height="1.5"/>
	<rect x="6" y="4.497" fill="#EFC8A6" width="1.5" height="1.5"/>
	<rect x="7.5" y="4.497" fill="#5F3529" width="1.5" height="1.5"/>
	<rect x="9" y="4.497" fill="#EFC8A6" width="1.5" height="1.5"/>
	<rect x="10.5" y="4.497" fill="#EAC4B2" width="1.5" height="1.5"/>
	<rect x="3" y="5.997" fill="#6E3E31" width="1.5" height="1.5"/>
	<rect x="4.5" y="5.997" fill="#EFC8A6" width="1.5" height="1.5"/>
	<rect x="3" y="7.491" fill="#EAC4B2" width="1.5" height="1.5"/>
	<rect x="4.5" y="7.491" fill="#A97C50" width="1.5" height="1.5"/>
	<rect x="3" y="10.481" fill="#EFC8A6" width="1.5" height="1.5"/>
	<rect x="3" y="11.984" fill="#EFC8A6" width="1.5" height="1.5"/>
	<rect x="4.5" y="11.984" fill="#E5AC81" width="1.5" height="1.5"/>
	<rect x="3" y="13.481" fill="#EFC8A6" width="1.5" height="1.5"/>
	<rect x="4.5" y="13.481" fill="#EFC8A6" width="1.5" height="1.5"/>
	<rect x="7.5" y="13.481" fill="#EFC8A6" width="1.5" height="1.5"/>
	<rect x="6" y="13.481" fill="#EFC8A6" width="1.5" height="1.5"/>
	<rect x="9" y="13.481" fill="#EFC8A6" width="1.5" height="1.5"/>
	<rect x="12" y="13.481" fill="#EFC8A6" width="1.5" height="1.5"/>
	<rect x="10.5" y="13.481" fill="#E5AC81" width="1.5" height="1.5"/>
	<rect x="7.5" y="14.979" fill="#FFFFFF" width="1.5" height="1.5"/>
	<rect x="6" y="14.979" fill="#FFFFFF" width="1.5" height="1.5"/>
	<rect x="9" y="14.979" fill="#FFFFFF" width="1.5" height="1.5"/>
	<rect x="10.5" y="14.979" fill="#AD6D67" width="1.5" height="1.5"/>
	<rect x="7.5" y="16.476" fill="#C97D7A" width="1.5" height="1.5"/>
	<rect x="6" y="16.476" fill="#C97D7A" width="1.5" height="1.5"/>
	<rect x="9" y="16.476" fill="#C97D7A" width="1.5" height="1.5"/>
	<rect x="10.5" y="16.476" fill="#EFC8A6" width="1.5" height="1.5"/>
	<rect x="7.5" y="17.976" fill="#EFC8A6" width="1.5" height="1.5"/>
	<rect x="6" y="17.976" fill="#EFC8A6" width="1.5" height="1.5"/>
	<rect x="9" y="17.976" fill="#EFC8A6" width="1.5" height="1.5"/>
	<rect x="10.5" y="17.976" fill="#EFC8A6" width="1.5" height="1.5"/>
	<rect x="12" y="17.976" fill="#EFC8A6" width="1.5" height="1.5"/>
	<rect x="13.5" y="13.481" fill="#EFC8A6" width="1.5" height="1.5"/>
	<rect x="12" y="11.984" fill="#EFC8A6" width="1.5" height="1.5"/>
	<rect x="13.5" y="11.984" fill="#EFC8A6" width="1.5" height="1.5"/>
	<rect x="12" y="16.476" fill="#EFC8A6" width="1.5" height="1.5"/>
	<rect x="13.5" y="16.476" fill="#EFC8A6" width="1.5" height="1.5"/>
	<rect x="12" y="14.979" fill="#EFC8A6" width="1.5" height="1.5"/>
	<rect x="13.5" y="14.979" fill="#EFC8A6" width="1.5" height="1.5"/>
	<rect x="12" y="10.481" fill="#43251B" width="1.5" height="1.5"/>
	<rect x="13.5" y="10.481" fill="#EFC8A6" width="1.5" height="1.5"/>
	<rect x="12" y="7.491" fill="#5F3529" width="1.5" height="1.5"/>
	<rect x="13.5" y="7.491" fill="#5F3529" width="1.5" height="1.5"/>
	<rect x="15" y="10.481" fill="#EFC8A6" width="1.5" height="1.5"/>
	<rect x="15" y="8.984" fill="#EFC8A6" width="1.5" height="1.5"/>
	<rect x="6" y="5.997" fill="#EFC8A6" width="1.5" height="1.5"/>
	<rect x="7.5" y="5.997" fill="#EFC8A6" width="1.5" height="1.5"/>
	<rect x="9" y="5.997" fill="#EFC8A6" width="1.5" height="1.5"/>
	<rect x="10.5" y="5.997" fill="#5F3529" width="1.5" height="1.5"/>
	<rect x="6" y="7.491" fill="#A97C50" width="1.5" height="1.5"/>
	<rect x="7.5" y="7.491" fill="#EFC8A6" width="1.5" height="1.5"/>
	<rect x="9" y="7.491" fill="#EFC8A6" width="1.5" height="1.5"/>
	<rect x="10.5" y="7.491" fill="#5F3529" width="1.5" height="1.5"/>
	<rect x="3" y="8.984" fill="#EAC4B2" width="1.5" height="1.5"/>
	<rect x="4.5" y="8.984" fill="#EFC8A6" width="1.5" height="1.5"/>
	<rect x="12" y="8.984" fill="#5F3529" width="1.5" height="1.5"/>
	<rect x="13.5" y="8.984" fill="#43251B" width="1.5" height="1.5"/>
	<rect x="6" y="8.984" fill="#EFC8A6" width="1.5" height="1.5"/>
	<rect x="7.5" y="8.984" fill="#EFC8A6" width="1.5" height="1.5"/>
	<rect x="9" y="8.984" fill="#EFC8A6" width="1.5" height="1.5"/>
	<rect x="10.5" y="8.984" fill="#5F3529" width="1.5" height="1.5"/>
	<rect x="7.5" y="10.481" fill="#EFC8A6" width="1.5" height="1.5"/>
	<rect x="9" y="10.481" fill="#EFC8A6" width="1.5" height="1.5"/>
	<rect x="10.5" y="10.481" fill="#EFC8A6" width="1.5" height="1.5"/>
	<rect x="6" y="11.981" fill="#EFC8A6" width="1.5" height="1.5"/>
	<rect x="7.5" y="11.981" fill="#EFC8A6" width="1.5" height="1.5"/>
	<rect x="9" y="11.981" fill="#E5AC81" width="1.5" height="1.5"/>
	<rect x="10.5" y="11.981" fill="#EFC8A6" width="1.5" height="1.5"/>
	<rect x="12" y="2.997" fill="#5F3529" width="1.5" height="1.5"/>
	<rect x="13.5" y="2.997" fill="#5F3529" width="1.5" height="1.5"/>
	<rect x="4.5" y="1.5" fill="#6E3E31" width="1.5" height="1.5"/>
	<rect x="6" y="1.5" fill="#5F3529" width="1.5" height="1.5"/>
	<rect x="7.5" y="1.5" fill="#6E3E31" width="1.5" height="1.5"/>
	<rect x="9" y="1.5" fill="#5F3529" width="1.5" height="1.5"/>
	<rect x="10.5" y="1.5" fill="#5F3529" width="1.5" height="1.5"/>
	<rect x="12" y="1.5" fill="#5F3529" width="1.5" height="1.5"/>
	<rect x="10.5" fill="#5F3529" width="1.5" height="1.5"/>
	<rect x="12" fill="#5F3529" width="1.5" height="1.5"/>
	<rect x="13.5" y="1.5" fill="#5F3529" width="1.5" height="1.5"/>
	<rect x="15" y="2.997" fill="#5F3529" width="1.5" height="1.5"/>
	<rect x="15" y="1.5" fill="#5F3529" width="1.5" height="1.5"/>
	<rect x="15" fill="#5F3529" width="1.5" height="1.5"/>
	<rect x="16.5" y="2.997" fill="#5F3529" width="1.5" height="1.5"/>
	<rect x="12" y="4.497" fill="#6E3E31" width="1.5" height="1.5"/>
	<rect x="13.5" y="4.497" fill="#5F3529" width="1.5" height="1.5"/>
	<rect x="12" y="5.997" fill="#5F3529" width="1.5" height="1.5"/>
	<rect x="13.5" y="5.997" fill="#6E3E31" width="1.5" height="1.5"/>
	<rect x="15" y="7.491" fill="#6E3E31" width="1.5" height="1.5"/>
	<rect x="15" y="4.497" fill="#5F3529" width="1.5" height="1.5"/>
	<rect x="16.5" y="4.497" fill="#5F3529" width="1.5" height="1.5"/>
	<rect x="15" y="5.997" fill="#5F3529" width="1.5" height="1.5"/>
	<rect x="16.5" y="10.487" fill="#5F3529" width="1.5" height="1.5"/>
	<rect x="16.5" y="11.984" fill="#5F3529" width="1.5" height="1.5"/>
	<rect x="16.5" y="8.993" fill="#5F3529" width="1.5" height="1.5"/>
	<rect x="16.5" y="7.497" fill="#5F3529" width="1.5" height="1.5"/>
	<rect x="16.5" y="5.997" fill="#5F3529" width="1.5" height="1.5"/>
	<rect x="15" y="13.479" fill="#43251B" width="1.5" height="1.5"/>
	<rect x="15" y="11.984" fill="#43251B" width="1.5" height="1.5"/>
	<rect x="4.5" y="10.481" fill="#3B2314" width="1.5" height="1.5"/>
	<rect x="6" y="10.481" fill="#F7EFEB" width="1.5" height="1.5"/>
</g>
</svg>
