<?xml version="1.0" encoding="utf-8"?>
<!-- Generator: Adobe Illustrator 15.0.2, SVG Export Plug-In . SVG Version: 6.00 Build 0)  -->
<!DOCTYPE svg PUBLIC "-//W3C//DTD SVG 1.1//EN" "http://www.w3.org/Graphics/SVG/1.1/DTD/svg11.dtd">
<svg version="1.1" id="Layer_1" xmlns="http://www.w3.org/2000/svg" xmlns:xlink="http://www.w3.org/1999/xlink" x="0px" y="0px"
	 width="19.5px" height="29.958px" viewBox="0 0 19.5 29.958" enable-background="new 0 0 19.5 29.958" xml:space="preserve">
<g>
	<rect x="3" y="7.479" fill="#E8CD8D" width="1.5" height="1.5"/>
	<rect x="4.5" y="7.479" fill="#E8CD8D" width="1.5" height="1.5"/>
	<rect x="3" y="8.974" fill="#231F20" width="1.5" height="1.5"/>
	<rect x="4.5" y="8.974" fill="#231F20" width="1.5" height="1.5"/>
	<rect x="3" y="11.964" fill="#E8CD8D" width="1.5" height="1.5"/>
	<rect x="4.5" y="11.964" fill="#3B2314" width="1.5" height="1.5"/>
	<rect x="3" y="13.467" fill="#E8CD8D" width="1.5" height="1.5"/>
	<rect x="4.5" y="13.467" fill="#E8CD8D" width="1.5" height="1.5"/>
	<rect x="3" y="14.964" fill="#C2B59B" width="1.5" height="1.5"/>
	<rect x="1.5" y="13.839" fill="#E8CD8D" width="1.5" height="1.5"/>
	<rect x="4.5" y="14.964" fill="#C2B59B" width="1.5" height="1.5"/>
	<rect x="7.5" y="14.964" fill="#C2B59B" width="1.5" height="1.5"/>
	<rect x="6" y="14.964" fill="#C2B59B" width="1.5" height="1.5"/>
	<rect x="9" y="14.964" fill="#E8CD8D" width="1.5" height="1.5"/>
	<rect x="12" y="14.964" fill="#E8CD8D" width="1.5" height="1.5"/>
	<rect x="10.5" y="14.964" fill="#E8CD8D" width="1.5" height="1.5"/>
	<rect x="7.5" y="16.461" fill="#FFFFFF" width="1.5" height="1.5"/>
	<rect x="6" y="16.461" fill="#FFFFFF" width="1.5" height="1.5"/>
	<rect x="9" y="16.461" fill="#FFFFFF" width="1.5" height="1.5"/>
	<rect x="10.5" y="16.461" fill="#BD202E" width="1.5" height="1.5"/>
	<rect x="7.5" y="17.958" fill="#BD202E" width="1.5" height="1.5"/>
	<rect x="6" y="17.958" fill="#BD202E" width="1.5" height="1.5"/>
	<rect x="9" y="17.958" fill="#BD202E" width="1.5" height="1.5"/>
	<rect x="10.5" y="17.958" fill="#C2B59B" width="1.5" height="1.5"/>
	<rect x="7.5" y="19.458" fill="#C2B59B" width="1.5" height="1.5"/>
	<rect x="6" y="19.458" fill="#C2B59B" width="1.5" height="1.5"/>
	<rect x="9" y="19.458" fill="#C2B59B" width="1.5" height="1.5"/>
	<rect x="7.5" y="20.958" fill="#E8CD8D" width="1.5" height="1.5"/>
	<rect x="9" y="20.958" fill="#E8CD8D" width="1.5" height="1.5"/>
	<rect x="7.5" y="22.458" fill="#E8CD8D" width="1.5" height="1.5"/>
	<rect x="9" y="22.458" fill="#E8CD8D" width="1.5" height="1.5"/>
	<rect x="10.5" y="20.958" fill="#E8CD8D" width="1.5" height="1.5"/>
	<rect x="10.5" y="19.458" fill="#E8CD8D" width="1.5" height="1.5"/>
	<rect x="12" y="19.458" fill="#E8CD8D" width="1.5" height="1.5"/>
	<rect x="12" y="20.958" fill="#BCBEC0" width="1.5" height="1.5"/>
	<rect x="13.5" y="20.958" fill="#BCBEC0" width="1.5" height="1.5"/>
	<rect x="15" y="20.958" fill="#BCBEC0" width="1.5" height="1.5"/>
	<rect x="15" y="19.458" fill="#808285" width="1.5" height="1.5"/>
	<rect x="13.5" y="19.458" fill="#808285" width="1.5" height="1.5"/>
	<rect x="16.5" y="19.458" fill="#BCBEC0" width="1.5" height="1.5"/>
	<rect x="16.5" y="17.958" fill="#808285" width="1.5" height="1.5"/>
	<rect x="15" y="17.958" fill="#808285" width="1.5" height="1.5"/>
	<rect x="18" y="17.958" fill="#BCBEC0" width="1.5" height="1.5"/>
	<rect x="16.5" y="16.461" fill="#808285" width="1.5" height="1.5"/>
	<rect x="18" y="16.461" fill="#BCBEC0" width="1.5" height="1.5"/>
	<rect x="18" y="19.458" fill="#BCBEC0" width="1.5" height="1.5"/>
	<rect x="16.5" y="20.958" fill="#BCBEC0" width="1.5" height="1.5"/>
	<rect x="12" y="22.458" fill="#58595B" width="1.5" height="1.5"/>
	<rect x="10.5" y="22.458" fill="#E8CD8D" width="1.5" height="1.5"/>
	<rect x="6" y="22.458" fill="#BCBEC0" width="1.5" height="1.5"/>
	<rect x="4.5" y="22.458" fill="#BCBEC0" width="1.5" height="1.5"/>
	<rect x="13.5" y="22.458" fill="#F1F2F2" width="1.5" height="1.5"/>
	<rect x="15" y="22.458" fill="#BCBEC0" width="1.5" height="1.5"/>
	<rect x="16.5" y="22.458" fill="#BCBEC0" width="1.5" height="1.5"/>
	<rect x="18" y="22.458" fill="#BCBEC0" width="1.5" height="1.5"/>
	<rect x="7.5" y="25.458" fill="#58595B" width="1.5" height="1.5"/>
	<rect x="9" y="25.458" fill="#58595B" width="1.5" height="1.5"/>
	<rect x="12" y="25.458" fill="#58595B" width="1.5" height="1.5"/>
	<rect x="10.5" y="25.458" fill="#58595B" width="1.5" height="1.5"/>
	<rect x="6" y="25.458" fill="#58595B" width="1.5" height="1.5"/>
	<rect x="4.5" y="25.458" fill="#E6E7E8" width="1.5" height="1.5"/>
	<rect x="3" y="25.458" fill="#BCBEC0" width="1.5" height="1.5"/>
	<rect x="13.5" y="25.458" fill="#F1F2F2" width="1.5" height="1.5"/>
	<rect x="15" y="25.458" fill="#BCBEC0" width="1.5" height="1.5"/>
	<rect x="16.5" y="25.458" fill="#BCBEC0" width="1.5" height="1.5"/>
	<rect x="18" y="25.458" fill="#BCBEC0" width="1.5" height="1.5"/>
	<rect x="7.5" y="28.458" fill="#00A79D" width="1.5" height="1.5"/>
	<rect x="9" y="28.458" fill="#FBB040" width="1.5" height="1.5"/>
	<rect x="12" y="28.458" fill="#58595B" width="1.5" height="1.5"/>
	<rect x="10.5" y="28.458" fill="#00A79D" width="1.5" height="1.5"/>
	<rect x="6" y="28.458" fill="#58595B" width="1.5" height="1.5"/>
	<rect x="4.5" y="28.458" fill="#BCBEC0" width="1.5" height="1.5"/>
	<rect x="3" y="28.458" fill="#BCBEC0" width="1.5" height="1.5"/>
	<rect x="13.5" y="28.458" fill="#BCBEC0" width="1.5" height="1.5"/>
	<rect x="15" y="28.458" fill="#BCBEC0" width="1.5" height="1.5"/>
	<rect x="16.5" y="28.458" fill="#BCBEC0" width="1.5" height="1.5"/>
	<rect x="18" y="28.458" fill="#BCBEC0" width="1.5" height="1.5"/>
	<rect x="7.5" y="23.958" fill="#58595B" width="1.5" height="1.5"/>
	<rect x="9" y="23.958" fill="#E8CD8D" width="1.5" height="1.5"/>
	<rect x="12" y="23.958" fill="#58595B" width="1.5" height="1.5"/>
	<rect x="10.5" y="23.958" fill="#58595B" width="1.5" height="1.5"/>
	<rect x="6" y="23.958" fill="#58595B" width="1.5" height="1.5"/>
	<rect x="4.5" y="23.958" fill="#E6E7E8" width="1.5" height="1.5"/>
	<rect x="3" y="23.958" fill="#BCBEC0" width="1.5" height="1.5"/>
	<rect x="13.5" y="23.958" fill="#F1F2F2" width="1.5" height="1.5"/>
	<rect x="15" y="23.958" fill="#BCBEC0" width="1.5" height="1.5"/>
	<rect x="16.5" y="23.958" fill="#BCBEC0" width="1.5" height="1.5"/>
	<rect x="18" y="23.958" fill="#BCBEC0" width="1.5" height="1.5"/>
	<rect x="7.5" y="26.958" fill="#78B7AA" width="1.5" height="1.5"/>
	<rect x="9" y="26.958" fill="#00A79D" width="1.5" height="1.5"/>
	<rect x="12" y="26.958" fill="#58595B" width="1.5" height="1.5"/>
	<rect x="10.5" y="26.958" fill="#78B7AA" width="1.5" height="1.5"/>
	<rect x="6" y="26.958" fill="#58595B" width="1.5" height="1.5"/>
	<rect x="4.5" y="26.958" fill="#BCBEC0" width="1.5" height="1.5"/>
	<rect x="3" y="26.958" fill="#BCBEC0" width="1.5" height="1.5"/>
	<rect x="13.5" y="26.958" fill="#BCBEC0" width="1.5" height="1.5"/>
	<rect x="15" y="26.958" fill="#BCBEC0" width="1.5" height="1.5"/>
	<rect x="16.5" y="26.958" fill="#BCBEC0" width="1.5" height="1.5"/>
	<rect x="18" y="26.958" fill="#BCBEC0" width="1.5" height="1.5"/>
	<rect x="13.5" y="14.964" fill="#E8CD8D" width="1.5" height="1.5"/>
	<rect x="12" y="13.467" fill="#E8CD8D" width="1.5" height="1.5"/>
	<rect x="13.5" y="13.467" fill="#231F20" width="1.5" height="1.5"/>
	<rect x="12" y="17.958" fill="#E8CD8D" width="1.5" height="1.5"/>
	<rect x="13.5" y="17.958" fill="#E8CD8D" width="1.5" height="1.5"/>
	<rect x="12" y="16.461" fill="#E8CD8D" width="1.5" height="1.5"/>
	<rect x="13.5" y="16.461" fill="#E8CD8D" width="1.5" height="1.5"/>
	<rect x="12" y="11.964" fill="#231F20" width="1.5" height="1.5"/>
	<rect x="13.5" y="11.964" fill="#E8CD8D" width="1.5" height="1.5"/>
	<rect x="12" y="8.974" fill="#231F20" width="1.5" height="1.5"/>
	<rect x="13.5" y="8.974" fill="#231F20" width="1.5" height="1.5"/>
	<rect x="15" y="11.964" fill="#E8CD8D" width="1.5" height="1.5"/>
	<rect x="15" y="10.467" fill="#E8CD8D" width="1.5" height="1.5"/>
	<rect x="6" y="7.479" fill="#231F20" width="1.5" height="1.5"/>
	<rect x="7.5" y="7.479" fill="#3C2415" width="1.5" height="1.5"/>
	<rect x="9" y="7.479" fill="#231F20" width="1.5" height="1.5"/>
	<rect x="10.5" y="7.479" fill="#603913" width="1.5" height="1.5"/>
	<rect x="6" y="8.974" fill="#E8CD8D" width="1.5" height="1.5"/>
	<rect x="7.5" y="8.974" fill="#E8CD8D" width="1.5" height="1.5"/>
	<rect x="9" y="8.974" fill="#231F20" width="1.5" height="1.5"/>
	<rect x="10.5" y="8.974" fill="#3C2415" width="1.5" height="1.5"/>
	<rect x="3" y="10.467" fill="#E8CD8D" width="1.5" height="1.5"/>
	<rect x="4.5" y="10.467" fill="#E8CD8D" width="1.5" height="1.5"/>
	<rect x="12" y="10.467" fill="#3C2415" width="1.5" height="1.5"/>
	<rect x="13.5" y="10.467" fill="#231F20" width="1.5" height="1.5"/>
	<rect x="6" y="10.467" fill="#E8CD8D" width="1.5" height="1.5"/>
	<rect x="7.5" y="10.467" fill="#E8CD8D" width="1.5" height="1.5"/>
	<rect x="9" y="10.467" fill="#231F20" width="1.5" height="1.5"/>
	<rect x="10.5" y="10.467" fill="#E8CD8D" width="1.5" height="1.5"/>
	<rect x="6" y="11.964" fill="#FFFFFF" width="1.5" height="1.5"/>
	<rect x="7.5" y="11.964" fill="#E8CD8D" width="1.5" height="1.5"/>
	<rect x="9" y="11.964" fill="#231F20" width="1.5" height="1.5"/>
	<rect x="10.5" y="11.964" fill="#E8CD8D" width="1.5" height="1.5"/>
	<rect x="6" y="13.464" fill="#E8CD8D" width="1.5" height="1.5"/>
	<rect x="7.5" y="13.464" fill="#E8CD8D" width="1.5" height="1.5"/>
	<rect x="9" y="13.464" fill="#E8CD8D" width="1.5" height="1.5"/>
	<rect x="10.5" y="13.464" fill="#E8CD8D" width="1.5" height="1.5"/>
	<rect x="12" y="7.479" fill="#231F20" width="1.5" height="1.5"/>
	<rect x="13.5" y="7.479" fill="#3C2415" width="1.5" height="1.5"/>
	<rect x="15" y="8.974" fill="#603913" width="1.5" height="1.5"/>
	<rect x="15" y="7.479" fill="#231F20" width="1.5" height="1.5"/>
	<rect x="16.5" y="11.97" fill="#754C29" width="1.5" height="1.5"/>
	<rect x="16.5" y="10.476" fill="#231F20" width="1.5" height="1.5"/>
	<rect x="16.5" y="8.979" fill="#231F20" width="1.5" height="1.5"/>
	<rect x="16.5" y="7.479" fill="#231F20" width="1.5" height="1.5"/>
	<rect x="15" y="14.961" fill="#231F20" width="1.5" height="1.5"/>
	<rect x="15" y="16.461" fill="#231F20" width="1.5" height="1.5"/>
	<rect x="15" y="13.467" fill="#231F20" width="1.5" height="1.5"/>
	<rect x="4.5" y="5.997" fill="#6C8394" width="1.5" height="1.5"/>
	<rect x="6" y="5.997" fill="#6C8394" width="1.5" height="1.5"/>
	<rect x="7.5" y="5.997" fill="#6C8394" width="1.5" height="1.5"/>
	<rect x="9" y="5.997" fill="#6C8394" width="1.5" height="1.5"/>
	<rect x="10.5" y="5.997" fill="#6C8394" width="1.5" height="1.5"/>
	<rect x="12" y="5.997" fill="#6C8394" width="1.5" height="1.5"/>
	<rect x="13.5" y="5.997" fill="#6C8394" width="1.5" height="1.5"/>
	<rect x="4.5" y="4.5" fill="#8AA7BC" width="1.5" height="1.5"/>
	<rect x="3" y="5.997" fill="#6C8394" width="1.5" height="1.5"/>
	<rect x="1.5" y="5.997" fill="#6C8394" width="1.5" height="1.5"/>
	<rect y="5.997" fill="#6C8394" width="1.5" height="1.5"/>
	<rect x="3" y="4.5" fill="#8AA7BC" width="1.5" height="1.5"/>
	<rect x="3" y="3" fill="#231F20" width="1.5" height="1.5"/>
	<rect x="3" y="1.5" fill="#6C8394" width="1.5" height="1.5"/>
	<rect x="6" y="4.5" fill="#8AA7BC" width="1.5" height="1.5"/>
	<rect x="7.5" y="4.5" fill="#6C8394" width="1.5" height="1.5"/>
	<rect x="9" y="4.5" fill="#6C8394" width="1.5" height="1.5"/>
	<rect x="10.5" y="4.5" fill="#6C8394" width="1.5" height="1.5"/>
	<rect x="4.5" y="3" fill="#231F20" width="1.5" height="1.5"/>
	<rect x="6" y="3" fill="#231F20" width="1.5" height="1.5"/>
	<rect x="7.5" y="3" fill="#6C8394" width="1.5" height="1.5"/>
	<rect x="9" y="3" fill="#6C8394" width="1.5" height="1.5"/>
	<rect x="10.5" y="3" fill="#6C8394" width="1.5" height="1.5"/>
	<rect x="12" y="4.5" fill="#6C8394" width="1.5" height="1.5"/>
	<rect x="12" y="3" fill="#6C8394" width="1.5" height="1.5"/>
	<rect x="4.5" y="1.5" fill="#6C8394" width="1.5" height="1.5"/>
	<rect x="6" y="1.5" fill="#6C8394" width="1.5" height="1.5"/>
	<rect x="7.5" y="1.5" fill="#6C8394" width="1.5" height="1.5"/>
	<rect x="9" y="1.5" fill="#6C8394" width="1.5" height="1.5"/>
	<rect x="10.5" y="1.5" fill="#6C8394" width="1.5" height="1.5"/>
	<rect x="4.5" fill="#6C8394" width="1.5" height="1.5"/>
	<rect x="6" fill="#6C8394" width="1.5" height="1.5"/>
	<rect x="7.5" fill="#6C8394" width="1.5" height="1.5"/>
	<rect x="9" fill="#6C8394" width="1.5" height="1.5"/>
	<rect x="10.5" fill="#6C8394" width="1.5" height="1.5"/>
	<rect x="12" fill="#6C8394" width="1.5" height="1.5"/>
	<rect x="12" y="1.5" fill="#6C8394" width="1.5" height="1.5"/>
	<rect x="13.5" fill="#6C8394" width="1.5" height="1.5"/>
	<rect x="15" y="1.5" fill="#6C8394" width="1.5" height="1.5"/>
	<rect x="13.5" y="1.5" fill="#6C8394" width="1.5" height="1.5"/>
	<rect x="13.5" y="4.5" fill="#6C8394" width="1.5" height="1.5"/>
	<rect x="13.5" y="3" fill="#6C8394" width="1.5" height="1.5"/>
	<rect x="15" y="5.997" fill="#6C8394" width="1.5" height="1.5"/>
	<rect x="15" y="4.5" fill="#6C8394" width="1.5" height="1.5"/>
	<rect x="15" y="3" fill="#6C8394" width="1.5" height="1.5"/>
</g>
</svg>
