<?xml version="1.0" encoding="utf-8"?>
<!-- Generator: Adobe Illustrator 15.0.2, SVG Export Plug-In  -->
<!DOCTYPE svg PUBLIC "-//W3C//DTD SVG 1.1//EN" "http://www.w3.org/Graphics/SVG/1.1/DTD/svg11.dtd" [
	<!ENTITY ns_flows "http://ns.adobe.com/Flows/1.0/">
]>
<svg version="1.1"
	 xmlns="http://www.w3.org/2000/svg" xmlns:xlink="http://www.w3.org/1999/xlink" xmlns:a="http://ns.adobe.com/AdobeSVGViewerExtensions/3.0/"
	 x="0px" y="0px" width="24px" height="30px" viewBox="0 0 24 30" enable-background="new 0 0 24 30" xml:space="preserve">
<defs>
</defs>
<rect x="1.5" y="11.988" fill="#717676" width="1.5" height="1.5"/>
<rect x="4.5" y="1.5" fill="#191818" width="1.5" height="1.5"/>
<rect x="6" y="1.5" fill="#8E9995" width="1.5" height="1.5"/>
<rect x="7.5" y="1.5" fill="#8E9995" width="1.5" height="1.5"/>
<rect x="9" y="1.5" fill="#515253" width="1.5" height="1.5"/>
<rect x="3" y="4.497" fill="#191818" width="1.5" height="1.5"/>
<rect x="4.5" y="4.497" fill="#8E9995" width="1.5" height="1.5"/>
<rect x="6" y="4.497" fill="#191818" width="1.5" height="1.5"/>
<rect x="7.5" y="4.497" fill="#515253" width="1.5" height="1.5"/>
<rect x="9" y="4.497" fill="#515253" width="1.5" height="1.5"/>
<rect x="10.5" y="4.497" fill="#191818" width="1.5" height="1.5"/>
<rect x="3" y="5.997" fill="#515253" width="1.5" height="1.5"/>
<rect x="1.5" y="5.997" fill="#191818" width="1.5" height="1.5"/>
<rect x="1.5" y="7.497" fill="#191818" width="1.5" height="1.5"/>
<rect x="4.5" y="5.997" fill="#8E9995" width="1.5" height="1.5"/>
<rect x="6" y="5.997" fill="#515253" width="1.5" height="1.5"/>
<rect x="7.5" y="5.997" fill="#191818" width="1.5" height="1.5"/>
<rect x="9" y="5.997" fill="#323133" width="1.5" height="1.5"/>
<rect x="10.5" y="5.997" fill="#191818" width="1.5" height="1.5"/>
<rect x="3" y="7.497" fill="#515253" width="1.5" height="1.5"/>
<rect x="4.5" y="7.497" fill="#323133" width="1.5" height="1.5"/>
<rect x="3" y="10.49" fill="#191818" width="1.5" height="1.5"/>
<rect x="4.5" y="10.49" fill="#191818" width="1.5" height="1.5"/>
<rect x="3" y="11.988" fill="#717676" width="1.5" height="1.5"/>
<rect x="4.5" y="11.988" fill="#717676" width="1.5" height="1.5"/>
<rect x="3" y="13.49" fill="#191818" width="1.5" height="1.5"/>
<rect x="4.5" y="13.49" fill="#191818" width="1.5" height="1.5"/>
<rect x="3" y="14.988" fill="#8E9995" width="1.5" height="1.5"/>
<rect x="1.5" y="13.488" fill="#191818" width="1.5" height="1.5"/>
<rect y="13.488" fill="#717676" width="1.5" height="1.5"/>
<rect x="1.5" y="14.988" fill="#323133" width="1.5" height="1.5"/>
<rect x="4.5" y="14.988" fill="#717676" width="1.5" height="1.5"/>
<rect x="4.5" y="16.484" fill="#8E9995" width="1.5" height="1.5"/>
<rect x="3" y="16.484" fill="#323133" width="1.5" height="1.5"/>
<rect x="7.5" y="14.988" fill="#191818" width="1.5" height="1.5"/>
<rect x="6" y="14.988" fill="#323133" width="1.5" height="1.5"/>
<rect x="9" y="14.988" fill="#191818" width="1.5" height="1.5"/>
<rect x="12" y="14.988" fill="#191818" width="1.501" height="1.5"/>
<rect x="10.5" y="14.988" fill="#323133" width="1.5" height="1.5"/>
<rect x="7.5" y="16.484" fill="#323133" width="1.5" height="1.5"/>
<rect x="6" y="16.484" fill="#191818" width="1.5" height="1.5"/>
<rect x="9" y="16.484" fill="#323133" width="1.5" height="1.5"/>
<rect x="10.5" y="16.484" fill="#191818" width="1.5" height="1.5"/>
<rect x="7.5" y="17.982" fill="#191818" width="1.5" height="1.5"/>
<rect x="6" y="17.982" fill="#191818" width="1.5" height="1.5"/>
<rect x="4.5" y="17.982" fill="#191818" width="1.5" height="1.5"/>
<rect x="9" y="17.982" fill="#323133" width="1.5" height="1.5"/>
<rect x="10.5" y="17.982" fill="#323133" width="1.5" height="1.5"/>
<rect x="7.5" y="19.482" fill="#191818" width="1.5" height="1.5"/>
<rect x="6" y="19.482" fill="#191818" width="1.5" height="1.5"/>
<rect x="6" y="20.982" fill="#191818" width="1.5" height="1.5"/>
<rect x="9" y="19.482" fill="#191818" width="1.5" height="1.5"/>
<rect x="7.5" y="20.982" fill="#191818" width="1.5" height="1.5"/>
<rect x="9" y="20.982" fill="#323133" width="1.5" height="1.5"/>
<rect x="10.5" y="20.982" fill="#191818" width="1.5" height="1.5"/>
<rect x="10.5" y="19.482" fill="#191818" width="1.5" height="1.5"/>
<rect x="12" y="19.482" fill="#191818" width="1.501" height="1.5"/>
<rect x="13.501" y="14.988" fill="#191818" width="1.5" height="1.5"/>
<rect x="12" y="13.49" fill="#191818" width="1.501" height="1.5"/>
<rect x="12" y="14.99" fill="#717676" width="1.501" height="1.5"/>
<rect x="13.501" y="13.49" fill="#191818" width="1.5" height="1.5"/>
<rect x="12" y="17.982" fill="#191818" width="1.501" height="1.5"/>
<rect x="13.501" y="17.982" fill="#191818" width="1.5" height="1.5"/>
<rect x="12" y="16.484" fill="#515253" width="1.501" height="1.5"/>
<rect x="13.501" y="16.484" fill="#717676" width="1.5" height="1.5"/>
<rect x="12" y="11.988" fill="#191818" width="1.501" height="1.5"/>
<rect x="13.501" y="11.988" fill="#323133" width="1.5" height="1.5"/>
<rect x="12" y="10.49" fill="#191818" width="1.501" height="1.5"/>
<rect x="13.501" y="10.49" fill="#191818" width="1.5" height="1.5"/>
<rect x="15.001" y="11.988" fill="#323133" width="1.5" height="1.5"/>
<rect x="15.001" y="10.49" fill="#323133" width="1.5" height="1.5"/>
<rect x="6" y="7.497" fill="#515253" width="1.5" height="1.5"/>
<rect x="7.5" y="7.497" fill="#515253" width="1.5" height="1.5"/>
<rect x="9" y="7.497" fill="#191818" width="1.5" height="1.5"/>
<rect x="7.5" y="8.997" fill="#8E9995" width="1.5" height="1.5"/>
<rect x="9" y="8.997" fill="#515253" width="1.5" height="1.5"/>
<rect x="4.5" y="8.997" fill="#191818" width="1.5" height="1.5"/>
<rect x="3" y="8.997" fill="#191818" width="1.5" height="1.5"/>
<rect x="6" y="8.997" fill="#191818" width="1.5" height="1.5"/>
<rect x="10.5" y="7.497" fill="#191818" width="1.5" height="1.5"/>
<rect x="6" y="10.49" fill="#191818" width="1.5" height="1.5"/>
<rect x="7.5" y="10.49" fill="#323133" width="1.5" height="1.5"/>
<rect x="9" y="10.49" fill="#717676" width="1.5" height="1.5"/>
<rect x="10.5" y="10.49" fill="#191818" width="1.5" height="1.5"/>
<rect x="10.5" y="8.997" fill="#191818" width="1.5" height="1.5"/>
<rect x="6" y="11.988" fill="#717676" width="1.5" height="1.5"/>
<rect x="7.5" y="11.988" fill="#323133" width="1.5" height="1.5"/>
<rect x="9" y="11.988" fill="#191818" width="1.5" height="1.5"/>
<rect x="10.5" y="11.988" fill="#191818" width="1.5" height="1.5"/>
<rect x="6" y="13.488" fill="#323133" width="1.5" height="1.5"/>
<rect x="7.5" y="13.488" fill="#191818" width="1.5" height="1.5"/>
<rect x="9" y="13.488" fill="#191818" width="1.5" height="1.5"/>
<rect x="10.5" y="13.488" fill="#717676" width="1.5" height="1.5"/>
<rect x="12" y="4.497" fill="#515253" width="1.501" height="1.5"/>
<rect x="13.501" y="4.497" fill="#191818" width="1.5" height="1.5"/>
<rect x="3" y="3" fill="#191818" width="1.5" height="1.5"/>
<rect x="4.5" y="3" fill="#515253" width="1.5" height="1.5"/>
<rect x="6" y="3" fill="#8E9995" width="1.5" height="1.5"/>
<rect x="7.5" y="3" fill="#515253" width="1.5" height="1.5"/>
<rect x="9" y="3" fill="#515253" width="1.5" height="1.5"/>
<rect x="10.5" y="3" fill="#191818" width="1.5" height="1.5"/>
<rect x="12" y="3" fill="#515253" width="1.501" height="1.5"/>
<rect x="10.5" y="1.5" fill="#191818" width="1.5" height="1.5"/>
<rect x="12" y="1.5" fill="#8E9995" width="1.501" height="1.5"/>
<rect x="13.501" y="1.5" fill="#191818" width="1.5" height="1.5"/>
<rect x="7.5" fill="#191818" width="1.5" height="1.5"/>
<rect x="6" fill="#191818" width="1.5" height="1.5"/>
<rect x="9" fill="#191818" width="1.5" height="1.5"/>
<rect x="10.5" fill="#191818" width="1.5" height="1.5"/>
<rect x="12" fill="#191818" width="1.501" height="1.5"/>
<rect x="13.501" y="3" fill="#515253" width="1.5" height="1.5"/>
<rect x="12" y="5.997" fill="#515253" width="1.501" height="1.5"/>
<rect x="13.501" y="5.997" fill="#515253" width="1.5" height="1.5"/>
<rect x="12" y="7.497" fill="#515253" width="1.501" height="1.5"/>
<rect x="13.501" y="7.497" fill="#323133" width="1.5" height="1.5"/>
<rect x="15.001" y="4.497" fill="#191818" width="1.5" height="1.5"/>
<rect x="15.001" y="4.497" fill="#191818" width="1.5" height="1.5"/>
<rect x="15.001" y="3" fill="#191818" width="1.5" height="1.5"/>
<rect x="15.001" y="5.997" fill="#191818" width="1.5" height="1.5"/>
<rect x="15.001" y="7.497" fill="#323133" width="1.5" height="1.5"/>
<rect x="16.501" y="7.497" fill="#191818" width="1.5" height="1.5"/>
<rect x="16.501" y="5.997" fill="#191818" width="1.5" height="1.5"/>
<rect x="12" y="8.997" fill="#191818" width="1.501" height="1.5"/>
<rect x="13.501" y="8.997" fill="#323133" width="1.5" height="1.5"/>
<rect x="15.001" y="8.997" fill="#323133" width="1.5" height="1.5"/>
<rect x="16.501" y="8.997" fill="#191818" width="1.5" height="1.5"/>
<rect x="16.501" y="10.49" fill="#191818" width="1.5" height="1.5"/>
<rect x="16.501" y="11.99" fill="#323133" width="1.5" height="1.5"/>
<rect x="18.001" y="11.99" fill="#191818" width="1.5" height="1.5"/>
<rect x="16.501" y="13.49" fill="#323133" width="1.5" height="1.5"/>
<rect x="15.001" y="13.49" fill="#323133" width="1.5" height="1.5"/>
<rect x="15.001" y="14.99" fill="#323133" width="1.5" height="1.5"/>
<rect x="15.001" y="16.49" fill="#515253" width="1.5" height="1.5"/>
<rect x="16.501" y="14.99" fill="#323133" width="1.5" height="1.5"/>
<rect x="18.001" y="16.49" fill="#515253" width="1.5" height="1.5"/>
<rect x="19.501" y="16.49" fill="#515253" width="1.499" height="1.5"/>
<rect x="18.001" y="14.99" fill="#323133" width="1.5" height="1.5"/>
<rect x="19.501" y="14.99" fill="#323133" width="1.499" height="1.5"/>
<rect x="21" y="16.49" fill="#191818" width="1.5" height="1.5"/>
<rect x="21" y="14.99" fill="#191818" width="1.5" height="1.5"/>
<rect x="22.5" y="16.49" fill="#191818" width="1.5" height="1.5"/>
<rect x="18.001" y="13.494" fill="#323133" width="1.5" height="1.5"/>
<rect x="19.501" y="13.494" fill="#191818" width="1.499" height="1.5"/>
<rect x="16.501" y="16.49" fill="#515253" width="1.5" height="1.5"/>
<rect x="15.001" y="17.982" fill="#191818" width="1.5" height="1.5"/>
<rect x="16.501" y="17.982" fill="#191818" width="1.5" height="1.5"/>
<rect x="18.001" y="17.982" fill="#323133" width="1.5" height="1.5"/>
<rect x="7.5" y="22.484" fill="#191818" width="1.5" height="1.5"/>
<rect x="9" y="22.484" fill="#191818" width="1.5" height="1.5"/>
<rect x="13.501" y="20.983" fill="#191818" width="1.5" height="1.5"/>
<rect x="13.501" y="19.484" fill="#191818" width="1.5" height="1.5"/>
<rect x="15.001" y="20.983" fill="#191818" width="1.5" height="1.5"/>
<rect x="15.001" y="19.484" fill="#191818" width="1.5" height="1.5"/>
<rect x="16.501" y="19.484" fill="#191818" width="1.5" height="1.5"/>
<rect x="12" y="22.484" fill="#191818" width="1.501" height="1.5"/>
<rect x="12" y="20.983" fill="#323133" width="1.501" height="1.5"/>
<rect x="10.5" y="22.484" fill="#323133" width="1.5" height="1.5"/>
<rect x="6" y="22.484" fill="#323133" width="1.5" height="1.5"/>
<rect x="4.5" y="22.484" fill="#191818" width="1.5" height="1.5"/>
<rect x="4.5" y="20.983" fill="#191818" width="1.5" height="1.5"/>
<rect x="3" y="20.983" fill="#191818" width="1.5" height="1.5"/>
<rect x="13.501" y="22.484" fill="#323133" width="1.5" height="1.5"/>
<rect x="15.001" y="22.484" fill="#191818" width="1.5" height="1.5"/>
<rect x="16.501" y="22.484" fill="#191818" width="1.5" height="1.5"/>
<rect x="7.5" y="25.484" fill="#191818" width="1.5" height="1.5"/>
<rect x="9" y="25.484" fill="#191818" width="1.5" height="1.5"/>
<rect x="12" y="25.484" fill="#191818" width="1.501" height="1.5"/>
<rect x="10.5" y="25.484" fill="#191818" width="1.5" height="1.5"/>
<rect x="6" y="25.484" fill="#191818" width="1.5" height="1.5"/>
<rect x="6" y="26.984" fill="#191818" width="1.5" height="1.5"/>
<rect x="4.5" y="25.484" fill="#323133" width="1.5" height="1.5"/>
<rect x="3" y="25.484" fill="#191818" width="1.5" height="1.5"/>
<rect x="13.501" y="25.484" fill="#191818" width="1.5" height="1.5"/>
<rect x="15.001" y="25.484" fill="#323133" width="1.5" height="1.5"/>
<rect x="16.501" y="25.484" fill="#191818" width="1.5" height="1.5"/>
<rect x="18.001" y="25.484" fill="#191818" width="1.5" height="1.5"/>
<rect x="7.5" y="28.484" fill="#191818" width="1.5" height="1.5"/>
<rect x="9" y="28.484" fill="#191818" width="1.5" height="1.5"/>
<rect x="12" y="28.484" fill="#191818" width="1.501" height="1.5"/>
<rect x="10.5" y="28.484" fill="#191818" width="1.5" height="1.5"/>
<rect x="6" y="28.484" fill="#191818" width="1.5" height="1.5"/>
<rect x="4.5" y="28.484" fill="#323133" width="1.5" height="1.5"/>
<rect x="3" y="28.484" fill="#191818" width="1.5" height="1.5"/>
<rect x="13.501" y="28.484" fill="#191818" width="1.5" height="1.5"/>
<rect x="15.001" y="28.484" fill="#323133" width="1.5" height="1.5"/>
<rect x="16.501" y="28.484" fill="#191818" width="1.5" height="1.5"/>
<rect x="18.001" y="28.484" fill="#191818" width="1.5" height="1.5"/>
<rect x="7.5" y="23.984" fill="#8E9995" width="1.5" height="1.5"/>
<rect x="9" y="23.984" fill="#8E9995" width="1.5" height="1.5"/>
<rect x="12" y="23.984" fill="#274193" width="1.501" height="1.5"/>
<rect x="10.5" y="23.984" fill="#191818" width="1.5" height="1.5"/>
<rect x="6" y="23.984" fill="#191818" width="1.5" height="1.5"/>
<rect x="4.5" y="23.984" fill="#323133" width="1.5" height="1.5"/>
<rect x="3" y="23.984" fill="#191818" width="1.5" height="1.5"/>
<rect x="13.501" y="23.984" fill="#191818" width="1.5" height="1.5"/>
<rect x="15.001" y="23.984" fill="#323133" width="1.5" height="1.5"/>
<rect x="16.501" y="23.984" fill="#191818" width="1.5" height="1.5"/>
<rect x="18.001" y="23.984" fill="#191818" width="1.5" height="1.5"/>
<rect x="7.5" y="26.984" fill="#8E9995" width="1.5" height="1.5"/>
<rect x="9" y="26.984" fill="#8E9995" width="1.5" height="1.5"/>
<rect x="12" y="26.984" fill="#BC1D2D" width="1.501" height="1.5"/>
<rect x="10.5" y="26.984" fill="#191818" width="1.5" height="1.5"/>
<rect x="6" y="26.984" fill="#191818" width="1.5" height="1.5"/>
<rect x="4.5" y="26.984" fill="#323133" width="1.5" height="1.5"/>
<rect x="3" y="26.984" fill="#323133" width="1.5" height="1.5"/>
<rect x="1.5" y="25.484" fill="#191818" width="1.5" height="1.5"/>
<rect x="1.5" y="28.484" fill="#191818" width="1.5" height="1.5"/>
<rect x="1.5" y="26.984" fill="#191818" width="1.5" height="1.5"/>
<rect x="13.501" y="26.984" fill="#191818" width="1.5" height="1.5"/>
<rect x="15.001" y="26.984" fill="#323133" width="1.5" height="1.5"/>
<rect x="16.501" y="26.984" fill="#323133" width="1.5" height="1.5"/>
<rect x="18.001" y="26.984" fill="#191818" width="1.5" height="1.5"/>
</svg>
