<?xml version="1.0" encoding="utf-8"?>
<!-- Generator: Adobe Illustrator 15.0.2, SVG Export Plug-In . SVG Version: 6.00 Build 0)  -->
<!DOCTYPE svg PUBLIC "-//W3C//DTD SVG 1.1//EN" "http://www.w3.org/Graphics/SVG/1.1/DTD/svg11.dtd">
<svg version="1.1" id="Layer_1" xmlns="http://www.w3.org/2000/svg" xmlns:xlink="http://www.w3.org/1999/xlink" x="0px" y="0px"
	 width="18px" height="32.975px" viewBox="0 0 18 32.975" enable-background="new 0 0 18 32.975" xml:space="preserve">
<g>
	<rect x="13.5" y="14.995" fill="#E8CD8D" width="1.5" height="1.5"/>
	<rect x="13.5" y="13.498" fill="#E8CD8D" width="1.5" height="1.5"/>
	<rect x="1.5" y="3.014" fill="#3C2415" width="1.5" height="1.5"/>
	<rect x="1.5" y="1.499" fill="#603913" width="1.5" height="1.5"/>
	<rect x="3" y="3.014" fill="#603913" width="1.5" height="1.5"/>
	<rect x="4.5" y="3.014" fill="#3C2415" width="1.5" height="1.5"/>
	<rect x="1.5" y="6.011" fill="#3C2415" width="1.5" height="1.5"/>
	<rect x="3" y="6.011" fill="#603913" width="1.5" height="1.5"/>
	<rect x="4.5" y="6.011" fill="#3C2415" width="1.5" height="1.5"/>
	<rect x="6" y="6.011" fill="#603913" width="1.5" height="1.5"/>
	<rect x="7.5" y="6.011" fill="#C49A6C" width="1.5" height="1.5"/>
	<rect x="9" y="6.011" fill="#C49A6C" width="1.5" height="1.5"/>
	<rect x="1.5" y="7.511" fill="#E8CD8D" width="1.5" height="1.5"/>
	<rect x="3" y="7.511" fill="#E8CD8D" width="1.5" height="1.5"/>
	<rect x="4.5" y="7.511" fill="#E8CD8D" width="1.5" height="1.5"/>
	<rect x="6" y="7.511" fill="#E8CD8D" width="1.5" height="1.5"/>
	<rect x="7.5" y="7.511" fill="#603913" width="1.5" height="1.5"/>
	<rect x="9" y="7.511" fill="#3C2415" width="1.5" height="1.5"/>
	<rect x="1.5" y="9.011" fill="#EADAB2" width="1.5" height="1.5"/>
	<rect x="3" y="9.011" fill="#EADAB2" width="1.5" height="1.5"/>
	<rect x="1.5" y="10.505" fill="#CDC09D" width="1.5" height="1.5"/>
	<rect x="3" y="10.505" fill="#CDC09D" width="1.5" height="1.5"/>
	<rect x="1.5" y="13.495" fill="#E8CD8D" width="1.5" height="1.5"/>
	<rect x="3" y="13.495" fill="#3B2314" width="1.5" height="1.5"/>
	<rect x="1.5" y="14.998" fill="#E8CD8D" width="1.5" height="1.5"/>
	<rect x="3" y="14.998" fill="#EADAB2" width="1.5" height="1.5"/>
	<rect x="1.5" y="16.495" fill="#231F20" width="1.5" height="1.5"/>
	<rect y="14.998" fill="#E8CD8D" width="1.5" height="1.5"/>
	<rect x="3" y="16.495" fill="#3C2415" width="1.5" height="1.5"/>
	<rect x="6" y="16.495" fill="#594A42" width="1.5" height="1.5"/>
	<rect x="4.5" y="16.495" fill="#594A42" width="1.5" height="1.5"/>
	<rect x="7.5" y="16.495" fill="#E7B685" width="1.5" height="1.5"/>
	<rect x="10.5" y="16.495" fill="#A49C80" width="1.5" height="1.5"/>
	<rect x="9" y="16.495" fill="#EADAB2" width="1.5" height="1.5"/>
	<rect x="6" y="17.992" fill="#FFFFFF" width="1.5" height="1.5"/>
	<rect x="4.5" y="17.992" fill="#FFFFFF" width="1.5" height="1.5"/>
	<rect x="7.5" y="17.992" fill="#AD6D67" width="1.5" height="1.5"/>
	<rect x="9" y="17.992" fill="#E8CD8D" width="1.5" height="1.5"/>
	<rect x="6" y="19.489" fill="#C97D7A" width="1.5" height="1.5"/>
	<rect x="4.5" y="19.489" fill="#C97D7A" width="1.5" height="1.5"/>
	<rect x="7.5" y="19.489" fill="#EADAB2" width="1.5" height="1.5"/>
	<rect x="9" y="19.489" fill="#A49C80" width="1.5" height="1.5"/>
	<rect x="6" y="20.989" fill="#726658" width="1.5" height="1.5"/>
	<rect x="4.5" y="20.989" fill="#231F20" width="1.5" height="1.5"/>
	<rect x="7.5" y="20.989" fill="#726658" width="1.5" height="1.5"/>
	<rect x="6" y="22.489" fill="#A49C80" width="1.5" height="1.5"/>
	<rect x="7.5" y="22.489" fill="#E8CD8D" width="1.5" height="1.5"/>
	<rect x="9" y="22.489" fill="#E8CD8D" width="1.5" height="1.5"/>
	<rect x="6" y="23.981" fill="#EADAB2" width="1.5" height="1.5"/>
	<rect x="7.5" y="23.981" fill="#E8CD8D" width="1.5" height="1.5"/>
	<rect x="9" y="23.981" fill="#E8CD8D" width="1.5" height="1.5"/>
	<rect x="9" y="20.989" fill="#726658" width="1.5" height="1.5"/>
	<rect x="12" y="16.495" fill="#E8CD8D" width="1.5" height="1.5"/>
	<rect x="10.5" y="14.998" fill="#3C2415" width="1.5" height="1.5"/>
	<rect x="12" y="14.998" fill="#E8CD8D" width="1.5" height="1.5"/>
	<rect x="10.5" y="19.489" fill="#726658" width="1.5" height="1.5"/>
	<rect x="10.5" y="17.992" fill="#A49C80" width="1.5" height="1.5"/>
	<rect x="10.5" y="13.495" fill="#3C2415" width="1.5" height="1.5"/>
	<rect x="12" y="13.495" fill="#EADAB2" width="1.5" height="1.5"/>
	<rect x="10.5" y="10.505" fill="#603913" width="1.5" height="1.5"/>
	<rect x="12" y="10.505" fill="#A97C50" width="1.5" height="1.5"/>
	<rect x="4.5" y="9.011" fill="#EADAB2" width="1.5" height="1.5"/>
	<rect x="6" y="9.011" fill="#E8CD8D" width="1.5" height="1.5"/>
	<rect x="7.5" y="9.011" fill="#E8CD8D" width="1.5" height="1.5"/>
	<rect x="9" y="9.011" fill="#603913" width="1.5" height="1.5"/>
	<rect x="4.5" y="10.505" fill="#E8CD8D" width="1.5" height="1.5"/>
	<rect x="6" y="10.505" fill="#E8CD8D" width="1.5" height="1.5"/>
	<rect x="7.5" y="10.505" fill="#E8CD8D" width="1.5" height="1.5"/>
	<rect x="9" y="10.505" fill="#3C2415" width="1.5" height="1.5"/>
	<rect x="1.5" y="11.998" fill="#E8CD8D" width="1.5" height="1.5"/>
	<rect x="3" y="11.998" fill="#726658" width="1.5" height="1.5"/>
	<rect x="10.5" y="11.998" fill="#3C2415" width="1.5" height="1.5"/>
	<rect x="12" y="11.998" fill="#3C2415" width="1.5" height="1.5"/>
	<rect x="13.5" y="11.998" fill="#603913" width="1.5" height="1.5"/>
	<rect x="4.5" y="11.998" fill="#726658" width="1.5" height="1.5"/>
	<rect x="6" y="11.998" fill="#726658" width="1.5" height="1.5"/>
	<rect x="7.5" y="11.998" fill="#E8CD8D" width="1.5" height="1.5"/>
	<rect x="9" y="11.998" fill="#603913" width="1.5" height="1.5"/>
	<rect x="4.5" y="13.495" fill="#FFFFFF" width="1.5" height="1.5"/>
	<rect x="6" y="13.495" fill="#E8CD8D" width="1.5" height="1.5"/>
	<rect x="7.5" y="13.495" fill="#E8CD8D" width="1.5" height="1.5"/>
	<rect x="9" y="13.495" fill="#E8CD8D" width="1.5" height="1.5"/>
	<rect x="4.5" y="14.995" fill="#E8CD8D" width="1.5" height="1.5"/>
	<rect x="6" y="14.995" fill="#EFC8A6" width="1.5" height="1.5"/>
	<rect x="7.5" y="14.995" fill="#EADAB2" width="1.5" height="1.5"/>
	<rect x="9" y="14.995" fill="#E8CD8D" width="1.5" height="1.5"/>
	<rect x="10.5" y="6.011" fill="#C49A6C" width="1.5" height="1.5"/>
	<rect x="12" y="6.011" fill="#C49A6C" width="1.5" height="1.5"/>
	<rect x="1.5" y="4.514" fill="#603913" width="1.5" height="1.5"/>
	<rect x="3" y="4.514" fill="#3C2415" width="1.5" height="1.5"/>
	<rect x="4.5" y="4.514" fill="#603913" width="1.5" height="1.5"/>
	<rect x="6" y="4.514" fill="#3C2415" width="1.5" height="1.5"/>
	<rect x="7.5" y="4.514" fill="#C49A6C" width="1.5" height="1.5"/>
	<rect x="9" y="4.514" fill="#C49A6C" width="1.5" height="1.5"/>
	<rect x="10.5" y="4.514" fill="#C49A6C" width="1.5" height="1.5"/>
	<rect x="12" y="4.514" fill="#C49A6C" width="1.5" height="1.5"/>
	<rect x="13.5" y="5.999" fill="#C49A6C" width="1.5" height="1.5"/>
	<rect x="10.5" y="7.511" fill="#3C2415" width="1.5" height="1.5"/>
	<rect x="12" y="7.511" fill="#C49A6C" width="1.5" height="1.5"/>
	<rect x="10.5" y="9.011" fill="#3C2415" width="1.5" height="1.5"/>
	<rect x="12" y="9.011" fill="#C49A6C" width="1.5" height="1.5"/>
	<rect x="13.5" y="7.511" fill="#C49A6C" width="1.5" height="1.5"/>
	<rect x="13.5" y="9.011" fill="#C49A6C" width="1.5" height="1.5"/>
	<rect x="13.5" y="10.505" fill="#C49A6C" width="1.5" height="1.5"/>
	<rect x="15" y="10.505" fill="#A97C50" width="1.5" height="1.5"/>
	<rect x="15" y="11.998" fill="#C49A6C" width="1.5" height="1.5"/>
	<rect x="6" y="25.475" fill="#E8CD8D" width="1.5" height="1.5"/>
	<rect x="7.5" y="25.475" fill="#E8CD8D" width="1.5" height="1.5"/>
	<rect x="10.5" y="23.975" fill="#334D6B" width="1.5" height="1.5"/>
	<rect x="10.5" y="22.475" fill="#334D6B" width="1.5" height="1.5"/>
	<rect x="12" y="23.975" fill="#596C7B" width="1.5" height="1.5"/>
	<rect x="12" y="22.475" fill="#334D6B" width="1.5" height="1.5"/>
	<rect x="13.5" y="23.975" fill="#596C7B" width="1.5" height="1.5"/>
	<rect x="13.5" y="22.475" fill="#6C8394" width="1.5" height="1.5"/>
	<rect x="15" y="23.975" fill="#6C8394" width="1.5" height="1.5"/>
	<rect x="10.5" y="25.475" fill="#334D6B" width="1.5" height="1.5"/>
	<rect x="9" y="25.475" fill="#E8CD8D" width="1.5" height="1.5"/>
	<rect x="4.5" y="25.475" fill="#334D6B" width="1.5" height="1.5"/>
	<rect x="3" y="25.475" fill="#596C7B" width="1.5" height="1.5"/>
	<rect x="4.5" y="23.975" fill="#334D6B" width="1.5" height="1.5"/>
	<rect x="3" y="23.975" fill="#596C7B" width="1.5" height="1.5"/>
	<rect x="3" y="22.475" fill="#334D6B" width="1.5" height="1.5"/>
	<rect x="4.5" y="22.475" fill="#334D6B" width="1.5" height="1.5"/>
	<rect x="1.5" y="23.981" fill="#596C7B" width="1.5" height="1.5"/>
	<rect y="23.981" fill="#6C8394" width="1.5" height="1.5"/>
	<rect x="1.496" y="22.485" fill="#6C8394" width="1.5" height="1.5"/>
	<rect x="12" y="25.475" fill="#596C7B" width="1.5" height="1.5"/>
	<rect x="6" y="28.475" fill="#754C29" width="1.5" height="1.5"/>
	<rect x="7.5" y="28.475" fill="#754C29" width="1.5" height="1.5"/>
	<rect x="10.5" y="28.475" fill="#6C8394" width="1.5" height="1.5"/>
	<rect x="9" y="28.475" fill="#754C29" width="1.5" height="1.5"/>
	<rect x="4.5" y="28.475" fill="#6C8394" width="1.5" height="1.5"/>
	<rect x="4.5" y="29.975" fill="#596C7B" width="1.5" height="1.5"/>
	<rect x="3" y="28.475" fill="#596C7B" width="1.5" height="1.5"/>
	<rect x="1.5" y="28.475" fill="#596C7B" width="1.5" height="1.5"/>
	<rect x="12" y="28.475" fill="#596C7B" width="1.5" height="1.5"/>
	<rect x="13.5" y="28.475" fill="#596C7B" width="1.5" height="1.5"/>
	<rect x="15" y="28.475" fill="#596C7B" width="1.5" height="1.5"/>
	<rect x="16.5" y="28.475" fill="#596C7B" width="1.5" height="1.5"/>
	<rect x="6" y="31.475" fill="#754C29" width="1.5" height="1.5"/>
	<rect x="7.5" y="31.475" fill="#D0C0A8" width="1.5" height="1.5"/>
	<rect x="10.5" y="31.475" fill="#6C8394" width="1.5" height="1.5"/>
	<rect x="9" y="31.475" fill="#231F20" width="1.5" height="1.5"/>
	<rect x="4.5" y="31.475" fill="#6C8394" width="1.5" height="1.5"/>
	<rect x="3" y="31.475" fill="#596C7B" width="1.5" height="1.5"/>
	<rect x="1.5" y="31.475" fill="#334D6B" width="1.5" height="1.5"/>
	<rect x="12" y="31.475" fill="#596C7B" width="1.5" height="1.5"/>
	<rect x="13.5" y="31.475" fill="#334D6B" width="1.5" height="1.5"/>
	<rect x="15" y="31.475" fill="#596C7B" width="1.5" height="1.5"/>
	<rect x="16.5" y="31.475" fill="#8AA7BC" width="1.5" height="1.5"/>
	<rect x="6" y="26.975" fill="#754C29" width="1.5" height="1.5"/>
	<rect x="7.5" y="26.975" fill="#E8CD8D" width="1.5" height="1.5"/>
	<rect x="10.5" y="26.975" fill="#6C8394" width="1.5" height="1.5"/>
	<rect x="9" y="26.975" fill="#754C29" width="1.5" height="1.5"/>
	<rect x="4.5" y="26.975" fill="#6C8394" width="1.5" height="1.5"/>
	<rect x="3" y="26.975" fill="#596C7B" width="1.5" height="1.5"/>
	<rect x="1.5" y="26.975" fill="#596C7B" width="1.5" height="1.5"/>
	<rect x="12" y="26.975" fill="#596C7B" width="1.5" height="1.5"/>
	<rect x="13.5" y="26.975" fill="#596C7B" width="1.5" height="1.5"/>
	<rect x="15" y="26.975" fill="#596C7B" width="1.5" height="1.5"/>
	<rect x="6" y="29.975" fill="#D0C0A8" width="1.5" height="1.5"/>
	<rect x="7.5" y="29.975" fill="#754C29" width="1.5" height="1.5"/>
	<rect x="10.5" y="29.975" fill="#6C8394" width="1.5" height="1.5"/>
	<rect x="9" y="29.975" fill="#754C29" width="1.5" height="1.5"/>
	<rect x="4.5" y="29.975" fill="#6C8394" width="1.5" height="1.5"/>
	<rect x="3" y="29.975" fill="#596C7B" width="1.5" height="1.5"/>
	<rect x="1.5" y="29.975" fill="#334D6B" width="1.5" height="1.5"/>
	<rect y="28.475" fill="#596C7B" width="1.5" height="1.5"/>
	<rect y="31.475" fill="#596C7B" width="1.5" height="1.5"/>
	<rect y="29.975" fill="#596C7B" width="1.5" height="1.5"/>
	<rect x="12" y="29.975" fill="#596C7B" width="1.5" height="1.5"/>
	<rect x="13.5" y="29.975" fill="#334D6B" width="1.5" height="1.5"/>
	<rect x="15" y="29.975" fill="#596C7B" width="1.5" height="1.5"/>
	<rect x="16.5" y="29.975" fill="#8AA7BC" width="1.5" height="1.5"/>
	<rect x="4.5" y="3" fill="#A97C50" width="1.5" height="1.5"/>
	<rect x="4.5" y="1.5" fill="#C49A6C" width="1.5" height="1.5"/>
	<rect x="6" y="3" fill="#C49A6C" width="1.5" height="1.5"/>
	<rect x="7.5" y="3" fill="#A97C50" width="1.5" height="1.5"/>
	<rect x="9" y="3" fill="#8B5E3C" width="1.5" height="1.5"/>
	<rect x="7.5" y="5.997" fill="#A97C50" width="1.5" height="1.5"/>
	<rect x="9" y="5.997" fill="#C49A6C" width="1.5" height="1.5"/>
	<rect x="10.5" y="5.997" fill="#A97C50" width="1.5" height="1.5"/>
	<rect x="10.5" y="7.497" fill="#C49A6C" width="1.5" height="1.5"/>
	<rect x="12" y="5.997" fill="#8B5E3C" width="1.5" height="1.5"/>
	<rect x="13.5" y="5.997" fill="#C49A6C" width="1.5" height="1.5"/>
	<rect x="6" y="4.5" fill="#A97C50" width="1.5" height="1.5"/>
	<rect x="7.5" y="4.5" fill="#C49A6C" width="1.5" height="1.5"/>
	<rect x="9" y="4.5" fill="#A97C50" width="1.5" height="1.5"/>
	<rect x="10.5" y="4.5" fill="#8B5E3C" width="1.5" height="1.5"/>
	<rect x="12" y="4.5" fill="#C49A6C" width="1.5" height="1.5"/>
	<rect x="10.5" y="3" fill="#C49A6C" width="1.5" height="1.5"/>
	<rect x="7.5" y="1.5" fill="#8B5E3C" width="1.5" height="1.5"/>
	<rect x="6" y="1.5" fill="#A97C50" width="1.5" height="1.5"/>
	<rect x="12" y="3" fill="#C49A6C" width="1.5" height="1.5"/>
	<rect x="9" y="1.5" fill="#C49A6C" width="1.5" height="1.5"/>
	<rect x="10.5" y="1.5" fill="#C49A6C" width="1.5" height="1.5"/>
	<rect x="12" y="1.5" fill="#C49A6C" width="1.5" height="1.5"/>
	<rect x="9" fill="#C49A6C" width="1.5" height="1.5"/>
	<rect x="10.5" fill="#C49A6C" width="1.5" height="1.5"/>
	<rect x="12" fill="#C49A6C" width="1.5" height="1.5"/>
	<rect x="13.5" y="4.5" fill="#C49A6C" width="1.5" height="1.5"/>
	<rect x="15" y="5.997" fill="#C49A6C" width="1.5" height="1.5"/>
	<rect x="15" y="4.5" fill="#C49A6C" width="1.5" height="1.5"/>
	<rect x="13.5" y="3" fill="#C49A6C" width="1.5" height="1.5"/>
	<rect x="15" y="3" fill="#C49A6C" width="1.5" height="1.5"/>
	<rect x="13.5" y="1.5" fill="#C49A6C" width="1.5" height="1.5"/>
	<rect x="12" y="7.497" fill="#A97C50" width="1.5" height="1.5"/>
	<rect x="13.5" y="7.497" fill="#8B5E3C" width="1.5" height="1.5"/>
	<rect x="12" y="8.997" fill="#C49A6C" width="1.5" height="1.5"/>
	<rect x="13.5" y="8.997" fill="#A97C50" width="1.5" height="1.5"/>
	<rect x="15" y="7.497" fill="#C49A6C" width="1.5" height="1.5"/>
	<rect x="15" y="8.997" fill="#8B5E3C" width="1.5" height="1.5"/>
</g>
</svg>
