<?xml version="1.0" encoding="utf-8"?>
<!-- Generator: Adobe Illustrator 15.0.2, SVG Export Plug-In . SVG Version: 6.00 Build 0)  -->
<!DOCTYPE svg PUBLIC "-//W3C//DTD SVG 1.1//EN" "http://www.w3.org/Graphics/SVG/1.1/DTD/svg11.dtd">
<svg version="1.1" id="Layer_1" xmlns="http://www.w3.org/2000/svg" xmlns:xlink="http://www.w3.org/1999/xlink" x="0px" y="0px"
	 width="20.903px" height="28.481px" viewBox="0 0 20.903 28.481" enable-background="new 0 0 20.903 28.481" xml:space="preserve">
<g>
	<rect x="3" fill="#231F20" width="1.5" height="1.5"/>
	<rect x="3" y="1.5" fill="#414042" width="1.5" height="1.5"/>
	<rect x="4.5" y="1.5" fill="#231F20" width="1.5" height="1.5"/>
	<rect x="6" y="1.5" fill="#58595B" width="1.5" height="1.5"/>
	<rect x="7.5" y="1.5" fill="#231F20" width="1.5" height="1.5"/>
	<rect x="9" y="1.5" fill="#231F20" width="1.5" height="1.5"/>
	<rect x="10.5" y="1.5" fill="#231F20" width="1.5" height="1.5"/>
	<rect x="3" y="4.497" fill="#231F20" width="1.5" height="1.5"/>
	<rect x="4.5" y="4.497" fill="#414042" width="1.5" height="1.5"/>
	<rect x="6" y="4.497" fill="#231F20" width="1.5" height="1.5"/>
	<rect x="7.5" y="4.497" fill="#EADAB2" width="1.5" height="1.5"/>
	<rect x="9" y="4.497" fill="#E8CD8D" width="1.5" height="1.5"/>
	<rect x="10.5" y="4.497" fill="#E8CD8D" width="1.5" height="1.5"/>
	<rect x="3" y="5.997" fill="#EADAB2" width="1.5" height="1.5"/>
	<rect x="4.5" y="5.997" fill="#E8CD8D" width="1.5" height="1.5"/>
	<rect x="6" y="5.997" fill="#E8CD8D" width="1.5" height="1.5"/>
	<rect x="7.5" y="5.997" fill="#E8CD8D" width="1.5" height="1.5"/>
	<rect x="9" y="5.997" fill="#E8CD8D" width="1.5" height="1.5"/>
	<rect x="10.5" y="5.997" fill="#E8CD8D" width="1.5" height="1.5"/>
	<rect x="3" y="7.497" fill="#231F20" width="1.5" height="1.5"/>
	<rect x="4.5" y="7.497" fill="#231F20" width="1.5" height="1.5"/>
	<rect x="3" y="8.991" fill="#939598" width="1.5" height="1.5"/>
	<rect x="4.5" y="8.991" fill="#603913" width="1.5" height="1.5"/>
	<rect x="3" y="10.488" fill="#D1D3D4" width="1.5" height="1.5"/>
	<rect x="4.5" y="10.488" fill="#939598" width="1.5" height="1.5"/>
	<rect x="3" y="11.991" fill="#E8CD8D" width="1.5" height="1.5"/>
	<rect x="4.5" y="11.991" fill="#E8CD8D" width="1.5" height="1.5"/>
	<rect x="3" y="13.488" fill="#C2B59B" width="1.5" height="1.5"/>
	<rect x="4.5" y="13.488" fill="#C2B59B" width="1.5" height="1.5"/>
	<rect x="7.5" y="13.488" fill="#C2B59B" width="1.5" height="1.5"/>
	<rect x="6" y="13.488" fill="#C2B59B" width="1.5" height="1.5"/>
	<rect x="9" y="13.488" fill="#C2B59B" width="1.5" height="1.5"/>
	<rect x="12" y="13.488" fill="#C2B59B" width="1.5" height="1.5"/>
	<rect x="10.5" y="13.488" fill="#C2B59B" width="1.5" height="1.5"/>
	<rect x="7.5" y="14.985" fill="#FFFFFF" width="1.5" height="1.5"/>
	<rect x="6" y="14.985" fill="#FFFFFF" width="1.5" height="1.5"/>
	<rect x="9" y="14.985" fill="#FFFFFF" width="1.5" height="1.5"/>
	<rect x="10.5" y="14.985" fill="#BE1E2D" width="1.5" height="1.5"/>
	<rect x="7.5" y="16.482" fill="#BE1E2D" width="1.5" height="1.5"/>
	<rect x="6" y="16.482" fill="#BE1E2D" width="1.5" height="1.5"/>
	<rect x="9" y="16.482" fill="#BE1E2D" width="1.5" height="1.5"/>
	<rect x="10.5" y="16.482" fill="#C2B59B" width="1.5" height="1.5"/>
	<rect x="7.5" y="17.982" fill="#C2B59B" width="1.5" height="1.5"/>
	<rect x="6" y="17.982" fill="#C2B59B" width="1.5" height="1.5"/>
	<rect x="9" y="17.982" fill="#C2B59B" width="1.5" height="1.5"/>
	<rect x="10.5" y="17.982" fill="#E8CD8D" width="1.5" height="1.5"/>
	<rect x="12" y="17.982" fill="#E8CD8D" width="1.5" height="1.5"/>
	<rect x="13.5" y="17.982" fill="#EADAB2" width="1.5" height="1.5"/>
	<rect x="13.5" y="13.488" fill="#E8CD8D" width="1.5" height="1.5"/>
	<rect x="12" y="11.991" fill="#58595B" width="1.5" height="1.5"/>
	<rect x="13.5" y="11.991" fill="#E8CD8D" width="1.5" height="1.5"/>
	<rect x="12" y="16.482" fill="#E8CD8D" width="1.5" height="1.5"/>
	<rect x="13.5" y="16.482" fill="#E8CD8D" width="1.5" height="1.5"/>
	<rect x="12" y="14.985" fill="#C2B59B" width="1.5" height="1.5"/>
	<rect x="13.5" y="14.985" fill="#E8CD8D" width="1.5" height="1.5"/>
	<rect x="12" y="10.488" fill="#231F20" width="1.5" height="1.5"/>
	<rect x="13.5" y="10.488" fill="#E8CD8D" width="1.5" height="1.5"/>
	<rect x="12" y="8.991" fill="#E8CD8D" width="1.5" height="1.5"/>
	<rect x="13.5" y="8.991" fill="#EADAB2" width="1.5" height="1.5"/>
	<rect x="15" y="10.488" fill="#E8CD8D" width="1.5" height="1.5"/>
	<rect x="15" y="8.991" fill="#E8CD8D" width="1.5" height="1.5"/>
	<rect x="6" y="7.497" fill="#231F20" width="1.5" height="1.5"/>
	<rect x="7.5" y="7.497" fill="#231F20" width="1.5" height="1.5"/>
	<rect x="9" y="7.497" fill="#231F20" width="1.5" height="1.5"/>
	<rect x="10.5" y="7.497" fill="#231F20" width="1.5" height="1.5"/>
	<rect x="6" y="8.991" fill="#FFFFFF" width="1.5" height="1.5"/>
	<rect x="7.5" y="8.991" fill="#D1D3D4" width="1.5" height="1.5"/>
	<rect x="9" y="8.991" fill="#E8CD8D" width="1.5" height="1.5"/>
	<rect x="10.5" y="8.991" fill="#58595B" width="1.5" height="1.5"/>
	<rect x="6" y="10.488" fill="#939598" width="1.5" height="1.5"/>
	<rect x="7.5" y="10.488" fill="#E8CD8D" width="1.5" height="1.5"/>
	<rect x="9" y="10.488" fill="#E8CD8D" width="1.5" height="1.5"/>
	<rect x="10.5" y="10.488" fill="#231F20" width="1.5" height="1.5"/>
	<rect x="6" y="11.988" fill="#E8CD8D" width="1.5" height="1.5"/>
	<rect x="7.5" y="11.988" fill="#E8CD8D" width="1.5" height="1.5"/>
	<rect x="9" y="11.988" fill="#E8CD8D" width="1.5" height="1.5"/>
	<rect x="10.5" y="11.988" fill="#E8CD8D" width="1.5" height="1.5"/>
	<rect x="12" y="4.497" fill="#231F20" width="1.5" height="1.5"/>
	<rect x="13.5" y="4.497" fill="#231F20" width="1.5" height="1.5"/>
	<rect x="3" y="3" fill="#231F20" width="1.5" height="1.5"/>
	<rect x="1.5" y="1.5" fill="#231F20" width="1.5" height="1.5"/>
	<rect x="1.5" y="4.497" fill="#231F20" width="1.5" height="1.5"/>
	<rect x="1.5" y="3" fill="#414042" width="1.5" height="1.5"/>
	<rect x="4.5" y="3" fill="#231F20" width="1.5" height="1.5"/>
	<rect x="6" y="3" fill="#231F20" width="1.5" height="1.5"/>
	<rect x="7.5" y="3" fill="#414042" width="1.5" height="1.5"/>
	<rect x="9" y="3" fill="#231F20" width="1.5" height="1.5"/>
	<rect x="10.5" y="3" fill="#E8CD8D" width="1.5" height="1.5"/>
	<rect x="12" y="3" fill="#231F20" width="1.5" height="1.5"/>
	<rect x="12" y="1.5" fill="#231F20" width="1.5" height="1.5"/>
	<rect x="13.5" y="3" fill="#231F20" width="1.5" height="1.5"/>
	<rect x="13.5" y="1.5" fill="#231F20" width="1.5" height="1.5"/>
	<rect x="6" fill="#231F20" width="1.5" height="1.5"/>
	<rect x="7.5" fill="#231F20" width="1.5" height="1.5"/>
	<rect x="9" fill="#231F20" width="1.5" height="1.5"/>
	<rect x="10.5" fill="#231F20" width="1.5" height="1.5"/>
	<rect x="12" fill="#58595B" width="1.5" height="1.5"/>
	<rect x="12" y="5.997" fill="#231F20" width="1.5" height="1.5"/>
	<rect x="10.5" y="5.997" fill="#58595B" width="1.5" height="1.5"/>
	<rect x="12" y="8.991" fill="#231F20" width="1.5" height="1.5"/>
	<rect x="13.5" y="5.997" fill="#231F20" width="1.5" height="1.5"/>
	<rect x="12" y="7.497" fill="#231F20" width="1.5" height="1.5"/>
	<rect x="13.5" y="7.497" fill="#231F20" width="1.5" height="1.5"/>
	<rect x="15" y="4.497" fill="#58595B" width="1.5" height="1.5"/>
	<rect x="15" y="5.997" fill="#231F20" width="1.5" height="1.5"/>
	<rect x="15" y="7.497" fill="#231F20" width="1.5" height="1.5"/>
	<rect x="1.5" y="10.484" fill="#E8CD8D" width="1.5" height="1.5"/>
	<rect y="10.484" fill="#E8CD8D" width="1.5" height="1.5"/>
	<rect x="1.5" y="8.984" fill="#E8CD8D" width="1.5" height="1.5"/>
	<rect x="8.903" y="19.478" fill="#E8CD8D" width="1.5" height="1.5"/>
	<rect x="10.403" y="19.478" fill="#C2B59B" width="1.5" height="1.5"/>
	<rect x="11.903" y="19.478" fill="#E8CD8D" width="1.5" height="1.5"/>
	<rect x="8.903" y="20.981" fill="#E8CD8D" width="1.5" height="1.5"/>
	<rect x="10.403" y="20.981" fill="#E8CD8D" width="1.5" height="1.5"/>
	<rect x="14.903" y="19.481" fill="#6C8394" width="1.5" height="1.5"/>
	<rect x="14.903" y="17.981" fill="#6C8394" width="1.5" height="1.5"/>
	<rect x="16.403" y="19.481" fill="#8AA7BC" width="1.5" height="1.5"/>
	<rect x="16.403" y="17.981" fill="#6C8394" width="1.5" height="1.5"/>
	<rect x="17.903" y="17.981" fill="#8AA7BC" width="1.5" height="1.5"/>
	<rect x="13.403" y="20.981" fill="#6C8394" width="1.5" height="1.5"/>
	<rect x="13.403" y="19.481" fill="#E8CD8D" width="1.5" height="1.5"/>
	<rect x="11.903" y="20.981" fill="#E8CD8D" width="1.5" height="1.5"/>
	<rect x="7.403" y="20.981" fill="#6C8394" width="1.5" height="1.5"/>
	<rect x="5.903" y="20.981" fill="#8AA7BC" width="1.5" height="1.5"/>
	<rect x="5.903" y="19.481" fill="#6C8394" width="1.5" height="1.5"/>
	<rect x="7.403" y="19.481" fill="#6C8394" width="1.5" height="1.5"/>
	<rect x="4.403" y="19.481" fill="#8AA7BC" width="1.5" height="1.5"/>
	<rect x="14.903" y="20.981" fill="#8AA7BC" width="1.5" height="1.5"/>
	<rect x="16.403" y="20.981" fill="#8AA7BC" width="1.5" height="1.5"/>
	<rect x="17.903" y="20.981" fill="#8AA7BC" width="1.5" height="1.5"/>
	<rect x="8.903" y="23.981" fill="#8AA7BC" width="1.5" height="1.5"/>
	<rect x="10.403" y="23.981" fill="#6C8394" width="1.5" height="1.5"/>
	<rect x="13.403" y="23.981" fill="#8AA7BC" width="1.5" height="1.5"/>
	<rect x="11.903" y="23.981" fill="#8AA7BC" width="1.5" height="1.5"/>
	<rect x="7.403" y="23.981" fill="#8AA7BC" width="1.5" height="1.5"/>
	<rect x="7.403" y="25.481" fill="#8AA7BC" width="1.5" height="1.5"/>
	<rect x="5.903" y="23.981" fill="#8AA7BC" width="1.5" height="1.5"/>
	<rect x="4.403" y="23.981" fill="#8AA7BC" width="1.5" height="1.5"/>
	<rect x="14.903" y="23.981" fill="#8AA7BC" width="1.5" height="1.5"/>
	<rect x="16.403" y="23.981" fill="#8AA7BC" width="1.5" height="1.5"/>
	<rect x="17.903" y="23.981" fill="#8AA7BC" width="1.5" height="1.5"/>
	<rect x="19.403" y="23.981" fill="#8AA7BC" width="1.5" height="1.5"/>
	<rect x="8.903" y="26.981" fill="#8AA7BC" width="1.5" height="1.5"/>
	<rect x="10.403" y="26.981" fill="#6C8394" width="1.5" height="1.5"/>
	<rect x="13.403" y="26.981" fill="#8AA7BC" width="1.5" height="1.5"/>
	<rect x="11.903" y="26.981" fill="#8AA7BC" width="1.5" height="1.5"/>
	<rect x="7.403" y="26.981" fill="#8AA7BC" width="1.5" height="1.5"/>
	<rect x="5.903" y="26.981" fill="#6C8394" width="1.5" height="1.5"/>
	<rect x="4.403" y="26.981" fill="#8AA7BC" width="1.5" height="1.5"/>
	<rect x="14.903" y="26.981" fill="#6C8394" width="1.5" height="1.5"/>
	<rect x="16.403" y="26.981" fill="#8AA7BC" width="1.5" height="1.5"/>
	<rect x="17.903" y="26.981" fill="#8AA7BC" width="1.5" height="1.5"/>
	<rect x="19.403" y="26.981" fill="#6C8394" width="1.5" height="1.5"/>
	<rect x="8.903" y="22.481" fill="#6C8394" width="1.5" height="1.5"/>
	<rect x="10.403" y="22.481" fill="#E8CD8D" width="1.5" height="1.5"/>
	<rect x="13.403" y="22.481" fill="#8AA7BC" width="1.5" height="1.5"/>
	<rect x="11.903" y="22.481" fill="#6C8394" width="1.5" height="1.5"/>
	<rect x="7.403" y="22.481" fill="#8AA7BC" width="1.5" height="1.5"/>
	<rect x="5.903" y="22.481" fill="#8AA7BC" width="1.5" height="1.5"/>
	<rect x="4.403" y="22.481" fill="#8AA7BC" width="1.5" height="1.5"/>
	<rect x="14.903" y="22.481" fill="#8AA7BC" width="1.5" height="1.5"/>
	<rect x="16.403" y="22.481" fill="#8AA7BC" width="1.5" height="1.5"/>
	<rect x="17.903" y="22.481" fill="#8AA7BC" width="1.5" height="1.5"/>
	<rect x="19.403" y="22.481" fill="#8AA7BC" width="1.5" height="1.5"/>
	<rect x="8.903" y="25.481" fill="#8AA7BC" width="1.5" height="1.5"/>
	<rect x="10.403" y="25.481" fill="#6C8394" width="1.5" height="1.5"/>
	<rect x="13.403" y="25.481" fill="#8AA7BC" width="1.5" height="1.5"/>
	<rect x="11.903" y="25.481" fill="#8AA7BC" width="1.5" height="1.5"/>
	<rect x="7.403" y="25.481" fill="#8AA7BC" width="1.5" height="1.5"/>
	<rect x="5.903" y="25.481" fill="#6C8394" width="1.5" height="1.5"/>
	<rect x="4.403" y="25.481" fill="#8AA7BC" width="1.5" height="1.5"/>
	<rect x="2.903" y="23.981" fill="#8AA7BC" width="1.5" height="1.5"/>
	<rect x="2.903" y="26.981" fill="#6C8394" width="1.5" height="1.5"/>
	<rect x="2.903" y="25.481" fill="#6C8394" width="1.5" height="1.5"/>
	<rect x="14.903" y="25.481" fill="#6C8394" width="1.5" height="1.5"/>
	<rect x="16.403" y="25.481" fill="#8AA7BC" width="1.5" height="1.5"/>
	<rect x="17.903" y="25.481" fill="#8AA7BC" width="1.5" height="1.5"/>
	<rect x="19.403" y="25.481" fill="#6C8394" width="1.5" height="1.5"/>
</g>
</svg>
