<?xml version="1.0" encoding="utf-8"?>
<!-- Generator: Adobe Illustrator 15.0.2, SVG Export Plug-In . SVG Version: 6.00 Build 0)  -->
<!DOCTYPE svg PUBLIC "-//W3C//DTD SVG 1.1//EN" "http://www.w3.org/Graphics/SVG/1.1/DTD/svg11.dtd">
<svg version="1.1" id="Layer_1" xmlns="http://www.w3.org/2000/svg" xmlns:xlink="http://www.w3.org/1999/xlink" x="0px" y="0px"
	 width="20.904px" height="31.478px" viewBox="0 0 20.904 31.478" enable-background="new 0 0 20.904 31.478" xml:space="preserve">
<g>
	<rect x="3" y="1.502" fill="#231F20" width="1.5" height="1.5"/>
	<rect x="3" y="3.002" fill="#414042" width="1.5" height="1.5"/>
	<rect x="1.5" y="1.502" fill="#231F20" width="1.5" height="1.5"/>
	<rect x="1.5" y="3.002" fill="#414042" width="1.5" height="1.5"/>
	<rect x="4.5" y="3.002" fill="#231F20" width="1.5" height="1.5"/>
	<rect x="4.5" y="1.501" fill="#231F20" width="1.5" height="1.5"/>
	<rect x="6" y="3.002" fill="#58595B" width="1.5" height="1.5"/>
	<rect x="7.5" y="3.002" fill="#231F20" width="1.5" height="1.5"/>
	<rect x="9" y="3.002" fill="#231F20" width="1.5" height="1.5"/>
	<rect x="10.5" y="3.002" fill="#231F20" width="1.5" height="1.5"/>
	<rect x="3" y="5.998" fill="#EADAB2" width="1.5" height="1.5"/>
	<rect x="4.5" y="5.998" fill="#EADAB2" width="1.5" height="1.5"/>
	<rect x="6" y="5.998" fill="#EADAB2" width="1.5" height="1.5"/>
	<rect x="7.5" y="5.998" fill="#EADAB2" width="1.5" height="1.5"/>
	<rect x="9" y="5.998" fill="#E8CD8D" width="1.5" height="1.5"/>
	<rect x="10.5" y="5.998" fill="#58595B" width="1.5" height="1.5"/>
	<rect x="3" y="7.498" fill="#594A42" width="1.5" height="1.5"/>
	<rect x="4.5" y="7.498" fill="#231F20" width="1.5" height="1.5"/>
	<rect x="6" y="7.498" fill="#231F20" width="1.5" height="1.5"/>
	<rect x="7.5" y="7.498" fill="#E8CD8D" width="1.5" height="1.5"/>
	<rect x="9" y="7.498" fill="#E8CD8D" width="1.5" height="1.5"/>
	<rect x="10.5" y="7.498" fill="#E8CD8D" width="1.5" height="1.5"/>
	<rect x="3" y="8.998" fill="#E8CD8D" width="1.5" height="1.5"/>
	<rect x="4.5" y="8.998" fill="#E8CD8D" width="1.5" height="1.5"/>
	<rect x="3" y="10.492" fill="#D0C0A8" width="1.5" height="1.5"/>
	<rect x="4.5" y="10.492" fill="#603913" width="1.5" height="1.5"/>
	<rect x="3" y="11.99" fill="#D0C0A8" width="1.5" height="1.5"/>
	<rect x="4.5" y="11.99" fill="#E8CD8D" width="1.5" height="1.5"/>
	<rect x="3" y="13.492" fill="#EADAB2" width="1.5" height="1.5"/>
	<rect x="4.5" y="13.492" fill="#E8CD8D" width="1.5" height="1.5"/>
	<rect x="3" y="14.99" fill="#CDC09D" width="1.5" height="1.5"/>
	<rect x="4.5" y="14.99" fill="#CDC09D" width="1.5" height="1.5"/>
	<rect x="7.5" y="14.99" fill="#CDC09D" width="1.5" height="1.5"/>
	<rect x="6" y="14.99" fill="#CDC09D" width="1.5" height="1.5"/>
	<rect x="9" y="14.99" fill="#CDC09D" width="1.5" height="1.5"/>
	<rect x="12" y="14.99" fill="#E8CD8D" width="1.5" height="1.5"/>
	<rect x="10.5" y="14.99" fill="#EADAB2" width="1.5" height="1.5"/>
	<rect x="7.5" y="16.486" fill="#FFFFFF" width="1.5" height="1.5"/>
	<rect x="6" y="16.486" fill="#FFFFFF" width="1.5" height="1.5"/>
	<rect x="9" y="16.486" fill="#FFFFFF" width="1.5" height="1.5"/>
	<rect x="10.5" y="16.486" fill="#BE1E2D" width="1.5" height="1.5"/>
	<rect x="7.5" y="17.984" fill="#BE1E2D" width="1.5" height="1.5"/>
	<rect x="6" y="17.984" fill="#BE1E2D" width="1.5" height="1.5"/>
	<rect x="9" y="17.984" fill="#BE1E2D" width="1.5" height="1.5"/>
	<rect x="10.5" y="17.984" fill="#CDC09D" width="1.5" height="1.5"/>
	<rect x="7.5" y="19.484" fill="#CDC09D" width="1.5" height="1.5"/>
	<rect x="6" y="19.484" fill="#B5AA8C" width="1.5" height="1.5"/>
	<rect x="9" y="19.484" fill="#CDC09D" width="1.5" height="1.5"/>
	<rect x="10.5" y="19.484" fill="#CDC09D" width="1.5" height="1.5"/>
	<rect x="12" y="19.484" fill="#E8CD8D" width="1.5" height="1.5"/>
	<rect x="9" y="20.978" fill="#EADAB2" width="1.5" height="1.5"/>
	<rect x="10.5" y="20.978" fill="#E8CD8D" width="1.5" height="1.5"/>
	<rect x="12" y="20.978" fill="#E8CD8D" width="1.5" height="1.5"/>
	<rect x="13.5" y="19.484" fill="#EADAB2" width="1.5" height="1.5"/>
	<rect x="13.5" y="20.978" fill="#EADAB2" width="1.5" height="1.5"/>
	<rect x="13.5" y="14.99" fill="#CDC09D" width="1.5" height="1.5"/>
	<rect x="12" y="13.492" fill="#E8CD8D" width="1.5" height="1.5"/>
	<rect x="13.5" y="13.492" fill="#E8CD8D" width="1.5" height="1.5"/>
	<rect x="12" y="17.984" fill="#E8CD8D" width="1.5" height="1.5"/>
	<rect x="13.5" y="17.984" fill="#CDC09D" width="1.5" height="1.5"/>
	<rect x="12" y="16.486" fill="#E8CD8D" width="1.5" height="1.5"/>
	<rect x="13.5" y="16.486" fill="#CDC09D" width="1.5" height="1.5"/>
	<rect x="12" y="11.99" fill="#231F20" width="1.5" height="1.5"/>
	<rect x="13.5" y="11.99" fill="#E8CD8D" width="1.5" height="1.5"/>
	<rect x="12" y="10.492" fill="#E8CD8D" width="1.5" height="1.5"/>
	<rect x="13.5" y="10.492" fill="#B5AA8C" width="1.5" height="1.5"/>
	<rect x="15" y="11.99" fill="#E8CD8D" width="1.5" height="1.5"/>
	<rect x="15" y="10.492" fill="#E8CD8D" width="1.5" height="1.5"/>
	<rect x="6" y="8.998" fill="#E8CD8D" width="1.5" height="1.5"/>
	<rect x="7.5" y="8.998" fill="#231F20" width="1.5" height="1.5"/>
	<rect x="9" y="8.998" fill="#E8CD8D" width="1.5" height="1.5"/>
	<rect x="10.5" y="8.998" fill="#231F20" width="1.5" height="1.5"/>
	<rect x="6" y="10.492" fill="#FFFFFF" width="1.5" height="1.5"/>
	<rect x="7.5" y="10.492" fill="#E8CD8D" width="1.5" height="1.5"/>
	<rect x="9" y="10.492" fill="#E8CD8D" width="1.5" height="1.5"/>
	<rect x="10.5" y="10.492" fill="#E8CD8D" width="1.5" height="1.5"/>
	<rect x="6" y="11.99" fill="#E8CD8D" width="1.5" height="1.5"/>
	<rect x="7.5" y="11.99" fill="#E8CD8D" width="1.5" height="1.5"/>
	<rect x="9" y="11.99" fill="#E8CD8D" width="1.5" height="1.5"/>
	<rect x="10.5" y="11.99" fill="#E8CD8D" width="1.5" height="1.5"/>
	<rect x="6" y="13.49" fill="#E8CD8D" width="1.5" height="1.5"/>
	<rect x="7.5" y="13.49" fill="#EADAB2" width="1.5" height="1.5"/>
	<rect x="9" y="13.49" fill="#EADAB2" width="1.5" height="1.5"/>
	<rect x="10.5" y="13.49" fill="#E8CD8D" width="1.5" height="1.5"/>
	<rect x="12" y="5.998" fill="#231F20" width="1.5" height="1.5"/>
	<rect x="13.5" y="5.998" fill="#231F20" width="1.5" height="1.5"/>
	<rect x="3" y="4.502" fill="#EADAB2" width="1.5" height="1.5"/>
	<rect x="3" y="0.001" fill="#231F20" width="1.5" height="1.5"/>
	<rect x="4.5" fill="#231F20" width="1.5" height="1.5"/>
	<rect x="6" fill="#231F20" width="1.5" height="1.5"/>
	<rect x="4.5" y="4.502" fill="#EADAB2" width="1.5" height="1.5"/>
	<rect x="6" y="4.502" fill="#EADAB2" width="1.5" height="1.5"/>
	<rect x="7.5" y="4.502" fill="#EADAB2" width="1.5" height="1.5"/>
	<rect x="9" y="4.502" fill="#EADAB2" width="1.5" height="1.5"/>
	<rect x="10.5" y="4.502" fill="#E8CD8D" width="1.5" height="1.5"/>
	<rect x="12" y="4.502" fill="#231F20" width="1.5" height="1.5"/>
	<rect x="12" y="3.002" fill="#231F20" width="1.5" height="1.5"/>
	<rect x="13.5" y="4.502" fill="#231F20" width="1.5" height="1.5"/>
	<rect x="13.5" y="3.002" fill="#231F20" width="1.5" height="1.5"/>
	<rect x="13.5" y="1.501" fill="#231F20" width="1.5" height="1.5"/>
	<rect x="14.904" y="4.502" fill="#231F20" width="1.5" height="1.5"/>
	<rect x="14.904" y="3.002" fill="#231F20" width="1.5" height="1.5"/>
	<rect x="6" y="1.502" fill="#231F20" width="1.5" height="1.5"/>
	<rect x="7.5" y="1.502" fill="#231F20" width="1.5" height="1.5"/>
	<rect x="9" y="1.502" fill="#231F20" width="1.5" height="1.5"/>
	<rect x="10.5" y="1.502" fill="#231F20" width="1.5" height="1.5"/>
	<rect x="12" y="1.502" fill="#58595B" width="1.5" height="1.5"/>
	<rect x="12" y="7.498" fill="#231F20" width="1.5" height="1.5"/>
	<rect x="10.5" y="7.498" fill="#58595B" width="1.5" height="1.5"/>
	<rect x="12" y="10.492" fill="#231F20" width="1.5" height="1.5"/>
	<rect x="13.5" y="7.498" fill="#231F20" width="1.5" height="1.5"/>
	<rect x="12" y="8.998" fill="#231F20" width="1.5" height="1.5"/>
	<rect x="13.5" y="8.998" fill="#EADAB2" width="1.5" height="1.5"/>
	<rect x="15" y="5.998" fill="#58595B" width="1.5" height="1.5"/>
	<rect x="15" y="7.498" fill="#231F20" width="1.5" height="1.5"/>
	<rect x="15" y="8.998" fill="#EADAB2" width="1.5" height="1.5"/>
	<rect x="1.5" y="13.485" fill="#E8CD8D" width="1.5" height="1.5"/>
	<rect y="13.485" fill="#E8CD8D" width="1.5" height="1.5"/>
	<rect x="1.5" y="11.985" fill="#E8CD8D" width="1.5" height="1.5"/>
	<rect x="1.5" y="10.492" fill="#E8CD8D" width="1.5" height="1.5"/>
	<rect x="8.904" y="22.475" fill="#E8CD8D" width="1.5" height="1.5"/>
	<rect x="10.404" y="22.475" fill="#EADAB2" width="1.5" height="1.5"/>
	<rect x="11.904" y="22.475" fill="#E8CD8D" width="1.5" height="1.5"/>
	<rect x="8.904" y="23.978" fill="#E8CD8D" width="1.5" height="1.5"/>
	<rect x="10.404" y="23.978" fill="#E8CD8D" width="1.5" height="1.5"/>
	<rect x="14.904" y="22.478" fill="#CEDEE6" width="1.5" height="1.5"/>
	<rect x="14.904" y="20.978" fill="#CEDEE6" width="1.5" height="1.5"/>
	<rect x="16.404" y="22.478" fill="#8AA7BC" width="1.5" height="1.5"/>
	<rect x="16.404" y="20.978" fill="#CEDEE6" width="1.5" height="1.5"/>
	<rect x="17.904" y="20.978" fill="#B6C8D8" width="1.5" height="1.5"/>
	<rect x="13.404" y="23.978" fill="#CEDEE6" width="1.5" height="1.5"/>
	<rect x="13.404" y="22.478" fill="#E8CD8D" width="1.5" height="1.5"/>
	<rect x="11.904" y="23.978" fill="#E8CD8D" width="1.5" height="1.5"/>
	<rect x="7.404" y="23.978" fill="#CEDEE6" width="1.5" height="1.5"/>
	<rect x="5.904" y="23.978" fill="#8AA7BC" width="1.5" height="1.5"/>
	<rect x="5.904" y="22.478" fill="#CEDEE6" width="1.5" height="1.5"/>
	<rect x="7.404" y="22.478" fill="#CEDEE6" width="1.5" height="1.5"/>
	<rect x="4.404" y="22.478" fill="#B6C8D8" width="1.5" height="1.5"/>
	<rect x="14.904" y="23.978" fill="#8AA7BC" width="1.5" height="1.5"/>
	<rect x="16.404" y="23.978" fill="#B6C8D8" width="1.5" height="1.5"/>
	<rect x="17.904" y="23.978" fill="#B6C8D8" width="1.5" height="1.5"/>
	<rect x="8.904" y="26.978" fill="#FFFFFF" width="1.5" height="1.5"/>
	<rect x="10.404" y="26.978" fill="#FFFFFF" width="1.5" height="1.5"/>
	<rect x="13.404" y="26.978" fill="#CEDEE6" width="1.5" height="1.5"/>
	<rect x="11.904" y="26.978" fill="#FFFFFF" width="1.5" height="1.5"/>
	<rect x="7.404" y="26.978" fill="#CEDEE6" width="1.5" height="1.5"/>
	<rect x="7.404" y="28.478" fill="#B6C8D8" width="1.5" height="1.5"/>
	<rect x="5.904" y="26.978" fill="#8AA7BC" width="1.5" height="1.5"/>
	<rect x="4.404" y="26.978" fill="#B6C8D8" width="1.5" height="1.5"/>
	<rect x="14.904" y="26.978" fill="#8AA7BC" width="1.5" height="1.5"/>
	<rect x="16.404" y="26.978" fill="#B6C8D8" width="1.5" height="1.5"/>
	<rect x="17.904" y="26.978" fill="#B6C8D8" width="1.5" height="1.5"/>
	<rect x="19.404" y="26.978" fill="#B6C8D8" width="1.5" height="1.5"/>
	<rect x="8.904" y="29.978" fill="#B6C8D8" width="1.5" height="1.5"/>
	<rect x="10.404" y="29.978" fill="#CEDEE6" width="1.5" height="1.5"/>
	<rect x="13.404" y="29.978" fill="#B6C8D8" width="1.5" height="1.5"/>
	<rect x="11.904" y="29.978" fill="#B6C8D8" width="1.5" height="1.5"/>
	<rect x="7.404" y="29.978" fill="#B6C8D8" width="1.5" height="1.5"/>
	<rect x="5.904" y="29.978" fill="#B6C8D8" width="1.5" height="1.5"/>
	<rect x="4.404" y="29.978" fill="#B6C8D8" width="1.5" height="1.5"/>
	<rect x="14.904" y="29.978" fill="#B6C8D8" width="1.5" height="1.5"/>
	<rect x="16.404" y="29.978" fill="#B6C8D8" width="1.5" height="1.5"/>
	<rect x="17.904" y="29.978" fill="#B6C8D8" width="1.5" height="1.5"/>
	<rect x="19.404" y="29.978" fill="#B6C8D8" width="1.5" height="1.5"/>
	<rect x="8.904" y="25.478" fill="#FFFFFF" width="1.5" height="1.5"/>
	<rect x="10.404" y="25.478" fill="#E8CD8D" width="1.5" height="1.5"/>
	<rect x="13.404" y="25.478" fill="#CEDEE6" width="1.5" height="1.5"/>
	<rect x="11.904" y="25.478" fill="#FFFFFF" width="1.5" height="1.5"/>
	<rect x="7.404" y="25.478" fill="#CEDEE6" width="1.5" height="1.5"/>
	<rect x="5.904" y="25.478" fill="#8AA7BC" width="1.5" height="1.5"/>
	<rect x="4.404" y="25.478" fill="#B6C8D8" width="1.5" height="1.5"/>
	<rect x="14.904" y="25.478" fill="#8AA7BC" width="1.5" height="1.5"/>
	<rect x="16.404" y="25.478" fill="#B6C8D8" width="1.5" height="1.5"/>
	<rect x="17.904" y="25.478" fill="#B6C8D8" width="1.5" height="1.5"/>
	<rect x="19.404" y="25.478" fill="#B6C8D8" width="1.5" height="1.5"/>
	<rect x="8.904" y="28.478" fill="#CEDEE6" width="1.5" height="1.5"/>
	<rect x="10.404" y="28.478" fill="#CEDEE6" width="1.5" height="1.5"/>
	<rect x="13.404" y="28.478" fill="#8AA7BC" width="1.5" height="1.5"/>
	<rect x="11.904" y="28.478" fill="#CEDEE6" width="1.5" height="1.5"/>
	<rect x="7.404" y="28.478" fill="#8AA7BC" width="1.5" height="1.5"/>
	<rect x="5.904" y="28.478" fill="#B6C8D8" width="1.5" height="1.5"/>
	<rect x="4.404" y="28.478" fill="#B6C8D8" width="1.5" height="1.5"/>
	<rect x="2.904" y="26.978" fill="#B6C8D8" width="1.5" height="1.5"/>
	<rect x="2.904" y="29.978" fill="#B6C8D8" width="1.5" height="1.5"/>
	<rect x="2.904" y="28.478" fill="#B6C8D8" width="1.5" height="1.5"/>
	<rect x="14.904" y="28.478" fill="#B6C8D8" width="1.5" height="1.5"/>
	<rect x="16.404" y="28.478" fill="#B6C8D8" width="1.5" height="1.5"/>
	<rect x="17.904" y="28.478" fill="#B6C8D8" width="1.5" height="1.5"/>
	<rect x="19.404" y="28.478" fill="#B6C8D8" width="1.5" height="1.5"/>
</g>
</svg>
