<?xml version="1.0" encoding="utf-8"?>
<!-- Generator: Adobe Illustrator 15.0.2, SVG Export Plug-In . SVG Version: 6.00 Build 0)  -->
<!DOCTYPE svg PUBLIC "-//W3C//DTD SVG 1.1//EN" "http://www.w3.org/Graphics/SVG/1.1/DTD/svg11.dtd">
<svg version="1.1" id="Layer_1" xmlns="http://www.w3.org/2000/svg" xmlns:xlink="http://www.w3.org/1999/xlink" x="0px" y="0px"
	 width="18px" height="26.982px" viewBox="0 0 18 26.982" enable-background="new 0 0 18 26.982" xml:space="preserve">
<g>
	<rect x="3" fill="#EADAB2" width="1.5" height="1.5"/>
	<rect x="4.5" fill="#EADAB2" width="1.5" height="1.5"/>
	<rect x="6" fill="#EADAB2" width="1.5" height="1.5"/>
	<rect x="7.5" fill="#E8CD8D" width="1.5" height="1.5"/>
	<rect x="1.5" y="2.997" fill="#E8CD8D" width="1.5" height="1.5"/>
	<rect x="3" y="2.997" fill="#E8CD8D" width="1.5" height="1.5"/>
	<rect x="4.5" y="2.997" fill="#E8CD8D" width="1.5" height="1.5"/>
	<rect x="6" y="2.997" fill="#E8CD8D" width="1.5" height="1.5"/>
	<rect x="7.5" y="2.997" fill="#E8CD8D" width="1.5" height="1.5"/>
	<rect x="9" y="2.997" fill="#E8CD8D" width="1.5" height="1.5"/>
	<rect x="1.5" y="4.497" fill="#E8CD8D" width="1.5" height="1.5"/>
	<rect x="3" y="4.497" fill="#E8CD8D" width="1.5" height="1.5"/>
	<rect x="4.5" y="4.497" fill="#E8CD8D" width="1.5" height="1.5"/>
	<rect x="6" y="4.497" fill="#E8CD8D" width="1.5" height="1.5"/>
	<rect x="7.5" y="4.497" fill="#E8CD8D" width="1.5" height="1.5"/>
	<rect x="9" y="4.497" fill="#E8CD8D" width="1.5" height="1.5"/>
	<rect x="1.5" y="5.997" fill="#E8CD8D" width="1.5" height="1.5"/>
	<rect x="3" y="5.997" fill="#E8CD8D" width="1.5" height="1.5"/>
	<rect x="1.5" y="7.491" fill="#E8CD8D" width="1.5" height="1.5"/>
	<rect x="3" y="7.491" fill="#E8CD8D" width="1.5" height="1.5"/>
	<rect x="1.5" y="8.988" fill="#E8CD8D" width="1.5" height="1.5"/>
	<rect x="3" y="8.988" fill="#E8CD8D" width="1.5" height="1.5"/>
	<rect x="1.5" y="10.491" fill="#E8CD8D" width="1.5" height="1.5"/>
	<rect x="3" y="10.491" fill="#E8CD8D" width="1.5" height="1.5"/>
	<rect x="1.5" y="11.988" fill="#B5AA8C" width="1.5" height="1.5"/>
	<rect y="9.363" fill="#E8CD8D" width="1.5" height="1.5"/>
	<rect x="3" y="11.988" fill="#B5AA8C" width="1.5" height="1.5"/>
	<rect x="6" y="11.988" fill="#CDC09D" width="1.5" height="1.5"/>
	<rect x="4.5" y="11.988" fill="#CDC09D" width="1.5" height="1.5"/>
	<rect x="7.5" y="11.988" fill="#CDC09D" width="1.5" height="1.5"/>
	<rect x="10.5" y="11.988" fill="#CDC09D" width="1.5" height="1.5"/>
	<rect x="9" y="11.988" fill="#CDC09D" width="1.5" height="1.5"/>
	<rect x="6" y="13.485" fill="#FFFFFF" width="1.5" height="1.5"/>
	<rect x="4.5" y="13.485" fill="#FFFFFF" width="1.5" height="1.5"/>
	<rect x="7.5" y="13.485" fill="#FFFFFF" width="1.5" height="1.5"/>
	<rect x="9" y="13.485" fill="#BE1E2D" width="1.5" height="1.5"/>
	<rect x="6" y="14.982" fill="#BE1E2D" width="1.5" height="1.5"/>
	<rect x="4.5" y="14.982" fill="#BE1E2D" width="1.5" height="1.5"/>
	<rect x="7.5" y="14.982" fill="#BE1E2D" width="1.5" height="1.5"/>
	<rect x="9" y="14.982" fill="#CDC09D" width="1.5" height="1.5"/>
	<rect x="6" y="16.482" fill="#CDC09D" width="1.5" height="1.5"/>
	<rect x="4.5" y="16.482" fill="#CDC09D" width="1.5" height="1.5"/>
	<rect x="7.5" y="16.482" fill="#CDC09D" width="1.5" height="1.5"/>
	<rect x="6" y="17.982" fill="#E8CD8D" width="1.5" height="1.5"/>
	<rect x="7.5" y="17.982" fill="#E8CD8D" width="1.5" height="1.5"/>
	<rect x="6" y="19.482" fill="#58595B" width="1.5" height="1.5"/>
	<rect x="7.5" y="19.482" fill="#58595B" width="1.5" height="1.5"/>
	<rect x="9" y="17.982" fill="#E8CD8D" width="1.5" height="1.5"/>
	<rect x="9" y="16.482" fill="#CDC09D" width="1.5" height="1.5"/>
	<rect x="10.5" y="16.482" fill="#E8CD8D" width="1.5" height="1.5"/>
	<rect x="10.5" y="17.982" fill="#231F20" width="1.5" height="1.5"/>
	<rect x="12" y="17.982" fill="#231F20" width="1.5" height="1.5"/>
	<rect x="13.5" y="17.982" fill="#231F20" width="1.5" height="1.5"/>
	<rect x="10.5" y="19.482" fill="#231F20" width="1.5" height="1.5"/>
	<rect x="9" y="19.482" fill="#58595B" width="1.5" height="1.5"/>
	<rect x="4.5" y="19.482" fill="#231F20" width="1.5" height="1.5"/>
	<rect x="4.5" y="17.982" fill="#231F20" width="1.5" height="1.5"/>
	<rect x="3" y="17.982" fill="#231F20" width="1.5" height="1.5"/>
	<rect x="3" y="19.482" fill="#231F20" width="1.5" height="1.5"/>
	<rect x="12" y="19.482" fill="#231F20" width="1.5" height="1.5"/>
	<rect x="13.5" y="19.482" fill="#231F20" width="1.5" height="1.5"/>
	<rect x="15" y="19.482" fill="#231F20" width="1.5" height="1.5"/>
	<rect x="16.5" y="19.482" fill="#414042" width="1.5" height="1.5"/>
	<rect x="6" y="22.482" fill="#231F20" width="1.5" height="1.5"/>
	<rect x="7.5" y="22.482" fill="#FFFFFF" width="1.5" height="1.5"/>
	<rect x="10.5" y="22.482" fill="#231F20" width="1.5" height="1.5"/>
	<rect x="9" y="22.482" fill="#231F20" width="1.5" height="1.5"/>
	<rect x="4.5" y="22.482" fill="#231F20" width="1.5" height="1.5"/>
	<rect x="3" y="22.482" fill="#231F20" width="1.5" height="1.5"/>
	<rect x="1.5" y="22.482" fill="#414042" width="1.5" height="1.5"/>
	<rect x="12" y="22.482" fill="#231F20" width="1.5" height="1.5"/>
	<rect x="13.5" y="22.482" fill="#231F20" width="1.5" height="1.5"/>
	<rect x="15" y="22.482" fill="#231F20" width="1.5" height="1.5"/>
	<rect x="16.5" y="22.482" fill="#231F20" width="1.5" height="1.5"/>
	<rect x="6" y="25.482" fill="#FFFFFF" width="1.5" height="1.5"/>
	<rect x="7.5" y="25.482" fill="#FFFFFF" width="1.5" height="1.5"/>
	<rect x="10.5" y="25.482" fill="#231F20" width="1.5" height="1.5"/>
	<rect x="9" y="25.482" fill="#231F20" width="1.5" height="1.5"/>
	<rect x="4.5" y="25.482" fill="#231F20" width="1.5" height="1.5"/>
	<rect x="3" y="25.482" fill="#231F20" width="1.5" height="1.5"/>
	<rect x="1.5" y="25.482" fill="#E8CD8D" width="1.5" height="1.5"/>
	<rect x="12" y="25.482" fill="#231F20" width="1.5" height="1.5"/>
	<rect x="13.5" y="25.482" fill="#E8CD8D" width="1.5" height="1.5"/>
	<rect x="15" y="25.482" fill="#E8CD8D" width="1.5" height="1.5"/>
	<rect x="16.5" y="25.482" fill="#E8CD8D" width="1.5" height="1.5"/>
	<rect x="6" y="20.982" fill="#231F20" width="1.5" height="1.5"/>
	<rect x="7.5" y="20.982" fill="#231F20" width="1.5" height="1.5"/>
	<rect x="10.5" y="20.982" fill="#231F20" width="1.5" height="1.5"/>
	<rect x="9" y="20.982" fill="#231F20" width="1.5" height="1.5"/>
	<rect x="4.5" y="20.982" fill="#231F20" width="1.5" height="1.5"/>
	<rect x="3" y="20.982" fill="#231F20" width="1.5" height="1.5"/>
	<rect x="1.5" y="20.982" fill="#58595B" width="1.5" height="1.5"/>
	<rect x="12" y="20.982" fill="#231F20" width="1.5" height="1.5"/>
	<rect x="13.5" y="20.982" fill="#231F20" width="1.5" height="1.5"/>
	<rect x="15" y="20.982" fill="#414042" width="1.5" height="1.5"/>
	<rect x="16.5" y="20.982" fill="#414042" width="1.5" height="1.5"/>
	<rect x="6" y="23.982" fill="#FFFFFF" width="1.5" height="1.5"/>
	<rect x="7.5" y="23.982" fill="#FFFFFF" width="1.5" height="1.5"/>
	<rect x="10.5" y="23.982" fill="#231F20" width="1.5" height="1.5"/>
	<rect x="9" y="23.982" fill="#FFFFFF" width="1.5" height="1.5"/>
	<rect x="4.5" y="23.982" fill="#231F20" width="1.5" height="1.5"/>
	<rect x="3" y="23.982" fill="#231F20" width="1.5" height="1.5"/>
	<rect x="1.5" y="23.982" fill="#231F20" width="1.5" height="1.5"/>
	<rect x="12" y="23.982" fill="#231F20" width="1.5" height="1.5"/>
	<rect x="13.5" y="23.982" fill="#231F20" width="1.5" height="1.5"/>
	<rect x="15" y="23.982" fill="#231F20" width="1.5" height="1.5"/>
	<rect x="16.5" y="23.982" fill="#231F20" width="1.5" height="1.5"/>
	<rect x="12" y="11.988" fill="#E8CD8D" width="1.5" height="1.5"/>
	<rect x="10.5" y="10.491" fill="#CDC09D" width="1.5" height="1.5"/>
	<rect x="12" y="10.491" fill="#E8CD8D" width="1.5" height="1.5"/>
	<rect x="10.5" y="14.982" fill="#CDC09D" width="1.5" height="1.5"/>
	<rect x="12" y="14.982" fill="#E8CD8D" width="1.5" height="1.5"/>
	<rect x="10.5" y="13.485" fill="#CDC09D" width="1.5" height="1.5"/>
	<rect x="12" y="13.485" fill="#E8CD8D" width="1.5" height="1.5"/>
	<rect x="10.5" y="8.988" fill="#CDC09D" width="1.5" height="1.5"/>
	<rect x="12" y="8.988" fill="#E8CD8D" width="1.5" height="1.5"/>
	<rect x="10.5" y="7.491" fill="#B5AA8C" width="1.5" height="1.5"/>
	<rect x="12" y="7.491" fill="#9B8579" width="1.5" height="1.5"/>
	<rect x="13.5" y="8.988" fill="#E8CD8D" width="1.5" height="1.5"/>
	<rect x="13.5" y="7.491" fill="#E8CD8D" width="1.5" height="1.5"/>
	<rect x="13.5" y="5.997" fill="#EADAB2" width="1.5" height="1.5"/>
	<rect x="4.5" y="5.997" fill="#726658" width="1.5" height="1.5"/>
	<rect x="6" y="5.997" fill="#9B8579" width="1.5" height="1.5"/>
	<rect x="7.5" y="5.997" fill="#E8CD8D" width="1.5" height="1.5"/>
	<rect x="9" y="5.997" fill="#E8CD8D" width="1.5" height="1.5"/>
	<rect x="4.5" y="7.491" fill="#E8CD8D" width="1.5" height="1.5"/>
	<rect x="6" y="7.491" fill="#E8CD8D" width="1.5" height="1.5"/>
	<rect x="7.5" y="7.491" fill="#9B8579" width="1.5" height="1.5"/>
	<rect x="9" y="7.491" fill="#E8CD8D" width="1.5" height="1.5"/>
	<rect x="4.5" y="8.988" fill="#27AAE1" width="1.5" height="1.5"/>
	<rect x="6" y="8.988" fill="#FFFFFF" width="1.5" height="1.5"/>
	<rect x="7.5" y="8.988" fill="#E8CD8D" width="1.5" height="1.5"/>
	<rect x="9" y="8.988" fill="#E8CD8D" width="1.5" height="1.5"/>
	<rect x="4.5" y="10.488" fill="#E8CD8D" width="1.5" height="1.5"/>
	<rect x="6" y="10.488" fill="#E8CD8D" width="1.5" height="1.5"/>
	<rect x="7.5" y="10.488" fill="#E8CD8D" width="1.5" height="1.5"/>
	<rect x="9" y="10.488" fill="#E8CD8D" width="1.5" height="1.5"/>
	<rect x="10.5" y="2.997" fill="#E8CD8D" width="1.5" height="1.5"/>
	<rect x="12" y="2.997" fill="#E8CD8D" width="1.5" height="1.5"/>
	<rect x="1.5" y="1.5" fill="#E8CD8D" width="1.5" height="1.5"/>
	<rect x="3" y="1.5" fill="#E8CD8D" width="1.5" height="1.5"/>
	<rect x="4.5" y="1.5" fill="#E8CD8D" width="1.5" height="1.5"/>
	<rect x="6" y="1.5" fill="#E8CD8D" width="1.5" height="1.5"/>
	<rect x="7.5" y="1.5" fill="#E8CD8D" width="1.5" height="1.5"/>
	<rect x="9" y="1.5" fill="#E8CD8D" width="1.5" height="1.5"/>
	<rect x="10.5" y="1.5" fill="#E8CD8D" width="1.5" height="1.5"/>
	<rect x="9" fill="#E8CD8D" width="1.5" height="1.5"/>
	<rect x="10.5" fill="#E8CD8D" width="1.5" height="1.5"/>
	<rect x="12" y="1.5" fill="#E8CD8D" width="1.5" height="1.5"/>
	<rect x="10.5" y="4.497" fill="#E8CD8D" width="1.5" height="1.5"/>
	<rect x="12" y="4.497" fill="#E8CD8D" width="1.5" height="1.5"/>
	<rect x="10.5" y="5.997" fill="#B5AA8C" width="1.5" height="1.5"/>
	<rect x="12" y="5.997" fill="#EADAB2" width="1.5" height="1.5"/>
</g>
</svg>
