<?xml version="1.0" encoding="utf-8"?>
<!-- Generator: Adobe Illustrator 15.0.2, SVG Export Plug-In . SVG Version: 6.00 Build 0)  -->
<!DOCTYPE svg PUBLIC "-//W3C//DTD SVG 1.1//EN" "http://www.w3.org/Graphics/SVG/1.1/DTD/svg11.dtd">
<svg version="1.1" id="Layer_1" xmlns="http://www.w3.org/2000/svg" xmlns:xlink="http://www.w3.org/1999/xlink" x="0px" y="0px"
	 width="19.5px" height="34.472px" viewBox="0 0 19.5 34.472" enable-background="new 0 0 19.5 34.472" xml:space="preserve">
<g>
	<rect x="4.5" y="1.5" fill="#231F20" width="1.5" height="1.5"/>
	<rect x="3" y="1.5" fill="#3E2D02" width="1.5" height="1.5"/>
	<rect x="6" y="1.5" fill="#3E2D02" width="1.5" height="1.5"/>
	<rect x="7.5" y="1.5" fill="#231F20" width="1.5" height="1.5"/>
	<rect x="9" y="1.5" fill="#231F20" width="1.5" height="1.5"/>
	<rect x="3" y="4.497" fill="#231F20" width="1.5" height="1.5"/>
	<rect x="4.5" y="4.497" fill="#231F20" width="1.5" height="1.5"/>
	<rect x="6" y="4.497" fill="#231F20" width="1.5" height="1.5"/>
	<rect x="7.5" y="4.497" fill="#231F20" width="1.5" height="1.5"/>
	<rect x="9" y="4.497" fill="#231F20" width="1.5" height="1.5"/>
	<rect x="10.5" y="4.497" fill="#231F20" width="1.5" height="1.5"/>
	<rect x="3" y="5.997" fill="#EADAB2" width="1.5" height="1.5"/>
	<rect x="4.5" y="5.997" fill="#EADAB2" width="1.5" height="1.5"/>
	<rect x="6" y="5.997" fill="#EADAB2" width="1.5" height="1.5"/>
	<rect x="7.5" y="5.997" fill="#E7B685" width="1.5" height="1.5"/>
	<rect x="9" y="5.997" fill="#E7B685" width="1.5" height="1.5"/>
	<rect x="10.5" y="5.997" fill="#231F20" width="1.5" height="1.5"/>
	<rect x="3" y="8.995" fill="#EADAB2" width="1.5" height="1.5"/>
	<rect x="4.5" y="8.995" fill="#594A42" width="1.5" height="1.5"/>
	<rect x="3" y="10.489" fill="#E8CD8D" width="1.5" height="1.5"/>
	<rect x="4.5" y="10.489" fill="#E8CD8D" width="1.5" height="1.5"/>
	<rect x="3" y="13.479" fill="#E8CD8D" width="1.5" height="1.5"/>
	<rect x="4.5" y="13.479" fill="#E8CD8D" width="1.5" height="1.5"/>
	<rect x="3" y="14.982" fill="#EADAB2" width="1.5" height="1.5"/>
	<rect x="4.5" y="14.982" fill="#E8CD8D" width="1.5" height="1.5"/>
	<rect x="3" y="17.985" fill="#3E2D02" width="1.5" height="1.5"/>
	<rect x="1.5" y="13.482" fill="#E8CD8D" width="1.5" height="1.5"/>
	<rect x="1.5" y="14.982" fill="#E7B685" width="1.5" height="1.5"/>
	<rect y="14.982" fill="#E8CD8D" width="1.5" height="1.5"/>
	<rect x="1.5" y="11.982" fill="#E8CD8D" width="1.5" height="1.5"/>
	<rect x="1.5" y="10.492" fill="#EADAB2" width="1.5" height="1.5"/>
	<rect x="4.5" y="17.985" fill="#3E2D02" width="1.5" height="1.5"/>
	<rect x="7.5" y="17.985" fill="#634B1C" width="1.5" height="1.5"/>
	<rect x="6" y="17.985" fill="#594A42" width="1.5" height="1.5"/>
	<rect x="9" y="17.985" fill="#947B42" width="1.5" height="1.5"/>
	<rect x="12" y="17.985" fill="#634B1C" width="1.5" height="1.5"/>
	<rect x="10.5" y="17.985" fill="#906B22" width="1.5" height="1.5"/>
	<rect x="7.5" y="19.482" fill="#FFFFFF" width="1.5" height="1.5"/>
	<rect x="6" y="19.482" fill="#FFFFFF" width="1.5" height="1.5"/>
	<rect x="9" y="19.482" fill="#FFFFFF" width="1.5" height="1.5"/>
	<rect x="10.5" y="19.482" fill="#BD202E" width="1.5" height="1.5"/>
	<rect x="7.5" y="20.979" fill="#BD202E" width="1.5" height="1.5"/>
	<rect x="6" y="20.979" fill="#BD202E" width="1.5" height="1.5"/>
	<rect x="9" y="20.979" fill="#BD202E" width="1.5" height="1.5"/>
	<rect x="10.5" y="20.979" fill="#3E2D02" width="1.5" height="1.5"/>
	<rect x="7.5" y="22.479" fill="#634B1C" width="1.5" height="1.5"/>
	<rect x="6" y="22.479" fill="#634B1C" width="1.5" height="1.5"/>
	<rect x="9" y="22.479" fill="#3E2D02" width="1.5" height="1.5"/>
	<rect x="7.5" y="23.979" fill="#3E2D02" width="1.5" height="1.5"/>
	<rect x="6" y="23.979" fill="#3E2D02" width="1.5" height="1.5"/>
	<rect x="4.5" y="22.479" fill="#3E2D02" width="1.5" height="1.5"/>
	<rect x="4.5" y="20.979" fill="#BD202E" width="1.5" height="1.5"/>
	<rect x="9" y="23.979" fill="#E8CD8D" width="1.5" height="1.5"/>
	<rect x="7.5" y="26.972" fill="#E8CD8D" width="1.5" height="1.5"/>
	<rect x="9" y="26.972" fill="#E8CD8D" width="1.5" height="1.5"/>
	<rect x="10.5" y="23.979" fill="#E8CD8D" width="1.5" height="1.5"/>
	<rect x="7.5" y="25.472" fill="#EADAB2" width="1.5" height="1.5"/>
	<rect x="9" y="25.472" fill="#E8CD8D" width="1.5" height="1.5"/>
	<rect x="10.5" y="25.472" fill="#E8CD8D" width="1.5" height="1.5"/>
	<rect x="10.5" y="22.479" fill="#3E2D02" width="1.5" height="1.5"/>
	<rect x="12" y="22.479" fill="#3E2D02" width="1.5" height="1.5"/>
	<rect x="12" y="26.972" fill="#8AA7BC" width="1.5" height="1.5"/>
	<rect x="10.5" y="26.972" fill="#E8CD8D" width="1.5" height="1.5"/>
	<rect x="6" y="26.972" fill="#8AA7BC" width="1.5" height="1.5"/>
	<rect x="4.5" y="26.972" fill="#6C8394" width="1.5" height="1.5"/>
	<rect x="13.5" y="26.972" fill="#6C8394" width="1.5" height="1.5"/>
	<rect x="15" y="26.972" fill="#6C8394" width="1.5" height="1.5"/>
	<rect x="7.5" y="29.972" fill="#6C8394" width="1.5" height="1.5"/>
	<rect x="9" y="29.972" fill="#6C8394" width="1.5" height="1.5"/>
	<rect x="12" y="29.972" fill="#6C8394" width="1.5" height="1.5"/>
	<rect x="10.5" y="29.972" fill="#6C8394" width="1.5" height="1.5"/>
	<rect x="6" y="29.972" fill="#6C8394" width="1.5" height="1.5"/>
	<rect x="4.5" y="29.972" fill="#6C8394" width="1.5" height="1.5"/>
	<rect x="3" y="29.972" fill="#6C8394" width="1.5" height="1.5"/>
	<rect x="13.5" y="29.972" fill="#6C8394" width="1.5" height="1.5"/>
	<rect x="15" y="29.972" fill="#6C8394" width="1.5" height="1.5"/>
	<rect x="16.5" y="29.972" fill="#6C8394" width="1.5" height="1.5"/>
	<rect x="18" y="29.972" fill="#778D9D" width="1.5" height="1.5"/>
	<rect x="7.5" y="32.972" fill="#6C8394" width="1.5" height="1.5"/>
	<rect x="9" y="32.972" fill="#6C8394" width="1.5" height="1.5"/>
	<rect x="12" y="32.972" fill="#6C8394" width="1.5" height="1.5"/>
	<rect x="10.5" y="32.972" fill="#6C8394" width="1.5" height="1.5"/>
	<rect x="6" y="32.972" fill="#6C8394" width="1.5" height="1.5"/>
	<rect x="4.5" y="32.972" fill="#596C7B" width="1.5" height="1.5"/>
	<rect x="3" y="32.972" fill="#6C8394" width="1.5" height="1.5"/>
	<rect x="13.5" y="32.972" fill="#596C7B" width="1.5" height="1.5"/>
	<rect x="15" y="32.972" fill="#6C8394" width="1.5" height="1.5"/>
	<rect x="16.5" y="32.972" fill="#6C8394" width="1.5" height="1.5"/>
	<rect x="18" y="32.972" fill="#6C8394" width="1.5" height="1.5"/>
	<rect x="7.5" y="28.472" fill="#8AA7BC" width="1.5" height="1.5"/>
	<rect x="9" y="28.472" fill="#8AA7BC" width="1.5" height="1.5"/>
	<rect x="12" y="28.472" fill="#8AA7BC" width="1.5" height="1.5"/>
	<rect x="10.5" y="28.472" fill="#8AA7BC" width="1.5" height="1.5"/>
	<rect x="6" y="28.472" fill="#8AA7BC" width="1.5" height="1.5"/>
	<rect x="4.5" y="28.472" fill="#6C8394" width="1.5" height="1.5"/>
	<rect x="3" y="28.472" fill="#6C8394" width="1.5" height="1.5"/>
	<rect x="13.5" y="28.472" fill="#6C8394" width="1.5" height="1.5"/>
	<rect x="15" y="28.472" fill="#6C8394" width="1.5" height="1.5"/>
	<rect x="16.5" y="28.472" fill="#778D9D" width="1.5" height="1.5"/>
	<rect x="18" y="28.472" fill="#778D9D" width="1.5" height="1.5"/>
	<rect x="7.5" y="31.472" fill="#6C8394" width="1.5" height="1.5"/>
	<rect x="9" y="31.472" fill="#6C8394" width="1.5" height="1.5"/>
	<rect x="12" y="31.472" fill="#6C8394" width="1.5" height="1.5"/>
	<rect x="10.5" y="31.472" fill="#6C8394" width="1.5" height="1.5"/>
	<rect x="6" y="31.472" fill="#6C8394" width="1.5" height="1.5"/>
	<rect x="4.5" y="31.472" fill="#596C7B" width="1.5" height="1.5"/>
	<rect x="3" y="31.472" fill="#6C8394" width="1.5" height="1.5"/>
	<rect x="1.5" y="29.972" fill="#6C8394" width="1.5" height="1.5"/>
	<rect x="1.5" y="32.972" fill="#6C8394" width="1.5" height="1.5"/>
	<rect x="1.5" y="31.472" fill="#6C8394" width="1.5" height="1.5"/>
	<rect x="13.5" y="31.472" fill="#596C7B" width="1.5" height="1.5"/>
	<rect x="15" y="31.472" fill="#6C8394" width="1.5" height="1.5"/>
	<rect x="16.5" y="31.472" fill="#6C8394" width="1.5" height="1.5"/>
	<rect x="18" y="31.472" fill="#778D9D" width="1.5" height="1.5"/>
	<rect x="13.5" y="17.985" fill="#3E2D02" width="1.5" height="1.5"/>
	<rect x="12" y="14.982" fill="#634B1C" width="1.5" height="1.5"/>
	<rect x="13.5" y="14.982" fill="#3E2D02" width="1.5" height="1.5"/>
	<rect x="12" y="20.979" fill="#3E2D02" width="1.5" height="1.5"/>
	<rect x="13.5" y="20.979" fill="#3E2D02" width="1.5" height="1.5"/>
	<rect x="12" y="19.482" fill="#3E2D02" width="1.5" height="1.5"/>
	<rect x="13.5" y="19.482" fill="#3E2D02" width="1.5" height="1.5"/>
	<rect x="12" y="13.479" fill="#E8CD8D" width="1.5" height="1.5"/>
	<rect x="13.5" y="13.479" fill="#231F20" width="1.5" height="1.5"/>
	<rect x="12" y="10.489" fill="#231F20" width="1.5" height="1.5"/>
	<rect x="13.5" y="10.489" fill="#231F20" width="1.5" height="1.5"/>
	<rect x="15" y="13.479" fill="#E8CD8D" width="1.5" height="1.5"/>
	<rect x="15" y="11.982" fill="#B5AA8C" width="1.5" height="1.5"/>
	<rect x="6" y="8.995" fill="#594A42" width="1.5" height="1.5"/>
	<rect x="7.5" y="8.995" fill="#E8CD8D" width="1.5" height="1.5"/>
	<rect x="9" y="8.995" fill="#E8CD8D" width="1.5" height="1.5"/>
	<rect x="10.5" y="8.995" fill="#E7B685" width="1.5" height="1.5"/>
	<rect x="6" y="10.489" fill="#E8CD8D" width="1.5" height="1.5"/>
	<rect x="7.5" y="10.489" fill="#594A42" width="1.5" height="1.5"/>
	<rect x="9" y="10.489" fill="#E8CD8D" width="1.5" height="1.5"/>
	<rect x="10.5" y="10.489" fill="#E8CD8D" width="1.5" height="1.5"/>
	<rect x="3" y="11.982" fill="#E8CD8D" width="1.5" height="1.5"/>
	<rect x="4.5" y="11.982" fill="#3B2314" width="1.5" height="1.5"/>
	<rect x="12" y="11.982" fill="#E8CD8D" width="1.5" height="1.5"/>
	<rect x="13.5" y="11.982" fill="#231F20" width="1.5" height="1.5"/>
	<rect x="6" y="11.982" fill="#FFFFFF" width="1.5" height="1.5"/>
	<rect x="7.5" y="11.982" fill="#E8CD8D" width="1.5" height="1.5"/>
	<rect x="9" y="11.982" fill="#E8CD8D" width="1.5" height="1.5"/>
	<rect x="10.5" y="11.982" fill="#E8CD8D" width="1.5" height="1.5"/>
	<rect x="6" y="13.479" fill="#E8CD8D" width="1.5" height="1.5"/>
	<rect x="7.5" y="13.479" fill="#E8CD8D" width="1.5" height="1.5"/>
	<rect x="9" y="13.479" fill="#E8CD8D" width="1.5" height="1.5"/>
	<rect x="10.5" y="13.479" fill="#E8CD8D" width="1.5" height="1.5"/>
	<rect x="6" y="14.979" fill="#E8CD8D" width="1.5" height="1.5"/>
	<rect x="7.5" y="14.979" fill="#E7B685" width="1.5" height="1.5"/>
	<rect x="9" y="14.979" fill="#E7B685" width="1.5" height="1.5"/>
	<rect x="10.5" y="14.979" fill="#E8CD8D" width="1.5" height="1.5"/>
	<rect x="3" y="16.485" fill="#3E2D02" width="1.5" height="1.5"/>
	<rect x="4.5" y="16.485" fill="#3E2D02" width="1.5" height="1.5"/>
	<rect x="12" y="16.485" fill="#634B1C" width="1.5" height="1.5"/>
	<rect x="13.5" y="16.485" fill="#3E2D02" width="1.5" height="1.5"/>
	<rect x="6" y="16.482" fill="#E8CD8D" width="1.5" height="1.5"/>
	<rect x="7.5" y="16.482" fill="#E8CD8D" width="1.5" height="1.5"/>
	<rect x="9" y="16.482" fill="#E7B685" width="1.5" height="1.5"/>
	<rect x="10.5" y="16.482" fill="#E7B685" width="1.5" height="1.5"/>
	<rect x="12" y="4.497" fill="#231F20" width="1.5" height="1.5"/>
	<rect x="13.5" y="4.497" fill="#3E2D02" width="1.5" height="1.5"/>
	<rect x="3" y="3" fill="#231F20" width="1.5" height="1.5"/>
	<rect x="1.5" y="3" fill="#231F20" width="1.5" height="1.5"/>
	<rect x="1.5" y="1.5" fill="#231F20" width="1.5" height="1.5"/>
	<rect x="4.5" y="3" fill="#3E2D02" width="1.5" height="1.5"/>
	<rect x="6" y="3" fill="#231F20" width="1.5" height="1.5"/>
	<rect x="7.5" y="3" fill="#3E2D02" width="1.5" height="1.5"/>
	<rect x="9" y="3" fill="#231F20" width="1.5" height="1.5"/>
	<rect x="10.5" y="3" fill="#231F20" width="1.5" height="1.5"/>
	<rect x="12" y="3" fill="#231F20" width="1.5" height="1.5"/>
	<rect x="10.5" y="1.5" fill="#231F20" width="1.5" height="1.5"/>
	<rect x="4.5" fill="#3E2D02" width="1.5" height="1.5"/>
	<rect x="3" fill="#231F20" width="1.5" height="1.5"/>
	<rect x="6" fill="#231F20" width="1.5" height="1.5"/>
	<rect x="7.5" fill="#231F20" width="1.5" height="1.5"/>
	<rect x="9" fill="#3E2D02" width="1.5" height="1.5"/>
	<rect x="10.5" fill="#3E2D02" width="1.5" height="1.5"/>
	<rect x="12" y="1.5" fill="#231F20" width="1.5" height="1.5"/>
	<rect x="13.5" y="3" fill="#231F20" width="1.5" height="1.5"/>
	<rect x="13.5" y="1.5" fill="#3E2D02" width="1.5" height="1.5"/>
	<rect x="15" y="4.497" fill="#231F20" width="1.5" height="1.5"/>
	<rect x="15" y="3" fill="#3E2D02" width="1.5" height="1.5"/>
	<rect x="12" y="5.997" fill="#3E2D02" width="1.5" height="1.5"/>
	<rect x="13.5" y="5.997" fill="#231F20" width="1.5" height="1.5"/>
	<rect x="12" y="8.995" fill="#3E2D02" width="1.5" height="1.5"/>
	<rect x="13.5" y="8.995" fill="#231F20" width="1.5" height="1.5"/>
	<rect x="15" y="10.489" fill="#E7B685" width="1.5" height="1.5"/>
	<rect x="15" y="5.997" fill="#3E2D02" width="1.5" height="1.5"/>
	<rect x="16.5" y="4.497" fill="#231F20" width="1.5" height="1.5"/>
	<rect x="16.5" y="5.997" fill="#231F20" width="1.5" height="1.5"/>
	<rect x="3" y="7.497" fill="#E7B685" width="1.5" height="1.5"/>
	<rect x="4.5" y="7.497" fill="#E7B685" width="1.5" height="1.5"/>
	<rect x="6" y="7.497" fill="#E8CD8D" width="1.5" height="1.5"/>
	<rect x="7.5" y="7.497" fill="#E8CD8D" width="1.5" height="1.5"/>
	<rect x="9" y="7.497" fill="#E7B685" width="1.5" height="1.5"/>
	<rect x="10.5" y="7.497" fill="#231F20" width="1.5" height="1.5"/>
	<rect x="12" y="7.497" fill="#231F20" width="1.5" height="1.5"/>
	<rect x="13.5" y="7.497" fill="#3E2D02" width="1.5" height="1.5"/>
	<rect x="15" y="7.497" fill="#231F20" width="1.5" height="1.5"/>
	<rect x="16.5" y="7.497" fill="#231F20" width="1.5" height="1.5"/>
	<rect x="15" y="8.995" fill="#231F20" width="1.5" height="1.5"/>
	<rect x="16.5" y="13.486" fill="#E8CD8D" width="1.5" height="1.5"/>
	<rect x="16.5" y="11.992" fill="#E7B685" width="1.5" height="1.5"/>
	<rect x="16.5" y="10.494" fill="#E7B685" width="1.5" height="1.5"/>
	<rect x="16.5" y="8.994" fill="#231F20" width="1.5" height="1.5"/>
	<rect x="15" y="14.982" fill="#E8CD8D" width="1.5" height="1.5"/>
</g>
</svg>
