<?xml version="1.0" encoding="utf-8"?>
<!-- Generator: Adobe Illustrator 15.0.2, SVG Export Plug-In  -->
<!DOCTYPE svg PUBLIC "-//W3C//DTD SVG 1.1//EN" "http://www.w3.org/Graphics/SVG/1.1/DTD/svg11.dtd" [
	<!ENTITY ns_flows "http://ns.adobe.com/Flows/1.0/">
]>
<svg version="1.1"
	 xmlns="http://www.w3.org/2000/svg" xmlns:xlink="http://www.w3.org/1999/xlink" xmlns:a="http://ns.adobe.com/AdobeSVGViewerExtensions/3.0/"
	 x="0px" y="0px" width="18px" height="30px" viewBox="0 0 18 30" enable-background="new 0 0 18 30" xml:space="preserve">
<defs>
</defs>
<rect x="3" y="3" fill="#231F20" width="1.5" height="1.5"/>
<rect x="4.5" y="3" fill="#767E38" width="1.5" height="1.5"/>
<rect x="6" y="3" fill="#231F20" width="1.5" height="1.5"/>
<rect x="4.5" y="1.5" fill="#231F20" width="1.5" height="1.5"/>
<rect x="7.5" y="3" fill="#A0AA4F" width="1.5" height="1.5"/>
<rect x="3" y="5.997" fill="#A0AA4F" width="1.5" height="1.5"/>
<rect x="4.5" y="5.997" fill="#A0AA4F" width="1.5" height="1.5"/>
<rect x="6" y="5.997" fill="#A0AA4F" width="1.5" height="1.5"/>
<rect x="7.5" y="5.997" fill="#EC1C24" width="1.5" height="1.5"/>
<rect x="9" y="5.997" fill="#BD1E2D" width="1.5" height="1.5"/>
<rect x="1.5" y="7.497" fill="#A0AA4F" width="1.5" height="1.5"/>
<rect x="3" y="7.497" fill="#A0AA4F" width="1.5" height="1.5"/>
<rect x="4.5" y="7.497" fill="#A0AA4F" width="1.5" height="1.5"/>
<rect x="6" y="7.497" fill="#A0AA4F" width="1.5" height="1.5"/>
<rect x="7.5" y="7.497" fill="#A0AA4F" width="1.5" height="1.5"/>
<rect x="9" y="7.497" fill="#EC1C24" width="1.5" height="1.5"/>
<rect x="1.5" y="8.997" fill="#A0AA4F" width="1.5" height="1.5"/>
<rect x="3" y="8.997" fill="#A0AA4F" width="1.5" height="1.5"/>
<rect x="1.5" y="10.491" fill="#A0AA4F" width="1.5" height="1.5"/>
<rect x="3" y="10.491" fill="#A0AA4F" width="1.5" height="1.5"/>
<rect x="1.5" y="11.988" fill="#A0AA4F" width="1.5" height="1.5"/>
<rect x="3" y="11.988" fill="#A0AA4F" width="1.5" height="1.5"/>
<rect x="1.5" y="13.491" fill="#A0AA4F" width="1.5" height="1.5"/>
<rect x="3" y="13.491" fill="#A0AA4F" width="1.5" height="1.5"/>
<rect x="1.5" y="14.988" fill="#A0AA4F" width="1.5" height="1.5"/>
<rect y="13.863" fill="#A0AA4F" width="1.5" height="1.5"/>
<rect y="12.363" fill="#A0AA4F" width="1.5" height="1.5"/>
<rect x="3" y="14.988" fill="#A0AA4F" width="1.5" height="1.5"/>
<rect x="6" y="14.988" fill="#A0AA4F" width="1.5" height="1.5"/>
<rect x="4.5" y="14.988" fill="#A0AA4F" width="1.5" height="1.5"/>
<rect x="7.5" y="14.988" fill="#A0AA4F" width="1.5" height="1.5"/>
<rect x="10.5" y="14.988" fill="#A0AA4F" width="1.5" height="1.5"/>
<rect x="9" y="14.988" fill="#A0AA4F" width="1.5" height="1.5"/>
<rect x="6" y="16.485" fill="#FFFFFF" width="1.5" height="1.5"/>
<rect x="4.5" y="16.485" fill="#FFFFFF" width="1.5" height="1.5"/>
<rect x="7.5" y="16.485" fill="#FFFFFF" width="1.5" height="1.5"/>
<rect x="9" y="16.485" fill="#BD1E2D" width="1.5" height="1.5"/>
<rect x="6" y="17.982" fill="#EC1C24" width="1.5" height="1.5"/>
<rect x="4.5" y="17.982" fill="#EC1C24" width="1.5" height="1.5"/>
<rect x="7.5" y="17.982" fill="#EC1C24" width="1.5" height="1.5"/>
<rect x="9" y="17.982" fill="#A0AA4F" width="1.5" height="1.5"/>
<rect x="6" y="19.482" fill="#A0AA4F" width="1.5" height="1.5"/>
<rect x="4.5" y="19.482" fill="#A0AA4F" width="1.5" height="1.5"/>
<rect x="7.5" y="19.482" fill="#BD1E2D" width="1.5" height="1.5"/>
<rect x="6" y="20.982" fill="#A0AA4F" width="1.5" height="1.5"/>
<rect x="7.5" y="20.982" fill="#A0AA4F" width="1.5" height="1.5"/>
<rect x="6" y="22.482" fill="#767E38" width="1.5" height="1.5"/>
<rect x="7.5" y="22.482" fill="#767E38" width="1.5" height="1.5"/>
<rect x="9" y="20.982" fill="#A0AA4F" width="1.5" height="1.5"/>
<rect x="9" y="19.482" fill="#A0AA4F" width="1.5" height="1.5"/>
<rect x="10.5" y="19.482" fill="#A0AA4F" width="1.5" height="1.5"/>
<rect x="10.5" y="20.982" fill="#FFFFFF" width="1.5" height="1.5"/>
<rect x="12" y="20.982" fill="#FFFFFF" width="1.5" height="1.5"/>
<rect x="12" y="19.482" fill="#FFFFFF" width="1.5" height="1.5"/>
<rect x="13.5" y="20.982" fill="#FFFFFF" width="1.5" height="1.5"/>
<rect x="10.5" y="22.482" fill="#FFFFFF" width="1.5" height="1.5"/>
<rect x="9" y="22.482" fill="#767E38" width="1.5" height="1.5"/>
<rect x="4.5" y="22.482" fill="#FFFFFF" width="1.5" height="1.5"/>
<rect x="4.5" y="20.982" fill="#FFFFFF" width="1.5" height="1.5"/>
<rect x="3" y="22.482" fill="#FFFFFF" width="1.5" height="1.5"/>
<rect x="12" y="22.482" fill="#FFFFFF" width="1.5" height="1.5"/>
<rect x="13.5" y="22.482" fill="#A0AA4F" width="1.5" height="1.5"/>
<rect x="15" y="20.982" fill="#FFFFFF" width="1.5" height="1.5"/>
<rect x="15" y="22.482" fill="#FFFFFF" width="1.5" height="1.5"/>
<rect x="16.5" y="22.482" fill="#FFFFFF" width="1.5" height="1.5"/>
<rect x="6" y="25.482" fill="#FFFFFF" width="1.5" height="1.5"/>
<rect x="7.5" y="25.482" fill="#FFFFFF" width="1.5" height="1.5"/>
<rect x="10.5" y="25.482" fill="#FFFFFF" width="1.5" height="1.5"/>
<rect x="9" y="25.482" fill="#EFEFEE" width="1.5" height="1.5"/>
<rect x="4.5" y="25.482" fill="#FFFFFF" width="1.5" height="1.5"/>
<rect x="3" y="25.482" fill="#EFEFEE" width="1.5" height="1.5"/>
<rect x="1.5" y="25.482" fill="#FFFFFF" width="1.5" height="1.5"/>
<rect x="12" y="25.482" fill="#FFFFFF" width="1.5" height="1.5"/>
<rect x="13.5" y="25.482" fill="#FFFFFF" width="1.5" height="1.5"/>
<rect x="15" y="25.482" fill="#A0AA4F" width="1.5" height="1.5"/>
<rect x="16.5" y="25.482" fill="#FFFFFF" width="1.5" height="1.5"/>
<rect x="6" y="28.482" fill="#FFFFFF" width="1.5" height="1.5"/>
<rect x="7.5" y="28.482" fill="#FFFFFF" width="1.5" height="1.5"/>
<rect x="10.5" y="28.482" fill="#FFFFFF" width="1.5" height="1.5"/>
<rect x="9" y="28.482" fill="#FFFFFF" width="1.5" height="1.5"/>
<rect x="4.5" y="28.482" fill="#FFFFFF" width="1.5" height="1.5"/>
<rect x="3" y="28.482" fill="#EFEFEE" width="1.5" height="1.5"/>
<rect x="1.5" y="28.482" fill="#767E38" width="1.5" height="1.5"/>
<rect x="12" y="28.482" fill="#FFFFFF" width="1.5" height="1.5"/>
<rect x="13.5" y="28.482" fill="#767E38" width="1.5" height="1.5"/>
<rect x="15" y="28.482" fill="#A0AA4F" width="1.5" height="1.5"/>
<rect x="16.5" y="28.482" fill="#A0AA4F" width="1.5" height="1.5"/>
<rect x="6" y="23.982" fill="#FFFFFF" width="1.5" height="1.5"/>
<rect x="7.5" y="23.982" fill="#767E38" width="1.5" height="1.5"/>
<rect x="10.5" y="23.982" fill="#FFFFFF" width="1.5" height="1.5"/>
<rect x="9" y="23.982" fill="#767E38" width="1.5" height="1.5"/>
<rect x="4.5" y="23.982" fill="#FFFFFF" width="1.5" height="1.5"/>
<rect x="3" y="23.982" fill="#FFFFFF" width="1.5" height="1.5"/>
<rect x="1.5" y="23.982" fill="#FFFFFF" width="1.5" height="1.5"/>
<rect x="12" y="23.982" fill="#EFEFEE" width="1.5" height="1.5"/>
<rect x="13.5" y="23.982" fill="#FFFFFF" width="1.5" height="1.5"/>
<rect x="15" y="23.982" fill="#A0AA4F" width="1.5" height="1.5"/>
<rect x="16.5" y="23.982" fill="#A0AA4F" width="1.5" height="1.5"/>
<rect x="6" y="26.982" fill="#FFFFFF" width="1.5" height="1.5"/>
<rect x="7.5" y="26.982" fill="#FFFFFF" width="1.5" height="1.5"/>
<rect x="10.5" y="26.982" fill="#FFFFFF" width="1.5" height="1.5"/>
<rect x="9" y="26.982" fill="#FFFFFF" width="1.5" height="1.5"/>
<rect x="4.5" y="26.982" fill="#FFFFFF" width="1.5" height="1.5"/>
<rect x="3" y="26.982" fill="#FFFFFF" width="1.5" height="1.5"/>
<rect x="1.5" y="26.982" fill="#FFFFFF" width="1.5" height="1.5"/>
<rect x="12" y="26.982" fill="#EFEFEE" width="1.5" height="1.5"/>
<rect x="13.5" y="26.982" fill="#FFFFFF" width="1.5" height="1.5"/>
<rect x="15" y="26.982" fill="#FFFFFF" width="1.5" height="1.5"/>
<rect x="16.5" y="26.982" fill="#FFFFFF" width="1.5" height="1.5"/>
<rect x="13.5" y="19.482" fill="#FFFFFF" width="1.5" height="1.5"/>
<rect x="12" y="14.988" fill="#A0AA4F" width="1.5" height="1.5"/>
<rect x="10.5" y="13.491" fill="#A0AA4F" width="1.5" height="1.5"/>
<rect x="12" y="13.491" fill="#A0AA4F" width="1.5" height="1.5"/>
<rect x="10.5" y="17.982" fill="#AB9F8A" width="1.5" height="1.5"/>
<rect x="12" y="17.982" fill="#A0AA4F" width="1.5" height="1.5"/>
<rect x="10.5" y="16.485" fill="#A0AA4F" width="1.5" height="1.5"/>
<rect x="12" y="16.485" fill="#A0AA4F" width="1.5" height="1.5"/>
<rect x="10.5" y="11.988" fill="#767E38" width="1.5" height="1.5"/>
<rect x="12" y="11.988" fill="#A0AA4F" width="1.5" height="1.5"/>
<rect x="10.5" y="10.491" fill="#767E38" width="1.5" height="1.5"/>
<rect x="12" y="10.491" fill="#A0AA4F" width="1.5" height="1.5"/>
<rect x="13.5" y="10.491" fill="#A0AA4F" width="1.5" height="1.5"/>
<rect x="4.5" y="8.997" fill="#231F20" width="1.5" height="1.5"/>
<rect x="6" y="8.997" fill="#231F20" width="1.5" height="1.5"/>
<rect x="7.5" y="8.997" fill="#A0AA4F" width="1.5" height="1.5"/>
<rect x="9" y="8.997" fill="#A0AA4F" width="1.5" height="1.5"/>
<rect x="4.5" y="10.491" fill="#A0AA4F" width="1.5" height="1.5"/>
<rect x="6" y="10.491" fill="#A0AA4F" width="1.5" height="1.5"/>
<rect x="7.5" y="10.491" fill="#A0AA4F" width="1.5" height="1.5"/>
<rect x="9" y="10.491" fill="#A0AA4F" width="1.5" height="1.5"/>
<rect x="4.5" y="11.988" fill="#A0AA4F" width="1.5" height="1.5"/>
<rect x="6" y="11.988" fill="#FCF136" width="1.5" height="1.5"/>
<rect x="7.5" y="11.988" fill="#A0AA4F" width="1.5" height="1.5"/>
<rect x="9" y="11.988" fill="#A0AA4F" width="1.5" height="1.5"/>
<rect x="4.5" y="13.488" fill="#A0AA4F" width="1.5" height="1.5"/>
<rect x="6" y="13.488" fill="#A0AA4F" width="1.5" height="1.5"/>
<rect x="7.5" y="13.488" fill="#A0AA4F" width="1.5" height="1.5"/>
<rect x="9" y="13.488" fill="#767E38" width="1.5" height="1.5"/>
<rect x="10.5" y="5.997" fill="#A0AA4F" width="1.5" height="1.5"/>
<rect x="12" y="5.997" fill="#231F20" width="1.5" height="1.5"/>
<rect x="12" y="4.5" fill="#A0AA4F" width="1.5" height="1.5"/>
<rect x="10.5" y="3" fill="#231F20" width="1.5" height="1.5"/>
<rect x="9" y="1.5" fill="#231F20" width="1.5" height="1.5"/>
<rect x="10.5" fill="#231F20" width="1.5" height="1.5"/>
<rect x="7.5" y="1.5" fill="#231F20" width="1.5" height="1.5"/>
<rect x="13.516" y="8.997" fill="#A0AA4F" width="1.5" height="1.5"/>
<rect x="13.5" y="4.5" fill="#231F20" width="1.5" height="1.5"/>
<rect x="9" y="3" fill="#231F20" width="1.5" height="1.5"/>
<rect x="1.5" y="5.997" fill="#767E38" width="1.5" height="1.5"/>
<rect x="3" y="4.5" fill="#767E38" width="1.5" height="1.5"/>
<rect x="4.5" y="4.5" fill="#A0AA4F" width="1.5" height="1.5"/>
<rect x="6" y="4.5" fill="#EC1C24" width="1.5" height="1.5"/>
<rect x="7.5" y="4.5" fill="#231F20" width="1.5" height="1.5"/>
<rect x="9" y="4.5" fill="#A0AA4F" width="1.5" height="1.5"/>
<rect x="10.5" y="4.5" fill="#231F20" width="1.5" height="1.5"/>
<rect x="10.5" y="7.497" fill="#A0AA4F" width="1.5" height="1.5"/>
<rect x="12" y="7.497" fill="#A0AA4F" width="1.5" height="1.5"/>
<rect x="10.5" y="8.997" fill="#A0AA4F" width="1.5" height="1.5"/>
<rect x="12" y="8.997" fill="#A0AA4F" width="1.5" height="1.5"/>
</svg>
