<?xml version="1.0" encoding="utf-8"?>
<!-- Generator: Adobe Illustrator 15.0.2, SVG Export Plug-In . SVG Version: 6.00 Build 0)  -->
<!DOCTYPE svg PUBLIC "-//W3C//DTD SVG 1.1//EN" "http://www.w3.org/Graphics/SVG/1.1/DTD/svg11.dtd">
<svg version="1.1" id="Layer_1" xmlns="http://www.w3.org/2000/svg" xmlns:xlink="http://www.w3.org/1999/xlink" x="0px" y="0px"
	 width="21px" height="29.982px" viewBox="0 0 21 29.982" enable-background="new 0 0 21 29.982" xml:space="preserve">
<g>
	<rect x="6" y="5.997" fill="#ED1C24" width="1.5" height="1.5"/>
	<rect x="7.5" y="5.997" fill="#ED1C24" width="1.5" height="1.5"/>
	<rect x="9" y="5.997" fill="#ED1C24" width="1.5" height="1.5"/>
	<rect x="10.5" y="5.997" fill="#ED1C24" width="1.5" height="1.5"/>
	<rect x="12" y="5.997" fill="#ED1C24" width="1.5" height="1.5"/>
	<rect x="4.5" y="7.497" fill="#754C29" width="1.5" height="1.5"/>
	<rect x="6" y="7.497" fill="#754C29" width="1.5" height="1.5"/>
	<rect x="7.5" y="7.497" fill="#754C29" width="1.5" height="1.5"/>
	<rect x="9" y="7.497" fill="#754C29" width="1.5" height="1.5"/>
	<rect x="10.5" y="7.497" fill="#754C29" width="1.5" height="1.5"/>
	<rect x="12" y="7.497" fill="#754C29" width="1.5" height="1.5"/>
	<rect x="4.5" y="8.997" fill="#231F20" width="1.5" height="1.5"/>
	<rect x="6" y="8.997" fill="#231F20" width="1.5" height="1.5"/>
	<rect x="4.5" y="10.491" fill="#754C29" width="1.5" height="1.5"/>
	<rect x="6" y="10.491" fill="#231F20" width="1.5" height="1.5"/>
	<rect x="4.5" y="11.988" fill="#754C29" width="1.5" height="1.5"/>
	<rect x="6" y="11.988" fill="#231F20" width="1.5" height="1.5"/>
	<rect x="4.5" y="13.491" fill="#754C29" width="1.5" height="1.5"/>
	<rect x="6" y="13.491" fill="#754C29" width="1.5" height="1.5"/>
	<rect x="4.5" y="14.988" fill="#3C2415" width="1.5" height="1.5"/>
	<rect x="3" y="13.491" fill="#754C29" width="1.5" height="1.5"/>
	<rect x="3" y="11.991" fill="#754C29" width="1.5" height="1.5"/>
	<rect x="6" y="14.988" fill="#3C2415" width="1.5" height="1.5"/>
	<rect x="9" y="14.988" fill="#3C2415" width="1.5" height="1.5"/>
	<rect x="7.5" y="14.988" fill="#3C2415" width="1.5" height="1.5"/>
	<rect x="10.5" y="14.988" fill="#3C2415" width="1.5" height="1.5"/>
	<rect x="13.5" y="14.988" fill="#3C2415" width="1.5" height="1.5"/>
	<rect x="12" y="14.988" fill="#3C2415" width="1.5" height="1.5"/>
	<rect x="9" y="16.485" fill="#FFFFFF" width="1.5" height="1.5"/>
	<rect x="7.5" y="16.485" fill="#FFFFFF" width="1.5" height="1.5"/>
	<rect x="10.5" y="16.485" fill="#FFFFFF" width="1.5" height="1.5"/>
	<rect x="12" y="16.485" fill="#ED1C24" width="1.5" height="1.5"/>
	<rect x="9" y="17.982" fill="#3C2415" width="1.5" height="1.5"/>
	<rect x="7.5" y="17.982" fill="#3C2415" width="1.5" height="1.5"/>
	<rect x="10.5" y="17.982" fill="#3C2415" width="1.5" height="1.5"/>
	<rect x="12" y="17.982" fill="#3C2415" width="1.5" height="1.5"/>
	<rect x="9" y="19.482" fill="#754C29" width="1.5" height="1.5"/>
	<rect x="7.5" y="19.482" fill="#754C29" width="1.5" height="1.5"/>
	<rect x="10.5" y="19.482" fill="#754C29" width="1.5" height="1.5"/>
	<rect x="9" y="20.982" fill="#231F20" width="1.5" height="1.5"/>
	<rect x="10.5" y="20.982" fill="#231F20" width="1.5" height="1.5"/>
	<rect x="9" y="22.482" fill="#961A38" width="1.5" height="1.5"/>
	<rect x="10.5" y="22.482" fill="#961A38" width="1.5" height="1.5"/>
	<rect x="12" y="20.982" fill="#231F20" width="1.5" height="1.5"/>
	<rect x="12" y="19.482" fill="#754C29" width="1.5" height="1.5"/>
	<rect x="13.5" y="19.482" fill="#754C29" width="1.5" height="1.5"/>
	<rect x="13.5" y="20.982" fill="#961A38" width="1.5" height="1.5"/>
	<rect x="15" y="20.982" fill="#961A38" width="1.5" height="1.5"/>
	<rect x="15" y="19.482" fill="#961A38" width="1.5" height="1.5"/>
	<rect x="16.5" y="20.982" fill="#BD2339" width="1.5" height="1.5"/>
	<rect x="13.5" y="22.482" fill="#961A38" width="1.5" height="1.5"/>
	<rect x="12" y="22.482" fill="#961A38" width="1.5" height="1.5"/>
	<rect x="7.5" y="22.482" fill="#961A38" width="1.5" height="1.5"/>
	<rect x="7.5" y="20.982" fill="#961A38" width="1.5" height="1.5"/>
	<rect x="6" y="22.482" fill="#BD2339" width="1.5" height="1.5"/>
	<rect x="15" y="22.482" fill="#961A38" width="1.5" height="1.5"/>
	<rect x="16.5" y="22.482" fill="#BD2339" width="1.5" height="1.5"/>
	<rect x="18" y="20.982" fill="#BD2339" width="1.5" height="1.5"/>
	<rect x="18" y="22.482" fill="#BD2339" width="1.5" height="1.5"/>
	<rect x="19.5" y="22.482" fill="#BD2339" width="1.5" height="1.5"/>
	<rect x="9" y="25.482" fill="#231F20" width="1.5" height="1.5"/>
	<rect x="10.5" y="25.482" fill="#231F20" width="1.5" height="1.5"/>
	<rect x="13.5" y="25.482" fill="#231F20" width="1.5" height="1.5"/>
	<rect x="12" y="25.482" fill="#961A38" width="1.5" height="1.5"/>
	<rect x="7.5" y="25.482" fill="#231F20" width="1.5" height="1.5"/>
	<rect x="7.5" y="26.982" fill="#231F20" width="1.5" height="1.5"/>
	<rect x="6" y="25.482" fill="#BD2339" width="1.5" height="1.5"/>
	<rect x="4.5" y="25.482" fill="#BD2339" width="1.5" height="1.5"/>
	<rect x="15" y="25.482" fill="#961A38" width="1.5" height="1.5"/>
	<rect x="16.5" y="25.482" fill="#BD2339" width="1.5" height="1.5"/>
	<rect x="18" y="25.482" fill="#BD2339" width="1.5" height="1.5"/>
	<rect x="19.5" y="25.482" fill="#BD2339" width="1.5" height="1.5"/>
	<rect x="9" y="28.482" fill="#961A38" width="1.5" height="1.5"/>
	<rect x="10.5" y="28.482" fill="#231F20" width="1.5" height="1.5"/>
	<rect x="13.5" y="28.482" fill="#231F20" width="1.5" height="1.5"/>
	<rect x="12" y="28.482" fill="#961A38" width="1.5" height="1.5"/>
	<rect x="7.5" y="28.482" fill="#231F20" width="1.5" height="1.5"/>
	<rect x="6" y="28.482" fill="#603913" width="1.5" height="1.5"/>
	<rect x="4.5" y="28.482" fill="#603913" width="1.5" height="1.5"/>
	<rect x="15" y="28.482" fill="#961A38" width="1.5" height="1.5"/>
	<rect x="16.5" y="28.482" fill="#603913" width="1.5" height="1.5"/>
	<rect x="18" y="28.482" fill="#603913" width="1.5" height="1.5"/>
	<rect x="19.5" y="28.482" fill="#603913" width="1.5" height="1.5"/>
	<rect x="9" y="23.982" fill="#231F20" width="1.5" height="1.5"/>
	<rect x="10.5" y="23.982" fill="#231F20" width="1.5" height="1.5"/>
	<rect x="13.5" y="23.982" fill="#231F20" width="1.5" height="1.5"/>
	<rect x="12" y="23.982" fill="#961A38" width="1.5" height="1.5"/>
	<rect x="7.5" y="23.982" fill="#414042" width="1.5" height="1.5"/>
	<rect x="6" y="23.982" fill="#BD2339" width="1.5" height="1.5"/>
	<rect x="4.5" y="23.982" fill="#BD2339" width="1.5" height="1.5"/>
	<rect x="15" y="23.982" fill="#961A38" width="1.5" height="1.5"/>
	<rect x="16.5" y="23.982" fill="#BD2339" width="1.5" height="1.5"/>
	<rect x="18" y="23.982" fill="#BD2339" width="1.5" height="1.5"/>
	<rect x="19.5" y="23.982" fill="#BD2339" width="1.5" height="1.5"/>
	<rect x="9" y="26.982" fill="#961A38" width="1.5" height="1.5"/>
	<rect x="10.5" y="26.982" fill="#414042" width="1.5" height="1.5"/>
	<rect x="13.5" y="26.982" fill="#414042" width="1.5" height="1.5"/>
	<rect x="12" y="26.982" fill="#961A38" width="1.5" height="1.5"/>
	<rect x="7.5" y="26.982" fill="#414042" width="1.5" height="1.5"/>
	<rect x="6" y="26.982" fill="#BD2339" width="1.5" height="1.5"/>
	<rect x="4.5" y="26.982" fill="#BD2339" width="1.5" height="1.5"/>
	<rect x="15" y="26.982" fill="#961A38" width="1.5" height="1.5"/>
	<rect x="16.5" y="26.982" fill="#BD2339" width="1.5" height="1.5"/>
	<rect x="18" y="26.982" fill="#BD2339" width="1.5" height="1.5"/>
	<rect x="19.5" y="26.982" fill="#BD2339" width="1.5" height="1.5"/>
	<rect x="16.5" y="19.482" fill="#BD2339" width="1.5" height="1.5"/>
	<rect x="15" y="14.988" fill="#754C29" width="1.5" height="1.5"/>
	<rect x="13.5" y="13.491" fill="#754C29" width="1.5" height="1.5"/>
	<rect x="15" y="13.491" fill="#754C29" width="1.5" height="1.5"/>
	<rect x="13.5" y="17.982" fill="#754C29" width="1.5" height="1.5"/>
	<rect x="15" y="17.982" fill="#754C29" width="1.5" height="1.5"/>
	<rect x="13.5" y="16.485" fill="#3C2415" width="1.5" height="1.5"/>
	<rect x="15" y="16.485" fill="#754C29" width="1.5" height="1.5"/>
	<rect x="13.5" y="11.988" fill="#754C29" width="1.5" height="1.5"/>
	<rect x="15" y="11.988" fill="#754C29" width="1.5" height="1.5"/>
	<rect x="13.5" y="10.491" fill="#754C29" width="1.5" height="1.5"/>
	<rect x="15" y="10.491" fill="#754C29" width="1.5" height="1.5"/>
	<rect x="16.5" y="11.988" fill="#754C29" width="1.5" height="1.5"/>
	<rect x="16.5" y="10.491" fill="#754C29" width="1.5" height="1.5"/>
	<rect x="7.5" y="8.997" fill="#231F20" width="1.5" height="1.5"/>
	<rect x="9" y="8.997" fill="#F1F2F2" width="1.5" height="1.5"/>
	<rect x="10.5" y="8.997" fill="#231F20" width="1.5" height="1.5"/>
	<rect x="12" y="8.997" fill="#231F20" width="1.5" height="1.5"/>
	<rect x="7.5" y="10.491" fill="#231F20" width="1.5" height="1.5"/>
	<rect x="9" y="10.491" fill="#231F20" width="1.5" height="1.5"/>
	<rect x="10.5" y="10.491" fill="#754C29" width="1.5" height="1.5"/>
	<rect x="12" y="10.491" fill="#754C29" width="1.5" height="1.5"/>
	<rect x="7.5" y="11.988" fill="#231F20" width="1.5" height="1.5"/>
	<rect x="9" y="11.988" fill="#231F20" width="1.5" height="1.5"/>
	<rect x="10.5" y="11.988" fill="#754C29" width="1.5" height="1.5"/>
	<rect x="12" y="11.988" fill="#754C29" width="1.5" height="1.5"/>
	<rect x="7.5" y="13.488" fill="#754C29" width="1.5" height="1.5"/>
	<rect x="9" y="13.488" fill="#754C29" width="1.5" height="1.5"/>
	<rect x="10.5" y="13.488" fill="#754C29" width="1.5" height="1.5"/>
	<rect x="12" y="13.488" fill="#754C29" width="1.5" height="1.5"/>
	<rect x="13.5" y="5.997" fill="#ED1C24" width="1.5" height="1.5"/>
	<rect x="15" y="5.997" fill="#ED1C24" width="1.5" height="1.5"/>
	<rect x="6" y="4.5" fill="#FFFFFF" width="1.5" height="1.5"/>
	<rect x="4.5" y="5.997" fill="#ED1C24" width="1.5" height="1.5"/>
	<rect x="3" y="5.997" fill="#ED1C24" width="1.5" height="1.5"/>
	<rect x="1.5" y="5.997" fill="#ED1C24" width="1.5" height="1.5"/>
	<rect y="5.997" fill="#ED1C24" width="1.5" height="1.5"/>
	<rect x="4.5" y="4.5" fill="#FFFFFF" width="1.5" height="1.5"/>
	<rect x="4.5" y="3" fill="#FFFFFF" width="1.5" height="1.5"/>
	<rect x="4.5" y="1.5" fill="#ED1C24" width="1.5" height="1.5"/>
	<rect x="7.5" y="4.5" fill="#FFFFFF" width="1.5" height="1.5"/>
	<rect x="9" y="4.5" fill="#FFFFFF" width="1.5" height="1.5"/>
	<rect x="10.5" y="4.5" fill="#FFFFFF" width="1.5" height="1.5"/>
	<rect x="12" y="4.5" fill="#ED1C24" width="1.5" height="1.5"/>
	<rect x="6" y="3" fill="#ED1C24" width="1.5" height="1.5"/>
	<rect x="7.5" y="3" fill="#FFFFFF" width="1.5" height="1.5"/>
	<rect x="9" y="3" fill="#ED1C24" width="1.5" height="1.5"/>
	<rect x="10.5" y="3" fill="#FFFFFF" width="1.5" height="1.5"/>
	<rect x="12" y="3" fill="#ED1C24" width="1.5" height="1.5"/>
	<rect x="13.5" y="4.5" fill="#ED1C24" width="1.5" height="1.5"/>
	<rect x="13.5" y="3" fill="#ED1C24" width="1.5" height="1.5"/>
	<rect x="6" y="1.5" fill="#ED1C24" width="1.5" height="1.5"/>
	<rect x="7.5" y="1.5" fill="#ED1C24" width="1.5" height="1.5"/>
	<rect x="9" y="1.5" fill="#ED1C24" width="1.5" height="1.5"/>
	<rect x="10.5" y="1.5" fill="#ED1C24" width="1.5" height="1.5"/>
	<rect x="12" y="1.5" fill="#ED1C24" width="1.5" height="1.5"/>
	<rect x="6" fill="#ED1C24" width="1.5" height="1.5"/>
	<rect x="7.5" fill="#ED1C24" width="1.5" height="1.5"/>
	<rect x="9" fill="#ED1C24" width="1.5" height="1.5"/>
	<rect x="10.5" fill="#ED1C24" width="1.5" height="1.5"/>
	<rect x="12" fill="#ED1C24" width="1.5" height="1.5"/>
	<rect x="13.5" y="1.5" fill="#ED1C24" width="1.5" height="1.5"/>
	<rect x="15" y="4.5" fill="#ED1C24" width="1.5" height="1.5"/>
	<rect x="15" y="3" fill="#ED1C24" width="1.5" height="1.5"/>
	<rect x="13.5" y="7.497" fill="#754C29" width="1.5" height="1.5"/>
	<rect x="15" y="7.497" fill="#754C29" width="1.5" height="1.5"/>
	<rect x="13.5" y="8.997" fill="#231F20" width="1.5" height="1.5"/>
	<rect x="15" y="8.997" fill="#231F20" width="1.5" height="1.5"/>
</g>
</svg>
