<?xml version="1.0" encoding="utf-8"?>
<!-- Generator: Adobe Illustrator 15.0.2, SVG Export Plug-In . SVG Version: 6.00 Build 0)  -->
<!DOCTYPE svg PUBLIC "-//W3C//DTD SVG 1.1//EN" "http://www.w3.org/Graphics/SVG/1.1/DTD/svg11.dtd">
<svg version="1.1" id="Layer_1" xmlns="http://www.w3.org/2000/svg" xmlns:xlink="http://www.w3.org/1999/xlink" x="0px" y="0px"
	 width="18px" height="28.482px" viewBox="0 0 18 28.482" enable-background="new 0 0 18 28.482" xml:space="preserve">
<g>
	<rect x="1.5" fill="#D59E10" width="1.5" height="1.5"/>
	<rect x="1.5" y="1.5" fill="#FAC805" width="1.5" height="1.5"/>
	<rect x="3" y="1.5" fill="#D59E10" width="1.5" height="1.5"/>
	<rect x="4.5" y="1.5" fill="#FAC805" width="1.5" height="1.5"/>
	<rect x="6" y="1.5" fill="#D59E10" width="1.5" height="1.5"/>
	<rect x="7.5" y="1.5" fill="#FAC805" width="1.5" height="1.5"/>
	<rect x="9" y="1.5" fill="#D59E10" width="1.5" height="1.5"/>
	<rect x="1.5" y="4.496" fill="#A97C50" width="1.5" height="1.5"/>
	<rect x="3" y="4.496" fill="#FAC805" width="1.5" height="1.5"/>
	<rect x="4.5" y="4.496" fill="#D59E10" width="1.5" height="1.5"/>
	<rect x="6" y="4.496" fill="#FAC805" width="1.5" height="1.5"/>
	<rect x="7.5" y="4.496" fill="#603913" width="1.5" height="1.5"/>
	<rect x="9" y="4.496" fill="#FAC805" width="1.5" height="1.5"/>
	<rect x="1.5" y="5.996" fill="#E8CD8D" width="1.5" height="1.5"/>
	<rect x="3" y="5.996" fill="#E8CD8D" width="1.5" height="1.5"/>
	<rect x="4.5" y="5.996" fill="#E8CD8D" width="1.5" height="1.5"/>
	<rect x="6" y="5.996" fill="#E8CD8D" width="1.5" height="1.5"/>
	<rect x="7.5" y="5.996" fill="#E8CD8D" width="1.5" height="1.5"/>
	<rect x="9" y="5.996" fill="#E8CD8D" width="1.5" height="1.5"/>
	<rect x="1.5" y="7.496" fill="#E8CD8D" width="1.5" height="1.5"/>
	<rect x="3" y="7.496" fill="#E8CD8D" width="1.5" height="1.5"/>
	<rect x="1.5" y="8.99" fill="#E8CD8D" width="1.5" height="1.5"/>
	<rect x="3" y="8.99" fill="#594A42" width="1.5" height="1.5"/>
	<rect x="1.5" y="10.488" fill="#E8CD8D" width="1.5" height="1.5"/>
	<rect x="3" y="10.488" fill="#231F20" width="1.5" height="1.5"/>
	<rect x="1.5" y="11.99" fill="#E8CD8D" width="1.5" height="1.5"/>
	<rect x="3" y="11.99" fill="#E8CD8D" width="1.5" height="1.5"/>
	<rect x="1.5" y="13.488" fill="#E8CD8D" width="1.5" height="1.5"/>
	<rect y="11.99" fill="#E8CD8D" width="1.5" height="1.5"/>
	<rect x="3" y="13.488" fill="#E8CD8D" width="1.5" height="1.5"/>
	<rect x="6" y="13.488" fill="#E8CD8D" width="1.5" height="1.5"/>
	<rect x="4.5" y="13.488" fill="#E8CD8D" width="1.5" height="1.5"/>
	<rect x="7.5" y="13.488" fill="#E8CD8D" width="1.5" height="1.5"/>
	<rect x="10.5" y="13.488" fill="#E8CD8D" width="1.5" height="1.5"/>
	<rect x="9" y="13.488" fill="#EADAB2" width="1.5" height="1.5"/>
	<rect x="6" y="14.984" fill="#FFFFFF" width="1.5" height="1.5"/>
	<rect x="4.5" y="14.984" fill="#FFFFFF" width="1.5" height="1.5"/>
	<rect x="7.5" y="14.984" fill="#FFFFFF" width="1.5" height="1.5"/>
	<rect x="9" y="14.984" fill="#BE1E2D" width="1.5" height="1.5"/>
	<rect x="6" y="16.482" fill="#BE1E2D" width="1.5" height="1.5"/>
	<rect x="4.5" y="16.482" fill="#BE1E2D" width="1.5" height="1.5"/>
	<rect x="7.5" y="16.482" fill="#BE1E2D" width="1.5" height="1.5"/>
	<rect x="9" y="16.482" fill="#E8CD8D" width="1.5" height="1.5"/>
	<rect x="6" y="17.982" fill="#E8CD8D" width="1.5" height="1.5"/>
	<rect x="4.5" y="17.982" fill="#E8CD8D" width="1.5" height="1.5"/>
	<rect x="7.5" y="17.982" fill="#E8CD8D" width="1.5" height="1.5"/>
	<rect x="6" y="19.482" fill="#E8CD8D" width="1.5" height="1.5"/>
	<rect x="7.5" y="19.482" fill="#E8CD8D" width="1.5" height="1.5"/>
	<rect x="6" y="20.982" fill="#E8CD8D" width="1.5" height="1.5"/>
	<rect x="7.5" y="20.982" fill="#E8CD8D" width="1.5" height="1.5"/>
	<rect x="9" y="19.482" fill="#E8CD8D" width="1.5" height="1.5"/>
	<rect x="9" y="17.982" fill="#E8CD8D" width="1.5" height="1.5"/>
	<rect x="10.5" y="17.982" fill="#E8CD8D" width="1.5" height="1.5"/>
	<rect x="10.5" y="19.482" fill="#414042" width="1.5" height="1.5"/>
	<rect x="12" y="19.482" fill="#6D6E71" width="1.5" height="1.5"/>
	<rect x="13.5" y="19.482" fill="#6D6E71" width="1.5" height="1.5"/>
	<rect x="10.5" y="20.982" fill="#6D6E71" width="1.5" height="1.5"/>
	<rect x="9" y="20.982" fill="#414042" width="1.5" height="1.5"/>
	<rect x="4.5" y="20.982" fill="#414042" width="1.5" height="1.5"/>
	<rect x="4.5" y="19.482" fill="#E8CD8D" width="1.5" height="1.5"/>
	<rect x="3" y="20.982" fill="#6D6E71" width="1.5" height="1.5"/>
	<rect x="12" y="20.982" fill="#6D6E71" width="1.5" height="1.5"/>
	<rect x="13.5" y="20.982" fill="#414042" width="1.5" height="1.5"/>
	<rect x="15" y="19.482" fill="#414042" width="1.5" height="1.5"/>
	<rect x="15" y="20.982" fill="#414042" width="1.5" height="1.5"/>
	<rect x="16.5" y="20.982" fill="#414042" width="1.5" height="1.5"/>
	<rect x="6" y="22.482" fill="#414042" width="1.5" height="1.5"/>
	<rect x="7.5" y="22.482" fill="#414042" width="1.5" height="1.5"/>
	<rect x="10.5" y="22.482" fill="#6D6E71" width="1.5" height="1.5"/>
	<rect x="9" y="22.482" fill="#6D6E71" width="1.5" height="1.5"/>
	<rect x="4.5" y="22.482" fill="#6D6E71" width="1.5" height="1.5"/>
	<rect x="3" y="22.482" fill="#6D6E71" width="1.5" height="1.5"/>
	<rect x="1.5" y="22.482" fill="#414042" width="1.5" height="1.5"/>
	<rect x="12" y="22.482" fill="#6D6E71" width="1.5" height="1.5"/>
	<rect x="13.5" y="22.482" fill="#414042" width="1.5" height="1.5"/>
	<rect x="15" y="22.482" fill="#414042" width="1.5" height="1.5"/>
	<rect x="16.5" y="22.482" fill="#414042" width="1.5" height="1.5"/>
	<rect x="6" y="23.982" fill="#6D6E71" width="1.5" height="1.5"/>
	<rect x="7.5" y="23.982" fill="#6D6E71" width="1.5" height="1.5"/>
	<rect x="10.5" y="23.982" fill="#6D6E71" width="1.5" height="1.5"/>
	<rect x="9" y="23.982" fill="#6D6E71" width="1.5" height="1.5"/>
	<rect x="4.5" y="23.982" fill="#6D6E71" width="1.5" height="1.5"/>
	<rect x="3" y="23.982" fill="#6D6E71" width="1.5" height="1.5"/>
	<rect x="1.5" y="23.982" fill="#414042" width="1.5" height="1.5"/>
	<rect x="12" y="23.982" fill="#6D6E71" width="1.5" height="1.5"/>
	<rect x="13.5" y="23.982" fill="#414042" width="1.5" height="1.5"/>
	<rect x="15" y="23.982" fill="#414042" width="1.5" height="1.5"/>
	<rect x="16.5" y="23.982" fill="#414042" width="1.5" height="1.5"/>
	<rect x="6" y="25.482" fill="#6D6E71" width="1.5" height="1.5"/>
	<rect x="7.5" y="25.482" fill="#6D6E71" width="1.5" height="1.5"/>
	<rect x="10.5" y="25.482" fill="#6D6E71" width="1.5" height="1.5"/>
	<rect x="9" y="25.482" fill="#6D6E71" width="1.5" height="1.5"/>
	<rect x="4.5" y="25.482" fill="#6D6E71" width="1.5" height="1.5"/>
	<rect x="3" y="25.482" fill="#6D6E71" width="1.5" height="1.5"/>
	<rect x="1.5" y="25.482" fill="#414042" width="1.5" height="1.5"/>
	<rect x="12" y="25.482" fill="#6D6E71" width="1.5" height="1.5"/>
	<rect x="13.5" y="25.482" fill="#414042" width="1.5" height="1.5"/>
	<rect x="15" y="25.482" fill="#414042" width="1.5" height="1.5"/>
	<rect x="16.5" y="25.482" fill="#414042" width="1.5" height="1.5"/>
	<rect x="6" y="26.982" fill="#6D6E71" width="1.5" height="1.5"/>
	<rect x="7.5" y="26.982" fill="#6D6E71" width="1.5" height="1.5"/>
	<rect x="10.5" y="26.982" fill="#6D6E71" width="1.5" height="1.5"/>
	<rect x="9" y="26.982" fill="#6D6E71" width="1.5" height="1.5"/>
	<rect x="4.5" y="26.982" fill="#6D6E71" width="1.5" height="1.5"/>
	<rect x="3" y="26.982" fill="#6D6E71" width="1.5" height="1.5"/>
	<rect x="1.5" y="26.982" fill="#E8CD8D" width="1.5" height="1.5"/>
	<rect x="12" y="26.982" fill="#6D6E71" width="1.5" height="1.5"/>
	<rect x="13.5" y="26.982" fill="#E8CD8D" width="1.5" height="1.5"/>
	<rect x="15" y="26.982" fill="#E8CD8D" width="1.5" height="1.5"/>
	<rect x="16.5" y="26.982" fill="#E8CD8D" width="1.5" height="1.5"/>
	<rect x="12" y="13.488" fill="#E8CD8D" width="1.5" height="1.5"/>
	<rect x="10.5" y="11.99" fill="#E8CD8D" width="1.5" height="1.5"/>
	<rect x="12" y="11.99" fill="#EADAB2" width="1.5" height="1.5"/>
	<rect x="10.5" y="16.482" fill="#E8CD8D" width="1.5" height="1.5"/>
	<rect x="12" y="16.482" fill="#E8CD8D" width="1.5" height="1.5"/>
	<rect x="10.5" y="14.984" fill="#E8CD8D" width="1.5" height="1.5"/>
	<rect x="12" y="14.984" fill="#E8CD8D" width="1.5" height="1.5"/>
	<rect x="10.5" y="10.488" fill="#E8CD8D" width="1.5" height="1.5"/>
	<rect x="12" y="10.488" fill="#EADAB2" width="1.5" height="1.5"/>
	<rect x="10.5" y="8.99" fill="#E8CD8D" width="1.5" height="1.5"/>
	<rect x="12" y="8.99" fill="#EADAB2" width="1.5" height="1.5"/>
	<rect x="13.5" y="10.488" fill="#EADAB2" width="1.5" height="1.5"/>
	<rect x="13.5" y="8.99" fill="#EADAB2" width="1.5" height="1.5"/>
	<rect x="4.5" y="7.496" fill="#E8CD8D" width="1.5" height="1.5"/>
	<rect x="6" y="7.496" fill="#E8CD8D" width="1.5" height="1.5"/>
	<rect x="7.5" y="7.496" fill="#E8CD8D" width="1.5" height="1.5"/>
	<rect x="9" y="7.496" fill="#E8CD8D" width="1.5" height="1.5"/>
	<rect x="4.5" y="8.99" fill="#726658" width="1.5" height="1.5"/>
	<rect x="6" y="8.99" fill="#726658" width="1.5" height="1.5"/>
	<rect x="7.5" y="8.99" fill="#E8CD8D" width="1.5" height="1.5"/>
	<rect x="9" y="8.99" fill="#E8CD8D" width="1.5" height="1.5"/>
	<rect x="4.5" y="10.488" fill="#FFFFFF" width="1.5" height="1.5"/>
	<rect x="6" y="10.488" fill="#E8CD8D" width="1.5" height="1.5"/>
	<rect x="7.5" y="10.488" fill="#E8CD8D" width="1.5" height="1.5"/>
	<rect x="9" y="10.488" fill="#E8CD8D" width="1.5" height="1.5"/>
	<rect x="4.5" y="11.988" fill="#E8CD8D" width="1.5" height="1.5"/>
	<rect x="6" y="11.988" fill="#E8CD8D" width="1.5" height="1.5"/>
	<rect x="7.5" y="11.988" fill="#EADAB2" width="1.5" height="1.5"/>
	<rect x="9" y="11.988" fill="#E8CD8D" width="1.5" height="1.5"/>
	<rect x="10.5" y="4.496" fill="#A97C50" width="1.5" height="1.5"/>
	<rect x="12" y="4.496" fill="#D59E10" width="1.5" height="1.5"/>
	<rect x="1.5" y="3" fill="#D59E10" width="1.5" height="1.5"/>
	<rect y="1.5" fill="#FAC805" width="1.5" height="1.5"/>
	<rect y="3" fill="#D59E10" width="1.5" height="1.5"/>
	<rect x="3" y="3" fill="#FAC805" width="1.5" height="1.5"/>
	<rect x="4.5" y="3" fill="#A97C50" width="1.5" height="1.5"/>
	<rect x="6" y="3" fill="#FAC805" width="1.5" height="1.5"/>
	<rect x="7.5" y="3" fill="#D59E10" width="1.5" height="1.5"/>
	<rect x="9" y="3" fill="#FAC805" width="1.5" height="1.5"/>
	<rect x="10.5" y="3" fill="#D59E10" width="1.5" height="1.5"/>
	<rect x="10.5" y="5.996" fill="#FAC805" width="1.5" height="1.5"/>
	<rect x="10.5" y="8.99" fill="#A97C50" width="1.5" height="1.5"/>
	<rect x="12" y="5.996" fill="#603913" width="1.5" height="1.5"/>
	<rect x="10.5" y="7.496" fill="#D59E10" width="1.5" height="1.5"/>
	<rect x="12" y="7.496" fill="#FAC805" width="1.5" height="1.5"/>
</g>
</svg>
