<?xml version="1.0" encoding="utf-8"?>
<!-- Generator: Adobe Illustrator 15.0.2, SVG Export Plug-In . SVG Version: 6.00 Build 0)  -->
<!DOCTYPE svg PUBLIC "-//W3C//DTD SVG 1.1//EN" "http://www.w3.org/Graphics/SVG/1.1/DTD/svg11.dtd">
<svg version="1.1" id="Layer_1" xmlns="http://www.w3.org/2000/svg" xmlns:xlink="http://www.w3.org/1999/xlink" x="0px" y="0px"
	 width="19.469px" height="29.982px" viewBox="0 0 19.469 29.982" enable-background="new 0 0 19.469 29.982" xml:space="preserve">
<g>
	<rect x="3" y="4.497" fill="#603913" width="1.5" height="1.5"/>
	<rect x="1.5" y="4.497" fill="#3C2415" width="1.5" height="1.5"/>
	<rect x="1.5" y="5.997" fill="#603913" width="1.5" height="1.5"/>
	<rect y="5.997" fill="#3C2415" width="1.5" height="1.5"/>
	<rect x="4.5" y="4.497" fill="#3C2415" width="1.5" height="1.5"/>
	<rect x="6" y="4.497" fill="#3C2415" width="1.5" height="1.5"/>
	<rect x="7.5" y="4.497" fill="#3C2415" width="1.5" height="1.5"/>
	<rect x="9" y="4.497" fill="#603913" width="1.5" height="1.5"/>
	<rect x="10.5" y="4.497" fill="#3C2415" width="1.5" height="1.5"/>
	<rect x="3" y="5.997" fill="#E8CD8D" width="1.5" height="1.5"/>
	<rect x="4.5" y="5.997" fill="#603913" width="1.5" height="1.5"/>
	<rect x="6" y="5.997" fill="#E8CD8D" width="1.5" height="1.5"/>
	<rect x="7.5" y="5.997" fill="#E8CD8D" width="1.5" height="1.5"/>
	<rect x="9" y="5.997" fill="#603913" width="1.5" height="1.5"/>
	<rect x="3" y="7.497" fill="#603913" width="1.5" height="1.5"/>
	<rect x="4.5" y="7.497" fill="#E8CD8D" width="1.5" height="1.5"/>
	<rect x="6" y="7.497" fill="#603913" width="1.5" height="1.5"/>
	<rect x="7.5" y="7.497" fill="#E8CD8D" width="1.5" height="1.5"/>
	<rect x="9" y="7.497" fill="#E8CD8D" width="1.5" height="1.5"/>
	<rect x="10.5" y="5.997" fill="#E8CD8D" width="1.5" height="1.5"/>
	<rect x="2.969" y="8.997" fill="#231F20" width="1.5" height="1.5"/>
	<rect x="4.469" y="8.997" fill="#231F20" width="1.5" height="1.5"/>
	<rect x="2.969" y="10.491" fill="#231F20" width="1.5" height="1.5"/>
	<rect x="4.469" y="10.491" fill="#009444" width="1.5" height="1.5"/>
	<rect x="2.969" y="11.988" fill="#231F20" width="1.5" height="1.5"/>
	<rect x="4.469" y="11.988" fill="#231F20" width="1.5" height="1.5"/>
	<rect x="2.969" y="13.491" fill="#E8CD8D" width="1.5" height="1.5"/>
	<rect x="4.469" y="13.491" fill="#E8CD8D" width="1.5" height="1.5"/>
	<rect x="2.969" y="14.988" fill="#E8CD8D" width="1.5" height="1.5"/>
	<rect x="1.469" y="13.488" fill="#E8CD8D" width="1.5" height="1.5"/>
	<rect x="1.469" y="11.988" fill="#C2B59B" width="1.5" height="1.5"/>
	<rect x="4.469" y="14.988" fill="#E8CD8D" width="1.5" height="1.5"/>
	<rect x="7.469" y="14.988" fill="#E8CD8D" width="1.5" height="1.5"/>
	<rect x="5.969" y="14.988" fill="#E8CD8D" width="1.5" height="1.5"/>
	<rect x="8.969" y="14.988" fill="#E8CD8D" width="1.5" height="1.5"/>
	<rect x="11.969" y="14.988" fill="#E8CD8D" width="1.5" height="1.5"/>
	<rect x="10.469" y="14.988" fill="#E8CD8D" width="1.5" height="1.5"/>
	<rect x="7.469" y="16.485" fill="#FFFFFF" width="1.5" height="1.5"/>
	<rect x="5.969" y="16.485" fill="#FFFFFF" width="1.5" height="1.5"/>
	<rect x="8.969" y="16.485" fill="#FFFFFF" width="1.5" height="1.5"/>
	<rect x="10.469" y="16.485" fill="#BE1E2D" width="1.5" height="1.5"/>
	<rect x="7.469" y="17.982" fill="#BE1E2D" width="1.5" height="1.5"/>
	<rect x="5.969" y="17.982" fill="#BE1E2D" width="1.5" height="1.5"/>
	<rect x="8.969" y="17.982" fill="#BE1E2D" width="1.5" height="1.5"/>
	<rect x="10.469" y="17.982" fill="#E8CD8D" width="1.5" height="1.5"/>
	<rect x="7.469" y="19.482" fill="#E8CD8D" width="1.5" height="1.5"/>
	<rect x="5.969" y="19.482" fill="#E8CD8D" width="1.5" height="1.5"/>
	<rect x="8.969" y="19.482" fill="#E8CD8D" width="1.5" height="1.5"/>
	<rect x="7.469" y="20.982" fill="#E8CD8D" width="1.5" height="1.5"/>
	<rect x="8.969" y="20.982" fill="#E8CD8D" width="1.5" height="1.5"/>
	<rect x="7.469" y="22.482" fill="#E8CD8D" width="1.5" height="1.5"/>
	<rect x="8.969" y="22.482" fill="#E8CD8D" width="1.5" height="1.5"/>
	<rect x="10.469" y="20.982" fill="#E8CD8D" width="1.5" height="1.5"/>
	<rect x="10.469" y="19.482" fill="#E8CD8D" width="1.5" height="1.5"/>
	<rect x="11.969" y="19.482" fill="#E8CD8D" width="1.5" height="1.5"/>
	<rect x="11.969" y="20.982" fill="#3C2415" width="1.5" height="1.5"/>
	<rect x="13.469" y="20.982" fill="#3C2415" width="1.5" height="1.5"/>
	<rect x="13.469" y="19.482" fill="#3C2415" width="1.5" height="1.5"/>
	<rect x="14.969" y="20.982" fill="#3C2415" width="1.5" height="1.5"/>
	<rect x="11.969" y="22.482" fill="#3C2415" width="1.5" height="1.5"/>
	<rect x="10.469" y="22.482" fill="#E8CD8D" width="1.5" height="1.5"/>
	<rect x="5.969" y="22.482" fill="#3C2415" width="1.5" height="1.5"/>
	<rect x="4.469" y="22.482" fill="#3C2415" width="1.5" height="1.5"/>
	<rect x="13.469" y="22.482" fill="#3C2415" width="1.5" height="1.5"/>
	<rect x="14.969" y="22.482" fill="#A7A9AC" width="1.5" height="1.5"/>
	<rect x="16.469" y="20.982" fill="#3C2415" width="1.5" height="1.5"/>
	<rect x="16.469" y="22.482" fill="#808285" width="1.5" height="1.5"/>
	<rect x="17.969" y="22.482" fill="#A7A9AC" width="1.5" height="1.5"/>
	<rect x="7.469" y="23.982" fill="#A97C50" width="1.5" height="1.5"/>
	<rect x="8.969" y="23.982" fill="#E8CD8D" width="1.5" height="1.5"/>
	<rect x="11.969" y="23.982" fill="#3C2415" width="1.5" height="1.5"/>
	<rect x="10.469" y="23.982" fill="#A97C50" width="1.5" height="1.5"/>
	<rect x="5.969" y="23.982" fill="#3C2415" width="1.5" height="1.5"/>
	<rect x="4.469" y="23.982" fill="#3C2415" width="1.5" height="1.5"/>
	<rect x="2.969" y="23.982" fill="#A7A9AC" width="1.5" height="1.5"/>
	<rect x="13.469" y="23.982" fill="#3C2415" width="1.5" height="1.5"/>
	<rect x="14.969" y="23.982" fill="#808285" width="1.5" height="1.5"/>
	<rect x="16.469" y="23.982" fill="#A7A9AC" width="1.5" height="1.5"/>
	<rect x="17.969" y="23.982" fill="#808285" width="1.5" height="1.5"/>
	<rect x="7.469" y="25.482" fill="#808285" width="1.5" height="1.5"/>
	<rect x="8.969" y="25.482" fill="#F9ED32" width="1.5" height="1.5"/>
	<rect x="11.969" y="25.482" fill="#3C2415" width="1.5" height="1.5"/>
	<rect x="10.469" y="25.482" fill="#808285" width="1.5" height="1.5"/>
	<rect x="5.969" y="25.482" fill="#3C2415" width="1.5" height="1.5"/>
	<rect x="4.469" y="25.482" fill="#3C2415" width="1.5" height="1.5"/>
	<rect x="2.969" y="25.482" fill="#A7A9AC" width="1.5" height="1.5"/>
	<rect x="13.469" y="25.482" fill="#3C2415" width="1.5" height="1.5"/>
	<rect x="14.969" y="25.482" fill="#A7A9AC" width="1.5" height="1.5"/>
	<rect x="16.469" y="25.482" fill="#808285" width="1.5" height="1.5"/>
	<rect x="17.969" y="25.482" fill="#A7A9AC" width="1.5" height="1.5"/>
	<rect x="7.469" y="26.982" fill="#3C2415" width="1.5" height="1.5"/>
	<rect x="8.969" y="26.982" fill="#808285" width="1.5" height="1.5"/>
	<rect x="11.969" y="26.982" fill="#3C2415" width="1.5" height="1.5"/>
	<rect x="10.469" y="26.982" fill="#3C2415" width="1.5" height="1.5"/>
	<rect x="5.969" y="26.982" fill="#3C2415" width="1.5" height="1.5"/>
	<rect x="4.469" y="26.982" fill="#3C2415" width="1.5" height="1.5"/>
	<rect x="2.969" y="26.982" fill="#58595B" width="1.5" height="1.5"/>
	<rect x="13.469" y="26.982" fill="#3C2415" width="1.5" height="1.5"/>
	<rect x="14.969" y="26.982" fill="#58595B" width="1.5" height="1.5"/>
	<rect x="16.469" y="26.982" fill="#58595B" width="1.5" height="1.5"/>
	<rect x="17.969" y="26.982" fill="#58595B" width="1.5" height="1.5"/>
	<rect x="7.469" y="28.482" fill="#3C2415" width="1.5" height="1.5"/>
	<rect x="8.969" y="28.482" fill="#3C2415" width="1.5" height="1.5"/>
	<rect x="11.969" y="28.482" fill="#3C2415" width="1.5" height="1.5"/>
	<rect x="10.469" y="28.482" fill="#3C2415" width="1.5" height="1.5"/>
	<rect x="5.969" y="28.482" fill="#3C2415" width="1.5" height="1.5"/>
	<rect x="4.469" y="28.482" fill="#3C2415" width="1.5" height="1.5"/>
	<rect x="2.969" y="28.482" fill="#E8CD8D" width="1.5" height="1.5"/>
	<rect x="13.469" y="28.482" fill="#3C2415" width="1.5" height="1.5"/>
	<rect x="14.969" y="28.482" fill="#E8CD8D" width="1.5" height="1.5"/>
	<rect x="16.469" y="28.482" fill="#E8CD8D" width="1.5" height="1.5"/>
	<rect x="17.969" y="28.482" fill="#E8CD8D" width="1.5" height="1.5"/>
	<rect x="13.469" y="14.988" fill="#E8CD8D" width="1.5" height="1.5"/>
	<rect x="11.969" y="13.491" fill="#E8CD8D" width="1.5" height="1.5"/>
	<rect x="13.469" y="13.491" fill="#E8CD8D" width="1.5" height="1.5"/>
	<rect x="11.969" y="17.982" fill="#E8CD8D" width="1.5" height="1.5"/>
	<rect x="13.469" y="17.982" fill="#E8CD8D" width="1.5" height="1.5"/>
	<rect x="11.969" y="16.485" fill="#E8CD8D" width="1.5" height="1.5"/>
	<rect x="13.469" y="16.485" fill="#E8CD8D" width="1.5" height="1.5"/>
	<rect x="11.969" y="11.988" fill="#603913" width="1.5" height="1.5"/>
	<rect x="13.469" y="11.988" fill="#9B8579" width="1.5" height="1.5"/>
	<rect x="11.969" y="10.491" fill="#E8CD8D" width="1.5" height="1.5"/>
	<rect x="13.469" y="10.491" fill="#E8CD8D" width="1.5" height="1.5"/>
	<rect x="14.969" y="11.988" fill="#E8CD8D" width="1.5" height="1.5"/>
	<rect x="14.969" y="13.491" fill="#E8CD8D" width="1.5" height="1.5"/>
	<rect x="14.969" y="10.491" fill="#E8CD8D" width="1.5" height="1.5"/>
	<rect x="5.969" y="8.997" fill="#231F20" width="1.5" height="1.5"/>
	<rect x="8.969" y="8.997" fill="#231F20" width="1.5" height="1.5"/>
	<rect x="7.469" y="8.997" fill="#231F20" width="1.5" height="1.5"/>
	<rect x="10.469" y="8.997" fill="#231F20" width="1.5" height="1.5"/>
	<rect x="5.969" y="10.491" fill="#FFFFFF" width="1.5" height="1.5"/>
	<rect x="7.469" y="10.491" fill="#231F20" width="1.5" height="1.5"/>
	<rect x="8.969" y="10.491" fill="#E8CD8D" width="1.5" height="1.5"/>
	<rect x="10.469" y="10.491" fill="#3C2415" width="1.5" height="1.5"/>
	<rect x="5.969" y="11.988" fill="#231F20" width="1.5" height="1.5"/>
	<rect x="7.469" y="11.988" fill="#231F20" width="1.5" height="1.5"/>
	<rect x="8.969" y="11.988" fill="#E8CD8D" width="1.5" height="1.5"/>
	<rect x="10.469" y="11.988" fill="#E8CD8D" width="1.5" height="1.5"/>
	<rect x="5.969" y="13.488" fill="#E8CD8D" width="1.5" height="1.5"/>
	<rect x="7.469" y="13.488" fill="#E8CD8D" width="1.5" height="1.5"/>
	<rect x="8.969" y="13.488" fill="#E8CD8D" width="1.5" height="1.5"/>
	<rect x="10.469" y="13.488" fill="#E8CD8D" width="1.5" height="1.5"/>
	<rect x="12" y="4.497" fill="#603913" width="1.5" height="1.5"/>
	<rect x="13.5" y="4.497" fill="#603913" width="1.5" height="1.5"/>
	<rect x="7.5" y="1.5" fill="#3C2415" width="1.5" height="1.5"/>
	<rect x="9" y="1.5" fill="#603913" width="1.5" height="1.5"/>
	<rect x="10.469" y="1.5" fill="#603913" width="1.5" height="1.5"/>
	<rect x="13.469" y="3" fill="#603913" width="1.5" height="1.5"/>
	<rect x="13.439" fill="#3C2415" width="1.5" height="1.5"/>
	<rect x="11.969" fill="#603913" width="1.5" height="1.5"/>
	<rect x="14.969" y="4.497" fill="#603913" width="1.5" height="1.5"/>
	<rect x="14.969" y="5.997" fill="#3C2415" width="1.5" height="1.5"/>
	<rect x="14.969" y="7.497" fill="#603913" width="1.5" height="1.5"/>
	<rect x="16.469" y="7.497" fill="#3C2415" width="1.5" height="1.5"/>
	<rect x="14.969" y="14.988" fill="#603913" width="1.5" height="1.5"/>
	<rect x="16.469" y="14.988" fill="#603913" width="1.5" height="1.5"/>
	<rect x="14.969" y="16.485" fill="#603913" width="1.5" height="1.5"/>
	<rect x="16.469" y="5.997" fill="#603913" width="1.5" height="1.5"/>
	<rect x="14.969" y="8.997" fill="#603913" width="1.5" height="1.5"/>
	<rect x="11.969" y="1.5" fill="#603913" width="1.5" height="1.5"/>
	<rect x="8.969" fill="#603913" width="1.5" height="1.5"/>
	<rect x="7.5" fill="#603913" width="1.5" height="1.5"/>
	<rect x="6" fill="#3C2415" width="1.5" height="1.5"/>
	<rect x="4.5" fill="#603913" width="1.5" height="1.5"/>
	<rect x="3" y="3" fill="#3C2415" width="1.5" height="1.5"/>
	<rect x="4.5" y="3" fill="#3C2415" width="1.5" height="1.5"/>
	<rect x="4.5" y="1.5" fill="#603913" width="1.5" height="1.5"/>
	<rect x="6" y="3" fill="#603913" width="1.5" height="1.5"/>
	<rect x="6" y="1.5" fill="#603913" width="1.5" height="1.5"/>
	<rect x="7.5" y="3" fill="#603913" width="1.5" height="1.5"/>
	<rect x="9" y="3" fill="#3C2415" width="1.5" height="1.5"/>
	<rect x="10.5" y="3" fill="#603913" width="1.5" height="1.5"/>
	<rect x="12" y="3" fill="#3C2415" width="1.5" height="1.5"/>
	<rect x="12" y="5.997" fill="#3C2415" width="1.5" height="1.5"/>
	<rect x="11.969" y="10.491" fill="#603913" width="1.5" height="1.5"/>
	<rect x="10.5" y="5.997" fill="#603913" width="1.5" height="1.5"/>
	<rect x="10.5" y="7.497" fill="#603913" width="1.5" height="1.5"/>
	<rect x="11.969" y="7.497" fill="#3C2415" width="1.5" height="1.5"/>
	<rect x="13.469" y="7.497" fill="#603913" width="1.5" height="1.5"/>
	<rect x="13.5" y="5.997" fill="#603913" width="1.5" height="1.5"/>
	<rect x="11.969" y="8.997" fill="#231F20" width="1.5" height="1.5"/>
	<rect x="13.469" y="8.997" fill="#231F20" width="1.5" height="1.5"/>
</g>
</svg>
