<?xml version="1.0" encoding="utf-8"?>
<!-- Generator: Adobe Illustrator 15.0.2, SVG Export Plug-In . SVG Version: 6.00 Build 0)  -->
<!DOCTYPE svg PUBLIC "-//W3C//DTD SVG 1.1//EN" "http://www.w3.org/Graphics/SVG/1.1/DTD/svg11.dtd">
<svg version="1.1" id="Layer_1" xmlns="http://www.w3.org/2000/svg" xmlns:xlink="http://www.w3.org/1999/xlink" x="0px" y="0px"
	 width="18px" height="31.476px" viewBox="0 0 18 31.476" enable-background="new 0 0 18 31.476" xml:space="preserve">
<g>
	<rect x="3" y="3" fill="#EF4136" width="1.5" height="1.5"/>
	<rect x="3" y="1.5" fill="#7A1D0F" width="1.5" height="1.5"/>
	<rect x="1.5" y="3" fill="#EF4136" width="1.5" height="1.5"/>
	<rect x="4.5" y="3" fill="#7A1D0F" width="1.5" height="1.5"/>
	<rect x="6" y="3" fill="#EF4136" width="1.5" height="1.5"/>
	<rect x="7.5" y="3" fill="#EF4136" width="1.5" height="1.5"/>
	<rect x="1.5" y="5.997" fill="#3C2415" width="1.5" height="1.5"/>
	<rect x="3" y="5.997" fill="#603913" width="1.5" height="1.5"/>
	<rect x="4.5" y="5.997" fill="#231F20" width="1.5" height="1.5"/>
	<rect x="6" y="5.997" fill="#EF4136" width="1.5" height="1.5"/>
	<rect x="7.5" y="5.997" fill="#EF4136" width="1.5" height="1.5"/>
	<rect x="9" y="5.997" fill="#BE1E2D" width="1.5" height="1.5"/>
	<rect x="1.5" y="7.497" fill="#E8CD8D" width="1.5" height="1.5"/>
	<rect x="3" y="7.497" fill="#231F20" width="1.5" height="1.5"/>
	<rect x="4.5" y="7.497" fill="#603913" width="1.5" height="1.5"/>
	<rect x="6" y="7.497" fill="#3C2415" width="1.5" height="1.5"/>
	<rect x="7.5" y="7.497" fill="#603913" width="1.5" height="1.5"/>
	<rect x="9" y="7.497" fill="#EF4136" width="1.5" height="1.5"/>
	<rect x="1.5" y="8.997" fill="#E8CD8D" width="1.5" height="1.5"/>
	<rect x="3" y="8.997" fill="#E8CD8D" width="1.5" height="1.5"/>
	<rect x="1.5" y="10.491" fill="#E8CD8D" width="1.5" height="1.5"/>
	<rect x="3" y="10.491" fill="#E8CD8D" width="1.5" height="1.5"/>
	<rect x="1.5" y="13.481" fill="#231F20" width="1.5" height="1.5"/>
	<rect x="3" y="13.481" fill="#6C8394" width="1.5" height="1.5"/>
	<rect x="1.5" y="14.984" fill="#E8CD8D" width="1.5" height="1.5"/>
	<rect x="3" y="14.984" fill="#231F20" width="1.5" height="1.5"/>
	<rect x="1.5" y="16.481" fill="#C2B59B" width="1.5" height="1.5"/>
	<rect y="14.984" fill="#E8CD8D" width="1.5" height="1.5"/>
	<rect x="3" y="16.481" fill="#C2B59B" width="1.5" height="1.5"/>
	<rect x="6" y="16.481" fill="#C2B59B" width="1.5" height="1.5"/>
	<rect x="4.5" y="16.481" fill="#C2B59B" width="1.5" height="1.5"/>
	<rect x="7.5" y="16.481" fill="#E8CD8D" width="1.5" height="1.5"/>
	<rect x="10.5" y="16.481" fill="#E8CD8D" width="1.5" height="1.5"/>
	<rect x="9" y="16.481" fill="#E8CD8D" width="1.5" height="1.5"/>
	<rect x="6" y="17.979" fill="#FFFFFF" width="1.5" height="1.5"/>
	<rect x="4.5" y="17.979" fill="#FFFFFF" width="1.5" height="1.5"/>
	<rect x="7.5" y="17.979" fill="#FFFFFF" width="1.5" height="1.5"/>
	<rect x="9" y="17.979" fill="#BD202E" width="1.5" height="1.5"/>
	<rect x="6" y="19.476" fill="#BD202E" width="1.5" height="1.5"/>
	<rect x="4.5" y="19.476" fill="#BD202E" width="1.5" height="1.5"/>
	<rect x="7.5" y="19.476" fill="#BD202E" width="1.5" height="1.5"/>
	<rect x="9" y="19.476" fill="#E8CD8D" width="1.5" height="1.5"/>
	<rect x="6" y="20.976" fill="#C2B59B" width="1.5" height="1.5"/>
	<rect x="4.5" y="20.976" fill="#C2B59B" width="1.5" height="1.5"/>
	<rect x="7.5" y="20.976" fill="#C2B59B" width="1.5" height="1.5"/>
	<rect x="6" y="22.476" fill="#E8CD8D" width="1.5" height="1.5"/>
	<rect x="7.5" y="22.476" fill="#E8CD8D" width="1.5" height="1.5"/>
	<rect x="6" y="23.976" fill="#E8CD8D" width="1.5" height="1.5"/>
	<rect x="7.5" y="23.976" fill="#E8CD8D" width="1.5" height="1.5"/>
	<rect x="9" y="22.476" fill="#E8CD8D" width="1.5" height="1.5"/>
	<rect x="9" y="20.976" fill="#E8CD8D" width="1.5" height="1.5"/>
	<rect x="10.5" y="20.976" fill="#E8CD8D" width="1.5" height="1.5"/>
	<rect x="10.5" y="23.976" fill="#6D6E71" width="1.5" height="1.5"/>
	<rect x="9" y="23.976" fill="#E8CD8D" width="1.5" height="1.5"/>
	<rect x="4.5" y="23.976" fill="#6D6E71" width="1.5" height="1.5"/>
	<rect x="3" y="23.976" fill="#939598" width="1.5" height="1.5"/>
	<rect x="12" y="23.976" fill="#939598" width="1.5" height="1.5"/>
	<rect x="13.5" y="23.976" fill="#939598" width="1.5" height="1.5"/>
	<rect x="15" y="23.976" fill="#939598" width="1.5" height="1.5"/>
	<rect x="6" y="26.976" fill="#6D6E71" width="1.5" height="1.5"/>
	<rect x="7.5" y="26.976" fill="#6D6E71" width="1.5" height="1.5"/>
	<rect x="10.5" y="26.976" fill="#939598" width="1.5" height="1.5"/>
	<rect x="9" y="26.976" fill="#6D6E71" width="1.5" height="1.5"/>
	<rect x="4.5" y="26.976" fill="#939598" width="1.5" height="1.5"/>
	<rect x="3" y="26.976" fill="#939598" width="1.5" height="1.5"/>
	<rect x="1.5" y="26.976" fill="#939598" width="1.5" height="1.5"/>
	<rect x="12" y="26.976" fill="#939598" width="1.5" height="1.5"/>
	<rect x="13.5" y="26.976" fill="#939598" width="1.5" height="1.5"/>
	<rect x="15" y="26.976" fill="#939598" width="1.5" height="1.5"/>
	<rect x="16.5" y="26.976" fill="#939598" width="1.5" height="1.5"/>
	<rect x="6" y="29.976" fill="#939598" width="1.5" height="1.5"/>
	<rect x="7.5" y="29.976" fill="#939598" width="1.5" height="1.5"/>
	<rect x="10.5" y="29.976" fill="#939598" width="1.5" height="1.5"/>
	<rect x="9" y="29.976" fill="#939598" width="1.5" height="1.5"/>
	<rect x="4.5" y="29.976" fill="#939598" width="1.5" height="1.5"/>
	<rect x="3" y="29.976" fill="#6D6E71" width="1.5" height="1.5"/>
	<rect x="1.5" y="29.976" fill="#939598" width="1.5" height="1.5"/>
	<rect x="12" y="29.976" fill="#6D6E71" width="1.5" height="1.5"/>
	<rect x="13.5" y="29.976" fill="#939598" width="1.5" height="1.5"/>
	<rect x="15" y="29.976" fill="#939598" width="1.5" height="1.5"/>
	<rect x="16.5" y="29.976" fill="#939598" width="1.5" height="1.5"/>
	<rect x="6" y="25.476" fill="#E8CD8D" width="1.5" height="1.5"/>
	<rect x="7.5" y="25.476" fill="#E8CD8D" width="1.5" height="1.5"/>
	<rect x="10.5" y="25.476" fill="#6D6E71" width="1.5" height="1.5"/>
	<rect x="9" y="25.476" fill="#E8CD8D" width="1.5" height="1.5"/>
	<rect x="4.5" y="25.476" fill="#6D6E71" width="1.5" height="1.5"/>
	<rect x="3" y="25.476" fill="#939598" width="1.5" height="1.5"/>
	<rect x="1.5" y="25.476" fill="#939598" width="1.5" height="1.5"/>
	<rect x="12" y="25.476" fill="#939598" width="1.5" height="1.5"/>
	<rect x="13.5" y="25.476" fill="#939598" width="1.5" height="1.5"/>
	<rect x="15" y="25.476" fill="#939598" width="1.5" height="1.5"/>
	<rect x="16.5" y="25.476" fill="#939598" width="1.5" height="1.5"/>
	<rect x="6" y="28.476" fill="#939598" width="1.5" height="1.5"/>
	<rect x="7.5" y="28.476" fill="#939598" width="1.5" height="1.5"/>
	<rect x="10.5" y="28.476" fill="#939598" width="1.5" height="1.5"/>
	<rect x="9" y="28.476" fill="#939598" width="1.5" height="1.5"/>
	<rect x="4.5" y="28.476" fill="#939598" width="1.5" height="1.5"/>
	<rect x="3" y="28.476" fill="#6D6E71" width="1.5" height="1.5"/>
	<rect x="1.5" y="28.476" fill="#939598" width="1.5" height="1.5"/>
	<rect x="12" y="28.476" fill="#6D6E71" width="1.5" height="1.5"/>
	<rect x="13.5" y="28.476" fill="#939598" width="1.5" height="1.5"/>
	<rect x="15" y="28.476" fill="#939598" width="1.5" height="1.5"/>
	<rect x="16.5" y="28.476" fill="#939598" width="1.5" height="1.5"/>
	<rect x="12" y="16.481" fill="#E8CD8D" width="1.5" height="1.5"/>
	<rect x="10.5" y="14.984" fill="#E8CD8D" width="1.5" height="1.5"/>
	<rect x="12" y="14.984" fill="#E8CD8D" width="1.5" height="1.5"/>
	<rect x="10.5" y="19.476" fill="#E8CD8D" width="1.5" height="1.5"/>
	<rect x="12" y="19.476" fill="#E8CD8D" width="1.5" height="1.5"/>
	<rect x="10.5" y="17.979" fill="#E8CD8D" width="1.5" height="1.5"/>
	<rect x="12" y="17.979" fill="#E8CD8D" width="1.5" height="1.5"/>
	<rect x="10.5" y="13.481" fill="#231F20" width="1.5" height="1.5"/>
	<rect x="12" y="13.481" fill="#E8CD8D" width="1.5" height="1.5"/>
	<rect x="10.5" y="10.491" fill="#231F20" width="1.5" height="1.5"/>
	<rect x="12" y="10.491" fill="#3C2415" width="1.5" height="1.5"/>
	<rect x="13.5" y="13.481" fill="#E8CD8D" width="1.5" height="1.5"/>
	<rect x="13.5" y="11.984" fill="#E8CD8D" width="1.5" height="1.5"/>
	<rect x="4.5" y="8.997" fill="#3C2415" width="1.5" height="1.5"/>
	<rect x="6" y="8.997" fill="#3C2415" width="1.5" height="1.5"/>
	<rect x="7.5" y="8.997" fill="#231F20" width="1.5" height="1.5"/>
	<rect x="9" y="8.997" fill="#603913" width="1.5" height="1.5"/>
	<rect x="4.5" y="10.491" fill="#E8CD8D" width="1.5" height="1.5"/>
	<rect x="6" y="10.491" fill="#E8CD8D" width="1.5" height="1.5"/>
	<rect x="7.5" y="10.491" fill="#603913" width="1.5" height="1.5"/>
	<rect x="9" y="10.491" fill="#231F20" width="1.5" height="1.5"/>
	<rect x="1.5" y="11.984" fill="#231F20" width="1.5" height="1.5"/>
	<rect x="3" y="11.984" fill="#231F20" width="1.5" height="1.5"/>
	<rect x="10.5" y="11.984" fill="#3C2415" width="1.5" height="1.5"/>
	<rect x="12" y="11.984" fill="#231F20" width="1.5" height="1.5"/>
	<rect x="4.5" y="11.984" fill="#231F20" width="1.5" height="1.5"/>
	<rect x="6" y="11.984" fill="#231F20" width="1.5" height="1.5"/>
	<rect x="7.5" y="11.984" fill="#231F20" width="1.5" height="1.5"/>
	<rect x="9" y="11.984" fill="#231F20" width="1.5" height="1.5"/>
	<rect x="4.5" y="13.481" fill="#FFFFFF" width="1.5" height="1.5"/>
	<rect x="6" y="13.481" fill="#3C2415" width="1.5" height="1.5"/>
	<rect x="7.5" y="13.481" fill="#E8CD8D" width="1.5" height="1.5"/>
	<rect x="9" y="13.481" fill="#E8CD8D" width="1.5" height="1.5"/>
	<rect x="4.5" y="14.981" fill="#3C2415" width="1.5" height="1.5"/>
	<rect x="6" y="14.981" fill="#E8CD8D" width="1.5" height="1.5"/>
	<rect x="7.5" y="14.981" fill="#E8CD8D" width="1.5" height="1.5"/>
	<rect x="9" y="14.981" fill="#E8CD8D" width="1.5" height="1.5"/>
	<rect x="10.5" y="5.997" fill="#EF4136" width="1.5" height="1.5"/>
	<rect x="12" y="5.997" fill="#EF4136" width="1.5" height="1.5"/>
	<rect x="1.5" y="4.5" fill="#231F20" width="1.5" height="1.5"/>
	<rect x="3" y="4.5" fill="#3C2415" width="1.5" height="1.5"/>
	<rect x="4.5" y="4.5" fill="#EF4136" width="1.5" height="1.5"/>
	<rect x="6" y="4.5" fill="#BE1E2D" width="1.5" height="1.5"/>
	<rect x="7.5" y="4.5" fill="#BE1E2D" width="1.5" height="1.5"/>
	<rect x="9" y="4.5" fill="#EF4136" width="1.5" height="1.5"/>
	<rect x="10.5" y="4.5" fill="#EF4136" width="1.5" height="1.5"/>
	<rect x="9" y="3" fill="#EF4136" width="1.5" height="1.5"/>
	<rect x="6" y="1.5" fill="#EF4136" width="1.5" height="1.5"/>
	<rect x="4.5" y="1.5" fill="#EF4136" width="1.5" height="1.5"/>
	<rect x="10.5" y="3" fill="#EF4136" width="1.5" height="1.5"/>
	<rect x="7.5" y="1.5" fill="#BE1E2D" width="1.5" height="1.5"/>
	<rect x="9" y="1.5" fill="#EF4136" width="1.5" height="1.5"/>
	<rect x="10.5" y="1.5" fill="#EF4136" width="1.5" height="1.5"/>
	<rect x="6" fill="#BE1E2D" width="1.5" height="1.5"/>
	<rect x="7.5" fill="#EF4136" width="1.5" height="1.5"/>
	<rect x="9" fill="#EF4136" width="1.5" height="1.5"/>
	<rect x="10.5" fill="#EF4136" width="1.5" height="1.5"/>
	<rect x="12" y="4.5" fill="#BE1E2D" width="1.5" height="1.5"/>
	<rect x="13.5" y="5.997" fill="#EF4136" width="1.5" height="1.5"/>
	<rect x="13.5" y="4.5" fill="#BE1E2D" width="1.5" height="1.5"/>
	<rect x="12" y="3" fill="#EF4136" width="1.5" height="1.5"/>
	<rect x="13.5" y="3" fill="#EF4136" width="1.5" height="1.5"/>
	<rect x="12" y="1.5" fill="#EF4136" width="1.5" height="1.5"/>
	<rect x="12" fill="#EF4136" width="1.5" height="1.5"/>
	<rect x="13.5" y="1.5" fill="#EF4136" width="1.5" height="1.5"/>
	<rect x="10.5" y="7.497" fill="#7A1D0F" width="1.5" height="1.5"/>
	<rect x="12" y="7.497" fill="#7A1D0F" width="1.5" height="1.5"/>
	<rect x="10.5" y="8.997" fill="#EF4136" width="1.5" height="1.5"/>
	<rect x="12" y="8.997" fill="#EF4136" width="1.5" height="1.5"/>
	<rect x="13.5" y="10.491" fill="#231F20" width="1.5" height="1.5"/>
	<rect x="13.5" y="14.984" fill="#231F20" width="1.5" height="1.5"/>
	<rect x="13.5" y="7.497" fill="#7A1D0F" width="1.5" height="1.5"/>
	<rect x="13.5" y="8.997" fill="#EF4136" width="1.5" height="1.5"/>
</g>
</svg>
