<?xml version="1.0" encoding="utf-8"?>
<!-- Generator: Adobe Illustrator 15.0.2, SVG Export Plug-In  -->
<!DOCTYPE svg PUBLIC "-//W3C//DTD SVG 1.1//EN" "http://www.w3.org/Graphics/SVG/1.1/DTD/svg11.dtd" [
	<!ENTITY ns_flows "http://ns.adobe.com/Flows/1.0/">
]>
<svg version="1.1"
	 xmlns="http://www.w3.org/2000/svg" xmlns:xlink="http://www.w3.org/1999/xlink" xmlns:a="http://ns.adobe.com/AdobeSVGViewerExtensions/3.0/"
	 x="0px" y="0px" width="24px" height="30px" viewBox="0 0 24 30" enable-background="new 0 0 24 30" xml:space="preserve">
<defs>
</defs>
<rect x="6" y="22.482" fill="#85592E" width="1.5" height="1.5"/>
<rect x="7.5" y="22.482" fill="#AC804B" width="1.5" height="1.5"/>
<rect x="9" y="22.482" fill="#AC804B" width="1.5" height="1.5"/>
<rect x="10.5" y="22.482" fill="#AC804B" width="1.5" height="1.5"/>
<rect x="12" y="22.482" fill="#AC804B" width="1.5" height="1.5"/>
<rect x="7.5" y="25.482" fill="#597780" width="1.5" height="1.5"/>
<rect x="9" y="25.482" fill="#AC804B" width="1.5" height="1.5"/>
<rect x="12" y="25.482" fill="#AC804B" width="1.5" height="1.5"/>
<rect x="10.5" y="25.482" fill="#85592E" width="1.5" height="1.5"/>
<rect x="6" y="25.482" fill="#597780" width="1.5" height="1.5"/>
<rect x="6" y="26.982" fill="#001B30" width="1.5" height="1.5"/>
<rect x="4.5" y="25.482" fill="#597780" width="1.5" height="1.5"/>
<rect x="3" y="25.482" fill="#AC804B" width="1.5" height="1.5"/>
<rect x="13.5" y="25.482" fill="#597780" width="1.5" height="1.5"/>
<rect x="16.5" y="25.482" fill="#597780" width="1.5" height="1.5"/>
<rect x="18" y="25.482" fill="#AC804B" width="1.5" height="1.5"/>
<rect x="19.5" y="25.482" fill="#AC804B" width="1.5" height="1.5"/>
<rect x="7.5" y="28.482" fill="#BD1E2D" width="1.5" height="1.5"/>
<rect x="9" y="28.482" fill="#BD1E2D" width="1.5" height="1.5"/>
<rect x="12" y="28.482" fill="#BD1E2D" width="1.5" height="1.5"/>
<rect x="10.5" y="28.482" fill="#597780" width="1.5" height="1.5"/>
<rect x="6" y="28.482" fill="#597780" width="1.5" height="1.5"/>
<rect x="4.5" y="28.482" fill="#AC804B" width="1.5" height="1.5"/>
<rect x="3" y="28.482" fill="#AC804B" width="1.5" height="1.5"/>
<rect x="13.5" y="28.482" fill="#BD1E2D" width="1.5" height="1.5"/>
<rect x="16.5" y="28.482" fill="#AC804B" width="1.5" height="1.5"/>
<rect x="18" y="28.482" fill="#AC804B" width="1.5" height="1.5"/>
<rect x="19.5" y="28.482" fill="#AC804B" width="1.5" height="1.5"/>
<rect x="7.5" y="23.982" fill="#AC804B" width="1.5" height="1.5"/>
<rect x="9" y="23.982" fill="#AC804B" width="1.5" height="1.5"/>
<rect x="12" y="23.982" fill="#AC804B" width="1.5" height="1.5"/>
<rect x="10.5" y="23.982" fill="#AC804B" width="1.5" height="1.5"/>
<rect x="6" y="23.982" fill="#597780" width="1.5" height="1.5"/>
<rect x="4.5" y="23.982" fill="#597780" width="1.5" height="1.5"/>
<rect x="4.5" y="22.482" fill="#597780" width="1.5" height="1.5"/>
<rect x="3" y="22.482" fill="#597780" width="1.5" height="1.5"/>
<rect x="3" y="23.982" fill="#AC804B" width="1.5" height="1.5"/>
<rect x="13.5" y="23.982" fill="#AC804B" width="1.5" height="1.5"/>
<rect x="16.5" y="23.982" fill="#597780" width="1.5" height="1.5"/>
<rect x="18" y="23.982" fill="#AC804B" width="1.5" height="1.5"/>
<rect x="18" y="22.482" fill="#597780" width="1.5" height="1.5"/>
<rect x="21" y="22.482" fill="#B1B8BE" width="1.5" height="1.5"/>
<rect x="22.5" y="22.482" fill="#B1B8BE" width="1.5" height="1.5"/>
<rect x="19.5" y="22.482" fill="#B1B8BE" width="1.5" height="1.5"/>
<rect x="21" y="20.982" fill="#B1B8BE" width="1.5" height="1.5"/>
<rect x="22.5" y="20.982" fill="#B1B8BE" width="1.5" height="1.5"/>
<rect x="19.5" y="20.982" fill="#B1B8BE" width="1.5" height="1.5"/>
<rect x="21" y="19.482" fill="#B1B8BE" width="1.5" height="1.5"/>
<rect x="19.5" y="19.482" fill="#B1B8BE" width="1.5" height="1.5"/>
<rect x="21" y="17.982" fill="#B1B8BE" width="1.5" height="1.5"/>
<rect x="19.5" y="17.982" fill="#B1B8BE" width="1.5" height="1.5"/>
<rect x="19.5" y="23.982" fill="#AC804B" width="1.5" height="1.5"/>
<rect x="7.5" y="26.982" fill="#597780" width="1.5" height="1.5"/>
<rect x="9" y="26.982" fill="#597780" width="1.5" height="1.5"/>
<rect x="12" y="26.982" fill="#597780" width="1.5" height="1.5"/>
<rect x="10.5" y="26.982" fill="#597780" width="1.5" height="1.5"/>
<rect x="6" y="26.982" fill="#597780" width="1.5" height="1.5"/>
<rect x="4.5" y="26.982" fill="#597780" width="1.5" height="1.5"/>
<rect x="3" y="26.982" fill="#BC996F" width="1.5" height="1.5"/>
<rect x="1.5" y="25.482" fill="#AC804B" width="1.5" height="1.5"/>
<rect x="1.5" y="23.982" fill="#AC804B" width="1.5" height="1.5"/>
<rect x="1.5" y="28.482" fill="#AC804B" width="1.5" height="1.5"/>
<rect x="1.5" y="26.982" fill="#AC804B" width="1.5" height="1.5"/>
<rect y="25.482" fill="#BC996F" width="1.5" height="1.5"/>
<rect y="28.482" fill="#AC804B" width="1.5" height="1.5"/>
<rect y="26.982" fill="#AC804B" width="1.5" height="1.5"/>
<rect x="13.5" y="26.982" fill="#597780" width="1.5" height="1.5"/>
<rect x="15" y="25.482" fill="#597780" width="1.5" height="1.5"/>
<rect x="15" y="28.482" fill="#597780" width="1.5" height="1.5"/>
<rect x="15" y="23.982" fill="#597780" width="1.5" height="1.5"/>
<rect x="15" y="22.482" fill="#AC804B" width="1.5" height="1.5"/>
<rect x="15" y="26.982" fill="#597780" width="1.5" height="1.5"/>
<rect x="16.5" y="26.982" fill="#597780" width="1.5" height="1.5"/>
<rect x="18" y="26.982" fill="#AC804B" width="1.5" height="1.5"/>
<rect x="19.5" y="26.982" fill="#BC996F" width="1.5" height="1.5"/>
<rect x="21" y="25.482" fill="#AC804B" width="1.5" height="1.5"/>
<rect x="21" y="23.982" fill="#AC804B" width="1.5" height="1.5"/>
<rect x="21" y="28.482" fill="#AC804B" width="1.5" height="1.5"/>
<rect x="21" y="26.982" fill="#AC804B" width="1.5" height="1.5"/>
<rect x="22.5" y="26.982" fill="#AC804B" width="1.5" height="1.5"/>
<rect x="22.5" y="25.482" fill="#BC996F" width="1.5" height="1.5"/>
<rect x="22.5" y="28.482" fill="#AC804B" width="1.5" height="1.5"/>
<rect x="13.5" y="22.482" fill="#AC804B" width="1.5" height="1.5"/>
<rect x="16.5" y="22.482" fill="#597780" width="1.5" height="1.5"/>
<rect x="18" y="20.982" fill="#B1B8BE" width="1.5" height="1.5"/>
<rect x="3" y="1.5" fill="#D39322" width="1.5" height="1.5"/>
<rect x="4.5" fill="#CA7B1F" width="1.5" height="1.5"/>
<rect x="6" fill="#D39322" width="1.5" height="1.5"/>
<rect x="7.5" fill="#D39322" width="1.5" height="1.5"/>
<rect x="4.5" y="1.5" fill="#D39322" width="1.5" height="1.5"/>
<rect x="6" y="1.5" fill="#D39322" width="1.5" height="1.5"/>
<rect x="7.5" y="1.5" fill="#D39322" width="1.5" height="1.5"/>
<rect x="1.5" y="4.497" fill="#D39322" width="1.5" height="1.5"/>
<rect x="3" y="4.497" fill="#D39322" width="1.5" height="1.5"/>
<rect x="4.5" y="4.497" fill="#CA7B1F" width="1.5" height="1.5"/>
<rect x="6" y="4.497" fill="#D39322" width="1.5" height="1.5"/>
<rect x="7.5" y="4.497" fill="#CA7B1F" width="1.5" height="1.5"/>
<rect x="9" y="4.497" fill="#D39322" width="1.5" height="1.5"/>
<rect x="3" y="5.997" fill="#AC804B" width="1.5" height="1.5"/>
<rect x="4.5" y="5.997" fill="#AC804B" width="1.5" height="1.5"/>
<rect x="6" y="5.997" fill="#D39322" width="1.5" height="1.5"/>
<rect x="7.5" y="5.997" fill="#CA7B1F" width="1.5" height="1.5"/>
<rect x="9" y="5.997" fill="#D39322" width="1.5" height="1.5"/>
<rect x="3" y="7.497" fill="#AC804B" width="1.5" height="1.5"/>
<rect x="1.5" y="5.997" fill="#85592E" width="1.5" height="1.5"/>
<rect x="1.5" y="7.497" fill="#AC804B" width="1.5" height="1.5"/>
<rect x="1.5" y="8.991" fill="#AC804B" width="1.5" height="1.5"/>
<rect x="3" y="8.991" fill="#3B2314" width="1.5" height="1.5"/>
<rect x="1.5" y="10.488" fill="#AC804B" width="1.5" height="1.5"/>
<rect y="10.488" fill="#AC804B" width="1.5" height="1.5"/>
<rect x="1.5" y="11.991" fill="#AC804B" width="1.5" height="1.5"/>
<rect x="3" y="10.488" fill="#AC804B" width="1.5" height="1.5"/>
<rect y="11.991" fill="#AC804B" width="1.5" height="1.5"/>
<rect x="3" y="11.991" fill="#AC804B" width="1.5" height="1.5"/>
<rect x="1.5" y="13.488" fill="#AC804B" width="1.5" height="1.5"/>
<rect x="3" y="13.488" fill="#AC804B" width="1.5" height="1.5"/>
<rect x="6" y="13.488" fill="#AC804B" width="1.5" height="1.5"/>
<rect x="4.5" y="13.488" fill="#AC804B" width="1.5" height="1.5"/>
<rect x="7.5" y="13.488" fill="#AC804B" width="1.5" height="1.5"/>
<rect x="10.5" y="13.488" fill="#D39322" width="1.5" height="1.5"/>
<rect x="9" y="13.488" fill="#D39322" width="1.5" height="1.5"/>
<rect x="6" y="14.985" fill="#1A1818" width="1.5" height="1.5"/>
<rect x="4.5" y="14.985" fill="#FFFFFF" width="1.5" height="1.5"/>
<rect x="3" y="14.985" fill="#FFFFFF" width="1.5" height="1.5"/>
<rect x="7.5" y="14.985" fill="#AC804B" width="1.5" height="1.5"/>
<rect x="9" y="14.985" fill="#CA7B1F" width="1.5" height="1.5"/>
<rect x="6" y="16.482" fill="#AC804B" width="1.5" height="1.5"/>
<rect x="4.5" y="16.482" fill="#AC804B" width="1.5" height="1.5"/>
<rect x="3" y="16.482" fill="#AC804B" width="1.5" height="1.5"/>
<rect x="3" y="17.982" fill="#AC804B" width="1.5" height="1.5"/>
<rect x="7.5" y="16.482" fill="#AC804B" width="1.5" height="1.5"/>
<rect x="9" y="16.482" fill="#AC804B" width="1.5" height="1.5"/>
<rect x="6" y="17.982" fill="#AC804B" width="1.5" height="1.5"/>
<rect x="4.5" y="17.982" fill="#AC804B" width="1.5" height="1.5"/>
<rect x="7.5" y="17.982" fill="#85592E" width="1.5" height="1.5"/>
<rect x="6" y="19.482" fill="#85592E" width="1.5" height="1.5"/>
<rect x="7.5" y="19.482" fill="#AC804B" width="1.5" height="1.5"/>
<rect x="7.5" y="20.982" fill="#85592E" width="1.5" height="1.5"/>
<rect x="6" y="20.982" fill="#85592E" width="1.5" height="1.5"/>
<rect x="9" y="19.482" fill="#AC804B" width="1.5" height="1.5"/>
<rect x="9" y="17.982" fill="#AC804B" width="1.5" height="1.5"/>
<rect x="10.5" y="17.982" fill="#AC804B" width="1.5" height="1.5"/>
<rect x="10.5" y="19.482" fill="#AC804B" width="1.5" height="1.5"/>
<rect x="12" y="19.482" fill="#AC804B" width="1.5" height="1.5"/>
<rect x="13.5" y="19.482" fill="#AC804B" width="1.5" height="1.5"/>
<rect x="12" y="17.982" fill="#85592E" width="1.5" height="1.5"/>
<rect x="13.5" y="17.982" fill="#AC804B" width="1.5" height="1.5"/>
<rect x="15" y="19.482" fill="#AC804B" width="1.5" height="1.5"/>
<rect x="15" y="17.982" fill="#AC804B" width="1.5" height="1.5"/>
<rect x="10.5" y="20.982" fill="#AC804B" width="1.5" height="1.5"/>
<rect x="9" y="20.982" fill="#AC804B" width="1.5" height="1.5"/>
<rect x="12" y="20.982" fill="#AC804B" width="1.5" height="1.5"/>
<rect x="13.5" y="20.982" fill="#AC804B" width="1.5" height="1.5"/>
<rect x="15" y="20.982" fill="#AC804B" width="1.5" height="1.5"/>
<rect x="12" y="13.488" fill="#D39322" width="1.5" height="1.5"/>
<rect x="10.5" y="11.991" fill="#D39322" width="1.5" height="1.5"/>
<rect x="12" y="11.991" fill="#CA7B1F" width="1.5" height="1.5"/>
<rect x="10.5" y="16.482" fill="#85592E" width="1.5" height="1.5"/>
<rect x="12" y="16.482" fill="#CA7B1F" width="1.5" height="1.5"/>
<rect x="10.5" y="14.985" fill="#D39322" width="1.5" height="1.5"/>
<rect x="12" y="14.985" fill="#CA7B1F" width="1.5" height="1.5"/>
<rect x="13.5" y="13.488" fill="#D39322" width="1.5" height="1.5"/>
<rect x="13.5" y="11.991" fill="#D39322" width="1.5" height="1.5"/>
<rect x="13.5" y="16.482" fill="#D39322" width="1.5" height="1.5"/>
<rect x="13.5" y="14.985" fill="#D39322" width="1.5" height="1.5"/>
<rect x="10.5" y="10.488" fill="#D39322" width="1.5" height="1.5"/>
<rect x="12" y="10.488" fill="#D39322" width="1.5" height="1.5"/>
<rect x="10.5" y="8.991" fill="#D39322" width="1.5" height="1.5"/>
<rect x="12" y="8.991" fill="#D39322" width="1.5" height="1.5"/>
<rect x="13.5" y="10.488" fill="#CA7B1F" width="1.5" height="1.5"/>
<rect x="15" y="13.488" fill="#CA7B1F" width="1.5" height="1.5"/>
<rect x="15" y="11.991" fill="#CA7B1F" width="1.5" height="1.5"/>
<rect x="15" y="16.482" fill="#D39322" width="1.5" height="1.5"/>
<rect x="15" y="14.985" fill="#CA7B1F" width="1.5" height="1.5"/>
<rect x="15" y="10.488" fill="#D39322" width="1.5" height="1.5"/>
<rect x="15" y="10.488" fill="#D39322" width="1.5" height="1.5"/>
<rect x="15" y="8.991" fill="#D39322" width="1.5" height="1.5"/>
<rect x="15" y="7.497" fill="#D39322" width="1.5" height="1.5"/>
<rect x="16.5" y="13.488" fill="#D39322" width="1.5" height="1.5"/>
<rect x="16.5" y="11.991" fill="#D39322" width="1.5" height="1.5"/>
<rect x="16.5" y="16.482" fill="#D39322" width="1.5" height="1.5"/>
<rect x="18" y="16.482" fill="#CA7B1F" width="1.5" height="1.5"/>
<rect x="16.5" y="14.985" fill="#D39322" width="1.5" height="1.5"/>
<rect x="18" y="13.488" fill="#D39322" width="1.5" height="1.5"/>
<rect x="18" y="14.985" fill="#CA7B1F" width="1.5" height="1.5"/>
<rect x="19.5" y="14.985" fill="#D39322" width="1.5" height="1.5"/>
<rect x="13.5" y="8.991" fill="#D39322" width="1.5" height="1.5"/>
<rect x="13.5" y="7.497" fill="#D39322" width="1.5" height="1.5"/>
<rect x="13.5" y="5.997" fill="#D39322" width="1.5" height="1.5"/>
<rect x="13.5" y="4.497" fill="#D39322" width="1.5" height="1.5"/>
<rect x="4.5" y="7.497" fill="#AC804B" width="1.5" height="1.5"/>
<rect x="6" y="7.497" fill="#AC804B" width="1.5" height="1.5"/>
<rect x="7.5" y="7.497" fill="#85592E" width="1.5" height="1.5"/>
<rect x="9" y="7.497" fill="#CA7B1F" width="1.5" height="1.5"/>
<rect x="4.5" y="8.991" fill="#FFFFFF" width="1.5" height="1.5"/>
<rect x="6" y="8.991" fill="#AC804B" width="1.5" height="1.5"/>
<rect x="7.5" y="8.991" fill="#AC804B" width="1.5" height="1.5"/>
<rect x="9" y="8.991" fill="#D39322" width="1.5" height="1.5"/>
<rect x="4.5" y="10.488" fill="#AC804B" width="1.5" height="1.5"/>
<rect x="6" y="10.488" fill="#AC804B" width="1.5" height="1.5"/>
<rect x="7.5" y="10.488" fill="#AC804B" width="1.5" height="1.5"/>
<rect x="9" y="10.488" fill="#CA7B1F" width="1.5" height="1.5"/>
<rect x="4.5" y="11.988" fill="#AC804B" width="1.5" height="1.5"/>
<rect x="6" y="11.988" fill="#AC804B" width="1.5" height="1.5"/>
<rect x="7.5" y="11.988" fill="#1A1818" width="1.5" height="1.5"/>
<rect x="9" y="11.988" fill="#D39322" width="1.5" height="1.5"/>
<rect x="10.5" y="4.497" fill="#D39322" width="1.5" height="1.5"/>
<rect x="12" y="4.497" fill="#D39322" width="1.5" height="1.5"/>
<rect x="1.5" y="3" fill="#CA7B1F" width="1.5" height="1.5"/>
<rect x="3" y="3" fill="#D39322" width="1.5" height="1.5"/>
<rect x="4.5" y="3" fill="#D39322" width="1.5" height="1.5"/>
<rect x="6" y="3" fill="#D39322" width="1.5" height="1.5"/>
<rect x="7.5" y="3" fill="#CA7B1F" width="1.5" height="1.5"/>
<rect x="9" y="3" fill="#D39322" width="1.5" height="1.5"/>
<rect x="10.5" y="3" fill="#D39322" width="1.5" height="1.5"/>
<rect x="9" y="1.5" fill="#D39322" width="1.5" height="1.5"/>
<rect x="10.5" y="1.5" fill="#D39322" width="1.5" height="1.5"/>
<rect x="10.5" fill="#D39322" width="1.5" height="1.5"/>
<rect x="9" fill="#D39322" width="1.5" height="1.5"/>
<rect x="12" fill="#D39322" width="1.5" height="1.5"/>
<rect x="12" y="1.5" fill="#D39322" width="1.5" height="1.5"/>
<rect x="12" y="3" fill="#D39322" width="1.5" height="1.5"/>
<rect x="13.5" y="1.5" fill="#D39322" width="1.5" height="1.5"/>
<rect x="13.5" y="3" fill="#D39322" width="1.5" height="1.5"/>
<rect x="15" y="5.997" fill="#D39322" width="1.5" height="1.5"/>
<rect x="15" y="4.497" fill="#D39322" width="1.5" height="1.5"/>
<rect x="16.5" y="8.991" fill="#D39322" width="1.5" height="1.5"/>
<rect x="16.5" y="7.497" fill="#D39322" width="1.5" height="1.5"/>
<rect x="16.5" y="5.997" fill="#D39322" width="1.5" height="1.5"/>
<rect x="18" y="8.991" fill="#D39322" width="1.5" height="1.5"/>
<rect x="16.5" y="10.488" fill="#D39322" width="1.5" height="1.5"/>
<rect x="18" y="10.488" fill="#D39322" width="1.5" height="1.5"/>
<rect x="18" y="11.991" fill="#CA7B1F" width="1.5" height="1.5"/>
<rect x="19.5" y="11.991" fill="#D39322" width="1.5" height="1.5"/>
<rect x="19.5" y="13.488" fill="#D39322" width="1.5" height="1.5"/>
<rect x="16.5" y="4.497" fill="#D39322" width="1.5" height="1.5"/>
<rect x="15" y="3" fill="#D39322" width="1.5" height="1.5"/>
<rect x="10.5" y="5.997" fill="#D39322" width="1.5" height="1.5"/>
<rect x="12" y="5.997" fill="#D39322" width="1.5" height="1.5"/>
<rect x="10.5" y="7.497" fill="#D39322" width="1.5" height="1.5"/>
<rect x="12" y="7.497" fill="#D39322" width="1.5" height="1.5"/>
</svg>
