<?xml version="1.0" encoding="utf-8"?>
<!-- Generator: Adobe Illustrator 15.0.2, SVG Export Plug-In . SVG Version: 6.00 Build 0)  -->
<!DOCTYPE svg PUBLIC "-//W3C//DTD SVG 1.1//EN" "http://www.w3.org/Graphics/SVG/1.1/DTD/svg11.dtd">
<svg version="1.1" id="Layer_1" xmlns="http://www.w3.org/2000/svg" xmlns:xlink="http://www.w3.org/1999/xlink" x="0px" y="0px"
	 width="18px" height="31.176px" viewBox="0 0 18 31.176" enable-background="new 0 0 18 31.176" xml:space="preserve">
<g>
	<rect x="1.531" y="5.69" fill="#8B5E3C" width="1.5" height="1.5"/>
	<rect x="0.031" y="5.69" fill="#3C2415" width="1.5" height="1.5"/>
	<rect x="0.031" y="7.19" fill="#603913" width="1.5" height="1.5"/>
	<rect x="3.031" y="5.69" fill="#3C2415" width="1.5" height="1.5"/>
	<rect x="4.531" y="5.69" fill="#3C2415" width="1.5" height="1.5"/>
	<rect x="6.031" y="5.69" fill="#3C2415" width="1.5" height="1.5"/>
	<rect x="7.531" y="5.69" fill="#603913" width="1.5" height="1.5"/>
	<rect x="9.031" y="5.69" fill="#3C2415" width="1.5" height="1.5"/>
	<rect x="1.531" y="7.19" fill="#E8CD8D" width="1.5" height="1.5"/>
	<rect x="3.031" y="7.19" fill="#E8CD8D" width="1.5" height="1.5"/>
	<rect x="4.531" y="7.19" fill="#E8CD8D" width="1.5" height="1.5"/>
	<rect x="6.031" y="7.19" fill="#E8CD8D" width="1.5" height="1.5"/>
	<rect x="7.531" y="7.19" fill="#603913" width="1.5" height="1.5"/>
	<rect x="1.531" y="8.69" fill="#E8CD8D" width="1.5" height="1.5"/>
	<rect x="3.031" y="8.69" fill="#8B5E3C" width="1.5" height="1.5"/>
	<rect x="4.531" y="8.69" fill="#8B5E3C" width="1.5" height="1.5"/>
	<rect x="6.031" y="8.69" fill="#E8CD8D" width="1.5" height="1.5"/>
	<rect x="7.531" y="8.69" fill="#E8CD8D" width="1.5" height="1.5"/>
	<rect x="9.031" y="7.19" fill="#E8CD8D" width="1.5" height="1.5"/>
	<rect x="1.5" y="10.19" fill="#E8CD8D" width="1.5" height="1.5"/>
	<rect x="3" y="10.19" fill="#E8CD8D" width="1.5" height="1.5"/>
	<rect x="1.5" y="11.685" fill="#E8CD8D" width="1.5" height="1.5"/>
	<rect x="3" y="11.685" fill="#3C2415" width="1.5" height="1.5"/>
	<rect x="1.5" y="13.182" fill="#E8CD8D" width="1.5" height="1.5"/>
	<rect x="3" y="13.182" fill="#E8CD8D" width="1.5" height="1.5"/>
	<rect x="1.5" y="14.685" fill="#E8CD8D" width="1.5" height="1.5"/>
	<rect x="3" y="14.685" fill="#E8CD8D" width="1.5" height="1.5"/>
	<rect x="1.5" y="16.182" fill="#3C2415" width="1.5" height="1.5"/>
	<rect y="14.682" fill="#E8CD8D" width="1.5" height="1.5"/>
	<rect y="13.182" fill="#E8CD8D" width="1.5" height="1.5"/>
	<rect x="3" y="16.182" fill="#3C2415" width="1.5" height="1.5"/>
	<rect x="6" y="16.182" fill="#3C2415" width="1.5" height="1.5"/>
	<rect x="4.5" y="16.182" fill="#603913" width="1.5" height="1.5"/>
	<rect x="7.5" y="16.182" fill="#603913" width="1.5" height="1.5"/>
	<rect x="10.5" y="16.182" fill="#3C2415" width="1.5" height="1.5"/>
	<rect x="9" y="16.182" fill="#E8CD8D" width="1.5" height="1.5"/>
	<rect x="6" y="17.679" fill="#FFFFFF" width="1.5" height="1.5"/>
	<rect x="4.5" y="17.679" fill="#FFFFFF" width="1.5" height="1.5"/>
	<rect x="7.5" y="17.679" fill="#FFFFFF" width="1.5" height="1.5"/>
	<rect x="9" y="17.679" fill="#9B8579" width="1.5" height="1.5"/>
	<rect x="6" y="19.176" fill="#BE1E2D" width="1.5" height="1.5"/>
	<rect x="4.5" y="19.176" fill="#BE1E2D" width="1.5" height="1.5"/>
	<rect x="7.5" y="19.176" fill="#BE1E2D" width="1.5" height="1.5"/>
	<rect x="9" y="19.176" fill="#3C2415" width="1.5" height="1.5"/>
	<rect x="6" y="20.676" fill="#3C2415" width="1.5" height="1.5"/>
	<rect x="4.5" y="20.676" fill="#3C2415" width="1.5" height="1.5"/>
	<rect x="7.5" y="20.676" fill="#3C2415" width="1.5" height="1.5"/>
	<rect x="6" y="22.176" fill="#E8CD8D" width="1.5" height="1.5"/>
	<rect x="7.5" y="22.176" fill="#E8CD8D" width="1.5" height="1.5"/>
	<rect x="6" y="23.676" fill="#E8CD8D" width="1.5" height="1.5"/>
	<rect x="7.5" y="23.676" fill="#E8CD8D" width="1.5" height="1.5"/>
	<rect x="9" y="22.176" fill="#E8CD8D" width="1.5" height="1.5"/>
	<rect x="9" y="20.676" fill="#3C2415" width="1.5" height="1.5"/>
	<rect x="10.5" y="20.676" fill="#E8CD8D" width="1.5" height="1.5"/>
	<rect x="10.5" y="22.176" fill="#231F20" width="1.5" height="1.5"/>
	<rect x="12" y="22.176" fill="#7A1D0F" width="1.5" height="1.5"/>
	<rect x="12" y="20.676" fill="#414042" width="1.5" height="1.5"/>
	<rect x="13.531" y="20.676" fill="#BE1E2D" width="1.5" height="1.5"/>
	<rect x="15" y="20.676" fill="#231F20" width="1.5" height="1.5"/>
	<rect x="13.5" y="22.176" fill="#231F20" width="1.5" height="1.5"/>
	<rect x="10.5" y="23.676" fill="#BE1E2D" width="1.5" height="1.5"/>
	<rect x="9" y="23.676" fill="#E8CD8D" width="1.5" height="1.5"/>
	<rect x="4.5" y="23.676" fill="#BE1E2D" width="1.5" height="1.5"/>
	<rect x="3" y="23.676" fill="#414042" width="1.5" height="1.5"/>
	<rect x="3" y="22.176" fill="#BE1E2D" width="1.5" height="1.5"/>
	<rect x="1.531" y="22.176" fill="#231F20" width="1.5" height="1.5"/>
	<rect x="12" y="23.676" fill="#231F20" width="1.5" height="1.5"/>
	<rect x="13.5" y="23.676" fill="#7A1D0F" width="1.5" height="1.5"/>
	<rect x="15" y="23.676" fill="#231F20" width="1.5" height="1.5"/>
	<rect x="16.5" y="23.676" fill="#7A1D0F" width="1.5" height="1.5"/>
	<rect x="6" y="25.176" fill="#E8CD8D" width="1.5" height="1.5"/>
	<rect x="7.5" y="25.176" fill="#E8CD8D" width="1.5" height="1.5"/>
	<rect x="10.5" y="25.176" fill="#414042" width="1.5" height="1.5"/>
	<rect x="9" y="25.176" fill="#E8CD8D" width="1.5" height="1.5"/>
	<rect x="4.5" y="25.176" fill="#231F20" width="1.5" height="1.5"/>
	<rect x="3" y="25.176" fill="#7A1D0F" width="1.5" height="1.5"/>
	<rect x="1.5" y="25.176" fill="#231F20" width="1.5" height="1.5"/>
	<rect x="12" y="25.176" fill="#7A1D0F" width="1.5" height="1.5"/>
	<rect x="13.5" y="25.176" fill="#231F20" width="1.5" height="1.5"/>
	<rect x="15" y="25.176" fill="#7A1D0F" width="1.5" height="1.5"/>
	<rect x="16.5" y="25.176" fill="#231F20" width="1.5" height="1.5"/>
	<rect x="6" y="26.676" fill="#F1F2F2" width="1.5" height="1.5"/>
	<rect x="7.5" y="26.676" fill="#E8CD8D" width="1.5" height="1.5"/>
	<rect x="10.5" y="26.676" fill="#BE1E2D" width="1.5" height="1.5"/>
	<rect x="9" y="26.676" fill="#F1F2F2" width="1.5" height="1.5"/>
	<rect x="4.5" y="26.676" fill="#BE1E2D" width="1.5" height="1.5"/>
	<rect x="3" y="26.676" fill="#231F20" width="1.5" height="1.5"/>
	<rect x="1.5" y="26.676" fill="#7A1D0F" width="1.5" height="1.5"/>
	<rect x="12" y="26.676" fill="#231F20" width="1.5" height="1.5"/>
	<rect x="13.5" y="26.676" fill="#7A1D0F" width="1.5" height="1.5"/>
	<rect x="15" y="26.676" fill="#414042" width="1.5" height="1.5"/>
	<rect x="16.5" y="26.676" fill="#7A1D0F" width="1.5" height="1.5"/>
	<rect x="6" y="28.176" fill="#F1F2F2" width="1.5" height="1.5"/>
	<rect x="7.5" y="28.176" fill="#E8CD8D" width="1.5" height="1.5"/>
	<rect x="10.5" y="28.176" fill="#231F20" width="1.5" height="1.5"/>
	<rect x="9" y="28.176" fill="#F1F2F2" width="1.5" height="1.5"/>
	<rect x="4.5" y="28.176" fill="#414042" width="1.5" height="1.5"/>
	<rect x="3" y="28.176" fill="#7A1D0F" width="1.5" height="1.5"/>
	<rect x="1.5" y="28.176" fill="#414042" width="1.5" height="1.5"/>
	<rect x="12" y="28.176" fill="#7A1D0F" width="1.5" height="1.5"/>
	<rect x="13.5" y="28.176" fill="#231F20" width="1.5" height="1.5"/>
	<rect x="15" y="28.176" fill="#7A1D0F" width="1.5" height="1.5"/>
	<rect x="16.5" y="28.176" fill="#231F20" width="1.5" height="1.5"/>
	<rect x="6" y="29.676" fill="#F1F2F2" width="1.5" height="1.5"/>
	<rect x="7.5" y="29.676" fill="#F1F2F2" width="1.5" height="1.5"/>
	<rect x="10.5" y="29.676" fill="#BE1E2D" width="1.5" height="1.5"/>
	<rect x="9" y="29.676" fill="#F1F2F2" width="1.5" height="1.5"/>
	<rect x="4.5" y="29.676" fill="#BE1E2D" width="1.5" height="1.5"/>
	<rect x="3" y="29.676" fill="#231F20" width="1.5" height="1.5"/>
	<rect x="1.5" y="29.676" fill="#7A1D0F" width="1.5" height="1.5"/>
	<rect x="12" y="29.676" fill="#414042" width="1.5" height="1.5"/>
	<rect x="13.5" y="29.676" fill="#7A1D0F" width="1.5" height="1.5"/>
	<rect x="15" y="29.676" fill="#231F20" width="1.5" height="1.5"/>
	<rect x="16.5" y="29.676" fill="#7A1D0F" width="1.5" height="1.5"/>
	<rect x="12" y="16.182" fill="#E8CD8D" width="1.5" height="1.5"/>
	<rect x="10.5" y="14.685" fill="#3C2415" width="1.5" height="1.5"/>
	<rect x="12" y="14.685" fill="#E8CD8D" width="1.5" height="1.5"/>
	<rect x="10.5" y="19.176" fill="#E8CD8D" width="1.5" height="1.5"/>
	<rect x="12" y="19.176" fill="#E8CD8D" width="1.5" height="1.5"/>
	<rect x="10.5" y="17.679" fill="#3C2415" width="1.5" height="1.5"/>
	<rect x="12" y="17.679" fill="#E8CD8D" width="1.5" height="1.5"/>
	<rect x="10.5" y="13.182" fill="#8B5E3C" width="1.5" height="1.5"/>
	<rect x="12" y="13.182" fill="#9B8579" width="1.5" height="1.5"/>
	<rect x="10.5" y="11.685" fill="#E8CD8D" width="1.5" height="1.5"/>
	<rect x="12" y="11.685" fill="#E8CD8D" width="1.5" height="1.5"/>
	<rect x="13.5" y="13.182" fill="#E8CD8D" width="1.5" height="1.5"/>
	<rect x="13.5" y="14.685" fill="#E8CD8D" width="1.5" height="1.5"/>
	<rect x="13.5" y="11.685" fill="#E8CD8D" width="1.5" height="1.5"/>
	<rect x="4.5" y="10.19" fill="#E8CD8D" width="1.5" height="1.5"/>
	<rect x="7.5" y="10.19" fill="#E8CD8D" width="1.5" height="1.5"/>
	<rect x="6" y="10.19" fill="#E8CD8D" width="1.5" height="1.5"/>
	<rect x="9" y="10.19" fill="#231F20" width="1.5" height="1.5"/>
	<rect x="4.5" y="11.685" fill="#FFFFFF" width="1.5" height="1.5"/>
	<rect x="6" y="11.685" fill="#E8CD8D" width="1.5" height="1.5"/>
	<rect x="7.5" y="11.685" fill="#E8CD8D" width="1.5" height="1.5"/>
	<rect x="9" y="11.685" fill="#3C2415" width="1.5" height="1.5"/>
	<rect x="4.5" y="13.182" fill="#E8CD8D" width="1.5" height="1.5"/>
	<rect x="6" y="13.182" fill="#E8CD8D" width="1.5" height="1.5"/>
	<rect x="7.5" y="13.182" fill="#E8CD8D" width="1.5" height="1.5"/>
	<rect x="9" y="13.182" fill="#E8CD8D" width="1.5" height="1.5"/>
	<rect x="4.5" y="14.682" fill="#E8CD8D" width="1.5" height="1.5"/>
	<rect x="6" y="14.682" fill="#E8CD8D" width="1.5" height="1.5"/>
	<rect x="7.5" y="14.682" fill="#E8CD8D" width="1.5" height="1.5"/>
	<rect x="9" y="14.682" fill="#E8CD8D" width="1.5" height="1.5"/>
	<rect x="10.531" y="5.69" fill="#603913" width="1.5" height="1.5"/>
	<rect x="12.031" y="5.69" fill="#603913" width="1.5" height="1.5"/>
	<rect x="6.031" y="2.693" fill="#3C2415" width="1.5" height="1.5"/>
	<rect x="7.531" y="2.693" fill="#603913" width="1.5" height="1.5"/>
	<rect x="9" y="2.693" fill="#603913" width="1.5" height="1.5"/>
	<rect x="12" y="4.193" fill="#603913" width="1.5" height="1.5"/>
	<rect x="13.5" y="4.193" fill="#603913" width="1.5" height="1.5"/>
	<rect x="13.5" y="2.693" fill="#603913" width="1.5" height="1.5"/>
	<rect x="15" y="2.693" fill="#603913" width="1.5" height="1.5"/>
	<rect x="11.971" y="1.193" fill="#A97C50" width="1.5" height="1.5"/>
	<rect x="10.5" y="1.193" fill="#603913" width="1.5" height="1.5"/>
	<rect x="13.5" y="5.69" fill="#603913" width="1.5" height="1.5"/>
	<rect x="13.5" y="7.19" fill="#3C2415" width="1.5" height="1.5"/>
	<rect x="13.5" y="8.69" fill="#603913" width="1.5" height="1.5"/>
	<rect x="15" y="8.69" fill="#3C2415" width="1.5" height="1.5"/>
	<rect x="13.5" y="16.182" fill="#603913" width="1.5" height="1.5"/>
	<rect x="15" y="16.182" fill="#603913" width="1.5" height="1.5"/>
	<rect x="13.5" y="17.679" fill="#603913" width="1.5" height="1.5"/>
	<rect x="15" y="7.19" fill="#603913" width="1.5" height="1.5"/>
	<rect x="13.5" y="10.19" fill="#603913" width="1.5" height="1.5"/>
	<rect x="10.5" y="2.693" fill="#603913" width="1.5" height="1.5"/>
	<rect x="7.5" y="1.193" fill="#A97C50" width="1.5" height="1.5"/>
	<rect x="7.5" fill="#603913" width="1.5" height="1.5"/>
	<rect x="9.031" fill="#A97C50" width="1.5" height="1.5"/>
	<rect x="4.531" y="1.193" fill="#3C2415" width="1.5" height="1.5"/>
	<rect x="1.531" y="4.193" fill="#3C2415" width="1.5" height="1.5"/>
	<rect x="3.031" y="4.193" fill="#3C2415" width="1.5" height="1.5"/>
	<rect x="3.031" y="2.693" fill="#603913" width="1.5" height="1.5"/>
	<rect x="4.531" y="4.193" fill="#603913" width="1.5" height="1.5"/>
	<rect x="4.531" y="2.693" fill="#8B5E3C" width="1.5" height="1.5"/>
	<rect x="6.031" y="4.193" fill="#603913" width="1.5" height="1.5"/>
	<rect x="7.531" y="4.193" fill="#3C2415" width="1.5" height="1.5"/>
	<rect x="9.031" y="4.193" fill="#A97C50" width="1.5" height="1.5"/>
	<rect x="10.531" y="4.193" fill="#3C2415" width="1.5" height="1.5"/>
	<rect x="10.531" y="7.19" fill="#3C2415" width="1.5" height="1.5"/>
	<rect x="10.5" y="11.685" fill="#603913" width="1.5" height="1.5"/>
	<rect x="9.031" y="7.19" fill="#603913" width="1.5" height="1.5"/>
	<rect x="9.031" y="8.69" fill="#8B5E3C" width="1.5" height="1.5"/>
	<rect x="10.5" y="8.69" fill="#3C2415" width="1.5" height="1.5"/>
	<rect x="12" y="8.69" fill="#603913" width="1.5" height="1.5"/>
	<rect x="12.031" y="7.19" fill="#8B5E3C" width="1.5" height="1.5"/>
	<rect x="10.5" y="10.19" fill="#231F20" width="1.5" height="1.5"/>
	<rect x="12" y="10.19" fill="#231F20" width="1.5" height="1.5"/>
</g>
</svg>
